<?xml version="1.0" encoding="UTF-8"?>
<svg id="uuid-33b9019a-227c-4b29-834b-b98ab3699fd9" data-name="BACKGROUND" xmlns="http://www.w3.org/2000/svg" xmlns:xlink="http://www.w3.org/1999/xlink" viewBox="0 0 600 600">
  <defs>
    <style>
      .uuid-db2d342c-dc60-4354-bcd8-d0e9ade2f58b, .uuid-02200647-d509-4bc9-8c51-6e44503630e7, .uuid-69de82ef-45d2-4ac8-b174-40855e6c8f67, .uuid-8d919133-5b65-42a2-817d-822bee32b89c {
        fill: none;
      }

      .uuid-4cb3ca3b-3d5a-4984-9db7-94645a77aa19, .uuid-cd95ebfd-e390-4a83-b296-949f962ed2c0, .uuid-0746fdaf-eed6-45f2-9335-e24adb39ec7e {
        fill: #7aa6ff;
      }

      .uuid-4cb3ca3b-3d5a-4984-9db7-94645a77aa19, .uuid-cd95ebfd-e390-4a83-b296-949f962ed2c0, .uuid-0746fdaf-eed6-45f2-9335-e24adb39ec7e, .uuid-7026601e-ac73-4722-8724-6782d5fcae56, .uuid-7158f85d-0d67-4137-9f01-525387b894e4, .uuid-1e2e94b1-2cf5-46d1-9b16-9ae4cdf50723, .uuid-ac3472dd-6b3d-43a7-ac0d-a6ac45903734, .uuid-e70c3405-dc53-4db1-bc45-8f7c0a166942, .uuid-69de82ef-45d2-4ac8-b174-40855e6c8f67, .uuid-b42dfb81-8185-4c6a-97ab-f9ab300ac184 {
        stroke: #000;
        stroke-linecap: round;
        stroke-linejoin: round;
      }

      .uuid-4cb3ca3b-3d5a-4984-9db7-94645a77aa19, .uuid-7026601e-ac73-4722-8724-6782d5fcae56, .uuid-7158f85d-0d67-4137-9f01-525387b894e4, .uuid-e70c3405-dc53-4db1-bc45-8f7c0a166942, .uuid-69de82ef-45d2-4ac8-b174-40855e6c8f67, .uuid-b42dfb81-8185-4c6a-97ab-f9ab300ac184 {
        stroke-width: 2px;
      }

      .uuid-cd95ebfd-e390-4a83-b296-949f962ed2c0 {
        stroke-width: 2px;
      }

      .uuid-0746fdaf-eed6-45f2-9335-e24adb39ec7e {
        stroke-width: 2px;
      }

      .uuid-93657bb0-969d-461a-b9e4-c32ddf689094, .uuid-1e2e94b1-2cf5-46d1-9b16-9ae4cdf50723, .uuid-ac3472dd-6b3d-43a7-ac0d-a6ac45903734 {
        fill: #ff78d8;
      }

      .uuid-7026601e-ac73-4722-8724-6782d5fcae56 {
        fill: #cce0ff;
      }

      .uuid-02200647-d509-4bc9-8c51-6e44503630e7 {
        clip-path: url(#uuid-ba2c04d6-b348-4cfe-ace2-dd0d0eff4692);
      }

      .uuid-7158f85d-0d67-4137-9f01-525387b894e4 {
        fill: #a07bff;
      }

      .uuid-1e2e94b1-2cf5-46d1-9b16-9ae4cdf50723 {
        stroke-width: 2px;
      }

      .uuid-ac3472dd-6b3d-43a7-ac0d-a6ac45903734 {
        stroke-width: 2px;
      }

      .uuid-e70c3405-dc53-4db1-bc45-8f7c0a166942 {
        fill: #fff7f0;
      }

      .uuid-b42dfb81-8185-4c6a-97ab-f9ab300ac184 {
        fill: #f9a723;
      }

      .uuid-8d919133-5b65-42a2-817d-822bee32b89c {
        clip-path: url(#uuid-81bc6615-e2d5-45b2-a0dd-76553182bb44);
      }
    </style>
    <clipPath id="uuid-ba2c04d6-b348-4cfe-ace2-dd0d0eff4692">
      <path class="uuid-db2d342c-dc60-4354-bcd8-d0e9ade2f58b" d="m207.25,349.68l-27.2,23.05c-3,2.4-5.15,5.71-6.11,9.43l-8.11,31.33s-3.38.42-7.09,4.5c-3.66,4.02-41.44,11.33-62.67-2.22-21.24-13.55-16.99-80.29-2.22-96.07,14.76-15.78,47.11-10.11,47.11-10.11l66.3,40.1h0Zm31.03,20.24s-28.11,23.09-30,24.91c-1.89,1.82-3.01,4.97-3.46,6.62-.44,1.66-5.36,20.02-5.36,20.02,0,0,14.6.04,14.65,16.77.05,16.73,23.84,31.06,23.84,31.06h64.07l26.43-46.23-4.73-49.25-37.77-11.87-47.67,7.96h0Z"/>
    </clipPath>
    <clipPath id="uuid-81bc6615-e2d5-45b2-a0dd-76553182bb44">
      <path class="uuid-db2d342c-dc60-4354-bcd8-d0e9ade2f58b" d="m116.73,399.79c-21.8-7.91-23.04-27.28-20.62-45.35,2.42-18.07,12.22-33.97,26.84-28.66,7.9,2.87,5.27,4.6,17.06,8.88s144.23,52.34,152.6,55.38c8.37,3.04,12.48.8,17.53,6.65,5.05,5.85,8.71,15.68-3.84,33.77-12.54,18.09-29.55,27.41-47.55,20.88-18-6.53-121.99-44.27-142.02-51.54h0Z"/>
    </clipPath>
  </defs>
  <g id="uuid-f643ca55-7a97-404e-a44b-e41f0dc207e1" data-name="uuid-b84498ae-e8f6-4225-bedf-b7485dbc9e23">
    <g id="uuid-cc5114dd-9804-47b5-a95f-c974a5cb1dae" data-name="uuid-54dc98d1-5ff7-4f14-90d9-98731fcbd0ae">
      <g class="uuid-02200647-d509-4bc9-8c51-6e44503630e7">
        <g>
          <g>
            <path class="uuid-93657bb0-969d-461a-b9e4-c32ddf689094" d="m116.73,399.79c-21.8-7.91-23.04-27.28-20.62-45.35,2.42-18.07,12.22-33.97,26.84-28.66,7.9,2.87,5.27,4.6,17.06,8.88s144.23,52.34,152.6,55.38c8.37,3.04,12.48.8,17.53,6.65,5.05,5.85,8.71,15.68-3.84,33.77-12.54,18.09-29.55,27.41-47.55,20.88-18-6.53-121.99-44.27-142.02-51.54h0Z"/>
            <g class="uuid-8d919133-5b65-42a2-817d-822bee32b89c">
              <g>
                <g>
                  <g>
                    <polygon class="uuid-7158f85d-0d67-4137-9f01-525387b894e4" points="215.49 451.98 301.74 483.28 206.36 377.38 206.37 377.37 312.39 447.2 322.45 419.48 206.38 377.36 206.4 377.34 286.7 385.2 239.55 368.09 206.44 377.3 224.2 358.6 215.09 353.15 204.61 351.48 206.24 377.23 186.74 348.93 139.6 331.82 206.25 377.29 206.25 377.31 90.18 335.19 80.12 362.91 206.25 377.33 206.25 377.34 65.15 397.42 151.4 428.72 206.25 377.39 206.26 377.49 206.32 377.42 215.49 451.98"/>
                    <polygon class="uuid-7158f85d-0d67-4137-9f01-525387b894e4" points="183.45 440.35 193.24 443.91 206.26 377.49 173.65 436.8 183.45 440.35"/>
                  </g>
                  <g>
                    <g>
                      <path class="uuid-7026601e-ac73-4722-8724-6782d5fcae56" d="m91.7,359.44s8.63-1.05,11.72,4.67c2.79-3.14,6.86-1.51,7.49,1.3,0,0,6.32-3.57,11.03,3.8,1.3-7.14,8.57-5.82,10.24-1.94,2.1-6.57,12.64-3.42,13.92,2.15,3.39-9.73,16.79-9.31,19.7-.94,4.46-1.61,8.21,3.27,6.46,6.72,5.25-.03,5.88,4.14,4.73,6.52,5.99-2.49,14.65,5.49,8.77,21.69l-2.76,7.6-97.21-35.28,5.91-16.29h0Z"/>
                      <path class="uuid-7026601e-ac73-4722-8724-6782d5fcae56" d="m306.72,429.83s-5.67-9.33-13.45-4.88c-.13-4.96-5.58-5.36-6.86-3.24,2.02-5.58-4.4-6.26-5.48-4.47,3.14-8.65-7.06-10.77-9.39-8.1,2.93-6.11-3.29-13.56-11.77-12.13-8.48,1.44-9.46,8-9.46,8,0,0-9.51-5.22-12.11,3.94-6.44.95-5.63,7.2-5.63,7.2,0,0-6.59-1.22-8.32,4.95,6.27,2.28,32.74,12.54,43.73,15.87s35.79,6.59,35.79,6.59l2.96-13.73h0Z"/>
                    </g>
                    <g>
                      <path class="uuid-7026601e-ac73-4722-8724-6782d5fcae56" d="m116.86,371.51s4.91-4.48,9.53.28"/>
                      <path class="uuid-7026601e-ac73-4722-8724-6782d5fcae56" d="m168.38,381.96s7.7.14,7.49,9.39"/>
                      <path class="uuid-7026601e-ac73-4722-8724-6782d5fcae56" d="m293.27,424.95c-1.97,1.47-2.7,3.68-2.7,3.68"/>
                      <path class="uuid-7026601e-ac73-4722-8724-6782d5fcae56" d="m280.08,427.69c-3.31-3.03-7.68-.28-7.68-.28,0,0-.8-6.78-7.88-6.55"/>
                      <path class="uuid-7026601e-ac73-4722-8724-6782d5fcae56" d="m262.27,407.01s12.35-1.27,11.11,10"/>
                    </g>
                  </g>
                  <path class="uuid-4cb3ca3b-3d5a-4984-9db7-94645a77aa19" d="m95.41,361.2s11.32,13.51,46.91,26.43c35.59,12.92,94.4,34.26,113.92,41.34,19.52,7.08,45.7,7.18,45.7,7.18l-6.67,22.69-207.91-75.45s8.05-22.19,8.05-22.19Z"/>
                  <path class="uuid-b42dfb81-8185-4c6a-97ab-f9ab300ac184" d="m96.93,374.9s4.29,10.08,41.17,23.46c36.88,13.38,96.71,35.09,113.44,41.17,16.73,6.07,41.55,6.56,41.55,6.56l-8.69,23.95-196.16-71.18,8.69-23.95h0Z"/>
                  <circle class="uuid-e70c3405-dc53-4db1-bc45-8f7c0a166942" cx="206.31" cy="377.33" r="7.65"/>
                </g>
                <path class="uuid-b42dfb81-8185-4c6a-97ab-f9ab300ac184" d="m313.7,401.12c-3.98-5.76-13.33-3.46-19.41-5.67-6.08-2.21-150.45-54.6-161.41-58.58-10.96-3.98-15.46-11.35-23.17-9.05l4.97-13.69,203.76,73.94-4.73,13.04h0Z"/>
              </g>
            </g>
            <path class="uuid-69de82ef-45d2-4ac8-b174-40855e6c8f67" d="m116.73,399.79c-21.8-7.91-23.04-27.28-20.62-45.35,2.42-18.07,12.22-33.97,26.84-28.66,7.9,2.87,5.27,4.6,17.06,8.88s144.23,52.34,152.6,55.38c8.37,3.04,12.48.8,17.53,6.65,5.05,5.85,8.71,15.68-3.84,33.77-12.54,18.09-29.55,27.41-47.55,20.88-18-6.53-121.99-44.27-142.02-51.54h0Z"/>
          </g>
          <g>
            <g>
              <g>
                <path class="uuid-0746fdaf-eed6-45f2-9335-e24adb39ec7e" d="m146.36,364.64l15.88,5.76c1.71.62,2.6,2.52,1.98,4.23l-6.44,17.74c-.62,1.71-2.52,2.6-4.23,1.98l-15.88-5.76,8.69-23.95h0Z"/>
                <line class="uuid-69de82ef-45d2-4ac8-b174-40855e6c8f67" x1="148.42" y1="387.37" x2="152.51" y2="388.86"/>
                <line class="uuid-69de82ef-45d2-4ac8-b174-40855e6c8f67" x1="152.57" y1="377.74" x2="157.66" y2="375.36"/>
              </g>
              <g>
                <g>
                  <path class="uuid-b42dfb81-8185-4c6a-97ab-f9ab300ac184" d="m139.52,412.75c-.71,2.37-6.03,2.87-11.88,1.11-5.85-1.76-10.01-5.1-9.3-7.48l2.87-9.56c.58.13,20.58,6.19,21.18,6.36-1.44,4.78-2.16,7.19-2.87,9.56h0Z"/>
                  <ellipse class="uuid-ac3472dd-6b3d-43a7-ac0d-a6ac45903734" cx="131.8" cy="400.01" rx="4.48" ry="11.06" transform="translate(-289.21 411.12) rotate(-73.27)"/>
                </g>
                <g>
                  <path class="uuid-4cb3ca3b-3d5a-4984-9db7-94645a77aa19" d="m147.66,361.71l1.56-5.21-7.98-2.4-13.46,44.8s1.19,1.23,3.75,2c2.48.74,4.23.4,4.23.4l1.56-5.21c.61-2.04,2.01-3.74,3.88-4.75l5.7-3.06c5.31-2.85,7.3-9.47,4.44-14.78l-3.06-5.7c-1.01-1.87-1.23-4.07-.62-6.1h0Z"/>
                  <circle class="uuid-4cb3ca3b-3d5a-4984-9db7-94645a77aa19" cx="145.22" cy="379.72" r="4.26"/>
                </g>
                <g>
                  <path class="uuid-b42dfb81-8185-4c6a-97ab-f9ab300ac184" d="m155.77,358.68c-.71,2.37-6.03,2.87-11.88,1.11s-10.01-5.1-9.3-7.48c.64-2.13,1.92-6.4,2.87-9.56.58.13,20.58,6.19,21.18,6.36l-2.87,9.56h0Z"/>
                  <ellipse class="uuid-ac3472dd-6b3d-43a7-ac0d-a6ac45903734" cx="148.05" cy="345.94" rx="4.48" ry="11.06" transform="translate(-225.86 388.17) rotate(-73.27)"/>
                  <path class="uuid-4cb3ca3b-3d5a-4984-9db7-94645a77aa19" d="m151.71,346.3c-.23.77-1.97.94-3.87.36s-3.26-1.66-3.03-2.44c.23-.77,1.42-1.64,4.02-.86,2.47.74,3.11,2.16,2.88,2.93h0Z"/>
                </g>
              </g>
            </g>
            <g>
              <g>
                <path class="uuid-cd95ebfd-e390-4a83-b296-949f962ed2c0" d="m253.04,430.47l-15.88-5.76c-1.71-.62-2.6-2.52-1.98-4.23l6.44-17.74c.62-1.71,2.52-2.6,4.23-1.98l15.88,5.76-8.69,23.95h0Z"/>
                <line class="uuid-69de82ef-45d2-4ac8-b174-40855e6c8f67" x1="245.57" y1="422.63" x2="241.48" y2="421.14"/>
                <line class="uuid-69de82ef-45d2-4ac8-b174-40855e6c8f67" x1="248.57" y1="412.58" x2="246.19" y2="407.49"/>
              </g>
              <g>
                <g>
                  <path class="uuid-b42dfb81-8185-4c6a-97ab-f9ab300ac184" d="m236.13,447.81c-.97,2.28,2.79,6.07,8.4,8.47,5.61,2.4,10.95,2.5,11.93.23l3.93-9.18c-.53-.27-19.76-8.45-20.33-8.7l-3.93,9.18h0Z"/>
                  <ellipse class="uuid-1e2e94b1-2cf5-46d1-9b16-9ae4cdf50723" cx="250.22" cy="442.98" rx="4.48" ry="11.06" transform="translate(-255.48 498.76) rotate(-66.83)"/>
                </g>
                <g>
                  <path class="uuid-4cb3ca3b-3d5a-4984-9db7-94645a77aa19" d="m262.62,403.43l2.14-5,7.66,3.28-18.4,43.01s-1.7.18-4.16-.87c-2.38-1.02-3.5-2.4-3.5-2.4l2.14-5c.84-1.95.86-4.16.07-6.13l-2.41-6c-2.24-5.59.48-11.95,6.07-14.19l6-2.41c1.97-.79,3.55-2.33,4.39-4.29h0Z"/>
                  <circle class="uuid-4cb3ca3b-3d5a-4984-9db7-94645a77aa19" cx="252.94" cy="418.82" r="4.26"/>
                </g>
                <g>
                  <path class="uuid-b42dfb81-8185-4c6a-97ab-f9ab300ac184" d="m258.34,395.91c-.97,2.28,2.79,6.07,8.4,8.47,5.61,2.4,10.95,2.5,11.93.23l3.93-9.18c-.53-.27-19.76-8.45-20.33-8.7l-3.93,9.18h0Z"/>
                  <ellipse class="uuid-1e2e94b1-2cf5-46d1-9b16-9ae4cdf50723" cx="272.43" cy="391.08" rx="4.48" ry="11.06" transform="translate(-194.28 487.69) rotate(-66.83)"/>
                  <path class="uuid-4cb3ca3b-3d5a-4984-9db7-94645a77aa19" d="m269.39,389.01c-.32.74.91,1.98,2.74,2.76s3.57.82,3.89.07-.04-2.17-2.54-3.24c-2.37-1.01-3.77-.34-4.09.4h0Z"/>
                </g>
              </g>
            </g>
          </g>
        </g>
      </g>
    </g>
  </g>
</svg>