<?xml version="1.0" encoding="UTF-8"?>
<svg id="uuid-461caf8a-8ace-42d9-ad45-38e59902b4c3" data-name="BODY" xmlns="http://www.w3.org/2000/svg" viewBox="0 0 600 600">
  <defs>
    <style>
      .uuid-37814bc0-e74f-463f-9e7a-697df530bb94 {
        fill: #ffff0d;
      }

      .uuid-37814bc0-e74f-463f-9e7a-697df530bb94, .uuid-4a5ceb75-1d6a-4cb2-bd77-22b2d8ad7975, .uuid-95a4974d-4327-4ebc-9537-2dc1c654247c {
        stroke: #000;
        stroke-linecap: round;
        stroke-linejoin: round;
        stroke-width: 2px;
      }

      .uuid-4a5ceb75-1d6a-4cb2-bd77-22b2d8ad7975 {
        fill: none;
      }

      .uuid-95a4974d-4327-4ebc-9537-2dc1c654247c {
        fill: #f9a723;
      }
    </style>
  </defs>
  <g id="uuid-574a121d-db19-4f97-8cfd-7b4aaaec55cb" data-name="uuid-0c0f6844-9252-4e38-b2ae-1fb7558b546c">
    <g id="uuid-adb6763e-38b8-449a-aaa2-233504fcabb1" data-name="uuid-eba7662b-ff04-44ba-9d9b-c9fb86b595ea">
      <g id="uuid-218d162c-71d0-4b53-9f06-53d5921bcd73" data-name="uuid-e873324e-4a24-4e75-a94d-0c9fb771f1dc">
        <g>
          <path class="uuid-95a4974d-4327-4ebc-9537-2dc1c654247c" d="m138.51,388.15c-3.22-11.04-6.43-23.51-23.05-29.14-16.62-5.63-31.09,3.22-34.98,18.89-3.89,15.68-4.02,41.1,8.04,58.14s23.18,16.95,32.3,14.58c9.11-2.37,17.02-17.96,17.02-17.96l10.05-24.34s-6.16-9.13-9.38-20.18h0Zm-16.62,1.28c-.67,7.24-10.01,18.89-10.84,26.67-.82,7.77,6.41,17.66,6.55,19.95.13,2.29-.4,3.67-.4,3.67,0,0-15.41.1-19.97-13.44-4.56-13.53,3.08-25.86,3.08-25.86,0,0-6.3-24.66-.13-32.3,14.61-1.74,22.38,14.07,21.71,21.31h0Z"/>
          <path class="uuid-37814bc0-e74f-463f-9e7a-697df530bb94" d="m138.51,388.15c-3.22-11.04-6.43-23.51-23.05-29.14-10.38-3.52-19.92-1.38-26.57,4.53,6.66-4.23,20.81-4.13,30.46,5.12,9.65,9.25,13.13,18.36,9.92,31.76-3.22,13.4-8.09,14.34-7.33,22.25.76,7.91,4.65,13.13,3.98,17.69-.65,4.41-2.57,9.46-9.12,11.11,1.38-.2,2.73-.49,4.03-.83,9.11-2.37,17.02-17.96,17.02-17.96l10.05-24.34s-6.16-9.13-9.38-20.18h0Z"/>
          <path class="uuid-37814bc0-e74f-463f-9e7a-697df530bb94" d="m117.21,439.72s-15.41.1-19.97-13.44c-4.56-13.53,3.08-25.86,3.08-25.86,0,0-6.3-24.66-.13-32.3h0c-7.5.54-15.14,9.25-9.11,34.71-5.76,13-2.28,29.55,8.44,36.89,10.72,7.33,17.29,3.67,17.69,0h0Z"/>
          <path class="uuid-37814bc0-e74f-463f-9e7a-697df530bb94" d="m153.88,408.67s.21,4.54,0,5.65c-.21,1.11-3.94,5.04-5.56,8.37-1.61,3.33-1.61,8.17-1.82,9.48s-3.93,4.04-7.46,3.88c-3.53-.15-7.06-6.91-1.31-20.22,5.75-13.31,16.24-12.41,16.15-7.16h0Z"/>
          <path class="uuid-37814bc0-e74f-463f-9e7a-697df530bb94" d="m158.93,419.29c1.9-2.02,0-6.54-2.94-7.1-1.77-.34-4.94-.5-9.28,8.17-4.34,8.67-2,13.38-1.01,14.62,1.61,2.02,6.83,1.11,7.68-2.32.55-2.2.93-3.83,2.37-7.82s3.18-5.56,3.18-5.56h0Z"/>
          <path class="uuid-37814bc0-e74f-463f-9e7a-697df530bb94" d="m153.38,432.67s1.44-8.2,5.55-13.38l-4.15-2.26s-1.48.91-3.72,6.05c-2.24,5.14-2.24,7.36-2.24,7.36l4.55,2.22h0Z"/>
          <path class="uuid-37814bc0-e74f-463f-9e7a-697df530bb94" d="m193.93,450.63c.19-6.04,3.41-9.84,5.62-10.91,0,0,12.42.33,17.34-.51,4.92-.84,6.77,5.2,1.86,15.31s-7.52,12.77-10.39,10.92c-3.32-2.14-2.49-6.17-14.43-14.81h0Z"/>
          <path class="uuid-37814bc0-e74f-463f-9e7a-697df530bb94" d="m224.52,458.18c-5.38,11.37-14.69,6.69-9.41-4.53,5.28-11.22,15.26-7.82,9.41,4.53Z"/>
          <g>
            <path class="uuid-37814bc0-e74f-463f-9e7a-697df530bb94" d="m232.45,463.74v7.7s15.21,8.44,17.86,10.28c3.51,2.42,1.94,7.69,1.94,7.69l-10.66-5.27-6.59,2.46-1.38,16.04,23.22,12.96,5.25-3.08.74-7.42s7.33,2.53,8.07,5.83c.74,3.29-.74,10.94-.74,10.94l25.18,12.85,5.74-2.44,4.04-17.32s-13.39-5.95-14.98-7.65-1.59-6.48-1.59-6.48c0,0,2.12-.74,5.63,1.06s14.02,6.59,14.02,6.59l7.57-2.18.93-4.09-84.26-38.48h0Z"/>
            <g>
              <path class="uuid-95a4974d-4327-4ebc-9537-2dc1c654247c" d="m256.85,515.61l5.25-3.08.74-7.42c-4.16-1.56-4.99-1.23-5.99,10.5Z"/>
              <polygon class="uuid-95a4974d-4327-4ebc-9537-2dc1c654247c" points="308.21 508.49 315.78 506.31 316.7 502.22 310.06 499.19 308.21 508.49"/>
              <path class="uuid-95a4974d-4327-4ebc-9537-2dc1c654247c" d="m301.09,532.29l4.04-17.32s-13.39-5.95-14.98-7.65c-1.59-1.7-1.59-6.48-1.59-6.48-5.36.04-5.98,6.95-3.14,9.63,2.83,2.68,13.5,7.43,13.5,7.43l-3.56,16.83,5.74-2.44h0Z"/>
              <path class="uuid-95a4974d-4327-4ebc-9537-2dc1c654247c" d="m252.25,489.41l-10.65-5.27-6.59,2.46s8.4,3.91,11.55,5.7c3.15,1.79,5.4-1.25,5.69-2.89h0Z"/>
            </g>
          </g>
          <g>
            <path class="uuid-37814bc0-e74f-463f-9e7a-697df530bb94" d="m218.25,460.55l106.4,49.92s4.24.66,6.38-3.76c2.14-4.42-.3-6.75-.3-6.75l-107.49-49.32s-4.94,2.52-4.99,9.92h0Z"/>
            <path class="uuid-4a5ceb75-1d6a-4cb2-bd77-22b2d8ad7975" d="m330.72,499.95c-3.94-1.81-9.58,8.59-6.08,10.52"/>
          </g>
        </g>
      </g>
    </g>
  </g>
</svg>