<?xml version="1.0" encoding="UTF-8"?>
<svg id="uuid-e6123bd1-4bf8-43ed-a83f-c01a7cbab3e8" data-name="BODY" xmlns="http://www.w3.org/2000/svg" viewBox="0 0 600 600">
  <defs>
    <style>
      .uuid-ba37fdef-0dc6-402e-8edf-960f82c7d71d {
        fill: #ffff0d;
        stroke: #000;
        stroke-linecap: round;
        stroke-linejoin: round;
        stroke-width: 2px;
      }
    </style>
  </defs>
  <path class="uuid-ba37fdef-0dc6-402e-8edf-960f82c7d71d" d="m209.08,417.82c0-3.45-2.8-6.25-6.25-6.25-.62,0-1.21.12-1.78.29l-2.74,10.26c.13.14.27.26.42.38,2.44-.2,4.65.19,6.55,1.07,2.23-.95,3.8-3.17,3.8-5.75Z"/>
  <path class="uuid-ba37fdef-0dc6-402e-8edf-960f82c7d71d" d="m160.14,417.77c3.29-3.25,6.4-3.47,6.4-3.47,0,0,.51-2.04,1.3-5.21-1.04-2.02-3.12-3.41-5.54-3.41-3.45,0-6.25,2.8-6.25,6.25,0,2.69,1.71,4.96,4.09,5.84Z"/>
  <circle class="uuid-ba37fdef-0dc6-402e-8edf-960f82c7d71d" cx="169.36" cy="403.62" r="7.06"/>
  <circle class="uuid-ba37fdef-0dc6-402e-8edf-960f82c7d71d" cx="184.37" cy="402.37" r="7.06"/>
  <circle class="uuid-ba37fdef-0dc6-402e-8edf-960f82c7d71d" cx="198.12" cy="409.87" r="7.06"/>
</svg>