<?xml version="1.0" encoding="UTF-8"?>
<svg id="uuid-9d1e8aa9-c04a-46e9-b3c3-01823dd59a59" data-name="BACKGROUND" xmlns="http://www.w3.org/2000/svg" viewBox="0 0 600 600">
  <defs>
    <style>
      .uuid-b5c36b33-7bcc-4de6-9bcc-b09b8a2016f6, .uuid-660c04b4-fa82-4422-b1ba-a2c1dd7e0159 {
        fill: #7aa6ff;
      }

      .uuid-b5c36b33-7bcc-4de6-9bcc-b09b8a2016f6, .uuid-41032fe0-d2fe-461a-b8c6-491b03ab54be, .uuid-8460c441-7e92-40ce-bb73-f11f0dcaf042, .uuid-8971ef88-c9ee-424d-b142-c3a328f2a790, .uuid-9210ebd9-abde-4e8b-b154-3bb591c63759 {
        stroke: #000;
        stroke-linejoin: round;
      }

      .uuid-b5c36b33-7bcc-4de6-9bcc-b09b8a2016f6, .uuid-8460c441-7e92-40ce-bb73-f11f0dcaf042, .uuid-8971ef88-c9ee-424d-b142-c3a328f2a790, .uuid-9210ebd9-abde-4e8b-b154-3bb591c63759 {
        stroke-linecap: round;
        stroke-width: 2px;
      }

      .uuid-f649728e-69c6-4a97-a0f0-388adbfc0e12, .uuid-8460c441-7e92-40ce-bb73-f11f0dcaf042 {
        fill: #fff7f0;
      }

      .uuid-41032fe0-d2fe-461a-b8c6-491b03ab54be {
        stroke-width: 3px;
      }

      .uuid-41032fe0-d2fe-461a-b8c6-491b03ab54be, .uuid-8971ef88-c9ee-424d-b142-c3a328f2a790 {
        fill: none;
      }

      .uuid-9210ebd9-abde-4e8b-b154-3bb591c63759 {
        fill: #f9a723;
      }
    </style>
  </defs>
  <g id="uuid-3ff62dab-83dd-4bd0-b5a2-51453336e98e" data-name="uuid-09b8933c-635f-4dcd-977d-7eb4fc105aa8">
    <g>
      <g>
        <path class="uuid-b5c36b33-7bcc-4de6-9bcc-b09b8a2016f6" d="m241.22,454.8l-13.89,13.85s-12.85-2.78-19.77,7.48l29.07,36.91h68.51s.65-17.01-14.04-25.82c-8.29-5.06-18.57-5.38-18.57-5.38l2.79-3.09c.96-1.06.66-2.75-.62-3.4-2.53-1.29-6.47-3.3-9.42-4.8-1.34-.68-2.97-.41-4.02.67l-1.42,1.47s-6.22-3.03-10.77-8.09c-4.55-5.06-5.44-7.92-5.44-7.92l2.43-2.53-2.37-.23c-.91-.09-1.81.23-2.46.88h0Z"/>
        <path class="uuid-8971ef88-c9ee-424d-b142-c3a328f2a790" d="m244.42,489.63c5.92-5.31,14.38-9.03,28.11-7.79"/>
        <path class="uuid-8460c441-7e92-40ce-bb73-f11f0dcaf042" d="m305.14,513.04s.61-16.03-12.79-25.02c-19.07,2.22-21.4,18.25-21.65,25.02h34.44Z"/>
        <path class="uuid-8971ef88-c9ee-424d-b142-c3a328f2a790" d="m259.84,472.69c-3.71,4.36-10.76,13.48-10.76,13.48"/>
        <g>
          <circle cx="241.51" cy="504.3" r="2.39"/>
          <circle cx="252.8" cy="504.3" r="2.39"/>
        </g>
        <g>
          <path class="uuid-8460c441-7e92-40ce-bb73-f11f0dcaf042" d="m261.71,478.55s-3.86-1.4-6.22-2.86c-3.94-2.43-6.53,2.16-3.35,4.35,2.2,1.51,5.38,2.69,5.38,2.69l4.19-4.18Z"/>
          <path class="uuid-8460c441-7e92-40ce-bb73-f11f0dcaf042" d="m272.79,481.86s-1.22-4.06-6.78-4.06c-7.86,0-12.12,6.94-13.58,9.53-1.46,2.58,2.88,4.92,4.88,1.92,4.3-6.42,6.78-7.15,8.16-7.61,3.05-.17,7.32.21,7.32.21h0Z"/>
          <path class="uuid-8460c441-7e92-40ce-bb73-f11f0dcaf042" d="m286.4,484.77s-.85-4.3-6.5-4.83c-7.98-.74-12.97,6.03-14.7,8.56-1.73,2.53,2.45,5.35,4.77,2.44,4.98-6.23,9.01-7.6,10.46-7.94,1.97.42,5.97,1.76,5.97,1.76h0Z"/>
        </g>
        <g>
          <circle class="uuid-f649728e-69c6-4a97-a0f0-388adbfc0e12" cx="240.43" cy="473.54" r="9.19"/>
          <path class="uuid-660c04b4-fa82-4422-b1ba-a2c1dd7e0159" d="m244.02,470.6l-.63,2.28c-.07.26-.01.54.16.74l1.52,1.81c.44.52.09,1.32-.59,1.35l-2.36.11c-.27.01-.52.16-.66.39l-1.25,2.01c-.36.58-1.22.49-1.46-.14l-.83-2.22c-.1-.25-.31-.44-.57-.51l-2.3-.57c-.66-.16-.84-1.01-.31-1.44l1.85-1.48c.21-.17.33-.43.31-.7l-.17-2.36c-.05-.68.7-1.12,1.27-.74l1.98,1.3c.23.15.51.18.76.08l2.19-.89c.63-.26,1.28.32,1.1.98h0Z"/>
        </g>
        <path class="uuid-8460c441-7e92-40ce-bb73-f11f0dcaf042" d="m236.72,508.58l-27.63-35.34c-.99-1.27-2.89-1.3-3.93-.08l-4.54,5.35c-1.19,1.4-1.23,3.44-.1,4.88l29.22,37.38c1.22,1.56,3.1,2.48,5.08,2.48h71.09c1.33,0,2.41-1.08,2.41-2.41v-8.19c0-1.33-1.08-2.41-2.41-2.41h-65.78c-1.34,0-2.6-.62-3.42-1.67h0Z"/>
        <line class="uuid-8971ef88-c9ee-424d-b142-c3a328f2a790" x1="256.96" y1="510.14" x2="256.96" y2="523.15"/>
        <g>
          <line class="uuid-8971ef88-c9ee-424d-b142-c3a328f2a790" x1="261.81" y1="519.72" x2="267.96" y2="513.57"/>
          <line class="uuid-8971ef88-c9ee-424d-b142-c3a328f2a790" x1="270.81" y1="519.72" x2="276.96" y2="513.57"/>
          <line class="uuid-8971ef88-c9ee-424d-b142-c3a328f2a790" x1="279.82" y1="519.72" x2="285.97" y2="513.57"/>
          <line class="uuid-8971ef88-c9ee-424d-b142-c3a328f2a790" x1="297.82" y1="519.72" x2="303.97" y2="513.57"/>
          <line class="uuid-8971ef88-c9ee-424d-b142-c3a328f2a790" x1="288.82" y1="519.72" x2="294.97" y2="513.57"/>
        </g>
        <path class="uuid-41032fe0-d2fe-461a-b8c6-491b03ab54be" d="m256.96,516.65h-21.1c-.79,0-1.53-.37-2.01-.99l-30.83-39.95"/>
      </g>
      <g>
        <path class="uuid-b5c36b33-7bcc-4de6-9bcc-b09b8a2016f6" d="m368.09,442.51l11.81,13.89s-3.17,17.71,2.54,31.11c0,0,5.33-16.06,31.48-39.12,26.16-23.06,53.73-30.88,53.73-30.88,0,0-10.6-11.39-29.3-10.31-18.7,1.08-28.7,15.35-28.7,15.35l-12.42-13.22c-.8-.85-1.95-1.29-3.1-1.14-2.22.27-6.08,1.2-10.09,4.24-.66.5-.78,1.46-.26,2.11l1.05,1.3s-16.35,11.66-16.75,26.68h0Z"/>
        <path class="uuid-8460c441-7e92-40ce-bb73-f11f0dcaf042" d="m409.66,422.54s-3.89,5.28-6.92,15.26"/>
        <line class="uuid-8971ef88-c9ee-424d-b142-c3a328f2a790" x1="384.84" y1="415.83" x2="403.68" y2="434.93"/>
        <path class="uuid-8460c441-7e92-40ce-bb73-f11f0dcaf042" d="m435.19,432.7c17.96-11.07,32.48-15.19,32.48-15.19,0,0-10.6-11.39-29.3-10.31-12.71,7.85-5.52,21.67-3.18,25.5h0Z"/>
        <path class="uuid-8460c441-7e92-40ce-bb73-f11f0dcaf042" d="m469.32,415.42c-.66-.63-1.59-.86-2.47-.62-5.87,1.59-29.25,8.95-53.86,30.76-23.28,20.64-30.4,35.59-32.22,40.34-.37.98-.27,2.06.31,2.94,1.37,2.1,4.19,6.25,6.89,9.08,4.73,4.98,26.38-2.07,55.09-27.69,28.72-25.62,37.69-40.52,34.25-45.67-2.52-3.77-6.2-7.44-7.99-9.14h0Z"/>
        <path class="uuid-9210ebd9-abde-4e8b-b154-3bb591c63759" d="m477.9,426.07h0c-.62-4.79-20.55-1.28-53.98,25.69-33.41,26.94-37.41,45.67-34.1,47.26,7.15,2.33,27.31-5.65,53.25-28.79,24.07-21.47,34.26-35.41,34.9-42.4,0-.73,0-1.33-.07-1.76h0Z"/>
        <g>
          <g>
            <path class="uuid-9210ebd9-abde-4e8b-b154-3bb591c63759" d="m447.29,460.39c14.43-13.2,21.63-21.14,22.08-26,0-.59,0-1.08-.05-1.42-.5-3.87-14.68,2.19-41.67,23.96-1.47,1.18-2.86,2.33-4.2,3.46h23.84,0Z"/>
            <path class="uuid-9210ebd9-abde-4e8b-b154-3bb591c63759" d="m411.51,471.18c-12.88,12.71-15.31,19.71-13.29,20.67,5.33,1.74,18.47-4.91,36.96-20.67h-23.67,0Z"/>
          </g>
          <line class="uuid-8971ef88-c9ee-424d-b142-c3a328f2a790" x1="398.24" y1="488.01" x2="411.89" y2="488.01"/>
          <polyline class="uuid-8971ef88-c9ee-424d-b142-c3a328f2a790" points="411.51 471.18 418.84 483.75 400.63 483.75 435.18 471.18"/>
          <line class="uuid-8971ef88-c9ee-424d-b142-c3a328f2a790" x1="429.11" y1="455.76" x2="452.29" y2="455.76"/>
          <polygon class="uuid-8971ef88-c9ee-424d-b142-c3a328f2a790" points="451.17 439.65 467.13 439.65 435.18 451 457.21 451 451.17 439.65"/>
          <line class="uuid-8971ef88-c9ee-424d-b142-c3a328f2a790" x1="459.15" y1="434.95" x2="469.28" y2="434.95"/>
        </g>
        <line class="uuid-8971ef88-c9ee-424d-b142-c3a328f2a790" x1="422.8" y1="437.53" x2="430.61" y2="446.53"/>
        <g>
          <path class="uuid-8460c441-7e92-40ce-bb73-f11f0dcaf042" d="m408.54,421.02c-3.73,3.19-6.72,6.78-9.07,9.63-2.35,2.86-6.8.03-3.59-3.64,3.21-3.67,7.19-7.82,9.39-9.15,2.2-1.33,5.76,1.03,3.27,3.15h0Z"/>
          <path class="uuid-8460c441-7e92-40ce-bb73-f11f0dcaf042" d="m402.17,415.16c-4.39,2.18-8.18,4.92-11.16,7.11-2.98,2.19-6.6-1.64-2.59-4.41,4.01-2.77,8.88-5.81,11.35-6.56,2.46-.75,5.33,2.41,2.4,3.86h0Z"/>
          <path class="uuid-8460c441-7e92-40ce-bb73-f11f0dcaf042" d="m418.62,414.25s-3.47-2.43-7.84,1.01c-6.17,4.87-5.22,12.96-4.76,15.89s5.3,2.08,5.02-1.51c-.6-7.7.9-9.81,1.7-11.03,2.29-2.02,5.88-4.36,5.88-4.36h0Z"/>
          <path class="uuid-8460c441-7e92-40ce-bb73-f11f0dcaf042" d="m431.11,408.11s-3.34-2.85-8.09.24c-6.73,4.36-6.45,12.77-6.24,15.82.21,3.06,5.24,2.68,5.26-1.04.05-7.97,2.38-11.55,3.3-12.71,1.81-.89,5.78-2.31,5.78-2.31Z"/>
        </g>
        <g>
          <circle class="uuid-f649728e-69c6-4a97-a0f0-388adbfc0e12" cx="384.02" cy="438.12" r="9.19"/>
          <path class="uuid-660c04b4-fa82-4422-b1ba-a2c1dd7e0159" d="m387.08,434.62l-.24,2.35c-.03.27.08.53.28.71l1.8,1.53c.52.44.31,1.28-.36,1.43l-2.31.5c-.26.06-.48.24-.59.49l-.9,2.19c-.26.63-1.13.69-1.47.1l-1.19-2.05c-.14-.23-.38-.38-.65-.41l-2.36-.18c-.68-.05-1-.86-.55-1.36l1.58-1.76c.18-.2.25-.48.19-.74l-.56-2.3c-.16-.66.51-1.22,1.13-.94l2.16.96c.25.11.53.09.76-.05l2.02-1.24c.58-.36,1.31.11,1.24.78h0Z"/>
        </g>
        <g>
          <circle cx="404.5" cy="444.74" r="2.39"/>
          <circle cx="413" cy="437.31" r="2.39"/>
        </g>
        <line class="uuid-8971ef88-c9ee-424d-b142-c3a328f2a790" x1="464.72" y1="423.14" x2="464.32" y2="418.64"/>
        <line class="uuid-8971ef88-c9ee-424d-b142-c3a328f2a790" x1="456.77" y1="426.32" x2="456.36" y2="421.82"/>
        <line class="uuid-8971ef88-c9ee-424d-b142-c3a328f2a790" x1="449.12" y1="430.04" x2="448.71" y2="425.54"/>
        <line class="uuid-8971ef88-c9ee-424d-b142-c3a328f2a790" x1="441.27" y1="434.42" x2="440.86" y2="429.92"/>
        <line class="uuid-8971ef88-c9ee-424d-b142-c3a328f2a790" x1="433.62" y1="439.43" x2="433.21" y2="434.93"/>
        <path class="uuid-41032fe0-d2fe-461a-b8c6-491b03ab54be" d="m426.7,442.03s-36.57,26.72-42.89,50.79"/>
      </g>
    </g>
  </g>
</svg>