<?xml version="1.0" encoding="UTF-8"?>
<svg id="uuid-61e92688-f990-4557-b1ae-53e44c8f55e7" data-name="COCOBAY" xmlns="http://www.w3.org/2000/svg" xmlns:xlink="http://www.w3.org/1999/xlink" viewBox="0 0 600 600">
  <defs>
    <style>
      .uuid-1539ea3f-f4bf-495c-a55d-419f453d7ae8 {
        fill: #ff78d8;
      }

      .uuid-1539ea3f-f4bf-495c-a55d-419f453d7ae8, .uuid-4c674e4b-0a26-440c-a901-b23b7cf3a3e6, .uuid-d265f3d5-d33a-4b3b-a257-0d7f920c50cd, .uuid-72342705-4d1e-4496-9aeb-81ab3ad2605e, .uuid-3ec96407-0c2c-4f56-a0ae-8de2f3b4e257 {
        stroke: #000;
        stroke-linecap: round;
        stroke-linejoin: round;
        stroke-width: 2px;
      }

      .uuid-32cbc70d-b858-444c-875e-1c2f3bd47734 {
        clip-path: url(#uuid-37bfbe28-b1fc-4c07-87bc-a9637e4aaafc);
      }

      .uuid-4c674e4b-0a26-440c-a901-b23b7cf3a3e6 {
        fill: #00dfa9;
      }

      .uuid-d265f3d5-d33a-4b3b-a257-0d7f920c50cd {
        fill: #fff;
      }

      .uuid-53db6ded-dd86-4064-be36-f2e9cbbc4297, .uuid-3ec96407-0c2c-4f56-a0ae-8de2f3b4e257 {
        fill: #ffff0d;
      }

      .uuid-03384891-5d22-4270-ad8e-abfa7279026c {
        clip-path: url(#uuid-6f43d45e-e5d3-40ba-96e7-861a5ae7bbdb);
      }

      .uuid-72342705-4d1e-4496-9aeb-81ab3ad2605e {
        fill: none;
      }
    </style>
    <clipPath id="uuid-6f43d45e-e5d3-40ba-96e7-861a5ae7bbdb">
      <path class="uuid-3ec96407-0c2c-4f56-a0ae-8de2f3b4e257" d="M363.4,432.9s-8.1-9.4-9.8-10.6-3.6-1.8-3.6-1.8c0,0-2.8-25.8,25.2-30.1l14.1,15.5s-2.9,7.2-9.7,16.6-16.1,10.3-16.1,10.3Z"/>
    </clipPath>
    <clipPath id="uuid-37bfbe28-b1fc-4c07-87bc-a9637e4aaafc">
      <path class="uuid-3ec96407-0c2c-4f56-a0ae-8de2f3b4e257" d="M270.8,477.5l15.9-16.5s-9.6-1.4-17.3-7.7c-7.7-6.4-9.9-13.5-9.9-13.5l-15.5,16.5s-3,8.3,9,17.9c8.7,6.9,17.8,3.3,17.8,3.3Z"/>
    </clipPath>
  </defs>
  <g id="uuid-d19fd1aa-f160-4434-8ee1-8fc783292307" data-name="LEGS">
    <g id="uuid-a613e983-7e29-4acc-9c52-7addab05ae69" data-name="Capa 22">
      <g>
        <g>
          <g>
            <path class="uuid-53db6ded-dd86-4064-be36-f2e9cbbc4297" d="M363.4,432.9s-8.1-9.4-9.8-10.6-3.6-1.8-3.6-1.8c0,0-2.8-25.8,25.2-30.1l14.1,15.5s-2.9,7.2-9.7,16.6-16.1,10.3-16.1,10.3Z"/>
            <g class="uuid-03384891-5d22-4270-ad8e-abfa7279026c">
              <path class="uuid-4c674e4b-0a26-440c-a901-b23b7cf3a3e6" d="M387.9,399.3c-19.7,4-26.8,19.8-29.1,31.4l6.4,6.9,24.7-9.9,4.9-27.2-6.9-1.2Z"/>
              <path class="uuid-1539ea3f-f4bf-495c-a55d-419f453d7ae8" d="M381.8,393.8s-12,1-20.2,11.5-7.6,22.4-7.6,22.4l-8.8-5.6s-2.9-15.3,7.5-25,22.6-12.3,22.6-12.3l6.6,9Z"/>
            </g>
            <path class="uuid-72342705-4d1e-4496-9aeb-81ab3ad2605e" d="M363.4,432.9s-8.1-9.4-9.8-10.6-3.6-1.8-3.6-1.8c0,0-2.8-25.8,25.2-30.1l14.1,15.5s-2.9,7.2-9.7,16.6-16.1,10.3-16.1,10.3Z"/>
          </g>
          <g>
            <path class="uuid-d265f3d5-d33a-4b3b-a257-0d7f920c50cd" d="M383.1,481.9s-8.5-6.2-2.5-24.9l-17.6-18.8s-1.3-10.6,10.9-22.7,21.4-10.5,21.4-10.5l14.1,16.4s9.7-11.6,26.6-14.3c16.9-2.6,29.9,9.7,29.9,9.7,0,0-22.6,5.1-49,28.9-26.4,23.8-33.8,36.3-33.8,36.3Z"/>
            <path class="uuid-72342705-4d1e-4496-9aeb-81ab3ad2605e" d="M409.4,421.3c-4.8,5.4-7.6,15.2-7.6,15.2"/>
          </g>
          <g>
            <g>
              <path class="uuid-1539ea3f-f4bf-495c-a55d-419f453d7ae8" d="M468.1,415.9c-2.2-1.1-22.3,0-54.1,28.2s-34.5,37.1-33.9,41.6c.5,3.5,3.2,9.5,12.8,9.6,9.6,.1,27.3-9.6,50.2-28.8,31.1-26,31.2-37.4,31.1-41.1-.1-3.7-2.9-7.9-6.1-9.6Z"/>
              <path class="uuid-1539ea3f-f4bf-495c-a55d-419f453d7ae8" d="M466.2,426.1c-7.4-6.6-85.3,55.5-74.3,61.3,11.1,5.7,82.6-53.8,74.3-61.3Z"/>
            </g>
            <g>
              <g>
                <g>
                  <path class="uuid-3ec96407-0c2c-4f56-a0ae-8de2f3b4e257" d="M395.3,500.2c3,3.6,8.3,4.1,11.9,1.1s4.1-8.3,1.1-11.9l-3.9-4.7-2,1.7c-2.1-.1-4.2,.5-6,1.9s-2.7,3.4-3,5.5l-2,1.7,3.9,4.7Z"/>
                  <circle class="uuid-3ec96407-0c2c-4f56-a0ae-8de2f3b4e257" cx="397.8" cy="490.1" r="8.4"/>
                </g>
                <g>
                  <path class="uuid-3ec96407-0c2c-4f56-a0ae-8de2f3b4e257" d="M412.5,485.8c3,3.6,8.3,4.1,11.9,1.1,3.6-3,4.1-8.3,1.1-11.9l-3.9-4.7-2,1.7c-2.1-.1-4.2,.5-6,1.9-1.7,1.4-2.7,3.4-3,5.5l-2,1.7,3.9,4.7Z"/>
                  <circle class="uuid-3ec96407-0c2c-4f56-a0ae-8de2f3b4e257" cx="415.1" cy="475.7" r="8.4"/>
                </g>
                <g>
                  <path class="uuid-3ec96407-0c2c-4f56-a0ae-8de2f3b4e257" d="M429.8,471.4c3,3.6,8.3,4.1,11.9,1.1,3.6-3,4.1-8.3,1.1-11.9l-3.9-4.7-2,1.7c-2.1-.1-4.2,.5-6,1.9-1.7,1.4-2.7,3.4-3,5.5l-2,1.7,3.9,4.7Z"/>
                  <circle class="uuid-3ec96407-0c2c-4f56-a0ae-8de2f3b4e257" cx="432.4" cy="461.3" r="8.4"/>
                </g>
                <g>
                  <path class="uuid-3ec96407-0c2c-4f56-a0ae-8de2f3b4e257" d="M447.1,457c3,3.6,8.3,4.1,11.9,1.1,3.6-3,4.1-8.3,1.1-11.9l-3.9-4.7-2,1.7c-2.1-.1-4.2,.5-6,1.9-1.7,1.4-2.7,3.4-3,5.5l-2,1.7,3.9,4.7Z"/>
                  <circle class="uuid-3ec96407-0c2c-4f56-a0ae-8de2f3b4e257" cx="449.7" cy="446.9" r="8.4"/>
                </g>
                <g>
                  <path class="uuid-3ec96407-0c2c-4f56-a0ae-8de2f3b4e257" d="M464.4,442.6c3,3.6,8.3,4.1,11.9,1.1,3.6-3,4.1-8.3,1.1-11.9l-3.9-4.7-2,1.7c-2.1-.1-4.2,.5-6,1.9-1.7,1.4-2.7,3.4-3,5.5l-2,1.7,3.9,4.7Z"/>
                  <circle class="uuid-3ec96407-0c2c-4f56-a0ae-8de2f3b4e257" cx="466.9" cy="432.5" r="8.4"/>
                </g>
              </g>
              <g>
                <path class="uuid-d265f3d5-d33a-4b3b-a257-0d7f920c50cd" d="M401.3,466.5h.6c1.4,0,2.5,1.1,2.5,2.5v18.5h-5.6v-18.5c0-1.4,1.1-2.5,2.5-2.5Z" transform="translate(-212.3 367.8) rotate(-39.8)"/>
                <path class="uuid-d265f3d5-d33a-4b3b-a257-0d7f920c50cd" d="M435,435.6h.6c1.4,0,2.5,1.1,2.5,2.5v20.9h-5.6v-20.9c0-1.4,1.1-2.5,2.5-2.5Z" transform="translate(-185.4 382.5) rotate(-39.8)"/>
                <path class="uuid-d265f3d5-d33a-4b3b-a257-0d7f920c50cd" d="M453.1,423.3h.6c1.4,0,2.5,1.1,2.5,2.5v18.5h-5.6v-18.5c0-1.4,1.1-2.5,2.5-2.5Z" transform="translate(-172.6 390.9) rotate(-39.8)"/>
                <rect class="uuid-d265f3d5-d33a-4b3b-a257-0d7f920c50cd" x="391.9" y="480" width="29.4" height="5.6" rx="2.5" ry="2.5" transform="translate(-214.9 372.3) rotate(-39.8)"/>
                <rect class="uuid-d265f3d5-d33a-4b3b-a257-0d7f920c50cd" x="424.1" y="444.1" width="51.3" height="5.6" rx="2.5" ry="2.5" transform="translate(-181.9 391.6) rotate(-39.8)"/>
              </g>
            </g>
          </g>
        </g>
        <g>
          <g>
            <g>
              <g>
                <path class="uuid-3ec96407-0c2c-4f56-a0ae-8de2f3b4e257" d="M209.9,505.8c3.3-3.3,3.3-8.6,0-11.9s-8.6-3.3-11.9,0l-4.3,4.3,1.9,1.9c0,2.1,.9,4.2,2.5,5.8,1.6,1.6,3.7,2.4,5.8,2.5l1.9,1.9,4.3-4.3Z"/>
                <circle class="uuid-3ec96407-0c2c-4f56-a0ae-8de2f3b4e257" cx="199.7" cy="504.1" r="8.4"/>
              </g>
              <g>
                <path class="uuid-3ec96407-0c2c-4f56-a0ae-8de2f3b4e257" d="M226.9,522.5c3.3-3.3,3.3-8.6,0-11.9-3.3-3.3-8.6-3.3-11.9,0l-4.3,4.3,1.9,1.9c0,2.1,.9,4.2,2.5,5.8,1.6,1.6,3.7,2.4,5.8,2.5l1.9,1.9,4.3-4.3Z"/>
                <circle class="uuid-3ec96407-0c2c-4f56-a0ae-8de2f3b4e257" cx="216.6" cy="520.8" r="8.4"/>
              </g>
            </g>
            <path class="uuid-1539ea3f-f4bf-495c-a55d-419f453d7ae8" d="M211.4,475.2l25.7,33.5c.9,1.1,2.2,1.8,3.6,1.8h64.4c2.3,0,4.1,1.8,4.1,4.1v4.6c0,2.3-1.8,4.1-4.1,4.1h-68c-3,0-5.8-1.4-7.6-3.8l-27-35.4c-.9-1.2-.9-2.9,0-4.1l3.5-4.7c1.3-1.8,4-1.8,5.4,0Z"/>
            <g>
              <path class="uuid-d265f3d5-d33a-4b3b-a257-0d7f920c50cd" d="M213.3,496.7h.6c1.4,0,2.5,1.1,2.5,2.5v18.5h-5.6v-18.5c0-1.4,1.1-2.5,2.5-2.5Z" transform="translate(433.4 2.6) rotate(46.4)"/>
              <rect class="uuid-d265f3d5-d33a-4b3b-a257-0d7f920c50cd" x="193.4" y="509.6" width="29.4" height="5.6" rx="2.5" ry="2.5" transform="translate(435.5 8.3) rotate(46.4)"/>
            </g>
            <g>
              <g>
                <path class="uuid-3ec96407-0c2c-4f56-a0ae-8de2f3b4e257" d="M255.9,537.7c3.3-3.3,3.3-8.6,0-11.9-3.3-3.3-8.6-3.3-11.9,0l-4.3,4.3,1.9,1.9c0,2.1,.9,4.2,2.5,5.8,1.6,1.6,3.7,2.4,5.8,2.5l1.9,1.9,4.3-4.3Z"/>
                <circle class="uuid-3ec96407-0c2c-4f56-a0ae-8de2f3b4e257" cx="245.6" cy="536" r="8.4"/>
              </g>
              <g>
                <path class="uuid-3ec96407-0c2c-4f56-a0ae-8de2f3b4e257" d="M279.5,537.7c3.3-3.3,3.3-8.6,0-11.9-3.3-3.3-8.6-3.3-11.9,0l-4.3,4.3,1.9,1.9c0,2.1,.9,4.2,2.5,5.8,1.6,1.6,3.7,2.4,5.8,2.5l1.9,1.9,4.3-4.3Z"/>
                <circle class="uuid-3ec96407-0c2c-4f56-a0ae-8de2f3b4e257" cx="269.2" cy="536" r="8.4"/>
              </g>
              <g>
                <path class="uuid-3ec96407-0c2c-4f56-a0ae-8de2f3b4e257" d="M303,537.7c3.3-3.3,3.3-8.6,0-11.9-3.3-3.3-8.6-3.3-11.9,0l-4.3,4.3,1.9,1.9c0,2.1,.9,4.2,2.5,5.8,1.6,1.6,3.7,2.4,5.8,2.5l1.9,1.9,4.3-4.3Z"/>
                <circle class="uuid-3ec96407-0c2c-4f56-a0ae-8de2f3b4e257" cx="292.8" cy="536" r="8.4"/>
              </g>
            </g>
            <g>
              <path class="uuid-d265f3d5-d33a-4b3b-a257-0d7f920c50cd" d="M257.6,517.8h.6c1.4,0,2.5,1.1,2.5,2.5v18.5h-5.6v-18.5c0-1.4,1.1-2.5,2.5-2.5Z"/>
              <path class="uuid-d265f3d5-d33a-4b3b-a257-0d7f920c50cd" d="M280.1,517.8h.6c1.4,0,2.5,1.1,2.5,2.5v18.5h-5.6v-18.5c0-1.4,1.1-2.5,2.5-2.5Z"/>
              <rect class="uuid-d265f3d5-d33a-4b3b-a257-0d7f920c50cd" x="243.6" y="533.1" width="51.3" height="5.6" rx="2.5" ry="2.5"/>
            </g>
          </g>
          <g>
            <path class="uuid-53db6ded-dd86-4064-be36-f2e9cbbc4297" d="M270.8,477.5l15.9-16.5s-9.6-1.4-17.3-7.7c-7.7-6.4-9.9-13.5-9.9-13.5l-15.5,16.5s-3,8.3,9,17.9c8.7,6.9,17.8,3.3,17.8,3.3Z"/>
            <g class="uuid-32cbc70d-b858-444c-875e-1c2f3bd47734">
              <path class="uuid-1539ea3f-f4bf-495c-a55d-419f453d7ae8" d="M251.9,441.6s2.3,9.8,13.2,18.3c10.6,8.3,20.8,8.3,20.8,8.3l10.6-11.2-37-24.9-7.7,9.5Z"/>
              <path class="uuid-4c674e4b-0a26-440c-a901-b23b7cf3a3e6" d="M238.9,458.4l9.3-9.3s3.7,10.6,11,16.3c6.7,5.3,17.7,8.6,17.7,8.6l-8.5,9.8-29.4-25.3Z"/>
            </g>
            <path class="uuid-72342705-4d1e-4496-9aeb-81ab3ad2605e" d="M270.8,477.5l15.9-16.5s-9.6-1.4-17.3-7.7c-7.7-6.4-9.9-13.5-9.9-13.5l-15.5,16.5s-3,8.3,9,17.9c8.7,6.9,17.8,3.3,17.8,3.3Z"/>
          </g>
          <g>
            <path class="uuid-d265f3d5-d33a-4b3b-a257-0d7f920c50cd" d="M305.5,513.5h-68.3l-28.5-37.4s5.9-8.1,18.8-6.7l14.2-15.9c1-1.1,2.4-1.7,3.9-1.7h2.5c0,.1-4.1,4.4-4.1,4.4,0,0,4.3,19.6,26.8,21.2l3.3-3.4,.6,1.8c.4,1.2,.1,2.6-.8,3.6l-1.7,1.7s33.4,1.9,33.4,32.4Z"/>
            <path class="uuid-72342705-4d1e-4496-9aeb-81ab3ad2605e" d="M272.1,481.2c-8.1-.6-20,1.7-26.6,7.7"/>
          </g>
        </g>
      </g>
    </g>
  </g>
</svg>