<?xml version="1.0" encoding="UTF-8"?>
<svg id="uuid-de62f61d-6de3-41a0-a577-4a5687685cc2" data-name="COCOBAY" xmlns="http://www.w3.org/2000/svg" xmlns:xlink="http://www.w3.org/1999/xlink" viewBox="0 0 600 600">
  <defs>
    <style>
      .uuid-053d48f2-c9f6-427b-b78f-1566d5d86f7a, .uuid-90338bd2-62e2-4ea0-b7ef-0d78a8c7f683, .uuid-1b494a68-5712-4779-8ae5-da6ecb143051, .uuid-de29eab4-6340-4033-9a15-359a364bdbde, .uuid-dd48b2e6-027a-45be-8322-9dc4e2c53e90, .uuid-2709793a-879c-40aa-b875-ec1f50803a1d {
        stroke: #000;
        stroke-linecap: round;
        stroke-linejoin: round;
      }

      .uuid-053d48f2-c9f6-427b-b78f-1566d5d86f7a, .uuid-90338bd2-62e2-4ea0-b7ef-0d78a8c7f683, .uuid-de29eab4-6340-4033-9a15-359a364bdbde, .uuid-dd48b2e6-027a-45be-8322-9dc4e2c53e90, .uuid-2709793a-879c-40aa-b875-ec1f50803a1d {
        stroke-width: 2px;
      }

      .uuid-053d48f2-c9f6-427b-b78f-1566d5d86f7a, .uuid-35c2d0b0-2faa-4a13-9d76-a01d67af6f62 {
        fill: #fff7f0;
      }

      .uuid-374408d3-59f1-4bc3-934c-fa02f7cb34da {
        clip-path: url(#uuid-6f604498-95f3-42bf-a4c9-102fcd65a8d7);
      }

      .uuid-90338bd2-62e2-4ea0-b7ef-0d78a8c7f683 {
        fill: #353434;
      }

      .uuid-1b494a68-5712-4779-8ae5-da6ecb143051, .uuid-de29eab4-6340-4033-9a15-359a364bdbde, .uuid-2709793a-879c-40aa-b875-ec1f50803a1d {
        fill: none;
      }

      .uuid-dce6aa4f-ecd7-4c17-830e-2363a0137acb {
        clip-path: url(#uuid-61c673c7-6b7c-43b0-b32d-118d9500c9e7);
      }

      .uuid-de29eab4-6340-4033-9a15-359a364bdbde {
        stroke-dasharray: 0 4;
      }

      .uuid-8979ffab-4e0c-445c-b591-a839d0bd02ba, .uuid-dd48b2e6-027a-45be-8322-9dc4e2c53e90 {
        fill: #f9a723;
      }

      .uuid-3b91283f-b560-447c-9997-7136a7d16ac2 {
        clip-path: url(#uuid-90d96e9c-92ba-40c6-a975-10429c7a40ea);
      }
    </style>
    <clipPath id="uuid-61c673c7-6b7c-43b0-b32d-118d9500c9e7">
      <path class="uuid-053d48f2-c9f6-427b-b78f-1566d5d86f7a" d="M236.7225,508.5826l-27.63-35.3405c-.99-1.2663-2.8934-1.3037-3.9324-.0771l-4.535,5.3538c-1.1852,1.3991-1.2252,3.4381-.0958,4.8827l29.2214,37.3757c1.2223,1.5634,3.0962,2.477,5.0807,2.477h71.0899c1.3289,0,2.4061-1.0773,2.4061-2.4061v-8.1911c0-1.3289-1.0773-2.4061-2.4061-2.4061h-65.7772c-1.3364,0-2.5985-.6153-3.4216-1.6681Z"/>
    </clipPath>
    <clipPath id="uuid-6f604498-95f3-42bf-a4c9-102fcd65a8d7">
      <path class="uuid-053d48f2-c9f6-427b-b78f-1566d5d86f7a" d="M469.315,415.4223c-.6621-.6258-1.5877-.8593-2.467-.621-5.8695,1.5905-29.2521,8.9495-53.8575,30.7562-23.2848,20.6363-30.4021,35.5936-32.2189,40.3442-.3738,.9774-.2654,2.0617,.3065,2.9381,1.3729,2.1038,4.1943,6.246,6.8856,9.0792,4.7279,4.977,26.3751-2.0693,55.0942-27.6873,28.7191-25.618,37.6854-40.5169,34.2472-45.6742-2.5163-3.7744-6.197-7.4405-7.9901-9.1352Z"/>
    </clipPath>
    <clipPath id="uuid-90d96e9c-92ba-40c6-a975-10429c7a40ea">
      <path class="uuid-dd48b2e6-027a-45be-8322-9dc4e2c53e90" d="M477.8968,426.0715h0c-.6226-4.7891-20.5474-1.2778-53.9849,25.6885-33.4097,26.9429-37.4082,45.6743-34.1011,47.2578,7.1479,2.334,27.312-5.6514,53.2471-28.7861,24.0703-21.4712,34.2593-35.4082,34.9048-42.3955,.0093-.7305-.0098-1.3335-.0659-1.7646Z"/>
    </clipPath>
  </defs>
  <g id="uuid-26a6d1fb-7a7a-43d6-9d7d-4988c6494f43" data-name="LEGS">
    <g>
      <g>
        <path class="uuid-90338bd2-62e2-4ea0-b7ef-0d78a8c7f683" d="M232.0884,463.9026l-4.7609,4.7447s-12.8486-2.7809-19.7697,7.4831l29.073,36.9101h68.5112s.6499-17.0147-14.0393-25.8202c-8.2921-5.0562-18.573-5.3764-18.573-5.3764,0,0,.591-5.4001-10.0449-6.5225-6.7079-.7079-10.6854-1.4494-11.427,5.0899-3.3371-.7416-3.3821,.5095-4.5169,.4719-12.7416-5.9663-14.4526-16.9807-14.4526-16.9807Z"/>
        <path class="uuid-053d48f2-c9f6-427b-b78f-1566d5d86f7a" d="M224.9677,486.6479l8.8359,6.4317c1.3446,.9787,2.9649,1.506,4.628,1.506h1.9093c1.2179,0,2.4192,.2829,3.5091,.8264l13.4725,6.7178c2.0172,1.0058,4.4397,.7121,6.1581-.7466l4.1954-3.5615s-2.4546-1.6496-5.3665-3.3432c-.9284,.7899-2.4896,2.3844-2.4896,2.3844-.4698,.4499-1.1777,.5417-1.7466,.2264l-13.1413-7.2821c-1.1664-.6464-2.4781-.9855-3.8116-.9855h-1.5041c-1.6764,0-3.309-.5358-4.6595-1.5291l-9.0687-6.6704-.9201,6.0258Z"/>
        <g>
          <path class="uuid-2709793a-879c-40aa-b875-ec1f50803a1d" d="M224.0265,468.3131c5.1213,10.5478-1.654,27.2332-1.654,27.2332"/>
          <path class="uuid-2709793a-879c-40aa-b875-ec1f50803a1d" d="M272.941,501.9464s-10.2876-10.0069-26.9302-13.6786c0,0-.0428-4.7553,.5303-7.3845"/>
          <path class="uuid-2709793a-879c-40aa-b875-ec1f50803a1d" d="M251.0579,480.4114c-.2022,1.6517,0,4.678,0,4.678,0,0,14.8928,1.6715,24.7723,11.6765"/>
          <path class="uuid-de29eab4-6340-4033-9a15-359a364bdbde" d="M233.4116,508.9535c11.4103-5.9747,21.7947-.2146,38.2261-2.9177"/>
          <path class="uuid-2709793a-879c-40aa-b875-ec1f50803a1d" d="M292.3524,488.0159c-19.0747,2.2227-21.3979,18.2544-21.647,25.0249"/>
          <path class="uuid-2709793a-879c-40aa-b875-ec1f50803a1d" d="M244.4174,489.6305c5.9157-5.309,14.3848-9.0253,28.1124-7.7865"/>
        </g>
        <g>
          <path class="uuid-053d48f2-c9f6-427b-b78f-1566d5d86f7a" d="M272.7916,481.8562s-1.2224-4.0571-6.7842-4.0571c-7.8624,0-12.1192,6.944-13.5771,9.5282-1.4579,2.5841,2.8764,4.9184,4.8805,1.9241,4.2978-6.4213,6.7824-7.1487,8.1618-7.6089,3.0468-.169,7.319,.2137,7.319,.2137Z"/>
          <path class="uuid-053d48f2-c9f6-427b-b78f-1566d5d86f7a" d="M286.4012,484.769s-.8544-4.3037-6.5028-4.8255c-7.9847-.7376-12.97,6.0328-14.6971,8.5642s2.452,5.3482,4.7729,2.4445c4.9771-6.2269,9.0136-7.5962,10.4584-7.9419,1.9729,.4238,5.9687,1.7587,5.9687,1.7587Z"/>
        </g>
        <g>
          <path class="uuid-35c2d0b0-2faa-4a13-9d76-a01d67af6f62" d="M236.7225,508.5826l-27.63-35.3405c-.99-1.2663-2.8934-1.3037-3.9324-.0771l-4.535,5.3538c-1.1852,1.3991-1.2252,3.4381-.0958,4.8827l29.2214,37.3757c1.2223,1.5634,3.0962,2.477,5.0807,2.477h71.0899c1.3289,0,2.4061-1.0773,2.4061-2.4061v-8.1911c0-1.3289-1.0773-2.4061-2.4061-2.4061h-65.7772c-1.3364,0-2.5985-.6153-3.4216-1.6681Z"/>
          <g class="uuid-dce6aa4f-ecd7-4c17-830e-2363a0137acb">
            <g>
              <path class="uuid-2709793a-879c-40aa-b875-ec1f50803a1d" d="M233.7225,513.5826l-31.0691-39.5137c-.99-1.2663-2.8934-1.3037-3.9324-.0771l-4.535,5.3538c-1.1852,1.3991-1.2252,3.4381-.0958,4.8827l32.6605,41.5489c1.2223,1.5634,3.0962,2.477,5.0807,2.477h78.3163c1.3289,0,2.4061-1.0773,2.4061-2.4061v-8.1911c0-1.3289-1.0773-2.4061-2.4061-2.4061h-73.0037c-1.3364,0-2.5985-.6153-3.4216-1.6681Z"/>
              <path class="uuid-2709793a-879c-40aa-b875-ec1f50803a1d" d="M257.1253,515.2507c-4.6517,4.5315-7.0112,15.5877-7.0112,15.5877"/>
              <path class="uuid-1b494a68-5712-4779-8ae5-da6ecb143051" d="M203.8669,471.2766l31.75,40.1429c.7256,.9175,1.8311,1.4526,3.0009,1.4526h72.6424"/>
            </g>
          </g>
          <path class="uuid-2709793a-879c-40aa-b875-ec1f50803a1d" d="M236.7225,508.5826l-27.63-35.3405c-.99-1.2663-2.8934-1.3037-3.9324-.0771l-4.535,5.3538c-1.1852,1.3991-1.2252,3.4381-.0958,4.8827l29.2214,37.3757c1.2223,1.5634,3.0962,2.477,5.0807,2.477h71.0899c1.3289,0,2.4061-1.0773,2.4061-2.4061v-8.1911c0-1.3289-1.0773-2.4061-2.4061-2.4061h-65.7772c-1.3364,0-2.5985-.6153-3.4216-1.6681Z"/>
        </g>
      </g>
      <g>
        <path class="uuid-90338bd2-62e2-4ea0-b7ef-0d78a8c7f683" d="M374.2891,449.88l5.6171,6.5177s-3.1685,17.7103,2.5449,31.1092c0,0,5.3258-16.0618,31.4831-39.118,26.1573-23.0562,53.7303-30.8764,53.7303-30.8764,0,0-10.5955-11.3933-29.2978-10.3146-18.7022,1.0787-28.7036,15.3463-28.7036,15.3463l-7.3433-6.9679c-1.0689-.7931-2.1971-1.0874-3.352-.9458-2.2195,.2723-4.7081,2.1158-8.7246,5.1623-.6648,.5042-.7823,1.4649-.2557,2.112l1.0542,1.2954s-16.3483,11.6629-16.7528,26.6798Z"/>
        <g>
          <path class="uuid-2709793a-879c-40aa-b875-ec1f50803a1d" d="M438.367,407.198c-12.7148,7.8452-5.522,21.6733-3.1792,25.5044"/>
          <path class="uuid-2709793a-879c-40aa-b875-ec1f50803a1d" d="M387.0361,426.5497l16.0443,14.8955s14.3126-12.466,28.3923-17.8285"/>
          <path class="uuid-2709793a-879c-40aa-b875-ec1f50803a1d" d="M431.042,419.3311c-13.0628,3.2131-27.3581,15.5955-27.3581,15.5955l-12.642-11.7264"/>
          <path class="uuid-2709793a-879c-40aa-b875-ec1f50803a1d" d="M379.1875,462.9795c7.612-4.7478,16.4835,0,16.4835,0"/>
          <path class="uuid-053d48f2-c9f6-427b-b78f-1566d5d86f7a" d="M409.6633,422.5442s-3.8863,5.283-6.92,15.2605"/>
        </g>
        <path class="uuid-053d48f2-c9f6-427b-b78f-1566d5d86f7a" d="M393.0186,461.837s-4.3589-1.0409-6.0499-.9666l6.921-6.5074c.8804-.8278,1.4125-1.96,1.4878-3.1661h0c.0956-1.5297,.923-2.9194,2.2223-3.7325l18.2603-11.4269c.8964-.561,1.4597-1.5281,1.4842-2.5853,.017-.7333,.0008-1.6095-.1066-2.44,0,0,3.7896-2.3381,5.1666-3.0906,0,0,.1912,4.7321,.1217,7.3213-.0277,1.0348-.5523,1.99-1.4152,2.5618l-18.8649,12.0357c-1.0576,.7008-1.7912,1.7955-2.0372,3.0402l-.1887,.9547c-.1865,.9435-.6548,1.8082-1.3431,2.4798l-5.6583,5.5218Z"/>
        <g>
          <path class="uuid-35c2d0b0-2faa-4a13-9d76-a01d67af6f62" d="M469.315,415.4223c-.6621-.6258-1.5877-.8593-2.467-.621-5.8695,1.5905-29.2521,8.9495-53.8575,30.7562-23.2848,20.6363-30.4021,35.5936-32.2189,40.3442-.3738,.9774-.2654,2.0617,.3065,2.9381,1.3729,2.1038,4.1943,6.246,6.8856,9.0792,4.7279,4.977,26.3751-2.0693,55.0942-27.6873,28.7191-25.618,37.6854-40.5169,34.2472-45.6742-2.5163-3.7744-6.197-7.4405-7.9901-9.1352Z"/>
          <g class="uuid-374408d3-59f1-4bc3-934c-fa02f7cb34da">
            <g>
              <path class="uuid-2709793a-879c-40aa-b875-ec1f50803a1d" d="M472.7855,417.9968c-6.1346,1.6623-31.3819,8.5446-57.0984,31.336-24.3362,21.5681-30.9659,38.0098-32.8647,42.9749"/>
              <path class="uuid-1b494a68-5712-4779-8ae5-da6ecb143051" d="M470.9848,416.08c-6.1346,1.6623-31.164,8.8197-56.8805,31.6111-24.3362,21.5681-30.9659,38.0098-32.8647,42.9749"/>
              <path class="uuid-2709793a-879c-40aa-b875-ec1f50803a1d" d="M426.8018,440.3792c.346,3.83,1.5368,7.8853,1.5368,7.8853"/>
            </g>
          </g>
          <path class="uuid-2709793a-879c-40aa-b875-ec1f50803a1d" d="M469.315,415.4223c-.6621-.6258-1.5877-.8593-2.467-.621-5.8695,1.5905-29.2521,8.9495-53.8575,30.7562-23.2848,20.6363-30.4021,35.5936-32.2189,40.3442-.3738,.9774-.2654,2.0617,.3065,2.9381,1.3729,2.1038,4.1943,6.246,6.8856,9.0792,4.7279,4.977,26.3751-2.0693,55.0942-27.6873,28.7191-25.618,37.6854-40.5169,34.2472-45.6742-2.5163-3.7744-6.197-7.4405-7.9901-9.1352Z"/>
        </g>
        <g>
          <path class="uuid-8979ffab-4e0c-445c-b591-a839d0bd02ba" d="M477.8968,426.0715h0c-.6226-4.7891-20.5474-1.2778-53.9849,25.6885-33.4097,26.9429-37.4082,45.6743-34.1011,47.2578,7.1479,2.334,27.312-5.6514,53.2471-28.7861,24.0703-21.4712,34.2593-35.4082,34.9048-42.3955,.0093-.7305-.0098-1.3335-.0659-1.7646Z"/>
          <g class="uuid-3b91283f-b560-447c-9997-7136a7d16ac2">
            <g>
              <g>
                <line class="uuid-053d48f2-c9f6-427b-b78f-1566d5d86f7a" x1="381.5424" y1="492.7485" x2="444.5865" y2="492.7485"/>
                <line class="uuid-053d48f2-c9f6-427b-b78f-1566d5d86f7a" x1="387.0999" y1="486.5462" x2="450.1439" y2="486.5462"/>
                <line class="uuid-053d48f2-c9f6-427b-b78f-1566d5d86f7a" x1="392.3658" y1="479.4002" x2="455.4099" y2="479.4002"/>
                <line class="uuid-053d48f2-c9f6-427b-b78f-1566d5d86f7a" x1="398.7029" y1="472.1193" x2="461.7469" y2="472.1193"/>
                <line class="uuid-053d48f2-c9f6-427b-b78f-1566d5d86f7a" x1="406.845" y1="464.4339" x2="469.889" y2="464.4339"/>
                <line class="uuid-053d48f2-c9f6-427b-b78f-1566d5d86f7a" x1="413.0644" y1="457.0601" x2="476.1085" y2="457.0601"/>
                <line class="uuid-053d48f2-c9f6-427b-b78f-1566d5d86f7a" x1="422.5412" y1="449.7373" x2="485.5852" y2="449.7373"/>
                <line class="uuid-053d48f2-c9f6-427b-b78f-1566d5d86f7a" x1="431.0368" y1="442.3215" x2="494.0809" y2="442.3215"/>
                <line class="uuid-053d48f2-c9f6-427b-b78f-1566d5d86f7a" x1="439.8009" y1="434.9058" x2="502.8449" y2="434.9058"/>
                <line class="uuid-053d48f2-c9f6-427b-b78f-1566d5d86f7a" x1="446.4429" y1="428.4339" x2="509.487" y2="428.4339"/>
              </g>
              <g>
                <line class="uuid-053d48f2-c9f6-427b-b78f-1566d5d86f7a" x1="425.8878" y1="534.0856" x2="367.6646" y2="456.0601"/>
                <line class="uuid-053d48f2-c9f6-427b-b78f-1566d5d86f7a" x1="432.2249" y1="530.7612" x2="374.0017" y2="452.7357"/>
                <line class="uuid-053d48f2-c9f6-427b-b78f-1566d5d86f7a" x1="439.4107" y1="526.7628" x2="381.1875" y2="448.7373"/>
                <line class="uuid-053d48f2-c9f6-427b-b78f-1566d5d86f7a" x1="445.189" y1="521.9048" x2="386.9658" y2="443.8793"/>
                <line class="uuid-053d48f2-c9f6-427b-b78f-1566d5d86f7a" x1="451.2651" y1="516.55" x2="393.0419" y2="438.5245"/>
                <line class="uuid-053d48f2-c9f6-427b-b78f-1566d5d86f7a" x1="458.9261" y1="511.9522" x2="400.7029" y2="433.9266"/>
                <line class="uuid-053d48f2-c9f6-427b-b78f-1566d5d86f7a" x1="465.8135" y1="507.1999" x2="407.5903" y2="429.1744"/>
                <line class="uuid-053d48f2-c9f6-427b-b78f-1566d5d86f7a" x1="472.3736" y1="502.4466" x2="414.1504" y2="424.4211"/>
                <line class="uuid-053d48f2-c9f6-427b-b78f-1566d5d86f7a" x1="478.8451" y1="496.9757" x2="420.6219" y2="418.9502"/>
                <line class="uuid-053d48f2-c9f6-427b-b78f-1566d5d86f7a" x1="485.1748" y1="491.7485" x2="426.9516" y2="413.723"/>
                <line class="uuid-053d48f2-c9f6-427b-b78f-1566d5d86f7a" x1="492.8586" y1="486.5069" x2="434.6353" y2="408.4814"/>
                <line class="uuid-053d48f2-c9f6-427b-b78f-1566d5d86f7a" x1="500.0241" y1="481.6862" x2="441.8009" y2="403.6607"/>
                <line class="uuid-053d48f2-c9f6-427b-b78f-1566d5d86f7a" x1="507.9567" y1="477.5372" x2="449.7335" y2="399.5117"/>
              </g>
            </g>
          </g>
          <path class="uuid-2709793a-879c-40aa-b875-ec1f50803a1d" d="M477.8968,426.0715h0c-.6226-4.7891-20.5474-1.2778-53.9849,25.6885-33.4097,26.9429-37.4082,45.6743-34.1011,47.2578,7.1479,2.334,27.312-5.6514,53.2471-28.7861,24.0703-21.4712,34.2593-35.4082,34.9048-42.3955,.0093-.7305-.0098-1.3335-.0659-1.7646Z"/>
        </g>
        <g>
          <path class="uuid-053d48f2-c9f6-427b-b78f-1566d5d86f7a" d="M408.541,421.0182c-3.7256,3.1901-6.7225,6.7765-9.0747,9.6327-2.3522,2.8561-6.8019,.0255-3.5911-3.6406,3.2108-3.6662,7.1865-7.8161,9.3913-9.146,2.2048-1.33,5.7567,1.0286,3.2746,3.154Z"/>
          <path class="uuid-053d48f2-c9f6-427b-b78f-1566d5d86f7a" d="M418.6219,414.2467s-3.4718-2.4292-7.8395,1.0144c-6.1742,4.8678-5.2177,12.9564-4.7627,15.8884s5.304,2.0815,5.0238-1.5107c-.6007-7.7035,.9001-9.813,1.6985-11.0284,2.288-2.0191,5.8799-4.3636,5.8799-4.3636Z"/>
          <path class="uuid-053d48f2-c9f6-427b-b78f-1566d5d86f7a" d="M431.1128,408.1079s-3.3355-2.8506-8.0942,.2367c-6.7269,4.3643-6.4501,12.7677-6.2391,15.8248s5.2368,2.6818,5.2616-1.0354c.0531-7.9714,2.3752-11.5458,3.2957-12.7118,1.8116-.8887,5.776-2.3143,5.776-2.3143Z"/>
        </g>
      </g>
    </g>
  </g>
</svg>