<?xml version="1.0" encoding="UTF-8"?>
<svg id="uuid-35ad6852-af24-42c6-8a30-8739fa6fd444" data-name="COCOBAY" xmlns="http://www.w3.org/2000/svg" viewBox="0 0 600 600">
  <defs>
    <style>
      .uuid-df686723-0b92-43d4-95ef-08c74db9f8dc {
        fill: #353434;
      }

      .uuid-df686723-0b92-43d4-95ef-08c74db9f8dc, .uuid-12fd1c8e-d72e-4b62-a127-cd9adec90a84 {
        stroke: #000;
        stroke-linecap: round;
        stroke-linejoin: round;
        stroke-width: 2px;
      }

      .uuid-12fd1c8e-d72e-4b62-a127-cd9adec90a84 {
        fill: none;
      }
    </style>
  </defs>
  <g id="uuid-30adedbd-0f6a-4ac3-8c27-dd5f684aaeb2" data-name="LEGS">
    <g id="uuid-71f2d591-11c5-485d-aa3d-ec098306b10e" data-name="Capa 65">
      <g id="uuid-7d0b675e-dad4-483d-8c78-f8eeafc30cf0" data-name="Capa 67">
        <g>
          <path class="uuid-df686723-0b92-43d4-95ef-08c74db9f8dc" d="M366.81125,441.73759l13.69129,14.70546s-3.54959,18.08602,3.12702,29.49543c0,0,11.13501-19.09913,33.82117-39.23122s35.94948-26.59213,49.92175-28.69549c0,0-11.15771-13.78466-31.72842-11.10495-15.92523,2.07455-25.36121,13.76987-25.36121,13.76987l-9.14201-9.94523s-8.87488-.73087-20.67324,10.85867-13.65635,20.14746-13.65635,20.14746Z"/>
          <g>
            <path class="uuid-12fd1c8e-d72e-4b62-a127-cd9adec90a84" d="M410.28285,420.67669c-4.81454,5.68036-7.76873,15.81728-7.76873,22.65246"/>
            <line class="uuid-12fd1c8e-d72e-4b62-a127-cd9adec90a84" x1="402.98154" y1="438.11522" x2="384.42441" y2="418.05263"/>
            <path class="uuid-12fd1c8e-d72e-4b62-a127-cd9adec90a84" d="M380.50254,456.44305c13.49291-5.14804,21.72229,5.29344,21.72229,5.29344"/>
            <path class="uuid-12fd1c8e-d72e-4b62-a127-cd9adec90a84" d="M441.29847,406.56124c-10.55804,5.07201-15.88813,19.92953-9.7866,28.47906"/>
          </g>
          <path class="uuid-df686723-0b92-43d4-95ef-08c74db9f8dc" d="M467.37249,414.88709s-18.88868-1.46815-51.51792,29.36827-34.96339,41.03374-34.88203,41.6831,7.89122,10.49305,9.27422,11.71335,8.7861-1.05759,8.7861-1.05759c0,0,.29493-2.61971,1.64199-3.29324,2.54871-1.27436,5.09742,1.10058,5.09742,1.10058,0,0,5.09742-1.67983,7.64613-3.88099-1.56398-1.62191,.98473-5.7346,4.57609-3.12796,3.41759-2.08531,5.32912-4.17062,5.32912-4.17062l-4.12783-3.52729s26.71868-12.40215,31.8161-15.18256l-2.54871-1.91153s.28963-4.63402,5.67667-4.46024l2.72249,1.96946s3.64929-3.07004,6.198-6.14008l-2.02738-1.73776s-.57925-4.46024,4.17062-4.28647l2.16891,1.27436s2.81061-3.75411,4.78007-7.51925l-2.16748-1.69087s-.4371-5.21327,4.89202-3.41759c0,0,3.56332-7.12481,2.11519-10.48447s-7.51878-11.30276-9.61979-11.22061Z"/>
          <g>
            <path class="uuid-12fd1c8e-d72e-4b62-a127-cd9adec90a84" d="M419.19579,479.6947l-16.68167-13.4771,27.05097-17.71087s-3.43387-3.03182,0-5.41011c3.13154-2.1689,5.82629,.96144,5.82629,.96144l8.24811-5.3638s-4.14936-3.08672-1.01204-4.85779c2.54704-1.43785,6.57825,1.61926,6.57825,1.61926,0,0,5.46501-3.59274,7.64089-4.55417,0,0-3.59274-3.44093,.25301-4.90839,2.88545-1.10103,5.86982,1.77107,5.86982,1.77107,0,0,5.3132-2.98551,9.15895-2.5807s5.58436,2.49827,5.02719,4.76857"/>
            <line class="uuid-12fd1c8e-d72e-4b62-a127-cd9adec90a84" x1="429.56509" y1="448.50673" x2="448.46318" y2="462.60061"/>
            <line class="uuid-12fd1c8e-d72e-4b62-a127-cd9adec90a84" x1="435.39138" y1="444.05806" x2="454.13986" y2="458.14036"/>
            <line class="uuid-12fd1c8e-d72e-4b62-a127-cd9adec90a84" x1="443.63949" y1="438.69426" x2="461.03296" y2="452.23199"/>
            <line class="uuid-12fd1c8e-d72e-4b62-a127-cd9adec90a84" x1="449.2057" y1="435.45573" x2="465.20358" y2="447.94552"/>
            <line class="uuid-12fd1c8e-d72e-4b62-a127-cd9adec90a84" x1="456.8466" y1="430.90156" x2="469.98507" y2="440.00976"/>
            <line class="uuid-12fd1c8e-d72e-4b62-a127-cd9adec90a84" x1="462.96943" y1="427.76424" x2="474.87709" y2="436.59217"/>
            <path class="uuid-12fd1c8e-d72e-4b62-a127-cd9adec90a84" d="M447.9694,462.23235c-5.19074,2.81044-31.71256,15.08798-31.71256,15.08798"/>
            <path class="uuid-12fd1c8e-d72e-4b62-a127-cd9adec90a84" d="M432.58106,450.75599s-18.95803,12.8163-27.5505,17.49464"/>
            <path class="uuid-12fd1c8e-d72e-4b62-a127-cd9adec90a84" d="M406.41186,469.36659s-3.67261,3.72764-4.49461,5.09765c0,0-2.90353-2.71487-5.0641-.274-2.03965,2.30426,.13205,4.65206,1.33766,5.50447,0,0-2.61045,3.67903-3.6895,5.73904,0,0-3.14183-3.05257-4.61051,0-.66075,1.37334-.34044,3.53733,1.47288,4.75765,0,0-1.57053,8.03116,.53831,7.8168"/>
            <line class="uuid-12fd1c8e-d72e-4b62-a127-cd9adec90a84" x1="401.91725" y1="474.46424" x2="417.9945" y2="487.39261"/>
            <line class="uuid-12fd1c8e-d72e-4b62-a127-cd9adec90a84" x1="413.41841" y1="490.52058" x2="398.19081" y2="479.6947"/>
            <line class="uuid-12fd1c8e-d72e-4b62-a127-cd9adec90a84" x1="394.50131" y1="485.43374" x2="405.77227" y2="494.40157"/>
            <line class="uuid-12fd1c8e-d72e-4b62-a127-cd9adec90a84" x1="391.36368" y1="490.19139" x2="399.03286" y2="496.59423"/>
          </g>
          <g>
            <path class="uuid-df686723-0b92-43d4-95ef-08c74db9f8dc" d="M226.54936,468.46612l16.85522-19.42301s2.99192-.90052,6.49865,1.06453l-2.61953,2.76054s3.25627,6.3231,10.80994,12.65374,14.76079,9.84158,14.76079,9.84158l3.60391-3.74682s2.37161,5.95569,2.31185,6.55329-4.34963,2.98058-4.34963,2.98058c0,0,13.05509,.74339,21.81105,9.35414,8.89909,8.75151,9.03382,21.38475,9.03382,21.38475,0,0-63.87146,1.7595-66.88661,1.55849s-30.15144-36.88526-30.15144-36.88526c0,0,5.38694-9.15776,18.32197-8.09655Z"/>
            <g>
              <path class="uuid-12fd1c8e-d72e-4b62-a127-cd9adec90a84" d="M274.42057,481.15054c-9.60827-1.12242-21.84327,1.22781-29.03219,7.31074"/>
              <line class="uuid-12fd1c8e-d72e-4b62-a127-cd9adec90a84" x1="252.63864" y1="484.14251" x2="265.81901" y2="471.24486"/>
              <path class="uuid-12fd1c8e-d72e-4b62-a127-cd9adec90a84" d="M220.97997,493.39434c10.85656-8.60293,5.56939-24.92822,5.56939-24.92822"/>
              <path class="uuid-12fd1c8e-d72e-4b62-a127-cd9adec90a84" d="M293.42601,488.1023c-17.86697-1.29531-22.02112,11.44476-22.0909,24.68269"/>
            </g>
            <path class="uuid-df686723-0b92-43d4-95ef-08c74db9f8dc" d="M305.48629,509.33646l-62.55014,1.43212c-2.50156,.05727-4.88776-1.05087-6.45799-2.99906l-26.4337-32.79648c-.9436-1.17073-2.7193-1.19458-3.69401-.04962l-6.59003,7.74112c-.73373,.86189-.76508,2.11942-.07519,3.0168l3.44446,4.48046,6.82572,.43233-3.73271,3.66359,5.20121,6.75865,6.06605,.01553,9.40102,14.46647c3.49786,5.38258,9.43472,8.68312,15.85268,8.81316l17.81071,.36088s0-3.59446,4.21658-3.59446,4.00921,3.94008,4.00921,3.94008h6.91705s.43538-4.11699,4.6803-4.11699,3.48301,4.11699,3.48301,4.11699h7.94563s-.10884-3.8993,4.13608-3.8993,3.64628,3.8993,3.64628,3.8993h6.77535c1.56953,0,2.8058-1.33806,2.68187-2.90269l-.81599-10.30171c-.11269-1.42268-1.31668-2.5098-2.74345-2.47714Z"/>
            <path class="uuid-12fd1c8e-d72e-4b62-a127-cd9adec90a84" d="M217.48995,501.03188c-1.40555-2.31144-2.23957-4.4567-6.06605-.01553"/>
            <path class="uuid-12fd1c8e-d72e-4b62-a127-cd9adec90a84" d="M209.9554,490.59411c.61684-.57938-1.70947-4.06763-3.15313-3.23644s-3.67259,2.80411-3.67259,2.80411"/>
          </g>
        </g>
      </g>
    </g>
  </g>
</svg>