<?xml version="1.0" encoding="UTF-8"?>
<svg id="uuid-dd967ed0-d77b-424d-b14d-65dac7e36a17" data-name="BODY" xmlns="http://www.w3.org/2000/svg" viewBox="0 0 600 600">
  <defs>
    <style>
      .uuid-44ee2b87-1c1c-4579-9400-1453cc9d6674 {
        fill: #7aa6ff;
      }

      .uuid-44ee2b87-1c1c-4579-9400-1453cc9d6674, .uuid-afecb9fe-0fd5-423b-b6f6-7b75a59705ae, .uuid-d069c1f4-5d32-4279-8240-02fae6430e08 {
        stroke: #000;
        stroke-linecap: round;
        stroke-linejoin: round;
        stroke-width: 2px;
      }

      .uuid-afecb9fe-0fd5-423b-b6f6-7b75a59705ae {
        fill: none;
      }

      .uuid-d069c1f4-5d32-4279-8240-02fae6430e08 {
        fill: #f9a723;
      }
    </style>
  </defs>
  <g id="uuid-d903493b-712a-4c74-9890-298f4854869d" data-name="uuid-3374edde-7b2c-4e71-84a6-3cb653058dc6">
    <g id="uuid-aa3c5771-7bd8-49de-9886-828a21e4cdcb" data-name="uuid-298fa604-3857-4000-a4c4-1a509c9ef803">
      <g>
        <path class="uuid-44ee2b87-1c1c-4579-9400-1453cc9d6674" d="m244.59,514.46s8.09-20.22,26.83-20.22c15.1,0,19.01,7.06,19.01,7.06,0,0,3.03-5.94,8.09-9.18,0,0-4.15-7.58-14.26-9.3l-1.73,1.91s-6.97-5.35-23.92-2.28c-16.95,3.07-28.51,21.15-28.51,21.15l.92,8.35,4.39,6.42,9.18-3.89v-.02Z"/>
        <path class="uuid-d069c1f4-5d32-4279-8240-02fae6430e08" d="m209.84,478.1l27.45,34.51c.93,1.16,2.33,1.84,3.82,1.84h61.66c1.79,0,3.24,1.45,3.24,3.24v4.45c0,1.79-1.45,3.24-3.24,3.24h-64.92c-3.9,0-7.59-1.79-10-4.85l-26.47-32.68c-.89-1.1-.9-2.68-.02-3.79l4.63-5.81c.91-1.33,2.85-1.41,3.86-.14h0Z"/>
        <path class="uuid-afecb9fe-0fd5-423b-b6f6-7b75a59705ae" d="m282.53,484.72c2.44,1.78,6.89,7.45,7.9,16.57,2.33,5.28,2.33,13.17,2.33,13.17"/>
      </g>
      <g>
        <path class="uuid-44ee2b87-1c1c-4579-9400-1453cc9d6674" d="m405.26,457.42s-8.33-22.95,12.28-44.49c4.45-4.65,15.27-6.57,24.17-6.37,0,0-25.89,17.7-19.96,39.81l-16.49,11.06h0Z"/>
        <path class="uuid-d069c1f4-5d32-4279-8240-02fae6430e08" d="m382.22,485.43c.29,4,3.37,8.75,9.54,9.05s18.87-1.74,46.41-24.52c27.54-22.78,37.32-34.79,34.59-45.81-2.73-11.02-15.88-8.29-29.33,0-13.45,8.29-23.24,15.87-39.34,30.44-15.19,13.75-22.52,21.98-21.88,30.84h0Z"/>
        <path class="uuid-afecb9fe-0fd5-423b-b6f6-7b75a59705ae" d="m472.87,430.86c1.07-6.88-12.92-14.11-52.29,20.95-38.8,34.55-33.55,42.06-30.93,42.38"/>
        <path class="uuid-afecb9fe-0fd5-423b-b6f6-7b75a59705ae" d="m395.95,488.37c1.88,1.93,15.96-4.79,39.42-24.07,23.46-19.28,33.17-30.27,31.28-32.36s-10.79-2.61-41.12,23.75c-30.33,26.36-31.35,30.85-29.58,32.67h0Z"/>
        <path class="uuid-afecb9fe-0fd5-423b-b6f6-7b75a59705ae" d="m441.71,406.56c12.54-.01,17.04,10.85,17.04,10.85"/>
      </g>
    </g>
  </g>
</svg>