<?xml version="1.0" encoding="UTF-8"?>
<svg id="uuid-2696a83c-d1c1-4cbf-8d26-69307627800c" data-name="BODY" xmlns="http://www.w3.org/2000/svg" xmlns:xlink="http://www.w3.org/1999/xlink" viewBox="0 0 600 600">
  <defs>
    <style>
      .uuid-892da503-66f6-49c6-b0f2-26c60a965627, .uuid-dc0cf710-1d52-4245-97a3-0ae321f34843, .uuid-b2fca347-8167-4e3a-9e19-5ed8fcf42d01, .uuid-593746e6-9eac-490b-940b-4dba67177210 {
        fill: none;
      }

      .uuid-42c67b56-d059-4760-a7ba-9713a6a154ea, .uuid-6e31aeb4-b449-40b7-86de-9aaec62d6920 {
        fill: #ffff0d;
      }

      .uuid-4d7db087-ed27-410b-a8d7-dec299eb3043 {
        fill: #ff78d8;
      }

      .uuid-4d7db087-ed27-410b-a8d7-dec299eb3043, .uuid-6e31aeb4-b449-40b7-86de-9aaec62d6920, .uuid-12534e23-e6c3-47c4-b1ef-3c8c082892f6, .uuid-fac382f3-6cf9-4584-a33e-5726bd3f1d4b, .uuid-5f039e5b-0b94-4d16-b70c-920afae965e0, .uuid-9e6893b5-845f-4466-aada-2cd039fe7d6e, .uuid-b2fca347-8167-4e3a-9e19-5ed8fcf42d01 {
        stroke: #000;
        stroke-linecap: round;
        stroke-linejoin: round;
      }

      .uuid-4d7db087-ed27-410b-a8d7-dec299eb3043, .uuid-6e31aeb4-b449-40b7-86de-9aaec62d6920, .uuid-5f039e5b-0b94-4d16-b70c-920afae965e0, .uuid-9e6893b5-845f-4466-aada-2cd039fe7d6e, .uuid-b2fca347-8167-4e3a-9e19-5ed8fcf42d01 {
        stroke-width: 2px;
      }

      .uuid-12534e23-e6c3-47c4-b1ef-3c8c082892f6 {
        stroke-width: 2px;
      }

      .uuid-12534e23-e6c3-47c4-b1ef-3c8c082892f6, .uuid-fac382f3-6cf9-4584-a33e-5726bd3f1d4b, .uuid-5f039e5b-0b94-4d16-b70c-920afae965e0 {
        fill: #fff;
      }

      .uuid-fac382f3-6cf9-4584-a33e-5726bd3f1d4b {
        stroke-width: 2px;
      }

      .uuid-9e6893b5-845f-4466-aada-2cd039fe7d6e {
        fill: #00dfa9;
      }

      .uuid-dc0cf710-1d52-4245-97a3-0ae321f34843 {
        clip-path: url(#uuid-f89593a4-1eff-4e08-ba5f-2b49a23a220f);
      }

      .uuid-593746e6-9eac-490b-940b-4dba67177210 {
        clip-path: url(#uuid-ddb5dbfb-f15c-42b5-8831-2c767a9ef4fd);
      }
    </style>
    <clipPath id="uuid-f89593a4-1eff-4e08-ba5f-2b49a23a220f">
      <path class="uuid-892da503-66f6-49c6-b0f2-26c60a965627" d="m363.4,432.9s-8.1-9.4-9.8-10.6c-1.7-1.2-3.6-1.8-3.6-1.8,0,0-2.8-25.8,25.2-30.1l14.1,15.5s-2.9,7.2-9.7,16.6c-6.8,9.4-16.1,10.3-16.1,10.3l-.1.1Z"/>
    </clipPath>
    <clipPath id="uuid-ddb5dbfb-f15c-42b5-8831-2c767a9ef4fd">
      <path class="uuid-892da503-66f6-49c6-b0f2-26c60a965627" d="m270.8,477.5l15.9-16.5s-9.6-1.4-17.3-7.7c-7.7-6.4-9.9-13.5-9.9-13.5l-15.5,16.5s-3,8.3,9,17.9c8.7,6.9,17.8,3.3,17.8,3.3h0Z"/>
    </clipPath>
  </defs>
  <g id="uuid-490add61-8e82-4878-92cf-964af4fc3091" data-name="uuid-d19fd1aa-f160-4434-8ee1-8fc783292307">
    <g id="uuid-8d1eb0d8-64e1-4eb7-9bae-41782ce015da" data-name="uuid-a613e983-7e29-4acc-9c52-7addab05ae69">
      <g>
        <g>
          <g>
            <path class="uuid-42c67b56-d059-4760-a7ba-9713a6a154ea" d="m363.4,432.9s-8.1-9.4-9.8-10.6c-1.7-1.2-3.6-1.8-3.6-1.8,0,0-2.8-25.8,25.2-30.1l14.1,15.5s-2.9,7.2-9.7,16.6c-6.8,9.4-16.1,10.3-16.1,10.3l-.1.1Z"/>
            <g class="uuid-dc0cf710-1d52-4245-97a3-0ae321f34843">
              <g>
                <path class="uuid-9e6893b5-845f-4466-aada-2cd039fe7d6e" d="m387.9,399.3c-19.7,4-26.8,19.8-29.1,31.4l6.4,6.9,24.7-9.9,4.9-27.2-6.9-1.2h0Z"/>
                <path class="uuid-4d7db087-ed27-410b-a8d7-dec299eb3043" d="m381.8,393.8s-12,1-20.2,11.5-7.6,22.4-7.6,22.4l-8.8-5.6s-2.9-15.3,7.5-25c10.4-9.7,22.6-12.3,22.6-12.3l6.6,9h-.1Z"/>
              </g>
            </g>
            <path class="uuid-b2fca347-8167-4e3a-9e19-5ed8fcf42d01" d="m363.4,432.9s-8.1-9.4-9.8-10.6c-1.7-1.2-3.6-1.8-3.6-1.8,0,0-2.8-25.8,25.2-30.1l14.1,15.5s-2.9,7.2-9.7,16.6c-6.8,9.4-16.1,10.3-16.1,10.3l-.1.1Z"/>
          </g>
          <g>
            <path class="uuid-5f039e5b-0b94-4d16-b70c-920afae965e0" d="m383.1,481.9s-8.5-6.2-2.5-24.9l-17.6-18.8s-1.3-10.6,10.9-22.7c12.2-12.1,21.4-10.5,21.4-10.5l14.1,16.4s9.7-11.6,26.6-14.3c16.9-2.6,29.9,9.7,29.9,9.7,0,0-22.6,5.1-49,28.9-26.4,23.8-33.8,36.3-33.8,36.3v-.1Z"/>
            <path class="uuid-b2fca347-8167-4e3a-9e19-5ed8fcf42d01" d="m409.4,421.3c-4.8,5.4-7.6,15.2-7.6,15.2"/>
          </g>
          <g>
            <g>
              <path class="uuid-4d7db087-ed27-410b-a8d7-dec299eb3043" d="m468.1,415.9c-2.2-1.1-22.3,0-54.1,28.2-31.8,28.2-34.5,37.1-33.9,41.6.5,3.5,3.2,9.5,12.8,9.6,9.6.1,27.3-9.6,50.2-28.8,31.1-26,31.2-37.4,31.1-41.1s-2.9-7.9-6.1-9.6v.1Z"/>
              <path class="uuid-4d7db087-ed27-410b-a8d7-dec299eb3043" d="m466.2,426.1c-7.4-6.6-85.3,55.5-74.3,61.3,11.1,5.7,82.6-53.8,74.3-61.3Z"/>
            </g>
            <g>
              <g>
                <g>
                  <path class="uuid-6e31aeb4-b449-40b7-86de-9aaec62d6920" d="m395.3,500.2c3,3.6,8.3,4.1,11.9,1.1,3.6-3,4.1-8.3,1.1-11.9l-3.9-4.7-2,1.7c-2.1-.1-4.2.5-6,1.9-1.8,1.4-2.7,3.4-3,5.5l-2,1.7,3.9,4.7h0Z"/>
                  <circle class="uuid-6e31aeb4-b449-40b7-86de-9aaec62d6920" cx="397.8" cy="490.1" r="8.4"/>
                </g>
                <g>
                  <path class="uuid-6e31aeb4-b449-40b7-86de-9aaec62d6920" d="m412.5,485.8c3,3.6,8.3,4.1,11.9,1.1,3.6-3,4.1-8.3,1.1-11.9l-3.9-4.7-2,1.7c-2.1-.1-4.2.5-6,1.9-1.7,1.4-2.7,3.4-3,5.5l-2,1.7,3.9,4.7h0Z"/>
                  <circle class="uuid-6e31aeb4-b449-40b7-86de-9aaec62d6920" cx="415.1" cy="475.7" r="8.4"/>
                </g>
                <g>
                  <path class="uuid-6e31aeb4-b449-40b7-86de-9aaec62d6920" d="m429.8,471.4c3,3.6,8.3,4.1,11.9,1.1,3.6-3,4.1-8.3,1.1-11.9l-3.9-4.7-2,1.7c-2.1-.1-4.2.5-6,1.9-1.7,1.4-2.7,3.4-3,5.5l-2,1.7,3.9,4.7h0Z"/>
                  <circle class="uuid-6e31aeb4-b449-40b7-86de-9aaec62d6920" cx="432.4" cy="461.3" r="8.4"/>
                </g>
                <g>
                  <path class="uuid-6e31aeb4-b449-40b7-86de-9aaec62d6920" d="m447.1,457c3,3.6,8.3,4.1,11.9,1.1,3.6-3,4.1-8.3,1.1-11.9l-3.9-4.7-2,1.7c-2.1-.1-4.2.5-6,1.9-1.7,1.4-2.7,3.4-3,5.5l-2,1.7,3.9,4.7h0Z"/>
                  <circle class="uuid-6e31aeb4-b449-40b7-86de-9aaec62d6920" cx="449.7" cy="446.9" r="8.4"/>
                </g>
                <g>
                  <path class="uuid-6e31aeb4-b449-40b7-86de-9aaec62d6920" d="m464.4,442.6c3,3.6,8.3,4.1,11.9,1.1,3.6-3,4.1-8.3,1.1-11.9l-3.9-4.7-2,1.7c-2.1-.1-4.2.5-6,1.9-1.7,1.4-2.7,3.4-3,5.5l-2,1.7,3.9,4.7h0Z"/>
                  <circle class="uuid-6e31aeb4-b449-40b7-86de-9aaec62d6920" cx="466.9" cy="432.5" r="8.4"/>
                </g>
              </g>
              <g>
                <path class="uuid-fac382f3-6cf9-4584-a33e-5726bd3f1d4b" d="m394.62,469.33l.46-.38c1.08-.9,2.62-.76,3.52.32l11.84,14.21-4.3,3.58-11.84-14.21c-.9-1.08-.76-2.62.32-3.52Z"/>
                <path class="uuid-fac382f3-6cf9-4584-a33e-5726bd3f1d4b" d="m427.64,438.72l.46-.38c1.08-.9,2.62-.76,3.52.32l13.38,16.06-4.3,3.58-13.38-16.06c-.9-1.08-.76-2.62.32-3.52Z"/>
                <path class="uuid-fac382f3-6cf9-4584-a33e-5726bd3f1d4b" d="m446.47,426.08l.46-.38c1.08-.9,2.62-.76,3.52.32l11.84,14.21-4.3,3.58-11.84-14.21c-.9-1.08-.76-2.62.32-3.52Z"/>
                <rect class="uuid-fac382f3-6cf9-4584-a33e-5726bd3f1d4b" x="391.83" y="480.16" width="29.4" height="5.6" rx="2.5" ry="2.5" transform="translate(-214.95 372.13) rotate(-39.8)"/>
                <rect class="uuid-fac382f3-6cf9-4584-a33e-5726bd3f1d4b" x="424.05" y="444.26" width="51.3" height="5.6" rx="2.5" ry="2.5" transform="translate(-181.96 391.45) rotate(-39.8)"/>
              </g>
            </g>
          </g>
        </g>
        <g>
          <g>
            <g>
              <g>
                <path class="uuid-6e31aeb4-b449-40b7-86de-9aaec62d6920" d="m209.9,505.8c3.3-3.3,3.3-8.6,0-11.9s-8.6-3.3-11.9,0l-4.3,4.3,1.9,1.9c0,2.1.9,4.2,2.5,5.8,1.6,1.6,3.7,2.4,5.8,2.5l1.9,1.9,4.3-4.3-.2-.2Z"/>
                <circle class="uuid-6e31aeb4-b449-40b7-86de-9aaec62d6920" cx="199.7" cy="504.1" r="8.4"/>
              </g>
              <g>
                <path class="uuid-6e31aeb4-b449-40b7-86de-9aaec62d6920" d="m226.9,522.5c3.3-3.3,3.3-8.6,0-11.9-3.3-3.3-8.6-3.3-11.9,0l-4.3,4.3,1.9,1.9c0,2.1.9,4.2,2.5,5.8,1.6,1.6,3.7,2.4,5.8,2.5l1.9,1.9,4.3-4.3-.2-.2Z"/>
                <circle class="uuid-6e31aeb4-b449-40b7-86de-9aaec62d6920" cx="216.6" cy="520.8" r="8.4"/>
              </g>
            </g>
            <path class="uuid-4d7db087-ed27-410b-a8d7-dec299eb3043" d="m211.4,475.2l25.7,33.5c.9,1.1,2.2,1.8,3.6,1.8h64.4c2.3,0,4.1,1.8,4.1,4.1v4.6c0,2.3-1.8,4.1-4.1,4.1h-68c-3,0-5.8-1.4-7.6-3.8l-27-35.4c-.9-1.2-.9-2.9,0-4.1l3.5-4.7c1.3-1.8,4-1.8,5.4,0v-.1Z"/>
            <g>
              <path class="uuid-12534e23-e6c3-47c4-b1ef-3c8c082892f6" d="m220.8,499.6l.41.43c.97,1.01.93,2.57-.09,3.53l-13.4,12.76-3.86-4.06,13.4-12.76c1.01-.97,2.57-.93,3.53.09Z"/>
              <rect class="uuid-12534e23-e6c3-47c4-b1ef-3c8c082892f6" x="205.14" y="497.66" width="5.6" height="29.4" rx="2.5" ry="2.5" transform="translate(-295.98 284.73) rotate(-43.6)"/>
            </g>
            <g>
              <g>
                <path class="uuid-6e31aeb4-b449-40b7-86de-9aaec62d6920" d="m255.9,537.7c3.3-3.3,3.3-8.6,0-11.9-3.3-3.3-8.6-3.3-11.9,0l-4.3,4.3,1.9,1.9c0,2.1.9,4.2,2.5,5.8,1.6,1.6,3.7,2.4,5.8,2.5l1.9,1.9,4.3-4.3-.2-.2Z"/>
                <circle class="uuid-6e31aeb4-b449-40b7-86de-9aaec62d6920" cx="245.6" cy="536" r="8.4"/>
              </g>
              <g>
                <path class="uuid-6e31aeb4-b449-40b7-86de-9aaec62d6920" d="m279.5,537.7c3.3-3.3,3.3-8.6,0-11.9-3.3-3.3-8.6-3.3-11.9,0l-4.3,4.3,1.9,1.9c0,2.1.9,4.2,2.5,5.8s3.7,2.4,5.8,2.5l1.9,1.9,4.3-4.3-.2-.2Z"/>
                <circle class="uuid-6e31aeb4-b449-40b7-86de-9aaec62d6920" cx="269.2" cy="536" r="8.4"/>
              </g>
              <g>
                <path class="uuid-6e31aeb4-b449-40b7-86de-9aaec62d6920" d="m303,537.7c3.3-3.3,3.3-8.6,0-11.9-3.3-3.3-8.6-3.3-11.9,0l-4.3,4.3,1.9,1.9c0,2.1.9,4.2,2.5,5.8s3.7,2.4,5.8,2.5l1.9,1.9,4.3-4.3-.2-.2Z"/>
                <circle class="uuid-6e31aeb4-b449-40b7-86de-9aaec62d6920" cx="292.8" cy="536" r="8.4"/>
              </g>
            </g>
            <g>
              <path class="uuid-5f039e5b-0b94-4d16-b70c-920afae965e0" d="m257.6,517.8h.6c1.4,0,2.5,1.1,2.5,2.5v18.5h-5.6v-18.5c0-1.4,1.1-2.5,2.5-2.5Z"/>
              <path class="uuid-5f039e5b-0b94-4d16-b70c-920afae965e0" d="m280.1,517.8h.6c1.4,0,2.5,1.1,2.5,2.5v18.5h-5.6v-18.5c0-1.4,1.1-2.5,2.5-2.5Z"/>
              <rect class="uuid-5f039e5b-0b94-4d16-b70c-920afae965e0" x="243.6" y="533.1" width="51.3" height="5.6" rx="2.5" ry="2.5"/>
            </g>
          </g>
          <g>
            <path class="uuid-42c67b56-d059-4760-a7ba-9713a6a154ea" d="m270.8,477.5l15.9-16.5s-9.6-1.4-17.3-7.7c-7.7-6.4-9.9-13.5-9.9-13.5l-15.5,16.5s-3,8.3,9,17.9c8.7,6.9,17.8,3.3,17.8,3.3h0Z"/>
            <g class="uuid-593746e6-9eac-490b-940b-4dba67177210">
              <g>
                <path class="uuid-4d7db087-ed27-410b-a8d7-dec299eb3043" d="m251.9,441.6s2.3,9.8,13.2,18.3c10.6,8.3,20.8,8.3,20.8,8.3l10.6-11.2-37-24.9-7.7,9.5h.1Z"/>
                <path class="uuid-9e6893b5-845f-4466-aada-2cd039fe7d6e" d="m238.9,458.4l9.3-9.3s3.7,10.6,11,16.3c6.7,5.3,17.7,8.6,17.7,8.6l-8.5,9.8-29.4-25.3-.1-.1Z"/>
              </g>
            </g>
            <path class="uuid-b2fca347-8167-4e3a-9e19-5ed8fcf42d01" d="m270.8,477.5l15.9-16.5s-9.6-1.4-17.3-7.7c-7.7-6.4-9.9-13.5-9.9-13.5l-15.5,16.5s-3,8.3,9,17.9c8.7,6.9,17.8,3.3,17.8,3.3h0Z"/>
          </g>
          <g>
            <path class="uuid-5f039e5b-0b94-4d16-b70c-920afae965e0" d="m305.5,513.5h-68.3l-28.5-37.4s5.9-8.1,18.8-6.7l14.2-15.9c1-1.1,2.4-1.7,3.9-1.7h2.5c0,.1-4.1,4.4-4.1,4.4,0,0,4.3,19.6,26.8,21.2l3.3-3.4.6,1.8c.4,1.2.1,2.6-.8,3.6l-1.7,1.7s33.4,1.9,33.4,32.4h-.1Z"/>
            <path class="uuid-b2fca347-8167-4e3a-9e19-5ed8fcf42d01" d="m272.1,481.2c-8.1-.6-20,1.7-26.6,7.7"/>
          </g>
        </g>
      </g>
    </g>
  </g>
</svg>