<?xml version="1.0" encoding="UTF-8"?>
<svg id="BODY" xmlns="http://www.w3.org/2000/svg" viewBox="0 0 600 600">
  <g id="notes">
    <path id="note" d="m530.94,167.64c-1.6-.76-3.52-.08-4.29,1.52,0,0-15.87,35.49-21.85,48.86-2.39-1.88-5.81-3.17-9.68-3.41-7.57-.46-13.95,3.29-14.26,8.37-.31,5.08,5.58,9.57,13.15,10.03,6.58.4,12.26-2.39,13.84-6.46.18-.2.35-.42.48-.67l24.14-53.95c.76-1.6.08-3.52-1.52-4.29Z"/>
    <path id="note-2" data-name="note" d="m399.17,83.39l-13.93-22.62c-.9-1.53-2.87-2.05-4.4-1.16-.87.51-1.4,1.36-1.54,2.29-.84,3.27-9.74,38.06-13.21,51.58-2.67-1.45-6.26-2.15-10.12-1.72-7.54.83-13.2,5.6-12.64,10.66.56,5.06,7.12,8.49,14.65,7.66,6.56-.72,11.68-4.43,12.55-8.71.14-.23.27-.47.35-.75l12.83-50.06c4.07,6.61,9.77,15.86,9.85,15.99.32.55-5.45,4.09-5.45,4.09,0,0,8.87-2.36,9.85-2.93,1.51-.88,2.03-2.8,1.19-4.32Z"/>
    <path id="note-3" data-name="note" d="m494.28,83.17s0-.03,0-.04c-.35-1.74-2.05-2.87-3.79-2.51,0,0-33.19,7.52-33.44,7.57-1.54.31-2.6,1.69-2.57,3.21-.92,5-7.13,38.67-9.59,51.99-2.76-1.27-6.4-1.71-10.21-1.03-7.46,1.34-12.78,6.49-11.88,11.5.9,5.01,7.68,7.98,15.14,6.64,6.49-1.17,11.35-5.21,11.92-9.54.13-.24.24-.49.3-.77l7.63-41.31,26.58-6.06c-2.15,11.64-4.71,25.53-6.09,33-2.76-1.27-6.4-1.71-10.21-1.03-7.46,1.34-12.78,6.49-11.88,11.5.9,5.01,7.68,7.98,15.14,6.64,6.49-1.17,11.36-5.21,11.92-9.54.13-.24.24-.49.3-.77l10.73-58.12c.09-.45.08-.9,0-1.32Zm-35.22,18.82l1.48-8.01,26.56-6c-.39,2.13-.89,4.85-1.46,7.95-4.21.96-19.81,4.53-26.58,6.07Z"/>
  </g>
</svg>