<?xml version="1.0" encoding="UTF-8"?>
<svg id="uuid-3e2b4b64-f113-4f65-a1b1-e859300d92ba" data-name="COCOBAY" xmlns="http://www.w3.org/2000/svg" xmlns:xlink="http://www.w3.org/1999/xlink" viewBox="0 0 600 600">
  <defs>
    <style>
      .uuid-497383de-5e8a-4015-b451-1b4dad5d24a7 {
        fill: #fff7f0;
      }

      .uuid-497383de-5e8a-4015-b451-1b4dad5d24a7, .uuid-82614009-c5d7-47f2-bd79-db52e88db6f6, .uuid-1ab7f5a2-5e35-407c-883a-869df7545b4e, .uuid-de1bdcba-1429-4a2f-8267-36696c2b11b3, .uuid-9ad44f73-760d-4642-8ddc-6489cc21ce69, .uuid-df14609c-0e39-4bda-ab40-a76ec99a1cdc {
        stroke: #000;
        stroke-linecap: round;
        stroke-linejoin: round;
        stroke-width: 2px;
      }

      .uuid-82614009-c5d7-47f2-bd79-db52e88db6f6 {
        fill: #a07bff;
      }

      .uuid-1ab7f5a2-5e35-407c-883a-869df7545b4e {
        fill: #353434;
      }

      .uuid-b626dd94-e7f1-4d73-9e46-0d4c877e964c, .uuid-de1bdcba-1429-4a2f-8267-36696c2b11b3 {
        fill: #7aa6ff;
      }

      .uuid-7354f1ce-1c70-4564-b327-70e8dbe278e4 {
        clip-path: url(#uuid-c57e684e-816a-4836-8d44-ad3a00cdd4a6);
      }

      .uuid-9ad44f73-760d-4642-8ddc-6489cc21ce69 {
        fill: #8400ff;
      }

      .uuid-bc29aa11-3073-4fa8-862b-4495d544f1b1 {
        fill: #3ef1ff;
      }

      .uuid-df14609c-0e39-4bda-ab40-a76ec99a1cdc {
        fill: none;
      }
    </style>
    <clipPath id="uuid-c57e684e-816a-4836-8d44-ad3a00cdd4a6">
      <path class="uuid-de1bdcba-1429-4a2f-8267-36696c2b11b3" d="M375.6014,186.0496c-3.6689,.3657-7.355,.8262-11.0415,1.3682-1.1636,.1709-1.7671,1.4878-1.1445,2.4854l2.0469,3.2837-4.854,5.9663-40.9551,9-1.3096-10.3159c-28.145,8.2632-51.3745,18.1831-60.0864,22.0781-2.3208,1.0376-3.9058,3.2256-4.189,5.752-2.6582,23.7207-1.6743,49.4497-1.1479,59.1553,.1304,2.4038,1.8242,4.439,4.1704,4.9785,28.1772,6.4785,66.814,4.9517,76.1465,4.4614,1.3682-.0723,2.6221-.7461,3.458-1.8311,5.2461-6.8066,12.7236-19.0312,17.7979-27.6011,3.1533-5.3252,9.9526-7.2012,15.3867-4.2383l19.7383,10.7627c1.9072,1.04,4.2808,.6299,5.73-.9888,9.9858-11.1548,18.5635-23.8379,23.3701-31.3921-13.6494-21.5059-34.2007-43.6812-43.1167-52.9243Z"/>
    </clipPath>
  </defs>
  <g id="uuid-908dc865-47bc-4301-990e-3d26525beded" data-name="HATS A">
    <g id="uuid-845ae38f-23fa-4152-997a-f63073291681" data-name="Capa 32">
      <g id="uuid-94b65ef2-ffe4-4b12-b92b-e951dcaa643d" data-name="Capa 35">
        <g>
          <g>
            <path class="uuid-9ad44f73-760d-4642-8ddc-6489cc21ce69" d="M244.5736,212.8596l-11.315,8.2534c-2.8587,2.0852-4.6889,5.2845-5.0274,8.8067-.6171,6.4209-1.5001,18.0882-1.6617,33.4931-.1558,14.8503-.1777,28.2734,1.2135,33.5316,.795,3.0047,3.1341,5.3394,6.1448,6.1113,7.6363,1.9578,26.1738,4.6685,52.7931,6.794,18.9875,1.5161,36.7753,1.4494,48.2799-3.022,2.9843-1.1599,6.2793-3.7218,7.3398-4.9857,1.844-2.1977-88.586-7.0675-88.586-7.0675l-7.8202-59.2844-1.3607-22.6305Z"/>
            <line class="uuid-9ad44f73-760d-4642-8ddc-6489cc21ce69" x1="241.8396" y1="295.3319" x2="230.8582" y2="301.5659"/>
            <path class="uuid-9ad44f73-760d-4642-8ddc-6489cc21ce69" d="M359.1502,276.9927l18.3414,9.916c4.8576,2.6262,10.7673,2.3607,15.3698-.6906l3.219-2.134-32.6405-18.0884-6.3708,3.4382,2.0811,7.5588Z"/>
          </g>
          <path class="uuid-82614009-c5d7-47f2-bd79-db52e88db6f6" d="M247.0579,211.1365c16.7383-7.7283,77.9228-34.2835,136.4684-38.2834,2.0773-.1419,4.127,.544,5.7183,1.8867,7.1735,6.053,28.0396,24.9759,43.6172,52.3787,1.4972,2.6338,1.3862,5.8892-.2737,8.4236-6.0352,9.2147-21.4014,32.0102-35.8215,47.9475-1.2261,1.3551-3.2161,1.6953-4.8231,.8252l-24.7722-13.4137c-1.8804-1.0182-4.2253-.3648-5.3003,1.4837-3.6448,6.2676-11.869,20.0016-18.9286,28.85-.7136,.8944-1.7713,1.4357-2.9144,1.4871-10.1453,.4562-61.6047,2.2951-95.2115-5.5082-2.3475-.5451-4.0361-2.5886-4.1514-4.9958-.5517-11.515-1.7781-45.657,1.3506-74.0912,.3362-3.0555,2.2512-5.7016,5.042-6.9902Z"/>
          <path class="uuid-9ad44f73-760d-4642-8ddc-6489cc21ce69" d="M375.6014,186.0496c8.916,9.2432,29.4673,31.4185,43.1167,52.9243,1.0662-1.6756,1.9475-3.0999,2.6174-4.199,.9288-1.524,.925-3.4411-.0294-4.9493-14.9927-23.6932-30.2349-38.7032-34.9874-43.1249-.9515-.8852-2.2283-1.3318-3.5249-1.2448-4.6668,.3132-9.1407,.7877-7.1923,.5936Z"/>
          <g>
            <path class="uuid-b626dd94-e7f1-4d73-9e46-0d4c877e964c" d="M375.6014,186.0496c-3.6689,.3657-7.355,.8262-11.0415,1.3682-1.1636,.1709-1.7671,1.4878-1.1445,2.4854l2.0469,3.2837-4.854,5.9663-40.9551,9-1.3096-10.3159c-28.145,8.2632-51.3745,18.1831-60.0864,22.0781-2.3208,1.0376-3.9058,3.2256-4.189,5.752-2.6582,23.7207-1.6743,49.4497-1.1479,59.1553,.1304,2.4038,1.8242,4.439,4.1704,4.9785,28.1772,6.4785,66.814,4.9517,76.1465,4.4614,1.3682-.0723,2.6221-.7461,3.458-1.8311,5.2461-6.8066,12.7236-19.0312,17.7979-27.6011,3.1533-5.3252,9.9526-7.2012,15.3867-4.2383l19.7383,10.7627c1.9072,1.04,4.2808,.6299,5.73-.9888,9.9858-11.1548,18.5635-23.8379,23.3701-31.3921-13.6494-21.5059-34.2007-43.6812-43.1167-52.9243Z"/>
            <g class="uuid-7354f1ce-1c70-4564-b327-70e8dbe278e4">
              <g>
                <path class="uuid-bc29aa11-3073-4fa8-862b-4495d544f1b1" d="M335.9515,191.4348c.2983,4.332,.5913,10.5239,.3198,15.6924-.4717,8.9854-5.3931,9.7227-6.5054,4.3628-.8223-3.9604-1.5332-15.313-1.8486-20.9741l-20.8452,6.394c1.5347,9.2954,3.0186,24.9873-4.3735,25.3667-8.1631,.4185-9.6641-14.3467-9.9277-20.98l-9.8252,3.0137s.8091,13.5503,.6064,19.8203c-.2021,6.2695-9.3032,6.6743-9.6064,15.2695-.3032,8.5957,2.3257,57.6406,2.3257,57.6406h56.4272s-1.0112-48.5396-1.0112-61.0786,9.0928-13.5083,9.3325-22.833c.2402-9.3242,0-20.7852,0-20.7852l-5.0684-.9092Zm-51.5186,46.0488c7.3525,.2402,9.5015,22.4111,2.4902,22.9014-7.0112,.4907-7.8477-23.0767-2.4902-22.9014Zm4.1079,39.7368c-4.4492,.1348-4.9888-9.3706-.2695-9.8428,4.0298-.4028,4.7192,9.708,.2695,9.8428Z"/>
                <path class="uuid-bc29aa11-3073-4fa8-862b-4495d544f1b1" d="M276.4539,227.2117c4.4492-.1348,3.7603-10.2456-.2695-9.8423-4.7192,.4717-4.1797,9.9771,.2695,9.8423Z"/>
                <path class="uuid-bc29aa11-3073-4fa8-862b-4495d544f1b1" d="M260.7996,279.2356c-.5059,5.3525-.5059,18.6143-.5059,18.6143l-2.9326,2.1504,12.5396,2.0967s.6064-9.4048-.708-19.7192-7.8877-8.4946-8.3931-3.1421Z"/>
                <path class="uuid-bc29aa11-3073-4fa8-862b-4495d544f1b1" d="M394.721,237.3103c-4.5845,0-4.9214,15.9775-.6743,16.3145,4.2471,.3374,3.7754-16.3145,.6743-16.3145Z"/>
                <path class="uuid-bc29aa11-3073-4fa8-862b-4495d544f1b1" d="M353.9759,218.9695c4.2471,.3369,3.7754-16.3145,.6743-16.3145-4.5845,0-4.9214,15.9775-.6743,16.3145Z"/>
                <path class="uuid-bc29aa11-3073-4fa8-862b-4495d544f1b1" d="M399.3724,216.2092c-.0913-10.7939-.792-40.4634-.792-40.4634l-35.7471,5.3062s-.2173,12.7412-.5059,28.2134c-.2886,15.4717-10.8203,16.5845-10.8203,24.5728v40.4497h16.6455c.4961-5.7441,1.5806-18.1851,2.2646-25.1797,.6914-7.0649,7.6855-9.6069,7.9888-1.7192,.2261,5.8745,.1152,20.0454,.0444,26.8989h7.439s.4043-18.438,.8091-31.5684c.4043-13.1299,12.8086-10.6001,12.6738-26.5103Zm-9.1011-5.3936c3.1738,.0884,4.3145,11.7305-1.0112,11.5957s-3.8428-11.7305,1.0112-11.5957Z"/>
              </g>
            </g>
            <path class="uuid-df14609c-0e39-4bda-ab40-a76ec99a1cdc" d="M375.6014,186.0496c-3.6689,.3657-7.355,.8262-11.0415,1.3682-1.1636,.1709-1.7671,1.4878-1.1445,2.4854l2.0469,3.2837-4.854,5.9663-40.9551,9-1.3096-10.3159c-28.145,8.2632-51.3745,18.1831-60.0864,22.0781-2.3208,1.0376-3.9058,3.2256-4.189,5.752-2.6582,23.7207-1.6743,49.4497-1.1479,59.1553,.1304,2.4038,1.8242,4.439,4.1704,4.9785,28.1772,6.4785,66.814,4.9517,76.1465,4.4614,1.3682-.0723,2.6221-.7461,3.458-1.8311,5.2461-6.8066,12.7236-19.0312,17.7979-27.6011,3.1533-5.3252,9.9526-7.2012,15.3867-4.2383l19.7383,10.7627c1.9072,1.04,4.2808,.6299,5.73-.9888,9.9858-11.1548,18.5635-23.8379,23.3701-31.3921-13.6494-21.5059-34.2007-43.6812-43.1167-52.9243Z"/>
          </g>
          <g>
            <path class="uuid-9ad44f73-760d-4642-8ddc-6489cc21ce69" d="M318.3436,197.8371l5.9647-1.8798c1.0721-.3379,2.1898,.3723,2.3392,1.4864l.4554,3.3946,38.3594-7.6516-4.854,5.9663-40.9551,9-1.3096-10.3159Z"/>
            <line class="uuid-9ad44f73-760d-4642-8ddc-6489cc21ce69" x1="327.1028" y1="200.8384" x2="319.6531" y2="208.1531"/>
          </g>
        </g>
        <path class="uuid-1ab7f5a2-5e35-407c-883a-869df7545b4e" d="M183.4826,225.7177l-4.4278,7.4338s5.3806,2.754,23.3963,4.6306c16.1798,1.6854,30.9438,.9438,30.9438,.9438,0,0-.5056,37.6854,0,46.5843,0,0-25.382-.9101-47.8315-5.9663s-30.6404-11.1236-30.6404-11.1236c0,0,3.1371-12.809,6.9123-22.4831,3.7667-9.6522,8.6607-18.7753,8.6607-18.7753l12.9865-1.2442Z"/>
        <path class="uuid-9ad44f73-760d-4642-8ddc-6489cc21ce69" d="M200.2264,240.6137l-12.8343,35.191s7.9853,2.8315,21.5334,4.5506,20.7278,2.0225,20.7278,2.0225l.6067-40.3381-30.0337-1.4259Z"/>
        <path class="uuid-497383de-5e8a-4015-b451-1b4dad5d24a7" d="M233.3948,238.7258s-14.7642,.7417-30.9438-.9434c-.8877-.0928-1.7427-.1875-2.5684-.2837-1.0342-.1211-2.0093,.4868-2.3643,1.4653l-13.5903,37.415c-.4614,1.27,.2915,2.6621,1.6094,2.959,.0088,.002,.0171,.0039,.0259,.0059,22.4497,5.0562,47.8315,5.9663,47.8315,5.9663-.5054-8.8989,0-46.5845,0-46.5845Zm-6.5972,40.5098s-16.459-.3975-34.2285-3.8379c-.0068-.0015-.0132-.0029-.02-.0049-1.0278-.2314-1.6152-1.3174-1.2554-2.3081l10.6016-29.1875c.2773-.7632,1.0381-1.2378,1.8447-1.1436,.6436,.0752,1.3105,.1489,2.0034,.2217,12.6221,1.3145,22.0396,.8081,22.0396,.8081,0,0-.7832,28.6431-.9854,35.4521Z"/>
        <g>
          <circle cx="205.7461" cy="256.0585" r="3.228"/>
          <circle cx="220.0973" cy="257.157" r="3.228"/>
          <circle cx="212.1537" cy="266.6409" r="3.228"/>
        </g>
        <g>
          <line class="uuid-df14609c-0e39-4bda-ab40-a76ec99a1cdc" x1="160.5695" y1="261.9271" x2="163.1013" y2="268.0934"/>
          <line class="uuid-df14609c-0e39-4bda-ab40-a76ec99a1cdc" x1="163.8285" y1="251.2586" x2="173.6374" y2="272.5957"/>
          <line class="uuid-df14609c-0e39-4bda-ab40-a76ec99a1cdc" x1="167.6034" y1="242.0396" x2="181.1069" y2="271.4132"/>
          <line class="uuid-df14609c-0e39-4bda-ab40-a76ec99a1cdc" x1="172.2058" y1="231.6152" x2="185.7093" y2="260.9887"/>
          <line class="uuid-df14609c-0e39-4bda-ab40-a76ec99a1cdc" x1="185.0169" y1="238.6441" x2="189.7674" y2="248.9776"/>
        </g>
      </g>
    </g>
  </g>
</svg>