<?xml version="1.0" encoding="UTF-8"?>
<svg id="uuid-0a7adec7-e316-4db6-9a50-9ef12928f489" data-name="COCOBAY" xmlns="http://www.w3.org/2000/svg" xmlns:xlink="http://www.w3.org/1999/xlink" viewBox="0 0 600 600">
  <defs>
    <style>
      .uuid-448164d2-8991-4756-a36d-937c0c19891d, .uuid-22049562-c925-4c1a-86df-0bbe3a7fad3a, .uuid-1208e91f-6bd0-429b-bfbe-25c02e1db96c, .uuid-47d7a9f9-b58a-4a32-bf19-37b4c0493888 {
        stroke-linecap: round;
        stroke-linejoin: round;
      }

      .uuid-448164d2-8991-4756-a36d-937c0c19891d, .uuid-22049562-c925-4c1a-86df-0bbe3a7fad3a, .uuid-47d7a9f9-b58a-4a32-bf19-37b4c0493888 {
        stroke: #000;
        stroke-width: 2px;
      }

      .uuid-448164d2-8991-4756-a36d-937c0c19891d, .uuid-fe4bbce7-35aa-423b-96bd-769d392af878 {
        fill: #fff7f0;
      }

      .uuid-22049562-c925-4c1a-86df-0bbe3a7fad3a, .uuid-b67750ad-9a9e-439f-b3df-eaf259f97f42 {
        fill: #a07bff;
      }

      .uuid-4ea9208e-9a20-445c-9204-881797d2e386 {
        clip-path: url(#uuid-3fbb71e0-b473-4283-b4ed-91f5f32afb3f);
      }

      .uuid-51b149fe-d254-46fe-8276-d44aaf0f286d {
        fill: #ff78d8;
      }

      .uuid-1208e91f-6bd0-429b-bfbe-25c02e1db96c {
        stroke: #ff78d8;
        stroke-width: 5px;
      }

      .uuid-47d7a9f9-b58a-4a32-bf19-37b4c0493888 {
        fill: none;
      }
    </style>
    <clipPath id="uuid-3fbb71e0-b473-4283-b4ed-91f5f32afb3f">
      <path class="uuid-448164d2-8991-4756-a36d-937c0c19891d" d="M292.17974,151.63053c-45.28557,18.52591-57.04202,82.27356-16.82925,154.86121s92.46833,79.78137,131.3501,57.32398c32.27055-18.63888,50.94777-86.941,11.50096-148.34525-38.37996-59.74356-88.10692-79.35057-126.02181-63.83993Z"/>
    </clipPath>
  </defs>
  <g id="uuid-a9579faf-1ae5-4d40-a4cc-22ba1730b184" data-name="HATS A">
    <g id="uuid-5d29859d-1e7e-4471-9f73-63fc681f3063" data-name="Capa 69">
      <g id="uuid-a170f457-5acf-49c3-a376-5e6480af8811" data-name="Capa 72">
        <g>
          <g>
            <path class="uuid-22049562-c925-4c1a-86df-0bbe3a7fad3a" d="M265.35577,275.49021s-48.99153,12.9739-101.89985,3.29414l1.5127-8.1752s-5.21526,1.58874-6.22034,2.59381-3.01522,18.49336-2.61319,30.55425c0,0,12.75596,8.07836,57.94577,8.49168s64.06483-9.23085,64.06483-9.23085l-12.78992-27.52784Z"/>
            <path class="uuid-22049562-c925-4c1a-86df-0bbe3a7fad3a" d="M207.0526,282.36184c-1.14892,13.66181,.63068,29.77313,.63068,29.77313"/>
            <path class="uuid-22049562-c925-4c1a-86df-0bbe3a7fad3a" d="M237.19499,280.43347c1.04357,19.56653,4.82344,30.81502,4.82344,30.81502"/>
          </g>
          <g>
            <path class="uuid-448164d2-8991-4756-a36d-937c0c19891d" d="M345.05262,154.00237s7.10058-16.32727,18.28723-25.2766c2.87234-2.29787,8.01064-4.02128,14.7766,11.29787s11.48936,44.17021,11.48936,44.17021c0,0-12.76596-13.78723-44.55319-30.19149Z"/>
            <path class="uuid-47d7a9f9-b58a-4a32-bf19-37b4c0493888" d="M358.58454,163.38535s2.74468-13.97872,5.04255-20.17021,5.3617-2.87234,5.3617-2.87234"/>
            <path class="uuid-448164d2-8991-4756-a36d-937c0c19891d" d="M260.03134,190.38535s-18.01291-1.34043-37.14894,6.7938c-3.26873,1.38945-11.43978,6.48529-2.10638,20.2062,9.3334,13.72091,35.02229,32.79047,35.02229,32.79047,0,0,1.56805-25.72697,4.23303-59.79047Z"/>
            <path class="uuid-47d7a9f9-b58a-4a32-bf19-37b4c0493888" d="M253.44228,206.9456s-12.01265-2.60631-18.56707-2.86821c-6.55441-.2619-6.46843,3.51772-6.46843,3.51772"/>
          </g>
          <g>
            <path class="uuid-fe4bbce7-35aa-423b-96bd-769d392af878" d="M292.17974,151.63053c-45.28557,18.52591-57.04202,82.27356-16.82925,154.86121s92.46833,79.78137,131.3501,57.32398c32.27055-18.63888,50.94777-86.941,11.50096-148.34525-38.37996-59.74356-88.10692-79.35057-126.02181-63.83993Z"/>
            <g class="uuid-4ea9208e-9a20-445c-9204-881797d2e386">
              <g>
                <path class="uuid-1208e91f-6bd0-429b-bfbe-25c02e1db96c" d="M383.73347,253.95982s-5.17021-13.40426,3.06383-26.32979,17.71277-11.20213,17.71277-11.20213c0,0-3.6383,3.06383-1.91489,13.5s-1.43617,22.97872-18.8617,24.03191Z"/>
                <path class="uuid-1208e91f-6bd0-429b-bfbe-25c02e1db96c" d="M355.81488,266.01692s-12.03069-13.05937-30.94481-8.40581c-18.91412,4.65356-22.24323,17.8315-22.24323,17.8315,0,0,4.6739-2.20619,16.74606,2.13041,13.14894,4.7234,26.28009,6.55407,36.44198-11.5561Z"/>
                <path class="uuid-47d7a9f9-b58a-4a32-bf19-37b4c0493888" d="M392.87709,282.39599c-.95745-3.82979,2.34574-6.41489,3.6383-6.27128"/>
                <path class="uuid-47d7a9f9-b58a-4a32-bf19-37b4c0493888" d="M383.25475,287.75769s-8.04255-3.25532-10.62766,2.87234"/>
                <path class="uuid-47d7a9f9-b58a-4a32-bf19-37b4c0493888" d="M359.31858,346.44918s12.6383,5.67626,19.81915-15.92783,20.27454-25.80144,29.58511-26.00834c8.61702-.19149,14.74468,6.51064,15.62706-1.81915"/>
                <path class="uuid-47d7a9f9-b58a-4a32-bf19-37b4c0493888" d="M410.63773,318.97046s-8.52128-3.06383-10.81915,6.70213"/>
                <g>
                  <path class="uuid-b67750ad-9a9e-439f-b3df-eaf259f97f42" d="M429.30793,260.27904c2.48926-10.53174,5.84033-14.74463,5.84033-14.74463l-9.76562-21.25537c-4.02148,9.62891-1.62793,16.37207-3.35107,25.94678-1.72363,9.57422-6.46289,19.67529-15.98975,22.78711,14.55322,2.87256,20.77686-2.20215,23.26611-12.73389Z"/>
                  <path class="uuid-51b149fe-d254-46fe-8276-d44aaf0f286d" d="M440.4881,262.70434c-.69092,13.12012-12.07373,25.43408-16.79736,26.05762,13.65967,2.79346,19.85547-3.48828,19.85547-3.48828l-3.05811-22.56934Z"/>
                  <path class="uuid-b67750ad-9a9e-439f-b3df-eaf259f97f42" d="M320.3631,303.41186c-18.6709-1.54053-31.68262-8.25732-49.26318,1.54053-3.48389,1.94189,9.33545,15.51172,9.33545,15.51172,5.60156-4.73975,15.94238-6.60693,38.4917-6.75049,22.54883-.14355,26.72607-13.71338,26.72607-13.71338,0,0-6.61865,4.95215-25.29004,3.41162Z"/>
                  <path class="uuid-51b149fe-d254-46fe-8276-d44aaf0f286d" d="M301.54816,347.89623s25.95264-8.05078,35.43213-22.98779c-11.9209,7.61182-36.58105,4.89111-46.06006,12.21582l10.62793,10.77197Z"/>
                </g>
              </g>
            </g>
            <path class="uuid-47d7a9f9-b58a-4a32-bf19-37b4c0493888" d="M292.17974,151.63053c-45.28557,18.52591-57.04202,82.27356-16.82925,154.86121s92.46833,79.78137,131.3501,57.32398c32.27055-18.63888,50.94777-86.941,11.50096-148.34525-38.37996-59.74356-88.10692-79.35057-126.02181-63.83993Z"/>
          </g>
        </g>
      </g>
    </g>
  </g>
</svg>