<?xml version="1.0" encoding="UTF-8"?>
<svg id="uuid-706c66c1-904f-4e6b-ae5a-7d28757b7aa5" data-name="BODY" xmlns="http://www.w3.org/2000/svg" viewBox="0 0 600 600">
  <defs>
    <style>
      .uuid-e783e61a-5a56-4ab2-963f-7f791da5a080 {
        fill: #9dff0c;
      }

      .uuid-e783e61a-5a56-4ab2-963f-7f791da5a080, .uuid-b57c3a7e-405d-471e-9dd4-85222df50f42, .uuid-4fb7418d-b5b6-44db-ba8f-3c1ee6a0dc8d {
        stroke: #000;
        stroke-linecap: round;
        stroke-linejoin: round;
        stroke-width: 2px;
      }

      .uuid-b57c3a7e-405d-471e-9dd4-85222df50f42 {
        fill: #fff;
      }

      .uuid-4fb7418d-b5b6-44db-ba8f-3c1ee6a0dc8d {
        fill: #ffc9f1;
      }
    </style>
  </defs>
  <path class="uuid-b57c3a7e-405d-471e-9dd4-85222df50f42" d="m249.92,302.6c-2.79-7.57-11.8-24.95-11.8-24.95.17-.46-9.01,17.39-11.8,24.95-.48,1.31-1.21,3.5-1.21,5.45,0,7.18,5.82,13,13,13s13-5.82,13-13c0-1.95-.73-4.14-1.21-5.45Z"/>
  <path class="uuid-e783e61a-5a56-4ab2-963f-7f791da5a080" d="m307.79,206.07c-14.43-.53-29.74-6.92-45.11-23-32.46-33.95-60.76-18.26-60.76-18.26,0,0,33.11-51.48,92.55-40.34-3.72-12.38-16.1-12.38-16.1-12.38,0,0,17.85-5.8,40.87,4.95,18.42,8.61,35.21,30.63,33.17,65.88"/>
  <path class="uuid-4fb7418d-b5b6-44db-ba8f-3c1ee6a0dc8d" d="m426.99,245.51s-7.43-22.29-78.02-16.1c-110.34,9.68-169.26,60.88-181.12,90.66-1.68,4.22-2.11,8.84-1.47,13.34l.54,3.75s-5.57-5.57-9.29-19.2c-3.72-13.62-3.8-25.68-3.15-34.26,2.53-33.24,57.22-90.25,178.39-101.35,70.59-2.48,76.54,15.26,81.12,21.67,9.29,13,19.2,34.33,13,41.49Z"/>
  <path class="uuid-b57c3a7e-405d-471e-9dd4-85222df50f42" d="m410.49,187.32c-.48,1.1.48,2.29,1.66,2.05,7.86-1.61,30.35-7.13,35.66-18.39,6.29-13.36-23.33-15.3-37.31,16.35Z"/>
  <path class="uuid-b57c3a7e-405d-471e-9dd4-85222df50f42" d="m396.67,179.32c.95.7,2.32.23,2.62-.91,1.48-5.54,4.61-19.7-.85-23.75-6.57-4.87-16.89,13.5-1.77,24.66Z"/>
</svg>