<?xml version="1.0" encoding="UTF-8"?>
<svg id="uuid-091ed8ab-f484-451f-91a4-f185ff771bea" data-name="BODY" xmlns="http://www.w3.org/2000/svg" xmlns:xlink="http://www.w3.org/1999/xlink" viewBox="0 0 600 600">
  <defs>
    <style>
      .uuid-e538a501-a580-40a5-be3c-5dcf7acc12ed, .uuid-9893f0ee-510c-45fd-a4d8-b9785f563aba, .uuid-e1b2306c-2642-42f6-a9ce-709ed0a2984f, .uuid-6e347452-2c9f-44fc-bb61-9f3116dded26 {
        fill: none;
      }

      .uuid-8af33ffd-5ea3-4c1a-a33a-b7058055e1aa, .uuid-18ee91d4-7e36-4f0f-bd5d-6a780953022f {
        fill: #7aa6ff;
      }

      .uuid-8af33ffd-5ea3-4c1a-a33a-b7058055e1aa, .uuid-18ee91d4-7e36-4f0f-bd5d-6a780953022f, .uuid-e27925f9-ba78-4bd9-a001-1a5cf407e150, .uuid-9893f0ee-510c-45fd-a4d8-b9785f563aba {
        stroke: #000;
        stroke-linecap: round;
        stroke-linejoin: round;
      }

      .uuid-8af33ffd-5ea3-4c1a-a33a-b7058055e1aa, .uuid-e27925f9-ba78-4bd9-a001-1a5cf407e150, .uuid-9893f0ee-510c-45fd-a4d8-b9785f563aba {
        stroke-width: 2px;
      }

      .uuid-18ee91d4-7e36-4f0f-bd5d-6a780953022f {
        stroke-width: 2px;
      }

      .uuid-06eeed9c-1b94-499d-b4e4-85c4a9a2e8d8 {
        fill: #f9a723;
      }

      .uuid-e27925f9-ba78-4bd9-a001-1a5cf407e150 {
        fill: #ffff0d;
      }

      .uuid-e1b2306c-2642-42f6-a9ce-709ed0a2984f {
        clip-path: url(#uuid-d7888f72-9bd3-4b2a-b146-12f6a64481b0);
      }

      .uuid-6e347452-2c9f-44fc-bb61-9f3116dded26 {
        clip-path: url(#uuid-9ff6ce67-6488-449c-8a7c-f9eedaca6bd4);
      }
    </style>
    <clipPath id="uuid-d7888f72-9bd3-4b2a-b146-12f6a64481b0">
      <path class="uuid-e538a501-a580-40a5-be3c-5dcf7acc12ed" d="m187.08,173.64l-1.95-7.59c-.18-.71-.1-1.46.24-2.11,2.02-3.91,10.25-18.26,28.21-31.73,0,0,23.2-20.5,68.77-17.54,40.38,2.63,70.17,28.44,76.43,34.29.77.71,1.1,1.77.89,2.8l-1.27,6.15c-.18.88-.75,1.64-1.55,2.05-4.05,2.11-16.93,8.97-24.55,14.58-1.2.88-2.85.75-3.89-.31-6.9-7.06-33.64-30.87-78.7-28.82-48.78,2.23-62.63,28.23-62.63,28.23h0Z"/>
    </clipPath>
    <clipPath id="uuid-9ff6ce67-6488-449c-8a7c-f9eedaca6bd4">
      <path class="uuid-e538a501-a580-40a5-be3c-5dcf7acc12ed" d="m393.75,182.6l1.89.33c1.67.29,3.23.98,4.57,2.02,5.28,4.08,18.96,14.87,19.85,17.97,1.11,3.84.61,9.81.61,9.81,0,0-14.8,20.22-33.94,24-19.15,3.78-95.09,20.88-194.19,14-25.46-1.77-33.57-7.97-33.57-7.97,0,0-.67-6.72-.88-9.01-.2-2.29,8.63-7.28,8.63-7.28,0,0-.09-3.54-.15-7.07-.05-3.11,1.62-5.99,4.35-7.48l5.11-2.8s-.67,6.19-.69,9.6c0,0,28.24,2.76,62.76,1.42,34.52-1.35,57.44-3.1,64.58-3.37,7.15-.27,19.89,8.39,19.89,8.39,0,0,41.19-6.91,55.21-14.46,14.02-7.55,15.95-28.08,15.95-28.08h0Z"/>
    </clipPath>
  </defs>
  <g id="uuid-91e2d860-8fb5-4400-a77e-659b170f6dc2" data-name="uuid-23968290-0a3a-4a15-8166-5b4124cfd492">
    <g>
      <path class="uuid-e27925f9-ba78-4bd9-a001-1a5cf407e150" d="m281.13,233.94c75.24-6.27,104.36-20.83,104.36-20.83l12.32-16.88c-12.1-54.27-66.47-90.62-125.26-82.17-61.12,8.79-104.01,62.7-96.37,120.76,13.82,1.47,48.52,3.82,104.95-.88h0Z"/>
      <path class="uuid-9893f0ee-510c-45fd-a4d8-b9785f563aba" d="m204.85,189.49s14.94-1.52,20.48-15.09"/>
      <g>
        <path class="uuid-06eeed9c-1b94-499d-b4e4-85c4a9a2e8d8" d="m187.08,173.64l-1.95-7.59c-.18-.71-.1-1.46.24-2.11,2.02-3.91,10.25-18.26,28.21-31.73,0,0,23.2-20.5,68.77-17.54,40.38,2.63,70.17,28.44,76.43,34.29.77.71,1.1,1.77.89,2.8l-1.27,6.15c-.18.88-.75,1.64-1.55,2.05-4.05,2.11-16.93,8.97-24.55,14.58-1.2.88-2.85.75-3.89-.31-6.9-7.06-33.64-30.87-78.7-28.82-48.78,2.23-62.63,28.23-62.63,28.23h0Z"/>
        <g class="uuid-e1b2306c-2642-42f6-a9ce-709ed0a2984f">
          <g>
            <path class="uuid-9893f0ee-510c-45fd-a4d8-b9785f563aba" d="m184.86,164.97s20.97-27.38,68.16-27.51c51.57-.14,79.22,28.15,79.22,28.15,8.45-5.6,27.77-15.48,27.77-15.48"/>
            <line class="uuid-9893f0ee-510c-45fd-a4d8-b9785f563aba" x1="332.24" y1="165.62" x2="330.2" y2="176.16"/>
          </g>
        </g>
        <path class="uuid-9893f0ee-510c-45fd-a4d8-b9785f563aba" d="m187.08,173.64l-1.95-7.59c-.18-.71-.1-1.46.24-2.11,2.02-3.91,10.25-18.26,28.21-31.73,0,0,23.2-20.5,68.77-17.54,40.38,2.63,70.17,28.44,76.43,34.29.77.71,1.1,1.77.89,2.8l-1.27,6.15c-.18.88-.75,1.64-1.55,2.05-4.05,2.11-16.93,8.97-24.55,14.58-1.2.88-2.85.75-3.89-.31-6.9-7.06-33.64-30.87-78.7-28.82-48.78,2.23-62.63,28.23-62.63,28.23h0Z"/>
      </g>
      <g>
        <path class="uuid-06eeed9c-1b94-499d-b4e4-85c4a9a2e8d8" d="m393.75,182.6l1.89.33c1.67.29,3.23.98,4.57,2.02,5.28,4.08,18.96,14.87,19.85,17.97,1.11,3.84.61,9.81.61,9.81,0,0-14.8,20.22-33.94,24-19.15,3.78-95.09,20.88-194.19,14-25.46-1.77-33.57-7.97-33.57-7.97,0,0-.67-6.72-.88-9.01-.2-2.29,8.63-7.28,8.63-7.28,0,0-.09-3.54-.15-7.07-.05-3.11,1.62-5.99,4.35-7.48l5.11-2.8s-.67,6.19-.69,9.6c0,0,28.24,2.76,62.76,1.42,34.52-1.35,57.44-3.1,64.58-3.37,7.15-.27,19.89,8.39,19.89,8.39,0,0,41.19-6.91,55.21-14.46,14.02-7.55,15.95-28.08,15.95-28.08h0Z"/>
        <g class="uuid-6e347452-2c9f-44fc-bb61-9f3116dded26">
          <g>
            <path class="uuid-9893f0ee-510c-45fd-a4d8-b9785f563aba" d="m158.09,233.74c.88,9.01,49.4,12.98,100.52,11.46,72.08-2.15,125.26-14.09,130.42-16.11,5.16-2.02,21.67-12.4,31.04-26.17"/>
            <line class="uuid-9893f0ee-510c-45fd-a4d8-b9785f563aba" x1="389.02" y1="229.09" x2="389.71" y2="236"/>
            <path class="uuid-9893f0ee-510c-45fd-a4d8-b9785f563aba" d="m166.72,226.46l.24,7.42s9,7.15,85.04,5.93c25.97-.41,51.15-2.46,73.03-6.22,42.18-7.25,67.12-10.07,74.4-40.81"/>
            <path class="uuid-9893f0ee-510c-45fd-a4d8-b9785f563aba" d="m175.35,218.7c-4.55-.44-3.26-3.24-3.26-3.24"/>
          </g>
        </g>
        <path class="uuid-9893f0ee-510c-45fd-a4d8-b9785f563aba" d="m393.75,182.6l1.89.33c1.67.29,3.23.98,4.57,2.02,5.28,4.08,18.96,14.87,19.85,17.97,1.11,3.84.61,9.81.61,9.81,0,0-14.8,20.22-33.94,24-19.15,3.78-95.09,20.88-194.19,14-25.46-1.77-33.57-7.97-33.57-7.97,0,0-.67-6.72-.88-9.01-.2-2.29,8.63-7.28,8.63-7.28,0,0-.09-3.54-.15-7.07-.05-3.11,1.62-5.99,4.35-7.48l5.11-2.8s-.67,6.19-.69,9.6c0,0,28.24,2.76,62.76,1.42,34.52-1.35,57.44-3.1,64.58-3.37,7.15-.27,19.89,8.39,19.89,8.39,0,0,41.19-6.91,55.21-14.46,14.02-7.55,15.95-28.08,15.95-28.08h0Z"/>
      </g>
      <g>
        <path class="uuid-8af33ffd-5ea3-4c1a-a33a-b7058055e1aa" d="m379.46,212.59c-1.27.62-9.71,4.59-11.04,4.93-10.68,2.77-22.72-3.19-28.34-14.7-5.53-11.32-3.01-24.24,5.4-31.06,1.2-.97,9.66-5.31,11.09-6.01,6.51,13.31,17.78,36.38,22.89,46.83h0Z"/>
        <ellipse class="uuid-18ee91d4-7e36-4f0f-bd5d-6a780953022f" cx="368.02" cy="189.18" rx="23.15" ry="26.06" transform="translate(-45.69 180.81) rotate(-26.05)"/>
        <ellipse class="uuid-18ee91d4-7e36-4f0f-bd5d-6a780953022f" cx="368.02" cy="189.18" rx="16.01" ry="18.02" transform="translate(-45.69 180.81) rotate(-26.05)"/>
        <path class="uuid-8af33ffd-5ea3-4c1a-a33a-b7058055e1aa" d="m357.1,174.97c-5.59,4.77-7.23,13.53-3.46,21.23,3.76,7.7,11.68,11.79,18.88,10.31,5.59-4.77,7.23-13.53,3.47-21.23-3.76-7.7-11.68-11.79-18.88-10.31Z"/>
      </g>
    </g>
  </g>
</svg>