<?xml version="1.0" encoding="UTF-8"?>
<svg id="uuid-6c4522aa-4e25-44d2-a15c-76f681cefe84" data-name="BODY" xmlns="http://www.w3.org/2000/svg" xmlns:xlink="http://www.w3.org/1999/xlink" viewBox="0 0 600 600">
  <defs>
    <style>
      .uuid-2b92498d-816e-41c8-9e3c-ad53ce32494e, .uuid-011a44c9-398e-43ee-914f-7cec3c13010c, .uuid-05346001-3aed-4240-827f-551cbe763034 {
        fill: none;
      }

      .uuid-f42b52d0-44b2-4280-a8c4-28cfa1a9c837 {
        fill: #ffff0d;
      }

      .uuid-011a44c9-398e-43ee-914f-7cec3c13010c {
        stroke: #000;
        stroke-linecap: round;
        stroke-linejoin: round;
        stroke-width: 2px;
      }

      .uuid-05346001-3aed-4240-827f-551cbe763034 {
        clip-path: url(#uuid-9fbb2d78-1a9a-4823-9f86-a454878c7fae);
      }
    </style>
    <clipPath id="uuid-9fbb2d78-1a9a-4823-9f86-a454878c7fae">
      <path class="uuid-2b92498d-816e-41c8-9e3c-ad53ce32494e" d="m386.7,192.41s27.51,19.45,42.38,58.19l.33.87s-8.72-46.66-40.07-68.7c0,0,2.69-25.22-10.31-33.98,4.55,14.09,0,25.21,0,25.21,0,0-3.24-26.83-31.69-30.47-18.47-13.35-41.93-12.4-41.93-12.4l7.42,3.51s-37.62-8.36-75.91,3.24l18.88,1.89s-41.6-.88-62.43,28.25c-25.69,13.35-25.69,40.25-25.69,40.25,0,0,9.71-9.4,19.82-11.22-23.06,19.62-22.25,30.84-22.25,30.84l8.6-8.19s-14.66,23.16-15.67,24.57-19.72,9.71-31.04,2.83c1.62,6.88,12.03,11.93,12.03,11.93,0,0-18.91,3.24-26.09-9.81-2.22,5.56-.51,12.24-.51,12.24,0,0-5.11,10.52-.63,22.35,4.48,11.83,16.81,13.65,20.76,13.55,0,0-19.92,16.38-39.14-.51,1.82,16.69,19.52,20.93,19.52,20.93,0,0,14.56,23.36,43.08,3.64-8.9,16.58-4.65,32.87-4.65,32.87,0,0,7.18-11.93,15.27-15.07-6.98,12.13-3.44,34.18-3.44,34.18,0,0,19.72-33.47,37.31-43.58,17.6-10.11,62.29-26.7,72.4-44.7,10.11-18,1.48-29.33,1.48-29.33,0,0,.74-5.19,5.19-6.13,4.45-.94,20.56.61,29.19-15.37,8.7,2.7,20.49-7.96,20.49-7.96,0,0,19.48,2.63,28.58-14.63,17.73,3.17,28.72-19.28,28.72-19.28h0Z"/>
    </clipPath>
  </defs>
  <g id="uuid-17868e73-60c8-4dcc-9003-da03b46bd620" data-name="uuid-27860d2a-070b-4b63-8098-32431e2aaf27">
    <g id="uuid-90c3a2cd-60cb-464b-833e-bfac443a08b9" data-name="uuid-34e0344d-9167-4332-8a66-86b9dfedfcdd">
      <g>
        <path class="uuid-f42b52d0-44b2-4280-a8c4-28cfa1a9c837" d="m386.7,192.41s27.51,19.45,42.38,58.19l.33.87s-8.72-46.66-40.07-68.7c0,0,2.69-25.22-10.31-33.98,4.55,14.09,0,25.21,0,25.21,0,0-3.24-26.83-31.69-30.47-18.47-13.35-41.93-12.4-41.93-12.4l7.42,3.51s-37.62-8.36-75.91,3.24l18.88,1.89s-41.6-.88-62.43,28.25c-25.69,13.35-25.69,40.25-25.69,40.25,0,0,9.71-9.4,19.82-11.22-23.06,19.62-22.25,30.84-22.25,30.84l8.6-8.19s-14.66,23.16-15.67,24.57-19.72,9.71-31.04,2.83c1.62,6.88,12.03,11.93,12.03,11.93,0,0-18.91,3.24-26.09-9.81-2.22,5.56-.51,12.24-.51,12.24,0,0-5.11,10.52-.63,22.35,4.48,11.83,16.81,13.65,20.76,13.55,0,0-19.92,16.38-39.14-.51,1.82,16.69,19.52,20.93,19.52,20.93,0,0,14.56,23.36,43.08,3.64-8.9,16.58-4.65,32.87-4.65,32.87,0,0,7.18-11.93,15.27-15.07-6.98,12.13-3.44,34.18-3.44,34.18,0,0,19.72-33.47,37.31-43.58,17.6-10.11,62.29-26.7,72.4-44.7,10.11-18,1.48-29.33,1.48-29.33,0,0,.74-5.19,5.19-6.13,4.45-.94,20.56.61,29.19-15.37,8.7,2.7,20.49-7.96,20.49-7.96,0,0,19.48,2.63,28.58-14.63,17.73,3.17,28.72-19.28,28.72-19.28h0Z"/>
        <g class="uuid-05346001-3aed-4240-827f-551cbe763034">
          <g>
            <path class="uuid-011a44c9-398e-43ee-914f-7cec3c13010c" d="m113.06,317.77c13.94,4.85,37.73-16.22,37.73-16.22"/>
            <path class="uuid-011a44c9-398e-43ee-914f-7cec3c13010c" d="m132.68,297.34c9.06.05,18.11-14.22,18.11-14.22"/>
            <path class="uuid-011a44c9-398e-43ee-914f-7cec3c13010c" d="m112.55,261.45c2.69,10.58,15.29,14.63,15.29,14.63"/>
            <path class="uuid-011a44c9-398e-43ee-914f-7cec3c13010c" d="m111.02,265.99c.46,7.73,7.52,13.94,10.05,14.97"/>
            <path class="uuid-011a44c9-398e-43ee-914f-7cec3c13010c" d="m158.16,244.25c-4.55,6.9-10.85,33.89-23.45,32.95"/>
            <path class="uuid-011a44c9-398e-43ee-914f-7cec3c13010c" d="m173.83,219.68c10.52-10.27,27.45-17.14,27.45-17.14,0,0-22.38,8.18-29.43,36.67,13.45-15.14,31.41-15.42,31.41-15.42"/>
            <path class="uuid-011a44c9-398e-43ee-914f-7cec3c13010c" d="m248.66,240.41s-26.6-21.64-56.53,4.92c5.93-26.56,27.24-32.9,38.83-32.22-6.88-8.63-20.22-3.64-20.22-3.64"/>
            <path class="uuid-011a44c9-398e-43ee-914f-7cec3c13010c" d="m199.39,228.56c-23.43,14.16-43.05,46.31-43.05,46.31"/>
            <path class="uuid-011a44c9-398e-43ee-914f-7cec3c13010c" d="m163.66,287.87c25.18-22.93,35.1-38.92,55.55-48.66"/>
            <path class="uuid-011a44c9-398e-43ee-914f-7cec3c13010c" d="m236,244.25c-13.24,20.1-40.9,39.95-40.9,39.95"/>
            <path class="uuid-011a44c9-398e-43ee-914f-7cec3c13010c" d="m179.98,295.79c-11.46,8.39-22.27,22.4-23.84,25.62"/>
            <path class="uuid-011a44c9-398e-43ee-914f-7cec3c13010c" d="m166.75,339.21c8.38-16.47,23.5-29.95,43.48-42.59s40.3-29.67,40.19-47.63"/>
            <path class="uuid-011a44c9-398e-43ee-914f-7cec3c13010c" d="m262,242.01c14.77-2.25,16.31-18.56,3.78-28.48s-47.28-17.14-47.28-17.14c0,0,27.78-21.38,58.39,6.16"/>
            <path class="uuid-011a44c9-398e-43ee-914f-7cec3c13010c" d="m253.47,189.62c-18.89-7.06-32.48-4.1-32.48-4.1,0,0,23.76-20.8,58.51-3.9,34.75,16.9,33.04,45.28,29.41,52.66"/>
            <path class="uuid-011a44c9-398e-43ee-914f-7cec3c13010c" d="m329.39,226.32c11.09-10.2,9.67-41.63,3.76-55.94-5.91-14.31-19.97-28.72-57.32-23.76"/>
            <path class="uuid-011a44c9-398e-43ee-914f-7cec3c13010c" d="m275.83,179.95c-19.86-22.69-45.74-24.34-45.74-24.34,0,0,52.39-33.34,90.28,22.99"/>
            <path class="uuid-011a44c9-398e-43ee-914f-7cec3c13010c" d="m255.78,139.76c6.63.97,15.78,6.35,15.78,6.35"/>
            <path class="uuid-011a44c9-398e-43ee-914f-7cec3c13010c" d="m312.81,134.64c11.43,3.53,19.45,12.74,19.45,12.74,0,0-12.54-5.37-25.51-6.37,8.38,4.75,10.28,10.69,10.28,10.69"/>
            <path class="uuid-011a44c9-398e-43ee-914f-7cec3c13010c" d="m347.33,143.53c24.93,22.6,21.3,47.71,10.65,68.16"/>
            <path class="uuid-011a44c9-398e-43ee-914f-7cec3c13010c" d="m379.01,174.01c1.15,6.21-.58,11.97-.58,11.97"/>
            <path class="uuid-011a44c9-398e-43ee-914f-7cec3c13010c" d="m386.7,192.41c2.03-4.82,2.63-9.64,2.63-9.64"/>
            <path class="uuid-011a44c9-398e-43ee-914f-7cec3c13010c" d="m274.52,255.78c-2.42,6.08-5.31,14.88-14.5,21.93"/>
            <path class="uuid-011a44c9-398e-43ee-914f-7cec3c13010c" d="m187.48,197.03c9.28-8.04,21.34-11.71,21.34-11.71"/>
            <path class="uuid-011a44c9-398e-43ee-914f-7cec3c13010c" d="m193.35,168.01c7.39-3.72,15.47-6.51,15.47-6.51"/>
            <path class="uuid-011a44c9-398e-43ee-914f-7cec3c13010c" d="m139.15,259.02c4.32-.81,5.87-2.2,5.87-2.2"/>
          </g>
        </g>
        <path class="uuid-011a44c9-398e-43ee-914f-7cec3c13010c" d="m386.7,192.41s27.51,19.45,42.38,58.19l.33.87s-8.72-46.66-40.07-68.7c0,0,2.69-25.22-10.31-33.98,4.55,14.09,0,25.21,0,25.21,0,0-3.24-26.83-31.69-30.47-18.47-13.35-41.93-12.4-41.93-12.4l7.42,3.51s-37.62-8.36-75.91,3.24l18.88,1.89s-41.6-.88-62.43,28.25c-25.69,13.35-25.69,40.25-25.69,40.25,0,0,9.71-9.4,19.82-11.22-23.06,19.62-22.25,30.84-22.25,30.84l8.6-8.19s-14.66,23.16-15.67,24.57-19.72,9.71-31.04,2.83c1.62,6.88,12.03,11.93,12.03,11.93,0,0-18.91,3.24-26.09-9.81-2.22,5.56-.51,12.24-.51,12.24,0,0-5.11,10.52-.63,22.35,4.48,11.83,16.81,13.65,20.76,13.55,0,0-19.92,16.38-39.14-.51,1.82,16.69,19.52,20.93,19.52,20.93,0,0,14.56,23.36,43.08,3.64-8.9,16.58-4.65,32.87-4.65,32.87,0,0,7.18-11.93,15.27-15.07-6.98,12.13-3.44,34.18-3.44,34.18,0,0,19.72-33.47,37.31-43.58,17.6-10.11,62.29-26.7,72.4-44.7,10.11-18,1.48-29.33,1.48-29.33,0,0,.74-5.19,5.19-6.13,4.45-.94,20.56.61,29.19-15.37,8.7,2.7,20.49-7.96,20.49-7.96,0,0,19.48,2.63,28.58-14.63,17.73,3.17,28.72-19.28,28.72-19.28h0Z"/>
      </g>
    </g>
  </g>
</svg>