<?xml version="1.0" encoding="UTF-8"?>
<svg id="uuid-9f11f70b-d87e-465d-95e5-5fcb8506a057" data-name="BODY" xmlns="http://www.w3.org/2000/svg" viewBox="0 0 600 600">
  <defs>
    <style>
      .uuid-4f36f437-1ed5-400d-aa5a-f257f4ff4af5 {
        fill: #ffff0d;
      }

      .uuid-4f36f437-1ed5-400d-aa5a-f257f4ff4af5, .uuid-22593ec9-b10a-4e92-9978-994a8e1bfa25, .uuid-870a6478-9cb7-47ff-972e-589545ccc99e {
        stroke: #000;
        stroke-miterlimit: 10;
        stroke-width: 2px;
      }

      .uuid-22593ec9-b10a-4e92-9978-994a8e1bfa25 {
        fill: #a07bff;
      }

      .uuid-870a6478-9cb7-47ff-972e-589545ccc99e {
        fill: #8400ff;
      }
    </style>
  </defs>
  <g id="uuid-d81d1885-5cfa-4812-820a-d3701e7b0358" data-name="hat 1">
    <path class="uuid-870a6478-9cb7-47ff-972e-589545ccc99e" d="m395.86,171.74c6.97,23.13-43.13,58.68-111.9,79.41-68.78,20.73-130.18,18.78-137.15-4.35-2.25-7.46-5.49-13.63,2.83-22.76,17.51-19.18,62.47-42.6,109.07-56.65,49.9-15.04,100.14-22.8,124.31-14.54,9.14,3.13,10.93,12.54,12.85,18.89Z"/>
    <ellipse class="uuid-22593ec9-b10a-4e92-9978-994a8e1bfa25" cx="268.62" cy="201.59" rx="130.06" ry="43.74" transform="translate(-46.74 86.08) rotate(-16.77)"/>
    <path class="uuid-870a6478-9cb7-47ff-972e-589545ccc99e" d="m177.29,158.53l18.9,62.69c3.36,11.16,38.25,10.51,77.91-1.45,39.67-11.95,69.1-30.69,65.74-41.84l-18.9-62.69-143.65,43.29Z"/>
    <ellipse class="uuid-22593ec9-b10a-4e92-9978-994a8e1bfa25" cx="249.12" cy="136.89" rx="75.01" ry="21.1" transform="translate(-28.9 77.7) rotate(-16.77)"/>
    <path class="uuid-4f36f437-1ed5-400d-aa5a-f257f4ff4af5" d="m331.8,151.01c3.36,11.16-26.07,29.89-65.74,41.84-39.67,11.95-74.55,12.6-77.91,1.45l3.41,11.55c3.36,11.16,38.25,10.51,77.91-1.45,39.67-11.95,69.1-30.69,65.74-41.84l-3.41-11.55Z"/>
  </g>
</svg>