<?xml version="1.0" encoding="UTF-8"?>
<svg id="uuid-b435763a-c472-44da-a67a-e9e837fe0ccc" data-name="BODY" xmlns="http://www.w3.org/2000/svg" viewBox="0 0 600 600">
  <defs>
    <style>
      .uuid-4a0441b6-000c-4e7a-abf1-7c702da6f88d {
        fill: #7aa6ff;
      }

      .uuid-4a0441b6-000c-4e7a-abf1-7c702da6f88d, .uuid-c6cdb512-b792-458d-9ced-5ea59dfaeca5, .uuid-6d94cb51-a65b-4f8c-a1b1-406de2803bfa, .uuid-ae63226a-9b36-45a3-82d1-fbc4c564cf5c {
        stroke: #000;
        stroke-linecap: round;
        stroke-linejoin: round;
      }

      .uuid-4a0441b6-000c-4e7a-abf1-7c702da6f88d, .uuid-6d94cb51-a65b-4f8c-a1b1-406de2803bfa, .uuid-ae63226a-9b36-45a3-82d1-fbc4c564cf5c {
        stroke-width: 2px;
      }

      .uuid-aa825ba1-e97a-4699-b196-07d41c01d80a {
        fill: #3ef1ff;
      }

      .uuid-c6cdb512-b792-458d-9ced-5ea59dfaeca5 {
        stroke-width: 2px;
      }

      .uuid-c6cdb512-b792-458d-9ced-5ea59dfaeca5, .uuid-6d94cb51-a65b-4f8c-a1b1-406de2803bfa {
        fill: #fff7f0;
      }

      .uuid-ae63226a-9b36-45a3-82d1-fbc4c564cf5c {
        fill: none;
      }
    </style>
  </defs>
  <g id="uuid-d21cdb81-6d30-4aee-95e2-0cd1953e30cb" data-name="uuid-0ddaaa68-545c-4eb2-a737-12a968a2ee61">
    <g id="uuid-6584a94e-1531-4cce-8f9d-343e3ee22826" data-name="uuid-0f5b18c2-d5c6-4aaa-8f08-473e1121eb23">
      <g id="uuid-0d2b73fa-9296-464b-8ccd-8fb51db96085" data-name="uuid-bf236e71-ae9d-44b4-a6ab-50816829c233">
        <path class="uuid-6d94cb51-a65b-4f8c-a1b1-406de2803bfa" d="m144.15,313.8c-.28-3.84-.43-7.72-.43-11.63,0-86.31,69.97-156.28,156.28-156.28,74.78,0,137.3,52.53,152.66,122.7-32.23,51.24-213.13,84.28-308.51,45.21h0Z"/>
        <path class="uuid-6d94cb51-a65b-4f8c-a1b1-406de2803bfa" d="m143.99,310.94c-9.53-4.06-13.98,9.29-1.3,14.86,12.68,5.57,83.63,25.81,187.61,8.37,80.49-13.5,118.49-44.98,126.94-54.88,8.45-9.9-1.85-16.86-5.17-13.23s-33.72,42.11-135.39,56.99c-105.24,15.4-165.43-9.02-172.7-12.11h0Z"/>
        <path class="uuid-4a0441b6-000c-4e7a-abf1-7c702da6f88d" d="m143.72,300s13.04,5.13,29.37,9.21v-15.26s-16.89-3.19-28.48-8.56c0,0-.54,5.84-.89,14.61Z"/>
        <polygon class="uuid-4a0441b6-000c-4e7a-abf1-7c702da6f88d" points="180.37 310.76 180.27 295.65 189.34 297.3 189.82 312.95 180.37 310.76"/>
        <g>
          <path class="uuid-6d94cb51-a65b-4f8c-a1b1-406de2803bfa" d="m247.79,316.97c-2.24-.97-4.61-1.19-6.84-.76-3.67.7-14.16,5.28-15.76,8.97-2.57,5.92,7.37,10.68,13.29,13.25l18.96,14.57,7.65-3.02,9.31-21.46-26.61-11.55h0Z"/>
          <rect class="uuid-c6cdb512-b792-458d-9ced-5ea59dfaeca5" x="237.1" y="321.98" width="23.39" height="29" transform="translate(-158.93 430.74) rotate(-66.54)"/>
          <circle class="uuid-4a0441b6-000c-4e7a-abf1-7c702da6f88d" cx="235.49" cy="330.71" r="11.69"/>
          <circle class="uuid-6d94cb51-a65b-4f8c-a1b1-406de2803bfa" cx="235.49" cy="330.71" r="6.32"/>
          <line class="uuid-ae63226a-9b36-45a3-82d1-fbc4c564cf5c" x1="266.75" y1="331.53" x2="274.4" y2="328.51"/>
        </g>
        <g>
          <path class="uuid-4a0441b6-000c-4e7a-abf1-7c702da6f88d" d="m196.05,231.32s22.08-30.4,74.49-54.02c52.41-23.62,110.53-11.95,110.53-11.95,0,0,21.58,9.91,44.53,37.62,12.56,15.17,22.27,39.78,22.27,39.78,0,0-15.89,36.62-87.54,61.53-71.65,24.91-153.37-9.48-165.47-18.89,0,0,14.75-7.61,13.01-27.92-1.74-20.32-11.82-26.15-11.82-26.15Z"/>
          <g>
            <path class="uuid-aa825ba1-e97a-4699-b196-07d41c01d80a" d="m270.45,186.45c-7.13,2.28-12.08,5.9-12.08,5.9,0,0,1.2,60.27,20.88,108.62,17.33,3.21,36.8.86,36.8.86,0,0-14.89-20.19-28.84-57.27-13.95-37.08-16.77-58.1-16.77-58.1h0Z"/>
            <path class="uuid-aa825ba1-e97a-4699-b196-07d41c01d80a" d="m320.88,172.05s6.01-1.06,9.19-1.06c38.43,41.61,75.68,101.61,75.68,101.61,0,0-31.59,18.62-57.52,23.93,5.89-20.28,7.43-51.51-2.24-76.86-9.67-25.34-25.11-47.62-25.11-47.62Z"/>
            <path class="uuid-aa825ba1-e97a-4699-b196-07d41c01d80a" d="m358.09,169.61c-.26-.22,19.02,1.38,19.02,1.38,0,0,21.01,13.35,35.63,29.48,14.63,16.13,26.76,43.39,26.76,43.39,0,0-6.25,9.75-15.5,16-12.13-32.26-53.54-79.96-65.91-90.24h0Z"/>
          </g>
          <path class="uuid-6d94cb51-a65b-4f8c-a1b1-406de2803bfa" d="m199.82,234.55s23.32-32.08,73.44-54.35c50.12-22.26,115.28-10.61,115.28-10.61,0,0,.28-2.62-6.05-7.12-6.33-4.5-65.2-10.41-111.76,9.97-51.18,22.4-77.67,56.34-77.67,56.34l6.76,5.78h0Z"/>
          <path class="uuid-6d94cb51-a65b-4f8c-a1b1-406de2803bfa" d="m197.61,282.24c44.05,20.53,96.81,34.96,143.03,23.61,32.29-7.93,79.02-28.25,105.89-66.29,0,0,7.43-2.28,6.4,5.15-1.03,7.43-35.45,51.12-109.89,68.47-74.44,17.35-144.78-20.23-153.23-26.72l7.79-4.2h0Z"/>
        </g>
        <g>
          <path class="uuid-6d94cb51-a65b-4f8c-a1b1-406de2803bfa" d="m178.8,283.48l7.38,3.84c2.87,1.49,6.26,1.61,9.22.31,6.25-2.74,15.51-10.14,15.51-29.95s-8.62-26.95-14.84-30.1c-3.27-1.66-7.16-1.54-10.31.32l-6.53,3.86-.43,51.72h0Z"/>
          <ellipse class="uuid-4a0441b6-000c-4e7a-abf1-7c702da6f88d" cx="182.75" cy="257.68" rx="19.2" ry="26.36"/>
          <ellipse class="uuid-6d94cb51-a65b-4f8c-a1b1-406de2803bfa" cx="182.75" cy="257.68" rx="12.45" ry="18.3"/>
        </g>
      </g>
    </g>
  </g>
</svg>