<?xml version="1.0" encoding="UTF-8"?>
<svg id="uuid-6baf65f3-8e8a-4b52-acd0-d47165f5c27b" data-name="BODY" xmlns="http://www.w3.org/2000/svg" xmlns:xlink="http://www.w3.org/1999/xlink" viewBox="0 0 600 600">
  <defs>
    <style>
      .uuid-7f49287a-a540-4794-aa63-c97b5d2ab6f7, .uuid-215f9163-b79e-400c-9f5e-70cd601a5f2d, .uuid-60512b45-151d-47b5-b663-7ef11d87c314 {
        fill: none;
      }

      .uuid-215f9163-b79e-400c-9f5e-70cd601a5f2d {
        clip-path: url(#uuid-177adf72-86c9-4505-bc09-260ff8fa2dd4);
      }

      .uuid-a0c28c66-ba5e-4a5c-ba7d-0726cd935faa {
        fill: #7aa6ff;
        stroke-width: 2px;
      }

      .uuid-a0c28c66-ba5e-4a5c-ba7d-0726cd935faa, .uuid-a4759129-cf6e-42b8-8c6a-d260d7d072fb, .uuid-d113b98a-f2c8-4ccc-8db6-bb181363ceae, .uuid-60512b45-151d-47b5-b663-7ef11d87c314 {
        stroke: #000;
        stroke-linecap: round;
        stroke-linejoin: round;
      }

      .uuid-a4759129-cf6e-42b8-8c6a-d260d7d072fb {
        fill: #ffff0d;
      }

      .uuid-a4759129-cf6e-42b8-8c6a-d260d7d072fb, .uuid-d113b98a-f2c8-4ccc-8db6-bb181363ceae, .uuid-60512b45-151d-47b5-b663-7ef11d87c314 {
        stroke-width: 2px;
      }

      .uuid-d113b98a-f2c8-4ccc-8db6-bb181363ceae {
        fill: #fff;
      }
    </style>
    <clipPath id="uuid-177adf72-86c9-4505-bc09-260ff8fa2dd4">
      <rect class="uuid-7f49287a-a540-4794-aa63-c97b5d2ab6f7" x="622" y="0" width="356.77" height="259.02"/>
    </clipPath>
  </defs>
  <g id="uuid-9d051025-b789-4f75-bc8b-578d85fa800e" data-name="uuid-d8bf4a7d-ed85-4a3e-a407-7d1570284e6b">
    <g id="uuid-ddc437d9-0a08-4ef9-8169-97478e6ae990" data-name="uuid-1dd71221-1f4e-4737-8065-faffc7160480">
      <g>
        <ellipse class="uuid-a0c28c66-ba5e-4a5c-ba7d-0726cd935faa" cx="266.94" cy="203.15" rx="30.35" ry="11.13" transform="translate(-52.75 101.53) rotate(-19.64)"/>
        <ellipse class="uuid-a0c28c66-ba5e-4a5c-ba7d-0726cd935faa" cx="264.79" cy="197.11" rx="30.35" ry="11.13" transform="translate(-50.84 100.45) rotate(-19.64)"/>
        <ellipse class="uuid-a0c28c66-ba5e-4a5c-ba7d-0726cd935faa" cx="262.63" cy="191.07" rx="30.35" ry="11.13" transform="translate(-48.94 99.38) rotate(-19.64)"/>
        <ellipse class="uuid-a0c28c66-ba5e-4a5c-ba7d-0726cd935faa" cx="260.47" cy="185.02" rx="30.35" ry="11.13" transform="translate(-47.03 98.3) rotate(-19.64)"/>
      </g>
      <g>
        <path class="uuid-d113b98a-f2c8-4ccc-8db6-bb181363ceae" d="m330.41,99.76l-62.82,22.42c-2.6.93-5.39-.74-5.83-3.47-1.29-8.1-2.08-23.59,8.68-30.57,18.38-11.91,27.66,4.66,27.66,4.66,0,0,4.36-8.28,13.29-9.59,11.98-1.75,18.34,5.15,21.32,10.16,1.41,2.38.3,5.46-2.31,6.39h0Z"/>
        <path class="uuid-d113b98a-f2c8-4ccc-8db6-bb181363ceae" d="m298.11,92.8c2.54,4.8.55,8.27.55,8.27"/>
      </g>
      <g>
        <path class="uuid-a4759129-cf6e-42b8-8c6a-d260d7d072fb" d="m282.6,119.07c-8.17-22.91-33.78-34.59-56.57-25.44-20.44,8.2-31.46,30.96-25.19,52.08,3.36,11.33,10.89,20.15,20.34,25.4,6.82,3.79,11.92,10.06,14.54,17.4l1.72,4.83s1.55,4.35,24.6-3.88c23.05-8.22,21.5-12.57,21.5-12.57l-1.73-4.83c-2.63-7.38-2.6-15.48.28-22.77,3.69-9.34,4.14-20.01.5-30.21h0Z"/>
        <g>
          <path class="uuid-d113b98a-f2c8-4ccc-8db6-bb181363ceae" d="m249.28,153.66c-1.16.41-2.54.87-4.06,1.31,2.91,6.34,6.15,15,10.37,26.82.46,1.3-.21,2.73-1.51,3.19s-2.73-.21-3.19-1.51c-4.37-12.24-7.7-21.09-10.62-27.31-4.18.78-8.65,1.01-12.11-.31-4.08-1.56-7.33-4.89-8.47-8.69-.77-2.57-.47-5.08.84-6.89,1.23-1.7,3.19-2.74,5.52-2.93,3.76-.29,7.87,1.61,11.59,5.36,1.83,1.85,3.56,4.34,5.36,7.71,1.49-.4,3.03-.89,4.63-1.45m-22.07-6.45c-.42.15-.75.38-.96.68-.38.53-.42,1.48-.11,2.53.55,1.84,2.28,4.25,5.46,5.46,1.86.71,4.61.8,7.94.32-1.29-2.26-2.54-3.99-3.8-5.27-3.73-3.76-6.59-3.98-7.64-3.89-.33.03-.62.09-.89.18h0Z"/>
          <path class="uuid-d113b98a-f2c8-4ccc-8db6-bb181363ceae" d="m237.86,151.48s3.08-.49,5.11-1.08"/>
          <path class="uuid-d113b98a-f2c8-4ccc-8db6-bb181363ceae" d="m240.26,156.15s2.72-.5,4.96-1.18"/>
          <path class="uuid-d113b98a-f2c8-4ccc-8db6-bb181363ceae" d="m247.6,148.95c1.59-.57,3.1-1.17,4.5-1.8-.74-3.75-.98-6.77-.73-9.36.5-5.26,2.48-9.34,5.57-11.49,1.92-1.34,4.1-1.77,6.12-1.23,2.15.58,3.98,2.33,5.01,4.8,1.53,3.67,1.12,8.3-1.05,12.09-1.85,3.22-5.45,5.87-9.18,7.91,1.68,6.67,4.7,15.63,9.07,27.87.46,1.3-.21,2.73-1.51,3.19-1.3.46-2.73-.21-3.19-1.51-4.22-11.82-7.18-20.57-8.95-27.33-1.45.62-2.81,1.15-3.97,1.56m10.52-23.25c-.87.6-2.95,2.58-3.45,7.85-.17,1.78-.04,3.91.39,6.48,2.88-1.73,4.96-3.55,5.94-5.27,1.7-2.95,1.51-5.91.77-7.68-.42-1.01-1.05-1.72-1.68-1.89-.36-.1-.76-.07-1.18.08-.26.09-.53.24-.8.42h0Z"/>
          <path class="uuid-d113b98a-f2c8-4ccc-8db6-bb181363ceae" d="m256.74,144.74s-2.7,1.57-4.64,2.4"/>
          <path class="uuid-d113b98a-f2c8-4ccc-8db6-bb181363ceae" d="m257.84,149.87s-2.42,1.34-4.59,2.22"/>
        </g>
      </g>
      <g>
        <path class="uuid-d113b98a-f2c8-4ccc-8db6-bb181363ceae" d="m159.12,183.16l62.82-22.42c2.6-.93,3.7-3.99,2.31-6.37-4.14-7.09-13.32-19.58-26.07-18.17-21.77,2.41-18.46,21.12-18.46,21.12,0,0-8.62-3.65-16.35.99-10.38,6.23-10.94,15.6-10.07,21.36.41,2.74,3.22,4.42,5.83,3.49h0Z"/>
        <path class="uuid-d113b98a-f2c8-4ccc-8db6-bb181363ceae" d="m179.72,157.33c1.07,5.32,4.81,6.75,4.81,6.75"/>
      </g>
      <g>
        <path class="uuid-d113b98a-f2c8-4ccc-8db6-bb181363ceae" d="m187.72,100.34l51.25-18.29c2.12-.76,2.98-3.38,1.79-5.47-3.52-6.2-11.29-17.15-21.74-16.15-17.85,1.71-14.81,17.93-14.81,17.93,0,0-7.15-3.3-13.42.57-8.43,5.2-8.72,13.3-7.91,18.28.39,2.37,2.72,3.87,4.85,3.11h0Z"/>
        <path class="uuid-d113b98a-f2c8-4ccc-8db6-bb181363ceae" d="m204.2,78.36c.97,4.61,4.07,5.92,4.07,5.92"/>
      </g>
      <path class="uuid-60512b45-151d-47b5-b663-7ef11d87c314" d="m153.9,136.08s14.12-8.54,20.74-2.46c-2.05-8.89,4.05-12.3,4.05-12.3"/>
      <path class="uuid-60512b45-151d-47b5-b663-7ef11d87c314" d="m266.41,57.89s-11.26,2.17-11.04,10.9c-3.89-8.07-8.6-6.92-8.6-6.92"/>
      <path class="uuid-60512b45-151d-47b5-b663-7ef11d87c314" d="m294.53,68.95s-7.36-1.3-9.28,4.95c-.47-6.71-3.61-7.08-3.61-7.08"/>
    </g>
  </g>
  <g id="uuid-804307b7-db78-4636-baa2-8ffad0813639" data-name="uuid-e7813b6f-2e9c-4ced-a089-4ee6c80ec3de">
    <g id="uuid-5ab2b51a-23f4-4dde-9ff9-d346509ee8a3" data-name="uuid-a396a31d-4a55-404b-af28-89c8152d84a8">
      <g class="uuid-215f9163-b79e-400c-9f5e-70cd601a5f2d">
        <path class="uuid-a4759129-cf6e-42b8-8c6a-d260d7d072fb" d="m643.84-3.16h-47.46s16.55,65.86,104.09,137.39c42.59,34.8,80.9,50.61,123.9,98.29,0,0,4.35,5.26,26.05.81,0,0-11.34-27.93-32.91-47.67-21.57-19.74-59.06-42.39-92.22-73.14-33.17-30.74-60.94-72.81-81.44-115.69Z"/>
      </g>
    </g>
  </g>
</svg>