<?xml version="1.0" encoding="UTF-8"?>
<svg id="uuid-67e41f4c-36c3-49ce-876d-3390124057a3" data-name="BODY" xmlns="http://www.w3.org/2000/svg" xmlns:xlink="http://www.w3.org/1999/xlink" viewBox="0 0 600 600">
  <defs>
    <style>
      .uuid-7dd7bf61-6d36-4c90-8bca-8a8939419726, .uuid-03f61921-588e-401a-8859-1aea6c8c86e1 {
        fill: none;
      }

      .uuid-818f14bd-d9b9-46d3-889f-ff0d953431e9, .uuid-4642e101-095d-4a06-8469-3a4b2c2d06a5 {
        fill: #7aa6ff;
      }

      .uuid-818f14bd-d9b9-46d3-889f-ff0d953431e9, .uuid-00f46dd1-78ad-484f-a0bd-b17104dee9b2, .uuid-7f276784-90c0-46f6-837e-520faf803895, .uuid-fad4d35b-816c-4193-8077-af68689d46c9, .uuid-655dcc45-6458-48ae-b618-328cebfbc930, .uuid-7bb48eb4-9044-4b43-aeb6-2bf5ca479bc5 {
        stroke: #000;
        stroke-linecap: round;
        stroke-linejoin: round;
        stroke-width: 2px;
      }

      .uuid-7c1cdae1-e4f0-4cad-b5f9-ace75712cd04, .uuid-fad4d35b-816c-4193-8077-af68689d46c9 {
        fill: #ff78d8;
      }

      .uuid-159db930-0055-474e-bf7d-d2ef88a4f2e0, .uuid-00f46dd1-78ad-484f-a0bd-b17104dee9b2 {
        fill: #a07bff;
      }

      .uuid-7f276784-90c0-46f6-837e-520faf803895 {
        fill: #9dff0c;
      }

      .uuid-655dcc45-6458-48ae-b618-328cebfbc930 {
        fill: #ffff0d;
      }

      .uuid-7bb48eb4-9044-4b43-aeb6-2bf5ca479bc5 {
        fill: #f9a723;
      }

      .uuid-03f61921-588e-401a-8859-1aea6c8c86e1 {
        clip-path: url(#uuid-804ae3fb-e0b0-4cb0-9fc4-d5728bfc055a);
      }
    </style>
    <clipPath id="uuid-804ae3fb-e0b0-4cb0-9fc4-d5728bfc055a">
      <rect class="uuid-7dd7bf61-6d36-4c90-8bca-8a8939419726" y="0" width="356.77" height="259.02"/>
    </clipPath>
  </defs>
  <g id="uuid-e08b6436-3f6a-4c9f-9093-d1c930c9c3f3" data-name="uuid-e7813b6f-2e9c-4ced-a089-4ee6c80ec3de">
    <g id="uuid-e0381978-b832-459b-931d-8fd985a897cc" data-name="uuid-a396a31d-4a55-404b-af28-89c8152d84a8">
      <g class="uuid-03f61921-588e-401a-8859-1aea6c8c86e1">
        <g>
          <g>
            <path class="uuid-655dcc45-6458-48ae-b618-328cebfbc930" d="m21.84-3.16H-25.62S-9.06,62.7,78.47,134.23c42.59,34.8,80.9,50.61,123.9,98.29,0,0,4.35,5.26,26.05.81,0,0-11.34-27.93-32.91-47.67-21.57-19.74-59.06-42.39-92.22-73.14C70.11,81.78,42.34,39.71,21.84-3.16Z"/>
            <g>
              <path class="uuid-7c1cdae1-e4f0-4cad-b5f9-ace75712cd04" d="m41.06,80.14c-5.4-5.99-7.2-11.6-4.72-12.89,2.41-1.26,4.56-.2,11.44,7.82,6.14,7.16,7.54,9.84,6.47,11.42-1.71,2.51-6.01,1.61-13.18-6.34h0Z"/>
              <path class="uuid-7c1cdae1-e4f0-4cad-b5f9-ace75712cd04" d="m80.87,117.43c-5.16-4.71-7.06-9.26-4.91-10.43,2.1-1.15,4.08-.36,10.67,5.96,5.88,5.64,7.27,7.79,6.4,9.14-1.4,2.14-5.31,1.59-12.15-4.66h0Z"/>
              <path class="uuid-7c1cdae1-e4f0-4cad-b5f9-ace75712cd04" d="m174.49,181.97c5.64,4.12,8.02,8.43,6.02,9.83-1.96,1.37-4.02.8-11.25-4.76-6.46-4.97-8.08-6.96-7.35-8.39,1.16-2.28,5.1-2.15,12.59,3.31h0Z"/>
              <path class="uuid-7c1cdae1-e4f0-4cad-b5f9-ace75712cd04" d="m3.11,20.25C-3.95,7.19-5.68-3.54-.67-4.72c4.89-1.16,5.53,3.59,14.35,20.93,7.87,15.49,11.5,18.58,9.33,21.3-2.51,3.13-10.51.1-19.89-17.25h0Z"/>
            </g>
          </g>
          <g>
            <path class="uuid-7bb48eb4-9044-4b43-aeb6-2bf5ca479bc5" d="m15.64-5.05c15.91,41.86,49.22,90.81,92.9,128.25,41.09,35.21,88.36,54.1,116.95,110.68,0,0,18.65-3.48,26.12-5.61,0,0-3.79-28.65-36.96-60.2-33.17-31.55-57.66-44.67-87.89-73.03-30.23-28.36-57.27-61.26-68.69-101.71l-42.43,1.62Z"/>
            <g>
              <path class="uuid-7c1cdae1-e4f0-4cad-b5f9-ace75712cd04" d="m114.23,120.29c-3.9-3.44-5.07-7.85-3.49-8.75,1.55-.88,3.81-.78,8.79,3.85,4.45,4.13,4.55,6.1,4.11,7.19-.51,1.26-4.23,2.28-9.41-2.29h0Z"/>
              <path class="uuid-7c1cdae1-e4f0-4cad-b5f9-ace75712cd04" d="m47.93,39.58c-4.42-6.75-5.32-12.57-2.68-13.47,2.58-.88,4.54.51,10.1,9.49,4.97,8.02,5.93,10.89,4.63,12.28-2.07,2.22-6.19.66-12.05-8.3h0Z"/>
              <path class="uuid-7c1cdae1-e4f0-4cad-b5f9-ace75712cd04" d="m171.9,143.22c6.58,4.66,9.55,9.75,7.43,11.55-2.08,1.76-4.41,1.19-12.87-5.13-7.56-5.65-9.5-7.96-8.8-9.73,1.12-2.82,5.51-2.88,14.25,3.31h0Z"/>
              <path class="uuid-7c1cdae1-e4f0-4cad-b5f9-ace75712cd04" d="m225.15,197.3c3.83,5.6,5.27,10.21,3.12,11.14-2.1.91-3.83-.12-9.06-7.3-4.68-6.41-5.67-8.76-4.68-10.01,1.59-2.01,5.11-1.89,10.61,6.16h0Z"/>
            </g>
          </g>
          <g>
            <path class="uuid-fad4d35b-816c-4193-8077-af68689d46c9" d="m53.4-3.94c15.64,50.4,59.33,97.86,100.58,127.25,66.61,47.45,81.37,73.04,94.5,105.84,0,0,19-5.22,27.85-8.39,0,0-17.05-46.88-49-77.62-31.96-30.74-55.55-46.25-86.32-80.56C110.23,28.25,95.26-6.94,95.26-6.94l-41.87,3Z"/>
            <g>
              <path class="uuid-159db930-0055-474e-bf7d-d2ef88a4f2e0" d="m83.32,39.81c-6.53-9.39-8.73-17.34-4.92-18.53,3.72-1.16,4.59,2.37,12.83,14.86,7.36,11.16,10.43,13.26,8.95,15.43-1.71,2.5-8.19.7-16.86-11.76h0Z"/>
              <path class="uuid-159db930-0055-474e-bf7d-d2ef88a4f2e0" d="m191.72,121.17c8.84,7.26,15.51,14,12.16,16.18-3.27,2.13-6.01-.24-17.33-10.02-10.11-8.74-12.7-10.72-11.86-13.21.96-2.87,5.29-2.59,17.03,7.05h0Z"/>
              <path class="uuid-159db930-0055-474e-bf7d-d2ef88a4f2e0" d="m164.23,98.18c4.06,3.25,5.45,7.59,3.91,8.57-1.5.95-3.76.97-8.97-3.41-4.65-3.91-4.84-5.87-4.45-6.98.44-1.29,4.11-2.49,9.51,1.83h0Z"/>
              <path class="uuid-159db930-0055-474e-bf7d-d2ef88a4f2e0" d="m107.43,69.66c-4.07-4.39-5.02-9.72-3.17-10.67,1.8-.93,4.32-.64,9.5,5.24,4.63,5.25,4.58,7.6,3.99,8.87-.67,1.46-4.92,2.4-10.33-3.43h0Z"/>
              <path class="uuid-159db930-0055-474e-bf7d-d2ef88a4f2e0" d="m259.09,216.98c1.42,3.18,3.09,7.21,3.09,7.21l-7.09,2.06s-1.63-2.83-3.04-5.76c-4.04-8.38-4.71-11.33-3.34-12.65,2.19-2.11,5.71-1.32,10.38,9.14Z"/>
            </g>
          </g>
          <g>
            <path class="uuid-818f14bd-d9b9-46d3-889f-ff0d953431e9" d="m134.56-8.29s-.28,40.11,80.63,110.83c43.89,38.36,66.98,68.55,82.13,110.29,0,0,17.8-7.04,26-12.68,0,0-10.09-48.29-49.34-84.4-39.26-36.1-66.47-48.96-104.36-124.04h-35.06Z"/>
            <g>
              <path class="uuid-159db930-0055-474e-bf7d-d2ef88a4f2e0" d="m184.54,49.17c-3.76,2.56,5.61,12.84,8.9,10.26,3.29-2.58-5.26-12.74-8.9-10.26Z"/>
              <path class="uuid-159db930-0055-474e-bf7d-d2ef88a4f2e0" d="m293.93,184.59c-4.38-8.69-5.06-11.05-3.1-12.61,2.74-2.18,6.19,1.57,10.52,9.84,4.33,8.27,5.57,12.75,2.63,13.75-3.37,1.15-5.54-2.06-10.04-10.99h0Z"/>
              <path class="uuid-159db930-0055-474e-bf7d-d2ef88a4f2e0" d="m230.98,102.51c-6.96-5.84-12.32-10.4-10.47-12.98,1.75-2.43,5.4.17,14.65,7.72,8,6.52,9.85,9.19,8.33,11.03s-6.27-.53-12.51-5.77h0Z"/>
            </g>
          </g>
          <g>
            <path class="uuid-00f46dd1-78ad-484f-a0bd-b17104dee9b2" d="m92.9-3.43c9.84,37.75,50.61,79,96.02,116.62,45.42,37.62,65.51,64.11,84.42,108.6,0,0,17.7-6.05,27.57-10.43,0,0-9.95-36.54-40.96-72.41-31.01-35.87-70.38-60.13-93.3-92.76-22.92-32.63-27.1-51.24-27.1-51.24l-46.65,1.62Z"/>
            <g>
              <path class="uuid-7c1cdae1-e4f0-4cad-b5f9-ace75712cd04" d="m122.03,12.18c-4.65-8.72-5.7-15.7-2.28-16.25,3.34-.53,3.72,2.55,9.51,14.1,5.17,10.32,7.61,12.46,6.09,14.12-1.74,1.91-7.15-.39-13.33-11.97h0Z"/>
              <path class="uuid-7c1cdae1-e4f0-4cad-b5f9-ace75712cd04" d="m198.66,94.15c4.06,3.25,5.45,7.59,3.91,8.57-1.5.95-3.76.97-8.97-3.41-4.65-3.91-4.84-5.87-4.45-6.98.44-1.29,4.11-2.49,9.51,1.83h0Z"/>
              <path class="uuid-7c1cdae1-e4f0-4cad-b5f9-ace75712cd04" d="m141.48,59.83c-5.64-5.77-7.65-11.3-5.23-12.69,2.36-1.36,4.55-.38,11.74,7.36,6.42,6.91,7.92,9.54,6.92,11.15-1.6,2.58-5.94,1.84-13.42-5.82h0Z"/>
              <path class="uuid-7c1cdae1-e4f0-4cad-b5f9-ace75712cd04" d="m245.43,148.79c4.55,5.16,6.14,10.09,4.14,11.31-1.95,1.2-3.74.32-9.54-6.6-5.19-6.18-6.38-8.52-5.54-9.95,1.35-2.28,4.9-1.61,10.94,5.24h0Z"/>
            </g>
          </g>
          <g>
            <path class="uuid-7f276784-90c0-46f6-837e-520faf803895" d="m337.03,187.22c-11-46.92-45.79-80.5-74.31-102.14-28.52-21.64-62.09-65.73-63.3-96.88h-35.19s8.79,56.46,84.54,112.45c37.21,27.51,63.02,67.93,71.56,101.21,0,0,16.33-8.68,16.7-14.65h0Z"/>
            <g>
              <path class="uuid-4642e101-095d-4a06-8469-3a4b2c2d06a5" d="m187.76,23.01c-4.65-8.72-5.7-15.7-2.28-16.25,3.34-.53,3.72,2.55,9.51,14.1,5.17,10.32,7.61,12.46,6.09,14.12-1.74,1.91-7.15-.39-13.33-11.97h0Z"/>
              <path class="uuid-4642e101-095d-4a06-8469-3a4b2c2d06a5" d="m292.63,127.92c2.8,3.13,3.4,6.89,2.1,7.54-1.27.64-3.02.41-6.58-3.77-3.18-3.74-3.11-5.39-2.7-6.27.48-1.02,3.46-1.64,7.17,2.51h0Z"/>
              <path class="uuid-4642e101-095d-4a06-8469-3a4b2c2d06a5" d="m304.11,144.27c4.23,5.43,4.57,8.27,2.91,9.04-1.62.74-3.76.33-7.78-5.37-3.59-5.09-3.37-7.23-2.78-8.36.69-1.3,3.31-.88,7.65,4.69h0Z"/>
              <path class="uuid-4642e101-095d-4a06-8469-3a4b2c2d06a5" d="m227.07,74.93c-5.12-4.55-7.09-9.05-5.07-10.3,1.98-1.22,3.91-.5,10.46,5.61,5.85,5.46,7.25,7.58,6.45,8.95-1.27,2.2-5.05,1.78-11.84-4.26h0Z"/>
            </g>
          </g>
        </g>
      </g>
    </g>
  </g>
</svg>