<?xml version="1.0" encoding="UTF-8"?>
<svg id="uuid-a3a7c745-0273-4200-83cd-652a1ac15268" data-name="BODY" xmlns="http://www.w3.org/2000/svg" viewBox="0 0 600 600">
  <defs>
    <style>
      .uuid-04f462d2-1981-476b-b7e5-724ae785e348 {
        fill: #8400ff;
        stroke-width: 2px;
      }

      .uuid-04f462d2-1981-476b-b7e5-724ae785e348, .uuid-f66e1ff4-722e-433a-86a5-cb4946d97658, .uuid-7e1c0852-8694-4a54-9eee-21da9ea22638, .uuid-a792d3f2-0aac-44ca-82af-70025a8df095, .uuid-513b6e19-5de9-4c35-a266-c4742d8b6584, .uuid-a88ae5eb-4da8-48cd-8df7-caa57156139c {
        stroke: #000;
        stroke-linecap: round;
        stroke-linejoin: round;
      }

      .uuid-f66e1ff4-722e-433a-86a5-cb4946d97658 {
        fill: #a07bff;
      }

      .uuid-f66e1ff4-722e-433a-86a5-cb4946d97658, .uuid-7e1c0852-8694-4a54-9eee-21da9ea22638, .uuid-a792d3f2-0aac-44ca-82af-70025a8df095, .uuid-513b6e19-5de9-4c35-a266-c4742d8b6584, .uuid-a88ae5eb-4da8-48cd-8df7-caa57156139c {
        stroke-width: 2px;
      }

      .uuid-7e1c0852-8694-4a54-9eee-21da9ea22638 {
        fill: #fff7f0;
      }

      .uuid-a792d3f2-0aac-44ca-82af-70025a8df095 {
        fill: #00dfa9;
      }

      .uuid-513b6e19-5de9-4c35-a266-c4742d8b6584 {
        fill: none;
      }

      .uuid-a88ae5eb-4da8-48cd-8df7-caa57156139c {
        fill: #f9a723;
      }
    </style>
  </defs>
  <g id="uuid-2aae2cf1-73b5-4245-86e4-5fc0ce881f00" data-name="uuid-67924808-bed2-4315-8b0f-852c10b31275">
    <g id="uuid-f38c4e21-55bb-4b70-bea8-23c9f6e7aa03" data-name="uuid-eb446e14-179a-4a6b-a18e-2c17af3b9963">
      <g id="uuid-72f1a8a7-f18d-4378-94dc-cc21149901ac" data-name="uuid-658b195c-6763-44f4-b07d-29a4f88b4b9a">
        <g>
          <path class="uuid-f66e1ff4-722e-433a-86a5-cb4946d97658" d="m409.54,215.79s12.39,15.95,18.63,32.53c0,0,24.42-9.99,42.68-24.98,18.25-14.98,12.03-26.59,8.33-28.59-3.69-2-9.28.11-37.24-4.43-27.96-4.54-97.38-44.73-116.58-55.71-19.2-10.97-63.36-40.32-68.29-42.92s-19.57.14-37.76-3.15c-18.2-3.28-27.77-8.89-32.97-7.66-5.2,1.23-31.88,19.98-33.38,23.26-1.5,3.28,1.92,8.07,2.05,14.09.14,6.02-26,31.06-26.95,37.22-.96,6.16,4.65,28.46,4.52,39.68s-.82,22.44.27,24.35,13.82-6.98,16.42-11.9c2.6-4.93,6.84-26,6.84-26,0,0,5.24-.4,8.49-2.84,3.25-2.44,19.12-16.02,19.12-16.02,0,0,5.24,1.48,10.41.07-9.6,16.1-23.77,24.44-25.77,28.35s.08,11.49-9.33,34.21-35.24,54.66-39.03,58.83c-3.79,4.17-15.22,10.02-15.22,10.02,0,0-4.47-1.73-7.56,1.57s5.11,12.09,15.33,15.88c10.22,3.79,26.34,8.47,79.15,0,52.81-8.47,73.12-20.66,121.32-50.45,48.2-29.79,96.53-45.43,96.53-45.43h0Z"/>
          <path class="uuid-513b6e19-5de9-4c35-a266-c4742d8b6584" d="m476.25,193.91c-27.42.16-48.94,5.22-90.08,18.3-41.15,13.08-92,48.53-130.19,68.16-38.19,19.62-78.07,20.47-108.67,23.42-30.6,2.95-39.49-7-42.53-9.57"/>
          <path class="uuid-513b6e19-5de9-4c35-a266-c4742d8b6584" d="m409.54,215.79c12.75-4.54,37.46-9.17,50.36-10.74s13.78,1.38,13.78,1.38"/>
          <path class="uuid-513b6e19-5de9-4c35-a266-c4742d8b6584" d="m417.24,226.97s11.09-4.86,17.57-9.12"/>
          <path class="uuid-513b6e19-5de9-4c35-a266-c4742d8b6584" d="m423.18,237.38s22.45-11.98,32.12-19.52"/>
          <path class="uuid-513b6e19-5de9-4c35-a266-c4742d8b6584" d="m441.94,190.32c-19.94-2.24-44.22-5.82-44.22-5.82"/>
          <path class="uuid-513b6e19-5de9-4c35-a266-c4742d8b6584" d="m194.12,162.8c6.23-10.79,11.54-28.79,12.15-33.73.62-4.93-3.82-7.4-7.03-6.66"/>
          <path class="uuid-513b6e19-5de9-4c35-a266-c4742d8b6584" d="m183.71,162.73c-5.1-.9-12.17-9.24-12.49-11.94-.32-2.7,3.49-18.58,1.75-33.43"/>
          <path class="uuid-513b6e19-5de9-4c35-a266-c4742d8b6584" d="m154.65,115.07c2.03,11.59.72,26.83,0,33.89-.72,7.05-.14,8.92.54,9.89s6.68,2.49,7.81,3.96"/>
          <path class="uuid-513b6e19-5de9-4c35-a266-c4742d8b6584" d="m156.1,181.59c-3.65.58-5.8-.12-8.04-1.11-2.38-1.05-3.95-12.36-5.27-17.19"/>
          <path class="uuid-513b6e19-5de9-4c35-a266-c4742d8b6584" d="m335.73,140.54c1.67-2.59,2.1-4.28.41-5.76"/>
          <path class="uuid-513b6e19-5de9-4c35-a266-c4742d8b6584" d="m164.81,208.67c-2.09-.11-3.91-1.33-3.36-2.76"/>
          <path class="uuid-a792d3f2-0aac-44ca-82af-70025a8df095" d="m355.57,140.81c-12.38-1.56-10.37-8.7-15.39-10.71-5.27-2.11-14.82,4.51-14.82,4.51l10.37,5.92s-15.02,24.19-49.37,43.02c-34.35,18.83-68.31,23.41-88.29,24.55-19.97,1.15-33.26.56-33.26.56,0,0,1.36-5.56,1.7-7.77,0,0-7.97,1.77-9.4,3.29-1.42,1.51.53,9.7-2.05,14.33-2.58,4.63-8.37,7.92-8.9,10.24-.53,2.31.01,8.1,18.95,10.06,18.94,1.96,75.9-.02,118.72-16.4,42.82-16.38,71.7-49.44,80.57-68.92,3.03-6.65,3.53-11.13-8.84-12.69h0Zm-134.06,84.05c-2.01,0-3.64-1.63-3.64-3.64s1.63-3.64,3.64-3.64,3.64,1.63,3.64,3.64-1.63,3.64-3.64,3.64Zm38.94-9.23c-.94,1.78-3.14,2.46-4.92,1.53s-2.46-3.14-1.53-4.92c.94-1.78,3.14-2.46,4.92-1.53,1.78.94,2.46,3.14,1.53,4.92Zm30.7-11.73c-.94,1.78-3.14,2.46-4.92,1.53s-2.46-3.14-1.53-4.92,3.14-2.46,4.92-1.53c1.78.94,2.46,3.14,1.53,4.92h0Zm52.2-41.38c-.94,1.78-3.14,2.46-4.92,1.53-1.78-.94-2.46-3.14-1.53-4.92.94-1.78,3.14-2.46,4.92-1.53s2.46,3.14,1.53,4.92h0Z"/>
          <g>
            <path class="uuid-a88ae5eb-4da8-48cd-8df7-caa57156139c" d="m304.33,172.12c2.44-1.85,8.58,3.13,14.24,10.26,5.66,7.12,10.29,13.79,8.11,15.49s-19.37,15.02-33.85,20.78c0,0,3.77,4.16,7.88,4.6s29.93-17.25,33.14-21.04c3.22-3.79,4.08-11.35-8.75-25.59s-17.33-17.24-24.57-11.52c-7.24,5.72-18.76,12.69-22.07,14.56s-6.24,4.25-4.06,9.85c0,0,16.89-7.52,29.91-17.39h0Z"/>
            <path class="uuid-a88ae5eb-4da8-48cd-8df7-caa57156139c" d="m309.11,184.56c4.54-4.18,11.26-8.6,14.39-10.46,3.13-1.86,6.86,1.78,4.18,4.68-2.68,2.91-9.72,8.38-14.12,11.09-4.39,2.71-8.55-1.54-4.45-5.31h0Z"/>
          </g>
          <g>
            <path class="uuid-7e1c0852-8694-4a54-9eee-21da9ea22638" d="m179.59,222.95c6.18-19.83-.94-36.05-.94-36.05,0,0,3.89-5.23,7.77-8.31.94,2.41,1.8,8.04,3.78,6.97s.78-9.51,1.18-9.51,13-4.56,22.51,10.99c-7.1,13-10.72,23.73-13,35.92-2.28,12.19-1.61,42.47-1.61,43.81s-4.53,9.38-22.1,8.17-19.71-18.36-18.24-20.9c1.47-2.55,12.86-6.15,20.64-31.08h0Z"/>
            <path class="uuid-513b6e19-5de9-4c35-a266-c4742d8b6584" d="m195.25,271.53c3.2-4.63.78-14.34-13.42-15.92s-15.24,1.69-14.35,5.16c.89,3.46,6.15,9.04,16.03,8.51l1.54-13.13"/>
            <path class="uuid-513b6e19-5de9-4c35-a266-c4742d8b6584" d="m199.19,256.53c-2.65-7.01-33.34-9.01-40.24-2.5"/>
            <line class="uuid-513b6e19-5de9-4c35-a266-c4742d8b6584" x1="201.26" y1="176.21" x2="199.31" y2="183.29"/>
          </g>
          <path class="uuid-a792d3f2-0aac-44ca-82af-70025a8df095" d="m204.37,217.21c-8.43,1.09-22.28.97-26.51.9-.75-.01-1.41.48-1.62,1.19l-2,6.87c-.29,1.01.41,2.04,1.46,2.12,4.58.36,16.32.98,28.74-.77.78-.11,1.38-.77,1.42-1.56l.37-7.03c.05-1.03-.83-1.87-1.86-1.73h0Z"/>
          <g>
            <ellipse class="uuid-04f462d2-1981-476b-b7e5-724ae785e348" cx="246.93" cy="133.96" rx="6.31" ry="7.02" transform="translate(-25.95 200.71) rotate(-42.22)"/>
            <ellipse class="uuid-04f462d2-1981-476b-b7e5-724ae785e348" cx="265.69" cy="116.94" rx="6.31" ry="7.02" transform="translate(-9.65 208.9) rotate(-42.22)"/>
            <ellipse class="uuid-04f462d2-1981-476b-b7e5-724ae785e348" cx="270.5" cy="141.09" rx="6.31" ry="7.02" transform="translate(-24.63 218.4) rotate(-42.22)"/>
          </g>
        </g>
      </g>
    </g>
  </g>
</svg>