<?xml version="1.0" encoding="UTF-8"?>
<svg id="uuid-81db00f6-c43b-4ac3-b3c4-e3267f5ad77a" data-name="BODY" xmlns="http://www.w3.org/2000/svg" viewBox="0 0 600 600">
  <defs>
    <style>
      .uuid-8391fb1d-7a89-4708-bca9-e22b4f060af5 {
        fill: #7aa6ff;
      }

      .uuid-8391fb1d-7a89-4708-bca9-e22b4f060af5, .uuid-06bf7c96-fac1-4187-a55d-0c75c81eb699, .uuid-2161486d-f21b-4e36-965b-7a949b26e0d9 {
        stroke: #000;
        stroke-linecap: round;
        stroke-linejoin: round;
        stroke-width: 2px;
      }

      .uuid-06bf7c96-fac1-4187-a55d-0c75c81eb699 {
        fill: #a07bff;
      }

      .uuid-2161486d-f21b-4e36-965b-7a949b26e0d9 {
        fill: #ff78d8;
      }
    </style>
  </defs>
  <g id="uuid-aff94f98-6fdb-44d6-900d-2db8993b7427" data-name="uuid-f7e4d1a9-9831-4a9e-b704-6d650be6f748">
    <g id="uuid-7998118c-c142-4587-b2ac-d24f058b3278" data-name="uuid-c4ca7cd3-914c-47ad-b5ec-27bf3ee3bc40">
      <g id="uuid-7e363cce-8125-41f9-83c2-26d532a099dd" data-name="uuid-2cd58467-086a-4174-8496-c46aee886365">
        <g>
          <g>
            <path class="uuid-2161486d-f21b-4e36-965b-7a949b26e0d9" d="m331.08,273.52c4.16,10.49,7.7,22.14,2.36,28.92-4.05,1.61-9.13,3.62-12.03,4.77-10.99,4.36-24.49-3.65-30.14-17.9-5.65-14.25-1.32-29.33,9.67-33.69l12.03-4.77c8.7,1.08,13.87,11.99,18.11,22.67h0Z"/>
            <circle class="uuid-06bf7c96-fac1-4187-a55d-0c75c81eb699" cx="323.21" cy="276.64" r="27.75"/>
            <circle class="uuid-8391fb1d-7a89-4708-bca9-e22b4f060af5" cx="323.21" cy="276.64" r="21.15"/>
            <path class="uuid-2161486d-f21b-4e36-965b-7a949b26e0d9" d="m324.67,270.95l-2.69-6.79-3.24-8.17c-1.12.24-2.23.55-3.33.99-1.22.49-2.37,1.09-3.44,1.76l3.22,8.11,2.69,6.79-8.29,19.18c1.9,1.59,4.06,2.82,6.38,3.66l5.72-13.24,5.61,14.14c1.25-.25,2.49-.59,3.71-1.08,1.1-.43,2.12-.97,3.1-1.56l-5.63-14.19,13.49,5.83c1.13-2.18,1.89-4.55,2.21-7l-19.51-8.43h0Z"/>
          </g>
          <g>
            <path class="uuid-2161486d-f21b-4e36-965b-7a949b26e0d9" d="m399.55,246.36c4.16,10.49,7.7,22.14,2.36,28.92l-12.03,4.77c-10.99,4.36-24.49-3.65-30.14-17.9s-1.32-29.33,9.67-33.69l12.03-4.77c8.7,1.08,13.87,11.99,18.11,22.67h0Z"/>
            <circle class="uuid-06bf7c96-fac1-4187-a55d-0c75c81eb699" cx="391.67" cy="249.48" r="27.75"/>
            <circle class="uuid-8391fb1d-7a89-4708-bca9-e22b4f060af5" cx="391.67" cy="249.48" r="21.15"/>
            <path class="uuid-2161486d-f21b-4e36-965b-7a949b26e0d9" d="m393.13,243.79l-2.69-6.79-3.24-8.17c-1.12.24-2.23.55-3.33.99-1.22.49-2.37,1.09-3.44,1.76l3.22,8.11,2.69,6.79-8.29,19.18c1.9,1.59,4.06,2.82,6.38,3.66l5.72-13.24,5.61,14.14c1.25-.25,2.49-.59,3.71-1.08,1.1-.43,2.12-.97,3.1-1.56l-5.63-14.19,13.49,5.83c1.13-2.18,1.89-4.55,2.21-7l-19.51-8.43h0Z"/>
          </g>
          <path class="uuid-2161486d-f21b-4e36-965b-7a949b26e0d9" d="m364.5,264.38s-3.8.35-8.78,2.33c-2.38.94-4.32,1.98-5.69,2.81-.34-1.37-1.48-4.24-2.46-6.16,1.28-.77,3.16-1.74,5.73-2.76,5.32-2.11,8.78-2.33,8.78-2.33l2.43,6.12h0Z"/>
        </g>
      </g>
    </g>
  </g>
</svg>