<?xml version="1.0" encoding="UTF-8"?>
<svg id="uuid-f10b921a-f186-46d7-8833-59bbe1515241" data-name="BACKGROUND" xmlns="http://www.w3.org/2000/svg" xmlns:xlink="http://www.w3.org/1999/xlink" viewBox="0 0 600 600">
  <defs>
    <style>
      .uuid-2a7de9dc-5c6f-4a66-9041-f31b9382c90c, .uuid-99ac74cb-caaf-4734-b5b8-2ebba898429d, .uuid-a2d56648-e1ac-4bd4-bb88-df59630621e1 {
        fill: none;
      }

      .uuid-99ac74cb-caaf-4734-b5b8-2ebba898429d {
        clip-path: url(#uuid-7e88eed8-71f8-4da0-9175-354919d415f1);
      }

      .uuid-60d31414-5089-4698-9d6d-3ec7e968a95c {
        fill: #8400ff;
      }

      .uuid-60d31414-5089-4698-9d6d-3ec7e968a95c, .uuid-63183014-7029-4fa8-9960-8bed52f3a241, .uuid-23328c2c-03eb-46f2-b306-99cb807fde8e, .uuid-3d185ac5-40bc-4669-84b8-a20df0bfca8a, .uuid-a2d56648-e1ac-4bd4-bb88-df59630621e1 {
        stroke: #000;
        stroke-linecap: round;
        stroke-linejoin: round;
        stroke-width: 2px;
      }

      .uuid-63183014-7029-4fa8-9960-8bed52f3a241 {
        fill: #353434;
      }

      .uuid-9caee8c2-66d3-49e8-aaa1-873bcb4c2ef3 {
        fill: #3ef1ff;
      }

      .uuid-64ab4854-ac09-4cb4-a28b-6ea979627923 {
        fill: #7aa6ff;
      }

      .uuid-23328c2c-03eb-46f2-b306-99cb807fde8e {
        fill: #a07bff;
      }

      .uuid-3d185ac5-40bc-4669-84b8-a20df0bfca8a {
        fill: #fff7f0;
      }
    </style>
    <clipPath id="uuid-7e88eed8-71f8-4da0-9175-354919d415f1">
      <path class="uuid-2a7de9dc-5c6f-4a66-9041-f31b9382c90c" d="m375.6,186.05c-3.67.37-7.36.83-11.04,1.37-1.16.17-1.77,1.49-1.14,2.49l2.05,3.28-4.85,5.97-40.96,9-1.31-10.32c-28.14,8.26-51.37,18.18-60.09,22.08-2.32,1.04-3.91,3.23-4.19,5.75-2.66,23.72-1.67,49.45-1.15,59.16.13,2.4,1.82,4.44,4.17,4.98,28.18,6.48,66.81,4.95,76.15,4.46,1.37-.07,2.62-.75,3.46-1.83,5.25-6.81,12.72-19.03,17.8-27.6,3.15-5.33,9.95-7.2,15.39-4.24l19.74,10.76c1.91,1.04,4.28.63,5.73-.99,9.99-11.15,18.56-23.84,23.37-31.39-13.65-21.51-34.2-43.68-43.12-52.92h0Z"/>
    </clipPath>
  </defs>
  <g id="uuid-da2ad0ae-b2cf-4150-9c6f-f6027f05e975" data-name="uuid-908dc865-47bc-4301-990e-3d26525beded">
    <g id="uuid-b0fa40fe-748d-40ca-a2d7-bb38af6aaec1" data-name="uuid-845ae38f-23fa-4152-997a-f63073291681">
      <g id="uuid-ce618f13-b549-4bfc-bc58-a6e0153c556b" data-name="uuid-94b65ef2-ffe4-4b12-b92b-e951dcaa643d">
        <g>
          <g>
            <path class="uuid-60d31414-5089-4698-9d6d-3ec7e968a95c" d="m244.57,212.86l-11.32,8.25c-2.86,2.09-4.69,5.28-5.03,8.81-.62,6.42-1.5,18.09-1.66,33.49-.16,14.85-.18,28.27,1.21,33.53.79,3,3.13,5.34,6.14,6.11,7.64,1.96,26.17,4.67,52.79,6.79,18.99,1.52,36.78,1.45,48.28-3.02,2.98-1.16,6.28-3.72,7.34-4.99,1.84-2.2-88.59-7.07-88.59-7.07l-7.82-59.28-1.36-22.63h0Z"/>
            <line class="uuid-a2d56648-e1ac-4bd4-bb88-df59630621e1" x1="241.84" y1="295.33" x2="230.86" y2="301.57"/>
            <path class="uuid-60d31414-5089-4698-9d6d-3ec7e968a95c" d="m359.15,276.99l18.34,9.92c4.86,2.63,10.77,2.36,15.37-.69l3.22-2.13-32.64-18.09-6.37,3.44,2.08,7.56h0Z"/>
          </g>
          <path class="uuid-23328c2c-03eb-46f2-b306-99cb807fde8e" d="m247.06,211.14c16.74-7.73,77.92-34.28,136.47-38.28,2.08-.14,4.13.54,5.72,1.89,7.17,6.05,28.04,24.98,43.62,52.38,1.5,2.63,1.39,5.89-.27,8.42-6.04,9.21-21.4,32.01-35.82,47.95-1.23,1.36-3.22,1.7-4.82.83l-24.77-13.41c-1.88-1.02-4.23-.36-5.3,1.48-3.64,6.27-11.87,20-18.93,28.85-.71.89-1.77,1.44-2.91,1.49-10.15.46-61.6,2.3-95.21-5.51-2.35-.55-4.04-2.59-4.15-5-.55-11.52-1.78-45.66,1.35-74.09.34-3.06,2.25-5.7,5.04-6.99h0Z"/>
          <path class="uuid-60d31414-5089-4698-9d6d-3ec7e968a95c" d="m375.6,186.05c8.92,9.24,29.47,31.42,43.12,52.92,1.07-1.68,1.95-3.1,2.62-4.2.93-1.52.92-3.44-.03-4.95-14.99-23.69-30.23-38.7-34.99-43.12-.95-.89-2.23-1.33-3.52-1.24-4.67.31-9.14.79-7.19.59h0Z"/>
          <g>
            <path class="uuid-64ab4854-ac09-4cb4-a28b-6ea979627923" d="m375.6,186.05c-3.67.37-7.36.83-11.04,1.37-1.16.17-1.77,1.49-1.14,2.49l2.05,3.28-4.85,5.97-40.96,9-1.31-10.32c-28.14,8.26-51.37,18.18-60.09,22.08-2.32,1.04-3.91,3.23-4.19,5.75-2.66,23.72-1.67,49.45-1.15,59.16.13,2.4,1.82,4.44,4.17,4.98,28.18,6.48,66.81,4.95,76.15,4.46,1.37-.07,2.62-.75,3.46-1.83,5.25-6.81,12.72-19.03,17.8-27.6,3.15-5.33,9.95-7.2,15.39-4.24l19.74,10.76c1.91,1.04,4.28.63,5.73-.99,9.99-11.15,18.56-23.84,23.37-31.39-13.65-21.51-34.2-43.68-43.12-52.92h0Z"/>
            <g class="uuid-99ac74cb-caaf-4734-b5b8-2ebba898429d">
              <g>
                <path class="uuid-9caee8c2-66d3-49e8-aaa1-873bcb4c2ef3" d="m335.95,191.43c.3,4.33.59,10.52.32,15.69-.47,8.99-5.39,9.72-6.51,4.36-.82-3.96-1.53-15.31-1.85-20.97l-20.85,6.39c1.53,9.3,3.02,24.99-4.37,25.37-8.16.42-9.66-14.35-9.93-20.98l-9.83,3.01s.81,13.55.61,19.82c-.2,6.27-9.3,6.67-9.61,15.27-.3,8.6,2.33,57.64,2.33,57.64h56.43s-1.01-48.54-1.01-61.08,9.09-13.51,9.33-22.83c.24-9.32,0-20.79,0-20.79l-5.07-.91h0Zm-51.52,46.05c7.35.24,9.5,22.41,2.49,22.9-7.01.49-7.85-23.08-2.49-22.9h0Zm4.11,39.74c-4.45.13-4.99-9.37-.27-9.84,4.03-.4,4.72,9.71.27,9.84Z"/>
                <path class="uuid-9caee8c2-66d3-49e8-aaa1-873bcb4c2ef3" d="m276.45,227.21c4.45-.13,3.76-10.25-.27-9.84-4.72.47-4.18,9.98.27,9.84Z"/>
                <path class="uuid-9caee8c2-66d3-49e8-aaa1-873bcb4c2ef3" d="m260.8,279.24c-.51,5.35-.51,18.61-.51,18.61l-2.93,2.15,12.54,2.1s.61-9.4-.71-19.72-7.89-8.49-8.39-3.14h0Z"/>
                <path class="uuid-9caee8c2-66d3-49e8-aaa1-873bcb4c2ef3" d="m394.72,237.31c-4.58,0-4.92,15.98-.67,16.31,4.25.34,3.78-16.31.67-16.31Z"/>
                <path class="uuid-9caee8c2-66d3-49e8-aaa1-873bcb4c2ef3" d="m353.98,218.97c4.25.34,3.78-16.31.67-16.31-4.58,0-4.92,15.98-.67,16.31Z"/>
                <path class="uuid-9caee8c2-66d3-49e8-aaa1-873bcb4c2ef3" d="m399.37,216.21c-.09-10.79-.79-40.46-.79-40.46l-35.75,5.31s-.22,12.74-.51,28.21c-.29,15.47-10.82,16.58-10.82,24.57v40.45h16.65c.5-5.74,1.58-18.19,2.26-25.18.69-7.06,7.69-9.61,7.99-1.72.23,5.87.12,20.05.04,26.9h7.44s.4-18.44.81-31.57c.4-13.13,12.81-10.6,12.67-26.51h0Zm-9.1-5.39c3.17.09,4.31,11.73-1.01,11.6s-3.84-11.73,1.01-11.6Z"/>
              </g>
            </g>
            <path class="uuid-a2d56648-e1ac-4bd4-bb88-df59630621e1" d="m375.6,186.05c-3.67.37-7.36.83-11.04,1.37-1.16.17-1.77,1.49-1.14,2.49l2.05,3.28-4.85,5.97-40.96,9-1.31-10.32c-28.14,8.26-51.37,18.18-60.09,22.08-2.32,1.04-3.91,3.23-4.19,5.75-2.66,23.72-1.67,49.45-1.15,59.16.13,2.4,1.82,4.44,4.17,4.98,28.18,6.48,66.81,4.95,76.15,4.46,1.37-.07,2.62-.75,3.46-1.83,5.25-6.81,12.72-19.03,17.8-27.6,3.15-5.33,9.95-7.2,15.39-4.24l19.74,10.76c1.91,1.04,4.28.63,5.73-.99,9.99-11.15,18.56-23.84,23.37-31.39-13.65-21.51-34.2-43.68-43.12-52.92h0Z"/>
          </g>
          <g>
            <path class="uuid-60d31414-5089-4698-9d6d-3ec7e968a95c" d="m318.34,197.84l5.96-1.88c1.07-.34,2.19.37,2.34,1.49l.46,3.39,38.36-7.65-4.85,5.97-40.96,9-1.31-10.32h0Z"/>
            <line class="uuid-a2d56648-e1ac-4bd4-bb88-df59630621e1" x1="327.1" y1="200.84" x2="319.65" y2="208.15"/>
          </g>
        </g>
        <path class="uuid-63183014-7029-4fa8-9960-8bed52f3a241" d="m183.48,225.72l-4.43,7.43s5.38,2.75,23.4,4.63c16.18,1.69,30.94.94,30.94.94,0,0-.51,37.69,0,46.58,0,0-25.38-.91-47.83-5.97-22.45-5.06-30.64-11.12-30.64-11.12,0,0,3.14-12.81,6.91-22.48,3.77-9.65,8.66-18.78,8.66-18.78l12.99-1.24h0Z"/>
        <path class="uuid-60d31414-5089-4698-9d6d-3ec7e968a95c" d="m200.23,240.61l-12.83,35.19s7.99,2.83,21.53,4.55c13.55,1.72,20.73,2.02,20.73,2.02l.61-40.34-30.03-1.43h0Z"/>
        <path class="uuid-3d185ac5-40bc-4669-84b8-a20df0bfca8a" d="m233.39,238.73s-14.76.74-30.94-.94c-.89-.09-1.74-.19-2.57-.28-1.03-.12-2.01.49-2.36,1.47l-13.59,37.42c-.46,1.27.29,2.66,1.61,2.96,0,0,.02,0,.03,0,22.45,5.06,47.83,5.97,47.83,5.97-.51-8.9,0-46.58,0-46.58h0Zm-6.6,40.51s-16.46-.4-34.23-3.84c0,0-.01,0-.02,0-1.03-.23-1.62-1.32-1.26-2.31l10.6-29.19c.28-.76,1.04-1.24,1.84-1.14.64.08,1.31.15,2,.22,12.62,1.31,22.04.81,22.04.81,0,0-.78,28.64-.99,35.45h0Z"/>
        <g>
          <circle cx="205.75" cy="256.06" r="3.23"/>
          <circle cx="220.1" cy="257.16" r="3.23"/>
          <circle cx="212.15" cy="266.64" r="3.23"/>
        </g>
        <g>
          <line class="uuid-a2d56648-e1ac-4bd4-bb88-df59630621e1" x1="160.57" y1="261.93" x2="163.1" y2="268.09"/>
          <line class="uuid-a2d56648-e1ac-4bd4-bb88-df59630621e1" x1="163.83" y1="251.26" x2="173.64" y2="272.6"/>
          <line class="uuid-a2d56648-e1ac-4bd4-bb88-df59630621e1" x1="167.6" y1="242.04" x2="181.11" y2="271.41"/>
          <line class="uuid-a2d56648-e1ac-4bd4-bb88-df59630621e1" x1="172.21" y1="231.62" x2="185.71" y2="260.99"/>
          <line class="uuid-a2d56648-e1ac-4bd4-bb88-df59630621e1" x1="185.02" y1="238.64" x2="189.77" y2="248.98"/>
        </g>
      </g>
    </g>
  </g>
</svg>