<?xml version="1.0" encoding="UTF-8"?>
<svg id="uuid-f02209ef-b424-46b4-93c4-42c1490240a9" data-name="BODY" xmlns="http://www.w3.org/2000/svg" viewBox="0 0 600 600">
  <defs>
    <style>
      .uuid-dd004691-0368-40de-b1d4-917dcbd0eaae, .uuid-34ec47fa-c159-49ae-bc2d-1a97cb5b2f92, .uuid-32d803e3-3354-4086-9818-8d10d6dc95b7, .uuid-ea08e133-357c-4d4e-8415-c91c62346e65, .uuid-a3ff912f-e324-45a0-9281-60e956538a71, .uuid-f9b025f3-1de9-4a8c-8f43-f7e49187ec0a, .uuid-a09ac449-36f0-41a6-a1b0-026cff03c3ea, .uuid-30d8b157-1c21-48fa-b5d7-0ece5f137a93 {
        stroke: #000;
        stroke-linecap: round;
        stroke-linejoin: round;
      }

      .uuid-dd004691-0368-40de-b1d4-917dcbd0eaae, .uuid-32d803e3-3354-4086-9818-8d10d6dc95b7, .uuid-ea08e133-357c-4d4e-8415-c91c62346e65, .uuid-a3ff912f-e324-45a0-9281-60e956538a71, .uuid-a09ac449-36f0-41a6-a1b0-026cff03c3ea, .uuid-30d8b157-1c21-48fa-b5d7-0ece5f137a93 {
        stroke-width: 2px;
      }

      .uuid-dd004691-0368-40de-b1d4-917dcbd0eaae, .uuid-376e6322-7969-4122-be77-753d1fcf14ce {
        fill: #7aa6ff;
      }

      .uuid-34ec47fa-c159-49ae-bc2d-1a97cb5b2f92, .uuid-32d803e3-3354-4086-9818-8d10d6dc95b7 {
        fill: #8400ff;
      }

      .uuid-34ec47fa-c159-49ae-bc2d-1a97cb5b2f92, .uuid-f9b025f3-1de9-4a8c-8f43-f7e49187ec0a {
        stroke-width: 2px;
      }

      .uuid-ea08e133-357c-4d4e-8415-c91c62346e65 {
        fill: #353434;
      }

      .uuid-16db945f-1d1d-4cb9-89b0-3101114847fd {
        fill: #fff7f0;
      }

      .uuid-a3ff912f-e324-45a0-9281-60e956538a71 {
        fill: #3ef1ff;
      }

      .uuid-f9b025f3-1de9-4a8c-8f43-f7e49187ec0a, .uuid-a09ac449-36f0-41a6-a1b0-026cff03c3ea {
        fill: #a07bff;
      }

      .uuid-30d8b157-1c21-48fa-b5d7-0ece5f137a93 {
        fill: none;
      }
    </style>
  </defs>
  <g id="uuid-2772b2d4-df24-4b4a-a779-ed5fb75b8d6a" data-name="uuid-20728b98-93b4-42eb-b164-0f46c3c4f895">
    <g id="uuid-f3b69b34-9444-481f-8513-edd85950e54c" data-name="uuid-4f1578c3-c2b0-40cb-b359-6b0a5afc733d">
      <g id="uuid-cf613de2-91ce-427c-a590-e153dcf60b40" data-name="uuid-1ff711ac-b770-4ea3-b912-0d06b5e86d77">
        <g>
          <path class="uuid-dd004691-0368-40de-b1d4-917dcbd0eaae" d="m378.27,186.13s-32.03-23.27-71.77-24.29c-39.74-1.02-68.67,25.19-87.82,51.6l-35.76-2.91s-7.32-7.83-7.79-8.99,20.79-35.62,55.57-54.91c34.78-19.29,97.27-8.68,134.44,14.47,7.75,4.82,15.25,14.22,13.13,25.05h0Z"/>
          <path class="uuid-a09ac449-36f0-41a6-a1b0-026cff03c3ea" d="m240.27,173.14v15.74c17.33-15.91,39.29-27.74,66.23-27.05,39.74,1.02,71.77,24.29,71.77,24.29.64-3.26.39-6.38-.45-9.29-3.7-2.86-10.3-7.26-21.54-12.84-47.35-23.49-93.64-7.7-116.01,9.14h0Z"/>
        </g>
        <g>
          <path class="uuid-a3ff912f-e324-45a0-9281-60e956538a71" d="m240.27,173.14c-1.26-1.71-29.13-2.02-41.47-2.08-15.35,15.32-23.97,29.71-23.67,30.46.47,1.16,7.79,8.99,7.79,8.99l35.76,2.91c7.64-10.53,16.84-21.03,27.66-29.78v-.02s-4.44-8.29-6.06-10.49h0Z"/>
          <path class="uuid-dd004691-0368-40de-b1d4-917dcbd0eaae" d="m212.35,202.8s-26.6-1.28-37.22-1.28c.47,1.16,7.79,8.99,7.79,8.99l35.76,2.91c7.64-10.53,16.84-21.03,27.66-29.78v-.02s-4.44-8.29-6.06-10.49c0,0-19.58,17.26-27.92,29.66h0Z"/>
          <path class="uuid-30d8b157-1c21-48fa-b5d7-0ece5f137a93" d="m185,186.42c20.42-1.06,39.43,2,39.43,2l6.29,10.04"/>
          <line class="uuid-30d8b157-1c21-48fa-b5d7-0ece5f137a93" x1="212.35" y1="202.8" x2="218.68" y2="213.43"/>
          <path class="uuid-376e6322-7969-4122-be77-753d1fcf14ce" d="m193.83,181.84s6.72-6.35,17.84-6.35c14.6,0,11.77,7.7,11.77,7.7,0,0-17.35-2.41-29.6-1.35h0Z"/>
        </g>
      </g>
      <g id="uuid-51e244ce-3b5d-44ad-b4c2-f6898e8efb90" data-name="uuid-642d3bf7-5dd8-435c-9994-b813eab023e0">
        <g>
          <path class="uuid-ea08e133-357c-4d4e-8415-c91c62346e65" d="m209.03,229.78s18.14-4.34,30.33,4.5c12.19,8.85,26.85,29.16,19.59,61.24-7.26,32.07-36.72,33.38-36.72,33.38,0,0,18.87-7.1,23.65-36.13,4.79-29.03-9.21-49.94-36.86-62.99h0Z"/>
          <g>
            <path class="uuid-a09ac449-36f0-41a6-a1b0-026cff03c3ea" d="m205.98,226.01s44.55,14.08,44.26,57.03c-.29,42.96-27.86,52.53-48.91,48.91-21.04-3.63-24.07-16.25-24.07-16.25,0,0,20.19.92,24.22-18.29s-5.22-31.2-18.72-39.04l23.22-32.36h0Z"/>
            <path class="uuid-32d803e3-3354-4086-9818-8d10d6dc95b7" d="m207.74,249.91l8.51-8.15s17.75,9.24,21.92,30.25-.36,0-.36,0l-11.23,2.45s-8.79-16.58-18.84-24.55h0Z"/>
            <g>
              <path class="uuid-dd004691-0368-40de-b1d4-917dcbd0eaae" d="m200.63,273.8l-.88,1.96c2.68,5.96,3.52,13.09,1.73,21.64-2.2,10.52-9.25,14.99-15.18,16.89l25.98,11.38,21.58-.96c9.41-7.35,16.24-20.43,16.39-41.69l-49.61-9.24h0Z"/>
              <g>
                <path class="uuid-30d8b157-1c21-48fa-b5d7-0ece5f137a93" d="m212.28,325.68s9.52-6.91,12.59-17.54c3.06-10.64,2.24-17.24,2.24-17.24l23.13-7.86"/>
                <line class="uuid-30d8b157-1c21-48fa-b5d7-0ece5f137a93" x1="227.11" y1="290.9" x2="202.3" y2="285.63"/>
                <path class="uuid-30d8b157-1c21-48fa-b5d7-0ece5f137a93" d="m220.09,289.41s3.9,20.72-14.93,33.15"/>
              </g>
            </g>
          </g>
        </g>
        <g>
          <ellipse class="uuid-f9b025f3-1de9-4a8c-8f43-f7e49187ec0a" cx="177.27" cy="285.63" rx="28.48" ry="32.98" transform="translate(-82.53 72.29) rotate(-18.78)"/>
          <ellipse class="uuid-34ec47fa-c159-49ae-bc2d-1a97cb5b2f92" cx="177.27" cy="285.63" rx="21.92" ry="25.38" transform="translate(-82.53 72.29) rotate(-18.78)"/>
          <g>
            <ellipse class="uuid-16db945f-1d1d-4cb9-89b0-3101114847fd" cx="167.74" cy="285.29" rx="3.96" ry="4.08" transform="translate(-82.93 69.2) rotate(-18.78)"/>
            <ellipse class="uuid-16db945f-1d1d-4cb9-89b0-3101114847fd" cx="184.62" cy="279.55" rx="3.96" ry="4.08" transform="translate(-80.18 74.33) rotate(-18.78)"/>
            <ellipse class="uuid-16db945f-1d1d-4cb9-89b0-3101114847fd" cx="180.24" cy="294.36" rx="3.96" ry="4.08" transform="translate(-85.18 73.71) rotate(-18.78)"/>
          </g>
        </g>
        <g>
          <path class="uuid-a09ac449-36f0-41a6-a1b0-026cff03c3ea" d="m179.43,233.85l4.62-10.17s3.42.31,6.08-4.39c2.66-4.7-2.63-11.61-7.93-11.23-7.12.5-8.06,7.31-7.9,8.74.17,1.43,2.3,6.55,2.3,6.55l-3.56,8.9,6.39,1.61h0Z"/>
          <path class="uuid-dd004691-0368-40de-b1d4-917dcbd0eaae" d="m219.8,281.24c-.97-3.69-3.34-11.72-14.96-24.67-3.17-3.54-8.81-7.86-7.64-10.22.45-.91,10.5-18.47,10.5-18.47,10.26.4,10.51-16.45,3.04-17.15-3.2-.3-7.74-.74-12.32-1.18-1.22.73-2.46,1.77-3.48,3.24-3.3,4.77-1.47,12.02-1.47,12.02l-2.56,5.11c-.71,1.43-2.23,2.27-3.82,2.13l-8.7-.78c-1.14-.1-1.83-1.32-1.33-2.35l2.99-6.16s-6.37-6.89,2.15-14.7c-5.46-.48-12.65-1.46-14.54,4.37-1.91,5.87,2.13,9.46,2.13,9.46,0,0-1.84,11.31-5.38,20.04-2.57,6.33-13.24,8.82-18.79,20.42-4.46,9.31-5.15,22.7-1.78,31.72,2.4,6.43,10.22,8.56,10.22,8.56-7.97-13.69-8.35-45.29,14.63-48.2,22.98-2.91,35.36,19.7,38.6,27.62,2.62,6.39,7.3,6.96,9.45,6.39,2.81-.74,3.94-3.85,3.06-7.17h0Z"/>
          <path class="uuid-a09ac449-36f0-41a6-a1b0-026cff03c3ea" d="m219.8,281.24c-.97-3.69-3.34-11.72-14.96-24.67-3.17-3.54-8.81-7.86-7.64-10.22.45-.91,10.5-18.47,10.5-18.47,9.82.39,10.47-15.03,3.94-16.96-.18-.05-.36-.1-.55-.12-.05,0-.1-.02-.14-.02-4.61-.55-10.77,6.37-8.38,12.61,0,0-14.28,23.11-15.03,26.15-.76,3.04,9.38,6.71,16.43,16.86,7.05,10.15,7.36,15.5,11.16,17.21,3.8,1.71,4.89-1.12,4.7-2.02-.01-.06-.02-.15-.02-.25,0-.03,0-.06-.02-.08h0Z"/>
          <path class="uuid-a3ff912f-e324-45a0-9281-60e956538a71" d="m187.5,205.43s-3.91,5.3-5.79,9.32c-1.17,2.5,1.01,6.19,2.03,7.65,1.02,1.46,9.51,1.23,9.51,1.23,0,0-.45-3.78,0-6.98s3.06-6.05,5.18-7.1l2.03.2,2.23-3.65-15.18-.65h0Z"/>
        </g>
      </g>
    </g>
  </g>
</svg>