<?xml version="1.0" encoding="UTF-8"?>
<svg id="uuid-cfa177e0-3db8-41e4-8a52-6ff5aa173990" data-name="BACKGROUND" xmlns="http://www.w3.org/2000/svg" viewBox="0 0 600 600">
  <defs>
    <style>
      .uuid-b8723a43-7cc7-4620-9c33-b5aeb61146d3 {
        opacity: .5;
      }

      .uuid-b8723a43-7cc7-4620-9c33-b5aeb61146d3, .uuid-3ef18c27-fb31-42a1-8e43-d208d9f8ba52, .uuid-d66d6b9e-12fb-4ad4-a164-2db1cf7825d1 {
        fill: none;
      }

      .uuid-3ef18c27-fb31-42a1-8e43-d208d9f8ba52, .uuid-d66d6b9e-12fb-4ad4-a164-2db1cf7825d1 {
        stroke: #000;
        stroke-linecap: round;
        stroke-linejoin: round;
      }

      .uuid-d66d6b9e-12fb-4ad4-a164-2db1cf7825d1 {
        stroke-width: 2px;
      }
    </style>
  </defs>
  <g id="uuid-da9cc0e6-3cfe-461e-8a8f-34904e1cffc2" data-name="uuid-df7eda05-8d90-48fe-8005-fe68a29d7cab">
    <g id="uuid-7f73c803-a58b-4b9b-9db5-f7182fa6d44b" data-name="uuid-e789c629-4a7f-4a38-b33d-b89f18fb6b0e">
      <g class="uuid-b8723a43-7cc7-4620-9c33-b5aeb61146d3">
        <g>
          <circle cx="456.94" cy="353.59" r="2.25"/>
          <circle cx="471.2" cy="357.76" r="1.58"/>
          <circle cx="459.7" cy="348.86" r=".79"/>
          <line class="uuid-d66d6b9e-12fb-4ad4-a164-2db1cf7825d1" x1="466.43" y1="354.78" x2="467.45" y2="357.36"/>
          <line class="uuid-d66d6b9e-12fb-4ad4-a164-2db1cf7825d1" x1="470.91" y1="351.75" x2="472.45" y2="353.59"/>
          <line class="uuid-d66d6b9e-12fb-4ad4-a164-2db1cf7825d1" x1="474.02" y1="347.38" x2="476.29" y2="348.16"/>
          <line class="uuid-d66d6b9e-12fb-4ad4-a164-2db1cf7825d1" x1="475.59" y1="341.74" x2="478.11" y2="341.99"/>
          <line class="uuid-d66d6b9e-12fb-4ad4-a164-2db1cf7825d1" x1="475.59" y1="337.29" x2="478.42" y2="336.3"/>
          <g>
            <path class="uuid-d66d6b9e-12fb-4ad4-a164-2db1cf7825d1" d="m485.94,343.29c.16-.15.32-.3.49-.44,3.21-2.69,7.6-2.73,9.8-.1s1.37,6.94-1.84,9.63c-.17.15-.35.28-.53.41"/>
            <path class="uuid-d66d6b9e-12fb-4ad4-a164-2db1cf7825d1" d="m490.83,354.2c-2.39.58-4.8.01-6.25-1.72-1.45-1.74-1.59-4.2-.58-6.45"/>
            <path class="uuid-d66d6b9e-12fb-4ad4-a164-2db1cf7825d1" d="m489.14,341.28c-2.26-2.7-4.88-3.71-6.29-2.97-1.85.97-1.6,4.94,4.32,12.01,6.04,7.22,10.01,8.14,11.22,6.37.88-1.28.31-3.98-1.98-6.71"/>
            <path class="uuid-d66d6b9e-12fb-4ad4-a164-2db1cf7825d1" d="m484.96,340.63c-.2.5.71,3.05,4.61,7.71,3.85,4.61,6.24,6.02,6.81,5.97"/>
          </g>
          <polygon points="489.53 359.14 491.48 359.75 492.95 358.66 492.48 360.34 493.53 361.96 491.92 361.32 490.18 362.32 490.83 360.72 489.53 359.14"/>
          <polygon points="479.87 350.73 480.59 352.64 482.36 353.13 480.74 353.79 480.12 355.62 479.63 353.95 477.76 353.21 479.42 352.73 479.87 350.73"/>
          <polygon points="490.55 335.71 490.93 336.72 491.86 336.98 491.01 337.33 490.68 338.29 490.42 337.41 489.44 337.02 490.32 336.77 490.55 335.71"/>
          <polygon points="486.04 333.73 486.42 334.73 487.35 334.99 486.5 335.34 486.17 336.3 485.91 335.42 484.93 335.03 485.81 334.78 486.04 333.73"/>
          <path class="uuid-d66d6b9e-12fb-4ad4-a164-2db1cf7825d1" d="m435.59,358.22s1.41,5.62,1.63,6.57c.36,1.52-1.99,4.3,0,5.28,1.99.98,2.71-4.7,3.62-4.7s0,3.34,1.47,3.24,1.19-4.25,2.2-6.4c1.01-2.15,2.98-5.03,3.59-4.85s-.33,3.11.99,3.11,1.42-4.73,2.28-6.8c.86-2.07,2.93-5.01,2.93-5.01,0,0-5.21-4.1-12.49-5.87"/>
          <path class="uuid-d66d6b9e-12fb-4ad4-a164-2db1cf7825d1" d="m454.3,348.66c2.88.86,3.64-3.79,2.17-5.61"/>
          <path class="uuid-3ef18c27-fb31-42a1-8e43-d208d9f8ba52" d="m444.64,351.72s-.3,2.44,1.09,2.79c1.32.34,1.49-1.54,1.49-1.54"/>
          <path class="uuid-3ef18c27-fb31-42a1-8e43-d208d9f8ba52" d="m439.03,360.8s-.03,2.53,1.31,2.53,1.52-1.72,1.52-1.72"/>
          <circle class="uuid-3ef18c27-fb31-42a1-8e43-d208d9f8ba52" cx="441.73" cy="356.91" r="2.24"/>
          <circle class="uuid-3ef18c27-fb31-42a1-8e43-d208d9f8ba52" cx="448.54" cy="348.77" r="2.24"/>
          <circle class="uuid-3ef18c27-fb31-42a1-8e43-d208d9f8ba52" cx="441.33" cy="347.81" r="2.24"/>
          <path class="uuid-d66d6b9e-12fb-4ad4-a164-2db1cf7825d1" d="m452.89,369.39c-2.97-4.45-.67-11.34,6.38-11.03s6.91,9.4,1.96,12.1c0,0,.15,3.78-1.54,3.94s-1.77-2.53-1.77-2.53c0,0-.25,2.93-1.69,2.93s-1.44-2.91-1.44-2.91c0,0-1.29,2.4-2.3,1.79s.41-4.3.41-4.3h0Z"/>
          <path d="m454.84,363.98c2.12-.1,1.2,3.87-.12,3.72s-1.34-3.65.12-3.72Z"/>
          <path d="m458.38,363.98c2.12-.1,1.2,3.87-.12,3.72s-1.34-3.65.12-3.72Z"/>
          <path class="uuid-3ef18c27-fb31-42a1-8e43-d208d9f8ba52" d="m452.45,368.65s-1.59.54-2.68,1.15-1.57,1.77-2.68,1.54c-1.11-.23-1.31-3.05.46-3.64-1.87-.91-1.21-3.39.83-2.73,2.05.66,3.26.87,3.26.87"/>
          <path class="uuid-3ef18c27-fb31-42a1-8e43-d208d9f8ba52" d="m464.77,364.12s.37-.19,1.43-.84,1.49-1.84,2.61-1.66c1.12.18,1.45,2.99-.3,3.65,1.91.83,1.36,3.34-.71,2.77s-3.3-.73-3.3-.73"/>
          <polygon class="uuid-d66d6b9e-12fb-4ad4-a164-2db1cf7825d1" points="471.72 367.45 477.43 362.52 475.23 355.24 480.64 360.8 487.27 358.34 482.73 363.48 483.27 366.24 480.57 367.45 479.21 365.67 471.72 367.45"/>
          <path class="uuid-d66d6b9e-12fb-4ad4-a164-2db1cf7825d1" d="m465.64,339.6s-5.81,8.05-1.14,15.89c0,0,12.97-3.08,10.86-19.19"/>
          <path class="uuid-d66d6b9e-12fb-4ad4-a164-2db1cf7825d1" d="m464.5,355.49s2.34-9.66,6.41-17.67"/>
          <path d="m466.16,349.71c3.8,0,8.34-6.47,4.25-10.69l-4.25,10.69Z"/>
        </g>
        <g>
          <path class="uuid-d66d6b9e-12fb-4ad4-a164-2db1cf7825d1" d="m187.2,411.38c-.39,0-.77.04-1.15.1,1.97.69,3.39,2.54,3.39,4.74,0,2.78-2.26,5.04-5.04,5.04-2.2,0-4.05-1.42-4.74-3.39-.06.38-.1.76-.1,1.15,0,4.22,3.42,7.63,7.63,7.63s7.63-3.42,7.63-7.63-3.42-7.63-7.63-7.63h0Z"/>
          <circle cx="182.72" cy="414.55" r="1.79"/>
          <circle cx="202.81" cy="377.76" r="1.79"/>
          <circle cx="226.98" cy="350.5" r="1.26"/>
          <circle cx="227.31" cy="346.96" r="1.26"/>
          <circle cx="230.42" cy="348.73" r="1.26"/>
          <circle cx="204.15" cy="383.07" r=".79"/>
          <circle cx="188.24" cy="385.47" r=".79"/>
          <circle cx="193.15" cy="402.91" r="1.86"/>
          <polyline class="uuid-d66d6b9e-12fb-4ad4-a164-2db1cf7825d1" points="167.11 412.5 189.56 406.71 184.75 387.34 172.72 390.32"/>
          <polyline class="uuid-d66d6b9e-12fb-4ad4-a164-2db1cf7825d1" points="168.47 407.03 184.7 402.92 182.02 391.69 171.68 394.38"/>
          <polyline class="uuid-d66d6b9e-12fb-4ad4-a164-2db1cf7825d1" points="170.66 398.39 175.81 397.05 176.74 400.78 169.58 402.64"/>
          <line class="uuid-d66d6b9e-12fb-4ad4-a164-2db1cf7825d1" x1="178.33" y1="404.53" x2="182.59" y2="408.51"/>
          <line class="uuid-3ef18c27-fb31-42a1-8e43-d208d9f8ba52" x1="167.84" y1="409.74" x2="176.99" y2="407.44"/>
          <path class="uuid-d66d6b9e-12fb-4ad4-a164-2db1cf7825d1" d="m205.84,374.96s-.35-10.78.3-15.52c.96-6.93,11.93-10.21,13.25,2.17,0,0,8.54-.91,8.24,6.93-.3,7.84-21.79,6.42-21.79,6.42h0Z"/>
          <line class="uuid-d66d6b9e-12fb-4ad4-a164-2db1cf7825d1" x1="231.71" y1="363.58" x2="234.81" y2="366.21"/>
          <polyline class="uuid-d66d6b9e-12fb-4ad4-a164-2db1cf7825d1" points="227.42 366.21 234.81 366.21 231.84 369.24"/>
          <polyline class="uuid-d66d6b9e-12fb-4ad4-a164-2db1cf7825d1" points="198.14 363.58 201.04 366.21 205.76 366.21"/>
          <line class="uuid-d66d6b9e-12fb-4ad4-a164-2db1cf7825d1" x1="198.14" y1="368.77" x2="201.04" y2="366.21"/>
          <polyline class="uuid-d66d6b9e-12fb-4ad4-a164-2db1cf7825d1" points="212.08 390.32 205.48 391.69 207.82 381.38 220.85 378.01 218.7 384.85"/>
          <polyline class="uuid-d66d6b9e-12fb-4ad4-a164-2db1cf7825d1" points="220.85 378.01 211.08 386.16 205.48 391.69"/>
          <polyline class="uuid-d66d6b9e-12fb-4ad4-a164-2db1cf7825d1" points="207.82 381.38 211.08 386.16 214.52 387.78"/>
          <polygon points="181.67 385.68 182.73 380.67 188.24 378.01 182.18 377.64 181.27 373.44 179.46 374.61 179.46 378.5 174.8 382.38 179.6 382.24 181.67 385.68"/>
          <path class="uuid-d66d6b9e-12fb-4ad4-a164-2db1cf7825d1" d="m200.78,411.95c-4.13.25-4.67-2.83-3.25-12.59-7.35-2.41-6.94-7.47-5.39-11.21,1.55-3.74-1.69-8.26-2.06-9.81-.37-1.55.67-4.89,1.28-4.9.42-.01.87,1.45,1.11,2.37.11.42.49.72.93.72h1.13c.41,0,.77-.26.9-.64.34-.98,1-2.74,1.27-2.77.37-.03,1.72,2.66,1.72,4.45s-.37,3.74.13,5.09,4.96,6.44,4.28,11.06-5.29,5.65-5.29,5.65"/>
          <path class="uuid-d66d6b9e-12fb-4ad4-a164-2db1cf7825d1" d="m193.15,408.93s3.3-5.26,9.17-2.69"/>
          <line class="uuid-3ef18c27-fb31-42a1-8e43-d208d9f8ba52" x1="209.07" y1="375.05" x2="209.07" y2="370.51"/>
          <line class="uuid-3ef18c27-fb31-42a1-8e43-d208d9f8ba52" x1="211.99" y1="370" x2="212.13" y2="375.01"/>
          <line class="uuid-3ef18c27-fb31-42a1-8e43-d208d9f8ba52" x1="215.43" y1="374.81" x2="214.86" y2="370"/>
          <line class="uuid-3ef18c27-fb31-42a1-8e43-d208d9f8ba52" x1="218.76" y1="374.38" x2="217.89" y2="369.65"/>
          <line class="uuid-3ef18c27-fb31-42a1-8e43-d208d9f8ba52" x1="222.26" y1="373.56" x2="220.85" y2="369.24"/>
          <line class="uuid-3ef18c27-fb31-42a1-8e43-d208d9f8ba52" x1="225.08" y1="372.32" x2="223.15" y2="368.3"/>
          <line class="uuid-3ef18c27-fb31-42a1-8e43-d208d9f8ba52" x1="227.42" y1="369.67" x2="224.77" y2="366.78"/>
          <line class="uuid-3ef18c27-fb31-42a1-8e43-d208d9f8ba52" x1="219.39" y1="361.61" x2="215.6" y2="363.07"/>
          <line class="uuid-3ef18c27-fb31-42a1-8e43-d208d9f8ba52" x1="218.9" y1="358.92" x2="214.86" y2="360.58"/>
          <line class="uuid-3ef18c27-fb31-42a1-8e43-d208d9f8ba52" x1="217.89" y1="356.43" x2="213.95" y2="358.62"/>
          <line class="uuid-3ef18c27-fb31-42a1-8e43-d208d9f8ba52" x1="215.6" y1="354.01" x2="212.9" y2="357.01"/>
          <line class="uuid-3ef18c27-fb31-42a1-8e43-d208d9f8ba52" x1="211.99" y1="353.34" x2="211.32" y2="356.43"/>
          <circle class="uuid-d66d6b9e-12fb-4ad4-a164-2db1cf7825d1" cx="230.42" cy="351.71" r="8.87"/>
        </g>
      </g>
    </g>
  </g>
</svg>