<?xml version="1.0" encoding="UTF-8"?>
<svg id="uuid-e5f4d499-d911-449a-9f28-d61e0a90a290" data-name="COCOBAY" xmlns="http://www.w3.org/2000/svg" viewBox="0 0 600 600">
  <defs>
    <style>
      .uuid-8bb8ce35-08dc-497d-9707-d24b1be81a96 {
        fill: #ff78d8;
      }

      .uuid-8bb8ce35-08dc-497d-9707-d24b1be81a96, .uuid-eba2774e-3ab7-41f1-885a-71b73c1dfb6c {
        stroke: #000;
        stroke-linecap: round;
        stroke-linejoin: round;
        stroke-width: 2px;
      }

      .uuid-eba2774e-3ab7-41f1-885a-71b73c1dfb6c {
        fill: #7aa6ff;
      }
    </style>
  </defs>
  <g id="uuid-2b0117f1-1776-4845-a0f5-c237a6ca9f96" data-name="OBJECT LEFT">
    <g id="uuid-0881513b-7c8c-44a0-be29-2e98fb16f773" data-name="Capa 66">
      <g id="uuid-4ea92ad2-89cb-4935-9ee1-ea64959099a6" data-name="Capa 68">
        <g>
          <path class="uuid-eba2774e-3ab7-41f1-885a-71b73c1dfb6c" d="M505.77586,307.90438s-4.59063-35.12589-27.12655-66.81584-85.22579-42.9164-85.22579-42.9164l-6.18674-5.31796s71.29623,10.02361,95.45026,45.44953c24.72593,36.2647,27.5887,68.55775,27.5887,68.55775l-4.49988,1.04292Z"/>
          <path class="uuid-8bb8ce35-08dc-497d-9707-d24b1be81a96" d="M520.68359,366.21698h0c.19235,3.162-2.21502,5.88123-5.37701,6.07358l-.42155,.02564c-3.16199,.19235-5.88122-2.21502-6.07357-5.377h0c-.19235-3.162,2.21502-5.88123,5.37701-6.07358"/>
          <g>
            <path class="uuid-8bb8ce35-08dc-497d-9707-d24b1be81a96" d="M209.78986,442.76195l-10.46582-3.07861h0c-2.146,1.29688-3.42041,3.24609-4.07275,4.88867-.65283,1.64258-1.36328,4.55566-1.30713,5.92676l12.48926,3.67383c3.15088,.92676,6.45654-.87646,7.3833-4.02734,.92725-3.15088-.87598-6.45654-4.02686-7.3833Z"/>
            <path class="uuid-8bb8ce35-08dc-497d-9707-d24b1be81a96" d="M155.06477,426.68969c-2.99854-.61865-6.02051,1.15332-6.8999,4.14307-.92676,3.15088,.87598,6.45703,4.02686,7.38379,.65479-2.81201,1.9917-9.48486,2.87305-11.52686Z"/>
            <rect class="uuid-8bb8ce35-08dc-497d-9707-d24b1be81a96" x="202.36707" y="442.79083" width="11.89408" height="11.47175" rx="5.73587" ry="5.73587" transform="translate(-280.76938 521.79544) rotate(-73.60794)"/>
          </g>
          <path class="uuid-eba2774e-3ab7-41f1-885a-71b73c1dfb6c" d="M174.51163,242.11103c-21.63431,3.44916-53.44305-10.17255-83.85427-12.00016-31.13802-1.87129-60.78779,11.07955-40.27565,52.10382s59.59,52.70271,114.23911,56.59552,97.91924,20.21269,101.66233,58.84138-34.37009,58.10846-57.96904,52.9825c-2.92164-.63461-2.04762-4.32989,.90293-3.82745,10.1008,1.72006,47.11899-2.22593,52.61059-38.59253s-29.44898-61.1709-96.95015-65.11373-99.58585-20.43752-119.06356-59.62101c-17.82395-35.8566-2.2585-59.81334,45.88924-58.16119,23.43208,.80405,48.13457,11.53199,84.89582,12.47535l-2.08735,4.3175Z"/>
          <g>
            <path class="uuid-8bb8ce35-08dc-497d-9707-d24b1be81a96" d="M502.55305,311.89574c.03857,.01855,.07227,.03174,.11133,.05078,2.71045,1.34375,4.95312,4.08545,4.95312,4.08545,0,0,3.46582-4.63721,6.70557-5.89893h0l-.06934-.61426c-.37061-3.26367-3.31689-5.60889-6.58008-5.23828-3.26367,.37061-5.60889,3.31689-5.23828,6.58008l.11768,1.03516Z"/>
            <path class="uuid-8bb8ce35-08dc-497d-9707-d24b1be81a96" d="M520.35383,363.23949c-6.51904-1.26514-10.50146-5.36279-10.33984-10.27148,.1748-5.32227,6.10596-8.75146,6.10596-8.75146,0,0-3.23828-1.2666-4.23779-5.02734-1.41602-5.33008,2.67822-9.45508,2.67822-9.45508-4.23438-.66846-6.24707-2.89746-6.24707-2.89746,0,0-1.95117,2.44775-3.70215,3.18311l4.20361,37.01953c.37061,3.26367,3.31641,5.6084,6.58008,5.23828,3.26318-.37061,5.6084-3.31689,5.23779-6.58008l-.27881-2.45801Z"/>
          </g>
        </g>
      </g>
    </g>
  </g>
</svg>