<?xml version="1.0" encoding="UTF-8"?>
<svg id="uuid-278ad76e-99a4-4f28-86d5-5f3a4095a0bc" data-name="COCOBAY" xmlns="http://www.w3.org/2000/svg" viewBox="0 0 600 600">
  <defs>
    <style>
      .uuid-0398b6b6-e719-426a-b1e0-abb4d5bc0a3b {
        fill: #fff;
      }

      .uuid-65411eac-5eaf-48d6-9b4f-b1cfc6a21e1a {
        fill: #f9a723;
      }

      .uuid-65411eac-5eaf-48d6-9b4f-b1cfc6a21e1a, .uuid-216da9c9-a3cd-4544-be34-118c931b024e {
        stroke: #000;
        stroke-miterlimit: 10;
        stroke-width: 2px;
      }

      .uuid-216da9c9-a3cd-4544-be34-118c931b024e {
        fill: none;
        stroke-linecap: round;
      }

      .uuid-cc1355ae-5308-463f-a67b-669c1e8f77be {
        fill: #ff78d8;
      }
    </style>
  </defs>
  <g id="uuid-8de83718-1db4-4a02-9999-118026b6dec4" data-name="SOMBRERO DE PAJA">
    <path class="uuid-0398b6b6-e719-426a-b1e0-abb4d5bc0a3b" d="M222.81,233.46c-7.47,.95-14.49,1.36-20.76,1.12-.27-11.09-9.78-18.04-9.78-18.04l1.23-.33,19.13-5.13s2.35,.81,4.81,4.3c2.28,3.23,4.67,8.76,5.37,18.08Z"/>
    <path class="uuid-cc1355ae-5308-463f-a67b-669c1e8f77be" d="M211.42,230.16s8.04-11.57,1.28-12.13c-3.01-.25-4.18,2.43-4.18,2.43,0,0-3.29-2.24-5.46-.67-3.17,2.29,2.3,8.23,8.36,10.38Z"/>
    <path class="uuid-65411eac-5eaf-48d6-9b4f-b1cfc6a21e1a" d="M394.16,173.91c-.37-1.41-.83-2.84-1.39-4.29-8.3-21.64-57.85-15.37-57.85-15.37,0,0-2.54-4.61-6.19-11.03-2.76-4.84-6.16-10.72-9.58-16.41-7.96-13.21-36-15.64-81.91,2.57-45.91,18.2-63.44,36-60.64,51.77,.92,5.2,1.78,10.15,2.52,14.46,1.5,8.78,2.5,14.87,2.5,14.87,0,0-35.1,17.82-32,48.64,.16,1.68,.44,3.4,.85,5.16,7.89,33.97,94.12,17.86,155.06-8.84,58.42-25.58,97.31-48.87,88.63-81.53Zm-192.11,60.67c-.27-11.09-9.78-18.04-9.78-18.04l1.23-.33,19.13-5.13s2.35,.81,4.81,4.3c2.28,3.23,4.67,8.76,5.37,18.08-7.47,.95-14.49,1.36-20.76,1.12Z"/>
    <path class="uuid-216da9c9-a3cd-4544-be34-118c931b024e" d="M179.9,178.22c13.45,18.3,136.62-23.76,136.21-47.43"/>
    <path class="uuid-216da9c9-a3cd-4544-be34-118c931b024e" d="M239.46,141.31c-42.81,18.61-45.4,26.65-44.22,28.52s7.82,6.88,54.34-9.51,53.34-29.17,51.67-31.25c-1.82-2.26-24.57-3.94-61.79,12.24Z"/>
    <path class="uuid-216da9c9-a3cd-4544-be34-118c931b024e" d="M232.14,144.57c-15.34,7.46-20.29,14.04-19.07,16.06s13.35-1.52,34.08-9,24.72-9.61,24.07-11.17-10.56,.67-21.84,4.85c-22.75,8.44-20.82,12.71-14.4,10.59"/>
    <path class="uuid-216da9c9-a3cd-4544-be34-118c931b024e" d="M181.62,210.48s2.15,11.93,3.24,20.97c.91,7.57-14.9,25.69-14.9,25.69"/>
    <path class="uuid-216da9c9-a3cd-4544-be34-118c931b024e" d="M334.92,154.25c5.11,9.35,12.24,22.35,15.72,24.83s24.52,1.62,24.52,1.62"/>
    <path class="uuid-216da9c9-a3cd-4544-be34-118c931b024e" d="M149.62,259.12c4.63,19.51,49.94,26.79,146.74-7.72s97.8-77.49,97.8-77.49"/>
    <path class="uuid-216da9c9-a3cd-4544-be34-118c931b024e" d="M217.44,215.38c48.18-6.15,117.5-35.63,120.19-56.19"/>
    <path class="uuid-216da9c9-a3cd-4544-be34-118c931b024e" d="M193.5,216.21c-4.31-.4-8.12-1.19-11.3-2.42"/>
    <path class="uuid-216da9c9-a3cd-4544-be34-118c931b024e" d="M179.12,195.62s23.05,11.83,80.8-8.93,68.82-43.46,68.82-43.46"/>
    <path class="uuid-216da9c9-a3cd-4544-be34-118c931b024e" d="M347.75,175.89h0c-5.52,21-75.26,51.25-124.94,57.57"/>
    <path class="uuid-216da9c9-a3cd-4544-be34-118c931b024e" d="M202.05,234.58c-6.68-.26-12.53-1.26-17.19-3.14"/>
    <path class="uuid-216da9c9-a3cd-4544-be34-118c931b024e" d="M176.3,249.14s29.45,17.84,111.16-13.41,78.81-54.89,78.81-54.89"/>
    <path class="uuid-216da9c9-a3cd-4544-be34-118c931b024e" d="M173.63,252.65c-10.48-4.15,10.59-26.01,10.59-26.01"/>
    <path class="uuid-216da9c9-a3cd-4544-be34-118c931b024e" d="M344.53,171.1c19.42-1.98,25.49,5.04,25.99,9.72"/>
  </g>
</svg>