<?xml version="1.0" encoding="UTF-8"?>
<svg id="uuid-9538d507-874e-4407-a1a0-163a59619a55" data-name="COCOBAY" xmlns="http://www.w3.org/2000/svg" viewBox="0 0 600 600">
  <defs>
    <style>
      .uuid-6760a101-038f-4caf-9ebe-f7ea8f6c51ba {
        fill: #fff7f0;
      }

      .uuid-6760a101-038f-4caf-9ebe-f7ea8f6c51ba, .uuid-a1873e0b-6147-4fbc-aa75-8b2423c2ee7a, .uuid-8ae4b6a1-2162-4f1b-aa33-f9d51e824cc8, .uuid-99d89b5d-7eaa-44c7-9062-9bfe3166924e, .uuid-410d7e51-df0a-45af-9436-885a7ba8abfb {
        stroke: #000;
        stroke-linecap: round;
        stroke-linejoin: round;
        stroke-width: 2px;
      }

      .uuid-a1873e0b-6147-4fbc-aa75-8b2423c2ee7a {
        fill: #ff78d8;
      }

      .uuid-8ae4b6a1-2162-4f1b-aa33-f9d51e824cc8 {
        fill: #00dfa9;
      }

      .uuid-99d89b5d-7eaa-44c7-9062-9bfe3166924e {
        fill: #7aa6ff;
      }

      .uuid-410d7e51-df0a-45af-9436-885a7ba8abfb {
        fill: none;
      }
    </style>
  </defs>
  <g id="uuid-b8bfb0a7-7d14-4e74-a715-74fd73e46636" data-name="HATS A">
    <g id="uuid-1a4caf1f-69b2-4696-bdc7-92aadbd40835" data-name="Capa 24">
      <g id="uuid-2bda3076-4dd4-4bb9-a82e-29d518d69d14" data-name="Capa 23">
        <g>
          <path class="uuid-99d89b5d-7eaa-44c7-9062-9bfe3166924e" d="M434.7,269.14s6.7-5.77,7.21-10.62-19.62-82.62-62.9-117-128.63-31.15-180,1.62-63.51,74.83-55.82,132.67,15.64,55.69,26.43,58.38,94.74-16.44,113.26-22.38c11.33-3.63,13.11-8.49,12.3-18.71s-3.62-26.19-3.48-32.36,39.31-19.72,71.13-31.18,45.58-15.21,45.58-15.21c0,0,10.89,14.72,17.54,28.79s8.75,26,8.75,26Z"/>
          <g>
            <path class="uuid-410d7e51-df0a-45af-9436-885a7ba8abfb" d="M439.4,246.59c-13.73-32.13-26.14-44.27-28.83-44.81s-27.1,7.48-61.28,19.21-65.87,23.93-68.83,32.43,2.02,36.94,2.56,45.71-2.5,13.42-4.4,13.95"/>
            <path class="uuid-410d7e51-df0a-45af-9436-885a7ba8abfb" d="M252,300s-7.29,9.38-9.98,10.86-42.06,12.13-56.35,8.49-16.18-50.43-15.51-55.55,11.73-16.58,11.73-16.58"/>
            <line class="uuid-410d7e51-df0a-45af-9436-885a7ba8abfb" x1="224.5" y1="251.03" x2="231.78" y2="241.22"/>
          </g>
          <g>
            <path class="uuid-8ae4b6a1-2162-4f1b-aa33-f9d51e824cc8" d="M178.65,265.42c-4.02,8.72,2.7,41.8,10.92,45.71s36.54-1.48,42.2-9.3-2.02-41.26-9.44-46.25-39.64,1.08-43.69,9.84Z"/>
            <g>
              <path class="uuid-410d7e51-df0a-45af-9436-885a7ba8abfb" d="M186.31,259.41c.16,31.36,12.03,53.02,12.03,53.02"/>
              <line class="uuid-410d7e51-df0a-45af-9436-885a7ba8abfb" x1="192.33" y1="297.49" x2="233.46" y2="287.14"/>
              <line class="uuid-410d7e51-df0a-45af-9436-885a7ba8abfb" x1="187.64" y1="277.03" x2="229.04" y2="267.19"/>
            </g>
          </g>
        </g>
      </g>
      <g>
        <g>
          <path class="uuid-8ae4b6a1-2162-4f1b-aa33-f9d51e824cc8" d="M228.64,179.44c-.76,3.48,8.03,51.89,35.09,56.31,12.81,2.09,54.53-16.39,57.13-18.03,9.91-6.27,13.44-27.69,13.44-27.69l-90.02-32.77c-7.18,8.24-15.02,19.33-15.64,22.18Z"/>
          <path class="uuid-8ae4b6a1-2162-4f1b-aa33-f9d51e824cc8" d="M330.13,129.03c-7.18,8.24-16.68,20.95-16.82,21.75-.08,.48,6.45,17.4,18.33,31.95,8.39-7.89,18.49,17.35,29.27,19.11,12.81,2.09,43.2-10.7,45.8-12.35,9.91-6.27,13.39-26.85,13.39-26.85l-89.97-33.61Z"/>
        </g>
        <path class="uuid-6760a101-038f-4caf-9ebe-f7ea8f6c51ba" d="M379.48,114.87c15.95,2.4,39.71,39.98,40.65,47.12s-53.44,21.99-58.31,20.22-18.67-21.03-24.74-19.69-.4,23.16-3.37,29.49-54.34,24.57-63.1,24.17-31.55-41.06-26.83-57.74,117.78-46.28,135.71-43.58Z"/>
        <path class="uuid-a1873e0b-6147-4fbc-aa75-8b2423c2ee7a" d="M255.54,162.5c-2.18,6.56,12.88,39.03,17.19,40.25s48.84-14.46,49.92-16.89-.43-22.45,1.48-29.66c1.21-4.58,12.27-6.88,16.99-5.8s24.94,20.49,26.97,20.9,38.22-10.31,39.17-12.2-22.82-32.46-28.89-34.62-31.11,2.73-63.88,12.44-57.27,20.53-58.96,25.58Z"/>
        <path class="uuid-8ae4b6a1-2162-4f1b-aa33-f9d51e824cc8" d="M366.82,124.54c13.67,13.71,27.1,31.22,32.17,38.03,4.63-1.58,7.99-2.91,8.26-3.46,.94-1.89-22.82-32.46-28.89-34.62-1.97-.7-5.96-.65-11.55,.06Z"/>
        <path class="uuid-8ae4b6a1-2162-4f1b-aa33-f9d51e824cc8" d="M324.14,156.2h0s-6.4,16.92-7.52,19.75c-.78,1.98-2.08,9.73-2.8,14.22,5.03-2.01,8.54-3.65,8.83-4.31,1.08-2.43-.43-22.45,1.48-29.66h0Z"/>
      </g>
      <g>
        <path class="uuid-a1873e0b-6147-4fbc-aa75-8b2423c2ee7a" d="M138.93,246.08c51.8-6.75,108.9-28.89,108.9-28.89,0,0-3.86-6.08-7.15-13.38s-5.85-15.55-5.85-15.55c0,0-12.3,5.58-34.23,12.48-6.82-1.86-12.69-.55-19.53,5.17-12.9,3.55-27.05,6.91-41.38,9.37-2.1,.36-3.79,1.89-4.34,3.94-.68,2.51-1.52,6.32-2.01,11.12-.4,3.9-.52,7.51-.53,10.35-.01,3.28,2.87,5.83,6.12,5.41Z"/>
        <g>
          <path class="uuid-410d7e51-df0a-45af-9436-885a7ba8abfb" d="M133.92,225.82c21.91-3.2,49.46-11.43,49.46-11.43,0,0,4.36-4.24,9.23-5.62s10.33,.57,10.33,.57c0,0,11.86-2.55,34.97-12.27"/>
          <path class="uuid-410d7e51-df0a-45af-9436-885a7ba8abfb" d="M132.89,236.55s23.95-4.05,46.69-9.24l6.87-1.66s7.41-9.37,19.46-5.07c0,0,23.47-7.3,36.32-12.8"/>
          <path class="uuid-410d7e51-df0a-45af-9436-885a7ba8abfb" d="M188.45,236.11c5-8.25,14.74-9.9,21.38-6.02"/>
        </g>
        <path class="uuid-6760a101-038f-4caf-9ebe-f7ea8f6c51ba" d="M198.54,194.81l-18.69,5.1c-3.82,1.04-6.07,5.12-5,9.07l7.5,27.49c1.08,3.94,5.09,6.32,8.91,5.27l18.69-5.1c3.82-1.04,6.07-5.12,5-9.07l-7.5-27.49c-1.08-3.94-5.09-6.32-8.91-5.27Zm9.39,32.83c.43,1.58-.46,3.2-1.99,3.62l-13.94,3.8c-1.53,.42-3.12-.52-3.55-2.1l-7.34-26.91s8.1-8.69,19.48-5.32l7.34,26.91Z"/>
      </g>
    </g>
  </g>
</svg>