<?xml version="1.0" encoding="UTF-8"?>
<svg id="uuid-60c5d724-d837-460e-a190-5f6a6f1d1478" data-name="COCOBAY" xmlns="http://www.w3.org/2000/svg" viewBox="0 0 600 600">
  <defs>
    <style>
      .uuid-8b34e262-4b93-4b62-b059-d03a38437e83 {
        fill: #ff78d8;
      }

      .uuid-8b34e262-4b93-4b62-b059-d03a38437e83, .uuid-d33d49eb-c860-44c6-a9cb-0ea848d65429, .uuid-e2534a19-2504-4b0f-81a5-cff27dc567d3 {
        stroke: #000;
        stroke-linecap: round;
        stroke-linejoin: round;
        stroke-width: 2px;
      }

      .uuid-d33d49eb-c860-44c6-a9cb-0ea848d65429 {
        fill: #00dfa9;
      }

      .uuid-e2534a19-2504-4b0f-81a5-cff27dc567d3 {
        fill: none;
      }
    </style>
  </defs>
  <g id="uuid-cf5c384c-56be-4047-b09e-8fa456ae6f54" data-name="HATS B">
    <g id="uuid-4260774e-7531-4491-80c5-0b19b5b0241d" data-name="Capa 31">
      <g>
        <path class="uuid-8b34e262-4b93-4b62-b059-d03a38437e83" d="M201.9176,231.707s-2.8036-9.0933,2.1515-14.9585c0,0-6.1602-4.4507-6.8341-14.2553-.9524-13.8571,8.7554-19.3177,8.7554-19.3177,0,0-8.2805-17.2702,7.1798-29.427,11.8315-9.3034,25.9888-2.2247,25.9888-2.2247,0,0,6.0535-13.0724,20.427-14.3596,13.5506-1.2135,18,5.764,18,5.764,0,0,16.3654-12.5758,27.6067,7.7865,0,0,14.3596,.6067,11.5281,11.5281,0,0,12.7416-3.4382,19.3146,8.4944s-.7736,20.2902-.7736,20.2902c0,0-10.8531,13.7622-61.6184,30.6629s-70.3716,14.4583-71.7258,10.0166Z"/>
        <g>
          <path class="uuid-e2534a19-2504-4b0f-81a5-cff27dc567d3" d="M205.9905,183.1755c10.4157-6.4719,20.8315-4.6517,20.8315-4.6517,0,0,2.0021-10.0529,15.7832-13.3341,14.8652-3.5393,23.4527,5.4464,23.4527,5.4464"/>
          <path class="uuid-e2534a19-2504-4b0f-81a5-cff27dc567d3" d="M229.7257,172.8593c-6.4431,.406-8.9712-4.0434-8.9712-4.0434"/>
          <path class="uuid-e2534a19-2504-4b0f-81a5-cff27dc567d3" d="M239.159,151.5238c-2.8315,5.3596-2.1236,9.7079-2.1236,9.7079"/>
          <path class="uuid-e2534a19-2504-4b0f-81a5-cff27dc567d3" d="M302.4624,169.3215c11.9326,5.3596,9.9101,17.8989,9.9101,17.8989"/>
          <path class="uuid-e2534a19-2504-4b0f-81a5-cff27dc567d3" d="M323.3281,200.1194c-7.5174-15.326-23.265-15.326-23.265-15.326"/>
          <path class="uuid-e2534a19-2504-4b0f-81a5-cff27dc567d3" d="M294.3895,193.4092s-2.1406,12.3168-17.7136,14.9461-23.3596-8.8989-23.3596-8.8989"/>
          <path class="uuid-e2534a19-2504-4b0f-81a5-cff27dc567d3" d="M261.4709,206.2316c-3.8063,5.9663-3.5029,12.5393-3.5029,12.5393"/>
          <path class="uuid-e2534a19-2504-4b0f-81a5-cff27dc567d3" d="M244.1913,230.3022c-13.8301-6.3739-4.9312-22.3514-4.9312-22.3514"/>
          <path class="uuid-e2534a19-2504-4b0f-81a5-cff27dc567d3" d="M236.4438,218.4632c-10.3297-2.5237-16.9027,7.0831-16.9027,7.0831"/>
          <path class="uuid-e2534a19-2504-4b0f-81a5-cff27dc567d3" d="M204.0691,216.7485c1.8876-2.5955,5.3933-3.9101,5.3933-3.9101"/>
          <path class="uuid-e2534a19-2504-4b0f-81a5-cff27dc567d3" d="M289.9076,201.674c2.9143,4.4565,9.0154,3.1925,9.0154,3.1925"/>
        </g>
        <g>
          <g>
            <g>
              <path class="uuid-d33d49eb-c860-44c6-a9cb-0ea848d65429" d="M198.4062,193.5912s-2.8989-10.0787-22.7191-17.8989-31.5506,.4419-48-4.3633-20.8989-12.9625-22.1798-15.5243-3.4382-1.7528-3.573,.8764,1.2809,15.9775,.4045,17.5281-9.0337,3.5056-11.5955,3.7753-3.9775,3.236,3.8427,6.4045,17.1573,5.5618,33.8427,3.8427,25.0787-7.6854,42.6742-4.8539,25.0787,17.3933,25.0787,17.3933l2.2247-7.1798Z"/>
              <path class="uuid-d33d49eb-c860-44c6-a9cb-0ea848d65429" d="M102.3388,174.2092c8.3596,4.9213,22.6517,5.4607,22.6517,5.4607"/>
            </g>
            <g>
              <path class="uuid-d33d49eb-c860-44c6-a9cb-0ea848d65429" d="M194.0095,200.9732c-15.7269-11.7303-32.0078-7.2809-36.4573,2.6292s-4.5664,16.5078-11.7978,31.3653c-7.5062,15.4223-15.9611,16.354-17.5955,15.2189-2.427-1.6854,1.4157-9.4382,.3371-12.3371s-4.9213-1.2135-9.7079-2.764-6.6742-3.6067-6-5.2584c.7724-1.8924,12.4045-3.6742,22.7191-15.4045s11.2247-26.5955,30.0337-29.9326c19.0928-3.3874,30.4382,13.5169,30.4382,13.5169l-1.9697,2.9663Z"/>
              <path class="uuid-d33d49eb-c860-44c6-a9cb-0ea848d65429" d="M128.0448,237.0571s6.6535-3.6232,12.4175-13.2299"/>
            </g>
          </g>
          <g>
            <path class="uuid-d33d49eb-c860-44c6-a9cb-0ea848d65429" d="M204.5678,178.9051s.8665,3.3602,1.4226,4.2703c0,0-4.2225,2.2709-6.5944,7.4894,7.6731,.0949,30.1562-6.4781,57.6618-18.613s39.1112-21.9639,44.0275-27.187c0,0-1.7099-1.9345-3.2654-2.9105,0,0,3.6312-6.7115,10.002-5.1441s3.236,9.3539,9.2022,14.0056,11.9326,6.2697,8.6461,12.3876-27.7584,23.2079-70.0281,34.736-59.0056,7.0787-61.6854,5.9663-2.3764-4.5-.4045-7.0281-3.1685-5.2753-.2022-10.1292,11.2178-7.8433,11.2178-7.8433Z"/>
            <g>
              <path class="uuid-e2534a19-2504-4b0f-81a5-cff27dc567d3" d="M194.0095,195.7097c11.0708,2.6848,22.5484,.6623,22.5484,.6623"/>
              <path class="uuid-e2534a19-2504-4b0f-81a5-cff27dc567d3" d="M307.4822,153.9507c-21.6041,19.7191-55.7839,32.0444-55.7839,32.0444"/>
              <path class="uuid-e2534a19-2504-4b0f-81a5-cff27dc567d3" d="M311.7152,162.9002c-10.1124,4.3989-17.8483,11.427-17.8483,11.427"/>
            </g>
          </g>
        </g>
        <g>
          <path d="M269.9646,160.228c2.1148,.3399,3.3422-1.9768,5.7301-3.2972s4.8979-.524,5.4577-2.7357c.4817-1.9032-3.0161-5.0303-8.6003-2.0762-5.3435,2.8267-4.1399,7.8596-2.5875,8.1091Z"/>
          <path d="M255.8933,140.4535c-1.5344,1.4508-1.6117,3.1159-2.793,5.3121s-3.1296,3.7893-2.7912,4.927c.2912,.979,3.5082-.3018,6.314-5.3938,2.6848-4.8725,.3965-5.9102-.7298-4.8453Z"/>
          <path d="M274.0707,131.4967c2.0853-.3328,3.4528,.6204,5.914,1.0217s4.9115-.1729,5.6075,.7886c.5989,.8273-2.3768,2.598-8.124,1.7205-5.4995-.8397-4.9282-3.2865-3.3975-3.5308Z"/>
          <ellipse cx="261.7621" cy="152.8545" rx="3.7921" ry="4.5" transform="translate(-40.6041 131.4405) rotate(-26.2316)"/>
          <ellipse cx="280.3285" cy="143.706" rx="3.7921" ry="4.5" transform="translate(-34.6484 138.7047) rotate(-26.2316)"/>
        </g>
      </g>
    </g>
  </g>
</svg>