<?xml version="1.0" encoding="UTF-8"?>
<svg id="uuid-fcd1b343-4137-4a54-ba63-47c2bbb931b3" data-name="COCOBAY" xmlns="http://www.w3.org/2000/svg" xmlns:xlink="http://www.w3.org/1999/xlink" viewBox="0 0 600 600">
  <defs>
    <style>
      .uuid-94ed70d7-8281-456b-8184-d99d6cbc557a, .uuid-bc11cba2-97a4-41fb-9b04-94fb70f21d2f, .uuid-f69305bf-ad5c-4f68-8345-dfe9c021b58b, .uuid-4ebfb101-d8b4-437b-b1e3-c94f059e1c9d, .uuid-b47c0445-4cce-48ca-8b56-6d76e5f8c74b, .uuid-813d60fe-1360-4580-ab26-e7ac390fc45e {
        stroke: #000;
        stroke-linecap: round;
        stroke-linejoin: round;
        stroke-width: 2px;
      }

      .uuid-94ed70d7-8281-456b-8184-d99d6cbc557a, .uuid-43afcc40-e58c-4d73-bba8-3686b6c46996 {
        fill: #ff78d8;
      }

      .uuid-bc11cba2-97a4-41fb-9b04-94fb70f21d2f, .uuid-48927313-a5a9-4227-9337-e3aad9ad3cc2 {
        fill: #a07bff;
      }

      .uuid-b755ebcc-b2be-4134-b2e8-0a00b1e85844, .uuid-4ebfb101-d8b4-437b-b1e3-c94f059e1c9d {
        fill: #7aa6ff;
      }

      .uuid-f69305bf-ad5c-4f68-8345-dfe9c021b58b {
        fill: #9dff0c;
      }

      .uuid-e26a5799-5055-4186-8b28-2b43b0f01979 {
        fill: none;
      }

      .uuid-a145e39a-7948-4f17-8c2b-02e159515292 {
        clip-path: url(#uuid-4fecca01-a7c5-4543-803b-4677576acf2f);
      }

      .uuid-b47c0445-4cce-48ca-8b56-6d76e5f8c74b {
        fill: #f9a723;
      }

      .uuid-813d60fe-1360-4580-ab26-e7ac390fc45e {
        fill: #ffff0d;
      }
    </style>
    <clipPath id="uuid-4fecca01-a7c5-4543-803b-4677576acf2f">
      <rect class="uuid-e26a5799-5055-4186-8b28-2b43b0f01979" x="0" y="0" width="356.7657" height="259.0198"/>
    </clipPath>
  </defs>
  <g id="uuid-e7813b6f-2e9c-4ced-a089-4ee6c80ec3de" data-name="HATS B">
    <g id="uuid-a396a31d-4a55-404b-af28-89c8152d84a8" data-name="Capa 33">
      <g class="uuid-a145e39a-7948-4f17-8c2b-02e159515292">
        <g>
          <g>
            <path class="uuid-813d60fe-1360-4580-ab26-e7ac390fc45e" d="M21.8444-3.1616H-25.6163S-9.0639,62.7034,78.4736,134.2316c42.5874,34.7988,80.8989,50.6097,123.8955,98.2871,0,0,4.3538,5.2566,26.0494,.8106,0,0-11.3382-27.927-32.9112-47.6697s-59.0562-42.3943-92.2247-73.1359S42.3388,39.7148,21.8444-3.1616Z"/>
            <g>
              <path class="uuid-43afcc40-e58c-4d73-bba8-3686b6c46996" d="M41.0594,80.137c-5.4025-5.9882-7.1955-11.5979-4.725-12.8922,2.4114-1.2633,4.561-.1996,11.4397,7.82,6.1447,7.1638,7.5361,9.8442,6.4686,11.4162-1.705,2.5107-6.0101,1.6069-13.1832-6.344Z"/>
              <path class="uuid-43afcc40-e58c-4d73-bba8-3686b6c46996" d="M80.8737,117.4332c-5.1569-4.7057-7.0573-9.2555-4.9096-10.4303,2.0964-1.1466,4.0794-.3623,10.666,5.9551,5.8837,5.6433,7.2713,7.7941,6.396,9.1371-1.3979,2.145-5.3055,1.5861-12.1525-4.6619Z"/>
              <path class="uuid-43afcc40-e58c-4d73-bba8-3686b6c46996" d="M174.4927,181.9653c5.6382,4.1168,8.0223,8.4329,6.0151,9.8343-1.9592,1.3679-4.0158,.804-11.2506-4.7594-6.4627-4.9697-8.076-6.9568-7.3521-8.3871,1.1563-2.2844,5.1014-2.1538,12.5875,3.3122Z"/>
              <path class="uuid-43afcc40-e58c-4d73-bba8-3686b6c46996" d="M3.1144,20.2548C-3.946,7.1852-5.6837-3.5397-.6741-4.7238c4.8897-1.1558,5.53,3.5925,14.3452,20.9349,7.8745,15.4917,11.5046,18.5801,9.3298,21.2986-2.5058,3.1322-10.512,.0984-19.8865-17.2548Z"/>
            </g>
          </g>
          <g>
            <path class="uuid-b47c0445-4cce-48ca-8b56-6d76e5f8c74b" d="M15.6421-5.0493c15.9101,41.8581,49.2184,90.8112,92.9038,128.2495,41.0863,35.2108,88.364,54.0999,116.9544,110.6843,0,0,18.6522-3.4789,26.1153-5.6097,0,0-3.7937-28.6499-36.9623-60.2005s-57.6596-44.6743-87.886-73.0338S69.4972,33.7822,58.0753-6.6672L15.6421-5.0493Z"/>
            <g>
              <path class="uuid-43afcc40-e58c-4d73-bba8-3686b6c46996" d="M114.2277,120.2889c-3.8989-3.4448-5.0716-7.8504-3.4852-8.7514,1.5485-.8794,3.8052-.7798,8.7888,3.8489,4.4517,4.1347,4.5454,6.0968,4.1055,7.1931-.5069,1.2631-4.2323,2.2832-9.409-2.2906Z"/>
              <path class="uuid-43afcc40-e58c-4d73-bba8-3686b6c46996" d="M47.9343,39.58c-4.4158-6.7489-5.3234-12.5678-2.6831-13.4661,2.5772-.8768,4.5373,.5052,10.0988,9.4885,4.968,8.0247,5.93,10.8875,4.6331,12.2763-2.0713,2.2181-6.1858,.6621-12.0489-8.2987Z"/>
              <path class="uuid-43afcc40-e58c-4d73-bba8-3686b6c46996" d="M171.8953,143.2193c6.5795,4.6644,9.5539,9.7473,7.4256,11.5496-2.0774,1.7593-4.4074,1.1905-12.871-5.1339-7.5604-5.6495-9.5035-7.9615-8.8049-9.7286,1.1157-2.8223,5.5143-2.8802,14.2502,3.3129Z"/>
              <path class="uuid-43afcc40-e58c-4d73-bba8-3686b6c46996" d="M225.1507,197.2966c3.8288,5.5978,5.2725,10.2101,3.1246,11.1447-2.0966,.9123-3.8254-.1173-9.0621-7.2964-4.6779-6.4129-5.6695-8.7557-4.6765-10.0117,1.5859-2.0062,5.1055-1.8904,10.6141,6.1634Z"/>
            </g>
          </g>
          <g>
            <path class="uuid-94ed70d7-8281-456b-8184-d99d6cbc557a" d="M53.395-3.9402c15.6404,50.3965,59.3258,97.8572,100.5843,127.2504,66.6083,47.453,81.3654,73.0364,94.4973,105.8384,0,0,19.0027-5.2184,27.8521-8.3942,0,0-17.046-46.8824-49.0011-77.624s-55.5471-46.2531-86.3241-80.5647S95.2601-6.9369,95.2601-6.9369L53.395-3.9402Z"/>
            <g>
              <path class="uuid-48927313-a5a9-4227-9337-e3aad9ad3cc2" d="M83.3209,39.8082c-6.5321-9.3892-8.7302-17.3366-4.9179-18.5252,3.7212-1.1602,4.5937,2.3661,12.8299,14.858,7.3573,11.1588,10.4302,13.2602,8.9485,15.4311-1.7072,2.5013-8.1875,.7027-16.8606-11.7638Z"/>
              <path class="uuid-48927313-a5a9-4227-9337-e3aad9ad3cc2" d="M191.7222,121.1676c8.8382,7.2603,15.507,14.001,12.1612,16.1811-3.2658,2.1279-6.0053-.2362-17.3267-10.0192-10.1132-8.7391-12.7003-10.7185-11.8644-13.2104,.9631-2.8711,5.2949-2.5914,17.0298,7.0485Z"/>
              <path class="uuid-48927313-a5a9-4227-9337-e3aad9ad3cc2" d="M164.2264,98.1811c4.0635,3.249,5.4514,7.5916,3.9112,8.5695-1.5033,.9545-3.7623,.9659-8.9673-3.4122-4.6496-3.9109-4.8396-5.866-4.4541-6.9826,.4442-1.2865,4.1149-2.4885,9.5103,1.8253Z"/>
              <path class="uuid-48927313-a5a9-4227-9337-e3aad9ad3cc2" d="M107.4342,69.6606c-4.0724-4.3919-5.018-9.7212-3.1702-10.6734,1.8036-.9294,4.3178-.6406,9.5044,5.2414,4.6331,5.2544,4.5752,7.5955,3.9926,8.8664-.6713,1.4644-4.9197,2.3969-10.3268-3.4345Z"/>
              <path class="uuid-48927313-a5a9-4227-9337-e3aad9ad3cc2" d="M259.0937,216.9766c1.4181,3.183,3.0949,7.2099,3.0949,7.2099l-7.089,2.059s-1.629-2.8295-3.0442-5.7637c-4.0436-8.3837-4.7087-11.3264-3.3395-12.6493,2.1869-2.1128,5.7141-1.3233,10.3778,9.1441Z"/>
            </g>
          </g>
          <g>
            <path class="uuid-4ebfb101-d8b4-437b-b1e3-c94f059e1c9d" d="M134.5635-8.2852s-.2802,40.1134,80.6292,110.8315c43.8876,38.3596,66.9849,68.5536,82.1329,110.288,0,0,17.8009-7.0415,25.9982-12.6762,0,0-10.086-48.2938-49.3446-84.3983S207.5073,66.7982,169.6197-8.2852h-35.0562Z"/>
            <g>
              <path class="uuid-48927313-a5a9-4227-9337-e3aad9ad3cc2" d="M184.543,49.1696c-3.762,2.5603,5.6124,12.8427,8.8989,10.264s-5.2584-12.7416-8.8989-10.264Z"/>
              <path class="uuid-48927313-a5a9-4227-9337-e3aad9ad3cc2" d="M293.9343,184.5912c-4.3805-8.6882-5.0562-11.0504-3.1011-12.6067,2.7356-2.1776,6.1871,1.5726,10.5169,9.8427s5.5715,12.7524,2.6292,13.7528c-3.3708,1.1461-5.5441-2.0619-10.0449-10.9888Z"/>
              <path class="uuid-48927313-a5a9-4227-9337-e3aad9ad3cc2" d="M230.9848,102.5068c-6.9624-5.8441-12.3238-10.3969-10.4661-12.9805,1.7478-2.4306,5.3956,.1725,14.6543,7.7179,8.0026,6.5218,9.8544,9.1895,8.3251,11.0276s-6.2726-.5268-12.5133-5.7651Z"/>
            </g>
          </g>
          <g>
            <path class="uuid-bc11cba2-97a4-41fb-9b04-94fb70f21d2f" d="M92.9006-3.4313c9.8427,37.7528,50.6076,78.9985,96.0229,116.6228s65.5052,64.1086,84.4216,108.5987c0,0,17.6995-6.0476,27.5742-10.4302,0,0-9.9513-36.5441-40.9625-72.4093s-70.382-60.1348-93.3034-92.764S139.5523-5.0493,139.5523-5.0493l-46.6517,1.618Z"/>
            <g>
              <path class="uuid-43afcc40-e58c-4d73-bba8-3686b6c46996" d="M122.0296,12.1832c-4.6478-8.7214-5.7017-15.7017-2.2784-16.2461,3.3413-.5314,3.7201,2.5535,9.5108,14.102,5.1728,10.3162,7.606,12.4624,6.0935,14.118-1.7428,1.9075-7.1547-.3941-13.3259-11.9739Z"/>
              <path class="uuid-43afcc40-e58c-4d73-bba8-3686b6c46996" d="M198.6624,94.1474c4.0635,3.249,5.4514,7.5916,3.9112,8.5695-1.5033,.9545-3.7623,.9659-8.9673-3.4122-4.6496-3.9109-4.8396-5.866-4.4541-6.9826,.4442-1.2865,4.1149-2.4885,9.5103,1.8253Z"/>
              <path class="uuid-43afcc40-e58c-4d73-bba8-3686b6c46996" d="M141.4805,59.8274c-5.6361-5.7689-7.6505-11.3029-5.2334-12.6943,2.3593-1.3581,4.5494-.3806,11.7413,7.3594,6.4244,6.914,7.9212,9.5371,6.917,11.1502-1.6039,2.5764-5.9415,1.8444-13.4248-5.8153Z"/>
              <path class="uuid-43afcc40-e58c-4d73-bba8-3686b6c46996" d="M245.4288,148.7868c4.5529,5.1566,6.1365,10.0858,4.1354,11.3102-1.9532,1.195-3.7383,.315-9.5432-6.6016-5.1854-6.1785-6.3808-8.5177-5.5364-9.9464,1.3486-2.2818,4.8991-1.6089,10.9442,5.2377Z"/>
            </g>
          </g>
          <g>
            <path class="uuid-f69305bf-ad5c-4f68-8345-dfe9c021b58b" d="M337.0274,187.2212c-11.0032-46.9222-45.7897-80.4952-74.3066-102.1357S200.6309,19.3552,199.4174-11.7908h-35.191s8.7927,56.4628,84.5393,112.4494c37.2135,27.5056,63.0249,67.9324,71.5574,101.2134,0,0,16.3311-8.6836,16.7043-14.6507Z"/>
            <g>
              <path class="uuid-b755ebcc-b2be-4134-b2e8-0a00b1e85844" d="M187.7632,23.0057c-4.6478-8.7214-5.7017-15.7017-2.2784-16.2461,3.3413-.5314,3.7201,2.5535,9.5108,14.102,5.1728,10.3162,7.606,12.4624,6.0935,14.118-1.7428,1.9075-7.1547-.3941-13.3259-11.9739Z"/>
              <path class="uuid-b755ebcc-b2be-4134-b2e8-0a00b1e85844" d="M292.6274,127.9232c2.7962,3.1271,3.4017,6.8856,2.1029,7.5389-1.2676,.6377-3.0186,.4118-6.5769-3.774-3.1786-3.7391-3.1144-5.3858-2.6951-6.2749,.4832-1.0243,3.4563-1.6421,7.169,2.5099Z"/>
              <path class="uuid-b755ebcc-b2be-4134-b2e8-0a00b1e85844" d="M304.11,144.2653c4.2256,5.4267,4.5734,8.2743,2.9146,9.0357-1.6191,.7432-3.7591,.3287-7.7835-5.3666-3.5949-5.0875-3.3724-7.2275-2.7777-8.3564,.6852-1.3007,3.3089-.8834,7.6466,4.6873Z"/>
              <path class="uuid-b755ebcc-b2be-4134-b2e8-0a00b1e85844" d="M227.0684,74.9338c-5.1157-4.5473-7.0946-9.0508-5.0681-10.3048,1.978-1.224,3.9112-.505,10.4555,5.6114,5.8459,5.4637,7.2518,7.5757,6.4546,8.9547-1.2731,2.2025-5.0496,1.7764-11.842-4.2613Z"/>
            </g>
          </g>
        </g>
      </g>
    </g>
  </g>
</svg>