<?xml version="1.0" encoding="UTF-8"?>
<svg id="uuid-31cfd35e-b1c4-4a62-95f5-2a1e6b1b685f" data-name="COCOBAY" xmlns="http://www.w3.org/2000/svg" viewBox="0 0 600 600">
  <defs>
    <style>
      .uuid-73269fc1-c589-4156-8ae0-e8621ebd2ada {
        fill: #ffc9f1;
      }

      .uuid-73269fc1-c589-4156-8ae0-e8621ebd2ada, .uuid-f06a4893-e652-42a6-969c-40d8bbedcf21, .uuid-d58dc5e8-3733-4e71-8add-caeaf3aec7db, .uuid-846cd8c9-45dc-48d1-bdd1-40ba12c44361 {
        stroke: #000;
        stroke-linecap: round;
        stroke-linejoin: round;
        stroke-width: 2px;
      }

      .uuid-f06a4893-e652-42a6-969c-40d8bbedcf21 {
        fill: #fff7f0;
      }

      .uuid-d58dc5e8-3733-4e71-8add-caeaf3aec7db {
        fill: none;
      }

      .uuid-846cd8c9-45dc-48d1-bdd1-40ba12c44361 {
        fill: #ffff0d;
      }
    </style>
  </defs>
  <g id="uuid-a79c3b85-ceb5-4869-af4e-3ef8c358c94a" data-name="HATS A">
    <g>
      <path class="uuid-f06a4893-e652-42a6-969c-40d8bbedcf21" d="M266.47222,268.21538s36.83916-4.53123,78.13141-19.67313c41.29225-15.1419,43.7212-36.80009,43.7212-36.80009l-21.8606-22.35303s-13.9665,11.48936-47.76946,23.49962c-33.80297,12.01026-56.27081,15.91351-56.27081,15.91351l4.04826,39.41312Z"/>
      <path class="uuid-846cd8c9-45dc-48d1-bdd1-40ba12c44361" d="M418.14174,277.20369c2.62178,10.87656,11.01133,10.16694,20.02288,19.84508,0,0,.29558,16.32235-2.67836,30.15696,0,0,6.41092-2.49115,9.53921-6.98807-2.34622,7.23417-7.91848,13.00195-7.91848,13.00195,0,0,10.12442-.55597,20.32231-11.82324,10.19789-11.26727,10.61698-24.2591,4.05121-34.17759-6.56576-9.91849-7.12455-9.77879-7.82304-12.43304s-1.11758-7.68334-1.25727-20.67517c-.1397-12.99183-3.21303-20.11638-12.99183-29.33638s-19.83698-21.51335-19.83698-21.51335c0,0,15.36668-5.58788,16.62395-22.77062-9.77879,5.16879-20.97527,7.56736-45.44037-6.21854-24.46511-13.78589-47.95937-32.42597-95.72458-31.6493-47.76521,.77667-67.18196,26.98928-67.18196,26.98928,0,0-28.13277,2.71835-51.24946,25.04761-23.11669,22.32926-14.18499,41.16351-20.59251,55.33774-6.40753,14.17423-17.47508,13.00922-20.97009,33.59098-3.49502,20.58176,11.06755,39.416-3.10668,48.34771-14.17423,8.93171-21.94093-2.52418-21.94093-2.52418,0,0-2.35731,26.469,28.91325,20.78344,6.96481,7.81764,21.60512,4.26417,25.86929-6.39625,1.42139,14.78245-5.15689,19.06702-13.05389,17.92991,18.25656,13.07678,31.33334,.09302,31.33334,.09302,0,0,9.81803,.97512,16.84869-9.29547,7.03065-10.27059,2.9651-20.52499,2.9651-20.52499,0,0,6.39625,8.67047,16.63025,10.51828,4.83272,15.63528,21.46298,23.87934,21.46298,23.87934,0,0-10.56661-20.38257-3.4785-39.65676,8.31122-22.60009,24.94147-19.75731,30.76917-36.52971,5.8277-16.77239,.42642-32.1234,1.56353-52.87568,4.12203,13.07678,14.28883,29.28062,18.08911,46.33729,3.80028,17.05667-1.03244,22.88437-1.03244,22.88437,0,0,13.64534-.14214,17.90951-20.75228,4.26417-20.61014-9.80759-41.78885-10.234-60.26691,0,0,17.76737-4.26417,37.66682-12.65036,19.89945-8.3862,29.13848-17.48309,29.13848-17.48309,0,0,9.23903,3.2692,17.05667,31.83912,7.81764,28.56992,13.9452,48.17924,39.73562,49.95891Z"/>
      <g>
        <path class="uuid-d58dc5e8-3733-4e71-8add-caeaf3aec7db" d="M183.05075,361.82164c5.13741-4.86417,4.82088-16.1215,4.82088-16.1215"/>
        <path class="uuid-d58dc5e8-3733-4e71-8add-caeaf3aec7db" d="M138.90202,350.19496c9.44217-2.34481,13.93555-11.94829,13.93555-11.94829"/>
        <path class="uuid-d58dc5e8-3733-4e71-8add-caeaf3aec7db" d="M164.7713,343.79871c-.4865-12.0352-12.06949-25.00311-10.81047-45.39924,1.25902-20.39613,32.10502-27.19484,32.10502-49.85721"/>
        <path class="uuid-d58dc5e8-3733-4e71-8add-caeaf3aec7db" d="M202.86454,332.00118c-14.65018-19.23093-9.07419-40.3082,1.29717-51.68323"/>
        <path class="uuid-d58dc5e8-3733-4e71-8add-caeaf3aec7db" d="M219.49479,342.51946c-5.63085-17.59354-7.72911-37.86934-1.10409-53.05842,6.62502-15.18908,17.2897-8.24088,21.00617-28.92388,3.71648-20.683-10.3415-31.83243,10.98784-52.51543"/>
        <path class="uuid-d58dc5e8-3733-4e71-8add-caeaf3aec7db" d="M269.81197,237.33665c-4.1155-14.55349,2.10925-26.58098,7.06796-30.69564"/>
        <path class="uuid-d58dc5e8-3733-4e71-8add-caeaf3aec7db" d="M294.54414,225.53912c-.78353-12.46235,14.50265-31.40714,37.66682-12.65036-.89082-27.03209,23.19081-21.22763,29.13848-17.48309"/>
        <path class="uuid-d58dc5e8-3733-4e71-8add-caeaf3aec7db" d="M332.21096,212.88875s-9.3837-22.07973-44.30988-34.10474c-27.53203-9.47922-51.72642-10.74852-60.05265-9.17235"/>
        <path class="uuid-d58dc5e8-3733-4e71-8add-caeaf3aec7db" d="M283.40843,177.30013c2.32076-17.76179,24.02946-21.20878,24.02946-21.20878"/>
        <path class="uuid-d58dc5e8-3733-4e71-8add-caeaf3aec7db" d="M315.54795,193.46565c-.37574-13.96351,11.11422-21.86286,20.73706-23.72998"/>
        <path class="uuid-d58dc5e8-3733-4e71-8add-caeaf3aec7db" d="M257.62001,171.06591c-22.00764,.61562-58.98078,11.82563-65.86264,49.05854"/>
        <path class="uuid-d58dc5e8-3733-4e71-8add-caeaf3aec7db" d="M305.43928,186.67227c-13.07337-3.05819-35.40866,6.06095-35.40866,6.06095"/>
        <path class="uuid-d58dc5e8-3733-4e71-8add-caeaf3aec7db" d="M390.62697,203.4168c17.19881,14.07175,6.68053,41.93098,22.03153,53.58638,15.351,11.65539,23.92285-1.22552,23.92285-1.22552,0,0,2.19853,21.10291-18.43962,21.42604"/>
        <path class="uuid-d58dc5e8-3733-4e71-8add-caeaf3aec7db" d="M455.14134,277.941c-8.47242-13.11534-13.41689-22.43375-14.36774-34.1293"/>
        <path class="uuid-d58dc5e8-3733-4e71-8add-caeaf3aec7db" d="M438.16462,297.04877c5.26003,6.26715,9.64862,12.92894,6.86085,23.16889"/>
        <path class="uuid-d58dc5e8-3733-4e71-8add-caeaf3aec7db" d="M419.57139,203.26085c-10.17415,3.12456-19.40742-2.74331-19.40742-2.74331"/>
      </g>
      <path class="uuid-73269fc1-c589-4156-8ae0-e8621ebd2ada" d="M343.96263,237.72972s5.18238-3.77771,5.82079-11.16499c.63841-7.38728-10.03212-8.69941-11.30893-2.47556-7.20488-2.89626-13.15097,4.94703-6.29287,9.68949,5.83966,4.03819,11.78101,3.95107,11.78101,3.95107Z"/>
    </g>
  </g>
</svg>