<?xml version="1.0" encoding="UTF-8"?>
<svg id="BACKGROUND" xmlns="http://www.w3.org/2000/svg" viewBox="0 0 600 600">
  <defs>
    <style>
      .cls-1 {
        fill: #ffff0d;
        stroke-linecap: round;
        stroke-miterlimit: 10;
      }

      .cls-1, .cls-2, .cls-3, .cls-4 {
        stroke: #000;
        stroke-width: 2px;
      }

      .cls-2 {
        fill: #3ef1ff;
      }

      .cls-2, .cls-3, .cls-4 {
        stroke-linejoin: round;
      }

      .cls-3 {
        fill: #ff78d8;
      }

      .cls-4 {
        fill: #f9a723;
      }
    </style>
  </defs>
  <path class="cls-1" d="m241.89,207.77l-69.3-104.97c-1.06-1.6-3.21-2.05-4.82-1h0c-1.63,1.06-2.08,3.23-1.01,4.85l68.77,104.15,11.93,18.35c2.31-.55,4.71-1.15,7.16-1.81l-12.73-19.57Z"/>
  <path class="cls-4" d="m170.32,113.23l-74.03,133.27s36.12-51.66,72.66-50.21c.76-14.48,3.19-68.7,3.87-83.91-1.02.47-1.89.76-2.51.84Z"/>
  <path class="cls-3" d="m177.4,108.92s.4.41-.71,1.2c14.5,5.68,64.55,25.26,78.01,30.41,13.5-33.99,75.37-46.04,75.37-46.04l-152.67,14.42Z"/>
  <path class="cls-2" d="m176.69,110.13c-.53.38-1.11.76-1.74,1.14-.84.5-1.65.91-2.38,1.23l-3.61,83.79c7.4-13.71,37.16-52.34,85.76-55.76-39.75-15.38-68.05-26.48-78.02-30.4Z"/>
</svg>