<?xml version="1.0" encoding="UTF-8"?>
<svg id="BACKGROUND" xmlns="http://www.w3.org/2000/svg" viewBox="0 0 600 600">
  <defs>
    <style>
      .cls-1, .cls-2 {
        stroke-miterlimit: 10;
      }

      .cls-1, .cls-2, .cls-3 {
        stroke: #000;
        stroke-width: 2px;
      }

      .cls-1, .cls-3 {
        fill: #ff78d8;
      }

      .cls-2 {
        fill: #fff;
        stroke-linecap: round;
      }

      .cls-3 {
        stroke-linejoin: round;
      }
    </style>
  </defs>
  <path class="cls-3" d="m235.44,232.11l-52.28-70.42,16.28-12.11,56.96,77.43c-4.91,1.38-13.79,3.74-20.96,5.09Z"/>
  <ellipse class="cls-1" cx="191.3" cy="155.64" rx="10.14" ry="5.9" transform="translate(-55.08 144.88) rotate(-36.63)"/>
  <path class="cls-2" d="m289.77,196.01c.39,1.68,2.54,2.21,3.68.92,7.65-8.68,28.77-34.56,25.1-52.13-4.35-20.84-40.15,2.62-28.79,51.21Z"/>
  <path class="cls-2" d="m264.28,167.04c1.37,1.01,3.34.33,3.78-1.32,2.14-7.98,6.65-28.41-1.23-34.24-9.47-7.02-24.36,19.46-2.55,35.56Z"/>
</svg>