<?xml version="1.0" encoding="UTF-8"?>
<svg id="uuid-45cef037-5f41-4d2b-9dbd-e15726254d3d" data-name="BASE" xmlns="http://www.w3.org/2000/svg" viewBox="0 0 600 600">
  <defs>
    <style>
      .uuid-dc6954ee-22c6-4351-b939-e2b89f4a0f6b {
        fill: #a07bff;
      }

      .uuid-dc6954ee-22c6-4351-b939-e2b89f4a0f6b, .uuid-432220be-6699-4d3b-b3c2-05b9bff9f037 {
        stroke: #000;
        stroke-linecap: round;
        stroke-linejoin: round;
        stroke-width: 2px;
      }

      .uuid-432220be-6699-4d3b-b3c2-05b9bff9f037 {
        fill: none;
      }
    </style>
  </defs>
  <g>
    <path class="uuid-dc6954ee-22c6-4351-b939-e2b89f4a0f6b" d="m502.22,311.85c1.42.67,3.02,1.57,5.54,4.38,1.26-2.31,3.53-4.05,5.67-5.56,2.52-1.79,5.63-2.61,8.69-3.05-.27-13.26,0-33.93,3.26-59.17,4.85-37.5,7.61-90.51,1.78-119.34-5.84-28.83-21.64-39.98-49.15-30.92-23.57,7.76-26.74,39.11-24.2,74.78,2.53,35.67,13.3,53.02,23.49,77.48,6.76,16.24,13.51,43.44,17.71,59.94,3.9,0,5.71.75,7.24,1.46Z"/>
    <path class="uuid-dc6954ee-22c6-4351-b939-e2b89f4a0f6b" d="m540.72,424.5s-6.33-9.74-11.56-31.81c-1.87-7.91-3.43-18.38-4.63-28.92-1.52-.09-3.02-.32-4.43-.66-3.31-.79-6.69-2.21-8.67-5.13-3.13-4.61-.82-9.79,3.48-12.56.56-.36,1.14-.68,1.74-.98-1.39-.55-2.66-1.35-3.57-2.56-1.86-2.47-1.89-5.68-.85-8.49.52-1.4,1.38-2.65,2.42-3.75-.22-.03-.45-.05-.67-.09-2.1-.38-4.21-1.08-5.7-2.67-1.86,2.7-5.28,4.44-9.06,4.2,2.5,14.5,8.38,49.55,9.18,63.16.96,16.21-1.39,43.14-.59,45.2.91,2.36,9.26.82,18.35-3.31,9.09-4.13,15.61-9.34,14.57-11.63Z"/>
    <ellipse class="uuid-dc6954ee-22c6-4351-b939-e2b89f4a0f6b" cx="524.26" cy="431.97" rx="18.08" ry="4.57" transform="translate(-131.67 255.33) rotate(-24.42)"/>
    <path id="uuid-b378f2e2-6369-4237-8375-6abab9363c8b" data-name="linea" class="uuid-dc6954ee-22c6-4351-b939-e2b89f4a0f6b" d="m522.37,427.81s-3.11-10.59-5.66-27.27c5.54,16.46,11.68,25.16,11.68,25.16l-6.02,2.11"/>
    <ellipse class="uuid-dc6954ee-22c6-4351-b939-e2b89f4a0f6b" cx="458.38" cy="184.82" rx="12.85" ry="28.04" transform="translate(-28.57 100.25) rotate(-12.11)"/>
    <ellipse class="uuid-dc6954ee-22c6-4351-b939-e2b89f4a0f6b" cx="514.92" cy="126.7" rx="15.68" ry="24.57" transform="translate(-15.12 110.81) rotate(-12.11)"/>
    <ellipse class="uuid-dc6954ee-22c6-4351-b939-e2b89f4a0f6b" cx="455.33" cy="184.77" rx="6.11" ry="9.98" transform="translate(-28.63 99.61) rotate(-12.11)"/>
    <ellipse class="uuid-dc6954ee-22c6-4351-b939-e2b89f4a0f6b" cx="514.09" cy="122.8" rx="8.15" ry="9.98" transform="translate(-14.32 110.55) rotate(-12.11)"/>
    <g id="uuid-1673bd68-158d-4e33-8c5b-80f5a39a45d2" data-name="buton line">
      <path class="uuid-432220be-6699-4d3b-b3c2-05b9bff9f037" d="m456.14,125c13.36,11.39,18.04,28.56,22.13,44.92,3.48,13.92,4.79,28.39,3.65,42.71-1.14,14.31-6.22,28.31-2.71,42.7"/>
      <path class="uuid-432220be-6699-4d3b-b3c2-05b9bff9f037" d="m493.22,95.15c-5.54,13.38-4.25,27.58-.96,41.36,3.74,15.66,7.74,30.1,8.35,46.39.79,21.15-2.17,42.08-1.17,63.16"/>
      <path class="uuid-432220be-6699-4d3b-b3c2-05b9bff9f037" d="m514.58,278.26s1.05-52.71,3.45-80.15c2.4-27.45,6.67-37.86,11.73-47.69"/>
    </g>
    <path class="uuid-432220be-6699-4d3b-b3c2-05b9bff9f037" d="m508.15,328.54c.93,6.66,1.96,13.68,3.07,20.66"/>
    <path class="uuid-432220be-6699-4d3b-b3c2-05b9bff9f037" d="m503.31,289.2c.24,2.74,1.33,12.59,2.99,25.51"/>
  </g>
  <path class="uuid-432220be-6699-4d3b-b3c2-05b9bff9f037" d="m522.11,399.07s-5.41-21.86-9.23-39.46"/>
</svg>