<?xml version="1.0" encoding="UTF-8"?>
<svg id="uuid-7bf227b6-336e-421e-b789-fbef7271c5b3" data-name="BODY" xmlns="http://www.w3.org/2000/svg" xmlns:xlink="http://www.w3.org/1999/xlink" viewBox="0 0 600 600">
  <defs>
    <style>
      .uuid-07863ede-5487-44f3-9531-c39cdcc769b4, .uuid-87320a0b-6cfd-4900-a2aa-1bcff5a2801d, .uuid-c8341c38-5fd0-4a4e-be7f-d0af70079148 {
        fill: none;
      }

      .uuid-db61b404-6632-4f95-84b9-ea588278d243, .uuid-80e9ff40-4691-48d4-9bb3-4185a7dd70a2, .uuid-04951a5f-f105-4062-9b8c-241adb355701 {
        fill: #7aa6ff;
      }

      .uuid-db61b404-6632-4f95-84b9-ea588278d243, .uuid-80e9ff40-4691-48d4-9bb3-4185a7dd70a2, .uuid-87320a0b-6cfd-4900-a2aa-1bcff5a2801d, .uuid-e2d199ec-240f-49f2-9b6e-51c414fe8ea5 {
        stroke: #000;
        stroke-linecap: round;
        stroke-linejoin: round;
      }

      .uuid-db61b404-6632-4f95-84b9-ea588278d243, .uuid-87320a0b-6cfd-4900-a2aa-1bcff5a2801d, .uuid-e2d199ec-240f-49f2-9b6e-51c414fe8ea5 {
        stroke-width: 2px;
      }

      .uuid-80e9ff40-4691-48d4-9bb3-4185a7dd70a2 {
        stroke-width: 2px;
      }

      .uuid-e2d199ec-240f-49f2-9b6e-51c414fe8ea5 {
        fill: #f9a723;
      }

      .uuid-c8341c38-5fd0-4a4e-be7f-d0af70079148 {
        clip-path: url(#uuid-f3244f6f-04b3-409c-872a-eb3670aba7dc);
      }
    </style>
    <clipPath id="uuid-f3244f6f-04b3-409c-872a-eb3670aba7dc">
      <path class="uuid-07863ede-5487-44f3-9531-c39cdcc769b4" d="m500.24,288.07s3.15-12.64,14.55-12.39c0,0,6.81-3.05,4.79-13.7s-9.48-7.62-9.48-7.62l-3.26,2.83s-4.99-3.71-11.8-4.25c-6.81-.54-29.6,19.74-28.65,47.05l2.58,4.27h5.71s1.04-3.08,1.49-4.63c.71,1.5,2.45,4.63,2.45,4.63h5.46s.25-16.04,10.62-13.7c3.59.81,5.54-2.49,5.54-2.49h0Z"/>
    </clipPath>
  </defs>
  <g id="uuid-990e05cb-8511-4be5-b296-2db9e98d6d07" data-name="uuid-7815cad7-8e3a-44d2-a5d3-2b4a6315d68d">
    <g>
      <g>
        <g>
          <path class="uuid-04951a5f-f105-4062-9b8c-241adb355701" d="m500.24,288.07s3.15-12.64,14.55-12.39c0,0,6.81-3.05,4.79-13.7s-9.48-7.62-9.48-7.62l-3.26,2.83s-4.99-3.71-11.8-4.25c-6.81-.54-29.6,19.74-28.65,47.05l2.58,4.27h5.71s1.04-3.08,1.49-4.63c.71,1.5,2.45,4.63,2.45,4.63h5.46s.25-16.04,10.62-13.7c3.59.81,5.54-2.49,5.54-2.49h0Z"/>
          <g class="uuid-c8341c38-5fd0-4a4e-be7f-d0af70079148">
            <g>
              <path class="uuid-87320a0b-6cfd-4900-a2aa-1bcff5a2801d" d="m468.96,304.27c3.56-19.63,12.25-29.34,22.7-23.21"/>
              <path class="uuid-87320a0b-6cfd-4900-a2aa-1bcff5a2801d" d="m495.04,252.95c.78,9.4,3.57,11.29,11.8,4.25"/>
              <path class="uuid-87320a0b-6cfd-4900-a2aa-1bcff5a2801d" d="m513.81,261.46s-11.73,5.35-20.22,9.49"/>
              <path class="uuid-87320a0b-6cfd-4900-a2aa-1bcff5a2801d" d="m476.17,299.64c1.03-4.04,4.15-3.86,3.36-.09-.26,1.25-.58,3.01-.91,4.73"/>
            </g>
          </g>
          <path class="uuid-87320a0b-6cfd-4900-a2aa-1bcff5a2801d" d="m500.24,288.07s3.15-12.64,14.55-12.39c0,0,6.81-3.05,4.79-13.7s-9.48-7.62-9.48-7.62l-3.26,2.83s-4.99-3.71-11.8-4.25c-6.81-.54-29.6,19.74-28.65,47.05l2.58,4.27h5.71s1.04-3.08,1.49-4.63c.71,1.5,2.45,4.63,2.45,4.63h5.46s.25-16.04,10.62-13.7c3.59.81,5.54-2.49,5.54-2.49h0Z"/>
        </g>
        <g>
          <path class="uuid-db61b404-6632-4f95-84b9-ea588278d243" d="m523.26,261.51c2.07,7.74,7.98,12.89,3.75,14.02-.15.04-7.96,2.12-8.12,2.15-4.13.64-8.94-4.61-10.93-12.07-2.03-7.6-.39-14.68,3.67-16,.07-.02,7.8-2.09,7.87-2.11,4.22-1.13,1.68,6.28,3.75,14.02Z"/>
          <ellipse class="uuid-80e9ff40-4691-48d4-9bb3-4185a7dd70a2" cx="523.26" cy="261.51" rx="10.33" ry="14.51" transform="translate(-49.81 144.13) rotate(-14.98)"/>
          <line class="uuid-87320a0b-6cfd-4900-a2aa-1bcff5a2801d" x1="522.82" y1="253.67" x2="518.96" y2="264.52"/>
          <line class="uuid-87320a0b-6cfd-4900-a2aa-1bcff5a2801d" x1="525.49" y1="265.86" x2="524.1" y2="269.78"/>
          <line class="uuid-87320a0b-6cfd-4900-a2aa-1bcff5a2801d" x1="527.96" y1="258.93" x2="527.23" y2="260.97"/>
        </g>
      </g>
      <g>
        <path class="uuid-db61b404-6632-4f95-84b9-ea588278d243" d="m521.42,363.39c-.44-.08-.88-.17-1.31-.27-3.31-.79-6.69-2.21-8.67-5.13-3.13-4.61-.82-9.79,3.48-12.56.56-.36,1.14-.68,1.74-.98-1.39-.55-2.66-1.35-3.57-2.56-1.86-2.47-1.89-5.68-.85-8.49.51-1.39,1.37-2.62,2.39-3.72v-.04c-.22-.03-.44-.05-.65-.09-2.1-.38-4.21-1.08-5.7-2.67-2.17,3.15-6.46,5-10.98,3.92l5.35,47.25,20.98-3.74-2.2-10.91h0Z"/>
        <path class="uuid-e2d199ec-240f-49f2-9b6e-51c414fe8ea5" d="m507.62,316.05c.9-1.44,2.13-2.7,3.5-3.77l-6.51-32.3s-1.48-4.85-6.4-4.25c-4.92.61-6.54,5.33-6.54,5.33l3.32,29.35c2.06-.09,4.27.05,6.86,1.27,0,0,3.42,1.42,5.77,4.37h0Z"/>
      </g>
      <line class="uuid-87320a0b-6cfd-4900-a2aa-1bcff5a2801d" x1="501.22" y1="292.85" x2="502.88" y2="303.21"/>
      <line class="uuid-87320a0b-6cfd-4900-a2aa-1bcff5a2801d" x1="499.45" y1="281.87" x2="500.24" y2="286.79"/>
      <path class="uuid-db61b404-6632-4f95-84b9-ea588278d243" d="m502.64,378.04c.99,8.71,22.7,4.78,20.98-3.74-1.51-7.49-21.81-3.52-20.98,3.74Z"/>
      <path class="uuid-87320a0b-6cfd-4900-a2aa-1bcff5a2801d" d="m514.37,360.81c-4.9.25-10.44,1.84-13.21,4.18"/>
      <path class="uuid-87320a0b-6cfd-4900-a2aa-1bcff5a2801d" d="m510.84,349.77c-4.19.5-8.51,1.88-10.97,3.8"/>
      <path class="uuid-87320a0b-6cfd-4900-a2aa-1bcff5a2801d" d="m511.64,338.39c-4.76.21-10.15,1.71-13.05,3.94"/>
    </g>
  </g>
</svg>