<?xml version="1.0" encoding="UTF-8"?>
<svg id="uuid-0025eea9-32fe-4ae9-9e6a-b9a4ab43e6fc" data-name="BODY" xmlns="http://www.w3.org/2000/svg" viewBox="0 0 600 600">
  <defs>
    <style>
      .uuid-4fdcd7ff-0413-4459-a39f-f62f546858d3, .uuid-0b67a973-3e71-4943-a810-c4f43c33f27f {
        fill: #7aa6ff;
      }

      .uuid-4fdcd7ff-0413-4459-a39f-f62f546858d3, .uuid-0b67a973-3e71-4943-a810-c4f43c33f27f, .uuid-32bfd3e3-41a3-462c-9d8a-055e9ccd2235, .uuid-38faa420-c23b-485c-a4ff-71deb92773a1 {
        stroke: #000;
      }

      .uuid-4fdcd7ff-0413-4459-a39f-f62f546858d3, .uuid-0b67a973-3e71-4943-a810-c4f43c33f27f, .uuid-32bfd3e3-41a3-462c-9d8a-055e9ccd2235, .uuid-38faa420-c23b-485c-a4ff-71deb92773a1, .uuid-435ea7c5-2670-4640-9de2-d5a6fd661be5 {
        stroke-linecap: round;
        stroke-linejoin: round;
      }

      .uuid-4fdcd7ff-0413-4459-a39f-f62f546858d3, .uuid-435ea7c5-2670-4640-9de2-d5a6fd661be5 {
        stroke-width: 2px;
      }

      .uuid-0b67a973-3e71-4943-a810-c4f43c33f27f, .uuid-32bfd3e3-41a3-462c-9d8a-055e9ccd2235, .uuid-38faa420-c23b-485c-a4ff-71deb92773a1 {
        stroke-width: 2px;
      }

      .uuid-e53ea93a-992c-4fd2-8eb5-1b73360fd3e0 {
        fill: #f9a723;
      }

      .uuid-32bfd3e3-41a3-462c-9d8a-055e9ccd2235 {
        fill: #fff7f0;
      }

      .uuid-38faa420-c23b-485c-a4ff-71deb92773a1, .uuid-435ea7c5-2670-4640-9de2-d5a6fd661be5 {
        fill: none;
      }

      .uuid-435ea7c5-2670-4640-9de2-d5a6fd661be5 {
        stroke: #fff7f0;
      }
    </style>
  </defs>
  <g id="uuid-4d4bb2eb-4fad-4b15-b7ca-30c7225ecded" data-name="uuid-cd416942-12e2-43f8-ae4e-d1c982c2d506">
    <g id="uuid-97a28e58-7cec-42d8-b3a5-bc27980ff054" data-name="uuid-e8dcef20-5373-46c6-a16e-3fce2f927a1d">
      <g>
        <rect class="uuid-4fdcd7ff-0413-4459-a39f-f62f546858d3" x="480.68" y="291.97" width="80.06" height="93.21" transform="translate(-73.13 156.57) rotate(-15.99)"/>
        <path class="uuid-0b67a973-3e71-4943-a810-c4f43c33f27f" d="m542.62,274.42c-6.78,3.79-15.92,7.76-36.39,13.63-20.47,5.87-30.32,7.34-38.08,7.71-7.76.38-8.71,12.78,1.28,14.22,7.73,1.12,18.56-.94,40.98-7.37,22.42-6.43,32.69-10.41,38.66-15.46,7.71-6.52.33-16.53-6.45-12.74h0Z"/>
        <path class="uuid-0b67a973-3e71-4943-a810-c4f43c33f27f" d="m569.05,366.62c-6.78,3.79-15.92,7.76-36.39,13.63-20.47,5.87-30.32,7.34-38.08,7.71-7.76.38-8.71,12.78,1.28,14.22,7.73,1.12,18.56-.94,40.98-7.37,22.42-6.43,32.69-10.41,38.66-15.46,7.71-6.52.33-16.53-6.45-12.74h0Z"/>
        <g>
          <path class="uuid-e53ea93a-992c-4fd2-8eb5-1b73360fd3e0" d="m486.94,341.06s11.2,39.72,11.61,40.52,11.47.62,32.91-5.53c21.44-6.14,30.7-12.7,30.7-12.7l-11.61-40.52s-10.6-10.3-31.05-2.37c-16.78,6.51-14.91,13.92-32.56,20.6h0Z"/>
          <circle class="uuid-e53ea93a-992c-4fd2-8eb5-1b73360fd3e0" cx="487.35" cy="330.31" r="3.44"/>
          <circle class="uuid-e53ea93a-992c-4fd2-8eb5-1b73360fd3e0" cx="498.45" cy="322.54" r="6.14"/>
        </g>
        <g>
          <rect class="uuid-435ea7c5-2670-4640-9de2-d5a6fd661be5" x="495.42" y="313.65" width="12.23" height="64.13" rx="5.89" ry="5.89" transform="translate(-75.84 151.56) rotate(-15.99)"/>
          <path class="uuid-435ea7c5-2670-4640-9de2-d5a6fd661be5" d="m540.54,302.41h.44c3.25,0,5.89,2.64,5.89,5.89v52.35c0,3.25-2.64,5.89-5.89,5.89h-.44c-3.25,0-5.89-2.64-5.89-5.89v-52.35c0-3.25,2.64-5.89,5.89-5.89Z" transform="translate(-71.22 161.94) rotate(-15.99)"/>
          <rect class="uuid-435ea7c5-2670-4640-9de2-d5a6fd661be5" x="515.47" y="309.56" width="12.23" height="64.13" rx="5.89" ry="5.89" transform="translate(-73.94 156.93) rotate(-15.99)"/>
        </g>
        <g>
          <path class="uuid-32bfd3e3-41a3-462c-9d8a-055e9ccd2235" d="m463.03,298.89s-9.81-7.17.75-13.67c-4.98-5.29.9-8.2.9-8.2,0,0-1.5-13.45,14-8.16-.68-13.69,21.13-17.59,26.88-8.49,0,0,10.14-13.09,20.77-1.37,6.73-6.18,14.47-2.24,13.93,5.63,10.37-4.43,21.14,10.51,15.39,16.97,6.02,8.12,2.04,15.31-.64,16.52l6.2,21.62c2.02,7.03-4.01,9.2-7.81,9.46-3.8.25-8.01-4.14-10.65-12.56s-3.91-11.84-3.91-11.84c0,0-7.19.96-9.32-5.09s-6.56-7.97-6.56-7.97c0,0-9.06,8.57-15.89-.82-.61,5.05-11.29,6.31-11.29,6.31,0,0,3.26,7.56-2.89,10.41l4.32,15.06c1.08,3.77.05,8.84-5.08,9.71s-7.49-9.89-9.77-17.79c-2.27-7.9-3.04-10.6-3.04-10.6,0,0-8.22,3.16-10.7-8.29,0,0-3.89-.26-5.59,3.15h0Z"/>
          <g>
            <path class="uuid-38faa420-c23b-485c-a4ff-71deb92773a1" d="m474.9,288.6s-.02-4.01,4.55-5.86c4.57-1.85,5.96.57,5.96.57,0,0,5.52-7.71,11.1-.9"/>
            <path class="uuid-38faa420-c23b-485c-a4ff-71deb92773a1" d="m496.79,265.33s6.93-10.33,16.76-.55"/>
            <path class="uuid-38faa420-c23b-485c-a4ff-71deb92773a1" d="m525.32,273.53s9.89-3.61,10.32,7.24"/>
            <path class="uuid-38faa420-c23b-485c-a4ff-71deb92773a1" d="m478.68,268.86c.09,2.66.61,4.23.61,4.23"/>
            <path class="uuid-38faa420-c23b-485c-a4ff-71deb92773a1" d="m464.67,277.01c1.72-.8,3.61-1.03,3.61-1.03"/>
          </g>
        </g>
      </g>
    </g>
  </g>
</svg>