<?xml version="1.0" encoding="UTF-8"?>
<svg id="uuid-918f0af7-69b1-4d0f-8b25-1ebb8fa0263c" data-name="BODY" xmlns="http://www.w3.org/2000/svg" viewBox="0 0 600 600">
  <defs>
    <style>
      .uuid-a94f1842-96f2-46e0-80ad-453adfe7c791 {
        fill: #a07bff;
      }

      .uuid-a94f1842-96f2-46e0-80ad-453adfe7c791, .uuid-076e47b0-9fcb-4add-9be6-e3a2aa36a1ab, .uuid-4e971888-5854-439c-9814-73de44346e35 {
        stroke: #000;
        stroke-linecap: round;
        stroke-linejoin: round;
        stroke-width: 2px;
      }

      .uuid-076e47b0-9fcb-4add-9be6-e3a2aa36a1ab {
        fill: #fff7f0;
      }

      .uuid-4e971888-5854-439c-9814-73de44346e35 {
        fill: none;
      }
    </style>
  </defs>
  <g id="uuid-2076c04b-299b-4973-851a-784433720c9f" data-name="uuid-c46f65ed-d275-49a6-b41b-9935c7f7cc5c">
    <g id="uuid-57e7f47e-e750-42fe-918c-fffed7408fdd" data-name="uuid-3d541555-fa28-433a-9ee6-066895a43351">
      <g id="uuid-e3887906-34ba-42eb-a2cc-6ba54a0f247d" data-name="uuid-1fe4f652-122b-4bcd-a2e3-81acaa81d790">
        <g>
          <path class="uuid-4e971888-5854-439c-9814-73de44346e35" d="m508.21,325.78s-.94,17.21-1.53,29.14c-.61,12.3,4.87,22,4.17,36.99"/>
          <g>
            <path class="uuid-076e47b0-9fcb-4add-9be6-e3a2aa36a1ab" d="m498.16,421.23c-.11.15-3.38,1.37-3.64,6.75-2.87-5.14-1.58-9.04,2.43-10.29l1.21,3.53h0Z"/>
            <path class="uuid-076e47b0-9fcb-4add-9be6-e3a2aa36a1ab" d="m504.92,425.01c-.02.19,1.54,3.53-2.11,7.49,5.8-1.42,7.63-5.13,5.53-9.05l-3.42,1.55h0Z"/>
          </g>
          <path class="uuid-a94f1842-96f2-46e0-80ad-453adfe7c791" d="m500.35,408.04s-1.74-14.99,10.78-16.09c12.52-1.11,11.91,19.11,2.97,21.21,2.22,4.75-1.77,17.53-13.83,11.65-7.05-3.44-5.5-13.96.08-16.77h0Z"/>
          <path class="uuid-4e971888-5854-439c-9814-73de44346e35" d="m500.35,408.04c2.72-1.28,6.49-.58,8.63.3"/>
          <path class="uuid-4e971888-5854-439c-9814-73de44346e35" d="m514.1,413.16c-.32-.86-1.88-2.26-1.88-2.26"/>
          <path class="uuid-4e971888-5854-439c-9814-73de44346e35" d="m504.01,395.1s-2.7-5.97-2.23-8.56,8.01-8.89,8.01-8.89"/>
          <path class="uuid-4e971888-5854-439c-9814-73de44346e35" d="m508.75,371.28s12.36,10.12,13.66,13.08-3.35,11.4-3.35,11.4"/>
          <path class="uuid-4e971888-5854-439c-9814-73de44346e35" d="m501.94,398.08s-5.97-7.21-8.7-8.12-8.57,3.3-8.57,3.3"/>
          <path class="uuid-4e971888-5854-439c-9814-73de44346e35" d="m500.48,403.15s-6.33-3.19-9.12-2.15c-2.79,1.04-5.91,7.66-5.91,7.66"/>
          <path class="uuid-4e971888-5854-439c-9814-73de44346e35" d="m520.66,403.16s7.58-3.45,10.77-3.45,7.01,7.63,7.01,7.63"/>
          <path class="uuid-4e971888-5854-439c-9814-73de44346e35" d="m519.5,408.12s6.93,2.76,7.78,5.81,0,10,0,10"/>
          <path class="uuid-4e971888-5854-439c-9814-73de44346e35" d="m496.18,413.16s-7.16-3.18-7.75,10.05"/>
          <path class="uuid-4e971888-5854-439c-9814-73de44346e35" d="m513.16,422.01s6.82,7.71-4.83,13.18"/>
          <path class="uuid-076e47b0-9fcb-4add-9be6-e3a2aa36a1ab" d="m495.97,419.75c-1.97-6.64,4.68-7.08,5.46-1.74s-3.89,7.03-5.46,1.74Z"/>
          <path class="uuid-076e47b0-9fcb-4add-9be6-e3a2aa36a1ab" d="m505.56,420.95c4.71-5.08,8.48.42,4.27,3.81s-8.03.23-4.27-3.81Z"/>
          <ellipse cx="498.31" cy="418.89" rx=".84" ry="1.27" transform="translate(-64.89 92.41) rotate(-9.95)"/>
          <ellipse cx="507.84" cy="423.07" rx="1.27" ry=".84" transform="translate(-152.31 456.1) rotate(-42.66)"/>
        </g>
      </g>
    </g>
  </g>
</svg>