<?xml version="1.0" encoding="UTF-8"?>
<svg xmlns="http://www.w3.org/2000/svg" viewBox="0 0 600 600">
<svg id="uuid-b5df70f2-f26b-4cc4-9992-c02ca3e1ffe7" data-name="BACKGROUND" xmlns="http://www.w3.org/2000/svg" viewBox="0 0 600 600"><defs><style>
      .uuid-b49e1da8-89ab-4517-8063-4eac3fbcc068 {
        fill: #3ef1ff;
      }
    </style></defs><rect class="uuid-b49e1da8-89ab-4517-8063-4eac3fbcc068" x="-1" y="-1" width="602" height="602"/></svg>
<svg id="uuid-33f0a83e-2b0c-4eb8-8fa3-bfa9ea5086d3" data-name="BACKGROUND" xmlns="http://www.w3.org/2000/svg" viewBox="0 0 600 600"><defs><style>
      .uuid-450a74f4-b6b6-47ff-a9b8-91a171e1e341, .uuid-7fae2aa8-9ea1-45c0-a459-daab5bb141c8, .uuid-28d15e62-18ad-457b-95e7-fa4bdbf6607d, .uuid-f34e6d04-5895-4a55-8123-65c0a5c276be, .uuid-6f41a922-4956-4224-af6c-3d28e38947e5, .uuid-57d641cc-3e15-4ae9-829f-c36df3c7f79a, .uuid-5d2ce935-29a4-4a67-ac10-b6bb4cf3dd30 {
        stroke: #000;
        stroke-width: 2px;
      }

      .uuid-450a74f4-b6b6-47ff-a9b8-91a171e1e341, .uuid-7fae2aa8-9ea1-45c0-a459-daab5bb141c8, .uuid-28d15e62-18ad-457b-95e7-fa4bdbf6607d, .uuid-6f41a922-4956-4224-af6c-3d28e38947e5, .uuid-57d641cc-3e15-4ae9-829f-c36df3c7f79a {
        stroke-linecap: round;
      }

      .uuid-450a74f4-b6b6-47ff-a9b8-91a171e1e341, .uuid-f34e6d04-5895-4a55-8123-65c0a5c276be, .uuid-57d641cc-3e15-4ae9-829f-c36df3c7f79a, .uuid-5d2ce935-29a4-4a67-ac10-b6bb4cf3dd30 {
        fill: #8400ff;
      }

      .uuid-450a74f4-b6b6-47ff-a9b8-91a171e1e341, .uuid-6f41a922-4956-4224-af6c-3d28e38947e5, .uuid-5d2ce935-29a4-4a67-ac10-b6bb4cf3dd30 {
        stroke-linejoin: round;
      }

      .uuid-7b9f3a05-4cc7-4b23-b3bf-179c77ea9f5f, .uuid-28d15e62-18ad-457b-95e7-fa4bdbf6607d {
        fill: #fff;
      }

      .uuid-7fae2aa8-9ea1-45c0-a459-daab5bb141c8 {
        fill: #ffff0d;
      }

      .uuid-7fae2aa8-9ea1-45c0-a459-daab5bb141c8, .uuid-28d15e62-18ad-457b-95e7-fa4bdbf6607d, .uuid-f34e6d04-5895-4a55-8123-65c0a5c276be, .uuid-57d641cc-3e15-4ae9-829f-c36df3c7f79a {
        stroke-miterlimit: 10;
      }

      .uuid-6f41a922-4956-4224-af6c-3d28e38947e5 {
        fill: none;
      }
    </style></defs><path class="uuid-450a74f4-b6b6-47ff-a9b8-91a171e1e341" d="m409.81,359.6c9.2,3.77,29.89,12.05,42.79,16.03,2.11.65,4.41.69,6.5-.04,11.79-4.08,28.47-11.39,33.03-11.32,5.25.08,7.8,3.93,19.88,2.04,13.36-2.1,22.43-11.99,20.93-23.3-4.21-43.28-25.18-26.79-25.18-26.79,0,0-5.84-8.75-18.76-4.82-11.83,3.6-10.2,14.44-6.47,22.47l-25.29,8.58c-2.14.72-4.45.71-6.59-.02l-35.7-12.61"/><path class="uuid-57d641cc-3e15-4ae9-829f-c36df3c7f79a" d="m533.36,312.82c2.5,3.94,1.62,9.14-1.57,12.4-2.47,2.53-5.88,3.88-9.32,4.4-2.8.43-5.7.42-8.49-.08-2.14-.39-4.29-1.1-5.79-2.75-1.66-1.83-2.27-4.46-1.98-6.87.51-4.17,3.84-7.14,7.22-9.26,3.17-1.98,6.86-3.26,10.64-3.09,3.8.18,7.36,2.19,9.3,5.24Z"/><path class="uuid-57d641cc-3e15-4ae9-829f-c36df3c7f79a" d="m538.57,349.84c.97,3.03.32,6.43-1.5,9.01-3.77,5.33-11.17,5.65-16.96,4.27-3.31-.79-6.69-2.21-8.67-5.13-3.13-4.61-.82-9.79,3.48-12.56,2.58-1.66,5.61-2.67,8.63-3.14,5.73-.89,13.1,1.51,15.03,7.56Z"/><path class="uuid-57d641cc-3e15-4ae9-829f-c36df3c7f79a" d="m538.71,328.53c1.8,2.99,2.06,6.89.22,9.9-1.95,3.2-4.94,5.25-8.49,6.28-3.66,1.07-7.64,1.27-11.4.44-2.25-.5-4.53-1.38-5.96-3.28-1.86-2.47-1.89-5.68-.85-8.49,1.2-3.24,4.17-5.69,7.09-7.37,6.15-3.56,15.21-4.43,19.39,2.52Z"/><path class="uuid-57d641cc-3e15-4ae9-829f-c36df3c7f79a" d="m501.85,311.68s9.27,3.84,7.77,12.02c-1.04,5.68-8.17,9.55-14.94,6.13"/><path class="uuid-6f41a922-4956-4224-af6c-3d28e38947e5" d="m500.67,331.08c2.41,1.63,5.11,8.04,3.4,14.42"/><path d="m443.44,339.88c-2.88,10.58-6.94,20.23-11.17,28.59-10.17-3.78-21.16-9.53-27-11.93l11.83-26.02,26.35,9.36Z"/><ellipse cx="300" cy="518.65" rx="138.6" ry="22.93"/><path class="uuid-f34e6d04-5895-4a55-8123-65c0a5c276be" d="m319.36,427.14c-1.16,1.05-54.95,57-54.95,57,0,0,21.51-1.95,31.74,10.62,10.23,12.57,7.26,23.89,7.26,23.89h-66.9s-28.69-36.17-28.69-36.17c0,0,3.74-13.4,20.44-10.59,20.9-19.38,55.52-59.13,55.52-59.13l35.59,14.38Z"/><path d="m283.78,412.76l31.28,12.64-3.24,9.5c-2.93,3.03-9.76,10.12-13.64,14.14-11.92,0-27.98-2.13-41.33-6.37,13.95-15.1,26.93-29.92,26.93-29.92Z"/><path class="uuid-f34e6d04-5895-4a55-8123-65c0a5c276be" d="m354.45,173.54l-.11.27-174.2,58.29c-11.49,20.13-18.05,43.43-18.05,68.27,0,76.2,61.77,137.98,137.97,137.98s137.98-61.77,137.98-137.98c0-56.89-34.43-105.72-83.58-126.83Z"/><path class="uuid-6f41a922-4956-4224-af6c-3d28e38947e5" d="m264.41,484.14c-4.06.49-11.49,1.36-17.85,7.23"/><path class="uuid-7b9f3a05-4cc7-4b23-b3bf-179c77ea9f5f" d="m185.17,308.14c-4.41,0-7.98-3.57-7.98-7.98,0-67.74,55.11-122.86,122.86-122.86,4.41,0,7.98,3.57,7.98,7.98s-3.57,7.98-7.98,7.98c-58.94,0-106.9,47.95-106.9,106.9,0,4.41-3.57,7.98-7.98,7.98Z"/><path d="m203.75,397.46l34.2-27.46-24.86,36.3c-6.73-5.1-3.66-2.61-9.34-8.83Z"/><path class="uuid-5d2ce935-29a4-4a67-ac10-b6bb4cf3dd30" d="m323.72,387.31c19.14-13.4,39.15-11.3,55.52,7.36,19.6,22.35,30.57,33.06,30.57,33.06,0,0,10.74-19.34,34.77-17.5,18.26,1.4,24.84,14.43,24.84,14.43,0,0,6.21,8.82-22.45,33.5-28.66,24.68-54.93,40.92-61.14,29.46-6.21-11.46-2.82-32.1-2.82-32.1,0,0-22.02-26.09-27.94-32.01-6.79-6.79-15.71-1.36-15.71-1.36"/><path class="uuid-f34e6d04-5895-4a55-8123-65c0a5c276be" d="m446.97,458.17c-25.89,22.29-49.82,37.69-58.79,32.02-9.77-7.44,26.84-38.54,44.88-52.7,18.04-14.16,32.17-17.82,36.36-12.81,0,0,6.21,8.82-22.45,33.5Z"/><path class="uuid-6f41a922-4956-4224-af6c-3d28e38947e5" d="m409.81,427.74c-1.89,2.86-4.55,10.38-4.55,10.38"/><ellipse class="uuid-28d15e62-18ad-457b-95e7-fa4bdbf6607d" cx="269.41" cy="209.07" rx="94.9" ry="26.25" transform="translate(-52.5 96.54) rotate(-18.55)"/><ellipse class="uuid-7fae2aa8-9ea1-45c0-a459-daab5bb141c8" cx="269.41" cy="209.07" rx="71.19" ry="13.32" transform="translate(-52.5 96.54) rotate(-18.55)"/><g><path class="uuid-450a74f4-b6b6-47ff-a9b8-91a171e1e341" d="m214.11,345.7c-8.05,5.83-25.34,20.79-35.52,29.67-1.67,1.45-2.82,3.41-3.39,5.55-3.14,11.67-8.55,33.44-8.55,33.44,0,0-8.42.58-12.19,14.35-3.64,13.3-6.64,25.06,3.77,29.75.35,7.47,7.51,15.45,19.2,9.41.14-.06,1.32,1.32,1.44,1.45,2.64,2.7,6.36,4.45,10.13,4.81,3.65.36,7.61-.67,10.43-3.08,3.29-2.81,5.4-6.94,6.05-11.2.4-2.61.26-5.31-.75-7.78,0,0,6.2-2.51,8.05-11.34,1.99-9.49-4.22-19.42-14.62-18.18l6.17-23.11c.51-2.2,1.74-4.16,3.49-5.59l29.38-24.3"/><path class="uuid-6f41a922-4956-4224-af6c-3d28e38947e5" d="m204.73,452.06c-1.37-3.47-5.39-7.08-9-6.88"/><path class="uuid-6f41a922-4956-4224-af6c-3d28e38947e5" d="m178.86,469.3c-5.16-5.27-3.82-11.97-2.9-13.54"/><path class="uuid-6f41a922-4956-4224-af6c-3d28e38947e5" d="m158.22,458.45c-.27-5.22.73-7.32,3.06-9.83"/><path class="uuid-6f41a922-4956-4224-af6c-3d28e38947e5" d="m193.93,450.63c.14-2.07.48-4.16,1.32-6.06.85-1.95,2.36-3.88,4.31-4.85"/></g></svg>
<svg id="uuid-1cc09208-f3e2-41e0-bf45-a113ad3f9612" data-name="BODY" xmlns="http://www.w3.org/2000/svg" viewBox="0 0 600 600"><defs><style>
      .uuid-b1fb9c84-9278-4c3a-8295-76e21ab76bac {
        fill: none;
        stroke: #000;
        stroke-linecap: round;
        stroke-miterlimit: 10;
        stroke-width: 4px;
      }
    </style></defs><circle cx="369.54" cy="262.94" r="9.78" transform="translate(-8.58 12.49) rotate(-1.91)"/><path class="uuid-b1fb9c84-9278-4c3a-8295-76e21ab76bac" d="m352.87,296.37c1.76,5.11,7.33,7.82,12.44,6.06,5.11-1.76,7.82-7.33,6.06-12.44"/><circle cx="337.63" cy="273.96" r="9.78" transform="translate(-8.96 11.43) rotate(-1.91)"/></svg>
<svg id="uuid-b435763a-c472-44da-a67a-e9e837fe0ccc" data-name="BODY" xmlns="http://www.w3.org/2000/svg" viewBox="0 0 600 600"><defs><style>
      .uuid-4a0441b6-000c-4e7a-abf1-7c702da6f88d {
        fill: #7aa6ff;
      }

      .uuid-4a0441b6-000c-4e7a-abf1-7c702da6f88d, .uuid-c6cdb512-b792-458d-9ced-5ea59dfaeca5, .uuid-6d94cb51-a65b-4f8c-a1b1-406de2803bfa, .uuid-ae63226a-9b36-45a3-82d1-fbc4c564cf5c {
        stroke: #000;
        stroke-linecap: round;
        stroke-linejoin: round;
      }

      .uuid-4a0441b6-000c-4e7a-abf1-7c702da6f88d, .uuid-6d94cb51-a65b-4f8c-a1b1-406de2803bfa, .uuid-ae63226a-9b36-45a3-82d1-fbc4c564cf5c {
        stroke-width: 2px;
      }

      .uuid-aa825ba1-e97a-4699-b196-07d41c01d80a {
        fill: #3ef1ff;
      }

      .uuid-c6cdb512-b792-458d-9ced-5ea59dfaeca5 {
        stroke-width: 2px;
      }

      .uuid-c6cdb512-b792-458d-9ced-5ea59dfaeca5, .uuid-6d94cb51-a65b-4f8c-a1b1-406de2803bfa {
        fill: #fff7f0;
      }

      .uuid-ae63226a-9b36-45a3-82d1-fbc4c564cf5c {
        fill: none;
      }
    </style></defs><g id="uuid-d21cdb81-6d30-4aee-95e2-0cd1953e30cb" data-name="uuid-0ddaaa68-545c-4eb2-a737-12a968a2ee61"><g id="uuid-6584a94e-1531-4cce-8f9d-343e3ee22826" data-name="uuid-0f5b18c2-d5c6-4aaa-8f08-473e1121eb23"><g id="uuid-0d2b73fa-9296-464b-8ccd-8fb51db96085" data-name="uuid-bf236e71-ae9d-44b4-a6ab-50816829c233"><path class="uuid-6d94cb51-a65b-4f8c-a1b1-406de2803bfa" d="m144.15,313.8c-.28-3.84-.43-7.72-.43-11.63,0-86.31,69.97-156.28,156.28-156.28,74.78,0,137.3,52.53,152.66,122.7-32.23,51.24-213.13,84.28-308.51,45.21h0Z"/><path class="uuid-6d94cb51-a65b-4f8c-a1b1-406de2803bfa" d="m143.99,310.94c-9.53-4.06-13.98,9.29-1.3,14.86,12.68,5.57,83.63,25.81,187.61,8.37,80.49-13.5,118.49-44.98,126.94-54.88,8.45-9.9-1.85-16.86-5.17-13.23s-33.72,42.11-135.39,56.99c-105.24,15.4-165.43-9.02-172.7-12.11h0Z"/><path class="uuid-4a0441b6-000c-4e7a-abf1-7c702da6f88d" d="m143.72,300s13.04,5.13,29.37,9.21v-15.26s-16.89-3.19-28.48-8.56c0,0-.54,5.84-.89,14.61Z"/><polygon class="uuid-4a0441b6-000c-4e7a-abf1-7c702da6f88d" points="180.37 310.76 180.27 295.65 189.34 297.3 189.82 312.95 180.37 310.76"/><g><path class="uuid-6d94cb51-a65b-4f8c-a1b1-406de2803bfa" d="m247.79,316.97c-2.24-.97-4.61-1.19-6.84-.76-3.67.7-14.16,5.28-15.76,8.97-2.57,5.92,7.37,10.68,13.29,13.25l18.96,14.57,7.65-3.02,9.31-21.46-26.61-11.55h0Z"/><rect class="uuid-c6cdb512-b792-458d-9ced-5ea59dfaeca5" x="237.1" y="321.98" width="23.39" height="29" transform="translate(-158.93 430.74) rotate(-66.54)"/><circle class="uuid-4a0441b6-000c-4e7a-abf1-7c702da6f88d" cx="235.49" cy="330.71" r="11.69"/><circle class="uuid-6d94cb51-a65b-4f8c-a1b1-406de2803bfa" cx="235.49" cy="330.71" r="6.32"/><line class="uuid-ae63226a-9b36-45a3-82d1-fbc4c564cf5c" x1="266.75" y1="331.53" x2="274.4" y2="328.51"/></g><g><path class="uuid-4a0441b6-000c-4e7a-abf1-7c702da6f88d" d="m196.05,231.32s22.08-30.4,74.49-54.02c52.41-23.62,110.53-11.95,110.53-11.95,0,0,21.58,9.91,44.53,37.62,12.56,15.17,22.27,39.78,22.27,39.78,0,0-15.89,36.62-87.54,61.53-71.65,24.91-153.37-9.48-165.47-18.89,0,0,14.75-7.61,13.01-27.92-1.74-20.32-11.82-26.15-11.82-26.15Z"/><g><path class="uuid-aa825ba1-e97a-4699-b196-07d41c01d80a" d="m270.45,186.45c-7.13,2.28-12.08,5.9-12.08,5.9,0,0,1.2,60.27,20.88,108.62,17.33,3.21,36.8.86,36.8.86,0,0-14.89-20.19-28.84-57.27-13.95-37.08-16.77-58.1-16.77-58.1h0Z"/><path class="uuid-aa825ba1-e97a-4699-b196-07d41c01d80a" d="m320.88,172.05s6.01-1.06,9.19-1.06c38.43,41.61,75.68,101.61,75.68,101.61,0,0-31.59,18.62-57.52,23.93,5.89-20.28,7.43-51.51-2.24-76.86-9.67-25.34-25.11-47.62-25.11-47.62Z"/><path class="uuid-aa825ba1-e97a-4699-b196-07d41c01d80a" d="m358.09,169.61c-.26-.22,19.02,1.38,19.02,1.38,0,0,21.01,13.35,35.63,29.48,14.63,16.13,26.76,43.39,26.76,43.39,0,0-6.25,9.75-15.5,16-12.13-32.26-53.54-79.96-65.91-90.24h0Z"/></g><path class="uuid-6d94cb51-a65b-4f8c-a1b1-406de2803bfa" d="m199.82,234.55s23.32-32.08,73.44-54.35c50.12-22.26,115.28-10.61,115.28-10.61,0,0,.28-2.62-6.05-7.12-6.33-4.5-65.2-10.41-111.76,9.97-51.18,22.4-77.67,56.34-77.67,56.34l6.76,5.78h0Z"/><path class="uuid-6d94cb51-a65b-4f8c-a1b1-406de2803bfa" d="m197.61,282.24c44.05,20.53,96.81,34.96,143.03,23.61,32.29-7.93,79.02-28.25,105.89-66.29,0,0,7.43-2.28,6.4,5.15-1.03,7.43-35.45,51.12-109.89,68.47-74.44,17.35-144.78-20.23-153.23-26.72l7.79-4.2h0Z"/></g><g><path class="uuid-6d94cb51-a65b-4f8c-a1b1-406de2803bfa" d="m178.8,283.48l7.38,3.84c2.87,1.49,6.26,1.61,9.22.31,6.25-2.74,15.51-10.14,15.51-29.95s-8.62-26.95-14.84-30.1c-3.27-1.66-7.16-1.54-10.31.32l-6.53,3.86-.43,51.72h0Z"/><ellipse class="uuid-4a0441b6-000c-4e7a-abf1-7c702da6f88d" cx="182.75" cy="257.68" rx="19.2" ry="26.36"/><ellipse class="uuid-6d94cb51-a65b-4f8c-a1b1-406de2803bfa" cx="182.75" cy="257.68" rx="12.45" ry="18.3"/></g></g></g></g></svg>
</svg>