<?xml version="1.0" encoding="UTF-8"?>
<svg xmlns="http://www.w3.org/2000/svg" viewBox="0 0 600 600">
<svg id="uuid-b5df70f2-f26b-4cc4-9992-c02ca3e1ffe7" data-name="BACKGROUND" xmlns="http://www.w3.org/2000/svg" viewBox="0 0 600 600"><defs><style>
      .uuid-b49e1da8-89ab-4517-8063-4eac3fbcc068 {
        fill: #3ef1ff;
      }
    </style></defs><rect class="uuid-b49e1da8-89ab-4517-8063-4eac3fbcc068" x="-1" y="-1" width="602" height="602"/></svg>
<svg id="uuid-9722f958-7a1b-41d5-b127-5f5664340acc" data-name="BACKGROUND" xmlns="http://www.w3.org/2000/svg" viewBox="0 0 600 600"><defs><style>
      .uuid-38d319f8-e1e2-4e35-8358-20269c2b2afc, .uuid-04aa5705-a527-4798-9248-8fcc4f62d66b {
        fill: #fff;
      }

      .uuid-9f9f1948-40a0-4747-af1d-9594efb41061, .uuid-621ab9aa-9a02-467e-87ae-ac926dafbcb1, .uuid-04aa5705-a527-4798-9248-8fcc4f62d66b, .uuid-c9a14ba2-b8bc-42e5-9f8d-275d1fff3c56, .uuid-6105d9dd-9f9c-48ac-a1fa-9ace9529afd0, .uuid-39fc5d50-c0b6-4d72-9b97-695125c5be4a, .uuid-332aab89-d113-4256-b1ac-e39bd2d752c7 {
        stroke: #000;
        stroke-width: 2px;
      }

      .uuid-9f9f1948-40a0-4747-af1d-9594efb41061, .uuid-621ab9aa-9a02-467e-87ae-ac926dafbcb1, .uuid-04aa5705-a527-4798-9248-8fcc4f62d66b, .uuid-39fc5d50-c0b6-4d72-9b97-695125c5be4a {
        stroke-miterlimit: 10;
      }

      .uuid-9f9f1948-40a0-4747-af1d-9594efb41061, .uuid-621ab9aa-9a02-467e-87ae-ac926dafbcb1, .uuid-c9a14ba2-b8bc-42e5-9f8d-275d1fff3c56, .uuid-332aab89-d113-4256-b1ac-e39bd2d752c7 {
        fill: #ffff0d;
      }

      .uuid-621ab9aa-9a02-467e-87ae-ac926dafbcb1, .uuid-04aa5705-a527-4798-9248-8fcc4f62d66b, .uuid-c9a14ba2-b8bc-42e5-9f8d-275d1fff3c56, .uuid-6105d9dd-9f9c-48ac-a1fa-9ace9529afd0, .uuid-39fc5d50-c0b6-4d72-9b97-695125c5be4a {
        stroke-linecap: round;
      }

      .uuid-c9a14ba2-b8bc-42e5-9f8d-275d1fff3c56, .uuid-6105d9dd-9f9c-48ac-a1fa-9ace9529afd0, .uuid-332aab89-d113-4256-b1ac-e39bd2d752c7 {
        stroke-linejoin: round;
      }

      .uuid-6105d9dd-9f9c-48ac-a1fa-9ace9529afd0 {
        fill: none;
      }

      .uuid-39fc5d50-c0b6-4d72-9b97-695125c5be4a {
        fill: #7aa6ff;
      }
    </style></defs><path class="uuid-c9a14ba2-b8bc-42e5-9f8d-275d1fff3c56" d="m409.81,359.6c9.2,3.77,29.89,12.05,42.79,16.03,2.11.65,4.41.69,6.5-.04,11.79-4.08,28.47-11.39,33.03-11.32,5.25.08,7.8,3.93,19.88,2.04,13.36-2.1,22.43-11.99,20.93-23.3-4.21-43.28-25.18-26.79-25.18-26.79,0,0-5.84-8.75-18.76-4.82-11.83,3.6-10.2,14.44-6.47,22.47l-25.29,8.58c-2.14.72-4.45.71-6.59-.02l-35.7-12.61"/><path class="uuid-621ab9aa-9a02-467e-87ae-ac926dafbcb1" d="m533.36,312.82c2.5,3.94,1.62,9.14-1.57,12.4-2.47,2.53-5.88,3.88-9.32,4.4-2.8.43-5.7.42-8.49-.08-2.14-.39-4.29-1.1-5.79-2.75-1.66-1.83-2.27-4.46-1.98-6.87.51-4.17,3.84-7.14,7.22-9.26,3.17-1.98,6.86-3.26,10.64-3.09,3.8.18,7.36,2.19,9.3,5.24Z"/><path class="uuid-621ab9aa-9a02-467e-87ae-ac926dafbcb1" d="m538.57,349.84c.97,3.03.32,6.43-1.5,9.01-3.77,5.33-11.17,5.65-16.96,4.27-3.31-.79-6.69-2.21-8.67-5.13-3.13-4.61-.82-9.79,3.48-12.56,2.58-1.66,5.61-2.67,8.63-3.14,5.73-.89,13.1,1.51,15.03,7.56Z"/><path class="uuid-621ab9aa-9a02-467e-87ae-ac926dafbcb1" d="m538.71,328.53c1.8,2.99,2.06,6.89.22,9.9-1.95,3.2-4.94,5.25-8.49,6.28-3.66,1.07-7.64,1.27-11.4.44-2.25-.5-4.53-1.38-5.96-3.28-1.86-2.47-1.89-5.68-.85-8.49,1.2-3.24,4.17-5.69,7.09-7.37,6.15-3.56,15.21-4.43,19.39,2.52Z"/><path class="uuid-621ab9aa-9a02-467e-87ae-ac926dafbcb1" d="m501.85,311.68s9.27,3.84,7.77,12.02c-1.04,5.68-8.17,9.55-14.94,6.13"/><path class="uuid-6105d9dd-9f9c-48ac-a1fa-9ace9529afd0" d="m500.67,331.08c2.41,1.63,5.11,8.04,3.4,14.42"/><path d="m443.44,339.88c-2.88,10.58-6.94,20.23-11.17,28.59-10.17-3.78-21.16-9.53-27-11.93l11.83-26.02,26.35,9.36Z"/><ellipse cx="300" cy="518.65" rx="138.6" ry="22.93"/><path class="uuid-9f9f1948-40a0-4747-af1d-9594efb41061" d="m319.36,427.14c-1.16,1.05-54.95,57-54.95,57,0,0,21.51-1.95,31.74,10.62,10.23,12.57,7.26,23.89,7.26,23.89h-66.9s-28.69-36.17-28.69-36.17c0,0,3.74-13.4,20.44-10.59,20.9-19.38,55.52-59.13,55.52-59.13l35.59,14.38Z"/><path d="m283.78,412.76l31.28,12.64-3.24,9.5c-2.93,3.03-9.76,10.12-13.64,14.14-11.92,0-27.98-2.13-41.33-6.37,13.95-15.1,26.93-29.92,26.93-29.92Z"/><path class="uuid-9f9f1948-40a0-4747-af1d-9594efb41061" d="m354.45,173.54l-.11.27-174.2,58.29c-11.49,20.13-18.05,43.43-18.05,68.27,0,76.2,61.77,137.98,137.97,137.98s137.98-61.77,137.98-137.98c0-56.89-34.43-105.72-83.58-126.83Z"/><path class="uuid-6105d9dd-9f9c-48ac-a1fa-9ace9529afd0" d="m264.41,484.14c-4.06.49-11.49,1.36-17.85,7.23"/><path class="uuid-38d319f8-e1e2-4e35-8358-20269c2b2afc" d="m185.17,308.14c-4.41,0-7.98-3.57-7.98-7.98,0-67.74,55.11-122.86,122.86-122.86,4.41,0,7.98,3.57,7.98,7.98s-3.57,7.98-7.98,7.98c-58.94,0-106.9,47.95-106.9,106.9,0,4.41-3.57,7.98-7.98,7.98Z"/><path d="m203.75,397.46l34.2-27.46-24.86,36.3c-6.73-5.1-3.66-2.61-9.34-8.83Z"/><path class="uuid-332aab89-d113-4256-b1ac-e39bd2d752c7" d="m323.72,387.31c19.14-13.4,39.15-11.3,55.52,7.36,19.6,22.35,30.57,33.06,30.57,33.06,0,0,10.74-19.34,34.77-17.5,18.26,1.4,24.84,14.43,24.84,14.43,0,0,6.21,8.82-22.45,33.5-28.66,24.68-54.93,40.92-61.14,29.46-6.21-11.46-2.82-32.1-2.82-32.1,0,0-22.02-26.09-27.94-32.01-6.79-6.79-15.71-1.36-15.71-1.36"/><path class="uuid-9f9f1948-40a0-4747-af1d-9594efb41061" d="m446.97,458.17c-25.89,22.29-49.82,37.69-58.79,32.02-9.77-7.44,26.84-38.54,44.88-52.7,18.04-14.16,32.17-17.82,36.36-12.81,0,0,6.21,8.82-22.45,33.5Z"/><path class="uuid-6105d9dd-9f9c-48ac-a1fa-9ace9529afd0" d="m409.81,427.74c-1.89,2.86-4.55,10.38-4.55,10.38"/><ellipse class="uuid-04aa5705-a527-4798-9248-8fcc4f62d66b" cx="269.41" cy="209.07" rx="94.9" ry="26.25" transform="translate(-52.5 96.54) rotate(-18.55)"/><ellipse class="uuid-39fc5d50-c0b6-4d72-9b97-695125c5be4a" cx="269.41" cy="209.07" rx="71.19" ry="13.32" transform="translate(-52.5 96.54) rotate(-18.55)"/><g><path class="uuid-c9a14ba2-b8bc-42e5-9f8d-275d1fff3c56" d="m214.11,345.7c-8.05,5.83-25.34,20.79-35.52,29.67-1.67,1.45-2.82,3.41-3.39,5.55-3.14,11.67-8.55,33.44-8.55,33.44,0,0-8.42.58-12.19,14.35-3.64,13.3-6.64,25.06,3.77,29.75.35,7.47,7.51,15.45,19.2,9.41.14-.06,1.32,1.32,1.44,1.45,2.64,2.7,6.36,4.45,10.13,4.81,3.65.36,7.61-.67,10.43-3.08,3.29-2.81,5.4-6.94,6.05-11.2.4-2.61.26-5.31-.75-7.78,0,0,6.2-2.51,8.05-11.34,1.99-9.49-4.22-19.42-14.62-18.18l6.17-23.11c.51-2.2,1.74-4.16,3.49-5.59l29.38-24.3"/><path class="uuid-6105d9dd-9f9c-48ac-a1fa-9ace9529afd0" d="m204.73,452.06c-1.37-3.47-5.39-7.08-9-6.88"/><path class="uuid-6105d9dd-9f9c-48ac-a1fa-9ace9529afd0" d="m178.86,469.3c-5.16-5.27-3.82-11.97-2.9-13.54"/><path class="uuid-6105d9dd-9f9c-48ac-a1fa-9ace9529afd0" d="m158.22,458.45c-.27-5.22.73-7.32,3.06-9.83"/><path class="uuid-6105d9dd-9f9c-48ac-a1fa-9ace9529afd0" d="m193.93,450.63c.14-2.07.48-4.16,1.32-6.06.85-1.95,2.36-3.88,4.31-4.85"/></g></svg>
<svg id="uuid-6a02459f-1b68-443c-bd4b-7b11b7abbe5a" data-name="BODY" xmlns="http://www.w3.org/2000/svg" viewBox="0 0 600 600"><defs><style>
      .uuid-f630b38e-3266-47b2-bfbc-f2260501e18f {
        fill: #ff78d8;
        stroke: #000;
        stroke-linecap: round;
        stroke-linejoin: round;
        stroke-width: 2px;
      }
    </style></defs><circle cx="362.12" cy="293.18" r="9.78" transform="translate(-9.59 12.26) rotate(-1.91)"/><path class="uuid-f630b38e-3266-47b2-bfbc-f2260501e18f" d="m337.57,261.14c-1.59,1.06-2.46,2.67-2.79,4.19-.28,1.29-1.56,2.12-2.85,1.86-1.5-.3-3.22-.16-4.8.89-2.88,1.92-3.44,6.16-1.23,9.48,3.99,6.01,12.54,6.76,17.83,6.27.82-.08,1.55-.56,1.94-1.29,2.5-4.69,5.12-12.85,1.13-18.86-2.2-3.32-6.33-4.45-9.21-2.54Z"/><path class="uuid-f630b38e-3266-47b2-bfbc-f2260501e18f" d="m371.18,249c-1.81.61-3.07,1.94-3.79,3.32-.6,1.17-2.05,1.64-3.24,1.06-1.37-.67-3.07-1-4.87-.39-3.28,1.1-4.92,5.06-3.65,8.83,2.29,6.84,10.35,9.79,15.59,10.69.82.14,1.64-.14,2.21-.74,3.64-3.88,8.28-11.08,5.99-17.92-1.27-3.78-4.96-5.94-8.24-4.84Z"/></svg>
<svg id="uuid-2f504206-111c-4779-9236-233d24245c5e" data-name="BODY" xmlns="http://www.w3.org/2000/svg" xmlns:xlink="http://www.w3.org/1999/xlink" viewBox="0 0 600 600"><defs><style>
      .uuid-d3edaed5-c7c6-4c4d-aa40-9a4dd8648ee7, .uuid-68d6c310-ce9e-402f-977e-09a9487d1f3f, .uuid-c55da662-6359-43da-9ece-79f419a77998 {
        fill: none;
      }

      .uuid-a378b470-e58b-414a-9aaa-c42cc7401d46, .uuid-ec8004b7-0527-439b-bc6e-4b5df54d70f5, .uuid-a970ff5c-387f-4ed2-bc98-796834b27354 {
        fill: #7aa6ff;
      }

      .uuid-a378b470-e58b-414a-9aaa-c42cc7401d46, .uuid-ec8004b7-0527-439b-bc6e-4b5df54d70f5, .uuid-68d6c310-ce9e-402f-977e-09a9487d1f3f, .uuid-5f18a3b5-25e8-4b4a-92b0-9c895b96bdd6 {
        stroke: #000;
        stroke-linecap: round;
        stroke-linejoin: round;
      }

      .uuid-a378b470-e58b-414a-9aaa-c42cc7401d46, .uuid-68d6c310-ce9e-402f-977e-09a9487d1f3f, .uuid-5f18a3b5-25e8-4b4a-92b0-9c895b96bdd6 {
        stroke-width: 2px;
      }

      .uuid-ec8004b7-0527-439b-bc6e-4b5df54d70f5 {
        stroke-width: 2px;
      }

      .uuid-5f18a3b5-25e8-4b4a-92b0-9c895b96bdd6 {
        fill: #f9a723;
      }

      .uuid-c55da662-6359-43da-9ece-79f419a77998 {
        clip-path: url(#uuid-eca54416-6e61-412d-a418-e0bcf3f00aa5);
      }
    </style><clipPath id="uuid-eca54416-6e61-412d-a418-e0bcf3f00aa5"><path class="uuid-d3edaed5-c7c6-4c4d-aa40-9a4dd8648ee7" d="m500.24,288.07s3.15-12.64,14.55-12.39c0,0,6.81-3.05,4.79-13.7s-9.48-7.62-9.48-7.62l-3.26,2.83s-4.99-3.71-11.8-4.25c-6.81-.54-29.6,19.74-28.65,47.05l2.58,4.27h5.71s1.04-3.08,1.49-4.63c.71,1.5,2.45,4.63,2.45,4.63h5.46s.25-16.04,10.62-13.7c3.59.81,5.54-2.49,5.54-2.49h0Z"/></clipPath></defs><g id="uuid-867e74de-e6be-4fed-8810-6aee283b78c1" data-name="uuid-7815cad7-8e3a-44d2-a5d3-2b4a6315d68d"><g><g><g><path class="uuid-a970ff5c-387f-4ed2-bc98-796834b27354" d="m500.24,288.07s3.15-12.64,14.55-12.39c0,0,6.81-3.05,4.79-13.7s-9.48-7.62-9.48-7.62l-3.26,2.83s-4.99-3.71-11.8-4.25c-6.81-.54-29.6,19.74-28.65,47.05l2.58,4.27h5.71s1.04-3.08,1.49-4.63c.71,1.5,2.45,4.63,2.45,4.63h5.46s.25-16.04,10.62-13.7c3.59.81,5.54-2.49,5.54-2.49h0Z"/><g class="uuid-c55da662-6359-43da-9ece-79f419a77998"><g><path class="uuid-68d6c310-ce9e-402f-977e-09a9487d1f3f" d="m468.96,304.27c3.56-19.63,12.25-29.34,22.7-23.21"/><path class="uuid-68d6c310-ce9e-402f-977e-09a9487d1f3f" d="m495.04,252.95c.78,9.4,3.57,11.29,11.8,4.25"/><path class="uuid-68d6c310-ce9e-402f-977e-09a9487d1f3f" d="m513.81,261.46s-11.73,5.35-20.22,9.49"/><path class="uuid-68d6c310-ce9e-402f-977e-09a9487d1f3f" d="m476.17,299.64c1.03-4.04,4.15-3.86,3.36-.09-.26,1.25-.58,3.01-.91,4.73"/></g></g><path class="uuid-68d6c310-ce9e-402f-977e-09a9487d1f3f" d="m500.24,288.07s3.15-12.64,14.55-12.39c0,0,6.81-3.05,4.79-13.7s-9.48-7.62-9.48-7.62l-3.26,2.83s-4.99-3.71-11.8-4.25c-6.81-.54-29.6,19.74-28.65,47.05l2.58,4.27h5.71s1.04-3.08,1.49-4.63c.71,1.5,2.45,4.63,2.45,4.63h5.46s.25-16.04,10.62-13.7c3.59.81,5.54-2.49,5.54-2.49h0Z"/></g><g><path class="uuid-a378b470-e58b-414a-9aaa-c42cc7401d46" d="m523.26,261.51c2.07,7.74,7.98,12.89,3.75,14.02-.15.04-7.96,2.12-8.12,2.15-4.13.64-8.94-4.61-10.93-12.07-2.03-7.6-.39-14.68,3.67-16,.07-.02,7.8-2.09,7.87-2.11,4.22-1.13,1.68,6.28,3.75,14.02Z"/><ellipse class="uuid-ec8004b7-0527-439b-bc6e-4b5df54d70f5" cx="523.26" cy="261.51" rx="10.33" ry="14.51" transform="translate(-49.81 144.13) rotate(-14.98)"/><line class="uuid-68d6c310-ce9e-402f-977e-09a9487d1f3f" x1="522.82" y1="253.67" x2="518.96" y2="264.52"/><line class="uuid-68d6c310-ce9e-402f-977e-09a9487d1f3f" x1="525.49" y1="265.86" x2="524.1" y2="269.78"/><line class="uuid-68d6c310-ce9e-402f-977e-09a9487d1f3f" x1="527.96" y1="258.93" x2="527.23" y2="260.97"/></g></g><g><path class="uuid-a378b470-e58b-414a-9aaa-c42cc7401d46" d="m521.42,363.39c-.44-.08-.88-.17-1.31-.27-3.31-.79-6.69-2.21-8.67-5.13-3.13-4.61-.82-9.79,3.48-12.56.56-.36,1.14-.68,1.74-.98-1.39-.55-2.66-1.35-3.57-2.56-1.86-2.47-1.89-5.68-.85-8.49.51-1.39,1.37-2.62,2.39-3.72v-.04c-.22-.03-.44-.05-.65-.09-2.1-.38-4.21-1.08-5.7-2.67-2.17,3.15-6.46,5-10.98,3.92l5.35,47.25,20.98-3.74-2.2-10.91h0Z"/><path class="uuid-5f18a3b5-25e8-4b4a-92b0-9c895b96bdd6" d="m507.62,316.05c.9-1.44,2.13-2.7,3.5-3.77l-6.51-32.3s-1.48-4.85-6.4-4.25c-4.92.61-6.54,5.33-6.54,5.33l3.32,29.35c2.06-.09,4.27.05,6.86,1.27,0,0,3.42,1.42,5.77,4.37h0Z"/></g><line class="uuid-68d6c310-ce9e-402f-977e-09a9487d1f3f" x1="501.22" y1="292.85" x2="502.88" y2="303.21"/><line class="uuid-68d6c310-ce9e-402f-977e-09a9487d1f3f" x1="499.45" y1="281.87" x2="500.24" y2="286.79"/><path class="uuid-a378b470-e58b-414a-9aaa-c42cc7401d46" d="m502.64,378.04c.99,8.71,22.7,4.78,20.98-3.74-1.51-7.49-21.81-3.52-20.98,3.74Z"/><path class="uuid-68d6c310-ce9e-402f-977e-09a9487d1f3f" d="m514.37,360.81c-4.9.25-10.44,1.84-13.21,4.18"/><path class="uuid-68d6c310-ce9e-402f-977e-09a9487d1f3f" d="m510.84,349.77c-4.19.5-8.51,1.88-10.97,3.8"/><path class="uuid-68d6c310-ce9e-402f-977e-09a9487d1f3f" d="m511.64,338.39c-4.76.21-10.15,1.71-13.05,3.94"/></g></g></svg>
<svg id="uuid-cfa177e0-3db8-41e4-8a52-6ff5aa173990" data-name="BACKGROUND" xmlns="http://www.w3.org/2000/svg" viewBox="0 0 600 600"><defs><style>
      .uuid-b8723a43-7cc7-4620-9c33-b5aeb61146d3 {
        opacity: .5;
      }

      .uuid-b8723a43-7cc7-4620-9c33-b5aeb61146d3, .uuid-3ef18c27-fb31-42a1-8e43-d208d9f8ba52, .uuid-d66d6b9e-12fb-4ad4-a164-2db1cf7825d1 {
        fill: none;
      }

      .uuid-3ef18c27-fb31-42a1-8e43-d208d9f8ba52, .uuid-d66d6b9e-12fb-4ad4-a164-2db1cf7825d1 {
        stroke: #000;
        stroke-linecap: round;
        stroke-linejoin: round;
      }

      .uuid-d66d6b9e-12fb-4ad4-a164-2db1cf7825d1 {
        stroke-width: 2px;
      }
    </style></defs><g id="uuid-da9cc0e6-3cfe-461e-8a8f-34904e1cffc2" data-name="uuid-df7eda05-8d90-48fe-8005-fe68a29d7cab"><g id="uuid-7f73c803-a58b-4b9b-9db5-f7182fa6d44b" data-name="uuid-e789c629-4a7f-4a38-b33d-b89f18fb6b0e"><g class="uuid-b8723a43-7cc7-4620-9c33-b5aeb61146d3"><g><circle cx="456.94" cy="353.59" r="2.25"/><circle cx="471.2" cy="357.76" r="1.58"/><circle cx="459.7" cy="348.86" r=".79"/><line class="uuid-d66d6b9e-12fb-4ad4-a164-2db1cf7825d1" x1="466.43" y1="354.78" x2="467.45" y2="357.36"/><line class="uuid-d66d6b9e-12fb-4ad4-a164-2db1cf7825d1" x1="470.91" y1="351.75" x2="472.45" y2="353.59"/><line class="uuid-d66d6b9e-12fb-4ad4-a164-2db1cf7825d1" x1="474.02" y1="347.38" x2="476.29" y2="348.16"/><line class="uuid-d66d6b9e-12fb-4ad4-a164-2db1cf7825d1" x1="475.59" y1="341.74" x2="478.11" y2="341.99"/><line class="uuid-d66d6b9e-12fb-4ad4-a164-2db1cf7825d1" x1="475.59" y1="337.29" x2="478.42" y2="336.3"/><g><path class="uuid-d66d6b9e-12fb-4ad4-a164-2db1cf7825d1" d="m485.94,343.29c.16-.15.32-.3.49-.44,3.21-2.69,7.6-2.73,9.8-.1s1.37,6.94-1.84,9.63c-.17.15-.35.28-.53.41"/><path class="uuid-d66d6b9e-12fb-4ad4-a164-2db1cf7825d1" d="m490.83,354.2c-2.39.58-4.8.01-6.25-1.72-1.45-1.74-1.59-4.2-.58-6.45"/><path class="uuid-d66d6b9e-12fb-4ad4-a164-2db1cf7825d1" d="m489.14,341.28c-2.26-2.7-4.88-3.71-6.29-2.97-1.85.97-1.6,4.94,4.32,12.01,6.04,7.22,10.01,8.14,11.22,6.37.88-1.28.31-3.98-1.98-6.71"/><path class="uuid-d66d6b9e-12fb-4ad4-a164-2db1cf7825d1" d="m484.96,340.63c-.2.5.71,3.05,4.61,7.71,3.85,4.61,6.24,6.02,6.81,5.97"/></g><polygon points="489.53 359.14 491.48 359.75 492.95 358.66 492.48 360.34 493.53 361.96 491.92 361.32 490.18 362.32 490.83 360.72 489.53 359.14"/><polygon points="479.87 350.73 480.59 352.64 482.36 353.13 480.74 353.79 480.12 355.62 479.63 353.95 477.76 353.21 479.42 352.73 479.87 350.73"/><polygon points="490.55 335.71 490.93 336.72 491.86 336.98 491.01 337.33 490.68 338.29 490.42 337.41 489.44 337.02 490.32 336.77 490.55 335.71"/><polygon points="486.04 333.73 486.42 334.73 487.35 334.99 486.5 335.34 486.17 336.3 485.91 335.42 484.93 335.03 485.81 334.78 486.04 333.73"/><path class="uuid-d66d6b9e-12fb-4ad4-a164-2db1cf7825d1" d="m435.59,358.22s1.41,5.62,1.63,6.57c.36,1.52-1.99,4.3,0,5.28,1.99.98,2.71-4.7,3.62-4.7s0,3.34,1.47,3.24,1.19-4.25,2.2-6.4c1.01-2.15,2.98-5.03,3.59-4.85s-.33,3.11.99,3.11,1.42-4.73,2.28-6.8c.86-2.07,2.93-5.01,2.93-5.01,0,0-5.21-4.1-12.49-5.87"/><path class="uuid-d66d6b9e-12fb-4ad4-a164-2db1cf7825d1" d="m454.3,348.66c2.88.86,3.64-3.79,2.17-5.61"/><path class="uuid-3ef18c27-fb31-42a1-8e43-d208d9f8ba52" d="m444.64,351.72s-.3,2.44,1.09,2.79c1.32.34,1.49-1.54,1.49-1.54"/><path class="uuid-3ef18c27-fb31-42a1-8e43-d208d9f8ba52" d="m439.03,360.8s-.03,2.53,1.31,2.53,1.52-1.72,1.52-1.72"/><circle class="uuid-3ef18c27-fb31-42a1-8e43-d208d9f8ba52" cx="441.73" cy="356.91" r="2.24"/><circle class="uuid-3ef18c27-fb31-42a1-8e43-d208d9f8ba52" cx="448.54" cy="348.77" r="2.24"/><circle class="uuid-3ef18c27-fb31-42a1-8e43-d208d9f8ba52" cx="441.33" cy="347.81" r="2.24"/><path class="uuid-d66d6b9e-12fb-4ad4-a164-2db1cf7825d1" d="m452.89,369.39c-2.97-4.45-.67-11.34,6.38-11.03s6.91,9.4,1.96,12.1c0,0,.15,3.78-1.54,3.94s-1.77-2.53-1.77-2.53c0,0-.25,2.93-1.69,2.93s-1.44-2.91-1.44-2.91c0,0-1.29,2.4-2.3,1.79s.41-4.3.41-4.3h0Z"/><path d="m454.84,363.98c2.12-.1,1.2,3.87-.12,3.72s-1.34-3.65.12-3.72Z"/><path d="m458.38,363.98c2.12-.1,1.2,3.87-.12,3.72s-1.34-3.65.12-3.72Z"/><path class="uuid-3ef18c27-fb31-42a1-8e43-d208d9f8ba52" d="m452.45,368.65s-1.59.54-2.68,1.15-1.57,1.77-2.68,1.54c-1.11-.23-1.31-3.05.46-3.64-1.87-.91-1.21-3.39.83-2.73,2.05.66,3.26.87,3.26.87"/><path class="uuid-3ef18c27-fb31-42a1-8e43-d208d9f8ba52" d="m464.77,364.12s.37-.19,1.43-.84,1.49-1.84,2.61-1.66c1.12.18,1.45,2.99-.3,3.65,1.91.83,1.36,3.34-.71,2.77s-3.3-.73-3.3-.73"/><polygon class="uuid-d66d6b9e-12fb-4ad4-a164-2db1cf7825d1" points="471.72 367.45 477.43 362.52 475.23 355.24 480.64 360.8 487.27 358.34 482.73 363.48 483.27 366.24 480.57 367.45 479.21 365.67 471.72 367.45"/><path class="uuid-d66d6b9e-12fb-4ad4-a164-2db1cf7825d1" d="m465.64,339.6s-5.81,8.05-1.14,15.89c0,0,12.97-3.08,10.86-19.19"/><path class="uuid-d66d6b9e-12fb-4ad4-a164-2db1cf7825d1" d="m464.5,355.49s2.34-9.66,6.41-17.67"/><path d="m466.16,349.71c3.8,0,8.34-6.47,4.25-10.69l-4.25,10.69Z"/></g><g><path class="uuid-d66d6b9e-12fb-4ad4-a164-2db1cf7825d1" d="m187.2,411.38c-.39,0-.77.04-1.15.1,1.97.69,3.39,2.54,3.39,4.74,0,2.78-2.26,5.04-5.04,5.04-2.2,0-4.05-1.42-4.74-3.39-.06.38-.1.76-.1,1.15,0,4.22,3.42,7.63,7.63,7.63s7.63-3.42,7.63-7.63-3.42-7.63-7.63-7.63h0Z"/><circle cx="182.72" cy="414.55" r="1.79"/><circle cx="202.81" cy="377.76" r="1.79"/><circle cx="226.98" cy="350.5" r="1.26"/><circle cx="227.31" cy="346.96" r="1.26"/><circle cx="230.42" cy="348.73" r="1.26"/><circle cx="204.15" cy="383.07" r=".79"/><circle cx="188.24" cy="385.47" r=".79"/><circle cx="193.15" cy="402.91" r="1.86"/><polyline class="uuid-d66d6b9e-12fb-4ad4-a164-2db1cf7825d1" points="167.11 412.5 189.56 406.71 184.75 387.34 172.72 390.32"/><polyline class="uuid-d66d6b9e-12fb-4ad4-a164-2db1cf7825d1" points="168.47 407.03 184.7 402.92 182.02 391.69 171.68 394.38"/><polyline class="uuid-d66d6b9e-12fb-4ad4-a164-2db1cf7825d1" points="170.66 398.39 175.81 397.05 176.74 400.78 169.58 402.64"/><line class="uuid-d66d6b9e-12fb-4ad4-a164-2db1cf7825d1" x1="178.33" y1="404.53" x2="182.59" y2="408.51"/><line class="uuid-3ef18c27-fb31-42a1-8e43-d208d9f8ba52" x1="167.84" y1="409.74" x2="176.99" y2="407.44"/><path class="uuid-d66d6b9e-12fb-4ad4-a164-2db1cf7825d1" d="m205.84,374.96s-.35-10.78.3-15.52c.96-6.93,11.93-10.21,13.25,2.17,0,0,8.54-.91,8.24,6.93-.3,7.84-21.79,6.42-21.79,6.42h0Z"/><line class="uuid-d66d6b9e-12fb-4ad4-a164-2db1cf7825d1" x1="231.71" y1="363.58" x2="234.81" y2="366.21"/><polyline class="uuid-d66d6b9e-12fb-4ad4-a164-2db1cf7825d1" points="227.42 366.21 234.81 366.21 231.84 369.24"/><polyline class="uuid-d66d6b9e-12fb-4ad4-a164-2db1cf7825d1" points="198.14 363.58 201.04 366.21 205.76 366.21"/><line class="uuid-d66d6b9e-12fb-4ad4-a164-2db1cf7825d1" x1="198.14" y1="368.77" x2="201.04" y2="366.21"/><polyline class="uuid-d66d6b9e-12fb-4ad4-a164-2db1cf7825d1" points="212.08 390.32 205.48 391.69 207.82 381.38 220.85 378.01 218.7 384.85"/><polyline class="uuid-d66d6b9e-12fb-4ad4-a164-2db1cf7825d1" points="220.85 378.01 211.08 386.16 205.48 391.69"/><polyline class="uuid-d66d6b9e-12fb-4ad4-a164-2db1cf7825d1" points="207.82 381.38 211.08 386.16 214.52 387.78"/><polygon points="181.67 385.68 182.73 380.67 188.24 378.01 182.18 377.64 181.27 373.44 179.46 374.61 179.46 378.5 174.8 382.38 179.6 382.24 181.67 385.68"/><path class="uuid-d66d6b9e-12fb-4ad4-a164-2db1cf7825d1" d="m200.78,411.95c-4.13.25-4.67-2.83-3.25-12.59-7.35-2.41-6.94-7.47-5.39-11.21,1.55-3.74-1.69-8.26-2.06-9.81-.37-1.55.67-4.89,1.28-4.9.42-.01.87,1.45,1.11,2.37.11.42.49.72.93.72h1.13c.41,0,.77-.26.9-.64.34-.98,1-2.74,1.27-2.77.37-.03,1.72,2.66,1.72,4.45s-.37,3.74.13,5.09,4.96,6.44,4.28,11.06-5.29,5.65-5.29,5.65"/><path class="uuid-d66d6b9e-12fb-4ad4-a164-2db1cf7825d1" d="m193.15,408.93s3.3-5.26,9.17-2.69"/><line class="uuid-3ef18c27-fb31-42a1-8e43-d208d9f8ba52" x1="209.07" y1="375.05" x2="209.07" y2="370.51"/><line class="uuid-3ef18c27-fb31-42a1-8e43-d208d9f8ba52" x1="211.99" y1="370" x2="212.13" y2="375.01"/><line class="uuid-3ef18c27-fb31-42a1-8e43-d208d9f8ba52" x1="215.43" y1="374.81" x2="214.86" y2="370"/><line class="uuid-3ef18c27-fb31-42a1-8e43-d208d9f8ba52" x1="218.76" y1="374.38" x2="217.89" y2="369.65"/><line class="uuid-3ef18c27-fb31-42a1-8e43-d208d9f8ba52" x1="222.26" y1="373.56" x2="220.85" y2="369.24"/><line class="uuid-3ef18c27-fb31-42a1-8e43-d208d9f8ba52" x1="225.08" y1="372.32" x2="223.15" y2="368.3"/><line class="uuid-3ef18c27-fb31-42a1-8e43-d208d9f8ba52" x1="227.42" y1="369.67" x2="224.77" y2="366.78"/><line class="uuid-3ef18c27-fb31-42a1-8e43-d208d9f8ba52" x1="219.39" y1="361.61" x2="215.6" y2="363.07"/><line class="uuid-3ef18c27-fb31-42a1-8e43-d208d9f8ba52" x1="218.9" y1="358.92" x2="214.86" y2="360.58"/><line class="uuid-3ef18c27-fb31-42a1-8e43-d208d9f8ba52" x1="217.89" y1="356.43" x2="213.95" y2="358.62"/><line class="uuid-3ef18c27-fb31-42a1-8e43-d208d9f8ba52" x1="215.6" y1="354.01" x2="212.9" y2="357.01"/><line class="uuid-3ef18c27-fb31-42a1-8e43-d208d9f8ba52" x1="211.99" y1="353.34" x2="211.32" y2="356.43"/><circle class="uuid-d66d6b9e-12fb-4ad4-a164-2db1cf7825d1" cx="230.42" cy="351.71" r="8.87"/></g></g></g></g></svg>
<svg id="uuid-67e41f4c-36c3-49ce-876d-3390124057a3" data-name="BODY" xmlns="http://www.w3.org/2000/svg" xmlns:xlink="http://www.w3.org/1999/xlink" viewBox="0 0 600 600"><defs><style>
      .uuid-7dd7bf61-6d36-4c90-8bca-8a8939419726, .uuid-03f61921-588e-401a-8859-1aea6c8c86e1 {
        fill: none;
      }

      .uuid-818f14bd-d9b9-46d3-889f-ff0d953431e9, .uuid-4642e101-095d-4a06-8469-3a4b2c2d06a5 {
        fill: #7aa6ff;
      }

      .uuid-818f14bd-d9b9-46d3-889f-ff0d953431e9, .uuid-00f46dd1-78ad-484f-a0bd-b17104dee9b2, .uuid-7f276784-90c0-46f6-837e-520faf803895, .uuid-fad4d35b-816c-4193-8077-af68689d46c9, .uuid-655dcc45-6458-48ae-b618-328cebfbc930, .uuid-7bb48eb4-9044-4b43-aeb6-2bf5ca479bc5 {
        stroke: #000;
        stroke-linecap: round;
        stroke-linejoin: round;
        stroke-width: 2px;
      }

      .uuid-7c1cdae1-e4f0-4cad-b5f9-ace75712cd04, .uuid-fad4d35b-816c-4193-8077-af68689d46c9 {
        fill: #ff78d8;
      }

      .uuid-159db930-0055-474e-bf7d-d2ef88a4f2e0, .uuid-00f46dd1-78ad-484f-a0bd-b17104dee9b2 {
        fill: #a07bff;
      }

      .uuid-7f276784-90c0-46f6-837e-520faf803895 {
        fill: #9dff0c;
      }

      .uuid-655dcc45-6458-48ae-b618-328cebfbc930 {
        fill: #ffff0d;
      }

      .uuid-7bb48eb4-9044-4b43-aeb6-2bf5ca479bc5 {
        fill: #f9a723;
      }

      .uuid-03f61921-588e-401a-8859-1aea6c8c86e1 {
        clip-path: url(#uuid-804ae3fb-e0b0-4cb0-9fc4-d5728bfc055a);
      }
    </style><clipPath id="uuid-804ae3fb-e0b0-4cb0-9fc4-d5728bfc055a"><rect class="uuid-7dd7bf61-6d36-4c90-8bca-8a8939419726" y="0" width="356.77" height="259.02"/></clipPath></defs><g id="uuid-e08b6436-3f6a-4c9f-9093-d1c930c9c3f3" data-name="uuid-e7813b6f-2e9c-4ced-a089-4ee6c80ec3de"><g id="uuid-e0381978-b832-459b-931d-8fd985a897cc" data-name="uuid-a396a31d-4a55-404b-af28-89c8152d84a8"><g class="uuid-03f61921-588e-401a-8859-1aea6c8c86e1"><g><g><path class="uuid-655dcc45-6458-48ae-b618-328cebfbc930" d="m21.84-3.16H-25.62S-9.06,62.7,78.47,134.23c42.59,34.8,80.9,50.61,123.9,98.29,0,0,4.35,5.26,26.05.81,0,0-11.34-27.93-32.91-47.67-21.57-19.74-59.06-42.39-92.22-73.14C70.11,81.78,42.34,39.71,21.84-3.16Z"/><g><path class="uuid-7c1cdae1-e4f0-4cad-b5f9-ace75712cd04" d="m41.06,80.14c-5.4-5.99-7.2-11.6-4.72-12.89,2.41-1.26,4.56-.2,11.44,7.82,6.14,7.16,7.54,9.84,6.47,11.42-1.71,2.51-6.01,1.61-13.18-6.34h0Z"/><path class="uuid-7c1cdae1-e4f0-4cad-b5f9-ace75712cd04" d="m80.87,117.43c-5.16-4.71-7.06-9.26-4.91-10.43,2.1-1.15,4.08-.36,10.67,5.96,5.88,5.64,7.27,7.79,6.4,9.14-1.4,2.14-5.31,1.59-12.15-4.66h0Z"/><path class="uuid-7c1cdae1-e4f0-4cad-b5f9-ace75712cd04" d="m174.49,181.97c5.64,4.12,8.02,8.43,6.02,9.83-1.96,1.37-4.02.8-11.25-4.76-6.46-4.97-8.08-6.96-7.35-8.39,1.16-2.28,5.1-2.15,12.59,3.31h0Z"/><path class="uuid-7c1cdae1-e4f0-4cad-b5f9-ace75712cd04" d="m3.11,20.25C-3.95,7.19-5.68-3.54-.67-4.72c4.89-1.16,5.53,3.59,14.35,20.93,7.87,15.49,11.5,18.58,9.33,21.3-2.51,3.13-10.51.1-19.89-17.25h0Z"/></g></g><g><path class="uuid-7bb48eb4-9044-4b43-aeb6-2bf5ca479bc5" d="m15.64-5.05c15.91,41.86,49.22,90.81,92.9,128.25,41.09,35.21,88.36,54.1,116.95,110.68,0,0,18.65-3.48,26.12-5.61,0,0-3.79-28.65-36.96-60.2-33.17-31.55-57.66-44.67-87.89-73.03-30.23-28.36-57.27-61.26-68.69-101.71l-42.43,1.62Z"/><g><path class="uuid-7c1cdae1-e4f0-4cad-b5f9-ace75712cd04" d="m114.23,120.29c-3.9-3.44-5.07-7.85-3.49-8.75,1.55-.88,3.81-.78,8.79,3.85,4.45,4.13,4.55,6.1,4.11,7.19-.51,1.26-4.23,2.28-9.41-2.29h0Z"/><path class="uuid-7c1cdae1-e4f0-4cad-b5f9-ace75712cd04" d="m47.93,39.58c-4.42-6.75-5.32-12.57-2.68-13.47,2.58-.88,4.54.51,10.1,9.49,4.97,8.02,5.93,10.89,4.63,12.28-2.07,2.22-6.19.66-12.05-8.3h0Z"/><path class="uuid-7c1cdae1-e4f0-4cad-b5f9-ace75712cd04" d="m171.9,143.22c6.58,4.66,9.55,9.75,7.43,11.55-2.08,1.76-4.41,1.19-12.87-5.13-7.56-5.65-9.5-7.96-8.8-9.73,1.12-2.82,5.51-2.88,14.25,3.31h0Z"/><path class="uuid-7c1cdae1-e4f0-4cad-b5f9-ace75712cd04" d="m225.15,197.3c3.83,5.6,5.27,10.21,3.12,11.14-2.1.91-3.83-.12-9.06-7.3-4.68-6.41-5.67-8.76-4.68-10.01,1.59-2.01,5.11-1.89,10.61,6.16h0Z"/></g></g><g><path class="uuid-fad4d35b-816c-4193-8077-af68689d46c9" d="m53.4-3.94c15.64,50.4,59.33,97.86,100.58,127.25,66.61,47.45,81.37,73.04,94.5,105.84,0,0,19-5.22,27.85-8.39,0,0-17.05-46.88-49-77.62-31.96-30.74-55.55-46.25-86.32-80.56C110.23,28.25,95.26-6.94,95.26-6.94l-41.87,3Z"/><g><path class="uuid-159db930-0055-474e-bf7d-d2ef88a4f2e0" d="m83.32,39.81c-6.53-9.39-8.73-17.34-4.92-18.53,3.72-1.16,4.59,2.37,12.83,14.86,7.36,11.16,10.43,13.26,8.95,15.43-1.71,2.5-8.19.7-16.86-11.76h0Z"/><path class="uuid-159db930-0055-474e-bf7d-d2ef88a4f2e0" d="m191.72,121.17c8.84,7.26,15.51,14,12.16,16.18-3.27,2.13-6.01-.24-17.33-10.02-10.11-8.74-12.7-10.72-11.86-13.21.96-2.87,5.29-2.59,17.03,7.05h0Z"/><path class="uuid-159db930-0055-474e-bf7d-d2ef88a4f2e0" d="m164.23,98.18c4.06,3.25,5.45,7.59,3.91,8.57-1.5.95-3.76.97-8.97-3.41-4.65-3.91-4.84-5.87-4.45-6.98.44-1.29,4.11-2.49,9.51,1.83h0Z"/><path class="uuid-159db930-0055-474e-bf7d-d2ef88a4f2e0" d="m107.43,69.66c-4.07-4.39-5.02-9.72-3.17-10.67,1.8-.93,4.32-.64,9.5,5.24,4.63,5.25,4.58,7.6,3.99,8.87-.67,1.46-4.92,2.4-10.33-3.43h0Z"/><path class="uuid-159db930-0055-474e-bf7d-d2ef88a4f2e0" d="m259.09,216.98c1.42,3.18,3.09,7.21,3.09,7.21l-7.09,2.06s-1.63-2.83-3.04-5.76c-4.04-8.38-4.71-11.33-3.34-12.65,2.19-2.11,5.71-1.32,10.38,9.14Z"/></g></g><g><path class="uuid-818f14bd-d9b9-46d3-889f-ff0d953431e9" d="m134.56-8.29s-.28,40.11,80.63,110.83c43.89,38.36,66.98,68.55,82.13,110.29,0,0,17.8-7.04,26-12.68,0,0-10.09-48.29-49.34-84.4-39.26-36.1-66.47-48.96-104.36-124.04h-35.06Z"/><g><path class="uuid-159db930-0055-474e-bf7d-d2ef88a4f2e0" d="m184.54,49.17c-3.76,2.56,5.61,12.84,8.9,10.26,3.29-2.58-5.26-12.74-8.9-10.26Z"/><path class="uuid-159db930-0055-474e-bf7d-d2ef88a4f2e0" d="m293.93,184.59c-4.38-8.69-5.06-11.05-3.1-12.61,2.74-2.18,6.19,1.57,10.52,9.84,4.33,8.27,5.57,12.75,2.63,13.75-3.37,1.15-5.54-2.06-10.04-10.99h0Z"/><path class="uuid-159db930-0055-474e-bf7d-d2ef88a4f2e0" d="m230.98,102.51c-6.96-5.84-12.32-10.4-10.47-12.98,1.75-2.43,5.4.17,14.65,7.72,8,6.52,9.85,9.19,8.33,11.03s-6.27-.53-12.51-5.77h0Z"/></g></g><g><path class="uuid-00f46dd1-78ad-484f-a0bd-b17104dee9b2" d="m92.9-3.43c9.84,37.75,50.61,79,96.02,116.62,45.42,37.62,65.51,64.11,84.42,108.6,0,0,17.7-6.05,27.57-10.43,0,0-9.95-36.54-40.96-72.41-31.01-35.87-70.38-60.13-93.3-92.76-22.92-32.63-27.1-51.24-27.1-51.24l-46.65,1.62Z"/><g><path class="uuid-7c1cdae1-e4f0-4cad-b5f9-ace75712cd04" d="m122.03,12.18c-4.65-8.72-5.7-15.7-2.28-16.25,3.34-.53,3.72,2.55,9.51,14.1,5.17,10.32,7.61,12.46,6.09,14.12-1.74,1.91-7.15-.39-13.33-11.97h0Z"/><path class="uuid-7c1cdae1-e4f0-4cad-b5f9-ace75712cd04" d="m198.66,94.15c4.06,3.25,5.45,7.59,3.91,8.57-1.5.95-3.76.97-8.97-3.41-4.65-3.91-4.84-5.87-4.45-6.98.44-1.29,4.11-2.49,9.51,1.83h0Z"/><path class="uuid-7c1cdae1-e4f0-4cad-b5f9-ace75712cd04" d="m141.48,59.83c-5.64-5.77-7.65-11.3-5.23-12.69,2.36-1.36,4.55-.38,11.74,7.36,6.42,6.91,7.92,9.54,6.92,11.15-1.6,2.58-5.94,1.84-13.42-5.82h0Z"/><path class="uuid-7c1cdae1-e4f0-4cad-b5f9-ace75712cd04" d="m245.43,148.79c4.55,5.16,6.14,10.09,4.14,11.31-1.95,1.2-3.74.32-9.54-6.6-5.19-6.18-6.38-8.52-5.54-9.95,1.35-2.28,4.9-1.61,10.94,5.24h0Z"/></g></g><g><path class="uuid-7f276784-90c0-46f6-837e-520faf803895" d="m337.03,187.22c-11-46.92-45.79-80.5-74.31-102.14-28.52-21.64-62.09-65.73-63.3-96.88h-35.19s8.79,56.46,84.54,112.45c37.21,27.51,63.02,67.93,71.56,101.21,0,0,16.33-8.68,16.7-14.65h0Z"/><g><path class="uuid-4642e101-095d-4a06-8469-3a4b2c2d06a5" d="m187.76,23.01c-4.65-8.72-5.7-15.7-2.28-16.25,3.34-.53,3.72,2.55,9.51,14.1,5.17,10.32,7.61,12.46,6.09,14.12-1.74,1.91-7.15-.39-13.33-11.97h0Z"/><path class="uuid-4642e101-095d-4a06-8469-3a4b2c2d06a5" d="m292.63,127.92c2.8,3.13,3.4,6.89,2.1,7.54-1.27.64-3.02.41-6.58-3.77-3.18-3.74-3.11-5.39-2.7-6.27.48-1.02,3.46-1.64,7.17,2.51h0Z"/><path class="uuid-4642e101-095d-4a06-8469-3a4b2c2d06a5" d="m304.11,144.27c4.23,5.43,4.57,8.27,2.91,9.04-1.62.74-3.76.33-7.78-5.37-3.59-5.09-3.37-7.23-2.78-8.36.69-1.3,3.31-.88,7.65,4.69h0Z"/><path class="uuid-4642e101-095d-4a06-8469-3a4b2c2d06a5" d="m227.07,74.93c-5.12-4.55-7.09-9.05-5.07-10.3,1.98-1.22,3.91-.5,10.46,5.61,5.85,5.46,7.25,7.58,6.45,8.95-1.27,2.2-5.05,1.78-11.84-4.26h0Z"/></g></g></g></g></g></g></svg>
</svg>