<?xml version="1.0" encoding="UTF-8"?>
<svg xmlns="http://www.w3.org/2000/svg" viewBox="0 0 600 600">
<svg id="uuid-b5df70f2-f26b-4cc4-9992-c02ca3e1ffe7" data-name="BACKGROUND" xmlns="http://www.w3.org/2000/svg" viewBox="0 0 600 600"><defs><style>
      .uuid-b49e1da8-89ab-4517-8063-4eac3fbcc068 {
        fill: #3ef1ff;
      }
    </style></defs><rect class="uuid-b49e1da8-89ab-4517-8063-4eac3fbcc068" x="-1" y="-1" width="602" height="602"/></svg>
<svg id="uuid-e741404e-82c4-4369-9e18-3b285ad0d639" data-name="BACKGROUND" xmlns="http://www.w3.org/2000/svg" viewBox="0 0 600 600"><defs><style>
      .uuid-d96a9218-ac41-4a59-a766-168518bf484e, .uuid-62df82db-f943-4e5d-8b33-ce66e667749b {
        fill: #fff;
      }

      .uuid-3fd29da4-aff1-4808-923d-0b32c79c7637, .uuid-62df82db-f943-4e5d-8b33-ce66e667749b, .uuid-72477d5d-f7d9-4d71-877e-01caf37e8bcd, .uuid-5bb669c8-5a3f-440c-aba4-3853114d1d43, .uuid-62880ae1-7573-4820-a7ac-833c4461f068, .uuid-364077b4-4770-4526-89f6-25dde6160d98, .uuid-1e9082da-51b1-4e46-b839-8455f209e0c9 {
        stroke: #000;
        stroke-width: 2px;
      }

      .uuid-3fd29da4-aff1-4808-923d-0b32c79c7637, .uuid-62df82db-f943-4e5d-8b33-ce66e667749b, .uuid-72477d5d-f7d9-4d71-877e-01caf37e8bcd, .uuid-364077b4-4770-4526-89f6-25dde6160d98 {
        stroke-miterlimit: 10;
      }

      .uuid-3fd29da4-aff1-4808-923d-0b32c79c7637, .uuid-72477d5d-f7d9-4d71-877e-01caf37e8bcd, .uuid-5bb669c8-5a3f-440c-aba4-3853114d1d43, .uuid-1e9082da-51b1-4e46-b839-8455f209e0c9 {
        fill: #00dfa9;
      }

      .uuid-62df82db-f943-4e5d-8b33-ce66e667749b, .uuid-72477d5d-f7d9-4d71-877e-01caf37e8bcd, .uuid-5bb669c8-5a3f-440c-aba4-3853114d1d43, .uuid-62880ae1-7573-4820-a7ac-833c4461f068, .uuid-364077b4-4770-4526-89f6-25dde6160d98 {
        stroke-linecap: round;
      }

      .uuid-5bb669c8-5a3f-440c-aba4-3853114d1d43, .uuid-62880ae1-7573-4820-a7ac-833c4461f068, .uuid-1e9082da-51b1-4e46-b839-8455f209e0c9 {
        stroke-linejoin: round;
      }

      .uuid-62880ae1-7573-4820-a7ac-833c4461f068 {
        fill: none;
      }

      .uuid-364077b4-4770-4526-89f6-25dde6160d98 {
        fill: #9dff0c;
      }
    </style></defs><path class="uuid-5bb669c8-5a3f-440c-aba4-3853114d1d43" d="m409.81,359.6c9.2,3.77,29.89,12.05,42.79,16.03,2.11.65,4.41.69,6.5-.04,11.79-4.08,28.47-11.39,33.03-11.32,5.25.08,7.8,3.93,19.88,2.04,13.36-2.1,22.43-11.99,20.93-23.3-4.21-43.28-25.18-26.79-25.18-26.79,0,0-5.84-8.75-18.76-4.82-11.83,3.6-10.2,14.44-6.47,22.47l-25.29,8.58c-2.14.72-4.45.71-6.59-.02l-35.7-12.61"/><path class="uuid-72477d5d-f7d9-4d71-877e-01caf37e8bcd" d="m533.36,312.82c2.5,3.94,1.62,9.14-1.57,12.4-2.47,2.53-5.88,3.88-9.32,4.4-2.8.43-5.7.42-8.49-.08-2.14-.39-4.29-1.1-5.79-2.75-1.66-1.83-2.27-4.46-1.98-6.87.51-4.17,3.84-7.14,7.22-9.26,3.17-1.98,6.86-3.26,10.64-3.09,3.8.18,7.36,2.19,9.3,5.24Z"/><path class="uuid-72477d5d-f7d9-4d71-877e-01caf37e8bcd" d="m538.57,349.84c.97,3.03.32,6.43-1.5,9.01-3.77,5.33-11.17,5.65-16.96,4.27-3.31-.79-6.69-2.21-8.67-5.13-3.13-4.61-.82-9.79,3.48-12.56,2.58-1.66,5.61-2.67,8.63-3.14,5.73-.89,13.1,1.51,15.03,7.56Z"/><path class="uuid-72477d5d-f7d9-4d71-877e-01caf37e8bcd" d="m538.71,328.53c1.8,2.99,2.06,6.89.22,9.9-1.95,3.2-4.94,5.25-8.49,6.28-3.66,1.07-7.64,1.27-11.4.44-2.25-.5-4.53-1.38-5.96-3.28-1.86-2.47-1.89-5.68-.85-8.49,1.2-3.24,4.17-5.69,7.09-7.37,6.15-3.56,15.21-4.43,19.39,2.52Z"/><path class="uuid-72477d5d-f7d9-4d71-877e-01caf37e8bcd" d="m501.85,311.68s9.27,3.84,7.77,12.02c-1.04,5.68-8.17,9.55-14.94,6.13"/><path class="uuid-62880ae1-7573-4820-a7ac-833c4461f068" d="m500.67,331.08c2.41,1.63,5.11,8.04,3.4,14.42"/><path d="m443.44,339.88c-2.88,10.58-6.94,20.23-11.17,28.59-10.17-3.78-21.16-9.53-27-11.93l11.83-26.02,26.35,9.36Z"/><ellipse cx="300" cy="518.65" rx="138.6" ry="22.93"/><path class="uuid-3fd29da4-aff1-4808-923d-0b32c79c7637" d="m319.36,427.14c-1.16,1.05-54.95,57-54.95,57,0,0,21.51-1.95,31.74,10.62,10.23,12.57,7.26,23.89,7.26,23.89h-66.9s-28.69-36.17-28.69-36.17c0,0,3.74-13.4,20.44-10.59,20.9-19.38,55.52-59.13,55.52-59.13l35.59,14.38Z"/><path d="m283.78,412.76l31.28,12.64-3.24,9.5c-2.93,3.03-9.76,10.12-13.64,14.14-11.92,0-27.98-2.13-41.33-6.37,13.95-15.1,26.93-29.92,26.93-29.92Z"/><path class="uuid-3fd29da4-aff1-4808-923d-0b32c79c7637" d="m354.45,173.54l-.11.27-174.2,58.29c-11.49,20.13-18.05,43.43-18.05,68.27,0,76.2,61.77,137.98,137.97,137.98s137.98-61.77,137.98-137.98c0-56.89-34.43-105.72-83.58-126.83Z"/><path class="uuid-62880ae1-7573-4820-a7ac-833c4461f068" d="m264.41,484.14c-4.06.49-11.49,1.36-17.85,7.23"/><path class="uuid-d96a9218-ac41-4a59-a766-168518bf484e" d="m185.17,308.14c-4.41,0-7.98-3.57-7.98-7.98,0-67.74,55.11-122.86,122.86-122.86,4.41,0,7.98,3.57,7.98,7.98s-3.57,7.98-7.98,7.98c-58.94,0-106.9,47.95-106.9,106.9,0,4.41-3.57,7.98-7.98,7.98Z"/><path d="m203.75,397.46l34.2-27.46-24.86,36.3c-6.73-5.1-3.66-2.61-9.34-8.83Z"/><path class="uuid-1e9082da-51b1-4e46-b839-8455f209e0c9" d="m323.72,387.31c19.14-13.4,39.15-11.3,55.52,7.36,19.6,22.35,30.57,33.06,30.57,33.06,0,0,10.74-19.34,34.77-17.5,18.26,1.4,24.84,14.43,24.84,14.43,0,0,6.21,8.82-22.45,33.5-28.66,24.68-54.93,40.92-61.14,29.46-6.21-11.46-2.82-32.1-2.82-32.1,0,0-22.02-26.09-27.94-32.01-6.79-6.79-15.71-1.36-15.71-1.36"/><path class="uuid-3fd29da4-aff1-4808-923d-0b32c79c7637" d="m446.97,458.17c-25.89,22.29-49.82,37.69-58.79,32.02-9.77-7.44,26.84-38.54,44.88-52.7,18.04-14.16,32.17-17.82,36.36-12.81,0,0,6.21,8.82-22.45,33.5Z"/><path class="uuid-62880ae1-7573-4820-a7ac-833c4461f068" d="m409.81,427.74c-1.89,2.86-4.55,10.38-4.55,10.38"/><ellipse class="uuid-62df82db-f943-4e5d-8b33-ce66e667749b" cx="269.41" cy="209.07" rx="94.9" ry="26.25" transform="translate(-52.5 96.54) rotate(-18.55)"/><ellipse class="uuid-364077b4-4770-4526-89f6-25dde6160d98" cx="269.41" cy="209.07" rx="71.19" ry="13.32" transform="translate(-52.5 96.54) rotate(-18.55)"/><g><path class="uuid-5bb669c8-5a3f-440c-aba4-3853114d1d43" d="m214.11,345.7c-8.05,5.83-25.34,20.79-35.52,29.67-1.67,1.45-2.82,3.41-3.39,5.55-3.14,11.67-8.55,33.44-8.55,33.44,0,0-8.42.58-12.19,14.35-3.64,13.3-6.64,25.06,3.77,29.75.35,7.47,7.51,15.45,19.2,9.41.14-.06,1.32,1.32,1.44,1.45,2.64,2.7,6.36,4.45,10.13,4.81,3.65.36,7.61-.67,10.43-3.08,3.29-2.81,5.4-6.94,6.05-11.2.4-2.61.26-5.31-.75-7.78,0,0,6.2-2.51,8.05-11.34,1.99-9.49-4.22-19.42-14.62-18.18l6.17-23.11c.51-2.2,1.74-4.16,3.49-5.59l29.38-24.3"/><path class="uuid-62880ae1-7573-4820-a7ac-833c4461f068" d="m204.73,452.06c-1.37-3.47-5.39-7.08-9-6.88"/><path class="uuid-62880ae1-7573-4820-a7ac-833c4461f068" d="m178.86,469.3c-5.16-5.27-3.82-11.97-2.9-13.54"/><path class="uuid-62880ae1-7573-4820-a7ac-833c4461f068" d="m158.22,458.45c-.27-5.22.73-7.32,3.06-9.83"/><path class="uuid-62880ae1-7573-4820-a7ac-833c4461f068" d="m193.93,450.63c.14-2.07.48-4.16,1.32-6.06.85-1.95,2.36-3.88,4.31-4.85"/></g></svg>
<svg id="uuid-ffac6761-6b9e-4a13-ab42-3dfadf65c420" data-name="BODY" xmlns="http://www.w3.org/2000/svg" viewBox="0 0 600 600"><circle cx="369.54" cy="262.94" r="9.78" transform="translate(-8.58 12.49) rotate(-1.91)"/><circle cx="362.12" cy="293.18" r="9.78" transform="translate(-9.59 12.26) rotate(-1.91)"/><circle cx="337.63" cy="273.96" r="9.78" transform="translate(-8.96 11.43) rotate(-1.91)"/></svg>
<svg id="uuid-058dae0e-0ea2-49ca-ae9f-b68ef70ad996" data-name="BASE" xmlns="http://www.w3.org/2000/svg" viewBox="0 0 600 600"><defs><style>
      .uuid-c178cbd3-a724-433a-a7c3-f6cdad9c3981 {
        fill: #a07bff;
      }

      .uuid-c178cbd3-a724-433a-a7c3-f6cdad9c3981, .uuid-3810ce6e-eb88-48ed-bcff-bd0506d0cbae {
        stroke: #000;
        stroke-linecap: round;
        stroke-linejoin: round;
        stroke-width: 2px;
      }

      .uuid-3810ce6e-eb88-48ed-bcff-bd0506d0cbae {
        fill: none;
      }
    </style></defs><g><path class="uuid-c178cbd3-a724-433a-a7c3-f6cdad9c3981" d="m502.22,311.85c1.42.67,3.02,1.57,5.54,4.38,1.26-2.31,3.53-4.05,5.67-5.56,2.52-1.79,5.63-2.61,8.69-3.05-.27-13.26,0-33.93,3.26-59.17,4.85-37.5,7.61-90.51,1.78-119.34-5.84-28.83-21.64-39.98-49.15-30.92-23.57,7.76-26.74,39.11-24.2,74.78,2.53,35.67,13.3,53.02,23.49,77.48,6.76,16.24,13.51,43.44,17.71,59.94,3.9,0,5.71.75,7.24,1.46Z"/><path class="uuid-c178cbd3-a724-433a-a7c3-f6cdad9c3981" d="m540.72,424.5s-6.33-9.74-11.56-31.81c-1.87-7.91-3.43-18.38-4.63-28.92-1.52-.09-3.02-.32-4.43-.66-3.31-.79-6.69-2.21-8.67-5.13-3.13-4.61-.82-9.79,3.48-12.56.56-.36,1.14-.68,1.74-.98-1.39-.55-2.66-1.35-3.57-2.56-1.86-2.47-1.89-5.68-.85-8.49.52-1.4,1.38-2.65,2.42-3.75-.22-.03-.45-.05-.67-.09-2.1-.38-4.21-1.08-5.7-2.67-1.86,2.7-5.28,4.44-9.06,4.2,2.5,14.5,8.38,49.55,9.18,63.16.96,16.21-1.39,43.14-.59,45.2.91,2.36,9.26.82,18.35-3.31,9.09-4.13,15.61-9.34,14.57-11.63Z"/><ellipse class="uuid-c178cbd3-a724-433a-a7c3-f6cdad9c3981" cx="524.26" cy="431.97" rx="18.08" ry="4.57" transform="translate(-131.67 255.33) rotate(-24.42)"/><path id="uuid-ba56e70d-e3a8-43b5-8354-766d610bdf5b" data-name="linea" class="uuid-c178cbd3-a724-433a-a7c3-f6cdad9c3981" d="m522.37,427.81s-3.11-10.59-5.66-27.27c5.54,16.46,11.68,25.16,11.68,25.16l-6.02,2.11"/><ellipse class="uuid-c178cbd3-a724-433a-a7c3-f6cdad9c3981" cx="458.38" cy="184.82" rx="12.85" ry="28.04" transform="translate(-28.57 100.25) rotate(-12.11)"/><ellipse class="uuid-c178cbd3-a724-433a-a7c3-f6cdad9c3981" cx="514.92" cy="126.7" rx="15.68" ry="24.57" transform="translate(-15.12 110.81) rotate(-12.11)"/><ellipse class="uuid-c178cbd3-a724-433a-a7c3-f6cdad9c3981" cx="455.33" cy="184.77" rx="6.11" ry="9.98" transform="translate(-28.63 99.61) rotate(-12.11)"/><ellipse class="uuid-c178cbd3-a724-433a-a7c3-f6cdad9c3981" cx="514.09" cy="122.8" rx="8.15" ry="9.98" transform="translate(-14.32 110.55) rotate(-12.11)"/><g id="uuid-45336622-f42b-42a3-9677-42604915898c" data-name="buton line"><path class="uuid-3810ce6e-eb88-48ed-bcff-bd0506d0cbae" d="m456.14,125c13.36,11.39,18.04,28.56,22.13,44.92,3.48,13.92,4.79,28.39,3.65,42.71-1.14,14.31-6.22,28.31-2.71,42.7"/><path class="uuid-3810ce6e-eb88-48ed-bcff-bd0506d0cbae" d="m493.22,95.15c-5.54,13.38-4.25,27.58-.96,41.36,3.74,15.66,7.74,30.1,8.35,46.39.79,21.15-2.17,42.08-1.17,63.16"/><path class="uuid-3810ce6e-eb88-48ed-bcff-bd0506d0cbae" d="m514.58,278.26s1.05-52.71,3.45-80.15c2.4-27.45,6.67-37.86,11.73-47.69"/></g><path class="uuid-3810ce6e-eb88-48ed-bcff-bd0506d0cbae" d="m508.15,328.54c.93,6.66,1.96,13.68,3.07,20.66"/><path class="uuid-3810ce6e-eb88-48ed-bcff-bd0506d0cbae" d="m503.31,289.2c.24,2.74,1.33,12.59,2.99,25.51"/></g><path class="uuid-3810ce6e-eb88-48ed-bcff-bd0506d0cbae" d="m522.11,399.07s-5.41-21.86-9.23-39.46"/></svg>
<svg id="uuid-499a4094-d166-418c-a33c-d07543a88333" data-name="BODY" xmlns="http://www.w3.org/2000/svg" xmlns:xlink="http://www.w3.org/1999/xlink" viewBox="0 0 600 600"><defs><style>
      .uuid-76e919c8-f769-4746-9f54-c052f2839f0b, .uuid-3577aa37-3100-467b-bbbd-ee2c590872d6, .uuid-79007a77-5932-4ed7-86d6-b7f735da2a3f {
        fill: none;
      }

      .uuid-000301ee-73bf-4908-838f-f0acc3cafb97 {
        fill: #7aa6ff;
        stroke-width: 2px;
      }

      .uuid-000301ee-73bf-4908-838f-f0acc3cafb97, .uuid-cd01507f-41e2-4af0-8521-a8f3d5b2032c, .uuid-ad3e7142-bf3e-4804-b7ac-b75c86c32751, .uuid-3577aa37-3100-467b-bbbd-ee2c590872d6 {
        stroke: #000;
        stroke-linecap: round;
        stroke-linejoin: round;
      }

      .uuid-cd01507f-41e2-4af0-8521-a8f3d5b2032c {
        fill: #ffff0d;
      }

      .uuid-cd01507f-41e2-4af0-8521-a8f3d5b2032c, .uuid-ad3e7142-bf3e-4804-b7ac-b75c86c32751, .uuid-3577aa37-3100-467b-bbbd-ee2c590872d6 {
        stroke-width: 2px;
      }

      .uuid-ad3e7142-bf3e-4804-b7ac-b75c86c32751 {
        fill: #fff;
      }

      .uuid-79007a77-5932-4ed7-86d6-b7f735da2a3f {
        clip-path: url(#uuid-ce0777ef-ae89-43b1-bc43-aff59ad98230);
      }
    </style><clipPath id="uuid-ce0777ef-ae89-43b1-bc43-aff59ad98230"><rect class="uuid-76e919c8-f769-4746-9f54-c052f2839f0b" x="622" y="0" width="356.77" height="259.02"/></clipPath></defs><g id="uuid-3edb28fb-1dc5-4fe3-b8f5-b89a21cbec72" data-name="uuid-d8bf4a7d-ed85-4a3e-a407-7d1570284e6b"><g id="uuid-48f3e834-e885-438b-a9bd-fa187af06f63" data-name="uuid-1dd71221-1f4e-4737-8065-faffc7160480"><g><ellipse class="uuid-000301ee-73bf-4908-838f-f0acc3cafb97" cx="266.94" cy="203.15" rx="30.35" ry="11.13" transform="translate(-52.75 101.53) rotate(-19.64)"/><ellipse class="uuid-000301ee-73bf-4908-838f-f0acc3cafb97" cx="264.79" cy="197.11" rx="30.35" ry="11.13" transform="translate(-50.84 100.45) rotate(-19.64)"/><ellipse class="uuid-000301ee-73bf-4908-838f-f0acc3cafb97" cx="262.63" cy="191.07" rx="30.35" ry="11.13" transform="translate(-48.94 99.38) rotate(-19.64)"/><ellipse class="uuid-000301ee-73bf-4908-838f-f0acc3cafb97" cx="260.47" cy="185.02" rx="30.35" ry="11.13" transform="translate(-47.03 98.3) rotate(-19.64)"/></g><g><path class="uuid-ad3e7142-bf3e-4804-b7ac-b75c86c32751" d="m330.41,99.76l-62.82,22.42c-2.6.93-5.39-.74-5.83-3.47-1.29-8.1-2.08-23.59,8.68-30.57,18.38-11.91,27.66,4.66,27.66,4.66,0,0,4.36-8.28,13.29-9.59,11.98-1.75,18.34,5.15,21.32,10.16,1.41,2.38.3,5.46-2.31,6.39h0Z"/><path class="uuid-ad3e7142-bf3e-4804-b7ac-b75c86c32751" d="m298.11,92.8c2.54,4.8.55,8.27.55,8.27"/></g><g><path class="uuid-cd01507f-41e2-4af0-8521-a8f3d5b2032c" d="m282.6,119.07c-8.17-22.91-33.78-34.59-56.57-25.44-20.44,8.2-31.46,30.96-25.19,52.08,3.36,11.33,10.89,20.15,20.34,25.4,6.82,3.79,11.92,10.06,14.54,17.4l1.72,4.83s1.55,4.35,24.6-3.88c23.05-8.22,21.5-12.57,21.5-12.57l-1.73-4.83c-2.63-7.38-2.6-15.48.28-22.77,3.69-9.34,4.14-20.01.5-30.21h0Z"/><g><path class="uuid-ad3e7142-bf3e-4804-b7ac-b75c86c32751" d="m249.28,153.66c-1.16.41-2.54.87-4.06,1.31,2.91,6.34,6.15,15,10.37,26.82.46,1.3-.21,2.73-1.51,3.19s-2.73-.21-3.19-1.51c-4.37-12.24-7.7-21.09-10.62-27.31-4.18.78-8.65,1.01-12.11-.31-4.08-1.56-7.33-4.89-8.47-8.69-.77-2.57-.47-5.08.84-6.89,1.23-1.7,3.19-2.74,5.52-2.93,3.76-.29,7.87,1.61,11.59,5.36,1.83,1.85,3.56,4.34,5.36,7.71,1.49-.4,3.03-.89,4.63-1.45m-22.07-6.45c-.42.15-.75.38-.96.68-.38.53-.42,1.48-.11,2.53.55,1.84,2.28,4.25,5.46,5.46,1.86.71,4.61.8,7.94.32-1.29-2.26-2.54-3.99-3.8-5.27-3.73-3.76-6.59-3.98-7.64-3.89-.33.03-.62.09-.89.18h0Z"/><path class="uuid-ad3e7142-bf3e-4804-b7ac-b75c86c32751" d="m237.86,151.48s3.08-.49,5.11-1.08"/><path class="uuid-ad3e7142-bf3e-4804-b7ac-b75c86c32751" d="m240.26,156.15s2.72-.5,4.96-1.18"/><path class="uuid-ad3e7142-bf3e-4804-b7ac-b75c86c32751" d="m247.6,148.95c1.59-.57,3.1-1.17,4.5-1.8-.74-3.75-.98-6.77-.73-9.36.5-5.26,2.48-9.34,5.57-11.49,1.92-1.34,4.1-1.77,6.12-1.23,2.15.58,3.98,2.33,5.01,4.8,1.53,3.67,1.12,8.3-1.05,12.09-1.85,3.22-5.45,5.87-9.18,7.91,1.68,6.67,4.7,15.63,9.07,27.87.46,1.3-.21,2.73-1.51,3.19-1.3.46-2.73-.21-3.19-1.51-4.22-11.82-7.18-20.57-8.95-27.33-1.45.62-2.81,1.15-3.97,1.56m10.52-23.25c-.87.6-2.95,2.58-3.45,7.85-.17,1.78-.04,3.91.39,6.48,2.88-1.73,4.96-3.55,5.94-5.27,1.7-2.95,1.51-5.91.77-7.68-.42-1.01-1.05-1.72-1.68-1.89-.36-.1-.76-.07-1.18.08-.26.09-.53.24-.8.42h0Z"/><path class="uuid-ad3e7142-bf3e-4804-b7ac-b75c86c32751" d="m256.74,144.74s-2.7,1.57-4.64,2.4"/><path class="uuid-ad3e7142-bf3e-4804-b7ac-b75c86c32751" d="m257.84,149.87s-2.42,1.34-4.59,2.22"/></g></g><g><path class="uuid-ad3e7142-bf3e-4804-b7ac-b75c86c32751" d="m159.12,183.16l62.82-22.42c2.6-.93,3.7-3.99,2.31-6.37-4.14-7.09-13.32-19.58-26.07-18.17-21.77,2.41-18.46,21.12-18.46,21.12,0,0-8.62-3.65-16.35.99-10.38,6.23-10.94,15.6-10.07,21.36.41,2.74,3.22,4.42,5.83,3.49h0Z"/><path class="uuid-ad3e7142-bf3e-4804-b7ac-b75c86c32751" d="m179.72,157.33c1.07,5.32,4.81,6.75,4.81,6.75"/></g><g><path class="uuid-ad3e7142-bf3e-4804-b7ac-b75c86c32751" d="m187.72,100.34l51.25-18.29c2.12-.76,2.98-3.38,1.79-5.47-3.52-6.2-11.29-17.15-21.74-16.15-17.85,1.71-14.81,17.93-14.81,17.93,0,0-7.15-3.3-13.42.57-8.43,5.2-8.72,13.3-7.91,18.28.39,2.37,2.72,3.87,4.85,3.11h0Z"/><path class="uuid-ad3e7142-bf3e-4804-b7ac-b75c86c32751" d="m204.2,78.36c.97,4.61,4.07,5.92,4.07,5.92"/></g><path class="uuid-3577aa37-3100-467b-bbbd-ee2c590872d6" d="m153.9,136.08s14.12-8.54,20.74-2.46c-2.05-8.89,4.05-12.3,4.05-12.3"/><path class="uuid-3577aa37-3100-467b-bbbd-ee2c590872d6" d="m266.41,57.89s-11.26,2.17-11.04,10.9c-3.89-8.07-8.6-6.92-8.6-6.92"/><path class="uuid-3577aa37-3100-467b-bbbd-ee2c590872d6" d="m294.53,68.95s-7.36-1.3-9.28,4.95c-.47-6.71-3.61-7.08-3.61-7.08"/></g></g><g id="uuid-d91b92b5-8f94-44f5-918e-22daf6ee3a0b" data-name="uuid-e7813b6f-2e9c-4ced-a089-4ee6c80ec3de"><g id="uuid-f225defe-e3c7-4b99-a35f-f82dd7397eda" data-name="uuid-a396a31d-4a55-404b-af28-89c8152d84a8"><g class="uuid-79007a77-5932-4ed7-86d6-b7f735da2a3f"><path class="uuid-cd01507f-41e2-4af0-8521-a8f3d5b2032c" d="m643.84-3.16h-47.46s16.55,65.86,104.09,137.39c42.59,34.8,80.9,50.61,123.9,98.29,0,0,4.35,5.26,26.05.81,0,0-11.34-27.93-32.91-47.67-21.57-19.74-59.06-42.39-92.22-73.14-33.17-30.74-60.94-72.81-81.44-115.69Z"/></g></g></g></svg>
</svg>