<?xml version="1.0" encoding="UTF-8"?>
<svg xmlns="http://www.w3.org/2000/svg" viewBox="0 0 600 600">
<svg id="uuid-b5df70f2-f26b-4cc4-9992-c02ca3e1ffe7" data-name="BACKGROUND" xmlns="http://www.w3.org/2000/svg" viewBox="0 0 600 600"><defs><style>
      .uuid-b49e1da8-89ab-4517-8063-4eac3fbcc068 {
        fill: #3ef1ff;
      }
    </style></defs><rect class="uuid-b49e1da8-89ab-4517-8063-4eac3fbcc068" x="-1" y="-1" width="602" height="602"/></svg>
<svg id="uuid-33f0a83e-2b0c-4eb8-8fa3-bfa9ea5086d3" data-name="BACKGROUND" xmlns="http://www.w3.org/2000/svg" viewBox="0 0 600 600"><defs><style>
      .uuid-450a74f4-b6b6-47ff-a9b8-91a171e1e341, .uuid-7fae2aa8-9ea1-45c0-a459-daab5bb141c8, .uuid-28d15e62-18ad-457b-95e7-fa4bdbf6607d, .uuid-f34e6d04-5895-4a55-8123-65c0a5c276be, .uuid-6f41a922-4956-4224-af6c-3d28e38947e5, .uuid-57d641cc-3e15-4ae9-829f-c36df3c7f79a, .uuid-5d2ce935-29a4-4a67-ac10-b6bb4cf3dd30 {
        stroke: #000;
        stroke-width: 2px;
      }

      .uuid-450a74f4-b6b6-47ff-a9b8-91a171e1e341, .uuid-7fae2aa8-9ea1-45c0-a459-daab5bb141c8, .uuid-28d15e62-18ad-457b-95e7-fa4bdbf6607d, .uuid-6f41a922-4956-4224-af6c-3d28e38947e5, .uuid-57d641cc-3e15-4ae9-829f-c36df3c7f79a {
        stroke-linecap: round;
      }

      .uuid-450a74f4-b6b6-47ff-a9b8-91a171e1e341, .uuid-f34e6d04-5895-4a55-8123-65c0a5c276be, .uuid-57d641cc-3e15-4ae9-829f-c36df3c7f79a, .uuid-5d2ce935-29a4-4a67-ac10-b6bb4cf3dd30 {
        fill: #8400ff;
      }

      .uuid-450a74f4-b6b6-47ff-a9b8-91a171e1e341, .uuid-6f41a922-4956-4224-af6c-3d28e38947e5, .uuid-5d2ce935-29a4-4a67-ac10-b6bb4cf3dd30 {
        stroke-linejoin: round;
      }

      .uuid-7b9f3a05-4cc7-4b23-b3bf-179c77ea9f5f, .uuid-28d15e62-18ad-457b-95e7-fa4bdbf6607d {
        fill: #fff;
      }

      .uuid-7fae2aa8-9ea1-45c0-a459-daab5bb141c8 {
        fill: #ffff0d;
      }

      .uuid-7fae2aa8-9ea1-45c0-a459-daab5bb141c8, .uuid-28d15e62-18ad-457b-95e7-fa4bdbf6607d, .uuid-f34e6d04-5895-4a55-8123-65c0a5c276be, .uuid-57d641cc-3e15-4ae9-829f-c36df3c7f79a {
        stroke-miterlimit: 10;
      }

      .uuid-6f41a922-4956-4224-af6c-3d28e38947e5 {
        fill: none;
      }
    </style></defs><path class="uuid-450a74f4-b6b6-47ff-a9b8-91a171e1e341" d="m409.81,359.6c9.2,3.77,29.89,12.05,42.79,16.03,2.11.65,4.41.69,6.5-.04,11.79-4.08,28.47-11.39,33.03-11.32,5.25.08,7.8,3.93,19.88,2.04,13.36-2.1,22.43-11.99,20.93-23.3-4.21-43.28-25.18-26.79-25.18-26.79,0,0-5.84-8.75-18.76-4.82-11.83,3.6-10.2,14.44-6.47,22.47l-25.29,8.58c-2.14.72-4.45.71-6.59-.02l-35.7-12.61"/><path class="uuid-57d641cc-3e15-4ae9-829f-c36df3c7f79a" d="m533.36,312.82c2.5,3.94,1.62,9.14-1.57,12.4-2.47,2.53-5.88,3.88-9.32,4.4-2.8.43-5.7.42-8.49-.08-2.14-.39-4.29-1.1-5.79-2.75-1.66-1.83-2.27-4.46-1.98-6.87.51-4.17,3.84-7.14,7.22-9.26,3.17-1.98,6.86-3.26,10.64-3.09,3.8.18,7.36,2.19,9.3,5.24Z"/><path class="uuid-57d641cc-3e15-4ae9-829f-c36df3c7f79a" d="m538.57,349.84c.97,3.03.32,6.43-1.5,9.01-3.77,5.33-11.17,5.65-16.96,4.27-3.31-.79-6.69-2.21-8.67-5.13-3.13-4.61-.82-9.79,3.48-12.56,2.58-1.66,5.61-2.67,8.63-3.14,5.73-.89,13.1,1.51,15.03,7.56Z"/><path class="uuid-57d641cc-3e15-4ae9-829f-c36df3c7f79a" d="m538.71,328.53c1.8,2.99,2.06,6.89.22,9.9-1.95,3.2-4.94,5.25-8.49,6.28-3.66,1.07-7.64,1.27-11.4.44-2.25-.5-4.53-1.38-5.96-3.28-1.86-2.47-1.89-5.68-.85-8.49,1.2-3.24,4.17-5.69,7.09-7.37,6.15-3.56,15.21-4.43,19.39,2.52Z"/><path class="uuid-57d641cc-3e15-4ae9-829f-c36df3c7f79a" d="m501.85,311.68s9.27,3.84,7.77,12.02c-1.04,5.68-8.17,9.55-14.94,6.13"/><path class="uuid-6f41a922-4956-4224-af6c-3d28e38947e5" d="m500.67,331.08c2.41,1.63,5.11,8.04,3.4,14.42"/><path d="m443.44,339.88c-2.88,10.58-6.94,20.23-11.17,28.59-10.17-3.78-21.16-9.53-27-11.93l11.83-26.02,26.35,9.36Z"/><ellipse cx="300" cy="518.65" rx="138.6" ry="22.93"/><path class="uuid-f34e6d04-5895-4a55-8123-65c0a5c276be" d="m319.36,427.14c-1.16,1.05-54.95,57-54.95,57,0,0,21.51-1.95,31.74,10.62,10.23,12.57,7.26,23.89,7.26,23.89h-66.9s-28.69-36.17-28.69-36.17c0,0,3.74-13.4,20.44-10.59,20.9-19.38,55.52-59.13,55.52-59.13l35.59,14.38Z"/><path d="m283.78,412.76l31.28,12.64-3.24,9.5c-2.93,3.03-9.76,10.12-13.64,14.14-11.92,0-27.98-2.13-41.33-6.37,13.95-15.1,26.93-29.92,26.93-29.92Z"/><path class="uuid-f34e6d04-5895-4a55-8123-65c0a5c276be" d="m354.45,173.54l-.11.27-174.2,58.29c-11.49,20.13-18.05,43.43-18.05,68.27,0,76.2,61.77,137.98,137.97,137.98s137.98-61.77,137.98-137.98c0-56.89-34.43-105.72-83.58-126.83Z"/><path class="uuid-6f41a922-4956-4224-af6c-3d28e38947e5" d="m264.41,484.14c-4.06.49-11.49,1.36-17.85,7.23"/><path class="uuid-7b9f3a05-4cc7-4b23-b3bf-179c77ea9f5f" d="m185.17,308.14c-4.41,0-7.98-3.57-7.98-7.98,0-67.74,55.11-122.86,122.86-122.86,4.41,0,7.98,3.57,7.98,7.98s-3.57,7.98-7.98,7.98c-58.94,0-106.9,47.95-106.9,106.9,0,4.41-3.57,7.98-7.98,7.98Z"/><path d="m203.75,397.46l34.2-27.46-24.86,36.3c-6.73-5.1-3.66-2.61-9.34-8.83Z"/><path class="uuid-5d2ce935-29a4-4a67-ac10-b6bb4cf3dd30" d="m323.72,387.31c19.14-13.4,39.15-11.3,55.52,7.36,19.6,22.35,30.57,33.06,30.57,33.06,0,0,10.74-19.34,34.77-17.5,18.26,1.4,24.84,14.43,24.84,14.43,0,0,6.21,8.82-22.45,33.5-28.66,24.68-54.93,40.92-61.14,29.46-6.21-11.46-2.82-32.1-2.82-32.1,0,0-22.02-26.09-27.94-32.01-6.79-6.79-15.71-1.36-15.71-1.36"/><path class="uuid-f34e6d04-5895-4a55-8123-65c0a5c276be" d="m446.97,458.17c-25.89,22.29-49.82,37.69-58.79,32.02-9.77-7.44,26.84-38.54,44.88-52.7,18.04-14.16,32.17-17.82,36.36-12.81,0,0,6.21,8.82-22.45,33.5Z"/><path class="uuid-6f41a922-4956-4224-af6c-3d28e38947e5" d="m409.81,427.74c-1.89,2.86-4.55,10.38-4.55,10.38"/><ellipse class="uuid-28d15e62-18ad-457b-95e7-fa4bdbf6607d" cx="269.41" cy="209.07" rx="94.9" ry="26.25" transform="translate(-52.5 96.54) rotate(-18.55)"/><ellipse class="uuid-7fae2aa8-9ea1-45c0-a459-daab5bb141c8" cx="269.41" cy="209.07" rx="71.19" ry="13.32" transform="translate(-52.5 96.54) rotate(-18.55)"/><g><path class="uuid-450a74f4-b6b6-47ff-a9b8-91a171e1e341" d="m214.11,345.7c-8.05,5.83-25.34,20.79-35.52,29.67-1.67,1.45-2.82,3.41-3.39,5.55-3.14,11.67-8.55,33.44-8.55,33.44,0,0-8.42.58-12.19,14.35-3.64,13.3-6.64,25.06,3.77,29.75.35,7.47,7.51,15.45,19.2,9.41.14-.06,1.32,1.32,1.44,1.45,2.64,2.7,6.36,4.45,10.13,4.81,3.65.36,7.61-.67,10.43-3.08,3.29-2.81,5.4-6.94,6.05-11.2.4-2.61.26-5.31-.75-7.78,0,0,6.2-2.51,8.05-11.34,1.99-9.49-4.22-19.42-14.62-18.18l6.17-23.11c.51-2.2,1.74-4.16,3.49-5.59l29.38-24.3"/><path class="uuid-6f41a922-4956-4224-af6c-3d28e38947e5" d="m204.73,452.06c-1.37-3.47-5.39-7.08-9-6.88"/><path class="uuid-6f41a922-4956-4224-af6c-3d28e38947e5" d="m178.86,469.3c-5.16-5.27-3.82-11.97-2.9-13.54"/><path class="uuid-6f41a922-4956-4224-af6c-3d28e38947e5" d="m158.22,458.45c-.27-5.22.73-7.32,3.06-9.83"/><path class="uuid-6f41a922-4956-4224-af6c-3d28e38947e5" d="m193.93,450.63c.14-2.07.48-4.16,1.32-6.06.85-1.95,2.36-3.88,4.31-4.85"/></g></svg>
<svg id="uuid-853b1779-0b40-4336-9fd3-56860412922a" data-name="BODY" xmlns="http://www.w3.org/2000/svg" viewBox="0 0 600 600"><defs><style>
      .uuid-270fe1d8-6ffc-45cd-908c-63708945a6da {
        fill: none;
        stroke: #000;
        stroke-linecap: round;
        stroke-miterlimit: 10;
        stroke-width: 4px;
      }
    </style></defs><path class="uuid-270fe1d8-6ffc-45cd-908c-63708945a6da" d="m378.79,259.75c-1.76-5.11-7.33-7.82-12.44-6.06s-7.82,7.33-6.06,12.44"/><circle cx="362.12" cy="293.18" r="9.78" transform="translate(-9.59 12.26) rotate(-1.91)"/><path class="uuid-270fe1d8-6ffc-45cd-908c-63708945a6da" d="m346.88,270.76c-1.76-5.11-7.33-7.82-12.44-6.06-5.11,1.76-7.82,7.33-6.06,12.44"/></svg>
<svg id="uuid-918f0af7-69b1-4d0f-8b25-1ebb8fa0263c" data-name="BODY" xmlns="http://www.w3.org/2000/svg" viewBox="0 0 600 600"><defs><style>
      .uuid-a94f1842-96f2-46e0-80ad-453adfe7c791 {
        fill: #a07bff;
      }

      .uuid-a94f1842-96f2-46e0-80ad-453adfe7c791, .uuid-076e47b0-9fcb-4add-9be6-e3a2aa36a1ab, .uuid-4e971888-5854-439c-9814-73de44346e35 {
        stroke: #000;
        stroke-linecap: round;
        stroke-linejoin: round;
        stroke-width: 2px;
      }

      .uuid-076e47b0-9fcb-4add-9be6-e3a2aa36a1ab {
        fill: #fff7f0;
      }

      .uuid-4e971888-5854-439c-9814-73de44346e35 {
        fill: none;
      }
    </style></defs><g id="uuid-2076c04b-299b-4973-851a-784433720c9f" data-name="uuid-c46f65ed-d275-49a6-b41b-9935c7f7cc5c"><g id="uuid-57e7f47e-e750-42fe-918c-fffed7408fdd" data-name="uuid-3d541555-fa28-433a-9ee6-066895a43351"><g id="uuid-e3887906-34ba-42eb-a2cc-6ba54a0f247d" data-name="uuid-1fe4f652-122b-4bcd-a2e3-81acaa81d790"><g><path class="uuid-4e971888-5854-439c-9814-73de44346e35" d="m508.21,325.78s-.94,17.21-1.53,29.14c-.61,12.3,4.87,22,4.17,36.99"/><g><path class="uuid-076e47b0-9fcb-4add-9be6-e3a2aa36a1ab" d="m498.16,421.23c-.11.15-3.38,1.37-3.64,6.75-2.87-5.14-1.58-9.04,2.43-10.29l1.21,3.53h0Z"/><path class="uuid-076e47b0-9fcb-4add-9be6-e3a2aa36a1ab" d="m504.92,425.01c-.02.19,1.54,3.53-2.11,7.49,5.8-1.42,7.63-5.13,5.53-9.05l-3.42,1.55h0Z"/></g><path class="uuid-a94f1842-96f2-46e0-80ad-453adfe7c791" d="m500.35,408.04s-1.74-14.99,10.78-16.09c12.52-1.11,11.91,19.11,2.97,21.21,2.22,4.75-1.77,17.53-13.83,11.65-7.05-3.44-5.5-13.96.08-16.77h0Z"/><path class="uuid-4e971888-5854-439c-9814-73de44346e35" d="m500.35,408.04c2.72-1.28,6.49-.58,8.63.3"/><path class="uuid-4e971888-5854-439c-9814-73de44346e35" d="m514.1,413.16c-.32-.86-1.88-2.26-1.88-2.26"/><path class="uuid-4e971888-5854-439c-9814-73de44346e35" d="m504.01,395.1s-2.7-5.97-2.23-8.56,8.01-8.89,8.01-8.89"/><path class="uuid-4e971888-5854-439c-9814-73de44346e35" d="m508.75,371.28s12.36,10.12,13.66,13.08-3.35,11.4-3.35,11.4"/><path class="uuid-4e971888-5854-439c-9814-73de44346e35" d="m501.94,398.08s-5.97-7.21-8.7-8.12-8.57,3.3-8.57,3.3"/><path class="uuid-4e971888-5854-439c-9814-73de44346e35" d="m500.48,403.15s-6.33-3.19-9.12-2.15c-2.79,1.04-5.91,7.66-5.91,7.66"/><path class="uuid-4e971888-5854-439c-9814-73de44346e35" d="m520.66,403.16s7.58-3.45,10.77-3.45,7.01,7.63,7.01,7.63"/><path class="uuid-4e971888-5854-439c-9814-73de44346e35" d="m519.5,408.12s6.93,2.76,7.78,5.81,0,10,0,10"/><path class="uuid-4e971888-5854-439c-9814-73de44346e35" d="m496.18,413.16s-7.16-3.18-7.75,10.05"/><path class="uuid-4e971888-5854-439c-9814-73de44346e35" d="m513.16,422.01s6.82,7.71-4.83,13.18"/><path class="uuid-076e47b0-9fcb-4add-9be6-e3a2aa36a1ab" d="m495.97,419.75c-1.97-6.64,4.68-7.08,5.46-1.74s-3.89,7.03-5.46,1.74Z"/><path class="uuid-076e47b0-9fcb-4add-9be6-e3a2aa36a1ab" d="m505.56,420.95c4.71-5.08,8.48.42,4.27,3.81s-8.03.23-4.27-3.81Z"/><ellipse cx="498.31" cy="418.89" rx=".84" ry="1.27" transform="translate(-64.89 92.41) rotate(-9.95)"/><ellipse cx="507.84" cy="423.07" rx="1.27" ry=".84" transform="translate(-152.31 456.1) rotate(-42.66)"/></g></g></g></g></svg>
<svg id="uuid-ebc84ef3-4055-4dbb-a123-19597763bcf8" data-name="BODY" xmlns="http://www.w3.org/2000/svg" viewBox="0 0 600 600"><defs><style>
      .uuid-92b76a81-6ef1-4f23-96f1-97c980a81841 {
        fill: #fff;
        stroke: #000;
        stroke-miterlimit: 10;
        stroke-width: 2px;
      }
    </style></defs><path class="uuid-92b76a81-6ef1-4f23-96f1-97c980a81841" d="m234.82,145.43c-9.89-21.59-45.38-26.51-79.27-10.99-33.89,15.52-53.35,45.61-43.46,67.2,9.99,21.81,39.44,22.36,59.43,17.73,4.99-1.16,10.09-2.59,14.83-4.51,5.26-2.14,11.16-6.03,16.85-3.03,2.88,1.52,17.21,8.41,19.06,3.74.88-2.24-2.6-4.93-3.79-6.4-2.06-2.55-3.15-5.62-2.69-8.93.52-3.73,3.23-6.58,5.75-9.17,3.01-3.1,5.82-6.19,8.14-9.86,6.51-10.31,10.47-24.16,5.15-35.78Z"/><g><path d="m127.75,172.06l9.21-5.77c7.37-4.62,16.36-2.56,26.35,13.39,9.99,15.95,7.93,24.93.56,29.55l-9.21,5.77-26.91-42.94Zm31.82,29.61c1.54-.96,2-2.96-6.08-15.84-8.07-12.88-10.07-13.34-11.6-12.38l-.31.19,17.68,28.22.31-.19Z"/><path d="m182.71,173.51l8.29-5.19c.33.39.72.74,1.11,1.1.68.68,1.5,1.71,2.38,3.12,5.38,8.59,3.54,16.57-1.98,20.04-6.45,4.04-15.44,1.98-26.01-14.89-10.57-16.87-8.5-25.85-2.05-29.89,5.53-3.46,13.52-1.63,18.9,6.95.88,1.41,1.45,2.59,1.77,3.51.15.51.29,1.01.5,1.48l-8.29,5.19-1.15-1.84c-5.07-8.1-6.43-8.36-7.23-7.86-1.17.73-1.41,2.25,7.39,16.3s10.28,14.49,11.44,13.76c.8-.5,1.16-1.84-3.92-9.93l-1.15-1.84Z"/><path d="m179.28,139.78l9.21-5.77,21.91,34.96,8.29-5.19,5,7.97-17.51,10.97-26.91-42.94Z"/></g></svg>
</svg>