<?xml version="1.0" encoding="UTF-8"?>
<svg xmlns="http://www.w3.org/2000/svg" viewBox="0 0 600 600">
<svg id="uuid-b5df70f2-f26b-4cc4-9992-c02ca3e1ffe7" data-name="BACKGROUND" xmlns="http://www.w3.org/2000/svg" viewBox="0 0 600 600"><defs><style>
      .uuid-b49e1da8-89ab-4517-8063-4eac3fbcc068 {
        fill: #3ef1ff;
      }
    </style></defs><rect class="uuid-b49e1da8-89ab-4517-8063-4eac3fbcc068" x="-1" y="-1" width="602" height="602"/></svg>
<svg id="uuid-f7144243-e6cd-4cab-932b-c5be46c6fb36" data-name="BACKGROUND" xmlns="http://www.w3.org/2000/svg" viewBox="0 0 600 600"><defs><style>
      .uuid-ee344cb6-6f49-4a63-aa7b-6b97f7278011, .uuid-2df137ed-1d1c-4841-89ca-f7589125bd76 {
        fill: #fff;
      }

      .uuid-2df137ed-1d1c-4841-89ca-f7589125bd76, .uuid-00c9b4c2-3408-4d90-88df-0016a53fdc8b, .uuid-9c4e21ff-8a5c-4860-9f42-740e78ff2dc7, .uuid-2a45fb5d-1b56-43fa-8c8f-251b0f959774, .uuid-53cf4bc2-4135-41a5-b8b2-af79dfc57a4e, .uuid-c8ed7fb8-48a5-4e1d-9b4a-eac3ff2accd7, .uuid-b11951d9-d6a4-4c59-b0b3-fb834948f050 {
        stroke: #000;
        stroke-width: 2px;
      }

      .uuid-2df137ed-1d1c-4841-89ca-f7589125bd76, .uuid-00c9b4c2-3408-4d90-88df-0016a53fdc8b, .uuid-2a45fb5d-1b56-43fa-8c8f-251b0f959774, .uuid-c8ed7fb8-48a5-4e1d-9b4a-eac3ff2accd7 {
        stroke-miterlimit: 10;
      }

      .uuid-2df137ed-1d1c-4841-89ca-f7589125bd76, .uuid-9c4e21ff-8a5c-4860-9f42-740e78ff2dc7, .uuid-2a45fb5d-1b56-43fa-8c8f-251b0f959774, .uuid-53cf4bc2-4135-41a5-b8b2-af79dfc57a4e, .uuid-c8ed7fb8-48a5-4e1d-9b4a-eac3ff2accd7 {
        stroke-linecap: round;
      }

      .uuid-00c9b4c2-3408-4d90-88df-0016a53fdc8b, .uuid-53cf4bc2-4135-41a5-b8b2-af79dfc57a4e, .uuid-c8ed7fb8-48a5-4e1d-9b4a-eac3ff2accd7, .uuid-b11951d9-d6a4-4c59-b0b3-fb834948f050 {
        fill: #f9a723;
      }

      .uuid-9c4e21ff-8a5c-4860-9f42-740e78ff2dc7 {
        fill: none;
      }

      .uuid-9c4e21ff-8a5c-4860-9f42-740e78ff2dc7, .uuid-53cf4bc2-4135-41a5-b8b2-af79dfc57a4e, .uuid-b11951d9-d6a4-4c59-b0b3-fb834948f050 {
        stroke-linejoin: round;
      }

      .uuid-2a45fb5d-1b56-43fa-8c8f-251b0f959774 {
        fill: #ff78d8;
      }
    </style></defs><path class="uuid-53cf4bc2-4135-41a5-b8b2-af79dfc57a4e" d="m409.81,359.6c9.2,3.77,29.89,12.05,42.79,16.03,2.11.65,4.41.69,6.5-.04,11.79-4.08,28.47-11.39,33.03-11.32,5.25.08,7.8,3.93,19.88,2.04,13.36-2.1,22.43-11.99,20.93-23.3-4.21-43.28-25.18-26.79-25.18-26.79,0,0-5.84-8.75-18.76-4.82-11.83,3.6-10.2,14.44-6.47,22.47l-25.29,8.58c-2.14.72-4.45.71-6.59-.02l-35.7-12.61"/><path class="uuid-c8ed7fb8-48a5-4e1d-9b4a-eac3ff2accd7" d="m533.36,312.82c2.5,3.94,1.62,9.14-1.57,12.4-2.47,2.53-5.88,3.88-9.32,4.4-2.8.43-5.7.42-8.49-.08-2.14-.39-4.29-1.1-5.79-2.75-1.66-1.83-2.27-4.46-1.98-6.87.51-4.17,3.84-7.14,7.22-9.26,3.17-1.98,6.86-3.26,10.64-3.09,3.8.18,7.36,2.19,9.3,5.24Z"/><path class="uuid-c8ed7fb8-48a5-4e1d-9b4a-eac3ff2accd7" d="m538.57,349.84c.97,3.03.32,6.43-1.5,9.01-3.77,5.33-11.17,5.65-16.96,4.27-3.31-.79-6.69-2.21-8.67-5.13-3.13-4.61-.82-9.79,3.48-12.56,2.58-1.66,5.61-2.67,8.63-3.14,5.73-.89,13.1,1.51,15.03,7.56Z"/><path class="uuid-c8ed7fb8-48a5-4e1d-9b4a-eac3ff2accd7" d="m538.71,328.53c1.8,2.99,2.06,6.89.22,9.9-1.95,3.2-4.94,5.25-8.49,6.28-3.66,1.07-7.64,1.27-11.4.44-2.25-.5-4.53-1.38-5.96-3.28-1.86-2.47-1.89-5.68-.85-8.49,1.2-3.24,4.17-5.69,7.09-7.37,6.15-3.56,15.21-4.43,19.39,2.52Z"/><path class="uuid-c8ed7fb8-48a5-4e1d-9b4a-eac3ff2accd7" d="m501.85,311.68s9.27,3.84,7.77,12.02c-1.04,5.68-8.17,9.55-14.94,6.13"/><path class="uuid-9c4e21ff-8a5c-4860-9f42-740e78ff2dc7" d="m500.67,331.08c2.41,1.63,5.11,8.04,3.4,14.42"/><path d="m443.44,339.88c-2.88,10.58-6.94,20.23-11.17,28.59-10.17-3.78-21.16-9.53-27-11.93l11.83-26.02,26.35,9.36Z"/><ellipse cx="300" cy="518.65" rx="138.6" ry="22.93"/><path class="uuid-00c9b4c2-3408-4d90-88df-0016a53fdc8b" d="m319.36,427.14c-1.16,1.05-54.95,57-54.95,57,0,0,21.51-1.95,31.74,10.62,10.23,12.57,7.26,23.89,7.26,23.89h-66.9s-28.69-36.17-28.69-36.17c0,0,3.74-13.4,20.44-10.59,20.9-19.38,55.52-59.13,55.52-59.13l35.59,14.38Z"/><path d="m283.78,412.76l31.28,12.64-3.24,9.5c-2.93,3.03-9.76,10.12-13.64,14.14-11.92,0-27.98-2.13-41.33-6.37,13.95-15.1,26.93-29.92,26.93-29.92Z"/><path class="uuid-00c9b4c2-3408-4d90-88df-0016a53fdc8b" d="m354.45,173.54l-.11.27-174.2,58.29c-11.49,20.13-18.05,43.43-18.05,68.27,0,76.2,61.77,137.98,137.97,137.98s137.98-61.77,137.98-137.98c0-56.89-34.43-105.72-83.58-126.83Z"/><path class="uuid-9c4e21ff-8a5c-4860-9f42-740e78ff2dc7" d="m264.41,484.14c-4.06.49-11.49,1.36-17.85,7.23"/><path class="uuid-ee344cb6-6f49-4a63-aa7b-6b97f7278011" d="m185.17,308.14c-4.41,0-7.98-3.57-7.98-7.98,0-67.74,55.11-122.86,122.86-122.86,4.41,0,7.98,3.57,7.98,7.98s-3.57,7.98-7.98,7.98c-58.94,0-106.9,47.95-106.9,106.9,0,4.41-3.57,7.98-7.98,7.98Z"/><path d="m203.75,397.46l34.2-27.46-24.86,36.3c-6.73-5.1-3.66-2.61-9.34-8.83Z"/><path class="uuid-b11951d9-d6a4-4c59-b0b3-fb834948f050" d="m323.72,387.31c19.14-13.4,39.15-11.3,55.52,7.36,19.6,22.35,30.57,33.06,30.57,33.06,0,0,10.74-19.34,34.77-17.5,18.26,1.4,24.84,14.43,24.84,14.43,0,0,6.21,8.82-22.45,33.5-28.66,24.68-54.93,40.92-61.14,29.46-6.21-11.46-2.82-32.1-2.82-32.1,0,0-22.02-26.09-27.94-32.01-6.79-6.79-15.71-1.36-15.71-1.36"/><path class="uuid-00c9b4c2-3408-4d90-88df-0016a53fdc8b" d="m446.97,458.17c-25.89,22.29-49.82,37.69-58.79,32.02-9.77-7.44,26.84-38.54,44.88-52.7,18.04-14.16,32.17-17.82,36.36-12.81,0,0,6.21,8.82-22.45,33.5Z"/><path class="uuid-9c4e21ff-8a5c-4860-9f42-740e78ff2dc7" d="m409.81,427.74c-1.89,2.86-4.55,10.38-4.55,10.38"/><ellipse class="uuid-2df137ed-1d1c-4841-89ca-f7589125bd76" cx="269.41" cy="209.07" rx="94.9" ry="26.25" transform="translate(-52.5 96.54) rotate(-18.55)"/><ellipse class="uuid-2a45fb5d-1b56-43fa-8c8f-251b0f959774" cx="269.41" cy="209.07" rx="71.19" ry="13.32" transform="translate(-52.5 96.54) rotate(-18.55)"/><g><path class="uuid-53cf4bc2-4135-41a5-b8b2-af79dfc57a4e" d="m214.11,345.7c-8.05,5.83-25.34,20.79-35.52,29.67-1.67,1.45-2.82,3.41-3.39,5.55-3.14,11.67-8.55,33.44-8.55,33.44,0,0-8.42.58-12.19,14.35-3.64,13.3-6.64,25.06,3.77,29.75.35,7.47,7.51,15.45,19.2,9.41.14-.06,1.32,1.32,1.44,1.45,2.64,2.7,6.36,4.45,10.13,4.81,3.65.36,7.61-.67,10.43-3.08,3.29-2.81,5.4-6.94,6.05-11.2.4-2.61.26-5.31-.75-7.78,0,0,6.2-2.51,8.05-11.34,1.99-9.49-4.22-19.42-14.62-18.18l6.17-23.11c.51-2.2,1.74-4.16,3.49-5.59l29.38-24.3"/><path class="uuid-9c4e21ff-8a5c-4860-9f42-740e78ff2dc7" d="m204.73,452.06c-1.37-3.47-5.39-7.08-9-6.88"/><path class="uuid-9c4e21ff-8a5c-4860-9f42-740e78ff2dc7" d="m178.86,469.3c-5.16-5.27-3.82-11.97-2.9-13.54"/><path class="uuid-9c4e21ff-8a5c-4860-9f42-740e78ff2dc7" d="m158.22,458.45c-.27-5.22.73-7.32,3.06-9.83"/><path class="uuid-9c4e21ff-8a5c-4860-9f42-740e78ff2dc7" d="m193.93,450.63c.14-2.07.48-4.16,1.32-6.06.85-1.95,2.36-3.88,4.31-4.85"/></g></svg>
<svg id="uuid-783ed389-68eb-43cd-8772-5f49b9e71529" data-name="BODY" xmlns="http://www.w3.org/2000/svg" viewBox="0 0 600 600"><defs><style>
      .uuid-f7dbff45-408d-444d-ade6-4633d32cb1f2 {
        fill: none;
        stroke: #000;
        stroke-linecap: round;
        stroke-linejoin: round;
        stroke-width: 4px;
      }
    </style></defs><g id="uuid-4bc92f06-c84b-4f7f-af09-c2014f1ce8f9" data-name="mouth"><path d="m371.37,289.99c1.76,5.11-.95,10.68-6.06,12.44s-10.68-.95-12.44-6.06l18.49-6.38Z"/></g><g id="uuid-285df2d9-fba6-4a75-9123-94e1b459206d" data-name="eye L"><path class="uuid-f7dbff45-408d-444d-ade6-4633d32cb1f2" d="m346.88,270.76c1.76,5.11-.95,10.68-6.06,12.44s-10.68-.95-12.44-6.06"/></g><g id="uuid-a97f4a4e-8c90-4af2-892b-9ce222650c5a" data-name="eye R"><path class="uuid-f7dbff45-408d-444d-ade6-4633d32cb1f2" d="m378.79,259.75c1.76,5.11-.95,10.68-6.06,12.44-5.11,1.76-10.68-.95-12.44-6.06"/></g></svg>
<svg id="uuid-f3db1eb6-4f97-4492-acd4-59277665a4db" data-name="BACKGROUND" xmlns="http://www.w3.org/2000/svg" viewBox="0 0 600 600"><defs><style>
      .uuid-137cf754-8ee9-43f1-a9ec-46d5467ffedf {
        stroke-linecap: round;
      }

      .uuid-137cf754-8ee9-43f1-a9ec-46d5467ffedf, .uuid-2ca244a5-3277-4142-b0d8-4f90aed69e5b, .uuid-6709d634-fb39-496e-8134-aaf453bc2ef6 {
        stroke: #000;
        stroke-width: 2px;
      }

      .uuid-137cf754-8ee9-43f1-a9ec-46d5467ffedf, .uuid-6709d634-fb39-496e-8134-aaf453bc2ef6 {
        fill: #fff7f0;
        stroke-linejoin: round;
      }

      .uuid-2ca244a5-3277-4142-b0d8-4f90aed69e5b {
        fill: none;
        stroke-miterlimit: 10;
      }
    </style></defs><g id="uuid-7a884093-fbd7-4212-8f65-d3cd505a74ba" data-name="plaster foot"><path class="uuid-6709d634-fb39-496e-8134-aaf453bc2ef6" d="m409.81,427.74s10.74-19.34,34.77-17.5c18.26,1.4,24.84,14.43,24.84,14.43,0,0,6.21,8.82-22.45,33.5-28.66,24.68-54.93,40.92-61.14,29.46-6.21-11.46-2.82-32.1-2.82-32.1"/><path class="uuid-2ca244a5-3277-4142-b0d8-4f90aed69e5b" d="m388.17,490.18c-9.77-7.44,26.84-38.54,44.88-52.7,18.04-14.16,32.17-17.82,36.36-12.81"/><path class="uuid-137cf754-8ee9-43f1-a9ec-46d5467ffedf" d="m416.78,450.89h0c5.91-5.12,11.7-9.81,16.28-13.41,3.06-2.4,6-4.49,8.8-6.3,0,0,0,0,0,0-5.14-5.62-15.52-9.19-27.65-9.19-23.41-.78-25.67,26.26-25.67,26.26,0,0,20.52-4.94,28.24,2.63Z"/><path class="uuid-137cf754-8ee9-43f1-a9ec-46d5467ffedf" d="m367.67,443.32s11.74,5.26,14.61,20.07c4.7-13.04,6.92-17.95,13.57-25.3,3.66-4.05,9.91-12.26,18.37-16.09-1.55-1.7-7.15-2.95-12.1-6.16-3.32-2.15-9.22-9.4-9.22-9.4.34-.54-7.1,3.85-15.83,16-5.28,7.35-9.39,20.89-9.39,20.89Z"/><path class="uuid-137cf754-8ee9-43f1-a9ec-46d5467ffedf" d="m347.59,424.78s9.65,11.74,20.09,18.54c2.35-4.71,7.74-16.1,12.26-22.19,4.52-6.09,8.61-11.22,12.96-14.7-6.96-11.39-17.22-18.09-17.22-18.09,0,0-7.65,12.92-13.22,20.05-5.57,7.13-14.87,16.39-14.87,16.39Z"/></g></svg>
<svg id="uuid-812f6975-679d-4f88-a4ed-851daa0a87ab" data-name="BODY" xmlns="http://www.w3.org/2000/svg" viewBox="0 0 600 600"><defs><style>
      .uuid-c2b81f84-54b4-4471-8442-6dab97f9dbdb {
        fill: #7aa6ff;
      }

      .uuid-c2b81f84-54b4-4471-8442-6dab97f9dbdb, .uuid-8f93f715-e731-4f67-a3d6-2e442b938451, .uuid-52fe3725-26e2-42a9-8a9b-607d6ab8d4a1 {
        stroke: #000;
        stroke-linecap: round;
        stroke-linejoin: round;
        stroke-width: 2px;
      }

      .uuid-d52b56ba-8ce0-4864-b827-dcc6275d2116 {
        fill: #ffc9f1;
      }

      .uuid-8f93f715-e731-4f67-a3d6-2e442b938451 {
        fill: #ff78d8;
      }

      .uuid-52fe3725-26e2-42a9-8a9b-607d6ab8d4a1 {
        fill: none;
      }
    </style></defs><g id="uuid-2a31ff83-8394-4ae1-83e2-55ef45d928c7" data-name="uuid-831834e0-bbb8-426a-8cd6-ab5c8fbbbe1c"><g id="uuid-5a353068-881e-4ba2-860e-e9d7a7bbebc2" data-name="uuid-1fcb06a8-7212-4847-8b3f-ceda00c046b1"><g id="uuid-111bd790-e24a-47d4-950c-c3799bd40fa4" data-name="uuid-e9ed0fb3-5d7b-4b33-9f9b-ca7aaa2c4c4e"><circle class="uuid-8f93f715-e731-4f67-a3d6-2e442b938451" cx="489.69" cy="199.93" r="51.03" transform="translate(2.06 404.82) rotate(-45)"/><path class="uuid-8f93f715-e731-4f67-a3d6-2e442b938451" d="m543.98,181.68c-2.32-4.46-15.68-16.27-58.27-10.33-42.59,5.94-52.2,20.97-53.22,25.89-.85,4.1.27,25.66,12.14,26.71-2.48-5.6-3.39-10.66-3.39-10.66,0,0-1.04-13.08,47.55-19.86,48.44-6.76,51.17,6.09,51.17,6.09,0,0,.51,5.11-.34,11.18,11.13-4.26,6.3-25.29,4.37-29.01h0Z"/><g><path class="uuid-d52b56ba-8ce0-4864-b827-dcc6275d2116" d="m492.25,237.5c1.32-.8-2.83-7.79-4.88-20.65-2.05-12.86-1.21-17.43-3.79-17.45-2.58-.03-1.75,8.24.05,18.36,1.8,10.12,6.42,21.08,8.62,19.74h0Z"/><path class="uuid-d52b56ba-8ce0-4864-b827-dcc6275d2116" d="m465.36,219.85c-2.16,1.34-9.64-7.23-9.38-8.55s4.45-3.65,5.41-2.82,5.04,10.7,3.97,11.37Z"/><path class="uuid-d52b56ba-8ce0-4864-b827-dcc6275d2116" d="m507.79,240.81c.65,2.43,7.9-2.07,12.66-6.28,4.76-4.21,8.23-8.88,6.69-10.21s-5.38,3.46-9.7,7.15c-4.32,3.7-10.05,7.85-9.65,9.34h0Z"/><path class="uuid-d52b56ba-8ce0-4864-b827-dcc6275d2116" d="m528.66,221.27c1.31.69,5.74-5.97,3.92-6.69-1.82-.71-6.04,5.58-3.92,6.69Z"/><path class="uuid-d52b56ba-8ce0-4864-b827-dcc6275d2116" d="m517.57,174.22s2.67,7.62,3,13.63c6.31-.04,12.92,2.51,12.92,2.51,0,0-3.07-9.46-7.13-14.5,0,0-4.27-1.64-8.79-1.65Z"/><path class="uuid-d52b56ba-8ce0-4864-b827-dcc6275d2116" d="m446.91,187.4c-.93-.33-6.26,3.61-6.55,4.81s.52,10.21,1.91,11.14c1.39.93,7.99-14.78,4.64-15.95h0Z"/><path class="uuid-d52b56ba-8ce0-4864-b827-dcc6275d2116" d="m475.33,176.57c-1.18.68-2.89,14.87-2.63,15.54s15.42-1.93,16.17-2.61,1.34-14.43,1.1-14.98-12.84,1.02-14.63,2.04h0Z"/><path class="uuid-d52b56ba-8ce0-4864-b827-dcc6275d2116" d="m498.29,155.85c-1.48,3.03,14.49,8.56,15,6.7.51-1.86-12.18-12.47-15-6.7h0Z"/><path class="uuid-d52b56ba-8ce0-4864-b827-dcc6275d2116" d="m483.58,154.84c-.49,2.43,7.45,3.41,7.96.48.51-2.92-7.37-3.42-7.96-.48Z"/><path class="uuid-d52b56ba-8ce0-4864-b827-dcc6275d2116" d="m455.96,168.67c.51,3.37,9.82-2.85,8.12-5.58-1.7-2.73-8.56,2.64-8.12,5.58Z"/><path class="uuid-d52b56ba-8ce0-4864-b827-dcc6275d2116" d="m540.23,182.79c-3.62-1.64-.58,3.92.1,7.88.68,3.96.57,8.04,1.63,8.18,1.05.14,1.45-4.59,1.08-8.88s-.47-6.12-2.81-7.18h0Z"/></g><g><path class="uuid-c2b81f84-54b4-4471-8442-6dab97f9dbdb" d="m498.33,310.64h0s5.18.71,9.29,5.39c2.5-3.41,4.47-4.48,4.47-4.48l-9.42-67.52s-.42-2.97-7.1-2.04c-6.69.93-6.27,3.9-6.27,3.9l9.04,64.74Z"/><path class="uuid-c2b81f84-54b4-4471-8442-6dab97f9dbdb" d="m519.24,362.8c-14.5-4.39-8.79-16.19-2.56-18.34h0c-5.56-1.96-7.11-9.88-2.07-14.81h0c-4.28-.28-6.34-2.76-6.34-2.76,0,0-2.5,4.3-7.09,4.22h0l14.63,104.82s.41,2.97,7.1,2.04c6.69-.93,6.27-3.9,6.27-3.9l-9.95-71.27h0Z"/><path class="uuid-52fe3725-26e2-42a9-8a9b-607d6ab8d4a1" d="m515.82,435.93c-.57-4.08,12.8-5.94,13.37-1.87"/></g></g></g></g></svg>
<svg id="uuid-cfa177e0-3db8-41e4-8a52-6ff5aa173990" data-name="BACKGROUND" xmlns="http://www.w3.org/2000/svg" viewBox="0 0 600 600"><defs><style>
      .uuid-b8723a43-7cc7-4620-9c33-b5aeb61146d3 {
        opacity: .5;
      }

      .uuid-b8723a43-7cc7-4620-9c33-b5aeb61146d3, .uuid-3ef18c27-fb31-42a1-8e43-d208d9f8ba52, .uuid-d66d6b9e-12fb-4ad4-a164-2db1cf7825d1 {
        fill: none;
      }

      .uuid-3ef18c27-fb31-42a1-8e43-d208d9f8ba52, .uuid-d66d6b9e-12fb-4ad4-a164-2db1cf7825d1 {
        stroke: #000;
        stroke-linecap: round;
        stroke-linejoin: round;
      }

      .uuid-d66d6b9e-12fb-4ad4-a164-2db1cf7825d1 {
        stroke-width: 2px;
      }
    </style></defs><g id="uuid-da9cc0e6-3cfe-461e-8a8f-34904e1cffc2" data-name="uuid-df7eda05-8d90-48fe-8005-fe68a29d7cab"><g id="uuid-7f73c803-a58b-4b9b-9db5-f7182fa6d44b" data-name="uuid-e789c629-4a7f-4a38-b33d-b89f18fb6b0e"><g class="uuid-b8723a43-7cc7-4620-9c33-b5aeb61146d3"><g><circle cx="456.94" cy="353.59" r="2.25"/><circle cx="471.2" cy="357.76" r="1.58"/><circle cx="459.7" cy="348.86" r=".79"/><line class="uuid-d66d6b9e-12fb-4ad4-a164-2db1cf7825d1" x1="466.43" y1="354.78" x2="467.45" y2="357.36"/><line class="uuid-d66d6b9e-12fb-4ad4-a164-2db1cf7825d1" x1="470.91" y1="351.75" x2="472.45" y2="353.59"/><line class="uuid-d66d6b9e-12fb-4ad4-a164-2db1cf7825d1" x1="474.02" y1="347.38" x2="476.29" y2="348.16"/><line class="uuid-d66d6b9e-12fb-4ad4-a164-2db1cf7825d1" x1="475.59" y1="341.74" x2="478.11" y2="341.99"/><line class="uuid-d66d6b9e-12fb-4ad4-a164-2db1cf7825d1" x1="475.59" y1="337.29" x2="478.42" y2="336.3"/><g><path class="uuid-d66d6b9e-12fb-4ad4-a164-2db1cf7825d1" d="m485.94,343.29c.16-.15.32-.3.49-.44,3.21-2.69,7.6-2.73,9.8-.1s1.37,6.94-1.84,9.63c-.17.15-.35.28-.53.41"/><path class="uuid-d66d6b9e-12fb-4ad4-a164-2db1cf7825d1" d="m490.83,354.2c-2.39.58-4.8.01-6.25-1.72-1.45-1.74-1.59-4.2-.58-6.45"/><path class="uuid-d66d6b9e-12fb-4ad4-a164-2db1cf7825d1" d="m489.14,341.28c-2.26-2.7-4.88-3.71-6.29-2.97-1.85.97-1.6,4.94,4.32,12.01,6.04,7.22,10.01,8.14,11.22,6.37.88-1.28.31-3.98-1.98-6.71"/><path class="uuid-d66d6b9e-12fb-4ad4-a164-2db1cf7825d1" d="m484.96,340.63c-.2.5.71,3.05,4.61,7.71,3.85,4.61,6.24,6.02,6.81,5.97"/></g><polygon points="489.53 359.14 491.48 359.75 492.95 358.66 492.48 360.34 493.53 361.96 491.92 361.32 490.18 362.32 490.83 360.72 489.53 359.14"/><polygon points="479.87 350.73 480.59 352.64 482.36 353.13 480.74 353.79 480.12 355.62 479.63 353.95 477.76 353.21 479.42 352.73 479.87 350.73"/><polygon points="490.55 335.71 490.93 336.72 491.86 336.98 491.01 337.33 490.68 338.29 490.42 337.41 489.44 337.02 490.32 336.77 490.55 335.71"/><polygon points="486.04 333.73 486.42 334.73 487.35 334.99 486.5 335.34 486.17 336.3 485.91 335.42 484.93 335.03 485.81 334.78 486.04 333.73"/><path class="uuid-d66d6b9e-12fb-4ad4-a164-2db1cf7825d1" d="m435.59,358.22s1.41,5.62,1.63,6.57c.36,1.52-1.99,4.3,0,5.28,1.99.98,2.71-4.7,3.62-4.7s0,3.34,1.47,3.24,1.19-4.25,2.2-6.4c1.01-2.15,2.98-5.03,3.59-4.85s-.33,3.11.99,3.11,1.42-4.73,2.28-6.8c.86-2.07,2.93-5.01,2.93-5.01,0,0-5.21-4.1-12.49-5.87"/><path class="uuid-d66d6b9e-12fb-4ad4-a164-2db1cf7825d1" d="m454.3,348.66c2.88.86,3.64-3.79,2.17-5.61"/><path class="uuid-3ef18c27-fb31-42a1-8e43-d208d9f8ba52" d="m444.64,351.72s-.3,2.44,1.09,2.79c1.32.34,1.49-1.54,1.49-1.54"/><path class="uuid-3ef18c27-fb31-42a1-8e43-d208d9f8ba52" d="m439.03,360.8s-.03,2.53,1.31,2.53,1.52-1.72,1.52-1.72"/><circle class="uuid-3ef18c27-fb31-42a1-8e43-d208d9f8ba52" cx="441.73" cy="356.91" r="2.24"/><circle class="uuid-3ef18c27-fb31-42a1-8e43-d208d9f8ba52" cx="448.54" cy="348.77" r="2.24"/><circle class="uuid-3ef18c27-fb31-42a1-8e43-d208d9f8ba52" cx="441.33" cy="347.81" r="2.24"/><path class="uuid-d66d6b9e-12fb-4ad4-a164-2db1cf7825d1" d="m452.89,369.39c-2.97-4.45-.67-11.34,6.38-11.03s6.91,9.4,1.96,12.1c0,0,.15,3.78-1.54,3.94s-1.77-2.53-1.77-2.53c0,0-.25,2.93-1.69,2.93s-1.44-2.91-1.44-2.91c0,0-1.29,2.4-2.3,1.79s.41-4.3.41-4.3h0Z"/><path d="m454.84,363.98c2.12-.1,1.2,3.87-.12,3.72s-1.34-3.65.12-3.72Z"/><path d="m458.38,363.98c2.12-.1,1.2,3.87-.12,3.72s-1.34-3.65.12-3.72Z"/><path class="uuid-3ef18c27-fb31-42a1-8e43-d208d9f8ba52" d="m452.45,368.65s-1.59.54-2.68,1.15-1.57,1.77-2.68,1.54c-1.11-.23-1.31-3.05.46-3.64-1.87-.91-1.21-3.39.83-2.73,2.05.66,3.26.87,3.26.87"/><path class="uuid-3ef18c27-fb31-42a1-8e43-d208d9f8ba52" d="m464.77,364.12s.37-.19,1.43-.84,1.49-1.84,2.61-1.66c1.12.18,1.45,2.99-.3,3.65,1.91.83,1.36,3.34-.71,2.77s-3.3-.73-3.3-.73"/><polygon class="uuid-d66d6b9e-12fb-4ad4-a164-2db1cf7825d1" points="471.72 367.45 477.43 362.52 475.23 355.24 480.64 360.8 487.27 358.34 482.73 363.48 483.27 366.24 480.57 367.45 479.21 365.67 471.72 367.45"/><path class="uuid-d66d6b9e-12fb-4ad4-a164-2db1cf7825d1" d="m465.64,339.6s-5.81,8.05-1.14,15.89c0,0,12.97-3.08,10.86-19.19"/><path class="uuid-d66d6b9e-12fb-4ad4-a164-2db1cf7825d1" d="m464.5,355.49s2.34-9.66,6.41-17.67"/><path d="m466.16,349.71c3.8,0,8.34-6.47,4.25-10.69l-4.25,10.69Z"/></g><g><path class="uuid-d66d6b9e-12fb-4ad4-a164-2db1cf7825d1" d="m187.2,411.38c-.39,0-.77.04-1.15.1,1.97.69,3.39,2.54,3.39,4.74,0,2.78-2.26,5.04-5.04,5.04-2.2,0-4.05-1.42-4.74-3.39-.06.38-.1.76-.1,1.15,0,4.22,3.42,7.63,7.63,7.63s7.63-3.42,7.63-7.63-3.42-7.63-7.63-7.63h0Z"/><circle cx="182.72" cy="414.55" r="1.79"/><circle cx="202.81" cy="377.76" r="1.79"/><circle cx="226.98" cy="350.5" r="1.26"/><circle cx="227.31" cy="346.96" r="1.26"/><circle cx="230.42" cy="348.73" r="1.26"/><circle cx="204.15" cy="383.07" r=".79"/><circle cx="188.24" cy="385.47" r=".79"/><circle cx="193.15" cy="402.91" r="1.86"/><polyline class="uuid-d66d6b9e-12fb-4ad4-a164-2db1cf7825d1" points="167.11 412.5 189.56 406.71 184.75 387.34 172.72 390.32"/><polyline class="uuid-d66d6b9e-12fb-4ad4-a164-2db1cf7825d1" points="168.47 407.03 184.7 402.92 182.02 391.69 171.68 394.38"/><polyline class="uuid-d66d6b9e-12fb-4ad4-a164-2db1cf7825d1" points="170.66 398.39 175.81 397.05 176.74 400.78 169.58 402.64"/><line class="uuid-d66d6b9e-12fb-4ad4-a164-2db1cf7825d1" x1="178.33" y1="404.53" x2="182.59" y2="408.51"/><line class="uuid-3ef18c27-fb31-42a1-8e43-d208d9f8ba52" x1="167.84" y1="409.74" x2="176.99" y2="407.44"/><path class="uuid-d66d6b9e-12fb-4ad4-a164-2db1cf7825d1" d="m205.84,374.96s-.35-10.78.3-15.52c.96-6.93,11.93-10.21,13.25,2.17,0,0,8.54-.91,8.24,6.93-.3,7.84-21.79,6.42-21.79,6.42h0Z"/><line class="uuid-d66d6b9e-12fb-4ad4-a164-2db1cf7825d1" x1="231.71" y1="363.58" x2="234.81" y2="366.21"/><polyline class="uuid-d66d6b9e-12fb-4ad4-a164-2db1cf7825d1" points="227.42 366.21 234.81 366.21 231.84 369.24"/><polyline class="uuid-d66d6b9e-12fb-4ad4-a164-2db1cf7825d1" points="198.14 363.58 201.04 366.21 205.76 366.21"/><line class="uuid-d66d6b9e-12fb-4ad4-a164-2db1cf7825d1" x1="198.14" y1="368.77" x2="201.04" y2="366.21"/><polyline class="uuid-d66d6b9e-12fb-4ad4-a164-2db1cf7825d1" points="212.08 390.32 205.48 391.69 207.82 381.38 220.85 378.01 218.7 384.85"/><polyline class="uuid-d66d6b9e-12fb-4ad4-a164-2db1cf7825d1" points="220.85 378.01 211.08 386.16 205.48 391.69"/><polyline class="uuid-d66d6b9e-12fb-4ad4-a164-2db1cf7825d1" points="207.82 381.38 211.08 386.16 214.52 387.78"/><polygon points="181.67 385.68 182.73 380.67 188.24 378.01 182.18 377.64 181.27 373.44 179.46 374.61 179.46 378.5 174.8 382.38 179.6 382.24 181.67 385.68"/><path class="uuid-d66d6b9e-12fb-4ad4-a164-2db1cf7825d1" d="m200.78,411.95c-4.13.25-4.67-2.83-3.25-12.59-7.35-2.41-6.94-7.47-5.39-11.21,1.55-3.74-1.69-8.26-2.06-9.81-.37-1.55.67-4.89,1.28-4.9.42-.01.87,1.45,1.11,2.37.11.42.49.72.93.72h1.13c.41,0,.77-.26.9-.64.34-.98,1-2.74,1.27-2.77.37-.03,1.72,2.66,1.72,4.45s-.37,3.74.13,5.09,4.96,6.44,4.28,11.06-5.29,5.65-5.29,5.65"/><path class="uuid-d66d6b9e-12fb-4ad4-a164-2db1cf7825d1" d="m193.15,408.93s3.3-5.26,9.17-2.69"/><line class="uuid-3ef18c27-fb31-42a1-8e43-d208d9f8ba52" x1="209.07" y1="375.05" x2="209.07" y2="370.51"/><line class="uuid-3ef18c27-fb31-42a1-8e43-d208d9f8ba52" x1="211.99" y1="370" x2="212.13" y2="375.01"/><line class="uuid-3ef18c27-fb31-42a1-8e43-d208d9f8ba52" x1="215.43" y1="374.81" x2="214.86" y2="370"/><line class="uuid-3ef18c27-fb31-42a1-8e43-d208d9f8ba52" x1="218.76" y1="374.38" x2="217.89" y2="369.65"/><line class="uuid-3ef18c27-fb31-42a1-8e43-d208d9f8ba52" x1="222.26" y1="373.56" x2="220.85" y2="369.24"/><line class="uuid-3ef18c27-fb31-42a1-8e43-d208d9f8ba52" x1="225.08" y1="372.32" x2="223.15" y2="368.3"/><line class="uuid-3ef18c27-fb31-42a1-8e43-d208d9f8ba52" x1="227.42" y1="369.67" x2="224.77" y2="366.78"/><line class="uuid-3ef18c27-fb31-42a1-8e43-d208d9f8ba52" x1="219.39" y1="361.61" x2="215.6" y2="363.07"/><line class="uuid-3ef18c27-fb31-42a1-8e43-d208d9f8ba52" x1="218.9" y1="358.92" x2="214.86" y2="360.58"/><line class="uuid-3ef18c27-fb31-42a1-8e43-d208d9f8ba52" x1="217.89" y1="356.43" x2="213.95" y2="358.62"/><line class="uuid-3ef18c27-fb31-42a1-8e43-d208d9f8ba52" x1="215.6" y1="354.01" x2="212.9" y2="357.01"/><line class="uuid-3ef18c27-fb31-42a1-8e43-d208d9f8ba52" x1="211.99" y1="353.34" x2="211.32" y2="356.43"/><circle class="uuid-d66d6b9e-12fb-4ad4-a164-2db1cf7825d1" cx="230.42" cy="351.71" r="8.87"/></g></g></g></g></svg>
</svg>