<?xml version="1.0" encoding="UTF-8"?>
<svg xmlns="http://www.w3.org/2000/svg" viewBox="0 0 600 600">
<svg id="uuid-79261e34-5d95-4eb7-bb85-10d7c969ade4" data-name="BACKGROUND" xmlns="http://www.w3.org/2000/svg" viewBox="0 0 600 600"><defs><style>
      .uuid-97803ec4-c756-4940-a80c-fce9d043143d {
        fill: #00dfa9;
      }
    </style></defs><rect class="uuid-97803ec4-c756-4940-a80c-fce9d043143d" x="-1" y="-1" width="602" height="602"/></svg>
<svg id="uuid-f93a7132-06a1-47b1-a2b4-c77f0728fad5" data-name="BODY" xmlns="http://www.w3.org/2000/svg" viewBox="0 0 600 600"><defs><style>
      .uuid-82287df5-6e35-4d66-8626-4bcb7eb53383 {
        fill: #fff;
      }

      .uuid-f691cc19-eed2-4361-aa82-a86e6caf5410, .uuid-516df90e-beab-48b6-8588-feebfcfe5d61, .uuid-54ede7df-6fa7-4365-a011-4ce7326aa7be, .uuid-3ebb8b96-d2bc-4434-b638-264e68acdf77, .uuid-608d99e6-bfbc-497c-9aff-848f8a7e71be {
        stroke: #000;
        stroke-width: 2px;
      }

      .uuid-f691cc19-eed2-4361-aa82-a86e6caf5410, .uuid-516df90e-beab-48b6-8588-feebfcfe5d61, .uuid-3ebb8b96-d2bc-4434-b638-264e68acdf77, .uuid-608d99e6-bfbc-497c-9aff-848f8a7e71be {
        fill: #ff78d8;
      }

      .uuid-f691cc19-eed2-4361-aa82-a86e6caf5410, .uuid-3ebb8b96-d2bc-4434-b638-264e68acdf77 {
        stroke-miterlimit: 10;
      }

      .uuid-516df90e-beab-48b6-8588-feebfcfe5d61, .uuid-54ede7df-6fa7-4365-a011-4ce7326aa7be, .uuid-3ebb8b96-d2bc-4434-b638-264e68acdf77 {
        stroke-linecap: round;
      }

      .uuid-516df90e-beab-48b6-8588-feebfcfe5d61, .uuid-54ede7df-6fa7-4365-a011-4ce7326aa7be, .uuid-608d99e6-bfbc-497c-9aff-848f8a7e71be {
        stroke-linejoin: round;
      }

      .uuid-54ede7df-6fa7-4365-a011-4ce7326aa7be {
        fill: none;
      }
    </style></defs><ellipse cx="300" cy="518.65" rx="138.6" ry="22.93"/><g><path class="uuid-f691cc19-eed2-4361-aa82-a86e6caf5410" d="m319.36,427.14c-1.16,1.05-54.95,57-54.95,57,0,0,21.51-1.95,31.74,10.62,10.23,12.57,7.26,23.89,7.26,23.89h-66.9s-28.69-36.17-28.69-36.17c0,0,3.74-13.4,20.44-10.59,20.9-19.38,55.52-59.13,55.52-59.13l35.59,14.38Z"/><path d="m283.78,412.76l31.28,12.64-3.24,9.5c-2.93,3.03-9.76,10.12-13.64,14.14-11.92,0-27.98-2.13-41.33-6.37,13.95-15.1,26.93-29.92,26.93-29.92Z"/></g><g><path class="uuid-516df90e-beab-48b6-8588-feebfcfe5d61" d="m409.81,359.6c9.2,3.77,29.89,12.05,42.79,16.03,2.11.65,4.41.69,6.5-.04,11.79-4.08,28.47-11.39,33.03-11.32,5.25.08,7.8,3.93,19.88,2.04,13.36-2.1,22.43-11.99,20.93-23.3-4.21-43.28-25.18-26.79-25.18-26.79,0,0-5.84-8.75-18.76-4.82-11.83,3.6-10.2,14.44-6.47,22.47l-25.29,8.58c-2.14.72-4.45.71-6.59-.02l-35.7-12.61"/><path class="uuid-3ebb8b96-d2bc-4434-b638-264e68acdf77" d="m533.36,312.82c2.5,3.94,1.62,9.14-1.57,12.4-2.47,2.53-5.88,3.88-9.32,4.4-2.8.43-5.7.42-8.49-.08-2.14-.39-4.29-1.1-5.79-2.75-1.66-1.83-2.27-4.46-1.98-6.87.51-4.17,3.84-7.14,7.22-9.26,3.17-1.98,6.86-3.26,10.64-3.09,3.8.18,7.36,2.19,9.3,5.24Z"/><path class="uuid-3ebb8b96-d2bc-4434-b638-264e68acdf77" d="m538.57,349.84c.97,3.03.32,6.43-1.5,9.01-3.77,5.33-11.17,5.65-16.96,4.27-3.31-.79-6.69-2.21-8.67-5.13-3.13-4.61-.82-9.79,3.48-12.56,2.58-1.66,5.61-2.67,8.63-3.14,5.73-.89,13.1,1.51,15.03,7.56Z"/><path class="uuid-3ebb8b96-d2bc-4434-b638-264e68acdf77" d="m538.71,328.53c1.8,2.99,2.06,6.89.22,9.9-1.95,3.2-4.94,5.25-8.49,6.28-3.66,1.07-7.64,1.27-11.4.44-2.25-.5-4.53-1.38-5.96-3.28-1.86-2.47-1.89-5.68-.85-8.49,1.2-3.24,4.17-5.69,7.09-7.37,6.15-3.56,15.21-4.43,19.39,2.52Z"/><path class="uuid-3ebb8b96-d2bc-4434-b638-264e68acdf77" d="m501.85,311.68s9.27,3.84,7.77,12.02c-1.04,5.68-8.17,9.55-14.94,6.13"/><path class="uuid-54ede7df-6fa7-4365-a011-4ce7326aa7be" d="m500.67,331.08c2.41,1.63,5.11,8.04,3.4,14.42"/><path d="m443.44,339.88c-2.88,10.58-6.94,20.23-11.17,28.59-10.17-3.78-21.16-9.53-27-11.93l11.83-26.02,26.35,9.36Z"/></g><g><circle class="uuid-f691cc19-eed2-4361-aa82-a86e6caf5410" cx="300" cy="300" r="138.16"/><path class="uuid-82287df5-6e35-4d66-8626-4bcb7eb53383" d="m184.58,308.17c-4.41,0-7.98-3.57-7.98-7.98,0-67.74,55.11-122.86,122.86-122.86,4.41,0,7.98,3.57,7.98,7.98s-3.57,7.98-7.98,7.98c-58.94,0-106.9,47.95-106.9,106.9,0,4.41-3.57,7.98-7.98,7.98Z"/></g><path class="uuid-54ede7df-6fa7-4365-a011-4ce7326aa7be" d="m264.41,484.14c-4.06.49-11.49,1.36-17.85,7.23"/><path class="uuid-82287df5-6e35-4d66-8626-4bcb7eb53383" d="m185.17,308.14c-4.41,0-7.98-3.57-7.98-7.98,0-67.74,55.11-122.86,122.86-122.86,4.41,0,7.98,3.57,7.98,7.98s-3.57,7.98-7.98,7.98c-58.94,0-106.9,47.95-106.9,106.9,0,4.41-3.57,7.98-7.98,7.98Z"/><path d="m203.75,397.46l34.2-27.46-24.86,36.3c-6.73-5.1-3.66-2.61-9.34-8.83Z"/><path class="uuid-608d99e6-bfbc-497c-9aff-848f8a7e71be" d="m323.72,387.31c19.14-13.4,39.15-11.3,55.52,7.36,19.6,22.35,30.57,33.06,30.57,33.06,0,0,10.74-19.34,34.77-17.5,18.26,1.4,24.84,14.43,24.84,14.43,0,0,6.21,8.82-22.45,33.5-28.66,24.68-54.93,40.92-61.14,29.46-6.21-11.46-2.82-32.1-2.82-32.1,0,0-22.02-26.09-27.94-32.01-6.79-6.79-15.71-1.36-15.71-1.36"/><path class="uuid-f691cc19-eed2-4361-aa82-a86e6caf5410" d="m446.97,458.17c-25.89,22.29-49.82,37.69-58.79,32.02-9.77-7.44,26.84-38.54,44.88-52.7,18.04-14.16,32.17-17.82,36.36-12.81,0,0,6.21,8.82-22.45,33.5Z"/><path class="uuid-54ede7df-6fa7-4365-a011-4ce7326aa7be" d="m409.81,427.74c-1.89,2.86-4.55,10.38-4.55,10.38"/><g><path class="uuid-516df90e-beab-48b6-8588-feebfcfe5d61" d="m214.11,345.7c-8.05,5.83-25.34,20.79-35.52,29.67-1.67,1.45-2.82,3.41-3.39,5.55-3.14,11.67-8.55,33.44-8.55,33.44,0,0-8.42.58-12.19,14.35-3.64,13.3-6.64,25.06,3.77,29.75.35,7.47,7.51,15.45,19.2,9.41.14-.06,1.32,1.32,1.44,1.45,2.64,2.7,6.36,4.45,10.13,4.81,3.65.36,7.61-.67,10.43-3.08,3.29-2.81,5.4-6.94,6.05-11.2.4-2.61.26-5.31-.75-7.78,0,0,6.2-2.51,8.05-11.34,1.99-9.49-4.22-19.42-14.62-18.18l6.17-23.11c.51-2.2,1.74-4.16,3.49-5.59l29.38-24.3"/><path class="uuid-54ede7df-6fa7-4365-a011-4ce7326aa7be" d="m204.73,452.06c-1.37-3.47-5.39-7.08-9-6.88"/><path class="uuid-54ede7df-6fa7-4365-a011-4ce7326aa7be" d="m178.86,469.3c-5.16-5.27-3.82-11.97-2.9-13.54"/><path class="uuid-54ede7df-6fa7-4365-a011-4ce7326aa7be" d="m158.22,458.45c-.27-5.22.73-7.32,3.06-9.83"/><path class="uuid-54ede7df-6fa7-4365-a011-4ce7326aa7be" d="m193.93,450.63c.14-2.07.48-4.16,1.32-6.06.85-1.95,2.36-3.88,4.31-4.85"/></g></svg>
<svg id="uuid-175be159-db61-4df5-a3ec-4e569af78a21" data-name="BODY" xmlns="http://www.w3.org/2000/svg" viewBox="0 0 600 600"><defs><style>
      .uuid-cb5ad370-d590-4d84-8471-319d1a4c5aa5 {
        fill: none;
        stroke: #000;
        stroke-linecap: round;
        stroke-linejoin: round;
        stroke-width: 4px;
      }
    </style></defs><g id="uuid-13c94933-b88a-4a0e-9bd5-264a3853387a" data-name="expressions"><g id="uuid-006bcb9c-427f-47d9-92c9-0f51d1e9073c" data-name="mouth"><circle cx="362.12" cy="293.18" r="9.78" transform="translate(-9.59 12.26) rotate(-1.91)"/></g><g id="uuid-aa5f76af-2ff8-4e7f-a2a4-73d690451a8d" data-name="eye L"><circle cx="337.63" cy="273.96" r="9.78" transform="translate(-8.96 11.43) rotate(-1.91)"/></g><g id="uuid-4d2b7d8b-0a30-48e5-b672-08579e330a1a" data-name="eye R"><polyline class="uuid-cb5ad370-d590-4d84-8471-319d1a4c5aa5" points="374.33 254.17 360.69 266.02 379.28 264.87"/></g></g></svg>
<svg id="uuid-9d1e8aa9-c04a-46e9-b3c3-01823dd59a59" data-name="BACKGROUND" xmlns="http://www.w3.org/2000/svg" viewBox="0 0 600 600"><defs><style>
      .uuid-b5c36b33-7bcc-4de6-9bcc-b09b8a2016f6, .uuid-660c04b4-fa82-4422-b1ba-a2c1dd7e0159 {
        fill: #7aa6ff;
      }

      .uuid-b5c36b33-7bcc-4de6-9bcc-b09b8a2016f6, .uuid-41032fe0-d2fe-461a-b8c6-491b03ab54be, .uuid-8460c441-7e92-40ce-bb73-f11f0dcaf042, .uuid-8971ef88-c9ee-424d-b142-c3a328f2a790, .uuid-9210ebd9-abde-4e8b-b154-3bb591c63759 {
        stroke: #000;
        stroke-linejoin: round;
      }

      .uuid-b5c36b33-7bcc-4de6-9bcc-b09b8a2016f6, .uuid-8460c441-7e92-40ce-bb73-f11f0dcaf042, .uuid-8971ef88-c9ee-424d-b142-c3a328f2a790, .uuid-9210ebd9-abde-4e8b-b154-3bb591c63759 {
        stroke-linecap: round;
        stroke-width: 2px;
      }

      .uuid-f649728e-69c6-4a97-a0f0-388adbfc0e12, .uuid-8460c441-7e92-40ce-bb73-f11f0dcaf042 {
        fill: #fff7f0;
      }

      .uuid-41032fe0-d2fe-461a-b8c6-491b03ab54be {
        stroke-width: 3px;
      }

      .uuid-41032fe0-d2fe-461a-b8c6-491b03ab54be, .uuid-8971ef88-c9ee-424d-b142-c3a328f2a790 {
        fill: none;
      }

      .uuid-9210ebd9-abde-4e8b-b154-3bb591c63759 {
        fill: #f9a723;
      }
    </style></defs><g id="uuid-3ff62dab-83dd-4bd0-b5a2-51453336e98e" data-name="uuid-09b8933c-635f-4dcd-977d-7eb4fc105aa8"><g><g><path class="uuid-b5c36b33-7bcc-4de6-9bcc-b09b8a2016f6" d="m241.22,454.8l-13.89,13.85s-12.85-2.78-19.77,7.48l29.07,36.91h68.51s.65-17.01-14.04-25.82c-8.29-5.06-18.57-5.38-18.57-5.38l2.79-3.09c.96-1.06.66-2.75-.62-3.4-2.53-1.29-6.47-3.3-9.42-4.8-1.34-.68-2.97-.41-4.02.67l-1.42,1.47s-6.22-3.03-10.77-8.09c-4.55-5.06-5.44-7.92-5.44-7.92l2.43-2.53-2.37-.23c-.91-.09-1.81.23-2.46.88h0Z"/><path class="uuid-8971ef88-c9ee-424d-b142-c3a328f2a790" d="m244.42,489.63c5.92-5.31,14.38-9.03,28.11-7.79"/><path class="uuid-8460c441-7e92-40ce-bb73-f11f0dcaf042" d="m305.14,513.04s.61-16.03-12.79-25.02c-19.07,2.22-21.4,18.25-21.65,25.02h34.44Z"/><path class="uuid-8971ef88-c9ee-424d-b142-c3a328f2a790" d="m259.84,472.69c-3.71,4.36-10.76,13.48-10.76,13.48"/><g><circle cx="241.51" cy="504.3" r="2.39"/><circle cx="252.8" cy="504.3" r="2.39"/></g><g><path class="uuid-8460c441-7e92-40ce-bb73-f11f0dcaf042" d="m261.71,478.55s-3.86-1.4-6.22-2.86c-3.94-2.43-6.53,2.16-3.35,4.35,2.2,1.51,5.38,2.69,5.38,2.69l4.19-4.18Z"/><path class="uuid-8460c441-7e92-40ce-bb73-f11f0dcaf042" d="m272.79,481.86s-1.22-4.06-6.78-4.06c-7.86,0-12.12,6.94-13.58,9.53-1.46,2.58,2.88,4.92,4.88,1.92,4.3-6.42,6.78-7.15,8.16-7.61,3.05-.17,7.32.21,7.32.21h0Z"/><path class="uuid-8460c441-7e92-40ce-bb73-f11f0dcaf042" d="m286.4,484.77s-.85-4.3-6.5-4.83c-7.98-.74-12.97,6.03-14.7,8.56-1.73,2.53,2.45,5.35,4.77,2.44,4.98-6.23,9.01-7.6,10.46-7.94,1.97.42,5.97,1.76,5.97,1.76h0Z"/></g><g><circle class="uuid-f649728e-69c6-4a97-a0f0-388adbfc0e12" cx="240.43" cy="473.54" r="9.19"/><path class="uuid-660c04b4-fa82-4422-b1ba-a2c1dd7e0159" d="m244.02,470.6l-.63,2.28c-.07.26-.01.54.16.74l1.52,1.81c.44.52.09,1.32-.59,1.35l-2.36.11c-.27.01-.52.16-.66.39l-1.25,2.01c-.36.58-1.22.49-1.46-.14l-.83-2.22c-.1-.25-.31-.44-.57-.51l-2.3-.57c-.66-.16-.84-1.01-.31-1.44l1.85-1.48c.21-.17.33-.43.31-.7l-.17-2.36c-.05-.68.7-1.12,1.27-.74l1.98,1.3c.23.15.51.18.76.08l2.19-.89c.63-.26,1.28.32,1.1.98h0Z"/></g><path class="uuid-8460c441-7e92-40ce-bb73-f11f0dcaf042" d="m236.72,508.58l-27.63-35.34c-.99-1.27-2.89-1.3-3.93-.08l-4.54,5.35c-1.19,1.4-1.23,3.44-.1,4.88l29.22,37.38c1.22,1.56,3.1,2.48,5.08,2.48h71.09c1.33,0,2.41-1.08,2.41-2.41v-8.19c0-1.33-1.08-2.41-2.41-2.41h-65.78c-1.34,0-2.6-.62-3.42-1.67h0Z"/><line class="uuid-8971ef88-c9ee-424d-b142-c3a328f2a790" x1="256.96" y1="510.14" x2="256.96" y2="523.15"/><g><line class="uuid-8971ef88-c9ee-424d-b142-c3a328f2a790" x1="261.81" y1="519.72" x2="267.96" y2="513.57"/><line class="uuid-8971ef88-c9ee-424d-b142-c3a328f2a790" x1="270.81" y1="519.72" x2="276.96" y2="513.57"/><line class="uuid-8971ef88-c9ee-424d-b142-c3a328f2a790" x1="279.82" y1="519.72" x2="285.97" y2="513.57"/><line class="uuid-8971ef88-c9ee-424d-b142-c3a328f2a790" x1="297.82" y1="519.72" x2="303.97" y2="513.57"/><line class="uuid-8971ef88-c9ee-424d-b142-c3a328f2a790" x1="288.82" y1="519.72" x2="294.97" y2="513.57"/></g><path class="uuid-41032fe0-d2fe-461a-b8c6-491b03ab54be" d="m256.96,516.65h-21.1c-.79,0-1.53-.37-2.01-.99l-30.83-39.95"/></g><g><path class="uuid-b5c36b33-7bcc-4de6-9bcc-b09b8a2016f6" d="m368.09,442.51l11.81,13.89s-3.17,17.71,2.54,31.11c0,0,5.33-16.06,31.48-39.12,26.16-23.06,53.73-30.88,53.73-30.88,0,0-10.6-11.39-29.3-10.31-18.7,1.08-28.7,15.35-28.7,15.35l-12.42-13.22c-.8-.85-1.95-1.29-3.1-1.14-2.22.27-6.08,1.2-10.09,4.24-.66.5-.78,1.46-.26,2.11l1.05,1.3s-16.35,11.66-16.75,26.68h0Z"/><path class="uuid-8460c441-7e92-40ce-bb73-f11f0dcaf042" d="m409.66,422.54s-3.89,5.28-6.92,15.26"/><line class="uuid-8971ef88-c9ee-424d-b142-c3a328f2a790" x1="384.84" y1="415.83" x2="403.68" y2="434.93"/><path class="uuid-8460c441-7e92-40ce-bb73-f11f0dcaf042" d="m435.19,432.7c17.96-11.07,32.48-15.19,32.48-15.19,0,0-10.6-11.39-29.3-10.31-12.71,7.85-5.52,21.67-3.18,25.5h0Z"/><path class="uuid-8460c441-7e92-40ce-bb73-f11f0dcaf042" d="m469.32,415.42c-.66-.63-1.59-.86-2.47-.62-5.87,1.59-29.25,8.95-53.86,30.76-23.28,20.64-30.4,35.59-32.22,40.34-.37.98-.27,2.06.31,2.94,1.37,2.1,4.19,6.25,6.89,9.08,4.73,4.98,26.38-2.07,55.09-27.69,28.72-25.62,37.69-40.52,34.25-45.67-2.52-3.77-6.2-7.44-7.99-9.14h0Z"/><path class="uuid-9210ebd9-abde-4e8b-b154-3bb591c63759" d="m477.9,426.07h0c-.62-4.79-20.55-1.28-53.98,25.69-33.41,26.94-37.41,45.67-34.1,47.26,7.15,2.33,27.31-5.65,53.25-28.79,24.07-21.47,34.26-35.41,34.9-42.4,0-.73,0-1.33-.07-1.76h0Z"/><g><g><path class="uuid-9210ebd9-abde-4e8b-b154-3bb591c63759" d="m447.29,460.39c14.43-13.2,21.63-21.14,22.08-26,0-.59,0-1.08-.05-1.42-.5-3.87-14.68,2.19-41.67,23.96-1.47,1.18-2.86,2.33-4.2,3.46h23.84,0Z"/><path class="uuid-9210ebd9-abde-4e8b-b154-3bb591c63759" d="m411.51,471.18c-12.88,12.71-15.31,19.71-13.29,20.67,5.33,1.74,18.47-4.91,36.96-20.67h-23.67,0Z"/></g><line class="uuid-8971ef88-c9ee-424d-b142-c3a328f2a790" x1="398.24" y1="488.01" x2="411.89" y2="488.01"/><polyline class="uuid-8971ef88-c9ee-424d-b142-c3a328f2a790" points="411.51 471.18 418.84 483.75 400.63 483.75 435.18 471.18"/><line class="uuid-8971ef88-c9ee-424d-b142-c3a328f2a790" x1="429.11" y1="455.76" x2="452.29" y2="455.76"/><polygon class="uuid-8971ef88-c9ee-424d-b142-c3a328f2a790" points="451.17 439.65 467.13 439.65 435.18 451 457.21 451 451.17 439.65"/><line class="uuid-8971ef88-c9ee-424d-b142-c3a328f2a790" x1="459.15" y1="434.95" x2="469.28" y2="434.95"/></g><line class="uuid-8971ef88-c9ee-424d-b142-c3a328f2a790" x1="422.8" y1="437.53" x2="430.61" y2="446.53"/><g><path class="uuid-8460c441-7e92-40ce-bb73-f11f0dcaf042" d="m408.54,421.02c-3.73,3.19-6.72,6.78-9.07,9.63-2.35,2.86-6.8.03-3.59-3.64,3.21-3.67,7.19-7.82,9.39-9.15,2.2-1.33,5.76,1.03,3.27,3.15h0Z"/><path class="uuid-8460c441-7e92-40ce-bb73-f11f0dcaf042" d="m402.17,415.16c-4.39,2.18-8.18,4.92-11.16,7.11-2.98,2.19-6.6-1.64-2.59-4.41,4.01-2.77,8.88-5.81,11.35-6.56,2.46-.75,5.33,2.41,2.4,3.86h0Z"/><path class="uuid-8460c441-7e92-40ce-bb73-f11f0dcaf042" d="m418.62,414.25s-3.47-2.43-7.84,1.01c-6.17,4.87-5.22,12.96-4.76,15.89s5.3,2.08,5.02-1.51c-.6-7.7.9-9.81,1.7-11.03,2.29-2.02,5.88-4.36,5.88-4.36h0Z"/><path class="uuid-8460c441-7e92-40ce-bb73-f11f0dcaf042" d="m431.11,408.11s-3.34-2.85-8.09.24c-6.73,4.36-6.45,12.77-6.24,15.82.21,3.06,5.24,2.68,5.26-1.04.05-7.97,2.38-11.55,3.3-12.71,1.81-.89,5.78-2.31,5.78-2.31Z"/></g><g><circle class="uuid-f649728e-69c6-4a97-a0f0-388adbfc0e12" cx="384.02" cy="438.12" r="9.19"/><path class="uuid-660c04b4-fa82-4422-b1ba-a2c1dd7e0159" d="m387.08,434.62l-.24,2.35c-.03.27.08.53.28.71l1.8,1.53c.52.44.31,1.28-.36,1.43l-2.31.5c-.26.06-.48.24-.59.49l-.9,2.19c-.26.63-1.13.69-1.47.1l-1.19-2.05c-.14-.23-.38-.38-.65-.41l-2.36-.18c-.68-.05-1-.86-.55-1.36l1.58-1.76c.18-.2.25-.48.19-.74l-.56-2.3c-.16-.66.51-1.22,1.13-.94l2.16.96c.25.11.53.09.76-.05l2.02-1.24c.58-.36,1.31.11,1.24.78h0Z"/></g><g><circle cx="404.5" cy="444.74" r="2.39"/><circle cx="413" cy="437.31" r="2.39"/></g><line class="uuid-8971ef88-c9ee-424d-b142-c3a328f2a790" x1="464.72" y1="423.14" x2="464.32" y2="418.64"/><line class="uuid-8971ef88-c9ee-424d-b142-c3a328f2a790" x1="456.77" y1="426.32" x2="456.36" y2="421.82"/><line class="uuid-8971ef88-c9ee-424d-b142-c3a328f2a790" x1="449.12" y1="430.04" x2="448.71" y2="425.54"/><line class="uuid-8971ef88-c9ee-424d-b142-c3a328f2a790" x1="441.27" y1="434.42" x2="440.86" y2="429.92"/><line class="uuid-8971ef88-c9ee-424d-b142-c3a328f2a790" x1="433.62" y1="439.43" x2="433.21" y2="434.93"/><path class="uuid-41032fe0-d2fe-461a-b8c6-491b03ab54be" d="m426.7,442.03s-36.57,26.72-42.89,50.79"/></g></g></g></svg>
<svg id="uuid-4f9c58ac-8fff-4862-9c52-f3e315adf08b" data-name="BODY" xmlns="http://www.w3.org/2000/svg" xmlns:xlink="http://www.w3.org/1999/xlink" viewBox="0 0 600 600"><defs><style>
      .uuid-fe807ae8-6d4c-4eb2-9250-b043792de360, .uuid-84bd41ec-755d-4570-bc7d-90640366e08e, .uuid-e86cd3fb-3bee-48a4-9442-0ed97831e34e {
        fill: none;
      }

      .uuid-da94aee9-5a9d-4f5d-9b29-9cde32a1175c, .uuid-afc4803e-77b0-4ecb-b056-33f2566dc0fd {
        fill: #ff78d8;
      }

      .uuid-9e1d4ef1-4fc7-4608-809b-a39c3676a322 {
        fill: #a07bff;
      }

      .uuid-9e1d4ef1-4fc7-4608-809b-a39c3676a322, .uuid-afc4803e-77b0-4ecb-b056-33f2566dc0fd, .uuid-e86cd3fb-3bee-48a4-9442-0ed97831e34e, .uuid-5b11b8c4-4aba-4d0e-97e1-bcb90f636dca {
        stroke: #000;
        stroke-linecap: round;
        stroke-linejoin: round;
        stroke-width: 2px;
      }

      .uuid-84bd41ec-755d-4570-bc7d-90640366e08e {
        clip-path: url(#uuid-908aa4b2-9986-4a9e-8169-3f477676d06c);
      }

      .uuid-5b11b8c4-4aba-4d0e-97e1-bcb90f636dca {
        fill: #f9a723;
      }
    </style><clipPath id="uuid-908aa4b2-9986-4a9e-8169-3f477676d06c"><path class="uuid-fe807ae8-6d4c-4eb2-9250-b043792de360" d="m470.37,263.4c.26.09,13.38,2.76,25.8-5.87,11.13,5.18,27.7,3.16,27.7,3.16,0,0,7.59,12.46,22.69,13.58,4.14,19.42,22.61,26.84,22.61,26.84,0,0-5.52,18.47,8.28,26.58-6.13,14.58,0,28.39,0,28.39,0,0-13.29,9.49-11.3,25.72-11.91.95-17.43,20.71-17.43,20.71l-42.02-54.71s3.66-4.86,2.16-10.1c-1.51-5.24-5.84-7.05-5.84-7.05,0,0,6.9-2.2,6.76-8.63s-7.36-13.75-19.44-11.06l-19.96-47.56h0Z"/></clipPath></defs><g id="uuid-cde481be-4b99-44d5-8b74-25417a789ef0" data-name="uuid-ac3cc490-8b26-46d1-bbbf-b285b8fc2132"><g id="uuid-0dd40599-6585-490b-8145-5052ad5056be" data-name="uuid-d903f005-6b44-47ef-b972-97b0f19dbeba"><g id="uuid-3290c729-ecd5-4a2b-afcc-a27cbc2a6411" data-name="uuid-5c0abff7-8440-4649-be7a-ff1b81cfa8e1"><g><g><path class="uuid-da94aee9-5a9d-4f5d-9b29-9cde32a1175c" d="m470.37,263.4c.26.09,13.38,2.76,25.8-5.87,11.13,5.18,27.7,3.16,27.7,3.16,0,0,7.59,12.46,22.69,13.58,4.14,19.42,22.61,26.84,22.61,26.84,0,0-5.52,18.47,8.28,26.58-6.13,14.58,0,28.39,0,28.39,0,0-13.29,9.49-11.3,25.72-11.91.95-17.43,20.71-17.43,20.71l-42.02-54.71s3.66-4.86,2.16-10.1c-1.51-5.24-5.84-7.05-5.84-7.05,0,0,6.9-2.2,6.76-8.63s-7.36-13.75-19.44-11.06l-19.96-47.56h0Z"/><g class="uuid-84bd41ec-755d-4570-bc7d-90640366e08e"><g><polygon class="uuid-9e1d4ef1-4fc7-4608-809b-a39c3676a322" points="569.18 301.11 506.13 337.1 502.22 333.48 546.57 274.28 569.18 301.11"/><polygon class="uuid-9e1d4ef1-4fc7-4608-809b-a39c3676a322" points="523.87 260.7 505.51 318.75 499.67 315.74 496.17 257.54 523.87 260.7"/><polygon class="uuid-9e1d4ef1-4fc7-4608-809b-a39c3676a322" points="577.46 327.69 506.74 338.29 506.74 342.1 577.46 356.08 577.46 327.69"/><polygon class="uuid-9e1d4ef1-4fc7-4608-809b-a39c3676a322" points="566.15 381.8 506.74 343.68 505.51 347.28 548.72 402.51 566.15 381.8"/></g></g><path class="uuid-e86cd3fb-3bee-48a4-9442-0ed97831e34e" d="m470.37,263.4c.26.09,13.38,2.76,25.8-5.87,11.13,5.18,27.7,3.16,27.7,3.16,0,0,7.59,12.46,22.69,13.58,4.14,19.42,22.61,26.84,22.61,26.84,0,0-5.52,18.47,8.28,26.58-6.13,14.58,0,28.39,0,28.39,0,0-13.29,9.49-11.3,25.72-11.91.95-17.43,20.71-17.43,20.71l-42.02-54.71s3.66-4.86,2.16-10.1c-1.51-5.24-5.84-7.05-5.84-7.05,0,0,6.9-2.2,6.76-8.63s-7.36-13.75-19.44-11.06l-19.96-47.56h0Z"/></g><g><path class="uuid-5b11b8c4-4aba-4d0e-97e1-bcb90f636dca" d="m499.19,358.31c-1.23.68-.81,10.43-.56,11.18.25.74,6.46.56,7.2,0s-.68-11.02-1.61-11.57c-.72-.43-3.91-.22-5.03.4Z"/><g><path class="uuid-afc4803e-77b0-4ecb-b056-33f2566dc0fd" d="m500.89,367.41s-.9,3.24.69,15.05c1.89,14.09,5.31,20.53-6.11,36.39,3.93,2.51,8.03,2.24,8.03,2.24l4.07-5.86s.08,4.89-.18,6.61c2.58.51,3.4-.66,3.4-.66,0,0,5.47-6.71,2.96-22.37s-7.17-15.37-10.39-31.76l-2.48.35h0Z"/><path class="uuid-afc4803e-77b0-4ecb-b056-33f2566dc0fd" d="m506.47,402.9c.65-5.32.04-10.47-1.06-15.34"/><path class="uuid-afc4803e-77b0-4ecb-b056-33f2566dc0fd" d="m499.11,420.5c2.65-3.5,4.48-6.97,5.68-10.4"/></g><path class="uuid-e86cd3fb-3bee-48a4-9442-0ed97831e34e" d="m501.63,357.74c.23-3.61-.96-6.93-.96-6.93"/></g><path class="uuid-e86cd3fb-3bee-48a4-9442-0ed97831e34e" d="m482.49,292.28c5.63-2.22,11.76-3.45,18.18-3.45,27.32,0,49.46,22.14,49.46,49.46,0,16.34-7.92,30.83-20.13,39.83"/><path class="uuid-5b11b8c4-4aba-4d0e-97e1-bcb90f636dca" d="m502.64,348.68c.18.19,42.42,58.69,42.42,58.69l5.63-4.05-43.56-57.65-4.49,3.01h0Z"/><path class="uuid-5b11b8c4-4aba-4d0e-97e1-bcb90f636dca" d="m486.22,312.51l-22.65-48.86,7.89-2.67,20.17,49.78s-2.26.32-5.41,1.75h0Z"/><g><path class="uuid-5b11b8c4-4aba-4d0e-97e1-bcb90f636dca" d="m511.55,340.68c0,5.61-4.55,10.16-10.16,10.16s-10.16-4.55-10.16-10.16c0-4.45,2.86-8.23,6.84-9.6,1.42.16,3.32.04,4.95-.43,4.84.78,8.53,4.97,8.53,10.03h0Z"/><circle class="uuid-e86cd3fb-3bee-48a4-9442-0ed97831e34e" cx="501.39" cy="340.68" r="4.12"/></g><path class="uuid-e86cd3fb-3bee-48a4-9442-0ed97831e34e" d="m547.58,292.44c-2.14,4.11-2.31,9.19-.44,13.43"/><path class="uuid-e86cd3fb-3bee-48a4-9442-0ed97831e34e" d="m539.62,294.42l-1,3.3"/><path class="uuid-e86cd3fb-3bee-48a4-9442-0ed97831e34e" d="m505.38,269.24c.08,4.78,1.77,9.52,4.73,13.27"/><path class="uuid-e86cd3fb-3bee-48a4-9442-0ed97831e34e" d="m486.17,274.47l2.24,3.9"/><path class="uuid-e86cd3fb-3bee-48a4-9442-0ed97831e34e" d="m568.3,339.57c-3.29.51-6.45,1.86-9.1,3.88"/><path class="uuid-e86cd3fb-3bee-48a4-9442-0ed97831e34e" d="m551.17,384.34c-3.35-1.41-7.17-1.66-10.68-.68"/><path class="uuid-e86cd3fb-3bee-48a4-9442-0ed97831e34e" d="m548.44,377.66c-1.59-.34-3.24-.35-4.83,0"/></g></g></g></g></svg>
</svg>