<?xml version="1.0" encoding="UTF-8"?>
<svg xmlns="http://www.w3.org/2000/svg" viewBox="0 0 600 600">
<svg id="uuid-c55b6f18-22d9-42e7-94a5-9418063ab399" data-name="BACKGROUND" xmlns="http://www.w3.org/2000/svg" viewBox="0 0 600 600"><defs><style>
      .uuid-65b83bcd-5755-41b5-8f46-23c20c164524 {
        fill: #9dff0c;
      }
    </style></defs><rect class="uuid-65b83bcd-5755-41b5-8f46-23c20c164524" x="-1" y="-1" width="602" height="602"/></svg>
<svg id="uuid-da5b8a35-a9b2-4004-9217-4254ce55b3fe" data-name="BODY" xmlns="http://www.w3.org/2000/svg" viewBox="0 0 600 600"><defs><style>
      .uuid-ec25118f-3915-43af-9dc5-5d64b7ba66c4 {
        fill: #fff;
      }

      .uuid-73059a94-03d4-49d7-a031-ef6b59ff4553, .uuid-813f35b8-d70c-4735-9e7c-d217ddabbc48, .uuid-3c21801f-90f4-41ce-bd53-f460193f8c05, .uuid-382536b8-ade7-4abe-aa61-124cac12416d, .uuid-72d6c9e3-e040-49a4-ab2c-cf903abb3d52 {
        stroke: #000;
        stroke-width: 2px;
      }

      .uuid-73059a94-03d4-49d7-a031-ef6b59ff4553, .uuid-813f35b8-d70c-4735-9e7c-d217ddabbc48, .uuid-382536b8-ade7-4abe-aa61-124cac12416d, .uuid-72d6c9e3-e040-49a4-ab2c-cf903abb3d52 {
        fill: #3ef1ff;
      }

      .uuid-73059a94-03d4-49d7-a031-ef6b59ff4553, .uuid-3c21801f-90f4-41ce-bd53-f460193f8c05, .uuid-382536b8-ade7-4abe-aa61-124cac12416d {
        stroke-linecap: round;
      }

      .uuid-73059a94-03d4-49d7-a031-ef6b59ff4553, .uuid-3c21801f-90f4-41ce-bd53-f460193f8c05, .uuid-72d6c9e3-e040-49a4-ab2c-cf903abb3d52 {
        stroke-linejoin: round;
      }

      .uuid-813f35b8-d70c-4735-9e7c-d217ddabbc48, .uuid-382536b8-ade7-4abe-aa61-124cac12416d {
        stroke-miterlimit: 10;
      }

      .uuid-3c21801f-90f4-41ce-bd53-f460193f8c05 {
        fill: none;
      }
    </style></defs><ellipse cx="300" cy="518.65" rx="138.6" ry="22.93"/><g><path class="uuid-813f35b8-d70c-4735-9e7c-d217ddabbc48" d="m319.36,427.14c-1.16,1.05-54.95,57-54.95,57,0,0,21.51-1.95,31.74,10.62,10.23,12.57,7.26,23.89,7.26,23.89h-66.9s-28.69-36.17-28.69-36.17c0,0,3.74-13.4,20.44-10.59,20.9-19.38,55.52-59.13,55.52-59.13l35.59,14.38Z"/><path d="m283.78,412.76l31.28,12.64-3.24,9.5c-2.93,3.03-9.76,10.12-13.64,14.14-11.92,0-27.98-2.13-41.33-6.37,13.95-15.1,26.93-29.92,26.93-29.92Z"/></g><g><path class="uuid-73059a94-03d4-49d7-a031-ef6b59ff4553" d="m409.81,359.6c9.2,3.77,29.89,12.05,42.79,16.03,2.11.65,4.41.69,6.5-.04,11.79-4.08,28.47-11.39,33.03-11.32,5.25.08,7.8,3.93,19.88,2.04,13.36-2.1,22.43-11.99,20.93-23.3-4.21-43.28-25.18-26.79-25.18-26.79,0,0-5.84-8.75-18.76-4.82-11.83,3.6-10.2,14.44-6.47,22.47l-25.29,8.58c-2.14.72-4.45.71-6.59-.02l-35.7-12.61"/><path class="uuid-382536b8-ade7-4abe-aa61-124cac12416d" d="m533.36,312.82c2.5,3.94,1.62,9.14-1.57,12.4-2.47,2.53-5.88,3.88-9.32,4.4-2.8.43-5.7.42-8.49-.08-2.14-.39-4.29-1.1-5.79-2.75-1.66-1.83-2.27-4.46-1.98-6.87.51-4.17,3.84-7.14,7.22-9.26,3.17-1.98,6.86-3.26,10.64-3.09,3.8.18,7.36,2.19,9.3,5.24Z"/><path class="uuid-382536b8-ade7-4abe-aa61-124cac12416d" d="m538.57,349.84c.97,3.03.32,6.43-1.5,9.01-3.77,5.33-11.17,5.65-16.96,4.27-3.31-.79-6.69-2.21-8.67-5.13-3.13-4.61-.82-9.79,3.48-12.56,2.58-1.66,5.61-2.67,8.63-3.14,5.73-.89,13.1,1.51,15.03,7.56Z"/><path class="uuid-382536b8-ade7-4abe-aa61-124cac12416d" d="m538.71,328.53c1.8,2.99,2.06,6.89.22,9.9-1.95,3.2-4.94,5.25-8.49,6.28-3.66,1.07-7.64,1.27-11.4.44-2.25-.5-4.53-1.38-5.96-3.28-1.86-2.47-1.89-5.68-.85-8.49,1.2-3.24,4.17-5.69,7.09-7.37,6.15-3.56,15.21-4.43,19.39,2.52Z"/><path class="uuid-382536b8-ade7-4abe-aa61-124cac12416d" d="m501.85,311.68s9.27,3.84,7.77,12.02c-1.04,5.68-8.17,9.55-14.94,6.13"/><path class="uuid-3c21801f-90f4-41ce-bd53-f460193f8c05" d="m500.67,331.08c2.41,1.63,5.11,8.04,3.4,14.42"/><path d="m443.44,339.88c-2.88,10.58-6.94,20.23-11.17,28.59-10.17-3.78-21.16-9.53-27-11.93l11.83-26.02,26.35,9.36Z"/></g><g><circle class="uuid-813f35b8-d70c-4735-9e7c-d217ddabbc48" cx="300" cy="300" r="138.16"/><path class="uuid-ec25118f-3915-43af-9dc5-5d64b7ba66c4" d="m184.58,308.17c-4.41,0-7.98-3.57-7.98-7.98,0-67.74,55.11-122.86,122.86-122.86,4.41,0,7.98,3.57,7.98,7.98s-3.57,7.98-7.98,7.98c-58.94,0-106.9,47.95-106.9,106.9,0,4.41-3.57,7.98-7.98,7.98Z"/></g><path class="uuid-3c21801f-90f4-41ce-bd53-f460193f8c05" d="m264.41,484.14c-4.06.49-11.49,1.36-17.85,7.23"/><path class="uuid-ec25118f-3915-43af-9dc5-5d64b7ba66c4" d="m185.17,308.14c-4.41,0-7.98-3.57-7.98-7.98,0-67.74,55.11-122.86,122.86-122.86,4.41,0,7.98,3.57,7.98,7.98s-3.57,7.98-7.98,7.98c-58.94,0-106.9,47.95-106.9,106.9,0,4.41-3.57,7.98-7.98,7.98Z"/><path d="m203.75,397.46l34.2-27.46-24.86,36.3c-6.73-5.1-3.66-2.61-9.34-8.83Z"/><path class="uuid-72d6c9e3-e040-49a4-ab2c-cf903abb3d52" d="m323.72,387.31c19.14-13.4,39.15-11.3,55.52,7.36,19.6,22.35,30.57,33.06,30.57,33.06,0,0,10.74-19.34,34.77-17.5,18.26,1.4,24.84,14.43,24.84,14.43,0,0,6.21,8.82-22.45,33.5-28.66,24.68-54.93,40.92-61.14,29.46-6.21-11.46-2.82-32.1-2.82-32.1,0,0-22.02-26.09-27.94-32.01-6.79-6.79-15.71-1.36-15.71-1.36"/><path class="uuid-813f35b8-d70c-4735-9e7c-d217ddabbc48" d="m446.97,458.17c-25.89,22.29-49.82,37.69-58.79,32.02-9.77-7.44,26.84-38.54,44.88-52.7,18.04-14.16,32.17-17.82,36.36-12.81,0,0,6.21,8.82-22.45,33.5Z"/><path class="uuid-3c21801f-90f4-41ce-bd53-f460193f8c05" d="m409.81,427.74c-1.89,2.86-4.55,10.38-4.55,10.38"/><g><path class="uuid-73059a94-03d4-49d7-a031-ef6b59ff4553" d="m214.11,345.7c-8.05,5.83-25.34,20.79-35.52,29.67-1.67,1.45-2.82,3.41-3.39,5.55-3.14,11.67-8.55,33.44-8.55,33.44,0,0-8.42.58-12.19,14.35-3.64,13.3-6.64,25.06,3.77,29.75.35,7.47,7.51,15.45,19.2,9.41.14-.06,1.32,1.32,1.44,1.45,2.64,2.7,6.36,4.45,10.13,4.81,3.65.36,7.61-.67,10.43-3.08,3.29-2.81,5.4-6.94,6.05-11.2.4-2.61.26-5.31-.75-7.78,0,0,6.2-2.51,8.05-11.34,1.99-9.49-4.22-19.42-14.62-18.18l6.17-23.11c.51-2.2,1.74-4.16,3.49-5.59l29.38-24.3"/><path class="uuid-3c21801f-90f4-41ce-bd53-f460193f8c05" d="m204.73,452.06c-1.37-3.47-5.39-7.08-9-6.88"/><path class="uuid-3c21801f-90f4-41ce-bd53-f460193f8c05" d="m178.86,469.3c-5.16-5.27-3.82-11.97-2.9-13.54"/><path class="uuid-3c21801f-90f4-41ce-bd53-f460193f8c05" d="m158.22,458.45c-.27-5.22.73-7.32,3.06-9.83"/><path class="uuid-3c21801f-90f4-41ce-bd53-f460193f8c05" d="m193.93,450.63c.14-2.07.48-4.16,1.32-6.06.85-1.95,2.36-3.88,4.31-4.85"/></g></svg>
<svg id="uuid-d68fbb24-c0f3-4dee-920e-134d781fb2e1" data-name="BODY" xmlns="http://www.w3.org/2000/svg" viewBox="0 0 600 600"><path d="m378.79,259.75c-1.76-5.11-7.33-7.82-12.44-6.06s-7.82,7.33-6.06,12.44"/><circle cx="362.12" cy="293.18" r="9.78" transform="translate(-9.59 12.26) rotate(-1.91)"/><path d="m346.88,270.76c-1.76-5.11-7.33-7.82-12.44-6.06-5.11,1.76-7.82,7.33-6.06,12.44"/></svg>
<svg id="uuid-c5dddc68-6ada-4116-b645-d03ebc480c27" data-name="BODY" xmlns="http://www.w3.org/2000/svg" xmlns:xlink="http://www.w3.org/1999/xlink" viewBox="0 0 600 600"><defs><style>
      .uuid-2567def0-8698-4265-9746-d0bc6967be93, .uuid-0562be6e-ffb4-47be-9bb1-48a29995208a, .uuid-80e162d4-8829-4ebf-85b2-a8fe674d77f3, .uuid-4db2b783-a1a5-4d26-ac75-2744874e22af {
        fill: none;
      }

      .uuid-712c89ac-99fe-40ee-8eee-f5af0112c987, .uuid-7a510ee3-bdcb-4485-b3e0-7e4f4341de5d {
        fill: #ffff0d;
      }

      .uuid-72fac4dd-26f1-4077-b6b6-7c4003149463 {
        fill: #ff78d8;
      }

      .uuid-72fac4dd-26f1-4077-b6b6-7c4003149463, .uuid-7a510ee3-bdcb-4485-b3e0-7e4f4341de5d, .uuid-a1fed1fc-4fc0-4285-843b-ea2281428dd2, .uuid-80fbf365-2f03-4e31-9a7d-a58cbc68ba7c, .uuid-aa64e389-c72b-4038-9104-9878c2d0f048, .uuid-d6627eaf-33b8-4d81-ab57-85345f61b522, .uuid-0562be6e-ffb4-47be-9bb1-48a29995208a {
        stroke: #000;
        stroke-linecap: round;
        stroke-linejoin: round;
      }

      .uuid-72fac4dd-26f1-4077-b6b6-7c4003149463, .uuid-7a510ee3-bdcb-4485-b3e0-7e4f4341de5d, .uuid-aa64e389-c72b-4038-9104-9878c2d0f048, .uuid-d6627eaf-33b8-4d81-ab57-85345f61b522, .uuid-0562be6e-ffb4-47be-9bb1-48a29995208a {
        stroke-width: 2px;
      }

      .uuid-a1fed1fc-4fc0-4285-843b-ea2281428dd2 {
        stroke-width: 2px;
      }

      .uuid-a1fed1fc-4fc0-4285-843b-ea2281428dd2, .uuid-80fbf365-2f03-4e31-9a7d-a58cbc68ba7c, .uuid-aa64e389-c72b-4038-9104-9878c2d0f048 {
        fill: #fff;
      }

      .uuid-80fbf365-2f03-4e31-9a7d-a58cbc68ba7c {
        stroke-width: 2px;
      }

      .uuid-d6627eaf-33b8-4d81-ab57-85345f61b522 {
        fill: #00dfa9;
      }

      .uuid-80e162d4-8829-4ebf-85b2-a8fe674d77f3 {
        clip-path: url(#uuid-df096713-fdda-48f8-9c1c-a9406374f0cc);
      }

      .uuid-4db2b783-a1a5-4d26-ac75-2744874e22af {
        clip-path: url(#uuid-3e2076b4-c9c1-4dc8-b8fd-37a273dcbc37);
      }
    </style><clipPath id="uuid-df096713-fdda-48f8-9c1c-a9406374f0cc"><path class="uuid-2567def0-8698-4265-9746-d0bc6967be93" d="m363.4,432.9s-8.1-9.4-9.8-10.6c-1.7-1.2-3.6-1.8-3.6-1.8,0,0-2.8-25.8,25.2-30.1l14.1,15.5s-2.9,7.2-9.7,16.6c-6.8,9.4-16.1,10.3-16.1,10.3l-.1.1Z"/></clipPath><clipPath id="uuid-3e2076b4-c9c1-4dc8-b8fd-37a273dcbc37"><path class="uuid-2567def0-8698-4265-9746-d0bc6967be93" d="m270.8,477.5l15.9-16.5s-9.6-1.4-17.3-7.7c-7.7-6.4-9.9-13.5-9.9-13.5l-15.5,16.5s-3,8.3,9,17.9c8.7,6.9,17.8,3.3,17.8,3.3h0Z"/></clipPath></defs><g id="uuid-1bc504d8-c3de-4e3f-9ed5-9b0bd381f76d" data-name="uuid-d19fd1aa-f160-4434-8ee1-8fc783292307"><g id="uuid-515fa590-8391-4f06-b616-e4dcfd3f254d" data-name="uuid-a613e983-7e29-4acc-9c52-7addab05ae69"><g><g><g><path class="uuid-712c89ac-99fe-40ee-8eee-f5af0112c987" d="m363.4,432.9s-8.1-9.4-9.8-10.6c-1.7-1.2-3.6-1.8-3.6-1.8,0,0-2.8-25.8,25.2-30.1l14.1,15.5s-2.9,7.2-9.7,16.6c-6.8,9.4-16.1,10.3-16.1,10.3l-.1.1Z"/><g class="uuid-80e162d4-8829-4ebf-85b2-a8fe674d77f3"><g><path class="uuid-d6627eaf-33b8-4d81-ab57-85345f61b522" d="m387.9,399.3c-19.7,4-26.8,19.8-29.1,31.4l6.4,6.9,24.7-9.9,4.9-27.2-6.9-1.2h0Z"/><path class="uuid-72fac4dd-26f1-4077-b6b6-7c4003149463" d="m381.8,393.8s-12,1-20.2,11.5-7.6,22.4-7.6,22.4l-8.8-5.6s-2.9-15.3,7.5-25c10.4-9.7,22.6-12.3,22.6-12.3l6.6,9h-.1Z"/></g></g><path class="uuid-0562be6e-ffb4-47be-9bb1-48a29995208a" d="m363.4,432.9s-8.1-9.4-9.8-10.6c-1.7-1.2-3.6-1.8-3.6-1.8,0,0-2.8-25.8,25.2-30.1l14.1,15.5s-2.9,7.2-9.7,16.6c-6.8,9.4-16.1,10.3-16.1,10.3l-.1.1Z"/></g><g><path class="uuid-aa64e389-c72b-4038-9104-9878c2d0f048" d="m383.1,481.9s-8.5-6.2-2.5-24.9l-17.6-18.8s-1.3-10.6,10.9-22.7c12.2-12.1,21.4-10.5,21.4-10.5l14.1,16.4s9.7-11.6,26.6-14.3c16.9-2.6,29.9,9.7,29.9,9.7,0,0-22.6,5.1-49,28.9-26.4,23.8-33.8,36.3-33.8,36.3v-.1Z"/><path class="uuid-0562be6e-ffb4-47be-9bb1-48a29995208a" d="m409.4,421.3c-4.8,5.4-7.6,15.2-7.6,15.2"/></g><g><g><path class="uuid-72fac4dd-26f1-4077-b6b6-7c4003149463" d="m468.1,415.9c-2.2-1.1-22.3,0-54.1,28.2-31.8,28.2-34.5,37.1-33.9,41.6.5,3.5,3.2,9.5,12.8,9.6,9.6.1,27.3-9.6,50.2-28.8,31.1-26,31.2-37.4,31.1-41.1s-2.9-7.9-6.1-9.6v.1Z"/><path class="uuid-72fac4dd-26f1-4077-b6b6-7c4003149463" d="m466.2,426.1c-7.4-6.6-85.3,55.5-74.3,61.3,11.1,5.7,82.6-53.8,74.3-61.3Z"/></g><g><g><g><path class="uuid-7a510ee3-bdcb-4485-b3e0-7e4f4341de5d" d="m395.3,500.2c3,3.6,8.3,4.1,11.9,1.1,3.6-3,4.1-8.3,1.1-11.9l-3.9-4.7-2,1.7c-2.1-.1-4.2.5-6,1.9-1.8,1.4-2.7,3.4-3,5.5l-2,1.7,3.9,4.7h0Z"/><circle class="uuid-7a510ee3-bdcb-4485-b3e0-7e4f4341de5d" cx="397.8" cy="490.1" r="8.4"/></g><g><path class="uuid-7a510ee3-bdcb-4485-b3e0-7e4f4341de5d" d="m412.5,485.8c3,3.6,8.3,4.1,11.9,1.1,3.6-3,4.1-8.3,1.1-11.9l-3.9-4.7-2,1.7c-2.1-.1-4.2.5-6,1.9-1.7,1.4-2.7,3.4-3,5.5l-2,1.7,3.9,4.7h0Z"/><circle class="uuid-7a510ee3-bdcb-4485-b3e0-7e4f4341de5d" cx="415.1" cy="475.7" r="8.4"/></g><g><path class="uuid-7a510ee3-bdcb-4485-b3e0-7e4f4341de5d" d="m429.8,471.4c3,3.6,8.3,4.1,11.9,1.1,3.6-3,4.1-8.3,1.1-11.9l-3.9-4.7-2,1.7c-2.1-.1-4.2.5-6,1.9-1.7,1.4-2.7,3.4-3,5.5l-2,1.7,3.9,4.7h0Z"/><circle class="uuid-7a510ee3-bdcb-4485-b3e0-7e4f4341de5d" cx="432.4" cy="461.3" r="8.4"/></g><g><path class="uuid-7a510ee3-bdcb-4485-b3e0-7e4f4341de5d" d="m447.1,457c3,3.6,8.3,4.1,11.9,1.1,3.6-3,4.1-8.3,1.1-11.9l-3.9-4.7-2,1.7c-2.1-.1-4.2.5-6,1.9-1.7,1.4-2.7,3.4-3,5.5l-2,1.7,3.9,4.7h0Z"/><circle class="uuid-7a510ee3-bdcb-4485-b3e0-7e4f4341de5d" cx="449.7" cy="446.9" r="8.4"/></g><g><path class="uuid-7a510ee3-bdcb-4485-b3e0-7e4f4341de5d" d="m464.4,442.6c3,3.6,8.3,4.1,11.9,1.1,3.6-3,4.1-8.3,1.1-11.9l-3.9-4.7-2,1.7c-2.1-.1-4.2.5-6,1.9-1.7,1.4-2.7,3.4-3,5.5l-2,1.7,3.9,4.7h0Z"/><circle class="uuid-7a510ee3-bdcb-4485-b3e0-7e4f4341de5d" cx="466.9" cy="432.5" r="8.4"/></g></g><g><path class="uuid-80fbf365-2f03-4e31-9a7d-a58cbc68ba7c" d="m394.62,469.33l.46-.38c1.08-.9,2.62-.76,3.52.32l11.84,14.21-4.3,3.58-11.84-14.21c-.9-1.08-.76-2.62.32-3.52Z"/><path class="uuid-80fbf365-2f03-4e31-9a7d-a58cbc68ba7c" d="m427.64,438.72l.46-.38c1.08-.9,2.62-.76,3.52.32l13.38,16.06-4.3,3.58-13.38-16.06c-.9-1.08-.76-2.62.32-3.52Z"/><path class="uuid-80fbf365-2f03-4e31-9a7d-a58cbc68ba7c" d="m446.47,426.08l.46-.38c1.08-.9,2.62-.76,3.52.32l11.84,14.21-4.3,3.58-11.84-14.21c-.9-1.08-.76-2.62.32-3.52Z"/><rect class="uuid-80fbf365-2f03-4e31-9a7d-a58cbc68ba7c" x="391.83" y="480.16" width="29.4" height="5.6" rx="2.5" ry="2.5" transform="translate(-214.95 372.13) rotate(-39.8)"/><rect class="uuid-80fbf365-2f03-4e31-9a7d-a58cbc68ba7c" x="424.05" y="444.26" width="51.3" height="5.6" rx="2.5" ry="2.5" transform="translate(-181.96 391.45) rotate(-39.8)"/></g></g></g></g><g><g><g><g><path class="uuid-7a510ee3-bdcb-4485-b3e0-7e4f4341de5d" d="m209.9,505.8c3.3-3.3,3.3-8.6,0-11.9s-8.6-3.3-11.9,0l-4.3,4.3,1.9,1.9c0,2.1.9,4.2,2.5,5.8,1.6,1.6,3.7,2.4,5.8,2.5l1.9,1.9,4.3-4.3-.2-.2Z"/><circle class="uuid-7a510ee3-bdcb-4485-b3e0-7e4f4341de5d" cx="199.7" cy="504.1" r="8.4"/></g><g><path class="uuid-7a510ee3-bdcb-4485-b3e0-7e4f4341de5d" d="m226.9,522.5c3.3-3.3,3.3-8.6,0-11.9-3.3-3.3-8.6-3.3-11.9,0l-4.3,4.3,1.9,1.9c0,2.1.9,4.2,2.5,5.8,1.6,1.6,3.7,2.4,5.8,2.5l1.9,1.9,4.3-4.3-.2-.2Z"/><circle class="uuid-7a510ee3-bdcb-4485-b3e0-7e4f4341de5d" cx="216.6" cy="520.8" r="8.4"/></g></g><path class="uuid-72fac4dd-26f1-4077-b6b6-7c4003149463" d="m211.4,475.2l25.7,33.5c.9,1.1,2.2,1.8,3.6,1.8h64.4c2.3,0,4.1,1.8,4.1,4.1v4.6c0,2.3-1.8,4.1-4.1,4.1h-68c-3,0-5.8-1.4-7.6-3.8l-27-35.4c-.9-1.2-.9-2.9,0-4.1l3.5-4.7c1.3-1.8,4-1.8,5.4,0v-.1Z"/><g><path class="uuid-a1fed1fc-4fc0-4285-843b-ea2281428dd2" d="m220.8,499.6l.41.43c.97,1.01.93,2.57-.09,3.53l-13.4,12.76-3.86-4.06,13.4-12.76c1.01-.97,2.57-.93,3.53.09Z"/><rect class="uuid-a1fed1fc-4fc0-4285-843b-ea2281428dd2" x="205.14" y="497.66" width="5.6" height="29.4" rx="2.5" ry="2.5" transform="translate(-295.98 284.73) rotate(-43.6)"/></g><g><g><path class="uuid-7a510ee3-bdcb-4485-b3e0-7e4f4341de5d" d="m255.9,537.7c3.3-3.3,3.3-8.6,0-11.9-3.3-3.3-8.6-3.3-11.9,0l-4.3,4.3,1.9,1.9c0,2.1.9,4.2,2.5,5.8,1.6,1.6,3.7,2.4,5.8,2.5l1.9,1.9,4.3-4.3-.2-.2Z"/><circle class="uuid-7a510ee3-bdcb-4485-b3e0-7e4f4341de5d" cx="245.6" cy="536" r="8.4"/></g><g><path class="uuid-7a510ee3-bdcb-4485-b3e0-7e4f4341de5d" d="m279.5,537.7c3.3-3.3,3.3-8.6,0-11.9-3.3-3.3-8.6-3.3-11.9,0l-4.3,4.3,1.9,1.9c0,2.1.9,4.2,2.5,5.8s3.7,2.4,5.8,2.5l1.9,1.9,4.3-4.3-.2-.2Z"/><circle class="uuid-7a510ee3-bdcb-4485-b3e0-7e4f4341de5d" cx="269.2" cy="536" r="8.4"/></g><g><path class="uuid-7a510ee3-bdcb-4485-b3e0-7e4f4341de5d" d="m303,537.7c3.3-3.3,3.3-8.6,0-11.9-3.3-3.3-8.6-3.3-11.9,0l-4.3,4.3,1.9,1.9c0,2.1.9,4.2,2.5,5.8s3.7,2.4,5.8,2.5l1.9,1.9,4.3-4.3-.2-.2Z"/><circle class="uuid-7a510ee3-bdcb-4485-b3e0-7e4f4341de5d" cx="292.8" cy="536" r="8.4"/></g></g><g><path class="uuid-aa64e389-c72b-4038-9104-9878c2d0f048" d="m257.6,517.8h.6c1.4,0,2.5,1.1,2.5,2.5v18.5h-5.6v-18.5c0-1.4,1.1-2.5,2.5-2.5Z"/><path class="uuid-aa64e389-c72b-4038-9104-9878c2d0f048" d="m280.1,517.8h.6c1.4,0,2.5,1.1,2.5,2.5v18.5h-5.6v-18.5c0-1.4,1.1-2.5,2.5-2.5Z"/><rect class="uuid-aa64e389-c72b-4038-9104-9878c2d0f048" x="243.6" y="533.1" width="51.3" height="5.6" rx="2.5" ry="2.5"/></g></g><g><path class="uuid-712c89ac-99fe-40ee-8eee-f5af0112c987" d="m270.8,477.5l15.9-16.5s-9.6-1.4-17.3-7.7c-7.7-6.4-9.9-13.5-9.9-13.5l-15.5,16.5s-3,8.3,9,17.9c8.7,6.9,17.8,3.3,17.8,3.3h0Z"/><g class="uuid-4db2b783-a1a5-4d26-ac75-2744874e22af"><g><path class="uuid-72fac4dd-26f1-4077-b6b6-7c4003149463" d="m251.9,441.6s2.3,9.8,13.2,18.3c10.6,8.3,20.8,8.3,20.8,8.3l10.6-11.2-37-24.9-7.7,9.5h.1Z"/><path class="uuid-d6627eaf-33b8-4d81-ab57-85345f61b522" d="m238.9,458.4l9.3-9.3s3.7,10.6,11,16.3c6.7,5.3,17.7,8.6,17.7,8.6l-8.5,9.8-29.4-25.3-.1-.1Z"/></g></g><path class="uuid-0562be6e-ffb4-47be-9bb1-48a29995208a" d="m270.8,477.5l15.9-16.5s-9.6-1.4-17.3-7.7c-7.7-6.4-9.9-13.5-9.9-13.5l-15.5,16.5s-3,8.3,9,17.9c8.7,6.9,17.8,3.3,17.8,3.3h0Z"/></g><g><path class="uuid-aa64e389-c72b-4038-9104-9878c2d0f048" d="m305.5,513.5h-68.3l-28.5-37.4s5.9-8.1,18.8-6.7l14.2-15.9c1-1.1,2.4-1.7,3.9-1.7h2.5c0,.1-4.1,4.4-4.1,4.4,0,0,4.3,19.6,26.8,21.2l3.3-3.4.6,1.8c.4,1.2.1,2.6-.8,3.6l-1.7,1.7s33.4,1.9,33.4,32.4h-.1Z"/><path class="uuid-0562be6e-ffb4-47be-9bb1-48a29995208a" d="m272.1,481.2c-8.1-.6-20,1.7-26.6,7.7"/></g></g></g></g></g></svg>
<svg id="uuid-a02d3be7-cb6f-4a2c-b49b-641c04f66e2c" data-name="BODY" xmlns="http://www.w3.org/2000/svg" xmlns:xlink="http://www.w3.org/1999/xlink" viewBox="0 0 600 600"><defs><style>
      .uuid-97ec9160-f55b-4391-9ac6-2720ac70b4d7, .uuid-186e0f35-16d5-49b6-9cbd-d077b6af6fa7, .uuid-c3a6eae5-34c2-4348-b045-ee3a775c38d6 {
        fill: none;
      }

      .uuid-186e0f35-16d5-49b6-9cbd-d077b6af6fa7 {
        clip-path: url(#uuid-8e6e5a8e-41a9-45a6-8de2-1509de5fe4b8);
      }

      .uuid-8db21063-287c-4acc-a512-bbb5252bc182 {
        fill: #7aa6ff;
      }

      .uuid-8db21063-287c-4acc-a512-bbb5252bc182, .uuid-30e331db-4d21-49fc-9ac1-7c3c1e393256, .uuid-b54f6662-ff09-4ee8-b5f7-c135184e294b, .uuid-7ac34740-3707-468c-be51-b66a0dd2ed67, .uuid-f0a83435-45fe-4dc4-9872-f810804941c5, .uuid-3b92c40e-5c35-41fc-a2cd-b71aa1e768f8, .uuid-b7057188-22a7-479d-9437-632318c9ac2d, .uuid-4c30d6be-6a29-4f20-9678-daf62593094f, .uuid-f3cd72a2-e4c0-4201-b5e2-325e35e373ef, .uuid-c3a6eae5-34c2-4348-b045-ee3a775c38d6 {
        stroke: #000;
        stroke-linecap: round;
        stroke-linejoin: round;
      }

      .uuid-8db21063-287c-4acc-a512-bbb5252bc182, .uuid-f0a83435-45fe-4dc4-9872-f810804941c5, .uuid-b7057188-22a7-479d-9437-632318c9ac2d, .uuid-4c30d6be-6a29-4f20-9678-daf62593094f, .uuid-f3cd72a2-e4c0-4201-b5e2-325e35e373ef, .uuid-c3a6eae5-34c2-4348-b045-ee3a775c38d6 {
        stroke-width: 2px;
      }

      .uuid-1614a14c-44f3-41f2-970a-f9e88ea2d137 {
        fill: #ffff0d;
      }

      .uuid-30e331db-4d21-49fc-9ac1-7c3c1e393256 {
        stroke-width: 2px;
      }

      .uuid-30e331db-4d21-49fc-9ac1-7c3c1e393256, .uuid-b54f6662-ff09-4ee8-b5f7-c135184e294b {
        fill: #3ef1ff;
      }

      .uuid-b54f6662-ff09-4ee8-b5f7-c135184e294b, .uuid-7ac34740-3707-468c-be51-b66a0dd2ed67 {
        stroke-width: 2px;
      }

      .uuid-7ac34740-3707-468c-be51-b66a0dd2ed67, .uuid-f0a83435-45fe-4dc4-9872-f810804941c5, .uuid-3b92c40e-5c35-41fc-a2cd-b71aa1e768f8 {
        fill: #a07bff;
      }

      .uuid-3b92c40e-5c35-41fc-a2cd-b71aa1e768f8 {
        stroke-width: 2px;
      }

      .uuid-b7057188-22a7-479d-9437-632318c9ac2d {
        fill: #ff78d8;
      }

      .uuid-4c30d6be-6a29-4f20-9678-daf62593094f {
        fill: #fff7f0;
      }

      .uuid-f3cd72a2-e4c0-4201-b5e2-325e35e373ef {
        fill: #ffc9f1;
      }
    </style><clipPath id="uuid-8e6e5a8e-41a9-45a6-8de2-1509de5fe4b8"><path class="uuid-97ec9160-f55b-4391-9ac6-2720ac70b4d7" d="m218.44,385.68l-12.41,10.96-6.53,24.81s7.3-.56,11.65,5.92c4.35,6.48,4.93,18.37-5.19,25.2,0,0,2.66,7.57-2.84,15.69-5.5,8.12-13.98,7.22-17.39,6.23-3.42-.99-6.85-3.34-8.39-5.52,0,0-4.4,2.52-9.33,1.88-4.92-.64-9.88-4.55-10.66-11.79,0,0-4.68-1.75-6.47-7.46s-.04-12.91,2.44-22.27c2.48-9.35,6.68-14.17,12.51-15.83,0,0,7.52-29.22,8.52-33.06,1-3.84,2.56-4.88,6.36-8.16,3.8-3.28,15.08-13.12,15.08-13.12,0,0-6.03-58.25-12.88-63.84-15.33-12.53-44.41,24.06-87.62,45.85-62.5,31.52-65.76,86.65-49.19,122.95,16.58,36.3,55.81,43.29,75.6,42.64,19.79-.64,44.55-21.29,57.17-20.21,12.62,1.09,20.57,16.17,35.99,20.21,15.42,4.03,40.63-13.14,40.63-13.14l22.73-23.84,208.57,80.5,26.44-27.14,9.21-56.69-16.31-219.04-85.45-26.84-202.25,165.1h0Z"/></clipPath></defs><g id="uuid-4fc18071-2308-439e-9b03-a88b20c18554" data-name="uuid-25dbd0f2-a6de-441e-82e8-5e783d370578"><g id="uuid-468c7e84-7c20-452e-9305-e519acee2181" data-name="uuid-6de0adcf-05a0-4838-b094-5e13ac5553d7"><g class="uuid-186e0f35-16d5-49b6-9cbd-d077b6af6fa7"><g><g><path class="uuid-8db21063-287c-4acc-a512-bbb5252bc182" d="m256.85,397.34s43.17-16.87,99.05-41.15c55.88-24.29,75.83-39.11,88.23-49.9,12.4-10.79,16.75-22.06,17.55-24.64,0,0-15.57-4.04-25.44-4.73,0,0-1.95-11.06-4.24-17.83,0,0,23.38,4.08,29.67,10.6,6.29,6.52,8.26,24.14,3.97,34.72-4.29,10.58-48.76,44.48-82.27,59.41-33.52,14.93-34.93,14.89-34.93,14.89,0,0-10.52-1.58-24.73,8.6,0,0-36.6,14.62-59.39,23.39l-7.48-13.35h0Z"/><path class="uuid-8db21063-287c-4acc-a512-bbb5252bc182" d="m167.87,340.53s-9.7,4.37-15.66,9.02c-3.95-.93-22.86-3.02-22.86-3.02,0,0,15.25-13.12,34.71-21.71,0,0,1.23,8.09,3.82,15.72Z"/><path class="uuid-c3a6eae5-34c2-4348-b045-ee3a775c38d6" d="m461.68,281.65c1.48-4.21-.71-13.73-6.07-15.83"/><line class="uuid-c3a6eae5-34c2-4348-b045-ee3a775c38d6" x1="280.48" y1="387.88" x2="287.21" y2="401.78"/><line class="uuid-c3a6eae5-34c2-4348-b045-ee3a775c38d6" x1="287.21" y1="385.14" x2="293.75" y2="399.2"/><line class="uuid-c3a6eae5-34c2-4348-b045-ee3a775c38d6" x1="293.36" y1="382.62" x2="300" y2="396.73"/><g><path class="uuid-1614a14c-44f3-41f2-970a-f9e88ea2d137" d="m334.63,370.93l1.57,1.28c.15.12.36.17.55.11l1.94-.56c.48-.14.9.33.72.79l-.74,1.89c-.07.18-.05.39.06.55l1.14,1.68c.28.41-.03.96-.53.93l-2.02-.12c-.2-.01-.39.07-.51.23l-1.24,1.6c-.3.39-.92.26-1.05-.22l-.51-1.96c-.05-.19-.19-.34-.38-.41l-1.9-.69c-.47-.17-.54-.8-.12-1.07l1.7-1.09c.17-.11.27-.29.27-.48l.07-2.02c.02-.5.59-.76.98-.44h0Z"/><path class="uuid-1614a14c-44f3-41f2-970a-f9e88ea2d137" d="m352.67,363.26l1.57,1.28c.15.12.36.17.55.11l1.94-.56c.48-.14.9.33.72.79l-.74,1.89c-.07.18-.05.39.06.55l1.14,1.68c.28.41-.03.96-.53.93l-2.02-.12c-.2-.01-.39.07-.51.23l-1.24,1.6c-.3.39-.92.26-1.05-.22l-.51-1.96c-.05-.19-.19-.34-.38-.41l-1.9-.69c-.47-.17-.54-.8-.12-1.07l1.7-1.09c.17-.11.27-.29.27-.48l.07-2.02c.02-.5.59-.76.98-.44h0Z"/><path class="uuid-1614a14c-44f3-41f2-970a-f9e88ea2d137" d="m371.48,354.98l1.59,1.25c.15.12.36.16.55.1l1.93-.6c.47-.15.91.31.74.78l-.7,1.9c-.07.18-.04.39.07.55l1.17,1.65c.29.4-.02.96-.51.94l-2.02-.08c-.2,0-.38.08-.5.24l-1.21,1.62c-.3.4-.92.28-1.05-.2l-.55-1.95c-.05-.19-.2-.34-.38-.4l-1.92-.65c-.47-.16-.55-.79-.14-1.06l1.68-1.12c.16-.11.26-.29.27-.49l.03-2.02c0-.5.58-.77.97-.46h0Z"/><path class="uuid-1614a14c-44f3-41f2-970a-f9e88ea2d137" d="m389.42,346.05l1.67,1.14c.16.11.37.14.55.07l1.89-.73c.46-.18.93.25.79.73l-.57,1.94c-.06.19-.02.39.11.55l1.27,1.57c.31.39.05.96-.45.97l-2.02.05c-.2,0-.38.11-.49.27l-1.1,1.7c-.27.42-.9.34-1.07-.13l-.68-1.91c-.07-.19-.22-.33-.41-.38l-1.96-.52c-.48-.13-.6-.75-.21-1.05l1.6-1.23c.16-.12.24-.31.23-.51l-.11-2.02c-.03-.49.53-.8.94-.52h0Z"/><path class="uuid-1614a14c-44f3-41f2-970a-f9e88ea2d137" d="m405.93,337.19l1.71,1.09c.17.11.37.12.55.05l1.86-.79c.46-.19.94.22.81.7l-.51,1.96c-.05.19,0,.39.13.54l1.33,1.53c.33.37.08.96-.41.99l-2.02.12c-.2.01-.37.12-.48.29l-1.04,1.74c-.26.42-.89.37-1.07-.09l-.74-1.88c-.07-.18-.23-.32-.42-.36l-1.97-.46c-.48-.11-.63-.73-.25-1.04l1.56-1.29c.15-.13.23-.32.21-.51l-.18-2.02c-.04-.49.5-.82.92-.56h0Z"/></g></g><path class="uuid-b7057188-22a7-479d-9437-632318c9ac2d" d="m404.95,488.26c11.56,2.8,20.78,17.99,20.78,17.99,0,0,33.24,6.76,51.24,20.29l7.21-3.39-1.89-6.7s-31.23-16.75-50.98-17.71c0,0-7.08-8.51-12.34-9.3-5.26-.79-14.02-1.18-14.02-1.18h0Z"/><path class="uuid-f3cd72a2-e4c0-4201-b5e2-325e35e373ef" d="m490.26,485.51s-15.71-3.27-30.17-7.78c-14.46-4.51-25.51-10.58-25.51-10.58,0,0-5.75,4.04-7.78,4.51-1.78.41-124.87-31.46-154.41-39.12-.04-17.75-6.8-34.2-20.05-41.98-16.78-9.85-40.5,2.84-51.96-.89-11.46-3.73-14.08-38.2-57.48-43.98-43.41-5.78-74.21,23.56-86.3,54.22-12.09,30.66-7.3,85.91,54.32,93.9,32.12,4.16,46.04-19.92,68.1-16.65,18.73,2.78,19.06,19.57,37.56,20.82,0,0,7.8.37,11.04-3.07,0,0-.98-6.04-2.55-10.77-1.57-4.73-3.24-7.96-3.24-7.96,0,0,4.02-11.38,12.65-13.73,8.63-2.35,23.94,1.47,26.88,1.18,1.98-.2,4.55-2.12,6.76-7.14,39.95,9.21,144.97,33.46,149.5,34.88,5.6,1.76,11.98,10.32,11.98,10.32,0,0,16.95,3.73,30.33,8.87,13.38,5.13,24.26,12.6,24.26,12.6,0,0,3.89-12.91,8.87-17.27-3.27-7.47-2.8-20.38-2.8-20.38h0Z"/><path class="uuid-b7057188-22a7-479d-9437-632318c9ac2d" d="m216.43,497.98c-18.5-1.25-18.83-18.04-37.56-20.82-22.06-3.27-35.98,20.82-68.1,16.65-28.66-3.71-45.02-17.66-53.11-34.59,18.87,33.21,70.51,25.28,90.82,14.96,20.32-10.32,28.95-6.33,46.7,6.14,17.75,12.47,23.93,8.24,29.75,3.81,1.57,4.73,2.55,10.77,2.55,10.77-3.24,3.43-11.04,3.07-11.04,3.07h0Zm36.46-45.01h0c-4.99-.69-15.38-3.83-24.74,1.2-11.65,6.26-8.07,18.45-6.47,22.01.11.24.27.47.49.69-.21-.44-.34-.69-.34-.69,0,0,4.02-11.38,12.65-13.73,8.63-2.35,23.94,1.47,26.88,1.18,1.98-.2,4.55-2.12,6.76-7.14-9.43-2.17-15.24-3.51-15.24-3.51h0Zm13.17-22.07h0s2.29.59,6.32,1.64c-.02-9.45-1.94-18.54-5.75-26.14l-.2-.1c1.56,6.15,1.32,15.68-.38,24.6Z"/><g><g><path class="uuid-4c30d6be-6a29-4f20-9678-daf62593094f" d="m212.78,449.43l-14.2-3.29c-2.95-.68-4.24-3-2.87-5.16l15.67-24.85c1.37-2.17,4.87-3.37,7.82-2.69l14.2,3.29c2.95.68,4.24,3,2.87,5.16l-15.67,24.85c-1.37,2.17-4.87,3.37-7.82,2.69Z"/><path class="uuid-f0a83435-45fe-4dc4-9872-f810804941c5" d="m213.2,445.62l-10.75-2.49c-1.51-.35-2.17-1.53-1.47-2.64l13.79-21.87c.7-1.11,2.49-1.72,4-1.37l10.75,2.49c1.51.35,2.17,1.53,1.47,2.64l-13.79,21.87c-.7,1.11-2.49,1.72-4,1.37Z"/></g><g><path class="uuid-4c30d6be-6a29-4f20-9678-daf62593094f" d="m166.82,438.79l-14.2-3.29c-2.95-.68-4.24-3-2.87-5.16l15.67-24.85c1.37-2.17,4.87-3.37,7.82-2.69l14.2,3.29c2.95.68,4.24,3,2.87,5.16l-15.67,24.85c-1.37,2.17-4.87,3.37-7.82,2.69Z"/><path class="uuid-f0a83435-45fe-4dc4-9872-f810804941c5" d="m167.24,434.98l-10.75-2.49c-1.51-.35-2.17-1.53-1.47-2.64l13.79-21.87c.7-1.11,2.49-1.72,4-1.37l10.75,2.49c1.51.35,2.17,1.53,1.47,2.64l-13.79,21.87c-.7,1.11-2.49,1.72-4,1.37Z"/></g><path class="uuid-4c30d6be-6a29-4f20-9678-daf62593094f" d="m129.85,430.23h0c-2.95-.68-4.24-3-2.87-5.16l15.67-24.85c1.37-2.17,4.87-3.37,7.82-2.69h0c2.95.68,4.24,3,2.87,5.16l-15.67,24.85c-1.37,2.17-4.87,3.37-7.82,2.69Z"/><path class="uuid-4c30d6be-6a29-4f20-9678-daf62593094f" d="m107.78,425.12h0c-2.95-.68-4.24-3-2.87-5.16l15.67-24.85c1.37-2.17,4.87-3.37,7.82-2.69h0c2.95.68,4.24,3,2.87,5.16l-15.67,24.85c-1.37,2.17-4.87,3.37-7.82,2.69h0Z"/><path class="uuid-f0a83435-45fe-4dc4-9872-f810804941c5" d="m123.78,399.75l-11.38,18.04c-1.36,2.15-.1,4.44,2.81,5.14.14-.16.28-.32.4-.5l15.67-24.85c.11-.18.18-.35.25-.53-2.94-.65-6.39.55-7.75,2.7h0Z"/></g><g><path class="uuid-c3a6eae5-34c2-4348-b045-ee3a775c38d6" d="m436.81,495.25s-16.88-8.23-20.01-8.99-300.73-68.01-300.73-68.01"/><path class="uuid-c3a6eae5-34c2-4348-b045-ee3a775c38d6" d="m438.16,476.24s-11.22-.5-17.03-1.9c-5.81-1.4-294.08-73.68-294.08-73.68"/><path class="uuid-c3a6eae5-34c2-4348-b045-ee3a775c38d6" d="m473.11,489.44s-44.58-9.34-50.77-11.01c-6.2-1.66-299.13-71.93-299.13-71.93"/><path class="uuid-c3a6eae5-34c2-4348-b045-ee3a775c38d6" d="m119.35,412.39s288.32,67,298.94,69.56c10.62,2.56,53.31,24.81,53.31,24.81"/></g><g><g><ellipse class="uuid-7ac34740-3707-468c-be51-b66a0dd2ed67" cx="80.12" cy="438.43" rx="8" ry="6.02" transform="translate(-184.58 79.86) rotate(-26.08)"/><path class="uuid-8db21063-287c-4acc-a512-bbb5252bc182" d="m84.32,436.52c.6,1.22-.77,3.11-3.06,4.23-2.29,1.12-4.62,1.04-5.22-.18-.2-.41-1.95-3.98-2.48-5.06.41-1,4.02,1.57,5.54.83,1.51-.74,1.7-5.17,2.74-4.88l2.48,5.06h0Z"/><ellipse class="uuid-b54f6662-ff09-4ee8-b5f7-c135184e294b" cx="77.79" cy="433.66" rx="4.61" ry="3.55" transform="translate(-182.72 78.35) rotate(-26.08)"/></g><g><ellipse class="uuid-7ac34740-3707-468c-be51-b66a0dd2ed67" cx="106.81" cy="442.59" rx="8" ry="6.02" transform="translate(-183.69 92.02) rotate(-26.08)"/><path class="uuid-8db21063-287c-4acc-a512-bbb5252bc182" d="m111.01,440.68c.6,1.22-.77,3.11-3.06,4.23-2.29,1.12-4.62,1.04-5.22-.18-.2-.41-1.95-3.98-2.48-5.06.41-1,4.02,1.57,5.54.83,1.51-.74,1.7-5.17,2.74-4.88l2.48,5.06h0Z"/><ellipse class="uuid-b54f6662-ff09-4ee8-b5f7-c135184e294b" cx="104.47" cy="437.82" rx="4.61" ry="3.55" transform="translate(-181.84 90.5) rotate(-26.08)"/></g><g><ellipse class="uuid-7ac34740-3707-468c-be51-b66a0dd2ed67" cx="87.78" cy="459.18" rx="8" ry="6.02" transform="translate(-192.92 85.34) rotate(-26.08)"/><path class="uuid-8db21063-287c-4acc-a512-bbb5252bc182" d="m91.98,457.27c.6,1.22-.77,3.11-3.06,4.23-2.29,1.12-4.62,1.04-5.22-.18-.2-.41-1.95-3.98-2.48-5.06.41-1,4.02,1.57,5.54.83,1.51-.74,1.7-5.17,2.74-4.88l2.48,5.06h0Z"/><ellipse class="uuid-b54f6662-ff09-4ee8-b5f7-c135184e294b" cx="85.45" cy="454.41" rx="4.61" ry="3.55" transform="translate(-191.07 83.83) rotate(-26.08)"/></g><g><ellipse class="uuid-7ac34740-3707-468c-be51-b66a0dd2ed67" cx="114.47" cy="463.34" rx="8" ry="6.02" transform="translate(-192.04 97.5) rotate(-26.08)"/><path class="uuid-8db21063-287c-4acc-a512-bbb5252bc182" d="m118.67,461.44c.6,1.22-.77,3.11-3.06,4.23-2.29,1.12-4.62,1.04-5.22-.18-.2-.41-1.95-3.98-2.48-5.06.41-1,4.02,1.57,5.54.83,1.51-.74,1.7-5.17,2.74-4.88l2.48,5.06h0Z"/><ellipse class="uuid-b54f6662-ff09-4ee8-b5f7-c135184e294b" cx="112.14" cy="458.57" rx="4.61" ry="3.55" transform="translate(-190.18 95.99) rotate(-26.08)"/></g></g><g><ellipse class="uuid-7ac34740-3707-468c-be51-b66a0dd2ed67" cx="242.28" cy="405.28" rx="8" ry="6.02" transform="translate(-153.5 147.77) rotate(-26.08)"/><path class="uuid-8db21063-287c-4acc-a512-bbb5252bc182" d="m246.48,403.37c.6,1.22-.77,3.11-3.06,4.23-2.29,1.12-4.62,1.04-5.22-.18-.2-.41-1.95-3.98-2.48-5.06.41-1,4.02,1.57,5.54.83,1.51-.74,1.7-5.17,2.74-4.88l2.48,5.06h0Z"/><ellipse class="uuid-b54f6662-ff09-4ee8-b5f7-c135184e294b" cx="239.95" cy="400.51" rx="4.61" ry="3.55" transform="translate(-151.64 146.26) rotate(-26.08)"/></g><g><ellipse class="uuid-3b92c40e-5c35-41fc-a2cd-b71aa1e768f8" cx="443.7" cy="475.25" rx="5.05" ry="5.28" transform="translate(-189.67 328.37) rotate(-33.91)"/><path class="uuid-8db21063-287c-4acc-a512-bbb5252bc182" d="m443.56,472.68c-1.13.76-1.5,2.17-.83,3.16s2.12,1.18,3.24.42l4.68-3.14c.39-.71-.92-1.03-1.36-1.68-.44-.65-.24-1.99-1.04-1.9l-4.68,3.14Z"/><ellipse class="uuid-30e331db-4d21-49fc-9ac1-7c3c1e393256" cx="449.28" cy="471.43" rx="2.12" ry="2.16" transform="translate(-186.59 330.84) rotate(-33.91)"/></g><g><ellipse class="uuid-3b92c40e-5c35-41fc-a2cd-b71aa1e768f8" cx="476.71" cy="485.61" rx="5.05" ry="5.28" transform="translate(-189.83 348.55) rotate(-33.91)"/><path class="uuid-8db21063-287c-4acc-a512-bbb5252bc182" d="m476.58,483.03c-1.13.76-1.5,2.17-.83,3.16s2.12,1.18,3.24.42l4.68-3.14c.39-.71-.92-1.03-1.36-1.68-.44-.65-.24-1.99-1.04-1.9l-4.68,3.14Z"/><ellipse class="uuid-30e331db-4d21-49fc-9ac1-7c3c1e393256" cx="482.3" cy="481.78" rx="2.12" ry="2.16" transform="translate(-186.75 351.02) rotate(-33.91)"/></g><g><ellipse class="uuid-3b92c40e-5c35-41fc-a2cd-b71aa1e768f8" cx="474.12" cy="507.79" rx="5.05" ry="5.28" transform="translate(-202.65 350.88) rotate(-33.91)"/><path class="uuid-8db21063-287c-4acc-a512-bbb5252bc182" d="m473.98,505.22c-1.13.76-1.5,2.17-.83,3.16s2.12,1.18,3.24.42l4.68-3.14c.39-.71-.92-1.03-1.36-1.68-.44-.65-.24-1.99-1.04-1.9l-4.68,3.14Z"/><ellipse class="uuid-30e331db-4d21-49fc-9ac1-7c3c1e393256" cx="479.7" cy="503.97" rx="2.12" ry="2.16" transform="translate(-199.57 353.34) rotate(-33.91)"/></g><g><ellipse class="uuid-3b92c40e-5c35-41fc-a2cd-b71aa1e768f8" cx="441.1" cy="494.64" rx="5.05" ry="5.28" transform="translate(-200.93 330.22) rotate(-33.91)"/><path class="uuid-8db21063-287c-4acc-a512-bbb5252bc182" d="m440.96,492.07c-1.13.76-1.5,2.17-.83,3.16s2.12,1.18,3.24.42l4.68-3.14c.39-.71-.92-1.03-1.36-1.68-.44-.65-.24-1.99-1.04-1.9l-4.68,3.14Z"/><ellipse class="uuid-30e331db-4d21-49fc-9ac1-7c3c1e393256" cx="446.68" cy="490.82" rx="2.12" ry="2.16" transform="translate(-197.85 332.68) rotate(-33.91)"/></g></g></g></g></g></svg>
<svg id="uuid-2f504206-111c-4779-9236-233d24245c5e" data-name="BODY" xmlns="http://www.w3.org/2000/svg" xmlns:xlink="http://www.w3.org/1999/xlink" viewBox="0 0 600 600"><defs><style>
      .uuid-d3edaed5-c7c6-4c4d-aa40-9a4dd8648ee7, .uuid-68d6c310-ce9e-402f-977e-09a9487d1f3f, .uuid-c55da662-6359-43da-9ece-79f419a77998 {
        fill: none;
      }

      .uuid-a378b470-e58b-414a-9aaa-c42cc7401d46, .uuid-ec8004b7-0527-439b-bc6e-4b5df54d70f5, .uuid-a970ff5c-387f-4ed2-bc98-796834b27354 {
        fill: #7aa6ff;
      }

      .uuid-a378b470-e58b-414a-9aaa-c42cc7401d46, .uuid-ec8004b7-0527-439b-bc6e-4b5df54d70f5, .uuid-68d6c310-ce9e-402f-977e-09a9487d1f3f, .uuid-5f18a3b5-25e8-4b4a-92b0-9c895b96bdd6 {
        stroke: #000;
        stroke-linecap: round;
        stroke-linejoin: round;
      }

      .uuid-a378b470-e58b-414a-9aaa-c42cc7401d46, .uuid-68d6c310-ce9e-402f-977e-09a9487d1f3f, .uuid-5f18a3b5-25e8-4b4a-92b0-9c895b96bdd6 {
        stroke-width: 2px;
      }

      .uuid-ec8004b7-0527-439b-bc6e-4b5df54d70f5 {
        stroke-width: 2px;
      }

      .uuid-5f18a3b5-25e8-4b4a-92b0-9c895b96bdd6 {
        fill: #f9a723;
      }

      .uuid-c55da662-6359-43da-9ece-79f419a77998 {
        clip-path: url(#uuid-eca54416-6e61-412d-a418-e0bcf3f00aa5);
      }
    </style><clipPath id="uuid-eca54416-6e61-412d-a418-e0bcf3f00aa5"><path class="uuid-d3edaed5-c7c6-4c4d-aa40-9a4dd8648ee7" d="m500.24,288.07s3.15-12.64,14.55-12.39c0,0,6.81-3.05,4.79-13.7s-9.48-7.62-9.48-7.62l-3.26,2.83s-4.99-3.71-11.8-4.25c-6.81-.54-29.6,19.74-28.65,47.05l2.58,4.27h5.71s1.04-3.08,1.49-4.63c.71,1.5,2.45,4.63,2.45,4.63h5.46s.25-16.04,10.62-13.7c3.59.81,5.54-2.49,5.54-2.49h0Z"/></clipPath></defs><g id="uuid-867e74de-e6be-4fed-8810-6aee283b78c1" data-name="uuid-7815cad7-8e3a-44d2-a5d3-2b4a6315d68d"><g><g><g><path class="uuid-a970ff5c-387f-4ed2-bc98-796834b27354" d="m500.24,288.07s3.15-12.64,14.55-12.39c0,0,6.81-3.05,4.79-13.7s-9.48-7.62-9.48-7.62l-3.26,2.83s-4.99-3.71-11.8-4.25c-6.81-.54-29.6,19.74-28.65,47.05l2.58,4.27h5.71s1.04-3.08,1.49-4.63c.71,1.5,2.45,4.63,2.45,4.63h5.46s.25-16.04,10.62-13.7c3.59.81,5.54-2.49,5.54-2.49h0Z"/><g class="uuid-c55da662-6359-43da-9ece-79f419a77998"><g><path class="uuid-68d6c310-ce9e-402f-977e-09a9487d1f3f" d="m468.96,304.27c3.56-19.63,12.25-29.34,22.7-23.21"/><path class="uuid-68d6c310-ce9e-402f-977e-09a9487d1f3f" d="m495.04,252.95c.78,9.4,3.57,11.29,11.8,4.25"/><path class="uuid-68d6c310-ce9e-402f-977e-09a9487d1f3f" d="m513.81,261.46s-11.73,5.35-20.22,9.49"/><path class="uuid-68d6c310-ce9e-402f-977e-09a9487d1f3f" d="m476.17,299.64c1.03-4.04,4.15-3.86,3.36-.09-.26,1.25-.58,3.01-.91,4.73"/></g></g><path class="uuid-68d6c310-ce9e-402f-977e-09a9487d1f3f" d="m500.24,288.07s3.15-12.64,14.55-12.39c0,0,6.81-3.05,4.79-13.7s-9.48-7.62-9.48-7.62l-3.26,2.83s-4.99-3.71-11.8-4.25c-6.81-.54-29.6,19.74-28.65,47.05l2.58,4.27h5.71s1.04-3.08,1.49-4.63c.71,1.5,2.45,4.63,2.45,4.63h5.46s.25-16.04,10.62-13.7c3.59.81,5.54-2.49,5.54-2.49h0Z"/></g><g><path class="uuid-a378b470-e58b-414a-9aaa-c42cc7401d46" d="m523.26,261.51c2.07,7.74,7.98,12.89,3.75,14.02-.15.04-7.96,2.12-8.12,2.15-4.13.64-8.94-4.61-10.93-12.07-2.03-7.6-.39-14.68,3.67-16,.07-.02,7.8-2.09,7.87-2.11,4.22-1.13,1.68,6.28,3.75,14.02Z"/><ellipse class="uuid-ec8004b7-0527-439b-bc6e-4b5df54d70f5" cx="523.26" cy="261.51" rx="10.33" ry="14.51" transform="translate(-49.81 144.13) rotate(-14.98)"/><line class="uuid-68d6c310-ce9e-402f-977e-09a9487d1f3f" x1="522.82" y1="253.67" x2="518.96" y2="264.52"/><line class="uuid-68d6c310-ce9e-402f-977e-09a9487d1f3f" x1="525.49" y1="265.86" x2="524.1" y2="269.78"/><line class="uuid-68d6c310-ce9e-402f-977e-09a9487d1f3f" x1="527.96" y1="258.93" x2="527.23" y2="260.97"/></g></g><g><path class="uuid-a378b470-e58b-414a-9aaa-c42cc7401d46" d="m521.42,363.39c-.44-.08-.88-.17-1.31-.27-3.31-.79-6.69-2.21-8.67-5.13-3.13-4.61-.82-9.79,3.48-12.56.56-.36,1.14-.68,1.74-.98-1.39-.55-2.66-1.35-3.57-2.56-1.86-2.47-1.89-5.68-.85-8.49.51-1.39,1.37-2.62,2.39-3.72v-.04c-.22-.03-.44-.05-.65-.09-2.1-.38-4.21-1.08-5.7-2.67-2.17,3.15-6.46,5-10.98,3.92l5.35,47.25,20.98-3.74-2.2-10.91h0Z"/><path class="uuid-5f18a3b5-25e8-4b4a-92b0-9c895b96bdd6" d="m507.62,316.05c.9-1.44,2.13-2.7,3.5-3.77l-6.51-32.3s-1.48-4.85-6.4-4.25c-4.92.61-6.54,5.33-6.54,5.33l3.32,29.35c2.06-.09,4.27.05,6.86,1.27,0,0,3.42,1.42,5.77,4.37h0Z"/></g><line class="uuid-68d6c310-ce9e-402f-977e-09a9487d1f3f" x1="501.22" y1="292.85" x2="502.88" y2="303.21"/><line class="uuid-68d6c310-ce9e-402f-977e-09a9487d1f3f" x1="499.45" y1="281.87" x2="500.24" y2="286.79"/><path class="uuid-a378b470-e58b-414a-9aaa-c42cc7401d46" d="m502.64,378.04c.99,8.71,22.7,4.78,20.98-3.74-1.51-7.49-21.81-3.52-20.98,3.74Z"/><path class="uuid-68d6c310-ce9e-402f-977e-09a9487d1f3f" d="m514.37,360.81c-4.9.25-10.44,1.84-13.21,4.18"/><path class="uuid-68d6c310-ce9e-402f-977e-09a9487d1f3f" d="m510.84,349.77c-4.19.5-8.51,1.88-10.97,3.8"/><path class="uuid-68d6c310-ce9e-402f-977e-09a9487d1f3f" d="m511.64,338.39c-4.76.21-10.15,1.71-13.05,3.94"/></g></g></svg>
</svg>