<?xml version="1.0" encoding="UTF-8"?>
<svg xmlns="http://www.w3.org/2000/svg" viewBox="0 0 600 600">
<svg id="uuid-c55b6f18-22d9-42e7-94a5-9418063ab399" data-name="BACKGROUND" xmlns="http://www.w3.org/2000/svg" viewBox="0 0 600 600"><defs><style>
      .uuid-65b83bcd-5755-41b5-8f46-23c20c164524 {
        fill: #9dff0c;
      }
    </style></defs><rect class="uuid-65b83bcd-5755-41b5-8f46-23c20c164524" x="-1" y="-1" width="602" height="602"/></svg>
<svg id="uuid-21a2137e-152d-4624-8e43-99af15d9f9e8" data-name="BODY" xmlns="http://www.w3.org/2000/svg" viewBox="0 0 600 600"><defs><style>
      .uuid-b1fa838c-bbeb-494c-9d1c-91f652402853 {
        fill: #fff;
      }

      .uuid-a227c661-5872-4a18-bf5e-39f1f58df01d, .uuid-d3680d9f-f8fb-4ba5-9fb9-854e0687d7fc {
        stroke-miterlimit: 10;
      }

      .uuid-a227c661-5872-4a18-bf5e-39f1f58df01d, .uuid-d3680d9f-f8fb-4ba5-9fb9-854e0687d7fc, .uuid-441b8c18-14b3-4232-b93e-e6179449b722, .uuid-54e57772-6d48-4cac-a52c-97b501800de4, .uuid-b14d4e1c-c0bf-49d3-a7dc-02d873d7b4a2 {
        stroke: #000;
        stroke-width: 2px;
      }

      .uuid-a227c661-5872-4a18-bf5e-39f1f58df01d, .uuid-d3680d9f-f8fb-4ba5-9fb9-854e0687d7fc, .uuid-441b8c18-14b3-4232-b93e-e6179449b722, .uuid-b14d4e1c-c0bf-49d3-a7dc-02d873d7b4a2 {
        fill: #00dfa9;
      }

      .uuid-d3680d9f-f8fb-4ba5-9fb9-854e0687d7fc, .uuid-441b8c18-14b3-4232-b93e-e6179449b722, .uuid-54e57772-6d48-4cac-a52c-97b501800de4 {
        stroke-linecap: round;
      }

      .uuid-441b8c18-14b3-4232-b93e-e6179449b722, .uuid-54e57772-6d48-4cac-a52c-97b501800de4, .uuid-b14d4e1c-c0bf-49d3-a7dc-02d873d7b4a2 {
        stroke-linejoin: round;
      }

      .uuid-54e57772-6d48-4cac-a52c-97b501800de4 {
        fill: none;
      }
    </style></defs><ellipse cx="300" cy="518.65" rx="138.6" ry="22.93"/><g><path class="uuid-a227c661-5872-4a18-bf5e-39f1f58df01d" d="m319.36,427.14c-1.16,1.05-54.95,57-54.95,57,0,0,21.51-1.95,31.74,10.62,10.23,12.57,7.26,23.89,7.26,23.89h-66.9s-28.69-36.17-28.69-36.17c0,0,3.74-13.4,20.44-10.59,20.9-19.38,55.52-59.13,55.52-59.13l35.59,14.38Z"/><path d="m283.78,412.76l31.28,12.64-3.24,9.5c-2.93,3.03-9.76,10.12-13.64,14.14-11.92,0-27.98-2.13-41.33-6.37,13.95-15.1,26.93-29.92,26.93-29.92Z"/></g><g><path class="uuid-441b8c18-14b3-4232-b93e-e6179449b722" d="m409.81,359.6c9.2,3.77,29.89,12.05,42.79,16.03,2.11.65,4.41.69,6.5-.04,11.79-4.08,28.47-11.39,33.03-11.32,5.25.08,7.8,3.93,19.88,2.04,13.36-2.1,22.43-11.99,20.93-23.3-4.21-43.28-25.18-26.79-25.18-26.79,0,0-5.84-8.75-18.76-4.82-11.83,3.6-10.2,14.44-6.47,22.47l-25.29,8.58c-2.14.72-4.45.71-6.59-.02l-35.7-12.61"/><path class="uuid-d3680d9f-f8fb-4ba5-9fb9-854e0687d7fc" d="m533.36,312.82c2.5,3.94,1.62,9.14-1.57,12.4-2.47,2.53-5.88,3.88-9.32,4.4-2.8.43-5.7.42-8.49-.08-2.14-.39-4.29-1.1-5.79-2.75-1.66-1.83-2.27-4.46-1.98-6.87.51-4.17,3.84-7.14,7.22-9.26,3.17-1.98,6.86-3.26,10.64-3.09,3.8.18,7.36,2.19,9.3,5.24Z"/><path class="uuid-d3680d9f-f8fb-4ba5-9fb9-854e0687d7fc" d="m538.57,349.84c.97,3.03.32,6.43-1.5,9.01-3.77,5.33-11.17,5.65-16.96,4.27-3.31-.79-6.69-2.21-8.67-5.13-3.13-4.61-.82-9.79,3.48-12.56,2.58-1.66,5.61-2.67,8.63-3.14,5.73-.89,13.1,1.51,15.03,7.56Z"/><path class="uuid-d3680d9f-f8fb-4ba5-9fb9-854e0687d7fc" d="m538.71,328.53c1.8,2.99,2.06,6.89.22,9.9-1.95,3.2-4.94,5.25-8.49,6.28-3.66,1.07-7.64,1.27-11.4.44-2.25-.5-4.53-1.38-5.96-3.28-1.86-2.47-1.89-5.68-.85-8.49,1.2-3.24,4.17-5.69,7.09-7.37,6.15-3.56,15.21-4.43,19.39,2.52Z"/><path class="uuid-d3680d9f-f8fb-4ba5-9fb9-854e0687d7fc" d="m501.85,311.68s9.27,3.84,7.77,12.02c-1.04,5.68-8.17,9.55-14.94,6.13"/><path class="uuid-54e57772-6d48-4cac-a52c-97b501800de4" d="m500.67,331.08c2.41,1.63,5.11,8.04,3.4,14.42"/><path d="m443.44,339.88c-2.88,10.58-6.94,20.23-11.17,28.59-10.17-3.78-21.16-9.53-27-11.93l11.83-26.02,26.35,9.36Z"/></g><g><circle class="uuid-a227c661-5872-4a18-bf5e-39f1f58df01d" cx="300" cy="300" r="138.16"/><path class="uuid-b1fa838c-bbeb-494c-9d1c-91f652402853" d="m184.58,308.17c-4.41,0-7.98-3.57-7.98-7.98,0-67.74,55.11-122.86,122.86-122.86,4.41,0,7.98,3.57,7.98,7.98s-3.57,7.98-7.98,7.98c-58.94,0-106.9,47.95-106.9,106.9,0,4.41-3.57,7.98-7.98,7.98Z"/></g><path class="uuid-54e57772-6d48-4cac-a52c-97b501800de4" d="m264.41,484.14c-4.06.49-11.49,1.36-17.85,7.23"/><path class="uuid-b1fa838c-bbeb-494c-9d1c-91f652402853" d="m185.17,308.14c-4.41,0-7.98-3.57-7.98-7.98,0-67.74,55.11-122.86,122.86-122.86,4.41,0,7.98,3.57,7.98,7.98s-3.57,7.98-7.98,7.98c-58.94,0-106.9,47.95-106.9,106.9,0,4.41-3.57,7.98-7.98,7.98Z"/><path d="m203.75,397.46l34.2-27.46-24.86,36.3c-6.73-5.1-3.66-2.61-9.34-8.83Z"/><path class="uuid-b14d4e1c-c0bf-49d3-a7dc-02d873d7b4a2" d="m323.72,387.31c19.14-13.4,39.15-11.3,55.52,7.36,19.6,22.35,30.57,33.06,30.57,33.06,0,0,10.74-19.34,34.77-17.5,18.26,1.4,24.84,14.43,24.84,14.43,0,0,6.21,8.82-22.45,33.5-28.66,24.68-54.93,40.92-61.14,29.46-6.21-11.46-2.82-32.1-2.82-32.1,0,0-22.02-26.09-27.94-32.01-6.79-6.79-15.71-1.36-15.71-1.36"/><path class="uuid-a227c661-5872-4a18-bf5e-39f1f58df01d" d="m446.97,458.17c-25.89,22.29-49.82,37.69-58.79,32.02-9.77-7.44,26.84-38.54,44.88-52.7,18.04-14.16,32.17-17.82,36.36-12.81,0,0,6.21,8.82-22.45,33.5Z"/><path class="uuid-54e57772-6d48-4cac-a52c-97b501800de4" d="m409.81,427.74c-1.89,2.86-4.55,10.38-4.55,10.38"/><g><path class="uuid-441b8c18-14b3-4232-b93e-e6179449b722" d="m214.11,345.7c-8.05,5.83-25.34,20.79-35.52,29.67-1.67,1.45-2.82,3.41-3.39,5.55-3.14,11.67-8.55,33.44-8.55,33.44,0,0-8.42.58-12.19,14.35-3.64,13.3-6.64,25.06,3.77,29.75.35,7.47,7.51,15.45,19.2,9.41.14-.06,1.32,1.32,1.44,1.45,2.64,2.7,6.36,4.45,10.13,4.81,3.65.36,7.61-.67,10.43-3.08,3.29-2.81,5.4-6.94,6.05-11.2.4-2.61.26-5.31-.75-7.78,0,0,6.2-2.51,8.05-11.34,1.99-9.49-4.22-19.42-14.62-18.18l6.17-23.11c.51-2.2,1.74-4.16,3.49-5.59l29.38-24.3"/><path class="uuid-54e57772-6d48-4cac-a52c-97b501800de4" d="m204.73,452.06c-1.37-3.47-5.39-7.08-9-6.88"/><path class="uuid-54e57772-6d48-4cac-a52c-97b501800de4" d="m178.86,469.3c-5.16-5.27-3.82-11.97-2.9-13.54"/><path class="uuid-54e57772-6d48-4cac-a52c-97b501800de4" d="m158.22,458.45c-.27-5.22.73-7.32,3.06-9.83"/><path class="uuid-54e57772-6d48-4cac-a52c-97b501800de4" d="m193.93,450.63c.14-2.07.48-4.16,1.32-6.06.85-1.95,2.36-3.88,4.31-4.85"/></g></svg>
<svg id="uuid-d5dd65a7-b2b1-4e4f-8af0-4691195114d0" data-name="BODY" xmlns="http://www.w3.org/2000/svg" viewBox="0 0 600 600"><circle cx="369.54" cy="262.94" r="9.78" transform="translate(-8.58 12.49) rotate(-1.91)"/><path d="m352.87,296.37c1.76,5.11,7.33,7.82,12.44,6.06,5.11-1.76,7.82-7.33,6.06-12.44"/><circle cx="337.63" cy="273.96" r="9.78" transform="translate(-8.96 11.43) rotate(-1.91)"/></svg>
<svg id="uuid-0aa8c587-996b-4cdc-8f6f-9857078d28d3" data-name="BODY" xmlns="http://www.w3.org/2000/svg" viewBox="0 0 600 600"><defs><style>
      .uuid-5c1aa41b-276d-47a9-975e-6b51258e34fd {
        fill: #7aa6ff;
      }

      .uuid-5c1aa41b-276d-47a9-975e-6b51258e34fd, .uuid-5420853f-4843-434c-aead-428453da705c, .uuid-98d20c01-64f9-488a-bda2-9c627608ef99 {
        stroke: #000;
        stroke-linecap: round;
        stroke-linejoin: round;
        stroke-width: 2px;
      }

      .uuid-5420853f-4843-434c-aead-428453da705c {
        fill: none;
      }

      .uuid-98d20c01-64f9-488a-bda2-9c627608ef99 {
        fill: #f9a723;
      }
    </style></defs><g id="uuid-efe03c10-21e9-40e1-b362-43562c7320e3" data-name="uuid-3374edde-7b2c-4e71-84a6-3cb653058dc6"><g id="uuid-7e5c48c3-5d6e-4296-9f6a-e6035b6c477a" data-name="uuid-298fa604-3857-4000-a4c4-1a509c9ef803"><g><path class="uuid-5c1aa41b-276d-47a9-975e-6b51258e34fd" d="m244.59,514.46s8.09-20.22,26.83-20.22c15.1,0,19.01,7.06,19.01,7.06,0,0,3.03-5.94,8.09-9.18,0,0-4.15-7.58-14.26-9.3l-1.73,1.91s-6.97-5.35-23.92-2.28c-16.95,3.07-28.51,21.15-28.51,21.15l.92,8.35,4.39,6.42,9.18-3.89v-.02Z"/><path class="uuid-98d20c01-64f9-488a-bda2-9c627608ef99" d="m209.84,478.1l27.45,34.51c.93,1.16,2.33,1.84,3.82,1.84h61.66c1.79,0,3.24,1.45,3.24,3.24v4.45c0,1.79-1.45,3.24-3.24,3.24h-64.92c-3.9,0-7.59-1.79-10-4.85l-26.47-32.68c-.89-1.1-.9-2.68-.02-3.79l4.63-5.81c.91-1.33,2.85-1.41,3.86-.14h0Z"/><path class="uuid-5420853f-4843-434c-aead-428453da705c" d="m282.53,484.72c2.44,1.78,6.89,7.45,7.9,16.57,2.33,5.28,2.33,13.17,2.33,13.17"/></g><g><path class="uuid-5c1aa41b-276d-47a9-975e-6b51258e34fd" d="m405.26,457.42s-8.33-22.95,12.28-44.49c4.45-4.65,15.27-6.57,24.17-6.37,0,0-25.89,17.7-19.96,39.81l-16.49,11.06h0Z"/><path class="uuid-98d20c01-64f9-488a-bda2-9c627608ef99" d="m382.22,485.43c.29,4,3.37,8.75,9.54,9.05s18.87-1.74,46.41-24.52c27.54-22.78,37.32-34.79,34.59-45.81-2.73-11.02-15.88-8.29-29.33,0-13.45,8.29-23.24,15.87-39.34,30.44-15.19,13.75-22.52,21.98-21.88,30.84h0Z"/><path class="uuid-5420853f-4843-434c-aead-428453da705c" d="m472.87,430.86c1.07-6.88-12.92-14.11-52.29,20.95-38.8,34.55-33.55,42.06-30.93,42.38"/><path class="uuid-5420853f-4843-434c-aead-428453da705c" d="m395.95,488.37c1.88,1.93,15.96-4.79,39.42-24.07,23.46-19.28,33.17-30.27,31.28-32.36s-10.79-2.61-41.12,23.75c-30.33,26.36-31.35,30.85-29.58,32.67h0Z"/><path class="uuid-5420853f-4843-434c-aead-428453da705c" d="m441.71,406.56c12.54-.01,17.04,10.85,17.04,10.85"/></g></g></g></svg>
<svg id="uuid-1814dd4d-896f-43a9-8cc5-9df7690e94a2" data-name="BACKGROUND" xmlns="http://www.w3.org/2000/svg" viewBox="0 0 600 600"><defs><style>
      .uuid-3be35196-23eb-415c-bbdf-01577589215b {
        fill: #ffff0d;
        stroke: #000;
        stroke-linecap: round;
        stroke-linejoin: round;
        stroke-width: 2px;
      }
    </style></defs><path class="uuid-3be35196-23eb-415c-bbdf-01577589215b" d="m375.86,319.37c-14.26,7.96-19.36,25.98-11.4,40.24,7.96,14.26,25.98,19.36,40.24,11.4,14.26-7.96,19.36-25.98,11.4-40.24-7.96-14.26-25.98-19.36-40.24-11.4Zm-.03,6.32l10.52,18.84-6.41,22.61c-4.44-2.08-8.29-5.52-10.86-10.12-6.02-10.78-2.93-24.18,6.75-31.33Zm9.99,43.35l4.79-16.89,8.69,15.57c-4.39,1.76-9.06,2.15-13.48,1.32Zm18.87-4.32l-8.9-15.94,17.51,4.1c-1.55,4.62-4.47,8.8-8.6,11.84Zm9.8-17.89l-22.77-5.34-10.5-18.81c11.18-4.52,24.23-.12,30.26,10.68,2.38,4.26,3.33,8.94,3.02,13.47Z"/><circle class="uuid-3be35196-23eb-415c-bbdf-01577589215b" cx="420.18" cy="318.72" r="8.31"/><circle class="uuid-3be35196-23eb-415c-bbdf-01577589215b" cx="436.89" cy="310.38" r="8.31"/><circle class="uuid-3be35196-23eb-415c-bbdf-01577589215b" cx="350.39" cy="343.04" r="8.31"/><circle class="uuid-3be35196-23eb-415c-bbdf-01577589215b" cx="332" cy="346.35" r="8.31"/><circle class="uuid-3be35196-23eb-415c-bbdf-01577589215b" cx="313.56" cy="349.17" r="8.31"/><circle class="uuid-3be35196-23eb-415c-bbdf-01577589215b" cx="295.1" cy="351.34" r="8.31"/><circle class="uuid-3be35196-23eb-415c-bbdf-01577589215b" cx="276.49" cy="352.43" r="8.31"/><circle class="uuid-3be35196-23eb-415c-bbdf-01577589215b" cx="257.85" cy="352.14" r="8.31"/><circle class="uuid-3be35196-23eb-415c-bbdf-01577589215b" cx="239.26" cy="352.14" r="8.31"/><circle class="uuid-3be35196-23eb-415c-bbdf-01577589215b" cx="220.83" cy="349.72" r="8.31"/><circle class="uuid-3be35196-23eb-415c-bbdf-01577589215b" cx="202.35" cy="347.91" r="8.31"/><circle class="uuid-3be35196-23eb-415c-bbdf-01577589215b" cx="184.1" cy="344.29" r="8.31"/><circle class="uuid-3be35196-23eb-415c-bbdf-01577589215b" cx="165.96" cy="340.27" r="8.31"/></svg>
<svg id="uuid-ab1931fc-d5c0-4cb4-afd6-f3bc81ff7581" data-name="BODY" xmlns="http://www.w3.org/2000/svg" xmlns:xlink="http://www.w3.org/1999/xlink" viewBox="0 0 600 600"><defs><style>
      .uuid-46c841ce-3b67-4779-b315-85ce00fa542b, .uuid-51c94c6f-fd18-4e3b-98c7-3f099a22fee0, .uuid-9e6c6a35-d2f6-4ae0-951a-9d22770e9b35, .uuid-55198174-3401-4ad9-94f7-c8a54995cc5e {
        fill: none;
      }

      .uuid-51c94c6f-fd18-4e3b-98c7-3f099a22fee0 {
        clip-path: url(#uuid-96d0c1a6-a810-45b4-bcd2-6cce64fda90e);
      }

      .uuid-cb49d95c-18e8-459d-b7b5-1b5c6d4b6d33, .uuid-b2f3ed1d-5c30-4614-b99f-eaad7ebd5d96 {
        fill: #7aa6ff;
      }

      .uuid-cb49d95c-18e8-459d-b7b5-1b5c6d4b6d33, .uuid-b2f3ed1d-5c30-4614-b99f-eaad7ebd5d96, .uuid-1bd459ee-3e86-4ab0-8ca7-9f1d28e7821b, .uuid-9e6c6a35-d2f6-4ae0-951a-9d22770e9b35 {
        stroke: #000;
        stroke-linecap: round;
        stroke-linejoin: round;
      }

      .uuid-cb49d95c-18e8-459d-b7b5-1b5c6d4b6d33, .uuid-1bd459ee-3e86-4ab0-8ca7-9f1d28e7821b, .uuid-9e6c6a35-d2f6-4ae0-951a-9d22770e9b35 {
        stroke-width: 2px;
      }

      .uuid-b2f3ed1d-5c30-4614-b99f-eaad7ebd5d96 {
        stroke-width: 2px;
      }

      .uuid-1ab747fd-048c-4897-9f0a-d0eb8569cbe1 {
        fill: #f9a723;
      }

      .uuid-1bd459ee-3e86-4ab0-8ca7-9f1d28e7821b {
        fill: #ffff0d;
      }

      .uuid-55198174-3401-4ad9-94f7-c8a54995cc5e {
        clip-path: url(#uuid-cca5cbc4-5e03-4551-b42d-78a54b79ec4d);
      }
    </style><clipPath id="uuid-cca5cbc4-5e03-4551-b42d-78a54b79ec4d"><path class="uuid-46c841ce-3b67-4779-b315-85ce00fa542b" d="m187.08,173.64l-1.95-7.59c-.18-.71-.1-1.46.24-2.11,2.02-3.91,10.25-18.26,28.21-31.73,0,0,23.2-20.5,68.77-17.54,40.38,2.63,70.17,28.44,76.43,34.29.77.71,1.1,1.77.89,2.8l-1.27,6.15c-.18.88-.75,1.64-1.55,2.05-4.05,2.11-16.93,8.97-24.55,14.58-1.2.88-2.85.75-3.89-.31-6.9-7.06-33.64-30.87-78.7-28.82-48.78,2.23-62.63,28.23-62.63,28.23h0Z"/></clipPath><clipPath id="uuid-96d0c1a6-a810-45b4-bcd2-6cce64fda90e"><path class="uuid-46c841ce-3b67-4779-b315-85ce00fa542b" d="m393.75,182.6l1.89.33c1.67.29,3.23.98,4.57,2.02,5.28,4.08,18.96,14.87,19.85,17.97,1.11,3.84.61,9.81.61,9.81,0,0-14.8,20.22-33.94,24-19.15,3.78-95.09,20.88-194.19,14-25.46-1.77-33.57-7.97-33.57-7.97,0,0-.67-6.72-.88-9.01-.2-2.29,8.63-7.28,8.63-7.28,0,0-.09-3.54-.15-7.07-.05-3.11,1.62-5.99,4.35-7.48l5.11-2.8s-.67,6.19-.69,9.6c0,0,28.24,2.76,62.76,1.42,34.52-1.35,57.44-3.1,64.58-3.37,7.15-.27,19.89,8.39,19.89,8.39,0,0,41.19-6.91,55.21-14.46,14.02-7.55,15.95-28.08,15.95-28.08h0Z"/></clipPath></defs><g id="uuid-9b290a8c-1546-4f24-aae8-16bce36dddf7" data-name="uuid-23968290-0a3a-4a15-8166-5b4124cfd492"><g><path class="uuid-1bd459ee-3e86-4ab0-8ca7-9f1d28e7821b" d="m281.13,233.94c75.24-6.27,104.36-20.83,104.36-20.83l12.32-16.88c-12.1-54.27-66.47-90.62-125.26-82.17-61.12,8.79-104.01,62.7-96.37,120.76,13.82,1.47,48.52,3.82,104.95-.88h0Z"/><path class="uuid-9e6c6a35-d2f6-4ae0-951a-9d22770e9b35" d="m204.85,189.49s14.94-1.52,20.48-15.09"/><g><path class="uuid-1ab747fd-048c-4897-9f0a-d0eb8569cbe1" d="m187.08,173.64l-1.95-7.59c-.18-.71-.1-1.46.24-2.11,2.02-3.91,10.25-18.26,28.21-31.73,0,0,23.2-20.5,68.77-17.54,40.38,2.63,70.17,28.44,76.43,34.29.77.71,1.1,1.77.89,2.8l-1.27,6.15c-.18.88-.75,1.64-1.55,2.05-4.05,2.11-16.93,8.97-24.55,14.58-1.2.88-2.85.75-3.89-.31-6.9-7.06-33.64-30.87-78.7-28.82-48.78,2.23-62.63,28.23-62.63,28.23h0Z"/><g class="uuid-55198174-3401-4ad9-94f7-c8a54995cc5e"><g><path class="uuid-9e6c6a35-d2f6-4ae0-951a-9d22770e9b35" d="m184.86,164.97s20.97-27.38,68.16-27.51c51.57-.14,79.22,28.15,79.22,28.15,8.45-5.6,27.77-15.48,27.77-15.48"/><line class="uuid-9e6c6a35-d2f6-4ae0-951a-9d22770e9b35" x1="332.24" y1="165.62" x2="330.2" y2="176.16"/></g></g><path class="uuid-9e6c6a35-d2f6-4ae0-951a-9d22770e9b35" d="m187.08,173.64l-1.95-7.59c-.18-.71-.1-1.46.24-2.11,2.02-3.91,10.25-18.26,28.21-31.73,0,0,23.2-20.5,68.77-17.54,40.38,2.63,70.17,28.44,76.43,34.29.77.71,1.1,1.77.89,2.8l-1.27,6.15c-.18.88-.75,1.64-1.55,2.05-4.05,2.11-16.93,8.97-24.55,14.58-1.2.88-2.85.75-3.89-.31-6.9-7.06-33.64-30.87-78.7-28.82-48.78,2.23-62.63,28.23-62.63,28.23h0Z"/></g><g><path class="uuid-1ab747fd-048c-4897-9f0a-d0eb8569cbe1" d="m393.75,182.6l1.89.33c1.67.29,3.23.98,4.57,2.02,5.28,4.08,18.96,14.87,19.85,17.97,1.11,3.84.61,9.81.61,9.81,0,0-14.8,20.22-33.94,24-19.15,3.78-95.09,20.88-194.19,14-25.46-1.77-33.57-7.97-33.57-7.97,0,0-.67-6.72-.88-9.01-.2-2.29,8.63-7.28,8.63-7.28,0,0-.09-3.54-.15-7.07-.05-3.11,1.62-5.99,4.35-7.48l5.11-2.8s-.67,6.19-.69,9.6c0,0,28.24,2.76,62.76,1.42,34.52-1.35,57.44-3.1,64.58-3.37,7.15-.27,19.89,8.39,19.89,8.39,0,0,41.19-6.91,55.21-14.46,14.02-7.55,15.95-28.08,15.95-28.08h0Z"/><g class="uuid-51c94c6f-fd18-4e3b-98c7-3f099a22fee0"><g><path class="uuid-9e6c6a35-d2f6-4ae0-951a-9d22770e9b35" d="m158.09,233.74c.88,9.01,49.4,12.98,100.52,11.46,72.08-2.15,125.26-14.09,130.42-16.11,5.16-2.02,21.67-12.4,31.04-26.17"/><line class="uuid-9e6c6a35-d2f6-4ae0-951a-9d22770e9b35" x1="389.02" y1="229.09" x2="389.71" y2="236"/><path class="uuid-9e6c6a35-d2f6-4ae0-951a-9d22770e9b35" d="m166.72,226.46l.24,7.42s9,7.15,85.04,5.93c25.97-.41,51.15-2.46,73.03-6.22,42.18-7.25,67.12-10.07,74.4-40.81"/><path class="uuid-9e6c6a35-d2f6-4ae0-951a-9d22770e9b35" d="m175.35,218.7c-4.55-.44-3.26-3.24-3.26-3.24"/></g></g><path class="uuid-9e6c6a35-d2f6-4ae0-951a-9d22770e9b35" d="m393.75,182.6l1.89.33c1.67.29,3.23.98,4.57,2.02,5.28,4.08,18.96,14.87,19.85,17.97,1.11,3.84.61,9.81.61,9.81,0,0-14.8,20.22-33.94,24-19.15,3.78-95.09,20.88-194.19,14-25.46-1.77-33.57-7.97-33.57-7.97,0,0-.67-6.72-.88-9.01-.2-2.29,8.63-7.28,8.63-7.28,0,0-.09-3.54-.15-7.07-.05-3.11,1.62-5.99,4.35-7.48l5.11-2.8s-.67,6.19-.69,9.6c0,0,28.24,2.76,62.76,1.42,34.52-1.35,57.44-3.1,64.58-3.37,7.15-.27,19.89,8.39,19.89,8.39,0,0,41.19-6.91,55.21-14.46,14.02-7.55,15.95-28.08,15.95-28.08h0Z"/></g><g><path class="uuid-cb49d95c-18e8-459d-b7b5-1b5c6d4b6d33" d="m379.46,212.59c-1.27.62-9.71,4.59-11.04,4.93-10.68,2.77-22.72-3.19-28.34-14.7-5.53-11.32-3.01-24.24,5.4-31.06,1.2-.97,9.66-5.31,11.09-6.01,6.51,13.31,17.78,36.38,22.89,46.83h0Z"/><ellipse class="uuid-b2f3ed1d-5c30-4614-b99f-eaad7ebd5d96" cx="368.02" cy="189.18" rx="23.15" ry="26.06" transform="translate(-45.69 180.81) rotate(-26.05)"/><ellipse class="uuid-b2f3ed1d-5c30-4614-b99f-eaad7ebd5d96" cx="368.02" cy="189.18" rx="16.01" ry="18.02" transform="translate(-45.69 180.81) rotate(-26.05)"/><path class="uuid-cb49d95c-18e8-459d-b7b5-1b5c6d4b6d33" d="m357.1,174.97c-5.59,4.77-7.23,13.53-3.46,21.23,3.76,7.7,11.68,11.79,18.88,10.31,5.59-4.77,7.23-13.53,3.47-21.23-3.76-7.7-11.68-11.79-18.88-10.31Z"/></g></g></g></svg>
</svg>