<?xml version="1.0" encoding="UTF-8"?>
<svg xmlns="http://www.w3.org/2000/svg" viewBox="0 0 600 600">
<svg id="uuid-76576d14-1db9-41e1-baf2-b575b174d48a" data-name="BACKGROUND" xmlns="http://www.w3.org/2000/svg" viewBox="0 0 600 600"><defs><style>
      .uuid-5f5134e1-be85-4028-9053-a97aa84d746d {
        fill: #f9a723;
      }
    </style></defs><rect class="uuid-5f5134e1-be85-4028-9053-a97aa84d746d" x="-1" y="-1" width="602" height="602"/></svg>
<svg id="uuid-9722f958-7a1b-41d5-b127-5f5664340acc" data-name="BACKGROUND" xmlns="http://www.w3.org/2000/svg" viewBox="0 0 600 600"><defs><style>
      .uuid-38d319f8-e1e2-4e35-8358-20269c2b2afc, .uuid-04aa5705-a527-4798-9248-8fcc4f62d66b {
        fill: #fff;
      }

      .uuid-9f9f1948-40a0-4747-af1d-9594efb41061, .uuid-621ab9aa-9a02-467e-87ae-ac926dafbcb1, .uuid-04aa5705-a527-4798-9248-8fcc4f62d66b, .uuid-c9a14ba2-b8bc-42e5-9f8d-275d1fff3c56, .uuid-6105d9dd-9f9c-48ac-a1fa-9ace9529afd0, .uuid-39fc5d50-c0b6-4d72-9b97-695125c5be4a, .uuid-332aab89-d113-4256-b1ac-e39bd2d752c7 {
        stroke: #000;
        stroke-width: 2px;
      }

      .uuid-9f9f1948-40a0-4747-af1d-9594efb41061, .uuid-621ab9aa-9a02-467e-87ae-ac926dafbcb1, .uuid-04aa5705-a527-4798-9248-8fcc4f62d66b, .uuid-39fc5d50-c0b6-4d72-9b97-695125c5be4a {
        stroke-miterlimit: 10;
      }

      .uuid-9f9f1948-40a0-4747-af1d-9594efb41061, .uuid-621ab9aa-9a02-467e-87ae-ac926dafbcb1, .uuid-c9a14ba2-b8bc-42e5-9f8d-275d1fff3c56, .uuid-332aab89-d113-4256-b1ac-e39bd2d752c7 {
        fill: #ffff0d;
      }

      .uuid-621ab9aa-9a02-467e-87ae-ac926dafbcb1, .uuid-04aa5705-a527-4798-9248-8fcc4f62d66b, .uuid-c9a14ba2-b8bc-42e5-9f8d-275d1fff3c56, .uuid-6105d9dd-9f9c-48ac-a1fa-9ace9529afd0, .uuid-39fc5d50-c0b6-4d72-9b97-695125c5be4a {
        stroke-linecap: round;
      }

      .uuid-c9a14ba2-b8bc-42e5-9f8d-275d1fff3c56, .uuid-6105d9dd-9f9c-48ac-a1fa-9ace9529afd0, .uuid-332aab89-d113-4256-b1ac-e39bd2d752c7 {
        stroke-linejoin: round;
      }

      .uuid-6105d9dd-9f9c-48ac-a1fa-9ace9529afd0 {
        fill: none;
      }

      .uuid-39fc5d50-c0b6-4d72-9b97-695125c5be4a {
        fill: #7aa6ff;
      }
    </style></defs><path class="uuid-c9a14ba2-b8bc-42e5-9f8d-275d1fff3c56" d="m409.81,359.6c9.2,3.77,29.89,12.05,42.79,16.03,2.11.65,4.41.69,6.5-.04,11.79-4.08,28.47-11.39,33.03-11.32,5.25.08,7.8,3.93,19.88,2.04,13.36-2.1,22.43-11.99,20.93-23.3-4.21-43.28-25.18-26.79-25.18-26.79,0,0-5.84-8.75-18.76-4.82-11.83,3.6-10.2,14.44-6.47,22.47l-25.29,8.58c-2.14.72-4.45.71-6.59-.02l-35.7-12.61"/><path class="uuid-621ab9aa-9a02-467e-87ae-ac926dafbcb1" d="m533.36,312.82c2.5,3.94,1.62,9.14-1.57,12.4-2.47,2.53-5.88,3.88-9.32,4.4-2.8.43-5.7.42-8.49-.08-2.14-.39-4.29-1.1-5.79-2.75-1.66-1.83-2.27-4.46-1.98-6.87.51-4.17,3.84-7.14,7.22-9.26,3.17-1.98,6.86-3.26,10.64-3.09,3.8.18,7.36,2.19,9.3,5.24Z"/><path class="uuid-621ab9aa-9a02-467e-87ae-ac926dafbcb1" d="m538.57,349.84c.97,3.03.32,6.43-1.5,9.01-3.77,5.33-11.17,5.65-16.96,4.27-3.31-.79-6.69-2.21-8.67-5.13-3.13-4.61-.82-9.79,3.48-12.56,2.58-1.66,5.61-2.67,8.63-3.14,5.73-.89,13.1,1.51,15.03,7.56Z"/><path class="uuid-621ab9aa-9a02-467e-87ae-ac926dafbcb1" d="m538.71,328.53c1.8,2.99,2.06,6.89.22,9.9-1.95,3.2-4.94,5.25-8.49,6.28-3.66,1.07-7.64,1.27-11.4.44-2.25-.5-4.53-1.38-5.96-3.28-1.86-2.47-1.89-5.68-.85-8.49,1.2-3.24,4.17-5.69,7.09-7.37,6.15-3.56,15.21-4.43,19.39,2.52Z"/><path class="uuid-621ab9aa-9a02-467e-87ae-ac926dafbcb1" d="m501.85,311.68s9.27,3.84,7.77,12.02c-1.04,5.68-8.17,9.55-14.94,6.13"/><path class="uuid-6105d9dd-9f9c-48ac-a1fa-9ace9529afd0" d="m500.67,331.08c2.41,1.63,5.11,8.04,3.4,14.42"/><path d="m443.44,339.88c-2.88,10.58-6.94,20.23-11.17,28.59-10.17-3.78-21.16-9.53-27-11.93l11.83-26.02,26.35,9.36Z"/><ellipse cx="300" cy="518.65" rx="138.6" ry="22.93"/><path class="uuid-9f9f1948-40a0-4747-af1d-9594efb41061" d="m319.36,427.14c-1.16,1.05-54.95,57-54.95,57,0,0,21.51-1.95,31.74,10.62,10.23,12.57,7.26,23.89,7.26,23.89h-66.9s-28.69-36.17-28.69-36.17c0,0,3.74-13.4,20.44-10.59,20.9-19.38,55.52-59.13,55.52-59.13l35.59,14.38Z"/><path d="m283.78,412.76l31.28,12.64-3.24,9.5c-2.93,3.03-9.76,10.12-13.64,14.14-11.92,0-27.98-2.13-41.33-6.37,13.95-15.1,26.93-29.92,26.93-29.92Z"/><path class="uuid-9f9f1948-40a0-4747-af1d-9594efb41061" d="m354.45,173.54l-.11.27-174.2,58.29c-11.49,20.13-18.05,43.43-18.05,68.27,0,76.2,61.77,137.98,137.97,137.98s137.98-61.77,137.98-137.98c0-56.89-34.43-105.72-83.58-126.83Z"/><path class="uuid-6105d9dd-9f9c-48ac-a1fa-9ace9529afd0" d="m264.41,484.14c-4.06.49-11.49,1.36-17.85,7.23"/><path class="uuid-38d319f8-e1e2-4e35-8358-20269c2b2afc" d="m185.17,308.14c-4.41,0-7.98-3.57-7.98-7.98,0-67.74,55.11-122.86,122.86-122.86,4.41,0,7.98,3.57,7.98,7.98s-3.57,7.98-7.98,7.98c-58.94,0-106.9,47.95-106.9,106.9,0,4.41-3.57,7.98-7.98,7.98Z"/><path d="m203.75,397.46l34.2-27.46-24.86,36.3c-6.73-5.1-3.66-2.61-9.34-8.83Z"/><path class="uuid-332aab89-d113-4256-b1ac-e39bd2d752c7" d="m323.72,387.31c19.14-13.4,39.15-11.3,55.52,7.36,19.6,22.35,30.57,33.06,30.57,33.06,0,0,10.74-19.34,34.77-17.5,18.26,1.4,24.84,14.43,24.84,14.43,0,0,6.21,8.82-22.45,33.5-28.66,24.68-54.93,40.92-61.14,29.46-6.21-11.46-2.82-32.1-2.82-32.1,0,0-22.02-26.09-27.94-32.01-6.79-6.79-15.71-1.36-15.71-1.36"/><path class="uuid-9f9f1948-40a0-4747-af1d-9594efb41061" d="m446.97,458.17c-25.89,22.29-49.82,37.69-58.79,32.02-9.77-7.44,26.84-38.54,44.88-52.7,18.04-14.16,32.17-17.82,36.36-12.81,0,0,6.21,8.82-22.45,33.5Z"/><path class="uuid-6105d9dd-9f9c-48ac-a1fa-9ace9529afd0" d="m409.81,427.74c-1.89,2.86-4.55,10.38-4.55,10.38"/><ellipse class="uuid-04aa5705-a527-4798-9248-8fcc4f62d66b" cx="269.41" cy="209.07" rx="94.9" ry="26.25" transform="translate(-52.5 96.54) rotate(-18.55)"/><ellipse class="uuid-39fc5d50-c0b6-4d72-9b97-695125c5be4a" cx="269.41" cy="209.07" rx="71.19" ry="13.32" transform="translate(-52.5 96.54) rotate(-18.55)"/><g><path class="uuid-c9a14ba2-b8bc-42e5-9f8d-275d1fff3c56" d="m214.11,345.7c-8.05,5.83-25.34,20.79-35.52,29.67-1.67,1.45-2.82,3.41-3.39,5.55-3.14,11.67-8.55,33.44-8.55,33.44,0,0-8.42.58-12.19,14.35-3.64,13.3-6.64,25.06,3.77,29.75.35,7.47,7.51,15.45,19.2,9.41.14-.06,1.32,1.32,1.44,1.45,2.64,2.7,6.36,4.45,10.13,4.81,3.65.36,7.61-.67,10.43-3.08,3.29-2.81,5.4-6.94,6.05-11.2.4-2.61.26-5.31-.75-7.78,0,0,6.2-2.51,8.05-11.34,1.99-9.49-4.22-19.42-14.62-18.18l6.17-23.11c.51-2.2,1.74-4.16,3.49-5.59l29.38-24.3"/><path class="uuid-6105d9dd-9f9c-48ac-a1fa-9ace9529afd0" d="m204.73,452.06c-1.37-3.47-5.39-7.08-9-6.88"/><path class="uuid-6105d9dd-9f9c-48ac-a1fa-9ace9529afd0" d="m178.86,469.3c-5.16-5.27-3.82-11.97-2.9-13.54"/><path class="uuid-6105d9dd-9f9c-48ac-a1fa-9ace9529afd0" d="m158.22,458.45c-.27-5.22.73-7.32,3.06-9.83"/><path class="uuid-6105d9dd-9f9c-48ac-a1fa-9ace9529afd0" d="m193.93,450.63c.14-2.07.48-4.16,1.32-6.06.85-1.95,2.36-3.88,4.31-4.85"/></g></svg>
<svg id="uuid-ffac6761-6b9e-4a13-ab42-3dfadf65c420" data-name="BODY" xmlns="http://www.w3.org/2000/svg" viewBox="0 0 600 600"><circle cx="369.54" cy="262.94" r="9.78" transform="translate(-8.58 12.49) rotate(-1.91)"/><circle cx="362.12" cy="293.18" r="9.78" transform="translate(-9.59 12.26) rotate(-1.91)"/><circle cx="337.63" cy="273.96" r="9.78" transform="translate(-8.96 11.43) rotate(-1.91)"/></svg>
<svg id="uuid-c5dddc68-6ada-4116-b645-d03ebc480c27" data-name="BODY" xmlns="http://www.w3.org/2000/svg" xmlns:xlink="http://www.w3.org/1999/xlink" viewBox="0 0 600 600"><defs><style>
      .uuid-2567def0-8698-4265-9746-d0bc6967be93, .uuid-0562be6e-ffb4-47be-9bb1-48a29995208a, .uuid-80e162d4-8829-4ebf-85b2-a8fe674d77f3, .uuid-4db2b783-a1a5-4d26-ac75-2744874e22af {
        fill: none;
      }

      .uuid-712c89ac-99fe-40ee-8eee-f5af0112c987, .uuid-7a510ee3-bdcb-4485-b3e0-7e4f4341de5d {
        fill: #ffff0d;
      }

      .uuid-72fac4dd-26f1-4077-b6b6-7c4003149463 {
        fill: #ff78d8;
      }

      .uuid-72fac4dd-26f1-4077-b6b6-7c4003149463, .uuid-7a510ee3-bdcb-4485-b3e0-7e4f4341de5d, .uuid-a1fed1fc-4fc0-4285-843b-ea2281428dd2, .uuid-80fbf365-2f03-4e31-9a7d-a58cbc68ba7c, .uuid-aa64e389-c72b-4038-9104-9878c2d0f048, .uuid-d6627eaf-33b8-4d81-ab57-85345f61b522, .uuid-0562be6e-ffb4-47be-9bb1-48a29995208a {
        stroke: #000;
        stroke-linecap: round;
        stroke-linejoin: round;
      }

      .uuid-72fac4dd-26f1-4077-b6b6-7c4003149463, .uuid-7a510ee3-bdcb-4485-b3e0-7e4f4341de5d, .uuid-aa64e389-c72b-4038-9104-9878c2d0f048, .uuid-d6627eaf-33b8-4d81-ab57-85345f61b522, .uuid-0562be6e-ffb4-47be-9bb1-48a29995208a {
        stroke-width: 2px;
      }

      .uuid-a1fed1fc-4fc0-4285-843b-ea2281428dd2 {
        stroke-width: 2px;
      }

      .uuid-a1fed1fc-4fc0-4285-843b-ea2281428dd2, .uuid-80fbf365-2f03-4e31-9a7d-a58cbc68ba7c, .uuid-aa64e389-c72b-4038-9104-9878c2d0f048 {
        fill: #fff;
      }

      .uuid-80fbf365-2f03-4e31-9a7d-a58cbc68ba7c {
        stroke-width: 2px;
      }

      .uuid-d6627eaf-33b8-4d81-ab57-85345f61b522 {
        fill: #00dfa9;
      }

      .uuid-80e162d4-8829-4ebf-85b2-a8fe674d77f3 {
        clip-path: url(#uuid-df096713-fdda-48f8-9c1c-a9406374f0cc);
      }

      .uuid-4db2b783-a1a5-4d26-ac75-2744874e22af {
        clip-path: url(#uuid-3e2076b4-c9c1-4dc8-b8fd-37a273dcbc37);
      }
    </style><clipPath id="uuid-df096713-fdda-48f8-9c1c-a9406374f0cc"><path class="uuid-2567def0-8698-4265-9746-d0bc6967be93" d="m363.4,432.9s-8.1-9.4-9.8-10.6c-1.7-1.2-3.6-1.8-3.6-1.8,0,0-2.8-25.8,25.2-30.1l14.1,15.5s-2.9,7.2-9.7,16.6c-6.8,9.4-16.1,10.3-16.1,10.3l-.1.1Z"/></clipPath><clipPath id="uuid-3e2076b4-c9c1-4dc8-b8fd-37a273dcbc37"><path class="uuid-2567def0-8698-4265-9746-d0bc6967be93" d="m270.8,477.5l15.9-16.5s-9.6-1.4-17.3-7.7c-7.7-6.4-9.9-13.5-9.9-13.5l-15.5,16.5s-3,8.3,9,17.9c8.7,6.9,17.8,3.3,17.8,3.3h0Z"/></clipPath></defs><g id="uuid-1bc504d8-c3de-4e3f-9ed5-9b0bd381f76d" data-name="uuid-d19fd1aa-f160-4434-8ee1-8fc783292307"><g id="uuid-515fa590-8391-4f06-b616-e4dcfd3f254d" data-name="uuid-a613e983-7e29-4acc-9c52-7addab05ae69"><g><g><g><path class="uuid-712c89ac-99fe-40ee-8eee-f5af0112c987" d="m363.4,432.9s-8.1-9.4-9.8-10.6c-1.7-1.2-3.6-1.8-3.6-1.8,0,0-2.8-25.8,25.2-30.1l14.1,15.5s-2.9,7.2-9.7,16.6c-6.8,9.4-16.1,10.3-16.1,10.3l-.1.1Z"/><g class="uuid-80e162d4-8829-4ebf-85b2-a8fe674d77f3"><g><path class="uuid-d6627eaf-33b8-4d81-ab57-85345f61b522" d="m387.9,399.3c-19.7,4-26.8,19.8-29.1,31.4l6.4,6.9,24.7-9.9,4.9-27.2-6.9-1.2h0Z"/><path class="uuid-72fac4dd-26f1-4077-b6b6-7c4003149463" d="m381.8,393.8s-12,1-20.2,11.5-7.6,22.4-7.6,22.4l-8.8-5.6s-2.9-15.3,7.5-25c10.4-9.7,22.6-12.3,22.6-12.3l6.6,9h-.1Z"/></g></g><path class="uuid-0562be6e-ffb4-47be-9bb1-48a29995208a" d="m363.4,432.9s-8.1-9.4-9.8-10.6c-1.7-1.2-3.6-1.8-3.6-1.8,0,0-2.8-25.8,25.2-30.1l14.1,15.5s-2.9,7.2-9.7,16.6c-6.8,9.4-16.1,10.3-16.1,10.3l-.1.1Z"/></g><g><path class="uuid-aa64e389-c72b-4038-9104-9878c2d0f048" d="m383.1,481.9s-8.5-6.2-2.5-24.9l-17.6-18.8s-1.3-10.6,10.9-22.7c12.2-12.1,21.4-10.5,21.4-10.5l14.1,16.4s9.7-11.6,26.6-14.3c16.9-2.6,29.9,9.7,29.9,9.7,0,0-22.6,5.1-49,28.9-26.4,23.8-33.8,36.3-33.8,36.3v-.1Z"/><path class="uuid-0562be6e-ffb4-47be-9bb1-48a29995208a" d="m409.4,421.3c-4.8,5.4-7.6,15.2-7.6,15.2"/></g><g><g><path class="uuid-72fac4dd-26f1-4077-b6b6-7c4003149463" d="m468.1,415.9c-2.2-1.1-22.3,0-54.1,28.2-31.8,28.2-34.5,37.1-33.9,41.6.5,3.5,3.2,9.5,12.8,9.6,9.6.1,27.3-9.6,50.2-28.8,31.1-26,31.2-37.4,31.1-41.1s-2.9-7.9-6.1-9.6v.1Z"/><path class="uuid-72fac4dd-26f1-4077-b6b6-7c4003149463" d="m466.2,426.1c-7.4-6.6-85.3,55.5-74.3,61.3,11.1,5.7,82.6-53.8,74.3-61.3Z"/></g><g><g><g><path class="uuid-7a510ee3-bdcb-4485-b3e0-7e4f4341de5d" d="m395.3,500.2c3,3.6,8.3,4.1,11.9,1.1,3.6-3,4.1-8.3,1.1-11.9l-3.9-4.7-2,1.7c-2.1-.1-4.2.5-6,1.9-1.8,1.4-2.7,3.4-3,5.5l-2,1.7,3.9,4.7h0Z"/><circle class="uuid-7a510ee3-bdcb-4485-b3e0-7e4f4341de5d" cx="397.8" cy="490.1" r="8.4"/></g><g><path class="uuid-7a510ee3-bdcb-4485-b3e0-7e4f4341de5d" d="m412.5,485.8c3,3.6,8.3,4.1,11.9,1.1,3.6-3,4.1-8.3,1.1-11.9l-3.9-4.7-2,1.7c-2.1-.1-4.2.5-6,1.9-1.7,1.4-2.7,3.4-3,5.5l-2,1.7,3.9,4.7h0Z"/><circle class="uuid-7a510ee3-bdcb-4485-b3e0-7e4f4341de5d" cx="415.1" cy="475.7" r="8.4"/></g><g><path class="uuid-7a510ee3-bdcb-4485-b3e0-7e4f4341de5d" d="m429.8,471.4c3,3.6,8.3,4.1,11.9,1.1,3.6-3,4.1-8.3,1.1-11.9l-3.9-4.7-2,1.7c-2.1-.1-4.2.5-6,1.9-1.7,1.4-2.7,3.4-3,5.5l-2,1.7,3.9,4.7h0Z"/><circle class="uuid-7a510ee3-bdcb-4485-b3e0-7e4f4341de5d" cx="432.4" cy="461.3" r="8.4"/></g><g><path class="uuid-7a510ee3-bdcb-4485-b3e0-7e4f4341de5d" d="m447.1,457c3,3.6,8.3,4.1,11.9,1.1,3.6-3,4.1-8.3,1.1-11.9l-3.9-4.7-2,1.7c-2.1-.1-4.2.5-6,1.9-1.7,1.4-2.7,3.4-3,5.5l-2,1.7,3.9,4.7h0Z"/><circle class="uuid-7a510ee3-bdcb-4485-b3e0-7e4f4341de5d" cx="449.7" cy="446.9" r="8.4"/></g><g><path class="uuid-7a510ee3-bdcb-4485-b3e0-7e4f4341de5d" d="m464.4,442.6c3,3.6,8.3,4.1,11.9,1.1,3.6-3,4.1-8.3,1.1-11.9l-3.9-4.7-2,1.7c-2.1-.1-4.2.5-6,1.9-1.7,1.4-2.7,3.4-3,5.5l-2,1.7,3.9,4.7h0Z"/><circle class="uuid-7a510ee3-bdcb-4485-b3e0-7e4f4341de5d" cx="466.9" cy="432.5" r="8.4"/></g></g><g><path class="uuid-80fbf365-2f03-4e31-9a7d-a58cbc68ba7c" d="m394.62,469.33l.46-.38c1.08-.9,2.62-.76,3.52.32l11.84,14.21-4.3,3.58-11.84-14.21c-.9-1.08-.76-2.62.32-3.52Z"/><path class="uuid-80fbf365-2f03-4e31-9a7d-a58cbc68ba7c" d="m427.64,438.72l.46-.38c1.08-.9,2.62-.76,3.52.32l13.38,16.06-4.3,3.58-13.38-16.06c-.9-1.08-.76-2.62.32-3.52Z"/><path class="uuid-80fbf365-2f03-4e31-9a7d-a58cbc68ba7c" d="m446.47,426.08l.46-.38c1.08-.9,2.62-.76,3.52.32l11.84,14.21-4.3,3.58-11.84-14.21c-.9-1.08-.76-2.62.32-3.52Z"/><rect class="uuid-80fbf365-2f03-4e31-9a7d-a58cbc68ba7c" x="391.83" y="480.16" width="29.4" height="5.6" rx="2.5" ry="2.5" transform="translate(-214.95 372.13) rotate(-39.8)"/><rect class="uuid-80fbf365-2f03-4e31-9a7d-a58cbc68ba7c" x="424.05" y="444.26" width="51.3" height="5.6" rx="2.5" ry="2.5" transform="translate(-181.96 391.45) rotate(-39.8)"/></g></g></g></g><g><g><g><g><path class="uuid-7a510ee3-bdcb-4485-b3e0-7e4f4341de5d" d="m209.9,505.8c3.3-3.3,3.3-8.6,0-11.9s-8.6-3.3-11.9,0l-4.3,4.3,1.9,1.9c0,2.1.9,4.2,2.5,5.8,1.6,1.6,3.7,2.4,5.8,2.5l1.9,1.9,4.3-4.3-.2-.2Z"/><circle class="uuid-7a510ee3-bdcb-4485-b3e0-7e4f4341de5d" cx="199.7" cy="504.1" r="8.4"/></g><g><path class="uuid-7a510ee3-bdcb-4485-b3e0-7e4f4341de5d" d="m226.9,522.5c3.3-3.3,3.3-8.6,0-11.9-3.3-3.3-8.6-3.3-11.9,0l-4.3,4.3,1.9,1.9c0,2.1.9,4.2,2.5,5.8,1.6,1.6,3.7,2.4,5.8,2.5l1.9,1.9,4.3-4.3-.2-.2Z"/><circle class="uuid-7a510ee3-bdcb-4485-b3e0-7e4f4341de5d" cx="216.6" cy="520.8" r="8.4"/></g></g><path class="uuid-72fac4dd-26f1-4077-b6b6-7c4003149463" d="m211.4,475.2l25.7,33.5c.9,1.1,2.2,1.8,3.6,1.8h64.4c2.3,0,4.1,1.8,4.1,4.1v4.6c0,2.3-1.8,4.1-4.1,4.1h-68c-3,0-5.8-1.4-7.6-3.8l-27-35.4c-.9-1.2-.9-2.9,0-4.1l3.5-4.7c1.3-1.8,4-1.8,5.4,0v-.1Z"/><g><path class="uuid-a1fed1fc-4fc0-4285-843b-ea2281428dd2" d="m220.8,499.6l.41.43c.97,1.01.93,2.57-.09,3.53l-13.4,12.76-3.86-4.06,13.4-12.76c1.01-.97,2.57-.93,3.53.09Z"/><rect class="uuid-a1fed1fc-4fc0-4285-843b-ea2281428dd2" x="205.14" y="497.66" width="5.6" height="29.4" rx="2.5" ry="2.5" transform="translate(-295.98 284.73) rotate(-43.6)"/></g><g><g><path class="uuid-7a510ee3-bdcb-4485-b3e0-7e4f4341de5d" d="m255.9,537.7c3.3-3.3,3.3-8.6,0-11.9-3.3-3.3-8.6-3.3-11.9,0l-4.3,4.3,1.9,1.9c0,2.1.9,4.2,2.5,5.8,1.6,1.6,3.7,2.4,5.8,2.5l1.9,1.9,4.3-4.3-.2-.2Z"/><circle class="uuid-7a510ee3-bdcb-4485-b3e0-7e4f4341de5d" cx="245.6" cy="536" r="8.4"/></g><g><path class="uuid-7a510ee3-bdcb-4485-b3e0-7e4f4341de5d" d="m279.5,537.7c3.3-3.3,3.3-8.6,0-11.9-3.3-3.3-8.6-3.3-11.9,0l-4.3,4.3,1.9,1.9c0,2.1.9,4.2,2.5,5.8s3.7,2.4,5.8,2.5l1.9,1.9,4.3-4.3-.2-.2Z"/><circle class="uuid-7a510ee3-bdcb-4485-b3e0-7e4f4341de5d" cx="269.2" cy="536" r="8.4"/></g><g><path class="uuid-7a510ee3-bdcb-4485-b3e0-7e4f4341de5d" d="m303,537.7c3.3-3.3,3.3-8.6,0-11.9-3.3-3.3-8.6-3.3-11.9,0l-4.3,4.3,1.9,1.9c0,2.1.9,4.2,2.5,5.8s3.7,2.4,5.8,2.5l1.9,1.9,4.3-4.3-.2-.2Z"/><circle class="uuid-7a510ee3-bdcb-4485-b3e0-7e4f4341de5d" cx="292.8" cy="536" r="8.4"/></g></g><g><path class="uuid-aa64e389-c72b-4038-9104-9878c2d0f048" d="m257.6,517.8h.6c1.4,0,2.5,1.1,2.5,2.5v18.5h-5.6v-18.5c0-1.4,1.1-2.5,2.5-2.5Z"/><path class="uuid-aa64e389-c72b-4038-9104-9878c2d0f048" d="m280.1,517.8h.6c1.4,0,2.5,1.1,2.5,2.5v18.5h-5.6v-18.5c0-1.4,1.1-2.5,2.5-2.5Z"/><rect class="uuid-aa64e389-c72b-4038-9104-9878c2d0f048" x="243.6" y="533.1" width="51.3" height="5.6" rx="2.5" ry="2.5"/></g></g><g><path class="uuid-712c89ac-99fe-40ee-8eee-f5af0112c987" d="m270.8,477.5l15.9-16.5s-9.6-1.4-17.3-7.7c-7.7-6.4-9.9-13.5-9.9-13.5l-15.5,16.5s-3,8.3,9,17.9c8.7,6.9,17.8,3.3,17.8,3.3h0Z"/><g class="uuid-4db2b783-a1a5-4d26-ac75-2744874e22af"><g><path class="uuid-72fac4dd-26f1-4077-b6b6-7c4003149463" d="m251.9,441.6s2.3,9.8,13.2,18.3c10.6,8.3,20.8,8.3,20.8,8.3l10.6-11.2-37-24.9-7.7,9.5h.1Z"/><path class="uuid-d6627eaf-33b8-4d81-ab57-85345f61b522" d="m238.9,458.4l9.3-9.3s3.7,10.6,11,16.3c6.7,5.3,17.7,8.6,17.7,8.6l-8.5,9.8-29.4-25.3-.1-.1Z"/></g></g><path class="uuid-0562be6e-ffb4-47be-9bb1-48a29995208a" d="m270.8,477.5l15.9-16.5s-9.6-1.4-17.3-7.7c-7.7-6.4-9.9-13.5-9.9-13.5l-15.5,16.5s-3,8.3,9,17.9c8.7,6.9,17.8,3.3,17.8,3.3h0Z"/></g><g><path class="uuid-aa64e389-c72b-4038-9104-9878c2d0f048" d="m305.5,513.5h-68.3l-28.5-37.4s5.9-8.1,18.8-6.7l14.2-15.9c1-1.1,2.4-1.7,3.9-1.7h2.5c0,.1-4.1,4.4-4.1,4.4,0,0,4.3,19.6,26.8,21.2l3.3-3.4.6,1.8c.4,1.2.1,2.6-.8,3.6l-1.7,1.7s33.4,1.9,33.4,32.4h-.1Z"/><path class="uuid-0562be6e-ffb4-47be-9bb1-48a29995208a" d="m272.1,481.2c-8.1-.6-20,1.7-26.6,7.7"/></g></g></g></g></g></svg>
<svg id="uuid-a9b76fb0-fcc9-47a4-8a22-bf2a6be645e3" data-name="BODY" xmlns="http://www.w3.org/2000/svg" xmlns:xlink="http://www.w3.org/1999/xlink" viewBox="0 0 600 600"><defs><style>
      .uuid-b38ce0af-b4e9-45a0-a07c-ddbefe16b92c, .uuid-d0f82b25-b41c-4ccb-b99d-337e8c7b221c, .uuid-4c4391de-0469-45ae-85e6-f51b95112f18, .uuid-50bdb408-0f03-46e1-b11e-5fe1cf11a933 {
        fill: none;
      }

      .uuid-d0f82b25-b41c-4ccb-b99d-337e8c7b221c {
        clip-path: url(#uuid-b3878e00-90a2-4718-a8fa-787c32a78eda);
      }

      .uuid-2929258d-25b8-427e-8de3-6a1749239f1a, .uuid-4586ed58-3c26-4b5c-987c-00247d29fbe1 {
        fill: #7aa6ff;
      }

      .uuid-2929258d-25b8-427e-8de3-6a1749239f1a, .uuid-21d9377c-d8c1-4bc7-8f1d-7cae94ebdb6b, .uuid-50bdb408-0f03-46e1-b11e-5fe1cf11a933, .uuid-d9aa9a53-424e-4bf1-bdbc-808db4883ccb {
        stroke: #000;
        stroke-linecap: round;
        stroke-linejoin: round;
        stroke-width: 2px;
      }

      .uuid-4c4391de-0469-45ae-85e6-f51b95112f18 {
        clip-path: url(#uuid-98c8cd3b-e751-42de-aa63-77e0a36d3d5b);
      }

      .uuid-2d96f9ec-d66c-44b5-9875-4c3953027912, .uuid-21d9377c-d8c1-4bc7-8f1d-7cae94ebdb6b {
        fill: #fff;
      }

      .uuid-d9aa9a53-424e-4bf1-bdbc-808db4883ccb {
        fill: #f9a723;
      }
    </style><clipPath id="uuid-98c8cd3b-e751-42de-aa63-77e0a36d3d5b"><path class="uuid-b38ce0af-b4e9-45a0-a07c-ddbefe16b92c" d="m187.46,365.07c0-1.37.16-2.37.16-2.37l11.19-9.37,4.94.54,4.16-3.54-45.5-37.65s-.46-6.93-.57-13.62.57-13.95.57-13.95c19.42,20.93,67.75,51.78,95.66,65.63,27.91,13.85,60.83,24.27,75.34,27.46-5.61,2.07-6.03,4.26-16.69,7.77-10.66,3.51-22.99,2.36-42.4-1.62s-37.12-14.8-37.12-14.8l-8.86,7.52c.26,1.81.19,3.9.19,3.9l-9.7,8.9-5.45-.63,4.68-3.87s-.29-9.76-7.22-16.79c-6.93-7.03-18.28-5.3-18.28-5.3l-4.94,4.24s-.16-1.09-.16-2.46h0Zm237.71.67l8.26,3.17-.47.98c-.39.82-.01,1.79.82,2.14l8.27,3.38c.74.3,1.59,0,1.98-.7,1.53-2.8,5.2-9.98,6.98-17.6,1.78-7.62,1.86-13.58,1.82-16.23-.01-.82-.54-1.54-1.31-1.8l-7.18-2.48c-1.15-.4-2.39.35-2.56,1.56l-.16,1.08-9.17-3.8s-6.31,9.78-8.6,12.83l4.08,11.38-2.76,6.11v-.02Z"/></clipPath><clipPath id="uuid-b3878e00-90a2-4718-a8fa-787c32a78eda"><path class="uuid-b38ce0af-b4e9-45a0-a07c-ddbefe16b92c" d="m439.54,321.73c-4.23,10.84-15.69,26.53-15.69,26.53,0,0,4.15,11.07,4.08,11.38-.08.31-5.02,12.18-14.88,25.28-8.25,10.96-18.86,20.87-18.86,20.87,0,0,6.17,6.74,7.85,8.76s0,5.19,0,5.19l-2.45-2.6s-7.21,3.17-15.1,10.59c-7.89,7.43-11.9,15.53-11.9,15.53l3.02,3.52s-2.64,1.22-4.36-.6c-1.72-1.82-14.76-16.58-14.76-16.58-20.33,9.71-45.4,11.43-45.4,11.43l-35.49,36.3c-28.82-3.13-35.02-23.89-35.02-23.89l17.8-18.01c-32.9-9.98-54.89-32.72-54.89-32.72,0,0,1.26-5.64,2.51-6.89s7.43-6.6,7.43-6.6c0,0,4.99.68,5.45.63.46-.05,8.89-8.04,9.45-8.7s.06-4.11.06-4.11l8.86-7.52c13.1,8.93,45.08,18.91,64.56,18.44,19.48-.47,22.89-6.37,31.45-9.84-8.21-2.19-49.99-12-96.04-38.56-48.62-28.05-72.13-51.81-77.02-57.04-.62-.67-.91-1.58-.78-2.48,1.81-12.31,5.53-24.8,5.82-25.53.3-.76,5.32-2.81,5.32-2.81,0,0-1.67,4.75-2.87,8.54,5.27,9.46,36.81,36.33,81.72,61.73,44.91,25.4,83.33,34.65,89.65,34.75,6.32.1,69.07-15.09,78.08-26.22,9.01-11.12,19.87-48.85,19.87-48.85l-1.33-8.17c4.09.98,4.6,4.25,4.6,4.25,0,0,1.31,7,1.38,20.76.08,13.77-2.08,23.23-2.08,23.23h-.04Zm-231.4,28.58l-45.72-37.62-.24-3.05s-3.03,1.99-2.91,3.49,3.35,36.61,20.8,60.97l7.57-6.56s-.33-4.15,0-4.83c.33-.67,11.19-9.37,11.19-9.37l4.94.54,4.38-3.56h-.01Z"/></clipPath></defs><g id="uuid-af29460d-1585-47d9-9c08-90633e2ce16e" data-name="uuid-3ed2d463-9c98-4ccd-9d5d-4c3039953550"><g id="uuid-8cac3a0a-4265-40b4-9675-88e4177bf870" data-name="uuid-099ea80d-b0f2-4400-b65c-6ce909f17109"><g><path class="uuid-2d96f9ec-d66c-44b5-9875-4c3953027912" d="m187.46,365.07c0-1.37.16-2.37.16-2.37l11.19-9.37,4.94.54,4.16-3.54-45.5-37.65s-.46-6.93-.57-13.62.57-13.95.57-13.95c19.42,20.93,67.75,51.78,95.66,65.63,27.91,13.85,60.83,24.27,75.34,27.46-5.61,2.07-6.03,4.26-16.69,7.77-10.66,3.51-22.99,2.36-42.4-1.62s-37.12-14.8-37.12-14.8l-8.86,7.52c.26,1.81.19,3.9.19,3.9l-9.7,8.9-5.45-.63,4.68-3.87s-.29-9.76-7.22-16.79c-6.93-7.03-18.28-5.3-18.28-5.3l-4.94,4.24s-.16-1.09-.16-2.46h0Zm237.71.67l8.26,3.17-.47.98c-.39.82-.01,1.79.82,2.14l8.27,3.38c.74.3,1.59,0,1.98-.7,1.53-2.8,5.2-9.98,6.98-17.6,1.78-7.62,1.86-13.58,1.82-16.23-.01-.82-.54-1.54-1.31-1.8l-7.18-2.48c-1.15-.4-2.39.35-2.56,1.56l-.16,1.08-9.17-3.8s-6.31,9.78-8.6,12.83l4.08,11.38-2.76,6.11v-.02Z"/><g class="uuid-4c4391de-0469-45ae-85e6-f51b95112f18"><g><path class="uuid-21d9377c-d8c1-4bc7-8f1d-7cae94ebdb6b" d="m203.75,353.87c13.03,1.96,23.07,12.29,24.59,23.19"/><path class="uuid-21d9377c-d8c1-4bc7-8f1d-7cae94ebdb6b" d="m433.43,368.91c7.68-14.03,8.19-29.68,8.19-29.68"/><path class="uuid-21d9377c-d8c1-4bc7-8f1d-7cae94ebdb6b" d="m433.43,336c-2.4,9.19-6.74,19.23-6.74,19.23"/></g></g><path class="uuid-50bdb408-0f03-46e1-b11e-5fe1cf11a933" d="m187.46,365.07c0-1.37.16-2.37.16-2.37l11.19-9.37,4.94.54,4.16-3.54-45.5-37.65s-.46-6.93-.57-13.62.57-13.95.57-13.95c19.42,20.93,67.75,51.78,95.66,65.63,27.91,13.85,60.83,24.27,75.34,27.46-5.61,2.07-6.03,4.26-16.69,7.77-10.66,3.51-22.99,2.36-42.4-1.62s-37.12-14.8-37.12-14.8l-8.86,7.52c.26,1.81.19,3.9.19,3.9l-9.7,8.9-5.45-.63,4.68-3.87s-.29-9.76-7.22-16.79c-6.93-7.03-18.28-5.3-18.28-5.3l-4.94,4.24s-.16-1.09-.16-2.46h0Zm237.71.67l8.26,3.17-.47.98c-.39.82-.01,1.79.82,2.14l8.27,3.38c.74.3,1.59,0,1.98-.7,1.53-2.8,5.2-9.98,6.98-17.6,1.78-7.62,1.86-13.58,1.82-16.23-.01-.82-.54-1.54-1.31-1.8l-7.18-2.48c-1.15-.4-2.39.35-2.56,1.56l-.16,1.08-9.17-3.8s-6.31,9.78-8.6,12.83l4.08,11.38-2.76,6.11v-.02Z"/></g><g><path class="uuid-4586ed58-3c26-4b5c-987c-00247d29fbe1" d="m439.54,321.73c-4.23,10.84-15.69,26.53-15.69,26.53,0,0,4.15,11.07,4.08,11.38-.08.31-5.02,12.18-14.88,25.28-8.25,10.96-18.86,20.87-18.86,20.87,0,0,6.17,6.74,7.85,8.76s0,5.19,0,5.19l-2.45-2.6s-7.21,3.17-15.1,10.59c-7.89,7.43-11.9,15.53-11.9,15.53l3.02,3.52s-2.64,1.22-4.36-.6c-1.72-1.82-14.76-16.58-14.76-16.58-20.33,9.71-45.4,11.43-45.4,11.43l-35.49,36.3c-28.82-3.13-35.02-23.89-35.02-23.89l17.8-18.01c-32.9-9.98-54.89-32.72-54.89-32.72,0,0,1.26-5.64,2.51-6.89s7.43-6.6,7.43-6.6c0,0,4.99.68,5.45.63.46-.05,8.89-8.04,9.45-8.7s.06-4.11.06-4.11l8.86-7.52c13.1,8.93,45.08,18.91,64.56,18.44,19.48-.47,22.89-6.37,31.45-9.84-8.21-2.19-49.99-12-96.04-38.56-48.62-28.05-72.13-51.81-77.02-57.04-.62-.67-.91-1.58-.78-2.48,1.81-12.31,5.53-24.8,5.82-25.53.3-.76,5.32-2.81,5.32-2.81,0,0-1.67,4.75-2.87,8.54,5.27,9.46,36.81,36.33,81.72,61.73,44.91,25.4,83.33,34.65,89.65,34.75,6.32.1,69.07-15.09,78.08-26.22,9.01-11.12,19.87-48.85,19.87-48.85l-1.33-8.17c4.09.98,4.6,4.25,4.6,4.25,0,0,1.31,7,1.38,20.76.08,13.77-2.08,23.23-2.08,23.23h-.04Zm-231.4,28.58l-45.72-37.62-.24-3.05s-3.03,1.99-2.91,3.49,3.35,36.61,20.8,60.97l7.57-6.56s-.33-4.15,0-4.83c.33-.67,11.19-9.37,11.19-9.37l4.94.54,4.38-3.56h-.01Z"/><g class="uuid-d0f82b25-b41c-4ccb-b99d-337e8c7b221c"><g><path class="uuid-2929258d-25b8-427e-8de3-6a1749239f1a" d="m394.18,405.78c-21.84-24.51-27.24-28.01-41.1-29.82-7.38-.96-15.42.71-19.87,2.17"/><path class="uuid-2929258d-25b8-427e-8de3-6a1749239f1a" d="m356.46,429.61c-3.81-4.15-6.3-8.87-15.27-4.75"/><line class="uuid-50bdb408-0f03-46e1-b11e-5fe1cf11a933" x1="339.01" y1="356.74" x2="340.25" y2="376.42"/><path class="uuid-2929258d-25b8-427e-8de3-6a1749239f1a" d="m359.94,377.24l-.48-7.52s36.44-7.14,51.51-15.84c1.82,5.06,8.64,21.47,8.64,21.47"/><line class="uuid-50bdb408-0f03-46e1-b11e-5fe1cf11a933" x1="423.85" y1="348.26" x2="417.09" y2="330.52"/><path class="uuid-2929258d-25b8-427e-8de3-6a1749239f1a" d="m258.34,435.45c14.39,5.09,39.67,6.61,52.72,5.6"/><path d="m258.52,435.93l-5.11,4.85s17.9,8.67,49.25,8.26l8.34-7.65-25.28-.56-12.64-1.52-7.79-1.57-6.78-1.82h.01Z"/><g><circle class="uuid-d9aa9a53-424e-4bf1-bdbc-808db4883ccb" cx="349.52" cy="364.53" r="4.42"/><circle class="uuid-d9aa9a53-424e-4bf1-bdbc-808db4883ccb" cx="412.96" cy="344.53" r="4.42"/></g><polygon points="211.4 409.54 238.5 370.41 237.19 370 228.59 377.23 228.28 381.17 218.83 389.87 212.97 389.87 205.59 396.55 203.75 403.04 211.4 409.54"/></g></g><path class="uuid-50bdb408-0f03-46e1-b11e-5fe1cf11a933" d="m439.54,321.73c-4.23,10.84-15.69,26.53-15.69,26.53,0,0,4.15,11.07,4.08,11.38-.08.31-5.02,12.18-14.88,25.28-8.25,10.96-18.86,20.87-18.86,20.87,0,0,6.17,6.74,7.85,8.76s0,5.19,0,5.19l-2.45-2.6s-7.21,3.17-15.1,10.59c-7.89,7.43-11.9,15.53-11.9,15.53l3.02,3.52s-2.64,1.22-4.36-.6c-1.72-1.82-14.76-16.58-14.76-16.58-20.33,9.71-45.4,11.43-45.4,11.43l-35.49,36.3c-28.82-3.13-35.02-23.89-35.02-23.89l17.8-18.01c-32.9-9.98-54.89-32.72-54.89-32.72,0,0,1.26-5.64,2.51-6.89s7.43-6.6,7.43-6.6c0,0,4.99.68,5.45.63.46-.05,8.89-8.04,9.45-8.7s.06-4.11.06-4.11l8.86-7.52c13.1,8.93,45.08,18.91,64.56,18.44,19.48-.47,22.89-6.37,31.45-9.84-8.21-2.19-49.99-12-96.04-38.56-48.62-28.05-72.13-51.81-77.02-57.04-.62-.67-.91-1.58-.78-2.48,1.81-12.31,5.53-24.8,5.82-25.53.3-.76,5.32-2.81,5.32-2.81,0,0-1.67,4.75-2.87,8.54,5.27,9.46,36.81,36.33,81.72,61.73,44.91,25.4,83.33,34.65,89.65,34.75,6.32.1,69.07-15.09,78.08-26.22,9.01-11.12,19.87-48.85,19.87-48.85l-1.33-8.17c4.09.98,4.6,4.25,4.6,4.25,0,0,1.31,7,1.38,20.76.08,13.77-2.08,23.23-2.08,23.23h-.04Zm-231.4,28.58l-45.72-37.62-.24-3.05s-3.03,1.99-2.91,3.49,3.35,36.61,20.8,60.97l7.57-6.56s-.33-4.15,0-4.83c.33-.67,11.19-9.37,11.19-9.37l4.94.54,4.38-3.56h-.01Z"/></g></g></g></svg>
<svg id="uuid-d89b1a3b-1abc-4239-8dc4-47b8ed987a23" data-name="BODY" xmlns="http://www.w3.org/2000/svg" viewBox="0 0 600 600"><defs><style>
      .uuid-c5c1942b-919f-4361-a538-7c7e7cf852f0 {
        fill: #7aa6ff;
      }

      .uuid-c5c1942b-919f-4361-a538-7c7e7cf852f0, .uuid-e2f7ad43-e6dd-4758-93ba-680831edc001, .uuid-56ad82ea-d48e-4308-a763-e34c42640525 {
        stroke: #000;
        stroke-linecap: round;
        stroke-linejoin: round;
      }

      .uuid-c5c1942b-919f-4361-a538-7c7e7cf852f0, .uuid-56ad82ea-d48e-4308-a763-e34c42640525 {
        stroke-width: 2px;
      }

      .uuid-e2f7ad43-e6dd-4758-93ba-680831edc001 {
        stroke-width: 2px;
      }

      .uuid-e2f7ad43-e6dd-4758-93ba-680831edc001, .uuid-56ad82ea-d48e-4308-a763-e34c42640525 {
        fill: #ff78d8;
      }
    </style></defs><g id="uuid-333657bb-b618-45a7-b183-dcd3ce45fb5d" data-name="uuid-2b0117f1-1776-4845-a0f5-c237a6ca9f96"><g id="uuid-04b458af-e80e-46bd-b30a-189016c9a742" data-name="uuid-0881513b-7c8c-44a0-be29-2e98fb16f773"><g id="uuid-16e95431-6b51-4de0-bde5-963b33635208" data-name="uuid-4ea92ad2-89cb-4935-9ee1-ea64959099a6"><g><path class="uuid-c5c1942b-919f-4361-a538-7c7e7cf852f0" d="m505.78,307.9s-4.59-35.13-27.13-66.82-85.23-42.92-85.23-42.92l-6.19-5.32s71.3,10.02,95.45,45.45c24.73,36.26,27.59,68.56,27.59,68.56l-4.5,1.04h0Z"/><path class="uuid-56ad82ea-d48e-4308-a763-e34c42640525" d="m520.68,366.22h0c.19,3.16-2.22,5.88-5.38,6.07l-.42.03c-3.16.19-5.88-2.22-6.07-5.38h0c-.19-3.16,2.22-5.88,5.38-6.07"/><g><path class="uuid-56ad82ea-d48e-4308-a763-e34c42640525" d="m209.79,442.76l-10.47-3.08h0c-2.15,1.3-3.42,3.25-4.07,4.89-.65,1.64-1.36,4.56-1.31,5.93l12.49,3.67c3.15.93,6.46-.88,7.38-4.03.93-3.15-.88-6.46-4.03-7.38Z"/><path class="uuid-56ad82ea-d48e-4308-a763-e34c42640525" d="m155.06,426.69c-3-.62-6.02,1.15-6.9,4.14-.93,3.15.88,6.46,4.03,7.38.65-2.81,1.99-9.48,2.87-11.53Z"/><path class="uuid-e2f7ad43-e6dd-4758-93ba-680831edc001" d="m202.75,447.11l.12-.41c.89-3.04,4.08-4.78,7.12-3.88h0c3.04.89,4.78,4.08,3.88,7.12l-.12.41c-.89,3.04-4.08,4.78-7.12,3.88h0c-3.04-.89-4.78-4.08-3.88-7.12Z"/></g><path class="uuid-c5c1942b-919f-4361-a538-7c7e7cf852f0" d="m174.51,242.11c-21.63,3.45-53.44-10.17-83.85-12-31.14-1.87-60.79,11.08-40.28,52.1,20.51,41.02,59.59,52.7,114.24,56.6,54.65,3.89,97.92,20.21,101.66,58.84,3.74,38.63-34.37,58.11-57.97,52.98-2.92-.63-2.05-4.33.9-3.83,10.1,1.72,47.12-2.23,52.61-38.59,5.49-36.37-29.45-61.17-96.95-65.11s-99.59-20.44-119.06-59.62c-17.82-35.86-2.26-59.81,45.89-58.16,23.43.8,48.13,11.53,84.9,12.48l-2.09,4.32h0Z"/><g><path class="uuid-56ad82ea-d48e-4308-a763-e34c42640525" d="m502.55,311.9s.07.03.11.05c2.71,1.34,4.95,4.09,4.95,4.09,0,0,3.47-4.64,6.71-5.9h0l-.07-.61c-.37-3.26-3.32-5.61-6.58-5.24-3.26.37-5.61,3.32-5.24,6.58l.12,1.04Z"/><path class="uuid-56ad82ea-d48e-4308-a763-e34c42640525" d="m520.35,363.24c-6.52-1.27-10.5-5.36-10.34-10.27.17-5.32,6.11-8.75,6.11-8.75,0,0-3.24-1.27-4.24-5.03-1.42-5.33,2.68-9.46,2.68-9.46-4.23-.67-6.25-2.9-6.25-2.9,0,0-1.95,2.45-3.7,3.18l4.2,37.02c.37,3.26,3.32,5.61,6.58,5.24,3.26-.37,5.61-3.32,5.24-6.58l-.28-2.46Z"/></g></g></g></g></g></svg>
<svg id="uuid-499a4094-d166-418c-a33c-d07543a88333" data-name="BODY" xmlns="http://www.w3.org/2000/svg" xmlns:xlink="http://www.w3.org/1999/xlink" viewBox="0 0 600 600"><defs><style>
      .uuid-76e919c8-f769-4746-9f54-c052f2839f0b, .uuid-3577aa37-3100-467b-bbbd-ee2c590872d6, .uuid-79007a77-5932-4ed7-86d6-b7f735da2a3f {
        fill: none;
      }

      .uuid-000301ee-73bf-4908-838f-f0acc3cafb97 {
        fill: #7aa6ff;
        stroke-width: 2px;
      }

      .uuid-000301ee-73bf-4908-838f-f0acc3cafb97, .uuid-cd01507f-41e2-4af0-8521-a8f3d5b2032c, .uuid-ad3e7142-bf3e-4804-b7ac-b75c86c32751, .uuid-3577aa37-3100-467b-bbbd-ee2c590872d6 {
        stroke: #000;
        stroke-linecap: round;
        stroke-linejoin: round;
      }

      .uuid-cd01507f-41e2-4af0-8521-a8f3d5b2032c {
        fill: #ffff0d;
      }

      .uuid-cd01507f-41e2-4af0-8521-a8f3d5b2032c, .uuid-ad3e7142-bf3e-4804-b7ac-b75c86c32751, .uuid-3577aa37-3100-467b-bbbd-ee2c590872d6 {
        stroke-width: 2px;
      }

      .uuid-ad3e7142-bf3e-4804-b7ac-b75c86c32751 {
        fill: #fff;
      }

      .uuid-79007a77-5932-4ed7-86d6-b7f735da2a3f {
        clip-path: url(#uuid-ce0777ef-ae89-43b1-bc43-aff59ad98230);
      }
    </style><clipPath id="uuid-ce0777ef-ae89-43b1-bc43-aff59ad98230"><rect class="uuid-76e919c8-f769-4746-9f54-c052f2839f0b" x="622" y="0" width="356.77" height="259.02"/></clipPath></defs><g id="uuid-3edb28fb-1dc5-4fe3-b8f5-b89a21cbec72" data-name="uuid-d8bf4a7d-ed85-4a3e-a407-7d1570284e6b"><g id="uuid-48f3e834-e885-438b-a9bd-fa187af06f63" data-name="uuid-1dd71221-1f4e-4737-8065-faffc7160480"><g><ellipse class="uuid-000301ee-73bf-4908-838f-f0acc3cafb97" cx="266.94" cy="203.15" rx="30.35" ry="11.13" transform="translate(-52.75 101.53) rotate(-19.64)"/><ellipse class="uuid-000301ee-73bf-4908-838f-f0acc3cafb97" cx="264.79" cy="197.11" rx="30.35" ry="11.13" transform="translate(-50.84 100.45) rotate(-19.64)"/><ellipse class="uuid-000301ee-73bf-4908-838f-f0acc3cafb97" cx="262.63" cy="191.07" rx="30.35" ry="11.13" transform="translate(-48.94 99.38) rotate(-19.64)"/><ellipse class="uuid-000301ee-73bf-4908-838f-f0acc3cafb97" cx="260.47" cy="185.02" rx="30.35" ry="11.13" transform="translate(-47.03 98.3) rotate(-19.64)"/></g><g><path class="uuid-ad3e7142-bf3e-4804-b7ac-b75c86c32751" d="m330.41,99.76l-62.82,22.42c-2.6.93-5.39-.74-5.83-3.47-1.29-8.1-2.08-23.59,8.68-30.57,18.38-11.91,27.66,4.66,27.66,4.66,0,0,4.36-8.28,13.29-9.59,11.98-1.75,18.34,5.15,21.32,10.16,1.41,2.38.3,5.46-2.31,6.39h0Z"/><path class="uuid-ad3e7142-bf3e-4804-b7ac-b75c86c32751" d="m298.11,92.8c2.54,4.8.55,8.27.55,8.27"/></g><g><path class="uuid-cd01507f-41e2-4af0-8521-a8f3d5b2032c" d="m282.6,119.07c-8.17-22.91-33.78-34.59-56.57-25.44-20.44,8.2-31.46,30.96-25.19,52.08,3.36,11.33,10.89,20.15,20.34,25.4,6.82,3.79,11.92,10.06,14.54,17.4l1.72,4.83s1.55,4.35,24.6-3.88c23.05-8.22,21.5-12.57,21.5-12.57l-1.73-4.83c-2.63-7.38-2.6-15.48.28-22.77,3.69-9.34,4.14-20.01.5-30.21h0Z"/><g><path class="uuid-ad3e7142-bf3e-4804-b7ac-b75c86c32751" d="m249.28,153.66c-1.16.41-2.54.87-4.06,1.31,2.91,6.34,6.15,15,10.37,26.82.46,1.3-.21,2.73-1.51,3.19s-2.73-.21-3.19-1.51c-4.37-12.24-7.7-21.09-10.62-27.31-4.18.78-8.65,1.01-12.11-.31-4.08-1.56-7.33-4.89-8.47-8.69-.77-2.57-.47-5.08.84-6.89,1.23-1.7,3.19-2.74,5.52-2.93,3.76-.29,7.87,1.61,11.59,5.36,1.83,1.85,3.56,4.34,5.36,7.71,1.49-.4,3.03-.89,4.63-1.45m-22.07-6.45c-.42.15-.75.38-.96.68-.38.53-.42,1.48-.11,2.53.55,1.84,2.28,4.25,5.46,5.46,1.86.71,4.61.8,7.94.32-1.29-2.26-2.54-3.99-3.8-5.27-3.73-3.76-6.59-3.98-7.64-3.89-.33.03-.62.09-.89.18h0Z"/><path class="uuid-ad3e7142-bf3e-4804-b7ac-b75c86c32751" d="m237.86,151.48s3.08-.49,5.11-1.08"/><path class="uuid-ad3e7142-bf3e-4804-b7ac-b75c86c32751" d="m240.26,156.15s2.72-.5,4.96-1.18"/><path class="uuid-ad3e7142-bf3e-4804-b7ac-b75c86c32751" d="m247.6,148.95c1.59-.57,3.1-1.17,4.5-1.8-.74-3.75-.98-6.77-.73-9.36.5-5.26,2.48-9.34,5.57-11.49,1.92-1.34,4.1-1.77,6.12-1.23,2.15.58,3.98,2.33,5.01,4.8,1.53,3.67,1.12,8.3-1.05,12.09-1.85,3.22-5.45,5.87-9.18,7.91,1.68,6.67,4.7,15.63,9.07,27.87.46,1.3-.21,2.73-1.51,3.19-1.3.46-2.73-.21-3.19-1.51-4.22-11.82-7.18-20.57-8.95-27.33-1.45.62-2.81,1.15-3.97,1.56m10.52-23.25c-.87.6-2.95,2.58-3.45,7.85-.17,1.78-.04,3.91.39,6.48,2.88-1.73,4.96-3.55,5.94-5.27,1.7-2.95,1.51-5.91.77-7.68-.42-1.01-1.05-1.72-1.68-1.89-.36-.1-.76-.07-1.18.08-.26.09-.53.24-.8.42h0Z"/><path class="uuid-ad3e7142-bf3e-4804-b7ac-b75c86c32751" d="m256.74,144.74s-2.7,1.57-4.64,2.4"/><path class="uuid-ad3e7142-bf3e-4804-b7ac-b75c86c32751" d="m257.84,149.87s-2.42,1.34-4.59,2.22"/></g></g><g><path class="uuid-ad3e7142-bf3e-4804-b7ac-b75c86c32751" d="m159.12,183.16l62.82-22.42c2.6-.93,3.7-3.99,2.31-6.37-4.14-7.09-13.32-19.58-26.07-18.17-21.77,2.41-18.46,21.12-18.46,21.12,0,0-8.62-3.65-16.35.99-10.38,6.23-10.94,15.6-10.07,21.36.41,2.74,3.22,4.42,5.83,3.49h0Z"/><path class="uuid-ad3e7142-bf3e-4804-b7ac-b75c86c32751" d="m179.72,157.33c1.07,5.32,4.81,6.75,4.81,6.75"/></g><g><path class="uuid-ad3e7142-bf3e-4804-b7ac-b75c86c32751" d="m187.72,100.34l51.25-18.29c2.12-.76,2.98-3.38,1.79-5.47-3.52-6.2-11.29-17.15-21.74-16.15-17.85,1.71-14.81,17.93-14.81,17.93,0,0-7.15-3.3-13.42.57-8.43,5.2-8.72,13.3-7.91,18.28.39,2.37,2.72,3.87,4.85,3.11h0Z"/><path class="uuid-ad3e7142-bf3e-4804-b7ac-b75c86c32751" d="m204.2,78.36c.97,4.61,4.07,5.92,4.07,5.92"/></g><path class="uuid-3577aa37-3100-467b-bbbd-ee2c590872d6" d="m153.9,136.08s14.12-8.54,20.74-2.46c-2.05-8.89,4.05-12.3,4.05-12.3"/><path class="uuid-3577aa37-3100-467b-bbbd-ee2c590872d6" d="m266.41,57.89s-11.26,2.17-11.04,10.9c-3.89-8.07-8.6-6.92-8.6-6.92"/><path class="uuid-3577aa37-3100-467b-bbbd-ee2c590872d6" d="m294.53,68.95s-7.36-1.3-9.28,4.95c-.47-6.71-3.61-7.08-3.61-7.08"/></g></g><g id="uuid-d91b92b5-8f94-44f5-918e-22daf6ee3a0b" data-name="uuid-e7813b6f-2e9c-4ced-a089-4ee6c80ec3de"><g id="uuid-f225defe-e3c7-4b99-a35f-f82dd7397eda" data-name="uuid-a396a31d-4a55-404b-af28-89c8152d84a8"><g class="uuid-79007a77-5932-4ed7-86d6-b7f735da2a3f"><path class="uuid-cd01507f-41e2-4af0-8521-a8f3d5b2032c" d="m643.84-3.16h-47.46s16.55,65.86,104.09,137.39c42.59,34.8,80.9,50.61,123.9,98.29,0,0,4.35,5.26,26.05.81,0,0-11.34-27.93-32.91-47.67-21.57-19.74-59.06-42.39-92.22-73.14-33.17-30.74-60.94-72.81-81.44-115.69Z"/></g></g></g></svg>
</svg>