<?xml version="1.0" encoding="UTF-8"?>
<svg xmlns="http://www.w3.org/2000/svg" viewBox="0 0 600 600">
<svg id="uuid-47722c1a-ec94-491f-b9ae-69c2f5e8f75c" data-name="BACKGROUND" xmlns="http://www.w3.org/2000/svg" viewBox="0 0 600 600"><defs><style>
      .uuid-ab0c32c0-b20c-4bf1-888e-57f882ba1299 {
        fill: #ffc9f1;
      }
    </style></defs><rect class="uuid-ab0c32c0-b20c-4bf1-888e-57f882ba1299" x="-1" y="-1" width="602" height="602"/></svg>
<svg id="uuid-4b9ac9a2-518f-484a-8405-8c4c95b5d820" data-name="BODY" xmlns="http://www.w3.org/2000/svg" viewBox="0 0 600 600"><defs><style>
      .uuid-3f9ec564-8708-4e75-9244-a1a973efafea {
        fill: #fff;
      }

      .uuid-f4a0fca1-efe7-48bf-8a76-ffe42a36dabc, .uuid-f74b9348-d91e-454e-bf3d-c745fef9ac7d {
        stroke-miterlimit: 10;
      }

      .uuid-f4a0fca1-efe7-48bf-8a76-ffe42a36dabc, .uuid-f74b9348-d91e-454e-bf3d-c745fef9ac7d, .uuid-e88451e4-f64f-4221-9af8-5fb1c0132909, .uuid-c46f19fa-5207-4ebd-8a30-4d23cbcc2fc1, .uuid-0fbafe0f-c1a7-4154-b2d4-f3b317584526 {
        stroke: #000;
        stroke-width: 2px;
      }

      .uuid-f4a0fca1-efe7-48bf-8a76-ffe42a36dabc, .uuid-f74b9348-d91e-454e-bf3d-c745fef9ac7d, .uuid-e88451e4-f64f-4221-9af8-5fb1c0132909, .uuid-0fbafe0f-c1a7-4154-b2d4-f3b317584526 {
        fill: #ffff0d;
      }

      .uuid-f74b9348-d91e-454e-bf3d-c745fef9ac7d, .uuid-e88451e4-f64f-4221-9af8-5fb1c0132909, .uuid-c46f19fa-5207-4ebd-8a30-4d23cbcc2fc1 {
        stroke-linecap: round;
      }

      .uuid-e88451e4-f64f-4221-9af8-5fb1c0132909, .uuid-c46f19fa-5207-4ebd-8a30-4d23cbcc2fc1, .uuid-0fbafe0f-c1a7-4154-b2d4-f3b317584526 {
        stroke-linejoin: round;
      }

      .uuid-c46f19fa-5207-4ebd-8a30-4d23cbcc2fc1 {
        fill: none;
      }
    </style></defs><ellipse cx="300" cy="518.65" rx="138.6" ry="22.93"/><g><path class="uuid-f4a0fca1-efe7-48bf-8a76-ffe42a36dabc" d="m319.36,427.14c-1.16,1.05-54.95,57-54.95,57,0,0,21.51-1.95,31.74,10.62,10.23,12.57,7.26,23.89,7.26,23.89h-66.9s-28.69-36.17-28.69-36.17c0,0,3.74-13.4,20.44-10.59,20.9-19.38,55.52-59.13,55.52-59.13l35.59,14.38Z"/><path d="m283.78,412.76l31.28,12.64-3.24,9.5c-2.93,3.03-9.76,10.12-13.64,14.14-11.92,0-27.98-2.13-41.33-6.37,13.95-15.1,26.93-29.92,26.93-29.92Z"/></g><g><path class="uuid-e88451e4-f64f-4221-9af8-5fb1c0132909" d="m409.81,359.6c9.2,3.77,29.89,12.05,42.79,16.03,2.11.65,4.41.69,6.5-.04,11.79-4.08,28.47-11.39,33.03-11.32,5.25.08,7.8,3.93,19.88,2.04,13.36-2.1,22.43-11.99,20.93-23.3-4.21-43.28-25.18-26.79-25.18-26.79,0,0-5.84-8.75-18.76-4.82-11.83,3.6-10.2,14.44-6.47,22.47l-25.29,8.58c-2.14.72-4.45.71-6.59-.02l-35.7-12.61"/><path class="uuid-f74b9348-d91e-454e-bf3d-c745fef9ac7d" d="m533.36,312.82c2.5,3.94,1.62,9.14-1.57,12.4-2.47,2.53-5.88,3.88-9.32,4.4-2.8.43-5.7.42-8.49-.08-2.14-.39-4.29-1.1-5.79-2.75-1.66-1.83-2.27-4.46-1.98-6.87.51-4.17,3.84-7.14,7.22-9.26,3.17-1.98,6.86-3.26,10.64-3.09,3.8.18,7.36,2.19,9.3,5.24Z"/><path class="uuid-f74b9348-d91e-454e-bf3d-c745fef9ac7d" d="m538.57,349.84c.97,3.03.32,6.43-1.5,9.01-3.77,5.33-11.17,5.65-16.96,4.27-3.31-.79-6.69-2.21-8.67-5.13-3.13-4.61-.82-9.79,3.48-12.56,2.58-1.66,5.61-2.67,8.63-3.14,5.73-.89,13.1,1.51,15.03,7.56Z"/><path class="uuid-f74b9348-d91e-454e-bf3d-c745fef9ac7d" d="m538.71,328.53c1.8,2.99,2.06,6.89.22,9.9-1.95,3.2-4.94,5.25-8.49,6.28-3.66,1.07-7.64,1.27-11.4.44-2.25-.5-4.53-1.38-5.96-3.28-1.86-2.47-1.89-5.68-.85-8.49,1.2-3.24,4.17-5.69,7.09-7.37,6.15-3.56,15.21-4.43,19.39,2.52Z"/><path class="uuid-f74b9348-d91e-454e-bf3d-c745fef9ac7d" d="m501.85,311.68s9.27,3.84,7.77,12.02c-1.04,5.68-8.17,9.55-14.94,6.13"/><path class="uuid-c46f19fa-5207-4ebd-8a30-4d23cbcc2fc1" d="m500.67,331.08c2.41,1.63,5.11,8.04,3.4,14.42"/><path d="m443.44,339.88c-2.88,10.58-6.94,20.23-11.17,28.59-10.17-3.78-21.16-9.53-27-11.93l11.83-26.02,26.35,9.36Z"/></g><g><circle class="uuid-f4a0fca1-efe7-48bf-8a76-ffe42a36dabc" cx="300" cy="300" r="138.16"/><path class="uuid-3f9ec564-8708-4e75-9244-a1a973efafea" d="m184.58,308.17c-4.41,0-7.98-3.57-7.98-7.98,0-67.74,55.11-122.86,122.86-122.86,4.41,0,7.98,3.57,7.98,7.98s-3.57,7.98-7.98,7.98c-58.94,0-106.9,47.95-106.9,106.9,0,4.41-3.57,7.98-7.98,7.98Z"/></g><path class="uuid-c46f19fa-5207-4ebd-8a30-4d23cbcc2fc1" d="m264.41,484.14c-4.06.49-11.49,1.36-17.85,7.23"/><path class="uuid-3f9ec564-8708-4e75-9244-a1a973efafea" d="m185.17,308.14c-4.41,0-7.98-3.57-7.98-7.98,0-67.74,55.11-122.86,122.86-122.86,4.41,0,7.98,3.57,7.98,7.98s-3.57,7.98-7.98,7.98c-58.94,0-106.9,47.95-106.9,106.9,0,4.41-3.57,7.98-7.98,7.98Z"/><path d="m203.75,397.46l34.2-27.46-24.86,36.3c-6.73-5.1-3.66-2.61-9.34-8.83Z"/><path class="uuid-0fbafe0f-c1a7-4154-b2d4-f3b317584526" d="m323.72,387.31c19.14-13.4,39.15-11.3,55.52,7.36,19.6,22.35,30.57,33.06,30.57,33.06,0,0,10.74-19.34,34.77-17.5,18.26,1.4,24.84,14.43,24.84,14.43,0,0,6.21,8.82-22.45,33.5-28.66,24.68-54.93,40.92-61.14,29.46-6.21-11.46-2.82-32.1-2.82-32.1,0,0-22.02-26.09-27.94-32.01-6.79-6.79-15.71-1.36-15.71-1.36"/><path class="uuid-f4a0fca1-efe7-48bf-8a76-ffe42a36dabc" d="m446.97,458.17c-25.89,22.29-49.82,37.69-58.79,32.02-9.77-7.44,26.84-38.54,44.88-52.7,18.04-14.16,32.17-17.82,36.36-12.81,0,0,6.21,8.82-22.45,33.5Z"/><path class="uuid-c46f19fa-5207-4ebd-8a30-4d23cbcc2fc1" d="m409.81,427.74c-1.89,2.86-4.55,10.38-4.55,10.38"/><g><path class="uuid-e88451e4-f64f-4221-9af8-5fb1c0132909" d="m214.11,345.7c-8.05,5.83-25.34,20.79-35.52,29.67-1.67,1.45-2.82,3.41-3.39,5.55-3.14,11.67-8.55,33.44-8.55,33.44,0,0-8.42.58-12.19,14.35-3.64,13.3-6.64,25.06,3.77,29.75.35,7.47,7.51,15.45,19.2,9.41.14-.06,1.32,1.32,1.44,1.45,2.64,2.7,6.36,4.45,10.13,4.81,3.65.36,7.61-.67,10.43-3.08,3.29-2.81,5.4-6.94,6.05-11.2.4-2.61.26-5.31-.75-7.78,0,0,6.2-2.51,8.05-11.34,1.99-9.49-4.22-19.42-14.62-18.18l6.17-23.11c.51-2.2,1.74-4.16,3.49-5.59l29.38-24.3"/><path class="uuid-c46f19fa-5207-4ebd-8a30-4d23cbcc2fc1" d="m204.73,452.06c-1.37-3.47-5.39-7.08-9-6.88"/><path class="uuid-c46f19fa-5207-4ebd-8a30-4d23cbcc2fc1" d="m178.86,469.3c-5.16-5.27-3.82-11.97-2.9-13.54"/><path class="uuid-c46f19fa-5207-4ebd-8a30-4d23cbcc2fc1" d="m158.22,458.45c-.27-5.22.73-7.32,3.06-9.83"/><path class="uuid-c46f19fa-5207-4ebd-8a30-4d23cbcc2fc1" d="m193.93,450.63c.14-2.07.48-4.16,1.32-6.06.85-1.95,2.36-3.88,4.31-4.85"/></g></svg>
<svg id="uuid-175be159-db61-4df5-a3ec-4e569af78a21" data-name="BODY" xmlns="http://www.w3.org/2000/svg" viewBox="0 0 600 600"><defs><style>
      .uuid-cb5ad370-d590-4d84-8471-319d1a4c5aa5 {
        fill: none;
        stroke: #000;
        stroke-linecap: round;
        stroke-linejoin: round;
        stroke-width: 4px;
      }
    </style></defs><g id="uuid-13c94933-b88a-4a0e-9bd5-264a3853387a" data-name="expressions"><g id="uuid-006bcb9c-427f-47d9-92c9-0f51d1e9073c" data-name="mouth"><circle cx="362.12" cy="293.18" r="9.78" transform="translate(-9.59 12.26) rotate(-1.91)"/></g><g id="uuid-aa5f76af-2ff8-4e7f-a2a4-73d690451a8d" data-name="eye L"><circle cx="337.63" cy="273.96" r="9.78" transform="translate(-8.96 11.43) rotate(-1.91)"/></g><g id="uuid-4d2b7d8b-0a30-48e5-b672-08579e330a1a" data-name="eye R"><polyline class="uuid-cb5ad370-d590-4d84-8471-319d1a4c5aa5" points="374.33 254.17 360.69 266.02 379.28 264.87"/></g></g></svg>
<svg id="uuid-6b1ca43c-fceb-4acd-85bc-eb7c63c2d5ed" data-name="BACKGROUND" xmlns="http://www.w3.org/2000/svg" xmlns:xlink="http://www.w3.org/1999/xlink" viewBox="0 0 600 600"><defs><style>
      .uuid-7d324a92-f859-4859-84b1-6b64e5c7ec03, .uuid-67100d62-60e5-4cd8-9feb-5d83ffa2b8c8, .uuid-bc5fc81c-92fa-4ec4-8e4a-352e040d594c, .uuid-5ac50f8a-6b3d-459b-9f7c-e2e49936e76c, .uuid-6c969cdd-f62e-43a7-a73f-31724797c8f5, .uuid-b67ff905-7fb7-4340-8266-4c03ea4a3719, .uuid-01b34b03-825a-47cb-a604-f9db4e1cd74f, .uuid-466c2826-7ac3-48ed-8208-b1d7f9e89468 {
        fill: none;
      }

      .uuid-67100d62-60e5-4cd8-9feb-5d83ffa2b8c8 {
        clip-path: url(#uuid-0502021d-5d50-4318-98da-cdd75b92ab18);
      }

      .uuid-617835b9-dcb7-47c3-8e7d-ba218dfa85d0 {
        fill: #353434;
      }

      .uuid-617835b9-dcb7-47c3-8e7d-ba218dfa85d0, .uuid-8e974996-2f7b-47a5-9824-e41b82eedcf4, .uuid-4e5a8a5f-577b-4228-8ffe-283c3c5a70f5, .uuid-bc5fc81c-92fa-4ec4-8e4a-352e040d594c, .uuid-5ac50f8a-6b3d-459b-9f7c-e2e49936e76c {
        stroke: #000;
        stroke-linecap: round;
        stroke-linejoin: round;
      }

      .uuid-617835b9-dcb7-47c3-8e7d-ba218dfa85d0, .uuid-8e974996-2f7b-47a5-9824-e41b82eedcf4, .uuid-4e5a8a5f-577b-4228-8ffe-283c3c5a70f5, .uuid-5ac50f8a-6b3d-459b-9f7c-e2e49936e76c {
        stroke-width: 2px;
      }

      .uuid-57d2f649-6cf8-4f64-88c1-f5885b0533cd, .uuid-4e5a8a5f-577b-4228-8ffe-283c3c5a70f5 {
        fill: #fff7f0;
      }

      .uuid-4a3249ec-b2f6-48bb-a8f3-a82bfffadfc2, .uuid-8e974996-2f7b-47a5-9824-e41b82eedcf4 {
        fill: #a07bff;
      }

      .uuid-bc5fc81c-92fa-4ec4-8e4a-352e040d594c {
        stroke-width: 2px;
      }

      .uuid-6c969cdd-f62e-43a7-a73f-31724797c8f5 {
        clip-path: url(#uuid-65b2ff7e-b3d6-471c-abcc-31367d16a59a);
      }

      .uuid-b67ff905-7fb7-4340-8266-4c03ea4a3719 {
        clip-path: url(#uuid-b7157335-6e6b-4f02-acd6-65c4362be68b);
      }

      .uuid-01b34b03-825a-47cb-a604-f9db4e1cd74f {
        clip-path: url(#uuid-210babb4-acd7-4b92-9096-56d819bae4c2);
      }

      .uuid-466c2826-7ac3-48ed-8208-b1d7f9e89468 {
        clip-path: url(#uuid-bafb8971-eb1d-4f25-a86c-d00529b534c5);
      }
    </style><clipPath id="uuid-0502021d-5d50-4318-98da-cdd75b92ab18"><path class="uuid-7d324a92-f859-4859-84b1-6b64e5c7ec03" d="m236.72,508.58l-26.43-36.69c-.99-1.27-2.89-1.3-3.93-.08l-5.74,6.7c-1.19,1.4-1.23,3.44-.1,4.88l29.22,37.38c1.22,1.56,3.1,2.48,5.08,2.48h71.09c1.33,0,2.41-1.08,2.41-2.41v-8.19c0-1.33-1.08-2.41-2.41-2.41h-65.78c-1.34,0-2.6-.62-3.42-1.67h0Z"/></clipPath><clipPath id="uuid-65b2ff7e-b3d6-471c-abcc-31367d16a59a"><path class="uuid-7d324a92-f859-4859-84b1-6b64e5c7ec03" d="m250.25,445.38l-22.93,23.27s-12.85-2.78-19.77,7.48l29.07,36.91h68.51s.65-17.01-14.04-25.82c-8.29-5.06-18.57-5.38-18.57-5.38l11.83-12.51c.96-1.06.66-2.75-.62-3.4-2.53-1.29-6.47-3.3-9.42-4.8-1.34-.68-2.97-.41-4.02.67l-1.42,1.47s-6.22-3.03-10.77-8.09-5.44-7.92-5.44-7.92l2.43-2.53-1.36-.35c-.75-.19-1.55-.17-2.25.15-.47.22-.9.52-1.22.84h0Z"/></clipPath><clipPath id="uuid-b7157335-6e6b-4f02-acd6-65c4362be68b"><path class="uuid-7d324a92-f859-4859-84b1-6b64e5c7ec03" d="m360,433.62l19.9,22.77s-3.17,17.71,2.54,31.11c0,0,5.33-16.06,31.48-39.12,26.16-23.06,53.73-30.88,53.73-30.88,0,0-10.6-11.39-29.3-10.31-18.7,1.08-28.7,15.35-28.7,15.35l-20.51-22.1c-.8-.85-1.95-1.29-3.1-1.14-2.22.27-6.08,1.2-10.09,4.24-.66.5-.78,1.46-.26,2.11l1.05,1.3s-16.35,11.66-16.75,26.68h0Z"/></clipPath><clipPath id="uuid-210babb4-acd7-4b92-9096-56d819bae4c2"><path class="uuid-7d324a92-f859-4859-84b1-6b64e5c7ec03" d="m469.32,415.42c-.66-.63-1.59-.86-2.47-.62-5.87,1.59-29.25,8.95-53.86,30.76-23.28,20.64-31.86,33.4-33.68,38.15-.37.98-.27,2.06.31,2.94,1.37,2.1,5.65,8.44,8.34,11.27,4.73,4.98,26.38-2.07,55.09-27.69,28.72-25.62,37.69-40.52,34.25-45.67-2.52-3.77-6.2-7.44-7.99-9.14h0Z"/></clipPath><clipPath id="uuid-bafb8971-eb1d-4f25-a86c-d00529b534c5"><path class="uuid-7d324a92-f859-4859-84b1-6b64e5c7ec03" d="m477.9,426.07h0c-.62-4.79-20.55-1.28-53.98,25.69-33.41,26.94-37.41,45.67-34.1,47.26,7.15,2.33,27.31-5.65,53.25-28.79,24.07-21.47,34.26-35.41,34.9-42.4,0-.73,0-1.33-.07-1.76h0Z"/></clipPath></defs><g id="uuid-f408db85-a353-4742-a68e-9c398e6873ff" data-name="uuid-cd11fcea-88d0-488e-8ad3-f73ba4124c0e"><g><g><g><path class="uuid-57d2f649-6cf8-4f64-88c1-f5885b0533cd" d="m236.72,508.58l-26.43-36.69c-.99-1.27-2.89-1.3-3.93-.08l-5.74,6.7c-1.19,1.4-1.23,3.44-.1,4.88l29.22,37.38c1.22,1.56,3.1,2.48,5.08,2.48h71.09c1.33,0,2.41-1.08,2.41-2.41v-8.19c0-1.33-1.08-2.41-2.41-2.41h-65.78c-1.34,0-2.6-.62-3.42-1.67h0Z"/><g class="uuid-67100d62-60e5-4cd8-9feb-5d83ffa2b8c8"><path class="uuid-4a3249ec-b2f6-48bb-a8f3-a82bfffadfc2" d="m311.73,519.85h-75.87c-1.43,0-2.79-.65-3.68-1.78l-33.28-41.94-4.78,6.84,36.02,45.1,81.59-1.62v-6.61h0Z"/></g><path class="uuid-5ac50f8a-6b3d-459b-9f7c-e2e49936e76c" d="m236.72,508.58l-26.43-36.69c-.99-1.27-2.89-1.3-3.93-.08l-5.74,6.7c-1.19,1.4-1.23,3.44-.1,4.88l29.22,37.38c1.22,1.56,3.1,2.48,5.08,2.48h71.09c1.33,0,2.41-1.08,2.41-2.41v-8.19c0-1.33-1.08-2.41-2.41-2.41h-65.78c-1.34,0-2.6-.62-3.42-1.67h0Z"/></g><g><path class="uuid-57d2f649-6cf8-4f64-88c1-f5885b0533cd" d="m250.25,445.38l-22.93,23.27s-12.85-2.78-19.77,7.48l29.07,36.91h68.51s.65-17.01-14.04-25.82c-8.29-5.06-18.57-5.38-18.57-5.38l11.83-12.51c.96-1.06.66-2.75-.62-3.4-2.53-1.29-6.47-3.3-9.42-4.8-1.34-.68-2.97-.41-4.02.67l-1.42,1.47s-6.22-3.03-10.77-8.09-5.44-7.92-5.44-7.92l2.43-2.53-1.36-.35c-.75-.19-1.55-.17-2.25.15-.47.22-.9.52-1.22.84h0Z"/><g class="uuid-6c969cdd-f62e-43a7-a73f-31724797c8f5"><g><path class="uuid-8e974996-2f7b-47a5-9824-e41b82eedcf4" d="m207.56,476.13l16.95,21.51,4.56-8.42c1.06-1.96,1.35-4.25.82-6.42l-3.54-14.32c-3.13-.41-13.01-.92-18.79,7.64h0Z"/><path class="uuid-617835b9-dcb7-47c3-8e7d-ba218dfa85d0" d="m235.69,468.65c5.41,7.65,11.73,8.93,11.73,8.93l17.3-19.75-9.01-19.35-13.15,2.63-11.12,19.55s1.48,4.08,4.25,7.99h0Z"/><g><path class="uuid-8e974996-2f7b-47a5-9824-e41b82eedcf4" d="m268.87,463.27s-18.49,21.32-19.16,22.2c-.67.88,10.65.19,18.81,2.29,8.16,2.09,14.33,4.3,14.83,7.23.51,2.93-3.21,3.65-7.01,6.46-4.82,3.56-2.97,6.66,2.61,5.17,3.03-.81,4.45-3.84,6.12-3.84h20.73s4.72,8.78,5.12,12.22h-64.36s13.07-7.62,17.85-17.02c-4.93.3-4.73-3.34-9.51-3.47s-7.82,4.45-13.08.74c-5.26-3.71.81-12.27,9.17-21.64,0,0-5.19-5.51-15.3-4.96,0,0-1.38-1.62-4.87-9.15l8.34-7.23s14.66,9.91,18.46,13.85l7.58-8.75,3.67,5.9h0Z"/><path class="uuid-8e974996-2f7b-47a5-9824-e41b82eedcf4" d="m264.41,497.97c1.72-3.24,2.38-5.16,8.9-5.36,4.73-.15,8.74-.71,9.95,2.03"/><line class="uuid-5ac50f8a-6b3d-459b-9f7c-e2e49936e76c" x1="250.99" y1="473.6" x2="257.61" y2="466.12"/></g><path class="uuid-5ac50f8a-6b3d-459b-9f7c-e2e49936e76c" d="m275.64,501.99c-4.04,3.39-8.12,11.05-8.12,11.05"/><polygon class="uuid-4a3249ec-b2f6-48bb-a8f3-a82bfffadfc2" points="278.48 461.05 272.13 468.34 277.35 470.68 283.97 463.81 278.48 461.05"/></g></g><path class="uuid-5ac50f8a-6b3d-459b-9f7c-e2e49936e76c" d="m250.25,445.38l-22.93,23.27s-12.85-2.78-19.77,7.48l29.07,36.91h68.51s.65-17.01-14.04-25.82c-8.29-5.06-18.57-5.38-18.57-5.38l11.83-12.51c.96-1.06.66-2.75-.62-3.4-2.53-1.29-6.47-3.3-9.42-4.8-1.34-.68-2.97-.41-4.02.67l-1.42,1.47s-6.22-3.03-10.77-8.09-5.44-7.92-5.44-7.92l2.43-2.53-1.36-.35c-.75-.19-1.55-.17-2.25.15-.47.22-.9.52-1.22.84h0Z"/></g><path class="uuid-5ac50f8a-6b3d-459b-9f7c-e2e49936e76c" d="m244.42,489.63c5.92-5.31,14.38-9.03,28.11-7.79"/><g><path class="uuid-4e5a8a5f-577b-4228-8ffe-283c3c5a70f5" d="m264.17,468.09c4.47,2.6,9.09,4.34,12.76,5.69,3.67,1.35,2.33,6.74-2.45,4.81-4.77-1.93-11.32-4.52-13.4-6.25s.11-5.99,3.09-4.26h0Z"/><path class="uuid-4e5a8a5f-577b-4228-8ffe-283c3c5a70f5" d="m256.34,476.65c2.44,1.28,4.92,2.3,7.25,3.14,1.81.66-1.41,4.84-3.61,4-2.73-1.04-5.18-2.09-6.31-2.95-2.05-1.55-.22-5.7,2.68-4.19Z"/><path class="uuid-4e5a8a5f-577b-4228-8ffe-283c3c5a70f5" d="m275.35,481.45s-.77-4.17-6.3-4.78c-7.82-.86-12.81,5.57-14.54,7.98s2.32,5.2,4.64,2.45c4.98-5.91,7.52-6.36,8.95-6.67,3.05.17,7.25,1.01,7.25,1.01h0Z"/><path class="uuid-4e5a8a5f-577b-4228-8ffe-283c3c5a70f5" d="m288.56,485.83s-.38-4.37-5.93-5.51c-7.86-1.61-13.55,4.58-15.55,6.9-1.99,2.33,1.85,5.58,4.48,2.95,5.63-5.64,9.79-6.56,11.27-6.75,1.91.64,5.74,2.4,5.74,2.4h0Z"/></g><g><circle cx="286.65" cy="493.08" r="1.01"/><circle cx="294.11" cy="493.08" r="1.01"/><circle cx="291.6" cy="495.81" r="1.01"/><circle cx="289.08" cy="498.97" r="1.01"/><circle cx="296.53" cy="498.97" r="1.01"/></g></g><g><g><path class="uuid-57d2f649-6cf8-4f64-88c1-f5885b0533cd" d="m360,433.62l19.9,22.77s-3.17,17.71,2.54,31.11c0,0,5.33-16.06,31.48-39.12,26.16-23.06,53.73-30.88,53.73-30.88,0,0-10.6-11.39-29.3-10.31-18.7,1.08-28.7,15.35-28.7,15.35l-20.51-22.1c-.8-.85-1.95-1.29-3.1-1.14-2.22.27-6.08,1.2-10.09,4.24-.66.5-.78,1.46-.26,2.11l1.05,1.3s-16.35,11.66-16.75,26.68h0Z"/><g class="uuid-b67ff905-7fb7-4340-8266-4c03ea4a3719"><g><path class="uuid-617835b9-dcb7-47c3-8e7d-ba218dfa85d0" d="m381.44,447.04c4.72-7.69,7.01-19.3,7.01-19.3l-19.82-20.2s-11.73,9.84-12.54,27.51l18.2,22.02,7.15-10.02h0Z"/><path class="uuid-8e974996-2f7b-47a5-9824-e41b82eedcf4" d="m386.55,424.93c-7.06,9.84-5.11,22.11-5.11,22.11,0,0-3.64,5.93-5.06,7.89l-8.56-9.17s.9-17.83,11.2-28.23l7.52,7.4h0Z"/><path class="uuid-8e974996-2f7b-47a5-9824-e41b82eedcf4" d="m376.75,406.95l27.24,27.12s7.58-6.51,15.13-11.9c7.55-5.39,15.66-6.4,17.28-6.3,1.62.1,1.57,2.33.81,4.04-.76,1.72-.61,2.43-.61,2.43,0,0,5.58-.04,5.38-5.77,0,0,4.72-3.57,16.31-7.01l8.7.94,6.67,3.71-19.42,13.53-29.9,13.91s1.38-7.48,1.52-13.21c-3.24,2.83-7.06.62-10.45,2.75-3.39,2.12-6.17,10.11-9.74,10.87-2.37.5-5.18.5-7.81-2.28-3.74-3.94-28.82-29.38-28.82-29.38l4.5-3.94,3.2.49h0Z"/><path class="uuid-8e974996-2f7b-47a5-9824-e41b82eedcf4" d="m377.18,464.97l11.88-6.76c1.46-.83,3.09-1.32,4.76-1.43l10.6-.71-26.22,34.72-3.1-12.74,2.08-13.08h0Z"/><path class="uuid-5ac50f8a-6b3d-459b-9f7c-e2e49936e76c" d="m425.87,428.43c-.03-5.04-2.63-8.79,3.04-11.15"/><path class="uuid-5ac50f8a-6b3d-459b-9f7c-e2e49936e76c" d="m436.62,421.78c-.43,3.41.54,8.14.54,8.14"/><polygon class="uuid-4a3249ec-b2f6-48bb-a8f3-a82bfffadfc2" points="379.85 401.15 383.87 405.09 388.18 403.12 384.85 399.49 380.73 397.86 379.85 401.15"/></g></g><path class="uuid-5ac50f8a-6b3d-459b-9f7c-e2e49936e76c" d="m360,433.62l19.9,22.77s-3.17,17.71,2.54,31.11c0,0,5.33-16.06,31.48-39.12,26.16-23.06,53.73-30.88,53.73-30.88,0,0-10.6-11.39-29.3-10.31-18.7,1.08-28.7,15.35-28.7,15.35l-20.51-22.1c-.8-.85-1.95-1.29-3.1-1.14-2.22.27-6.08,1.2-10.09,4.24-.66.5-.78,1.46-.26,2.11l1.05,1.3s-16.35,11.66-16.75,26.68h0Z"/></g><g><g><path class="uuid-57d2f649-6cf8-4f64-88c1-f5885b0533cd" d="m469.32,415.42c-.66-.63-1.59-.86-2.47-.62-5.87,1.59-29.25,8.95-53.86,30.76-23.28,20.64-31.86,33.4-33.68,38.15-.37.98-.27,2.06.31,2.94,1.37,2.1,5.65,8.44,8.34,11.27,4.73,4.98,26.38-2.07,55.09-27.69,28.72-25.62,37.69-40.52,34.25-45.67-2.52-3.77-6.2-7.44-7.99-9.14h0Z"/><g class="uuid-01b34b03-825a-47cb-a604-f9db4e1cd74f"><path class="uuid-4a3249ec-b2f6-48bb-a8f3-a82bfffadfc2" d="m474.46,421.06c-.67-.63-1.6-.86-2.49-.62-5.93,1.59-30.69,9.97-55.54,31.78-23.51,20.64-29.54,34.57-31.37,39.32-.38.98-.27,2.06.31,2.94,1.39,2.1,4.23,6.25,6.95,9.08,4.77,4.98,26.63-2.07,55.63-27.69,29-25.62,38.05-40.52,34.58-45.67-2.54-3.77-6.26-7.44-8.07-9.14h0Z"/></g><path class="uuid-5ac50f8a-6b3d-459b-9f7c-e2e49936e76c" d="m469.32,415.42c-.66-.63-1.59-.86-2.47-.62-5.87,1.59-29.25,8.95-53.86,30.76-23.28,20.64-31.86,33.4-33.68,38.15-.37.98-.27,2.06.31,2.94,1.37,2.1,5.65,8.44,8.34,11.27,4.73,4.98,26.38-2.07,55.09-27.69,28.72-25.62,37.69-40.52,34.25-45.67-2.52-3.77-6.2-7.44-7.99-9.14h0Z"/></g><g><path class="uuid-4a3249ec-b2f6-48bb-a8f3-a82bfffadfc2" d="m477.9,426.07h0c-.62-4.79-20.55-1.28-53.98,25.69-33.41,26.94-37.41,45.67-34.1,47.26,7.15,2.33,27.31-5.65,53.25-28.79,24.07-21.47,34.26-35.41,34.9-42.4,0-.73,0-1.33-.07-1.76h0Z"/><g class="uuid-466c2826-7ac3-48ed-8208-b1d7f9e89468"><g><g><ellipse class="uuid-bc5fc81c-92fa-4ec4-8e4a-352e040d594c" cx="452.04" cy="447.48" rx="3.55" ry="2.2" transform="translate(-183.16 414.29) rotate(-41.72)"/><ellipse class="uuid-bc5fc81c-92fa-4ec4-8e4a-352e040d594c" cx="452.04" cy="447.48" rx="8.67" ry="5.37" transform="translate(-183.16 414.29) rotate(-41.72)"/><ellipse class="uuid-bc5fc81c-92fa-4ec4-8e4a-352e040d594c" cx="452.04" cy="447.48" rx="13.41" ry="8.31" transform="translate(-183.16 414.29) rotate(-41.72)"/><ellipse class="uuid-bc5fc81c-92fa-4ec4-8e4a-352e040d594c" cx="452.04" cy="447.48" rx="17.54" ry="10.87" transform="translate(-183.16 414.29) rotate(-41.72)"/><ellipse class="uuid-bc5fc81c-92fa-4ec4-8e4a-352e040d594c" cx="452.04" cy="447.48" rx="22.28" ry="13.8" transform="translate(-183.16 414.29) rotate(-41.72)"/><ellipse class="uuid-bc5fc81c-92fa-4ec4-8e4a-352e040d594c" cx="452.04" cy="447.48" rx="27.13" ry="16.81" transform="translate(-183.16 414.29) rotate(-41.72)"/></g><g><path class="uuid-5ac50f8a-6b3d-459b-9f7c-e2e49936e76c" d="m419.16,451.36l6.27,17.09s-12.64,10.48-14.66,11.9c-2.02,1.42-.13,3.71,1.69,2.49,1.82-1.21,15.03-11.12,15.03-11.12l10.31,4.99"/><line class="uuid-5ac50f8a-6b3d-459b-9f7c-e2e49936e76c" x1="424.04" y1="474.29" x2="435.57" y2="481.83"/><line class="uuid-5ac50f8a-6b3d-459b-9f7c-e2e49936e76c" x1="419.85" y1="477.42" x2="430.25" y2="485.94"/><line class="uuid-5ac50f8a-6b3d-459b-9f7c-e2e49936e76c" x1="415.48" y1="480.65" x2="423.85" y2="489.65"/><line class="uuid-5ac50f8a-6b3d-459b-9f7c-e2e49936e76c" x1="412.45" y1="482.84" x2="416.83" y2="494.97"/><line class="uuid-5ac50f8a-6b3d-459b-9f7c-e2e49936e76c" x1="413.11" y1="478.53" x2="403.28" y2="468.21"/><line class="uuid-5ac50f8a-6b3d-459b-9f7c-e2e49936e76c" x1="408.19" y1="461.84" x2="417.88" y2="474.67"/><line class="uuid-5ac50f8a-6b3d-459b-9f7c-e2e49936e76c" x1="421.62" y1="471.59" x2="413.93" y2="456.61"/><line class="uuid-5ac50f8a-6b3d-459b-9f7c-e2e49936e76c" x1="410.4" y1="480.65" x2="395.13" y2="478.06"/><line class="uuid-5ac50f8a-6b3d-459b-9f7c-e2e49936e76c" x1="410.05" y1="482.39" x2="390" y2="486.28"/><line class="uuid-5ac50f8a-6b3d-459b-9f7c-e2e49936e76c" x1="411.01" y1="483.13" x2="405.24" y2="499.76"/><line class="uuid-5ac50f8a-6b3d-459b-9f7c-e2e49936e76c" x1="410.43" y1="482.84" x2="387.37" y2="499.41"/></g></g></g><path class="uuid-5ac50f8a-6b3d-459b-9f7c-e2e49936e76c" d="m477.9,426.07h0c-.62-4.79-20.55-1.28-53.98,25.69-33.41,26.94-37.41,45.67-34.1,47.26,7.15,2.33,27.31-5.65,53.25-28.79,24.07-21.47,34.26-35.41,34.9-42.4,0-.73,0-1.33-.07-1.76h0Z"/></g></g><path class="uuid-4e5a8a5f-577b-4228-8ffe-283c3c5a70f5" d="m409.66,422.54s-3.89,5.28-6.92,15.26"/><g><path class="uuid-4e5a8a5f-577b-4228-8ffe-283c3c5a70f5" d="m395.76,408.5c-4.48,2-8.37,4.59-11.44,6.66-3.07,2.07-6.53-1.91-2.41-4.51s9.11-5.45,11.6-6.1c2.49-.65,5.23,2.62,2.24,3.95h0Z"/><path class="uuid-4e5a8a5f-577b-4228-8ffe-283c3c5a70f5" d="m403.92,416.93c-4.48,2-8.37,4.59-11.44,6.66-3.07,2.07-6.53-1.91-2.41-4.51s9.11-5.45,11.6-6.1c2.49-.65,5.23,2.62,2.24,3.95h0Z"/><path class="uuid-4e5a8a5f-577b-4228-8ffe-283c3c5a70f5" d="m410.49,425.27c-4.48,2-7.42,3.94-10.49,6.02-3.07,2.07-6.53-1.91-2.41-4.51s9.11-5.45,11.6-6.1c.47.81.96,3.15,1.3,4.6h0Z"/><path class="uuid-4e5a8a5f-577b-4228-8ffe-283c3c5a70f5" d="m418.62,414.25s-3.47-2.43-7.84,1.01c-6.17,4.87-5.22,12.96-4.76,15.89s5.3,2.08,5.02-1.51c-.6-7.7.9-9.81,1.7-11.03,2.29-2.02,5.88-4.36,5.88-4.36h0Z"/><path class="uuid-4e5a8a5f-577b-4228-8ffe-283c3c5a70f5" d="m431.11,408.11s-3.34-2.85-8.09.24c-6.73,4.36-6.45,12.77-6.24,15.82.21,3.06,5.24,2.68,5.26-1.04.05-7.97,2.38-11.55,3.3-12.71,1.81-.89,5.78-2.31,5.78-2.31Z"/></g><g><circle cx="434.88" cy="410.61" r="1.01"/><circle cx="440.59" cy="410.07" r="1.01"/><circle cx="440" cy="413.7" r="1.01"/><circle cx="446.55" cy="410.14" r="1.01"/></g></g></g></g></svg>
<svg id="uuid-5e467335-96f0-4a19-bf5d-f66d24f9f050" data-name="BODY" xmlns="http://www.w3.org/2000/svg" viewBox="0 0 600 600"><defs><style>
      .uuid-c95b386d-6b7a-48bc-b015-46353c5ddf6d, .uuid-6dfda773-13b8-4575-9246-263a2a33ff95 {
        stroke-miterlimit: 10;
      }

      .uuid-c95b386d-6b7a-48bc-b015-46353c5ddf6d, .uuid-6dfda773-13b8-4575-9246-263a2a33ff95, .uuid-d59f6628-b02a-4e8d-88df-548bea5614f0 {
        stroke: #000;
        stroke-width: 2px;
      }

      .uuid-c95b386d-6b7a-48bc-b015-46353c5ddf6d, .uuid-d59f6628-b02a-4e8d-88df-548bea5614f0 {
        fill: #ffc9f1;
      }

      .uuid-6dfda773-13b8-4575-9246-263a2a33ff95 {
        fill: #a07bff;
      }

      .uuid-d59f6628-b02a-4e8d-88df-548bea5614f0 {
        stroke-linejoin: round;
      }
    </style></defs><path d="m444.53,340.27c-.12,10.07-1.69,20.13-1.47,32.18,0,0-31.96-13.5-37.8-15.9l11.83-26.02,27.44,9.74Z"/><g id="uuid-e0b59ec1-2080-4c6b-8b31-c6fdef44f520" data-name="cloth"><path class="uuid-c95b386d-6b7a-48bc-b015-46353c5ddf6d" d="m263.36,371.55c24.26-.34,48.58-3.99,69.96-9.03-7.88-3.13-21.03-8.64-28.59-13.47-15.72-10.04-37.83-23.22-78.26-39.57-40.44-16.35-60.88-16.79-64.71-17.14-3.83-.35-3.65,17.91.52,18.78s34.19,3.67,60.28,20.36c19.37,12.39,34.36,31.2,40.8,40.07Z"/><g><path class="uuid-d59f6628-b02a-4e8d-88df-548bea5614f0" d="m175.19,380.92c.57-2.14,1.73-4.09,3.39-5.55,4.11-3.58,9.38-8.16,14.73-12.73-12.63-3.41-19.99-6.47-19.99-6.47,0,0,1.19,7.68-3.39,24.26-4.47,16.18-10.42,24.96-10.42,24.96l10.07-2.77c1.77-7.01,3.99-15.7,5.61-21.71Z"/><path class="uuid-d59f6628-b02a-4e8d-88df-548bea5614f0" d="m436.02,361.39c2.62-27.84,1.57-45.91,1.57-45.91,0,0-23.21,23.41-84.08,41.67-31.63,9.49-73.99,16.96-113.56,13.64-1.29-.11-2.56-.23-3.83-.35l-28.31,23.41c-1.75,1.43-2.97,3.39-3.49,5.59l-6.17,23.11c1.6-.19,3.09-.11,4.48.18,10.94-4.39,20.36-13.9,20.36-13.9,0,0,3.04,11.81,3.04,28.1,12.65-1.74,29.55-18.91,29.55-18.91,0,0,3.71,13.26-4.81,29.26,17.78,0,33.52-20.56,33.52-20.56l15.94,23.95s7.48-5.92,14.49-22.21c7.39-17.17,6.6-34.62,8.99-41.14,9.67-6.47,21.58-10.5,33.18-7.49,6.62,1.72,12.55,5.45,17.68,9.89,5.18,4.49,8.72,10.46,13.8,15.02,4.08,3.66,9.3,5.25,14.65,5.91,1.08.13,11.39,1.12,11.39.41v-21.3l23.94,6.09s-4.77-8.69-2.35-34.45Zm-191.58,34.15c-.44-.17-.87-.39-1.26-.65-1.82-1.21-2.89-3.3-3.34-5.43-.47-2.21-.24-4.77,1.39-6.34,3.5-3.39,16.29-2.61,17.11,3.38.62,4.53-5.71,8.89-9.45,9.45-1.49.22-3.05.13-4.45-.41Zm26.93,14.8c-.72,1.06-1.77,1.95-3.12,2.45-2.19.82-4.72.56-6.81-.48-1.36-.67-2.61-1.74-3.06-3.19-.24-.78-.24-1.62-.09-2.42.82-4.42,6.05-6.74,10.14-5.47,4.34,1.34,5.06,6,2.95,9.11Zm133.66-31.05c-.04.27-.1.55-.16.81-.87,3.69-3.13,7.03-6.22,9.21-.82.58-1.74,1.09-2.75,1.14-1.96.09-3.54-1.59-4.51-3.29-1.62-2.85-2.38-6.34-1.39-9.46,1.64-5.18,7.44-6.92,12.06-4.49,1.32.69,2.44,1.84,2.87,3.26.28.91.25,1.88.1,2.82Z"/></g><path d="m206.23,395.47c-.91,1.16-1.57,2.51-1.91,3.96l-6.17,23.11c1.27-.15,2.48-.13,3.62.03l36.18-52.57-31.72,25.47Z"/><g id="uuid-7fe29411-92c2-4f52-b005-f15084171df6" data-name="zurzido"><path class="uuid-6dfda773-13b8-4575-9246-263a2a33ff95" d="m308.67,383.17c-5.42,4.18-10.17,10.28-13.38,16.13-2.78,5.06-10.1,2.03-7.89-5.55,1.89-6.46,9.65-12.22,14.53-16.48,5.01-4.37,14,.29,6.74,5.9Z"/><path class="uuid-6dfda773-13b8-4575-9246-263a2a33ff95" d="m302.21,395.42c-4.91-4.7-11.8-8.62-18.29-11.12-5.62-2.17-3.02-9.26,5.22-7.84,7.02,1.21,13.81,7.97,18.76,12.17,5.07,4.31.89,13.1-5.7,6.79Z"/></g></g></svg>
</svg>