<?xml version="1.0" encoding="UTF-8"?>
<svg xmlns="http://www.w3.org/2000/svg" viewBox="0 0 600 600">
<svg id="uuid-50f5b600-4bee-4d04-aa66-9a7827d0c80f" data-name="BACKGROUND" xmlns="http://www.w3.org/2000/svg" viewBox="0 0 600 600"><defs><style>
      .uuid-7826a2f3-55af-481e-b40d-34a6e43de7ed {
        fill: #7aa6ff;
      }
    </style></defs><rect class="uuid-7826a2f3-55af-481e-b40d-34a6e43de7ed" x="-1" y="-1" width="602" height="602"/></svg>
<svg id="uuid-e5c605a8-e4f9-4978-ad72-5db31b65b190" data-name="BACKGROUND" xmlns="http://www.w3.org/2000/svg" viewBox="0 0 600 600"><defs><style>
      .uuid-883efea5-677f-4371-9dc7-5cd56130fbcb, .uuid-d3f758ac-5239-4a0a-b4e9-3b31a4d26e61 {
        fill: #fff;
      }

      .uuid-d3f758ac-5239-4a0a-b4e9-3b31a4d26e61, .uuid-7f242137-77c3-4516-b3dd-e07924d8b27d, .uuid-446566b0-e754-4323-8c0e-f2552727105b, .uuid-0f9d5605-abaf-429f-9eda-0762dec12f88, .uuid-dee44871-50d0-4ac4-9972-c62084d34d89, .uuid-4c0d796b-ae01-4a35-8369-ec5c74e01e56, .uuid-8394a5ef-9c6d-414e-8d02-2034ddcfd3a6 {
        stroke: #000;
        stroke-width: 2px;
      }

      .uuid-d3f758ac-5239-4a0a-b4e9-3b31a4d26e61, .uuid-7f242137-77c3-4516-b3dd-e07924d8b27d, .uuid-dee44871-50d0-4ac4-9972-c62084d34d89, .uuid-4c0d796b-ae01-4a35-8369-ec5c74e01e56 {
        stroke-miterlimit: 10;
      }

      .uuid-d3f758ac-5239-4a0a-b4e9-3b31a4d26e61, .uuid-446566b0-e754-4323-8c0e-f2552727105b, .uuid-0f9d5605-abaf-429f-9eda-0762dec12f88, .uuid-dee44871-50d0-4ac4-9972-c62084d34d89, .uuid-4c0d796b-ae01-4a35-8369-ec5c74e01e56 {
        stroke-linecap: round;
      }

      .uuid-7f242137-77c3-4516-b3dd-e07924d8b27d, .uuid-446566b0-e754-4323-8c0e-f2552727105b, .uuid-dee44871-50d0-4ac4-9972-c62084d34d89, .uuid-8394a5ef-9c6d-414e-8d02-2034ddcfd3a6 {
        fill: #a07bff;
      }

      .uuid-446566b0-e754-4323-8c0e-f2552727105b, .uuid-0f9d5605-abaf-429f-9eda-0762dec12f88, .uuid-8394a5ef-9c6d-414e-8d02-2034ddcfd3a6 {
        stroke-linejoin: round;
      }

      .uuid-0f9d5605-abaf-429f-9eda-0762dec12f88 {
        fill: none;
      }

      .uuid-4c0d796b-ae01-4a35-8369-ec5c74e01e56 {
        fill: #8400ff;
      }
    </style></defs><path class="uuid-446566b0-e754-4323-8c0e-f2552727105b" d="m409.81,359.6c9.2,3.77,29.89,12.05,42.79,16.03,2.11.65,4.41.69,6.5-.04,11.79-4.08,28.47-11.39,33.03-11.32,5.25.08,7.8,3.93,19.88,2.04,13.36-2.1,22.43-11.99,20.93-23.3-4.21-43.28-25.18-26.79-25.18-26.79,0,0-5.84-8.75-18.76-4.82-11.83,3.6-10.2,14.44-6.47,22.47l-25.29,8.58c-2.14.72-4.45.71-6.59-.02l-35.7-12.61"/><path class="uuid-dee44871-50d0-4ac4-9972-c62084d34d89" d="m533.36,312.82c2.5,3.94,1.62,9.14-1.57,12.4-2.47,2.53-5.88,3.88-9.32,4.4-2.8.43-5.7.42-8.49-.08-2.14-.39-4.29-1.1-5.79-2.75-1.66-1.83-2.27-4.46-1.98-6.87.51-4.17,3.84-7.14,7.22-9.26,3.17-1.98,6.86-3.26,10.64-3.09,3.8.18,7.36,2.19,9.3,5.24Z"/><path class="uuid-dee44871-50d0-4ac4-9972-c62084d34d89" d="m538.57,349.84c.97,3.03.32,6.43-1.5,9.01-3.77,5.33-11.17,5.65-16.96,4.27-3.31-.79-6.69-2.21-8.67-5.13-3.13-4.61-.82-9.79,3.48-12.56,2.58-1.66,5.61-2.67,8.63-3.14,5.73-.89,13.1,1.51,15.03,7.56Z"/><path class="uuid-dee44871-50d0-4ac4-9972-c62084d34d89" d="m538.71,328.53c1.8,2.99,2.06,6.89.22,9.9-1.95,3.2-4.94,5.25-8.49,6.28-3.66,1.07-7.64,1.27-11.4.44-2.25-.5-4.53-1.38-5.96-3.28-1.86-2.47-1.89-5.68-.85-8.49,1.2-3.24,4.17-5.69,7.09-7.37,6.15-3.56,15.21-4.43,19.39,2.52Z"/><path class="uuid-dee44871-50d0-4ac4-9972-c62084d34d89" d="m501.85,311.68s9.27,3.84,7.77,12.02c-1.04,5.68-8.17,9.55-14.94,6.13"/><path class="uuid-0f9d5605-abaf-429f-9eda-0762dec12f88" d="m500.67,331.08c2.41,1.63,5.11,8.04,3.4,14.42"/><path d="m443.44,339.88c-2.88,10.58-6.94,20.23-11.17,28.59-10.17-3.78-21.16-9.53-27-11.93l11.83-26.02,26.35,9.36Z"/><ellipse cx="300" cy="518.65" rx="138.6" ry="22.93"/><path class="uuid-7f242137-77c3-4516-b3dd-e07924d8b27d" d="m319.36,427.14c-1.16,1.05-54.95,57-54.95,57,0,0,21.51-1.95,31.74,10.62,10.23,12.57,7.26,23.89,7.26,23.89h-66.9s-28.69-36.17-28.69-36.17c0,0,3.74-13.4,20.44-10.59,20.9-19.38,55.52-59.13,55.52-59.13l35.59,14.38Z"/><path d="m283.78,412.76l31.28,12.64-3.24,9.5c-2.93,3.03-9.76,10.12-13.64,14.14-11.92,0-27.98-2.13-41.33-6.37,13.95-15.1,26.93-29.92,26.93-29.92Z"/><path class="uuid-7f242137-77c3-4516-b3dd-e07924d8b27d" d="m354.45,173.54l-.11.27-174.2,58.29c-11.49,20.13-18.05,43.43-18.05,68.27,0,76.2,61.77,137.98,137.97,137.98s137.98-61.77,137.98-137.98c0-56.89-34.43-105.72-83.58-126.83Z"/><path class="uuid-0f9d5605-abaf-429f-9eda-0762dec12f88" d="m264.41,484.14c-4.06.49-11.49,1.36-17.85,7.23"/><path class="uuid-883efea5-677f-4371-9dc7-5cd56130fbcb" d="m185.17,308.14c-4.41,0-7.98-3.57-7.98-7.98,0-67.74,55.11-122.86,122.86-122.86,4.41,0,7.98,3.57,7.98,7.98s-3.57,7.98-7.98,7.98c-58.94,0-106.9,47.95-106.9,106.9,0,4.41-3.57,7.98-7.98,7.98Z"/><path d="m203.75,397.46l34.2-27.46-24.86,36.3c-6.73-5.1-3.66-2.61-9.34-8.83Z"/><path class="uuid-8394a5ef-9c6d-414e-8d02-2034ddcfd3a6" d="m323.72,387.31c19.14-13.4,39.15-11.3,55.52,7.36,19.6,22.35,30.57,33.06,30.57,33.06,0,0,10.74-19.34,34.77-17.5,18.26,1.4,24.84,14.43,24.84,14.43,0,0,6.21,8.82-22.45,33.5-28.66,24.68-54.93,40.92-61.14,29.46-6.21-11.46-2.82-32.1-2.82-32.1,0,0-22.02-26.09-27.94-32.01-6.79-6.79-15.71-1.36-15.71-1.36"/><path class="uuid-7f242137-77c3-4516-b3dd-e07924d8b27d" d="m446.97,458.17c-25.89,22.29-49.82,37.69-58.79,32.02-9.77-7.44,26.84-38.54,44.88-52.7,18.04-14.16,32.17-17.82,36.36-12.81,0,0,6.21,8.82-22.45,33.5Z"/><path class="uuid-0f9d5605-abaf-429f-9eda-0762dec12f88" d="m409.81,427.74c-1.89,2.86-4.55,10.38-4.55,10.38"/><ellipse class="uuid-d3f758ac-5239-4a0a-b4e9-3b31a4d26e61" cx="269.41" cy="209.07" rx="94.9" ry="26.25" transform="translate(-52.5 96.54) rotate(-18.55)"/><ellipse class="uuid-4c0d796b-ae01-4a35-8369-ec5c74e01e56" cx="269.41" cy="209.07" rx="71.19" ry="13.32" transform="translate(-52.5 96.54) rotate(-18.55)"/><g><path class="uuid-446566b0-e754-4323-8c0e-f2552727105b" d="m214.11,345.7c-8.05,5.83-25.34,20.79-35.52,29.67-1.67,1.45-2.82,3.41-3.39,5.55-3.14,11.67-8.55,33.44-8.55,33.44,0,0-8.42.58-12.19,14.35-3.64,13.3-6.64,25.06,3.77,29.75.35,7.47,7.51,15.45,19.2,9.41.14-.06,1.32,1.32,1.44,1.45,2.64,2.7,6.36,4.45,10.13,4.81,3.65.36,7.61-.67,10.43-3.08,3.29-2.81,5.4-6.94,6.05-11.2.4-2.61.26-5.31-.75-7.78,0,0,6.2-2.51,8.05-11.34,1.99-9.49-4.22-19.42-14.62-18.18l6.17-23.11c.51-2.2,1.74-4.16,3.49-5.59l29.38-24.3"/><path class="uuid-0f9d5605-abaf-429f-9eda-0762dec12f88" d="m204.73,452.06c-1.37-3.47-5.39-7.08-9-6.88"/><path class="uuid-0f9d5605-abaf-429f-9eda-0762dec12f88" d="m178.86,469.3c-5.16-5.27-3.82-11.97-2.9-13.54"/><path class="uuid-0f9d5605-abaf-429f-9eda-0762dec12f88" d="m158.22,458.45c-.27-5.22.73-7.32,3.06-9.83"/><path class="uuid-0f9d5605-abaf-429f-9eda-0762dec12f88" d="m193.93,450.63c.14-2.07.48-4.16,1.32-6.06.85-1.95,2.36-3.88,4.31-4.85"/></g></svg>
<svg id="uuid-d2017022-49ac-4767-bd5b-8d3e235df956" data-name="BODY" xmlns="http://www.w3.org/2000/svg" viewBox="0 0 600 600"><defs><style>
      .uuid-ceb1f6db-ac22-433a-a64d-b7c361a52305 {
        fill: #ffff0d;
      }

      .uuid-ceb1f6db-ac22-433a-a64d-b7c361a52305, .uuid-8fc51c2b-2e55-48cc-a922-83a746c6089c {
        stroke-width: 2px;
      }

      .uuid-ceb1f6db-ac22-433a-a64d-b7c361a52305, .uuid-8fc51c2b-2e55-48cc-a922-83a746c6089c, .uuid-ededc5f7-d71c-4a39-8679-141d6e366d35 {
        stroke: #000;
        stroke-linecap: round;
        stroke-linejoin: round;
      }

      .uuid-8fc51c2b-2e55-48cc-a922-83a746c6089c, .uuid-ededc5f7-d71c-4a39-8679-141d6e366d35 {
        fill: none;
      }

      .uuid-ededc5f7-d71c-4a39-8679-141d6e366d35 {
        stroke-width: 4px;
      }
    </style></defs><g id="uuid-2e50336c-81e2-44ae-a2f0-cfae5c829496" data-name="uuid-ca7a59fd-5ea4-4026-baf3-83b8314686b7"><g><path d="m371.9,289.97c1.87,5.07-.73,10.69-5.8,12.56-5.07,1.87-10.69-.73-12.56-5.8l18.36-6.76h0Z"/><path class="uuid-ededc5f7-d71c-4a39-8679-141d6e366d35" d="m347.02,271.26c1.87,5.07-.73,10.69-5.8,12.56-5.07,1.87-10.69-.73-12.56-5.8"/><path class="uuid-ededc5f7-d71c-4a39-8679-141d6e366d35" d="m378.7,259.59c1.87,5.07-.73,10.69-5.8,12.56-5.07,1.87-10.69-.73-12.56-5.8"/><g><path class="uuid-ceb1f6db-ac22-433a-a64d-b7c361a52305" d="m394.29,286.52l-6.54-4.3c-2.76-1.82-6.22-2.22-9.33-1.07l-17.8,6.56-17.8,6.56c-3.1,1.14-5.48,3.69-6.4,6.87l-2.18,7.52c-.22.76.52,1.45,1.26,1.17l23.58-8.69c1.5-.55,2.5-1.96,2.54-3.56l.15-6.73,4.48,5.03c1.06,1.19,2.74,1.61,4.24,1.06l23.58-8.69c.74-.27.86-1.28.2-1.71l.02-.02Z"/><g><line class="uuid-8fc51c2b-2e55-48cc-a922-83a746c6089c" x1="352.99" y1="303.37" x2="353.29" y2="295.54"/><line class="uuid-8fc51c2b-2e55-48cc-a922-83a746c6089c" x1="343.37" y1="306.92" x2="344.56" y2="298.75"/><line class="uuid-8fc51c2b-2e55-48cc-a922-83a746c6089c" x1="376.62" y1="294.67" x2="371.32" y2="288.89"/><line class="uuid-8fc51c2b-2e55-48cc-a922-83a746c6089c" x1="386.25" y1="291.12" x2="380.04" y2="285.68"/></g></g><g><ellipse cx="334.14" cy="264.66" rx="11.53" ry="3.94" transform="translate(-70.88 131.8) rotate(-20.22)"/><ellipse cx="365.82" cy="252.99" rx="11.53" ry="3.94" transform="translate(-64.9 142.03) rotate(-20.22)"/></g></g></g></svg>
<svg id="uuid-a9ec8817-2407-47e3-b451-30ded90b5961" data-name="BACKGROUND" xmlns="http://www.w3.org/2000/svg" xmlns:xlink="http://www.w3.org/1999/xlink" viewBox="0 0 600 600"><defs><style>
      .uuid-38147cdf-a163-4f62-b3ec-fbcafbd26544, .uuid-c3665144-c5cd-4a6e-8bcd-77622d93734e, .uuid-90c49120-ed8c-4549-b597-935fb43d9a5c, .uuid-37f640f1-0b58-490d-aa0c-c6db63473e01, .uuid-0b44583d-d0ab-401d-bf44-3fab20b4cfe3, .uuid-7a856aa2-b511-4b15-8b44-65c14813becd, .uuid-c5531e56-35be-4489-bfa4-2d18d1c48b9a {
        fill: none;
      }

      .uuid-c3665144-c5cd-4a6e-8bcd-77622d93734e, .uuid-08975e20-1e06-470a-a6ad-274a08437e44, .uuid-90c49120-ed8c-4549-b597-935fb43d9a5c, .uuid-57a4487c-ab0d-45e7-bcdb-31380f7058fe, .uuid-37f640f1-0b58-490d-aa0c-c6db63473e01 {
        stroke: #000;
        stroke-linecap: round;
        stroke-linejoin: round;
      }

      .uuid-08975e20-1e06-470a-a6ad-274a08437e44 {
        fill: #353434;
      }

      .uuid-08975e20-1e06-470a-a6ad-274a08437e44, .uuid-90c49120-ed8c-4549-b597-935fb43d9a5c, .uuid-57a4487c-ab0d-45e7-bcdb-31380f7058fe, .uuid-37f640f1-0b58-490d-aa0c-c6db63473e01 {
        stroke-width: 2px;
      }

      .uuid-90c49120-ed8c-4549-b597-935fb43d9a5c {
        stroke-dasharray: 0 0 0 4;
      }

      .uuid-a7665a25-b1d6-4816-87d4-f1f8d0a00c6b {
        fill: #f9a723;
      }

      .uuid-a18afeca-8b09-4f0f-acfd-b939a492045c, .uuid-57a4487c-ab0d-45e7-bcdb-31380f7058fe {
        fill: #fff7f0;
      }

      .uuid-0b44583d-d0ab-401d-bf44-3fab20b4cfe3 {
        clip-path: url(#uuid-41d8c490-a2b5-4ce3-9120-3480010acea7);
      }

      .uuid-7a856aa2-b511-4b15-8b44-65c14813becd {
        clip-path: url(#uuid-86749df8-09be-4d89-a9e5-b30073c7eb55);
      }

      .uuid-c5531e56-35be-4489-bfa4-2d18d1c48b9a {
        clip-path: url(#uuid-c95a0056-7a63-4914-89d6-429f2c9f02dd);
      }
    </style><clipPath id="uuid-86749df8-09be-4d89-a9e5-b30073c7eb55"><path class="uuid-38147cdf-a163-4f62-b3ec-fbcafbd26544" d="m236.72,508.58l-27.63-35.34c-.99-1.27-2.89-1.3-3.93-.08l-4.54,5.35c-1.19,1.4-1.23,3.44-.1,4.88l29.22,37.38c1.22,1.56,3.1,2.48,5.08,2.48h71.09c1.33,0,2.41-1.08,2.41-2.41v-8.19c0-1.33-1.08-2.41-2.41-2.41h-65.78c-1.34,0-2.6-.62-3.42-1.67h0Z"/></clipPath><clipPath id="uuid-41d8c490-a2b5-4ce3-9120-3480010acea7"><path class="uuid-38147cdf-a163-4f62-b3ec-fbcafbd26544" d="m469.32,415.42c-.66-.63-1.59-.86-2.47-.62-5.87,1.59-29.25,8.95-53.86,30.76-23.28,20.64-30.4,35.59-32.22,40.34-.37.98-.27,2.06.31,2.94,1.37,2.1,4.19,6.25,6.89,9.08,4.73,4.98,26.38-2.07,55.09-27.69,28.72-25.62,37.69-40.52,34.25-45.67-2.52-3.77-6.2-7.44-7.99-9.14h0Z"/></clipPath><clipPath id="uuid-c95a0056-7a63-4914-89d6-429f2c9f02dd"><path class="uuid-38147cdf-a163-4f62-b3ec-fbcafbd26544" d="m477.9,426.07h0c-.62-4.79-20.55-1.28-53.98,25.69-33.41,26.94-37.41,45.67-34.1,47.26,7.15,2.33,27.31-5.65,53.25-28.79,24.07-21.47,34.26-35.41,34.9-42.4,0-.73,0-1.33-.07-1.76h0Z"/></clipPath></defs><g id="uuid-ba66d85f-07fa-4fc3-953c-f19e41c3212a" data-name="uuid-26a6d1fb-7a7a-43d6-9d7d-4988c6494f43"><g><g><path class="uuid-08975e20-1e06-470a-a6ad-274a08437e44" d="m232.09,463.9l-4.76,4.74s-12.85-2.78-19.77,7.48l29.07,36.91h68.51s.65-17.01-14.04-25.82c-8.29-5.06-18.57-5.38-18.57-5.38,0,0,.59-5.4-10.04-6.52-6.71-.71-10.69-1.45-11.43,5.09-3.34-.74-3.38.51-4.52.47-12.74-5.97-14.45-16.98-14.45-16.98h0Z"/><path class="uuid-57a4487c-ab0d-45e7-bcdb-31380f7058fe" d="m224.97,486.65l8.84,6.43c1.34.98,2.96,1.51,4.63,1.51h1.91c1.22,0,2.42.28,3.51.83l13.47,6.72c2.02,1.01,4.44.71,6.16-.75l4.2-3.56s-2.45-1.65-5.37-3.34c-.93.79-2.49,2.38-2.49,2.38-.47.45-1.18.54-1.75.23l-13.14-7.28c-1.17-.65-2.48-.99-3.81-.99h-1.5c-1.68,0-3.31-.54-4.66-1.53l-9.07-6.67-.92,6.03h0Z"/><g><path class="uuid-37f640f1-0b58-490d-aa0c-c6db63473e01" d="m224.03,468.31c5.12,10.55-1.65,27.23-1.65,27.23"/><path class="uuid-37f640f1-0b58-490d-aa0c-c6db63473e01" d="m272.94,501.95s-10.29-10.01-26.93-13.68c0,0-.04-4.76.53-7.38"/><path class="uuid-37f640f1-0b58-490d-aa0c-c6db63473e01" d="m251.06,480.41c-.2,1.65,0,4.68,0,4.68,0,0,14.89,1.67,24.77,11.68"/><path class="uuid-90c49120-ed8c-4549-b597-935fb43d9a5c" d="m233.41,508.95c11.41-5.97,21.79-.21,38.23-2.92"/><path class="uuid-37f640f1-0b58-490d-aa0c-c6db63473e01" d="m292.35,488.02c-19.07,2.22-21.4,18.25-21.65,25.02"/><path class="uuid-37f640f1-0b58-490d-aa0c-c6db63473e01" d="m244.42,489.63c5.92-5.31,14.38-9.03,28.11-7.79"/></g><g><path class="uuid-57a4487c-ab0d-45e7-bcdb-31380f7058fe" d="m272.79,481.86s-1.22-4.06-6.78-4.06c-7.86,0-12.12,6.94-13.58,9.53-1.46,2.58,2.88,4.92,4.88,1.92,4.3-6.42,6.78-7.15,8.16-7.61,3.05-.17,7.32.21,7.32.21h0Z"/><path class="uuid-57a4487c-ab0d-45e7-bcdb-31380f7058fe" d="m286.4,484.77s-.85-4.3-6.5-4.83c-7.98-.74-12.97,6.03-14.7,8.56-1.73,2.53,2.45,5.35,4.77,2.44,4.98-6.23,9.01-7.6,10.46-7.94,1.97.42,5.97,1.76,5.97,1.76h0Z"/></g><g><path class="uuid-a18afeca-8b09-4f0f-acfd-b939a492045c" d="m236.72,508.58l-27.63-35.34c-.99-1.27-2.89-1.3-3.93-.08l-4.54,5.35c-1.19,1.4-1.23,3.44-.1,4.88l29.22,37.38c1.22,1.56,3.1,2.48,5.08,2.48h71.09c1.33,0,2.41-1.08,2.41-2.41v-8.19c0-1.33-1.08-2.41-2.41-2.41h-65.78c-1.34,0-2.6-.62-3.42-1.67h0Z"/><g class="uuid-7a856aa2-b511-4b15-8b44-65c14813becd"><g><path class="uuid-37f640f1-0b58-490d-aa0c-c6db63473e01" d="m233.72,513.58l-31.07-39.51c-.99-1.27-2.89-1.3-3.93-.08l-4.54,5.35c-1.19,1.4-1.23,3.44-.1,4.88l32.66,41.55c1.22,1.56,3.1,2.48,5.08,2.48h78.32c1.33,0,2.41-1.08,2.41-2.41v-8.19c0-1.33-1.08-2.41-2.41-2.41h-73c-1.34,0-2.6-.62-3.42-1.67h0Z"/><path class="uuid-37f640f1-0b58-490d-aa0c-c6db63473e01" d="m257.13,515.25c-4.65,4.53-7.01,15.59-7.01,15.59"/><path class="uuid-c3665144-c5cd-4a6e-8bcd-77622d93734e" d="m203.87,471.28l31.75,40.14c.73.92,1.83,1.45,3,1.45h72.64"/></g></g><path class="uuid-37f640f1-0b58-490d-aa0c-c6db63473e01" d="m236.72,508.58l-27.63-35.34c-.99-1.27-2.89-1.3-3.93-.08l-4.54,5.35c-1.19,1.4-1.23,3.44-.1,4.88l29.22,37.38c1.22,1.56,3.1,2.48,5.08,2.48h71.09c1.33,0,2.41-1.08,2.41-2.41v-8.19c0-1.33-1.08-2.41-2.41-2.41h-65.78c-1.34,0-2.6-.62-3.42-1.67h0Z"/></g></g><g><path class="uuid-08975e20-1e06-470a-a6ad-274a08437e44" d="m374.29,449.88l5.62,6.52s-3.17,17.71,2.54,31.11c0,0,5.33-16.06,31.48-39.12,26.16-23.06,53.73-30.88,53.73-30.88,0,0-10.6-11.39-29.3-10.31-18.7,1.08-28.7,15.35-28.7,15.35l-7.34-6.97c-1.07-.79-2.2-1.09-3.35-.95-2.22.27-4.71,2.12-8.72,5.16-.66.5-.78,1.46-.26,2.11l1.05,1.3s-16.35,11.66-16.75,26.68h0Z"/><g><path class="uuid-37f640f1-0b58-490d-aa0c-c6db63473e01" d="m438.37,407.2c-12.71,7.85-5.52,21.67-3.18,25.5"/><path class="uuid-37f640f1-0b58-490d-aa0c-c6db63473e01" d="m387.04,426.55l16.04,14.9s14.31-12.47,28.39-17.83"/><path class="uuid-37f640f1-0b58-490d-aa0c-c6db63473e01" d="m431.04,419.33c-13.06,3.21-27.36,15.6-27.36,15.6l-12.64-11.73"/><path class="uuid-37f640f1-0b58-490d-aa0c-c6db63473e01" d="m379.19,462.98c7.61-4.75,16.48,0,16.48,0"/><path class="uuid-57a4487c-ab0d-45e7-bcdb-31380f7058fe" d="m409.66,422.54s-3.89,5.28-6.92,15.26"/></g><path class="uuid-57a4487c-ab0d-45e7-bcdb-31380f7058fe" d="m393.02,461.84s-4.36-1.04-6.05-.97l6.92-6.51c.88-.83,1.41-1.96,1.49-3.17h0c.1-1.53.92-2.92,2.22-3.73l18.26-11.43c.9-.56,1.46-1.53,1.48-2.59.02-.73,0-1.61-.11-2.44,0,0,3.79-2.34,5.17-3.09,0,0,.19,4.73.12,7.32-.03,1.03-.55,1.99-1.42,2.56l-18.86,12.04c-1.06.7-1.79,1.8-2.04,3.04l-.19.95c-.19.94-.65,1.81-1.34,2.48l-5.66,5.52h0Z"/><g><path class="uuid-a18afeca-8b09-4f0f-acfd-b939a492045c" d="m469.32,415.42c-.66-.63-1.59-.86-2.47-.62-5.87,1.59-29.25,8.95-53.86,30.76-23.28,20.64-30.4,35.59-32.22,40.34-.37.98-.27,2.06.31,2.94,1.37,2.1,4.19,6.25,6.89,9.08,4.73,4.98,26.38-2.07,55.09-27.69,28.72-25.62,37.69-40.52,34.25-45.67-2.52-3.77-6.2-7.44-7.99-9.14h0Z"/><g class="uuid-0b44583d-d0ab-401d-bf44-3fab20b4cfe3"><g><path class="uuid-37f640f1-0b58-490d-aa0c-c6db63473e01" d="m472.79,418c-6.13,1.66-31.38,8.54-57.1,31.34-24.34,21.57-30.97,38.01-32.86,42.97"/><path class="uuid-c3665144-c5cd-4a6e-8bcd-77622d93734e" d="m470.98,416.08c-6.13,1.66-31.16,8.82-56.88,31.61-24.34,21.57-30.97,38.01-32.86,42.97"/><path class="uuid-37f640f1-0b58-490d-aa0c-c6db63473e01" d="m426.8,440.38c.35,3.83,1.54,7.89,1.54,7.89"/></g></g><path class="uuid-37f640f1-0b58-490d-aa0c-c6db63473e01" d="m469.32,415.42c-.66-.63-1.59-.86-2.47-.62-5.87,1.59-29.25,8.95-53.86,30.76-23.28,20.64-30.4,35.59-32.22,40.34-.37.98-.27,2.06.31,2.94,1.37,2.1,4.19,6.25,6.89,9.08,4.73,4.98,26.38-2.07,55.09-27.69,28.72-25.62,37.69-40.52,34.25-45.67-2.52-3.77-6.2-7.44-7.99-9.14h0Z"/></g><g><path class="uuid-a7665a25-b1d6-4816-87d4-f1f8d0a00c6b" d="m477.9,426.07h0c-.62-4.79-20.55-1.28-53.98,25.69-33.41,26.94-37.41,45.67-34.1,47.26,7.15,2.33,27.31-5.65,53.25-28.79,24.07-21.47,34.26-35.41,34.9-42.4,0-.73,0-1.33-.07-1.76h0Z"/><g class="uuid-c5531e56-35be-4489-bfa4-2d18d1c48b9a"><g><g><line class="uuid-37f640f1-0b58-490d-aa0c-c6db63473e01" x1="381.54" y1="492.75" x2="444.59" y2="492.75"/><line class="uuid-37f640f1-0b58-490d-aa0c-c6db63473e01" x1="387.1" y1="486.55" x2="450.14" y2="486.55"/><line class="uuid-37f640f1-0b58-490d-aa0c-c6db63473e01" x1="392.37" y1="479.4" x2="455.41" y2="479.4"/><line class="uuid-37f640f1-0b58-490d-aa0c-c6db63473e01" x1="398.7" y1="472.12" x2="461.75" y2="472.12"/><line class="uuid-37f640f1-0b58-490d-aa0c-c6db63473e01" x1="406.85" y1="464.43" x2="469.89" y2="464.43"/><line class="uuid-37f640f1-0b58-490d-aa0c-c6db63473e01" x1="413.06" y1="457.06" x2="476.11" y2="457.06"/><line class="uuid-37f640f1-0b58-490d-aa0c-c6db63473e01" x1="422.54" y1="449.74" x2="485.59" y2="449.74"/><line class="uuid-37f640f1-0b58-490d-aa0c-c6db63473e01" x1="431.04" y1="442.32" x2="494.08" y2="442.32"/><line class="uuid-37f640f1-0b58-490d-aa0c-c6db63473e01" x1="439.8" y1="434.91" x2="502.84" y2="434.91"/><line class="uuid-37f640f1-0b58-490d-aa0c-c6db63473e01" x1="446.44" y1="428.43" x2="509.49" y2="428.43"/></g><g><line class="uuid-37f640f1-0b58-490d-aa0c-c6db63473e01" x1="425.89" y1="534.09" x2="367.66" y2="456.06"/><line class="uuid-37f640f1-0b58-490d-aa0c-c6db63473e01" x1="432.22" y1="530.76" x2="374" y2="452.74"/><line class="uuid-37f640f1-0b58-490d-aa0c-c6db63473e01" x1="439.41" y1="526.76" x2="381.19" y2="448.74"/><line class="uuid-37f640f1-0b58-490d-aa0c-c6db63473e01" x1="445.19" y1="521.9" x2="386.97" y2="443.88"/><line class="uuid-37f640f1-0b58-490d-aa0c-c6db63473e01" x1="451.27" y1="516.55" x2="393.04" y2="438.52"/><line class="uuid-37f640f1-0b58-490d-aa0c-c6db63473e01" x1="458.93" y1="511.95" x2="400.7" y2="433.93"/><line class="uuid-37f640f1-0b58-490d-aa0c-c6db63473e01" x1="465.81" y1="507.2" x2="407.59" y2="429.17"/><line class="uuid-37f640f1-0b58-490d-aa0c-c6db63473e01" x1="472.37" y1="502.45" x2="414.15" y2="424.42"/><line class="uuid-37f640f1-0b58-490d-aa0c-c6db63473e01" x1="478.85" y1="496.98" x2="420.62" y2="418.95"/><line class="uuid-37f640f1-0b58-490d-aa0c-c6db63473e01" x1="485.17" y1="491.75" x2="426.95" y2="413.72"/><line class="uuid-37f640f1-0b58-490d-aa0c-c6db63473e01" x1="492.86" y1="486.51" x2="434.64" y2="408.48"/><line class="uuid-37f640f1-0b58-490d-aa0c-c6db63473e01" x1="500.02" y1="481.69" x2="441.8" y2="403.66"/><line class="uuid-37f640f1-0b58-490d-aa0c-c6db63473e01" x1="507.96" y1="477.54" x2="449.73" y2="399.51"/></g></g></g><path class="uuid-37f640f1-0b58-490d-aa0c-c6db63473e01" d="m477.9,426.07h0c-.62-4.79-20.55-1.28-53.98,25.69-33.41,26.94-37.41,45.67-34.1,47.26,7.15,2.33,27.31-5.65,53.25-28.79,24.07-21.47,34.26-35.41,34.9-42.4,0-.73,0-1.33-.07-1.76h0Z"/></g><g><path class="uuid-57a4487c-ab0d-45e7-bcdb-31380f7058fe" d="m408.54,421.02c-3.73,3.19-6.72,6.78-9.07,9.63-2.35,2.86-6.8.03-3.59-3.64,3.21-3.67,7.19-7.82,9.39-9.15,2.2-1.33,5.76,1.03,3.27,3.15h0Z"/><path class="uuid-57a4487c-ab0d-45e7-bcdb-31380f7058fe" d="m418.62,414.25s-3.47-2.43-7.84,1.01c-6.17,4.87-5.22,12.96-4.76,15.89s5.3,2.08,5.02-1.51c-.6-7.7.9-9.81,1.7-11.03,2.29-2.02,5.88-4.36,5.88-4.36h0Z"/><path class="uuid-57a4487c-ab0d-45e7-bcdb-31380f7058fe" d="m431.11,408.11s-3.34-2.85-8.09.24c-6.73,4.36-6.45,12.77-6.24,15.82s5.24,2.68,5.26-1.04c.05-7.97,2.38-11.55,3.3-12.71,1.81-.89,5.78-2.31,5.78-2.31Z"/></g></g></g></g></svg>
<svg id="uuid-45076936-bf6a-400d-9d76-99472c58c4e9" data-name="BODY" xmlns="http://www.w3.org/2000/svg" viewBox="0 0 600 600"><defs><style>
      .uuid-00e92ae1-42c8-44e2-857e-a94a78f8009e {
        fill: #7aa6ff;
      }

      .uuid-00e92ae1-42c8-44e2-857e-a94a78f8009e, .uuid-c8acc748-5549-488d-9673-ee82474a7e79, .uuid-d7d2649e-ee29-4e07-944b-c87f4fdef738, .uuid-73ac82b7-4b52-4b93-b621-04fff5d4c5c9 {
        stroke-width: 2px;
      }

      .uuid-00e92ae1-42c8-44e2-857e-a94a78f8009e, .uuid-c8acc748-5549-488d-9673-ee82474a7e79, .uuid-d7d2649e-ee29-4e07-944b-c87f4fdef738, .uuid-73ac82b7-4b52-4b93-b621-04fff5d4c5c9, .uuid-089f3058-646e-4e65-9510-fa18f21a0218 {
        stroke: #000;
        stroke-linecap: round;
        stroke-linejoin: round;
      }

      .uuid-c8acc748-5549-488d-9673-ee82474a7e79 {
        fill: #ffff0d;
      }

      .uuid-d7d2649e-ee29-4e07-944b-c87f4fdef738 {
        fill: #fff7f0;
      }

      .uuid-73ac82b7-4b52-4b93-b621-04fff5d4c5c9 {
        fill: none;
      }

      .uuid-089f3058-646e-4e65-9510-fa18f21a0218 {
        fill: #f9a723;
        stroke-width: 2px;
      }
    </style></defs><g id="uuid-92d075af-fa6e-4eea-88c5-a8003c321dc0" data-name="uuid-703517f9-cd20-496a-807d-fc23883ee864"><g><g><path class="uuid-c8acc748-5549-488d-9673-ee82474a7e79" d="m468.51,338.63l-11.27,3.82c-2.14.72-4.46.71-6.59-.02l-35.7-12.61-5.14,29.78c9.2,3.77,29.89,12.05,42.79,16.03,2.11.65,4.41.69,6.5-.04,5.76-2,12.7-4.76,18.81-7.06-2.7-8.62-6.59-20.95-9.41-29.91h0Z"/><path d="m443.44,339.88c-2.88,10.58-6.94,20.23-11.17,28.59-10.17-3.78-21.16-9.53-27-11.93l11.83-26.02,26.35,9.36Z"/><path class="uuid-c8acc748-5549-488d-9673-ee82474a7e79" d="m468.45,373.64c-8.32-9.6-10.07-23.09-11.1-31.57-.4-3.26,1.5-6.35,4.59-7.49l7.36-2.7c1.61-.59,3.4-.29,4.73.79l3.54,2.87-4.51,1.53s-1.65,17.39,9.6,29.72l3.97-1.43-.16,3.5c-.09,1.97-1.36,3.69-3.22,4.36l-7.03,2.52c-2.77.99-5.85.15-7.78-2.08h0Z"/></g><path class="uuid-c8acc748-5549-488d-9673-ee82474a7e79" d="m319.36,402.14c54.04-5.61,84.58-20.5,97.52-28.47,12.37-19.58,19.96-42.47,21.12-67.06-3.19,2.68-54.14,44.28-135.14,35.93-67.15-6.92-139.67-58.6-140.07-58.88-.63,5.36-.97,10.81-.97,16.33,0,12.21,1.6,24.05,4.58,35.32,27.47,27.32,85.27,73.84,152.95,66.82h0Z"/><g><g><path class="uuid-00e92ae1-42c8-44e2-857e-a94a78f8009e" d="m265.06,433.71l-12.83,13.93,24.11,24.11,32.61-33.86s-9.11-3.01-21.05-4.93c-11.93-1.92-22.84.76-22.84.76h0Z"/><path d="m283.78,412.76l31.28,12.64-3.24,9.5c-2.93,3.03-9.76,10.12-13.64,14.14-11.92,0-27.98-2.13-41.33-6.37,13.95-15.1,26.93-29.92,26.93-29.92h0Z"/><path class="uuid-00e92ae1-42c8-44e2-857e-a94a78f8009e" d="m256.75,440.63c11.72,4.9,21.56,18.02,26.25,25.16,1.8,2.74,1.48,6.36-.78,8.74l-5.4,5.69c-1.18,1.24-2.92,1.77-4.59,1.4l-4.44-1,3.34-3.48s-8.51-18.01-24.06-24.06l-2.92,3.05-1.41-3.2c-.8-1.8-.42-3.91.94-5.33l5.18-5.38c2.04-2.12,5.18-2.73,7.89-1.6h0Z"/></g><g><path class="uuid-00e92ae1-42c8-44e2-857e-a94a78f8009e" d="m195.72,360.99c-9.29-4.19-17.84-8.74-25.47-13.44,3.18,8.66,7.21,16.91,11.97,24.66l13.5-11.22h0Z"/><path class="uuid-00e92ae1-42c8-44e2-857e-a94a78f8009e" d="m418.95,370.3c-24.03,7.71-48.97,5.83-75.98,8.83-39.41,8.01-77.99,4.3-111.27-5.07l-23.9,19.76c-1.62,1.34-2.78,3.14-3.33,5.17l-.18.65c24.83,23.86,58.55,38.52,95.7,38.52,20.42,0,39.8-4.45,57.24-12.4,0,0-.01.03-.01.03l10.9,12.33,27.36-25.36-6.48-7.1s-.02,0-.02,0c11.86-10,22.01-21.95,29.96-35.36h0Z"/></g><g><path class="uuid-d7d2649e-ee29-4e07-944b-c87f4fdef738" d="m203.69,354.36c-17.08-8.69-30-18.05-38.83-25.49,1.83,8.61,4.46,16.91,7.81,24.84,5.47,4.27,11.23,8.27,17.37,12l13.65-11.35Z"/><path class="uuid-d7d2649e-ee29-4e07-944b-c87f4fdef738" d="m342.98,379.13c-41.76,3.6-76.57-1.71-104.59-10.59l-15.49,12.81c24.69,8.91,54.95,14.31,93.96,15.13,0,0,9.76-15.82,28.03-17.52,18.89-1.76,28.81,10.15,28.81,10.15,0,0,26.43-3.81,42.25-13.99,4.66-7.17,8.68-14.8,11.96-22.81-22.27,15.48-52.65,24.04-84.93,26.82h0Z"/></g><path class="uuid-00e92ae1-42c8-44e2-857e-a94a78f8009e" d="m363.75,435.78c5.95-11.23,22.62-22.64,30.16-26.66,2.9-1.55,6.47-.89,8.64,1.58l5.18,5.89c1.13,1.29,1.5,3.07.98,4.7l-1.2,4.15-3.35-3.46s-19.28,5.51-28.87,24.58l2.77,3.19-3.32,1.12c-1.87.63-3.93.07-5.22-1.43l-4.89-5.65c-1.93-2.23-2.25-5.4-.87-8.01h0Z"/><path class="uuid-00e92ae1-42c8-44e2-857e-a94a78f8009e" d="m251.53,391.83l3.51-18.9c.48-2.58,2.98-4.26,5.55-3.73l5.12,1.06c1.43.3,2.64,1.24,3.27,2.56l1.72,3.58-4.74-.87-2.91,19.07"/><path class="uuid-00e92ae1-42c8-44e2-857e-a94a78f8009e" d="m304.26,399.19l-.41-19.21c-.06-2.62,2.06-4.78,4.68-4.78h5.23c1.46,0,2.84.67,3.72,1.83l2.42,3.15-4.82.11,1.03,19.26"/><path class="uuid-00e92ae1-42c8-44e2-857e-a94a78f8009e" d="m416.88,373.71l-4.03-12.57-3.04,1.52.44-3.75c.16-1.38.79-2.47,1.7-2.96l3.26-1.76c1.64-.88,3.68.41,4.53,2.87,0,0,1.79,5.26,2.48,7.39-2.03,4.03-5.35,9.26-5.35,9.26h0Z"/><path class="uuid-00e92ae1-42c8-44e2-857e-a94a78f8009e" d="m182.89,364.72l6.4-18.43,2.98,1.81-.44-3.87c-.16-1.38-.79-2.47-1.7-2.96l-4.6-2.53c-1.64-.88-3.68.41-4.53,2.87,0,0-5.46,14.85-6.15,16.97"/><rect class="uuid-089f3058-646e-4e65-9510-fa18f21a0218" x="373.04" y="367.45" width="29.72" height="22.05" rx="5.33" ry="5.33" transform="translate(-85.21 114.14) rotate(-15.1)"/><g><path class="uuid-73ac82b7-4b52-4b93-b621-04fff5d4c5c9" d="m252.23,408.88s21.46,5.16,33.72-8.19"/><g><path d="m378.59,441.98c-.27,0-.53-.11-.73-.31l-2.75-2.91c-.38-.4-.36-1.03.04-1.41.4-.38,1.03-.36,1.41.04l2.75,2.91c.38.4.36,1.03-.04,1.41-.19.18-.44.27-.69.27h0Z"/><path d="m370.68,433.6c-.27,0-.53-.11-.73-.31l-2.75-2.91c-.38-.4-.36-1.03.04-1.41s1.03-.36,1.41.04l2.75,2.91c.38.4.36,1.03-.04,1.41-.19.18-.44.27-.69.27h0Z"/></g><path d="m375.6,422.97c-.28,0-.56-.12-.76-.34,0,0-1.36-1.57-3.3-3.78-.36-.42-.32-1.05.09-1.41.42-.36,1.05-.32,1.41.09,1.94,2.21,3.3,3.78,3.3,3.78.36.42.32,1.05-.1,1.41-.19.16-.42.25-.66.25h0Zm-6.61-7.55c-.28,0-.55-.11-.75-.34-1.1-1.24-2.23-2.52-3.32-3.74-.37-.41-.33-1.04.08-1.41.41-.37,1.04-.33,1.41.08,1.09,1.22,2.23,2.51,3.33,3.75.37.41.33,1.05-.09,1.41-.19.17-.43.25-.66.25h0Zm-6.68-7.47c-.27,0-.54-.11-.74-.32-.76-.83-1.41-1.53-1.91-2.04-.41-.43-.93-.85-1.53-1.27-.45-.31-.57-.94-.25-1.39.31-.45.94-.57,1.39-.25.71.49,1.32,1,1.82,1.52.51.52,1.18,1.24,1.95,2.08.37.41.35,1.04-.06,1.41-.19.18-.43.26-.68.26h0Zm-31.16-2.79c-.32,0-.64-.16-.83-.45-.31-.46-.18-1.08.28-1.39,1.21-.81,2.48-1.52,3.76-2.12.5-.23,1.1-.02,1.33.48.23.5.02,1.1-.48,1.33-1.19.56-2.37,1.22-3.5,1.97-.17.11-.36.17-.55.17h0Zm23.1-2.92c-.11,0-.23-.02-.34-.06-1.48-.54-3.04-.94-4.64-1.18-.55-.08-.92-.59-.84-1.14.08-.55.59-.92,1.14-.84,1.73.26,3.43.69,5.03,1.28.52.19.79.76.6,1.28-.15.41-.53.66-.94.66h0Zm-14.76-.79c-.45,0-.86-.31-.97-.76-.13-.54.2-1.08.73-1.21,1.68-.41,3.41-.66,5.14-.74.55-.02,1.02.4,1.04.96s-.4,1.02-.96,1.04c-1.6.07-3.2.3-4.75.68-.08.02-.16.03-.24.03h0Z"/><path d="m272.16,453c-.27,0-.54-.11-.74-.33-.37-.41-.34-1.04.07-1.41l3.71-3.36c.41-.37,1.04-.34,1.41.07.37.41.34,1.04-.07,1.41l-3.71,3.36c-.19.17-.43.26-.67.26h0Zm7.41-6.71c-.27,0-.54-.11-.74-.33-.37-.41-.34-1.04.07-1.41l3.71-3.36c.41-.37,1.04-.34,1.41.07.37.41.34,1.04-.07,1.41l-3.71,3.36c-.19.17-.43.26-.67.26h0Zm7.41-6.71c-.27,0-.54-.11-.74-.33-.37-.41-.34-1.04.07-1.41l1.02-.93c.41-.37,1.04-.34,1.41.07.37.41.34,1.04-.07,1.41l-1.02.93c-.19.17-.43.26-.67.26h0Z"/><path d="m256.35,459.55c-.26,0-.53-.1-.73-.31-.38-.4-.36-1.03.04-1.41l3.63-3.44c.4-.38,1.03-.36,1.41.04.38.4.36,1.03-.04,1.41l-3.63,3.44c-.19.18-.44.27-.69.27h0Zm7.26-6.88c-.26,0-.53-.1-.73-.31-.38-.4-.36-1.03.04-1.41l3.63-3.44c.4-.38,1.03-.36,1.41.04.38.4.36,1.03-.04,1.41l-3.63,3.44c-.19.18-.44.27-.69.27h0Z"/><path class="uuid-73ac82b7-4b52-4b93-b621-04fff5d4c5c9" d="m357.23,425.79c-4.86-5.22-9.35-8.05-17.88-3.63"/><line class="uuid-73ac82b7-4b52-4b93-b621-04fff5d4c5c9" x1="373.7" y1="389.11" x2="389.02" y2="405.66"/></g><path d="m236.76,369.41l-24.81,36.89c-6.13-4.65-8.2-5.86-6.62-10.11-.38-.43,31.43-26.78,31.43-26.78h0Z"/></g><g><path class="uuid-c8acc748-5549-488d-9673-ee82474a7e79" d="m214.11,345.7c-8.05,5.83-25.34,20.79-35.52,29.67-1.67,1.45-2.82,3.41-3.39,5.55-1.27,4.72-2.91,11.08-4.41,16.99l31.84,7.91,1.71-6.39c.51-2.2,1.74-4.16,3.49-5.59l29.38-24.3"/><path class="uuid-c8acc748-5549-488d-9673-ee82474a7e79" d="m170.94,388.98c12.6-1.64,26.56,4.52,34.21,8.35,2.94,1.47,4.47,4.76,3.71,7.96l-1.81,7.63c-.4,1.66-1.64,3-3.27,3.51l-4.34,1.36,1.21-4.6s-15.34-11.14-31.83-8.58l-1,4.1-2.83-2.06c-1.59-1.16-2.33-3.17-1.86-5.09l1.78-7.25c.7-2.86,3.11-4.96,6.03-5.34h0Z"/></g></g></g></svg>
<svg id="uuid-b86e4cbe-7f03-4745-ba6f-e4bbc34688fe" data-name="BODY" xmlns="http://www.w3.org/2000/svg" xmlns:xlink="http://www.w3.org/1999/xlink" viewBox="0 0 600 600"><defs><style>
      .uuid-04762781-8186-4ed2-baf1-f857ced1e0b2, .uuid-149eec6d-4f9d-4896-a106-a4156b50f562, .uuid-08a6c331-4618-44ee-9952-8ffa4e0c4160, .uuid-f8f6917d-050d-460b-a02b-714b9c75d550, .uuid-4bf8e94b-17ea-4547-8d82-b038228e741d {
        fill: none;
      }

      .uuid-149eec6d-4f9d-4896-a106-a4156b50f562 {
        clip-path: url(#uuid-2e72cd1b-fdab-4f81-b8e4-6702d6b9af87);
      }

      .uuid-08a6c331-4618-44ee-9952-8ffa4e0c4160 {
        opacity: .5;
      }

      .uuid-228d3895-0778-49c8-83d3-30dfba100097 {
        fill: #f9a723;
      }

      .uuid-c83b020e-f705-48cb-b7c0-f9c8b022d30e {
        fill: #ffff0d;
      }

      .uuid-ad6c224e-0faa-4e21-854d-c5af1dadf6bc {
        fill: #9dff0c;
      }

      .uuid-2ff116f9-003d-4be2-a2d8-3bde47bf1bad {
        stroke-width: 2px;
      }

      .uuid-2ff116f9-003d-4be2-a2d8-3bde47bf1bad, .uuid-dac2b130-be88-462b-b470-d741f5c5d6da {
        fill: #00dfa9;
      }

      .uuid-2ff116f9-003d-4be2-a2d8-3bde47bf1bad, .uuid-dac2b130-be88-462b-b470-d741f5c5d6da, .uuid-4bf8e94b-17ea-4547-8d82-b038228e741d {
        stroke: #000;
        stroke-linecap: round;
        stroke-linejoin: round;
      }

      .uuid-dac2b130-be88-462b-b470-d741f5c5d6da, .uuid-4bf8e94b-17ea-4547-8d82-b038228e741d {
        stroke-width: 2px;
      }

      .uuid-f8f6917d-050d-460b-a02b-714b9c75d550 {
        clip-path: url(#uuid-e9dd4566-59bc-434a-9bd4-054fa7e89a9b);
      }
    </style><clipPath id="uuid-e9dd4566-59bc-434a-9bd4-054fa7e89a9b"><path class="uuid-04762781-8186-4ed2-baf1-f857ced1e0b2" d="m498.37,310.73l-4.5-25.52,11.93-2.1,5.21,29.56c-1.02.95-2.29,2.19-3.27,3.31,0,0-3.34-3.93-9.37-5.26h0Zm17.67,33.69c-8.9-6.88-1.98-14.48-1.98-14.48,0,0-3.93-.74-5.6-2.81-2.36,2.77-4.89,3.75-6.47,4.1l12.07,68.44,11.93-2.1-6.09-34.55c-13.34-3.46-11.97-13.85-3.85-18.6Z"/></clipPath><clipPath id="uuid-2e72cd1b-fdab-4f81-b8e4-6702d6b9af87"><polygon class="uuid-04762781-8186-4ed2-baf1-f857ced1e0b2" points="491.78 238.48 506.31 258.29 530.87 257.55 516.52 277.5 524.82 300.62 501.42 293.14 481.98 308.18 481.87 283.61 461.56 269.77 484.9 262.07 491.78 238.48"/></clipPath></defs><g id="uuid-31aa461f-c31d-4f84-9021-f7584a52c7ff" data-name="uuid-05a871f0-c9cf-4aac-9586-bf584656164d"><g id="uuid-f94554ab-e65b-452c-86e5-d9a4ed313404" data-name="uuid-9f8862e7-91e0-4d66-aff9-c612ab9ab165"><g><path class="uuid-ad6c224e-0faa-4e21-854d-c5af1dadf6bc" d="m498.37,310.73l-4.5-25.52,11.93-2.1,5.21,29.56c-1.02.95-2.29,2.19-3.27,3.31,0,0-3.34-3.93-9.37-5.26h0Zm17.67,33.69c-8.9-6.88-1.98-14.48-1.98-14.48,0,0-3.93-.74-5.6-2.81-2.36,2.77-4.89,3.75-6.47,4.1l12.07,68.44,11.93-2.1-6.09-34.55c-13.34-3.46-11.97-13.85-3.85-18.6Z"/><g class="uuid-f8f6917d-050d-460b-a02b-714b9c75d550"><g><path class="uuid-dac2b130-be88-462b-b470-d741f5c5d6da" d="m502.79,335.82c3.5-4.83,7.37-8.54,10.35-11.04l-2.53-14.33c-3.14,2.56-7,6.13-10.44,10.53l2.62,14.84h0Z"/><path class="uuid-dac2b130-be88-462b-b470-d741f5c5d6da" d="m507.52,362.63c3.5-4.83,7.37-8.54,10.35-11.04l-2.53-14.33c-3.14,2.56-7,6.13-10.44,10.53l2.62,14.84h0Z"/><path class="uuid-dac2b130-be88-462b-b470-d741f5c5d6da" d="m505.89,283.64c-3.14,2.56-7,6.13-10.44,10.53l2.62,14.84c3.5-4.83,7.37-8.54,10.35-11.04l-2.53-14.33Z"/><path class="uuid-dac2b130-be88-462b-b470-d741f5c5d6da" d="m522.6,378.39l-2.53-14.33c-3.14,2.56-7,6.13-10.44,10.53l2.62,14.84c3.5-4.83,7.37-8.54,10.35-11.04Z"/></g></g><path class="uuid-4bf8e94b-17ea-4547-8d82-b038228e741d" d="m498.37,310.73l-4.5-25.52,11.93-2.1,5.21,29.56c-1.02.95-2.29,2.19-3.27,3.31,0,0-3.34-3.93-9.37-5.26h0Zm17.67,33.69c-8.9-6.88-1.98-14.48-1.98-14.48,0,0-3.93-.74-5.6-2.81-2.36,2.77-4.89,3.75-6.47,4.1l12.07,68.44,11.93-2.1-6.09-34.55c-13.34-3.46-11.97-13.85-3.85-18.6Z"/></g><ellipse class="uuid-2ff116f9-003d-4be2-a2d8-3bde47bf1bad" cx="520.02" cy="398.62" rx="6.06" ry="4.84" transform="translate(-61.32 96.36) rotate(-10)"/><g><polygon class="uuid-c83b020e-f705-48cb-b7c0-f9c8b022d30e" points="491.78 238.48 506.31 258.29 530.87 257.55 516.52 277.5 524.82 300.62 501.42 293.14 481.98 308.18 481.87 283.61 461.56 269.77 484.9 262.07 491.78 238.48"/><g class="uuid-149eec6d-4f9d-4896-a106-a4156b50f562"><g><polygon class="uuid-228d3895-0778-49c8-83d3-30dfba100097" points="484.9 262.07 497.59 271.44 491.78 238.48 484.9 262.07"/><polygon class="uuid-228d3895-0778-49c8-83d3-30dfba100097" points="501.42 293.14 497.59 271.44 481.98 308.18 501.42 293.14"/><polygon class="uuid-228d3895-0778-49c8-83d3-30dfba100097" points="481.87 283.61 497.59 271.44 461.56 269.77 481.87 283.61"/><polygon class="uuid-228d3895-0778-49c8-83d3-30dfba100097" points="506.31 258.29 497.59 271.44 530.87 257.55 506.31 258.29"/><polygon class="uuid-228d3895-0778-49c8-83d3-30dfba100097" points="497.59 271.44 524.82 300.62 516.52 277.5 497.59 271.44"/></g></g><polygon class="uuid-4bf8e94b-17ea-4547-8d82-b038228e741d" points="491.78 238.48 506.31 258.29 530.87 257.55 516.52 277.5 524.82 300.62 501.42 293.14 481.98 308.18 481.87 283.61 461.56 269.77 484.9 262.07 491.78 238.48"/></g><g class="uuid-08a6c331-4618-44ee-9952-8ffa4e0c4160"><line class="uuid-4bf8e94b-17ea-4547-8d82-b038228e741d" x1="476.5" y1="287.43" x2="466.18" y2="293.6"/><line class="uuid-4bf8e94b-17ea-4547-8d82-b038228e741d" x1="476.5" y1="254.77" x2="466.18" y2="248.2"/><line class="uuid-4bf8e94b-17ea-4547-8d82-b038228e741d" x1="512.4" y1="248.8" x2="519.47" y2="240.41"/><line class="uuid-4bf8e94b-17ea-4547-8d82-b038228e741d" x1="526.55" y1="277.93" x2="539.19" y2="281.87"/><circle class="uuid-4bf8e94b-17ea-4547-8d82-b038228e741d" cx="457.75" cy="258.18" r="4.58"/><circle cx="458.4" cy="284.06" r="2.05"/><circle cx="540.65" cy="250.25" r="2.05"/><circle cx="548.64" cy="268.25" r="2.05"/><circle class="uuid-4bf8e94b-17ea-4547-8d82-b038228e741d" cx="534.81" cy="293.6" r="4.58"/><g><line class="uuid-4bf8e94b-17ea-4547-8d82-b038228e741d" x1="505.29" y1="228.15" x2="508.78" y2="236.99"/><line class="uuid-4bf8e94b-17ea-4547-8d82-b038228e741d" x1="511.46" y1="230.83" x2="502.61" y2="234.31"/></g><g><line class="uuid-4bf8e94b-17ea-4547-8d82-b038228e741d" x1="471.12" y1="301.37" x2="470.09" y2="310.82"/><line class="uuid-4bf8e94b-17ea-4547-8d82-b038228e741d" x1="475.33" y1="306.61" x2="465.88" y2="305.58"/></g></g></g></g></svg>
<svg id="uuid-2c12b907-b76f-4699-b403-115b318e8c0a" data-name="BODY" xmlns="http://www.w3.org/2000/svg" viewBox="0 0 600 600"><g id="uuid-fbaff554-f4e8-4966-8dd6-93a04a55e731" data-name="notes"><path id="uuid-c4bab009-7e62-47ea-a24c-6e0e8eb4e622" data-name="note" d="m530.94,167.64c-1.6-.76-3.52-.08-4.29,1.52,0,0-15.87,35.49-21.85,48.86-2.39-1.88-5.81-3.17-9.68-3.41-7.57-.46-13.95,3.29-14.26,8.37-.31,5.08,5.58,9.57,13.15,10.03,6.58.4,12.26-2.39,13.84-6.46.18-.2.35-.42.48-.67l24.14-53.95c.76-1.6.08-3.52-1.52-4.29Z"/><path id="uuid-3ea0a4af-a12f-4b4b-b4be-488363ed619c" data-name="note" d="m399.17,83.39l-13.93-22.62c-.9-1.53-2.87-2.05-4.4-1.16-.87.51-1.4,1.36-1.54,2.29-.84,3.27-9.74,38.06-13.21,51.58-2.67-1.45-6.26-2.15-10.12-1.72-7.54.83-13.2,5.6-12.64,10.66.56,5.06,7.12,8.49,14.65,7.66,6.56-.72,11.68-4.43,12.55-8.71.14-.23.27-.47.35-.75l12.83-50.06c4.07,6.61,9.77,15.86,9.85,15.99.32.55-5.45,4.09-5.45,4.09,0,0,8.87-2.36,9.85-2.93,1.51-.88,2.03-2.8,1.19-4.32Z"/><path id="uuid-c9c4d404-b4a7-4a04-9f34-9ae196a5cd99" data-name="note" d="m494.28,83.17s0-.03,0-.04c-.35-1.74-2.05-2.87-3.79-2.51,0,0-33.19,7.52-33.44,7.57-1.54.31-2.6,1.69-2.57,3.21-.92,5-7.13,38.67-9.59,51.99-2.76-1.27-6.4-1.71-10.21-1.03-7.46,1.34-12.78,6.49-11.88,11.5.9,5.01,7.68,7.98,15.14,6.64,6.49-1.17,11.35-5.21,11.92-9.54.13-.24.24-.49.3-.77l7.63-41.31,26.58-6.06c-2.15,11.64-4.71,25.53-6.09,33-2.76-1.27-6.4-1.71-10.21-1.03-7.46,1.34-12.78,6.49-11.88,11.5.9,5.01,7.68,7.98,15.14,6.64,6.49-1.17,11.36-5.21,11.92-9.54.13-.24.24-.49.3-.77l10.73-58.12c.09-.45.08-.9,0-1.32Zm-35.22,18.82l1.48-8.01,26.56-6c-.39,2.13-.89,4.85-1.46,7.95-4.21.96-19.81,4.53-26.58,6.07Z"/></g></svg>
<svg id="uuid-499a4094-d166-418c-a33c-d07543a88333" data-name="BODY" xmlns="http://www.w3.org/2000/svg" xmlns:xlink="http://www.w3.org/1999/xlink" viewBox="0 0 600 600"><defs><style>
      .uuid-76e919c8-f769-4746-9f54-c052f2839f0b, .uuid-3577aa37-3100-467b-bbbd-ee2c590872d6, .uuid-79007a77-5932-4ed7-86d6-b7f735da2a3f {
        fill: none;
      }

      .uuid-000301ee-73bf-4908-838f-f0acc3cafb97 {
        fill: #7aa6ff;
        stroke-width: 2px;
      }

      .uuid-000301ee-73bf-4908-838f-f0acc3cafb97, .uuid-cd01507f-41e2-4af0-8521-a8f3d5b2032c, .uuid-ad3e7142-bf3e-4804-b7ac-b75c86c32751, .uuid-3577aa37-3100-467b-bbbd-ee2c590872d6 {
        stroke: #000;
        stroke-linecap: round;
        stroke-linejoin: round;
      }

      .uuid-cd01507f-41e2-4af0-8521-a8f3d5b2032c {
        fill: #ffff0d;
      }

      .uuid-cd01507f-41e2-4af0-8521-a8f3d5b2032c, .uuid-ad3e7142-bf3e-4804-b7ac-b75c86c32751, .uuid-3577aa37-3100-467b-bbbd-ee2c590872d6 {
        stroke-width: 2px;
      }

      .uuid-ad3e7142-bf3e-4804-b7ac-b75c86c32751 {
        fill: #fff;
      }

      .uuid-79007a77-5932-4ed7-86d6-b7f735da2a3f {
        clip-path: url(#uuid-ce0777ef-ae89-43b1-bc43-aff59ad98230);
      }
    </style><clipPath id="uuid-ce0777ef-ae89-43b1-bc43-aff59ad98230"><rect class="uuid-76e919c8-f769-4746-9f54-c052f2839f0b" x="622" y="0" width="356.77" height="259.02"/></clipPath></defs><g id="uuid-3edb28fb-1dc5-4fe3-b8f5-b89a21cbec72" data-name="uuid-d8bf4a7d-ed85-4a3e-a407-7d1570284e6b"><g id="uuid-48f3e834-e885-438b-a9bd-fa187af06f63" data-name="uuid-1dd71221-1f4e-4737-8065-faffc7160480"><g><ellipse class="uuid-000301ee-73bf-4908-838f-f0acc3cafb97" cx="266.94" cy="203.15" rx="30.35" ry="11.13" transform="translate(-52.75 101.53) rotate(-19.64)"/><ellipse class="uuid-000301ee-73bf-4908-838f-f0acc3cafb97" cx="264.79" cy="197.11" rx="30.35" ry="11.13" transform="translate(-50.84 100.45) rotate(-19.64)"/><ellipse class="uuid-000301ee-73bf-4908-838f-f0acc3cafb97" cx="262.63" cy="191.07" rx="30.35" ry="11.13" transform="translate(-48.94 99.38) rotate(-19.64)"/><ellipse class="uuid-000301ee-73bf-4908-838f-f0acc3cafb97" cx="260.47" cy="185.02" rx="30.35" ry="11.13" transform="translate(-47.03 98.3) rotate(-19.64)"/></g><g><path class="uuid-ad3e7142-bf3e-4804-b7ac-b75c86c32751" d="m330.41,99.76l-62.82,22.42c-2.6.93-5.39-.74-5.83-3.47-1.29-8.1-2.08-23.59,8.68-30.57,18.38-11.91,27.66,4.66,27.66,4.66,0,0,4.36-8.28,13.29-9.59,11.98-1.75,18.34,5.15,21.32,10.16,1.41,2.38.3,5.46-2.31,6.39h0Z"/><path class="uuid-ad3e7142-bf3e-4804-b7ac-b75c86c32751" d="m298.11,92.8c2.54,4.8.55,8.27.55,8.27"/></g><g><path class="uuid-cd01507f-41e2-4af0-8521-a8f3d5b2032c" d="m282.6,119.07c-8.17-22.91-33.78-34.59-56.57-25.44-20.44,8.2-31.46,30.96-25.19,52.08,3.36,11.33,10.89,20.15,20.34,25.4,6.82,3.79,11.92,10.06,14.54,17.4l1.72,4.83s1.55,4.35,24.6-3.88c23.05-8.22,21.5-12.57,21.5-12.57l-1.73-4.83c-2.63-7.38-2.6-15.48.28-22.77,3.69-9.34,4.14-20.01.5-30.21h0Z"/><g><path class="uuid-ad3e7142-bf3e-4804-b7ac-b75c86c32751" d="m249.28,153.66c-1.16.41-2.54.87-4.06,1.31,2.91,6.34,6.15,15,10.37,26.82.46,1.3-.21,2.73-1.51,3.19s-2.73-.21-3.19-1.51c-4.37-12.24-7.7-21.09-10.62-27.31-4.18.78-8.65,1.01-12.11-.31-4.08-1.56-7.33-4.89-8.47-8.69-.77-2.57-.47-5.08.84-6.89,1.23-1.7,3.19-2.74,5.52-2.93,3.76-.29,7.87,1.61,11.59,5.36,1.83,1.85,3.56,4.34,5.36,7.71,1.49-.4,3.03-.89,4.63-1.45m-22.07-6.45c-.42.15-.75.38-.96.68-.38.53-.42,1.48-.11,2.53.55,1.84,2.28,4.25,5.46,5.46,1.86.71,4.61.8,7.94.32-1.29-2.26-2.54-3.99-3.8-5.27-3.73-3.76-6.59-3.98-7.64-3.89-.33.03-.62.09-.89.18h0Z"/><path class="uuid-ad3e7142-bf3e-4804-b7ac-b75c86c32751" d="m237.86,151.48s3.08-.49,5.11-1.08"/><path class="uuid-ad3e7142-bf3e-4804-b7ac-b75c86c32751" d="m240.26,156.15s2.72-.5,4.96-1.18"/><path class="uuid-ad3e7142-bf3e-4804-b7ac-b75c86c32751" d="m247.6,148.95c1.59-.57,3.1-1.17,4.5-1.8-.74-3.75-.98-6.77-.73-9.36.5-5.26,2.48-9.34,5.57-11.49,1.92-1.34,4.1-1.77,6.12-1.23,2.15.58,3.98,2.33,5.01,4.8,1.53,3.67,1.12,8.3-1.05,12.09-1.85,3.22-5.45,5.87-9.18,7.91,1.68,6.67,4.7,15.63,9.07,27.87.46,1.3-.21,2.73-1.51,3.19-1.3.46-2.73-.21-3.19-1.51-4.22-11.82-7.18-20.57-8.95-27.33-1.45.62-2.81,1.15-3.97,1.56m10.52-23.25c-.87.6-2.95,2.58-3.45,7.85-.17,1.78-.04,3.91.39,6.48,2.88-1.73,4.96-3.55,5.94-5.27,1.7-2.95,1.51-5.91.77-7.68-.42-1.01-1.05-1.72-1.68-1.89-.36-.1-.76-.07-1.18.08-.26.09-.53.24-.8.42h0Z"/><path class="uuid-ad3e7142-bf3e-4804-b7ac-b75c86c32751" d="m256.74,144.74s-2.7,1.57-4.64,2.4"/><path class="uuid-ad3e7142-bf3e-4804-b7ac-b75c86c32751" d="m257.84,149.87s-2.42,1.34-4.59,2.22"/></g></g><g><path class="uuid-ad3e7142-bf3e-4804-b7ac-b75c86c32751" d="m159.12,183.16l62.82-22.42c2.6-.93,3.7-3.99,2.31-6.37-4.14-7.09-13.32-19.58-26.07-18.17-21.77,2.41-18.46,21.12-18.46,21.12,0,0-8.62-3.65-16.35.99-10.38,6.23-10.94,15.6-10.07,21.36.41,2.74,3.22,4.42,5.83,3.49h0Z"/><path class="uuid-ad3e7142-bf3e-4804-b7ac-b75c86c32751" d="m179.72,157.33c1.07,5.32,4.81,6.75,4.81,6.75"/></g><g><path class="uuid-ad3e7142-bf3e-4804-b7ac-b75c86c32751" d="m187.72,100.34l51.25-18.29c2.12-.76,2.98-3.38,1.79-5.47-3.52-6.2-11.29-17.15-21.74-16.15-17.85,1.71-14.81,17.93-14.81,17.93,0,0-7.15-3.3-13.42.57-8.43,5.2-8.72,13.3-7.91,18.28.39,2.37,2.72,3.87,4.85,3.11h0Z"/><path class="uuid-ad3e7142-bf3e-4804-b7ac-b75c86c32751" d="m204.2,78.36c.97,4.61,4.07,5.92,4.07,5.92"/></g><path class="uuid-3577aa37-3100-467b-bbbd-ee2c590872d6" d="m153.9,136.08s14.12-8.54,20.74-2.46c-2.05-8.89,4.05-12.3,4.05-12.3"/><path class="uuid-3577aa37-3100-467b-bbbd-ee2c590872d6" d="m266.41,57.89s-11.26,2.17-11.04,10.9c-3.89-8.07-8.6-6.92-8.6-6.92"/><path class="uuid-3577aa37-3100-467b-bbbd-ee2c590872d6" d="m294.53,68.95s-7.36-1.3-9.28,4.95c-.47-6.71-3.61-7.08-3.61-7.08"/></g></g><g id="uuid-d91b92b5-8f94-44f5-918e-22daf6ee3a0b" data-name="uuid-e7813b6f-2e9c-4ced-a089-4ee6c80ec3de"><g id="uuid-f225defe-e3c7-4b99-a35f-f82dd7397eda" data-name="uuid-a396a31d-4a55-404b-af28-89c8152d84a8"><g class="uuid-79007a77-5932-4ed7-86d6-b7f735da2a3f"><path class="uuid-cd01507f-41e2-4af0-8521-a8f3d5b2032c" d="m643.84-3.16h-47.46s16.55,65.86,104.09,137.39c42.59,34.8,80.9,50.61,123.9,98.29,0,0,4.35,5.26,26.05.81,0,0-11.34-27.93-32.91-47.67-21.57-19.74-59.06-42.39-92.22-73.14-33.17-30.74-60.94-72.81-81.44-115.69Z"/></g></g></g></svg>
</svg>