<?xml version="1.0" encoding="UTF-8"?>
<svg xmlns="http://www.w3.org/2000/svg" viewBox="0 0 600 600">
<svg id="uuid-d9dcaeb1-b3e9-4103-a9e9-674eb3b1cf0f" data-name="BACKGROUND" xmlns="http://www.w3.org/2000/svg" viewBox="0 0 600 600"><defs><style>
      .uuid-ddba642b-737c-447a-8d97-1fa19eb8e4a8 {
        fill: #ff78d8;
      }
    </style></defs><rect class="uuid-ddba642b-737c-447a-8d97-1fa19eb8e4a8" x="-1" y="-1" width="602" height="602"/></svg>
<svg id="uuid-c0346afe-1da2-46db-983f-ff876e5ed0be" data-name="BACKGROUND" xmlns="http://www.w3.org/2000/svg" viewBox="0 0 600 600"><defs><style>
      .uuid-57589ea0-1d07-4328-ae89-4ee799f66552, .uuid-c10b6e76-7067-4537-83d5-be1c345ab04f, .uuid-f7ed3fbc-843c-4765-b5cd-d9cd6e37a7d5, .uuid-ac3d9d9c-4bc2-4bef-8fbc-2d131af06a7b, .uuid-439c01fe-2c98-4586-aa72-e669aa572e14, .uuid-c68252c4-c75b-47e2-a3b4-534035c0255b, .uuid-ccc65212-dc3d-450b-b9c5-0a9cc3ad62c0 {
        stroke: #000;
        stroke-width: 2px;
      }

      .uuid-57589ea0-1d07-4328-ae89-4ee799f66552, .uuid-c10b6e76-7067-4537-83d5-be1c345ab04f, .uuid-f7ed3fbc-843c-4765-b5cd-d9cd6e37a7d5, .uuid-439c01fe-2c98-4586-aa72-e669aa572e14, .uuid-c68252c4-c75b-47e2-a3b4-534035c0255b {
        stroke-linecap: round;
      }

      .uuid-57589ea0-1d07-4328-ae89-4ee799f66552, .uuid-ac3d9d9c-4bc2-4bef-8fbc-2d131af06a7b, .uuid-c68252c4-c75b-47e2-a3b4-534035c0255b, .uuid-ccc65212-dc3d-450b-b9c5-0a9cc3ad62c0 {
        fill: #7aa6ff;
      }

      .uuid-57589ea0-1d07-4328-ae89-4ee799f66552, .uuid-439c01fe-2c98-4586-aa72-e669aa572e14, .uuid-ccc65212-dc3d-450b-b9c5-0a9cc3ad62c0 {
        stroke-linejoin: round;
      }

      .uuid-8b7867c5-1aab-4d13-8c98-43caa4245778, .uuid-c10b6e76-7067-4537-83d5-be1c345ab04f {
        fill: #fff;
      }

      .uuid-c10b6e76-7067-4537-83d5-be1c345ab04f, .uuid-f7ed3fbc-843c-4765-b5cd-d9cd6e37a7d5, .uuid-ac3d9d9c-4bc2-4bef-8fbc-2d131af06a7b, .uuid-c68252c4-c75b-47e2-a3b4-534035c0255b {
        stroke-miterlimit: 10;
      }

      .uuid-f7ed3fbc-843c-4765-b5cd-d9cd6e37a7d5 {
        fill: #00dfa9;
      }

      .uuid-439c01fe-2c98-4586-aa72-e669aa572e14 {
        fill: none;
      }
    </style></defs><path class="uuid-57589ea0-1d07-4328-ae89-4ee799f66552" d="m409.81,359.6c9.2,3.77,29.89,12.05,42.79,16.03,2.11.65,4.41.69,6.5-.04,11.79-4.08,28.47-11.39,33.03-11.32,5.25.08,7.8,3.93,19.88,2.04,13.36-2.1,22.43-11.99,20.93-23.3-4.21-43.28-25.18-26.79-25.18-26.79,0,0-5.84-8.75-18.76-4.82-11.83,3.6-10.2,14.44-6.47,22.47l-25.29,8.58c-2.14.72-4.45.71-6.59-.02l-35.7-12.61"/><path class="uuid-c68252c4-c75b-47e2-a3b4-534035c0255b" d="m533.36,312.82c2.5,3.94,1.62,9.14-1.57,12.4-2.47,2.53-5.88,3.88-9.32,4.4-2.8.43-5.7.42-8.49-.08-2.14-.39-4.29-1.1-5.79-2.75-1.66-1.83-2.27-4.46-1.98-6.87.51-4.17,3.84-7.14,7.22-9.26,3.17-1.98,6.86-3.26,10.64-3.09,3.8.18,7.36,2.19,9.3,5.24Z"/><path class="uuid-c68252c4-c75b-47e2-a3b4-534035c0255b" d="m538.57,349.84c.97,3.03.32,6.43-1.5,9.01-3.77,5.33-11.17,5.65-16.96,4.27-3.31-.79-6.69-2.21-8.67-5.13-3.13-4.61-.82-9.79,3.48-12.56,2.58-1.66,5.61-2.67,8.63-3.14,5.73-.89,13.1,1.51,15.03,7.56Z"/><path class="uuid-c68252c4-c75b-47e2-a3b4-534035c0255b" d="m538.71,328.53c1.8,2.99,2.06,6.89.22,9.9-1.95,3.2-4.94,5.25-8.49,6.28-3.66,1.07-7.64,1.27-11.4.44-2.25-.5-4.53-1.38-5.96-3.28-1.86-2.47-1.89-5.68-.85-8.49,1.2-3.24,4.17-5.69,7.09-7.37,6.15-3.56,15.21-4.43,19.39,2.52Z"/><path class="uuid-c68252c4-c75b-47e2-a3b4-534035c0255b" d="m501.85,311.68s9.27,3.84,7.77,12.02c-1.04,5.68-8.17,9.55-14.94,6.13"/><path class="uuid-439c01fe-2c98-4586-aa72-e669aa572e14" d="m500.67,331.08c2.41,1.63,5.11,8.04,3.4,14.42"/><path d="m443.44,339.88c-2.88,10.58-6.94,20.23-11.17,28.59-10.17-3.78-21.16-9.53-27-11.93l11.83-26.02,26.35,9.36Z"/><ellipse cx="300" cy="518.65" rx="138.6" ry="22.93"/><path class="uuid-ac3d9d9c-4bc2-4bef-8fbc-2d131af06a7b" d="m319.36,427.14c-1.16,1.05-54.95,57-54.95,57,0,0,21.51-1.95,31.74,10.62,10.23,12.57,7.26,23.89,7.26,23.89h-66.9s-28.69-36.17-28.69-36.17c0,0,3.74-13.4,20.44-10.59,20.9-19.38,55.52-59.13,55.52-59.13l35.59,14.38Z"/><path d="m283.78,412.76l31.28,12.64-3.24,9.5c-2.93,3.03-9.76,10.12-13.64,14.14-11.92,0-27.98-2.13-41.33-6.37,13.95-15.1,26.93-29.92,26.93-29.92Z"/><path class="uuid-ac3d9d9c-4bc2-4bef-8fbc-2d131af06a7b" d="m354.45,173.54l-.11.27-174.2,58.29c-11.49,20.13-18.05,43.43-18.05,68.27,0,76.2,61.77,137.98,137.97,137.98s137.98-61.77,137.98-137.98c0-56.89-34.43-105.72-83.58-126.83Z"/><path class="uuid-439c01fe-2c98-4586-aa72-e669aa572e14" d="m264.41,484.14c-4.06.49-11.49,1.36-17.85,7.23"/><path class="uuid-8b7867c5-1aab-4d13-8c98-43caa4245778" d="m185.17,308.14c-4.41,0-7.98-3.57-7.98-7.98,0-67.74,55.11-122.86,122.86-122.86,4.41,0,7.98,3.57,7.98,7.98s-3.57,7.98-7.98,7.98c-58.94,0-106.9,47.95-106.9,106.9,0,4.41-3.57,7.98-7.98,7.98Z"/><path d="m203.75,397.46l34.2-27.46-24.86,36.3c-6.73-5.1-3.66-2.61-9.34-8.83Z"/><path class="uuid-ccc65212-dc3d-450b-b9c5-0a9cc3ad62c0" d="m323.72,387.31c19.14-13.4,39.15-11.3,55.52,7.36,19.6,22.35,30.57,33.06,30.57,33.06,0,0,10.74-19.34,34.77-17.5,18.26,1.4,24.84,14.43,24.84,14.43,0,0,6.21,8.82-22.45,33.5-28.66,24.68-54.93,40.92-61.14,29.46-6.21-11.46-2.82-32.1-2.82-32.1,0,0-22.02-26.09-27.94-32.01-6.79-6.79-15.71-1.36-15.71-1.36"/><path class="uuid-ac3d9d9c-4bc2-4bef-8fbc-2d131af06a7b" d="m446.97,458.17c-25.89,22.29-49.82,37.69-58.79,32.02-9.77-7.44,26.84-38.54,44.88-52.7,18.04-14.16,32.17-17.82,36.36-12.81,0,0,6.21,8.82-22.45,33.5Z"/><path class="uuid-439c01fe-2c98-4586-aa72-e669aa572e14" d="m409.81,427.74c-1.89,2.86-4.55,10.38-4.55,10.38"/><ellipse class="uuid-c10b6e76-7067-4537-83d5-be1c345ab04f" cx="269.41" cy="209.07" rx="94.9" ry="26.25" transform="translate(-52.5 96.54) rotate(-18.55)"/><ellipse class="uuid-f7ed3fbc-843c-4765-b5cd-d9cd6e37a7d5" cx="269.41" cy="209.07" rx="71.19" ry="13.32" transform="translate(-52.5 96.54) rotate(-18.55)"/><g><path class="uuid-57589ea0-1d07-4328-ae89-4ee799f66552" d="m214.11,345.7c-8.05,5.83-25.34,20.79-35.52,29.67-1.67,1.45-2.82,3.41-3.39,5.55-3.14,11.67-8.55,33.44-8.55,33.44,0,0-8.42.58-12.19,14.35-3.64,13.3-6.64,25.06,3.77,29.75.35,7.47,7.51,15.45,19.2,9.41.14-.06,1.32,1.32,1.44,1.45,2.64,2.7,6.36,4.45,10.13,4.81,3.65.36,7.61-.67,10.43-3.08,3.29-2.81,5.4-6.94,6.05-11.2.4-2.61.26-5.31-.75-7.78,0,0,6.2-2.51,8.05-11.34,1.99-9.49-4.22-19.42-14.62-18.18l6.17-23.11c.51-2.2,1.74-4.16,3.49-5.59l29.38-24.3"/><path class="uuid-439c01fe-2c98-4586-aa72-e669aa572e14" d="m204.73,452.06c-1.37-3.47-5.39-7.08-9-6.88"/><path class="uuid-439c01fe-2c98-4586-aa72-e669aa572e14" d="m178.86,469.3c-5.16-5.27-3.82-11.97-2.9-13.54"/><path class="uuid-439c01fe-2c98-4586-aa72-e669aa572e14" d="m158.22,458.45c-.27-5.22.73-7.32,3.06-9.83"/><path class="uuid-439c01fe-2c98-4586-aa72-e669aa572e14" d="m193.93,450.63c.14-2.07.48-4.16,1.32-6.06.85-1.95,2.36-3.88,4.31-4.85"/></g></svg>
<svg id="uuid-175be159-db61-4df5-a3ec-4e569af78a21" data-name="BODY" xmlns="http://www.w3.org/2000/svg" viewBox="0 0 600 600"><defs><style>
      .uuid-cb5ad370-d590-4d84-8471-319d1a4c5aa5 {
        fill: none;
        stroke: #000;
        stroke-linecap: round;
        stroke-linejoin: round;
        stroke-width: 4px;
      }
    </style></defs><g id="uuid-13c94933-b88a-4a0e-9bd5-264a3853387a" data-name="expressions"><g id="uuid-006bcb9c-427f-47d9-92c9-0f51d1e9073c" data-name="mouth"><circle cx="362.12" cy="293.18" r="9.78" transform="translate(-9.59 12.26) rotate(-1.91)"/></g><g id="uuid-aa5f76af-2ff8-4e7f-a2a4-73d690451a8d" data-name="eye L"><circle cx="337.63" cy="273.96" r="9.78" transform="translate(-8.96 11.43) rotate(-1.91)"/></g><g id="uuid-4d2b7d8b-0a30-48e5-b672-08579e330a1a" data-name="eye R"><polyline class="uuid-cb5ad370-d590-4d84-8471-319d1a4c5aa5" points="374.33 254.17 360.69 266.02 379.28 264.87"/></g></g></svg>
<svg id="uuid-7eb5044b-fa94-461c-9907-85b3dc64ac7e" data-name="BODY" xmlns="http://www.w3.org/2000/svg" viewBox="0 0 600 600"><defs><style>
      .uuid-87397e4f-7e3d-490c-b43b-0db3bec0377c {
        stroke-miterlimit: 10;
      }

      .uuid-87397e4f-7e3d-490c-b43b-0db3bec0377c, .uuid-179c102d-ff8a-46ca-913c-1d5c9e7a9cc5, .uuid-81fb7240-34aa-4204-83f9-daaedb437d29 {
        stroke: #000;
        stroke-width: 2px;
      }

      .uuid-87397e4f-7e3d-490c-b43b-0db3bec0377c, .uuid-81fb7240-34aa-4204-83f9-daaedb437d29 {
        fill: #00dfa9;
      }

      .uuid-179c102d-ff8a-46ca-913c-1d5c9e7a9cc5 {
        fill: #00dea8;
      }

      .uuid-179c102d-ff8a-46ca-913c-1d5c9e7a9cc5, .uuid-81fb7240-34aa-4204-83f9-daaedb437d29 {
        stroke-linecap: round;
        stroke-linejoin: round;
      }
    </style></defs><g id="uuid-0a79d125-2460-4fad-b66e-ec883e358a37" data-name="cloath"><path class="uuid-87397e4f-7e3d-490c-b43b-0db3bec0377c" d="m475.37,333.6l-.67.23-18.19,6.17c-2.14.72-4.45.71-6.59-.02l-14.53-5.13-.84-.31c-1.28,9.01-3.34,22.43-5.9,35.7,8.27,3.18,17.18,6.45,23.95,8.54,2.11.65,4.41.69,6.5-.04,8.64-2.99,19.91-7.72,27.11-10-5.49-14.17-8.97-27.13-10.85-35.15Z"/><path class="uuid-179c102d-ff8a-46ca-913c-1d5c9e7a9cc5" d="m389.96,395.83c.5,4.15.99,8.37,1.44,12.46,11.91,13.09,18.41,19.44,18.41,19.44,0,0,2.52-4.53,7.85-9,2.33-9.7,5.36-22.52,8.28-35.44,5.93-26.21,10.09-59.65,10.09-59.65l-58.59,43.63s9.92,7.1,12.53,28.55Z"/><path class="uuid-179c102d-ff8a-46ca-913c-1d5c9e7a9cc5" d="m229.38,322.79c-22.2-11.38-65.51-50.43-65.51-50.43,0,0-16.23,68.13-9.71,140.58,2.57,1.21,5.13,2.38,7.68,3.52,2.63-1.94,4.79-2.09,4.79-2.09,0,0,5.41-21.77,8.55-33.44.57-2.14,1.73-4.09,3.39-5.55,10.18-8.88,27.47-23.84,35.52-29.67l23.09,23.85-29.38,24.3c-1.75,1.43-2.97,3.39-3.49,5.59l-6.17,23.11c8.2-.97,13.79,4.99,14.82,12.21,66.61,18.53,119.01,13.83,119.01,13.83,0,0,18.43-66.82,37.77-80.41-68.91-16.49-81.39-15.13-140.38-45.38Z"/><path class="uuid-81fb7240-34aa-4204-83f9-daaedb437d29" d="m219.04,338.63c-8.05,5.83-31.04,24.25-41.22,33.13-1.67,1.45-2.82,3.41-3.39,5.55-1.89,7.03-4.6,17.71-6.46,25.1,3.49.59,9.59,2.09,17.16,5.88s15.2,7.66,19.3,9.74l4.87-18.24c.51-2.2,1.74-4.16,3.49-5.59l28.69-22.43"/><circle class="uuid-179c102d-ff8a-46ca-913c-1d5c9e7a9cc5" cx="173.5" cy="387.84" r="8.9"/><g><path class="uuid-179c102d-ff8a-46ca-913c-1d5c9e7a9cc5" d="m365.71,370.05c0-2.38.94-4.54,2.47-6.14-36.47-3.56-107.71-32.49-135.31-50.98-29.4-19.7-64.67-54.67-64.67-54.67,0,0-7.58,4.34-6.36,23.82,16.08,31.85,61.46,83.03,61.46,83.03l53.91-16.78-7.39,45.48s33.27-4.01,54.62-9.13c19.17-4.59,35.64-8.53,42.39-10.31-.71-1.28-1.12-2.75-1.12-4.32Z"/><path class="uuid-179c102d-ff8a-46ca-913c-1d5c9e7a9cc5" d="m438.28,298.43s-9.6,21.32-26.38,38.85c-9.15,9.56-25.57,20.93-32.29,25.42,2.34,1.6,3.88,4.29,3.88,7.35,0,1.17-.23,2.29-.64,3.31,10.42-2.02,33.64-8.21,49.69-25.01,8.17-22.96,5.74-49.91,5.74-49.91Z"/><circle class="uuid-179c102d-ff8a-46ca-913c-1d5c9e7a9cc5" cx="374.6" cy="370.05" r="8.9"/></g><path d="m436.13,335.09c-.88,4.42-2.04,8.91-3.59,13.26-.03.03-.06.06-.09.09-1.08,6.81-2.37,14.4-3.83,21.93,2.65.99,5.17,1.94,7.4,2.76,3.26-12,5.61-23.22,7.96-35.22l-7.85-2.83Z"/><path d="m207.37,394.72l34.83-22.3-38.87,49.43c-1.04-.39-2.74-.39-3.99-.28,2.43-8.59,6.17-23.11,8.04-26.85Z"/></g></svg>
<svg id="uuid-55ecc028-236b-4107-a473-b463f673f86d" data-name="BODY" xmlns="http://www.w3.org/2000/svg" xmlns:xlink="http://www.w3.org/1999/xlink" viewBox="0 0 600 600"><defs><style>
      .uuid-f7cf47f1-387c-40c0-8451-efa3e1f48bb3, .uuid-6ab753ec-842d-4635-8bda-4f11118cf21d, .uuid-e45dda09-b6fd-469a-8eb9-5847bc51013b, .uuid-b4015b0b-b5a2-4504-ab5f-b3dc7c0f0bea, .uuid-b1a063f9-d398-49ac-8717-dedd55fd17c7 {
        fill: none;
      }

      .uuid-6ab753ec-842d-4635-8bda-4f11118cf21d {
        clip-path: url(#uuid-cd30974c-211b-420c-b621-0d4b41918d4b);
      }

      .uuid-e45dda09-b6fd-469a-8eb9-5847bc51013b {
        clip-path: url(#uuid-0ad76e5b-fc91-46c9-818d-ed4d146208f8);
      }

      .uuid-8a193521-0ef5-4407-9ee8-bb4ebcd57992, .uuid-acba282c-cbdd-4fe6-aee3-1b2aaa578edb, .uuid-d76bb13e-79ef-4d22-868e-758f3fc81ba4, .uuid-7ca8cd12-c4ef-474d-b7e8-9ac616bc8090, .uuid-53cbd553-6925-4261-892e-503624ed011f, .uuid-8318a3fb-8d6a-4db7-b071-a15a473496d3, .uuid-93feedb8-91e3-42a2-bd0a-197c246fdb2b, .uuid-aa1376c1-8f7a-4198-be7e-f0dfeb7eba4b, .uuid-b4015b0b-b5a2-4504-ab5f-b3dc7c0f0bea, .uuid-b1a063f9-d398-49ac-8717-dedd55fd17c7 {
        stroke: #000;
        stroke-linecap: round;
        stroke-linejoin: round;
      }

      .uuid-8a193521-0ef5-4407-9ee8-bb4ebcd57992, .uuid-acba282c-cbdd-4fe6-aee3-1b2aaa578edb, .uuid-124c2ab5-3017-4aff-88c5-916403019659 {
        fill: #7aa6ff;
      }

      .uuid-8a193521-0ef5-4407-9ee8-bb4ebcd57992, .uuid-7ca8cd12-c4ef-474d-b7e8-9ac616bc8090, .uuid-53cbd553-6925-4261-892e-503624ed011f, .uuid-93feedb8-91e3-42a2-bd0a-197c246fdb2b, .uuid-b4015b0b-b5a2-4504-ab5f-b3dc7c0f0bea {
        stroke-width: 2px;
      }

      .uuid-acba282c-cbdd-4fe6-aee3-1b2aaa578edb, .uuid-8318a3fb-8d6a-4db7-b071-a15a473496d3, .uuid-aa1376c1-8f7a-4198-be7e-f0dfeb7eba4b, .uuid-b1a063f9-d398-49ac-8717-dedd55fd17c7 {
        stroke-width: 2px;
      }

      .uuid-d76bb13e-79ef-4d22-868e-758f3fc81ba4 {
        stroke-width: 2px;
      }

      .uuid-d76bb13e-79ef-4d22-868e-758f3fc81ba4, .uuid-7ca8cd12-c4ef-474d-b7e8-9ac616bc8090 {
        fill: #8400ff;
      }

      .uuid-66f64252-28db-40bd-8f2c-f28f22893256 {
        fill: #fff7f0;
      }

      .uuid-53cbd553-6925-4261-892e-503624ed011f, .uuid-8318a3fb-8d6a-4db7-b071-a15a473496d3 {
        fill: #a07bff;
      }

      .uuid-93feedb8-91e3-42a2-bd0a-197c246fdb2b, .uuid-aa1376c1-8f7a-4198-be7e-f0dfeb7eba4b {
        fill: #00dfa9;
      }
    </style><clipPath id="uuid-0ad76e5b-fc91-46c9-818d-ed4d146208f8"><rect class="uuid-f7cf47f1-387c-40c0-8451-efa3e1f48bb3" x="16.46" y="333.04" width="288" height="266.96"/></clipPath><clipPath id="uuid-cd30974c-211b-420c-b621-0d4b41918d4b"><rect class="uuid-f7cf47f1-387c-40c0-8451-efa3e1f48bb3" x="184.41" y="448.21" width="13.5" height="71.81" transform="translate(-328.3 516.71) rotate(-72.04)"/></clipPath></defs><g id="uuid-c271d4e6-0ed9-43ec-a6eb-586182258769" data-name="uuid-aa1a3761-725c-4c6a-bb08-3b927dabb1b6"><g class="uuid-e45dda09-b6fd-469a-8eb9-5847bc51013b"><g><g><polygon class="uuid-8a193521-0ef5-4407-9ee8-bb4ebcd57992" points="91.61 442.3 86.94 440.79 114.36 362.08 115.56 362.47 91.61 442.3"/><circle class="uuid-8a193521-0ef5-4407-9ee8-bb4ebcd57992" cx="114.96" cy="362.27" r="3.66"/></g><g><path class="uuid-53cbd553-6925-4261-892e-503624ed011f" d="m250.78,490.94l-162.48-40.18c-2.64-.86-5.48.59-6.33,3.23l-6.05,18.67c-.86,2.64.59,5.48,3.23,6.33l168.95,54.76c2.64.86,5.48-.59,6.33-3.23l6.05-18.67c.45-1.38.27-2.81-.38-3.98-.6-1.08-8.05-16.51-9.32-16.92h0Z"/><path class="uuid-aa1376c1-8f7a-4198-be7e-f0dfeb7eba4b" d="m80.92,435.35l167.79,54.38c2.96.96,4.58,4.14,3.62,7.1l-7.41,22.87-178.52-57.86,7.41-22.87c.96-2.96,4.14-4.58,7.1-3.62Z"/><g><polygon class="uuid-53cbd553-6925-4261-892e-503624ed011f" points="144.41 476.06 94.59 459.91 105.57 449.28 155.39 465.42 144.41 476.06"/><g><line class="uuid-b4015b0b-b5a2-4504-ab5f-b3dc7c0f0bea" x1="126.49" y1="470.25" x2="137.47" y2="459.61"/><line class="uuid-b4015b0b-b5a2-4504-ab5f-b3dc7c0f0bea" x1="119.33" y1="467.93" x2="130.31" y2="457.3"/><line class="uuid-b4015b0b-b5a2-4504-ab5f-b3dc7c0f0bea" x1="112.52" y1="465.72" x2="123.5" y2="455.09"/></g></g><g><rect class="uuid-124c2ab5-3017-4aff-88c5-916403019659" x="184.41" y="448.21" width="13.5" height="71.81" transform="translate(-328.3 516.71) rotate(-72.04)"/><g class="uuid-6ab753ec-842d-4635-8bda-4f11118cf21d"><g><polygon class="uuid-66f64252-28db-40bd-8f2c-f28f22893256" points="210.04 497.33 194.4 492.26 205.38 481.62 221.02 486.69 210.04 497.33"/><polygon class="uuid-66f64252-28db-40bd-8f2c-f28f22893256" points="187.58 490.05 179.76 487.51 190.74 476.88 198.56 479.41 187.58 490.05"/><polygon class="uuid-66f64252-28db-40bd-8f2c-f28f22893256" points="165.85 483 161.25 481.51 172.23 470.88 176.83 472.37 165.85 483"/></g></g><rect class="uuid-b1a063f9-d398-49ac-8717-dedd55fd17c7" x="184.41" y="448.21" width="13.5" height="71.81" transform="translate(-328.3 516.71) rotate(-72.04)"/></g><g><line class="uuid-b4015b0b-b5a2-4504-ab5f-b3dc7c0f0bea" x1="78.63" y1="440.55" x2="93.51" y2="445.37"/><line class="uuid-b4015b0b-b5a2-4504-ab5f-b3dc7c0f0bea" x1="74.47" y1="453.39" x2="89.35" y2="458.21"/><line class="uuid-b4015b0b-b5a2-4504-ab5f-b3dc7c0f0bea" x1="76.55" y1="446.97" x2="91.43" y2="451.79"/></g><g><line class="uuid-b4015b0b-b5a2-4504-ab5f-b3dc7c0f0bea" x1="232.2" y1="490.32" x2="247.07" y2="495.14"/><line class="uuid-b4015b0b-b5a2-4504-ab5f-b3dc7c0f0bea" x1="228.03" y1="503.16" x2="242.91" y2="507.98"/><line class="uuid-b4015b0b-b5a2-4504-ab5f-b3dc7c0f0bea" x1="230.12" y1="496.74" x2="244.99" y2="501.56"/></g></g><g><path class="uuid-7ca8cd12-c4ef-474d-b7e8-9ac616bc8090" d="m232.92,608.52l-188.32-61.03c-.83-.27-1.47-.85-1.83-1.56s-6.8-12.03-6.53-12.86l30.07-62.74c.54-1.65,2.31-2.56,3.96-2.02l183.3,49.39c.76.25,6.38,12.41,6.76,13.05.44.75.57,1.67.28,2.56l-23.72,73.19c-.54,1.65-2.31,2.56-3.96,2.02h0Z"/><rect class="uuid-8318a3fb-8d6a-4db7-b071-a15a473496d3" x="103.55" y="423.69" width="83.23" height="204.26" rx="3.15" ry="3.15" transform="translate(-399.79 501.8) rotate(-72.04)"/><line class="uuid-b4015b0b-b5a2-4504-ab5f-b3dc7c0f0bea" x1="235.39" y1="608.29" x2="228.96" y2="595.7"/></g><g><circle class="uuid-8a193521-0ef5-4407-9ee8-bb4ebcd57992" cx="85.25" cy="506.4" r="31.66"/><circle class="uuid-93feedb8-91e3-42a2-bd0a-197c246fdb2b" cx="85.25" cy="506.4" r="24.87"/><circle class="uuid-b4015b0b-b5a2-4504-ab5f-b3dc7c0f0bea" cx="86.2" cy="506.71" r="19.13"/><circle class="uuid-7ca8cd12-c4ef-474d-b7e8-9ac616bc8090" cx="87.39" cy="507.09" r="6.32"/></g><g><circle class="uuid-8a193521-0ef5-4407-9ee8-bb4ebcd57992" cx="203.53" cy="544.73" r="31.66"/><circle class="uuid-93feedb8-91e3-42a2-bd0a-197c246fdb2b" cx="203.53" cy="544.73" r="24.87"/><circle class="uuid-b4015b0b-b5a2-4504-ab5f-b3dc7c0f0bea" cx="204.48" cy="545.04" r="19.13"/><circle class="uuid-7ca8cd12-c4ef-474d-b7e8-9ac616bc8090" cx="205.67" cy="545.43" r="6.32"/></g><g><g><rect class="uuid-b1a063f9-d398-49ac-8717-dedd55fd17c7" x="148.01" y="499.61" width="7.15" height="12.83" transform="translate(-376.53 494.21) rotate(-72.04)"/><circle class="uuid-b4015b0b-b5a2-4504-ab5f-b3dc7c0f0bea" cx="138.27" cy="501.71" r="3.57"/><circle class="uuid-b4015b0b-b5a2-4504-ab5f-b3dc7c0f0bea" cx="164.89" cy="510.34" r="3.57"/></g><rect class="uuid-b1a063f9-d398-49ac-8717-dedd55fd17c7" x="138.18" y="482.66" width="26.81" height="46.72" rx="3.97" ry="3.97" transform="translate(-376.53 494.21) rotate(-72.04)"/></g><g><polygon class="uuid-7ca8cd12-c4ef-474d-b7e8-9ac616bc8090" points="157.51 563.5 113.06 549.1 109.84 542.79 121.33 523.59 162.56 531.69 165.78 538 157.51 563.5"/><rect class="uuid-acba282c-cbdd-4fe6-aee3-1b2aaa578edb" x="122.8" y="513.88" width="26.81" height="46.72" transform="translate(-416.86 501.17) rotate(-72.04)"/><polyline class="uuid-b4015b0b-b5a2-4504-ab5f-b3dc7c0f0bea" points="127.51 553.78 124.28 547.45 132.54 521.96"/><polyline class="uuid-b4015b0b-b5a2-4504-ab5f-b3dc7c0f0bea" points="142.78 558.73 139.55 552.4 147.81 526.91"/><line class="uuid-b4015b0b-b5a2-4504-ab5f-b3dc7c0f0bea" x1="154.29" y1="557.19" x2="157.51" y2="563.5"/></g><path class="uuid-53cbd553-6925-4261-892e-503624ed011f" d="m245.96,586.54c-.21.07-5.45.56-5.62.5-2.11-.68-.82-10.51,2.89-21.95,3.71-11.44,8.43-20.16,10.54-19.47.1.03,4.15,3.73,4.23,3.8,1.73,1.42-9.72,36.37-12.03,37.12h0Z"/><ellipse class="uuid-d76bb13e-79ef-4d22-868e-758f3fc81ba4" cx="252" cy="567.93" rx="19.46" ry="4.02" transform="translate(-365.96 632.55) rotate(-72.04)"/><g><path class="uuid-53cbd553-6925-4261-892e-503624ed011f" d="m152.45,436.42s.66-2.76,1.4-5.54,1.09-4.12,1.09-4.12c0,0-5.88-2.19-9.8-3.46-3.92-1.27-6.41-1.17-9.39,1.94-2.97,3.11-15.92,22.72-15.92,22.72l15.96,5.17s5.87-11.48,7.58-14.75,3.7-3.7,9.07-1.96h0Z"/><path class="uuid-7ca8cd12-c4ef-474d-b7e8-9ac616bc8090" d="m152.45,436.42s.5-2.1,1.12-4.48c-2.12-.62-4.79-1.37-5.52-1.61-2.23-.72-4.92-2.05-9.31,5.29-3.09,5.15-7.16,11.9-9.31,15.45h0l6.37,2.06s5.87-11.48,7.58-14.75c1.71-3.27,3.7-3.7,9.07-1.96Z"/></g><g><path class="uuid-53cbd553-6925-4261-892e-503624ed011f" d="m194.13,449.15s.25-2.82,1.22-4.81c1.13-2.3,2.73-3.64,2.73-3.64,0,0,24.75,7.78,28.66,9.04,3.92,1.27,5.88,2.81,6.46,7.08s-.43,27.74-.43,27.74l-15.96-5.17s1.99-12.74,2.51-16.4c.24-1.66.18-2.89-.46-3.9-.31-.49-.76-.93-1.38-1.34-.91-.6-21.63-8.04-23.37-8.61h0Z"/><path class="uuid-7ca8cd12-c4ef-474d-b7e8-9ac616bc8090" d="m233.21,456.83c-.58-4.26-2.55-5.81-6.46-7.08l-1.83-.59c7.01,2.27,2.46,33.66,2.46,33.66l5.4,1.75s1.02-23.47.43-27.74h0Z"/><path class="uuid-7ca8cd12-c4ef-474d-b7e8-9ac616bc8090" d="m218.87,459.1c.39.62.55,1.34.57,2.18.05-2.37-.14-7.25-2.42-7.99-2.34-.76-16.13-5.17-22.32-7.15-.43,1.56-.56,3.02-.56,3.02,1.74.56,22.46,8,23.37,8.61.62.41,1.07.85,1.38,1.34h0Z"/></g></g></g></g></svg>
</svg>