<?xml version="1.0" encoding="UTF-8"?>
<svg xmlns="http://www.w3.org/2000/svg" viewBox="0 0 600 600">
<svg id="uuid-d9dcaeb1-b3e9-4103-a9e9-674eb3b1cf0f" data-name="BACKGROUND" xmlns="http://www.w3.org/2000/svg" viewBox="0 0 600 600"><defs><style>
      .uuid-ddba642b-737c-447a-8d97-1fa19eb8e4a8 {
        fill: #ff78d8;
      }
    </style></defs><rect class="uuid-ddba642b-737c-447a-8d97-1fa19eb8e4a8" x="-1" y="-1" width="602" height="602"/></svg>
<svg id="uuid-c0346afe-1da2-46db-983f-ff876e5ed0be" data-name="BACKGROUND" xmlns="http://www.w3.org/2000/svg" viewBox="0 0 600 600"><defs><style>
      .uuid-57589ea0-1d07-4328-ae89-4ee799f66552, .uuid-c10b6e76-7067-4537-83d5-be1c345ab04f, .uuid-f7ed3fbc-843c-4765-b5cd-d9cd6e37a7d5, .uuid-ac3d9d9c-4bc2-4bef-8fbc-2d131af06a7b, .uuid-439c01fe-2c98-4586-aa72-e669aa572e14, .uuid-c68252c4-c75b-47e2-a3b4-534035c0255b, .uuid-ccc65212-dc3d-450b-b9c5-0a9cc3ad62c0 {
        stroke: #000;
        stroke-width: 2px;
      }

      .uuid-57589ea0-1d07-4328-ae89-4ee799f66552, .uuid-c10b6e76-7067-4537-83d5-be1c345ab04f, .uuid-f7ed3fbc-843c-4765-b5cd-d9cd6e37a7d5, .uuid-439c01fe-2c98-4586-aa72-e669aa572e14, .uuid-c68252c4-c75b-47e2-a3b4-534035c0255b {
        stroke-linecap: round;
      }

      .uuid-57589ea0-1d07-4328-ae89-4ee799f66552, .uuid-ac3d9d9c-4bc2-4bef-8fbc-2d131af06a7b, .uuid-c68252c4-c75b-47e2-a3b4-534035c0255b, .uuid-ccc65212-dc3d-450b-b9c5-0a9cc3ad62c0 {
        fill: #7aa6ff;
      }

      .uuid-57589ea0-1d07-4328-ae89-4ee799f66552, .uuid-439c01fe-2c98-4586-aa72-e669aa572e14, .uuid-ccc65212-dc3d-450b-b9c5-0a9cc3ad62c0 {
        stroke-linejoin: round;
      }

      .uuid-8b7867c5-1aab-4d13-8c98-43caa4245778, .uuid-c10b6e76-7067-4537-83d5-be1c345ab04f {
        fill: #fff;
      }

      .uuid-c10b6e76-7067-4537-83d5-be1c345ab04f, .uuid-f7ed3fbc-843c-4765-b5cd-d9cd6e37a7d5, .uuid-ac3d9d9c-4bc2-4bef-8fbc-2d131af06a7b, .uuid-c68252c4-c75b-47e2-a3b4-534035c0255b {
        stroke-miterlimit: 10;
      }

      .uuid-f7ed3fbc-843c-4765-b5cd-d9cd6e37a7d5 {
        fill: #00dfa9;
      }

      .uuid-439c01fe-2c98-4586-aa72-e669aa572e14 {
        fill: none;
      }
    </style></defs><path class="uuid-57589ea0-1d07-4328-ae89-4ee799f66552" d="m409.81,359.6c9.2,3.77,29.89,12.05,42.79,16.03,2.11.65,4.41.69,6.5-.04,11.79-4.08,28.47-11.39,33.03-11.32,5.25.08,7.8,3.93,19.88,2.04,13.36-2.1,22.43-11.99,20.93-23.3-4.21-43.28-25.18-26.79-25.18-26.79,0,0-5.84-8.75-18.76-4.82-11.83,3.6-10.2,14.44-6.47,22.47l-25.29,8.58c-2.14.72-4.45.71-6.59-.02l-35.7-12.61"/><path class="uuid-c68252c4-c75b-47e2-a3b4-534035c0255b" d="m533.36,312.82c2.5,3.94,1.62,9.14-1.57,12.4-2.47,2.53-5.88,3.88-9.32,4.4-2.8.43-5.7.42-8.49-.08-2.14-.39-4.29-1.1-5.79-2.75-1.66-1.83-2.27-4.46-1.98-6.87.51-4.17,3.84-7.14,7.22-9.26,3.17-1.98,6.86-3.26,10.64-3.09,3.8.18,7.36,2.19,9.3,5.24Z"/><path class="uuid-c68252c4-c75b-47e2-a3b4-534035c0255b" d="m538.57,349.84c.97,3.03.32,6.43-1.5,9.01-3.77,5.33-11.17,5.65-16.96,4.27-3.31-.79-6.69-2.21-8.67-5.13-3.13-4.61-.82-9.79,3.48-12.56,2.58-1.66,5.61-2.67,8.63-3.14,5.73-.89,13.1,1.51,15.03,7.56Z"/><path class="uuid-c68252c4-c75b-47e2-a3b4-534035c0255b" d="m538.71,328.53c1.8,2.99,2.06,6.89.22,9.9-1.95,3.2-4.94,5.25-8.49,6.28-3.66,1.07-7.64,1.27-11.4.44-2.25-.5-4.53-1.38-5.96-3.28-1.86-2.47-1.89-5.68-.85-8.49,1.2-3.24,4.17-5.69,7.09-7.37,6.15-3.56,15.21-4.43,19.39,2.52Z"/><path class="uuid-c68252c4-c75b-47e2-a3b4-534035c0255b" d="m501.85,311.68s9.27,3.84,7.77,12.02c-1.04,5.68-8.17,9.55-14.94,6.13"/><path class="uuid-439c01fe-2c98-4586-aa72-e669aa572e14" d="m500.67,331.08c2.41,1.63,5.11,8.04,3.4,14.42"/><path d="m443.44,339.88c-2.88,10.58-6.94,20.23-11.17,28.59-10.17-3.78-21.16-9.53-27-11.93l11.83-26.02,26.35,9.36Z"/><ellipse cx="300" cy="518.65" rx="138.6" ry="22.93"/><path class="uuid-ac3d9d9c-4bc2-4bef-8fbc-2d131af06a7b" d="m319.36,427.14c-1.16,1.05-54.95,57-54.95,57,0,0,21.51-1.95,31.74,10.62,10.23,12.57,7.26,23.89,7.26,23.89h-66.9s-28.69-36.17-28.69-36.17c0,0,3.74-13.4,20.44-10.59,20.9-19.38,55.52-59.13,55.52-59.13l35.59,14.38Z"/><path d="m283.78,412.76l31.28,12.64-3.24,9.5c-2.93,3.03-9.76,10.12-13.64,14.14-11.92,0-27.98-2.13-41.33-6.37,13.95-15.1,26.93-29.92,26.93-29.92Z"/><path class="uuid-ac3d9d9c-4bc2-4bef-8fbc-2d131af06a7b" d="m354.45,173.54l-.11.27-174.2,58.29c-11.49,20.13-18.05,43.43-18.05,68.27,0,76.2,61.77,137.98,137.97,137.98s137.98-61.77,137.98-137.98c0-56.89-34.43-105.72-83.58-126.83Z"/><path class="uuid-439c01fe-2c98-4586-aa72-e669aa572e14" d="m264.41,484.14c-4.06.49-11.49,1.36-17.85,7.23"/><path class="uuid-8b7867c5-1aab-4d13-8c98-43caa4245778" d="m185.17,308.14c-4.41,0-7.98-3.57-7.98-7.98,0-67.74,55.11-122.86,122.86-122.86,4.41,0,7.98,3.57,7.98,7.98s-3.57,7.98-7.98,7.98c-58.94,0-106.9,47.95-106.9,106.9,0,4.41-3.57,7.98-7.98,7.98Z"/><path d="m203.75,397.46l34.2-27.46-24.86,36.3c-6.73-5.1-3.66-2.61-9.34-8.83Z"/><path class="uuid-ccc65212-dc3d-450b-b9c5-0a9cc3ad62c0" d="m323.72,387.31c19.14-13.4,39.15-11.3,55.52,7.36,19.6,22.35,30.57,33.06,30.57,33.06,0,0,10.74-19.34,34.77-17.5,18.26,1.4,24.84,14.43,24.84,14.43,0,0,6.21,8.82-22.45,33.5-28.66,24.68-54.93,40.92-61.14,29.46-6.21-11.46-2.82-32.1-2.82-32.1,0,0-22.02-26.09-27.94-32.01-6.79-6.79-15.71-1.36-15.71-1.36"/><path class="uuid-ac3d9d9c-4bc2-4bef-8fbc-2d131af06a7b" d="m446.97,458.17c-25.89,22.29-49.82,37.69-58.79,32.02-9.77-7.44,26.84-38.54,44.88-52.7,18.04-14.16,32.17-17.82,36.36-12.81,0,0,6.21,8.82-22.45,33.5Z"/><path class="uuid-439c01fe-2c98-4586-aa72-e669aa572e14" d="m409.81,427.74c-1.89,2.86-4.55,10.38-4.55,10.38"/><ellipse class="uuid-c10b6e76-7067-4537-83d5-be1c345ab04f" cx="269.41" cy="209.07" rx="94.9" ry="26.25" transform="translate(-52.5 96.54) rotate(-18.55)"/><ellipse class="uuid-f7ed3fbc-843c-4765-b5cd-d9cd6e37a7d5" cx="269.41" cy="209.07" rx="71.19" ry="13.32" transform="translate(-52.5 96.54) rotate(-18.55)"/><g><path class="uuid-57589ea0-1d07-4328-ae89-4ee799f66552" d="m214.11,345.7c-8.05,5.83-25.34,20.79-35.52,29.67-1.67,1.45-2.82,3.41-3.39,5.55-3.14,11.67-8.55,33.44-8.55,33.44,0,0-8.42.58-12.19,14.35-3.64,13.3-6.64,25.06,3.77,29.75.35,7.47,7.51,15.45,19.2,9.41.14-.06,1.32,1.32,1.44,1.45,2.64,2.7,6.36,4.45,10.13,4.81,3.65.36,7.61-.67,10.43-3.08,3.29-2.81,5.4-6.94,6.05-11.2.4-2.61.26-5.31-.75-7.78,0,0,6.2-2.51,8.05-11.34,1.99-9.49-4.22-19.42-14.62-18.18l6.17-23.11c.51-2.2,1.74-4.16,3.49-5.59l29.38-24.3"/><path class="uuid-439c01fe-2c98-4586-aa72-e669aa572e14" d="m204.73,452.06c-1.37-3.47-5.39-7.08-9-6.88"/><path class="uuid-439c01fe-2c98-4586-aa72-e669aa572e14" d="m178.86,469.3c-5.16-5.27-3.82-11.97-2.9-13.54"/><path class="uuid-439c01fe-2c98-4586-aa72-e669aa572e14" d="m158.22,458.45c-.27-5.22.73-7.32,3.06-9.83"/><path class="uuid-439c01fe-2c98-4586-aa72-e669aa572e14" d="m193.93,450.63c.14-2.07.48-4.16,1.32-6.06.85-1.95,2.36-3.88,4.31-4.85"/></g></svg>
<svg id="uuid-1cc09208-f3e2-41e0-bf45-a113ad3f9612" data-name="BODY" xmlns="http://www.w3.org/2000/svg" viewBox="0 0 600 600"><defs><style>
      .uuid-b1fb9c84-9278-4c3a-8295-76e21ab76bac {
        fill: none;
        stroke: #000;
        stroke-linecap: round;
        stroke-miterlimit: 10;
        stroke-width: 4px;
      }
    </style></defs><circle cx="369.54" cy="262.94" r="9.78" transform="translate(-8.58 12.49) rotate(-1.91)"/><path class="uuid-b1fb9c84-9278-4c3a-8295-76e21ab76bac" d="m352.87,296.37c1.76,5.11,7.33,7.82,12.44,6.06,5.11-1.76,7.82-7.33,6.06-12.44"/><circle cx="337.63" cy="273.96" r="9.78" transform="translate(-8.96 11.43) rotate(-1.91)"/></svg>
<svg id="uuid-bbfc5714-a07f-4ed2-a2ae-a75a1c8ddb23" data-name="BACKGROUND" xmlns="http://www.w3.org/2000/svg" xmlns:xlink="http://www.w3.org/1999/xlink" viewBox="0 0 600 600"><defs><style>
      .uuid-08eaf8dc-2555-4283-9115-80242cf516c9, .uuid-8773bdbf-23e2-46c5-b3ad-728f1fbef747, .uuid-c214df15-a9c5-48c0-898e-25cf22a01c5e, .uuid-6bf34615-1e49-4ca3-bf4a-827b6d1e1cfd {
        fill: none;
      }

      .uuid-545d5178-3a1f-46af-8a38-748d65e48d6b, .uuid-9f5f1d58-6008-463e-b000-9cb1b84bcb97, .uuid-2133d2e9-8d48-44e4-89e8-f50a42b55b3e {
        fill: #7aa6ff;
      }

      .uuid-545d5178-3a1f-46af-8a38-748d65e48d6b, .uuid-9f5f1d58-6008-463e-b000-9cb1b84bcb97, .uuid-2133d2e9-8d48-44e4-89e8-f50a42b55b3e, .uuid-421abf4c-f4d5-449d-9744-aaea0c82c8f0, .uuid-1cb4b6aa-0185-4f5d-ab63-60d4b53520a0, .uuid-54716eaa-51a3-4dfb-83d5-e37685f4f2c8, .uuid-81dc3c24-ff02-4278-8860-175a7469acc9, .uuid-a9b20911-ecf8-4b3a-be78-aa8e8bc1e6e0, .uuid-c214df15-a9c5-48c0-898e-25cf22a01c5e, .uuid-35672045-d694-46b6-a49b-5b9f6527a252 {
        stroke: #000;
        stroke-linecap: round;
        stroke-linejoin: round;
      }

      .uuid-545d5178-3a1f-46af-8a38-748d65e48d6b, .uuid-421abf4c-f4d5-449d-9744-aaea0c82c8f0, .uuid-1cb4b6aa-0185-4f5d-ab63-60d4b53520a0, .uuid-a9b20911-ecf8-4b3a-be78-aa8e8bc1e6e0, .uuid-c214df15-a9c5-48c0-898e-25cf22a01c5e, .uuid-35672045-d694-46b6-a49b-5b9f6527a252 {
        stroke-width: 2px;
      }

      .uuid-9f5f1d58-6008-463e-b000-9cb1b84bcb97 {
        stroke-width: 2px;
      }

      .uuid-2133d2e9-8d48-44e4-89e8-f50a42b55b3e {
        stroke-width: 2px;
      }

      .uuid-f7558bdc-0f9a-4b81-b6fc-d589bca7cd91, .uuid-54716eaa-51a3-4dfb-83d5-e37685f4f2c8, .uuid-81dc3c24-ff02-4278-8860-175a7469acc9 {
        fill: #ff78d8;
      }

      .uuid-421abf4c-f4d5-449d-9744-aaea0c82c8f0 {
        fill: #cce0ff;
      }

      .uuid-8773bdbf-23e2-46c5-b3ad-728f1fbef747 {
        clip-path: url(#uuid-7ffd30b3-39c0-49a3-9f02-d49cf575aa5c);
      }

      .uuid-1cb4b6aa-0185-4f5d-ab63-60d4b53520a0 {
        fill: #a07bff;
      }

      .uuid-54716eaa-51a3-4dfb-83d5-e37685f4f2c8 {
        stroke-width: 2px;
      }

      .uuid-81dc3c24-ff02-4278-8860-175a7469acc9 {
        stroke-width: 2px;
      }

      .uuid-a9b20911-ecf8-4b3a-be78-aa8e8bc1e6e0 {
        fill: #fff7f0;
      }

      .uuid-35672045-d694-46b6-a49b-5b9f6527a252 {
        fill: #f9a723;
      }

      .uuid-6bf34615-1e49-4ca3-bf4a-827b6d1e1cfd {
        clip-path: url(#uuid-0b6c9727-112c-4767-b31d-4259cdf1b84f);
      }
    </style><clipPath id="uuid-0b6c9727-112c-4767-b31d-4259cdf1b84f"><path class="uuid-08eaf8dc-2555-4283-9115-80242cf516c9" d="m207.25,349.68l-27.2,23.05c-3,2.4-5.15,5.71-6.11,9.43l-8.11,31.33s-3.38.42-7.09,4.5c-3.66,4.02-41.44,11.33-62.67-2.22-21.24-13.55-16.99-80.29-2.22-96.07,14.76-15.78,47.11-10.11,47.11-10.11l66.3,40.1h0Zm31.03,20.24s-28.11,23.09-30,24.91c-1.89,1.82-3.01,4.97-3.46,6.62-.44,1.66-5.36,20.02-5.36,20.02,0,0,14.6.04,14.65,16.77.05,16.73,23.84,31.06,23.84,31.06h64.07l26.43-46.23-4.73-49.25-37.77-11.87-47.67,7.96h0Z"/></clipPath><clipPath id="uuid-7ffd30b3-39c0-49a3-9f02-d49cf575aa5c"><path class="uuid-08eaf8dc-2555-4283-9115-80242cf516c9" d="m116.73,399.79c-21.8-7.91-23.04-27.28-20.62-45.35,2.42-18.07,12.22-33.97,26.84-28.66,7.9,2.87,5.27,4.6,17.06,8.88s144.23,52.34,152.6,55.38c8.37,3.04,12.48.8,17.53,6.65,5.05,5.85,8.71,15.68-3.84,33.77-12.54,18.09-29.55,27.41-47.55,20.88-18-6.53-121.99-44.27-142.02-51.54h0Z"/></clipPath></defs><g id="uuid-c4937db0-9afb-4c03-9f2b-e9a992e05bd5" data-name="uuid-b84498ae-e8f6-4225-bedf-b7485dbc9e23"><g id="uuid-44ab2587-ae9c-45d8-b896-12f829278573" data-name="uuid-54dc98d1-5ff7-4f14-90d9-98731fcbd0ae"><g class="uuid-6bf34615-1e49-4ca3-bf4a-827b6d1e1cfd"><g><g><path class="uuid-f7558bdc-0f9a-4b81-b6fc-d589bca7cd91" d="m116.73,399.79c-21.8-7.91-23.04-27.28-20.62-45.35,2.42-18.07,12.22-33.97,26.84-28.66,7.9,2.87,5.27,4.6,17.06,8.88s144.23,52.34,152.6,55.38c8.37,3.04,12.48.8,17.53,6.65,5.05,5.85,8.71,15.68-3.84,33.77-12.54,18.09-29.55,27.41-47.55,20.88-18-6.53-121.99-44.27-142.02-51.54h0Z"/><g class="uuid-8773bdbf-23e2-46c5-b3ad-728f1fbef747"><g><g><g><polygon class="uuid-1cb4b6aa-0185-4f5d-ab63-60d4b53520a0" points="215.49 451.98 301.74 483.28 206.36 377.38 206.37 377.37 312.39 447.2 322.45 419.48 206.38 377.36 206.4 377.34 286.7 385.2 239.55 368.09 206.44 377.3 224.2 358.6 215.09 353.15 204.61 351.48 206.24 377.23 186.74 348.93 139.6 331.82 206.25 377.29 206.25 377.31 90.18 335.19 80.12 362.91 206.25 377.33 206.25 377.34 65.15 397.42 151.4 428.72 206.25 377.39 206.26 377.49 206.32 377.42 215.49 451.98"/><polygon class="uuid-1cb4b6aa-0185-4f5d-ab63-60d4b53520a0" points="183.45 440.35 193.24 443.91 206.26 377.49 173.65 436.8 183.45 440.35"/></g><g><g><path class="uuid-421abf4c-f4d5-449d-9744-aaea0c82c8f0" d="m91.7,359.44s8.63-1.05,11.72,4.67c2.79-3.14,6.86-1.51,7.49,1.3,0,0,6.32-3.57,11.03,3.8,1.3-7.14,8.57-5.82,10.24-1.94,2.1-6.57,12.64-3.42,13.92,2.15,3.39-9.73,16.79-9.31,19.7-.94,4.46-1.61,8.21,3.27,6.46,6.72,5.25-.03,5.88,4.14,4.73,6.52,5.99-2.49,14.65,5.49,8.77,21.69l-2.76,7.6-97.21-35.28,5.91-16.29h0Z"/><path class="uuid-421abf4c-f4d5-449d-9744-aaea0c82c8f0" d="m306.72,429.83s-5.67-9.33-13.45-4.88c-.13-4.96-5.58-5.36-6.86-3.24,2.02-5.58-4.4-6.26-5.48-4.47,3.14-8.65-7.06-10.77-9.39-8.1,2.93-6.11-3.29-13.56-11.77-12.13-8.48,1.44-9.46,8-9.46,8,0,0-9.51-5.22-12.11,3.94-6.44.95-5.63,7.2-5.63,7.2,0,0-6.59-1.22-8.32,4.95,6.27,2.28,32.74,12.54,43.73,15.87s35.79,6.59,35.79,6.59l2.96-13.73h0Z"/></g><g><path class="uuid-421abf4c-f4d5-449d-9744-aaea0c82c8f0" d="m116.86,371.51s4.91-4.48,9.53.28"/><path class="uuid-421abf4c-f4d5-449d-9744-aaea0c82c8f0" d="m168.38,381.96s7.7.14,7.49,9.39"/><path class="uuid-421abf4c-f4d5-449d-9744-aaea0c82c8f0" d="m293.27,424.95c-1.97,1.47-2.7,3.68-2.7,3.68"/><path class="uuid-421abf4c-f4d5-449d-9744-aaea0c82c8f0" d="m280.08,427.69c-3.31-3.03-7.68-.28-7.68-.28,0,0-.8-6.78-7.88-6.55"/><path class="uuid-421abf4c-f4d5-449d-9744-aaea0c82c8f0" d="m262.27,407.01s12.35-1.27,11.11,10"/></g></g><path class="uuid-545d5178-3a1f-46af-8a38-748d65e48d6b" d="m95.41,361.2s11.32,13.51,46.91,26.43c35.59,12.92,94.4,34.26,113.92,41.34,19.52,7.08,45.7,7.18,45.7,7.18l-6.67,22.69-207.91-75.45s8.05-22.19,8.05-22.19Z"/><path class="uuid-35672045-d694-46b6-a49b-5b9f6527a252" d="m96.93,374.9s4.29,10.08,41.17,23.46c36.88,13.38,96.71,35.09,113.44,41.17,16.73,6.07,41.55,6.56,41.55,6.56l-8.69,23.95-196.16-71.18,8.69-23.95h0Z"/><circle class="uuid-a9b20911-ecf8-4b3a-be78-aa8e8bc1e6e0" cx="206.31" cy="377.33" r="7.65"/></g><path class="uuid-35672045-d694-46b6-a49b-5b9f6527a252" d="m313.7,401.12c-3.98-5.76-13.33-3.46-19.41-5.67-6.08-2.21-150.45-54.6-161.41-58.58-10.96-3.98-15.46-11.35-23.17-9.05l4.97-13.69,203.76,73.94-4.73,13.04h0Z"/></g></g><path class="uuid-c214df15-a9c5-48c0-898e-25cf22a01c5e" d="m116.73,399.79c-21.8-7.91-23.04-27.28-20.62-45.35,2.42-18.07,12.22-33.97,26.84-28.66,7.9,2.87,5.27,4.6,17.06,8.88s144.23,52.34,152.6,55.38c8.37,3.04,12.48.8,17.53,6.65,5.05,5.85,8.71,15.68-3.84,33.77-12.54,18.09-29.55,27.41-47.55,20.88-18-6.53-121.99-44.27-142.02-51.54h0Z"/></g><g><g><g><path class="uuid-2133d2e9-8d48-44e4-89e8-f50a42b55b3e" d="m146.36,364.64l15.88,5.76c1.71.62,2.6,2.52,1.98,4.23l-6.44,17.74c-.62,1.71-2.52,2.6-4.23,1.98l-15.88-5.76,8.69-23.95h0Z"/><line class="uuid-c214df15-a9c5-48c0-898e-25cf22a01c5e" x1="148.42" y1="387.37" x2="152.51" y2="388.86"/><line class="uuid-c214df15-a9c5-48c0-898e-25cf22a01c5e" x1="152.57" y1="377.74" x2="157.66" y2="375.36"/></g><g><g><path class="uuid-35672045-d694-46b6-a49b-5b9f6527a252" d="m139.52,412.75c-.71,2.37-6.03,2.87-11.88,1.11-5.85-1.76-10.01-5.1-9.3-7.48l2.87-9.56c.58.13,20.58,6.19,21.18,6.36-1.44,4.78-2.16,7.19-2.87,9.56h0Z"/><ellipse class="uuid-81dc3c24-ff02-4278-8860-175a7469acc9" cx="131.8" cy="400.01" rx="4.48" ry="11.06" transform="translate(-289.21 411.12) rotate(-73.27)"/></g><g><path class="uuid-545d5178-3a1f-46af-8a38-748d65e48d6b" d="m147.66,361.71l1.56-5.21-7.98-2.4-13.46,44.8s1.19,1.23,3.75,2c2.48.74,4.23.4,4.23.4l1.56-5.21c.61-2.04,2.01-3.74,3.88-4.75l5.7-3.06c5.31-2.85,7.3-9.47,4.44-14.78l-3.06-5.7c-1.01-1.87-1.23-4.07-.62-6.1h0Z"/><circle class="uuid-545d5178-3a1f-46af-8a38-748d65e48d6b" cx="145.22" cy="379.72" r="4.26"/></g><g><path class="uuid-35672045-d694-46b6-a49b-5b9f6527a252" d="m155.77,358.68c-.71,2.37-6.03,2.87-11.88,1.11s-10.01-5.1-9.3-7.48c.64-2.13,1.92-6.4,2.87-9.56.58.13,20.58,6.19,21.18,6.36l-2.87,9.56h0Z"/><ellipse class="uuid-81dc3c24-ff02-4278-8860-175a7469acc9" cx="148.05" cy="345.94" rx="4.48" ry="11.06" transform="translate(-225.86 388.17) rotate(-73.27)"/><path class="uuid-545d5178-3a1f-46af-8a38-748d65e48d6b" d="m151.71,346.3c-.23.77-1.97.94-3.87.36s-3.26-1.66-3.03-2.44c.23-.77,1.42-1.64,4.02-.86,2.47.74,3.11,2.16,2.88,2.93h0Z"/></g></g></g><g><g><path class="uuid-9f5f1d58-6008-463e-b000-9cb1b84bcb97" d="m253.04,430.47l-15.88-5.76c-1.71-.62-2.6-2.52-1.98-4.23l6.44-17.74c.62-1.71,2.52-2.6,4.23-1.98l15.88,5.76-8.69,23.95h0Z"/><line class="uuid-c214df15-a9c5-48c0-898e-25cf22a01c5e" x1="245.57" y1="422.63" x2="241.48" y2="421.14"/><line class="uuid-c214df15-a9c5-48c0-898e-25cf22a01c5e" x1="248.57" y1="412.58" x2="246.19" y2="407.49"/></g><g><g><path class="uuid-35672045-d694-46b6-a49b-5b9f6527a252" d="m236.13,447.81c-.97,2.28,2.79,6.07,8.4,8.47,5.61,2.4,10.95,2.5,11.93.23l3.93-9.18c-.53-.27-19.76-8.45-20.33-8.7l-3.93,9.18h0Z"/><ellipse class="uuid-54716eaa-51a3-4dfb-83d5-e37685f4f2c8" cx="250.22" cy="442.98" rx="4.48" ry="11.06" transform="translate(-255.48 498.76) rotate(-66.83)"/></g><g><path class="uuid-545d5178-3a1f-46af-8a38-748d65e48d6b" d="m262.62,403.43l2.14-5,7.66,3.28-18.4,43.01s-1.7.18-4.16-.87c-2.38-1.02-3.5-2.4-3.5-2.4l2.14-5c.84-1.95.86-4.16.07-6.13l-2.41-6c-2.24-5.59.48-11.95,6.07-14.19l6-2.41c1.97-.79,3.55-2.33,4.39-4.29h0Z"/><circle class="uuid-545d5178-3a1f-46af-8a38-748d65e48d6b" cx="252.94" cy="418.82" r="4.26"/></g><g><path class="uuid-35672045-d694-46b6-a49b-5b9f6527a252" d="m258.34,395.91c-.97,2.28,2.79,6.07,8.4,8.47,5.61,2.4,10.95,2.5,11.93.23l3.93-9.18c-.53-.27-19.76-8.45-20.33-8.7l-3.93,9.18h0Z"/><ellipse class="uuid-54716eaa-51a3-4dfb-83d5-e37685f4f2c8" cx="272.43" cy="391.08" rx="4.48" ry="11.06" transform="translate(-194.28 487.69) rotate(-66.83)"/><path class="uuid-545d5178-3a1f-46af-8a38-748d65e48d6b" d="m269.39,389.01c-.32.74.91,1.98,2.74,2.76s3.57.82,3.89.07-.04-2.17-2.54-3.24c-2.37-1.01-3.77-.34-4.09.4h0Z"/></g></g></g></g></g></g></g></g></svg>
<svg id="uuid-b86e4cbe-7f03-4745-ba6f-e4bbc34688fe" data-name="BODY" xmlns="http://www.w3.org/2000/svg" xmlns:xlink="http://www.w3.org/1999/xlink" viewBox="0 0 600 600"><defs><style>
      .uuid-04762781-8186-4ed2-baf1-f857ced1e0b2, .uuid-149eec6d-4f9d-4896-a106-a4156b50f562, .uuid-08a6c331-4618-44ee-9952-8ffa4e0c4160, .uuid-f8f6917d-050d-460b-a02b-714b9c75d550, .uuid-4bf8e94b-17ea-4547-8d82-b038228e741d {
        fill: none;
      }

      .uuid-149eec6d-4f9d-4896-a106-a4156b50f562 {
        clip-path: url(#uuid-2e72cd1b-fdab-4f81-b8e4-6702d6b9af87);
      }

      .uuid-08a6c331-4618-44ee-9952-8ffa4e0c4160 {
        opacity: .5;
      }

      .uuid-228d3895-0778-49c8-83d3-30dfba100097 {
        fill: #f9a723;
      }

      .uuid-c83b020e-f705-48cb-b7c0-f9c8b022d30e {
        fill: #ffff0d;
      }

      .uuid-ad6c224e-0faa-4e21-854d-c5af1dadf6bc {
        fill: #9dff0c;
      }

      .uuid-2ff116f9-003d-4be2-a2d8-3bde47bf1bad {
        stroke-width: 2px;
      }

      .uuid-2ff116f9-003d-4be2-a2d8-3bde47bf1bad, .uuid-dac2b130-be88-462b-b470-d741f5c5d6da {
        fill: #00dfa9;
      }

      .uuid-2ff116f9-003d-4be2-a2d8-3bde47bf1bad, .uuid-dac2b130-be88-462b-b470-d741f5c5d6da, .uuid-4bf8e94b-17ea-4547-8d82-b038228e741d {
        stroke: #000;
        stroke-linecap: round;
        stroke-linejoin: round;
      }

      .uuid-dac2b130-be88-462b-b470-d741f5c5d6da, .uuid-4bf8e94b-17ea-4547-8d82-b038228e741d {
        stroke-width: 2px;
      }

      .uuid-f8f6917d-050d-460b-a02b-714b9c75d550 {
        clip-path: url(#uuid-e9dd4566-59bc-434a-9bd4-054fa7e89a9b);
      }
    </style><clipPath id="uuid-e9dd4566-59bc-434a-9bd4-054fa7e89a9b"><path class="uuid-04762781-8186-4ed2-baf1-f857ced1e0b2" d="m498.37,310.73l-4.5-25.52,11.93-2.1,5.21,29.56c-1.02.95-2.29,2.19-3.27,3.31,0,0-3.34-3.93-9.37-5.26h0Zm17.67,33.69c-8.9-6.88-1.98-14.48-1.98-14.48,0,0-3.93-.74-5.6-2.81-2.36,2.77-4.89,3.75-6.47,4.1l12.07,68.44,11.93-2.1-6.09-34.55c-13.34-3.46-11.97-13.85-3.85-18.6Z"/></clipPath><clipPath id="uuid-2e72cd1b-fdab-4f81-b8e4-6702d6b9af87"><polygon class="uuid-04762781-8186-4ed2-baf1-f857ced1e0b2" points="491.78 238.48 506.31 258.29 530.87 257.55 516.52 277.5 524.82 300.62 501.42 293.14 481.98 308.18 481.87 283.61 461.56 269.77 484.9 262.07 491.78 238.48"/></clipPath></defs><g id="uuid-31aa461f-c31d-4f84-9021-f7584a52c7ff" data-name="uuid-05a871f0-c9cf-4aac-9586-bf584656164d"><g id="uuid-f94554ab-e65b-452c-86e5-d9a4ed313404" data-name="uuid-9f8862e7-91e0-4d66-aff9-c612ab9ab165"><g><path class="uuid-ad6c224e-0faa-4e21-854d-c5af1dadf6bc" d="m498.37,310.73l-4.5-25.52,11.93-2.1,5.21,29.56c-1.02.95-2.29,2.19-3.27,3.31,0,0-3.34-3.93-9.37-5.26h0Zm17.67,33.69c-8.9-6.88-1.98-14.48-1.98-14.48,0,0-3.93-.74-5.6-2.81-2.36,2.77-4.89,3.75-6.47,4.1l12.07,68.44,11.93-2.1-6.09-34.55c-13.34-3.46-11.97-13.85-3.85-18.6Z"/><g class="uuid-f8f6917d-050d-460b-a02b-714b9c75d550"><g><path class="uuid-dac2b130-be88-462b-b470-d741f5c5d6da" d="m502.79,335.82c3.5-4.83,7.37-8.54,10.35-11.04l-2.53-14.33c-3.14,2.56-7,6.13-10.44,10.53l2.62,14.84h0Z"/><path class="uuid-dac2b130-be88-462b-b470-d741f5c5d6da" d="m507.52,362.63c3.5-4.83,7.37-8.54,10.35-11.04l-2.53-14.33c-3.14,2.56-7,6.13-10.44,10.53l2.62,14.84h0Z"/><path class="uuid-dac2b130-be88-462b-b470-d741f5c5d6da" d="m505.89,283.64c-3.14,2.56-7,6.13-10.44,10.53l2.62,14.84c3.5-4.83,7.37-8.54,10.35-11.04l-2.53-14.33Z"/><path class="uuid-dac2b130-be88-462b-b470-d741f5c5d6da" d="m522.6,378.39l-2.53-14.33c-3.14,2.56-7,6.13-10.44,10.53l2.62,14.84c3.5-4.83,7.37-8.54,10.35-11.04Z"/></g></g><path class="uuid-4bf8e94b-17ea-4547-8d82-b038228e741d" d="m498.37,310.73l-4.5-25.52,11.93-2.1,5.21,29.56c-1.02.95-2.29,2.19-3.27,3.31,0,0-3.34-3.93-9.37-5.26h0Zm17.67,33.69c-8.9-6.88-1.98-14.48-1.98-14.48,0,0-3.93-.74-5.6-2.81-2.36,2.77-4.89,3.75-6.47,4.1l12.07,68.44,11.93-2.1-6.09-34.55c-13.34-3.46-11.97-13.85-3.85-18.6Z"/></g><ellipse class="uuid-2ff116f9-003d-4be2-a2d8-3bde47bf1bad" cx="520.02" cy="398.62" rx="6.06" ry="4.84" transform="translate(-61.32 96.36) rotate(-10)"/><g><polygon class="uuid-c83b020e-f705-48cb-b7c0-f9c8b022d30e" points="491.78 238.48 506.31 258.29 530.87 257.55 516.52 277.5 524.82 300.62 501.42 293.14 481.98 308.18 481.87 283.61 461.56 269.77 484.9 262.07 491.78 238.48"/><g class="uuid-149eec6d-4f9d-4896-a106-a4156b50f562"><g><polygon class="uuid-228d3895-0778-49c8-83d3-30dfba100097" points="484.9 262.07 497.59 271.44 491.78 238.48 484.9 262.07"/><polygon class="uuid-228d3895-0778-49c8-83d3-30dfba100097" points="501.42 293.14 497.59 271.44 481.98 308.18 501.42 293.14"/><polygon class="uuid-228d3895-0778-49c8-83d3-30dfba100097" points="481.87 283.61 497.59 271.44 461.56 269.77 481.87 283.61"/><polygon class="uuid-228d3895-0778-49c8-83d3-30dfba100097" points="506.31 258.29 497.59 271.44 530.87 257.55 506.31 258.29"/><polygon class="uuid-228d3895-0778-49c8-83d3-30dfba100097" points="497.59 271.44 524.82 300.62 516.52 277.5 497.59 271.44"/></g></g><polygon class="uuid-4bf8e94b-17ea-4547-8d82-b038228e741d" points="491.78 238.48 506.31 258.29 530.87 257.55 516.52 277.5 524.82 300.62 501.42 293.14 481.98 308.18 481.87 283.61 461.56 269.77 484.9 262.07 491.78 238.48"/></g><g class="uuid-08a6c331-4618-44ee-9952-8ffa4e0c4160"><line class="uuid-4bf8e94b-17ea-4547-8d82-b038228e741d" x1="476.5" y1="287.43" x2="466.18" y2="293.6"/><line class="uuid-4bf8e94b-17ea-4547-8d82-b038228e741d" x1="476.5" y1="254.77" x2="466.18" y2="248.2"/><line class="uuid-4bf8e94b-17ea-4547-8d82-b038228e741d" x1="512.4" y1="248.8" x2="519.47" y2="240.41"/><line class="uuid-4bf8e94b-17ea-4547-8d82-b038228e741d" x1="526.55" y1="277.93" x2="539.19" y2="281.87"/><circle class="uuid-4bf8e94b-17ea-4547-8d82-b038228e741d" cx="457.75" cy="258.18" r="4.58"/><circle cx="458.4" cy="284.06" r="2.05"/><circle cx="540.65" cy="250.25" r="2.05"/><circle cx="548.64" cy="268.25" r="2.05"/><circle class="uuid-4bf8e94b-17ea-4547-8d82-b038228e741d" cx="534.81" cy="293.6" r="4.58"/><g><line class="uuid-4bf8e94b-17ea-4547-8d82-b038228e741d" x1="505.29" y1="228.15" x2="508.78" y2="236.99"/><line class="uuid-4bf8e94b-17ea-4547-8d82-b038228e741d" x1="511.46" y1="230.83" x2="502.61" y2="234.31"/></g><g><line class="uuid-4bf8e94b-17ea-4547-8d82-b038228e741d" x1="471.12" y1="301.37" x2="470.09" y2="310.82"/><line class="uuid-4bf8e94b-17ea-4547-8d82-b038228e741d" x1="475.33" y1="306.61" x2="465.88" y2="305.58"/></g></g></g></g></svg>
</svg>