<?xml version="1.0" encoding="UTF-8"?>
<svg xmlns="http://www.w3.org/2000/svg" viewBox="0 0 600 600">
<svg id="uuid-50f5b600-4bee-4d04-aa66-9a7827d0c80f" data-name="BACKGROUND" xmlns="http://www.w3.org/2000/svg" viewBox="0 0 600 600"><defs><style>
      .uuid-7826a2f3-55af-481e-b40d-34a6e43de7ed {
        fill: #7aa6ff;
      }
    </style></defs><rect class="uuid-7826a2f3-55af-481e-b40d-34a6e43de7ed" x="-1" y="-1" width="602" height="602"/></svg>
<svg id="uuid-79ae8300-360b-4786-a450-139d88b9bd1b" data-name="BACKGROUND" xmlns="http://www.w3.org/2000/svg" viewBox="0 0 600 600"><defs><style>
      .uuid-bb790ef4-3482-4c16-9212-ca22a42e94c3, .uuid-ce21024d-8548-4b65-8289-134ddf374839 {
        fill: #fff;
      }

      .uuid-30451256-22b5-42b4-8d7c-d574d31a414e, .uuid-ce21024d-8548-4b65-8289-134ddf374839, .uuid-ec441505-d704-4a03-88d5-730631e1d0ab, .uuid-4dc48eb6-7162-43bb-b26b-b457b7eed207, .uuid-69c06034-4b4b-451d-b5db-874d58b2df8d, .uuid-488e563d-fac1-4f7c-b70d-f33aa7f157d6, .uuid-2c7f611f-0762-4166-ba69-0c8fa63a7c69 {
        stroke: #000;
        stroke-width: 2px;
      }

      .uuid-30451256-22b5-42b4-8d7c-d574d31a414e, .uuid-ce21024d-8548-4b65-8289-134ddf374839, .uuid-4dc48eb6-7162-43bb-b26b-b457b7eed207, .uuid-69c06034-4b4b-451d-b5db-874d58b2df8d, .uuid-488e563d-fac1-4f7c-b70d-f33aa7f157d6 {
        stroke-linecap: round;
      }

      .uuid-30451256-22b5-42b4-8d7c-d574d31a414e, .uuid-ec441505-d704-4a03-88d5-730631e1d0ab, .uuid-69c06034-4b4b-451d-b5db-874d58b2df8d, .uuid-2c7f611f-0762-4166-ba69-0c8fa63a7c69 {
        fill: #3ef1ff;
      }

      .uuid-30451256-22b5-42b4-8d7c-d574d31a414e, .uuid-4dc48eb6-7162-43bb-b26b-b457b7eed207, .uuid-2c7f611f-0762-4166-ba69-0c8fa63a7c69 {
        stroke-linejoin: round;
      }

      .uuid-ce21024d-8548-4b65-8289-134ddf374839, .uuid-ec441505-d704-4a03-88d5-730631e1d0ab, .uuid-69c06034-4b4b-451d-b5db-874d58b2df8d, .uuid-488e563d-fac1-4f7c-b70d-f33aa7f157d6 {
        stroke-miterlimit: 10;
      }

      .uuid-4dc48eb6-7162-43bb-b26b-b457b7eed207 {
        fill: none;
      }

      .uuid-488e563d-fac1-4f7c-b70d-f33aa7f157d6 {
        fill: #f9a723;
      }
    </style></defs><path class="uuid-30451256-22b5-42b4-8d7c-d574d31a414e" d="m409.81,359.6c9.2,3.77,29.89,12.05,42.79,16.03,2.11.65,4.41.69,6.5-.04,11.79-4.08,28.47-11.39,33.03-11.32,5.25.08,7.8,3.93,19.88,2.04,13.36-2.1,22.43-11.99,20.93-23.3-4.21-43.28-25.18-26.79-25.18-26.79,0,0-5.84-8.75-18.76-4.82-11.83,3.6-10.2,14.44-6.47,22.47l-25.29,8.58c-2.14.72-4.45.71-6.59-.02l-35.7-12.61"/><path class="uuid-69c06034-4b4b-451d-b5db-874d58b2df8d" d="m533.36,312.82c2.5,3.94,1.62,9.14-1.57,12.4-2.47,2.53-5.88,3.88-9.32,4.4-2.8.43-5.7.42-8.49-.08-2.14-.39-4.29-1.1-5.79-2.75-1.66-1.83-2.27-4.46-1.98-6.87.51-4.17,3.84-7.14,7.22-9.26,3.17-1.98,6.86-3.26,10.64-3.09,3.8.18,7.36,2.19,9.3,5.24Z"/><path class="uuid-69c06034-4b4b-451d-b5db-874d58b2df8d" d="m538.57,349.84c.97,3.03.32,6.43-1.5,9.01-3.77,5.33-11.17,5.65-16.96,4.27-3.31-.79-6.69-2.21-8.67-5.13-3.13-4.61-.82-9.79,3.48-12.56,2.58-1.66,5.61-2.67,8.63-3.14,5.73-.89,13.1,1.51,15.03,7.56Z"/><path class="uuid-69c06034-4b4b-451d-b5db-874d58b2df8d" d="m538.71,328.53c1.8,2.99,2.06,6.89.22,9.9-1.95,3.2-4.94,5.25-8.49,6.28-3.66,1.07-7.64,1.27-11.4.44-2.25-.5-4.53-1.38-5.96-3.28-1.86-2.47-1.89-5.68-.85-8.49,1.2-3.24,4.17-5.69,7.09-7.37,6.15-3.56,15.21-4.43,19.39,2.52Z"/><path class="uuid-69c06034-4b4b-451d-b5db-874d58b2df8d" d="m501.85,311.68s9.27,3.84,7.77,12.02c-1.04,5.68-8.17,9.55-14.94,6.13"/><path class="uuid-4dc48eb6-7162-43bb-b26b-b457b7eed207" d="m500.67,331.08c2.41,1.63,5.11,8.04,3.4,14.42"/><path d="m443.44,339.88c-2.88,10.58-6.94,20.23-11.17,28.59-10.17-3.78-21.16-9.53-27-11.93l11.83-26.02,26.35,9.36Z"/><ellipse cx="300" cy="518.65" rx="138.6" ry="22.93"/><path class="uuid-ec441505-d704-4a03-88d5-730631e1d0ab" d="m319.36,427.14c-1.16,1.05-54.95,57-54.95,57,0,0,21.51-1.95,31.74,10.62,10.23,12.57,7.26,23.89,7.26,23.89h-66.9s-28.69-36.17-28.69-36.17c0,0,3.74-13.4,20.44-10.59,20.9-19.38,55.52-59.13,55.52-59.13l35.59,14.38Z"/><path d="m283.78,412.76l31.28,12.64-3.24,9.5c-2.93,3.03-9.76,10.12-13.64,14.14-11.92,0-27.98-2.13-41.33-6.37,13.95-15.1,26.93-29.92,26.93-29.92Z"/><path class="uuid-ec441505-d704-4a03-88d5-730631e1d0ab" d="m354.45,173.54l-.11.27-174.2,58.29c-11.49,20.13-18.05,43.43-18.05,68.27,0,76.2,61.77,137.98,137.97,137.98s137.98-61.77,137.98-137.98c0-56.89-34.43-105.72-83.58-126.83Z"/><path class="uuid-4dc48eb6-7162-43bb-b26b-b457b7eed207" d="m264.41,484.14c-4.06.49-11.49,1.36-17.85,7.23"/><path class="uuid-bb790ef4-3482-4c16-9212-ca22a42e94c3" d="m185.17,308.14c-4.41,0-7.98-3.57-7.98-7.98,0-67.74,55.11-122.86,122.86-122.86,4.41,0,7.98,3.57,7.98,7.98s-3.57,7.98-7.98,7.98c-58.94,0-106.9,47.95-106.9,106.9,0,4.41-3.57,7.98-7.98,7.98Z"/><path d="m203.75,397.46l34.2-27.46-24.86,36.3c-6.73-5.1-3.66-2.61-9.34-8.83Z"/><path class="uuid-2c7f611f-0762-4166-ba69-0c8fa63a7c69" d="m323.72,387.31c19.14-13.4,39.15-11.3,55.52,7.36,19.6,22.35,30.57,33.06,30.57,33.06,0,0,10.74-19.34,34.77-17.5,18.26,1.4,24.84,14.43,24.84,14.43,0,0,6.21,8.82-22.45,33.5-28.66,24.68-54.93,40.92-61.14,29.46-6.21-11.46-2.82-32.1-2.82-32.1,0,0-22.02-26.09-27.94-32.01-6.79-6.79-15.71-1.36-15.71-1.36"/><path class="uuid-ec441505-d704-4a03-88d5-730631e1d0ab" d="m446.97,458.17c-25.89,22.29-49.82,37.69-58.79,32.02-9.77-7.44,26.84-38.54,44.88-52.7,18.04-14.16,32.17-17.82,36.36-12.81,0,0,6.21,8.82-22.45,33.5Z"/><path class="uuid-4dc48eb6-7162-43bb-b26b-b457b7eed207" d="m409.81,427.74c-1.89,2.86-4.55,10.38-4.55,10.38"/><ellipse class="uuid-ce21024d-8548-4b65-8289-134ddf374839" cx="269.41" cy="209.07" rx="94.9" ry="26.25" transform="translate(-52.5 96.54) rotate(-18.55)"/><ellipse class="uuid-488e563d-fac1-4f7c-b70d-f33aa7f157d6" cx="269.41" cy="209.07" rx="71.19" ry="13.32" transform="translate(-52.5 96.54) rotate(-18.55)"/><g><path class="uuid-30451256-22b5-42b4-8d7c-d574d31a414e" d="m214.11,345.7c-8.05,5.83-25.34,20.79-35.52,29.67-1.67,1.45-2.82,3.41-3.39,5.55-3.14,11.67-8.55,33.44-8.55,33.44,0,0-8.42.58-12.19,14.35-3.64,13.3-6.64,25.06,3.77,29.75.35,7.47,7.51,15.45,19.2,9.41.14-.06,1.32,1.32,1.44,1.45,2.64,2.7,6.36,4.45,10.13,4.81,3.65.36,7.61-.67,10.43-3.08,3.29-2.81,5.4-6.94,6.05-11.2.4-2.61.26-5.31-.75-7.78,0,0,6.2-2.51,8.05-11.34,1.99-9.49-4.22-19.42-14.62-18.18l6.17-23.11c.51-2.2,1.74-4.16,3.49-5.59l29.38-24.3"/><path class="uuid-4dc48eb6-7162-43bb-b26b-b457b7eed207" d="m204.73,452.06c-1.37-3.47-5.39-7.08-9-6.88"/><path class="uuid-4dc48eb6-7162-43bb-b26b-b457b7eed207" d="m178.86,469.3c-5.16-5.27-3.82-11.97-2.9-13.54"/><path class="uuid-4dc48eb6-7162-43bb-b26b-b457b7eed207" d="m158.22,458.45c-.27-5.22.73-7.32,3.06-9.83"/><path class="uuid-4dc48eb6-7162-43bb-b26b-b457b7eed207" d="m193.93,450.63c.14-2.07.48-4.16,1.32-6.06.85-1.95,2.36-3.88,4.31-4.85"/></g></svg>
<svg id="uuid-d68fbb24-c0f3-4dee-920e-134d781fb2e1" data-name="BODY" xmlns="http://www.w3.org/2000/svg" viewBox="0 0 600 600"><path d="m378.79,259.75c-1.76-5.11-7.33-7.82-12.44-6.06s-7.82,7.33-6.06,12.44"/><circle cx="362.12" cy="293.18" r="9.78" transform="translate(-9.59 12.26) rotate(-1.91)"/><path d="m346.88,270.76c-1.76-5.11-7.33-7.82-12.44-6.06-5.11,1.76-7.82,7.33-6.06,12.44"/></svg>
<svg id="uuid-9d1e8aa9-c04a-46e9-b3c3-01823dd59a59" data-name="BACKGROUND" xmlns="http://www.w3.org/2000/svg" viewBox="0 0 600 600"><defs><style>
      .uuid-b5c36b33-7bcc-4de6-9bcc-b09b8a2016f6, .uuid-660c04b4-fa82-4422-b1ba-a2c1dd7e0159 {
        fill: #7aa6ff;
      }

      .uuid-b5c36b33-7bcc-4de6-9bcc-b09b8a2016f6, .uuid-41032fe0-d2fe-461a-b8c6-491b03ab54be, .uuid-8460c441-7e92-40ce-bb73-f11f0dcaf042, .uuid-8971ef88-c9ee-424d-b142-c3a328f2a790, .uuid-9210ebd9-abde-4e8b-b154-3bb591c63759 {
        stroke: #000;
        stroke-linejoin: round;
      }

      .uuid-b5c36b33-7bcc-4de6-9bcc-b09b8a2016f6, .uuid-8460c441-7e92-40ce-bb73-f11f0dcaf042, .uuid-8971ef88-c9ee-424d-b142-c3a328f2a790, .uuid-9210ebd9-abde-4e8b-b154-3bb591c63759 {
        stroke-linecap: round;
        stroke-width: 2px;
      }

      .uuid-f649728e-69c6-4a97-a0f0-388adbfc0e12, .uuid-8460c441-7e92-40ce-bb73-f11f0dcaf042 {
        fill: #fff7f0;
      }

      .uuid-41032fe0-d2fe-461a-b8c6-491b03ab54be {
        stroke-width: 3px;
      }

      .uuid-41032fe0-d2fe-461a-b8c6-491b03ab54be, .uuid-8971ef88-c9ee-424d-b142-c3a328f2a790 {
        fill: none;
      }

      .uuid-9210ebd9-abde-4e8b-b154-3bb591c63759 {
        fill: #f9a723;
      }
    </style></defs><g id="uuid-3ff62dab-83dd-4bd0-b5a2-51453336e98e" data-name="uuid-09b8933c-635f-4dcd-977d-7eb4fc105aa8"><g><g><path class="uuid-b5c36b33-7bcc-4de6-9bcc-b09b8a2016f6" d="m241.22,454.8l-13.89,13.85s-12.85-2.78-19.77,7.48l29.07,36.91h68.51s.65-17.01-14.04-25.82c-8.29-5.06-18.57-5.38-18.57-5.38l2.79-3.09c.96-1.06.66-2.75-.62-3.4-2.53-1.29-6.47-3.3-9.42-4.8-1.34-.68-2.97-.41-4.02.67l-1.42,1.47s-6.22-3.03-10.77-8.09c-4.55-5.06-5.44-7.92-5.44-7.92l2.43-2.53-2.37-.23c-.91-.09-1.81.23-2.46.88h0Z"/><path class="uuid-8971ef88-c9ee-424d-b142-c3a328f2a790" d="m244.42,489.63c5.92-5.31,14.38-9.03,28.11-7.79"/><path class="uuid-8460c441-7e92-40ce-bb73-f11f0dcaf042" d="m305.14,513.04s.61-16.03-12.79-25.02c-19.07,2.22-21.4,18.25-21.65,25.02h34.44Z"/><path class="uuid-8971ef88-c9ee-424d-b142-c3a328f2a790" d="m259.84,472.69c-3.71,4.36-10.76,13.48-10.76,13.48"/><g><circle cx="241.51" cy="504.3" r="2.39"/><circle cx="252.8" cy="504.3" r="2.39"/></g><g><path class="uuid-8460c441-7e92-40ce-bb73-f11f0dcaf042" d="m261.71,478.55s-3.86-1.4-6.22-2.86c-3.94-2.43-6.53,2.16-3.35,4.35,2.2,1.51,5.38,2.69,5.38,2.69l4.19-4.18Z"/><path class="uuid-8460c441-7e92-40ce-bb73-f11f0dcaf042" d="m272.79,481.86s-1.22-4.06-6.78-4.06c-7.86,0-12.12,6.94-13.58,9.53-1.46,2.58,2.88,4.92,4.88,1.92,4.3-6.42,6.78-7.15,8.16-7.61,3.05-.17,7.32.21,7.32.21h0Z"/><path class="uuid-8460c441-7e92-40ce-bb73-f11f0dcaf042" d="m286.4,484.77s-.85-4.3-6.5-4.83c-7.98-.74-12.97,6.03-14.7,8.56-1.73,2.53,2.45,5.35,4.77,2.44,4.98-6.23,9.01-7.6,10.46-7.94,1.97.42,5.97,1.76,5.97,1.76h0Z"/></g><g><circle class="uuid-f649728e-69c6-4a97-a0f0-388adbfc0e12" cx="240.43" cy="473.54" r="9.19"/><path class="uuid-660c04b4-fa82-4422-b1ba-a2c1dd7e0159" d="m244.02,470.6l-.63,2.28c-.07.26-.01.54.16.74l1.52,1.81c.44.52.09,1.32-.59,1.35l-2.36.11c-.27.01-.52.16-.66.39l-1.25,2.01c-.36.58-1.22.49-1.46-.14l-.83-2.22c-.1-.25-.31-.44-.57-.51l-2.3-.57c-.66-.16-.84-1.01-.31-1.44l1.85-1.48c.21-.17.33-.43.31-.7l-.17-2.36c-.05-.68.7-1.12,1.27-.74l1.98,1.3c.23.15.51.18.76.08l2.19-.89c.63-.26,1.28.32,1.1.98h0Z"/></g><path class="uuid-8460c441-7e92-40ce-bb73-f11f0dcaf042" d="m236.72,508.58l-27.63-35.34c-.99-1.27-2.89-1.3-3.93-.08l-4.54,5.35c-1.19,1.4-1.23,3.44-.1,4.88l29.22,37.38c1.22,1.56,3.1,2.48,5.08,2.48h71.09c1.33,0,2.41-1.08,2.41-2.41v-8.19c0-1.33-1.08-2.41-2.41-2.41h-65.78c-1.34,0-2.6-.62-3.42-1.67h0Z"/><line class="uuid-8971ef88-c9ee-424d-b142-c3a328f2a790" x1="256.96" y1="510.14" x2="256.96" y2="523.15"/><g><line class="uuid-8971ef88-c9ee-424d-b142-c3a328f2a790" x1="261.81" y1="519.72" x2="267.96" y2="513.57"/><line class="uuid-8971ef88-c9ee-424d-b142-c3a328f2a790" x1="270.81" y1="519.72" x2="276.96" y2="513.57"/><line class="uuid-8971ef88-c9ee-424d-b142-c3a328f2a790" x1="279.82" y1="519.72" x2="285.97" y2="513.57"/><line class="uuid-8971ef88-c9ee-424d-b142-c3a328f2a790" x1="297.82" y1="519.72" x2="303.97" y2="513.57"/><line class="uuid-8971ef88-c9ee-424d-b142-c3a328f2a790" x1="288.82" y1="519.72" x2="294.97" y2="513.57"/></g><path class="uuid-41032fe0-d2fe-461a-b8c6-491b03ab54be" d="m256.96,516.65h-21.1c-.79,0-1.53-.37-2.01-.99l-30.83-39.95"/></g><g><path class="uuid-b5c36b33-7bcc-4de6-9bcc-b09b8a2016f6" d="m368.09,442.51l11.81,13.89s-3.17,17.71,2.54,31.11c0,0,5.33-16.06,31.48-39.12,26.16-23.06,53.73-30.88,53.73-30.88,0,0-10.6-11.39-29.3-10.31-18.7,1.08-28.7,15.35-28.7,15.35l-12.42-13.22c-.8-.85-1.95-1.29-3.1-1.14-2.22.27-6.08,1.2-10.09,4.24-.66.5-.78,1.46-.26,2.11l1.05,1.3s-16.35,11.66-16.75,26.68h0Z"/><path class="uuid-8460c441-7e92-40ce-bb73-f11f0dcaf042" d="m409.66,422.54s-3.89,5.28-6.92,15.26"/><line class="uuid-8971ef88-c9ee-424d-b142-c3a328f2a790" x1="384.84" y1="415.83" x2="403.68" y2="434.93"/><path class="uuid-8460c441-7e92-40ce-bb73-f11f0dcaf042" d="m435.19,432.7c17.96-11.07,32.48-15.19,32.48-15.19,0,0-10.6-11.39-29.3-10.31-12.71,7.85-5.52,21.67-3.18,25.5h0Z"/><path class="uuid-8460c441-7e92-40ce-bb73-f11f0dcaf042" d="m469.32,415.42c-.66-.63-1.59-.86-2.47-.62-5.87,1.59-29.25,8.95-53.86,30.76-23.28,20.64-30.4,35.59-32.22,40.34-.37.98-.27,2.06.31,2.94,1.37,2.1,4.19,6.25,6.89,9.08,4.73,4.98,26.38-2.07,55.09-27.69,28.72-25.62,37.69-40.52,34.25-45.67-2.52-3.77-6.2-7.44-7.99-9.14h0Z"/><path class="uuid-9210ebd9-abde-4e8b-b154-3bb591c63759" d="m477.9,426.07h0c-.62-4.79-20.55-1.28-53.98,25.69-33.41,26.94-37.41,45.67-34.1,47.26,7.15,2.33,27.31-5.65,53.25-28.79,24.07-21.47,34.26-35.41,34.9-42.4,0-.73,0-1.33-.07-1.76h0Z"/><g><g><path class="uuid-9210ebd9-abde-4e8b-b154-3bb591c63759" d="m447.29,460.39c14.43-13.2,21.63-21.14,22.08-26,0-.59,0-1.08-.05-1.42-.5-3.87-14.68,2.19-41.67,23.96-1.47,1.18-2.86,2.33-4.2,3.46h23.84,0Z"/><path class="uuid-9210ebd9-abde-4e8b-b154-3bb591c63759" d="m411.51,471.18c-12.88,12.71-15.31,19.71-13.29,20.67,5.33,1.74,18.47-4.91,36.96-20.67h-23.67,0Z"/></g><line class="uuid-8971ef88-c9ee-424d-b142-c3a328f2a790" x1="398.24" y1="488.01" x2="411.89" y2="488.01"/><polyline class="uuid-8971ef88-c9ee-424d-b142-c3a328f2a790" points="411.51 471.18 418.84 483.75 400.63 483.75 435.18 471.18"/><line class="uuid-8971ef88-c9ee-424d-b142-c3a328f2a790" x1="429.11" y1="455.76" x2="452.29" y2="455.76"/><polygon class="uuid-8971ef88-c9ee-424d-b142-c3a328f2a790" points="451.17 439.65 467.13 439.65 435.18 451 457.21 451 451.17 439.65"/><line class="uuid-8971ef88-c9ee-424d-b142-c3a328f2a790" x1="459.15" y1="434.95" x2="469.28" y2="434.95"/></g><line class="uuid-8971ef88-c9ee-424d-b142-c3a328f2a790" x1="422.8" y1="437.53" x2="430.61" y2="446.53"/><g><path class="uuid-8460c441-7e92-40ce-bb73-f11f0dcaf042" d="m408.54,421.02c-3.73,3.19-6.72,6.78-9.07,9.63-2.35,2.86-6.8.03-3.59-3.64,3.21-3.67,7.19-7.82,9.39-9.15,2.2-1.33,5.76,1.03,3.27,3.15h0Z"/><path class="uuid-8460c441-7e92-40ce-bb73-f11f0dcaf042" d="m402.17,415.16c-4.39,2.18-8.18,4.92-11.16,7.11-2.98,2.19-6.6-1.64-2.59-4.41,4.01-2.77,8.88-5.81,11.35-6.56,2.46-.75,5.33,2.41,2.4,3.86h0Z"/><path class="uuid-8460c441-7e92-40ce-bb73-f11f0dcaf042" d="m418.62,414.25s-3.47-2.43-7.84,1.01c-6.17,4.87-5.22,12.96-4.76,15.89s5.3,2.08,5.02-1.51c-.6-7.7.9-9.81,1.7-11.03,2.29-2.02,5.88-4.36,5.88-4.36h0Z"/><path class="uuid-8460c441-7e92-40ce-bb73-f11f0dcaf042" d="m431.11,408.11s-3.34-2.85-8.09.24c-6.73,4.36-6.45,12.77-6.24,15.82.21,3.06,5.24,2.68,5.26-1.04.05-7.97,2.38-11.55,3.3-12.71,1.81-.89,5.78-2.31,5.78-2.31Z"/></g><g><circle class="uuid-f649728e-69c6-4a97-a0f0-388adbfc0e12" cx="384.02" cy="438.12" r="9.19"/><path class="uuid-660c04b4-fa82-4422-b1ba-a2c1dd7e0159" d="m387.08,434.62l-.24,2.35c-.03.27.08.53.28.71l1.8,1.53c.52.44.31,1.28-.36,1.43l-2.31.5c-.26.06-.48.24-.59.49l-.9,2.19c-.26.63-1.13.69-1.47.1l-1.19-2.05c-.14-.23-.38-.38-.65-.41l-2.36-.18c-.68-.05-1-.86-.55-1.36l1.58-1.76c.18-.2.25-.48.19-.74l-.56-2.3c-.16-.66.51-1.22,1.13-.94l2.16.96c.25.11.53.09.76-.05l2.02-1.24c.58-.36,1.31.11,1.24.78h0Z"/></g><g><circle cx="404.5" cy="444.74" r="2.39"/><circle cx="413" cy="437.31" r="2.39"/></g><line class="uuid-8971ef88-c9ee-424d-b142-c3a328f2a790" x1="464.72" y1="423.14" x2="464.32" y2="418.64"/><line class="uuid-8971ef88-c9ee-424d-b142-c3a328f2a790" x1="456.77" y1="426.32" x2="456.36" y2="421.82"/><line class="uuid-8971ef88-c9ee-424d-b142-c3a328f2a790" x1="449.12" y1="430.04" x2="448.71" y2="425.54"/><line class="uuid-8971ef88-c9ee-424d-b142-c3a328f2a790" x1="441.27" y1="434.42" x2="440.86" y2="429.92"/><line class="uuid-8971ef88-c9ee-424d-b142-c3a328f2a790" x1="433.62" y1="439.43" x2="433.21" y2="434.93"/><path class="uuid-41032fe0-d2fe-461a-b8c6-491b03ab54be" d="m426.7,442.03s-36.57,26.72-42.89,50.79"/></g></g></g></svg>
<svg id="uuid-70f0d29f-f405-42dc-a6bb-4544aa100c37" data-name="BODY" xmlns="http://www.w3.org/2000/svg" viewBox="0 0 600 600"><defs><style>
      .uuid-6489de3e-494f-4122-88a1-f5ba77ab3810 {
        fill: #353434;
      }

      .uuid-6489de3e-494f-4122-88a1-f5ba77ab3810, .uuid-e4c379bf-7f75-4d67-b103-6a847d0bd3a0, .uuid-91a62cc3-fbc7-40d9-83eb-dda2d4a80b74, .uuid-972b44f8-7928-4282-90a9-33bf7ef45a6e {
        stroke-width: 2px;
      }

      .uuid-6489de3e-494f-4122-88a1-f5ba77ab3810, .uuid-e4c379bf-7f75-4d67-b103-6a847d0bd3a0, .uuid-91a62cc3-fbc7-40d9-83eb-dda2d4a80b74, .uuid-972b44f8-7928-4282-90a9-33bf7ef45a6e, .uuid-a85c0ee1-bb32-4b53-8b62-3fa4e7ae6fea {
        stroke: #000;
        stroke-linecap: round;
        stroke-linejoin: round;
      }

      .uuid-e4c379bf-7f75-4d67-b103-6a847d0bd3a0 {
        fill: #fff7f0;
      }

      .uuid-91a62cc3-fbc7-40d9-83eb-dda2d4a80b74 {
        fill: #fff;
      }

      .uuid-972b44f8-7928-4282-90a9-33bf7ef45a6e {
        fill: none;
      }

      .uuid-a85c0ee1-bb32-4b53-8b62-3fa4e7ae6fea {
        fill: #f9a723;
        stroke-width: 2px;
      }
    </style></defs><g id="uuid-ae67763d-2927-410b-8120-b78ccec6a88a" data-name="uuid-5ea017f5-6ab7-4b49-9ece-9b1cac5ff624"><g><g><path class="uuid-91a62cc3-fbc7-40d9-83eb-dda2d4a80b74" d="m468.51,338.63l-11.27,3.82c-2.14.72-4.46.71-6.59-.02l-35.7-12.61-5.14,29.78c9.2,3.77,29.89,12.05,42.79,16.03,2.11.65,4.41.69,6.5-.04,5.76-2,12.7-4.76,18.81-7.06-2.7-8.62-6.59-20.95-9.41-29.91h0Z"/><path d="m443.44,339.88c-2.88,10.58-6.94,20.23-11.17,28.59-10.17-3.78-21.16-9.53-27-11.93l11.83-26.02,26.35,9.36Z"/><path class="uuid-91a62cc3-fbc7-40d9-83eb-dda2d4a80b74" d="m468.45,373.64c-8.32-9.6-10.07-23.09-11.1-31.57-.4-3.26,1.5-6.35,4.59-7.49l7.36-2.7c1.61-.59,3.4-.29,4.73.79l3.54,2.87-4.51,1.53s-1.65,17.39,9.6,29.72l3.97-1.43-.16,3.5c-.09,1.97-1.36,3.69-3.22,4.36l-7.03,2.52c-2.77.99-5.85.15-7.78-2.08h0Z"/></g><g><path class="uuid-91a62cc3-fbc7-40d9-83eb-dda2d4a80b74" d="m319.36,402.14c54.04-5.61,84.58-20.5,97.52-28.47,12.37-19.58,19.96-42.47,21.12-67.06.09-2.29.16-5.1.16-7.45-10.26,6.42-30.03,16.38-54.87,23.74-2.63.78-5.7,4.93-6.96,8.27-2.98-2.28-6.94-4.56-9.95-3.89-19.73,4.37-41.69,6.61-64.09,4.3-57.11-5.89-121.07-45.52-138.48-55.02-.46,2.74-.69,4.67-1.01,7.1-.63,5.36-.97,10.81-.97,16.33,0,12.21,1.6,24.05,4.58,35.32,27.47,27.32,85.27,73.84,152.95,66.82h0Z"/><path class="uuid-91a62cc3-fbc7-40d9-83eb-dda2d4a80b74" d="m383.77,322.76c3.49-1.07,9.13.64,13.58,13.11,0,0,23.96-9.3,43.04-24.77,1.6-1.3,2.55-3.22,2.59-5.28l.14-8.89c.05-3.02-1.88-5.72-4.75-6.66l-.55-.18.32,6.98s-11.4,6.17-25.45,13.11c-14.33,7.08-28.92,12.57-28.92,12.57h0Z"/><path class="uuid-91a62cc3-fbc7-40d9-83eb-dda2d4a80b74" d="m366.38,327.28c-5.67,1.61-5.17,17.69-5.17,17.69,0,0-35.73,11.05-98.02-5.26-52.72-13.8-91.72-41.9-102.47-50.21-1.84-1.42-2.74-3.74-2.36-6.04l1.47-8.8c.4-2.36,2.09-4.3,4.39-5l1.02-.31-1.03,5.17s53.94,31.63,99.78,45.92c45.84,14.29,93.6,8.21,102.38,6.85h0Z"/><g><path class="uuid-91a62cc3-fbc7-40d9-83eb-dda2d4a80b74" d="m376.33,331.17c5.31,19.26,13.63,55.33,13.63,55.33"/><circle class="uuid-91a62cc3-fbc7-40d9-83eb-dda2d4a80b74" cx="386.37" cy="336.3" r="3.86"/><circle class="uuid-91a62cc3-fbc7-40d9-83eb-dda2d4a80b74" cx="390.87" cy="353.91" r="3.86"/></g></g><g><g><path class="uuid-6489de3e-494f-4122-88a1-f5ba77ab3810" d="m265.06,433.71l-12.83,13.93,24.11,24.11,32.61-33.86s-9.11-3.01-21.05-4.93c-11.93-1.92-22.84.76-22.84.76h0Z"/><path d="m283.78,412.76l31.28,12.64-3.24,9.5c-2.93,3.03-9.76,10.12-13.64,14.14-11.92,0-27.98-2.13-41.33-6.37,13.95-15.1,26.93-29.92,26.93-29.92h0Z"/><path class="uuid-6489de3e-494f-4122-88a1-f5ba77ab3810" d="m256.75,440.63c11.72,4.9,21.56,18.02,26.25,25.16,1.8,2.74,1.48,6.36-.78,8.74l-5.4,5.69c-1.18,1.24-2.92,1.77-4.59,1.4l-4.44-1,3.34-3.48s-8.51-18.01-24.06-24.06l-2.92,3.05-1.41-3.2c-.8-1.8-.42-3.91.94-5.33l5.18-5.38c2.04-2.12,5.18-2.73,7.89-1.6h0Z"/></g><g><path class="uuid-6489de3e-494f-4122-88a1-f5ba77ab3810" d="m195.72,360.99c-9.29-4.19-17.84-8.74-25.47-13.44,3.18,8.66,7.21,16.91,11.97,24.66l13.5-11.22h0Z"/><path class="uuid-6489de3e-494f-4122-88a1-f5ba77ab3810" d="m418.95,370.3c-24.03,7.71-48.97,5.83-75.98,8.83-39.41,8.01-77.99,4.3-111.27-5.07l-23.9,19.76c-1.62,1.34-2.78,3.14-3.33,5.17l-.18.65c24.83,23.86,58.55,38.52,95.7,38.52,20.42,0,39.8-4.45,57.24-12.4,0,0-.01.03-.01.03l10.9,12.33,27.36-25.36-6.48-7.1s-.02,0-.02,0c11.86-10,22.01-21.95,29.96-35.36h0Z"/></g><g><path class="uuid-e4c379bf-7f75-4d67-b103-6a847d0bd3a0" d="m203.69,354.36c-17.08-8.69-30-18.05-38.83-25.49,1.83,8.61,4.46,16.91,7.81,24.84,5.47,4.27,11.23,8.27,17.37,12l13.65-11.35Z"/><path class="uuid-e4c379bf-7f75-4d67-b103-6a847d0bd3a0" d="m342.98,379.13c-41.76,3.6-76.57-1.71-104.59-10.59l-15.49,12.81c24.69,8.91,54.95,14.31,93.96,15.13,0,0,9.76-15.82,28.03-17.52,18.89-1.76,28.81,10.15,28.81,10.15,0,0,26.43-3.81,42.25-13.99,4.66-7.17,8.68-14.8,11.96-22.81-22.27,15.48-52.65,24.04-84.93,26.82h0Z"/></g><path class="uuid-6489de3e-494f-4122-88a1-f5ba77ab3810" d="m363.75,435.78c5.95-11.23,22.62-22.64,30.16-26.66,2.9-1.55,6.47-.89,8.64,1.58l5.18,5.89c1.13,1.29,1.5,3.07.98,4.7l-1.2,4.15-3.35-3.46s-19.28,5.51-28.87,24.58l2.77,3.19-3.32,1.12c-1.87.63-3.93.07-5.22-1.43l-4.89-5.65c-1.93-2.23-2.25-5.4-.87-8.01h0Z"/><path class="uuid-6489de3e-494f-4122-88a1-f5ba77ab3810" d="m251.53,391.83l3.51-18.9c.48-2.58,2.98-4.26,5.55-3.73l5.12,1.06c1.43.3,2.64,1.24,3.27,2.56l1.72,3.58-4.74-.87-2.91,19.07"/><path class="uuid-6489de3e-494f-4122-88a1-f5ba77ab3810" d="m304.26,399.19l-.41-19.21c-.06-2.62,2.06-4.78,4.68-4.78h5.23c1.46,0,2.84.67,3.72,1.83l2.42,3.15-4.82.11,1.03,19.26"/><path class="uuid-6489de3e-494f-4122-88a1-f5ba77ab3810" d="m416.88,373.71l-4.03-12.57-3.04,1.52.44-3.75c.16-1.38.79-2.47,1.7-2.96l3.26-1.76c1.64-.88,3.68.41,4.53,2.87,0,0,1.79,5.26,2.48,7.39-2.03,4.03-5.35,9.26-5.35,9.26h0Z"/><path class="uuid-6489de3e-494f-4122-88a1-f5ba77ab3810" d="m182.89,364.72l6.4-18.43,2.98,1.81-.44-3.87c-.16-1.38-.79-2.47-1.7-2.96l-4.6-2.53c-1.64-.88-3.68.41-4.53,2.87,0,0-5.46,14.85-6.15,16.97"/><rect class="uuid-a85c0ee1-bb32-4b53-8b62-3fa4e7ae6fea" x="373.04" y="367.45" width="29.72" height="22.05" rx="5.33" ry="5.33" transform="translate(-85.21 114.14) rotate(-15.1)"/><g><path class="uuid-972b44f8-7928-4282-90a9-33bf7ef45a6e" d="m252.23,408.88s21.46,5.16,33.72-8.19"/><g><path d="m378.59,441.98c-.27,0-.53-.11-.73-.31l-2.75-2.91c-.38-.4-.36-1.03.04-1.41.4-.38,1.03-.36,1.41.04l2.75,2.91c.38.4.36,1.03-.04,1.41-.19.18-.44.27-.69.27h0Z"/><path d="m370.68,433.6c-.27,0-.53-.11-.73-.31l-2.75-2.91c-.38-.4-.36-1.03.04-1.41s1.03-.36,1.41.04l2.75,2.91c.38.4.36,1.03-.04,1.41-.19.18-.44.27-.69.27h0Z"/></g><path d="m375.6,422.97c-.28,0-.56-.12-.76-.34,0,0-1.36-1.57-3.3-3.78-.36-.42-.32-1.05.09-1.41.42-.36,1.05-.32,1.41.09,1.94,2.21,3.3,3.78,3.3,3.78.36.42.32,1.05-.1,1.41-.19.16-.42.25-.66.25h0Zm-6.61-7.55c-.28,0-.55-.11-.75-.34-1.1-1.24-2.23-2.52-3.32-3.74-.37-.41-.33-1.04.08-1.41.41-.37,1.04-.33,1.41.08,1.09,1.22,2.23,2.51,3.33,3.75.37.41.33,1.05-.09,1.41-.19.17-.43.25-.66.25h0Zm-6.68-7.47c-.27,0-.54-.11-.74-.32-.76-.83-1.41-1.53-1.91-2.04-.41-.43-.93-.85-1.53-1.27-.45-.31-.57-.94-.25-1.39.31-.45.94-.57,1.39-.25.71.49,1.32,1,1.82,1.52.51.52,1.18,1.24,1.95,2.08.37.41.35,1.04-.06,1.41-.19.18-.43.26-.68.26h0Zm-31.16-2.79c-.32,0-.64-.16-.83-.45-.31-.46-.18-1.08.28-1.39,1.21-.81,2.48-1.52,3.76-2.12.5-.23,1.1-.02,1.33.48.23.5.02,1.1-.48,1.33-1.19.56-2.37,1.22-3.5,1.97-.17.11-.36.17-.55.17h0Zm23.1-2.92c-.11,0-.23-.02-.34-.06-1.48-.54-3.04-.94-4.64-1.18-.55-.08-.92-.59-.84-1.14.08-.55.59-.92,1.14-.84,1.73.26,3.43.69,5.03,1.28.52.19.79.76.6,1.28-.15.41-.53.66-.94.66h0Zm-14.76-.79c-.45,0-.86-.31-.97-.76-.13-.54.2-1.08.73-1.21,1.68-.41,3.41-.66,5.14-.74.55-.02,1.02.4,1.04.96s-.4,1.02-.96,1.04c-1.6.07-3.2.3-4.75.68-.08.02-.16.03-.24.03h0Z"/><path d="m272.16,453c-.27,0-.54-.11-.74-.33-.37-.41-.34-1.04.07-1.41l3.71-3.36c.41-.37,1.04-.34,1.41.07.37.41.34,1.04-.07,1.41l-3.71,3.36c-.19.17-.43.26-.67.26h0Zm7.41-6.71c-.27,0-.54-.11-.74-.33-.37-.41-.34-1.04.07-1.41l3.71-3.36c.41-.37,1.04-.34,1.41.07.37.41.34,1.04-.07,1.41l-3.71,3.36c-.19.17-.43.26-.67.26h0Zm7.41-6.71c-.27,0-.54-.11-.74-.33-.37-.41-.34-1.04.07-1.41l1.02-.93c.41-.37,1.04-.34,1.41.07.37.41.34,1.04-.07,1.41l-1.02.93c-.19.17-.43.26-.67.26h0Z"/><path d="m256.35,459.55c-.26,0-.53-.1-.73-.31-.38-.4-.36-1.03.04-1.41l3.63-3.44c.4-.38,1.03-.36,1.41.04.38.4.36,1.03-.04,1.41l-3.63,3.44c-.19.18-.44.27-.69.27h0Zm7.26-6.88c-.26,0-.53-.1-.73-.31-.38-.4-.36-1.03.04-1.41l3.63-3.44c.4-.38,1.03-.36,1.41.04.38.4.36,1.03-.04,1.41l-3.63,3.44c-.19.18-.44.27-.69.27h0Z"/><path class="uuid-972b44f8-7928-4282-90a9-33bf7ef45a6e" d="m357.23,425.79c-4.86-5.22-9.35-8.05-17.88-3.63"/><line class="uuid-972b44f8-7928-4282-90a9-33bf7ef45a6e" x1="373.7" y1="389.11" x2="389.02" y2="405.66"/></g><path d="m236.76,369.41l-24.81,36.89c-6.13-4.65-8.2-5.86-6.62-10.11-.38-.43,31.43-26.78,31.43-26.78h0Z"/></g><g><path class="uuid-91a62cc3-fbc7-40d9-83eb-dda2d4a80b74" d="m214.11,345.7c-8.05,5.83-25.34,20.79-35.52,29.67-1.67,1.45-2.82,3.41-3.39,5.55-1.27,4.72-2.91,11.08-4.41,16.99l31.84,7.91,1.71-6.39c.51-2.2,1.74-4.16,3.49-5.59l29.38-24.3"/><path class="uuid-91a62cc3-fbc7-40d9-83eb-dda2d4a80b74" d="m170.94,388.98c12.6-1.64,26.56,4.52,34.21,8.35,2.94,1.47,4.47,4.76,3.71,7.96l-1.81,7.63c-.4,1.66-1.64,3-3.27,3.51l-4.34,1.36,1.21-4.6s-15.34-11.14-31.83-8.58l-1,4.1-2.83-2.06c-1.59-1.16-2.33-3.17-1.86-5.09l1.78-7.25c.7-2.86,3.11-4.96,6.03-5.34h0Z"/></g></g></g></svg>
<svg id="uuid-d89b1a3b-1abc-4239-8dc4-47b8ed987a23" data-name="BODY" xmlns="http://www.w3.org/2000/svg" viewBox="0 0 600 600"><defs><style>
      .uuid-c5c1942b-919f-4361-a538-7c7e7cf852f0 {
        fill: #7aa6ff;
      }

      .uuid-c5c1942b-919f-4361-a538-7c7e7cf852f0, .uuid-e2f7ad43-e6dd-4758-93ba-680831edc001, .uuid-56ad82ea-d48e-4308-a763-e34c42640525 {
        stroke: #000;
        stroke-linecap: round;
        stroke-linejoin: round;
      }

      .uuid-c5c1942b-919f-4361-a538-7c7e7cf852f0, .uuid-56ad82ea-d48e-4308-a763-e34c42640525 {
        stroke-width: 2px;
      }

      .uuid-e2f7ad43-e6dd-4758-93ba-680831edc001 {
        stroke-width: 2px;
      }

      .uuid-e2f7ad43-e6dd-4758-93ba-680831edc001, .uuid-56ad82ea-d48e-4308-a763-e34c42640525 {
        fill: #ff78d8;
      }
    </style></defs><g id="uuid-333657bb-b618-45a7-b183-dcd3ce45fb5d" data-name="uuid-2b0117f1-1776-4845-a0f5-c237a6ca9f96"><g id="uuid-04b458af-e80e-46bd-b30a-189016c9a742" data-name="uuid-0881513b-7c8c-44a0-be29-2e98fb16f773"><g id="uuid-16e95431-6b51-4de0-bde5-963b33635208" data-name="uuid-4ea92ad2-89cb-4935-9ee1-ea64959099a6"><g><path class="uuid-c5c1942b-919f-4361-a538-7c7e7cf852f0" d="m505.78,307.9s-4.59-35.13-27.13-66.82-85.23-42.92-85.23-42.92l-6.19-5.32s71.3,10.02,95.45,45.45c24.73,36.26,27.59,68.56,27.59,68.56l-4.5,1.04h0Z"/><path class="uuid-56ad82ea-d48e-4308-a763-e34c42640525" d="m520.68,366.22h0c.19,3.16-2.22,5.88-5.38,6.07l-.42.03c-3.16.19-5.88-2.22-6.07-5.38h0c-.19-3.16,2.22-5.88,5.38-6.07"/><g><path class="uuid-56ad82ea-d48e-4308-a763-e34c42640525" d="m209.79,442.76l-10.47-3.08h0c-2.15,1.3-3.42,3.25-4.07,4.89-.65,1.64-1.36,4.56-1.31,5.93l12.49,3.67c3.15.93,6.46-.88,7.38-4.03.93-3.15-.88-6.46-4.03-7.38Z"/><path class="uuid-56ad82ea-d48e-4308-a763-e34c42640525" d="m155.06,426.69c-3-.62-6.02,1.15-6.9,4.14-.93,3.15.88,6.46,4.03,7.38.65-2.81,1.99-9.48,2.87-11.53Z"/><path class="uuid-e2f7ad43-e6dd-4758-93ba-680831edc001" d="m202.75,447.11l.12-.41c.89-3.04,4.08-4.78,7.12-3.88h0c3.04.89,4.78,4.08,3.88,7.12l-.12.41c-.89,3.04-4.08,4.78-7.12,3.88h0c-3.04-.89-4.78-4.08-3.88-7.12Z"/></g><path class="uuid-c5c1942b-919f-4361-a538-7c7e7cf852f0" d="m174.51,242.11c-21.63,3.45-53.44-10.17-83.85-12-31.14-1.87-60.79,11.08-40.28,52.1,20.51,41.02,59.59,52.7,114.24,56.6,54.65,3.89,97.92,20.21,101.66,58.84,3.74,38.63-34.37,58.11-57.97,52.98-2.92-.63-2.05-4.33.9-3.83,10.1,1.72,47.12-2.23,52.61-38.59,5.49-36.37-29.45-61.17-96.95-65.11s-99.59-20.44-119.06-59.62c-17.82-35.86-2.26-59.81,45.89-58.16,23.43.8,48.13,11.53,84.9,12.48l-2.09,4.32h0Z"/><g><path class="uuid-56ad82ea-d48e-4308-a763-e34c42640525" d="m502.55,311.9s.07.03.11.05c2.71,1.34,4.95,4.09,4.95,4.09,0,0,3.47-4.64,6.71-5.9h0l-.07-.61c-.37-3.26-3.32-5.61-6.58-5.24-3.26.37-5.61,3.32-5.24,6.58l.12,1.04Z"/><path class="uuid-56ad82ea-d48e-4308-a763-e34c42640525" d="m520.35,363.24c-6.52-1.27-10.5-5.36-10.34-10.27.17-5.32,6.11-8.75,6.11-8.75,0,0-3.24-1.27-4.24-5.03-1.42-5.33,2.68-9.46,2.68-9.46-4.23-.67-6.25-2.9-6.25-2.9,0,0-1.95,2.45-3.7,3.18l4.2,37.02c.37,3.26,3.32,5.61,6.58,5.24,3.26-.37,5.61-3.32,5.24-6.58l-.28-2.46Z"/></g></g></g></g></g></svg>
</svg>