<?xml version="1.0" encoding="UTF-8"?>
<svg xmlns="http://www.w3.org/2000/svg" viewBox="0 0 600 600">
<svg id="uuid-2ebc4e2e-813a-485c-9454-52c68b62da26" data-name="BACKGROUND" xmlns="http://www.w3.org/2000/svg" viewBox="0 0 600 600"><defs><style>
      .uuid-eb841eac-0e7b-47b1-8e78-e5724f1a9b43 {
        fill: #ffff0d;
      }
    </style></defs><rect class="uuid-eb841eac-0e7b-47b1-8e78-e5724f1a9b43" x="-1" y="-1" width="602" height="602"/></svg>
<svg id="uuid-9648c3a5-85bf-4111-b836-4f12d2846ea0" data-name="BODY" xmlns="http://www.w3.org/2000/svg" viewBox="0 0 600 600"><defs><style>
      .uuid-72b44662-bf92-45d6-ac71-8c8630eb5da1, .uuid-b37a1837-e78f-4ad9-8af6-f6160b19a96e, .uuid-b7e08078-eff0-49e0-882e-e19f6b9f0e51, .uuid-4887485d-8263-4dc3-866a-1e0074c49d38, .uuid-77a72000-cc0e-4046-a327-32f7083bfbd5 {
        stroke: #000;
        stroke-width: 2px;
      }

      .uuid-72b44662-bf92-45d6-ac71-8c8630eb5da1, .uuid-b37a1837-e78f-4ad9-8af6-f6160b19a96e, .uuid-4887485d-8263-4dc3-866a-1e0074c49d38, .uuid-77a72000-cc0e-4046-a327-32f7083bfbd5 {
        fill: #8400ff;
      }

      .uuid-72b44662-bf92-45d6-ac71-8c8630eb5da1, .uuid-b7e08078-eff0-49e0-882e-e19f6b9f0e51, .uuid-4887485d-8263-4dc3-866a-1e0074c49d38 {
        stroke-linecap: round;
      }

      .uuid-72b44662-bf92-45d6-ac71-8c8630eb5da1, .uuid-b7e08078-eff0-49e0-882e-e19f6b9f0e51, .uuid-77a72000-cc0e-4046-a327-32f7083bfbd5 {
        stroke-linejoin: round;
      }

      .uuid-a929d959-1aea-4f08-932c-c12aa89aeb8b {
        fill: #fff;
      }

      .uuid-b37a1837-e78f-4ad9-8af6-f6160b19a96e, .uuid-4887485d-8263-4dc3-866a-1e0074c49d38 {
        stroke-miterlimit: 10;
      }

      .uuid-b7e08078-eff0-49e0-882e-e19f6b9f0e51 {
        fill: none;
      }
    </style></defs><ellipse cx="300" cy="518.65" rx="138.6" ry="22.93"/><g><path class="uuid-b37a1837-e78f-4ad9-8af6-f6160b19a96e" d="m319.36,427.14c-1.16,1.05-54.95,57-54.95,57,0,0,21.51-1.95,31.74,10.62,10.23,12.57,7.26,23.89,7.26,23.89h-66.9s-28.69-36.17-28.69-36.17c0,0,3.74-13.4,20.44-10.59,20.9-19.38,55.52-59.13,55.52-59.13l35.59,14.38Z"/><path d="m283.78,412.76l31.28,12.64-3.24,9.5c-2.93,3.03-9.76,10.12-13.64,14.14-11.92,0-27.98-2.13-41.33-6.37,13.95-15.1,26.93-29.92,26.93-29.92Z"/></g><g><path class="uuid-72b44662-bf92-45d6-ac71-8c8630eb5da1" d="m409.81,359.6c9.2,3.77,29.89,12.05,42.79,16.03,2.11.65,4.41.69,6.5-.04,11.79-4.08,28.47-11.39,33.03-11.32,5.25.08,7.8,3.93,19.88,2.04,13.36-2.1,22.43-11.99,20.93-23.3-4.21-43.28-25.18-26.79-25.18-26.79,0,0-5.84-8.75-18.76-4.82-11.83,3.6-10.2,14.44-6.47,22.47l-25.29,8.58c-2.14.72-4.45.71-6.59-.02l-35.7-12.61"/><path class="uuid-4887485d-8263-4dc3-866a-1e0074c49d38" d="m533.36,312.82c2.5,3.94,1.62,9.14-1.57,12.4-2.47,2.53-5.88,3.88-9.32,4.4-2.8.43-5.7.42-8.49-.08-2.14-.39-4.29-1.1-5.79-2.75-1.66-1.83-2.27-4.46-1.98-6.87.51-4.17,3.84-7.14,7.22-9.26,3.17-1.98,6.86-3.26,10.64-3.09,3.8.18,7.36,2.19,9.3,5.24Z"/><path class="uuid-4887485d-8263-4dc3-866a-1e0074c49d38" d="m538.57,349.84c.97,3.03.32,6.43-1.5,9.01-3.77,5.33-11.17,5.65-16.96,4.27-3.31-.79-6.69-2.21-8.67-5.13-3.13-4.61-.82-9.79,3.48-12.56,2.58-1.66,5.61-2.67,8.63-3.14,5.73-.89,13.1,1.51,15.03,7.56Z"/><path class="uuid-4887485d-8263-4dc3-866a-1e0074c49d38" d="m538.71,328.53c1.8,2.99,2.06,6.89.22,9.9-1.95,3.2-4.94,5.25-8.49,6.28-3.66,1.07-7.64,1.27-11.4.44-2.25-.5-4.53-1.38-5.96-3.28-1.86-2.47-1.89-5.68-.85-8.49,1.2-3.24,4.17-5.69,7.09-7.37,6.15-3.56,15.21-4.43,19.39,2.52Z"/><path class="uuid-4887485d-8263-4dc3-866a-1e0074c49d38" d="m501.85,311.68s9.27,3.84,7.77,12.02c-1.04,5.68-8.17,9.55-14.94,6.13"/><path class="uuid-b7e08078-eff0-49e0-882e-e19f6b9f0e51" d="m500.67,331.08c2.41,1.63,5.11,8.04,3.4,14.42"/><path d="m443.44,339.88c-2.88,10.58-6.94,20.23-11.17,28.59-10.17-3.78-21.16-9.53-27-11.93l11.83-26.02,26.35,9.36Z"/></g><g><circle class="uuid-b37a1837-e78f-4ad9-8af6-f6160b19a96e" cx="300" cy="300" r="138.16"/><path class="uuid-a929d959-1aea-4f08-932c-c12aa89aeb8b" d="m184.58,308.17c-4.41,0-7.98-3.57-7.98-7.98,0-67.74,55.11-122.86,122.86-122.86,4.41,0,7.98,3.57,7.98,7.98s-3.57,7.98-7.98,7.98c-58.94,0-106.9,47.95-106.9,106.9,0,4.41-3.57,7.98-7.98,7.98Z"/></g><path class="uuid-b7e08078-eff0-49e0-882e-e19f6b9f0e51" d="m264.41,484.14c-4.06.49-11.49,1.36-17.85,7.23"/><path class="uuid-a929d959-1aea-4f08-932c-c12aa89aeb8b" d="m185.17,308.14c-4.41,0-7.98-3.57-7.98-7.98,0-67.74,55.11-122.86,122.86-122.86,4.41,0,7.98,3.57,7.98,7.98s-3.57,7.98-7.98,7.98c-58.94,0-106.9,47.95-106.9,106.9,0,4.41-3.57,7.98-7.98,7.98Z"/><path d="m203.75,397.46l34.2-27.46-24.86,36.3c-6.73-5.1-3.66-2.61-9.34-8.83Z"/><path class="uuid-77a72000-cc0e-4046-a327-32f7083bfbd5" d="m323.72,387.31c19.14-13.4,39.15-11.3,55.52,7.36,19.6,22.35,30.57,33.06,30.57,33.06,0,0,10.74-19.34,34.77-17.5,18.26,1.4,24.84,14.43,24.84,14.43,0,0,6.21,8.82-22.45,33.5-28.66,24.68-54.93,40.92-61.14,29.46-6.21-11.46-2.82-32.1-2.82-32.1,0,0-22.02-26.09-27.94-32.01-6.79-6.79-15.71-1.36-15.71-1.36"/><path class="uuid-b37a1837-e78f-4ad9-8af6-f6160b19a96e" d="m446.97,458.17c-25.89,22.29-49.82,37.69-58.79,32.02-9.77-7.44,26.84-38.54,44.88-52.7,18.04-14.16,32.17-17.82,36.36-12.81,0,0,6.21,8.82-22.45,33.5Z"/><path class="uuid-b7e08078-eff0-49e0-882e-e19f6b9f0e51" d="m409.81,427.74c-1.89,2.86-4.55,10.38-4.55,10.38"/><g><path class="uuid-72b44662-bf92-45d6-ac71-8c8630eb5da1" d="m214.11,345.7c-8.05,5.83-25.34,20.79-35.52,29.67-1.67,1.45-2.82,3.41-3.39,5.55-3.14,11.67-8.55,33.44-8.55,33.44,0,0-8.42.58-12.19,14.35-3.64,13.3-6.64,25.06,3.77,29.75.35,7.47,7.51,15.45,19.2,9.41.14-.06,1.32,1.32,1.44,1.45,2.64,2.7,6.36,4.45,10.13,4.81,3.65.36,7.61-.67,10.43-3.08,3.29-2.81,5.4-6.94,6.05-11.2.4-2.61.26-5.31-.75-7.78,0,0,6.2-2.51,8.05-11.34,1.99-9.49-4.22-19.42-14.62-18.18l6.17-23.11c.51-2.2,1.74-4.16,3.49-5.59l29.38-24.3"/><path class="uuid-b7e08078-eff0-49e0-882e-e19f6b9f0e51" d="m204.73,452.06c-1.37-3.47-5.39-7.08-9-6.88"/><path class="uuid-b7e08078-eff0-49e0-882e-e19f6b9f0e51" d="m178.86,469.3c-5.16-5.27-3.82-11.97-2.9-13.54"/><path class="uuid-b7e08078-eff0-49e0-882e-e19f6b9f0e51" d="m158.22,458.45c-.27-5.22.73-7.32,3.06-9.83"/><path class="uuid-b7e08078-eff0-49e0-882e-e19f6b9f0e51" d="m193.93,450.63c.14-2.07.48-4.16,1.32-6.06.85-1.95,2.36-3.88,4.31-4.85"/></g></svg>
<svg id="uuid-783ed389-68eb-43cd-8772-5f49b9e71529" data-name="BODY" xmlns="http://www.w3.org/2000/svg" viewBox="0 0 600 600"><defs><style>
      .uuid-f7dbff45-408d-444d-ade6-4633d32cb1f2 {
        fill: none;
        stroke: #000;
        stroke-linecap: round;
        stroke-linejoin: round;
        stroke-width: 4px;
      }
    </style></defs><g id="uuid-4bc92f06-c84b-4f7f-af09-c2014f1ce8f9" data-name="mouth"><path d="m371.37,289.99c1.76,5.11-.95,10.68-6.06,12.44s-10.68-.95-12.44-6.06l18.49-6.38Z"/></g><g id="uuid-285df2d9-fba6-4a75-9123-94e1b459206d" data-name="eye L"><path class="uuid-f7dbff45-408d-444d-ade6-4633d32cb1f2" d="m346.88,270.76c1.76,5.11-.95,10.68-6.06,12.44s-10.68-.95-12.44-6.06"/></g><g id="uuid-a97f4a4e-8c90-4af2-892b-9ce222650c5a" data-name="eye R"><path class="uuid-f7dbff45-408d-444d-ade6-4633d32cb1f2" d="m378.79,259.75c1.76,5.11-.95,10.68-6.06,12.44-5.11,1.76-10.68-.95-12.44-6.06"/></g></svg>
<svg id="uuid-3d4b76ab-6c40-4db0-80a5-58215603a36a" data-name="BODY" xmlns="http://www.w3.org/2000/svg" viewBox="0 0 600 600"><defs><style>
      .uuid-b4ff5219-4456-479b-a4e6-3ec362204d57 {
        fill: #a07bff;
        stroke: #000;
        stroke-linecap: round;
        stroke-linejoin: round;
        stroke-width: 2px;
      }
    </style></defs><g id="uuid-24effac1-cb0a-4458-9f3b-3056f57ead23" data-name="uuid-1f78a3be-5fce-4020-89b4-7aa51f9e5b9c"><g id="uuid-ab39dc42-38f5-4a02-adb5-d02219b918d3" data-name="uuid-969c81b9-1e0e-41b0-9d6d-316f0948a7ae"><g id="uuid-e07eced2-eb92-4c3e-bc2f-47523d25c769" data-name="uuid-69f00393-7ebc-4c63-be88-21f81d4c3cd4"><g><g><g><path class="uuid-b4ff5219-4456-479b-a4e6-3ec362204d57" d="m252.95,512.53s-.13-19.98,20.94-31.34c3.45,0,6.66.45,9.62,1.27,2.65-2.1,6.05-.47,6.01,2.35,10.51,5.43,16.48,16.22,16.48,27.26l-53.04.45h0Z"/><g><path class="uuid-b4ff5219-4456-479b-a4e6-3ec362204d57" d="m271.52,490.69c3.35-3.3,8.28-1.24,7.95,2.97"/><path class="uuid-b4ff5219-4456-479b-a4e6-3ec362204d57" d="m261.12,503.04c2.5-3.99,7.77-3.12,8.42,1.06"/><path class="uuid-b4ff5219-4456-479b-a4e6-3ec362204d57" d="m280.55,505.22c2.5-3.99,7.77-3.12,8.42,1.06"/><path class="uuid-b4ff5219-4456-479b-a4e6-3ec362204d57" d="m293.27,497.89c4.21-2.11,8.26,1.37,6.65,5.27"/><path class="uuid-b4ff5219-4456-479b-a4e6-3ec362204d57" d="m278.79,490.47c3.54-3.1,8.34-.74,7.75,3.44"/></g></g><path class="uuid-b4ff5219-4456-479b-a4e6-3ec362204d57" d="m211.4,475.24l25.74,33.51c.86,1.11,2.18,1.77,3.59,1.77h64.41c2.26,0,4.1,1.83,4.1,4.1v4.55c0,2.26-1.83,4.1-4.1,4.1h-68c-3,0-5.83-1.4-7.64-3.79l-26.99-35.42c-.92-1.2-.93-2.87-.02-4.09l3.5-4.69c1.35-1.8,4.04-1.82,5.41-.04h0Z"/></g><g><g><path class="uuid-b4ff5219-4456-479b-a4e6-3ec362204d57" d="m414.18,446.66s-4.53-21.06,9-36.13c6.68-3.31,14.98-4.7,23.09-3.58,2.95-3.25,7.9-1.53,8.13,2.04,4.57,1.7,8.87,4.35,12.51,8.05,0,0-27.13,5.11-52.73,29.62h0Z"/><g><path class="uuid-b4ff5219-4456-479b-a4e6-3ec362204d57" d="m426.27,415.55c1.73-4.38,7.07-4.49,8.47-.5"/><path class="uuid-b4ff5219-4456-479b-a4e6-3ec362204d57" d="m418.82,431.73c.67-4.66,5.85-6,8.12-2.44"/><path class="uuid-b4ff5219-4456-479b-a4e6-3ec362204d57" d="m446.15,414.02c2.99-3.63,8.11-2.09,8.21,2.13"/><path class="uuid-b4ff5219-4456-479b-a4e6-3ec362204d57" d="m430.79,419.07c1.99-4.26,7.33-4.05,8.48.01"/></g></g><path class="uuid-b4ff5219-4456-479b-a4e6-3ec362204d57" d="m468.14,415.89c-2.24-1.13-22.3,0-54.12,28.18-31.82,28.18-34.52,37.14-33.85,41.63.52,3.51,3.2,9.54,12.81,9.64,9.61.1,27.32-9.56,50.22-28.75,31.08-26.04,31.18-37.38,31.08-41.12-.1-3.74-2.87-7.92-6.13-9.57h0Z"/><path class="uuid-b4ff5219-4456-479b-a4e6-3ec362204d57" d="m466.23,426.09c-7.45-6.64-85.34,55.53-74.28,61.26,11.06,5.73,82.61-53.84,74.28-61.26h0Z"/></g></g></g></g></g></svg>
<svg id="uuid-1814dd4d-896f-43a9-8cc5-9df7690e94a2" data-name="BACKGROUND" xmlns="http://www.w3.org/2000/svg" viewBox="0 0 600 600"><defs><style>
      .uuid-3be35196-23eb-415c-bbdf-01577589215b {
        fill: #ffff0d;
        stroke: #000;
        stroke-linecap: round;
        stroke-linejoin: round;
        stroke-width: 2px;
      }
    </style></defs><path class="uuid-3be35196-23eb-415c-bbdf-01577589215b" d="m375.86,319.37c-14.26,7.96-19.36,25.98-11.4,40.24,7.96,14.26,25.98,19.36,40.24,11.4,14.26-7.96,19.36-25.98,11.4-40.24-7.96-14.26-25.98-19.36-40.24-11.4Zm-.03,6.32l10.52,18.84-6.41,22.61c-4.44-2.08-8.29-5.52-10.86-10.12-6.02-10.78-2.93-24.18,6.75-31.33Zm9.99,43.35l4.79-16.89,8.69,15.57c-4.39,1.76-9.06,2.15-13.48,1.32Zm18.87-4.32l-8.9-15.94,17.51,4.1c-1.55,4.62-4.47,8.8-8.6,11.84Zm9.8-17.89l-22.77-5.34-10.5-18.81c11.18-4.52,24.23-.12,30.26,10.68,2.38,4.26,3.33,8.94,3.02,13.47Z"/><circle class="uuid-3be35196-23eb-415c-bbdf-01577589215b" cx="420.18" cy="318.72" r="8.31"/><circle class="uuid-3be35196-23eb-415c-bbdf-01577589215b" cx="436.89" cy="310.38" r="8.31"/><circle class="uuid-3be35196-23eb-415c-bbdf-01577589215b" cx="350.39" cy="343.04" r="8.31"/><circle class="uuid-3be35196-23eb-415c-bbdf-01577589215b" cx="332" cy="346.35" r="8.31"/><circle class="uuid-3be35196-23eb-415c-bbdf-01577589215b" cx="313.56" cy="349.17" r="8.31"/><circle class="uuid-3be35196-23eb-415c-bbdf-01577589215b" cx="295.1" cy="351.34" r="8.31"/><circle class="uuid-3be35196-23eb-415c-bbdf-01577589215b" cx="276.49" cy="352.43" r="8.31"/><circle class="uuid-3be35196-23eb-415c-bbdf-01577589215b" cx="257.85" cy="352.14" r="8.31"/><circle class="uuid-3be35196-23eb-415c-bbdf-01577589215b" cx="239.26" cy="352.14" r="8.31"/><circle class="uuid-3be35196-23eb-415c-bbdf-01577589215b" cx="220.83" cy="349.72" r="8.31"/><circle class="uuid-3be35196-23eb-415c-bbdf-01577589215b" cx="202.35" cy="347.91" r="8.31"/><circle class="uuid-3be35196-23eb-415c-bbdf-01577589215b" cx="184.1" cy="344.29" r="8.31"/><circle class="uuid-3be35196-23eb-415c-bbdf-01577589215b" cx="165.96" cy="340.27" r="8.31"/></svg>
<svg id="uuid-55ecc028-236b-4107-a473-b463f673f86d" data-name="BODY" xmlns="http://www.w3.org/2000/svg" xmlns:xlink="http://www.w3.org/1999/xlink" viewBox="0 0 600 600"><defs><style>
      .uuid-f7cf47f1-387c-40c0-8451-efa3e1f48bb3, .uuid-6ab753ec-842d-4635-8bda-4f11118cf21d, .uuid-e45dda09-b6fd-469a-8eb9-5847bc51013b, .uuid-b4015b0b-b5a2-4504-ab5f-b3dc7c0f0bea, .uuid-b1a063f9-d398-49ac-8717-dedd55fd17c7 {
        fill: none;
      }

      .uuid-6ab753ec-842d-4635-8bda-4f11118cf21d {
        clip-path: url(#uuid-cd30974c-211b-420c-b621-0d4b41918d4b);
      }

      .uuid-e45dda09-b6fd-469a-8eb9-5847bc51013b {
        clip-path: url(#uuid-0ad76e5b-fc91-46c9-818d-ed4d146208f8);
      }

      .uuid-8a193521-0ef5-4407-9ee8-bb4ebcd57992, .uuid-acba282c-cbdd-4fe6-aee3-1b2aaa578edb, .uuid-d76bb13e-79ef-4d22-868e-758f3fc81ba4, .uuid-7ca8cd12-c4ef-474d-b7e8-9ac616bc8090, .uuid-53cbd553-6925-4261-892e-503624ed011f, .uuid-8318a3fb-8d6a-4db7-b071-a15a473496d3, .uuid-93feedb8-91e3-42a2-bd0a-197c246fdb2b, .uuid-aa1376c1-8f7a-4198-be7e-f0dfeb7eba4b, .uuid-b4015b0b-b5a2-4504-ab5f-b3dc7c0f0bea, .uuid-b1a063f9-d398-49ac-8717-dedd55fd17c7 {
        stroke: #000;
        stroke-linecap: round;
        stroke-linejoin: round;
      }

      .uuid-8a193521-0ef5-4407-9ee8-bb4ebcd57992, .uuid-acba282c-cbdd-4fe6-aee3-1b2aaa578edb, .uuid-124c2ab5-3017-4aff-88c5-916403019659 {
        fill: #7aa6ff;
      }

      .uuid-8a193521-0ef5-4407-9ee8-bb4ebcd57992, .uuid-7ca8cd12-c4ef-474d-b7e8-9ac616bc8090, .uuid-53cbd553-6925-4261-892e-503624ed011f, .uuid-93feedb8-91e3-42a2-bd0a-197c246fdb2b, .uuid-b4015b0b-b5a2-4504-ab5f-b3dc7c0f0bea {
        stroke-width: 2px;
      }

      .uuid-acba282c-cbdd-4fe6-aee3-1b2aaa578edb, .uuid-8318a3fb-8d6a-4db7-b071-a15a473496d3, .uuid-aa1376c1-8f7a-4198-be7e-f0dfeb7eba4b, .uuid-b1a063f9-d398-49ac-8717-dedd55fd17c7 {
        stroke-width: 2px;
      }

      .uuid-d76bb13e-79ef-4d22-868e-758f3fc81ba4 {
        stroke-width: 2px;
      }

      .uuid-d76bb13e-79ef-4d22-868e-758f3fc81ba4, .uuid-7ca8cd12-c4ef-474d-b7e8-9ac616bc8090 {
        fill: #8400ff;
      }

      .uuid-66f64252-28db-40bd-8f2c-f28f22893256 {
        fill: #fff7f0;
      }

      .uuid-53cbd553-6925-4261-892e-503624ed011f, .uuid-8318a3fb-8d6a-4db7-b071-a15a473496d3 {
        fill: #a07bff;
      }

      .uuid-93feedb8-91e3-42a2-bd0a-197c246fdb2b, .uuid-aa1376c1-8f7a-4198-be7e-f0dfeb7eba4b {
        fill: #00dfa9;
      }
    </style><clipPath id="uuid-0ad76e5b-fc91-46c9-818d-ed4d146208f8"><rect class="uuid-f7cf47f1-387c-40c0-8451-efa3e1f48bb3" x="16.46" y="333.04" width="288" height="266.96"/></clipPath><clipPath id="uuid-cd30974c-211b-420c-b621-0d4b41918d4b"><rect class="uuid-f7cf47f1-387c-40c0-8451-efa3e1f48bb3" x="184.41" y="448.21" width="13.5" height="71.81" transform="translate(-328.3 516.71) rotate(-72.04)"/></clipPath></defs><g id="uuid-c271d4e6-0ed9-43ec-a6eb-586182258769" data-name="uuid-aa1a3761-725c-4c6a-bb08-3b927dabb1b6"><g class="uuid-e45dda09-b6fd-469a-8eb9-5847bc51013b"><g><g><polygon class="uuid-8a193521-0ef5-4407-9ee8-bb4ebcd57992" points="91.61 442.3 86.94 440.79 114.36 362.08 115.56 362.47 91.61 442.3"/><circle class="uuid-8a193521-0ef5-4407-9ee8-bb4ebcd57992" cx="114.96" cy="362.27" r="3.66"/></g><g><path class="uuid-53cbd553-6925-4261-892e-503624ed011f" d="m250.78,490.94l-162.48-40.18c-2.64-.86-5.48.59-6.33,3.23l-6.05,18.67c-.86,2.64.59,5.48,3.23,6.33l168.95,54.76c2.64.86,5.48-.59,6.33-3.23l6.05-18.67c.45-1.38.27-2.81-.38-3.98-.6-1.08-8.05-16.51-9.32-16.92h0Z"/><path class="uuid-aa1376c1-8f7a-4198-be7e-f0dfeb7eba4b" d="m80.92,435.35l167.79,54.38c2.96.96,4.58,4.14,3.62,7.1l-7.41,22.87-178.52-57.86,7.41-22.87c.96-2.96,4.14-4.58,7.1-3.62Z"/><g><polygon class="uuid-53cbd553-6925-4261-892e-503624ed011f" points="144.41 476.06 94.59 459.91 105.57 449.28 155.39 465.42 144.41 476.06"/><g><line class="uuid-b4015b0b-b5a2-4504-ab5f-b3dc7c0f0bea" x1="126.49" y1="470.25" x2="137.47" y2="459.61"/><line class="uuid-b4015b0b-b5a2-4504-ab5f-b3dc7c0f0bea" x1="119.33" y1="467.93" x2="130.31" y2="457.3"/><line class="uuid-b4015b0b-b5a2-4504-ab5f-b3dc7c0f0bea" x1="112.52" y1="465.72" x2="123.5" y2="455.09"/></g></g><g><rect class="uuid-124c2ab5-3017-4aff-88c5-916403019659" x="184.41" y="448.21" width="13.5" height="71.81" transform="translate(-328.3 516.71) rotate(-72.04)"/><g class="uuid-6ab753ec-842d-4635-8bda-4f11118cf21d"><g><polygon class="uuid-66f64252-28db-40bd-8f2c-f28f22893256" points="210.04 497.33 194.4 492.26 205.38 481.62 221.02 486.69 210.04 497.33"/><polygon class="uuid-66f64252-28db-40bd-8f2c-f28f22893256" points="187.58 490.05 179.76 487.51 190.74 476.88 198.56 479.41 187.58 490.05"/><polygon class="uuid-66f64252-28db-40bd-8f2c-f28f22893256" points="165.85 483 161.25 481.51 172.23 470.88 176.83 472.37 165.85 483"/></g></g><rect class="uuid-b1a063f9-d398-49ac-8717-dedd55fd17c7" x="184.41" y="448.21" width="13.5" height="71.81" transform="translate(-328.3 516.71) rotate(-72.04)"/></g><g><line class="uuid-b4015b0b-b5a2-4504-ab5f-b3dc7c0f0bea" x1="78.63" y1="440.55" x2="93.51" y2="445.37"/><line class="uuid-b4015b0b-b5a2-4504-ab5f-b3dc7c0f0bea" x1="74.47" y1="453.39" x2="89.35" y2="458.21"/><line class="uuid-b4015b0b-b5a2-4504-ab5f-b3dc7c0f0bea" x1="76.55" y1="446.97" x2="91.43" y2="451.79"/></g><g><line class="uuid-b4015b0b-b5a2-4504-ab5f-b3dc7c0f0bea" x1="232.2" y1="490.32" x2="247.07" y2="495.14"/><line class="uuid-b4015b0b-b5a2-4504-ab5f-b3dc7c0f0bea" x1="228.03" y1="503.16" x2="242.91" y2="507.98"/><line class="uuid-b4015b0b-b5a2-4504-ab5f-b3dc7c0f0bea" x1="230.12" y1="496.74" x2="244.99" y2="501.56"/></g></g><g><path class="uuid-7ca8cd12-c4ef-474d-b7e8-9ac616bc8090" d="m232.92,608.52l-188.32-61.03c-.83-.27-1.47-.85-1.83-1.56s-6.8-12.03-6.53-12.86l30.07-62.74c.54-1.65,2.31-2.56,3.96-2.02l183.3,49.39c.76.25,6.38,12.41,6.76,13.05.44.75.57,1.67.28,2.56l-23.72,73.19c-.54,1.65-2.31,2.56-3.96,2.02h0Z"/><rect class="uuid-8318a3fb-8d6a-4db7-b071-a15a473496d3" x="103.55" y="423.69" width="83.23" height="204.26" rx="3.15" ry="3.15" transform="translate(-399.79 501.8) rotate(-72.04)"/><line class="uuid-b4015b0b-b5a2-4504-ab5f-b3dc7c0f0bea" x1="235.39" y1="608.29" x2="228.96" y2="595.7"/></g><g><circle class="uuid-8a193521-0ef5-4407-9ee8-bb4ebcd57992" cx="85.25" cy="506.4" r="31.66"/><circle class="uuid-93feedb8-91e3-42a2-bd0a-197c246fdb2b" cx="85.25" cy="506.4" r="24.87"/><circle class="uuid-b4015b0b-b5a2-4504-ab5f-b3dc7c0f0bea" cx="86.2" cy="506.71" r="19.13"/><circle class="uuid-7ca8cd12-c4ef-474d-b7e8-9ac616bc8090" cx="87.39" cy="507.09" r="6.32"/></g><g><circle class="uuid-8a193521-0ef5-4407-9ee8-bb4ebcd57992" cx="203.53" cy="544.73" r="31.66"/><circle class="uuid-93feedb8-91e3-42a2-bd0a-197c246fdb2b" cx="203.53" cy="544.73" r="24.87"/><circle class="uuid-b4015b0b-b5a2-4504-ab5f-b3dc7c0f0bea" cx="204.48" cy="545.04" r="19.13"/><circle class="uuid-7ca8cd12-c4ef-474d-b7e8-9ac616bc8090" cx="205.67" cy="545.43" r="6.32"/></g><g><g><rect class="uuid-b1a063f9-d398-49ac-8717-dedd55fd17c7" x="148.01" y="499.61" width="7.15" height="12.83" transform="translate(-376.53 494.21) rotate(-72.04)"/><circle class="uuid-b4015b0b-b5a2-4504-ab5f-b3dc7c0f0bea" cx="138.27" cy="501.71" r="3.57"/><circle class="uuid-b4015b0b-b5a2-4504-ab5f-b3dc7c0f0bea" cx="164.89" cy="510.34" r="3.57"/></g><rect class="uuid-b1a063f9-d398-49ac-8717-dedd55fd17c7" x="138.18" y="482.66" width="26.81" height="46.72" rx="3.97" ry="3.97" transform="translate(-376.53 494.21) rotate(-72.04)"/></g><g><polygon class="uuid-7ca8cd12-c4ef-474d-b7e8-9ac616bc8090" points="157.51 563.5 113.06 549.1 109.84 542.79 121.33 523.59 162.56 531.69 165.78 538 157.51 563.5"/><rect class="uuid-acba282c-cbdd-4fe6-aee3-1b2aaa578edb" x="122.8" y="513.88" width="26.81" height="46.72" transform="translate(-416.86 501.17) rotate(-72.04)"/><polyline class="uuid-b4015b0b-b5a2-4504-ab5f-b3dc7c0f0bea" points="127.51 553.78 124.28 547.45 132.54 521.96"/><polyline class="uuid-b4015b0b-b5a2-4504-ab5f-b3dc7c0f0bea" points="142.78 558.73 139.55 552.4 147.81 526.91"/><line class="uuid-b4015b0b-b5a2-4504-ab5f-b3dc7c0f0bea" x1="154.29" y1="557.19" x2="157.51" y2="563.5"/></g><path class="uuid-53cbd553-6925-4261-892e-503624ed011f" d="m245.96,586.54c-.21.07-5.45.56-5.62.5-2.11-.68-.82-10.51,2.89-21.95,3.71-11.44,8.43-20.16,10.54-19.47.1.03,4.15,3.73,4.23,3.8,1.73,1.42-9.72,36.37-12.03,37.12h0Z"/><ellipse class="uuid-d76bb13e-79ef-4d22-868e-758f3fc81ba4" cx="252" cy="567.93" rx="19.46" ry="4.02" transform="translate(-365.96 632.55) rotate(-72.04)"/><g><path class="uuid-53cbd553-6925-4261-892e-503624ed011f" d="m152.45,436.42s.66-2.76,1.4-5.54,1.09-4.12,1.09-4.12c0,0-5.88-2.19-9.8-3.46-3.92-1.27-6.41-1.17-9.39,1.94-2.97,3.11-15.92,22.72-15.92,22.72l15.96,5.17s5.87-11.48,7.58-14.75,3.7-3.7,9.07-1.96h0Z"/><path class="uuid-7ca8cd12-c4ef-474d-b7e8-9ac616bc8090" d="m152.45,436.42s.5-2.1,1.12-4.48c-2.12-.62-4.79-1.37-5.52-1.61-2.23-.72-4.92-2.05-9.31,5.29-3.09,5.15-7.16,11.9-9.31,15.45h0l6.37,2.06s5.87-11.48,7.58-14.75c1.71-3.27,3.7-3.7,9.07-1.96Z"/></g><g><path class="uuid-53cbd553-6925-4261-892e-503624ed011f" d="m194.13,449.15s.25-2.82,1.22-4.81c1.13-2.3,2.73-3.64,2.73-3.64,0,0,24.75,7.78,28.66,9.04,3.92,1.27,5.88,2.81,6.46,7.08s-.43,27.74-.43,27.74l-15.96-5.17s1.99-12.74,2.51-16.4c.24-1.66.18-2.89-.46-3.9-.31-.49-.76-.93-1.38-1.34-.91-.6-21.63-8.04-23.37-8.61h0Z"/><path class="uuid-7ca8cd12-c4ef-474d-b7e8-9ac616bc8090" d="m233.21,456.83c-.58-4.26-2.55-5.81-6.46-7.08l-1.83-.59c7.01,2.27,2.46,33.66,2.46,33.66l5.4,1.75s1.02-23.47.43-27.74h0Z"/><path class="uuid-7ca8cd12-c4ef-474d-b7e8-9ac616bc8090" d="m218.87,459.1c.39.62.55,1.34.57,2.18.05-2.37-.14-7.25-2.42-7.99-2.34-.76-16.13-5.17-22.32-7.15-.43,1.56-.56,3.02-.56,3.02,1.74.56,22.46,8,23.37,8.61.62.41,1.07.85,1.38,1.34h0Z"/></g></g></g></g></svg>
<svg id="uuid-a434a263-1d52-419b-9f08-c2e050f7b089" data-name="BODY" xmlns="http://www.w3.org/2000/svg" viewBox="0 0 600 600"><defs><style>
      .uuid-3fe757a2-f884-4021-8b90-a2fb836a0d83 {
        fill: #7aa6ff;
      }

      .uuid-3fe757a2-f884-4021-8b90-a2fb836a0d83, .uuid-0535e5fd-e169-42bb-9b3a-04ea61531b11, .uuid-b5b40eee-3492-4a40-8cdf-74f0932ec0ba, .uuid-813fd1ba-5c6f-412d-b3d0-bab0da44157c {
        stroke: #000;
        stroke-linecap: round;
        stroke-linejoin: round;
        stroke-width: 2px;
      }

      .uuid-0535e5fd-e169-42bb-9b3a-04ea61531b11 {
        fill: #ffc9f1;
      }

      .uuid-b5b40eee-3492-4a40-8cdf-74f0932ec0ba {
        fill: none;
      }

      .uuid-813fd1ba-5c6f-412d-b3d0-bab0da44157c {
        fill: #f9a723;
      }
    </style></defs><g id="uuid-4d71603c-b588-4e7e-bdcb-85f6e7a816db" data-name="uuid-e739bccc-2d2c-4a63-b977-7b31664c2716"><g id="uuid-63e5130d-7ae7-4f0d-8331-573e75af8b15" data-name="uuid-af806a75-da6f-4a25-9368-44a11c35c8fd"><g><path class="uuid-3fe757a2-f884-4021-8b90-a2fb836a0d83" d="m494.29,225.3c-2.32-.72-4.21,6.13-13.6,5.3-9.38-.83-9.83-5.81-9.83-5.81,0,0-5.94-3.89-2.62-11.49-1.79-7.91,2.19-10.35,3.32-20.49.45-4.02-4.6-11.68-14.43-22.02s-36.38-40.72-39.7-44.94c.77-3.06,2.78-5.7,2.78-5.7l8.76,8.43-9.24-20.82s2.25-3.06,4.07-3.83c2.68,6.03,18.96,38.92,18.96,38.92l-9.94-38.92,5.94-2.65,2.23,7.34,3.89-1.15-.51-2.68,5.23-2.62-.57-6.13s4.4-3.13,6.83-3.83c-.19,3.26,1.72,14.36,1.72,14.36,0,0,1.34-14.68,1.85-17.62,2.04-.89,7.02-.32,7.02-.32l-1.34,6.77,6.51,1.66-.67-10.88,8.36-.32s1.44,31.05,5.01,44.71c-1.66-19.53-.51-49.28-.51-49.28l9.26,1.53s-.45,6.89-.32,13.28c2.3-.13,5.68-.57,5.68-.57,0,0,.89,9.83,1.28,13.91,1.79-9.7,4.09-16.28,4.09-16.28l7.02,2.62s3.26-8.36,6.89-12.32c2.43,1.91,5.23,4.15,5.23,4.15,0,0-3.19,5.81-4.53,9,2.36,1.02,5.43,2.87,5.43,2.87,0,0,1.28-2.65,2.78-4.12,1.85,1.05,4.15,3.19,4.15,3.19,0,0-5.33,11.39-8.78,23.55,8.04-17.14,17.14-25.66,17.14-25.66l4.6,4.31s-11.87,11.2-22.98,39.35c-11.11,28.15-13.24,43.12-13.63,46.44s8.68,7.79,7.66,17.62c6.45,6.7-.19,13.34-.19,13.34,0,0-2.68,13.28-20.3,7.79h0Z"/><g><path class="uuid-b5b40eee-3492-4a40-8cdf-74f0932ec0ba" d="m482.13,224.79c4.71-1.23,10.45-8.61,9.8-7.79-1.18,1.48,6,2.6,12.21,2.29"/><path class="uuid-b5b40eee-3492-4a40-8cdf-74f0932ec0ba" d="m477.18,211.73s4.95,6.82,15.21,5.21c8.12-1.27,10.2-9,10.2-9"/><path class="uuid-b5b40eee-3492-4a40-8cdf-74f0932ec0ba" d="m508.23,211.03s-9.22,7.59-15.6,7.24-4.79.13-4.79.13c0,0-5.33,2.44-10.27,1.43"/></g><path class="uuid-813fd1ba-5c6f-412d-b3d0-bab0da44157c" d="m485.92,216.91s2.23,6.29,2.49,12.99-.51,23.59,5.14,41.68c5.65,18.1,6,39.32,6,39.32,0,0,4.59,1.38,8.25,4.84,2.54-3.11,5.38-4.92,5.38-4.92,0,0,.25-16.84-4.6-25.52-4.85-8.68-8.23-33.54-8.14-47.43s-.29-17.01-2.49-22.72c-1.28.61-3.86,1.63-6.03,1.85-3.89.4-6-.1-6-.1h0Z"/><path class="uuid-813fd1ba-5c6f-412d-b3d0-bab0da44157c" d="m508.18,326.79s2.21,2.33,6.18,3.14c-5.99,8.88-1.02,12.88,2.29,14.51-6.85,3.78-9.87,14.07,3.82,18.76,3.11,10.72.18,14.84,4.65,27.8s7.15,12.83,8.55,22.34,3.26,18.83,3.64,21.19.96,9.77-8.55,9.77-10.79-4.66-11.3-7.21-.32-17.94-1.6-26.04c-1.28-8.11-4.18-11.04-6.94-25.47-2.76-14.43-1.74-19.28-3.4-27.38s-1.25-18.81-4.85-27.12c5.47-.35,7.52-4.29,7.52-4.29h0Z"/><path class="uuid-b5b40eee-3492-4a40-8cdf-74f0932ec0ba" d="m537.47,435.69c-.61-3.66-4.22-2.37-6.86-.77-6.94,4.21-13.43,2.37-11.31,6.28"/><path class="uuid-b5b40eee-3492-4a40-8cdf-74f0932ec0ba" d="m523.85,443.76c5.23.94,9.61-3.48,9.39-4.75s-6.34,1.51-6.34,1.51"/><path class="uuid-b5b40eee-3492-4a40-8cdf-74f0932ec0ba" d="m531.13,434.62s-2.88-21.15-3.78-25.42c-.89-4.28-6.7-18-6.7-18"/><path class="uuid-b5b40eee-3492-4a40-8cdf-74f0932ec0ba" d="m518.73,385.19c-2.87-10.4-3.06-23.58-3.06-23.58"/><path class="uuid-b5b40eee-3492-4a40-8cdf-74f0932ec0ba" d="m523.85,437.62c-.33-14.06-2.69-29.95-2.69-29.95"/><path class="uuid-b5b40eee-3492-4a40-8cdf-74f0932ec0ba" d="m519.5,400.96c-2.81-8.43-4.98-10.15-7.02-21.83-2.04-11.68-2.23-23.36-2.94-30.83-.7-7.47-2.67-19.17-2.67-19.17"/><path class="uuid-b5b40eee-3492-4a40-8cdf-74f0932ec0ba" d="m503.75,312.45c.33-14.07-4.11-34.08-4.11-34.08"/><path class="uuid-b5b40eee-3492-4a40-8cdf-74f0932ec0ba" d="m505.65,277.64c1.3,12.7,3.81,35.61,3.81,35.61"/><path class="uuid-b5b40eee-3492-4a40-8cdf-74f0932ec0ba" d="m498.15,271c-2.01-9.86-3.73-13.12-4.12-21.26-.35-7.43.56-20.8-2.41-32.72"/><g><path class="uuid-b5b40eee-3492-4a40-8cdf-74f0932ec0ba" d="m440.99,108.62c3.34,13.07,11.99,43.41,16.25,53.29"/><path class="uuid-b5b40eee-3492-4a40-8cdf-74f0932ec0ba" d="m428.97,128.58c4.73,11.1,9.01,19.81,12.02,24.4"/><path class="uuid-b5b40eee-3492-4a40-8cdf-74f0932ec0ba" d="m442.76,142.85c4.42,7.61,13.36,18.27,18.74,24.15,5.39,5.88,15.92,18.49,16.9,21.43.98,2.94-2.94,8.2-2.2,15.67"/><path class="uuid-b5b40eee-3492-4a40-8cdf-74f0932ec0ba" d="m482.93,200.18c-1.96-4.29-.24-15.06-.61-16.53s-19.49-42.63-24.74-77.07"/><path class="uuid-b5b40eee-3492-4a40-8cdf-74f0932ec0ba" d="m465.12,95.41c-2.1,8.11,2.94,28.41,9.31,50.93,6.37,22.52,11.5,38.08,11.5,38.08"/><path class="uuid-b5b40eee-3492-4a40-8cdf-74f0932ec0ba" d="m484.33,130.58c.91,18.43,5.52,49.55,7.29,53.84,1.77,4.3,3.4,2.67,4.44,11.71"/><path class="uuid-b5b40eee-3492-4a40-8cdf-74f0932ec0ba" d="m503.61,201.61c.44-9.78-5.78-15.41-6.52-19.56s-4.68-64.61-4.34-85.94"/><path class="uuid-b5b40eee-3492-4a40-8cdf-74f0932ec0ba" d="m499.71,109.45c-3.36,15.55-5.34,33.4-5.34,33.4"/><path class="uuid-b5b40eee-3492-4a40-8cdf-74f0932ec0ba" d="m510.82,95.79c-6.76,15.29-8.98,41.66-8.54,51.88s-2.57,34.97-2.57,34.97"/><path class="uuid-b5b40eee-3492-4a40-8cdf-74f0932ec0ba" d="m521.99,122.12c-13.19,30.3-19.71,60.52-19.71,60.52"/><path class="uuid-b5b40eee-3492-4a40-8cdf-74f0932ec0ba" d="m523.84,99.49c-9.56,16.47-14.45,41.29-14.45,41.29"/><path class="uuid-b5b40eee-3492-4a40-8cdf-74f0932ec0ba" d="m518.41,96.62c-10.8,24.68-8.44,56.1-12.06,70.04"/><path class="uuid-b5b40eee-3492-4a40-8cdf-74f0932ec0ba" d="m471.63,97.07c1.07,20.23,4.06,54.19,7.75,66.29"/><path class="uuid-b5b40eee-3492-4a40-8cdf-74f0932ec0ba" d="m449.61,102.17c3.9,28.91,18.97,72.4,25.67,81.36"/><path class="uuid-b5b40eee-3492-4a40-8cdf-74f0932ec0ba" d="m444.88,107.47c4.22,17.93,18.31,61.4,18.31,61.4"/><path class="uuid-b5b40eee-3492-4a40-8cdf-74f0932ec0ba" d="m514.58,217.51c-2.72,2.32-5.81,1.7-5.81,1.7"/><path class="uuid-b5b40eee-3492-4a40-8cdf-74f0932ec0ba" d="m470.86,224.79c3.39,2.38,8.02,1.15,8.02,1.15"/><path class="uuid-b5b40eee-3492-4a40-8cdf-74f0932ec0ba" d="m468.24,213.3c.83,3.06,4.92,5.1,4.92,5.1"/><path class="uuid-b5b40eee-3492-4a40-8cdf-74f0932ec0ba" d="m514.78,204.17c-.72,1.71-2.33,3.46-2.33,3.46"/></g><path class="uuid-0535e5fd-e169-42bb-9b3a-04ea61531b11" d="m470.71,197.7s-3.87.25-4.06-4.68c-.19-4.93,2.75-10.33,21.6-12.32,18.86-1.99,23.81,2.18,24.26,5.31.44,3.13-1.69,6.44-1.69,6.44,0,0-3.14-3.27-3.61-5.05-22.88-2.09-32.37,2.81-35.64,5.41,0,0-.25,2.65-.86,4.89h0Z"/></g></g></g></svg>
<svg id="uuid-5aa58eb9-9bc6-4246-98de-131b720bf369" data-name="BACKGROUND" xmlns="http://www.w3.org/2000/svg" xmlns:xlink="http://www.w3.org/1999/xlink" viewBox="0 0 600 600"><defs><style>
      .uuid-6985aa11-eb3f-4542-be5e-f06f163ab65a, .uuid-5d79269c-c705-4c92-bb8d-c7e355f5705c, .uuid-2a46fcf3-d87b-499e-8994-9a2b0673d8f4 {
        fill: none;
      }

      .uuid-97bf1ed2-1a68-4096-ad51-e16721e1321e {
        fill: #8400ff;
      }

      .uuid-97bf1ed2-1a68-4096-ad51-e16721e1321e, .uuid-cb8afc3d-b574-4149-9ebb-d08ea80dfdfd, .uuid-1158b133-ee03-42db-b9a0-a64a151692b9, .uuid-2d1bf830-110e-4ac0-acda-42bab81d5de9, .uuid-5d79269c-c705-4c92-bb8d-c7e355f5705c {
        stroke: #000;
        stroke-linecap: round;
        stroke-linejoin: round;
        stroke-width: 2px;
      }

      .uuid-cb8afc3d-b574-4149-9ebb-d08ea80dfdfd {
        fill: #353434;
      }

      .uuid-85d6e4d8-f77b-4b1d-bcab-475cfb014682 {
        fill: #3ef1ff;
      }

      .uuid-f90b45a5-d844-45d8-a5a5-02f5b3de003f {
        fill: #7aa6ff;
      }

      .uuid-1158b133-ee03-42db-b9a0-a64a151692b9 {
        fill: #a07bff;
      }

      .uuid-2d1bf830-110e-4ac0-acda-42bab81d5de9 {
        fill: #fff7f0;
      }

      .uuid-2a46fcf3-d87b-499e-8994-9a2b0673d8f4 {
        clip-path: url(#uuid-6161bbbb-bf7d-42ee-9eca-ac79318819d2);
      }
    </style><clipPath id="uuid-6161bbbb-bf7d-42ee-9eca-ac79318819d2"><path class="uuid-6985aa11-eb3f-4542-be5e-f06f163ab65a" d="m375.6,186.05c-3.67.37-7.36.83-11.04,1.37-1.16.17-1.77,1.49-1.14,2.49l2.05,3.28-4.85,5.97-40.96,9-1.31-10.32c-28.14,8.26-51.37,18.18-60.09,22.08-2.32,1.04-3.91,3.23-4.19,5.75-2.66,23.72-1.67,49.45-1.15,59.16.13,2.4,1.82,4.44,4.17,4.98,28.18,6.48,66.81,4.95,76.15,4.46,1.37-.07,2.62-.75,3.46-1.83,5.25-6.81,12.72-19.03,17.8-27.6,3.15-5.33,9.95-7.2,15.39-4.24l19.74,10.76c1.91,1.04,4.28.63,5.73-.99,9.99-11.15,18.56-23.84,23.37-31.39-13.65-21.51-34.2-43.68-43.12-52.92h0Z"/></clipPath></defs><g id="uuid-c1f37cab-67de-48fd-b7c5-98f83c88d0d7" data-name="uuid-908dc865-47bc-4301-990e-3d26525beded"><g id="uuid-41f759df-2a39-427c-9fc3-5ca925ac0198" data-name="uuid-845ae38f-23fa-4152-997a-f63073291681"><g id="uuid-0c819a8e-b91b-440c-a085-3351f77862d1" data-name="uuid-94b65ef2-ffe4-4b12-b92b-e951dcaa643d"><g><g><path class="uuid-97bf1ed2-1a68-4096-ad51-e16721e1321e" d="m244.57,212.86l-11.32,8.25c-2.86,2.09-4.69,5.28-5.03,8.81-.62,6.42-1.5,18.09-1.66,33.49-.16,14.85-.18,28.27,1.21,33.53.79,3,3.13,5.34,6.14,6.11,7.64,1.96,26.17,4.67,52.79,6.79,18.99,1.52,36.78,1.45,48.28-3.02,2.98-1.16,6.28-3.72,7.34-4.99,1.84-2.2-88.59-7.07-88.59-7.07l-7.82-59.28-1.36-22.63h0Z"/><line class="uuid-5d79269c-c705-4c92-bb8d-c7e355f5705c" x1="241.84" y1="295.33" x2="230.86" y2="301.57"/><path class="uuid-97bf1ed2-1a68-4096-ad51-e16721e1321e" d="m359.15,276.99l18.34,9.92c4.86,2.63,10.77,2.36,15.37-.69l3.22-2.13-32.64-18.09-6.37,3.44,2.08,7.56h0Z"/></g><path class="uuid-1158b133-ee03-42db-b9a0-a64a151692b9" d="m247.06,211.14c16.74-7.73,77.92-34.28,136.47-38.28,2.08-.14,4.13.54,5.72,1.89,7.17,6.05,28.04,24.98,43.62,52.38,1.5,2.63,1.39,5.89-.27,8.42-6.04,9.21-21.4,32.01-35.82,47.95-1.23,1.36-3.22,1.7-4.82.83l-24.77-13.41c-1.88-1.02-4.23-.36-5.3,1.48-3.64,6.27-11.87,20-18.93,28.85-.71.89-1.77,1.44-2.91,1.49-10.15.46-61.6,2.3-95.21-5.51-2.35-.55-4.04-2.59-4.15-5-.55-11.52-1.78-45.66,1.35-74.09.34-3.06,2.25-5.7,5.04-6.99h0Z"/><path class="uuid-97bf1ed2-1a68-4096-ad51-e16721e1321e" d="m375.6,186.05c8.92,9.24,29.47,31.42,43.12,52.92,1.07-1.68,1.95-3.1,2.62-4.2.93-1.52.92-3.44-.03-4.95-14.99-23.69-30.23-38.7-34.99-43.12-.95-.89-2.23-1.33-3.52-1.24-4.67.31-9.14.79-7.19.59h0Z"/><g><path class="uuid-f90b45a5-d844-45d8-a5a5-02f5b3de003f" d="m375.6,186.05c-3.67.37-7.36.83-11.04,1.37-1.16.17-1.77,1.49-1.14,2.49l2.05,3.28-4.85,5.97-40.96,9-1.31-10.32c-28.14,8.26-51.37,18.18-60.09,22.08-2.32,1.04-3.91,3.23-4.19,5.75-2.66,23.72-1.67,49.45-1.15,59.16.13,2.4,1.82,4.44,4.17,4.98,28.18,6.48,66.81,4.95,76.15,4.46,1.37-.07,2.62-.75,3.46-1.83,5.25-6.81,12.72-19.03,17.8-27.6,3.15-5.33,9.95-7.2,15.39-4.24l19.74,10.76c1.91,1.04,4.28.63,5.73-.99,9.99-11.15,18.56-23.84,23.37-31.39-13.65-21.51-34.2-43.68-43.12-52.92h0Z"/><g class="uuid-2a46fcf3-d87b-499e-8994-9a2b0673d8f4"><g><path class="uuid-85d6e4d8-f77b-4b1d-bcab-475cfb014682" d="m335.95,191.43c.3,4.33.59,10.52.32,15.69-.47,8.99-5.39,9.72-6.51,4.36-.82-3.96-1.53-15.31-1.85-20.97l-20.85,6.39c1.53,9.3,3.02,24.99-4.37,25.37-8.16.42-9.66-14.35-9.93-20.98l-9.83,3.01s.81,13.55.61,19.82c-.2,6.27-9.3,6.67-9.61,15.27-.3,8.6,2.33,57.64,2.33,57.64h56.43s-1.01-48.54-1.01-61.08,9.09-13.51,9.33-22.83c.24-9.32,0-20.79,0-20.79l-5.07-.91h0Zm-51.52,46.05c7.35.24,9.5,22.41,2.49,22.9-7.01.49-7.85-23.08-2.49-22.9h0Zm4.11,39.74c-4.45.13-4.99-9.37-.27-9.84,4.03-.4,4.72,9.71.27,9.84Z"/><path class="uuid-85d6e4d8-f77b-4b1d-bcab-475cfb014682" d="m276.45,227.21c4.45-.13,3.76-10.25-.27-9.84-4.72.47-4.18,9.98.27,9.84Z"/><path class="uuid-85d6e4d8-f77b-4b1d-bcab-475cfb014682" d="m260.8,279.24c-.51,5.35-.51,18.61-.51,18.61l-2.93,2.15,12.54,2.1s.61-9.4-.71-19.72-7.89-8.49-8.39-3.14h0Z"/><path class="uuid-85d6e4d8-f77b-4b1d-bcab-475cfb014682" d="m394.72,237.31c-4.58,0-4.92,15.98-.67,16.31,4.25.34,3.78-16.31.67-16.31Z"/><path class="uuid-85d6e4d8-f77b-4b1d-bcab-475cfb014682" d="m353.98,218.97c4.25.34,3.78-16.31.67-16.31-4.58,0-4.92,15.98-.67,16.31Z"/><path class="uuid-85d6e4d8-f77b-4b1d-bcab-475cfb014682" d="m399.37,216.21c-.09-10.79-.79-40.46-.79-40.46l-35.75,5.31s-.22,12.74-.51,28.21c-.29,15.47-10.82,16.58-10.82,24.57v40.45h16.65c.5-5.74,1.58-18.19,2.26-25.18.69-7.06,7.69-9.61,7.99-1.72.23,5.87.12,20.05.04,26.9h7.44s.4-18.44.81-31.57c.4-13.13,12.81-10.6,12.67-26.51h0Zm-9.1-5.39c3.17.09,4.31,11.73-1.01,11.6s-3.84-11.73,1.01-11.6Z"/></g></g><path class="uuid-5d79269c-c705-4c92-bb8d-c7e355f5705c" d="m375.6,186.05c-3.67.37-7.36.83-11.04,1.37-1.16.17-1.77,1.49-1.14,2.49l2.05,3.28-4.85,5.97-40.96,9-1.31-10.32c-28.14,8.26-51.37,18.18-60.09,22.08-2.32,1.04-3.91,3.23-4.19,5.75-2.66,23.72-1.67,49.45-1.15,59.16.13,2.4,1.82,4.44,4.17,4.98,28.18,6.48,66.81,4.95,76.15,4.46,1.37-.07,2.62-.75,3.46-1.83,5.25-6.81,12.72-19.03,17.8-27.6,3.15-5.33,9.95-7.2,15.39-4.24l19.74,10.76c1.91,1.04,4.28.63,5.73-.99,9.99-11.15,18.56-23.84,23.37-31.39-13.65-21.51-34.2-43.68-43.12-52.92h0Z"/></g><g><path class="uuid-97bf1ed2-1a68-4096-ad51-e16721e1321e" d="m318.34,197.84l5.96-1.88c1.07-.34,2.19.37,2.34,1.49l.46,3.39,38.36-7.65-4.85,5.97-40.96,9-1.31-10.32h0Z"/><line class="uuid-5d79269c-c705-4c92-bb8d-c7e355f5705c" x1="327.1" y1="200.84" x2="319.65" y2="208.15"/></g></g><path class="uuid-cb8afc3d-b574-4149-9ebb-d08ea80dfdfd" d="m183.48,225.72l-4.43,7.43s5.38,2.75,23.4,4.63c16.18,1.69,30.94.94,30.94.94,0,0-.51,37.69,0,46.58,0,0-25.38-.91-47.83-5.97-22.45-5.06-30.64-11.12-30.64-11.12,0,0,3.14-12.81,6.91-22.48,3.77-9.65,8.66-18.78,8.66-18.78l12.99-1.24h0Z"/><path class="uuid-97bf1ed2-1a68-4096-ad51-e16721e1321e" d="m200.23,240.61l-12.83,35.19s7.99,2.83,21.53,4.55c13.55,1.72,20.73,2.02,20.73,2.02l.61-40.34-30.03-1.43h0Z"/><path class="uuid-2d1bf830-110e-4ac0-acda-42bab81d5de9" d="m233.39,238.73s-14.76.74-30.94-.94c-.89-.09-1.74-.19-2.57-.28-1.03-.12-2.01.49-2.36,1.47l-13.59,37.42c-.46,1.27.29,2.66,1.61,2.96,0,0,.02,0,.03,0,22.45,5.06,47.83,5.97,47.83,5.97-.51-8.9,0-46.58,0-46.58h0Zm-6.6,40.51s-16.46-.4-34.23-3.84c0,0-.01,0-.02,0-1.03-.23-1.62-1.32-1.26-2.31l10.6-29.19c.28-.76,1.04-1.24,1.84-1.14.64.08,1.31.15,2,.22,12.62,1.31,22.04.81,22.04.81,0,0-.78,28.64-.99,35.45h0Z"/><g><circle cx="205.75" cy="256.06" r="3.23"/><circle cx="220.1" cy="257.16" r="3.23"/><circle cx="212.15" cy="266.64" r="3.23"/></g><g><line class="uuid-5d79269c-c705-4c92-bb8d-c7e355f5705c" x1="160.57" y1="261.93" x2="163.1" y2="268.09"/><line class="uuid-5d79269c-c705-4c92-bb8d-c7e355f5705c" x1="163.83" y1="251.26" x2="173.64" y2="272.6"/><line class="uuid-5d79269c-c705-4c92-bb8d-c7e355f5705c" x1="167.6" y1="242.04" x2="181.11" y2="271.41"/><line class="uuid-5d79269c-c705-4c92-bb8d-c7e355f5705c" x1="172.21" y1="231.62" x2="185.71" y2="260.99"/><line class="uuid-5d79269c-c705-4c92-bb8d-c7e355f5705c" x1="185.02" y1="238.64" x2="189.77" y2="248.98"/></g></g></g></g></svg>
</svg>