<?xml version="1.0" encoding="UTF-8"?>
<svg xmlns="http://www.w3.org/2000/svg" viewBox="0 0 600 600">
<svg id="uuid-50f5b600-4bee-4d04-aa66-9a7827d0c80f" data-name="BACKGROUND" xmlns="http://www.w3.org/2000/svg" viewBox="0 0 600 600"><defs><style>
      .uuid-7826a2f3-55af-481e-b40d-34a6e43de7ed {
        fill: #7aa6ff;
      }
    </style></defs><rect class="uuid-7826a2f3-55af-481e-b40d-34a6e43de7ed" x="-1" y="-1" width="602" height="602"/></svg>
<svg id="uuid-2e688e09-c4fe-4f4d-abf1-b0fbaf338f5b" data-name="BODY" xmlns="http://www.w3.org/2000/svg" viewBox="0 0 600 600"><defs><style>
      .uuid-eb2f9d7d-b927-4606-a144-95a98972db31 {
        fill: #fff;
      }

      .uuid-505f23ba-818d-453d-8ce0-ba561f80fb1c, .uuid-558f11d3-7dde-4524-89be-a8812332cdfc {
        stroke-miterlimit: 10;
      }

      .uuid-505f23ba-818d-453d-8ce0-ba561f80fb1c, .uuid-558f11d3-7dde-4524-89be-a8812332cdfc, .uuid-fd0f3372-5f7f-47e7-9d47-74d09a54ea2e, .uuid-8a42e792-8aec-4e83-b76a-8088904e37d9, .uuid-524e3d8f-4aaa-4994-b9e3-6b84067c906c {
        stroke: #000;
        stroke-width: 2px;
      }

      .uuid-505f23ba-818d-453d-8ce0-ba561f80fb1c, .uuid-558f11d3-7dde-4524-89be-a8812332cdfc, .uuid-fd0f3372-5f7f-47e7-9d47-74d09a54ea2e, .uuid-524e3d8f-4aaa-4994-b9e3-6b84067c906c {
        fill: #ffc9f1;
      }

      .uuid-558f11d3-7dde-4524-89be-a8812332cdfc, .uuid-fd0f3372-5f7f-47e7-9d47-74d09a54ea2e, .uuid-8a42e792-8aec-4e83-b76a-8088904e37d9 {
        stroke-linecap: round;
      }

      .uuid-fd0f3372-5f7f-47e7-9d47-74d09a54ea2e, .uuid-8a42e792-8aec-4e83-b76a-8088904e37d9, .uuid-524e3d8f-4aaa-4994-b9e3-6b84067c906c {
        stroke-linejoin: round;
      }

      .uuid-8a42e792-8aec-4e83-b76a-8088904e37d9 {
        fill: none;
      }
    </style></defs><ellipse cx="300" cy="518.65" rx="138.6" ry="22.93"/><g><path class="uuid-505f23ba-818d-453d-8ce0-ba561f80fb1c" d="m319.36,427.14c-1.16,1.05-54.95,57-54.95,57,0,0,21.51-1.95,31.74,10.62,10.23,12.57,7.26,23.89,7.26,23.89h-66.9s-28.69-36.17-28.69-36.17c0,0,3.74-13.4,20.44-10.59,20.9-19.38,55.52-59.13,55.52-59.13l35.59,14.38Z"/><path d="m283.78,412.76l31.28,12.64-3.24,9.5c-2.93,3.03-9.76,10.12-13.64,14.14-11.92,0-27.98-2.13-41.33-6.37,13.95-15.1,26.93-29.92,26.93-29.92Z"/></g><g><path class="uuid-fd0f3372-5f7f-47e7-9d47-74d09a54ea2e" d="m409.81,359.6c9.2,3.77,29.89,12.05,42.79,16.03,2.11.65,4.41.69,6.5-.04,11.79-4.08,28.47-11.39,33.03-11.32,5.25.08,7.8,3.93,19.88,2.04,13.36-2.1,22.43-11.99,20.93-23.3-4.21-43.28-25.18-26.79-25.18-26.79,0,0-5.84-8.75-18.76-4.82-11.83,3.6-10.2,14.44-6.47,22.47l-25.29,8.58c-2.14.72-4.45.71-6.59-.02l-35.7-12.61"/><path class="uuid-558f11d3-7dde-4524-89be-a8812332cdfc" d="m533.36,312.82c2.5,3.94,1.62,9.14-1.57,12.4-2.47,2.53-5.88,3.88-9.32,4.4-2.8.43-5.7.42-8.49-.08-2.14-.39-4.29-1.1-5.79-2.75-1.66-1.83-2.27-4.46-1.98-6.87.51-4.17,3.84-7.14,7.22-9.26,3.17-1.98,6.86-3.26,10.64-3.09,3.8.18,7.36,2.19,9.3,5.24Z"/><path class="uuid-558f11d3-7dde-4524-89be-a8812332cdfc" d="m538.57,349.84c.97,3.03.32,6.43-1.5,9.01-3.77,5.33-11.17,5.65-16.96,4.27-3.31-.79-6.69-2.21-8.67-5.13-3.13-4.61-.82-9.79,3.48-12.56,2.58-1.66,5.61-2.67,8.63-3.14,5.73-.89,13.1,1.51,15.03,7.56Z"/><path class="uuid-558f11d3-7dde-4524-89be-a8812332cdfc" d="m538.71,328.53c1.8,2.99,2.06,6.89.22,9.9-1.95,3.2-4.94,5.25-8.49,6.28-3.66,1.07-7.64,1.27-11.4.44-2.25-.5-4.53-1.38-5.96-3.28-1.86-2.47-1.89-5.68-.85-8.49,1.2-3.24,4.17-5.69,7.09-7.37,6.15-3.56,15.21-4.43,19.39,2.52Z"/><path class="uuid-558f11d3-7dde-4524-89be-a8812332cdfc" d="m501.85,311.68s9.27,3.84,7.77,12.02c-1.04,5.68-8.17,9.55-14.94,6.13"/><path class="uuid-8a42e792-8aec-4e83-b76a-8088904e37d9" d="m500.67,331.08c2.41,1.63,5.11,8.04,3.4,14.42"/><path d="m443.44,339.88c-2.88,10.58-6.94,20.23-11.17,28.59-10.17-3.78-21.16-9.53-27-11.93l11.83-26.02,26.35,9.36Z"/></g><g><circle class="uuid-505f23ba-818d-453d-8ce0-ba561f80fb1c" cx="300" cy="300" r="138.16"/><path class="uuid-eb2f9d7d-b927-4606-a144-95a98972db31" d="m184.58,308.17c-4.41,0-7.98-3.57-7.98-7.98,0-67.74,55.11-122.86,122.86-122.86,4.41,0,7.98,3.57,7.98,7.98s-3.57,7.98-7.98,7.98c-58.94,0-106.9,47.95-106.9,106.9,0,4.41-3.57,7.98-7.98,7.98Z"/></g><path class="uuid-8a42e792-8aec-4e83-b76a-8088904e37d9" d="m264.41,484.14c-4.06.49-11.49,1.36-17.85,7.23"/><path class="uuid-eb2f9d7d-b927-4606-a144-95a98972db31" d="m185.17,308.14c-4.41,0-7.98-3.57-7.98-7.98,0-67.74,55.11-122.86,122.86-122.86,4.41,0,7.98,3.57,7.98,7.98s-3.57,7.98-7.98,7.98c-58.94,0-106.9,47.95-106.9,106.9,0,4.41-3.57,7.98-7.98,7.98Z"/><path d="m203.75,397.46l34.2-27.46-24.86,36.3c-6.73-5.1-3.66-2.61-9.34-8.83Z"/><path class="uuid-524e3d8f-4aaa-4994-b9e3-6b84067c906c" d="m323.72,387.31c19.14-13.4,39.15-11.3,55.52,7.36,19.6,22.35,30.57,33.06,30.57,33.06,0,0,10.74-19.34,34.77-17.5,18.26,1.4,24.84,14.43,24.84,14.43,0,0,6.21,8.82-22.45,33.5-28.66,24.68-54.93,40.92-61.14,29.46-6.21-11.46-2.82-32.1-2.82-32.1,0,0-22.02-26.09-27.94-32.01-6.79-6.79-15.71-1.36-15.71-1.36"/><path class="uuid-505f23ba-818d-453d-8ce0-ba561f80fb1c" d="m446.97,458.17c-25.89,22.29-49.82,37.69-58.79,32.02-9.77-7.44,26.84-38.54,44.88-52.7,18.04-14.16,32.17-17.82,36.36-12.81,0,0,6.21,8.82-22.45,33.5Z"/><path class="uuid-8a42e792-8aec-4e83-b76a-8088904e37d9" d="m409.81,427.74c-1.89,2.86-4.55,10.38-4.55,10.38"/><g><path class="uuid-fd0f3372-5f7f-47e7-9d47-74d09a54ea2e" d="m214.11,345.7c-8.05,5.83-25.34,20.79-35.52,29.67-1.67,1.45-2.82,3.41-3.39,5.55-3.14,11.67-8.55,33.44-8.55,33.44,0,0-8.42.58-12.19,14.35-3.64,13.3-6.64,25.06,3.77,29.75.35,7.47,7.51,15.45,19.2,9.41.14-.06,1.32,1.32,1.44,1.45,2.64,2.7,6.36,4.45,10.13,4.81,3.65.36,7.61-.67,10.43-3.08,3.29-2.81,5.4-6.94,6.05-11.2.4-2.61.26-5.31-.75-7.78,0,0,6.2-2.51,8.05-11.34,1.99-9.49-4.22-19.42-14.62-18.18l6.17-23.11c.51-2.2,1.74-4.16,3.49-5.59l29.38-24.3"/><path class="uuid-8a42e792-8aec-4e83-b76a-8088904e37d9" d="m204.73,452.06c-1.37-3.47-5.39-7.08-9-6.88"/><path class="uuid-8a42e792-8aec-4e83-b76a-8088904e37d9" d="m178.86,469.3c-5.16-5.27-3.82-11.97-2.9-13.54"/><path class="uuid-8a42e792-8aec-4e83-b76a-8088904e37d9" d="m158.22,458.45c-.27-5.22.73-7.32,3.06-9.83"/><path class="uuid-8a42e792-8aec-4e83-b76a-8088904e37d9" d="m193.93,450.63c.14-2.07.48-4.16,1.32-6.06.85-1.95,2.36-3.88,4.31-4.85"/></g></svg>
<svg id="uuid-6a02459f-1b68-443c-bd4b-7b11b7abbe5a" data-name="BODY" xmlns="http://www.w3.org/2000/svg" viewBox="0 0 600 600"><defs><style>
      .uuid-f630b38e-3266-47b2-bfbc-f2260501e18f {
        fill: #ff78d8;
        stroke: #000;
        stroke-linecap: round;
        stroke-linejoin: round;
        stroke-width: 2px;
      }
    </style></defs><circle cx="362.12" cy="293.18" r="9.78" transform="translate(-9.59 12.26) rotate(-1.91)"/><path class="uuid-f630b38e-3266-47b2-bfbc-f2260501e18f" d="m337.57,261.14c-1.59,1.06-2.46,2.67-2.79,4.19-.28,1.29-1.56,2.12-2.85,1.86-1.5-.3-3.22-.16-4.8.89-2.88,1.92-3.44,6.16-1.23,9.48,3.99,6.01,12.54,6.76,17.83,6.27.82-.08,1.55-.56,1.94-1.29,2.5-4.69,5.12-12.85,1.13-18.86-2.2-3.32-6.33-4.45-9.21-2.54Z"/><path class="uuid-f630b38e-3266-47b2-bfbc-f2260501e18f" d="m371.18,249c-1.81.61-3.07,1.94-3.79,3.32-.6,1.17-2.05,1.64-3.24,1.06-1.37-.67-3.07-1-4.87-.39-3.28,1.1-4.92,5.06-3.65,8.83,2.29,6.84,10.35,9.79,15.59,10.69.82.14,1.64-.14,2.21-.74,3.64-3.88,8.28-11.08,5.99-17.92-1.27-3.78-4.96-5.94-8.24-4.84Z"/></svg>
<svg id="uuid-f4074912-9272-4ef1-b1b1-d66f5acdc7c8" data-name="BODY" xmlns="http://www.w3.org/2000/svg" viewBox="0 0 600 600"><defs><style>
      .uuid-faa079f9-df7c-49b8-9fbd-6724fd225a2e {
        fill: #7aa6ff;
      }

      .uuid-faa079f9-df7c-49b8-9fbd-6724fd225a2e, .uuid-ac748af8-1ade-42a0-999e-0a2ce733572b, .uuid-1baff137-1693-4b4b-a630-944b4a445ce9, .uuid-e151b05c-5576-4bb6-b555-654c00b076ba, .uuid-f7781649-76e1-44b4-85bf-2cb5db06f6ae {
        stroke: #000;
        stroke-linecap: round;
        stroke-linejoin: round;
        stroke-width: 2px;
      }

      .uuid-ac748af8-1ade-42a0-999e-0a2ce733572b {
        fill: #ff78d8;
      }

      .uuid-1baff137-1693-4b4b-a630-944b4a445ce9 {
        fill: #ffff0d;
      }

      .uuid-e151b05c-5576-4bb6-b555-654c00b076ba {
        fill: #fff;
      }

      .uuid-f7781649-76e1-44b4-85bf-2cb5db06f6ae {
        fill: none;
      }
    </style></defs><g id="uuid-609b5b85-8169-408e-9e55-6a09e3454fc3" data-name="uuid-59560883-689f-43df-9f0b-d5c83d25eed8"><g><g><path class="uuid-e151b05c-5576-4bb6-b555-654c00b076ba" d="m166.95,413.12c11.19,10.25,31.2,9.43,31.2,9.43l4.5-16.84s-5.66-2.38-15.98-5.31c-10.32-2.93-15.34-4.65-15.34-4.65l-4.38,17.37Z"/><g><line class="uuid-f7781649-76e1-44b4-85bf-2cb5db06f6ae" x1="178.28" y1="404.79" x2="176.11" y2="413.89"/><line class="uuid-f7781649-76e1-44b4-85bf-2cb5db06f6ae" x1="191.19" y1="408.44" x2="189.01" y2="417.54"/></g></g><g><path class="uuid-e151b05c-5576-4bb6-b555-654c00b076ba" d="m466.27,339.39l16.26-5.52s-.43,19.89,9.61,30.41l-16.83,5.37s-9.23-5.12-11.25-14.64,2.22-15.62,2.22-15.62h-.01Z"/><path class="uuid-ac748af8-1ade-42a0-999e-0a2ce733572b" d="m436.03,324.33s17.68,5.27,18.89,5.75,11.35,9.31,11.35,9.31c0,0-.65,20.75,9.03,30.26,0,0-15.19,17.39-17.22,18.71-2.03,1.32-41.28-14.54-41.28-14.54,0,0,6.6-14.58,12.05-26.21,5.45-11.63,7.16-23.27,7.16-23.27h.02Z"/><line class="uuid-f7781649-76e1-44b4-85bf-2cb5db06f6ae" x1="473.46" y1="359.57" x2="482.77" y2="356.38"/><line class="uuid-f7781649-76e1-44b4-85bf-2cb5db06f6ae" x1="470.36" y1="348.29" x2="479.66" y2="345.1"/><path class="uuid-f7781649-76e1-44b4-85bf-2cb5db06f6ae" d="m469.02,358.71c-10.17,2.95-16.49,13.87-13.05,16.86,3.44,2.99,6.52-6.37,6.52-6.37"/><path class="uuid-f7781649-76e1-44b4-85bf-2cb5db06f6ae" d="m466.78,348.29c-8.18-2.09-15.56-4.17-15.56-4.17"/><path d="m446.06,327.34c-1.01,10.56-5.64,22.15-7.31,26.67-3.62,9.78-8.9,19.7-11.17,24.18-10.17-3.78-7.79-2.87-10.71-4.51l13.37-27.47,5.78-21.87,10.03,3.01h.01Z"/></g><g><path class="uuid-faa079f9-df7c-49b8-9fbd-6724fd225a2e" d="m305.9,456.21l11.12-16.69s29.17-3,37.01-5.81c4.96-1.77,4.75-6.23,4.75-6.23,0,0-3.63-4.35-6.23-5.92s-6.71-1.43-6.71-1.43c0,0-2.22-14.25-.14-27.85,1.65-10.77,3.42-13.58,3.42-13.58,0,0,7.52.12,16.47,4.63,8.95,4.51,25.62,24.76,25.62,24.76,0,0,8.74-7.2,18.19-18.57,7.9-9.51,18.19-23.81,25.11-44.09,1.35-3.97-7.32,4.09-6.26-.35l-36.04,20.64-23.93,5.56-7.28-8.73s-34.18,6.88-103.92-10.42c-65.9-16.35-98.53-45.2-98.53-45.2,0,0-.86,99.87,103.94,129.57,0,0,17.61,14.53,43.4,19.69v.02Z"/><g><path d="m299.53,440.27l17.49-.75c-1.25,1.77-3.89,6.12-5.89,8.83-1.78.8-6.5.69-12.95.69-5.09,0-10.93-.38-16.99-1.16-6.84-2.65-14.12-7.91-18.69-11.36,10.33,3.75,37.03,3.75,37.03,3.75h0Z"/><g><path class="uuid-f7781649-76e1-44b4-85bf-2cb5db06f6ae" d="m345.85,420.15c.91,7.61,5.87,14.72,9.05,13.21"/><path class="uuid-f7781649-76e1-44b4-85bf-2cb5db06f6ae" d="m357.59,368.15c-3.91,1.27-8.46,10.57-8.46,10.57"/><path class="uuid-f7781649-76e1-44b4-85bf-2cb5db06f6ae" d="m365.77,376.93c.81,2.81.44,6.74.44,6.74"/><path class="uuid-f7781649-76e1-44b4-85bf-2cb5db06f6ae" d="m375.84,391.39c27.34-6.78,45.94-18.94,45.94-18.94"/><path class="uuid-f7781649-76e1-44b4-85bf-2cb5db06f6ae" d="m305.26,388.93c-6.9,3.88-16.96,13.38-16.96,13.38,0,0-25.89-1.45-53.64-14.61"/><path class="uuid-f7781649-76e1-44b4-85bf-2cb5db06f6ae" d="m183.69,356.75c-9.65-4.5-18.55-12.21-18.55-12.21"/><path class="uuid-f7781649-76e1-44b4-85bf-2cb5db06f6ae" d="m262.5,436.52c18.96,6,54.52,3,54.52,3"/></g></g></g><g><path class="uuid-e151b05c-5576-4bb6-b555-654c00b076ba" d="m285.23,402.04s-17.84,21.72-41.45,34.31c-1.22.65-2.65.72-3.94.23-3.16-1.2-9.47-3.76-15.46-7.2-1.38-.79-2.27-2.21-2.4-3.79-.15-1.88-.3-4.52-.2-6.81,0,0,6.05,3.63,8.47,4.89,0,0,20.86-10.28,33.34-25.64,0,0,13.46,3.25,21.64,3.99v.02Z"/><g><path class="uuid-e151b05c-5576-4bb6-b555-654c00b076ba" d="m255.87,406.2c7.74,3.09,20.52,5.31,20.52,5.31"/><path class="uuid-e151b05c-5576-4bb6-b555-654c00b076ba" d="m245.98,414.29c8.29,4.28,19.77,6.99,19.77,6.99"/><path class="uuid-e151b05c-5576-4bb6-b555-654c00b076ba" d="m234.67,421.27c7.1,5.25,18.9,8.82,18.9,8.82"/></g><path class="uuid-f7781649-76e1-44b4-85bf-2cb5db06f6ae" d="m230.25,423.68c-3.14,1.72-4.59,1.01-4.59,1.01"/></g><g><path class="uuid-ac748af8-1ade-42a0-999e-0a2ce733572b" d="m160.3,324.43s21.12,15.53,34.57,21.27c0,0-29.63,28.9-30.64,31.83-1.01,2.93,7.1,18.21,7.1,18.21,0,0,9.38,10.52,31.32,9.96,0,0,15.57-3.8,17.09-4.3s26.8-25.18,26.8-25.18c0,0,33.1,13.52,58.72,12.71,0,0,27.78-16.72,52.33-20.78,4.83-.8,8.17,8.78,8.17,8.78,0,0,46.23-11.43,68.5-30.73l3.89-13.36s-32.3,16-38.39,18.77c-6.09,2.77-9.58,7.17-10.8,12.88,0,0-5.41-6.22-15.42-5.61-10.01.61-35.05,8.72-78.67.05-43.62-8.67-136.31-54.81-136.31-54.81,0,0-.17,10.86,1.73,20.31h0Z"/><path class="uuid-1baff137-1693-4b4b-a630-944b4a445ce9" d="m190.52,349.97l1.21,3.1-5.62,1.26-4.35,4.34s.46,1.94,2.21,2.08,12.02-.38,12.02-.38l9.05,9.63c.93.99,2.58.41,2.7-.94l.57-6.56,4.99-.39c1.48-.12,1.98-2.02.76-2.86l-6.83-4.64-.29-5.46c-.06-1.04-1.1-1.74-2.08-1.39l-6.05,2.14-5.91-2.27-2.38,2.34h0Z"/><g><path class="uuid-ac748af8-1ade-42a0-999e-0a2ce733572b" d="m194.87,345.7c2.93-2.8,1.21-5.78,1.21-5.78"/><path class="uuid-ac748af8-1ade-42a0-999e-0a2ce733572b" d="m246.54,376.22c4.15-4.15,7.69-3.44,7.69-3.44"/><path class="uuid-ac748af8-1ade-42a0-999e-0a2ce733572b" d="m181.58,402.21c-.16-10.42-5.72-15.88-5.72-15.88"/><path class="uuid-ac748af8-1ade-42a0-999e-0a2ce733572b" d="m188.66,404.42c15.82-16.77,20.79-12.53,20.97-10.15.3,3.93-6.57,5.11-6.57,5.11"/></g></g><g><path class="uuid-e151b05c-5576-4bb6-b555-654c00b076ba" d="m163.88,276.21l-1.03,7.03s112.9,81.34,203.12,57.16c4.51-1.21,9.14,1.49,10.21,6.04l2.12,9.04c1.04,4.43-1.7,8.86-6.13,9.89-7.25,1.69-19.8,4-38.99,5.62-32.93,2.77-108.69-13.12-175.39-61.23-2.96-2.13-4.66-5.6-4.52-9.24l.52-13.84c.2-5.15,3.99-9.46,9.07-10.3l1.02-.17h0Z"/><path class="uuid-e151b05c-5576-4bb6-b555-654c00b076ba" d="m390.47,340.24l2.55,9.52c1.12,4.19,5.71,6.39,9.67,4.64,9.73-4.3,26.86-12.96,39.6-25.3,2.24-2.17,3.59-5.09,3.72-8.2l.62-14.43c.24-5.5-3.29-10.46-8.57-12.05h0l.07,9.15s-17.38,15.96-43.79,28.45c-3.1,1.47-4.74,4.92-3.85,8.23h-.02Z"/><path class="uuid-f7781649-76e1-44b4-85bf-2cb5db06f6ae" d="m162.84,283.24c-2.15-1.47-2.15-2.51-2.15-2.51"/><path class="uuid-f7781649-76e1-44b4-85bf-2cb5db06f6ae" d="m438.12,303.56c2.38-1.92,2.73-2.98,2.73-2.98"/></g></g></g></svg>
<svg id="uuid-55ecc028-236b-4107-a473-b463f673f86d" data-name="BODY" xmlns="http://www.w3.org/2000/svg" xmlns:xlink="http://www.w3.org/1999/xlink" viewBox="0 0 600 600"><defs><style>
      .uuid-f7cf47f1-387c-40c0-8451-efa3e1f48bb3, .uuid-6ab753ec-842d-4635-8bda-4f11118cf21d, .uuid-e45dda09-b6fd-469a-8eb9-5847bc51013b, .uuid-b4015b0b-b5a2-4504-ab5f-b3dc7c0f0bea, .uuid-b1a063f9-d398-49ac-8717-dedd55fd17c7 {
        fill: none;
      }

      .uuid-6ab753ec-842d-4635-8bda-4f11118cf21d {
        clip-path: url(#uuid-cd30974c-211b-420c-b621-0d4b41918d4b);
      }

      .uuid-e45dda09-b6fd-469a-8eb9-5847bc51013b {
        clip-path: url(#uuid-0ad76e5b-fc91-46c9-818d-ed4d146208f8);
      }

      .uuid-8a193521-0ef5-4407-9ee8-bb4ebcd57992, .uuid-acba282c-cbdd-4fe6-aee3-1b2aaa578edb, .uuid-d76bb13e-79ef-4d22-868e-758f3fc81ba4, .uuid-7ca8cd12-c4ef-474d-b7e8-9ac616bc8090, .uuid-53cbd553-6925-4261-892e-503624ed011f, .uuid-8318a3fb-8d6a-4db7-b071-a15a473496d3, .uuid-93feedb8-91e3-42a2-bd0a-197c246fdb2b, .uuid-aa1376c1-8f7a-4198-be7e-f0dfeb7eba4b, .uuid-b4015b0b-b5a2-4504-ab5f-b3dc7c0f0bea, .uuid-b1a063f9-d398-49ac-8717-dedd55fd17c7 {
        stroke: #000;
        stroke-linecap: round;
        stroke-linejoin: round;
      }

      .uuid-8a193521-0ef5-4407-9ee8-bb4ebcd57992, .uuid-acba282c-cbdd-4fe6-aee3-1b2aaa578edb, .uuid-124c2ab5-3017-4aff-88c5-916403019659 {
        fill: #7aa6ff;
      }

      .uuid-8a193521-0ef5-4407-9ee8-bb4ebcd57992, .uuid-7ca8cd12-c4ef-474d-b7e8-9ac616bc8090, .uuid-53cbd553-6925-4261-892e-503624ed011f, .uuid-93feedb8-91e3-42a2-bd0a-197c246fdb2b, .uuid-b4015b0b-b5a2-4504-ab5f-b3dc7c0f0bea {
        stroke-width: 2px;
      }

      .uuid-acba282c-cbdd-4fe6-aee3-1b2aaa578edb, .uuid-8318a3fb-8d6a-4db7-b071-a15a473496d3, .uuid-aa1376c1-8f7a-4198-be7e-f0dfeb7eba4b, .uuid-b1a063f9-d398-49ac-8717-dedd55fd17c7 {
        stroke-width: 2px;
      }

      .uuid-d76bb13e-79ef-4d22-868e-758f3fc81ba4 {
        stroke-width: 2px;
      }

      .uuid-d76bb13e-79ef-4d22-868e-758f3fc81ba4, .uuid-7ca8cd12-c4ef-474d-b7e8-9ac616bc8090 {
        fill: #8400ff;
      }

      .uuid-66f64252-28db-40bd-8f2c-f28f22893256 {
        fill: #fff7f0;
      }

      .uuid-53cbd553-6925-4261-892e-503624ed011f, .uuid-8318a3fb-8d6a-4db7-b071-a15a473496d3 {
        fill: #a07bff;
      }

      .uuid-93feedb8-91e3-42a2-bd0a-197c246fdb2b, .uuid-aa1376c1-8f7a-4198-be7e-f0dfeb7eba4b {
        fill: #00dfa9;
      }
    </style><clipPath id="uuid-0ad76e5b-fc91-46c9-818d-ed4d146208f8"><rect class="uuid-f7cf47f1-387c-40c0-8451-efa3e1f48bb3" x="16.46" y="333.04" width="288" height="266.96"/></clipPath><clipPath id="uuid-cd30974c-211b-420c-b621-0d4b41918d4b"><rect class="uuid-f7cf47f1-387c-40c0-8451-efa3e1f48bb3" x="184.41" y="448.21" width="13.5" height="71.81" transform="translate(-328.3 516.71) rotate(-72.04)"/></clipPath></defs><g id="uuid-c271d4e6-0ed9-43ec-a6eb-586182258769" data-name="uuid-aa1a3761-725c-4c6a-bb08-3b927dabb1b6"><g class="uuid-e45dda09-b6fd-469a-8eb9-5847bc51013b"><g><g><polygon class="uuid-8a193521-0ef5-4407-9ee8-bb4ebcd57992" points="91.61 442.3 86.94 440.79 114.36 362.08 115.56 362.47 91.61 442.3"/><circle class="uuid-8a193521-0ef5-4407-9ee8-bb4ebcd57992" cx="114.96" cy="362.27" r="3.66"/></g><g><path class="uuid-53cbd553-6925-4261-892e-503624ed011f" d="m250.78,490.94l-162.48-40.18c-2.64-.86-5.48.59-6.33,3.23l-6.05,18.67c-.86,2.64.59,5.48,3.23,6.33l168.95,54.76c2.64.86,5.48-.59,6.33-3.23l6.05-18.67c.45-1.38.27-2.81-.38-3.98-.6-1.08-8.05-16.51-9.32-16.92h0Z"/><path class="uuid-aa1376c1-8f7a-4198-be7e-f0dfeb7eba4b" d="m80.92,435.35l167.79,54.38c2.96.96,4.58,4.14,3.62,7.1l-7.41,22.87-178.52-57.86,7.41-22.87c.96-2.96,4.14-4.58,7.1-3.62Z"/><g><polygon class="uuid-53cbd553-6925-4261-892e-503624ed011f" points="144.41 476.06 94.59 459.91 105.57 449.28 155.39 465.42 144.41 476.06"/><g><line class="uuid-b4015b0b-b5a2-4504-ab5f-b3dc7c0f0bea" x1="126.49" y1="470.25" x2="137.47" y2="459.61"/><line class="uuid-b4015b0b-b5a2-4504-ab5f-b3dc7c0f0bea" x1="119.33" y1="467.93" x2="130.31" y2="457.3"/><line class="uuid-b4015b0b-b5a2-4504-ab5f-b3dc7c0f0bea" x1="112.52" y1="465.72" x2="123.5" y2="455.09"/></g></g><g><rect class="uuid-124c2ab5-3017-4aff-88c5-916403019659" x="184.41" y="448.21" width="13.5" height="71.81" transform="translate(-328.3 516.71) rotate(-72.04)"/><g class="uuid-6ab753ec-842d-4635-8bda-4f11118cf21d"><g><polygon class="uuid-66f64252-28db-40bd-8f2c-f28f22893256" points="210.04 497.33 194.4 492.26 205.38 481.62 221.02 486.69 210.04 497.33"/><polygon class="uuid-66f64252-28db-40bd-8f2c-f28f22893256" points="187.58 490.05 179.76 487.51 190.74 476.88 198.56 479.41 187.58 490.05"/><polygon class="uuid-66f64252-28db-40bd-8f2c-f28f22893256" points="165.85 483 161.25 481.51 172.23 470.88 176.83 472.37 165.85 483"/></g></g><rect class="uuid-b1a063f9-d398-49ac-8717-dedd55fd17c7" x="184.41" y="448.21" width="13.5" height="71.81" transform="translate(-328.3 516.71) rotate(-72.04)"/></g><g><line class="uuid-b4015b0b-b5a2-4504-ab5f-b3dc7c0f0bea" x1="78.63" y1="440.55" x2="93.51" y2="445.37"/><line class="uuid-b4015b0b-b5a2-4504-ab5f-b3dc7c0f0bea" x1="74.47" y1="453.39" x2="89.35" y2="458.21"/><line class="uuid-b4015b0b-b5a2-4504-ab5f-b3dc7c0f0bea" x1="76.55" y1="446.97" x2="91.43" y2="451.79"/></g><g><line class="uuid-b4015b0b-b5a2-4504-ab5f-b3dc7c0f0bea" x1="232.2" y1="490.32" x2="247.07" y2="495.14"/><line class="uuid-b4015b0b-b5a2-4504-ab5f-b3dc7c0f0bea" x1="228.03" y1="503.16" x2="242.91" y2="507.98"/><line class="uuid-b4015b0b-b5a2-4504-ab5f-b3dc7c0f0bea" x1="230.12" y1="496.74" x2="244.99" y2="501.56"/></g></g><g><path class="uuid-7ca8cd12-c4ef-474d-b7e8-9ac616bc8090" d="m232.92,608.52l-188.32-61.03c-.83-.27-1.47-.85-1.83-1.56s-6.8-12.03-6.53-12.86l30.07-62.74c.54-1.65,2.31-2.56,3.96-2.02l183.3,49.39c.76.25,6.38,12.41,6.76,13.05.44.75.57,1.67.28,2.56l-23.72,73.19c-.54,1.65-2.31,2.56-3.96,2.02h0Z"/><rect class="uuid-8318a3fb-8d6a-4db7-b071-a15a473496d3" x="103.55" y="423.69" width="83.23" height="204.26" rx="3.15" ry="3.15" transform="translate(-399.79 501.8) rotate(-72.04)"/><line class="uuid-b4015b0b-b5a2-4504-ab5f-b3dc7c0f0bea" x1="235.39" y1="608.29" x2="228.96" y2="595.7"/></g><g><circle class="uuid-8a193521-0ef5-4407-9ee8-bb4ebcd57992" cx="85.25" cy="506.4" r="31.66"/><circle class="uuid-93feedb8-91e3-42a2-bd0a-197c246fdb2b" cx="85.25" cy="506.4" r="24.87"/><circle class="uuid-b4015b0b-b5a2-4504-ab5f-b3dc7c0f0bea" cx="86.2" cy="506.71" r="19.13"/><circle class="uuid-7ca8cd12-c4ef-474d-b7e8-9ac616bc8090" cx="87.39" cy="507.09" r="6.32"/></g><g><circle class="uuid-8a193521-0ef5-4407-9ee8-bb4ebcd57992" cx="203.53" cy="544.73" r="31.66"/><circle class="uuid-93feedb8-91e3-42a2-bd0a-197c246fdb2b" cx="203.53" cy="544.73" r="24.87"/><circle class="uuid-b4015b0b-b5a2-4504-ab5f-b3dc7c0f0bea" cx="204.48" cy="545.04" r="19.13"/><circle class="uuid-7ca8cd12-c4ef-474d-b7e8-9ac616bc8090" cx="205.67" cy="545.43" r="6.32"/></g><g><g><rect class="uuid-b1a063f9-d398-49ac-8717-dedd55fd17c7" x="148.01" y="499.61" width="7.15" height="12.83" transform="translate(-376.53 494.21) rotate(-72.04)"/><circle class="uuid-b4015b0b-b5a2-4504-ab5f-b3dc7c0f0bea" cx="138.27" cy="501.71" r="3.57"/><circle class="uuid-b4015b0b-b5a2-4504-ab5f-b3dc7c0f0bea" cx="164.89" cy="510.34" r="3.57"/></g><rect class="uuid-b1a063f9-d398-49ac-8717-dedd55fd17c7" x="138.18" y="482.66" width="26.81" height="46.72" rx="3.97" ry="3.97" transform="translate(-376.53 494.21) rotate(-72.04)"/></g><g><polygon class="uuid-7ca8cd12-c4ef-474d-b7e8-9ac616bc8090" points="157.51 563.5 113.06 549.1 109.84 542.79 121.33 523.59 162.56 531.69 165.78 538 157.51 563.5"/><rect class="uuid-acba282c-cbdd-4fe6-aee3-1b2aaa578edb" x="122.8" y="513.88" width="26.81" height="46.72" transform="translate(-416.86 501.17) rotate(-72.04)"/><polyline class="uuid-b4015b0b-b5a2-4504-ab5f-b3dc7c0f0bea" points="127.51 553.78 124.28 547.45 132.54 521.96"/><polyline class="uuid-b4015b0b-b5a2-4504-ab5f-b3dc7c0f0bea" points="142.78 558.73 139.55 552.4 147.81 526.91"/><line class="uuid-b4015b0b-b5a2-4504-ab5f-b3dc7c0f0bea" x1="154.29" y1="557.19" x2="157.51" y2="563.5"/></g><path class="uuid-53cbd553-6925-4261-892e-503624ed011f" d="m245.96,586.54c-.21.07-5.45.56-5.62.5-2.11-.68-.82-10.51,2.89-21.95,3.71-11.44,8.43-20.16,10.54-19.47.1.03,4.15,3.73,4.23,3.8,1.73,1.42-9.72,36.37-12.03,37.12h0Z"/><ellipse class="uuid-d76bb13e-79ef-4d22-868e-758f3fc81ba4" cx="252" cy="567.93" rx="19.46" ry="4.02" transform="translate(-365.96 632.55) rotate(-72.04)"/><g><path class="uuid-53cbd553-6925-4261-892e-503624ed011f" d="m152.45,436.42s.66-2.76,1.4-5.54,1.09-4.12,1.09-4.12c0,0-5.88-2.19-9.8-3.46-3.92-1.27-6.41-1.17-9.39,1.94-2.97,3.11-15.92,22.72-15.92,22.72l15.96,5.17s5.87-11.48,7.58-14.75,3.7-3.7,9.07-1.96h0Z"/><path class="uuid-7ca8cd12-c4ef-474d-b7e8-9ac616bc8090" d="m152.45,436.42s.5-2.1,1.12-4.48c-2.12-.62-4.79-1.37-5.52-1.61-2.23-.72-4.92-2.05-9.31,5.29-3.09,5.15-7.16,11.9-9.31,15.45h0l6.37,2.06s5.87-11.48,7.58-14.75c1.71-3.27,3.7-3.7,9.07-1.96Z"/></g><g><path class="uuid-53cbd553-6925-4261-892e-503624ed011f" d="m194.13,449.15s.25-2.82,1.22-4.81c1.13-2.3,2.73-3.64,2.73-3.64,0,0,24.75,7.78,28.66,9.04,3.92,1.27,5.88,2.81,6.46,7.08s-.43,27.74-.43,27.74l-15.96-5.17s1.99-12.74,2.51-16.4c.24-1.66.18-2.89-.46-3.9-.31-.49-.76-.93-1.38-1.34-.91-.6-21.63-8.04-23.37-8.61h0Z"/><path class="uuid-7ca8cd12-c4ef-474d-b7e8-9ac616bc8090" d="m233.21,456.83c-.58-4.26-2.55-5.81-6.46-7.08l-1.83-.59c7.01,2.27,2.46,33.66,2.46,33.66l5.4,1.75s1.02-23.47.43-27.74h0Z"/><path class="uuid-7ca8cd12-c4ef-474d-b7e8-9ac616bc8090" d="m218.87,459.1c.39.62.55,1.34.57,2.18.05-2.37-.14-7.25-2.42-7.99-2.34-.76-16.13-5.17-22.32-7.15-.43,1.56-.56,3.02-.56,3.02,1.74.56,22.46,8,23.37,8.61.62.41,1.07.85,1.38,1.34h0Z"/></g></g></g></g></svg>
<svg id="uuid-a434a263-1d52-419b-9f08-c2e050f7b089" data-name="BODY" xmlns="http://www.w3.org/2000/svg" viewBox="0 0 600 600"><defs><style>
      .uuid-3fe757a2-f884-4021-8b90-a2fb836a0d83 {
        fill: #7aa6ff;
      }

      .uuid-3fe757a2-f884-4021-8b90-a2fb836a0d83, .uuid-0535e5fd-e169-42bb-9b3a-04ea61531b11, .uuid-b5b40eee-3492-4a40-8cdf-74f0932ec0ba, .uuid-813fd1ba-5c6f-412d-b3d0-bab0da44157c {
        stroke: #000;
        stroke-linecap: round;
        stroke-linejoin: round;
        stroke-width: 2px;
      }

      .uuid-0535e5fd-e169-42bb-9b3a-04ea61531b11 {
        fill: #ffc9f1;
      }

      .uuid-b5b40eee-3492-4a40-8cdf-74f0932ec0ba {
        fill: none;
      }

      .uuid-813fd1ba-5c6f-412d-b3d0-bab0da44157c {
        fill: #f9a723;
      }
    </style></defs><g id="uuid-4d71603c-b588-4e7e-bdcb-85f6e7a816db" data-name="uuid-e739bccc-2d2c-4a63-b977-7b31664c2716"><g id="uuid-63e5130d-7ae7-4f0d-8331-573e75af8b15" data-name="uuid-af806a75-da6f-4a25-9368-44a11c35c8fd"><g><path class="uuid-3fe757a2-f884-4021-8b90-a2fb836a0d83" d="m494.29,225.3c-2.32-.72-4.21,6.13-13.6,5.3-9.38-.83-9.83-5.81-9.83-5.81,0,0-5.94-3.89-2.62-11.49-1.79-7.91,2.19-10.35,3.32-20.49.45-4.02-4.6-11.68-14.43-22.02s-36.38-40.72-39.7-44.94c.77-3.06,2.78-5.7,2.78-5.7l8.76,8.43-9.24-20.82s2.25-3.06,4.07-3.83c2.68,6.03,18.96,38.92,18.96,38.92l-9.94-38.92,5.94-2.65,2.23,7.34,3.89-1.15-.51-2.68,5.23-2.62-.57-6.13s4.4-3.13,6.83-3.83c-.19,3.26,1.72,14.36,1.72,14.36,0,0,1.34-14.68,1.85-17.62,2.04-.89,7.02-.32,7.02-.32l-1.34,6.77,6.51,1.66-.67-10.88,8.36-.32s1.44,31.05,5.01,44.71c-1.66-19.53-.51-49.28-.51-49.28l9.26,1.53s-.45,6.89-.32,13.28c2.3-.13,5.68-.57,5.68-.57,0,0,.89,9.83,1.28,13.91,1.79-9.7,4.09-16.28,4.09-16.28l7.02,2.62s3.26-8.36,6.89-12.32c2.43,1.91,5.23,4.15,5.23,4.15,0,0-3.19,5.81-4.53,9,2.36,1.02,5.43,2.87,5.43,2.87,0,0,1.28-2.65,2.78-4.12,1.85,1.05,4.15,3.19,4.15,3.19,0,0-5.33,11.39-8.78,23.55,8.04-17.14,17.14-25.66,17.14-25.66l4.6,4.31s-11.87,11.2-22.98,39.35c-11.11,28.15-13.24,43.12-13.63,46.44s8.68,7.79,7.66,17.62c6.45,6.7-.19,13.34-.19,13.34,0,0-2.68,13.28-20.3,7.79h0Z"/><g><path class="uuid-b5b40eee-3492-4a40-8cdf-74f0932ec0ba" d="m482.13,224.79c4.71-1.23,10.45-8.61,9.8-7.79-1.18,1.48,6,2.6,12.21,2.29"/><path class="uuid-b5b40eee-3492-4a40-8cdf-74f0932ec0ba" d="m477.18,211.73s4.95,6.82,15.21,5.21c8.12-1.27,10.2-9,10.2-9"/><path class="uuid-b5b40eee-3492-4a40-8cdf-74f0932ec0ba" d="m508.23,211.03s-9.22,7.59-15.6,7.24-4.79.13-4.79.13c0,0-5.33,2.44-10.27,1.43"/></g><path class="uuid-813fd1ba-5c6f-412d-b3d0-bab0da44157c" d="m485.92,216.91s2.23,6.29,2.49,12.99-.51,23.59,5.14,41.68c5.65,18.1,6,39.32,6,39.32,0,0,4.59,1.38,8.25,4.84,2.54-3.11,5.38-4.92,5.38-4.92,0,0,.25-16.84-4.6-25.52-4.85-8.68-8.23-33.54-8.14-47.43s-.29-17.01-2.49-22.72c-1.28.61-3.86,1.63-6.03,1.85-3.89.4-6-.1-6-.1h0Z"/><path class="uuid-813fd1ba-5c6f-412d-b3d0-bab0da44157c" d="m508.18,326.79s2.21,2.33,6.18,3.14c-5.99,8.88-1.02,12.88,2.29,14.51-6.85,3.78-9.87,14.07,3.82,18.76,3.11,10.72.18,14.84,4.65,27.8s7.15,12.83,8.55,22.34,3.26,18.83,3.64,21.19.96,9.77-8.55,9.77-10.79-4.66-11.3-7.21-.32-17.94-1.6-26.04c-1.28-8.11-4.18-11.04-6.94-25.47-2.76-14.43-1.74-19.28-3.4-27.38s-1.25-18.81-4.85-27.12c5.47-.35,7.52-4.29,7.52-4.29h0Z"/><path class="uuid-b5b40eee-3492-4a40-8cdf-74f0932ec0ba" d="m537.47,435.69c-.61-3.66-4.22-2.37-6.86-.77-6.94,4.21-13.43,2.37-11.31,6.28"/><path class="uuid-b5b40eee-3492-4a40-8cdf-74f0932ec0ba" d="m523.85,443.76c5.23.94,9.61-3.48,9.39-4.75s-6.34,1.51-6.34,1.51"/><path class="uuid-b5b40eee-3492-4a40-8cdf-74f0932ec0ba" d="m531.13,434.62s-2.88-21.15-3.78-25.42c-.89-4.28-6.7-18-6.7-18"/><path class="uuid-b5b40eee-3492-4a40-8cdf-74f0932ec0ba" d="m518.73,385.19c-2.87-10.4-3.06-23.58-3.06-23.58"/><path class="uuid-b5b40eee-3492-4a40-8cdf-74f0932ec0ba" d="m523.85,437.62c-.33-14.06-2.69-29.95-2.69-29.95"/><path class="uuid-b5b40eee-3492-4a40-8cdf-74f0932ec0ba" d="m519.5,400.96c-2.81-8.43-4.98-10.15-7.02-21.83-2.04-11.68-2.23-23.36-2.94-30.83-.7-7.47-2.67-19.17-2.67-19.17"/><path class="uuid-b5b40eee-3492-4a40-8cdf-74f0932ec0ba" d="m503.75,312.45c.33-14.07-4.11-34.08-4.11-34.08"/><path class="uuid-b5b40eee-3492-4a40-8cdf-74f0932ec0ba" d="m505.65,277.64c1.3,12.7,3.81,35.61,3.81,35.61"/><path class="uuid-b5b40eee-3492-4a40-8cdf-74f0932ec0ba" d="m498.15,271c-2.01-9.86-3.73-13.12-4.12-21.26-.35-7.43.56-20.8-2.41-32.72"/><g><path class="uuid-b5b40eee-3492-4a40-8cdf-74f0932ec0ba" d="m440.99,108.62c3.34,13.07,11.99,43.41,16.25,53.29"/><path class="uuid-b5b40eee-3492-4a40-8cdf-74f0932ec0ba" d="m428.97,128.58c4.73,11.1,9.01,19.81,12.02,24.4"/><path class="uuid-b5b40eee-3492-4a40-8cdf-74f0932ec0ba" d="m442.76,142.85c4.42,7.61,13.36,18.27,18.74,24.15,5.39,5.88,15.92,18.49,16.9,21.43.98,2.94-2.94,8.2-2.2,15.67"/><path class="uuid-b5b40eee-3492-4a40-8cdf-74f0932ec0ba" d="m482.93,200.18c-1.96-4.29-.24-15.06-.61-16.53s-19.49-42.63-24.74-77.07"/><path class="uuid-b5b40eee-3492-4a40-8cdf-74f0932ec0ba" d="m465.12,95.41c-2.1,8.11,2.94,28.41,9.31,50.93,6.37,22.52,11.5,38.08,11.5,38.08"/><path class="uuid-b5b40eee-3492-4a40-8cdf-74f0932ec0ba" d="m484.33,130.58c.91,18.43,5.52,49.55,7.29,53.84,1.77,4.3,3.4,2.67,4.44,11.71"/><path class="uuid-b5b40eee-3492-4a40-8cdf-74f0932ec0ba" d="m503.61,201.61c.44-9.78-5.78-15.41-6.52-19.56s-4.68-64.61-4.34-85.94"/><path class="uuid-b5b40eee-3492-4a40-8cdf-74f0932ec0ba" d="m499.71,109.45c-3.36,15.55-5.34,33.4-5.34,33.4"/><path class="uuid-b5b40eee-3492-4a40-8cdf-74f0932ec0ba" d="m510.82,95.79c-6.76,15.29-8.98,41.66-8.54,51.88s-2.57,34.97-2.57,34.97"/><path class="uuid-b5b40eee-3492-4a40-8cdf-74f0932ec0ba" d="m521.99,122.12c-13.19,30.3-19.71,60.52-19.71,60.52"/><path class="uuid-b5b40eee-3492-4a40-8cdf-74f0932ec0ba" d="m523.84,99.49c-9.56,16.47-14.45,41.29-14.45,41.29"/><path class="uuid-b5b40eee-3492-4a40-8cdf-74f0932ec0ba" d="m518.41,96.62c-10.8,24.68-8.44,56.1-12.06,70.04"/><path class="uuid-b5b40eee-3492-4a40-8cdf-74f0932ec0ba" d="m471.63,97.07c1.07,20.23,4.06,54.19,7.75,66.29"/><path class="uuid-b5b40eee-3492-4a40-8cdf-74f0932ec0ba" d="m449.61,102.17c3.9,28.91,18.97,72.4,25.67,81.36"/><path class="uuid-b5b40eee-3492-4a40-8cdf-74f0932ec0ba" d="m444.88,107.47c4.22,17.93,18.31,61.4,18.31,61.4"/><path class="uuid-b5b40eee-3492-4a40-8cdf-74f0932ec0ba" d="m514.58,217.51c-2.72,2.32-5.81,1.7-5.81,1.7"/><path class="uuid-b5b40eee-3492-4a40-8cdf-74f0932ec0ba" d="m470.86,224.79c3.39,2.38,8.02,1.15,8.02,1.15"/><path class="uuid-b5b40eee-3492-4a40-8cdf-74f0932ec0ba" d="m468.24,213.3c.83,3.06,4.92,5.1,4.92,5.1"/><path class="uuid-b5b40eee-3492-4a40-8cdf-74f0932ec0ba" d="m514.78,204.17c-.72,1.71-2.33,3.46-2.33,3.46"/></g><path class="uuid-0535e5fd-e169-42bb-9b3a-04ea61531b11" d="m470.71,197.7s-3.87.25-4.06-4.68c-.19-4.93,2.75-10.33,21.6-12.32,18.86-1.99,23.81,2.18,24.26,5.31.44,3.13-1.69,6.44-1.69,6.44,0,0-3.14-3.27-3.61-5.05-22.88-2.09-32.37,2.81-35.64,5.41,0,0-.25,2.65-.86,4.89h0Z"/></g></g></g></svg>
<svg id="uuid-3a22222a-91dc-4434-a149-49d55022cbcf" data-name="BODY" xmlns="http://www.w3.org/2000/svg" viewBox="0 0 600 600"><defs><style>
      .uuid-81b9137b-6e77-4105-992a-21a6bf7dc6a9 {
        fill: #ff78d8;
      }

      .uuid-81b9137b-6e77-4105-992a-21a6bf7dc6a9, .uuid-dea7dc62-0969-4776-9594-8652b65f45ad, .uuid-8e15d984-f7ee-4776-b0a0-64c6f2a9e680, .uuid-5ac0a83f-ec38-4ce8-901c-84c045b3027e {
        stroke: #000;
        stroke-linecap: round;
        stroke-linejoin: round;
        stroke-width: 2px;
      }

      .uuid-dea7dc62-0969-4776-9594-8652b65f45ad {
        fill: #fff7f0;
      }

      .uuid-8e15d984-f7ee-4776-b0a0-64c6f2a9e680 {
        fill: #ffc9f1;
      }

      .uuid-5ac0a83f-ec38-4ce8-901c-84c045b3027e {
        fill: none;
      }
    </style></defs><g id="uuid-0b894ece-50c7-46f6-887d-6da90b41c0b7" data-name="uuid-a79c3b85-ceb5-4869-af4e-3ef8c358c94a"><g><path class="uuid-dea7dc62-0969-4776-9594-8652b65f45ad" d="m266.47,268.22s36.84-4.53,78.13-19.67c41.29-15.14,43.72-36.8,43.72-36.8l-21.86-22.35s-13.97,11.49-47.77,23.5c-33.8,12.01-56.27,15.91-56.27,15.91l4.05,39.41h0Z"/><path class="uuid-81b9137b-6e77-4105-992a-21a6bf7dc6a9" d="m418.14,277.2c2.62,10.88,11.01,10.17,20.02,19.85,0,0,.3,16.32-2.68,30.16,0,0,6.41-2.49,9.54-6.99-2.35,7.23-7.92,13-7.92,13,0,0,10.12-.56,20.32-11.82,10.2-11.27,10.62-24.26,4.05-34.18-6.57-9.92-7.12-9.78-7.82-12.43-.7-2.65-1.12-7.68-1.26-20.68-.14-12.99-3.21-20.12-12.99-29.34-9.78-9.22-19.84-21.51-19.84-21.51,0,0,15.37-5.59,16.62-22.77-9.78,5.17-20.98,7.57-45.44-6.22-24.47-13.79-47.96-32.43-95.72-31.65-47.77.78-67.18,26.99-67.18,26.99,0,0-28.13,2.72-51.25,25.05-23.12,22.33-14.18,41.16-20.59,55.34-6.41,14.17-17.48,13.01-20.97,33.59-3.5,20.58,11.07,39.42-3.11,48.35-14.17,8.93-21.94-2.52-21.94-2.52,0,0-2.36,26.47,28.91,20.78,6.96,7.82,21.61,4.26,25.87-6.4,1.42,14.78-5.16,19.07-13.05,17.93,18.26,13.08,31.33.09,31.33.09,0,0,9.82.98,16.85-9.3,7.03-10.27,2.97-20.52,2.97-20.52,0,0,6.4,8.67,16.63,10.52,4.83,15.64,21.46,23.88,21.46,23.88,0,0-10.57-20.38-3.48-39.66,8.31-22.6,24.94-19.76,30.77-36.53,5.83-16.77.43-32.12,1.56-52.88,4.12,13.08,14.29,29.28,18.09,46.34s-1.03,22.88-1.03,22.88c0,0,13.65-.14,17.91-20.75,4.26-20.61-9.81-41.79-10.23-60.27,0,0,17.77-4.26,37.67-12.65,19.9-8.39,29.14-17.48,29.14-17.48,0,0,9.24,3.27,17.06,31.84,7.82,28.57,13.95,48.18,39.74,49.96h0Z"/><g><path class="uuid-5ac0a83f-ec38-4ce8-901c-84c045b3027e" d="m183.05,361.82c5.14-4.86,4.82-16.12,4.82-16.12"/><path class="uuid-5ac0a83f-ec38-4ce8-901c-84c045b3027e" d="m138.9,350.19c9.44-2.34,13.94-11.95,13.94-11.95"/><path class="uuid-5ac0a83f-ec38-4ce8-901c-84c045b3027e" d="m164.77,343.8c-.49-12.04-12.07-25-10.81-45.4,1.26-20.4,32.11-27.19,32.11-49.86"/><path class="uuid-5ac0a83f-ec38-4ce8-901c-84c045b3027e" d="m202.86,332c-14.65-19.23-9.07-40.31,1.3-51.68"/><path class="uuid-5ac0a83f-ec38-4ce8-901c-84c045b3027e" d="m219.49,342.52c-5.63-17.59-7.73-37.87-1.1-53.06,6.63-15.19,17.29-8.24,21.01-28.92,3.72-20.68-10.34-31.83,10.99-52.52"/><path class="uuid-5ac0a83f-ec38-4ce8-901c-84c045b3027e" d="m269.81,237.34c-4.12-14.55,2.11-26.58,7.07-30.7"/><path class="uuid-5ac0a83f-ec38-4ce8-901c-84c045b3027e" d="m294.54,225.54c-.78-12.46,14.5-31.41,37.67-12.65-.89-27.03,23.19-21.23,29.14-17.48"/><path class="uuid-5ac0a83f-ec38-4ce8-901c-84c045b3027e" d="m332.21,212.89s-9.38-22.08-44.31-34.1c-27.53-9.48-51.73-10.75-60.05-9.17"/><path class="uuid-5ac0a83f-ec38-4ce8-901c-84c045b3027e" d="m283.41,177.3c2.32-17.76,24.03-21.21,24.03-21.21"/><path class="uuid-5ac0a83f-ec38-4ce8-901c-84c045b3027e" d="m315.55,193.47c-.38-13.96,11.11-21.86,20.74-23.73"/><path class="uuid-5ac0a83f-ec38-4ce8-901c-84c045b3027e" d="m257.62,171.07c-22.01.62-58.98,11.83-65.86,49.06"/><path class="uuid-5ac0a83f-ec38-4ce8-901c-84c045b3027e" d="m305.44,186.67c-13.07-3.06-35.41,6.06-35.41,6.06"/><path class="uuid-5ac0a83f-ec38-4ce8-901c-84c045b3027e" d="m390.63,203.42c17.2,14.07,6.68,41.93,22.03,53.59,15.35,11.66,23.92-1.23,23.92-1.23,0,0,2.2,21.1-18.44,21.43"/><path class="uuid-5ac0a83f-ec38-4ce8-901c-84c045b3027e" d="m455.14,277.94c-8.47-13.12-13.42-22.43-14.37-34.13"/><path class="uuid-5ac0a83f-ec38-4ce8-901c-84c045b3027e" d="m438.16,297.05c5.26,6.27,9.65,12.93,6.86,23.17"/><path class="uuid-5ac0a83f-ec38-4ce8-901c-84c045b3027e" d="m419.57,203.26c-10.17,3.12-19.41-2.74-19.41-2.74"/></g><path class="uuid-8e15d984-f7ee-4776-b0a0-64c6f2a9e680" d="m343.96,237.73s5.18-3.78,5.82-11.16c.64-7.39-10.03-8.7-11.31-2.48-7.2-2.9-13.15,4.95-6.29,9.69,5.84,4.04,11.78,3.95,11.78,3.95Z"/></g></g></svg>
</svg>