<?xml version="1.0" encoding="UTF-8"?>
<svg xmlns="http://www.w3.org/2000/svg" viewBox="0 0 600 600">
<svg id="uuid-76576d14-1db9-41e1-baf2-b575b174d48a" data-name="BACKGROUND" xmlns="http://www.w3.org/2000/svg" viewBox="0 0 600 600"><defs><style>
      .uuid-5f5134e1-be85-4028-9053-a97aa84d746d {
        fill: #f9a723;
      }
    </style></defs><rect class="uuid-5f5134e1-be85-4028-9053-a97aa84d746d" x="-1" y="-1" width="602" height="602"/></svg>
<svg id="uuid-bf7e525a-b2c7-4020-b508-877bdc0406a4" data-name="BACKGROUND" xmlns="http://www.w3.org/2000/svg" viewBox="0 0 600 600"><defs><style>
      .uuid-cae8e451-3158-423f-a4c4-142cfa64fc2f, .uuid-53b0b6c2-e2af-4a69-8394-836df11b181d {
        fill: #fff;
      }

      .uuid-6c565652-73da-4adf-a499-bd10556ab125, .uuid-53b0b6c2-e2af-4a69-8394-836df11b181d, .uuid-effa0351-bd28-4c1f-8e0f-0367a45f08e0, .uuid-be033c18-bf35-4c17-9e62-8709a499cbd0, .uuid-cd2bf4ed-c472-45eb-b36b-e9e8eed1b636, .uuid-2f2a2fea-5687-4202-a45d-609c70a3635c, .uuid-f9183db0-afbe-438e-8497-494846bbd113 {
        stroke: #000;
        stroke-width: 2px;
      }

      .uuid-6c565652-73da-4adf-a499-bd10556ab125, .uuid-53b0b6c2-e2af-4a69-8394-836df11b181d, .uuid-cd2bf4ed-c472-45eb-b36b-e9e8eed1b636, .uuid-2f2a2fea-5687-4202-a45d-609c70a3635c {
        stroke-miterlimit: 10;
      }

      .uuid-6c565652-73da-4adf-a499-bd10556ab125, .uuid-effa0351-bd28-4c1f-8e0f-0367a45f08e0, .uuid-cd2bf4ed-c472-45eb-b36b-e9e8eed1b636, .uuid-f9183db0-afbe-438e-8497-494846bbd113 {
        fill: #ff78d8;
      }

      .uuid-53b0b6c2-e2af-4a69-8394-836df11b181d, .uuid-effa0351-bd28-4c1f-8e0f-0367a45f08e0, .uuid-be033c18-bf35-4c17-9e62-8709a499cbd0, .uuid-cd2bf4ed-c472-45eb-b36b-e9e8eed1b636, .uuid-2f2a2fea-5687-4202-a45d-609c70a3635c {
        stroke-linecap: round;
      }

      .uuid-effa0351-bd28-4c1f-8e0f-0367a45f08e0, .uuid-be033c18-bf35-4c17-9e62-8709a499cbd0, .uuid-f9183db0-afbe-438e-8497-494846bbd113 {
        stroke-linejoin: round;
      }

      .uuid-be033c18-bf35-4c17-9e62-8709a499cbd0 {
        fill: none;
      }

      .uuid-2f2a2fea-5687-4202-a45d-609c70a3635c {
        fill: #3ef1ff;
      }
    </style></defs><path class="uuid-effa0351-bd28-4c1f-8e0f-0367a45f08e0" d="m409.81,359.6c9.2,3.77,29.89,12.05,42.79,16.03,2.11.65,4.41.69,6.5-.04,11.79-4.08,28.47-11.39,33.03-11.32,5.25.08,7.8,3.93,19.88,2.04,13.36-2.1,22.43-11.99,20.93-23.3-4.21-43.28-25.18-26.79-25.18-26.79,0,0-5.84-8.75-18.76-4.82-11.83,3.6-10.2,14.44-6.47,22.47l-25.29,8.58c-2.14.72-4.45.71-6.59-.02l-35.7-12.61"/><path class="uuid-cd2bf4ed-c472-45eb-b36b-e9e8eed1b636" d="m533.36,312.82c2.5,3.94,1.62,9.14-1.57,12.4-2.47,2.53-5.88,3.88-9.32,4.4-2.8.43-5.7.42-8.49-.08-2.14-.39-4.29-1.1-5.79-2.75-1.66-1.83-2.27-4.46-1.98-6.87.51-4.17,3.84-7.14,7.22-9.26,3.17-1.98,6.86-3.26,10.64-3.09,3.8.18,7.36,2.19,9.3,5.24Z"/><path class="uuid-cd2bf4ed-c472-45eb-b36b-e9e8eed1b636" d="m538.57,349.84c.97,3.03.32,6.43-1.5,9.01-3.77,5.33-11.17,5.65-16.96,4.27-3.31-.79-6.69-2.21-8.67-5.13-3.13-4.61-.82-9.79,3.48-12.56,2.58-1.66,5.61-2.67,8.63-3.14,5.73-.89,13.1,1.51,15.03,7.56Z"/><path class="uuid-cd2bf4ed-c472-45eb-b36b-e9e8eed1b636" d="m538.71,328.53c1.8,2.99,2.06,6.89.22,9.9-1.95,3.2-4.94,5.25-8.49,6.28-3.66,1.07-7.64,1.27-11.4.44-2.25-.5-4.53-1.38-5.96-3.28-1.86-2.47-1.89-5.68-.85-8.49,1.2-3.24,4.17-5.69,7.09-7.37,6.15-3.56,15.21-4.43,19.39,2.52Z"/><path class="uuid-cd2bf4ed-c472-45eb-b36b-e9e8eed1b636" d="m501.85,311.68s9.27,3.84,7.77,12.02c-1.04,5.68-8.17,9.55-14.94,6.13"/><path class="uuid-be033c18-bf35-4c17-9e62-8709a499cbd0" d="m500.67,331.08c2.41,1.63,5.11,8.04,3.4,14.42"/><path d="m443.44,339.88c-2.88,10.58-6.94,20.23-11.17,28.59-10.17-3.78-21.16-9.53-27-11.93l11.83-26.02,26.35,9.36Z"/><ellipse cx="300" cy="518.65" rx="138.6" ry="22.93"/><path class="uuid-6c565652-73da-4adf-a499-bd10556ab125" d="m319.36,427.14c-1.16,1.05-54.95,57-54.95,57,0,0,21.51-1.95,31.74,10.62,10.23,12.57,7.26,23.89,7.26,23.89h-66.9s-28.69-36.17-28.69-36.17c0,0,3.74-13.4,20.44-10.59,20.9-19.38,55.52-59.13,55.52-59.13l35.59,14.38Z"/><path d="m283.78,412.76l31.28,12.64-3.24,9.5c-2.93,3.03-9.76,10.12-13.64,14.14-11.92,0-27.98-2.13-41.33-6.37,13.95-15.1,26.93-29.92,26.93-29.92Z"/><path class="uuid-6c565652-73da-4adf-a499-bd10556ab125" d="m354.45,173.54l-.11.27-174.2,58.29c-11.49,20.13-18.05,43.43-18.05,68.27,0,76.2,61.77,137.98,137.97,137.98s137.98-61.77,137.98-137.98c0-56.89-34.43-105.72-83.58-126.83Z"/><path class="uuid-be033c18-bf35-4c17-9e62-8709a499cbd0" d="m264.41,484.14c-4.06.49-11.49,1.36-17.85,7.23"/><path class="uuid-cae8e451-3158-423f-a4c4-142cfa64fc2f" d="m185.17,308.14c-4.41,0-7.98-3.57-7.98-7.98,0-67.74,55.11-122.86,122.86-122.86,4.41,0,7.98,3.57,7.98,7.98s-3.57,7.98-7.98,7.98c-58.94,0-106.9,47.95-106.9,106.9,0,4.41-3.57,7.98-7.98,7.98Z"/><path d="m203.75,397.46l34.2-27.46-24.86,36.3c-6.73-5.1-3.66-2.61-9.34-8.83Z"/><path class="uuid-f9183db0-afbe-438e-8497-494846bbd113" d="m323.72,387.31c19.14-13.4,39.15-11.3,55.52,7.36,19.6,22.35,30.57,33.06,30.57,33.06,0,0,10.74-19.34,34.77-17.5,18.26,1.4,24.84,14.43,24.84,14.43,0,0,6.21,8.82-22.45,33.5-28.66,24.68-54.93,40.92-61.14,29.46-6.21-11.46-2.82-32.1-2.82-32.1,0,0-22.02-26.09-27.94-32.01-6.79-6.79-15.71-1.36-15.71-1.36"/><path class="uuid-6c565652-73da-4adf-a499-bd10556ab125" d="m446.97,458.17c-25.89,22.29-49.82,37.69-58.79,32.02-9.77-7.44,26.84-38.54,44.88-52.7,18.04-14.16,32.17-17.82,36.36-12.81,0,0,6.21,8.82-22.45,33.5Z"/><path class="uuid-be033c18-bf35-4c17-9e62-8709a499cbd0" d="m409.81,427.74c-1.89,2.86-4.55,10.38-4.55,10.38"/><ellipse class="uuid-53b0b6c2-e2af-4a69-8394-836df11b181d" cx="269.41" cy="209.07" rx="94.9" ry="26.25" transform="translate(-52.5 96.54) rotate(-18.55)"/><ellipse class="uuid-2f2a2fea-5687-4202-a45d-609c70a3635c" cx="269.41" cy="209.07" rx="71.19" ry="13.32" transform="translate(-52.5 96.54) rotate(-18.55)"/><g><path class="uuid-effa0351-bd28-4c1f-8e0f-0367a45f08e0" d="m214.11,345.7c-8.05,5.83-25.34,20.79-35.52,29.67-1.67,1.45-2.82,3.41-3.39,5.55-3.14,11.67-8.55,33.44-8.55,33.44,0,0-8.42.58-12.19,14.35-3.64,13.3-6.64,25.06,3.77,29.75.35,7.47,7.51,15.45,19.2,9.41.14-.06,1.32,1.32,1.44,1.45,2.64,2.7,6.36,4.45,10.13,4.81,3.65.36,7.61-.67,10.43-3.08,3.29-2.81,5.4-6.94,6.05-11.2.4-2.61.26-5.31-.75-7.78,0,0,6.2-2.51,8.05-11.34,1.99-9.49-4.22-19.42-14.62-18.18l6.17-23.11c.51-2.2,1.74-4.16,3.49-5.59l29.38-24.3"/><path class="uuid-be033c18-bf35-4c17-9e62-8709a499cbd0" d="m204.73,452.06c-1.37-3.47-5.39-7.08-9-6.88"/><path class="uuid-be033c18-bf35-4c17-9e62-8709a499cbd0" d="m178.86,469.3c-5.16-5.27-3.82-11.97-2.9-13.54"/><path class="uuid-be033c18-bf35-4c17-9e62-8709a499cbd0" d="m158.22,458.45c-.27-5.22.73-7.32,3.06-9.83"/><path class="uuid-be033c18-bf35-4c17-9e62-8709a499cbd0" d="m193.93,450.63c.14-2.07.48-4.16,1.32-6.06.85-1.95,2.36-3.88,4.31-4.85"/></g></svg>
<svg id="uuid-175be159-db61-4df5-a3ec-4e569af78a21" data-name="BODY" xmlns="http://www.w3.org/2000/svg" viewBox="0 0 600 600"><defs><style>
      .uuid-cb5ad370-d590-4d84-8471-319d1a4c5aa5 {
        fill: none;
        stroke: #000;
        stroke-linecap: round;
        stroke-linejoin: round;
        stroke-width: 4px;
      }
    </style></defs><g id="uuid-13c94933-b88a-4a0e-9bd5-264a3853387a" data-name="expressions"><g id="uuid-006bcb9c-427f-47d9-92c9-0f51d1e9073c" data-name="mouth"><circle cx="362.12" cy="293.18" r="9.78" transform="translate(-9.59 12.26) rotate(-1.91)"/></g><g id="uuid-aa5f76af-2ff8-4e7f-a2a4-73d690451a8d" data-name="eye L"><circle cx="337.63" cy="273.96" r="9.78" transform="translate(-8.96 11.43) rotate(-1.91)"/></g><g id="uuid-4d2b7d8b-0a30-48e5-b672-08579e330a1a" data-name="eye R"><polyline class="uuid-cb5ad370-d590-4d84-8471-319d1a4c5aa5" points="374.33 254.17 360.69 266.02 379.28 264.87"/></g></g></svg>
<svg id="uuid-0aa8c587-996b-4cdc-8f6f-9857078d28d3" data-name="BODY" xmlns="http://www.w3.org/2000/svg" viewBox="0 0 600 600"><defs><style>
      .uuid-5c1aa41b-276d-47a9-975e-6b51258e34fd {
        fill: #7aa6ff;
      }

      .uuid-5c1aa41b-276d-47a9-975e-6b51258e34fd, .uuid-5420853f-4843-434c-aead-428453da705c, .uuid-98d20c01-64f9-488a-bda2-9c627608ef99 {
        stroke: #000;
        stroke-linecap: round;
        stroke-linejoin: round;
        stroke-width: 2px;
      }

      .uuid-5420853f-4843-434c-aead-428453da705c {
        fill: none;
      }

      .uuid-98d20c01-64f9-488a-bda2-9c627608ef99 {
        fill: #f9a723;
      }
    </style></defs><g id="uuid-efe03c10-21e9-40e1-b362-43562c7320e3" data-name="uuid-3374edde-7b2c-4e71-84a6-3cb653058dc6"><g id="uuid-7e5c48c3-5d6e-4296-9f6a-e6035b6c477a" data-name="uuid-298fa604-3857-4000-a4c4-1a509c9ef803"><g><path class="uuid-5c1aa41b-276d-47a9-975e-6b51258e34fd" d="m244.59,514.46s8.09-20.22,26.83-20.22c15.1,0,19.01,7.06,19.01,7.06,0,0,3.03-5.94,8.09-9.18,0,0-4.15-7.58-14.26-9.3l-1.73,1.91s-6.97-5.35-23.92-2.28c-16.95,3.07-28.51,21.15-28.51,21.15l.92,8.35,4.39,6.42,9.18-3.89v-.02Z"/><path class="uuid-98d20c01-64f9-488a-bda2-9c627608ef99" d="m209.84,478.1l27.45,34.51c.93,1.16,2.33,1.84,3.82,1.84h61.66c1.79,0,3.24,1.45,3.24,3.24v4.45c0,1.79-1.45,3.24-3.24,3.24h-64.92c-3.9,0-7.59-1.79-10-4.85l-26.47-32.68c-.89-1.1-.9-2.68-.02-3.79l4.63-5.81c.91-1.33,2.85-1.41,3.86-.14h0Z"/><path class="uuid-5420853f-4843-434c-aead-428453da705c" d="m282.53,484.72c2.44,1.78,6.89,7.45,7.9,16.57,2.33,5.28,2.33,13.17,2.33,13.17"/></g><g><path class="uuid-5c1aa41b-276d-47a9-975e-6b51258e34fd" d="m405.26,457.42s-8.33-22.95,12.28-44.49c4.45-4.65,15.27-6.57,24.17-6.37,0,0-25.89,17.7-19.96,39.81l-16.49,11.06h0Z"/><path class="uuid-98d20c01-64f9-488a-bda2-9c627608ef99" d="m382.22,485.43c.29,4,3.37,8.75,9.54,9.05s18.87-1.74,46.41-24.52c27.54-22.78,37.32-34.79,34.59-45.81-2.73-11.02-15.88-8.29-29.33,0-13.45,8.29-23.24,15.87-39.34,30.44-15.19,13.75-22.52,21.98-21.88,30.84h0Z"/><path class="uuid-5420853f-4843-434c-aead-428453da705c" d="m472.87,430.86c1.07-6.88-12.92-14.11-52.29,20.95-38.8,34.55-33.55,42.06-30.93,42.38"/><path class="uuid-5420853f-4843-434c-aead-428453da705c" d="m395.95,488.37c1.88,1.93,15.96-4.79,39.42-24.07,23.46-19.28,33.17-30.27,31.28-32.36s-10.79-2.61-41.12,23.75c-30.33,26.36-31.35,30.85-29.58,32.67h0Z"/><path class="uuid-5420853f-4843-434c-aead-428453da705c" d="m441.71,406.56c12.54-.01,17.04,10.85,17.04,10.85"/></g></g></g></svg>
<svg id="uuid-1814dd4d-896f-43a9-8cc5-9df7690e94a2" data-name="BACKGROUND" xmlns="http://www.w3.org/2000/svg" viewBox="0 0 600 600"><defs><style>
      .uuid-3be35196-23eb-415c-bbdf-01577589215b {
        fill: #ffff0d;
        stroke: #000;
        stroke-linecap: round;
        stroke-linejoin: round;
        stroke-width: 2px;
      }
    </style></defs><path class="uuid-3be35196-23eb-415c-bbdf-01577589215b" d="m375.86,319.37c-14.26,7.96-19.36,25.98-11.4,40.24,7.96,14.26,25.98,19.36,40.24,11.4,14.26-7.96,19.36-25.98,11.4-40.24-7.96-14.26-25.98-19.36-40.24-11.4Zm-.03,6.32l10.52,18.84-6.41,22.61c-4.44-2.08-8.29-5.52-10.86-10.12-6.02-10.78-2.93-24.18,6.75-31.33Zm9.99,43.35l4.79-16.89,8.69,15.57c-4.39,1.76-9.06,2.15-13.48,1.32Zm18.87-4.32l-8.9-15.94,17.51,4.1c-1.55,4.62-4.47,8.8-8.6,11.84Zm9.8-17.89l-22.77-5.34-10.5-18.81c11.18-4.52,24.23-.12,30.26,10.68,2.38,4.26,3.33,8.94,3.02,13.47Z"/><circle class="uuid-3be35196-23eb-415c-bbdf-01577589215b" cx="420.18" cy="318.72" r="8.31"/><circle class="uuid-3be35196-23eb-415c-bbdf-01577589215b" cx="436.89" cy="310.38" r="8.31"/><circle class="uuid-3be35196-23eb-415c-bbdf-01577589215b" cx="350.39" cy="343.04" r="8.31"/><circle class="uuid-3be35196-23eb-415c-bbdf-01577589215b" cx="332" cy="346.35" r="8.31"/><circle class="uuid-3be35196-23eb-415c-bbdf-01577589215b" cx="313.56" cy="349.17" r="8.31"/><circle class="uuid-3be35196-23eb-415c-bbdf-01577589215b" cx="295.1" cy="351.34" r="8.31"/><circle class="uuid-3be35196-23eb-415c-bbdf-01577589215b" cx="276.49" cy="352.43" r="8.31"/><circle class="uuid-3be35196-23eb-415c-bbdf-01577589215b" cx="257.85" cy="352.14" r="8.31"/><circle class="uuid-3be35196-23eb-415c-bbdf-01577589215b" cx="239.26" cy="352.14" r="8.31"/><circle class="uuid-3be35196-23eb-415c-bbdf-01577589215b" cx="220.83" cy="349.72" r="8.31"/><circle class="uuid-3be35196-23eb-415c-bbdf-01577589215b" cx="202.35" cy="347.91" r="8.31"/><circle class="uuid-3be35196-23eb-415c-bbdf-01577589215b" cx="184.1" cy="344.29" r="8.31"/><circle class="uuid-3be35196-23eb-415c-bbdf-01577589215b" cx="165.96" cy="340.27" r="8.31"/></svg>
<svg id="uuid-55ecc028-236b-4107-a473-b463f673f86d" data-name="BODY" xmlns="http://www.w3.org/2000/svg" xmlns:xlink="http://www.w3.org/1999/xlink" viewBox="0 0 600 600"><defs><style>
      .uuid-f7cf47f1-387c-40c0-8451-efa3e1f48bb3, .uuid-6ab753ec-842d-4635-8bda-4f11118cf21d, .uuid-e45dda09-b6fd-469a-8eb9-5847bc51013b, .uuid-b4015b0b-b5a2-4504-ab5f-b3dc7c0f0bea, .uuid-b1a063f9-d398-49ac-8717-dedd55fd17c7 {
        fill: none;
      }

      .uuid-6ab753ec-842d-4635-8bda-4f11118cf21d {
        clip-path: url(#uuid-cd30974c-211b-420c-b621-0d4b41918d4b);
      }

      .uuid-e45dda09-b6fd-469a-8eb9-5847bc51013b {
        clip-path: url(#uuid-0ad76e5b-fc91-46c9-818d-ed4d146208f8);
      }

      .uuid-8a193521-0ef5-4407-9ee8-bb4ebcd57992, .uuid-acba282c-cbdd-4fe6-aee3-1b2aaa578edb, .uuid-d76bb13e-79ef-4d22-868e-758f3fc81ba4, .uuid-7ca8cd12-c4ef-474d-b7e8-9ac616bc8090, .uuid-53cbd553-6925-4261-892e-503624ed011f, .uuid-8318a3fb-8d6a-4db7-b071-a15a473496d3, .uuid-93feedb8-91e3-42a2-bd0a-197c246fdb2b, .uuid-aa1376c1-8f7a-4198-be7e-f0dfeb7eba4b, .uuid-b4015b0b-b5a2-4504-ab5f-b3dc7c0f0bea, .uuid-b1a063f9-d398-49ac-8717-dedd55fd17c7 {
        stroke: #000;
        stroke-linecap: round;
        stroke-linejoin: round;
      }

      .uuid-8a193521-0ef5-4407-9ee8-bb4ebcd57992, .uuid-acba282c-cbdd-4fe6-aee3-1b2aaa578edb, .uuid-124c2ab5-3017-4aff-88c5-916403019659 {
        fill: #7aa6ff;
      }

      .uuid-8a193521-0ef5-4407-9ee8-bb4ebcd57992, .uuid-7ca8cd12-c4ef-474d-b7e8-9ac616bc8090, .uuid-53cbd553-6925-4261-892e-503624ed011f, .uuid-93feedb8-91e3-42a2-bd0a-197c246fdb2b, .uuid-b4015b0b-b5a2-4504-ab5f-b3dc7c0f0bea {
        stroke-width: 2px;
      }

      .uuid-acba282c-cbdd-4fe6-aee3-1b2aaa578edb, .uuid-8318a3fb-8d6a-4db7-b071-a15a473496d3, .uuid-aa1376c1-8f7a-4198-be7e-f0dfeb7eba4b, .uuid-b1a063f9-d398-49ac-8717-dedd55fd17c7 {
        stroke-width: 2px;
      }

      .uuid-d76bb13e-79ef-4d22-868e-758f3fc81ba4 {
        stroke-width: 2px;
      }

      .uuid-d76bb13e-79ef-4d22-868e-758f3fc81ba4, .uuid-7ca8cd12-c4ef-474d-b7e8-9ac616bc8090 {
        fill: #8400ff;
      }

      .uuid-66f64252-28db-40bd-8f2c-f28f22893256 {
        fill: #fff7f0;
      }

      .uuid-53cbd553-6925-4261-892e-503624ed011f, .uuid-8318a3fb-8d6a-4db7-b071-a15a473496d3 {
        fill: #a07bff;
      }

      .uuid-93feedb8-91e3-42a2-bd0a-197c246fdb2b, .uuid-aa1376c1-8f7a-4198-be7e-f0dfeb7eba4b {
        fill: #00dfa9;
      }
    </style><clipPath id="uuid-0ad76e5b-fc91-46c9-818d-ed4d146208f8"><rect class="uuid-f7cf47f1-387c-40c0-8451-efa3e1f48bb3" x="16.46" y="333.04" width="288" height="266.96"/></clipPath><clipPath id="uuid-cd30974c-211b-420c-b621-0d4b41918d4b"><rect class="uuid-f7cf47f1-387c-40c0-8451-efa3e1f48bb3" x="184.41" y="448.21" width="13.5" height="71.81" transform="translate(-328.3 516.71) rotate(-72.04)"/></clipPath></defs><g id="uuid-c271d4e6-0ed9-43ec-a6eb-586182258769" data-name="uuid-aa1a3761-725c-4c6a-bb08-3b927dabb1b6"><g class="uuid-e45dda09-b6fd-469a-8eb9-5847bc51013b"><g><g><polygon class="uuid-8a193521-0ef5-4407-9ee8-bb4ebcd57992" points="91.61 442.3 86.94 440.79 114.36 362.08 115.56 362.47 91.61 442.3"/><circle class="uuid-8a193521-0ef5-4407-9ee8-bb4ebcd57992" cx="114.96" cy="362.27" r="3.66"/></g><g><path class="uuid-53cbd553-6925-4261-892e-503624ed011f" d="m250.78,490.94l-162.48-40.18c-2.64-.86-5.48.59-6.33,3.23l-6.05,18.67c-.86,2.64.59,5.48,3.23,6.33l168.95,54.76c2.64.86,5.48-.59,6.33-3.23l6.05-18.67c.45-1.38.27-2.81-.38-3.98-.6-1.08-8.05-16.51-9.32-16.92h0Z"/><path class="uuid-aa1376c1-8f7a-4198-be7e-f0dfeb7eba4b" d="m80.92,435.35l167.79,54.38c2.96.96,4.58,4.14,3.62,7.1l-7.41,22.87-178.52-57.86,7.41-22.87c.96-2.96,4.14-4.58,7.1-3.62Z"/><g><polygon class="uuid-53cbd553-6925-4261-892e-503624ed011f" points="144.41 476.06 94.59 459.91 105.57 449.28 155.39 465.42 144.41 476.06"/><g><line class="uuid-b4015b0b-b5a2-4504-ab5f-b3dc7c0f0bea" x1="126.49" y1="470.25" x2="137.47" y2="459.61"/><line class="uuid-b4015b0b-b5a2-4504-ab5f-b3dc7c0f0bea" x1="119.33" y1="467.93" x2="130.31" y2="457.3"/><line class="uuid-b4015b0b-b5a2-4504-ab5f-b3dc7c0f0bea" x1="112.52" y1="465.72" x2="123.5" y2="455.09"/></g></g><g><rect class="uuid-124c2ab5-3017-4aff-88c5-916403019659" x="184.41" y="448.21" width="13.5" height="71.81" transform="translate(-328.3 516.71) rotate(-72.04)"/><g class="uuid-6ab753ec-842d-4635-8bda-4f11118cf21d"><g><polygon class="uuid-66f64252-28db-40bd-8f2c-f28f22893256" points="210.04 497.33 194.4 492.26 205.38 481.62 221.02 486.69 210.04 497.33"/><polygon class="uuid-66f64252-28db-40bd-8f2c-f28f22893256" points="187.58 490.05 179.76 487.51 190.74 476.88 198.56 479.41 187.58 490.05"/><polygon class="uuid-66f64252-28db-40bd-8f2c-f28f22893256" points="165.85 483 161.25 481.51 172.23 470.88 176.83 472.37 165.85 483"/></g></g><rect class="uuid-b1a063f9-d398-49ac-8717-dedd55fd17c7" x="184.41" y="448.21" width="13.5" height="71.81" transform="translate(-328.3 516.71) rotate(-72.04)"/></g><g><line class="uuid-b4015b0b-b5a2-4504-ab5f-b3dc7c0f0bea" x1="78.63" y1="440.55" x2="93.51" y2="445.37"/><line class="uuid-b4015b0b-b5a2-4504-ab5f-b3dc7c0f0bea" x1="74.47" y1="453.39" x2="89.35" y2="458.21"/><line class="uuid-b4015b0b-b5a2-4504-ab5f-b3dc7c0f0bea" x1="76.55" y1="446.97" x2="91.43" y2="451.79"/></g><g><line class="uuid-b4015b0b-b5a2-4504-ab5f-b3dc7c0f0bea" x1="232.2" y1="490.32" x2="247.07" y2="495.14"/><line class="uuid-b4015b0b-b5a2-4504-ab5f-b3dc7c0f0bea" x1="228.03" y1="503.16" x2="242.91" y2="507.98"/><line class="uuid-b4015b0b-b5a2-4504-ab5f-b3dc7c0f0bea" x1="230.12" y1="496.74" x2="244.99" y2="501.56"/></g></g><g><path class="uuid-7ca8cd12-c4ef-474d-b7e8-9ac616bc8090" d="m232.92,608.52l-188.32-61.03c-.83-.27-1.47-.85-1.83-1.56s-6.8-12.03-6.53-12.86l30.07-62.74c.54-1.65,2.31-2.56,3.96-2.02l183.3,49.39c.76.25,6.38,12.41,6.76,13.05.44.75.57,1.67.28,2.56l-23.72,73.19c-.54,1.65-2.31,2.56-3.96,2.02h0Z"/><rect class="uuid-8318a3fb-8d6a-4db7-b071-a15a473496d3" x="103.55" y="423.69" width="83.23" height="204.26" rx="3.15" ry="3.15" transform="translate(-399.79 501.8) rotate(-72.04)"/><line class="uuid-b4015b0b-b5a2-4504-ab5f-b3dc7c0f0bea" x1="235.39" y1="608.29" x2="228.96" y2="595.7"/></g><g><circle class="uuid-8a193521-0ef5-4407-9ee8-bb4ebcd57992" cx="85.25" cy="506.4" r="31.66"/><circle class="uuid-93feedb8-91e3-42a2-bd0a-197c246fdb2b" cx="85.25" cy="506.4" r="24.87"/><circle class="uuid-b4015b0b-b5a2-4504-ab5f-b3dc7c0f0bea" cx="86.2" cy="506.71" r="19.13"/><circle class="uuid-7ca8cd12-c4ef-474d-b7e8-9ac616bc8090" cx="87.39" cy="507.09" r="6.32"/></g><g><circle class="uuid-8a193521-0ef5-4407-9ee8-bb4ebcd57992" cx="203.53" cy="544.73" r="31.66"/><circle class="uuid-93feedb8-91e3-42a2-bd0a-197c246fdb2b" cx="203.53" cy="544.73" r="24.87"/><circle class="uuid-b4015b0b-b5a2-4504-ab5f-b3dc7c0f0bea" cx="204.48" cy="545.04" r="19.13"/><circle class="uuid-7ca8cd12-c4ef-474d-b7e8-9ac616bc8090" cx="205.67" cy="545.43" r="6.32"/></g><g><g><rect class="uuid-b1a063f9-d398-49ac-8717-dedd55fd17c7" x="148.01" y="499.61" width="7.15" height="12.83" transform="translate(-376.53 494.21) rotate(-72.04)"/><circle class="uuid-b4015b0b-b5a2-4504-ab5f-b3dc7c0f0bea" cx="138.27" cy="501.71" r="3.57"/><circle class="uuid-b4015b0b-b5a2-4504-ab5f-b3dc7c0f0bea" cx="164.89" cy="510.34" r="3.57"/></g><rect class="uuid-b1a063f9-d398-49ac-8717-dedd55fd17c7" x="138.18" y="482.66" width="26.81" height="46.72" rx="3.97" ry="3.97" transform="translate(-376.53 494.21) rotate(-72.04)"/></g><g><polygon class="uuid-7ca8cd12-c4ef-474d-b7e8-9ac616bc8090" points="157.51 563.5 113.06 549.1 109.84 542.79 121.33 523.59 162.56 531.69 165.78 538 157.51 563.5"/><rect class="uuid-acba282c-cbdd-4fe6-aee3-1b2aaa578edb" x="122.8" y="513.88" width="26.81" height="46.72" transform="translate(-416.86 501.17) rotate(-72.04)"/><polyline class="uuid-b4015b0b-b5a2-4504-ab5f-b3dc7c0f0bea" points="127.51 553.78 124.28 547.45 132.54 521.96"/><polyline class="uuid-b4015b0b-b5a2-4504-ab5f-b3dc7c0f0bea" points="142.78 558.73 139.55 552.4 147.81 526.91"/><line class="uuid-b4015b0b-b5a2-4504-ab5f-b3dc7c0f0bea" x1="154.29" y1="557.19" x2="157.51" y2="563.5"/></g><path class="uuid-53cbd553-6925-4261-892e-503624ed011f" d="m245.96,586.54c-.21.07-5.45.56-5.62.5-2.11-.68-.82-10.51,2.89-21.95,3.71-11.44,8.43-20.16,10.54-19.47.1.03,4.15,3.73,4.23,3.8,1.73,1.42-9.72,36.37-12.03,37.12h0Z"/><ellipse class="uuid-d76bb13e-79ef-4d22-868e-758f3fc81ba4" cx="252" cy="567.93" rx="19.46" ry="4.02" transform="translate(-365.96 632.55) rotate(-72.04)"/><g><path class="uuid-53cbd553-6925-4261-892e-503624ed011f" d="m152.45,436.42s.66-2.76,1.4-5.54,1.09-4.12,1.09-4.12c0,0-5.88-2.19-9.8-3.46-3.92-1.27-6.41-1.17-9.39,1.94-2.97,3.11-15.92,22.72-15.92,22.72l15.96,5.17s5.87-11.48,7.58-14.75,3.7-3.7,9.07-1.96h0Z"/><path class="uuid-7ca8cd12-c4ef-474d-b7e8-9ac616bc8090" d="m152.45,436.42s.5-2.1,1.12-4.48c-2.12-.62-4.79-1.37-5.52-1.61-2.23-.72-4.92-2.05-9.31,5.29-3.09,5.15-7.16,11.9-9.31,15.45h0l6.37,2.06s5.87-11.48,7.58-14.75c1.71-3.27,3.7-3.7,9.07-1.96Z"/></g><g><path class="uuid-53cbd553-6925-4261-892e-503624ed011f" d="m194.13,449.15s.25-2.82,1.22-4.81c1.13-2.3,2.73-3.64,2.73-3.64,0,0,24.75,7.78,28.66,9.04,3.92,1.27,5.88,2.81,6.46,7.08s-.43,27.74-.43,27.74l-15.96-5.17s1.99-12.74,2.51-16.4c.24-1.66.18-2.89-.46-3.9-.31-.49-.76-.93-1.38-1.34-.91-.6-21.63-8.04-23.37-8.61h0Z"/><path class="uuid-7ca8cd12-c4ef-474d-b7e8-9ac616bc8090" d="m233.21,456.83c-.58-4.26-2.55-5.81-6.46-7.08l-1.83-.59c7.01,2.27,2.46,33.66,2.46,33.66l5.4,1.75s1.02-23.47.43-27.74h0Z"/><path class="uuid-7ca8cd12-c4ef-474d-b7e8-9ac616bc8090" d="m218.87,459.1c.39.62.55,1.34.57,2.18.05-2.37-.14-7.25-2.42-7.99-2.34-.76-16.13-5.17-22.32-7.15-.43,1.56-.56,3.02-.56,3.02,1.74.56,22.46,8,23.37,8.61.62.41,1.07.85,1.38,1.34h0Z"/></g></g></g></g></svg>
<svg id="uuid-31565581-ca35-4969-9fd9-2072ce3d5031" data-name="BODY" xmlns="http://www.w3.org/2000/svg" viewBox="0 0 600 600"><defs><style>
      .uuid-d4efb741-f39c-4175-b36e-70da4e900c2a, .uuid-3a137114-0556-47bf-93c9-8d0537e58240 {
        fill: #7aa6ff;
      }

      .uuid-d4efb741-f39c-4175-b36e-70da4e900c2a, .uuid-3a137114-0556-47bf-93c9-8d0537e58240, .uuid-531241c1-13d8-410f-8dae-5bbada850f92, .uuid-1ab6c91c-7253-4ddf-ba98-d52b746628c1 {
        stroke: #000;
      }

      .uuid-d4efb741-f39c-4175-b36e-70da4e900c2a, .uuid-3a137114-0556-47bf-93c9-8d0537e58240, .uuid-531241c1-13d8-410f-8dae-5bbada850f92, .uuid-1ab6c91c-7253-4ddf-ba98-d52b746628c1, .uuid-ea35ab45-f2e3-4af5-9339-ec8c6da7eb39 {
        stroke-linecap: round;
        stroke-linejoin: round;
      }

      .uuid-d4efb741-f39c-4175-b36e-70da4e900c2a, .uuid-ea35ab45-f2e3-4af5-9339-ec8c6da7eb39 {
        stroke-width: 2px;
      }

      .uuid-3a137114-0556-47bf-93c9-8d0537e58240, .uuid-531241c1-13d8-410f-8dae-5bbada850f92, .uuid-1ab6c91c-7253-4ddf-ba98-d52b746628c1 {
        stroke-width: 2px;
      }

      .uuid-f5a6b52d-8cd9-4c8e-a14f-48a216007033 {
        fill: #f9a723;
      }

      .uuid-531241c1-13d8-410f-8dae-5bbada850f92 {
        fill: #fff7f0;
      }

      .uuid-1ab6c91c-7253-4ddf-ba98-d52b746628c1, .uuid-ea35ab45-f2e3-4af5-9339-ec8c6da7eb39 {
        fill: none;
      }

      .uuid-ea35ab45-f2e3-4af5-9339-ec8c6da7eb39 {
        stroke: #fff7f0;
      }
    </style></defs><g id="uuid-aa7dba29-6ee3-4191-9f6e-7d10b3fc19a7" data-name="uuid-cd416942-12e2-43f8-ae4e-d1c982c2d506"><g id="uuid-4128828c-817e-4372-b2c1-ac0ca83248cd" data-name="uuid-e8dcef20-5373-46c6-a16e-3fce2f927a1d"><g><rect class="uuid-d4efb741-f39c-4175-b36e-70da4e900c2a" x="480.68" y="291.97" width="80.06" height="93.21" transform="translate(-73.13 156.57) rotate(-15.99)"/><path class="uuid-3a137114-0556-47bf-93c9-8d0537e58240" d="m542.62,274.42c-6.78,3.79-15.92,7.76-36.39,13.63-20.47,5.87-30.32,7.34-38.08,7.71-7.76.38-8.71,12.78,1.28,14.22,7.73,1.12,18.56-.94,40.98-7.37,22.42-6.43,32.69-10.41,38.66-15.46,7.71-6.52.33-16.53-6.45-12.74h0Z"/><path class="uuid-3a137114-0556-47bf-93c9-8d0537e58240" d="m569.05,366.62c-6.78,3.79-15.92,7.76-36.39,13.63-20.47,5.87-30.32,7.34-38.08,7.71-7.76.38-8.71,12.78,1.28,14.22,7.73,1.12,18.56-.94,40.98-7.37,22.42-6.43,32.69-10.41,38.66-15.46,7.71-6.52.33-16.53-6.45-12.74h0Z"/><g><path class="uuid-f5a6b52d-8cd9-4c8e-a14f-48a216007033" d="m486.94,341.06s11.2,39.72,11.61,40.52,11.47.62,32.91-5.53c21.44-6.14,30.7-12.7,30.7-12.7l-11.61-40.52s-10.6-10.3-31.05-2.37c-16.78,6.51-14.91,13.92-32.56,20.6h0Z"/><circle class="uuid-f5a6b52d-8cd9-4c8e-a14f-48a216007033" cx="487.35" cy="330.31" r="3.44"/><circle class="uuid-f5a6b52d-8cd9-4c8e-a14f-48a216007033" cx="498.45" cy="322.54" r="6.14"/></g><g><rect class="uuid-ea35ab45-f2e3-4af5-9339-ec8c6da7eb39" x="495.42" y="313.65" width="12.23" height="64.13" rx="5.89" ry="5.89" transform="translate(-75.84 151.56) rotate(-15.99)"/><path class="uuid-ea35ab45-f2e3-4af5-9339-ec8c6da7eb39" d="m540.54,302.41h.44c3.25,0,5.89,2.64,5.89,5.89v52.35c0,3.25-2.64,5.89-5.89,5.89h-.44c-3.25,0-5.89-2.64-5.89-5.89v-52.35c0-3.25,2.64-5.89,5.89-5.89Z" transform="translate(-71.22 161.94) rotate(-15.99)"/><rect class="uuid-ea35ab45-f2e3-4af5-9339-ec8c6da7eb39" x="515.47" y="309.56" width="12.23" height="64.13" rx="5.89" ry="5.89" transform="translate(-73.94 156.93) rotate(-15.99)"/></g><g><path class="uuid-531241c1-13d8-410f-8dae-5bbada850f92" d="m463.03,298.89s-9.81-7.17.75-13.67c-4.98-5.29.9-8.2.9-8.2,0,0-1.5-13.45,14-8.16-.68-13.69,21.13-17.59,26.88-8.49,0,0,10.14-13.09,20.77-1.37,6.73-6.18,14.47-2.24,13.93,5.63,10.37-4.43,21.14,10.51,15.39,16.97,6.02,8.12,2.04,15.31-.64,16.52l6.2,21.62c2.02,7.03-4.01,9.2-7.81,9.46-3.8.25-8.01-4.14-10.65-12.56s-3.91-11.84-3.91-11.84c0,0-7.19.96-9.32-5.09s-6.56-7.97-6.56-7.97c0,0-9.06,8.57-15.89-.82-.61,5.05-11.29,6.31-11.29,6.31,0,0,3.26,7.56-2.89,10.41l4.32,15.06c1.08,3.77.05,8.84-5.08,9.71s-7.49-9.89-9.77-17.79c-2.27-7.9-3.04-10.6-3.04-10.6,0,0-8.22,3.16-10.7-8.29,0,0-3.89-.26-5.59,3.15h0Z"/><g><path class="uuid-1ab6c91c-7253-4ddf-ba98-d52b746628c1" d="m474.9,288.6s-.02-4.01,4.55-5.86c4.57-1.85,5.96.57,5.96.57,0,0,5.52-7.71,11.1-.9"/><path class="uuid-1ab6c91c-7253-4ddf-ba98-d52b746628c1" d="m496.79,265.33s6.93-10.33,16.76-.55"/><path class="uuid-1ab6c91c-7253-4ddf-ba98-d52b746628c1" d="m525.32,273.53s9.89-3.61,10.32,7.24"/><path class="uuid-1ab6c91c-7253-4ddf-ba98-d52b746628c1" d="m478.68,268.86c.09,2.66.61,4.23.61,4.23"/><path class="uuid-1ab6c91c-7253-4ddf-ba98-d52b746628c1" d="m464.67,277.01c1.72-.8,3.61-1.03,3.61-1.03"/></g></g></g></g></g></svg>
</svg>