<?xml version="1.0" encoding="UTF-8"?>
<svg xmlns="http://www.w3.org/2000/svg" viewBox="0 0 600 600">
<svg id="uuid-bc87ee82-23c3-4279-b438-811e43660712" data-name="BACKGROUND" xmlns="http://www.w3.org/2000/svg" viewBox="0 0 600 600"><defs><style>
      .uuid-52f0bbd2-4e52-45a8-8be3-bbbf1043e893 {
        fill: #a07bff;
      }
    </style></defs><rect class="uuid-52f0bbd2-4e52-45a8-8be3-bbbf1043e893" x="-1" y="-1" width="602" height="602"/></svg>
<svg id="uuid-0a627572-8e49-4d41-b604-6d2cd0d32bdd" data-name="BODY" xmlns="http://www.w3.org/2000/svg" viewBox="0 0 600 600"><defs><style>
      .uuid-20245732-3cad-49d1-ac97-e0ac388550f3 {
        fill: #fff;
      }

      .uuid-f38a32ef-6172-45e7-957b-e89bf9d272a0, .uuid-07c074c9-1e26-4335-be01-1bb5dda577de, .uuid-890e0c82-6af4-45ed-921b-f8a5d79130b7, .uuid-0a238a3f-afd5-43e5-94a8-dd2acee1bcef, .uuid-d5e4c988-c233-4e82-9835-ea21972592ad {
        stroke: #000;
        stroke-width: 2px;
      }

      .uuid-f38a32ef-6172-45e7-957b-e89bf9d272a0, .uuid-07c074c9-1e26-4335-be01-1bb5dda577de, .uuid-0a238a3f-afd5-43e5-94a8-dd2acee1bcef, .uuid-d5e4c988-c233-4e82-9835-ea21972592ad {
        fill: #9dff0c;
      }

      .uuid-f38a32ef-6172-45e7-957b-e89bf9d272a0, .uuid-0a238a3f-afd5-43e5-94a8-dd2acee1bcef {
        stroke-miterlimit: 10;
      }

      .uuid-07c074c9-1e26-4335-be01-1bb5dda577de, .uuid-890e0c82-6af4-45ed-921b-f8a5d79130b7, .uuid-0a238a3f-afd5-43e5-94a8-dd2acee1bcef {
        stroke-linecap: round;
      }

      .uuid-07c074c9-1e26-4335-be01-1bb5dda577de, .uuid-890e0c82-6af4-45ed-921b-f8a5d79130b7, .uuid-d5e4c988-c233-4e82-9835-ea21972592ad {
        stroke-linejoin: round;
      }

      .uuid-890e0c82-6af4-45ed-921b-f8a5d79130b7 {
        fill: none;
      }
    </style></defs><ellipse cx="300" cy="518.65" rx="138.6" ry="22.93"/><g><path class="uuid-f38a32ef-6172-45e7-957b-e89bf9d272a0" d="m319.36,427.14c-1.16,1.05-54.95,57-54.95,57,0,0,21.51-1.95,31.74,10.62,10.23,12.57,7.26,23.89,7.26,23.89h-66.9s-28.69-36.17-28.69-36.17c0,0,3.74-13.4,20.44-10.59,20.9-19.38,55.52-59.13,55.52-59.13l35.59,14.38Z"/><path d="m283.78,412.76l31.28,12.64-3.24,9.5c-2.93,3.03-9.76,10.12-13.64,14.14-11.92,0-27.98-2.13-41.33-6.37,13.95-15.1,26.93-29.92,26.93-29.92Z"/></g><g><path class="uuid-07c074c9-1e26-4335-be01-1bb5dda577de" d="m409.81,359.6c9.2,3.77,29.89,12.05,42.79,16.03,2.11.65,4.41.69,6.5-.04,11.79-4.08,28.47-11.39,33.03-11.32,5.25.08,7.8,3.93,19.88,2.04,13.36-2.1,22.43-11.99,20.93-23.3-4.21-43.28-25.18-26.79-25.18-26.79,0,0-5.84-8.75-18.76-4.82-11.83,3.6-10.2,14.44-6.47,22.47l-25.29,8.58c-2.14.72-4.45.71-6.59-.02l-35.7-12.61"/><path class="uuid-0a238a3f-afd5-43e5-94a8-dd2acee1bcef" d="m533.36,312.82c2.5,3.94,1.62,9.14-1.57,12.4-2.47,2.53-5.88,3.88-9.32,4.4-2.8.43-5.7.42-8.49-.08-2.14-.39-4.29-1.1-5.79-2.75-1.66-1.83-2.27-4.46-1.98-6.87.51-4.17,3.84-7.14,7.22-9.26,3.17-1.98,6.86-3.26,10.64-3.09,3.8.18,7.36,2.19,9.3,5.24Z"/><path class="uuid-0a238a3f-afd5-43e5-94a8-dd2acee1bcef" d="m538.57,349.84c.97,3.03.32,6.43-1.5,9.01-3.77,5.33-11.17,5.65-16.96,4.27-3.31-.79-6.69-2.21-8.67-5.13-3.13-4.61-.82-9.79,3.48-12.56,2.58-1.66,5.61-2.67,8.63-3.14,5.73-.89,13.1,1.51,15.03,7.56Z"/><path class="uuid-0a238a3f-afd5-43e5-94a8-dd2acee1bcef" d="m538.71,328.53c1.8,2.99,2.06,6.89.22,9.9-1.95,3.2-4.94,5.25-8.49,6.28-3.66,1.07-7.64,1.27-11.4.44-2.25-.5-4.53-1.38-5.96-3.28-1.86-2.47-1.89-5.68-.85-8.49,1.2-3.24,4.17-5.69,7.09-7.37,6.15-3.56,15.21-4.43,19.39,2.52Z"/><path class="uuid-0a238a3f-afd5-43e5-94a8-dd2acee1bcef" d="m501.85,311.68s9.27,3.84,7.77,12.02c-1.04,5.68-8.17,9.55-14.94,6.13"/><path class="uuid-890e0c82-6af4-45ed-921b-f8a5d79130b7" d="m500.67,331.08c2.41,1.63,5.11,8.04,3.4,14.42"/></g><g><circle class="uuid-f38a32ef-6172-45e7-957b-e89bf9d272a0" cx="300" cy="300" r="138.16"/><path class="uuid-20245732-3cad-49d1-ac97-e0ac388550f3" d="m184.58,308.17c-4.41,0-7.98-3.57-7.98-7.98,0-67.74,55.11-122.86,122.86-122.86,4.41,0,7.98,3.57,7.98,7.98s-3.57,7.98-7.98,7.98c-58.94,0-106.9,47.95-106.9,106.9,0,4.41-3.57,7.98-7.98,7.98Z"/></g><path class="uuid-890e0c82-6af4-45ed-921b-f8a5d79130b7" d="m264.41,484.14c-4.06.49-11.49,1.36-17.85,7.23"/><path class="uuid-20245732-3cad-49d1-ac97-e0ac388550f3" d="m185.17,308.14c-4.41,0-7.98-3.57-7.98-7.98,0-67.74,55.11-122.86,122.86-122.86,4.41,0,7.98,3.57,7.98,7.98s-3.57,7.98-7.98,7.98c-58.94,0-106.9,47.95-106.9,106.9,0,4.41-3.57,7.98-7.98,7.98Z"/><path d="m203.75,397.46l34.2-27.46-24.86,36.3c-6.73-5.1-3.66-2.61-9.34-8.83Z"/><path class="uuid-d5e4c988-c233-4e82-9835-ea21972592ad" d="m323.72,387.31c19.14-13.4,39.15-11.3,55.52,7.36,19.6,22.35,30.57,33.06,30.57,33.06,0,0,10.74-19.34,34.77-17.5,18.26,1.4,24.84,14.43,24.84,14.43,0,0,6.21,8.82-22.45,33.5-28.66,24.68-54.93,40.92-61.14,29.46-6.21-11.46-2.82-32.1-2.82-32.1,0,0-22.02-26.09-27.94-32.01-6.79-6.79-15.71-1.36-15.71-1.36"/><path class="uuid-f38a32ef-6172-45e7-957b-e89bf9d272a0" d="m446.97,458.17c-25.89,22.29-49.82,37.69-58.79,32.02-9.77-7.44,26.84-38.54,44.88-52.7,18.04-14.16,32.17-17.82,36.36-12.81,0,0,6.21,8.82-22.45,33.5Z"/><path class="uuid-890e0c82-6af4-45ed-921b-f8a5d79130b7" d="m409.81,427.74c-1.89,2.86-4.55,10.38-4.55,10.38"/><g><path class="uuid-07c074c9-1e26-4335-be01-1bb5dda577de" d="m214.11,345.7c-8.05,5.83-25.34,20.79-35.52,29.67-1.67,1.45-2.82,3.41-3.39,5.55-3.14,11.67-8.55,33.44-8.55,33.44,0,0-8.42.58-12.19,14.35-3.64,13.3-6.64,25.06,3.77,29.75.35,7.47,7.51,15.45,19.2,9.41.14-.06,1.32,1.32,1.44,1.45,2.64,2.7,6.36,4.45,10.13,4.81,3.65.36,7.61-.67,10.43-3.08,3.29-2.81,5.4-6.94,6.05-11.2.4-2.61.26-5.31-.75-7.78,0,0,6.2-2.51,8.05-11.34,1.99-9.49-4.22-19.42-14.62-18.18l6.17-23.11c.51-2.2,1.74-4.16,3.49-5.59l29.38-24.3"/><path class="uuid-890e0c82-6af4-45ed-921b-f8a5d79130b7" d="m204.73,452.06c-1.37-3.47-5.39-7.08-9-6.88"/><path class="uuid-890e0c82-6af4-45ed-921b-f8a5d79130b7" d="m178.86,469.3c-5.16-5.27-3.82-11.97-2.9-13.54"/><path class="uuid-890e0c82-6af4-45ed-921b-f8a5d79130b7" d="m158.22,458.45c-.27-5.22.73-7.32,3.06-9.83"/><path class="uuid-890e0c82-6af4-45ed-921b-f8a5d79130b7" d="m193.93,450.63c.14-2.07.48-4.16,1.32-6.06.85-1.95,2.36-3.88,4.31-4.85"/></g></svg>
<svg id="uuid-175be159-db61-4df5-a3ec-4e569af78a21" data-name="BODY" xmlns="http://www.w3.org/2000/svg" viewBox="0 0 600 600"><defs><style>
      .uuid-cb5ad370-d590-4d84-8471-319d1a4c5aa5 {
        fill: none;
        stroke: #000;
        stroke-linecap: round;
        stroke-linejoin: round;
        stroke-width: 4px;
      }
    </style></defs><g id="uuid-13c94933-b88a-4a0e-9bd5-264a3853387a" data-name="expressions"><g id="uuid-006bcb9c-427f-47d9-92c9-0f51d1e9073c" data-name="mouth"><circle cx="362.12" cy="293.18" r="9.78" transform="translate(-9.59 12.26) rotate(-1.91)"/></g><g id="uuid-aa5f76af-2ff8-4e7f-a2a4-73d690451a8d" data-name="eye L"><circle cx="337.63" cy="273.96" r="9.78" transform="translate(-8.96 11.43) rotate(-1.91)"/></g><g id="uuid-4d2b7d8b-0a30-48e5-b672-08579e330a1a" data-name="eye R"><polyline class="uuid-cb5ad370-d590-4d84-8471-319d1a4c5aa5" points="374.33 254.17 360.69 266.02 379.28 264.87"/></g></g></svg>
<svg id="uuid-95b5227d-2769-4238-a500-dd358444bba0" data-name="BODY" xmlns="http://www.w3.org/2000/svg" viewBox="0 0 600 600"><defs><style>
      .uuid-254d1ac9-1134-416c-b624-beaaa8dc301f {
        fill: #7aa6ff;
      }

      .uuid-254d1ac9-1134-416c-b624-beaaa8dc301f, .uuid-428efed7-69bb-4902-ba4b-68e9e234b259, .uuid-a3189951-741a-4377-bc06-daef984417cb {
        stroke-width: 2px;
      }

      .uuid-254d1ac9-1134-416c-b624-beaaa8dc301f, .uuid-428efed7-69bb-4902-ba4b-68e9e234b259, .uuid-a3189951-741a-4377-bc06-daef984417cb, .uuid-15b1d1c2-0816-4703-a22f-7fb2bc142205 {
        stroke: #000;
        stroke-linecap: round;
        stroke-linejoin: round;
      }

      .uuid-428efed7-69bb-4902-ba4b-68e9e234b259 {
        fill: #fff7f0;
      }

      .uuid-a3189951-741a-4377-bc06-daef984417cb {
        fill: none;
      }

      .uuid-15b1d1c2-0816-4703-a22f-7fb2bc142205 {
        fill: #f9a723;
        stroke-width: 2px;
      }
    </style></defs><g id="uuid-35c559f7-0283-4aa7-9b92-d34f2741af7b" data-name="uuid-605b41a0-aa5b-46b1-a8cc-7a7388354e5f"><g><g><path class="uuid-254d1ac9-1134-416c-b624-beaaa8dc301f" d="m265.06,433.71l-12.83,13.93,24.11,24.11,32.61-33.86s-9.11-3.01-21.05-4.93c-11.93-1.92-22.84.76-22.84.76h0Z"/><path d="m283.78,412.76l31.28,12.64-3.24,9.5c-2.93,3.03-9.76,10.12-13.64,14.14-11.92,0-27.98-2.13-41.33-6.37,13.95-15.1,26.93-29.92,26.93-29.92h0Z"/><path class="uuid-254d1ac9-1134-416c-b624-beaaa8dc301f" d="m256.75,440.63c11.72,4.9,21.56,18.02,26.25,25.16,1.8,2.74,1.48,6.36-.78,8.74l-5.4,5.69c-1.18,1.24-2.92,1.77-4.59,1.4l-4.44-1,3.34-3.48s-8.51-18.01-24.06-24.06l-2.92,3.05-1.41-3.2c-.8-1.8-.42-3.91.94-5.33l5.18-5.38c2.04-2.12,5.18-2.73,7.89-1.6h0Z"/></g><g><path class="uuid-254d1ac9-1134-416c-b624-beaaa8dc301f" d="m195.72,360.99c-9.29-4.19-17.84-8.74-25.47-13.44,3.18,8.66,7.21,16.91,11.97,24.66l13.5-11.22h0Z"/><path class="uuid-254d1ac9-1134-416c-b624-beaaa8dc301f" d="m418.95,370.3c-24.03,7.71-48.97,5.83-75.98,8.83-39.41,8.01-77.99,4.3-111.27-5.07l-23.9,19.76c-1.62,1.34-2.78,3.14-3.33,5.17l-.18.65c24.83,23.86,58.55,38.52,95.7,38.52,20.42,0,39.8-4.45,57.24-12.4,0,0-.01.03-.01.03l10.9,12.33,27.36-25.36-6.48-7.1s-.02,0-.02,0c11.86-10,22.01-21.95,29.96-35.36h0Z"/></g><g><path class="uuid-428efed7-69bb-4902-ba4b-68e9e234b259" d="m203.69,354.36c-17.08-8.69-30-18.05-38.83-25.49,1.83,8.61,4.46,16.91,7.81,24.84,5.47,4.27,11.23,8.27,17.37,12l13.65-11.35Z"/><path class="uuid-428efed7-69bb-4902-ba4b-68e9e234b259" d="m342.98,379.13c-41.76,3.6-76.57-1.71-104.59-10.59l-15.49,12.81c24.69,8.91,54.95,14.31,93.96,15.13,0,0,9.76-15.82,28.03-17.52,18.89-1.76,28.81,10.15,28.81,10.15,0,0,26.43-3.81,42.25-13.99,4.66-7.17,8.68-14.8,11.96-22.81-22.27,15.48-52.65,24.04-84.93,26.82h0Z"/></g><path class="uuid-254d1ac9-1134-416c-b624-beaaa8dc301f" d="m363.75,435.78c5.95-11.23,22.62-22.64,30.16-26.66,2.9-1.55,6.47-.89,8.64,1.58l5.18,5.89c1.13,1.29,1.5,3.07.98,4.7l-1.2,4.15-3.35-3.46s-19.28,5.51-28.87,24.58l2.77,3.19-3.32,1.12c-1.87.63-3.93.07-5.22-1.43l-4.89-5.65c-1.93-2.23-2.25-5.4-.87-8.01h0Z"/><path class="uuid-254d1ac9-1134-416c-b624-beaaa8dc301f" d="m251.53,391.83l3.51-18.9c.48-2.58,2.98-4.26,5.55-3.73l5.12,1.06c1.43.3,2.64,1.24,3.27,2.56l1.72,3.58-4.74-.87-2.91,19.07"/><path class="uuid-254d1ac9-1134-416c-b624-beaaa8dc301f" d="m304.26,399.19l-.41-19.21c-.06-2.62,2.06-4.78,4.68-4.78h5.23c1.46,0,2.84.67,3.72,1.83l2.42,3.15-4.82.11,1.03,19.26"/><path class="uuid-254d1ac9-1134-416c-b624-beaaa8dc301f" d="m416.88,373.71l-4.03-12.57-3.04,1.52.44-3.75c.16-1.38.79-2.47,1.7-2.96l3.26-1.76c1.64-.88,3.68.41,4.53,2.87,0,0,1.79,5.26,2.48,7.39-2.03,4.03-5.35,9.26-5.35,9.26h0Z"/><path class="uuid-254d1ac9-1134-416c-b624-beaaa8dc301f" d="m182.89,364.72l6.4-18.43,2.98,1.81-.44-3.87c-.16-1.38-.79-2.47-1.7-2.96l-4.6-2.53c-1.64-.88-3.68.41-4.53,2.87,0,0-5.46,14.85-6.15,16.97"/><rect class="uuid-15b1d1c2-0816-4703-a22f-7fb2bc142205" x="373.04" y="367.45" width="29.72" height="22.05" rx="5.33" ry="5.33" transform="translate(-85.21 114.14) rotate(-15.1)"/><g><path class="uuid-a3189951-741a-4377-bc06-daef984417cb" d="m252.23,408.88s21.46,5.16,33.72-8.19"/><g><path d="m378.59,441.98c-.27,0-.53-.11-.73-.31l-2.75-2.91c-.38-.4-.36-1.03.04-1.41.4-.38,1.03-.36,1.41.04l2.75,2.91c.38.4.36,1.03-.04,1.41-.19.18-.44.27-.69.27h0Z"/><path d="m370.68,433.6c-.27,0-.53-.11-.73-.31l-2.75-2.91c-.38-.4-.36-1.03.04-1.41s1.03-.36,1.41.04l2.75,2.91c.38.4.36,1.03-.04,1.41-.19.18-.44.27-.69.27h0Z"/></g><path d="m375.6,422.97c-.28,0-.56-.12-.76-.34,0,0-1.36-1.57-3.3-3.78-.36-.42-.32-1.05.09-1.41.42-.36,1.05-.32,1.41.09,1.94,2.21,3.3,3.78,3.3,3.78.36.42.32,1.05-.1,1.41-.19.16-.42.25-.66.25h0Zm-6.61-7.55c-.28,0-.55-.11-.75-.34-1.1-1.24-2.23-2.52-3.32-3.74-.37-.41-.33-1.04.08-1.41.41-.37,1.04-.33,1.41.08,1.09,1.22,2.23,2.51,3.33,3.75.37.41.33,1.05-.09,1.41-.19.17-.43.25-.66.25h0Zm-6.68-7.47c-.27,0-.54-.11-.74-.32-.76-.83-1.41-1.53-1.91-2.04-.41-.43-.93-.85-1.53-1.27-.45-.31-.57-.94-.25-1.39.31-.45.94-.57,1.39-.25.71.49,1.32,1,1.82,1.52.51.52,1.18,1.24,1.95,2.08.37.41.35,1.04-.06,1.41-.19.18-.43.26-.68.26h0Zm-31.16-2.79c-.32,0-.64-.16-.83-.45-.31-.46-.18-1.08.28-1.39,1.21-.81,2.48-1.52,3.76-2.12.5-.23,1.1-.02,1.33.48.23.5.02,1.1-.48,1.33-1.19.56-2.37,1.22-3.5,1.97-.17.11-.36.17-.55.17h0Zm23.1-2.92c-.11,0-.23-.02-.34-.06-1.48-.54-3.04-.94-4.64-1.18-.55-.08-.92-.59-.84-1.14.08-.55.59-.92,1.14-.84,1.73.26,3.43.69,5.03,1.28.52.19.79.76.6,1.28-.15.41-.53.66-.94.66h0Zm-14.76-.79c-.45,0-.86-.31-.97-.76-.13-.54.2-1.08.73-1.21,1.68-.41,3.41-.66,5.14-.74.55-.02,1.02.4,1.04.96s-.4,1.02-.96,1.04c-1.6.07-3.2.3-4.75.68-.08.02-.16.03-.24.03h0Z"/><path d="m272.16,453c-.27,0-.54-.11-.74-.33-.37-.41-.34-1.04.07-1.41l3.71-3.36c.41-.37,1.04-.34,1.41.07.37.41.34,1.04-.07,1.41l-3.71,3.36c-.19.17-.43.26-.67.26h0Zm7.41-6.71c-.27,0-.54-.11-.74-.33-.37-.41-.34-1.04.07-1.41l3.71-3.36c.41-.37,1.04-.34,1.41.07.37.41.34,1.04-.07,1.41l-3.71,3.36c-.19.17-.43.26-.67.26h0Zm7.41-6.71c-.27,0-.54-.11-.74-.33-.37-.41-.34-1.04.07-1.41l1.02-.93c.41-.37,1.04-.34,1.41.07.37.41.34,1.04-.07,1.41l-1.02.93c-.19.17-.43.26-.67.26h0Z"/><path d="m256.35,459.55c-.26,0-.53-.1-.73-.31-.38-.4-.36-1.03.04-1.41l3.63-3.44c.4-.38,1.03-.36,1.41.04.38.4.36,1.03-.04,1.41l-3.63,3.44c-.19.18-.44.27-.69.27h0Zm7.26-6.88c-.26,0-.53-.1-.73-.31-.38-.4-.36-1.03.04-1.41l3.63-3.44c.4-.38,1.03-.36,1.41.04.38.4.36,1.03-.04,1.41l-3.63,3.44c-.19.18-.44.27-.69.27h0Z"/><path class="uuid-a3189951-741a-4377-bc06-daef984417cb" d="m357.23,425.79c-4.86-5.22-9.35-8.05-17.88-3.63"/><line class="uuid-a3189951-741a-4377-bc06-daef984417cb" x1="373.7" y1="389.11" x2="389.02" y2="405.66"/></g><path d="m236.76,369.41l-24.81,36.89c-6.13-4.65-8.2-5.86-6.62-10.11-.38-.43,31.43-26.78,31.43-26.78h0Z"/></g></g></svg>
<svg id="uuid-bbfc5714-a07f-4ed2-a2ae-a75a1c8ddb23" data-name="BACKGROUND" xmlns="http://www.w3.org/2000/svg" xmlns:xlink="http://www.w3.org/1999/xlink" viewBox="0 0 600 600"><defs><style>
      .uuid-08eaf8dc-2555-4283-9115-80242cf516c9, .uuid-8773bdbf-23e2-46c5-b3ad-728f1fbef747, .uuid-c214df15-a9c5-48c0-898e-25cf22a01c5e, .uuid-6bf34615-1e49-4ca3-bf4a-827b6d1e1cfd {
        fill: none;
      }

      .uuid-545d5178-3a1f-46af-8a38-748d65e48d6b, .uuid-9f5f1d58-6008-463e-b000-9cb1b84bcb97, .uuid-2133d2e9-8d48-44e4-89e8-f50a42b55b3e {
        fill: #7aa6ff;
      }

      .uuid-545d5178-3a1f-46af-8a38-748d65e48d6b, .uuid-9f5f1d58-6008-463e-b000-9cb1b84bcb97, .uuid-2133d2e9-8d48-44e4-89e8-f50a42b55b3e, .uuid-421abf4c-f4d5-449d-9744-aaea0c82c8f0, .uuid-1cb4b6aa-0185-4f5d-ab63-60d4b53520a0, .uuid-54716eaa-51a3-4dfb-83d5-e37685f4f2c8, .uuid-81dc3c24-ff02-4278-8860-175a7469acc9, .uuid-a9b20911-ecf8-4b3a-be78-aa8e8bc1e6e0, .uuid-c214df15-a9c5-48c0-898e-25cf22a01c5e, .uuid-35672045-d694-46b6-a49b-5b9f6527a252 {
        stroke: #000;
        stroke-linecap: round;
        stroke-linejoin: round;
      }

      .uuid-545d5178-3a1f-46af-8a38-748d65e48d6b, .uuid-421abf4c-f4d5-449d-9744-aaea0c82c8f0, .uuid-1cb4b6aa-0185-4f5d-ab63-60d4b53520a0, .uuid-a9b20911-ecf8-4b3a-be78-aa8e8bc1e6e0, .uuid-c214df15-a9c5-48c0-898e-25cf22a01c5e, .uuid-35672045-d694-46b6-a49b-5b9f6527a252 {
        stroke-width: 2px;
      }

      .uuid-9f5f1d58-6008-463e-b000-9cb1b84bcb97 {
        stroke-width: 2px;
      }

      .uuid-2133d2e9-8d48-44e4-89e8-f50a42b55b3e {
        stroke-width: 2px;
      }

      .uuid-f7558bdc-0f9a-4b81-b6fc-d589bca7cd91, .uuid-54716eaa-51a3-4dfb-83d5-e37685f4f2c8, .uuid-81dc3c24-ff02-4278-8860-175a7469acc9 {
        fill: #ff78d8;
      }

      .uuid-421abf4c-f4d5-449d-9744-aaea0c82c8f0 {
        fill: #cce0ff;
      }

      .uuid-8773bdbf-23e2-46c5-b3ad-728f1fbef747 {
        clip-path: url(#uuid-7ffd30b3-39c0-49a3-9f02-d49cf575aa5c);
      }

      .uuid-1cb4b6aa-0185-4f5d-ab63-60d4b53520a0 {
        fill: #a07bff;
      }

      .uuid-54716eaa-51a3-4dfb-83d5-e37685f4f2c8 {
        stroke-width: 2px;
      }

      .uuid-81dc3c24-ff02-4278-8860-175a7469acc9 {
        stroke-width: 2px;
      }

      .uuid-a9b20911-ecf8-4b3a-be78-aa8e8bc1e6e0 {
        fill: #fff7f0;
      }

      .uuid-35672045-d694-46b6-a49b-5b9f6527a252 {
        fill: #f9a723;
      }

      .uuid-6bf34615-1e49-4ca3-bf4a-827b6d1e1cfd {
        clip-path: url(#uuid-0b6c9727-112c-4767-b31d-4259cdf1b84f);
      }
    </style><clipPath id="uuid-0b6c9727-112c-4767-b31d-4259cdf1b84f"><path class="uuid-08eaf8dc-2555-4283-9115-80242cf516c9" d="m207.25,349.68l-27.2,23.05c-3,2.4-5.15,5.71-6.11,9.43l-8.11,31.33s-3.38.42-7.09,4.5c-3.66,4.02-41.44,11.33-62.67-2.22-21.24-13.55-16.99-80.29-2.22-96.07,14.76-15.78,47.11-10.11,47.11-10.11l66.3,40.1h0Zm31.03,20.24s-28.11,23.09-30,24.91c-1.89,1.82-3.01,4.97-3.46,6.62-.44,1.66-5.36,20.02-5.36,20.02,0,0,14.6.04,14.65,16.77.05,16.73,23.84,31.06,23.84,31.06h64.07l26.43-46.23-4.73-49.25-37.77-11.87-47.67,7.96h0Z"/></clipPath><clipPath id="uuid-7ffd30b3-39c0-49a3-9f02-d49cf575aa5c"><path class="uuid-08eaf8dc-2555-4283-9115-80242cf516c9" d="m116.73,399.79c-21.8-7.91-23.04-27.28-20.62-45.35,2.42-18.07,12.22-33.97,26.84-28.66,7.9,2.87,5.27,4.6,17.06,8.88s144.23,52.34,152.6,55.38c8.37,3.04,12.48.8,17.53,6.65,5.05,5.85,8.71,15.68-3.84,33.77-12.54,18.09-29.55,27.41-47.55,20.88-18-6.53-121.99-44.27-142.02-51.54h0Z"/></clipPath></defs><g id="uuid-c4937db0-9afb-4c03-9f2b-e9a992e05bd5" data-name="uuid-b84498ae-e8f6-4225-bedf-b7485dbc9e23"><g id="uuid-44ab2587-ae9c-45d8-b896-12f829278573" data-name="uuid-54dc98d1-5ff7-4f14-90d9-98731fcbd0ae"><g class="uuid-6bf34615-1e49-4ca3-bf4a-827b6d1e1cfd"><g><g><path class="uuid-f7558bdc-0f9a-4b81-b6fc-d589bca7cd91" d="m116.73,399.79c-21.8-7.91-23.04-27.28-20.62-45.35,2.42-18.07,12.22-33.97,26.84-28.66,7.9,2.87,5.27,4.6,17.06,8.88s144.23,52.34,152.6,55.38c8.37,3.04,12.48.8,17.53,6.65,5.05,5.85,8.71,15.68-3.84,33.77-12.54,18.09-29.55,27.41-47.55,20.88-18-6.53-121.99-44.27-142.02-51.54h0Z"/><g class="uuid-8773bdbf-23e2-46c5-b3ad-728f1fbef747"><g><g><g><polygon class="uuid-1cb4b6aa-0185-4f5d-ab63-60d4b53520a0" points="215.49 451.98 301.74 483.28 206.36 377.38 206.37 377.37 312.39 447.2 322.45 419.48 206.38 377.36 206.4 377.34 286.7 385.2 239.55 368.09 206.44 377.3 224.2 358.6 215.09 353.15 204.61 351.48 206.24 377.23 186.74 348.93 139.6 331.82 206.25 377.29 206.25 377.31 90.18 335.19 80.12 362.91 206.25 377.33 206.25 377.34 65.15 397.42 151.4 428.72 206.25 377.39 206.26 377.49 206.32 377.42 215.49 451.98"/><polygon class="uuid-1cb4b6aa-0185-4f5d-ab63-60d4b53520a0" points="183.45 440.35 193.24 443.91 206.26 377.49 173.65 436.8 183.45 440.35"/></g><g><g><path class="uuid-421abf4c-f4d5-449d-9744-aaea0c82c8f0" d="m91.7,359.44s8.63-1.05,11.72,4.67c2.79-3.14,6.86-1.51,7.49,1.3,0,0,6.32-3.57,11.03,3.8,1.3-7.14,8.57-5.82,10.24-1.94,2.1-6.57,12.64-3.42,13.92,2.15,3.39-9.73,16.79-9.31,19.7-.94,4.46-1.61,8.21,3.27,6.46,6.72,5.25-.03,5.88,4.14,4.73,6.52,5.99-2.49,14.65,5.49,8.77,21.69l-2.76,7.6-97.21-35.28,5.91-16.29h0Z"/><path class="uuid-421abf4c-f4d5-449d-9744-aaea0c82c8f0" d="m306.72,429.83s-5.67-9.33-13.45-4.88c-.13-4.96-5.58-5.36-6.86-3.24,2.02-5.58-4.4-6.26-5.48-4.47,3.14-8.65-7.06-10.77-9.39-8.1,2.93-6.11-3.29-13.56-11.77-12.13-8.48,1.44-9.46,8-9.46,8,0,0-9.51-5.22-12.11,3.94-6.44.95-5.63,7.2-5.63,7.2,0,0-6.59-1.22-8.32,4.95,6.27,2.28,32.74,12.54,43.73,15.87s35.79,6.59,35.79,6.59l2.96-13.73h0Z"/></g><g><path class="uuid-421abf4c-f4d5-449d-9744-aaea0c82c8f0" d="m116.86,371.51s4.91-4.48,9.53.28"/><path class="uuid-421abf4c-f4d5-449d-9744-aaea0c82c8f0" d="m168.38,381.96s7.7.14,7.49,9.39"/><path class="uuid-421abf4c-f4d5-449d-9744-aaea0c82c8f0" d="m293.27,424.95c-1.97,1.47-2.7,3.68-2.7,3.68"/><path class="uuid-421abf4c-f4d5-449d-9744-aaea0c82c8f0" d="m280.08,427.69c-3.31-3.03-7.68-.28-7.68-.28,0,0-.8-6.78-7.88-6.55"/><path class="uuid-421abf4c-f4d5-449d-9744-aaea0c82c8f0" d="m262.27,407.01s12.35-1.27,11.11,10"/></g></g><path class="uuid-545d5178-3a1f-46af-8a38-748d65e48d6b" d="m95.41,361.2s11.32,13.51,46.91,26.43c35.59,12.92,94.4,34.26,113.92,41.34,19.52,7.08,45.7,7.18,45.7,7.18l-6.67,22.69-207.91-75.45s8.05-22.19,8.05-22.19Z"/><path class="uuid-35672045-d694-46b6-a49b-5b9f6527a252" d="m96.93,374.9s4.29,10.08,41.17,23.46c36.88,13.38,96.71,35.09,113.44,41.17,16.73,6.07,41.55,6.56,41.55,6.56l-8.69,23.95-196.16-71.18,8.69-23.95h0Z"/><circle class="uuid-a9b20911-ecf8-4b3a-be78-aa8e8bc1e6e0" cx="206.31" cy="377.33" r="7.65"/></g><path class="uuid-35672045-d694-46b6-a49b-5b9f6527a252" d="m313.7,401.12c-3.98-5.76-13.33-3.46-19.41-5.67-6.08-2.21-150.45-54.6-161.41-58.58-10.96-3.98-15.46-11.35-23.17-9.05l4.97-13.69,203.76,73.94-4.73,13.04h0Z"/></g></g><path class="uuid-c214df15-a9c5-48c0-898e-25cf22a01c5e" d="m116.73,399.79c-21.8-7.91-23.04-27.28-20.62-45.35,2.42-18.07,12.22-33.97,26.84-28.66,7.9,2.87,5.27,4.6,17.06,8.88s144.23,52.34,152.6,55.38c8.37,3.04,12.48.8,17.53,6.65,5.05,5.85,8.71,15.68-3.84,33.77-12.54,18.09-29.55,27.41-47.55,20.88-18-6.53-121.99-44.27-142.02-51.54h0Z"/></g><g><g><g><path class="uuid-2133d2e9-8d48-44e4-89e8-f50a42b55b3e" d="m146.36,364.64l15.88,5.76c1.71.62,2.6,2.52,1.98,4.23l-6.44,17.74c-.62,1.71-2.52,2.6-4.23,1.98l-15.88-5.76,8.69-23.95h0Z"/><line class="uuid-c214df15-a9c5-48c0-898e-25cf22a01c5e" x1="148.42" y1="387.37" x2="152.51" y2="388.86"/><line class="uuid-c214df15-a9c5-48c0-898e-25cf22a01c5e" x1="152.57" y1="377.74" x2="157.66" y2="375.36"/></g><g><g><path class="uuid-35672045-d694-46b6-a49b-5b9f6527a252" d="m139.52,412.75c-.71,2.37-6.03,2.87-11.88,1.11-5.85-1.76-10.01-5.1-9.3-7.48l2.87-9.56c.58.13,20.58,6.19,21.18,6.36-1.44,4.78-2.16,7.19-2.87,9.56h0Z"/><ellipse class="uuid-81dc3c24-ff02-4278-8860-175a7469acc9" cx="131.8" cy="400.01" rx="4.48" ry="11.06" transform="translate(-289.21 411.12) rotate(-73.27)"/></g><g><path class="uuid-545d5178-3a1f-46af-8a38-748d65e48d6b" d="m147.66,361.71l1.56-5.21-7.98-2.4-13.46,44.8s1.19,1.23,3.75,2c2.48.74,4.23.4,4.23.4l1.56-5.21c.61-2.04,2.01-3.74,3.88-4.75l5.7-3.06c5.31-2.85,7.3-9.47,4.44-14.78l-3.06-5.7c-1.01-1.87-1.23-4.07-.62-6.1h0Z"/><circle class="uuid-545d5178-3a1f-46af-8a38-748d65e48d6b" cx="145.22" cy="379.72" r="4.26"/></g><g><path class="uuid-35672045-d694-46b6-a49b-5b9f6527a252" d="m155.77,358.68c-.71,2.37-6.03,2.87-11.88,1.11s-10.01-5.1-9.3-7.48c.64-2.13,1.92-6.4,2.87-9.56.58.13,20.58,6.19,21.18,6.36l-2.87,9.56h0Z"/><ellipse class="uuid-81dc3c24-ff02-4278-8860-175a7469acc9" cx="148.05" cy="345.94" rx="4.48" ry="11.06" transform="translate(-225.86 388.17) rotate(-73.27)"/><path class="uuid-545d5178-3a1f-46af-8a38-748d65e48d6b" d="m151.71,346.3c-.23.77-1.97.94-3.87.36s-3.26-1.66-3.03-2.44c.23-.77,1.42-1.64,4.02-.86,2.47.74,3.11,2.16,2.88,2.93h0Z"/></g></g></g><g><g><path class="uuid-9f5f1d58-6008-463e-b000-9cb1b84bcb97" d="m253.04,430.47l-15.88-5.76c-1.71-.62-2.6-2.52-1.98-4.23l6.44-17.74c.62-1.71,2.52-2.6,4.23-1.98l15.88,5.76-8.69,23.95h0Z"/><line class="uuid-c214df15-a9c5-48c0-898e-25cf22a01c5e" x1="245.57" y1="422.63" x2="241.48" y2="421.14"/><line class="uuid-c214df15-a9c5-48c0-898e-25cf22a01c5e" x1="248.57" y1="412.58" x2="246.19" y2="407.49"/></g><g><g><path class="uuid-35672045-d694-46b6-a49b-5b9f6527a252" d="m236.13,447.81c-.97,2.28,2.79,6.07,8.4,8.47,5.61,2.4,10.95,2.5,11.93.23l3.93-9.18c-.53-.27-19.76-8.45-20.33-8.7l-3.93,9.18h0Z"/><ellipse class="uuid-54716eaa-51a3-4dfb-83d5-e37685f4f2c8" cx="250.22" cy="442.98" rx="4.48" ry="11.06" transform="translate(-255.48 498.76) rotate(-66.83)"/></g><g><path class="uuid-545d5178-3a1f-46af-8a38-748d65e48d6b" d="m262.62,403.43l2.14-5,7.66,3.28-18.4,43.01s-1.7.18-4.16-.87c-2.38-1.02-3.5-2.4-3.5-2.4l2.14-5c.84-1.95.86-4.16.07-6.13l-2.41-6c-2.24-5.59.48-11.95,6.07-14.19l6-2.41c1.97-.79,3.55-2.33,4.39-4.29h0Z"/><circle class="uuid-545d5178-3a1f-46af-8a38-748d65e48d6b" cx="252.94" cy="418.82" r="4.26"/></g><g><path class="uuid-35672045-d694-46b6-a49b-5b9f6527a252" d="m258.34,395.91c-.97,2.28,2.79,6.07,8.4,8.47,5.61,2.4,10.95,2.5,11.93.23l3.93-9.18c-.53-.27-19.76-8.45-20.33-8.7l-3.93,9.18h0Z"/><ellipse class="uuid-54716eaa-51a3-4dfb-83d5-e37685f4f2c8" cx="272.43" cy="391.08" rx="4.48" ry="11.06" transform="translate(-194.28 487.69) rotate(-66.83)"/><path class="uuid-545d5178-3a1f-46af-8a38-748d65e48d6b" d="m269.39,389.01c-.32.74.91,1.98,2.74,2.76s3.57.82,3.89.07-.04-2.17-2.54-3.24c-2.37-1.01-3.77-.34-4.09.4h0Z"/></g></g></g></g></g></g></g></g></svg>
<svg id="uuid-2f504206-111c-4779-9236-233d24245c5e" data-name="BODY" xmlns="http://www.w3.org/2000/svg" xmlns:xlink="http://www.w3.org/1999/xlink" viewBox="0 0 600 600"><defs><style>
      .uuid-d3edaed5-c7c6-4c4d-aa40-9a4dd8648ee7, .uuid-68d6c310-ce9e-402f-977e-09a9487d1f3f, .uuid-c55da662-6359-43da-9ece-79f419a77998 {
        fill: none;
      }

      .uuid-a378b470-e58b-414a-9aaa-c42cc7401d46, .uuid-ec8004b7-0527-439b-bc6e-4b5df54d70f5, .uuid-a970ff5c-387f-4ed2-bc98-796834b27354 {
        fill: #7aa6ff;
      }

      .uuid-a378b470-e58b-414a-9aaa-c42cc7401d46, .uuid-ec8004b7-0527-439b-bc6e-4b5df54d70f5, .uuid-68d6c310-ce9e-402f-977e-09a9487d1f3f, .uuid-5f18a3b5-25e8-4b4a-92b0-9c895b96bdd6 {
        stroke: #000;
        stroke-linecap: round;
        stroke-linejoin: round;
      }

      .uuid-a378b470-e58b-414a-9aaa-c42cc7401d46, .uuid-68d6c310-ce9e-402f-977e-09a9487d1f3f, .uuid-5f18a3b5-25e8-4b4a-92b0-9c895b96bdd6 {
        stroke-width: 2px;
      }

      .uuid-ec8004b7-0527-439b-bc6e-4b5df54d70f5 {
        stroke-width: 2px;
      }

      .uuid-5f18a3b5-25e8-4b4a-92b0-9c895b96bdd6 {
        fill: #f9a723;
      }

      .uuid-c55da662-6359-43da-9ece-79f419a77998 {
        clip-path: url(#uuid-eca54416-6e61-412d-a418-e0bcf3f00aa5);
      }
    </style><clipPath id="uuid-eca54416-6e61-412d-a418-e0bcf3f00aa5"><path class="uuid-d3edaed5-c7c6-4c4d-aa40-9a4dd8648ee7" d="m500.24,288.07s3.15-12.64,14.55-12.39c0,0,6.81-3.05,4.79-13.7s-9.48-7.62-9.48-7.62l-3.26,2.83s-4.99-3.71-11.8-4.25c-6.81-.54-29.6,19.74-28.65,47.05l2.58,4.27h5.71s1.04-3.08,1.49-4.63c.71,1.5,2.45,4.63,2.45,4.63h5.46s.25-16.04,10.62-13.7c3.59.81,5.54-2.49,5.54-2.49h0Z"/></clipPath></defs><g id="uuid-867e74de-e6be-4fed-8810-6aee283b78c1" data-name="uuid-7815cad7-8e3a-44d2-a5d3-2b4a6315d68d"><g><g><g><path class="uuid-a970ff5c-387f-4ed2-bc98-796834b27354" d="m500.24,288.07s3.15-12.64,14.55-12.39c0,0,6.81-3.05,4.79-13.7s-9.48-7.62-9.48-7.62l-3.26,2.83s-4.99-3.71-11.8-4.25c-6.81-.54-29.6,19.74-28.65,47.05l2.58,4.27h5.71s1.04-3.08,1.49-4.63c.71,1.5,2.45,4.63,2.45,4.63h5.46s.25-16.04,10.62-13.7c3.59.81,5.54-2.49,5.54-2.49h0Z"/><g class="uuid-c55da662-6359-43da-9ece-79f419a77998"><g><path class="uuid-68d6c310-ce9e-402f-977e-09a9487d1f3f" d="m468.96,304.27c3.56-19.63,12.25-29.34,22.7-23.21"/><path class="uuid-68d6c310-ce9e-402f-977e-09a9487d1f3f" d="m495.04,252.95c.78,9.4,3.57,11.29,11.8,4.25"/><path class="uuid-68d6c310-ce9e-402f-977e-09a9487d1f3f" d="m513.81,261.46s-11.73,5.35-20.22,9.49"/><path class="uuid-68d6c310-ce9e-402f-977e-09a9487d1f3f" d="m476.17,299.64c1.03-4.04,4.15-3.86,3.36-.09-.26,1.25-.58,3.01-.91,4.73"/></g></g><path class="uuid-68d6c310-ce9e-402f-977e-09a9487d1f3f" d="m500.24,288.07s3.15-12.64,14.55-12.39c0,0,6.81-3.05,4.79-13.7s-9.48-7.62-9.48-7.62l-3.26,2.83s-4.99-3.71-11.8-4.25c-6.81-.54-29.6,19.74-28.65,47.05l2.58,4.27h5.71s1.04-3.08,1.49-4.63c.71,1.5,2.45,4.63,2.45,4.63h5.46s.25-16.04,10.62-13.7c3.59.81,5.54-2.49,5.54-2.49h0Z"/></g><g><path class="uuid-a378b470-e58b-414a-9aaa-c42cc7401d46" d="m523.26,261.51c2.07,7.74,7.98,12.89,3.75,14.02-.15.04-7.96,2.12-8.12,2.15-4.13.64-8.94-4.61-10.93-12.07-2.03-7.6-.39-14.68,3.67-16,.07-.02,7.8-2.09,7.87-2.11,4.22-1.13,1.68,6.28,3.75,14.02Z"/><ellipse class="uuid-ec8004b7-0527-439b-bc6e-4b5df54d70f5" cx="523.26" cy="261.51" rx="10.33" ry="14.51" transform="translate(-49.81 144.13) rotate(-14.98)"/><line class="uuid-68d6c310-ce9e-402f-977e-09a9487d1f3f" x1="522.82" y1="253.67" x2="518.96" y2="264.52"/><line class="uuid-68d6c310-ce9e-402f-977e-09a9487d1f3f" x1="525.49" y1="265.86" x2="524.1" y2="269.78"/><line class="uuid-68d6c310-ce9e-402f-977e-09a9487d1f3f" x1="527.96" y1="258.93" x2="527.23" y2="260.97"/></g></g><g><path class="uuid-a378b470-e58b-414a-9aaa-c42cc7401d46" d="m521.42,363.39c-.44-.08-.88-.17-1.31-.27-3.31-.79-6.69-2.21-8.67-5.13-3.13-4.61-.82-9.79,3.48-12.56.56-.36,1.14-.68,1.74-.98-1.39-.55-2.66-1.35-3.57-2.56-1.86-2.47-1.89-5.68-.85-8.49.51-1.39,1.37-2.62,2.39-3.72v-.04c-.22-.03-.44-.05-.65-.09-2.1-.38-4.21-1.08-5.7-2.67-2.17,3.15-6.46,5-10.98,3.92l5.35,47.25,20.98-3.74-2.2-10.91h0Z"/><path class="uuid-5f18a3b5-25e8-4b4a-92b0-9c895b96bdd6" d="m507.62,316.05c.9-1.44,2.13-2.7,3.5-3.77l-6.51-32.3s-1.48-4.85-6.4-4.25c-4.92.61-6.54,5.33-6.54,5.33l3.32,29.35c2.06-.09,4.27.05,6.86,1.27,0,0,3.42,1.42,5.77,4.37h0Z"/></g><line class="uuid-68d6c310-ce9e-402f-977e-09a9487d1f3f" x1="501.22" y1="292.85" x2="502.88" y2="303.21"/><line class="uuid-68d6c310-ce9e-402f-977e-09a9487d1f3f" x1="499.45" y1="281.87" x2="500.24" y2="286.79"/><path class="uuid-a378b470-e58b-414a-9aaa-c42cc7401d46" d="m502.64,378.04c.99,8.71,22.7,4.78,20.98-3.74-1.51-7.49-21.81-3.52-20.98,3.74Z"/><path class="uuid-68d6c310-ce9e-402f-977e-09a9487d1f3f" d="m514.37,360.81c-4.9.25-10.44,1.84-13.21,4.18"/><path class="uuid-68d6c310-ce9e-402f-977e-09a9487d1f3f" d="m510.84,349.77c-4.19.5-8.51,1.88-10.97,3.8"/><path class="uuid-68d6c310-ce9e-402f-977e-09a9487d1f3f" d="m511.64,338.39c-4.76.21-10.15,1.71-13.05,3.94"/></g></g></svg>
</svg>