<?xml version="1.0" encoding="UTF-8"?>
<svg xmlns="http://www.w3.org/2000/svg" viewBox="0 0 600 600">
<svg id="uuid-79261e34-5d95-4eb7-bb85-10d7c969ade4" data-name="BACKGROUND" xmlns="http://www.w3.org/2000/svg" viewBox="0 0 600 600"><defs><style>
      .uuid-97803ec4-c756-4940-a80c-fce9d043143d {
        fill: #00dfa9;
      }
    </style></defs><rect class="uuid-97803ec4-c756-4940-a80c-fce9d043143d" x="-1" y="-1" width="602" height="602"/></svg>
<svg id="uuid-c0346afe-1da2-46db-983f-ff876e5ed0be" data-name="BACKGROUND" xmlns="http://www.w3.org/2000/svg" viewBox="0 0 600 600"><defs><style>
      .uuid-57589ea0-1d07-4328-ae89-4ee799f66552, .uuid-c10b6e76-7067-4537-83d5-be1c345ab04f, .uuid-f7ed3fbc-843c-4765-b5cd-d9cd6e37a7d5, .uuid-ac3d9d9c-4bc2-4bef-8fbc-2d131af06a7b, .uuid-439c01fe-2c98-4586-aa72-e669aa572e14, .uuid-c68252c4-c75b-47e2-a3b4-534035c0255b, .uuid-ccc65212-dc3d-450b-b9c5-0a9cc3ad62c0 {
        stroke: #000;
        stroke-width: 2px;
      }

      .uuid-57589ea0-1d07-4328-ae89-4ee799f66552, .uuid-c10b6e76-7067-4537-83d5-be1c345ab04f, .uuid-f7ed3fbc-843c-4765-b5cd-d9cd6e37a7d5, .uuid-439c01fe-2c98-4586-aa72-e669aa572e14, .uuid-c68252c4-c75b-47e2-a3b4-534035c0255b {
        stroke-linecap: round;
      }

      .uuid-57589ea0-1d07-4328-ae89-4ee799f66552, .uuid-ac3d9d9c-4bc2-4bef-8fbc-2d131af06a7b, .uuid-c68252c4-c75b-47e2-a3b4-534035c0255b, .uuid-ccc65212-dc3d-450b-b9c5-0a9cc3ad62c0 {
        fill: #7aa6ff;
      }

      .uuid-57589ea0-1d07-4328-ae89-4ee799f66552, .uuid-439c01fe-2c98-4586-aa72-e669aa572e14, .uuid-ccc65212-dc3d-450b-b9c5-0a9cc3ad62c0 {
        stroke-linejoin: round;
      }

      .uuid-8b7867c5-1aab-4d13-8c98-43caa4245778, .uuid-c10b6e76-7067-4537-83d5-be1c345ab04f {
        fill: #fff;
      }

      .uuid-c10b6e76-7067-4537-83d5-be1c345ab04f, .uuid-f7ed3fbc-843c-4765-b5cd-d9cd6e37a7d5, .uuid-ac3d9d9c-4bc2-4bef-8fbc-2d131af06a7b, .uuid-c68252c4-c75b-47e2-a3b4-534035c0255b {
        stroke-miterlimit: 10;
      }

      .uuid-f7ed3fbc-843c-4765-b5cd-d9cd6e37a7d5 {
        fill: #00dfa9;
      }

      .uuid-439c01fe-2c98-4586-aa72-e669aa572e14 {
        fill: none;
      }
    </style></defs><path class="uuid-57589ea0-1d07-4328-ae89-4ee799f66552" d="m409.81,359.6c9.2,3.77,29.89,12.05,42.79,16.03,2.11.65,4.41.69,6.5-.04,11.79-4.08,28.47-11.39,33.03-11.32,5.25.08,7.8,3.93,19.88,2.04,13.36-2.1,22.43-11.99,20.93-23.3-4.21-43.28-25.18-26.79-25.18-26.79,0,0-5.84-8.75-18.76-4.82-11.83,3.6-10.2,14.44-6.47,22.47l-25.29,8.58c-2.14.72-4.45.71-6.59-.02l-35.7-12.61"/><path class="uuid-c68252c4-c75b-47e2-a3b4-534035c0255b" d="m533.36,312.82c2.5,3.94,1.62,9.14-1.57,12.4-2.47,2.53-5.88,3.88-9.32,4.4-2.8.43-5.7.42-8.49-.08-2.14-.39-4.29-1.1-5.79-2.75-1.66-1.83-2.27-4.46-1.98-6.87.51-4.17,3.84-7.14,7.22-9.26,3.17-1.98,6.86-3.26,10.64-3.09,3.8.18,7.36,2.19,9.3,5.24Z"/><path class="uuid-c68252c4-c75b-47e2-a3b4-534035c0255b" d="m538.57,349.84c.97,3.03.32,6.43-1.5,9.01-3.77,5.33-11.17,5.65-16.96,4.27-3.31-.79-6.69-2.21-8.67-5.13-3.13-4.61-.82-9.79,3.48-12.56,2.58-1.66,5.61-2.67,8.63-3.14,5.73-.89,13.1,1.51,15.03,7.56Z"/><path class="uuid-c68252c4-c75b-47e2-a3b4-534035c0255b" d="m538.71,328.53c1.8,2.99,2.06,6.89.22,9.9-1.95,3.2-4.94,5.25-8.49,6.28-3.66,1.07-7.64,1.27-11.4.44-2.25-.5-4.53-1.38-5.96-3.28-1.86-2.47-1.89-5.68-.85-8.49,1.2-3.24,4.17-5.69,7.09-7.37,6.15-3.56,15.21-4.43,19.39,2.52Z"/><path class="uuid-c68252c4-c75b-47e2-a3b4-534035c0255b" d="m501.85,311.68s9.27,3.84,7.77,12.02c-1.04,5.68-8.17,9.55-14.94,6.13"/><path class="uuid-439c01fe-2c98-4586-aa72-e669aa572e14" d="m500.67,331.08c2.41,1.63,5.11,8.04,3.4,14.42"/><path d="m443.44,339.88c-2.88,10.58-6.94,20.23-11.17,28.59-10.17-3.78-21.16-9.53-27-11.93l11.83-26.02,26.35,9.36Z"/><ellipse cx="300" cy="518.65" rx="138.6" ry="22.93"/><path class="uuid-ac3d9d9c-4bc2-4bef-8fbc-2d131af06a7b" d="m319.36,427.14c-1.16,1.05-54.95,57-54.95,57,0,0,21.51-1.95,31.74,10.62,10.23,12.57,7.26,23.89,7.26,23.89h-66.9s-28.69-36.17-28.69-36.17c0,0,3.74-13.4,20.44-10.59,20.9-19.38,55.52-59.13,55.52-59.13l35.59,14.38Z"/><path d="m283.78,412.76l31.28,12.64-3.24,9.5c-2.93,3.03-9.76,10.12-13.64,14.14-11.92,0-27.98-2.13-41.33-6.37,13.95-15.1,26.93-29.92,26.93-29.92Z"/><path class="uuid-ac3d9d9c-4bc2-4bef-8fbc-2d131af06a7b" d="m354.45,173.54l-.11.27-174.2,58.29c-11.49,20.13-18.05,43.43-18.05,68.27,0,76.2,61.77,137.98,137.97,137.98s137.98-61.77,137.98-137.98c0-56.89-34.43-105.72-83.58-126.83Z"/><path class="uuid-439c01fe-2c98-4586-aa72-e669aa572e14" d="m264.41,484.14c-4.06.49-11.49,1.36-17.85,7.23"/><path class="uuid-8b7867c5-1aab-4d13-8c98-43caa4245778" d="m185.17,308.14c-4.41,0-7.98-3.57-7.98-7.98,0-67.74,55.11-122.86,122.86-122.86,4.41,0,7.98,3.57,7.98,7.98s-3.57,7.98-7.98,7.98c-58.94,0-106.9,47.95-106.9,106.9,0,4.41-3.57,7.98-7.98,7.98Z"/><path d="m203.75,397.46l34.2-27.46-24.86,36.3c-6.73-5.1-3.66-2.61-9.34-8.83Z"/><path class="uuid-ccc65212-dc3d-450b-b9c5-0a9cc3ad62c0" d="m323.72,387.31c19.14-13.4,39.15-11.3,55.52,7.36,19.6,22.35,30.57,33.06,30.57,33.06,0,0,10.74-19.34,34.77-17.5,18.26,1.4,24.84,14.43,24.84,14.43,0,0,6.21,8.82-22.45,33.5-28.66,24.68-54.93,40.92-61.14,29.46-6.21-11.46-2.82-32.1-2.82-32.1,0,0-22.02-26.09-27.94-32.01-6.79-6.79-15.71-1.36-15.71-1.36"/><path class="uuid-ac3d9d9c-4bc2-4bef-8fbc-2d131af06a7b" d="m446.97,458.17c-25.89,22.29-49.82,37.69-58.79,32.02-9.77-7.44,26.84-38.54,44.88-52.7,18.04-14.16,32.17-17.82,36.36-12.81,0,0,6.21,8.82-22.45,33.5Z"/><path class="uuid-439c01fe-2c98-4586-aa72-e669aa572e14" d="m409.81,427.74c-1.89,2.86-4.55,10.38-4.55,10.38"/><ellipse class="uuid-c10b6e76-7067-4537-83d5-be1c345ab04f" cx="269.41" cy="209.07" rx="94.9" ry="26.25" transform="translate(-52.5 96.54) rotate(-18.55)"/><ellipse class="uuid-f7ed3fbc-843c-4765-b5cd-d9cd6e37a7d5" cx="269.41" cy="209.07" rx="71.19" ry="13.32" transform="translate(-52.5 96.54) rotate(-18.55)"/><g><path class="uuid-57589ea0-1d07-4328-ae89-4ee799f66552" d="m214.11,345.7c-8.05,5.83-25.34,20.79-35.52,29.67-1.67,1.45-2.82,3.41-3.39,5.55-3.14,11.67-8.55,33.44-8.55,33.44,0,0-8.42.58-12.19,14.35-3.64,13.3-6.64,25.06,3.77,29.75.35,7.47,7.51,15.45,19.2,9.41.14-.06,1.32,1.32,1.44,1.45,2.64,2.7,6.36,4.45,10.13,4.81,3.65.36,7.61-.67,10.43-3.08,3.29-2.81,5.4-6.94,6.05-11.2.4-2.61.26-5.31-.75-7.78,0,0,6.2-2.51,8.05-11.34,1.99-9.49-4.22-19.42-14.62-18.18l6.17-23.11c.51-2.2,1.74-4.16,3.49-5.59l29.38-24.3"/><path class="uuid-439c01fe-2c98-4586-aa72-e669aa572e14" d="m204.73,452.06c-1.37-3.47-5.39-7.08-9-6.88"/><path class="uuid-439c01fe-2c98-4586-aa72-e669aa572e14" d="m178.86,469.3c-5.16-5.27-3.82-11.97-2.9-13.54"/><path class="uuid-439c01fe-2c98-4586-aa72-e669aa572e14" d="m158.22,458.45c-.27-5.22.73-7.32,3.06-9.83"/><path class="uuid-439c01fe-2c98-4586-aa72-e669aa572e14" d="m193.93,450.63c.14-2.07.48-4.16,1.32-6.06.85-1.95,2.36-3.88,4.31-4.85"/></g></svg>
<svg id="uuid-853b1779-0b40-4336-9fd3-56860412922a" data-name="BODY" xmlns="http://www.w3.org/2000/svg" viewBox="0 0 600 600"><defs><style>
      .uuid-270fe1d8-6ffc-45cd-908c-63708945a6da {
        fill: none;
        stroke: #000;
        stroke-linecap: round;
        stroke-miterlimit: 10;
        stroke-width: 4px;
      }
    </style></defs><path class="uuid-270fe1d8-6ffc-45cd-908c-63708945a6da" d="m378.79,259.75c-1.76-5.11-7.33-7.82-12.44-6.06s-7.82,7.33-6.06,12.44"/><circle cx="362.12" cy="293.18" r="9.78" transform="translate(-9.59 12.26) rotate(-1.91)"/><path class="uuid-270fe1d8-6ffc-45cd-908c-63708945a6da" d="m346.88,270.76c-1.76-5.11-7.33-7.82-12.44-6.06-5.11,1.76-7.82,7.33-6.06,12.44"/></svg>
<svg id="uuid-c5dddc68-6ada-4116-b645-d03ebc480c27" data-name="BODY" xmlns="http://www.w3.org/2000/svg" xmlns:xlink="http://www.w3.org/1999/xlink" viewBox="0 0 600 600"><defs><style>
      .uuid-2567def0-8698-4265-9746-d0bc6967be93, .uuid-0562be6e-ffb4-47be-9bb1-48a29995208a, .uuid-80e162d4-8829-4ebf-85b2-a8fe674d77f3, .uuid-4db2b783-a1a5-4d26-ac75-2744874e22af {
        fill: none;
      }

      .uuid-712c89ac-99fe-40ee-8eee-f5af0112c987, .uuid-7a510ee3-bdcb-4485-b3e0-7e4f4341de5d {
        fill: #ffff0d;
      }

      .uuid-72fac4dd-26f1-4077-b6b6-7c4003149463 {
        fill: #ff78d8;
      }

      .uuid-72fac4dd-26f1-4077-b6b6-7c4003149463, .uuid-7a510ee3-bdcb-4485-b3e0-7e4f4341de5d, .uuid-a1fed1fc-4fc0-4285-843b-ea2281428dd2, .uuid-80fbf365-2f03-4e31-9a7d-a58cbc68ba7c, .uuid-aa64e389-c72b-4038-9104-9878c2d0f048, .uuid-d6627eaf-33b8-4d81-ab57-85345f61b522, .uuid-0562be6e-ffb4-47be-9bb1-48a29995208a {
        stroke: #000;
        stroke-linecap: round;
        stroke-linejoin: round;
      }

      .uuid-72fac4dd-26f1-4077-b6b6-7c4003149463, .uuid-7a510ee3-bdcb-4485-b3e0-7e4f4341de5d, .uuid-aa64e389-c72b-4038-9104-9878c2d0f048, .uuid-d6627eaf-33b8-4d81-ab57-85345f61b522, .uuid-0562be6e-ffb4-47be-9bb1-48a29995208a {
        stroke-width: 2px;
      }

      .uuid-a1fed1fc-4fc0-4285-843b-ea2281428dd2 {
        stroke-width: 2px;
      }

      .uuid-a1fed1fc-4fc0-4285-843b-ea2281428dd2, .uuid-80fbf365-2f03-4e31-9a7d-a58cbc68ba7c, .uuid-aa64e389-c72b-4038-9104-9878c2d0f048 {
        fill: #fff;
      }

      .uuid-80fbf365-2f03-4e31-9a7d-a58cbc68ba7c {
        stroke-width: 2px;
      }

      .uuid-d6627eaf-33b8-4d81-ab57-85345f61b522 {
        fill: #00dfa9;
      }

      .uuid-80e162d4-8829-4ebf-85b2-a8fe674d77f3 {
        clip-path: url(#uuid-df096713-fdda-48f8-9c1c-a9406374f0cc);
      }

      .uuid-4db2b783-a1a5-4d26-ac75-2744874e22af {
        clip-path: url(#uuid-3e2076b4-c9c1-4dc8-b8fd-37a273dcbc37);
      }
    </style><clipPath id="uuid-df096713-fdda-48f8-9c1c-a9406374f0cc"><path class="uuid-2567def0-8698-4265-9746-d0bc6967be93" d="m363.4,432.9s-8.1-9.4-9.8-10.6c-1.7-1.2-3.6-1.8-3.6-1.8,0,0-2.8-25.8,25.2-30.1l14.1,15.5s-2.9,7.2-9.7,16.6c-6.8,9.4-16.1,10.3-16.1,10.3l-.1.1Z"/></clipPath><clipPath id="uuid-3e2076b4-c9c1-4dc8-b8fd-37a273dcbc37"><path class="uuid-2567def0-8698-4265-9746-d0bc6967be93" d="m270.8,477.5l15.9-16.5s-9.6-1.4-17.3-7.7c-7.7-6.4-9.9-13.5-9.9-13.5l-15.5,16.5s-3,8.3,9,17.9c8.7,6.9,17.8,3.3,17.8,3.3h0Z"/></clipPath></defs><g id="uuid-1bc504d8-c3de-4e3f-9ed5-9b0bd381f76d" data-name="uuid-d19fd1aa-f160-4434-8ee1-8fc783292307"><g id="uuid-515fa590-8391-4f06-b616-e4dcfd3f254d" data-name="uuid-a613e983-7e29-4acc-9c52-7addab05ae69"><g><g><g><path class="uuid-712c89ac-99fe-40ee-8eee-f5af0112c987" d="m363.4,432.9s-8.1-9.4-9.8-10.6c-1.7-1.2-3.6-1.8-3.6-1.8,0,0-2.8-25.8,25.2-30.1l14.1,15.5s-2.9,7.2-9.7,16.6c-6.8,9.4-16.1,10.3-16.1,10.3l-.1.1Z"/><g class="uuid-80e162d4-8829-4ebf-85b2-a8fe674d77f3"><g><path class="uuid-d6627eaf-33b8-4d81-ab57-85345f61b522" d="m387.9,399.3c-19.7,4-26.8,19.8-29.1,31.4l6.4,6.9,24.7-9.9,4.9-27.2-6.9-1.2h0Z"/><path class="uuid-72fac4dd-26f1-4077-b6b6-7c4003149463" d="m381.8,393.8s-12,1-20.2,11.5-7.6,22.4-7.6,22.4l-8.8-5.6s-2.9-15.3,7.5-25c10.4-9.7,22.6-12.3,22.6-12.3l6.6,9h-.1Z"/></g></g><path class="uuid-0562be6e-ffb4-47be-9bb1-48a29995208a" d="m363.4,432.9s-8.1-9.4-9.8-10.6c-1.7-1.2-3.6-1.8-3.6-1.8,0,0-2.8-25.8,25.2-30.1l14.1,15.5s-2.9,7.2-9.7,16.6c-6.8,9.4-16.1,10.3-16.1,10.3l-.1.1Z"/></g><g><path class="uuid-aa64e389-c72b-4038-9104-9878c2d0f048" d="m383.1,481.9s-8.5-6.2-2.5-24.9l-17.6-18.8s-1.3-10.6,10.9-22.7c12.2-12.1,21.4-10.5,21.4-10.5l14.1,16.4s9.7-11.6,26.6-14.3c16.9-2.6,29.9,9.7,29.9,9.7,0,0-22.6,5.1-49,28.9-26.4,23.8-33.8,36.3-33.8,36.3v-.1Z"/><path class="uuid-0562be6e-ffb4-47be-9bb1-48a29995208a" d="m409.4,421.3c-4.8,5.4-7.6,15.2-7.6,15.2"/></g><g><g><path class="uuid-72fac4dd-26f1-4077-b6b6-7c4003149463" d="m468.1,415.9c-2.2-1.1-22.3,0-54.1,28.2-31.8,28.2-34.5,37.1-33.9,41.6.5,3.5,3.2,9.5,12.8,9.6,9.6.1,27.3-9.6,50.2-28.8,31.1-26,31.2-37.4,31.1-41.1s-2.9-7.9-6.1-9.6v.1Z"/><path class="uuid-72fac4dd-26f1-4077-b6b6-7c4003149463" d="m466.2,426.1c-7.4-6.6-85.3,55.5-74.3,61.3,11.1,5.7,82.6-53.8,74.3-61.3Z"/></g><g><g><g><path class="uuid-7a510ee3-bdcb-4485-b3e0-7e4f4341de5d" d="m395.3,500.2c3,3.6,8.3,4.1,11.9,1.1,3.6-3,4.1-8.3,1.1-11.9l-3.9-4.7-2,1.7c-2.1-.1-4.2.5-6,1.9-1.8,1.4-2.7,3.4-3,5.5l-2,1.7,3.9,4.7h0Z"/><circle class="uuid-7a510ee3-bdcb-4485-b3e0-7e4f4341de5d" cx="397.8" cy="490.1" r="8.4"/></g><g><path class="uuid-7a510ee3-bdcb-4485-b3e0-7e4f4341de5d" d="m412.5,485.8c3,3.6,8.3,4.1,11.9,1.1,3.6-3,4.1-8.3,1.1-11.9l-3.9-4.7-2,1.7c-2.1-.1-4.2.5-6,1.9-1.7,1.4-2.7,3.4-3,5.5l-2,1.7,3.9,4.7h0Z"/><circle class="uuid-7a510ee3-bdcb-4485-b3e0-7e4f4341de5d" cx="415.1" cy="475.7" r="8.4"/></g><g><path class="uuid-7a510ee3-bdcb-4485-b3e0-7e4f4341de5d" d="m429.8,471.4c3,3.6,8.3,4.1,11.9,1.1,3.6-3,4.1-8.3,1.1-11.9l-3.9-4.7-2,1.7c-2.1-.1-4.2.5-6,1.9-1.7,1.4-2.7,3.4-3,5.5l-2,1.7,3.9,4.7h0Z"/><circle class="uuid-7a510ee3-bdcb-4485-b3e0-7e4f4341de5d" cx="432.4" cy="461.3" r="8.4"/></g><g><path class="uuid-7a510ee3-bdcb-4485-b3e0-7e4f4341de5d" d="m447.1,457c3,3.6,8.3,4.1,11.9,1.1,3.6-3,4.1-8.3,1.1-11.9l-3.9-4.7-2,1.7c-2.1-.1-4.2.5-6,1.9-1.7,1.4-2.7,3.4-3,5.5l-2,1.7,3.9,4.7h0Z"/><circle class="uuid-7a510ee3-bdcb-4485-b3e0-7e4f4341de5d" cx="449.7" cy="446.9" r="8.4"/></g><g><path class="uuid-7a510ee3-bdcb-4485-b3e0-7e4f4341de5d" d="m464.4,442.6c3,3.6,8.3,4.1,11.9,1.1,3.6-3,4.1-8.3,1.1-11.9l-3.9-4.7-2,1.7c-2.1-.1-4.2.5-6,1.9-1.7,1.4-2.7,3.4-3,5.5l-2,1.7,3.9,4.7h0Z"/><circle class="uuid-7a510ee3-bdcb-4485-b3e0-7e4f4341de5d" cx="466.9" cy="432.5" r="8.4"/></g></g><g><path class="uuid-80fbf365-2f03-4e31-9a7d-a58cbc68ba7c" d="m394.62,469.33l.46-.38c1.08-.9,2.62-.76,3.52.32l11.84,14.21-4.3,3.58-11.84-14.21c-.9-1.08-.76-2.62.32-3.52Z"/><path class="uuid-80fbf365-2f03-4e31-9a7d-a58cbc68ba7c" d="m427.64,438.72l.46-.38c1.08-.9,2.62-.76,3.52.32l13.38,16.06-4.3,3.58-13.38-16.06c-.9-1.08-.76-2.62.32-3.52Z"/><path class="uuid-80fbf365-2f03-4e31-9a7d-a58cbc68ba7c" d="m446.47,426.08l.46-.38c1.08-.9,2.62-.76,3.52.32l11.84,14.21-4.3,3.58-11.84-14.21c-.9-1.08-.76-2.62.32-3.52Z"/><rect class="uuid-80fbf365-2f03-4e31-9a7d-a58cbc68ba7c" x="391.83" y="480.16" width="29.4" height="5.6" rx="2.5" ry="2.5" transform="translate(-214.95 372.13) rotate(-39.8)"/><rect class="uuid-80fbf365-2f03-4e31-9a7d-a58cbc68ba7c" x="424.05" y="444.26" width="51.3" height="5.6" rx="2.5" ry="2.5" transform="translate(-181.96 391.45) rotate(-39.8)"/></g></g></g></g><g><g><g><g><path class="uuid-7a510ee3-bdcb-4485-b3e0-7e4f4341de5d" d="m209.9,505.8c3.3-3.3,3.3-8.6,0-11.9s-8.6-3.3-11.9,0l-4.3,4.3,1.9,1.9c0,2.1.9,4.2,2.5,5.8,1.6,1.6,3.7,2.4,5.8,2.5l1.9,1.9,4.3-4.3-.2-.2Z"/><circle class="uuid-7a510ee3-bdcb-4485-b3e0-7e4f4341de5d" cx="199.7" cy="504.1" r="8.4"/></g><g><path class="uuid-7a510ee3-bdcb-4485-b3e0-7e4f4341de5d" d="m226.9,522.5c3.3-3.3,3.3-8.6,0-11.9-3.3-3.3-8.6-3.3-11.9,0l-4.3,4.3,1.9,1.9c0,2.1.9,4.2,2.5,5.8,1.6,1.6,3.7,2.4,5.8,2.5l1.9,1.9,4.3-4.3-.2-.2Z"/><circle class="uuid-7a510ee3-bdcb-4485-b3e0-7e4f4341de5d" cx="216.6" cy="520.8" r="8.4"/></g></g><path class="uuid-72fac4dd-26f1-4077-b6b6-7c4003149463" d="m211.4,475.2l25.7,33.5c.9,1.1,2.2,1.8,3.6,1.8h64.4c2.3,0,4.1,1.8,4.1,4.1v4.6c0,2.3-1.8,4.1-4.1,4.1h-68c-3,0-5.8-1.4-7.6-3.8l-27-35.4c-.9-1.2-.9-2.9,0-4.1l3.5-4.7c1.3-1.8,4-1.8,5.4,0v-.1Z"/><g><path class="uuid-a1fed1fc-4fc0-4285-843b-ea2281428dd2" d="m220.8,499.6l.41.43c.97,1.01.93,2.57-.09,3.53l-13.4,12.76-3.86-4.06,13.4-12.76c1.01-.97,2.57-.93,3.53.09Z"/><rect class="uuid-a1fed1fc-4fc0-4285-843b-ea2281428dd2" x="205.14" y="497.66" width="5.6" height="29.4" rx="2.5" ry="2.5" transform="translate(-295.98 284.73) rotate(-43.6)"/></g><g><g><path class="uuid-7a510ee3-bdcb-4485-b3e0-7e4f4341de5d" d="m255.9,537.7c3.3-3.3,3.3-8.6,0-11.9-3.3-3.3-8.6-3.3-11.9,0l-4.3,4.3,1.9,1.9c0,2.1.9,4.2,2.5,5.8,1.6,1.6,3.7,2.4,5.8,2.5l1.9,1.9,4.3-4.3-.2-.2Z"/><circle class="uuid-7a510ee3-bdcb-4485-b3e0-7e4f4341de5d" cx="245.6" cy="536" r="8.4"/></g><g><path class="uuid-7a510ee3-bdcb-4485-b3e0-7e4f4341de5d" d="m279.5,537.7c3.3-3.3,3.3-8.6,0-11.9-3.3-3.3-8.6-3.3-11.9,0l-4.3,4.3,1.9,1.9c0,2.1.9,4.2,2.5,5.8s3.7,2.4,5.8,2.5l1.9,1.9,4.3-4.3-.2-.2Z"/><circle class="uuid-7a510ee3-bdcb-4485-b3e0-7e4f4341de5d" cx="269.2" cy="536" r="8.4"/></g><g><path class="uuid-7a510ee3-bdcb-4485-b3e0-7e4f4341de5d" d="m303,537.7c3.3-3.3,3.3-8.6,0-11.9-3.3-3.3-8.6-3.3-11.9,0l-4.3,4.3,1.9,1.9c0,2.1.9,4.2,2.5,5.8s3.7,2.4,5.8,2.5l1.9,1.9,4.3-4.3-.2-.2Z"/><circle class="uuid-7a510ee3-bdcb-4485-b3e0-7e4f4341de5d" cx="292.8" cy="536" r="8.4"/></g></g><g><path class="uuid-aa64e389-c72b-4038-9104-9878c2d0f048" d="m257.6,517.8h.6c1.4,0,2.5,1.1,2.5,2.5v18.5h-5.6v-18.5c0-1.4,1.1-2.5,2.5-2.5Z"/><path class="uuid-aa64e389-c72b-4038-9104-9878c2d0f048" d="m280.1,517.8h.6c1.4,0,2.5,1.1,2.5,2.5v18.5h-5.6v-18.5c0-1.4,1.1-2.5,2.5-2.5Z"/><rect class="uuid-aa64e389-c72b-4038-9104-9878c2d0f048" x="243.6" y="533.1" width="51.3" height="5.6" rx="2.5" ry="2.5"/></g></g><g><path class="uuid-712c89ac-99fe-40ee-8eee-f5af0112c987" d="m270.8,477.5l15.9-16.5s-9.6-1.4-17.3-7.7c-7.7-6.4-9.9-13.5-9.9-13.5l-15.5,16.5s-3,8.3,9,17.9c8.7,6.9,17.8,3.3,17.8,3.3h0Z"/><g class="uuid-4db2b783-a1a5-4d26-ac75-2744874e22af"><g><path class="uuid-72fac4dd-26f1-4077-b6b6-7c4003149463" d="m251.9,441.6s2.3,9.8,13.2,18.3c10.6,8.3,20.8,8.3,20.8,8.3l10.6-11.2-37-24.9-7.7,9.5h.1Z"/><path class="uuid-d6627eaf-33b8-4d81-ab57-85345f61b522" d="m238.9,458.4l9.3-9.3s3.7,10.6,11,16.3c6.7,5.3,17.7,8.6,17.7,8.6l-8.5,9.8-29.4-25.3-.1-.1Z"/></g></g><path class="uuid-0562be6e-ffb4-47be-9bb1-48a29995208a" d="m270.8,477.5l15.9-16.5s-9.6-1.4-17.3-7.7c-7.7-6.4-9.9-13.5-9.9-13.5l-15.5,16.5s-3,8.3,9,17.9c8.7,6.9,17.8,3.3,17.8,3.3h0Z"/></g><g><path class="uuid-aa64e389-c72b-4038-9104-9878c2d0f048" d="m305.5,513.5h-68.3l-28.5-37.4s5.9-8.1,18.8-6.7l14.2-15.9c1-1.1,2.4-1.7,3.9-1.7h2.5c0,.1-4.1,4.4-4.1,4.4,0,0,4.3,19.6,26.8,21.2l3.3-3.4.6,1.8c.4,1.2.1,2.6-.8,3.6l-1.7,1.7s33.4,1.9,33.4,32.4h-.1Z"/><path class="uuid-0562be6e-ffb4-47be-9bb1-48a29995208a" d="m272.1,481.2c-8.1-.6-20,1.7-26.6,7.7"/></g></g></g></g></g></svg>
<svg id="uuid-5e467335-96f0-4a19-bf5d-f66d24f9f050" data-name="BODY" xmlns="http://www.w3.org/2000/svg" viewBox="0 0 600 600"><defs><style>
      .uuid-c95b386d-6b7a-48bc-b015-46353c5ddf6d, .uuid-6dfda773-13b8-4575-9246-263a2a33ff95 {
        stroke-miterlimit: 10;
      }

      .uuid-c95b386d-6b7a-48bc-b015-46353c5ddf6d, .uuid-6dfda773-13b8-4575-9246-263a2a33ff95, .uuid-d59f6628-b02a-4e8d-88df-548bea5614f0 {
        stroke: #000;
        stroke-width: 2px;
      }

      .uuid-c95b386d-6b7a-48bc-b015-46353c5ddf6d, .uuid-d59f6628-b02a-4e8d-88df-548bea5614f0 {
        fill: #ffc9f1;
      }

      .uuid-6dfda773-13b8-4575-9246-263a2a33ff95 {
        fill: #a07bff;
      }

      .uuid-d59f6628-b02a-4e8d-88df-548bea5614f0 {
        stroke-linejoin: round;
      }
    </style></defs><path d="m444.53,340.27c-.12,10.07-1.69,20.13-1.47,32.18,0,0-31.96-13.5-37.8-15.9l11.83-26.02,27.44,9.74Z"/><g id="uuid-e0b59ec1-2080-4c6b-8b31-c6fdef44f520" data-name="cloth"><path class="uuid-c95b386d-6b7a-48bc-b015-46353c5ddf6d" d="m263.36,371.55c24.26-.34,48.58-3.99,69.96-9.03-7.88-3.13-21.03-8.64-28.59-13.47-15.72-10.04-37.83-23.22-78.26-39.57-40.44-16.35-60.88-16.79-64.71-17.14-3.83-.35-3.65,17.91.52,18.78s34.19,3.67,60.28,20.36c19.37,12.39,34.36,31.2,40.8,40.07Z"/><g><path class="uuid-d59f6628-b02a-4e8d-88df-548bea5614f0" d="m175.19,380.92c.57-2.14,1.73-4.09,3.39-5.55,4.11-3.58,9.38-8.16,14.73-12.73-12.63-3.41-19.99-6.47-19.99-6.47,0,0,1.19,7.68-3.39,24.26-4.47,16.18-10.42,24.96-10.42,24.96l10.07-2.77c1.77-7.01,3.99-15.7,5.61-21.71Z"/><path class="uuid-d59f6628-b02a-4e8d-88df-548bea5614f0" d="m436.02,361.39c2.62-27.84,1.57-45.91,1.57-45.91,0,0-23.21,23.41-84.08,41.67-31.63,9.49-73.99,16.96-113.56,13.64-1.29-.11-2.56-.23-3.83-.35l-28.31,23.41c-1.75,1.43-2.97,3.39-3.49,5.59l-6.17,23.11c1.6-.19,3.09-.11,4.48.18,10.94-4.39,20.36-13.9,20.36-13.9,0,0,3.04,11.81,3.04,28.1,12.65-1.74,29.55-18.91,29.55-18.91,0,0,3.71,13.26-4.81,29.26,17.78,0,33.52-20.56,33.52-20.56l15.94,23.95s7.48-5.92,14.49-22.21c7.39-17.17,6.6-34.62,8.99-41.14,9.67-6.47,21.58-10.5,33.18-7.49,6.62,1.72,12.55,5.45,17.68,9.89,5.18,4.49,8.72,10.46,13.8,15.02,4.08,3.66,9.3,5.25,14.65,5.91,1.08.13,11.39,1.12,11.39.41v-21.3l23.94,6.09s-4.77-8.69-2.35-34.45Zm-191.58,34.15c-.44-.17-.87-.39-1.26-.65-1.82-1.21-2.89-3.3-3.34-5.43-.47-2.21-.24-4.77,1.39-6.34,3.5-3.39,16.29-2.61,17.11,3.38.62,4.53-5.71,8.89-9.45,9.45-1.49.22-3.05.13-4.45-.41Zm26.93,14.8c-.72,1.06-1.77,1.95-3.12,2.45-2.19.82-4.72.56-6.81-.48-1.36-.67-2.61-1.74-3.06-3.19-.24-.78-.24-1.62-.09-2.42.82-4.42,6.05-6.74,10.14-5.47,4.34,1.34,5.06,6,2.95,9.11Zm133.66-31.05c-.04.27-.1.55-.16.81-.87,3.69-3.13,7.03-6.22,9.21-.82.58-1.74,1.09-2.75,1.14-1.96.09-3.54-1.59-4.51-3.29-1.62-2.85-2.38-6.34-1.39-9.46,1.64-5.18,7.44-6.92,12.06-4.49,1.32.69,2.44,1.84,2.87,3.26.28.91.25,1.88.1,2.82Z"/></g><path d="m206.23,395.47c-.91,1.16-1.57,2.51-1.91,3.96l-6.17,23.11c1.27-.15,2.48-.13,3.62.03l36.18-52.57-31.72,25.47Z"/><g id="uuid-7fe29411-92c2-4f52-b005-f15084171df6" data-name="zurzido"><path class="uuid-6dfda773-13b8-4575-9246-263a2a33ff95" d="m308.67,383.17c-5.42,4.18-10.17,10.28-13.38,16.13-2.78,5.06-10.1,2.03-7.89-5.55,1.89-6.46,9.65-12.22,14.53-16.48,5.01-4.37,14,.29,6.74,5.9Z"/><path class="uuid-6dfda773-13b8-4575-9246-263a2a33ff95" d="m302.21,395.42c-4.91-4.7-11.8-8.62-18.29-11.12-5.62-2.17-3.02-9.26,5.22-7.84,7.02,1.21,13.81,7.97,18.76,12.17,5.07,4.31.89,13.1-5.7,6.79Z"/></g></g></svg>
<svg id="uuid-b9482b2c-4739-4122-81da-4de338103694" data-name="BODY" xmlns="http://www.w3.org/2000/svg" viewBox="0 0 600 600"><defs><style>
      .uuid-191029f6-3576-4ed7-97ef-969e58bf69e1 {
        fill: #ffff0d;
        stroke: #000;
        stroke-linecap: round;
        stroke-linejoin: round;
        stroke-width: 2px;
      }
    </style></defs><path class="uuid-191029f6-3576-4ed7-97ef-969e58bf69e1" d="m209.08,417.82c0-3.45-2.8-6.25-6.25-6.25-.62,0-1.21.12-1.78.29l-2.74,10.26c.13.14.27.26.42.38,2.44-.2,4.65.19,6.55,1.07,2.23-.95,3.8-3.17,3.8-5.75Z"/><path class="uuid-191029f6-3576-4ed7-97ef-969e58bf69e1" d="m160.14,417.77c3.29-3.25,6.4-3.47,6.4-3.47,0,0,.51-2.04,1.3-5.21-1.04-2.02-3.12-3.41-5.54-3.41-3.45,0-6.25,2.8-6.25,6.25,0,2.69,1.71,4.96,4.09,5.84Z"/><circle class="uuid-191029f6-3576-4ed7-97ef-969e58bf69e1" cx="169.36" cy="403.62" r="7.06"/><circle class="uuid-191029f6-3576-4ed7-97ef-969e58bf69e1" cx="184.37" cy="402.37" r="7.06"/><circle class="uuid-191029f6-3576-4ed7-97ef-969e58bf69e1" cx="198.12" cy="409.87" r="7.06"/></svg>
<svg id="uuid-a434a263-1d52-419b-9f08-c2e050f7b089" data-name="BODY" xmlns="http://www.w3.org/2000/svg" viewBox="0 0 600 600"><defs><style>
      .uuid-3fe757a2-f884-4021-8b90-a2fb836a0d83 {
        fill: #7aa6ff;
      }

      .uuid-3fe757a2-f884-4021-8b90-a2fb836a0d83, .uuid-0535e5fd-e169-42bb-9b3a-04ea61531b11, .uuid-b5b40eee-3492-4a40-8cdf-74f0932ec0ba, .uuid-813fd1ba-5c6f-412d-b3d0-bab0da44157c {
        stroke: #000;
        stroke-linecap: round;
        stroke-linejoin: round;
        stroke-width: 2px;
      }

      .uuid-0535e5fd-e169-42bb-9b3a-04ea61531b11 {
        fill: #ffc9f1;
      }

      .uuid-b5b40eee-3492-4a40-8cdf-74f0932ec0ba {
        fill: none;
      }

      .uuid-813fd1ba-5c6f-412d-b3d0-bab0da44157c {
        fill: #f9a723;
      }
    </style></defs><g id="uuid-4d71603c-b588-4e7e-bdcb-85f6e7a816db" data-name="uuid-e739bccc-2d2c-4a63-b977-7b31664c2716"><g id="uuid-63e5130d-7ae7-4f0d-8331-573e75af8b15" data-name="uuid-af806a75-da6f-4a25-9368-44a11c35c8fd"><g><path class="uuid-3fe757a2-f884-4021-8b90-a2fb836a0d83" d="m494.29,225.3c-2.32-.72-4.21,6.13-13.6,5.3-9.38-.83-9.83-5.81-9.83-5.81,0,0-5.94-3.89-2.62-11.49-1.79-7.91,2.19-10.35,3.32-20.49.45-4.02-4.6-11.68-14.43-22.02s-36.38-40.72-39.7-44.94c.77-3.06,2.78-5.7,2.78-5.7l8.76,8.43-9.24-20.82s2.25-3.06,4.07-3.83c2.68,6.03,18.96,38.92,18.96,38.92l-9.94-38.92,5.94-2.65,2.23,7.34,3.89-1.15-.51-2.68,5.23-2.62-.57-6.13s4.4-3.13,6.83-3.83c-.19,3.26,1.72,14.36,1.72,14.36,0,0,1.34-14.68,1.85-17.62,2.04-.89,7.02-.32,7.02-.32l-1.34,6.77,6.51,1.66-.67-10.88,8.36-.32s1.44,31.05,5.01,44.71c-1.66-19.53-.51-49.28-.51-49.28l9.26,1.53s-.45,6.89-.32,13.28c2.3-.13,5.68-.57,5.68-.57,0,0,.89,9.83,1.28,13.91,1.79-9.7,4.09-16.28,4.09-16.28l7.02,2.62s3.26-8.36,6.89-12.32c2.43,1.91,5.23,4.15,5.23,4.15,0,0-3.19,5.81-4.53,9,2.36,1.02,5.43,2.87,5.43,2.87,0,0,1.28-2.65,2.78-4.12,1.85,1.05,4.15,3.19,4.15,3.19,0,0-5.33,11.39-8.78,23.55,8.04-17.14,17.14-25.66,17.14-25.66l4.6,4.31s-11.87,11.2-22.98,39.35c-11.11,28.15-13.24,43.12-13.63,46.44s8.68,7.79,7.66,17.62c6.45,6.7-.19,13.34-.19,13.34,0,0-2.68,13.28-20.3,7.79h0Z"/><g><path class="uuid-b5b40eee-3492-4a40-8cdf-74f0932ec0ba" d="m482.13,224.79c4.71-1.23,10.45-8.61,9.8-7.79-1.18,1.48,6,2.6,12.21,2.29"/><path class="uuid-b5b40eee-3492-4a40-8cdf-74f0932ec0ba" d="m477.18,211.73s4.95,6.82,15.21,5.21c8.12-1.27,10.2-9,10.2-9"/><path class="uuid-b5b40eee-3492-4a40-8cdf-74f0932ec0ba" d="m508.23,211.03s-9.22,7.59-15.6,7.24-4.79.13-4.79.13c0,0-5.33,2.44-10.27,1.43"/></g><path class="uuid-813fd1ba-5c6f-412d-b3d0-bab0da44157c" d="m485.92,216.91s2.23,6.29,2.49,12.99-.51,23.59,5.14,41.68c5.65,18.1,6,39.32,6,39.32,0,0,4.59,1.38,8.25,4.84,2.54-3.11,5.38-4.92,5.38-4.92,0,0,.25-16.84-4.6-25.52-4.85-8.68-8.23-33.54-8.14-47.43s-.29-17.01-2.49-22.72c-1.28.61-3.86,1.63-6.03,1.85-3.89.4-6-.1-6-.1h0Z"/><path class="uuid-813fd1ba-5c6f-412d-b3d0-bab0da44157c" d="m508.18,326.79s2.21,2.33,6.18,3.14c-5.99,8.88-1.02,12.88,2.29,14.51-6.85,3.78-9.87,14.07,3.82,18.76,3.11,10.72.18,14.84,4.65,27.8s7.15,12.83,8.55,22.34,3.26,18.83,3.64,21.19.96,9.77-8.55,9.77-10.79-4.66-11.3-7.21-.32-17.94-1.6-26.04c-1.28-8.11-4.18-11.04-6.94-25.47-2.76-14.43-1.74-19.28-3.4-27.38s-1.25-18.81-4.85-27.12c5.47-.35,7.52-4.29,7.52-4.29h0Z"/><path class="uuid-b5b40eee-3492-4a40-8cdf-74f0932ec0ba" d="m537.47,435.69c-.61-3.66-4.22-2.37-6.86-.77-6.94,4.21-13.43,2.37-11.31,6.28"/><path class="uuid-b5b40eee-3492-4a40-8cdf-74f0932ec0ba" d="m523.85,443.76c5.23.94,9.61-3.48,9.39-4.75s-6.34,1.51-6.34,1.51"/><path class="uuid-b5b40eee-3492-4a40-8cdf-74f0932ec0ba" d="m531.13,434.62s-2.88-21.15-3.78-25.42c-.89-4.28-6.7-18-6.7-18"/><path class="uuid-b5b40eee-3492-4a40-8cdf-74f0932ec0ba" d="m518.73,385.19c-2.87-10.4-3.06-23.58-3.06-23.58"/><path class="uuid-b5b40eee-3492-4a40-8cdf-74f0932ec0ba" d="m523.85,437.62c-.33-14.06-2.69-29.95-2.69-29.95"/><path class="uuid-b5b40eee-3492-4a40-8cdf-74f0932ec0ba" d="m519.5,400.96c-2.81-8.43-4.98-10.15-7.02-21.83-2.04-11.68-2.23-23.36-2.94-30.83-.7-7.47-2.67-19.17-2.67-19.17"/><path class="uuid-b5b40eee-3492-4a40-8cdf-74f0932ec0ba" d="m503.75,312.45c.33-14.07-4.11-34.08-4.11-34.08"/><path class="uuid-b5b40eee-3492-4a40-8cdf-74f0932ec0ba" d="m505.65,277.64c1.3,12.7,3.81,35.61,3.81,35.61"/><path class="uuid-b5b40eee-3492-4a40-8cdf-74f0932ec0ba" d="m498.15,271c-2.01-9.86-3.73-13.12-4.12-21.26-.35-7.43.56-20.8-2.41-32.72"/><g><path class="uuid-b5b40eee-3492-4a40-8cdf-74f0932ec0ba" d="m440.99,108.62c3.34,13.07,11.99,43.41,16.25,53.29"/><path class="uuid-b5b40eee-3492-4a40-8cdf-74f0932ec0ba" d="m428.97,128.58c4.73,11.1,9.01,19.81,12.02,24.4"/><path class="uuid-b5b40eee-3492-4a40-8cdf-74f0932ec0ba" d="m442.76,142.85c4.42,7.61,13.36,18.27,18.74,24.15,5.39,5.88,15.92,18.49,16.9,21.43.98,2.94-2.94,8.2-2.2,15.67"/><path class="uuid-b5b40eee-3492-4a40-8cdf-74f0932ec0ba" d="m482.93,200.18c-1.96-4.29-.24-15.06-.61-16.53s-19.49-42.63-24.74-77.07"/><path class="uuid-b5b40eee-3492-4a40-8cdf-74f0932ec0ba" d="m465.12,95.41c-2.1,8.11,2.94,28.41,9.31,50.93,6.37,22.52,11.5,38.08,11.5,38.08"/><path class="uuid-b5b40eee-3492-4a40-8cdf-74f0932ec0ba" d="m484.33,130.58c.91,18.43,5.52,49.55,7.29,53.84,1.77,4.3,3.4,2.67,4.44,11.71"/><path class="uuid-b5b40eee-3492-4a40-8cdf-74f0932ec0ba" d="m503.61,201.61c.44-9.78-5.78-15.41-6.52-19.56s-4.68-64.61-4.34-85.94"/><path class="uuid-b5b40eee-3492-4a40-8cdf-74f0932ec0ba" d="m499.71,109.45c-3.36,15.55-5.34,33.4-5.34,33.4"/><path class="uuid-b5b40eee-3492-4a40-8cdf-74f0932ec0ba" d="m510.82,95.79c-6.76,15.29-8.98,41.66-8.54,51.88s-2.57,34.97-2.57,34.97"/><path class="uuid-b5b40eee-3492-4a40-8cdf-74f0932ec0ba" d="m521.99,122.12c-13.19,30.3-19.71,60.52-19.71,60.52"/><path class="uuid-b5b40eee-3492-4a40-8cdf-74f0932ec0ba" d="m523.84,99.49c-9.56,16.47-14.45,41.29-14.45,41.29"/><path class="uuid-b5b40eee-3492-4a40-8cdf-74f0932ec0ba" d="m518.41,96.62c-10.8,24.68-8.44,56.1-12.06,70.04"/><path class="uuid-b5b40eee-3492-4a40-8cdf-74f0932ec0ba" d="m471.63,97.07c1.07,20.23,4.06,54.19,7.75,66.29"/><path class="uuid-b5b40eee-3492-4a40-8cdf-74f0932ec0ba" d="m449.61,102.17c3.9,28.91,18.97,72.4,25.67,81.36"/><path class="uuid-b5b40eee-3492-4a40-8cdf-74f0932ec0ba" d="m444.88,107.47c4.22,17.93,18.31,61.4,18.31,61.4"/><path class="uuid-b5b40eee-3492-4a40-8cdf-74f0932ec0ba" d="m514.58,217.51c-2.72,2.32-5.81,1.7-5.81,1.7"/><path class="uuid-b5b40eee-3492-4a40-8cdf-74f0932ec0ba" d="m470.86,224.79c3.39,2.38,8.02,1.15,8.02,1.15"/><path class="uuid-b5b40eee-3492-4a40-8cdf-74f0932ec0ba" d="m468.24,213.3c.83,3.06,4.92,5.1,4.92,5.1"/><path class="uuid-b5b40eee-3492-4a40-8cdf-74f0932ec0ba" d="m514.78,204.17c-.72,1.71-2.33,3.46-2.33,3.46"/></g><path class="uuid-0535e5fd-e169-42bb-9b3a-04ea61531b11" d="m470.71,197.7s-3.87.25-4.06-4.68c-.19-4.93,2.75-10.33,21.6-12.32,18.86-1.99,23.81,2.18,24.26,5.31.44,3.13-1.69,6.44-1.69,6.44,0,0-3.14-3.27-3.61-5.05-22.88-2.09-32.37,2.81-35.64,5.41,0,0-.25,2.65-.86,4.89h0Z"/></g></g></g></svg>
</svg>