<?xml version="1.0" encoding="UTF-8"?>
<svg xmlns="http://www.w3.org/2000/svg" viewBox="0 0 600 600">
<svg id="uuid-47722c1a-ec94-491f-b9ae-69c2f5e8f75c" data-name="BACKGROUND" xmlns="http://www.w3.org/2000/svg" viewBox="0 0 600 600"><defs><style>
      .uuid-ab0c32c0-b20c-4bf1-888e-57f882ba1299 {
        fill: #ffc9f1;
      }
    </style></defs><rect class="uuid-ab0c32c0-b20c-4bf1-888e-57f882ba1299" x="-1" y="-1" width="602" height="602"/></svg>
<svg id="uuid-a31a6b4f-e655-4c0b-9290-a675a01244c8" data-name="BODY" xmlns="http://www.w3.org/2000/svg" viewBox="0 0 600 600"><defs><style>
      .uuid-02feae16-15ad-446f-b155-475dfe7ead0f {
        fill: #fff;
      }

      .uuid-8e8e02c1-3774-4aaf-92fb-f3ff81fe8f6d, .uuid-51f9bb77-a202-4295-8587-9b7fab6500b3, .uuid-862d3442-dd45-4bf0-ad6b-177f0e2ee560, .uuid-55d8d9bd-f0f4-492f-ac99-834eda67cd9d, .uuid-3065f46c-b1cc-4fe6-9bdc-7fd254c39b59 {
        stroke: #000;
        stroke-width: 2px;
      }

      .uuid-8e8e02c1-3774-4aaf-92fb-f3ff81fe8f6d, .uuid-862d3442-dd45-4bf0-ad6b-177f0e2ee560, .uuid-55d8d9bd-f0f4-492f-ac99-834eda67cd9d, .uuid-3065f46c-b1cc-4fe6-9bdc-7fd254c39b59 {
        fill: #f9a723;
      }

      .uuid-8e8e02c1-3774-4aaf-92fb-f3ff81fe8f6d, .uuid-55d8d9bd-f0f4-492f-ac99-834eda67cd9d {
        stroke-miterlimit: 10;
      }

      .uuid-51f9bb77-a202-4295-8587-9b7fab6500b3 {
        fill: none;
      }

      .uuid-51f9bb77-a202-4295-8587-9b7fab6500b3, .uuid-862d3442-dd45-4bf0-ad6b-177f0e2ee560, .uuid-55d8d9bd-f0f4-492f-ac99-834eda67cd9d {
        stroke-linecap: round;
      }

      .uuid-51f9bb77-a202-4295-8587-9b7fab6500b3, .uuid-862d3442-dd45-4bf0-ad6b-177f0e2ee560, .uuid-3065f46c-b1cc-4fe6-9bdc-7fd254c39b59 {
        stroke-linejoin: round;
      }
    </style></defs><ellipse cx="300" cy="518.65" rx="138.6" ry="22.93"/><g><path class="uuid-8e8e02c1-3774-4aaf-92fb-f3ff81fe8f6d" d="m319.36,427.14c-1.16,1.05-54.95,57-54.95,57,0,0,21.51-1.95,31.74,10.62,10.23,12.57,7.26,23.89,7.26,23.89h-66.9s-28.69-36.17-28.69-36.17c0,0,3.74-13.4,20.44-10.59,20.9-19.38,55.52-59.13,55.52-59.13l35.59,14.38Z"/><path d="m283.78,412.76l31.28,12.64-3.24,9.5c-2.93,3.03-9.76,10.12-13.64,14.14-11.92,0-27.98-2.13-41.33-6.37,13.95-15.1,26.93-29.92,26.93-29.92Z"/></g><g><path class="uuid-862d3442-dd45-4bf0-ad6b-177f0e2ee560" d="m409.81,359.6c9.2,3.77,29.89,12.05,42.79,16.03,2.11.65,4.41.69,6.5-.04,11.79-4.08,28.47-11.39,33.03-11.32,5.25.08,7.8,3.93,19.88,2.04,13.36-2.1,22.43-11.99,20.93-23.3-4.21-43.28-25.18-26.79-25.18-26.79,0,0-5.84-8.75-18.76-4.82-11.83,3.6-10.2,14.44-6.47,22.47l-25.29,8.58c-2.14.72-4.45.71-6.59-.02l-35.7-12.61"/><path class="uuid-55d8d9bd-f0f4-492f-ac99-834eda67cd9d" d="m533.36,312.82c2.5,3.94,1.62,9.14-1.57,12.4-2.47,2.53-5.88,3.88-9.32,4.4-2.8.43-5.7.42-8.49-.08-2.14-.39-4.29-1.1-5.79-2.75-1.66-1.83-2.27-4.46-1.98-6.87.51-4.17,3.84-7.14,7.22-9.26,3.17-1.98,6.86-3.26,10.64-3.09,3.8.18,7.36,2.19,9.3,5.24Z"/><path class="uuid-55d8d9bd-f0f4-492f-ac99-834eda67cd9d" d="m538.57,349.84c.97,3.03.32,6.43-1.5,9.01-3.77,5.33-11.17,5.65-16.96,4.27-3.31-.79-6.69-2.21-8.67-5.13-3.13-4.61-.82-9.79,3.48-12.56,2.58-1.66,5.61-2.67,8.63-3.14,5.73-.89,13.1,1.51,15.03,7.56Z"/><path class="uuid-55d8d9bd-f0f4-492f-ac99-834eda67cd9d" d="m538.71,328.53c1.8,2.99,2.06,6.89.22,9.9-1.95,3.2-4.94,5.25-8.49,6.28-3.66,1.07-7.64,1.27-11.4.44-2.25-.5-4.53-1.38-5.96-3.28-1.86-2.47-1.89-5.68-.85-8.49,1.2-3.24,4.17-5.69,7.09-7.37,6.15-3.56,15.21-4.43,19.39,2.52Z"/><path class="uuid-55d8d9bd-f0f4-492f-ac99-834eda67cd9d" d="m501.85,311.68s9.27,3.84,7.77,12.02c-1.04,5.68-8.17,9.55-14.94,6.13"/><path class="uuid-51f9bb77-a202-4295-8587-9b7fab6500b3" d="m500.67,331.08c2.41,1.63,5.11,8.04,3.4,14.42"/><path d="m443.44,339.88c-2.88,10.58-6.94,20.23-11.17,28.59-10.17-3.78-21.16-9.53-27-11.93l11.83-26.02,26.35,9.36Z"/></g><g><circle class="uuid-8e8e02c1-3774-4aaf-92fb-f3ff81fe8f6d" cx="300" cy="300" r="138.16"/><path class="uuid-02feae16-15ad-446f-b155-475dfe7ead0f" d="m184.58,308.17c-4.41,0-7.98-3.57-7.98-7.98,0-67.74,55.11-122.86,122.86-122.86,4.41,0,7.98,3.57,7.98,7.98s-3.57,7.98-7.98,7.98c-58.94,0-106.9,47.95-106.9,106.9,0,4.41-3.57,7.98-7.98,7.98Z"/></g><path class="uuid-51f9bb77-a202-4295-8587-9b7fab6500b3" d="m264.41,484.14c-4.06.49-11.49,1.36-17.85,7.23"/><path class="uuid-02feae16-15ad-446f-b155-475dfe7ead0f" d="m185.17,308.14c-4.41,0-7.98-3.57-7.98-7.98,0-67.74,55.11-122.86,122.86-122.86,4.41,0,7.98,3.57,7.98,7.98s-3.57,7.98-7.98,7.98c-58.94,0-106.9,47.95-106.9,106.9,0,4.41-3.57,7.98-7.98,7.98Z"/><path d="m203.75,397.46l34.2-27.46-24.86,36.3c-6.73-5.1-3.66-2.61-9.34-8.83Z"/><path class="uuid-3065f46c-b1cc-4fe6-9bdc-7fd254c39b59" d="m323.72,387.31c19.14-13.4,39.15-11.3,55.52,7.36,19.6,22.35,30.57,33.06,30.57,33.06,0,0,10.74-19.34,34.77-17.5,18.26,1.4,24.84,14.43,24.84,14.43,0,0,6.21,8.82-22.45,33.5-28.66,24.68-54.93,40.92-61.14,29.46-6.21-11.46-2.82-32.1-2.82-32.1,0,0-22.02-26.09-27.94-32.01-6.79-6.79-15.71-1.36-15.71-1.36"/><path class="uuid-8e8e02c1-3774-4aaf-92fb-f3ff81fe8f6d" d="m446.97,458.17c-25.89,22.29-49.82,37.69-58.79,32.02-9.77-7.44,26.84-38.54,44.88-52.7,18.04-14.16,32.17-17.82,36.36-12.81,0,0,6.21,8.82-22.45,33.5Z"/><path class="uuid-51f9bb77-a202-4295-8587-9b7fab6500b3" d="m409.81,427.74c-1.89,2.86-4.55,10.38-4.55,10.38"/><g><path class="uuid-862d3442-dd45-4bf0-ad6b-177f0e2ee560" d="m214.11,345.7c-8.05,5.83-25.34,20.79-35.52,29.67-1.67,1.45-2.82,3.41-3.39,5.55-3.14,11.67-8.55,33.44-8.55,33.44,0,0-8.42.58-12.19,14.35-3.64,13.3-6.64,25.06,3.77,29.75.35,7.47,7.51,15.45,19.2,9.41.14-.06,1.32,1.32,1.44,1.45,2.64,2.7,6.36,4.45,10.13,4.81,3.65.36,7.61-.67,10.43-3.08,3.29-2.81,5.4-6.94,6.05-11.2.4-2.61.26-5.31-.75-7.78,0,0,6.2-2.51,8.05-11.34,1.99-9.49-4.22-19.42-14.62-18.18l6.17-23.11c.51-2.2,1.74-4.16,3.49-5.59l29.38-24.3"/><path class="uuid-51f9bb77-a202-4295-8587-9b7fab6500b3" d="m204.73,452.06c-1.37-3.47-5.39-7.08-9-6.88"/><path class="uuid-51f9bb77-a202-4295-8587-9b7fab6500b3" d="m178.86,469.3c-5.16-5.27-3.82-11.97-2.9-13.54"/><path class="uuid-51f9bb77-a202-4295-8587-9b7fab6500b3" d="m158.22,458.45c-.27-5.22.73-7.32,3.06-9.83"/><path class="uuid-51f9bb77-a202-4295-8587-9b7fab6500b3" d="m193.93,450.63c.14-2.07.48-4.16,1.32-6.06.85-1.95,2.36-3.88,4.31-4.85"/></g></svg>
<svg id="uuid-ffac6761-6b9e-4a13-ab42-3dfadf65c420" data-name="BODY" xmlns="http://www.w3.org/2000/svg" viewBox="0 0 600 600"><circle cx="369.54" cy="262.94" r="9.78" transform="translate(-8.58 12.49) rotate(-1.91)"/><circle cx="362.12" cy="293.18" r="9.78" transform="translate(-9.59 12.26) rotate(-1.91)"/><circle cx="337.63" cy="273.96" r="9.78" transform="translate(-8.96 11.43) rotate(-1.91)"/></svg>
<svg id="uuid-a9ec8817-2407-47e3-b451-30ded90b5961" data-name="BACKGROUND" xmlns="http://www.w3.org/2000/svg" xmlns:xlink="http://www.w3.org/1999/xlink" viewBox="0 0 600 600"><defs><style>
      .uuid-38147cdf-a163-4f62-b3ec-fbcafbd26544, .uuid-c3665144-c5cd-4a6e-8bcd-77622d93734e, .uuid-90c49120-ed8c-4549-b597-935fb43d9a5c, .uuid-37f640f1-0b58-490d-aa0c-c6db63473e01, .uuid-0b44583d-d0ab-401d-bf44-3fab20b4cfe3, .uuid-7a856aa2-b511-4b15-8b44-65c14813becd, .uuid-c5531e56-35be-4489-bfa4-2d18d1c48b9a {
        fill: none;
      }

      .uuid-c3665144-c5cd-4a6e-8bcd-77622d93734e, .uuid-08975e20-1e06-470a-a6ad-274a08437e44, .uuid-90c49120-ed8c-4549-b597-935fb43d9a5c, .uuid-57a4487c-ab0d-45e7-bcdb-31380f7058fe, .uuid-37f640f1-0b58-490d-aa0c-c6db63473e01 {
        stroke: #000;
        stroke-linecap: round;
        stroke-linejoin: round;
      }

      .uuid-08975e20-1e06-470a-a6ad-274a08437e44 {
        fill: #353434;
      }

      .uuid-08975e20-1e06-470a-a6ad-274a08437e44, .uuid-90c49120-ed8c-4549-b597-935fb43d9a5c, .uuid-57a4487c-ab0d-45e7-bcdb-31380f7058fe, .uuid-37f640f1-0b58-490d-aa0c-c6db63473e01 {
        stroke-width: 2px;
      }

      .uuid-90c49120-ed8c-4549-b597-935fb43d9a5c {
        stroke-dasharray: 0 0 0 4;
      }

      .uuid-a7665a25-b1d6-4816-87d4-f1f8d0a00c6b {
        fill: #f9a723;
      }

      .uuid-a18afeca-8b09-4f0f-acfd-b939a492045c, .uuid-57a4487c-ab0d-45e7-bcdb-31380f7058fe {
        fill: #fff7f0;
      }

      .uuid-0b44583d-d0ab-401d-bf44-3fab20b4cfe3 {
        clip-path: url(#uuid-41d8c490-a2b5-4ce3-9120-3480010acea7);
      }

      .uuid-7a856aa2-b511-4b15-8b44-65c14813becd {
        clip-path: url(#uuid-86749df8-09be-4d89-a9e5-b30073c7eb55);
      }

      .uuid-c5531e56-35be-4489-bfa4-2d18d1c48b9a {
        clip-path: url(#uuid-c95a0056-7a63-4914-89d6-429f2c9f02dd);
      }
    </style><clipPath id="uuid-86749df8-09be-4d89-a9e5-b30073c7eb55"><path class="uuid-38147cdf-a163-4f62-b3ec-fbcafbd26544" d="m236.72,508.58l-27.63-35.34c-.99-1.27-2.89-1.3-3.93-.08l-4.54,5.35c-1.19,1.4-1.23,3.44-.1,4.88l29.22,37.38c1.22,1.56,3.1,2.48,5.08,2.48h71.09c1.33,0,2.41-1.08,2.41-2.41v-8.19c0-1.33-1.08-2.41-2.41-2.41h-65.78c-1.34,0-2.6-.62-3.42-1.67h0Z"/></clipPath><clipPath id="uuid-41d8c490-a2b5-4ce3-9120-3480010acea7"><path class="uuid-38147cdf-a163-4f62-b3ec-fbcafbd26544" d="m469.32,415.42c-.66-.63-1.59-.86-2.47-.62-5.87,1.59-29.25,8.95-53.86,30.76-23.28,20.64-30.4,35.59-32.22,40.34-.37.98-.27,2.06.31,2.94,1.37,2.1,4.19,6.25,6.89,9.08,4.73,4.98,26.38-2.07,55.09-27.69,28.72-25.62,37.69-40.52,34.25-45.67-2.52-3.77-6.2-7.44-7.99-9.14h0Z"/></clipPath><clipPath id="uuid-c95a0056-7a63-4914-89d6-429f2c9f02dd"><path class="uuid-38147cdf-a163-4f62-b3ec-fbcafbd26544" d="m477.9,426.07h0c-.62-4.79-20.55-1.28-53.98,25.69-33.41,26.94-37.41,45.67-34.1,47.26,7.15,2.33,27.31-5.65,53.25-28.79,24.07-21.47,34.26-35.41,34.9-42.4,0-.73,0-1.33-.07-1.76h0Z"/></clipPath></defs><g id="uuid-ba66d85f-07fa-4fc3-953c-f19e41c3212a" data-name="uuid-26a6d1fb-7a7a-43d6-9d7d-4988c6494f43"><g><g><path class="uuid-08975e20-1e06-470a-a6ad-274a08437e44" d="m232.09,463.9l-4.76,4.74s-12.85-2.78-19.77,7.48l29.07,36.91h68.51s.65-17.01-14.04-25.82c-8.29-5.06-18.57-5.38-18.57-5.38,0,0,.59-5.4-10.04-6.52-6.71-.71-10.69-1.45-11.43,5.09-3.34-.74-3.38.51-4.52.47-12.74-5.97-14.45-16.98-14.45-16.98h0Z"/><path class="uuid-57a4487c-ab0d-45e7-bcdb-31380f7058fe" d="m224.97,486.65l8.84,6.43c1.34.98,2.96,1.51,4.63,1.51h1.91c1.22,0,2.42.28,3.51.83l13.47,6.72c2.02,1.01,4.44.71,6.16-.75l4.2-3.56s-2.45-1.65-5.37-3.34c-.93.79-2.49,2.38-2.49,2.38-.47.45-1.18.54-1.75.23l-13.14-7.28c-1.17-.65-2.48-.99-3.81-.99h-1.5c-1.68,0-3.31-.54-4.66-1.53l-9.07-6.67-.92,6.03h0Z"/><g><path class="uuid-37f640f1-0b58-490d-aa0c-c6db63473e01" d="m224.03,468.31c5.12,10.55-1.65,27.23-1.65,27.23"/><path class="uuid-37f640f1-0b58-490d-aa0c-c6db63473e01" d="m272.94,501.95s-10.29-10.01-26.93-13.68c0,0-.04-4.76.53-7.38"/><path class="uuid-37f640f1-0b58-490d-aa0c-c6db63473e01" d="m251.06,480.41c-.2,1.65,0,4.68,0,4.68,0,0,14.89,1.67,24.77,11.68"/><path class="uuid-90c49120-ed8c-4549-b597-935fb43d9a5c" d="m233.41,508.95c11.41-5.97,21.79-.21,38.23-2.92"/><path class="uuid-37f640f1-0b58-490d-aa0c-c6db63473e01" d="m292.35,488.02c-19.07,2.22-21.4,18.25-21.65,25.02"/><path class="uuid-37f640f1-0b58-490d-aa0c-c6db63473e01" d="m244.42,489.63c5.92-5.31,14.38-9.03,28.11-7.79"/></g><g><path class="uuid-57a4487c-ab0d-45e7-bcdb-31380f7058fe" d="m272.79,481.86s-1.22-4.06-6.78-4.06c-7.86,0-12.12,6.94-13.58,9.53-1.46,2.58,2.88,4.92,4.88,1.92,4.3-6.42,6.78-7.15,8.16-7.61,3.05-.17,7.32.21,7.32.21h0Z"/><path class="uuid-57a4487c-ab0d-45e7-bcdb-31380f7058fe" d="m286.4,484.77s-.85-4.3-6.5-4.83c-7.98-.74-12.97,6.03-14.7,8.56-1.73,2.53,2.45,5.35,4.77,2.44,4.98-6.23,9.01-7.6,10.46-7.94,1.97.42,5.97,1.76,5.97,1.76h0Z"/></g><g><path class="uuid-a18afeca-8b09-4f0f-acfd-b939a492045c" d="m236.72,508.58l-27.63-35.34c-.99-1.27-2.89-1.3-3.93-.08l-4.54,5.35c-1.19,1.4-1.23,3.44-.1,4.88l29.22,37.38c1.22,1.56,3.1,2.48,5.08,2.48h71.09c1.33,0,2.41-1.08,2.41-2.41v-8.19c0-1.33-1.08-2.41-2.41-2.41h-65.78c-1.34,0-2.6-.62-3.42-1.67h0Z"/><g class="uuid-7a856aa2-b511-4b15-8b44-65c14813becd"><g><path class="uuid-37f640f1-0b58-490d-aa0c-c6db63473e01" d="m233.72,513.58l-31.07-39.51c-.99-1.27-2.89-1.3-3.93-.08l-4.54,5.35c-1.19,1.4-1.23,3.44-.1,4.88l32.66,41.55c1.22,1.56,3.1,2.48,5.08,2.48h78.32c1.33,0,2.41-1.08,2.41-2.41v-8.19c0-1.33-1.08-2.41-2.41-2.41h-73c-1.34,0-2.6-.62-3.42-1.67h0Z"/><path class="uuid-37f640f1-0b58-490d-aa0c-c6db63473e01" d="m257.13,515.25c-4.65,4.53-7.01,15.59-7.01,15.59"/><path class="uuid-c3665144-c5cd-4a6e-8bcd-77622d93734e" d="m203.87,471.28l31.75,40.14c.73.92,1.83,1.45,3,1.45h72.64"/></g></g><path class="uuid-37f640f1-0b58-490d-aa0c-c6db63473e01" d="m236.72,508.58l-27.63-35.34c-.99-1.27-2.89-1.3-3.93-.08l-4.54,5.35c-1.19,1.4-1.23,3.44-.1,4.88l29.22,37.38c1.22,1.56,3.1,2.48,5.08,2.48h71.09c1.33,0,2.41-1.08,2.41-2.41v-8.19c0-1.33-1.08-2.41-2.41-2.41h-65.78c-1.34,0-2.6-.62-3.42-1.67h0Z"/></g></g><g><path class="uuid-08975e20-1e06-470a-a6ad-274a08437e44" d="m374.29,449.88l5.62,6.52s-3.17,17.71,2.54,31.11c0,0,5.33-16.06,31.48-39.12,26.16-23.06,53.73-30.88,53.73-30.88,0,0-10.6-11.39-29.3-10.31-18.7,1.08-28.7,15.35-28.7,15.35l-7.34-6.97c-1.07-.79-2.2-1.09-3.35-.95-2.22.27-4.71,2.12-8.72,5.16-.66.5-.78,1.46-.26,2.11l1.05,1.3s-16.35,11.66-16.75,26.68h0Z"/><g><path class="uuid-37f640f1-0b58-490d-aa0c-c6db63473e01" d="m438.37,407.2c-12.71,7.85-5.52,21.67-3.18,25.5"/><path class="uuid-37f640f1-0b58-490d-aa0c-c6db63473e01" d="m387.04,426.55l16.04,14.9s14.31-12.47,28.39-17.83"/><path class="uuid-37f640f1-0b58-490d-aa0c-c6db63473e01" d="m431.04,419.33c-13.06,3.21-27.36,15.6-27.36,15.6l-12.64-11.73"/><path class="uuid-37f640f1-0b58-490d-aa0c-c6db63473e01" d="m379.19,462.98c7.61-4.75,16.48,0,16.48,0"/><path class="uuid-57a4487c-ab0d-45e7-bcdb-31380f7058fe" d="m409.66,422.54s-3.89,5.28-6.92,15.26"/></g><path class="uuid-57a4487c-ab0d-45e7-bcdb-31380f7058fe" d="m393.02,461.84s-4.36-1.04-6.05-.97l6.92-6.51c.88-.83,1.41-1.96,1.49-3.17h0c.1-1.53.92-2.92,2.22-3.73l18.26-11.43c.9-.56,1.46-1.53,1.48-2.59.02-.73,0-1.61-.11-2.44,0,0,3.79-2.34,5.17-3.09,0,0,.19,4.73.12,7.32-.03,1.03-.55,1.99-1.42,2.56l-18.86,12.04c-1.06.7-1.79,1.8-2.04,3.04l-.19.95c-.19.94-.65,1.81-1.34,2.48l-5.66,5.52h0Z"/><g><path class="uuid-a18afeca-8b09-4f0f-acfd-b939a492045c" d="m469.32,415.42c-.66-.63-1.59-.86-2.47-.62-5.87,1.59-29.25,8.95-53.86,30.76-23.28,20.64-30.4,35.59-32.22,40.34-.37.98-.27,2.06.31,2.94,1.37,2.1,4.19,6.25,6.89,9.08,4.73,4.98,26.38-2.07,55.09-27.69,28.72-25.62,37.69-40.52,34.25-45.67-2.52-3.77-6.2-7.44-7.99-9.14h0Z"/><g class="uuid-0b44583d-d0ab-401d-bf44-3fab20b4cfe3"><g><path class="uuid-37f640f1-0b58-490d-aa0c-c6db63473e01" d="m472.79,418c-6.13,1.66-31.38,8.54-57.1,31.34-24.34,21.57-30.97,38.01-32.86,42.97"/><path class="uuid-c3665144-c5cd-4a6e-8bcd-77622d93734e" d="m470.98,416.08c-6.13,1.66-31.16,8.82-56.88,31.61-24.34,21.57-30.97,38.01-32.86,42.97"/><path class="uuid-37f640f1-0b58-490d-aa0c-c6db63473e01" d="m426.8,440.38c.35,3.83,1.54,7.89,1.54,7.89"/></g></g><path class="uuid-37f640f1-0b58-490d-aa0c-c6db63473e01" d="m469.32,415.42c-.66-.63-1.59-.86-2.47-.62-5.87,1.59-29.25,8.95-53.86,30.76-23.28,20.64-30.4,35.59-32.22,40.34-.37.98-.27,2.06.31,2.94,1.37,2.1,4.19,6.25,6.89,9.08,4.73,4.98,26.38-2.07,55.09-27.69,28.72-25.62,37.69-40.52,34.25-45.67-2.52-3.77-6.2-7.44-7.99-9.14h0Z"/></g><g><path class="uuid-a7665a25-b1d6-4816-87d4-f1f8d0a00c6b" d="m477.9,426.07h0c-.62-4.79-20.55-1.28-53.98,25.69-33.41,26.94-37.41,45.67-34.1,47.26,7.15,2.33,27.31-5.65,53.25-28.79,24.07-21.47,34.26-35.41,34.9-42.4,0-.73,0-1.33-.07-1.76h0Z"/><g class="uuid-c5531e56-35be-4489-bfa4-2d18d1c48b9a"><g><g><line class="uuid-37f640f1-0b58-490d-aa0c-c6db63473e01" x1="381.54" y1="492.75" x2="444.59" y2="492.75"/><line class="uuid-37f640f1-0b58-490d-aa0c-c6db63473e01" x1="387.1" y1="486.55" x2="450.14" y2="486.55"/><line class="uuid-37f640f1-0b58-490d-aa0c-c6db63473e01" x1="392.37" y1="479.4" x2="455.41" y2="479.4"/><line class="uuid-37f640f1-0b58-490d-aa0c-c6db63473e01" x1="398.7" y1="472.12" x2="461.75" y2="472.12"/><line class="uuid-37f640f1-0b58-490d-aa0c-c6db63473e01" x1="406.85" y1="464.43" x2="469.89" y2="464.43"/><line class="uuid-37f640f1-0b58-490d-aa0c-c6db63473e01" x1="413.06" y1="457.06" x2="476.11" y2="457.06"/><line class="uuid-37f640f1-0b58-490d-aa0c-c6db63473e01" x1="422.54" y1="449.74" x2="485.59" y2="449.74"/><line class="uuid-37f640f1-0b58-490d-aa0c-c6db63473e01" x1="431.04" y1="442.32" x2="494.08" y2="442.32"/><line class="uuid-37f640f1-0b58-490d-aa0c-c6db63473e01" x1="439.8" y1="434.91" x2="502.84" y2="434.91"/><line class="uuid-37f640f1-0b58-490d-aa0c-c6db63473e01" x1="446.44" y1="428.43" x2="509.49" y2="428.43"/></g><g><line class="uuid-37f640f1-0b58-490d-aa0c-c6db63473e01" x1="425.89" y1="534.09" x2="367.66" y2="456.06"/><line class="uuid-37f640f1-0b58-490d-aa0c-c6db63473e01" x1="432.22" y1="530.76" x2="374" y2="452.74"/><line class="uuid-37f640f1-0b58-490d-aa0c-c6db63473e01" x1="439.41" y1="526.76" x2="381.19" y2="448.74"/><line class="uuid-37f640f1-0b58-490d-aa0c-c6db63473e01" x1="445.19" y1="521.9" x2="386.97" y2="443.88"/><line class="uuid-37f640f1-0b58-490d-aa0c-c6db63473e01" x1="451.27" y1="516.55" x2="393.04" y2="438.52"/><line class="uuid-37f640f1-0b58-490d-aa0c-c6db63473e01" x1="458.93" y1="511.95" x2="400.7" y2="433.93"/><line class="uuid-37f640f1-0b58-490d-aa0c-c6db63473e01" x1="465.81" y1="507.2" x2="407.59" y2="429.17"/><line class="uuid-37f640f1-0b58-490d-aa0c-c6db63473e01" x1="472.37" y1="502.45" x2="414.15" y2="424.42"/><line class="uuid-37f640f1-0b58-490d-aa0c-c6db63473e01" x1="478.85" y1="496.98" x2="420.62" y2="418.95"/><line class="uuid-37f640f1-0b58-490d-aa0c-c6db63473e01" x1="485.17" y1="491.75" x2="426.95" y2="413.72"/><line class="uuid-37f640f1-0b58-490d-aa0c-c6db63473e01" x1="492.86" y1="486.51" x2="434.64" y2="408.48"/><line class="uuid-37f640f1-0b58-490d-aa0c-c6db63473e01" x1="500.02" y1="481.69" x2="441.8" y2="403.66"/><line class="uuid-37f640f1-0b58-490d-aa0c-c6db63473e01" x1="507.96" y1="477.54" x2="449.73" y2="399.51"/></g></g></g><path class="uuid-37f640f1-0b58-490d-aa0c-c6db63473e01" d="m477.9,426.07h0c-.62-4.79-20.55-1.28-53.98,25.69-33.41,26.94-37.41,45.67-34.1,47.26,7.15,2.33,27.31-5.65,53.25-28.79,24.07-21.47,34.26-35.41,34.9-42.4,0-.73,0-1.33-.07-1.76h0Z"/></g><g><path class="uuid-57a4487c-ab0d-45e7-bcdb-31380f7058fe" d="m408.54,421.02c-3.73,3.19-6.72,6.78-9.07,9.63-2.35,2.86-6.8.03-3.59-3.64,3.21-3.67,7.19-7.82,9.39-9.15,2.2-1.33,5.76,1.03,3.27,3.15h0Z"/><path class="uuid-57a4487c-ab0d-45e7-bcdb-31380f7058fe" d="m418.62,414.25s-3.47-2.43-7.84,1.01c-6.17,4.87-5.22,12.96-4.76,15.89s5.3,2.08,5.02-1.51c-.6-7.7.9-9.81,1.7-11.03,2.29-2.02,5.88-4.36,5.88-4.36h0Z"/><path class="uuid-57a4487c-ab0d-45e7-bcdb-31380f7058fe" d="m431.11,408.11s-3.34-2.85-8.09.24c-6.73,4.36-6.45,12.77-6.24,15.82s5.24,2.68,5.26-1.04c.05-7.97,2.38-11.55,3.3-12.71,1.81-.89,5.78-2.31,5.78-2.31Z"/></g></g></g></g></svg>
<svg id="uuid-5e467335-96f0-4a19-bf5d-f66d24f9f050" data-name="BODY" xmlns="http://www.w3.org/2000/svg" viewBox="0 0 600 600"><defs><style>
      .uuid-c95b386d-6b7a-48bc-b015-46353c5ddf6d, .uuid-6dfda773-13b8-4575-9246-263a2a33ff95 {
        stroke-miterlimit: 10;
      }

      .uuid-c95b386d-6b7a-48bc-b015-46353c5ddf6d, .uuid-6dfda773-13b8-4575-9246-263a2a33ff95, .uuid-d59f6628-b02a-4e8d-88df-548bea5614f0 {
        stroke: #000;
        stroke-width: 2px;
      }

      .uuid-c95b386d-6b7a-48bc-b015-46353c5ddf6d, .uuid-d59f6628-b02a-4e8d-88df-548bea5614f0 {
        fill: #ffc9f1;
      }

      .uuid-6dfda773-13b8-4575-9246-263a2a33ff95 {
        fill: #a07bff;
      }

      .uuid-d59f6628-b02a-4e8d-88df-548bea5614f0 {
        stroke-linejoin: round;
      }
    </style></defs><path d="m444.53,340.27c-.12,10.07-1.69,20.13-1.47,32.18,0,0-31.96-13.5-37.8-15.9l11.83-26.02,27.44,9.74Z"/><g id="uuid-e0b59ec1-2080-4c6b-8b31-c6fdef44f520" data-name="cloth"><path class="uuid-c95b386d-6b7a-48bc-b015-46353c5ddf6d" d="m263.36,371.55c24.26-.34,48.58-3.99,69.96-9.03-7.88-3.13-21.03-8.64-28.59-13.47-15.72-10.04-37.83-23.22-78.26-39.57-40.44-16.35-60.88-16.79-64.71-17.14-3.83-.35-3.65,17.91.52,18.78s34.19,3.67,60.28,20.36c19.37,12.39,34.36,31.2,40.8,40.07Z"/><g><path class="uuid-d59f6628-b02a-4e8d-88df-548bea5614f0" d="m175.19,380.92c.57-2.14,1.73-4.09,3.39-5.55,4.11-3.58,9.38-8.16,14.73-12.73-12.63-3.41-19.99-6.47-19.99-6.47,0,0,1.19,7.68-3.39,24.26-4.47,16.18-10.42,24.96-10.42,24.96l10.07-2.77c1.77-7.01,3.99-15.7,5.61-21.71Z"/><path class="uuid-d59f6628-b02a-4e8d-88df-548bea5614f0" d="m436.02,361.39c2.62-27.84,1.57-45.91,1.57-45.91,0,0-23.21,23.41-84.08,41.67-31.63,9.49-73.99,16.96-113.56,13.64-1.29-.11-2.56-.23-3.83-.35l-28.31,23.41c-1.75,1.43-2.97,3.39-3.49,5.59l-6.17,23.11c1.6-.19,3.09-.11,4.48.18,10.94-4.39,20.36-13.9,20.36-13.9,0,0,3.04,11.81,3.04,28.1,12.65-1.74,29.55-18.91,29.55-18.91,0,0,3.71,13.26-4.81,29.26,17.78,0,33.52-20.56,33.52-20.56l15.94,23.95s7.48-5.92,14.49-22.21c7.39-17.17,6.6-34.62,8.99-41.14,9.67-6.47,21.58-10.5,33.18-7.49,6.62,1.72,12.55,5.45,17.68,9.89,5.18,4.49,8.72,10.46,13.8,15.02,4.08,3.66,9.3,5.25,14.65,5.91,1.08.13,11.39,1.12,11.39.41v-21.3l23.94,6.09s-4.77-8.69-2.35-34.45Zm-191.58,34.15c-.44-.17-.87-.39-1.26-.65-1.82-1.21-2.89-3.3-3.34-5.43-.47-2.21-.24-4.77,1.39-6.34,3.5-3.39,16.29-2.61,17.11,3.38.62,4.53-5.71,8.89-9.45,9.45-1.49.22-3.05.13-4.45-.41Zm26.93,14.8c-.72,1.06-1.77,1.95-3.12,2.45-2.19.82-4.72.56-6.81-.48-1.36-.67-2.61-1.74-3.06-3.19-.24-.78-.24-1.62-.09-2.42.82-4.42,6.05-6.74,10.14-5.47,4.34,1.34,5.06,6,2.95,9.11Zm133.66-31.05c-.04.27-.1.55-.16.81-.87,3.69-3.13,7.03-6.22,9.21-.82.58-1.74,1.09-2.75,1.14-1.96.09-3.54-1.59-4.51-3.29-1.62-2.85-2.38-6.34-1.39-9.46,1.64-5.18,7.44-6.92,12.06-4.49,1.32.69,2.44,1.84,2.87,3.26.28.91.25,1.88.1,2.82Z"/></g><path d="m206.23,395.47c-.91,1.16-1.57,2.51-1.91,3.96l-6.17,23.11c1.27-.15,2.48-.13,3.62.03l36.18-52.57-31.72,25.47Z"/><g id="uuid-7fe29411-92c2-4f52-b005-f15084171df6" data-name="zurzido"><path class="uuid-6dfda773-13b8-4575-9246-263a2a33ff95" d="m308.67,383.17c-5.42,4.18-10.17,10.28-13.38,16.13-2.78,5.06-10.1,2.03-7.89-5.55,1.89-6.46,9.65-12.22,14.53-16.48,5.01-4.37,14,.29,6.74,5.9Z"/><path class="uuid-6dfda773-13b8-4575-9246-263a2a33ff95" d="m302.21,395.42c-4.91-4.7-11.8-8.62-18.29-11.12-5.62-2.17-3.02-9.26,5.22-7.84,7.02,1.21,13.81,7.97,18.76,12.17,5.07,4.31.89,13.1-5.7,6.79Z"/></g></g></svg>
<svg id="uuid-d89b1a3b-1abc-4239-8dc4-47b8ed987a23" data-name="BODY" xmlns="http://www.w3.org/2000/svg" viewBox="0 0 600 600"><defs><style>
      .uuid-c5c1942b-919f-4361-a538-7c7e7cf852f0 {
        fill: #7aa6ff;
      }

      .uuid-c5c1942b-919f-4361-a538-7c7e7cf852f0, .uuid-e2f7ad43-e6dd-4758-93ba-680831edc001, .uuid-56ad82ea-d48e-4308-a763-e34c42640525 {
        stroke: #000;
        stroke-linecap: round;
        stroke-linejoin: round;
      }

      .uuid-c5c1942b-919f-4361-a538-7c7e7cf852f0, .uuid-56ad82ea-d48e-4308-a763-e34c42640525 {
        stroke-width: 2px;
      }

      .uuid-e2f7ad43-e6dd-4758-93ba-680831edc001 {
        stroke-width: 2px;
      }

      .uuid-e2f7ad43-e6dd-4758-93ba-680831edc001, .uuid-56ad82ea-d48e-4308-a763-e34c42640525 {
        fill: #ff78d8;
      }
    </style></defs><g id="uuid-333657bb-b618-45a7-b183-dcd3ce45fb5d" data-name="uuid-2b0117f1-1776-4845-a0f5-c237a6ca9f96"><g id="uuid-04b458af-e80e-46bd-b30a-189016c9a742" data-name="uuid-0881513b-7c8c-44a0-be29-2e98fb16f773"><g id="uuid-16e95431-6b51-4de0-bde5-963b33635208" data-name="uuid-4ea92ad2-89cb-4935-9ee1-ea64959099a6"><g><path class="uuid-c5c1942b-919f-4361-a538-7c7e7cf852f0" d="m505.78,307.9s-4.59-35.13-27.13-66.82-85.23-42.92-85.23-42.92l-6.19-5.32s71.3,10.02,95.45,45.45c24.73,36.26,27.59,68.56,27.59,68.56l-4.5,1.04h0Z"/><path class="uuid-56ad82ea-d48e-4308-a763-e34c42640525" d="m520.68,366.22h0c.19,3.16-2.22,5.88-5.38,6.07l-.42.03c-3.16.19-5.88-2.22-6.07-5.38h0c-.19-3.16,2.22-5.88,5.38-6.07"/><g><path class="uuid-56ad82ea-d48e-4308-a763-e34c42640525" d="m209.79,442.76l-10.47-3.08h0c-2.15,1.3-3.42,3.25-4.07,4.89-.65,1.64-1.36,4.56-1.31,5.93l12.49,3.67c3.15.93,6.46-.88,7.38-4.03.93-3.15-.88-6.46-4.03-7.38Z"/><path class="uuid-56ad82ea-d48e-4308-a763-e34c42640525" d="m155.06,426.69c-3-.62-6.02,1.15-6.9,4.14-.93,3.15.88,6.46,4.03,7.38.65-2.81,1.99-9.48,2.87-11.53Z"/><path class="uuid-e2f7ad43-e6dd-4758-93ba-680831edc001" d="m202.75,447.11l.12-.41c.89-3.04,4.08-4.78,7.12-3.88h0c3.04.89,4.78,4.08,3.88,7.12l-.12.41c-.89,3.04-4.08,4.78-7.12,3.88h0c-3.04-.89-4.78-4.08-3.88-7.12Z"/></g><path class="uuid-c5c1942b-919f-4361-a538-7c7e7cf852f0" d="m174.51,242.11c-21.63,3.45-53.44-10.17-83.85-12-31.14-1.87-60.79,11.08-40.28,52.1,20.51,41.02,59.59,52.7,114.24,56.6,54.65,3.89,97.92,20.21,101.66,58.84,3.74,38.63-34.37,58.11-57.97,52.98-2.92-.63-2.05-4.33.9-3.83,10.1,1.72,47.12-2.23,52.61-38.59,5.49-36.37-29.45-61.17-96.95-65.11s-99.59-20.44-119.06-59.62c-17.82-35.86-2.26-59.81,45.89-58.16,23.43.8,48.13,11.53,84.9,12.48l-2.09,4.32h0Z"/><g><path class="uuid-56ad82ea-d48e-4308-a763-e34c42640525" d="m502.55,311.9s.07.03.11.05c2.71,1.34,4.95,4.09,4.95,4.09,0,0,3.47-4.64,6.71-5.9h0l-.07-.61c-.37-3.26-3.32-5.61-6.58-5.24-3.26.37-5.61,3.32-5.24,6.58l.12,1.04Z"/><path class="uuid-56ad82ea-d48e-4308-a763-e34c42640525" d="m520.35,363.24c-6.52-1.27-10.5-5.36-10.34-10.27.17-5.32,6.11-8.75,6.11-8.75,0,0-3.24-1.27-4.24-5.03-1.42-5.33,2.68-9.46,2.68-9.46-4.23-.67-6.25-2.9-6.25-2.9,0,0-1.95,2.45-3.7,3.18l4.2,37.02c.37,3.26,3.32,5.61,6.58,5.24,3.26-.37,5.61-3.32,5.24-6.58l-.28-2.46Z"/></g></g></g></g></g></svg>
</svg>