<?xml version="1.0" encoding="UTF-8"?>
<svg xmlns="http://www.w3.org/2000/svg" viewBox="0 0 600 600">
<svg id="uuid-d9dcaeb1-b3e9-4103-a9e9-674eb3b1cf0f" data-name="BACKGROUND" xmlns="http://www.w3.org/2000/svg" viewBox="0 0 600 600"><defs><style>
      .uuid-ddba642b-737c-447a-8d97-1fa19eb8e4a8 {
        fill: #ff78d8;
      }
    </style></defs><rect class="uuid-ddba642b-737c-447a-8d97-1fa19eb8e4a8" x="-1" y="-1" width="602" height="602"/></svg>
<svg id="uuid-33f0a83e-2b0c-4eb8-8fa3-bfa9ea5086d3" data-name="BACKGROUND" xmlns="http://www.w3.org/2000/svg" viewBox="0 0 600 600"><defs><style>
      .uuid-450a74f4-b6b6-47ff-a9b8-91a171e1e341, .uuid-7fae2aa8-9ea1-45c0-a459-daab5bb141c8, .uuid-28d15e62-18ad-457b-95e7-fa4bdbf6607d, .uuid-f34e6d04-5895-4a55-8123-65c0a5c276be, .uuid-6f41a922-4956-4224-af6c-3d28e38947e5, .uuid-57d641cc-3e15-4ae9-829f-c36df3c7f79a, .uuid-5d2ce935-29a4-4a67-ac10-b6bb4cf3dd30 {
        stroke: #000;
        stroke-width: 2px;
      }

      .uuid-450a74f4-b6b6-47ff-a9b8-91a171e1e341, .uuid-7fae2aa8-9ea1-45c0-a459-daab5bb141c8, .uuid-28d15e62-18ad-457b-95e7-fa4bdbf6607d, .uuid-6f41a922-4956-4224-af6c-3d28e38947e5, .uuid-57d641cc-3e15-4ae9-829f-c36df3c7f79a {
        stroke-linecap: round;
      }

      .uuid-450a74f4-b6b6-47ff-a9b8-91a171e1e341, .uuid-f34e6d04-5895-4a55-8123-65c0a5c276be, .uuid-57d641cc-3e15-4ae9-829f-c36df3c7f79a, .uuid-5d2ce935-29a4-4a67-ac10-b6bb4cf3dd30 {
        fill: #8400ff;
      }

      .uuid-450a74f4-b6b6-47ff-a9b8-91a171e1e341, .uuid-6f41a922-4956-4224-af6c-3d28e38947e5, .uuid-5d2ce935-29a4-4a67-ac10-b6bb4cf3dd30 {
        stroke-linejoin: round;
      }

      .uuid-7b9f3a05-4cc7-4b23-b3bf-179c77ea9f5f, .uuid-28d15e62-18ad-457b-95e7-fa4bdbf6607d {
        fill: #fff;
      }

      .uuid-7fae2aa8-9ea1-45c0-a459-daab5bb141c8 {
        fill: #ffff0d;
      }

      .uuid-7fae2aa8-9ea1-45c0-a459-daab5bb141c8, .uuid-28d15e62-18ad-457b-95e7-fa4bdbf6607d, .uuid-f34e6d04-5895-4a55-8123-65c0a5c276be, .uuid-57d641cc-3e15-4ae9-829f-c36df3c7f79a {
        stroke-miterlimit: 10;
      }

      .uuid-6f41a922-4956-4224-af6c-3d28e38947e5 {
        fill: none;
      }
    </style></defs><path class="uuid-450a74f4-b6b6-47ff-a9b8-91a171e1e341" d="m409.81,359.6c9.2,3.77,29.89,12.05,42.79,16.03,2.11.65,4.41.69,6.5-.04,11.79-4.08,28.47-11.39,33.03-11.32,5.25.08,7.8,3.93,19.88,2.04,13.36-2.1,22.43-11.99,20.93-23.3-4.21-43.28-25.18-26.79-25.18-26.79,0,0-5.84-8.75-18.76-4.82-11.83,3.6-10.2,14.44-6.47,22.47l-25.29,8.58c-2.14.72-4.45.71-6.59-.02l-35.7-12.61"/><path class="uuid-57d641cc-3e15-4ae9-829f-c36df3c7f79a" d="m533.36,312.82c2.5,3.94,1.62,9.14-1.57,12.4-2.47,2.53-5.88,3.88-9.32,4.4-2.8.43-5.7.42-8.49-.08-2.14-.39-4.29-1.1-5.79-2.75-1.66-1.83-2.27-4.46-1.98-6.87.51-4.17,3.84-7.14,7.22-9.26,3.17-1.98,6.86-3.26,10.64-3.09,3.8.18,7.36,2.19,9.3,5.24Z"/><path class="uuid-57d641cc-3e15-4ae9-829f-c36df3c7f79a" d="m538.57,349.84c.97,3.03.32,6.43-1.5,9.01-3.77,5.33-11.17,5.65-16.96,4.27-3.31-.79-6.69-2.21-8.67-5.13-3.13-4.61-.82-9.79,3.48-12.56,2.58-1.66,5.61-2.67,8.63-3.14,5.73-.89,13.1,1.51,15.03,7.56Z"/><path class="uuid-57d641cc-3e15-4ae9-829f-c36df3c7f79a" d="m538.71,328.53c1.8,2.99,2.06,6.89.22,9.9-1.95,3.2-4.94,5.25-8.49,6.28-3.66,1.07-7.64,1.27-11.4.44-2.25-.5-4.53-1.38-5.96-3.28-1.86-2.47-1.89-5.68-.85-8.49,1.2-3.24,4.17-5.69,7.09-7.37,6.15-3.56,15.21-4.43,19.39,2.52Z"/><path class="uuid-57d641cc-3e15-4ae9-829f-c36df3c7f79a" d="m501.85,311.68s9.27,3.84,7.77,12.02c-1.04,5.68-8.17,9.55-14.94,6.13"/><path class="uuid-6f41a922-4956-4224-af6c-3d28e38947e5" d="m500.67,331.08c2.41,1.63,5.11,8.04,3.4,14.42"/><path d="m443.44,339.88c-2.88,10.58-6.94,20.23-11.17,28.59-10.17-3.78-21.16-9.53-27-11.93l11.83-26.02,26.35,9.36Z"/><ellipse cx="300" cy="518.65" rx="138.6" ry="22.93"/><path class="uuid-f34e6d04-5895-4a55-8123-65c0a5c276be" d="m319.36,427.14c-1.16,1.05-54.95,57-54.95,57,0,0,21.51-1.95,31.74,10.62,10.23,12.57,7.26,23.89,7.26,23.89h-66.9s-28.69-36.17-28.69-36.17c0,0,3.74-13.4,20.44-10.59,20.9-19.38,55.52-59.13,55.52-59.13l35.59,14.38Z"/><path d="m283.78,412.76l31.28,12.64-3.24,9.5c-2.93,3.03-9.76,10.12-13.64,14.14-11.92,0-27.98-2.13-41.33-6.37,13.95-15.1,26.93-29.92,26.93-29.92Z"/><path class="uuid-f34e6d04-5895-4a55-8123-65c0a5c276be" d="m354.45,173.54l-.11.27-174.2,58.29c-11.49,20.13-18.05,43.43-18.05,68.27,0,76.2,61.77,137.98,137.97,137.98s137.98-61.77,137.98-137.98c0-56.89-34.43-105.72-83.58-126.83Z"/><path class="uuid-6f41a922-4956-4224-af6c-3d28e38947e5" d="m264.41,484.14c-4.06.49-11.49,1.36-17.85,7.23"/><path class="uuid-7b9f3a05-4cc7-4b23-b3bf-179c77ea9f5f" d="m185.17,308.14c-4.41,0-7.98-3.57-7.98-7.98,0-67.74,55.11-122.86,122.86-122.86,4.41,0,7.98,3.57,7.98,7.98s-3.57,7.98-7.98,7.98c-58.94,0-106.9,47.95-106.9,106.9,0,4.41-3.57,7.98-7.98,7.98Z"/><path d="m203.75,397.46l34.2-27.46-24.86,36.3c-6.73-5.1-3.66-2.61-9.34-8.83Z"/><path class="uuid-5d2ce935-29a4-4a67-ac10-b6bb4cf3dd30" d="m323.72,387.31c19.14-13.4,39.15-11.3,55.52,7.36,19.6,22.35,30.57,33.06,30.57,33.06,0,0,10.74-19.34,34.77-17.5,18.26,1.4,24.84,14.43,24.84,14.43,0,0,6.21,8.82-22.45,33.5-28.66,24.68-54.93,40.92-61.14,29.46-6.21-11.46-2.82-32.1-2.82-32.1,0,0-22.02-26.09-27.94-32.01-6.79-6.79-15.71-1.36-15.71-1.36"/><path class="uuid-f34e6d04-5895-4a55-8123-65c0a5c276be" d="m446.97,458.17c-25.89,22.29-49.82,37.69-58.79,32.02-9.77-7.44,26.84-38.54,44.88-52.7,18.04-14.16,32.17-17.82,36.36-12.81,0,0,6.21,8.82-22.45,33.5Z"/><path class="uuid-6f41a922-4956-4224-af6c-3d28e38947e5" d="m409.81,427.74c-1.89,2.86-4.55,10.38-4.55,10.38"/><ellipse class="uuid-28d15e62-18ad-457b-95e7-fa4bdbf6607d" cx="269.41" cy="209.07" rx="94.9" ry="26.25" transform="translate(-52.5 96.54) rotate(-18.55)"/><ellipse class="uuid-7fae2aa8-9ea1-45c0-a459-daab5bb141c8" cx="269.41" cy="209.07" rx="71.19" ry="13.32" transform="translate(-52.5 96.54) rotate(-18.55)"/><g><path class="uuid-450a74f4-b6b6-47ff-a9b8-91a171e1e341" d="m214.11,345.7c-8.05,5.83-25.34,20.79-35.52,29.67-1.67,1.45-2.82,3.41-3.39,5.55-3.14,11.67-8.55,33.44-8.55,33.44,0,0-8.42.58-12.19,14.35-3.64,13.3-6.64,25.06,3.77,29.75.35,7.47,7.51,15.45,19.2,9.41.14-.06,1.32,1.32,1.44,1.45,2.64,2.7,6.36,4.45,10.13,4.81,3.65.36,7.61-.67,10.43-3.08,3.29-2.81,5.4-6.94,6.05-11.2.4-2.61.26-5.31-.75-7.78,0,0,6.2-2.51,8.05-11.34,1.99-9.49-4.22-19.42-14.62-18.18l6.17-23.11c.51-2.2,1.74-4.16,3.49-5.59l29.38-24.3"/><path class="uuid-6f41a922-4956-4224-af6c-3d28e38947e5" d="m204.73,452.06c-1.37-3.47-5.39-7.08-9-6.88"/><path class="uuid-6f41a922-4956-4224-af6c-3d28e38947e5" d="m178.86,469.3c-5.16-5.27-3.82-11.97-2.9-13.54"/><path class="uuid-6f41a922-4956-4224-af6c-3d28e38947e5" d="m158.22,458.45c-.27-5.22.73-7.32,3.06-9.83"/><path class="uuid-6f41a922-4956-4224-af6c-3d28e38947e5" d="m193.93,450.63c.14-2.07.48-4.16,1.32-6.06.85-1.95,2.36-3.88,4.31-4.85"/></g></svg>
<svg id="uuid-853b1779-0b40-4336-9fd3-56860412922a" data-name="BODY" xmlns="http://www.w3.org/2000/svg" viewBox="0 0 600 600"><defs><style>
      .uuid-270fe1d8-6ffc-45cd-908c-63708945a6da {
        fill: none;
        stroke: #000;
        stroke-linecap: round;
        stroke-miterlimit: 10;
        stroke-width: 4px;
      }
    </style></defs><path class="uuid-270fe1d8-6ffc-45cd-908c-63708945a6da" d="m378.79,259.75c-1.76-5.11-7.33-7.82-12.44-6.06s-7.82,7.33-6.06,12.44"/><circle cx="362.12" cy="293.18" r="9.78" transform="translate(-9.59 12.26) rotate(-1.91)"/><path class="uuid-270fe1d8-6ffc-45cd-908c-63708945a6da" d="m346.88,270.76c-1.76-5.11-7.33-7.82-12.44-6.06-5.11,1.76-7.82,7.33-6.06,12.44"/></svg>
<svg id="uuid-a9ec8817-2407-47e3-b451-30ded90b5961" data-name="BACKGROUND" xmlns="http://www.w3.org/2000/svg" xmlns:xlink="http://www.w3.org/1999/xlink" viewBox="0 0 600 600"><defs><style>
      .uuid-38147cdf-a163-4f62-b3ec-fbcafbd26544, .uuid-c3665144-c5cd-4a6e-8bcd-77622d93734e, .uuid-90c49120-ed8c-4549-b597-935fb43d9a5c, .uuid-37f640f1-0b58-490d-aa0c-c6db63473e01, .uuid-0b44583d-d0ab-401d-bf44-3fab20b4cfe3, .uuid-7a856aa2-b511-4b15-8b44-65c14813becd, .uuid-c5531e56-35be-4489-bfa4-2d18d1c48b9a {
        fill: none;
      }

      .uuid-c3665144-c5cd-4a6e-8bcd-77622d93734e, .uuid-08975e20-1e06-470a-a6ad-274a08437e44, .uuid-90c49120-ed8c-4549-b597-935fb43d9a5c, .uuid-57a4487c-ab0d-45e7-bcdb-31380f7058fe, .uuid-37f640f1-0b58-490d-aa0c-c6db63473e01 {
        stroke: #000;
        stroke-linecap: round;
        stroke-linejoin: round;
      }

      .uuid-08975e20-1e06-470a-a6ad-274a08437e44 {
        fill: #353434;
      }

      .uuid-08975e20-1e06-470a-a6ad-274a08437e44, .uuid-90c49120-ed8c-4549-b597-935fb43d9a5c, .uuid-57a4487c-ab0d-45e7-bcdb-31380f7058fe, .uuid-37f640f1-0b58-490d-aa0c-c6db63473e01 {
        stroke-width: 2px;
      }

      .uuid-90c49120-ed8c-4549-b597-935fb43d9a5c {
        stroke-dasharray: 0 0 0 4;
      }

      .uuid-a7665a25-b1d6-4816-87d4-f1f8d0a00c6b {
        fill: #f9a723;
      }

      .uuid-a18afeca-8b09-4f0f-acfd-b939a492045c, .uuid-57a4487c-ab0d-45e7-bcdb-31380f7058fe {
        fill: #fff7f0;
      }

      .uuid-0b44583d-d0ab-401d-bf44-3fab20b4cfe3 {
        clip-path: url(#uuid-41d8c490-a2b5-4ce3-9120-3480010acea7);
      }

      .uuid-7a856aa2-b511-4b15-8b44-65c14813becd {
        clip-path: url(#uuid-86749df8-09be-4d89-a9e5-b30073c7eb55);
      }

      .uuid-c5531e56-35be-4489-bfa4-2d18d1c48b9a {
        clip-path: url(#uuid-c95a0056-7a63-4914-89d6-429f2c9f02dd);
      }
    </style><clipPath id="uuid-86749df8-09be-4d89-a9e5-b30073c7eb55"><path class="uuid-38147cdf-a163-4f62-b3ec-fbcafbd26544" d="m236.72,508.58l-27.63-35.34c-.99-1.27-2.89-1.3-3.93-.08l-4.54,5.35c-1.19,1.4-1.23,3.44-.1,4.88l29.22,37.38c1.22,1.56,3.1,2.48,5.08,2.48h71.09c1.33,0,2.41-1.08,2.41-2.41v-8.19c0-1.33-1.08-2.41-2.41-2.41h-65.78c-1.34,0-2.6-.62-3.42-1.67h0Z"/></clipPath><clipPath id="uuid-41d8c490-a2b5-4ce3-9120-3480010acea7"><path class="uuid-38147cdf-a163-4f62-b3ec-fbcafbd26544" d="m469.32,415.42c-.66-.63-1.59-.86-2.47-.62-5.87,1.59-29.25,8.95-53.86,30.76-23.28,20.64-30.4,35.59-32.22,40.34-.37.98-.27,2.06.31,2.94,1.37,2.1,4.19,6.25,6.89,9.08,4.73,4.98,26.38-2.07,55.09-27.69,28.72-25.62,37.69-40.52,34.25-45.67-2.52-3.77-6.2-7.44-7.99-9.14h0Z"/></clipPath><clipPath id="uuid-c95a0056-7a63-4914-89d6-429f2c9f02dd"><path class="uuid-38147cdf-a163-4f62-b3ec-fbcafbd26544" d="m477.9,426.07h0c-.62-4.79-20.55-1.28-53.98,25.69-33.41,26.94-37.41,45.67-34.1,47.26,7.15,2.33,27.31-5.65,53.25-28.79,24.07-21.47,34.26-35.41,34.9-42.4,0-.73,0-1.33-.07-1.76h0Z"/></clipPath></defs><g id="uuid-ba66d85f-07fa-4fc3-953c-f19e41c3212a" data-name="uuid-26a6d1fb-7a7a-43d6-9d7d-4988c6494f43"><g><g><path class="uuid-08975e20-1e06-470a-a6ad-274a08437e44" d="m232.09,463.9l-4.76,4.74s-12.85-2.78-19.77,7.48l29.07,36.91h68.51s.65-17.01-14.04-25.82c-8.29-5.06-18.57-5.38-18.57-5.38,0,0,.59-5.4-10.04-6.52-6.71-.71-10.69-1.45-11.43,5.09-3.34-.74-3.38.51-4.52.47-12.74-5.97-14.45-16.98-14.45-16.98h0Z"/><path class="uuid-57a4487c-ab0d-45e7-bcdb-31380f7058fe" d="m224.97,486.65l8.84,6.43c1.34.98,2.96,1.51,4.63,1.51h1.91c1.22,0,2.42.28,3.51.83l13.47,6.72c2.02,1.01,4.44.71,6.16-.75l4.2-3.56s-2.45-1.65-5.37-3.34c-.93.79-2.49,2.38-2.49,2.38-.47.45-1.18.54-1.75.23l-13.14-7.28c-1.17-.65-2.48-.99-3.81-.99h-1.5c-1.68,0-3.31-.54-4.66-1.53l-9.07-6.67-.92,6.03h0Z"/><g><path class="uuid-37f640f1-0b58-490d-aa0c-c6db63473e01" d="m224.03,468.31c5.12,10.55-1.65,27.23-1.65,27.23"/><path class="uuid-37f640f1-0b58-490d-aa0c-c6db63473e01" d="m272.94,501.95s-10.29-10.01-26.93-13.68c0,0-.04-4.76.53-7.38"/><path class="uuid-37f640f1-0b58-490d-aa0c-c6db63473e01" d="m251.06,480.41c-.2,1.65,0,4.68,0,4.68,0,0,14.89,1.67,24.77,11.68"/><path class="uuid-90c49120-ed8c-4549-b597-935fb43d9a5c" d="m233.41,508.95c11.41-5.97,21.79-.21,38.23-2.92"/><path class="uuid-37f640f1-0b58-490d-aa0c-c6db63473e01" d="m292.35,488.02c-19.07,2.22-21.4,18.25-21.65,25.02"/><path class="uuid-37f640f1-0b58-490d-aa0c-c6db63473e01" d="m244.42,489.63c5.92-5.31,14.38-9.03,28.11-7.79"/></g><g><path class="uuid-57a4487c-ab0d-45e7-bcdb-31380f7058fe" d="m272.79,481.86s-1.22-4.06-6.78-4.06c-7.86,0-12.12,6.94-13.58,9.53-1.46,2.58,2.88,4.92,4.88,1.92,4.3-6.42,6.78-7.15,8.16-7.61,3.05-.17,7.32.21,7.32.21h0Z"/><path class="uuid-57a4487c-ab0d-45e7-bcdb-31380f7058fe" d="m286.4,484.77s-.85-4.3-6.5-4.83c-7.98-.74-12.97,6.03-14.7,8.56-1.73,2.53,2.45,5.35,4.77,2.44,4.98-6.23,9.01-7.6,10.46-7.94,1.97.42,5.97,1.76,5.97,1.76h0Z"/></g><g><path class="uuid-a18afeca-8b09-4f0f-acfd-b939a492045c" d="m236.72,508.58l-27.63-35.34c-.99-1.27-2.89-1.3-3.93-.08l-4.54,5.35c-1.19,1.4-1.23,3.44-.1,4.88l29.22,37.38c1.22,1.56,3.1,2.48,5.08,2.48h71.09c1.33,0,2.41-1.08,2.41-2.41v-8.19c0-1.33-1.08-2.41-2.41-2.41h-65.78c-1.34,0-2.6-.62-3.42-1.67h0Z"/><g class="uuid-7a856aa2-b511-4b15-8b44-65c14813becd"><g><path class="uuid-37f640f1-0b58-490d-aa0c-c6db63473e01" d="m233.72,513.58l-31.07-39.51c-.99-1.27-2.89-1.3-3.93-.08l-4.54,5.35c-1.19,1.4-1.23,3.44-.1,4.88l32.66,41.55c1.22,1.56,3.1,2.48,5.08,2.48h78.32c1.33,0,2.41-1.08,2.41-2.41v-8.19c0-1.33-1.08-2.41-2.41-2.41h-73c-1.34,0-2.6-.62-3.42-1.67h0Z"/><path class="uuid-37f640f1-0b58-490d-aa0c-c6db63473e01" d="m257.13,515.25c-4.65,4.53-7.01,15.59-7.01,15.59"/><path class="uuid-c3665144-c5cd-4a6e-8bcd-77622d93734e" d="m203.87,471.28l31.75,40.14c.73.92,1.83,1.45,3,1.45h72.64"/></g></g><path class="uuid-37f640f1-0b58-490d-aa0c-c6db63473e01" d="m236.72,508.58l-27.63-35.34c-.99-1.27-2.89-1.3-3.93-.08l-4.54,5.35c-1.19,1.4-1.23,3.44-.1,4.88l29.22,37.38c1.22,1.56,3.1,2.48,5.08,2.48h71.09c1.33,0,2.41-1.08,2.41-2.41v-8.19c0-1.33-1.08-2.41-2.41-2.41h-65.78c-1.34,0-2.6-.62-3.42-1.67h0Z"/></g></g><g><path class="uuid-08975e20-1e06-470a-a6ad-274a08437e44" d="m374.29,449.88l5.62,6.52s-3.17,17.71,2.54,31.11c0,0,5.33-16.06,31.48-39.12,26.16-23.06,53.73-30.88,53.73-30.88,0,0-10.6-11.39-29.3-10.31-18.7,1.08-28.7,15.35-28.7,15.35l-7.34-6.97c-1.07-.79-2.2-1.09-3.35-.95-2.22.27-4.71,2.12-8.72,5.16-.66.5-.78,1.46-.26,2.11l1.05,1.3s-16.35,11.66-16.75,26.68h0Z"/><g><path class="uuid-37f640f1-0b58-490d-aa0c-c6db63473e01" d="m438.37,407.2c-12.71,7.85-5.52,21.67-3.18,25.5"/><path class="uuid-37f640f1-0b58-490d-aa0c-c6db63473e01" d="m387.04,426.55l16.04,14.9s14.31-12.47,28.39-17.83"/><path class="uuid-37f640f1-0b58-490d-aa0c-c6db63473e01" d="m431.04,419.33c-13.06,3.21-27.36,15.6-27.36,15.6l-12.64-11.73"/><path class="uuid-37f640f1-0b58-490d-aa0c-c6db63473e01" d="m379.19,462.98c7.61-4.75,16.48,0,16.48,0"/><path class="uuid-57a4487c-ab0d-45e7-bcdb-31380f7058fe" d="m409.66,422.54s-3.89,5.28-6.92,15.26"/></g><path class="uuid-57a4487c-ab0d-45e7-bcdb-31380f7058fe" d="m393.02,461.84s-4.36-1.04-6.05-.97l6.92-6.51c.88-.83,1.41-1.96,1.49-3.17h0c.1-1.53.92-2.92,2.22-3.73l18.26-11.43c.9-.56,1.46-1.53,1.48-2.59.02-.73,0-1.61-.11-2.44,0,0,3.79-2.34,5.17-3.09,0,0,.19,4.73.12,7.32-.03,1.03-.55,1.99-1.42,2.56l-18.86,12.04c-1.06.7-1.79,1.8-2.04,3.04l-.19.95c-.19.94-.65,1.81-1.34,2.48l-5.66,5.52h0Z"/><g><path class="uuid-a18afeca-8b09-4f0f-acfd-b939a492045c" d="m469.32,415.42c-.66-.63-1.59-.86-2.47-.62-5.87,1.59-29.25,8.95-53.86,30.76-23.28,20.64-30.4,35.59-32.22,40.34-.37.98-.27,2.06.31,2.94,1.37,2.1,4.19,6.25,6.89,9.08,4.73,4.98,26.38-2.07,55.09-27.69,28.72-25.62,37.69-40.52,34.25-45.67-2.52-3.77-6.2-7.44-7.99-9.14h0Z"/><g class="uuid-0b44583d-d0ab-401d-bf44-3fab20b4cfe3"><g><path class="uuid-37f640f1-0b58-490d-aa0c-c6db63473e01" d="m472.79,418c-6.13,1.66-31.38,8.54-57.1,31.34-24.34,21.57-30.97,38.01-32.86,42.97"/><path class="uuid-c3665144-c5cd-4a6e-8bcd-77622d93734e" d="m470.98,416.08c-6.13,1.66-31.16,8.82-56.88,31.61-24.34,21.57-30.97,38.01-32.86,42.97"/><path class="uuid-37f640f1-0b58-490d-aa0c-c6db63473e01" d="m426.8,440.38c.35,3.83,1.54,7.89,1.54,7.89"/></g></g><path class="uuid-37f640f1-0b58-490d-aa0c-c6db63473e01" d="m469.32,415.42c-.66-.63-1.59-.86-2.47-.62-5.87,1.59-29.25,8.95-53.86,30.76-23.28,20.64-30.4,35.59-32.22,40.34-.37.98-.27,2.06.31,2.94,1.37,2.1,4.19,6.25,6.89,9.08,4.73,4.98,26.38-2.07,55.09-27.69,28.72-25.62,37.69-40.52,34.25-45.67-2.52-3.77-6.2-7.44-7.99-9.14h0Z"/></g><g><path class="uuid-a7665a25-b1d6-4816-87d4-f1f8d0a00c6b" d="m477.9,426.07h0c-.62-4.79-20.55-1.28-53.98,25.69-33.41,26.94-37.41,45.67-34.1,47.26,7.15,2.33,27.31-5.65,53.25-28.79,24.07-21.47,34.26-35.41,34.9-42.4,0-.73,0-1.33-.07-1.76h0Z"/><g class="uuid-c5531e56-35be-4489-bfa4-2d18d1c48b9a"><g><g><line class="uuid-37f640f1-0b58-490d-aa0c-c6db63473e01" x1="381.54" y1="492.75" x2="444.59" y2="492.75"/><line class="uuid-37f640f1-0b58-490d-aa0c-c6db63473e01" x1="387.1" y1="486.55" x2="450.14" y2="486.55"/><line class="uuid-37f640f1-0b58-490d-aa0c-c6db63473e01" x1="392.37" y1="479.4" x2="455.41" y2="479.4"/><line class="uuid-37f640f1-0b58-490d-aa0c-c6db63473e01" x1="398.7" y1="472.12" x2="461.75" y2="472.12"/><line class="uuid-37f640f1-0b58-490d-aa0c-c6db63473e01" x1="406.85" y1="464.43" x2="469.89" y2="464.43"/><line class="uuid-37f640f1-0b58-490d-aa0c-c6db63473e01" x1="413.06" y1="457.06" x2="476.11" y2="457.06"/><line class="uuid-37f640f1-0b58-490d-aa0c-c6db63473e01" x1="422.54" y1="449.74" x2="485.59" y2="449.74"/><line class="uuid-37f640f1-0b58-490d-aa0c-c6db63473e01" x1="431.04" y1="442.32" x2="494.08" y2="442.32"/><line class="uuid-37f640f1-0b58-490d-aa0c-c6db63473e01" x1="439.8" y1="434.91" x2="502.84" y2="434.91"/><line class="uuid-37f640f1-0b58-490d-aa0c-c6db63473e01" x1="446.44" y1="428.43" x2="509.49" y2="428.43"/></g><g><line class="uuid-37f640f1-0b58-490d-aa0c-c6db63473e01" x1="425.89" y1="534.09" x2="367.66" y2="456.06"/><line class="uuid-37f640f1-0b58-490d-aa0c-c6db63473e01" x1="432.22" y1="530.76" x2="374" y2="452.74"/><line class="uuid-37f640f1-0b58-490d-aa0c-c6db63473e01" x1="439.41" y1="526.76" x2="381.19" y2="448.74"/><line class="uuid-37f640f1-0b58-490d-aa0c-c6db63473e01" x1="445.19" y1="521.9" x2="386.97" y2="443.88"/><line class="uuid-37f640f1-0b58-490d-aa0c-c6db63473e01" x1="451.27" y1="516.55" x2="393.04" y2="438.52"/><line class="uuid-37f640f1-0b58-490d-aa0c-c6db63473e01" x1="458.93" y1="511.95" x2="400.7" y2="433.93"/><line class="uuid-37f640f1-0b58-490d-aa0c-c6db63473e01" x1="465.81" y1="507.2" x2="407.59" y2="429.17"/><line class="uuid-37f640f1-0b58-490d-aa0c-c6db63473e01" x1="472.37" y1="502.45" x2="414.15" y2="424.42"/><line class="uuid-37f640f1-0b58-490d-aa0c-c6db63473e01" x1="478.85" y1="496.98" x2="420.62" y2="418.95"/><line class="uuid-37f640f1-0b58-490d-aa0c-c6db63473e01" x1="485.17" y1="491.75" x2="426.95" y2="413.72"/><line class="uuid-37f640f1-0b58-490d-aa0c-c6db63473e01" x1="492.86" y1="486.51" x2="434.64" y2="408.48"/><line class="uuid-37f640f1-0b58-490d-aa0c-c6db63473e01" x1="500.02" y1="481.69" x2="441.8" y2="403.66"/><line class="uuid-37f640f1-0b58-490d-aa0c-c6db63473e01" x1="507.96" y1="477.54" x2="449.73" y2="399.51"/></g></g></g><path class="uuid-37f640f1-0b58-490d-aa0c-c6db63473e01" d="m477.9,426.07h0c-.62-4.79-20.55-1.28-53.98,25.69-33.41,26.94-37.41,45.67-34.1,47.26,7.15,2.33,27.31-5.65,53.25-28.79,24.07-21.47,34.26-35.41,34.9-42.4,0-.73,0-1.33-.07-1.76h0Z"/></g><g><path class="uuid-57a4487c-ab0d-45e7-bcdb-31380f7058fe" d="m408.54,421.02c-3.73,3.19-6.72,6.78-9.07,9.63-2.35,2.86-6.8.03-3.59-3.64,3.21-3.67,7.19-7.82,9.39-9.15,2.2-1.33,5.76,1.03,3.27,3.15h0Z"/><path class="uuid-57a4487c-ab0d-45e7-bcdb-31380f7058fe" d="m418.62,414.25s-3.47-2.43-7.84,1.01c-6.17,4.87-5.22,12.96-4.76,15.89s5.3,2.08,5.02-1.51c-.6-7.7.9-9.81,1.7-11.03,2.29-2.02,5.88-4.36,5.88-4.36h0Z"/><path class="uuid-57a4487c-ab0d-45e7-bcdb-31380f7058fe" d="m431.11,408.11s-3.34-2.85-8.09.24c-6.73,4.36-6.45,12.77-6.24,15.82s5.24,2.68,5.26-1.04c.05-7.97,2.38-11.55,3.3-12.71,1.81-.89,5.78-2.31,5.78-2.31Z"/></g></g></g></g></svg>
<svg id="uuid-6e9dd1ff-b3ca-4115-b70a-c695fd74bfe5" data-name="BODY" xmlns="http://www.w3.org/2000/svg" xmlns:xlink="http://www.w3.org/1999/xlink" viewBox="0 0 600 600"><defs><style>
      .uuid-f4d84360-108f-4651-b29c-e25ea16c4cc5, .uuid-13f171bf-333f-4b11-a6dc-6143bf8925b3, .uuid-d07d115d-d797-4bee-a1bd-d5ba731908b9, .uuid-30faa963-5431-4aaa-a0c3-a21f063be235, .uuid-8f6f04d1-c4ff-42b5-9302-95ef19a8b3d9 {
        fill: none;
      }

      .uuid-046b5435-62e7-4259-a2e9-7621ff339dd6, .uuid-49569550-84bb-4c62-b631-432cfe149004 {
        fill: #7aa6ff;
      }

      .uuid-046b5435-62e7-4259-a2e9-7621ff339dd6, .uuid-49569550-84bb-4c62-b631-432cfe149004, .uuid-94178579-7323-403b-a4b5-65c0e1c44d9b, .uuid-3ff8e150-fa1e-4d89-b36b-9e4e320d5024, .uuid-ff1760e6-70c2-4dee-b03b-1ede1b1fa95d, .uuid-d07d115d-d797-4bee-a1bd-d5ba731908b9, .uuid-30faa963-5431-4aaa-a0c3-a21f063be235 {
        stroke: #000;
        stroke-linecap: round;
        stroke-linejoin: round;
      }

      .uuid-046b5435-62e7-4259-a2e9-7621ff339dd6, .uuid-94178579-7323-403b-a4b5-65c0e1c44d9b, .uuid-3ff8e150-fa1e-4d89-b36b-9e4e320d5024, .uuid-d07d115d-d797-4bee-a1bd-d5ba731908b9 {
        stroke-width: 2px;
      }

      .uuid-49569550-84bb-4c62-b631-432cfe149004, .uuid-ff1760e6-70c2-4dee-b03b-1ede1b1fa95d, .uuid-30faa963-5431-4aaa-a0c3-a21f063be235 {
        stroke-width: 2px;
      }

      .uuid-13f171bf-333f-4b11-a6dc-6143bf8925b3 {
        clip-path: url(#uuid-3738efd7-810a-4b28-8335-8dd0fda8e553);
      }

      .uuid-94178579-7323-403b-a4b5-65c0e1c44d9b {
        fill: #8400ff;
      }

      .uuid-a0b7f615-c241-44b2-b757-466d7641aaac {
        fill: #ffff0d;
      }

      .uuid-149af8d5-0486-4f84-b8a4-62e4288482b2 {
        fill: #9dff0c;
      }

      .uuid-3ff8e150-fa1e-4d89-b36b-9e4e320d5024, .uuid-ff1760e6-70c2-4dee-b03b-1ede1b1fa95d {
        fill: #a07bff;
      }

      .uuid-8f6f04d1-c4ff-42b5-9302-95ef19a8b3d9 {
        clip-path: url(#uuid-099eeb1f-0739-4ac1-83ad-929f888b681c);
      }
    </style><clipPath id="uuid-3738efd7-810a-4b28-8335-8dd0fda8e553"><path class="uuid-f4d84360-108f-4651-b29c-e25ea16c4cc5" d="m207.25,349.68l-27.2,23.05c-3,2.4-5.15,5.71-6.11,9.43l-8.11,31.33s-3.45.35-7.09,4.5c-4.67,5.32-6.81,15.97-8.5,24.91-7.91-5.05-83.16-13.79-94.21-32.95-18.6-32.26,3.76-59.6,13.02-69.49,14.76-15.78,60.44-14.3,60.44-14.3l77.76,23.52h0Zm31.03,20.24s-28.11,23.09-30,24.91-3.01,4.97-3.46,6.62c-.44,1.66-5.36,20.02-5.36,20.02,0,0,8.86.08,12.53,7.22,1.18,2.3,2.41,5.31,2.08,9.59-.61,7.88-5.16,12.41-8.09,14.28,1.01,3.73,1.21,7.91.72,10.37,10.48,26.86,110.78,41.49,110.78,41.49l17.62-75.26-41.68-12.52-12.32-27.69-42.81-19.04h0Z"/></clipPath><clipPath id="uuid-099eeb1f-0739-4ac1-83ad-929f888b681c"><rect class="uuid-f4d84360-108f-4651-b29c-e25ea16c4cc5" x="162.78" y="342.92" width="45.45" height="140.68" transform="translate(-265.82 452.02) rotate(-70.73)"/></clipPath></defs><g id="uuid-054dfee4-fcfb-460e-acd1-76ff23fbc272" data-name="uuid-4e189f2a-7fa9-4cd8-b02c-e65b53e2a61c"><g id="uuid-900a0d9f-eac9-4919-b449-79c80911ee38" data-name="uuid-78b9dc61-4d36-4cc0-a416-4b7f00985a31"><g id="uuid-651b4fc5-0c91-42b6-b968-6b2ab50c1b36" data-name="uuid-dfdf5e4b-abde-406c-b0a2-d80837955070"><g class="uuid-13f171bf-333f-4b11-a6dc-6143bf8925b3"><g><g><path class="uuid-3ff8e150-fa1e-4d89-b36b-9e4e320d5024" d="m201.39,393.83l-101.23-35.38c-5.99-2.1-20.02,2.77-24.41,6.76-1.61,1.46-8.33,11.08,2.22,19.37-1.8-2.48-2.4-5.76-1.32-8.87,1.76-5.03,7.27-7.69,12.3-5.93s7.69,7.27,5.93,12.3c-1.53,4.38-5.91,6.96-10.34,6.39,1.36.62,2.85,1.22,4.5,1.8l101.23,35.38c8.72,3.05,18.26-1.55,21.3-10.27l.08-.24c3.05-8.72-1.55-18.26-10.27-21.3h0Z"/><path class="uuid-3ff8e150-fa1e-4d89-b36b-9e4e320d5024" d="m83.54,390.61c8.24,2.6,14.95-6.68,11.95-5.89-1.8.47-3.75.44-5.64-.22-5.03-1.76-7.69-7.27-5.93-12.3.66-1.87,1.83-3.42,3.31-4.53,2.49-1.87-8.51-2.62-12.39,4.89-3.76,7.27-1.11,14.96,8.7,18.05h0Z"/><path class="uuid-046b5435-62e7-4259-a2e9-7621ff339dd6" d="m192.81,397.97l-101.23-35.38c-8.72-3.05-18.26,1.55-21.31,10.27l-.08.24c-3.05,8.72,1.55,18.26,10.27,21.3l101.23,35.38c8.72,3.05,18.26-1.55,21.3-10.27l.08-.24c3.05-8.72-1.55-18.26-10.27-21.3h0Zm-110.23-9.96c-5.03-1.76-7.69-7.27-5.93-12.3,1.76-5.03,7.27-7.69,12.3-5.93,5.03,1.76,7.69,7.27,5.93,12.3-1.76,5.03-7.27,7.69-12.3,5.93Z"/></g><path class="uuid-94178579-7323-403b-a4b5-65c0e1c44d9b" d="m261.31,462.21l-11.61,5.56-137.85-56.99,9.03-51.81,11.8-5.84c2.07-1,4.46-1.13,6.63-.37l137.02,47.89c4.52,1.58,6.91,6.53,5.33,11.05l-15.92,45.56c-.76,2.17-2.35,3.95-4.42,4.95h0Z"/><rect class="uuid-ff1760e6-70c2-4dee-b03b-1ede1b1fa95d" x="153.59" y="332.97" width="63.83" height="160.6" rx="5.71" ry="5.71" transform="translate(-265.82 452.02) rotate(-70.73)"/><path class="uuid-3ff8e150-fa1e-4d89-b36b-9e4e320d5024" d="m262.98,458.19l6.96-33.27,8.55-4.15,37.81,13.21c2.11.74,3.22,3.05,2.49,5.16l-9.23,26.41c-.35,1.01-1.1,1.85-2.06,2.31l-7.07,3.41-37.44-13.09h0Z"/><rect class="uuid-49569550-84bb-4c62-b631-432cfe149004" x="268.33" y="426.07" width="33.7" height="44.07" transform="translate(-231.92 569.46) rotate(-70.73)"/><rect x="300.26" y="441.53" width="4.45" height="5.17" rx="1.17" ry="1.17" transform="translate(-216.57 583.13) rotate(-70.73)"/><rect x="294.07" y="459.25" width="4.45" height="5.17" rx="1.17" ry="1.17" transform="translate(-237.44 589.16) rotate(-70.73)"/><line class="uuid-d07d115d-d797-4bee-a1bd-d5ba731908b9" x1="269.72" y1="410.7" x2="281.3" y2="405.12"/><line class="uuid-d07d115d-d797-4bee-a1bd-d5ba731908b9" x1="311.54" y1="439.46" x2="318.6" y2="436.06"/><line class="uuid-d07d115d-d797-4bee-a1bd-d5ba731908b9" x1="264.38" y1="440.83" x2="305.98" y2="455.37"/><g><rect class="uuid-149af8d5-0486-4f84-b8a4-62e4288482b2" x="162.78" y="342.92" width="45.45" height="140.68" transform="translate(-265.82 452.02) rotate(-70.73)"/><g class="uuid-8f6f04d1-c4ff-42b5-9302-95ef19a8b3d9"><g><polygon class="uuid-a0b7f615-c241-44b2-b757-466d7641aaac" points="123.47 432.94 247.27 373.27 301.23 392.13 177.24 451.89 123.47 432.94"/><polygon class="uuid-a0b7f615-c241-44b2-b757-466d7641aaac" points="190.83 456.49 314.63 396.82 337.79 404.91 213.8 464.67 190.83 456.49"/><polygon class="uuid-a0b7f615-c241-44b2-b757-466d7641aaac" points="77.6 416.91 201.4 357.24 210.87 360.56 86.88 420.33 77.6 416.91"/></g></g><rect class="uuid-30faa963-5431-4aaa-a0c3-a21f063be235" x="162.78" y="342.92" width="45.45" height="140.68" transform="translate(-265.82 452.02) rotate(-70.73)"/></g></g></g></g></g></g></svg>
<svg id="uuid-812f6975-679d-4f88-a4ed-851daa0a87ab" data-name="BODY" xmlns="http://www.w3.org/2000/svg" viewBox="0 0 600 600"><defs><style>
      .uuid-c2b81f84-54b4-4471-8442-6dab97f9dbdb {
        fill: #7aa6ff;
      }

      .uuid-c2b81f84-54b4-4471-8442-6dab97f9dbdb, .uuid-8f93f715-e731-4f67-a3d6-2e442b938451, .uuid-52fe3725-26e2-42a9-8a9b-607d6ab8d4a1 {
        stroke: #000;
        stroke-linecap: round;
        stroke-linejoin: round;
        stroke-width: 2px;
      }

      .uuid-d52b56ba-8ce0-4864-b827-dcc6275d2116 {
        fill: #ffc9f1;
      }

      .uuid-8f93f715-e731-4f67-a3d6-2e442b938451 {
        fill: #ff78d8;
      }

      .uuid-52fe3725-26e2-42a9-8a9b-607d6ab8d4a1 {
        fill: none;
      }
    </style></defs><g id="uuid-2a31ff83-8394-4ae1-83e2-55ef45d928c7" data-name="uuid-831834e0-bbb8-426a-8cd6-ab5c8fbbbe1c"><g id="uuid-5a353068-881e-4ba2-860e-e9d7a7bbebc2" data-name="uuid-1fcb06a8-7212-4847-8b3f-ceda00c046b1"><g id="uuid-111bd790-e24a-47d4-950c-c3799bd40fa4" data-name="uuid-e9ed0fb3-5d7b-4b33-9f9b-ca7aaa2c4c4e"><circle class="uuid-8f93f715-e731-4f67-a3d6-2e442b938451" cx="489.69" cy="199.93" r="51.03" transform="translate(2.06 404.82) rotate(-45)"/><path class="uuid-8f93f715-e731-4f67-a3d6-2e442b938451" d="m543.98,181.68c-2.32-4.46-15.68-16.27-58.27-10.33-42.59,5.94-52.2,20.97-53.22,25.89-.85,4.1.27,25.66,12.14,26.71-2.48-5.6-3.39-10.66-3.39-10.66,0,0-1.04-13.08,47.55-19.86,48.44-6.76,51.17,6.09,51.17,6.09,0,0,.51,5.11-.34,11.18,11.13-4.26,6.3-25.29,4.37-29.01h0Z"/><g><path class="uuid-d52b56ba-8ce0-4864-b827-dcc6275d2116" d="m492.25,237.5c1.32-.8-2.83-7.79-4.88-20.65-2.05-12.86-1.21-17.43-3.79-17.45-2.58-.03-1.75,8.24.05,18.36,1.8,10.12,6.42,21.08,8.62,19.74h0Z"/><path class="uuid-d52b56ba-8ce0-4864-b827-dcc6275d2116" d="m465.36,219.85c-2.16,1.34-9.64-7.23-9.38-8.55s4.45-3.65,5.41-2.82,5.04,10.7,3.97,11.37Z"/><path class="uuid-d52b56ba-8ce0-4864-b827-dcc6275d2116" d="m507.79,240.81c.65,2.43,7.9-2.07,12.66-6.28,4.76-4.21,8.23-8.88,6.69-10.21s-5.38,3.46-9.7,7.15c-4.32,3.7-10.05,7.85-9.65,9.34h0Z"/><path class="uuid-d52b56ba-8ce0-4864-b827-dcc6275d2116" d="m528.66,221.27c1.31.69,5.74-5.97,3.92-6.69-1.82-.71-6.04,5.58-3.92,6.69Z"/><path class="uuid-d52b56ba-8ce0-4864-b827-dcc6275d2116" d="m517.57,174.22s2.67,7.62,3,13.63c6.31-.04,12.92,2.51,12.92,2.51,0,0-3.07-9.46-7.13-14.5,0,0-4.27-1.64-8.79-1.65Z"/><path class="uuid-d52b56ba-8ce0-4864-b827-dcc6275d2116" d="m446.91,187.4c-.93-.33-6.26,3.61-6.55,4.81s.52,10.21,1.91,11.14c1.39.93,7.99-14.78,4.64-15.95h0Z"/><path class="uuid-d52b56ba-8ce0-4864-b827-dcc6275d2116" d="m475.33,176.57c-1.18.68-2.89,14.87-2.63,15.54s15.42-1.93,16.17-2.61,1.34-14.43,1.1-14.98-12.84,1.02-14.63,2.04h0Z"/><path class="uuid-d52b56ba-8ce0-4864-b827-dcc6275d2116" d="m498.29,155.85c-1.48,3.03,14.49,8.56,15,6.7.51-1.86-12.18-12.47-15-6.7h0Z"/><path class="uuid-d52b56ba-8ce0-4864-b827-dcc6275d2116" d="m483.58,154.84c-.49,2.43,7.45,3.41,7.96.48.51-2.92-7.37-3.42-7.96-.48Z"/><path class="uuid-d52b56ba-8ce0-4864-b827-dcc6275d2116" d="m455.96,168.67c.51,3.37,9.82-2.85,8.12-5.58-1.7-2.73-8.56,2.64-8.12,5.58Z"/><path class="uuid-d52b56ba-8ce0-4864-b827-dcc6275d2116" d="m540.23,182.79c-3.62-1.64-.58,3.92.1,7.88.68,3.96.57,8.04,1.63,8.18,1.05.14,1.45-4.59,1.08-8.88s-.47-6.12-2.81-7.18h0Z"/></g><g><path class="uuid-c2b81f84-54b4-4471-8442-6dab97f9dbdb" d="m498.33,310.64h0s5.18.71,9.29,5.39c2.5-3.41,4.47-4.48,4.47-4.48l-9.42-67.52s-.42-2.97-7.1-2.04c-6.69.93-6.27,3.9-6.27,3.9l9.04,64.74Z"/><path class="uuid-c2b81f84-54b4-4471-8442-6dab97f9dbdb" d="m519.24,362.8c-14.5-4.39-8.79-16.19-2.56-18.34h0c-5.56-1.96-7.11-9.88-2.07-14.81h0c-4.28-.28-6.34-2.76-6.34-2.76,0,0-2.5,4.3-7.09,4.22h0l14.63,104.82s.41,2.97,7.1,2.04c6.69-.93,6.27-3.9,6.27-3.9l-9.95-71.27h0Z"/><path class="uuid-52fe3725-26e2-42a9-8a9b-607d6ab8d4a1" d="m515.82,435.93c-.57-4.08,12.8-5.94,13.37-1.87"/></g></g></g></g></svg>
<svg id="uuid-79cacb4c-e4e5-4db8-ba57-1498d8273abd" data-name="BODY" xmlns="http://www.w3.org/2000/svg" viewBox="0 0 600 600"><defs><style>
      .uuid-ff775ed0-4ddc-43ad-a203-aab842fdbe94 {
        fill: #fff;
        stroke: #000;
        stroke-miterlimit: 10;
        stroke-width: 2px;
      }
    </style></defs><path class="uuid-ff775ed0-4ddc-43ad-a203-aab842fdbe94" d="m234.82,145.43c-9.89-21.59-45.38-26.51-79.27-10.99-33.89,15.52-53.35,45.61-43.46,67.2,9.89,21.59,45.38,26.51,79.27,10.99.65-.3,1.29-.6,1.92-.91,3.15-1.52,6.82-1.53,9.92.1,4.62,2.43,10.51,4.65,17.19,5.17,1.66.13,2.66-1.77,1.61-3.06-1.59-1.97-3.03-3.89-4.33-5.74-3.09-4.4-2.62-10.4,1.24-14.14,15.76-15.3,22.64-33.92,15.91-48.62Z"/><g><path d="m124.95,183.98l5.82-3.64,12.4,21.45.56-.35-6.74-15.34,3.75-2.35,10.87,12.76.56-.35-13.9-20.51,5.82-3.64,15.31,26.94-6.76,4.23-8.43-10.11-.38.24,5.43,11.99-6.76,4.23-17.56-25.52Z"/><path d="m148.3,169.36l8.82-5.53,19.44,24.35-5.82,3.64-2.96-4.14-2.67,1.67,2.44,4.47-5.82,3.64-13.43-28.11Zm16.24,13.57l-8.26-11.26-.56.35,6.53,12.34,2.29-1.43Z"/><path d="m182.8,166.27c.29.29.62.66.99,1,.6.62,1.4,1.57,2.16,2.77,4.01,6.41,2.87,11.25-.51,13.36-3.94,2.47-9.43,1.21-15.89-9.09-6.46-10.3-5.19-15.79-1.25-18.26,3.38-2.12,8.26-1,11.55,4.25.54.86.89,1.58,1.08,2.14.09.31.18.62.31.9l-5.07,3.17-.7-1.12c-3.1-4.95-3.93-5.1-4.42-4.8-.71.45-.86,1.38,4.51,9.96l.12.19,7.13-4.47Zm-4.78,8.21c3.1,4.53,3.93,4.85,4.53,4.47.49-.31.71-1.12-2.27-5.88l-2.25,1.41Z"/><path d="m177.36,151.16l5.82-3.64,9.53,10.21.38-.23-5.03-13.03,5.82-3.64,16.44,26.23-6.01,3.76-9.49-20.15-.56.35,4.51,13.87-1.88,1.18-10.52-10.11-.56.35,13.99,17.32-6.01,3.76-16.44-26.23Z"/><path d="m196.58,139.12l5.63-3.53,16.44,26.23-5.63,3.53-16.44-26.23Z"/></g></svg>
</svg>