<?xml version="1.0" encoding="UTF-8"?>
<svg xmlns="http://www.w3.org/2000/svg" viewBox="0 0 600 600">
<svg id="uuid-47722c1a-ec94-491f-b9ae-69c2f5e8f75c" data-name="BACKGROUND" xmlns="http://www.w3.org/2000/svg" viewBox="0 0 600 600"><defs><style>
      .uuid-ab0c32c0-b20c-4bf1-888e-57f882ba1299 {
        fill: #ffc9f1;
      }
    </style></defs><rect class="uuid-ab0c32c0-b20c-4bf1-888e-57f882ba1299" x="-1" y="-1" width="602" height="602"/></svg>
<svg id="uuid-e5c605a8-e4f9-4978-ad72-5db31b65b190" data-name="BACKGROUND" xmlns="http://www.w3.org/2000/svg" viewBox="0 0 600 600"><defs><style>
      .uuid-883efea5-677f-4371-9dc7-5cd56130fbcb, .uuid-d3f758ac-5239-4a0a-b4e9-3b31a4d26e61 {
        fill: #fff;
      }

      .uuid-d3f758ac-5239-4a0a-b4e9-3b31a4d26e61, .uuid-7f242137-77c3-4516-b3dd-e07924d8b27d, .uuid-446566b0-e754-4323-8c0e-f2552727105b, .uuid-0f9d5605-abaf-429f-9eda-0762dec12f88, .uuid-dee44871-50d0-4ac4-9972-c62084d34d89, .uuid-4c0d796b-ae01-4a35-8369-ec5c74e01e56, .uuid-8394a5ef-9c6d-414e-8d02-2034ddcfd3a6 {
        stroke: #000;
        stroke-width: 2px;
      }

      .uuid-d3f758ac-5239-4a0a-b4e9-3b31a4d26e61, .uuid-7f242137-77c3-4516-b3dd-e07924d8b27d, .uuid-dee44871-50d0-4ac4-9972-c62084d34d89, .uuid-4c0d796b-ae01-4a35-8369-ec5c74e01e56 {
        stroke-miterlimit: 10;
      }

      .uuid-d3f758ac-5239-4a0a-b4e9-3b31a4d26e61, .uuid-446566b0-e754-4323-8c0e-f2552727105b, .uuid-0f9d5605-abaf-429f-9eda-0762dec12f88, .uuid-dee44871-50d0-4ac4-9972-c62084d34d89, .uuid-4c0d796b-ae01-4a35-8369-ec5c74e01e56 {
        stroke-linecap: round;
      }

      .uuid-7f242137-77c3-4516-b3dd-e07924d8b27d, .uuid-446566b0-e754-4323-8c0e-f2552727105b, .uuid-dee44871-50d0-4ac4-9972-c62084d34d89, .uuid-8394a5ef-9c6d-414e-8d02-2034ddcfd3a6 {
        fill: #a07bff;
      }

      .uuid-446566b0-e754-4323-8c0e-f2552727105b, .uuid-0f9d5605-abaf-429f-9eda-0762dec12f88, .uuid-8394a5ef-9c6d-414e-8d02-2034ddcfd3a6 {
        stroke-linejoin: round;
      }

      .uuid-0f9d5605-abaf-429f-9eda-0762dec12f88 {
        fill: none;
      }

      .uuid-4c0d796b-ae01-4a35-8369-ec5c74e01e56 {
        fill: #8400ff;
      }
    </style></defs><path class="uuid-446566b0-e754-4323-8c0e-f2552727105b" d="m409.81,359.6c9.2,3.77,29.89,12.05,42.79,16.03,2.11.65,4.41.69,6.5-.04,11.79-4.08,28.47-11.39,33.03-11.32,5.25.08,7.8,3.93,19.88,2.04,13.36-2.1,22.43-11.99,20.93-23.3-4.21-43.28-25.18-26.79-25.18-26.79,0,0-5.84-8.75-18.76-4.82-11.83,3.6-10.2,14.44-6.47,22.47l-25.29,8.58c-2.14.72-4.45.71-6.59-.02l-35.7-12.61"/><path class="uuid-dee44871-50d0-4ac4-9972-c62084d34d89" d="m533.36,312.82c2.5,3.94,1.62,9.14-1.57,12.4-2.47,2.53-5.88,3.88-9.32,4.4-2.8.43-5.7.42-8.49-.08-2.14-.39-4.29-1.1-5.79-2.75-1.66-1.83-2.27-4.46-1.98-6.87.51-4.17,3.84-7.14,7.22-9.26,3.17-1.98,6.86-3.26,10.64-3.09,3.8.18,7.36,2.19,9.3,5.24Z"/><path class="uuid-dee44871-50d0-4ac4-9972-c62084d34d89" d="m538.57,349.84c.97,3.03.32,6.43-1.5,9.01-3.77,5.33-11.17,5.65-16.96,4.27-3.31-.79-6.69-2.21-8.67-5.13-3.13-4.61-.82-9.79,3.48-12.56,2.58-1.66,5.61-2.67,8.63-3.14,5.73-.89,13.1,1.51,15.03,7.56Z"/><path class="uuid-dee44871-50d0-4ac4-9972-c62084d34d89" d="m538.71,328.53c1.8,2.99,2.06,6.89.22,9.9-1.95,3.2-4.94,5.25-8.49,6.28-3.66,1.07-7.64,1.27-11.4.44-2.25-.5-4.53-1.38-5.96-3.28-1.86-2.47-1.89-5.68-.85-8.49,1.2-3.24,4.17-5.69,7.09-7.37,6.15-3.56,15.21-4.43,19.39,2.52Z"/><path class="uuid-dee44871-50d0-4ac4-9972-c62084d34d89" d="m501.85,311.68s9.27,3.84,7.77,12.02c-1.04,5.68-8.17,9.55-14.94,6.13"/><path class="uuid-0f9d5605-abaf-429f-9eda-0762dec12f88" d="m500.67,331.08c2.41,1.63,5.11,8.04,3.4,14.42"/><path d="m443.44,339.88c-2.88,10.58-6.94,20.23-11.17,28.59-10.17-3.78-21.16-9.53-27-11.93l11.83-26.02,26.35,9.36Z"/><ellipse cx="300" cy="518.65" rx="138.6" ry="22.93"/><path class="uuid-7f242137-77c3-4516-b3dd-e07924d8b27d" d="m319.36,427.14c-1.16,1.05-54.95,57-54.95,57,0,0,21.51-1.95,31.74,10.62,10.23,12.57,7.26,23.89,7.26,23.89h-66.9s-28.69-36.17-28.69-36.17c0,0,3.74-13.4,20.44-10.59,20.9-19.38,55.52-59.13,55.52-59.13l35.59,14.38Z"/><path d="m283.78,412.76l31.28,12.64-3.24,9.5c-2.93,3.03-9.76,10.12-13.64,14.14-11.92,0-27.98-2.13-41.33-6.37,13.95-15.1,26.93-29.92,26.93-29.92Z"/><path class="uuid-7f242137-77c3-4516-b3dd-e07924d8b27d" d="m354.45,173.54l-.11.27-174.2,58.29c-11.49,20.13-18.05,43.43-18.05,68.27,0,76.2,61.77,137.98,137.97,137.98s137.98-61.77,137.98-137.98c0-56.89-34.43-105.72-83.58-126.83Z"/><path class="uuid-0f9d5605-abaf-429f-9eda-0762dec12f88" d="m264.41,484.14c-4.06.49-11.49,1.36-17.85,7.23"/><path class="uuid-883efea5-677f-4371-9dc7-5cd56130fbcb" d="m185.17,308.14c-4.41,0-7.98-3.57-7.98-7.98,0-67.74,55.11-122.86,122.86-122.86,4.41,0,7.98,3.57,7.98,7.98s-3.57,7.98-7.98,7.98c-58.94,0-106.9,47.95-106.9,106.9,0,4.41-3.57,7.98-7.98,7.98Z"/><path d="m203.75,397.46l34.2-27.46-24.86,36.3c-6.73-5.1-3.66-2.61-9.34-8.83Z"/><path class="uuid-8394a5ef-9c6d-414e-8d02-2034ddcfd3a6" d="m323.72,387.31c19.14-13.4,39.15-11.3,55.52,7.36,19.6,22.35,30.57,33.06,30.57,33.06,0,0,10.74-19.34,34.77-17.5,18.26,1.4,24.84,14.43,24.84,14.43,0,0,6.21,8.82-22.45,33.5-28.66,24.68-54.93,40.92-61.14,29.46-6.21-11.46-2.82-32.1-2.82-32.1,0,0-22.02-26.09-27.94-32.01-6.79-6.79-15.71-1.36-15.71-1.36"/><path class="uuid-7f242137-77c3-4516-b3dd-e07924d8b27d" d="m446.97,458.17c-25.89,22.29-49.82,37.69-58.79,32.02-9.77-7.44,26.84-38.54,44.88-52.7,18.04-14.16,32.17-17.82,36.36-12.81,0,0,6.21,8.82-22.45,33.5Z"/><path class="uuid-0f9d5605-abaf-429f-9eda-0762dec12f88" d="m409.81,427.74c-1.89,2.86-4.55,10.38-4.55,10.38"/><ellipse class="uuid-d3f758ac-5239-4a0a-b4e9-3b31a4d26e61" cx="269.41" cy="209.07" rx="94.9" ry="26.25" transform="translate(-52.5 96.54) rotate(-18.55)"/><ellipse class="uuid-4c0d796b-ae01-4a35-8369-ec5c74e01e56" cx="269.41" cy="209.07" rx="71.19" ry="13.32" transform="translate(-52.5 96.54) rotate(-18.55)"/><g><path class="uuid-446566b0-e754-4323-8c0e-f2552727105b" d="m214.11,345.7c-8.05,5.83-25.34,20.79-35.52,29.67-1.67,1.45-2.82,3.41-3.39,5.55-3.14,11.67-8.55,33.44-8.55,33.44,0,0-8.42.58-12.19,14.35-3.64,13.3-6.64,25.06,3.77,29.75.35,7.47,7.51,15.45,19.2,9.41.14-.06,1.32,1.32,1.44,1.45,2.64,2.7,6.36,4.45,10.13,4.81,3.65.36,7.61-.67,10.43-3.08,3.29-2.81,5.4-6.94,6.05-11.2.4-2.61.26-5.31-.75-7.78,0,0,6.2-2.51,8.05-11.34,1.99-9.49-4.22-19.42-14.62-18.18l6.17-23.11c.51-2.2,1.74-4.16,3.49-5.59l29.38-24.3"/><path class="uuid-0f9d5605-abaf-429f-9eda-0762dec12f88" d="m204.73,452.06c-1.37-3.47-5.39-7.08-9-6.88"/><path class="uuid-0f9d5605-abaf-429f-9eda-0762dec12f88" d="m178.86,469.3c-5.16-5.27-3.82-11.97-2.9-13.54"/><path class="uuid-0f9d5605-abaf-429f-9eda-0762dec12f88" d="m158.22,458.45c-.27-5.22.73-7.32,3.06-9.83"/><path class="uuid-0f9d5605-abaf-429f-9eda-0762dec12f88" d="m193.93,450.63c.14-2.07.48-4.16,1.32-6.06.85-1.95,2.36-3.88,4.31-4.85"/></g></svg>
<svg id="uuid-d2017022-49ac-4767-bd5b-8d3e235df956" data-name="BODY" xmlns="http://www.w3.org/2000/svg" viewBox="0 0 600 600"><defs><style>
      .uuid-ceb1f6db-ac22-433a-a64d-b7c361a52305 {
        fill: #ffff0d;
      }

      .uuid-ceb1f6db-ac22-433a-a64d-b7c361a52305, .uuid-8fc51c2b-2e55-48cc-a922-83a746c6089c {
        stroke-width: 2px;
      }

      .uuid-ceb1f6db-ac22-433a-a64d-b7c361a52305, .uuid-8fc51c2b-2e55-48cc-a922-83a746c6089c, .uuid-ededc5f7-d71c-4a39-8679-141d6e366d35 {
        stroke: #000;
        stroke-linecap: round;
        stroke-linejoin: round;
      }

      .uuid-8fc51c2b-2e55-48cc-a922-83a746c6089c, .uuid-ededc5f7-d71c-4a39-8679-141d6e366d35 {
        fill: none;
      }

      .uuid-ededc5f7-d71c-4a39-8679-141d6e366d35 {
        stroke-width: 4px;
      }
    </style></defs><g id="uuid-2e50336c-81e2-44ae-a2f0-cfae5c829496" data-name="uuid-ca7a59fd-5ea4-4026-baf3-83b8314686b7"><g><path d="m371.9,289.97c1.87,5.07-.73,10.69-5.8,12.56-5.07,1.87-10.69-.73-12.56-5.8l18.36-6.76h0Z"/><path class="uuid-ededc5f7-d71c-4a39-8679-141d6e366d35" d="m347.02,271.26c1.87,5.07-.73,10.69-5.8,12.56-5.07,1.87-10.69-.73-12.56-5.8"/><path class="uuid-ededc5f7-d71c-4a39-8679-141d6e366d35" d="m378.7,259.59c1.87,5.07-.73,10.69-5.8,12.56-5.07,1.87-10.69-.73-12.56-5.8"/><g><path class="uuid-ceb1f6db-ac22-433a-a64d-b7c361a52305" d="m394.29,286.52l-6.54-4.3c-2.76-1.82-6.22-2.22-9.33-1.07l-17.8,6.56-17.8,6.56c-3.1,1.14-5.48,3.69-6.4,6.87l-2.18,7.52c-.22.76.52,1.45,1.26,1.17l23.58-8.69c1.5-.55,2.5-1.96,2.54-3.56l.15-6.73,4.48,5.03c1.06,1.19,2.74,1.61,4.24,1.06l23.58-8.69c.74-.27.86-1.28.2-1.71l.02-.02Z"/><g><line class="uuid-8fc51c2b-2e55-48cc-a922-83a746c6089c" x1="352.99" y1="303.37" x2="353.29" y2="295.54"/><line class="uuid-8fc51c2b-2e55-48cc-a922-83a746c6089c" x1="343.37" y1="306.92" x2="344.56" y2="298.75"/><line class="uuid-8fc51c2b-2e55-48cc-a922-83a746c6089c" x1="376.62" y1="294.67" x2="371.32" y2="288.89"/><line class="uuid-8fc51c2b-2e55-48cc-a922-83a746c6089c" x1="386.25" y1="291.12" x2="380.04" y2="285.68"/></g></g><g><ellipse cx="334.14" cy="264.66" rx="11.53" ry="3.94" transform="translate(-70.88 131.8) rotate(-20.22)"/><ellipse cx="365.82" cy="252.99" rx="11.53" ry="3.94" transform="translate(-64.9 142.03) rotate(-20.22)"/></g></g></g></svg>
<svg id="uuid-e27adad5-30bb-46c8-8e54-f8c1913f360c" data-name="BODY" xmlns="http://www.w3.org/2000/svg" xmlns:xlink="http://www.w3.org/1999/xlink" viewBox="0 0 600 600"><defs><style>
      .uuid-3fcb169e-3b1b-4e12-becc-5f80712b470c, .uuid-71f48634-c7c5-4ab0-b79f-ecd7a6ea3576, .uuid-1cfa6bdb-b40b-4a10-822f-5735a372275a {
        fill: none;
      }

      .uuid-399b8939-c3fd-4a77-bb11-cefdc3056a0b {
        fill: #ff78d8;
      }

      .uuid-692362c3-9c42-49ef-a7d9-00216a7861e4 {
        fill: #8400ff;
      }

      .uuid-c264d3ba-8696-457e-a5ac-d4558e99d766 {
        fill: #fff7f0;
      }

      .uuid-c264d3ba-8696-457e-a5ac-d4558e99d766, .uuid-4d4ae5f1-c6c3-49df-9321-b3c3eeaefea3, .uuid-71f48634-c7c5-4ab0-b79f-ecd7a6ea3576 {
        stroke: #000;
        stroke-linecap: round;
        stroke-linejoin: round;
      }

      .uuid-c264d3ba-8696-457e-a5ac-d4558e99d766, .uuid-71f48634-c7c5-4ab0-b79f-ecd7a6ea3576 {
        stroke-width: 2px;
      }

      .uuid-4d4ae5f1-c6c3-49df-9321-b3c3eeaefea3 {
        fill: #00dfa9;
        stroke-width: 2px;
      }

      .uuid-1cfa6bdb-b40b-4a10-822f-5735a372275a {
        clip-path: url(#uuid-47f39ff4-ab63-4b55-810f-676f2b09c621);
      }
    </style><clipPath id="uuid-47f39ff4-ab63-4b55-810f-676f2b09c621"><path class="uuid-3fcb169e-3b1b-4e12-becc-5f80712b470c" d="m273.7,388.15l-27.14,101.6-45.29-19.13c8.06-8.68,4.71-18.07,4.71-18.07,1.65-.63,8.95-7.38,8.08-16.55-1.46-15.37-14.56-14.54-14.56-14.54l5.48-20.55c.81-3.03,2.55-5.74,4.98-7.72l27.97-22.91,35.77,17.87h0Zm-108.69-32.21l-24.51-1.18-27.32,93.86s39.97,9.86,37.79,3.43c-2.18-6.43,0-14.66,3.27-25.72,3.28-11.07,11.55-12.86,11.55-12.86,0,0,6.12-24.01,6.65-26.08.52-2.08,1.79-7.38,3.06-9.79,1.27-2.4,4.84-5.11,4.84-5.11l-15.33-16.54h0Z"/></clipPath></defs><g id="uuid-b259e6eb-9282-4e58-986d-d3934aa91bcd" data-name="uuid-c570e703-2945-4177-b64d-06e285408742"><g id="uuid-c7bc8669-3c13-43c3-852a-c286d52fcb33" data-name="uuid-9f96e339-c3dc-4444-8fae-74ea4c1f77e1"><g class="uuid-1cfa6bdb-b40b-4a10-822f-5735a372275a"><g><rect class="uuid-4d4ae5f1-c6c3-49df-9321-b3c3eeaefea3" x="162.53" y="362.64" width="70.06" height="107.69" rx="1.7" ry="1.7" transform="translate(-259.02 479.93) rotate(-72.53)"/><g><polygon class="uuid-c264d3ba-8696-457e-a5ac-d4558e99d766" points="234.27 461.83 226.16 466.44 131.28 435.87 151.5 377.4 159.88 373.03 252.99 402.33 234.27 461.83"/><line class="uuid-71f48634-c7c5-4ab0-b79f-ecd7a6ea3576" x1="244.92" y1="406.8" x2="252.99" y2="402.33"/><line class="uuid-71f48634-c7c5-4ab0-b79f-ecd7a6ea3576" x1="237.13" y1="442.16" x2="230.21" y2="464.13"/><polyline class="uuid-c264d3ba-8696-457e-a5ac-d4558e99d766" points="237.95 400.92 249.01 404.4 241.6 427.95"/><line class="uuid-71f48634-c7c5-4ab0-b79f-ecd7a6ea3576" x1="197" y1="388.03" x2="229.22" y2="398.17"/><line class="uuid-71f48634-c7c5-4ab0-b79f-ecd7a6ea3576" x1="155.91" y1="375.1" x2="181.64" y2="383.2"/></g><rect class="uuid-4d4ae5f1-c6c3-49df-9321-b3c3eeaefea3" x="148.01" y="370.21" width="70.06" height="107.69" rx="1.7" ry="1.7" transform="translate(-276.4 471.38) rotate(-72.53)"/><path class="uuid-71f48634-c7c5-4ab0-b79f-ecd7a6ea3576" d="m232.42,402.86l-28.66,39.29,13.39,9.91,23.71-32.33s3.49-10.69,3.56-11.32.28-1.69-1.11-2.13l-10.89-3.43Z"/><polygon class="uuid-692362c3-9c42-49ef-a7d9-00216a7861e4" points="134.65 423.09 138.1 437.93 146.53 436.78 149.11 428.93 134.65 423.09"/><polygon class="uuid-692362c3-9c42-49ef-a7d9-00216a7861e4" points="139.78 439.85 147.96 438.94 150.4 431.37 152.94 443.92 139.78 439.85"/><polygon class="uuid-71f48634-c7c5-4ab0-b79f-ecd7a6ea3576" points="128.61 417.65 162.28 400.02 154.62 385.56 135.54 395.62 128.61 417.65"/><path class="uuid-399b8939-c3fd-4a77-bb11-cefdc3056a0b" d="m212.18,422.18s2.32-6.22,3.23-9.81c.91-3.59-4.98-6.51-7.32-.86-5.27-3.83-8.43,2.2-3.54,5.65,4.88,3.45,7.64,5.03,7.64,5.03h0Z"/><path d="m218.3,430.31c-2.04.6-2.41,3.38-1.34,4.96,1.17,1.74,3.59,2.12,5.28.89.94-.69,1.62-1.67,1.88-2.81.09-.39-.12-.81-.52-.92-.38-.1-.83.13-.92.52-.19.84-.67,1.6-1.41,2.06-.7.44-1.48.52-2.18.19-.68-.33-1.13-.98-1.21-1.68-.04-.38,0-.75.13-1.05.15-.35.39-.62.69-.71.92-.27.53-1.72-.4-1.45h0Z"/><path d="m222.53,423.92c-1.53.71-1.69,2.71-1.15,4.11.62,1.61,2.33,2.35,3.98,2.05,1.46-.27,2.65-1.52,2.92-2.96.27-1.48-.05-3.4-1.49-4.17-1.59-.84-3.37-.14-4.53,1.09-.66.7.4,1.77,1.06,1.06.32-.34.7-.66,1.12-.85.13-.06.27-.1.4-.13.1-.03.21-.04.25-.05.28-.02.41,0,.62.05.23.06.29.09.49.22.13.08.27.24.35.38.26.45.31,1.06.31,1.57-.01.98-.49,1.79-1.36,2.18-.72.33-1.91.22-2.47-.51-.34-.44-.46-1.09-.44-1.63.03-.54.25-.91.69-1.12.37-.17.46-.7.27-1.03-.22-.38-.66-.44-1.03-.27h0Z"/><path d="m227.6,416.59c-1.58,1.19-1.23,3.67,0,4.99,1.3,1.39,3.54,1.51,5,.33.79-.64,1.25-1.6,1.32-2.6.03-.4-.37-.75-.75-.75-.43,0-.72.34-.75.75-.04.59-.43,1.26-.97,1.6-.6.38-1.28.42-1.96.17-.6-.21-1.11-.78-1.31-1.39-.13-.39-.16-.67-.11-1.09-.01.08.03-.15.03-.14.03-.11.06-.23.1-.33-.04.08.09-.15.08-.13.02-.03.1-.12.08-.1.32-.24.49-.65.27-1.03-.19-.32-.7-.51-1.03-.27h0Z"/><path d="m232.5,409.97c-1.52.74-1.79,2.68-1.06,4.06.76,1.45,2.46,2.44,4.1,2.12,1.52-.29,2.73-1.67,3.04-3.15.32-1.57-.27-3.21-1.67-4.06-1.48-.9-3.51-.44-4.4,1.07-.49.83.8,1.59,1.3.76.2-.33.52-.59.89-.71.43-.13.8-.14,1.24.05.34.15.69.46.9.8.26.41.37.87.34,1.38-.05.97-.69,1.94-1.59,2.3-.41.17-.87.17-1.35.01-.48-.16-.92-.51-1.23-.9-.31-.39-.52-.93-.47-1.39.05-.46.31-.85.73-1.05.36-.18.46-.7.27-1.03-.22-.37-.66-.45-1.03-.27h0Z"/><path d="m213.42,443.88c1.02,1.34,2.9,1.53,4.26.56,1.36-.96,1.86-2.71,1.48-4.29-.21-.87-.81-1.46-1.71-1.57-.85-.1-1.68.26-2.36.74-.59.41-1.17.99-1.88,1.18-.48.13-1.04.04-1.12-.54-.09-.62.42-1.17.9-1.5.44-.3,1.22-.65,1.67-.28.31.26.76.3,1.06,0,.27-.27.31-.8,0-1.06-1.28-1.06-3.03-.49-4.13.56-.56.54-.95,1.24-1,2.02-.05.78.31,1.57.97,1.99.65.42,1.52.43,2.24.18.78-.27,1.38-.81,2.04-1.27.27-.19.56-.38.88-.47.23-.07.63-.17.83.02.15.14.18.45.21.63.05.34.04.7-.03,1.03-.16.7-.58,1.3-1.25,1.59-.55.23-1.36.23-1.76-.29-.25-.32-.65-.49-1.03-.27-.32.18-.52.7-.27,1.03h0Z"/><path d="m210.16,437.91c2.63,2.19,5.26,4.39,7.89,6.58.31.26.76.3,1.06,0,.27-.27.31-.8,0-1.06-2.63-2.19-5.26-4.39-7.89-6.58-.31-.26-.76-.3-1.06,0-.27.27-.31.8,0,1.06h0Z"/><path d="m131.34,409.07c1.43.92,3.03,1.47,4.72,1.68.39.05.77-.38.75-.75-.14-2.6-.34-5.21-.61-7.8-.04-.4-.32-.75-.75-.75-.37,0-.79.34-.75.75.26,2.6.47,5.2.61,7.8l.75-.75c-1.41-.18-2.76-.71-3.96-1.48-.81-.52-1.57.77-.76,1.3h0Z"/><path d="m139.73,397.4c-.56.36-1.19.68-1.7,1.11-.62.52-.39,1.18-.11,1.81.56,1.22,1.16,2.41,1.81,3.58.32.58.66,1.17,1.01,1.74.18.29.37.57.72.69.32.11.63.06.95-.03.81-.22,3.44-1.11,2.29-2.33-.66-.7-1.72.36-1.06,1.06l.04.05-.22-.53v.07s.09-.38.09-.38c.07-.11.02-.05-.06,0-.1.05-.19.11-.28.16-.15.08-.31.16-.47.22-.19.08-.72.34-.89.28l.33.19c-.23-.18-.37-.56-.52-.81-.17-.29-.34-.58-.5-.87-.36-.65-.71-1.3-1.05-1.96-.16-.32-.32-.64-.48-.96-.15-.3-.26-.7-.46-.97-.02-.04-.04-.08-.06-.13-.04.09-.08.17-.12.26.02.01.45-.29.49-.31l.98-.63c.81-.52.06-1.82-.76-1.3h0Z"/><path d="m142,400.83c-.66.28-1.29.62-1.87,1.03-.16.11-.29.25-.34.45-.05.18-.03.42.08.58.1.16.26.3.45.34.19.04.41.04.58-.08.59-.41,1.22-.75,1.87-1.03.16-.07.3-.29.34-.45.05-.18.03-.42-.08-.58-.1-.16-.26-.3-.45-.34l-.2-.03c-.14,0-.26.03-.38.1h0Z"/><path d="m147.93,403.17l-4.16-7.3-.27,1.03c.84-.45,2.18-.9,2.9.01.66.83-.47,1.76-1.07,2.21-.61.47.06,1.46.73,1.25.84-.25,2.62-.77,3.01.45.35,1.1-.85,1.81-1.74,2.01-.94.21-.54,1.66.4,1.45,1.72-.39,3.34-1.95,2.79-3.86-.26-.89-1.01-1.52-1.9-1.76-.99-.27-2-.02-2.96.26l.73,1.25c.65-.51,1.26-1.12,1.55-1.91.29-.81.12-1.68-.41-2.34-1.22-1.5-3.28-1.13-4.79-.33-.36.19-.46.69-.27,1.03l4.16,7.3c.48.84,1.77.08,1.3-.76h0Z"/><path d="m148.44,394.47c1.13-.75,2.33-1.38,3.61-1.84l-.95-.72c.04,1.18-.08,2.34-.36,3.49-.14.59.36,1.02.92.92.64-.12,1.37-.19,1.96.14.56.31.69.86.55,1.46-.1.46-.34,1.04-.82,1.2-.14.05-.3.03-.44-.03-.07-.03-.14-.08-.18-.12-.02-.02-.07-.13-.06-.07-.05-.4-.31-.75-.75-.75-.37,0-.8.35-.75.75.12,1.05,1.02,1.8,2.1,1.74,1.13-.06,1.92-.99,2.26-2,.38-1.11.23-2.41-.72-3.18-1.02-.83-2.32-.82-3.55-.59l.92.92c.31-1.27.46-2.58.41-3.89-.01-.45-.47-.89-.95-.72-1.4.5-2.73,1.16-3.97,1.99-.8.53-.05,1.83.76,1.3h0Z"/></g></g></g></g></svg>
<svg id="uuid-812f6975-679d-4f88-a4ed-851daa0a87ab" data-name="BODY" xmlns="http://www.w3.org/2000/svg" viewBox="0 0 600 600"><defs><style>
      .uuid-c2b81f84-54b4-4471-8442-6dab97f9dbdb {
        fill: #7aa6ff;
      }

      .uuid-c2b81f84-54b4-4471-8442-6dab97f9dbdb, .uuid-8f93f715-e731-4f67-a3d6-2e442b938451, .uuid-52fe3725-26e2-42a9-8a9b-607d6ab8d4a1 {
        stroke: #000;
        stroke-linecap: round;
        stroke-linejoin: round;
        stroke-width: 2px;
      }

      .uuid-d52b56ba-8ce0-4864-b827-dcc6275d2116 {
        fill: #ffc9f1;
      }

      .uuid-8f93f715-e731-4f67-a3d6-2e442b938451 {
        fill: #ff78d8;
      }

      .uuid-52fe3725-26e2-42a9-8a9b-607d6ab8d4a1 {
        fill: none;
      }
    </style></defs><g id="uuid-2a31ff83-8394-4ae1-83e2-55ef45d928c7" data-name="uuid-831834e0-bbb8-426a-8cd6-ab5c8fbbbe1c"><g id="uuid-5a353068-881e-4ba2-860e-e9d7a7bbebc2" data-name="uuid-1fcb06a8-7212-4847-8b3f-ceda00c046b1"><g id="uuid-111bd790-e24a-47d4-950c-c3799bd40fa4" data-name="uuid-e9ed0fb3-5d7b-4b33-9f9b-ca7aaa2c4c4e"><circle class="uuid-8f93f715-e731-4f67-a3d6-2e442b938451" cx="489.69" cy="199.93" r="51.03" transform="translate(2.06 404.82) rotate(-45)"/><path class="uuid-8f93f715-e731-4f67-a3d6-2e442b938451" d="m543.98,181.68c-2.32-4.46-15.68-16.27-58.27-10.33-42.59,5.94-52.2,20.97-53.22,25.89-.85,4.1.27,25.66,12.14,26.71-2.48-5.6-3.39-10.66-3.39-10.66,0,0-1.04-13.08,47.55-19.86,48.44-6.76,51.17,6.09,51.17,6.09,0,0,.51,5.11-.34,11.18,11.13-4.26,6.3-25.29,4.37-29.01h0Z"/><g><path class="uuid-d52b56ba-8ce0-4864-b827-dcc6275d2116" d="m492.25,237.5c1.32-.8-2.83-7.79-4.88-20.65-2.05-12.86-1.21-17.43-3.79-17.45-2.58-.03-1.75,8.24.05,18.36,1.8,10.12,6.42,21.08,8.62,19.74h0Z"/><path class="uuid-d52b56ba-8ce0-4864-b827-dcc6275d2116" d="m465.36,219.85c-2.16,1.34-9.64-7.23-9.38-8.55s4.45-3.65,5.41-2.82,5.04,10.7,3.97,11.37Z"/><path class="uuid-d52b56ba-8ce0-4864-b827-dcc6275d2116" d="m507.79,240.81c.65,2.43,7.9-2.07,12.66-6.28,4.76-4.21,8.23-8.88,6.69-10.21s-5.38,3.46-9.7,7.15c-4.32,3.7-10.05,7.85-9.65,9.34h0Z"/><path class="uuid-d52b56ba-8ce0-4864-b827-dcc6275d2116" d="m528.66,221.27c1.31.69,5.74-5.97,3.92-6.69-1.82-.71-6.04,5.58-3.92,6.69Z"/><path class="uuid-d52b56ba-8ce0-4864-b827-dcc6275d2116" d="m517.57,174.22s2.67,7.62,3,13.63c6.31-.04,12.92,2.51,12.92,2.51,0,0-3.07-9.46-7.13-14.5,0,0-4.27-1.64-8.79-1.65Z"/><path class="uuid-d52b56ba-8ce0-4864-b827-dcc6275d2116" d="m446.91,187.4c-.93-.33-6.26,3.61-6.55,4.81s.52,10.21,1.91,11.14c1.39.93,7.99-14.78,4.64-15.95h0Z"/><path class="uuid-d52b56ba-8ce0-4864-b827-dcc6275d2116" d="m475.33,176.57c-1.18.68-2.89,14.87-2.63,15.54s15.42-1.93,16.17-2.61,1.34-14.43,1.1-14.98-12.84,1.02-14.63,2.04h0Z"/><path class="uuid-d52b56ba-8ce0-4864-b827-dcc6275d2116" d="m498.29,155.85c-1.48,3.03,14.49,8.56,15,6.7.51-1.86-12.18-12.47-15-6.7h0Z"/><path class="uuid-d52b56ba-8ce0-4864-b827-dcc6275d2116" d="m483.58,154.84c-.49,2.43,7.45,3.41,7.96.48.51-2.92-7.37-3.42-7.96-.48Z"/><path class="uuid-d52b56ba-8ce0-4864-b827-dcc6275d2116" d="m455.96,168.67c.51,3.37,9.82-2.85,8.12-5.58-1.7-2.73-8.56,2.64-8.12,5.58Z"/><path class="uuid-d52b56ba-8ce0-4864-b827-dcc6275d2116" d="m540.23,182.79c-3.62-1.64-.58,3.92.1,7.88.68,3.96.57,8.04,1.63,8.18,1.05.14,1.45-4.59,1.08-8.88s-.47-6.12-2.81-7.18h0Z"/></g><g><path class="uuid-c2b81f84-54b4-4471-8442-6dab97f9dbdb" d="m498.33,310.64h0s5.18.71,9.29,5.39c2.5-3.41,4.47-4.48,4.47-4.48l-9.42-67.52s-.42-2.97-7.1-2.04c-6.69.93-6.27,3.9-6.27,3.9l9.04,64.74Z"/><path class="uuid-c2b81f84-54b4-4471-8442-6dab97f9dbdb" d="m519.24,362.8c-14.5-4.39-8.79-16.19-2.56-18.34h0c-5.56-1.96-7.11-9.88-2.07-14.81h0c-4.28-.28-6.34-2.76-6.34-2.76,0,0-2.5,4.3-7.09,4.22h0l14.63,104.82s.41,2.97,7.1,2.04c6.69-.93,6.27-3.9,6.27-3.9l-9.95-71.27h0Z"/><path class="uuid-52fe3725-26e2-42a9-8a9b-607d6ab8d4a1" d="m515.82,435.93c-.57-4.08,12.8-5.94,13.37-1.87"/></g></g></g></g></svg>
<svg id="uuid-3a22222a-91dc-4434-a149-49d55022cbcf" data-name="BODY" xmlns="http://www.w3.org/2000/svg" viewBox="0 0 600 600"><defs><style>
      .uuid-81b9137b-6e77-4105-992a-21a6bf7dc6a9 {
        fill: #ff78d8;
      }

      .uuid-81b9137b-6e77-4105-992a-21a6bf7dc6a9, .uuid-dea7dc62-0969-4776-9594-8652b65f45ad, .uuid-8e15d984-f7ee-4776-b0a0-64c6f2a9e680, .uuid-5ac0a83f-ec38-4ce8-901c-84c045b3027e {
        stroke: #000;
        stroke-linecap: round;
        stroke-linejoin: round;
        stroke-width: 2px;
      }

      .uuid-dea7dc62-0969-4776-9594-8652b65f45ad {
        fill: #fff7f0;
      }

      .uuid-8e15d984-f7ee-4776-b0a0-64c6f2a9e680 {
        fill: #ffc9f1;
      }

      .uuid-5ac0a83f-ec38-4ce8-901c-84c045b3027e {
        fill: none;
      }
    </style></defs><g id="uuid-0b894ece-50c7-46f6-887d-6da90b41c0b7" data-name="uuid-a79c3b85-ceb5-4869-af4e-3ef8c358c94a"><g><path class="uuid-dea7dc62-0969-4776-9594-8652b65f45ad" d="m266.47,268.22s36.84-4.53,78.13-19.67c41.29-15.14,43.72-36.8,43.72-36.8l-21.86-22.35s-13.97,11.49-47.77,23.5c-33.8,12.01-56.27,15.91-56.27,15.91l4.05,39.41h0Z"/><path class="uuid-81b9137b-6e77-4105-992a-21a6bf7dc6a9" d="m418.14,277.2c2.62,10.88,11.01,10.17,20.02,19.85,0,0,.3,16.32-2.68,30.16,0,0,6.41-2.49,9.54-6.99-2.35,7.23-7.92,13-7.92,13,0,0,10.12-.56,20.32-11.82,10.2-11.27,10.62-24.26,4.05-34.18-6.57-9.92-7.12-9.78-7.82-12.43-.7-2.65-1.12-7.68-1.26-20.68-.14-12.99-3.21-20.12-12.99-29.34-9.78-9.22-19.84-21.51-19.84-21.51,0,0,15.37-5.59,16.62-22.77-9.78,5.17-20.98,7.57-45.44-6.22-24.47-13.79-47.96-32.43-95.72-31.65-47.77.78-67.18,26.99-67.18,26.99,0,0-28.13,2.72-51.25,25.05-23.12,22.33-14.18,41.16-20.59,55.34-6.41,14.17-17.48,13.01-20.97,33.59-3.5,20.58,11.07,39.42-3.11,48.35-14.17,8.93-21.94-2.52-21.94-2.52,0,0-2.36,26.47,28.91,20.78,6.96,7.82,21.61,4.26,25.87-6.4,1.42,14.78-5.16,19.07-13.05,17.93,18.26,13.08,31.33.09,31.33.09,0,0,9.82.98,16.85-9.3,7.03-10.27,2.97-20.52,2.97-20.52,0,0,6.4,8.67,16.63,10.52,4.83,15.64,21.46,23.88,21.46,23.88,0,0-10.57-20.38-3.48-39.66,8.31-22.6,24.94-19.76,30.77-36.53,5.83-16.77.43-32.12,1.56-52.88,4.12,13.08,14.29,29.28,18.09,46.34s-1.03,22.88-1.03,22.88c0,0,13.65-.14,17.91-20.75,4.26-20.61-9.81-41.79-10.23-60.27,0,0,17.77-4.26,37.67-12.65,19.9-8.39,29.14-17.48,29.14-17.48,0,0,9.24,3.27,17.06,31.84,7.82,28.57,13.95,48.18,39.74,49.96h0Z"/><g><path class="uuid-5ac0a83f-ec38-4ce8-901c-84c045b3027e" d="m183.05,361.82c5.14-4.86,4.82-16.12,4.82-16.12"/><path class="uuid-5ac0a83f-ec38-4ce8-901c-84c045b3027e" d="m138.9,350.19c9.44-2.34,13.94-11.95,13.94-11.95"/><path class="uuid-5ac0a83f-ec38-4ce8-901c-84c045b3027e" d="m164.77,343.8c-.49-12.04-12.07-25-10.81-45.4,1.26-20.4,32.11-27.19,32.11-49.86"/><path class="uuid-5ac0a83f-ec38-4ce8-901c-84c045b3027e" d="m202.86,332c-14.65-19.23-9.07-40.31,1.3-51.68"/><path class="uuid-5ac0a83f-ec38-4ce8-901c-84c045b3027e" d="m219.49,342.52c-5.63-17.59-7.73-37.87-1.1-53.06,6.63-15.19,17.29-8.24,21.01-28.92,3.72-20.68-10.34-31.83,10.99-52.52"/><path class="uuid-5ac0a83f-ec38-4ce8-901c-84c045b3027e" d="m269.81,237.34c-4.12-14.55,2.11-26.58,7.07-30.7"/><path class="uuid-5ac0a83f-ec38-4ce8-901c-84c045b3027e" d="m294.54,225.54c-.78-12.46,14.5-31.41,37.67-12.65-.89-27.03,23.19-21.23,29.14-17.48"/><path class="uuid-5ac0a83f-ec38-4ce8-901c-84c045b3027e" d="m332.21,212.89s-9.38-22.08-44.31-34.1c-27.53-9.48-51.73-10.75-60.05-9.17"/><path class="uuid-5ac0a83f-ec38-4ce8-901c-84c045b3027e" d="m283.41,177.3c2.32-17.76,24.03-21.21,24.03-21.21"/><path class="uuid-5ac0a83f-ec38-4ce8-901c-84c045b3027e" d="m315.55,193.47c-.38-13.96,11.11-21.86,20.74-23.73"/><path class="uuid-5ac0a83f-ec38-4ce8-901c-84c045b3027e" d="m257.62,171.07c-22.01.62-58.98,11.83-65.86,49.06"/><path class="uuid-5ac0a83f-ec38-4ce8-901c-84c045b3027e" d="m305.44,186.67c-13.07-3.06-35.41,6.06-35.41,6.06"/><path class="uuid-5ac0a83f-ec38-4ce8-901c-84c045b3027e" d="m390.63,203.42c17.2,14.07,6.68,41.93,22.03,53.59,15.35,11.66,23.92-1.23,23.92-1.23,0,0,2.2,21.1-18.44,21.43"/><path class="uuid-5ac0a83f-ec38-4ce8-901c-84c045b3027e" d="m455.14,277.94c-8.47-13.12-13.42-22.43-14.37-34.13"/><path class="uuid-5ac0a83f-ec38-4ce8-901c-84c045b3027e" d="m438.16,297.05c5.26,6.27,9.65,12.93,6.86,23.17"/><path class="uuid-5ac0a83f-ec38-4ce8-901c-84c045b3027e" d="m419.57,203.26c-10.17,3.12-19.41-2.74-19.41-2.74"/></g><path class="uuid-8e15d984-f7ee-4776-b0a0-64c6f2a9e680" d="m343.96,237.73s5.18-3.78,5.82-11.16c.64-7.39-10.03-8.7-11.31-2.48-7.2-2.9-13.15,4.95-6.29,9.69,5.84,4.04,11.78,3.95,11.78,3.95Z"/></g></g></svg>
</svg>