<?xml version="1.0" encoding="UTF-8"?>
<svg xmlns="http://www.w3.org/2000/svg" viewBox="0 0 600 600">
<svg id="uuid-c55b6f18-22d9-42e7-94a5-9418063ab399" data-name="BACKGROUND" xmlns="http://www.w3.org/2000/svg" viewBox="0 0 600 600"><defs><style>
      .uuid-65b83bcd-5755-41b5-8f46-23c20c164524 {
        fill: #9dff0c;
      }
    </style></defs><rect class="uuid-65b83bcd-5755-41b5-8f46-23c20c164524" x="-1" y="-1" width="602" height="602"/></svg>
<svg id="uuid-da5b8a35-a9b2-4004-9217-4254ce55b3fe" data-name="BODY" xmlns="http://www.w3.org/2000/svg" viewBox="0 0 600 600"><defs><style>
      .uuid-ec25118f-3915-43af-9dc5-5d64b7ba66c4 {
        fill: #fff;
      }

      .uuid-73059a94-03d4-49d7-a031-ef6b59ff4553, .uuid-813f35b8-d70c-4735-9e7c-d217ddabbc48, .uuid-3c21801f-90f4-41ce-bd53-f460193f8c05, .uuid-382536b8-ade7-4abe-aa61-124cac12416d, .uuid-72d6c9e3-e040-49a4-ab2c-cf903abb3d52 {
        stroke: #000;
        stroke-width: 2px;
      }

      .uuid-73059a94-03d4-49d7-a031-ef6b59ff4553, .uuid-813f35b8-d70c-4735-9e7c-d217ddabbc48, .uuid-382536b8-ade7-4abe-aa61-124cac12416d, .uuid-72d6c9e3-e040-49a4-ab2c-cf903abb3d52 {
        fill: #3ef1ff;
      }

      .uuid-73059a94-03d4-49d7-a031-ef6b59ff4553, .uuid-3c21801f-90f4-41ce-bd53-f460193f8c05, .uuid-382536b8-ade7-4abe-aa61-124cac12416d {
        stroke-linecap: round;
      }

      .uuid-73059a94-03d4-49d7-a031-ef6b59ff4553, .uuid-3c21801f-90f4-41ce-bd53-f460193f8c05, .uuid-72d6c9e3-e040-49a4-ab2c-cf903abb3d52 {
        stroke-linejoin: round;
      }

      .uuid-813f35b8-d70c-4735-9e7c-d217ddabbc48, .uuid-382536b8-ade7-4abe-aa61-124cac12416d {
        stroke-miterlimit: 10;
      }

      .uuid-3c21801f-90f4-41ce-bd53-f460193f8c05 {
        fill: none;
      }
    </style></defs><ellipse cx="300" cy="518.65" rx="138.6" ry="22.93"/><g><path class="uuid-813f35b8-d70c-4735-9e7c-d217ddabbc48" d="m319.36,427.14c-1.16,1.05-54.95,57-54.95,57,0,0,21.51-1.95,31.74,10.62,10.23,12.57,7.26,23.89,7.26,23.89h-66.9s-28.69-36.17-28.69-36.17c0,0,3.74-13.4,20.44-10.59,20.9-19.38,55.52-59.13,55.52-59.13l35.59,14.38Z"/><path d="m283.78,412.76l31.28,12.64-3.24,9.5c-2.93,3.03-9.76,10.12-13.64,14.14-11.92,0-27.98-2.13-41.33-6.37,13.95-15.1,26.93-29.92,26.93-29.92Z"/></g><g><path class="uuid-73059a94-03d4-49d7-a031-ef6b59ff4553" d="m409.81,359.6c9.2,3.77,29.89,12.05,42.79,16.03,2.11.65,4.41.69,6.5-.04,11.79-4.08,28.47-11.39,33.03-11.32,5.25.08,7.8,3.93,19.88,2.04,13.36-2.1,22.43-11.99,20.93-23.3-4.21-43.28-25.18-26.79-25.18-26.79,0,0-5.84-8.75-18.76-4.82-11.83,3.6-10.2,14.44-6.47,22.47l-25.29,8.58c-2.14.72-4.45.71-6.59-.02l-35.7-12.61"/><path class="uuid-382536b8-ade7-4abe-aa61-124cac12416d" d="m533.36,312.82c2.5,3.94,1.62,9.14-1.57,12.4-2.47,2.53-5.88,3.88-9.32,4.4-2.8.43-5.7.42-8.49-.08-2.14-.39-4.29-1.1-5.79-2.75-1.66-1.83-2.27-4.46-1.98-6.87.51-4.17,3.84-7.14,7.22-9.26,3.17-1.98,6.86-3.26,10.64-3.09,3.8.18,7.36,2.19,9.3,5.24Z"/><path class="uuid-382536b8-ade7-4abe-aa61-124cac12416d" d="m538.57,349.84c.97,3.03.32,6.43-1.5,9.01-3.77,5.33-11.17,5.65-16.96,4.27-3.31-.79-6.69-2.21-8.67-5.13-3.13-4.61-.82-9.79,3.48-12.56,2.58-1.66,5.61-2.67,8.63-3.14,5.73-.89,13.1,1.51,15.03,7.56Z"/><path class="uuid-382536b8-ade7-4abe-aa61-124cac12416d" d="m538.71,328.53c1.8,2.99,2.06,6.89.22,9.9-1.95,3.2-4.94,5.25-8.49,6.28-3.66,1.07-7.64,1.27-11.4.44-2.25-.5-4.53-1.38-5.96-3.28-1.86-2.47-1.89-5.68-.85-8.49,1.2-3.24,4.17-5.69,7.09-7.37,6.15-3.56,15.21-4.43,19.39,2.52Z"/><path class="uuid-382536b8-ade7-4abe-aa61-124cac12416d" d="m501.85,311.68s9.27,3.84,7.77,12.02c-1.04,5.68-8.17,9.55-14.94,6.13"/><path class="uuid-3c21801f-90f4-41ce-bd53-f460193f8c05" d="m500.67,331.08c2.41,1.63,5.11,8.04,3.4,14.42"/><path d="m443.44,339.88c-2.88,10.58-6.94,20.23-11.17,28.59-10.17-3.78-21.16-9.53-27-11.93l11.83-26.02,26.35,9.36Z"/></g><g><circle class="uuid-813f35b8-d70c-4735-9e7c-d217ddabbc48" cx="300" cy="300" r="138.16"/><path class="uuid-ec25118f-3915-43af-9dc5-5d64b7ba66c4" d="m184.58,308.17c-4.41,0-7.98-3.57-7.98-7.98,0-67.74,55.11-122.86,122.86-122.86,4.41,0,7.98,3.57,7.98,7.98s-3.57,7.98-7.98,7.98c-58.94,0-106.9,47.95-106.9,106.9,0,4.41-3.57,7.98-7.98,7.98Z"/></g><path class="uuid-3c21801f-90f4-41ce-bd53-f460193f8c05" d="m264.41,484.14c-4.06.49-11.49,1.36-17.85,7.23"/><path class="uuid-ec25118f-3915-43af-9dc5-5d64b7ba66c4" d="m185.17,308.14c-4.41,0-7.98-3.57-7.98-7.98,0-67.74,55.11-122.86,122.86-122.86,4.41,0,7.98,3.57,7.98,7.98s-3.57,7.98-7.98,7.98c-58.94,0-106.9,47.95-106.9,106.9,0,4.41-3.57,7.98-7.98,7.98Z"/><path d="m203.75,397.46l34.2-27.46-24.86,36.3c-6.73-5.1-3.66-2.61-9.34-8.83Z"/><path class="uuid-72d6c9e3-e040-49a4-ab2c-cf903abb3d52" d="m323.72,387.31c19.14-13.4,39.15-11.3,55.52,7.36,19.6,22.35,30.57,33.06,30.57,33.06,0,0,10.74-19.34,34.77-17.5,18.26,1.4,24.84,14.43,24.84,14.43,0,0,6.21,8.82-22.45,33.5-28.66,24.68-54.93,40.92-61.14,29.46-6.21-11.46-2.82-32.1-2.82-32.1,0,0-22.02-26.09-27.94-32.01-6.79-6.79-15.71-1.36-15.71-1.36"/><path class="uuid-813f35b8-d70c-4735-9e7c-d217ddabbc48" d="m446.97,458.17c-25.89,22.29-49.82,37.69-58.79,32.02-9.77-7.44,26.84-38.54,44.88-52.7,18.04-14.16,32.17-17.82,36.36-12.81,0,0,6.21,8.82-22.45,33.5Z"/><path class="uuid-3c21801f-90f4-41ce-bd53-f460193f8c05" d="m409.81,427.74c-1.89,2.86-4.55,10.38-4.55,10.38"/><g><path class="uuid-73059a94-03d4-49d7-a031-ef6b59ff4553" d="m214.11,345.7c-8.05,5.83-25.34,20.79-35.52,29.67-1.67,1.45-2.82,3.41-3.39,5.55-3.14,11.67-8.55,33.44-8.55,33.44,0,0-8.42.58-12.19,14.35-3.64,13.3-6.64,25.06,3.77,29.75.35,7.47,7.51,15.45,19.2,9.41.14-.06,1.32,1.32,1.44,1.45,2.64,2.7,6.36,4.45,10.13,4.81,3.65.36,7.61-.67,10.43-3.08,3.29-2.81,5.4-6.94,6.05-11.2.4-2.61.26-5.31-.75-7.78,0,0,6.2-2.51,8.05-11.34,1.99-9.49-4.22-19.42-14.62-18.18l6.17-23.11c.51-2.2,1.74-4.16,3.49-5.59l29.38-24.3"/><path class="uuid-3c21801f-90f4-41ce-bd53-f460193f8c05" d="m204.73,452.06c-1.37-3.47-5.39-7.08-9-6.88"/><path class="uuid-3c21801f-90f4-41ce-bd53-f460193f8c05" d="m178.86,469.3c-5.16-5.27-3.82-11.97-2.9-13.54"/><path class="uuid-3c21801f-90f4-41ce-bd53-f460193f8c05" d="m158.22,458.45c-.27-5.22.73-7.32,3.06-9.83"/><path class="uuid-3c21801f-90f4-41ce-bd53-f460193f8c05" d="m193.93,450.63c.14-2.07.48-4.16,1.32-6.06.85-1.95,2.36-3.88,4.31-4.85"/></g></svg>
<svg id="uuid-175be159-db61-4df5-a3ec-4e569af78a21" data-name="BODY" xmlns="http://www.w3.org/2000/svg" viewBox="0 0 600 600"><defs><style>
      .uuid-cb5ad370-d590-4d84-8471-319d1a4c5aa5 {
        fill: none;
        stroke: #000;
        stroke-linecap: round;
        stroke-linejoin: round;
        stroke-width: 4px;
      }
    </style></defs><g id="uuid-13c94933-b88a-4a0e-9bd5-264a3853387a" data-name="expressions"><g id="uuid-006bcb9c-427f-47d9-92c9-0f51d1e9073c" data-name="mouth"><circle cx="362.12" cy="293.18" r="9.78" transform="translate(-9.59 12.26) rotate(-1.91)"/></g><g id="uuid-aa5f76af-2ff8-4e7f-a2a4-73d690451a8d" data-name="eye L"><circle cx="337.63" cy="273.96" r="9.78" transform="translate(-8.96 11.43) rotate(-1.91)"/></g><g id="uuid-4d2b7d8b-0a30-48e5-b672-08579e330a1a" data-name="eye R"><polyline class="uuid-cb5ad370-d590-4d84-8471-319d1a4c5aa5" points="374.33 254.17 360.69 266.02 379.28 264.87"/></g></g></svg>
<svg id="uuid-3d4b76ab-6c40-4db0-80a5-58215603a36a" data-name="BODY" xmlns="http://www.w3.org/2000/svg" viewBox="0 0 600 600"><defs><style>
      .uuid-b4ff5219-4456-479b-a4e6-3ec362204d57 {
        fill: #a07bff;
        stroke: #000;
        stroke-linecap: round;
        stroke-linejoin: round;
        stroke-width: 2px;
      }
    </style></defs><g id="uuid-24effac1-cb0a-4458-9f3b-3056f57ead23" data-name="uuid-1f78a3be-5fce-4020-89b4-7aa51f9e5b9c"><g id="uuid-ab39dc42-38f5-4a02-adb5-d02219b918d3" data-name="uuid-969c81b9-1e0e-41b0-9d6d-316f0948a7ae"><g id="uuid-e07eced2-eb92-4c3e-bc2f-47523d25c769" data-name="uuid-69f00393-7ebc-4c63-be88-21f81d4c3cd4"><g><g><g><path class="uuid-b4ff5219-4456-479b-a4e6-3ec362204d57" d="m252.95,512.53s-.13-19.98,20.94-31.34c3.45,0,6.66.45,9.62,1.27,2.65-2.1,6.05-.47,6.01,2.35,10.51,5.43,16.48,16.22,16.48,27.26l-53.04.45h0Z"/><g><path class="uuid-b4ff5219-4456-479b-a4e6-3ec362204d57" d="m271.52,490.69c3.35-3.3,8.28-1.24,7.95,2.97"/><path class="uuid-b4ff5219-4456-479b-a4e6-3ec362204d57" d="m261.12,503.04c2.5-3.99,7.77-3.12,8.42,1.06"/><path class="uuid-b4ff5219-4456-479b-a4e6-3ec362204d57" d="m280.55,505.22c2.5-3.99,7.77-3.12,8.42,1.06"/><path class="uuid-b4ff5219-4456-479b-a4e6-3ec362204d57" d="m293.27,497.89c4.21-2.11,8.26,1.37,6.65,5.27"/><path class="uuid-b4ff5219-4456-479b-a4e6-3ec362204d57" d="m278.79,490.47c3.54-3.1,8.34-.74,7.75,3.44"/></g></g><path class="uuid-b4ff5219-4456-479b-a4e6-3ec362204d57" d="m211.4,475.24l25.74,33.51c.86,1.11,2.18,1.77,3.59,1.77h64.41c2.26,0,4.1,1.83,4.1,4.1v4.55c0,2.26-1.83,4.1-4.1,4.1h-68c-3,0-5.83-1.4-7.64-3.79l-26.99-35.42c-.92-1.2-.93-2.87-.02-4.09l3.5-4.69c1.35-1.8,4.04-1.82,5.41-.04h0Z"/></g><g><g><path class="uuid-b4ff5219-4456-479b-a4e6-3ec362204d57" d="m414.18,446.66s-4.53-21.06,9-36.13c6.68-3.31,14.98-4.7,23.09-3.58,2.95-3.25,7.9-1.53,8.13,2.04,4.57,1.7,8.87,4.35,12.51,8.05,0,0-27.13,5.11-52.73,29.62h0Z"/><g><path class="uuid-b4ff5219-4456-479b-a4e6-3ec362204d57" d="m426.27,415.55c1.73-4.38,7.07-4.49,8.47-.5"/><path class="uuid-b4ff5219-4456-479b-a4e6-3ec362204d57" d="m418.82,431.73c.67-4.66,5.85-6,8.12-2.44"/><path class="uuid-b4ff5219-4456-479b-a4e6-3ec362204d57" d="m446.15,414.02c2.99-3.63,8.11-2.09,8.21,2.13"/><path class="uuid-b4ff5219-4456-479b-a4e6-3ec362204d57" d="m430.79,419.07c1.99-4.26,7.33-4.05,8.48.01"/></g></g><path class="uuid-b4ff5219-4456-479b-a4e6-3ec362204d57" d="m468.14,415.89c-2.24-1.13-22.3,0-54.12,28.18-31.82,28.18-34.52,37.14-33.85,41.63.52,3.51,3.2,9.54,12.81,9.64,9.61.1,27.32-9.56,50.22-28.75,31.08-26.04,31.18-37.38,31.08-41.12-.1-3.74-2.87-7.92-6.13-9.57h0Z"/><path class="uuid-b4ff5219-4456-479b-a4e6-3ec362204d57" d="m466.23,426.09c-7.45-6.64-85.34,55.53-74.28,61.26,11.06,5.73,82.61-53.84,74.28-61.26h0Z"/></g></g></g></g></g></svg>
<svg id="uuid-a9b76fb0-fcc9-47a4-8a22-bf2a6be645e3" data-name="BODY" xmlns="http://www.w3.org/2000/svg" xmlns:xlink="http://www.w3.org/1999/xlink" viewBox="0 0 600 600"><defs><style>
      .uuid-b38ce0af-b4e9-45a0-a07c-ddbefe16b92c, .uuid-d0f82b25-b41c-4ccb-b99d-337e8c7b221c, .uuid-4c4391de-0469-45ae-85e6-f51b95112f18, .uuid-50bdb408-0f03-46e1-b11e-5fe1cf11a933 {
        fill: none;
      }

      .uuid-d0f82b25-b41c-4ccb-b99d-337e8c7b221c {
        clip-path: url(#uuid-b3878e00-90a2-4718-a8fa-787c32a78eda);
      }

      .uuid-2929258d-25b8-427e-8de3-6a1749239f1a, .uuid-4586ed58-3c26-4b5c-987c-00247d29fbe1 {
        fill: #7aa6ff;
      }

      .uuid-2929258d-25b8-427e-8de3-6a1749239f1a, .uuid-21d9377c-d8c1-4bc7-8f1d-7cae94ebdb6b, .uuid-50bdb408-0f03-46e1-b11e-5fe1cf11a933, .uuid-d9aa9a53-424e-4bf1-bdbc-808db4883ccb {
        stroke: #000;
        stroke-linecap: round;
        stroke-linejoin: round;
        stroke-width: 2px;
      }

      .uuid-4c4391de-0469-45ae-85e6-f51b95112f18 {
        clip-path: url(#uuid-98c8cd3b-e751-42de-aa63-77e0a36d3d5b);
      }

      .uuid-2d96f9ec-d66c-44b5-9875-4c3953027912, .uuid-21d9377c-d8c1-4bc7-8f1d-7cae94ebdb6b {
        fill: #fff;
      }

      .uuid-d9aa9a53-424e-4bf1-bdbc-808db4883ccb {
        fill: #f9a723;
      }
    </style><clipPath id="uuid-98c8cd3b-e751-42de-aa63-77e0a36d3d5b"><path class="uuid-b38ce0af-b4e9-45a0-a07c-ddbefe16b92c" d="m187.46,365.07c0-1.37.16-2.37.16-2.37l11.19-9.37,4.94.54,4.16-3.54-45.5-37.65s-.46-6.93-.57-13.62.57-13.95.57-13.95c19.42,20.93,67.75,51.78,95.66,65.63,27.91,13.85,60.83,24.27,75.34,27.46-5.61,2.07-6.03,4.26-16.69,7.77-10.66,3.51-22.99,2.36-42.4-1.62s-37.12-14.8-37.12-14.8l-8.86,7.52c.26,1.81.19,3.9.19,3.9l-9.7,8.9-5.45-.63,4.68-3.87s-.29-9.76-7.22-16.79c-6.93-7.03-18.28-5.3-18.28-5.3l-4.94,4.24s-.16-1.09-.16-2.46h0Zm237.71.67l8.26,3.17-.47.98c-.39.82-.01,1.79.82,2.14l8.27,3.38c.74.3,1.59,0,1.98-.7,1.53-2.8,5.2-9.98,6.98-17.6,1.78-7.62,1.86-13.58,1.82-16.23-.01-.82-.54-1.54-1.31-1.8l-7.18-2.48c-1.15-.4-2.39.35-2.56,1.56l-.16,1.08-9.17-3.8s-6.31,9.78-8.6,12.83l4.08,11.38-2.76,6.11v-.02Z"/></clipPath><clipPath id="uuid-b3878e00-90a2-4718-a8fa-787c32a78eda"><path class="uuid-b38ce0af-b4e9-45a0-a07c-ddbefe16b92c" d="m439.54,321.73c-4.23,10.84-15.69,26.53-15.69,26.53,0,0,4.15,11.07,4.08,11.38-.08.31-5.02,12.18-14.88,25.28-8.25,10.96-18.86,20.87-18.86,20.87,0,0,6.17,6.74,7.85,8.76s0,5.19,0,5.19l-2.45-2.6s-7.21,3.17-15.1,10.59c-7.89,7.43-11.9,15.53-11.9,15.53l3.02,3.52s-2.64,1.22-4.36-.6c-1.72-1.82-14.76-16.58-14.76-16.58-20.33,9.71-45.4,11.43-45.4,11.43l-35.49,36.3c-28.82-3.13-35.02-23.89-35.02-23.89l17.8-18.01c-32.9-9.98-54.89-32.72-54.89-32.72,0,0,1.26-5.64,2.51-6.89s7.43-6.6,7.43-6.6c0,0,4.99.68,5.45.63.46-.05,8.89-8.04,9.45-8.7s.06-4.11.06-4.11l8.86-7.52c13.1,8.93,45.08,18.91,64.56,18.44,19.48-.47,22.89-6.37,31.45-9.84-8.21-2.19-49.99-12-96.04-38.56-48.62-28.05-72.13-51.81-77.02-57.04-.62-.67-.91-1.58-.78-2.48,1.81-12.31,5.53-24.8,5.82-25.53.3-.76,5.32-2.81,5.32-2.81,0,0-1.67,4.75-2.87,8.54,5.27,9.46,36.81,36.33,81.72,61.73,44.91,25.4,83.33,34.65,89.65,34.75,6.32.1,69.07-15.09,78.08-26.22,9.01-11.12,19.87-48.85,19.87-48.85l-1.33-8.17c4.09.98,4.6,4.25,4.6,4.25,0,0,1.31,7,1.38,20.76.08,13.77-2.08,23.23-2.08,23.23h-.04Zm-231.4,28.58l-45.72-37.62-.24-3.05s-3.03,1.99-2.91,3.49,3.35,36.61,20.8,60.97l7.57-6.56s-.33-4.15,0-4.83c.33-.67,11.19-9.37,11.19-9.37l4.94.54,4.38-3.56h-.01Z"/></clipPath></defs><g id="uuid-af29460d-1585-47d9-9c08-90633e2ce16e" data-name="uuid-3ed2d463-9c98-4ccd-9d5d-4c3039953550"><g id="uuid-8cac3a0a-4265-40b4-9675-88e4177bf870" data-name="uuid-099ea80d-b0f2-4400-b65c-6ce909f17109"><g><path class="uuid-2d96f9ec-d66c-44b5-9875-4c3953027912" d="m187.46,365.07c0-1.37.16-2.37.16-2.37l11.19-9.37,4.94.54,4.16-3.54-45.5-37.65s-.46-6.93-.57-13.62.57-13.95.57-13.95c19.42,20.93,67.75,51.78,95.66,65.63,27.91,13.85,60.83,24.27,75.34,27.46-5.61,2.07-6.03,4.26-16.69,7.77-10.66,3.51-22.99,2.36-42.4-1.62s-37.12-14.8-37.12-14.8l-8.86,7.52c.26,1.81.19,3.9.19,3.9l-9.7,8.9-5.45-.63,4.68-3.87s-.29-9.76-7.22-16.79c-6.93-7.03-18.28-5.3-18.28-5.3l-4.94,4.24s-.16-1.09-.16-2.46h0Zm237.71.67l8.26,3.17-.47.98c-.39.82-.01,1.79.82,2.14l8.27,3.38c.74.3,1.59,0,1.98-.7,1.53-2.8,5.2-9.98,6.98-17.6,1.78-7.62,1.86-13.58,1.82-16.23-.01-.82-.54-1.54-1.31-1.8l-7.18-2.48c-1.15-.4-2.39.35-2.56,1.56l-.16,1.08-9.17-3.8s-6.31,9.78-8.6,12.83l4.08,11.38-2.76,6.11v-.02Z"/><g class="uuid-4c4391de-0469-45ae-85e6-f51b95112f18"><g><path class="uuid-21d9377c-d8c1-4bc7-8f1d-7cae94ebdb6b" d="m203.75,353.87c13.03,1.96,23.07,12.29,24.59,23.19"/><path class="uuid-21d9377c-d8c1-4bc7-8f1d-7cae94ebdb6b" d="m433.43,368.91c7.68-14.03,8.19-29.68,8.19-29.68"/><path class="uuid-21d9377c-d8c1-4bc7-8f1d-7cae94ebdb6b" d="m433.43,336c-2.4,9.19-6.74,19.23-6.74,19.23"/></g></g><path class="uuid-50bdb408-0f03-46e1-b11e-5fe1cf11a933" d="m187.46,365.07c0-1.37.16-2.37.16-2.37l11.19-9.37,4.94.54,4.16-3.54-45.5-37.65s-.46-6.93-.57-13.62.57-13.95.57-13.95c19.42,20.93,67.75,51.78,95.66,65.63,27.91,13.85,60.83,24.27,75.34,27.46-5.61,2.07-6.03,4.26-16.69,7.77-10.66,3.51-22.99,2.36-42.4-1.62s-37.12-14.8-37.12-14.8l-8.86,7.52c.26,1.81.19,3.9.19,3.9l-9.7,8.9-5.45-.63,4.68-3.87s-.29-9.76-7.22-16.79c-6.93-7.03-18.28-5.3-18.28-5.3l-4.94,4.24s-.16-1.09-.16-2.46h0Zm237.71.67l8.26,3.17-.47.98c-.39.82-.01,1.79.82,2.14l8.27,3.38c.74.3,1.59,0,1.98-.7,1.53-2.8,5.2-9.98,6.98-17.6,1.78-7.62,1.86-13.58,1.82-16.23-.01-.82-.54-1.54-1.31-1.8l-7.18-2.48c-1.15-.4-2.39.35-2.56,1.56l-.16,1.08-9.17-3.8s-6.31,9.78-8.6,12.83l4.08,11.38-2.76,6.11v-.02Z"/></g><g><path class="uuid-4586ed58-3c26-4b5c-987c-00247d29fbe1" d="m439.54,321.73c-4.23,10.84-15.69,26.53-15.69,26.53,0,0,4.15,11.07,4.08,11.38-.08.31-5.02,12.18-14.88,25.28-8.25,10.96-18.86,20.87-18.86,20.87,0,0,6.17,6.74,7.85,8.76s0,5.19,0,5.19l-2.45-2.6s-7.21,3.17-15.1,10.59c-7.89,7.43-11.9,15.53-11.9,15.53l3.02,3.52s-2.64,1.22-4.36-.6c-1.72-1.82-14.76-16.58-14.76-16.58-20.33,9.71-45.4,11.43-45.4,11.43l-35.49,36.3c-28.82-3.13-35.02-23.89-35.02-23.89l17.8-18.01c-32.9-9.98-54.89-32.72-54.89-32.72,0,0,1.26-5.64,2.51-6.89s7.43-6.6,7.43-6.6c0,0,4.99.68,5.45.63.46-.05,8.89-8.04,9.45-8.7s.06-4.11.06-4.11l8.86-7.52c13.1,8.93,45.08,18.91,64.56,18.44,19.48-.47,22.89-6.37,31.45-9.84-8.21-2.19-49.99-12-96.04-38.56-48.62-28.05-72.13-51.81-77.02-57.04-.62-.67-.91-1.58-.78-2.48,1.81-12.31,5.53-24.8,5.82-25.53.3-.76,5.32-2.81,5.32-2.81,0,0-1.67,4.75-2.87,8.54,5.27,9.46,36.81,36.33,81.72,61.73,44.91,25.4,83.33,34.65,89.65,34.75,6.32.1,69.07-15.09,78.08-26.22,9.01-11.12,19.87-48.85,19.87-48.85l-1.33-8.17c4.09.98,4.6,4.25,4.6,4.25,0,0,1.31,7,1.38,20.76.08,13.77-2.08,23.23-2.08,23.23h-.04Zm-231.4,28.58l-45.72-37.62-.24-3.05s-3.03,1.99-2.91,3.49,3.35,36.61,20.8,60.97l7.57-6.56s-.33-4.15,0-4.83c.33-.67,11.19-9.37,11.19-9.37l4.94.54,4.38-3.56h-.01Z"/><g class="uuid-d0f82b25-b41c-4ccb-b99d-337e8c7b221c"><g><path class="uuid-2929258d-25b8-427e-8de3-6a1749239f1a" d="m394.18,405.78c-21.84-24.51-27.24-28.01-41.1-29.82-7.38-.96-15.42.71-19.87,2.17"/><path class="uuid-2929258d-25b8-427e-8de3-6a1749239f1a" d="m356.46,429.61c-3.81-4.15-6.3-8.87-15.27-4.75"/><line class="uuid-50bdb408-0f03-46e1-b11e-5fe1cf11a933" x1="339.01" y1="356.74" x2="340.25" y2="376.42"/><path class="uuid-2929258d-25b8-427e-8de3-6a1749239f1a" d="m359.94,377.24l-.48-7.52s36.44-7.14,51.51-15.84c1.82,5.06,8.64,21.47,8.64,21.47"/><line class="uuid-50bdb408-0f03-46e1-b11e-5fe1cf11a933" x1="423.85" y1="348.26" x2="417.09" y2="330.52"/><path class="uuid-2929258d-25b8-427e-8de3-6a1749239f1a" d="m258.34,435.45c14.39,5.09,39.67,6.61,52.72,5.6"/><path d="m258.52,435.93l-5.11,4.85s17.9,8.67,49.25,8.26l8.34-7.65-25.28-.56-12.64-1.52-7.79-1.57-6.78-1.82h.01Z"/><g><circle class="uuid-d9aa9a53-424e-4bf1-bdbc-808db4883ccb" cx="349.52" cy="364.53" r="4.42"/><circle class="uuid-d9aa9a53-424e-4bf1-bdbc-808db4883ccb" cx="412.96" cy="344.53" r="4.42"/></g><polygon points="211.4 409.54 238.5 370.41 237.19 370 228.59 377.23 228.28 381.17 218.83 389.87 212.97 389.87 205.59 396.55 203.75 403.04 211.4 409.54"/></g></g><path class="uuid-50bdb408-0f03-46e1-b11e-5fe1cf11a933" d="m439.54,321.73c-4.23,10.84-15.69,26.53-15.69,26.53,0,0,4.15,11.07,4.08,11.38-.08.31-5.02,12.18-14.88,25.28-8.25,10.96-18.86,20.87-18.86,20.87,0,0,6.17,6.74,7.85,8.76s0,5.19,0,5.19l-2.45-2.6s-7.21,3.17-15.1,10.59c-7.89,7.43-11.9,15.53-11.9,15.53l3.02,3.52s-2.64,1.22-4.36-.6c-1.72-1.82-14.76-16.58-14.76-16.58-20.33,9.71-45.4,11.43-45.4,11.43l-35.49,36.3c-28.82-3.13-35.02-23.89-35.02-23.89l17.8-18.01c-32.9-9.98-54.89-32.72-54.89-32.72,0,0,1.26-5.64,2.51-6.89s7.43-6.6,7.43-6.6c0,0,4.99.68,5.45.63.46-.05,8.89-8.04,9.45-8.7s.06-4.11.06-4.11l8.86-7.52c13.1,8.93,45.08,18.91,64.56,18.44,19.48-.47,22.89-6.37,31.45-9.84-8.21-2.19-49.99-12-96.04-38.56-48.62-28.05-72.13-51.81-77.02-57.04-.62-.67-.91-1.58-.78-2.48,1.81-12.31,5.53-24.8,5.82-25.53.3-.76,5.32-2.81,5.32-2.81,0,0-1.67,4.75-2.87,8.54,5.27,9.46,36.81,36.33,81.72,61.73,44.91,25.4,83.33,34.65,89.65,34.75,6.32.1,69.07-15.09,78.08-26.22,9.01-11.12,19.87-48.85,19.87-48.85l-1.33-8.17c4.09.98,4.6,4.25,4.6,4.25,0,0,1.31,7,1.38,20.76.08,13.77-2.08,23.23-2.08,23.23h-.04Zm-231.4,28.58l-45.72-37.62-.24-3.05s-3.03,1.99-2.91,3.49,3.35,36.61,20.8,60.97l7.57-6.56s-.33-4.15,0-4.83c.33-.67,11.19-9.37,11.19-9.37l4.94.54,4.38-3.56h-.01Z"/></g></g></g></svg>
<svg id="uuid-2c12b907-b76f-4699-b403-115b318e8c0a" data-name="BODY" xmlns="http://www.w3.org/2000/svg" viewBox="0 0 600 600"><g id="uuid-fbaff554-f4e8-4966-8dd6-93a04a55e731" data-name="notes"><path id="uuid-c4bab009-7e62-47ea-a24c-6e0e8eb4e622" data-name="note" d="m530.94,167.64c-1.6-.76-3.52-.08-4.29,1.52,0,0-15.87,35.49-21.85,48.86-2.39-1.88-5.81-3.17-9.68-3.41-7.57-.46-13.95,3.29-14.26,8.37-.31,5.08,5.58,9.57,13.15,10.03,6.58.4,12.26-2.39,13.84-6.46.18-.2.35-.42.48-.67l24.14-53.95c.76-1.6.08-3.52-1.52-4.29Z"/><path id="uuid-3ea0a4af-a12f-4b4b-b4be-488363ed619c" data-name="note" d="m399.17,83.39l-13.93-22.62c-.9-1.53-2.87-2.05-4.4-1.16-.87.51-1.4,1.36-1.54,2.29-.84,3.27-9.74,38.06-13.21,51.58-2.67-1.45-6.26-2.15-10.12-1.72-7.54.83-13.2,5.6-12.64,10.66.56,5.06,7.12,8.49,14.65,7.66,6.56-.72,11.68-4.43,12.55-8.71.14-.23.27-.47.35-.75l12.83-50.06c4.07,6.61,9.77,15.86,9.85,15.99.32.55-5.45,4.09-5.45,4.09,0,0,8.87-2.36,9.85-2.93,1.51-.88,2.03-2.8,1.19-4.32Z"/><path id="uuid-c9c4d404-b4a7-4a04-9f34-9ae196a5cd99" data-name="note" d="m494.28,83.17s0-.03,0-.04c-.35-1.74-2.05-2.87-3.79-2.51,0,0-33.19,7.52-33.44,7.57-1.54.31-2.6,1.69-2.57,3.21-.92,5-7.13,38.67-9.59,51.99-2.76-1.27-6.4-1.71-10.21-1.03-7.46,1.34-12.78,6.49-11.88,11.5.9,5.01,7.68,7.98,15.14,6.64,6.49-1.17,11.35-5.21,11.92-9.54.13-.24.24-.49.3-.77l7.63-41.31,26.58-6.06c-2.15,11.64-4.71,25.53-6.09,33-2.76-1.27-6.4-1.71-10.21-1.03-7.46,1.34-12.78,6.49-11.88,11.5.9,5.01,7.68,7.98,15.14,6.64,6.49-1.17,11.36-5.21,11.92-9.54.13-.24.24-.49.3-.77l10.73-58.12c.09-.45.08-.9,0-1.32Zm-35.22,18.82l1.48-8.01,26.56-6c-.39,2.13-.89,4.85-1.46,7.95-4.21.96-19.81,4.53-26.58,6.07Z"/></g></svg>
<svg id="uuid-e841498c-55c3-4d9f-8ace-c1b8b9efc135" data-name="BODY" xmlns="http://www.w3.org/2000/svg" viewBox="0 0 600 600"><defs><style>
      .uuid-b9812257-c906-4e93-8146-fa4aaaacb7ce {
        fill: #8400ff;
        stroke-width: 2px;
      }

      .uuid-b9812257-c906-4e93-8146-fa4aaaacb7ce, .uuid-1b55ef73-e9ab-43e6-a97f-dda887829be0, .uuid-37beb49c-51ae-451b-8188-1d8cf69c0606, .uuid-bd4034d5-ac18-4945-8cdc-addf3b014d42, .uuid-70c6d8d3-22bd-4221-8de1-c7ceb81cf552, .uuid-4fe9a34b-1521-4fbf-945b-d5e11a4b86ef {
        stroke: #000;
        stroke-linecap: round;
        stroke-linejoin: round;
      }

      .uuid-1b55ef73-e9ab-43e6-a97f-dda887829be0 {
        fill: #a07bff;
      }

      .uuid-1b55ef73-e9ab-43e6-a97f-dda887829be0, .uuid-37beb49c-51ae-451b-8188-1d8cf69c0606, .uuid-bd4034d5-ac18-4945-8cdc-addf3b014d42, .uuid-70c6d8d3-22bd-4221-8de1-c7ceb81cf552, .uuid-4fe9a34b-1521-4fbf-945b-d5e11a4b86ef {
        stroke-width: 2px;
      }

      .uuid-37beb49c-51ae-451b-8188-1d8cf69c0606 {
        fill: #fff7f0;
      }

      .uuid-bd4034d5-ac18-4945-8cdc-addf3b014d42 {
        fill: #00dfa9;
      }

      .uuid-70c6d8d3-22bd-4221-8de1-c7ceb81cf552 {
        fill: none;
      }

      .uuid-4fe9a34b-1521-4fbf-945b-d5e11a4b86ef {
        fill: #f9a723;
      }
    </style></defs><g id="uuid-1ecb4ac4-6334-47b5-bcf5-1cfa68a912d4" data-name="uuid-67924808-bed2-4315-8b0f-852c10b31275"><g id="uuid-04ec4a5d-1356-4021-b3f2-5403f0e9fd89" data-name="uuid-eb446e14-179a-4a6b-a18e-2c17af3b9963"><g id="uuid-cb74ff1f-56e4-4807-b52f-03cecfcff0b2" data-name="uuid-658b195c-6763-44f4-b07d-29a4f88b4b9a"><g><path class="uuid-1b55ef73-e9ab-43e6-a97f-dda887829be0" d="m409.54,215.79s12.39,15.95,18.63,32.53c0,0,24.42-9.99,42.68-24.98,18.25-14.98,12.03-26.59,8.33-28.59-3.69-2-9.28.11-37.24-4.43-27.96-4.54-97.38-44.73-116.58-55.71-19.2-10.97-63.36-40.32-68.29-42.92s-19.57.14-37.76-3.15c-18.2-3.28-27.77-8.89-32.97-7.66-5.2,1.23-31.88,19.98-33.38,23.26-1.5,3.28,1.92,8.07,2.05,14.09.14,6.02-26,31.06-26.95,37.22-.96,6.16,4.65,28.46,4.52,39.68s-.82,22.44.27,24.35,13.82-6.98,16.42-11.9c2.6-4.93,6.84-26,6.84-26,0,0,5.24-.4,8.49-2.84,3.25-2.44,19.12-16.02,19.12-16.02,0,0,5.24,1.48,10.41.07-9.6,16.1-23.77,24.44-25.77,28.35s.08,11.49-9.33,34.21-35.24,54.66-39.03,58.83c-3.79,4.17-15.22,10.02-15.22,10.02,0,0-4.47-1.73-7.56,1.57s5.11,12.09,15.33,15.88c10.22,3.79,26.34,8.47,79.15,0,52.81-8.47,73.12-20.66,121.32-50.45,48.2-29.79,96.53-45.43,96.53-45.43h0Z"/><path class="uuid-70c6d8d3-22bd-4221-8de1-c7ceb81cf552" d="m476.25,193.91c-27.42.16-48.94,5.22-90.08,18.3-41.15,13.08-92,48.53-130.19,68.16-38.19,19.62-78.07,20.47-108.67,23.42-30.6,2.95-39.49-7-42.53-9.57"/><path class="uuid-70c6d8d3-22bd-4221-8de1-c7ceb81cf552" d="m409.54,215.79c12.75-4.54,37.46-9.17,50.36-10.74s13.78,1.38,13.78,1.38"/><path class="uuid-70c6d8d3-22bd-4221-8de1-c7ceb81cf552" d="m417.24,226.97s11.09-4.86,17.57-9.12"/><path class="uuid-70c6d8d3-22bd-4221-8de1-c7ceb81cf552" d="m423.18,237.38s22.45-11.98,32.12-19.52"/><path class="uuid-70c6d8d3-22bd-4221-8de1-c7ceb81cf552" d="m441.94,190.32c-19.94-2.24-44.22-5.82-44.22-5.82"/><path class="uuid-70c6d8d3-22bd-4221-8de1-c7ceb81cf552" d="m194.12,162.8c6.23-10.79,11.54-28.79,12.15-33.73.62-4.93-3.82-7.4-7.03-6.66"/><path class="uuid-70c6d8d3-22bd-4221-8de1-c7ceb81cf552" d="m183.71,162.73c-5.1-.9-12.17-9.24-12.49-11.94-.32-2.7,3.49-18.58,1.75-33.43"/><path class="uuid-70c6d8d3-22bd-4221-8de1-c7ceb81cf552" d="m154.65,115.07c2.03,11.59.72,26.83,0,33.89-.72,7.05-.14,8.92.54,9.89s6.68,2.49,7.81,3.96"/><path class="uuid-70c6d8d3-22bd-4221-8de1-c7ceb81cf552" d="m156.1,181.59c-3.65.58-5.8-.12-8.04-1.11-2.38-1.05-3.95-12.36-5.27-17.19"/><path class="uuid-70c6d8d3-22bd-4221-8de1-c7ceb81cf552" d="m335.73,140.54c1.67-2.59,2.1-4.28.41-5.76"/><path class="uuid-70c6d8d3-22bd-4221-8de1-c7ceb81cf552" d="m164.81,208.67c-2.09-.11-3.91-1.33-3.36-2.76"/><path class="uuid-bd4034d5-ac18-4945-8cdc-addf3b014d42" d="m355.57,140.81c-12.38-1.56-10.37-8.7-15.39-10.71-5.27-2.11-14.82,4.51-14.82,4.51l10.37,5.92s-15.02,24.19-49.37,43.02c-34.35,18.83-68.31,23.41-88.29,24.55-19.97,1.15-33.26.56-33.26.56,0,0,1.36-5.56,1.7-7.77,0,0-7.97,1.77-9.4,3.29-1.42,1.51.53,9.7-2.05,14.33-2.58,4.63-8.37,7.92-8.9,10.24-.53,2.31.01,8.1,18.95,10.06,18.94,1.96,75.9-.02,118.72-16.4,42.82-16.38,71.7-49.44,80.57-68.92,3.03-6.65,3.53-11.13-8.84-12.69h0Zm-134.06,84.05c-2.01,0-3.64-1.63-3.64-3.64s1.63-3.64,3.64-3.64,3.64,1.63,3.64,3.64-1.63,3.64-3.64,3.64Zm38.94-9.23c-.94,1.78-3.14,2.46-4.92,1.53s-2.46-3.14-1.53-4.92c.94-1.78,3.14-2.46,4.92-1.53,1.78.94,2.46,3.14,1.53,4.92Zm30.7-11.73c-.94,1.78-3.14,2.46-4.92,1.53s-2.46-3.14-1.53-4.92,3.14-2.46,4.92-1.53c1.78.94,2.46,3.14,1.53,4.92h0Zm52.2-41.38c-.94,1.78-3.14,2.46-4.92,1.53-1.78-.94-2.46-3.14-1.53-4.92.94-1.78,3.14-2.46,4.92-1.53s2.46,3.14,1.53,4.92h0Z"/><g><path class="uuid-4fe9a34b-1521-4fbf-945b-d5e11a4b86ef" d="m304.33,172.12c2.44-1.85,8.58,3.13,14.24,10.26,5.66,7.12,10.29,13.79,8.11,15.49s-19.37,15.02-33.85,20.78c0,0,3.77,4.16,7.88,4.6s29.93-17.25,33.14-21.04c3.22-3.79,4.08-11.35-8.75-25.59s-17.33-17.24-24.57-11.52c-7.24,5.72-18.76,12.69-22.07,14.56s-6.24,4.25-4.06,9.85c0,0,16.89-7.52,29.91-17.39h0Z"/><path class="uuid-4fe9a34b-1521-4fbf-945b-d5e11a4b86ef" d="m309.11,184.56c4.54-4.18,11.26-8.6,14.39-10.46,3.13-1.86,6.86,1.78,4.18,4.68-2.68,2.91-9.72,8.38-14.12,11.09-4.39,2.71-8.55-1.54-4.45-5.31h0Z"/></g><g><path class="uuid-37beb49c-51ae-451b-8188-1d8cf69c0606" d="m179.59,222.95c6.18-19.83-.94-36.05-.94-36.05,0,0,3.89-5.23,7.77-8.31.94,2.41,1.8,8.04,3.78,6.97s.78-9.51,1.18-9.51,13-4.56,22.51,10.99c-7.1,13-10.72,23.73-13,35.92-2.28,12.19-1.61,42.47-1.61,43.81s-4.53,9.38-22.1,8.17-19.71-18.36-18.24-20.9c1.47-2.55,12.86-6.15,20.64-31.08h0Z"/><path class="uuid-70c6d8d3-22bd-4221-8de1-c7ceb81cf552" d="m195.25,271.53c3.2-4.63.78-14.34-13.42-15.92s-15.24,1.69-14.35,5.16c.89,3.46,6.15,9.04,16.03,8.51l1.54-13.13"/><path class="uuid-70c6d8d3-22bd-4221-8de1-c7ceb81cf552" d="m199.19,256.53c-2.65-7.01-33.34-9.01-40.24-2.5"/><line class="uuid-70c6d8d3-22bd-4221-8de1-c7ceb81cf552" x1="201.26" y1="176.21" x2="199.31" y2="183.29"/></g><path class="uuid-bd4034d5-ac18-4945-8cdc-addf3b014d42" d="m204.37,217.21c-8.43,1.09-22.28.97-26.51.9-.75-.01-1.41.48-1.62,1.19l-2,6.87c-.29,1.01.41,2.04,1.46,2.12,4.58.36,16.32.98,28.74-.77.78-.11,1.38-.77,1.42-1.56l.37-7.03c.05-1.03-.83-1.87-1.86-1.73h0Z"/><g><ellipse class="uuid-b9812257-c906-4e93-8146-fa4aaaacb7ce" cx="246.93" cy="133.96" rx="6.31" ry="7.02" transform="translate(-25.95 200.71) rotate(-42.22)"/><ellipse class="uuid-b9812257-c906-4e93-8146-fa4aaaacb7ce" cx="265.69" cy="116.94" rx="6.31" ry="7.02" transform="translate(-9.65 208.9) rotate(-42.22)"/><ellipse class="uuid-b9812257-c906-4e93-8146-fa4aaaacb7ce" cx="270.5" cy="141.09" rx="6.31" ry="7.02" transform="translate(-24.63 218.4) rotate(-42.22)"/></g></g></g></g></g></svg>
</svg>