<?xml version="1.0" encoding="UTF-8"?>
<svg xmlns="http://www.w3.org/2000/svg" viewBox="0 0 600 600">
<svg id="uuid-bc87ee82-23c3-4279-b438-811e43660712" data-name="BACKGROUND" xmlns="http://www.w3.org/2000/svg" viewBox="0 0 600 600"><defs><style>
      .uuid-52f0bbd2-4e52-45a8-8be3-bbbf1043e893 {
        fill: #a07bff;
      }
    </style></defs><rect class="uuid-52f0bbd2-4e52-45a8-8be3-bbbf1043e893" x="-1" y="-1" width="602" height="602"/></svg>
<svg id="uuid-a31a6b4f-e655-4c0b-9290-a675a01244c8" data-name="BODY" xmlns="http://www.w3.org/2000/svg" viewBox="0 0 600 600"><defs><style>
      .uuid-02feae16-15ad-446f-b155-475dfe7ead0f {
        fill: #fff;
      }

      .uuid-8e8e02c1-3774-4aaf-92fb-f3ff81fe8f6d, .uuid-51f9bb77-a202-4295-8587-9b7fab6500b3, .uuid-862d3442-dd45-4bf0-ad6b-177f0e2ee560, .uuid-55d8d9bd-f0f4-492f-ac99-834eda67cd9d, .uuid-3065f46c-b1cc-4fe6-9bdc-7fd254c39b59 {
        stroke: #000;
        stroke-width: 2px;
      }

      .uuid-8e8e02c1-3774-4aaf-92fb-f3ff81fe8f6d, .uuid-862d3442-dd45-4bf0-ad6b-177f0e2ee560, .uuid-55d8d9bd-f0f4-492f-ac99-834eda67cd9d, .uuid-3065f46c-b1cc-4fe6-9bdc-7fd254c39b59 {
        fill: #f9a723;
      }

      .uuid-8e8e02c1-3774-4aaf-92fb-f3ff81fe8f6d, .uuid-55d8d9bd-f0f4-492f-ac99-834eda67cd9d {
        stroke-miterlimit: 10;
      }

      .uuid-51f9bb77-a202-4295-8587-9b7fab6500b3 {
        fill: none;
      }

      .uuid-51f9bb77-a202-4295-8587-9b7fab6500b3, .uuid-862d3442-dd45-4bf0-ad6b-177f0e2ee560, .uuid-55d8d9bd-f0f4-492f-ac99-834eda67cd9d {
        stroke-linecap: round;
      }

      .uuid-51f9bb77-a202-4295-8587-9b7fab6500b3, .uuid-862d3442-dd45-4bf0-ad6b-177f0e2ee560, .uuid-3065f46c-b1cc-4fe6-9bdc-7fd254c39b59 {
        stroke-linejoin: round;
      }
    </style></defs><ellipse cx="300" cy="518.65" rx="138.6" ry="22.93"/><g><path class="uuid-8e8e02c1-3774-4aaf-92fb-f3ff81fe8f6d" d="m319.36,427.14c-1.16,1.05-54.95,57-54.95,57,0,0,21.51-1.95,31.74,10.62,10.23,12.57,7.26,23.89,7.26,23.89h-66.9s-28.69-36.17-28.69-36.17c0,0,3.74-13.4,20.44-10.59,20.9-19.38,55.52-59.13,55.52-59.13l35.59,14.38Z"/><path d="m283.78,412.76l31.28,12.64-3.24,9.5c-2.93,3.03-9.76,10.12-13.64,14.14-11.92,0-27.98-2.13-41.33-6.37,13.95-15.1,26.93-29.92,26.93-29.92Z"/></g><g><path class="uuid-862d3442-dd45-4bf0-ad6b-177f0e2ee560" d="m409.81,359.6c9.2,3.77,29.89,12.05,42.79,16.03,2.11.65,4.41.69,6.5-.04,11.79-4.08,28.47-11.39,33.03-11.32,5.25.08,7.8,3.93,19.88,2.04,13.36-2.1,22.43-11.99,20.93-23.3-4.21-43.28-25.18-26.79-25.18-26.79,0,0-5.84-8.75-18.76-4.82-11.83,3.6-10.2,14.44-6.47,22.47l-25.29,8.58c-2.14.72-4.45.71-6.59-.02l-35.7-12.61"/><path class="uuid-55d8d9bd-f0f4-492f-ac99-834eda67cd9d" d="m533.36,312.82c2.5,3.94,1.62,9.14-1.57,12.4-2.47,2.53-5.88,3.88-9.32,4.4-2.8.43-5.7.42-8.49-.08-2.14-.39-4.29-1.1-5.79-2.75-1.66-1.83-2.27-4.46-1.98-6.87.51-4.17,3.84-7.14,7.22-9.26,3.17-1.98,6.86-3.26,10.64-3.09,3.8.18,7.36,2.19,9.3,5.24Z"/><path class="uuid-55d8d9bd-f0f4-492f-ac99-834eda67cd9d" d="m538.57,349.84c.97,3.03.32,6.43-1.5,9.01-3.77,5.33-11.17,5.65-16.96,4.27-3.31-.79-6.69-2.21-8.67-5.13-3.13-4.61-.82-9.79,3.48-12.56,2.58-1.66,5.61-2.67,8.63-3.14,5.73-.89,13.1,1.51,15.03,7.56Z"/><path class="uuid-55d8d9bd-f0f4-492f-ac99-834eda67cd9d" d="m538.71,328.53c1.8,2.99,2.06,6.89.22,9.9-1.95,3.2-4.94,5.25-8.49,6.28-3.66,1.07-7.64,1.27-11.4.44-2.25-.5-4.53-1.38-5.96-3.28-1.86-2.47-1.89-5.68-.85-8.49,1.2-3.24,4.17-5.69,7.09-7.37,6.15-3.56,15.21-4.43,19.39,2.52Z"/><path class="uuid-55d8d9bd-f0f4-492f-ac99-834eda67cd9d" d="m501.85,311.68s9.27,3.84,7.77,12.02c-1.04,5.68-8.17,9.55-14.94,6.13"/><path class="uuid-51f9bb77-a202-4295-8587-9b7fab6500b3" d="m500.67,331.08c2.41,1.63,5.11,8.04,3.4,14.42"/><path d="m443.44,339.88c-2.88,10.58-6.94,20.23-11.17,28.59-10.17-3.78-21.16-9.53-27-11.93l11.83-26.02,26.35,9.36Z"/></g><g><circle class="uuid-8e8e02c1-3774-4aaf-92fb-f3ff81fe8f6d" cx="300" cy="300" r="138.16"/><path class="uuid-02feae16-15ad-446f-b155-475dfe7ead0f" d="m184.58,308.17c-4.41,0-7.98-3.57-7.98-7.98,0-67.74,55.11-122.86,122.86-122.86,4.41,0,7.98,3.57,7.98,7.98s-3.57,7.98-7.98,7.98c-58.94,0-106.9,47.95-106.9,106.9,0,4.41-3.57,7.98-7.98,7.98Z"/></g><path class="uuid-51f9bb77-a202-4295-8587-9b7fab6500b3" d="m264.41,484.14c-4.06.49-11.49,1.36-17.85,7.23"/><path class="uuid-02feae16-15ad-446f-b155-475dfe7ead0f" d="m185.17,308.14c-4.41,0-7.98-3.57-7.98-7.98,0-67.74,55.11-122.86,122.86-122.86,4.41,0,7.98,3.57,7.98,7.98s-3.57,7.98-7.98,7.98c-58.94,0-106.9,47.95-106.9,106.9,0,4.41-3.57,7.98-7.98,7.98Z"/><path d="m203.75,397.46l34.2-27.46-24.86,36.3c-6.73-5.1-3.66-2.61-9.34-8.83Z"/><path class="uuid-3065f46c-b1cc-4fe6-9bdc-7fd254c39b59" d="m323.72,387.31c19.14-13.4,39.15-11.3,55.52,7.36,19.6,22.35,30.57,33.06,30.57,33.06,0,0,10.74-19.34,34.77-17.5,18.26,1.4,24.84,14.43,24.84,14.43,0,0,6.21,8.82-22.45,33.5-28.66,24.68-54.93,40.92-61.14,29.46-6.21-11.46-2.82-32.1-2.82-32.1,0,0-22.02-26.09-27.94-32.01-6.79-6.79-15.71-1.36-15.71-1.36"/><path class="uuid-8e8e02c1-3774-4aaf-92fb-f3ff81fe8f6d" d="m446.97,458.17c-25.89,22.29-49.82,37.69-58.79,32.02-9.77-7.44,26.84-38.54,44.88-52.7,18.04-14.16,32.17-17.82,36.36-12.81,0,0,6.21,8.82-22.45,33.5Z"/><path class="uuid-51f9bb77-a202-4295-8587-9b7fab6500b3" d="m409.81,427.74c-1.89,2.86-4.55,10.38-4.55,10.38"/><g><path class="uuid-862d3442-dd45-4bf0-ad6b-177f0e2ee560" d="m214.11,345.7c-8.05,5.83-25.34,20.79-35.52,29.67-1.67,1.45-2.82,3.41-3.39,5.55-3.14,11.67-8.55,33.44-8.55,33.44,0,0-8.42.58-12.19,14.35-3.64,13.3-6.64,25.06,3.77,29.75.35,7.47,7.51,15.45,19.2,9.41.14-.06,1.32,1.32,1.44,1.45,2.64,2.7,6.36,4.45,10.13,4.81,3.65.36,7.61-.67,10.43-3.08,3.29-2.81,5.4-6.94,6.05-11.2.4-2.61.26-5.31-.75-7.78,0,0,6.2-2.51,8.05-11.34,1.99-9.49-4.22-19.42-14.62-18.18l6.17-23.11c.51-2.2,1.74-4.16,3.49-5.59l29.38-24.3"/><path class="uuid-51f9bb77-a202-4295-8587-9b7fab6500b3" d="m204.73,452.06c-1.37-3.47-5.39-7.08-9-6.88"/><path class="uuid-51f9bb77-a202-4295-8587-9b7fab6500b3" d="m178.86,469.3c-5.16-5.27-3.82-11.97-2.9-13.54"/><path class="uuid-51f9bb77-a202-4295-8587-9b7fab6500b3" d="m158.22,458.45c-.27-5.22.73-7.32,3.06-9.83"/><path class="uuid-51f9bb77-a202-4295-8587-9b7fab6500b3" d="m193.93,450.63c.14-2.07.48-4.16,1.32-6.06.85-1.95,2.36-3.88,4.31-4.85"/></g></svg>
<svg id="uuid-1cc09208-f3e2-41e0-bf45-a113ad3f9612" data-name="BODY" xmlns="http://www.w3.org/2000/svg" viewBox="0 0 600 600"><defs><style>
      .uuid-b1fb9c84-9278-4c3a-8295-76e21ab76bac {
        fill: none;
        stroke: #000;
        stroke-linecap: round;
        stroke-miterlimit: 10;
        stroke-width: 4px;
      }
    </style></defs><circle cx="369.54" cy="262.94" r="9.78" transform="translate(-8.58 12.49) rotate(-1.91)"/><path class="uuid-b1fb9c84-9278-4c3a-8295-76e21ab76bac" d="m352.87,296.37c1.76,5.11,7.33,7.82,12.44,6.06,5.11-1.76,7.82-7.33,6.06-12.44"/><circle cx="337.63" cy="273.96" r="9.78" transform="translate(-8.96 11.43) rotate(-1.91)"/></svg>
<svg id="uuid-48efa21b-da1b-48ad-ab10-757c6777e8ef" data-name="BODY" xmlns="http://www.w3.org/2000/svg" viewBox="0 0 600 600"><defs><style>
      .uuid-53318c0c-3185-4fc0-b44c-db50501b4f8c {
        fill: #353434;
      }

      .uuid-53318c0c-3185-4fc0-b44c-db50501b4f8c, .uuid-af5c2333-9a04-42a4-b63f-5e80c7076528 {
        stroke: #000;
        stroke-linecap: round;
        stroke-linejoin: round;
        stroke-width: 2px;
      }

      .uuid-af5c2333-9a04-42a4-b63f-5e80c7076528 {
        fill: none;
      }
    </style></defs><g id="uuid-a23e8dd5-6c2c-4ede-a31c-dd7f3bcbc81d" data-name="uuid-30adedbd-0f6a-4ac3-8c27-dd5f684aaeb2"><g id="uuid-f568b372-0f34-440f-b75f-61e9f492b6fc" data-name="uuid-71f2d591-11c5-485d-aa3d-ec098306b10e"><g id="uuid-93dfd512-6b6b-4507-9c48-5a4c5c4594db" data-name="uuid-7d0b675e-dad4-483d-8c78-f8eeafc30cf0"><g><path class="uuid-53318c0c-3185-4fc0-b44c-db50501b4f8c" d="m366.81,441.74l13.69,14.71s-3.55,18.09,3.13,29.5c0,0,11.14-19.1,33.82-39.23,22.69-20.13,35.95-26.59,49.92-28.7,0,0-11.16-13.78-31.73-11.1-15.93,2.07-25.36,13.77-25.36,13.77l-9.14-9.95s-8.87-.73-20.67,10.86c-11.8,11.59-13.66,20.15-13.66,20.15Z"/><g><path class="uuid-af5c2333-9a04-42a4-b63f-5e80c7076528" d="m410.28,420.68c-4.81,5.68-7.77,15.82-7.77,22.65"/><line class="uuid-af5c2333-9a04-42a4-b63f-5e80c7076528" x1="402.98" y1="438.12" x2="384.42" y2="418.05"/><path class="uuid-af5c2333-9a04-42a4-b63f-5e80c7076528" d="m380.5,456.44c13.49-5.15,21.72,5.29,21.72,5.29"/><path class="uuid-af5c2333-9a04-42a4-b63f-5e80c7076528" d="m441.3,406.56c-10.56,5.07-15.89,19.93-9.79,28.48"/></g><path class="uuid-53318c0c-3185-4fc0-b44c-db50501b4f8c" d="m467.37,414.89s-18.89-1.47-51.52,29.37c-32.63,30.84-34.96,41.03-34.88,41.68s7.89,10.49,9.27,11.71c1.38,1.22,8.79-1.06,8.79-1.06,0,0,.29-2.62,1.64-3.29,2.55-1.27,5.1,1.1,5.1,1.1,0,0,5.1-1.68,7.65-3.88-1.56-1.62.98-5.73,4.58-3.13,3.42-2.09,5.33-4.17,5.33-4.17l-4.13-3.53s26.72-12.4,31.82-15.18l-2.55-1.91s.29-4.63,5.68-4.46l2.72,1.97s3.65-3.07,6.2-6.14l-2.03-1.74s-.58-4.46,4.17-4.29l2.17,1.27s2.81-3.75,4.78-7.52l-2.17-1.69s-.44-5.21,4.89-3.42c0,0,3.56-7.12,2.12-10.48s-7.52-11.3-9.62-11.22h0Z"/><g><path class="uuid-af5c2333-9a04-42a4-b63f-5e80c7076528" d="m419.2,479.69l-16.68-13.48,27.05-17.71s-3.43-3.03,0-5.41c3.13-2.17,5.83.96,5.83.96l8.25-5.36s-4.15-3.09-1.01-4.86c2.55-1.44,6.58,1.62,6.58,1.62,0,0,5.46-3.59,7.64-4.55,0,0-3.59-3.44.25-4.91,2.89-1.1,5.87,1.77,5.87,1.77,0,0,5.31-2.99,9.16-2.58,3.85.4,5.58,2.5,5.03,4.77"/><line class="uuid-af5c2333-9a04-42a4-b63f-5e80c7076528" x1="429.57" y1="448.51" x2="448.46" y2="462.6"/><line class="uuid-af5c2333-9a04-42a4-b63f-5e80c7076528" x1="435.39" y1="444.06" x2="454.14" y2="458.14"/><line class="uuid-af5c2333-9a04-42a4-b63f-5e80c7076528" x1="443.64" y1="438.69" x2="461.03" y2="452.23"/><line class="uuid-af5c2333-9a04-42a4-b63f-5e80c7076528" x1="449.21" y1="435.46" x2="465.2" y2="447.95"/><line class="uuid-af5c2333-9a04-42a4-b63f-5e80c7076528" x1="456.85" y1="430.9" x2="469.99" y2="440.01"/><line class="uuid-af5c2333-9a04-42a4-b63f-5e80c7076528" x1="462.97" y1="427.76" x2="474.88" y2="436.59"/><path class="uuid-af5c2333-9a04-42a4-b63f-5e80c7076528" d="m447.97,462.23c-5.19,2.81-31.71,15.09-31.71,15.09"/><path class="uuid-af5c2333-9a04-42a4-b63f-5e80c7076528" d="m432.58,450.76s-18.96,12.82-27.55,17.49"/><path class="uuid-af5c2333-9a04-42a4-b63f-5e80c7076528" d="m406.41,469.37s-3.67,3.73-4.49,5.1c0,0-2.9-2.71-5.06-.27-2.04,2.3.13,4.65,1.34,5.5,0,0-2.61,3.68-3.69,5.74,0,0-3.14-3.05-4.61,0-.66,1.37-.34,3.54,1.47,4.76,0,0-1.57,8.03.54,7.82"/><line class="uuid-af5c2333-9a04-42a4-b63f-5e80c7076528" x1="401.92" y1="474.46" x2="417.99" y2="487.39"/><line class="uuid-af5c2333-9a04-42a4-b63f-5e80c7076528" x1="413.42" y1="490.52" x2="398.19" y2="479.69"/><line class="uuid-af5c2333-9a04-42a4-b63f-5e80c7076528" x1="394.5" y1="485.43" x2="405.77" y2="494.4"/><line class="uuid-af5c2333-9a04-42a4-b63f-5e80c7076528" x1="391.36" y1="490.19" x2="399.03" y2="496.59"/></g><g><path class="uuid-53318c0c-3185-4fc0-b44c-db50501b4f8c" d="m226.55,468.47l16.86-19.42s2.99-.9,6.5,1.06l-2.62,2.76s3.26,6.32,10.81,12.65c7.55,6.33,14.76,9.84,14.76,9.84l3.6-3.75s2.37,5.96,2.31,6.55-4.35,2.98-4.35,2.98c0,0,13.06.74,21.81,9.35,8.9,8.75,9.03,21.38,9.03,21.38,0,0-63.87,1.76-66.89,1.56s-30.15-36.89-30.15-36.89c0,0,5.39-9.16,18.32-8.1Z"/><g><path class="uuid-af5c2333-9a04-42a4-b63f-5e80c7076528" d="m274.42,481.15c-9.61-1.12-21.84,1.23-29.03,7.31"/><line class="uuid-af5c2333-9a04-42a4-b63f-5e80c7076528" x1="252.64" y1="484.14" x2="265.82" y2="471.24"/><path class="uuid-af5c2333-9a04-42a4-b63f-5e80c7076528" d="m220.98,493.39c10.86-8.6,5.57-24.93,5.57-24.93"/><path class="uuid-af5c2333-9a04-42a4-b63f-5e80c7076528" d="m293.43,488.1c-17.87-1.3-22.02,11.44-22.09,24.68"/></g><path class="uuid-53318c0c-3185-4fc0-b44c-db50501b4f8c" d="m305.49,509.34l-62.55,1.43c-2.5.06-4.89-1.05-6.46-3l-26.43-32.8c-.94-1.17-2.72-1.19-3.69-.05l-6.59,7.74c-.73.86-.77,2.12-.08,3.02l3.44,4.48,6.83.43-3.73,3.66,5.2,6.76,6.07.02,9.4,14.47c3.5,5.38,9.43,8.68,15.85,8.81l17.81.36s0-3.59,4.22-3.59,4.01,3.94,4.01,3.94h6.92s.44-4.12,4.68-4.12,3.48,4.12,3.48,4.12h7.95s-.11-3.9,4.14-3.9,3.65,3.9,3.65,3.9h6.78c1.57,0,2.81-1.34,2.68-2.9l-.82-10.3c-.11-1.42-1.32-2.51-2.74-2.48h0Z"/><path class="uuid-af5c2333-9a04-42a4-b63f-5e80c7076528" d="m217.49,501.03c-1.41-2.31-2.24-4.46-6.07-.02"/><path class="uuid-af5c2333-9a04-42a4-b63f-5e80c7076528" d="m209.96,490.59c.62-.58-1.71-4.07-3.15-3.24-1.44.83-3.67,2.8-3.67,2.8"/></g></g></g></g></g></svg>
<svg id="uuid-39dff219-9e19-48c2-9e34-cadd47e3fa29" data-name="BODY" xmlns="http://www.w3.org/2000/svg" viewBox="0 0 600 600"><defs><style>
      .uuid-8ea0a070-6485-4467-a882-6a678192df94 {
        fill: #7aa6ff;
      }

      .uuid-8ea0a070-6485-4467-a882-6a678192df94, .uuid-2d9e3db4-341e-407d-8af0-075f449215a0, .uuid-cd755845-3013-4a0d-82f9-783fcd3dda15 {
        stroke: #000;
        stroke-linecap: round;
        stroke-linejoin: round;
        stroke-width: 2px;
      }

      .uuid-2d9e3db4-341e-407d-8af0-075f449215a0 {
        fill: #fff7f0;
      }

      .uuid-cd755845-3013-4a0d-82f9-783fcd3dda15 {
        fill: none;
      }
    </style></defs><g id="uuid-0bddc305-27d8-4ea5-862d-046e5ab4ffae" data-name="uuid-e2fbca77-8e7a-49a9-ad56-906492ae40c9"><g id="uuid-a4e09157-4eb3-4d2b-b6da-ed8f9f5e45a4" data-name="uuid-e52b1ae6-7e41-417a-a53a-e6c5d75aeb92"><g><path class="uuid-8ea0a070-6485-4467-a882-6a678192df94" d="m171.75,394.13s-4.65.45-5.76.95c-1.11.51-3.78,11.83-3.93,12.49s6.85,9.32,36.81,12.35c5.87.59,6.42-.22,6.86-2.04.44-1.82,2.36-8.9,2.53-9.64s-4.96-4.93-4.96-4.93l-1.19,4.44s-10.85-.49-19.61-3.38c-8.76-2.9-12.13-4.84-12.13-4.84l1.38-5.4Z"/><line class="uuid-cd755845-3013-4a0d-82f9-783fcd3dda15" x1="193.91" y1="411.28" x2="192.95" y2="415.08"/><line class="uuid-cd755845-3013-4a0d-82f9-783fcd3dda15" x1="200.36" y1="412.14" x2="199.39" y2="415.94"/><circle class="uuid-2d9e3db4-341e-407d-8af0-075f449215a0" cx="178.56" cy="408.85" r="12.13"/><circle class="uuid-8ea0a070-6485-4467-a882-6a678192df94" cx="178.56" cy="408.85" r="6.23"/></g></g></g></svg>
<svg id="uuid-4f9c58ac-8fff-4862-9c52-f3e315adf08b" data-name="BODY" xmlns="http://www.w3.org/2000/svg" xmlns:xlink="http://www.w3.org/1999/xlink" viewBox="0 0 600 600"><defs><style>
      .uuid-fe807ae8-6d4c-4eb2-9250-b043792de360, .uuid-84bd41ec-755d-4570-bc7d-90640366e08e, .uuid-e86cd3fb-3bee-48a4-9442-0ed97831e34e {
        fill: none;
      }

      .uuid-da94aee9-5a9d-4f5d-9b29-9cde32a1175c, .uuid-afc4803e-77b0-4ecb-b056-33f2566dc0fd {
        fill: #ff78d8;
      }

      .uuid-9e1d4ef1-4fc7-4608-809b-a39c3676a322 {
        fill: #a07bff;
      }

      .uuid-9e1d4ef1-4fc7-4608-809b-a39c3676a322, .uuid-afc4803e-77b0-4ecb-b056-33f2566dc0fd, .uuid-e86cd3fb-3bee-48a4-9442-0ed97831e34e, .uuid-5b11b8c4-4aba-4d0e-97e1-bcb90f636dca {
        stroke: #000;
        stroke-linecap: round;
        stroke-linejoin: round;
        stroke-width: 2px;
      }

      .uuid-84bd41ec-755d-4570-bc7d-90640366e08e {
        clip-path: url(#uuid-908aa4b2-9986-4a9e-8169-3f477676d06c);
      }

      .uuid-5b11b8c4-4aba-4d0e-97e1-bcb90f636dca {
        fill: #f9a723;
      }
    </style><clipPath id="uuid-908aa4b2-9986-4a9e-8169-3f477676d06c"><path class="uuid-fe807ae8-6d4c-4eb2-9250-b043792de360" d="m470.37,263.4c.26.09,13.38,2.76,25.8-5.87,11.13,5.18,27.7,3.16,27.7,3.16,0,0,7.59,12.46,22.69,13.58,4.14,19.42,22.61,26.84,22.61,26.84,0,0-5.52,18.47,8.28,26.58-6.13,14.58,0,28.39,0,28.39,0,0-13.29,9.49-11.3,25.72-11.91.95-17.43,20.71-17.43,20.71l-42.02-54.71s3.66-4.86,2.16-10.1c-1.51-5.24-5.84-7.05-5.84-7.05,0,0,6.9-2.2,6.76-8.63s-7.36-13.75-19.44-11.06l-19.96-47.56h0Z"/></clipPath></defs><g id="uuid-cde481be-4b99-44d5-8b74-25417a789ef0" data-name="uuid-ac3cc490-8b26-46d1-bbbf-b285b8fc2132"><g id="uuid-0dd40599-6585-490b-8145-5052ad5056be" data-name="uuid-d903f005-6b44-47ef-b972-97b0f19dbeba"><g id="uuid-3290c729-ecd5-4a2b-afcc-a27cbc2a6411" data-name="uuid-5c0abff7-8440-4649-be7a-ff1b81cfa8e1"><g><g><path class="uuid-da94aee9-5a9d-4f5d-9b29-9cde32a1175c" d="m470.37,263.4c.26.09,13.38,2.76,25.8-5.87,11.13,5.18,27.7,3.16,27.7,3.16,0,0,7.59,12.46,22.69,13.58,4.14,19.42,22.61,26.84,22.61,26.84,0,0-5.52,18.47,8.28,26.58-6.13,14.58,0,28.39,0,28.39,0,0-13.29,9.49-11.3,25.72-11.91.95-17.43,20.71-17.43,20.71l-42.02-54.71s3.66-4.86,2.16-10.1c-1.51-5.24-5.84-7.05-5.84-7.05,0,0,6.9-2.2,6.76-8.63s-7.36-13.75-19.44-11.06l-19.96-47.56h0Z"/><g class="uuid-84bd41ec-755d-4570-bc7d-90640366e08e"><g><polygon class="uuid-9e1d4ef1-4fc7-4608-809b-a39c3676a322" points="569.18 301.11 506.13 337.1 502.22 333.48 546.57 274.28 569.18 301.11"/><polygon class="uuid-9e1d4ef1-4fc7-4608-809b-a39c3676a322" points="523.87 260.7 505.51 318.75 499.67 315.74 496.17 257.54 523.87 260.7"/><polygon class="uuid-9e1d4ef1-4fc7-4608-809b-a39c3676a322" points="577.46 327.69 506.74 338.29 506.74 342.1 577.46 356.08 577.46 327.69"/><polygon class="uuid-9e1d4ef1-4fc7-4608-809b-a39c3676a322" points="566.15 381.8 506.74 343.68 505.51 347.28 548.72 402.51 566.15 381.8"/></g></g><path class="uuid-e86cd3fb-3bee-48a4-9442-0ed97831e34e" d="m470.37,263.4c.26.09,13.38,2.76,25.8-5.87,11.13,5.18,27.7,3.16,27.7,3.16,0,0,7.59,12.46,22.69,13.58,4.14,19.42,22.61,26.84,22.61,26.84,0,0-5.52,18.47,8.28,26.58-6.13,14.58,0,28.39,0,28.39,0,0-13.29,9.49-11.3,25.72-11.91.95-17.43,20.71-17.43,20.71l-42.02-54.71s3.66-4.86,2.16-10.1c-1.51-5.24-5.84-7.05-5.84-7.05,0,0,6.9-2.2,6.76-8.63s-7.36-13.75-19.44-11.06l-19.96-47.56h0Z"/></g><g><path class="uuid-5b11b8c4-4aba-4d0e-97e1-bcb90f636dca" d="m499.19,358.31c-1.23.68-.81,10.43-.56,11.18.25.74,6.46.56,7.2,0s-.68-11.02-1.61-11.57c-.72-.43-3.91-.22-5.03.4Z"/><g><path class="uuid-afc4803e-77b0-4ecb-b056-33f2566dc0fd" d="m500.89,367.41s-.9,3.24.69,15.05c1.89,14.09,5.31,20.53-6.11,36.39,3.93,2.51,8.03,2.24,8.03,2.24l4.07-5.86s.08,4.89-.18,6.61c2.58.51,3.4-.66,3.4-.66,0,0,5.47-6.71,2.96-22.37s-7.17-15.37-10.39-31.76l-2.48.35h0Z"/><path class="uuid-afc4803e-77b0-4ecb-b056-33f2566dc0fd" d="m506.47,402.9c.65-5.32.04-10.47-1.06-15.34"/><path class="uuid-afc4803e-77b0-4ecb-b056-33f2566dc0fd" d="m499.11,420.5c2.65-3.5,4.48-6.97,5.68-10.4"/></g><path class="uuid-e86cd3fb-3bee-48a4-9442-0ed97831e34e" d="m501.63,357.74c.23-3.61-.96-6.93-.96-6.93"/></g><path class="uuid-e86cd3fb-3bee-48a4-9442-0ed97831e34e" d="m482.49,292.28c5.63-2.22,11.76-3.45,18.18-3.45,27.32,0,49.46,22.14,49.46,49.46,0,16.34-7.92,30.83-20.13,39.83"/><path class="uuid-5b11b8c4-4aba-4d0e-97e1-bcb90f636dca" d="m502.64,348.68c.18.19,42.42,58.69,42.42,58.69l5.63-4.05-43.56-57.65-4.49,3.01h0Z"/><path class="uuid-5b11b8c4-4aba-4d0e-97e1-bcb90f636dca" d="m486.22,312.51l-22.65-48.86,7.89-2.67,20.17,49.78s-2.26.32-5.41,1.75h0Z"/><g><path class="uuid-5b11b8c4-4aba-4d0e-97e1-bcb90f636dca" d="m511.55,340.68c0,5.61-4.55,10.16-10.16,10.16s-10.16-4.55-10.16-10.16c0-4.45,2.86-8.23,6.84-9.6,1.42.16,3.32.04,4.95-.43,4.84.78,8.53,4.97,8.53,10.03h0Z"/><circle class="uuid-e86cd3fb-3bee-48a4-9442-0ed97831e34e" cx="501.39" cy="340.68" r="4.12"/></g><path class="uuid-e86cd3fb-3bee-48a4-9442-0ed97831e34e" d="m547.58,292.44c-2.14,4.11-2.31,9.19-.44,13.43"/><path class="uuid-e86cd3fb-3bee-48a4-9442-0ed97831e34e" d="m539.62,294.42l-1,3.3"/><path class="uuid-e86cd3fb-3bee-48a4-9442-0ed97831e34e" d="m505.38,269.24c.08,4.78,1.77,9.52,4.73,13.27"/><path class="uuid-e86cd3fb-3bee-48a4-9442-0ed97831e34e" d="m486.17,274.47l2.24,3.9"/><path class="uuid-e86cd3fb-3bee-48a4-9442-0ed97831e34e" d="m568.3,339.57c-3.29.51-6.45,1.86-9.1,3.88"/><path class="uuid-e86cd3fb-3bee-48a4-9442-0ed97831e34e" d="m551.17,384.34c-3.35-1.41-7.17-1.66-10.68-.68"/><path class="uuid-e86cd3fb-3bee-48a4-9442-0ed97831e34e" d="m548.44,377.66c-1.59-.34-3.24-.35-4.83,0"/></g></g></g></g></svg>
<svg id="uuid-706c66c1-904f-4e6b-ae5a-7d28757b7aa5" data-name="BODY" xmlns="http://www.w3.org/2000/svg" viewBox="0 0 600 600"><defs><style>
      .uuid-e783e61a-5a56-4ab2-963f-7f791da5a080 {
        fill: #9dff0c;
      }

      .uuid-e783e61a-5a56-4ab2-963f-7f791da5a080, .uuid-b57c3a7e-405d-471e-9dd4-85222df50f42, .uuid-4fb7418d-b5b6-44db-ba8f-3c1ee6a0dc8d {
        stroke: #000;
        stroke-linecap: round;
        stroke-linejoin: round;
        stroke-width: 2px;
      }

      .uuid-b57c3a7e-405d-471e-9dd4-85222df50f42 {
        fill: #fff;
      }

      .uuid-4fb7418d-b5b6-44db-ba8f-3c1ee6a0dc8d {
        fill: #ffc9f1;
      }
    </style></defs><path class="uuid-b57c3a7e-405d-471e-9dd4-85222df50f42" d="m249.92,302.6c-2.79-7.57-11.8-24.95-11.8-24.95.17-.46-9.01,17.39-11.8,24.95-.48,1.31-1.21,3.5-1.21,5.45,0,7.18,5.82,13,13,13s13-5.82,13-13c0-1.95-.73-4.14-1.21-5.45Z"/><path class="uuid-e783e61a-5a56-4ab2-963f-7f791da5a080" d="m307.79,206.07c-14.43-.53-29.74-6.92-45.11-23-32.46-33.95-60.76-18.26-60.76-18.26,0,0,33.11-51.48,92.55-40.34-3.72-12.38-16.1-12.38-16.1-12.38,0,0,17.85-5.8,40.87,4.95,18.42,8.61,35.21,30.63,33.17,65.88"/><path class="uuid-4fb7418d-b5b6-44db-ba8f-3c1ee6a0dc8d" d="m426.99,245.51s-7.43-22.29-78.02-16.1c-110.34,9.68-169.26,60.88-181.12,90.66-1.68,4.22-2.11,8.84-1.47,13.34l.54,3.75s-5.57-5.57-9.29-19.2c-3.72-13.62-3.8-25.68-3.15-34.26,2.53-33.24,57.22-90.25,178.39-101.35,70.59-2.48,76.54,15.26,81.12,21.67,9.29,13,19.2,34.33,13,41.49Z"/><path class="uuid-b57c3a7e-405d-471e-9dd4-85222df50f42" d="m410.49,187.32c-.48,1.1.48,2.29,1.66,2.05,7.86-1.61,30.35-7.13,35.66-18.39,6.29-13.36-23.33-15.3-37.31,16.35Z"/><path class="uuid-b57c3a7e-405d-471e-9dd4-85222df50f42" d="m396.67,179.32c.95.7,2.32.23,2.62-.91,1.48-5.54,4.61-19.7-.85-23.75-6.57-4.87-16.89,13.5-1.77,24.66Z"/></svg>
</svg>