<?xml version="1.0" encoding="UTF-8"?>
<svg xmlns="http://www.w3.org/2000/svg" viewBox="0 0 600 600">
<svg id="uuid-c55b6f18-22d9-42e7-94a5-9418063ab399" data-name="BACKGROUND" xmlns="http://www.w3.org/2000/svg" viewBox="0 0 600 600"><defs><style>
      .uuid-65b83bcd-5755-41b5-8f46-23c20c164524 {
        fill: #9dff0c;
      }
    </style></defs><rect class="uuid-65b83bcd-5755-41b5-8f46-23c20c164524" x="-1" y="-1" width="602" height="602"/></svg>
<svg id="uuid-dbde9422-7524-4caa-9aef-973de947a85a" data-name="BACKGROUND" xmlns="http://www.w3.org/2000/svg" viewBox="0 0 600 600"><defs><style>
      .uuid-00b29d56-32db-44bc-b865-b505689ce7f2, .uuid-bc0c1d1d-f35d-4801-ab0a-7ed1f6579806 {
        fill: #fff;
      }

      .uuid-721045bb-6a0a-43b1-bbbb-700680bef5ac, .uuid-8bce232e-cf9f-4930-aa41-bc826f060c10, .uuid-bc0c1d1d-f35d-4801-ab0a-7ed1f6579806, .uuid-7a18d1de-3b5c-43f4-b300-729f0a8ada13, .uuid-9a9b3e9a-3b64-462c-a5b9-1ed4fe14cc54, .uuid-49737ab1-df19-44de-9973-63511c143097, .uuid-f441cade-332c-4c12-ac30-b324c1b26b62 {
        stroke: #000;
        stroke-width: 2px;
      }

      .uuid-721045bb-6a0a-43b1-bbbb-700680bef5ac, .uuid-8bce232e-cf9f-4930-aa41-bc826f060c10, .uuid-bc0c1d1d-f35d-4801-ab0a-7ed1f6579806, .uuid-49737ab1-df19-44de-9973-63511c143097 {
        stroke-miterlimit: 10;
      }

      .uuid-721045bb-6a0a-43b1-bbbb-700680bef5ac, .uuid-8bce232e-cf9f-4930-aa41-bc826f060c10, .uuid-7a18d1de-3b5c-43f4-b300-729f0a8ada13, .uuid-f441cade-332c-4c12-ac30-b324c1b26b62 {
        fill: #ffc9f1;
      }

      .uuid-8bce232e-cf9f-4930-aa41-bc826f060c10, .uuid-bc0c1d1d-f35d-4801-ab0a-7ed1f6579806, .uuid-7a18d1de-3b5c-43f4-b300-729f0a8ada13, .uuid-9a9b3e9a-3b64-462c-a5b9-1ed4fe14cc54, .uuid-49737ab1-df19-44de-9973-63511c143097 {
        stroke-linecap: round;
      }

      .uuid-7a18d1de-3b5c-43f4-b300-729f0a8ada13, .uuid-9a9b3e9a-3b64-462c-a5b9-1ed4fe14cc54, .uuid-f441cade-332c-4c12-ac30-b324c1b26b62 {
        stroke-linejoin: round;
      }

      .uuid-9a9b3e9a-3b64-462c-a5b9-1ed4fe14cc54 {
        fill: none;
      }

      .uuid-49737ab1-df19-44de-9973-63511c143097 {
        fill: #a07bff;
      }
    </style></defs><path class="uuid-7a18d1de-3b5c-43f4-b300-729f0a8ada13" d="m409.81,359.6c9.2,3.77,29.89,12.05,42.79,16.03,2.11.65,4.41.69,6.5-.04,11.79-4.08,28.47-11.39,33.03-11.32,5.25.08,7.8,3.93,19.88,2.04,13.36-2.1,22.43-11.99,20.93-23.3-4.21-43.28-25.18-26.79-25.18-26.79,0,0-5.84-8.75-18.76-4.82-11.83,3.6-10.2,14.44-6.47,22.47l-25.29,8.58c-2.14.72-4.45.71-6.59-.02l-35.7-12.61"/><path class="uuid-8bce232e-cf9f-4930-aa41-bc826f060c10" d="m533.36,312.82c2.5,3.94,1.62,9.14-1.57,12.4-2.47,2.53-5.88,3.88-9.32,4.4-2.8.43-5.7.42-8.49-.08-2.14-.39-4.29-1.1-5.79-2.75-1.66-1.83-2.27-4.46-1.98-6.87.51-4.17,3.84-7.14,7.22-9.26,3.17-1.98,6.86-3.26,10.64-3.09,3.8.18,7.36,2.19,9.3,5.24Z"/><path class="uuid-8bce232e-cf9f-4930-aa41-bc826f060c10" d="m538.57,349.84c.97,3.03.32,6.43-1.5,9.01-3.77,5.33-11.17,5.65-16.96,4.27-3.31-.79-6.69-2.21-8.67-5.13-3.13-4.61-.82-9.79,3.48-12.56,2.58-1.66,5.61-2.67,8.63-3.14,5.73-.89,13.1,1.51,15.03,7.56Z"/><path class="uuid-8bce232e-cf9f-4930-aa41-bc826f060c10" d="m538.71,328.53c1.8,2.99,2.06,6.89.22,9.9-1.95,3.2-4.94,5.25-8.49,6.28-3.66,1.07-7.64,1.27-11.4.44-2.25-.5-4.53-1.38-5.96-3.28-1.86-2.47-1.89-5.68-.85-8.49,1.2-3.24,4.17-5.69,7.09-7.37,6.15-3.56,15.21-4.43,19.39,2.52Z"/><path class="uuid-8bce232e-cf9f-4930-aa41-bc826f060c10" d="m501.85,311.68s9.27,3.84,7.77,12.02c-1.04,5.68-8.17,9.55-14.94,6.13"/><path class="uuid-9a9b3e9a-3b64-462c-a5b9-1ed4fe14cc54" d="m500.67,331.08c2.41,1.63,5.11,8.04,3.4,14.42"/><path d="m443.44,339.88c-2.88,10.58-6.94,20.23-11.17,28.59-10.17-3.78-21.16-9.53-27-11.93l11.83-26.02,26.35,9.36Z"/><ellipse cx="300" cy="518.65" rx="138.6" ry="22.93"/><path class="uuid-721045bb-6a0a-43b1-bbbb-700680bef5ac" d="m319.36,427.14c-1.16,1.05-54.95,57-54.95,57,0,0,21.51-1.95,31.74,10.62,10.23,12.57,7.26,23.89,7.26,23.89h-66.9s-28.69-36.17-28.69-36.17c0,0,3.74-13.4,20.44-10.59,20.9-19.38,55.52-59.13,55.52-59.13l35.59,14.38Z"/><path d="m283.78,412.76l31.28,12.64-3.24,9.5c-2.93,3.03-9.76,10.12-13.64,14.14-11.92,0-27.98-2.13-41.33-6.37,13.95-15.1,26.93-29.92,26.93-29.92Z"/><path class="uuid-721045bb-6a0a-43b1-bbbb-700680bef5ac" d="m354.45,173.54l-.11.27-174.2,58.29c-11.49,20.13-18.05,43.43-18.05,68.27,0,76.2,61.77,137.98,137.97,137.98s137.98-61.77,137.98-137.98c0-56.89-34.43-105.72-83.58-126.83Z"/><path class="uuid-9a9b3e9a-3b64-462c-a5b9-1ed4fe14cc54" d="m264.41,484.14c-4.06.49-11.49,1.36-17.85,7.23"/><path class="uuid-00b29d56-32db-44bc-b865-b505689ce7f2" d="m185.17,308.14c-4.41,0-7.98-3.57-7.98-7.98,0-67.74,55.11-122.86,122.86-122.86,4.41,0,7.98,3.57,7.98,7.98s-3.57,7.98-7.98,7.98c-58.94,0-106.9,47.95-106.9,106.9,0,4.41-3.57,7.98-7.98,7.98Z"/><path d="m203.75,397.46l34.2-27.46-24.86,36.3c-6.73-5.1-3.66-2.61-9.34-8.83Z"/><path class="uuid-f441cade-332c-4c12-ac30-b324c1b26b62" d="m323.72,387.31c19.14-13.4,39.15-11.3,55.52,7.36,19.6,22.35,30.57,33.06,30.57,33.06,0,0,10.74-19.34,34.77-17.5,18.26,1.4,24.84,14.43,24.84,14.43,0,0,6.21,8.82-22.45,33.5-28.66,24.68-54.93,40.92-61.14,29.46-6.21-11.46-2.82-32.1-2.82-32.1,0,0-22.02-26.09-27.94-32.01-6.79-6.79-15.71-1.36-15.71-1.36"/><path class="uuid-721045bb-6a0a-43b1-bbbb-700680bef5ac" d="m446.97,458.17c-25.89,22.29-49.82,37.69-58.79,32.02-9.77-7.44,26.84-38.54,44.88-52.7,18.04-14.16,32.17-17.82,36.36-12.81,0,0,6.21,8.82-22.45,33.5Z"/><path class="uuid-9a9b3e9a-3b64-462c-a5b9-1ed4fe14cc54" d="m409.81,427.74c-1.89,2.86-4.55,10.38-4.55,10.38"/><ellipse class="uuid-bc0c1d1d-f35d-4801-ab0a-7ed1f6579806" cx="269.41" cy="209.07" rx="94.9" ry="26.25" transform="translate(-52.5 96.54) rotate(-18.55)"/><ellipse class="uuid-49737ab1-df19-44de-9973-63511c143097" cx="269.41" cy="209.07" rx="71.19" ry="13.32" transform="translate(-52.5 96.54) rotate(-18.55)"/><g><path class="uuid-7a18d1de-3b5c-43f4-b300-729f0a8ada13" d="m214.11,345.7c-8.05,5.83-25.34,20.79-35.52,29.67-1.67,1.45-2.82,3.41-3.39,5.55-3.14,11.67-8.55,33.44-8.55,33.44,0,0-8.42.58-12.19,14.35-3.64,13.3-6.64,25.06,3.77,29.75.35,7.47,7.51,15.45,19.2,9.41.14-.06,1.32,1.32,1.44,1.45,2.64,2.7,6.36,4.45,10.13,4.81,3.65.36,7.61-.67,10.43-3.08,3.29-2.81,5.4-6.94,6.05-11.2.4-2.61.26-5.31-.75-7.78,0,0,6.2-2.51,8.05-11.34,1.99-9.49-4.22-19.42-14.62-18.18l6.17-23.11c.51-2.2,1.74-4.16,3.49-5.59l29.38-24.3"/><path class="uuid-9a9b3e9a-3b64-462c-a5b9-1ed4fe14cc54" d="m204.73,452.06c-1.37-3.47-5.39-7.08-9-6.88"/><path class="uuid-9a9b3e9a-3b64-462c-a5b9-1ed4fe14cc54" d="m178.86,469.3c-5.16-5.27-3.82-11.97-2.9-13.54"/><path class="uuid-9a9b3e9a-3b64-462c-a5b9-1ed4fe14cc54" d="m158.22,458.45c-.27-5.22.73-7.32,3.06-9.83"/><path class="uuid-9a9b3e9a-3b64-462c-a5b9-1ed4fe14cc54" d="m193.93,450.63c.14-2.07.48-4.16,1.32-6.06.85-1.95,2.36-3.88,4.31-4.85"/></g></svg>
<svg id="uuid-d68fbb24-c0f3-4dee-920e-134d781fb2e1" data-name="BODY" xmlns="http://www.w3.org/2000/svg" viewBox="0 0 600 600"><path d="m378.79,259.75c-1.76-5.11-7.33-7.82-12.44-6.06s-7.82,7.33-6.06,12.44"/><circle cx="362.12" cy="293.18" r="9.78" transform="translate(-9.59 12.26) rotate(-1.91)"/><path d="m346.88,270.76c-1.76-5.11-7.33-7.82-12.44-6.06-5.11,1.76-7.82,7.33-6.06,12.44"/></svg>
<svg id="uuid-f0a882e4-16a0-4248-ace1-5fa29a806cb8" data-name="BODY" xmlns="http://www.w3.org/2000/svg" viewBox="0 0 600 600"><defs><style>
      .uuid-4bd2eecc-eee5-423f-9e72-6b4dab133053 {
        fill: #7aa6ff;
      }

      .uuid-4bd2eecc-eee5-423f-9e72-6b4dab133053, .uuid-c393fd79-1f33-4a71-97e4-82c553e15297, .uuid-7dc4cd75-4770-45ed-859b-dba35115b8ba {
        stroke: #000;
        stroke-linecap: round;
        stroke-linejoin: round;
        stroke-width: 2px;
      }

      .uuid-c393fd79-1f33-4a71-97e4-82c553e15297 {
        fill: #a07bff;
      }

      .uuid-7dc4cd75-4770-45ed-859b-dba35115b8ba {
        fill: #ff78d8;
      }
    </style></defs><g id="uuid-db41ee9f-34a3-4ac4-a354-27cdc8cbe84f" data-name="uuid-f7e4d1a9-9831-4a9e-b704-6d650be6f748"><g id="uuid-45fb391e-3007-45e8-bf65-0ffea2e8f79f" data-name="uuid-c4ca7cd3-914c-47ad-b5ec-27bf3ee3bc40"><g id="uuid-fa216f47-1fed-4a6c-931b-a14e52321d4b" data-name="uuid-2cd58467-086a-4174-8496-c46aee886365"><g><g><path class="uuid-7dc4cd75-4770-45ed-859b-dba35115b8ba" d="m331.08,273.52c4.16,10.49,7.7,22.14,2.36,28.92-4.05,1.61-9.13,3.62-12.03,4.77-10.99,4.36-24.49-3.65-30.14-17.9-5.65-14.25-1.32-29.33,9.67-33.69l12.03-4.77c8.7,1.08,13.87,11.99,18.11,22.67h0Z"/><circle class="uuid-c393fd79-1f33-4a71-97e4-82c553e15297" cx="323.21" cy="276.64" r="27.75"/><circle class="uuid-4bd2eecc-eee5-423f-9e72-6b4dab133053" cx="323.21" cy="276.64" r="21.15"/><path class="uuid-7dc4cd75-4770-45ed-859b-dba35115b8ba" d="m324.67,270.95l-2.69-6.79-3.24-8.17c-1.12.24-2.23.55-3.33.99-1.22.49-2.37,1.09-3.44,1.76l3.22,8.11,2.69,6.79-8.29,19.18c1.9,1.59,4.06,2.82,6.38,3.66l5.72-13.24,5.61,14.14c1.25-.25,2.49-.59,3.71-1.08,1.1-.43,2.12-.97,3.1-1.56l-5.63-14.19,13.49,5.83c1.13-2.18,1.89-4.55,2.21-7l-19.51-8.43h0Z"/></g><g><path class="uuid-7dc4cd75-4770-45ed-859b-dba35115b8ba" d="m399.55,246.36c4.16,10.49,7.7,22.14,2.36,28.92l-12.03,4.77c-10.99,4.36-24.49-3.65-30.14-17.9s-1.32-29.33,9.67-33.69l12.03-4.77c8.7,1.08,13.87,11.99,18.11,22.67h0Z"/><circle class="uuid-c393fd79-1f33-4a71-97e4-82c553e15297" cx="391.67" cy="249.48" r="27.75"/><circle class="uuid-4bd2eecc-eee5-423f-9e72-6b4dab133053" cx="391.67" cy="249.48" r="21.15"/><path class="uuid-7dc4cd75-4770-45ed-859b-dba35115b8ba" d="m393.13,243.79l-2.69-6.79-3.24-8.17c-1.12.24-2.23.55-3.33.99-1.22.49-2.37,1.09-3.44,1.76l3.22,8.11,2.69,6.79-8.29,19.18c1.9,1.59,4.06,2.82,6.38,3.66l5.72-13.24,5.61,14.14c1.25-.25,2.49-.59,3.71-1.08,1.1-.43,2.12-.97,3.1-1.56l-5.63-14.19,13.49,5.83c1.13-2.18,1.89-4.55,2.21-7l-19.51-8.43h0Z"/></g><path class="uuid-7dc4cd75-4770-45ed-859b-dba35115b8ba" d="m364.5,264.38s-3.8.35-8.78,2.33c-2.38.94-4.32,1.98-5.69,2.81-.34-1.37-1.48-4.24-2.46-6.16,1.28-.77,3.16-1.74,5.73-2.76,5.32-2.11,8.78-2.33,8.78-2.33l2.43,6.12h0Z"/></g></g></g></g></svg>
<svg id="uuid-734829e7-8ac4-4b5c-a116-9d67e01cf8c6" data-name="BODY" xmlns="http://www.w3.org/2000/svg" viewBox="0 0 600 600"><defs><style>
      .uuid-0e7e8699-3590-4479-a271-4e2a88578054, .uuid-02371a53-177b-4f50-af8f-cbf1a1ea2403 {
        fill: #7aa6ff;
      }

      .uuid-0e7e8699-3590-4479-a271-4e2a88578054, .uuid-02371a53-177b-4f50-af8f-cbf1a1ea2403, .uuid-1d66d296-2390-46c4-a438-9faf10db4969, .uuid-23e864bf-e55f-4824-98fc-854bd42b6f4b, .uuid-d79b23fd-83a5-481f-8a72-99822e51a811 {
        stroke: #000;
        stroke-linecap: round;
        stroke-linejoin: round;
      }

      .uuid-0e7e8699-3590-4479-a271-4e2a88578054, .uuid-1d66d296-2390-46c4-a438-9faf10db4969, .uuid-23e864bf-e55f-4824-98fc-854bd42b6f4b, .uuid-d79b23fd-83a5-481f-8a72-99822e51a811 {
        stroke-width: 2px;
      }

      .uuid-02371a53-177b-4f50-af8f-cbf1a1ea2403 {
        stroke-width: 2px;
      }

      .uuid-1d66d296-2390-46c4-a438-9faf10db4969 {
        fill: #9dff0c;
      }

      .uuid-23e864bf-e55f-4824-98fc-854bd42b6f4b {
        fill: #00dfa9;
      }

      .uuid-d79b23fd-83a5-481f-8a72-99822e51a811 {
        fill: none;
      }
    </style></defs><g id="uuid-893dedc1-9e88-4be1-983c-46166c082a93" data-name="uuid-1c5d9f1e-418f-4125-a97b-7131a61f4a55"><g id="uuid-24247494-c628-40dd-b62f-913c6ee78cc2" data-name="uuid-61b22ca4-5362-4f81-9138-1d4ea794330d"><g><rect class="uuid-02371a53-177b-4f50-af8f-cbf1a1ea2403" x="245" y="63.22" width="13.45" height="161.37" transform="translate(-32.44 86.26) rotate(-18.29)"/><g><g><path class="uuid-1d66d296-2390-46c4-a438-9faf10db4969" d="m296.22,96.33c-45.65-18.1-70.77-31.92-70.77-31.92,0,0-11.94,26.07-37.81,67.81-25.87,41.74-56.63,61.35-56.63,61.35,0,0,17.31,12.36,44.55,4.97,27.24-7.38,26.54-16.87,36.67-19.67,10.13-2.81,23.38,14.4,52.61,4.74,29.23-9.66,29.61-31.37,39.43-35.16,9.81-3.78,14.9,4.25,41.17-6.05,26.28-10.3,32.81-30.54,32.81-30.54,0,0-36.38,2.58-82.03-15.52h0Z"/><path class="uuid-23e864bf-e55f-4824-98fc-854bd42b6f4b" d="m225.45,64.41h0s37.05,56.26,77.43,84.74h0c.45-.27.9-.52,1.39-.7,9.81-3.78,14.9,4.25,41.17-6.05,26.28-10.3,32.81-30.54,32.81-30.54,0,0-36.38,2.58-82.03-15.52-45.65-18.1-70.77-31.92-70.77-31.92h0Z"/><path class="uuid-23e864bf-e55f-4824-98fc-854bd42b6f4b" d="m187.64,132.22c-25.87,41.74-56.63,61.35-56.63,61.35,0,0,17.31,12.36,44.55,4.97,27.24-7.38,26.54-16.87,36.67-19.67.5-.14,1.02-.22,1.54-.26h0c15.46-46.94,11.68-114.19,11.68-114.19,0,0-11.94,26.07-37.81,67.81h0Z"/></g><circle class="uuid-0e7e8699-3590-4479-a271-4e2a88578054" cx="225.45" cy="64.41" r="10.58"/></g><path class="uuid-d79b23fd-83a5-481f-8a72-99822e51a811" d="m170.09,179.51c36.26-14.64,36.02-41.35,36.02-41.35"/><path class="uuid-d79b23fd-83a5-481f-8a72-99822e51a811" d="m338.5,123.84c-37.85,9.85-53.57-11.74-53.57-11.74"/></g></g></g></svg>
</svg>