<?xml version="1.0" encoding="UTF-8"?>
<svg xmlns="http://www.w3.org/2000/svg" viewBox="0 0 600 600">
<svg id="uuid-c55b6f18-22d9-42e7-94a5-9418063ab399" data-name="BACKGROUND" xmlns="http://www.w3.org/2000/svg" viewBox="0 0 600 600"><defs><style>
      .uuid-65b83bcd-5755-41b5-8f46-23c20c164524 {
        fill: #9dff0c;
      }
    </style></defs><rect class="uuid-65b83bcd-5755-41b5-8f46-23c20c164524" x="-1" y="-1" width="602" height="602"/></svg>
<svg id="uuid-f7144243-e6cd-4cab-932b-c5be46c6fb36" data-name="BACKGROUND" xmlns="http://www.w3.org/2000/svg" viewBox="0 0 600 600"><defs><style>
      .uuid-ee344cb6-6f49-4a63-aa7b-6b97f7278011, .uuid-2df137ed-1d1c-4841-89ca-f7589125bd76 {
        fill: #fff;
      }

      .uuid-2df137ed-1d1c-4841-89ca-f7589125bd76, .uuid-00c9b4c2-3408-4d90-88df-0016a53fdc8b, .uuid-9c4e21ff-8a5c-4860-9f42-740e78ff2dc7, .uuid-2a45fb5d-1b56-43fa-8c8f-251b0f959774, .uuid-53cf4bc2-4135-41a5-b8b2-af79dfc57a4e, .uuid-c8ed7fb8-48a5-4e1d-9b4a-eac3ff2accd7, .uuid-b11951d9-d6a4-4c59-b0b3-fb834948f050 {
        stroke: #000;
        stroke-width: 2px;
      }

      .uuid-2df137ed-1d1c-4841-89ca-f7589125bd76, .uuid-00c9b4c2-3408-4d90-88df-0016a53fdc8b, .uuid-2a45fb5d-1b56-43fa-8c8f-251b0f959774, .uuid-c8ed7fb8-48a5-4e1d-9b4a-eac3ff2accd7 {
        stroke-miterlimit: 10;
      }

      .uuid-2df137ed-1d1c-4841-89ca-f7589125bd76, .uuid-9c4e21ff-8a5c-4860-9f42-740e78ff2dc7, .uuid-2a45fb5d-1b56-43fa-8c8f-251b0f959774, .uuid-53cf4bc2-4135-41a5-b8b2-af79dfc57a4e, .uuid-c8ed7fb8-48a5-4e1d-9b4a-eac3ff2accd7 {
        stroke-linecap: round;
      }

      .uuid-00c9b4c2-3408-4d90-88df-0016a53fdc8b, .uuid-53cf4bc2-4135-41a5-b8b2-af79dfc57a4e, .uuid-c8ed7fb8-48a5-4e1d-9b4a-eac3ff2accd7, .uuid-b11951d9-d6a4-4c59-b0b3-fb834948f050 {
        fill: #f9a723;
      }

      .uuid-9c4e21ff-8a5c-4860-9f42-740e78ff2dc7 {
        fill: none;
      }

      .uuid-9c4e21ff-8a5c-4860-9f42-740e78ff2dc7, .uuid-53cf4bc2-4135-41a5-b8b2-af79dfc57a4e, .uuid-b11951d9-d6a4-4c59-b0b3-fb834948f050 {
        stroke-linejoin: round;
      }

      .uuid-2a45fb5d-1b56-43fa-8c8f-251b0f959774 {
        fill: #ff78d8;
      }
    </style></defs><path class="uuid-53cf4bc2-4135-41a5-b8b2-af79dfc57a4e" d="m409.81,359.6c9.2,3.77,29.89,12.05,42.79,16.03,2.11.65,4.41.69,6.5-.04,11.79-4.08,28.47-11.39,33.03-11.32,5.25.08,7.8,3.93,19.88,2.04,13.36-2.1,22.43-11.99,20.93-23.3-4.21-43.28-25.18-26.79-25.18-26.79,0,0-5.84-8.75-18.76-4.82-11.83,3.6-10.2,14.44-6.47,22.47l-25.29,8.58c-2.14.72-4.45.71-6.59-.02l-35.7-12.61"/><path class="uuid-c8ed7fb8-48a5-4e1d-9b4a-eac3ff2accd7" d="m533.36,312.82c2.5,3.94,1.62,9.14-1.57,12.4-2.47,2.53-5.88,3.88-9.32,4.4-2.8.43-5.7.42-8.49-.08-2.14-.39-4.29-1.1-5.79-2.75-1.66-1.83-2.27-4.46-1.98-6.87.51-4.17,3.84-7.14,7.22-9.26,3.17-1.98,6.86-3.26,10.64-3.09,3.8.18,7.36,2.19,9.3,5.24Z"/><path class="uuid-c8ed7fb8-48a5-4e1d-9b4a-eac3ff2accd7" d="m538.57,349.84c.97,3.03.32,6.43-1.5,9.01-3.77,5.33-11.17,5.65-16.96,4.27-3.31-.79-6.69-2.21-8.67-5.13-3.13-4.61-.82-9.79,3.48-12.56,2.58-1.66,5.61-2.67,8.63-3.14,5.73-.89,13.1,1.51,15.03,7.56Z"/><path class="uuid-c8ed7fb8-48a5-4e1d-9b4a-eac3ff2accd7" d="m538.71,328.53c1.8,2.99,2.06,6.89.22,9.9-1.95,3.2-4.94,5.25-8.49,6.28-3.66,1.07-7.64,1.27-11.4.44-2.25-.5-4.53-1.38-5.96-3.28-1.86-2.47-1.89-5.68-.85-8.49,1.2-3.24,4.17-5.69,7.09-7.37,6.15-3.56,15.21-4.43,19.39,2.52Z"/><path class="uuid-c8ed7fb8-48a5-4e1d-9b4a-eac3ff2accd7" d="m501.85,311.68s9.27,3.84,7.77,12.02c-1.04,5.68-8.17,9.55-14.94,6.13"/><path class="uuid-9c4e21ff-8a5c-4860-9f42-740e78ff2dc7" d="m500.67,331.08c2.41,1.63,5.11,8.04,3.4,14.42"/><path d="m443.44,339.88c-2.88,10.58-6.94,20.23-11.17,28.59-10.17-3.78-21.16-9.53-27-11.93l11.83-26.02,26.35,9.36Z"/><ellipse cx="300" cy="518.65" rx="138.6" ry="22.93"/><path class="uuid-00c9b4c2-3408-4d90-88df-0016a53fdc8b" d="m319.36,427.14c-1.16,1.05-54.95,57-54.95,57,0,0,21.51-1.95,31.74,10.62,10.23,12.57,7.26,23.89,7.26,23.89h-66.9s-28.69-36.17-28.69-36.17c0,0,3.74-13.4,20.44-10.59,20.9-19.38,55.52-59.13,55.52-59.13l35.59,14.38Z"/><path d="m283.78,412.76l31.28,12.64-3.24,9.5c-2.93,3.03-9.76,10.12-13.64,14.14-11.92,0-27.98-2.13-41.33-6.37,13.95-15.1,26.93-29.92,26.93-29.92Z"/><path class="uuid-00c9b4c2-3408-4d90-88df-0016a53fdc8b" d="m354.45,173.54l-.11.27-174.2,58.29c-11.49,20.13-18.05,43.43-18.05,68.27,0,76.2,61.77,137.98,137.97,137.98s137.98-61.77,137.98-137.98c0-56.89-34.43-105.72-83.58-126.83Z"/><path class="uuid-9c4e21ff-8a5c-4860-9f42-740e78ff2dc7" d="m264.41,484.14c-4.06.49-11.49,1.36-17.85,7.23"/><path class="uuid-ee344cb6-6f49-4a63-aa7b-6b97f7278011" d="m185.17,308.14c-4.41,0-7.98-3.57-7.98-7.98,0-67.74,55.11-122.86,122.86-122.86,4.41,0,7.98,3.57,7.98,7.98s-3.57,7.98-7.98,7.98c-58.94,0-106.9,47.95-106.9,106.9,0,4.41-3.57,7.98-7.98,7.98Z"/><path d="m203.75,397.46l34.2-27.46-24.86,36.3c-6.73-5.1-3.66-2.61-9.34-8.83Z"/><path class="uuid-b11951d9-d6a4-4c59-b0b3-fb834948f050" d="m323.72,387.31c19.14-13.4,39.15-11.3,55.52,7.36,19.6,22.35,30.57,33.06,30.57,33.06,0,0,10.74-19.34,34.77-17.5,18.26,1.4,24.84,14.43,24.84,14.43,0,0,6.21,8.82-22.45,33.5-28.66,24.68-54.93,40.92-61.14,29.46-6.21-11.46-2.82-32.1-2.82-32.1,0,0-22.02-26.09-27.94-32.01-6.79-6.79-15.71-1.36-15.71-1.36"/><path class="uuid-00c9b4c2-3408-4d90-88df-0016a53fdc8b" d="m446.97,458.17c-25.89,22.29-49.82,37.69-58.79,32.02-9.77-7.44,26.84-38.54,44.88-52.7,18.04-14.16,32.17-17.82,36.36-12.81,0,0,6.21,8.82-22.45,33.5Z"/><path class="uuid-9c4e21ff-8a5c-4860-9f42-740e78ff2dc7" d="m409.81,427.74c-1.89,2.86-4.55,10.38-4.55,10.38"/><ellipse class="uuid-2df137ed-1d1c-4841-89ca-f7589125bd76" cx="269.41" cy="209.07" rx="94.9" ry="26.25" transform="translate(-52.5 96.54) rotate(-18.55)"/><ellipse class="uuid-2a45fb5d-1b56-43fa-8c8f-251b0f959774" cx="269.41" cy="209.07" rx="71.19" ry="13.32" transform="translate(-52.5 96.54) rotate(-18.55)"/><g><path class="uuid-53cf4bc2-4135-41a5-b8b2-af79dfc57a4e" d="m214.11,345.7c-8.05,5.83-25.34,20.79-35.52,29.67-1.67,1.45-2.82,3.41-3.39,5.55-3.14,11.67-8.55,33.44-8.55,33.44,0,0-8.42.58-12.19,14.35-3.64,13.3-6.64,25.06,3.77,29.75.35,7.47,7.51,15.45,19.2,9.41.14-.06,1.32,1.32,1.44,1.45,2.64,2.7,6.36,4.45,10.13,4.81,3.65.36,7.61-.67,10.43-3.08,3.29-2.81,5.4-6.94,6.05-11.2.4-2.61.26-5.31-.75-7.78,0,0,6.2-2.51,8.05-11.34,1.99-9.49-4.22-19.42-14.62-18.18l6.17-23.11c.51-2.2,1.74-4.16,3.49-5.59l29.38-24.3"/><path class="uuid-9c4e21ff-8a5c-4860-9f42-740e78ff2dc7" d="m204.73,452.06c-1.37-3.47-5.39-7.08-9-6.88"/><path class="uuid-9c4e21ff-8a5c-4860-9f42-740e78ff2dc7" d="m178.86,469.3c-5.16-5.27-3.82-11.97-2.9-13.54"/><path class="uuid-9c4e21ff-8a5c-4860-9f42-740e78ff2dc7" d="m158.22,458.45c-.27-5.22.73-7.32,3.06-9.83"/><path class="uuid-9c4e21ff-8a5c-4860-9f42-740e78ff2dc7" d="m193.93,450.63c.14-2.07.48-4.16,1.32-6.06.85-1.95,2.36-3.88,4.31-4.85"/></g></svg>
<svg id="uuid-6a02459f-1b68-443c-bd4b-7b11b7abbe5a" data-name="BODY" xmlns="http://www.w3.org/2000/svg" viewBox="0 0 600 600"><defs><style>
      .uuid-f630b38e-3266-47b2-bfbc-f2260501e18f {
        fill: #ff78d8;
        stroke: #000;
        stroke-linecap: round;
        stroke-linejoin: round;
        stroke-width: 2px;
      }
    </style></defs><circle cx="362.12" cy="293.18" r="9.78" transform="translate(-9.59 12.26) rotate(-1.91)"/><path class="uuid-f630b38e-3266-47b2-bfbc-f2260501e18f" d="m337.57,261.14c-1.59,1.06-2.46,2.67-2.79,4.19-.28,1.29-1.56,2.12-2.85,1.86-1.5-.3-3.22-.16-4.8.89-2.88,1.92-3.44,6.16-1.23,9.48,3.99,6.01,12.54,6.76,17.83,6.27.82-.08,1.55-.56,1.94-1.29,2.5-4.69,5.12-12.85,1.13-18.86-2.2-3.32-6.33-4.45-9.21-2.54Z"/><path class="uuid-f630b38e-3266-47b2-bfbc-f2260501e18f" d="m371.18,249c-1.81.61-3.07,1.94-3.79,3.32-.6,1.17-2.05,1.64-3.24,1.06-1.37-.67-3.07-1-4.87-.39-3.28,1.1-4.92,5.06-3.65,8.83,2.29,6.84,10.35,9.79,15.59,10.69.82.14,1.64-.14,2.21-.74,3.64-3.88,8.28-11.08,5.99-17.92-1.27-3.78-4.96-5.94-8.24-4.84Z"/></svg>
<svg id="uuid-6b1ca43c-fceb-4acd-85bc-eb7c63c2d5ed" data-name="BACKGROUND" xmlns="http://www.w3.org/2000/svg" xmlns:xlink="http://www.w3.org/1999/xlink" viewBox="0 0 600 600"><defs><style>
      .uuid-7d324a92-f859-4859-84b1-6b64e5c7ec03, .uuid-67100d62-60e5-4cd8-9feb-5d83ffa2b8c8, .uuid-bc5fc81c-92fa-4ec4-8e4a-352e040d594c, .uuid-5ac50f8a-6b3d-459b-9f7c-e2e49936e76c, .uuid-6c969cdd-f62e-43a7-a73f-31724797c8f5, .uuid-b67ff905-7fb7-4340-8266-4c03ea4a3719, .uuid-01b34b03-825a-47cb-a604-f9db4e1cd74f, .uuid-466c2826-7ac3-48ed-8208-b1d7f9e89468 {
        fill: none;
      }

      .uuid-67100d62-60e5-4cd8-9feb-5d83ffa2b8c8 {
        clip-path: url(#uuid-0502021d-5d50-4318-98da-cdd75b92ab18);
      }

      .uuid-617835b9-dcb7-47c3-8e7d-ba218dfa85d0 {
        fill: #353434;
      }

      .uuid-617835b9-dcb7-47c3-8e7d-ba218dfa85d0, .uuid-8e974996-2f7b-47a5-9824-e41b82eedcf4, .uuid-4e5a8a5f-577b-4228-8ffe-283c3c5a70f5, .uuid-bc5fc81c-92fa-4ec4-8e4a-352e040d594c, .uuid-5ac50f8a-6b3d-459b-9f7c-e2e49936e76c {
        stroke: #000;
        stroke-linecap: round;
        stroke-linejoin: round;
      }

      .uuid-617835b9-dcb7-47c3-8e7d-ba218dfa85d0, .uuid-8e974996-2f7b-47a5-9824-e41b82eedcf4, .uuid-4e5a8a5f-577b-4228-8ffe-283c3c5a70f5, .uuid-5ac50f8a-6b3d-459b-9f7c-e2e49936e76c {
        stroke-width: 2px;
      }

      .uuid-57d2f649-6cf8-4f64-88c1-f5885b0533cd, .uuid-4e5a8a5f-577b-4228-8ffe-283c3c5a70f5 {
        fill: #fff7f0;
      }

      .uuid-4a3249ec-b2f6-48bb-a8f3-a82bfffadfc2, .uuid-8e974996-2f7b-47a5-9824-e41b82eedcf4 {
        fill: #a07bff;
      }

      .uuid-bc5fc81c-92fa-4ec4-8e4a-352e040d594c {
        stroke-width: 2px;
      }

      .uuid-6c969cdd-f62e-43a7-a73f-31724797c8f5 {
        clip-path: url(#uuid-65b2ff7e-b3d6-471c-abcc-31367d16a59a);
      }

      .uuid-b67ff905-7fb7-4340-8266-4c03ea4a3719 {
        clip-path: url(#uuid-b7157335-6e6b-4f02-acd6-65c4362be68b);
      }

      .uuid-01b34b03-825a-47cb-a604-f9db4e1cd74f {
        clip-path: url(#uuid-210babb4-acd7-4b92-9096-56d819bae4c2);
      }

      .uuid-466c2826-7ac3-48ed-8208-b1d7f9e89468 {
        clip-path: url(#uuid-bafb8971-eb1d-4f25-a86c-d00529b534c5);
      }
    </style><clipPath id="uuid-0502021d-5d50-4318-98da-cdd75b92ab18"><path class="uuid-7d324a92-f859-4859-84b1-6b64e5c7ec03" d="m236.72,508.58l-26.43-36.69c-.99-1.27-2.89-1.3-3.93-.08l-5.74,6.7c-1.19,1.4-1.23,3.44-.1,4.88l29.22,37.38c1.22,1.56,3.1,2.48,5.08,2.48h71.09c1.33,0,2.41-1.08,2.41-2.41v-8.19c0-1.33-1.08-2.41-2.41-2.41h-65.78c-1.34,0-2.6-.62-3.42-1.67h0Z"/></clipPath><clipPath id="uuid-65b2ff7e-b3d6-471c-abcc-31367d16a59a"><path class="uuid-7d324a92-f859-4859-84b1-6b64e5c7ec03" d="m250.25,445.38l-22.93,23.27s-12.85-2.78-19.77,7.48l29.07,36.91h68.51s.65-17.01-14.04-25.82c-8.29-5.06-18.57-5.38-18.57-5.38l11.83-12.51c.96-1.06.66-2.75-.62-3.4-2.53-1.29-6.47-3.3-9.42-4.8-1.34-.68-2.97-.41-4.02.67l-1.42,1.47s-6.22-3.03-10.77-8.09-5.44-7.92-5.44-7.92l2.43-2.53-1.36-.35c-.75-.19-1.55-.17-2.25.15-.47.22-.9.52-1.22.84h0Z"/></clipPath><clipPath id="uuid-b7157335-6e6b-4f02-acd6-65c4362be68b"><path class="uuid-7d324a92-f859-4859-84b1-6b64e5c7ec03" d="m360,433.62l19.9,22.77s-3.17,17.71,2.54,31.11c0,0,5.33-16.06,31.48-39.12,26.16-23.06,53.73-30.88,53.73-30.88,0,0-10.6-11.39-29.3-10.31-18.7,1.08-28.7,15.35-28.7,15.35l-20.51-22.1c-.8-.85-1.95-1.29-3.1-1.14-2.22.27-6.08,1.2-10.09,4.24-.66.5-.78,1.46-.26,2.11l1.05,1.3s-16.35,11.66-16.75,26.68h0Z"/></clipPath><clipPath id="uuid-210babb4-acd7-4b92-9096-56d819bae4c2"><path class="uuid-7d324a92-f859-4859-84b1-6b64e5c7ec03" d="m469.32,415.42c-.66-.63-1.59-.86-2.47-.62-5.87,1.59-29.25,8.95-53.86,30.76-23.28,20.64-31.86,33.4-33.68,38.15-.37.98-.27,2.06.31,2.94,1.37,2.1,5.65,8.44,8.34,11.27,4.73,4.98,26.38-2.07,55.09-27.69,28.72-25.62,37.69-40.52,34.25-45.67-2.52-3.77-6.2-7.44-7.99-9.14h0Z"/></clipPath><clipPath id="uuid-bafb8971-eb1d-4f25-a86c-d00529b534c5"><path class="uuid-7d324a92-f859-4859-84b1-6b64e5c7ec03" d="m477.9,426.07h0c-.62-4.79-20.55-1.28-53.98,25.69-33.41,26.94-37.41,45.67-34.1,47.26,7.15,2.33,27.31-5.65,53.25-28.79,24.07-21.47,34.26-35.41,34.9-42.4,0-.73,0-1.33-.07-1.76h0Z"/></clipPath></defs><g id="uuid-f408db85-a353-4742-a68e-9c398e6873ff" data-name="uuid-cd11fcea-88d0-488e-8ad3-f73ba4124c0e"><g><g><g><path class="uuid-57d2f649-6cf8-4f64-88c1-f5885b0533cd" d="m236.72,508.58l-26.43-36.69c-.99-1.27-2.89-1.3-3.93-.08l-5.74,6.7c-1.19,1.4-1.23,3.44-.1,4.88l29.22,37.38c1.22,1.56,3.1,2.48,5.08,2.48h71.09c1.33,0,2.41-1.08,2.41-2.41v-8.19c0-1.33-1.08-2.41-2.41-2.41h-65.78c-1.34,0-2.6-.62-3.42-1.67h0Z"/><g class="uuid-67100d62-60e5-4cd8-9feb-5d83ffa2b8c8"><path class="uuid-4a3249ec-b2f6-48bb-a8f3-a82bfffadfc2" d="m311.73,519.85h-75.87c-1.43,0-2.79-.65-3.68-1.78l-33.28-41.94-4.78,6.84,36.02,45.1,81.59-1.62v-6.61h0Z"/></g><path class="uuid-5ac50f8a-6b3d-459b-9f7c-e2e49936e76c" d="m236.72,508.58l-26.43-36.69c-.99-1.27-2.89-1.3-3.93-.08l-5.74,6.7c-1.19,1.4-1.23,3.44-.1,4.88l29.22,37.38c1.22,1.56,3.1,2.48,5.08,2.48h71.09c1.33,0,2.41-1.08,2.41-2.41v-8.19c0-1.33-1.08-2.41-2.41-2.41h-65.78c-1.34,0-2.6-.62-3.42-1.67h0Z"/></g><g><path class="uuid-57d2f649-6cf8-4f64-88c1-f5885b0533cd" d="m250.25,445.38l-22.93,23.27s-12.85-2.78-19.77,7.48l29.07,36.91h68.51s.65-17.01-14.04-25.82c-8.29-5.06-18.57-5.38-18.57-5.38l11.83-12.51c.96-1.06.66-2.75-.62-3.4-2.53-1.29-6.47-3.3-9.42-4.8-1.34-.68-2.97-.41-4.02.67l-1.42,1.47s-6.22-3.03-10.77-8.09-5.44-7.92-5.44-7.92l2.43-2.53-1.36-.35c-.75-.19-1.55-.17-2.25.15-.47.22-.9.52-1.22.84h0Z"/><g class="uuid-6c969cdd-f62e-43a7-a73f-31724797c8f5"><g><path class="uuid-8e974996-2f7b-47a5-9824-e41b82eedcf4" d="m207.56,476.13l16.95,21.51,4.56-8.42c1.06-1.96,1.35-4.25.82-6.42l-3.54-14.32c-3.13-.41-13.01-.92-18.79,7.64h0Z"/><path class="uuid-617835b9-dcb7-47c3-8e7d-ba218dfa85d0" d="m235.69,468.65c5.41,7.65,11.73,8.93,11.73,8.93l17.3-19.75-9.01-19.35-13.15,2.63-11.12,19.55s1.48,4.08,4.25,7.99h0Z"/><g><path class="uuid-8e974996-2f7b-47a5-9824-e41b82eedcf4" d="m268.87,463.27s-18.49,21.32-19.16,22.2c-.67.88,10.65.19,18.81,2.29,8.16,2.09,14.33,4.3,14.83,7.23.51,2.93-3.21,3.65-7.01,6.46-4.82,3.56-2.97,6.66,2.61,5.17,3.03-.81,4.45-3.84,6.12-3.84h20.73s4.72,8.78,5.12,12.22h-64.36s13.07-7.62,17.85-17.02c-4.93.3-4.73-3.34-9.51-3.47s-7.82,4.45-13.08.74c-5.26-3.71.81-12.27,9.17-21.64,0,0-5.19-5.51-15.3-4.96,0,0-1.38-1.62-4.87-9.15l8.34-7.23s14.66,9.91,18.46,13.85l7.58-8.75,3.67,5.9h0Z"/><path class="uuid-8e974996-2f7b-47a5-9824-e41b82eedcf4" d="m264.41,497.97c1.72-3.24,2.38-5.16,8.9-5.36,4.73-.15,8.74-.71,9.95,2.03"/><line class="uuid-5ac50f8a-6b3d-459b-9f7c-e2e49936e76c" x1="250.99" y1="473.6" x2="257.61" y2="466.12"/></g><path class="uuid-5ac50f8a-6b3d-459b-9f7c-e2e49936e76c" d="m275.64,501.99c-4.04,3.39-8.12,11.05-8.12,11.05"/><polygon class="uuid-4a3249ec-b2f6-48bb-a8f3-a82bfffadfc2" points="278.48 461.05 272.13 468.34 277.35 470.68 283.97 463.81 278.48 461.05"/></g></g><path class="uuid-5ac50f8a-6b3d-459b-9f7c-e2e49936e76c" d="m250.25,445.38l-22.93,23.27s-12.85-2.78-19.77,7.48l29.07,36.91h68.51s.65-17.01-14.04-25.82c-8.29-5.06-18.57-5.38-18.57-5.38l11.83-12.51c.96-1.06.66-2.75-.62-3.4-2.53-1.29-6.47-3.3-9.42-4.8-1.34-.68-2.97-.41-4.02.67l-1.42,1.47s-6.22-3.03-10.77-8.09-5.44-7.92-5.44-7.92l2.43-2.53-1.36-.35c-.75-.19-1.55-.17-2.25.15-.47.22-.9.52-1.22.84h0Z"/></g><path class="uuid-5ac50f8a-6b3d-459b-9f7c-e2e49936e76c" d="m244.42,489.63c5.92-5.31,14.38-9.03,28.11-7.79"/><g><path class="uuid-4e5a8a5f-577b-4228-8ffe-283c3c5a70f5" d="m264.17,468.09c4.47,2.6,9.09,4.34,12.76,5.69,3.67,1.35,2.33,6.74-2.45,4.81-4.77-1.93-11.32-4.52-13.4-6.25s.11-5.99,3.09-4.26h0Z"/><path class="uuid-4e5a8a5f-577b-4228-8ffe-283c3c5a70f5" d="m256.34,476.65c2.44,1.28,4.92,2.3,7.25,3.14,1.81.66-1.41,4.84-3.61,4-2.73-1.04-5.18-2.09-6.31-2.95-2.05-1.55-.22-5.7,2.68-4.19Z"/><path class="uuid-4e5a8a5f-577b-4228-8ffe-283c3c5a70f5" d="m275.35,481.45s-.77-4.17-6.3-4.78c-7.82-.86-12.81,5.57-14.54,7.98s2.32,5.2,4.64,2.45c4.98-5.91,7.52-6.36,8.95-6.67,3.05.17,7.25,1.01,7.25,1.01h0Z"/><path class="uuid-4e5a8a5f-577b-4228-8ffe-283c3c5a70f5" d="m288.56,485.83s-.38-4.37-5.93-5.51c-7.86-1.61-13.55,4.58-15.55,6.9-1.99,2.33,1.85,5.58,4.48,2.95,5.63-5.64,9.79-6.56,11.27-6.75,1.91.64,5.74,2.4,5.74,2.4h0Z"/></g><g><circle cx="286.65" cy="493.08" r="1.01"/><circle cx="294.11" cy="493.08" r="1.01"/><circle cx="291.6" cy="495.81" r="1.01"/><circle cx="289.08" cy="498.97" r="1.01"/><circle cx="296.53" cy="498.97" r="1.01"/></g></g><g><g><path class="uuid-57d2f649-6cf8-4f64-88c1-f5885b0533cd" d="m360,433.62l19.9,22.77s-3.17,17.71,2.54,31.11c0,0,5.33-16.06,31.48-39.12,26.16-23.06,53.73-30.88,53.73-30.88,0,0-10.6-11.39-29.3-10.31-18.7,1.08-28.7,15.35-28.7,15.35l-20.51-22.1c-.8-.85-1.95-1.29-3.1-1.14-2.22.27-6.08,1.2-10.09,4.24-.66.5-.78,1.46-.26,2.11l1.05,1.3s-16.35,11.66-16.75,26.68h0Z"/><g class="uuid-b67ff905-7fb7-4340-8266-4c03ea4a3719"><g><path class="uuid-617835b9-dcb7-47c3-8e7d-ba218dfa85d0" d="m381.44,447.04c4.72-7.69,7.01-19.3,7.01-19.3l-19.82-20.2s-11.73,9.84-12.54,27.51l18.2,22.02,7.15-10.02h0Z"/><path class="uuid-8e974996-2f7b-47a5-9824-e41b82eedcf4" d="m386.55,424.93c-7.06,9.84-5.11,22.11-5.11,22.11,0,0-3.64,5.93-5.06,7.89l-8.56-9.17s.9-17.83,11.2-28.23l7.52,7.4h0Z"/><path class="uuid-8e974996-2f7b-47a5-9824-e41b82eedcf4" d="m376.75,406.95l27.24,27.12s7.58-6.51,15.13-11.9c7.55-5.39,15.66-6.4,17.28-6.3,1.62.1,1.57,2.33.81,4.04-.76,1.72-.61,2.43-.61,2.43,0,0,5.58-.04,5.38-5.77,0,0,4.72-3.57,16.31-7.01l8.7.94,6.67,3.71-19.42,13.53-29.9,13.91s1.38-7.48,1.52-13.21c-3.24,2.83-7.06.62-10.45,2.75-3.39,2.12-6.17,10.11-9.74,10.87-2.37.5-5.18.5-7.81-2.28-3.74-3.94-28.82-29.38-28.82-29.38l4.5-3.94,3.2.49h0Z"/><path class="uuid-8e974996-2f7b-47a5-9824-e41b82eedcf4" d="m377.18,464.97l11.88-6.76c1.46-.83,3.09-1.32,4.76-1.43l10.6-.71-26.22,34.72-3.1-12.74,2.08-13.08h0Z"/><path class="uuid-5ac50f8a-6b3d-459b-9f7c-e2e49936e76c" d="m425.87,428.43c-.03-5.04-2.63-8.79,3.04-11.15"/><path class="uuid-5ac50f8a-6b3d-459b-9f7c-e2e49936e76c" d="m436.62,421.78c-.43,3.41.54,8.14.54,8.14"/><polygon class="uuid-4a3249ec-b2f6-48bb-a8f3-a82bfffadfc2" points="379.85 401.15 383.87 405.09 388.18 403.12 384.85 399.49 380.73 397.86 379.85 401.15"/></g></g><path class="uuid-5ac50f8a-6b3d-459b-9f7c-e2e49936e76c" d="m360,433.62l19.9,22.77s-3.17,17.71,2.54,31.11c0,0,5.33-16.06,31.48-39.12,26.16-23.06,53.73-30.88,53.73-30.88,0,0-10.6-11.39-29.3-10.31-18.7,1.08-28.7,15.35-28.7,15.35l-20.51-22.1c-.8-.85-1.95-1.29-3.1-1.14-2.22.27-6.08,1.2-10.09,4.24-.66.5-.78,1.46-.26,2.11l1.05,1.3s-16.35,11.66-16.75,26.68h0Z"/></g><g><g><path class="uuid-57d2f649-6cf8-4f64-88c1-f5885b0533cd" d="m469.32,415.42c-.66-.63-1.59-.86-2.47-.62-5.87,1.59-29.25,8.95-53.86,30.76-23.28,20.64-31.86,33.4-33.68,38.15-.37.98-.27,2.06.31,2.94,1.37,2.1,5.65,8.44,8.34,11.27,4.73,4.98,26.38-2.07,55.09-27.69,28.72-25.62,37.69-40.52,34.25-45.67-2.52-3.77-6.2-7.44-7.99-9.14h0Z"/><g class="uuid-01b34b03-825a-47cb-a604-f9db4e1cd74f"><path class="uuid-4a3249ec-b2f6-48bb-a8f3-a82bfffadfc2" d="m474.46,421.06c-.67-.63-1.6-.86-2.49-.62-5.93,1.59-30.69,9.97-55.54,31.78-23.51,20.64-29.54,34.57-31.37,39.32-.38.98-.27,2.06.31,2.94,1.39,2.1,4.23,6.25,6.95,9.08,4.77,4.98,26.63-2.07,55.63-27.69,29-25.62,38.05-40.52,34.58-45.67-2.54-3.77-6.26-7.44-8.07-9.14h0Z"/></g><path class="uuid-5ac50f8a-6b3d-459b-9f7c-e2e49936e76c" d="m469.32,415.42c-.66-.63-1.59-.86-2.47-.62-5.87,1.59-29.25,8.95-53.86,30.76-23.28,20.64-31.86,33.4-33.68,38.15-.37.98-.27,2.06.31,2.94,1.37,2.1,5.65,8.44,8.34,11.27,4.73,4.98,26.38-2.07,55.09-27.69,28.72-25.62,37.69-40.52,34.25-45.67-2.52-3.77-6.2-7.44-7.99-9.14h0Z"/></g><g><path class="uuid-4a3249ec-b2f6-48bb-a8f3-a82bfffadfc2" d="m477.9,426.07h0c-.62-4.79-20.55-1.28-53.98,25.69-33.41,26.94-37.41,45.67-34.1,47.26,7.15,2.33,27.31-5.65,53.25-28.79,24.07-21.47,34.26-35.41,34.9-42.4,0-.73,0-1.33-.07-1.76h0Z"/><g class="uuid-466c2826-7ac3-48ed-8208-b1d7f9e89468"><g><g><ellipse class="uuid-bc5fc81c-92fa-4ec4-8e4a-352e040d594c" cx="452.04" cy="447.48" rx="3.55" ry="2.2" transform="translate(-183.16 414.29) rotate(-41.72)"/><ellipse class="uuid-bc5fc81c-92fa-4ec4-8e4a-352e040d594c" cx="452.04" cy="447.48" rx="8.67" ry="5.37" transform="translate(-183.16 414.29) rotate(-41.72)"/><ellipse class="uuid-bc5fc81c-92fa-4ec4-8e4a-352e040d594c" cx="452.04" cy="447.48" rx="13.41" ry="8.31" transform="translate(-183.16 414.29) rotate(-41.72)"/><ellipse class="uuid-bc5fc81c-92fa-4ec4-8e4a-352e040d594c" cx="452.04" cy="447.48" rx="17.54" ry="10.87" transform="translate(-183.16 414.29) rotate(-41.72)"/><ellipse class="uuid-bc5fc81c-92fa-4ec4-8e4a-352e040d594c" cx="452.04" cy="447.48" rx="22.28" ry="13.8" transform="translate(-183.16 414.29) rotate(-41.72)"/><ellipse class="uuid-bc5fc81c-92fa-4ec4-8e4a-352e040d594c" cx="452.04" cy="447.48" rx="27.13" ry="16.81" transform="translate(-183.16 414.29) rotate(-41.72)"/></g><g><path class="uuid-5ac50f8a-6b3d-459b-9f7c-e2e49936e76c" d="m419.16,451.36l6.27,17.09s-12.64,10.48-14.66,11.9c-2.02,1.42-.13,3.71,1.69,2.49,1.82-1.21,15.03-11.12,15.03-11.12l10.31,4.99"/><line class="uuid-5ac50f8a-6b3d-459b-9f7c-e2e49936e76c" x1="424.04" y1="474.29" x2="435.57" y2="481.83"/><line class="uuid-5ac50f8a-6b3d-459b-9f7c-e2e49936e76c" x1="419.85" y1="477.42" x2="430.25" y2="485.94"/><line class="uuid-5ac50f8a-6b3d-459b-9f7c-e2e49936e76c" x1="415.48" y1="480.65" x2="423.85" y2="489.65"/><line class="uuid-5ac50f8a-6b3d-459b-9f7c-e2e49936e76c" x1="412.45" y1="482.84" x2="416.83" y2="494.97"/><line class="uuid-5ac50f8a-6b3d-459b-9f7c-e2e49936e76c" x1="413.11" y1="478.53" x2="403.28" y2="468.21"/><line class="uuid-5ac50f8a-6b3d-459b-9f7c-e2e49936e76c" x1="408.19" y1="461.84" x2="417.88" y2="474.67"/><line class="uuid-5ac50f8a-6b3d-459b-9f7c-e2e49936e76c" x1="421.62" y1="471.59" x2="413.93" y2="456.61"/><line class="uuid-5ac50f8a-6b3d-459b-9f7c-e2e49936e76c" x1="410.4" y1="480.65" x2="395.13" y2="478.06"/><line class="uuid-5ac50f8a-6b3d-459b-9f7c-e2e49936e76c" x1="410.05" y1="482.39" x2="390" y2="486.28"/><line class="uuid-5ac50f8a-6b3d-459b-9f7c-e2e49936e76c" x1="411.01" y1="483.13" x2="405.24" y2="499.76"/><line class="uuid-5ac50f8a-6b3d-459b-9f7c-e2e49936e76c" x1="410.43" y1="482.84" x2="387.37" y2="499.41"/></g></g></g><path class="uuid-5ac50f8a-6b3d-459b-9f7c-e2e49936e76c" d="m477.9,426.07h0c-.62-4.79-20.55-1.28-53.98,25.69-33.41,26.94-37.41,45.67-34.1,47.26,7.15,2.33,27.31-5.65,53.25-28.79,24.07-21.47,34.26-35.41,34.9-42.4,0-.73,0-1.33-.07-1.76h0Z"/></g></g><path class="uuid-4e5a8a5f-577b-4228-8ffe-283c3c5a70f5" d="m409.66,422.54s-3.89,5.28-6.92,15.26"/><g><path class="uuid-4e5a8a5f-577b-4228-8ffe-283c3c5a70f5" d="m395.76,408.5c-4.48,2-8.37,4.59-11.44,6.66-3.07,2.07-6.53-1.91-2.41-4.51s9.11-5.45,11.6-6.1c2.49-.65,5.23,2.62,2.24,3.95h0Z"/><path class="uuid-4e5a8a5f-577b-4228-8ffe-283c3c5a70f5" d="m403.92,416.93c-4.48,2-8.37,4.59-11.44,6.66-3.07,2.07-6.53-1.91-2.41-4.51s9.11-5.45,11.6-6.1c2.49-.65,5.23,2.62,2.24,3.95h0Z"/><path class="uuid-4e5a8a5f-577b-4228-8ffe-283c3c5a70f5" d="m410.49,425.27c-4.48,2-7.42,3.94-10.49,6.02-3.07,2.07-6.53-1.91-2.41-4.51s9.11-5.45,11.6-6.1c.47.81.96,3.15,1.3,4.6h0Z"/><path class="uuid-4e5a8a5f-577b-4228-8ffe-283c3c5a70f5" d="m418.62,414.25s-3.47-2.43-7.84,1.01c-6.17,4.87-5.22,12.96-4.76,15.89s5.3,2.08,5.02-1.51c-.6-7.7.9-9.81,1.7-11.03,2.29-2.02,5.88-4.36,5.88-4.36h0Z"/><path class="uuid-4e5a8a5f-577b-4228-8ffe-283c3c5a70f5" d="m431.11,408.11s-3.34-2.85-8.09.24c-6.73,4.36-6.45,12.77-6.24,15.82.21,3.06,5.24,2.68,5.26-1.04.05-7.97,2.38-11.55,3.3-12.71,1.81-.89,5.78-2.31,5.78-2.31Z"/></g><g><circle cx="434.88" cy="410.61" r="1.01"/><circle cx="440.59" cy="410.07" r="1.01"/><circle cx="440" cy="413.7" r="1.01"/><circle cx="446.55" cy="410.14" r="1.01"/></g></g></g></g></svg>
<svg id="uuid-b9482b2c-4739-4122-81da-4de338103694" data-name="BODY" xmlns="http://www.w3.org/2000/svg" viewBox="0 0 600 600"><defs><style>
      .uuid-191029f6-3576-4ed7-97ef-969e58bf69e1 {
        fill: #ffff0d;
        stroke: #000;
        stroke-linecap: round;
        stroke-linejoin: round;
        stroke-width: 2px;
      }
    </style></defs><path class="uuid-191029f6-3576-4ed7-97ef-969e58bf69e1" d="m209.08,417.82c0-3.45-2.8-6.25-6.25-6.25-.62,0-1.21.12-1.78.29l-2.74,10.26c.13.14.27.26.42.38,2.44-.2,4.65.19,6.55,1.07,2.23-.95,3.8-3.17,3.8-5.75Z"/><path class="uuid-191029f6-3576-4ed7-97ef-969e58bf69e1" d="m160.14,417.77c3.29-3.25,6.4-3.47,6.4-3.47,0,0,.51-2.04,1.3-5.21-1.04-2.02-3.12-3.41-5.54-3.41-3.45,0-6.25,2.8-6.25,6.25,0,2.69,1.71,4.96,4.09,5.84Z"/><circle class="uuid-191029f6-3576-4ed7-97ef-969e58bf69e1" cx="169.36" cy="403.62" r="7.06"/><circle class="uuid-191029f6-3576-4ed7-97ef-969e58bf69e1" cx="184.37" cy="402.37" r="7.06"/><circle class="uuid-191029f6-3576-4ed7-97ef-969e58bf69e1" cx="198.12" cy="409.87" r="7.06"/></svg>
<svg id="uuid-1b08aac9-9e08-4756-8d9e-8a9f6603c534" data-name="BODY" xmlns="http://www.w3.org/2000/svg" viewBox="0 0 600 600"><defs><style>
      .uuid-ac87fed6-fa30-4749-a240-d8828610f74f {
        fill: #00dfa9;
      }

      .uuid-1ff638b6-d0d1-4217-9825-a9422071689c {
        fill: #fff;
      }

      .uuid-872febec-4330-4ab2-a86b-49734363ee8d {
        fill: #ffff0d;
      }

      .uuid-8397099a-fe48-40cd-8fdd-5b593e433b66 {
        fill: #ff78d8;
      }

      .uuid-778e30d1-bd04-42f1-a7e6-ba8a3704772a {
        stroke-linecap: round;
        stroke-linejoin: round;
      }

      .uuid-778e30d1-bd04-42f1-a7e6-ba8a3704772a, .uuid-f1cf2760-0093-43d9-874f-71ff5def6357 {
        fill: none;
        stroke: #000;
        stroke-width: 2px;
      }

      .uuid-f1cf2760-0093-43d9-874f-71ff5def6357 {
        stroke-miterlimit: 10;
      }
    </style></defs><g id="uuid-798ab33b-e031-4a28-9cf1-199bb8f2066a" data-name="uuid-0591a78b-92e4-47f5-82f5-87bb82cff089"><g id="uuid-b84e47fe-6a5b-4076-8558-b05772d8acd0" data-name="uuid-ef3ece4f-8150-4652-82a9-55a11f34e840"><g id="uuid-a524eb37-ac85-42fb-8897-0cae06d4e47d" data-name="uuid-4dd11de8-2cdc-4aed-ae75-b123e92e7551"><path class="uuid-1ff638b6-d0d1-4217-9825-a9422071689c" d="m494.67,329.83s.94,43.86,1.14,58.12c.2,14.26,29.12,10.42,36.3,6.37l-2.02-5.06s9.99-3.71,6.94-13.13c-.08-.25-.17-.5-.27-.75-3.84-9.98-4.9-12.61-4.9-12.61,0,0-3.84,1.47-11.22.4-9.2-1.32-16.03-11.07-4.5-18.49,0,0-4.74-2.49-4.59-7.3.15-4.81,2.82-7.47,2.82-7.47,0,0-3.95-.82-6.08-2.91,0,0-4.96,6.88-13.61,2.82h-.01Z"/><path class="uuid-1ff638b6-d0d1-4217-9825-a9422071689c" d="m489.51,311.27l-14.63-29.66s1.69-13.55,17.93-16.79c16.25-3.24,24.61,9.03,24.61,9.03l-.57,34.87s-5.76,2.22-9.1,7.08c0,0-7.3-8.36-18.24-4.53h0Z"/></g><g id="uuid-1284ab39-adff-4632-966d-92d334e68346" data-name="uuid-8b80c383-2de1-459e-b0cd-74fd20d90043"><path class="uuid-ac87fed6-fa30-4749-a240-d8828610f74f" d="m476.28,284.44s.82-8.1,7.7-8.77c6.88-.67,7.96,7.15,6,14.09-1.96,6.94-6.42,9.17-6.42,9.17l-7.28-14.49h0Z"/><path class="uuid-872febec-4330-4ab2-a86b-49734363ee8d" d="m493.89,267.16c-4.85.86-3.59,7.53,1.37,6.88,4.96-.66,3.49-7.74-1.37-6.88Z"/><path class="uuid-8397099a-fe48-40cd-8fdd-5b593e433b66" d="m517.34,278.53c-2.27-6.98-12.33-9.33-14.96-2.91-2.56,6.26,2.94,14.76,8.85,16.1,3.99.91,5.9-.51,5.9-.51l.21-12.69h0Z"/><path class="uuid-872febec-4330-4ab2-a86b-49734363ee8d" d="m507.49,296.02s-4.55-3.43-8.24.52c-3.69,3.94,1.62,12.36,9.84,11.58,6.04-.57,3.17-8.48-.82-9.15l-.77-2.95h-.01Z"/><path class="uuid-8397099a-fe48-40cd-8fdd-5b593e433b66" d="m495.02,346.73c9.79-.47,12.65,12.77.37,18.05l-.37-18.05Z"/><path class="uuid-8397099a-fe48-40cd-8fdd-5b593e433b66" d="m514.15,371.23c.22,10.55,13.47,9.54,13.74-1.01,0,0-9.31-1.15-13.74,1.01Z"/><path class="uuid-ac87fed6-fa30-4749-a240-d8828610f74f" d="m506.86,373.81c.93,7.57-3.84,17.2-8.84,8.82,3.5-6.31,8.84-8.82,8.84-8.82Z"/><path class="uuid-872febec-4330-4ab2-a86b-49734363ee8d" d="m512.79,389.84c.82-8.86,13.61-8.68,15.38,0,0,0-1.52,1.56-7.43,1.53-5.91-.03-7.95-1.53-7.95-1.53Z"/><path class="uuid-8397099a-fe48-40cd-8fdd-5b593e433b66" d="m517.55,397.84c-2.43-7.41-14.01-7.71-15.85-1.75,7.71,3.39,15.85,1.75,15.85,1.75Z"/><path class="uuid-872febec-4330-4ab2-a86b-49734363ee8d" d="m510.37,356.1c-8.49,2.16-5.54,12.11,1.31,11.33,5.02-.57,5.51-5.17,5.51-5.17,0,0-2.14-.83-4.19-2.24s-2.63-3.91-2.63-3.91h0Z"/><path class="uuid-ac87fed6-fa30-4749-a240-d8828610f74f" d="m525.84,363.71c1.18,4.82,7.79,3.58,7.79,3.58l-1.78-4.52-6.02.94h.01Z"/><path class="uuid-ac87fed6-fa30-4749-a240-d8828610f74f" d="m514.28,343.96c-4.75,2.7-10.35.66-11.36-5.67l3.64-2.86,5.19-.57s-.74,1.38.2,4.99c.94,3.61,2.33,4.11,2.33,4.11h0Z"/></g><g><path class="uuid-778e30d1-bd04-42f1-a7e6-ba8a3704772a" d="m494.67,329.83s.94,43.86,1.14,58.12c.2,14.26,29.12,10.42,36.3,6.37l-2.02-5.06s9.99-3.71,6.94-13.13c-.08-.25-.17-.5-.27-.75-3.84-9.98-4.9-12.61-4.9-12.61,0,0-3.84,1.47-11.22.4-9.2-1.32-16.03-11.07-4.5-18.49,0,0-4.74-2.49-4.59-7.3.15-4.81,2.82-7.47,2.82-7.47,0,0-3.95-.82-6.08-2.91,0,0-4.96,6.88-13.61,2.82h-.01Z"/><path class="uuid-778e30d1-bd04-42f1-a7e6-ba8a3704772a" d="m489.51,311.27l-14.63-29.66s1.69-13.55,17.93-16.79c16.25-3.24,24.61,9.03,24.61,9.03l-.57,34.87s-5.76,2.22-9.1,7.08c0,0-7.3-8.36-18.24-4.53h0Z"/></g><line class="uuid-778e30d1-bd04-42f1-a7e6-ba8a3704772a" x1="505.55" y1="281.33" x2="509.78" y2="313.39"/><line class="uuid-778e30d1-bd04-42f1-a7e6-ba8a3704772a" x1="491.33" y1="297.65" x2="499.99" y2="310.99"/><path class="uuid-f1cf2760-0093-43d9-874f-71ff5def6357" d="m530.09,389.27c-6.34,3.1-16.38,3.03-20.76-1.96l-.5-14.52"/><path class="uuid-f1cf2760-0093-43d9-874f-71ff5def6357" d="m536.88,375.69c-1.68-4.38-8.61-7.31-21.96-4.83-13.35,2.48-19.23,13.86-18.98,18.52"/><polygon points="494.45 338 504.61 338.27 511.55 336.98 512.39 333.19 514.36 329.92 508.28 327.01 504.2 329.93 499.86 330.82 495.02 330.36 494.45 338"/></g></g></svg>
</svg>