<?xml version="1.0" encoding="UTF-8"?>
<svg xmlns="http://www.w3.org/2000/svg" viewBox="0 0 600 600">
<svg id="uuid-76576d14-1db9-41e1-baf2-b575b174d48a" data-name="BACKGROUND" xmlns="http://www.w3.org/2000/svg" viewBox="0 0 600 600"><defs><style>
      .uuid-5f5134e1-be85-4028-9053-a97aa84d746d {
        fill: #f9a723;
      }
    </style></defs><rect class="uuid-5f5134e1-be85-4028-9053-a97aa84d746d" x="-1" y="-1" width="602" height="602"/></svg>
<svg id="uuid-21a2137e-152d-4624-8e43-99af15d9f9e8" data-name="BODY" xmlns="http://www.w3.org/2000/svg" viewBox="0 0 600 600"><defs><style>
      .uuid-b1fa838c-bbeb-494c-9d1c-91f652402853 {
        fill: #fff;
      }

      .uuid-a227c661-5872-4a18-bf5e-39f1f58df01d, .uuid-d3680d9f-f8fb-4ba5-9fb9-854e0687d7fc {
        stroke-miterlimit: 10;
      }

      .uuid-a227c661-5872-4a18-bf5e-39f1f58df01d, .uuid-d3680d9f-f8fb-4ba5-9fb9-854e0687d7fc, .uuid-441b8c18-14b3-4232-b93e-e6179449b722, .uuid-54e57772-6d48-4cac-a52c-97b501800de4, .uuid-b14d4e1c-c0bf-49d3-a7dc-02d873d7b4a2 {
        stroke: #000;
        stroke-width: 2px;
      }

      .uuid-a227c661-5872-4a18-bf5e-39f1f58df01d, .uuid-d3680d9f-f8fb-4ba5-9fb9-854e0687d7fc, .uuid-441b8c18-14b3-4232-b93e-e6179449b722, .uuid-b14d4e1c-c0bf-49d3-a7dc-02d873d7b4a2 {
        fill: #00dfa9;
      }

      .uuid-d3680d9f-f8fb-4ba5-9fb9-854e0687d7fc, .uuid-441b8c18-14b3-4232-b93e-e6179449b722, .uuid-54e57772-6d48-4cac-a52c-97b501800de4 {
        stroke-linecap: round;
      }

      .uuid-441b8c18-14b3-4232-b93e-e6179449b722, .uuid-54e57772-6d48-4cac-a52c-97b501800de4, .uuid-b14d4e1c-c0bf-49d3-a7dc-02d873d7b4a2 {
        stroke-linejoin: round;
      }

      .uuid-54e57772-6d48-4cac-a52c-97b501800de4 {
        fill: none;
      }
    </style></defs><ellipse cx="300" cy="518.65" rx="138.6" ry="22.93"/><g><path class="uuid-a227c661-5872-4a18-bf5e-39f1f58df01d" d="m319.36,427.14c-1.16,1.05-54.95,57-54.95,57,0,0,21.51-1.95,31.74,10.62,10.23,12.57,7.26,23.89,7.26,23.89h-66.9s-28.69-36.17-28.69-36.17c0,0,3.74-13.4,20.44-10.59,20.9-19.38,55.52-59.13,55.52-59.13l35.59,14.38Z"/><path d="m283.78,412.76l31.28,12.64-3.24,9.5c-2.93,3.03-9.76,10.12-13.64,14.14-11.92,0-27.98-2.13-41.33-6.37,13.95-15.1,26.93-29.92,26.93-29.92Z"/></g><g><path class="uuid-441b8c18-14b3-4232-b93e-e6179449b722" d="m409.81,359.6c9.2,3.77,29.89,12.05,42.79,16.03,2.11.65,4.41.69,6.5-.04,11.79-4.08,28.47-11.39,33.03-11.32,5.25.08,7.8,3.93,19.88,2.04,13.36-2.1,22.43-11.99,20.93-23.3-4.21-43.28-25.18-26.79-25.18-26.79,0,0-5.84-8.75-18.76-4.82-11.83,3.6-10.2,14.44-6.47,22.47l-25.29,8.58c-2.14.72-4.45.71-6.59-.02l-35.7-12.61"/><path class="uuid-d3680d9f-f8fb-4ba5-9fb9-854e0687d7fc" d="m533.36,312.82c2.5,3.94,1.62,9.14-1.57,12.4-2.47,2.53-5.88,3.88-9.32,4.4-2.8.43-5.7.42-8.49-.08-2.14-.39-4.29-1.1-5.79-2.75-1.66-1.83-2.27-4.46-1.98-6.87.51-4.17,3.84-7.14,7.22-9.26,3.17-1.98,6.86-3.26,10.64-3.09,3.8.18,7.36,2.19,9.3,5.24Z"/><path class="uuid-d3680d9f-f8fb-4ba5-9fb9-854e0687d7fc" d="m538.57,349.84c.97,3.03.32,6.43-1.5,9.01-3.77,5.33-11.17,5.65-16.96,4.27-3.31-.79-6.69-2.21-8.67-5.13-3.13-4.61-.82-9.79,3.48-12.56,2.58-1.66,5.61-2.67,8.63-3.14,5.73-.89,13.1,1.51,15.03,7.56Z"/><path class="uuid-d3680d9f-f8fb-4ba5-9fb9-854e0687d7fc" d="m538.71,328.53c1.8,2.99,2.06,6.89.22,9.9-1.95,3.2-4.94,5.25-8.49,6.28-3.66,1.07-7.64,1.27-11.4.44-2.25-.5-4.53-1.38-5.96-3.28-1.86-2.47-1.89-5.68-.85-8.49,1.2-3.24,4.17-5.69,7.09-7.37,6.15-3.56,15.21-4.43,19.39,2.52Z"/><path class="uuid-d3680d9f-f8fb-4ba5-9fb9-854e0687d7fc" d="m501.85,311.68s9.27,3.84,7.77,12.02c-1.04,5.68-8.17,9.55-14.94,6.13"/><path class="uuid-54e57772-6d48-4cac-a52c-97b501800de4" d="m500.67,331.08c2.41,1.63,5.11,8.04,3.4,14.42"/><path d="m443.44,339.88c-2.88,10.58-6.94,20.23-11.17,28.59-10.17-3.78-21.16-9.53-27-11.93l11.83-26.02,26.35,9.36Z"/></g><g><circle class="uuid-a227c661-5872-4a18-bf5e-39f1f58df01d" cx="300" cy="300" r="138.16"/><path class="uuid-b1fa838c-bbeb-494c-9d1c-91f652402853" d="m184.58,308.17c-4.41,0-7.98-3.57-7.98-7.98,0-67.74,55.11-122.86,122.86-122.86,4.41,0,7.98,3.57,7.98,7.98s-3.57,7.98-7.98,7.98c-58.94,0-106.9,47.95-106.9,106.9,0,4.41-3.57,7.98-7.98,7.98Z"/></g><path class="uuid-54e57772-6d48-4cac-a52c-97b501800de4" d="m264.41,484.14c-4.06.49-11.49,1.36-17.85,7.23"/><path class="uuid-b1fa838c-bbeb-494c-9d1c-91f652402853" d="m185.17,308.14c-4.41,0-7.98-3.57-7.98-7.98,0-67.74,55.11-122.86,122.86-122.86,4.41,0,7.98,3.57,7.98,7.98s-3.57,7.98-7.98,7.98c-58.94,0-106.9,47.95-106.9,106.9,0,4.41-3.57,7.98-7.98,7.98Z"/><path d="m203.75,397.46l34.2-27.46-24.86,36.3c-6.73-5.1-3.66-2.61-9.34-8.83Z"/><path class="uuid-b14d4e1c-c0bf-49d3-a7dc-02d873d7b4a2" d="m323.72,387.31c19.14-13.4,39.15-11.3,55.52,7.36,19.6,22.35,30.57,33.06,30.57,33.06,0,0,10.74-19.34,34.77-17.5,18.26,1.4,24.84,14.43,24.84,14.43,0,0,6.21,8.82-22.45,33.5-28.66,24.68-54.93,40.92-61.14,29.46-6.21-11.46-2.82-32.1-2.82-32.1,0,0-22.02-26.09-27.94-32.01-6.79-6.79-15.71-1.36-15.71-1.36"/><path class="uuid-a227c661-5872-4a18-bf5e-39f1f58df01d" d="m446.97,458.17c-25.89,22.29-49.82,37.69-58.79,32.02-9.77-7.44,26.84-38.54,44.88-52.7,18.04-14.16,32.17-17.82,36.36-12.81,0,0,6.21,8.82-22.45,33.5Z"/><path class="uuid-54e57772-6d48-4cac-a52c-97b501800de4" d="m409.81,427.74c-1.89,2.86-4.55,10.38-4.55,10.38"/><g><path class="uuid-441b8c18-14b3-4232-b93e-e6179449b722" d="m214.11,345.7c-8.05,5.83-25.34,20.79-35.52,29.67-1.67,1.45-2.82,3.41-3.39,5.55-3.14,11.67-8.55,33.44-8.55,33.44,0,0-8.42.58-12.19,14.35-3.64,13.3-6.64,25.06,3.77,29.75.35,7.47,7.51,15.45,19.2,9.41.14-.06,1.32,1.32,1.44,1.45,2.64,2.7,6.36,4.45,10.13,4.81,3.65.36,7.61-.67,10.43-3.08,3.29-2.81,5.4-6.94,6.05-11.2.4-2.61.26-5.31-.75-7.78,0,0,6.2-2.51,8.05-11.34,1.99-9.49-4.22-19.42-14.62-18.18l6.17-23.11c.51-2.2,1.74-4.16,3.49-5.59l29.38-24.3"/><path class="uuid-54e57772-6d48-4cac-a52c-97b501800de4" d="m204.73,452.06c-1.37-3.47-5.39-7.08-9-6.88"/><path class="uuid-54e57772-6d48-4cac-a52c-97b501800de4" d="m178.86,469.3c-5.16-5.27-3.82-11.97-2.9-13.54"/><path class="uuid-54e57772-6d48-4cac-a52c-97b501800de4" d="m158.22,458.45c-.27-5.22.73-7.32,3.06-9.83"/><path class="uuid-54e57772-6d48-4cac-a52c-97b501800de4" d="m193.93,450.63c.14-2.07.48-4.16,1.32-6.06.85-1.95,2.36-3.88,4.31-4.85"/></g></svg>
<svg id="uuid-853b1779-0b40-4336-9fd3-56860412922a" data-name="BODY" xmlns="http://www.w3.org/2000/svg" viewBox="0 0 600 600"><defs><style>
      .uuid-270fe1d8-6ffc-45cd-908c-63708945a6da {
        fill: none;
        stroke: #000;
        stroke-linecap: round;
        stroke-miterlimit: 10;
        stroke-width: 4px;
      }
    </style></defs><path class="uuid-270fe1d8-6ffc-45cd-908c-63708945a6da" d="m378.79,259.75c-1.76-5.11-7.33-7.82-12.44-6.06s-7.82,7.33-6.06,12.44"/><circle cx="362.12" cy="293.18" r="9.78" transform="translate(-9.59 12.26) rotate(-1.91)"/><path class="uuid-270fe1d8-6ffc-45cd-908c-63708945a6da" d="m346.88,270.76c-1.76-5.11-7.33-7.82-12.44-6.06-5.11,1.76-7.82,7.33-6.06,12.44"/></svg>
<svg id="uuid-f404ceb8-7c39-4a18-b8b8-115c00c2bd91" data-name="BODY" xmlns="http://www.w3.org/2000/svg" viewBox="0 0 600 600"><defs><style>
      .uuid-f080fb2b-602f-4cf7-92ef-6037f33bace8 {
        fill: #ffff0d;
      }

      .uuid-f080fb2b-602f-4cf7-92ef-6037f33bace8, .uuid-67a4340c-4aab-4dd0-b330-b9e5e8d4b206, .uuid-fa7a50da-85f3-4b12-a5b7-369a35eddd61 {
        stroke: #000;
        stroke-linecap: round;
        stroke-linejoin: round;
        stroke-width: 2px;
      }

      .uuid-67a4340c-4aab-4dd0-b330-b9e5e8d4b206 {
        fill: none;
      }

      .uuid-fa7a50da-85f3-4b12-a5b7-369a35eddd61 {
        fill: #f9a723;
      }
    </style></defs><g id="uuid-cf137c39-0034-439d-adac-e4fa334b472a" data-name="uuid-0c0f6844-9252-4e38-b2ae-1fb7558b546c"><g id="uuid-985784ab-0fe5-462e-b6b7-3d43bf790f20" data-name="uuid-eba7662b-ff04-44ba-9d9b-c9fb86b595ea"><g id="uuid-93bf9e4f-3898-4943-9398-20954131d89e" data-name="uuid-e873324e-4a24-4e75-a94d-0c9fb771f1dc"><g><path class="uuid-fa7a50da-85f3-4b12-a5b7-369a35eddd61" d="m138.51,388.15c-3.22-11.04-6.43-23.51-23.05-29.14-16.62-5.63-31.09,3.22-34.98,18.89-3.89,15.68-4.02,41.1,8.04,58.14s23.18,16.95,32.3,14.58c9.11-2.37,17.02-17.96,17.02-17.96l10.05-24.34s-6.16-9.13-9.38-20.18h0Zm-16.62,1.28c-.67,7.24-10.01,18.89-10.84,26.67-.82,7.77,6.41,17.66,6.55,19.95.13,2.29-.4,3.67-.4,3.67,0,0-15.41.1-19.97-13.44-4.56-13.53,3.08-25.86,3.08-25.86,0,0-6.3-24.66-.13-32.3,14.61-1.74,22.38,14.07,21.71,21.31h0Z"/><path class="uuid-f080fb2b-602f-4cf7-92ef-6037f33bace8" d="m138.51,388.15c-3.22-11.04-6.43-23.51-23.05-29.14-10.38-3.52-19.92-1.38-26.57,4.53,6.66-4.23,20.81-4.13,30.46,5.12,9.65,9.25,13.13,18.36,9.92,31.76-3.22,13.4-8.09,14.34-7.33,22.25.76,7.91,4.65,13.13,3.98,17.69-.65,4.41-2.57,9.46-9.12,11.11,1.38-.2,2.73-.49,4.03-.83,9.11-2.37,17.02-17.96,17.02-17.96l10.05-24.34s-6.16-9.13-9.38-20.18h0Z"/><path class="uuid-f080fb2b-602f-4cf7-92ef-6037f33bace8" d="m117.21,439.72s-15.41.1-19.97-13.44c-4.56-13.53,3.08-25.86,3.08-25.86,0,0-6.3-24.66-.13-32.3h0c-7.5.54-15.14,9.25-9.11,34.71-5.76,13-2.28,29.55,8.44,36.89,10.72,7.33,17.29,3.67,17.69,0h0Z"/><path class="uuid-f080fb2b-602f-4cf7-92ef-6037f33bace8" d="m153.88,408.67s.21,4.54,0,5.65c-.21,1.11-3.94,5.04-5.56,8.37-1.61,3.33-1.61,8.17-1.82,9.48s-3.93,4.04-7.46,3.88c-3.53-.15-7.06-6.91-1.31-20.22,5.75-13.31,16.24-12.41,16.15-7.16h0Z"/><path class="uuid-f080fb2b-602f-4cf7-92ef-6037f33bace8" d="m158.93,419.29c1.9-2.02,0-6.54-2.94-7.1-1.77-.34-4.94-.5-9.28,8.17-4.34,8.67-2,13.38-1.01,14.62,1.61,2.02,6.83,1.11,7.68-2.32.55-2.2.93-3.83,2.37-7.82s3.18-5.56,3.18-5.56h0Z"/><path class="uuid-f080fb2b-602f-4cf7-92ef-6037f33bace8" d="m153.38,432.67s1.44-8.2,5.55-13.38l-4.15-2.26s-1.48.91-3.72,6.05c-2.24,5.14-2.24,7.36-2.24,7.36l4.55,2.22h0Z"/><path class="uuid-f080fb2b-602f-4cf7-92ef-6037f33bace8" d="m193.93,450.63c.19-6.04,3.41-9.84,5.62-10.91,0,0,12.42.33,17.34-.51,4.92-.84,6.77,5.2,1.86,15.31s-7.52,12.77-10.39,10.92c-3.32-2.14-2.49-6.17-14.43-14.81h0Z"/><path class="uuid-f080fb2b-602f-4cf7-92ef-6037f33bace8" d="m224.52,458.18c-5.38,11.37-14.69,6.69-9.41-4.53,5.28-11.22,15.26-7.82,9.41,4.53Z"/><g><path class="uuid-f080fb2b-602f-4cf7-92ef-6037f33bace8" d="m232.45,463.74v7.7s15.21,8.44,17.86,10.28c3.51,2.42,1.94,7.69,1.94,7.69l-10.66-5.27-6.59,2.46-1.38,16.04,23.22,12.96,5.25-3.08.74-7.42s7.33,2.53,8.07,5.83c.74,3.29-.74,10.94-.74,10.94l25.18,12.85,5.74-2.44,4.04-17.32s-13.39-5.95-14.98-7.65-1.59-6.48-1.59-6.48c0,0,2.12-.74,5.63,1.06s14.02,6.59,14.02,6.59l7.57-2.18.93-4.09-84.26-38.48h0Z"/><g><path class="uuid-fa7a50da-85f3-4b12-a5b7-369a35eddd61" d="m256.85,515.61l5.25-3.08.74-7.42c-4.16-1.56-4.99-1.23-5.99,10.5Z"/><polygon class="uuid-fa7a50da-85f3-4b12-a5b7-369a35eddd61" points="308.21 508.49 315.78 506.31 316.7 502.22 310.06 499.19 308.21 508.49"/><path class="uuid-fa7a50da-85f3-4b12-a5b7-369a35eddd61" d="m301.09,532.29l4.04-17.32s-13.39-5.95-14.98-7.65c-1.59-1.7-1.59-6.48-1.59-6.48-5.36.04-5.98,6.95-3.14,9.63,2.83,2.68,13.5,7.43,13.5,7.43l-3.56,16.83,5.74-2.44h0Z"/><path class="uuid-fa7a50da-85f3-4b12-a5b7-369a35eddd61" d="m252.25,489.41l-10.65-5.27-6.59,2.46s8.4,3.91,11.55,5.7c3.15,1.79,5.4-1.25,5.69-2.89h0Z"/></g></g><g><path class="uuid-f080fb2b-602f-4cf7-92ef-6037f33bace8" d="m218.25,460.55l106.4,49.92s4.24.66,6.38-3.76c2.14-4.42-.3-6.75-.3-6.75l-107.49-49.32s-4.94,2.52-4.99,9.92h0Z"/><path class="uuid-67a4340c-4aab-4dd0-b330-b9e5e8d4b206" d="m330.72,499.95c-3.94-1.81-9.58,8.59-6.08,10.52"/></g></g></g></g></g></svg>
<svg id="uuid-b86e4cbe-7f03-4745-ba6f-e4bbc34688fe" data-name="BODY" xmlns="http://www.w3.org/2000/svg" xmlns:xlink="http://www.w3.org/1999/xlink" viewBox="0 0 600 600"><defs><style>
      .uuid-04762781-8186-4ed2-baf1-f857ced1e0b2, .uuid-149eec6d-4f9d-4896-a106-a4156b50f562, .uuid-08a6c331-4618-44ee-9952-8ffa4e0c4160, .uuid-f8f6917d-050d-460b-a02b-714b9c75d550, .uuid-4bf8e94b-17ea-4547-8d82-b038228e741d {
        fill: none;
      }

      .uuid-149eec6d-4f9d-4896-a106-a4156b50f562 {
        clip-path: url(#uuid-2e72cd1b-fdab-4f81-b8e4-6702d6b9af87);
      }

      .uuid-08a6c331-4618-44ee-9952-8ffa4e0c4160 {
        opacity: .5;
      }

      .uuid-228d3895-0778-49c8-83d3-30dfba100097 {
        fill: #f9a723;
      }

      .uuid-c83b020e-f705-48cb-b7c0-f9c8b022d30e {
        fill: #ffff0d;
      }

      .uuid-ad6c224e-0faa-4e21-854d-c5af1dadf6bc {
        fill: #9dff0c;
      }

      .uuid-2ff116f9-003d-4be2-a2d8-3bde47bf1bad {
        stroke-width: 2px;
      }

      .uuid-2ff116f9-003d-4be2-a2d8-3bde47bf1bad, .uuid-dac2b130-be88-462b-b470-d741f5c5d6da {
        fill: #00dfa9;
      }

      .uuid-2ff116f9-003d-4be2-a2d8-3bde47bf1bad, .uuid-dac2b130-be88-462b-b470-d741f5c5d6da, .uuid-4bf8e94b-17ea-4547-8d82-b038228e741d {
        stroke: #000;
        stroke-linecap: round;
        stroke-linejoin: round;
      }

      .uuid-dac2b130-be88-462b-b470-d741f5c5d6da, .uuid-4bf8e94b-17ea-4547-8d82-b038228e741d {
        stroke-width: 2px;
      }

      .uuid-f8f6917d-050d-460b-a02b-714b9c75d550 {
        clip-path: url(#uuid-e9dd4566-59bc-434a-9bd4-054fa7e89a9b);
      }
    </style><clipPath id="uuid-e9dd4566-59bc-434a-9bd4-054fa7e89a9b"><path class="uuid-04762781-8186-4ed2-baf1-f857ced1e0b2" d="m498.37,310.73l-4.5-25.52,11.93-2.1,5.21,29.56c-1.02.95-2.29,2.19-3.27,3.31,0,0-3.34-3.93-9.37-5.26h0Zm17.67,33.69c-8.9-6.88-1.98-14.48-1.98-14.48,0,0-3.93-.74-5.6-2.81-2.36,2.77-4.89,3.75-6.47,4.1l12.07,68.44,11.93-2.1-6.09-34.55c-13.34-3.46-11.97-13.85-3.85-18.6Z"/></clipPath><clipPath id="uuid-2e72cd1b-fdab-4f81-b8e4-6702d6b9af87"><polygon class="uuid-04762781-8186-4ed2-baf1-f857ced1e0b2" points="491.78 238.48 506.31 258.29 530.87 257.55 516.52 277.5 524.82 300.62 501.42 293.14 481.98 308.18 481.87 283.61 461.56 269.77 484.9 262.07 491.78 238.48"/></clipPath></defs><g id="uuid-31aa461f-c31d-4f84-9021-f7584a52c7ff" data-name="uuid-05a871f0-c9cf-4aac-9586-bf584656164d"><g id="uuid-f94554ab-e65b-452c-86e5-d9a4ed313404" data-name="uuid-9f8862e7-91e0-4d66-aff9-c612ab9ab165"><g><path class="uuid-ad6c224e-0faa-4e21-854d-c5af1dadf6bc" d="m498.37,310.73l-4.5-25.52,11.93-2.1,5.21,29.56c-1.02.95-2.29,2.19-3.27,3.31,0,0-3.34-3.93-9.37-5.26h0Zm17.67,33.69c-8.9-6.88-1.98-14.48-1.98-14.48,0,0-3.93-.74-5.6-2.81-2.36,2.77-4.89,3.75-6.47,4.1l12.07,68.44,11.93-2.1-6.09-34.55c-13.34-3.46-11.97-13.85-3.85-18.6Z"/><g class="uuid-f8f6917d-050d-460b-a02b-714b9c75d550"><g><path class="uuid-dac2b130-be88-462b-b470-d741f5c5d6da" d="m502.79,335.82c3.5-4.83,7.37-8.54,10.35-11.04l-2.53-14.33c-3.14,2.56-7,6.13-10.44,10.53l2.62,14.84h0Z"/><path class="uuid-dac2b130-be88-462b-b470-d741f5c5d6da" d="m507.52,362.63c3.5-4.83,7.37-8.54,10.35-11.04l-2.53-14.33c-3.14,2.56-7,6.13-10.44,10.53l2.62,14.84h0Z"/><path class="uuid-dac2b130-be88-462b-b470-d741f5c5d6da" d="m505.89,283.64c-3.14,2.56-7,6.13-10.44,10.53l2.62,14.84c3.5-4.83,7.37-8.54,10.35-11.04l-2.53-14.33Z"/><path class="uuid-dac2b130-be88-462b-b470-d741f5c5d6da" d="m522.6,378.39l-2.53-14.33c-3.14,2.56-7,6.13-10.44,10.53l2.62,14.84c3.5-4.83,7.37-8.54,10.35-11.04Z"/></g></g><path class="uuid-4bf8e94b-17ea-4547-8d82-b038228e741d" d="m498.37,310.73l-4.5-25.52,11.93-2.1,5.21,29.56c-1.02.95-2.29,2.19-3.27,3.31,0,0-3.34-3.93-9.37-5.26h0Zm17.67,33.69c-8.9-6.88-1.98-14.48-1.98-14.48,0,0-3.93-.74-5.6-2.81-2.36,2.77-4.89,3.75-6.47,4.1l12.07,68.44,11.93-2.1-6.09-34.55c-13.34-3.46-11.97-13.85-3.85-18.6Z"/></g><ellipse class="uuid-2ff116f9-003d-4be2-a2d8-3bde47bf1bad" cx="520.02" cy="398.62" rx="6.06" ry="4.84" transform="translate(-61.32 96.36) rotate(-10)"/><g><polygon class="uuid-c83b020e-f705-48cb-b7c0-f9c8b022d30e" points="491.78 238.48 506.31 258.29 530.87 257.55 516.52 277.5 524.82 300.62 501.42 293.14 481.98 308.18 481.87 283.61 461.56 269.77 484.9 262.07 491.78 238.48"/><g class="uuid-149eec6d-4f9d-4896-a106-a4156b50f562"><g><polygon class="uuid-228d3895-0778-49c8-83d3-30dfba100097" points="484.9 262.07 497.59 271.44 491.78 238.48 484.9 262.07"/><polygon class="uuid-228d3895-0778-49c8-83d3-30dfba100097" points="501.42 293.14 497.59 271.44 481.98 308.18 501.42 293.14"/><polygon class="uuid-228d3895-0778-49c8-83d3-30dfba100097" points="481.87 283.61 497.59 271.44 461.56 269.77 481.87 283.61"/><polygon class="uuid-228d3895-0778-49c8-83d3-30dfba100097" points="506.31 258.29 497.59 271.44 530.87 257.55 506.31 258.29"/><polygon class="uuid-228d3895-0778-49c8-83d3-30dfba100097" points="497.59 271.44 524.82 300.62 516.52 277.5 497.59 271.44"/></g></g><polygon class="uuid-4bf8e94b-17ea-4547-8d82-b038228e741d" points="491.78 238.48 506.31 258.29 530.87 257.55 516.52 277.5 524.82 300.62 501.42 293.14 481.98 308.18 481.87 283.61 461.56 269.77 484.9 262.07 491.78 238.48"/></g><g class="uuid-08a6c331-4618-44ee-9952-8ffa4e0c4160"><line class="uuid-4bf8e94b-17ea-4547-8d82-b038228e741d" x1="476.5" y1="287.43" x2="466.18" y2="293.6"/><line class="uuid-4bf8e94b-17ea-4547-8d82-b038228e741d" x1="476.5" y1="254.77" x2="466.18" y2="248.2"/><line class="uuid-4bf8e94b-17ea-4547-8d82-b038228e741d" x1="512.4" y1="248.8" x2="519.47" y2="240.41"/><line class="uuid-4bf8e94b-17ea-4547-8d82-b038228e741d" x1="526.55" y1="277.93" x2="539.19" y2="281.87"/><circle class="uuid-4bf8e94b-17ea-4547-8d82-b038228e741d" cx="457.75" cy="258.18" r="4.58"/><circle cx="458.4" cy="284.06" r="2.05"/><circle cx="540.65" cy="250.25" r="2.05"/><circle cx="548.64" cy="268.25" r="2.05"/><circle class="uuid-4bf8e94b-17ea-4547-8d82-b038228e741d" cx="534.81" cy="293.6" r="4.58"/><g><line class="uuid-4bf8e94b-17ea-4547-8d82-b038228e741d" x1="505.29" y1="228.15" x2="508.78" y2="236.99"/><line class="uuid-4bf8e94b-17ea-4547-8d82-b038228e741d" x1="511.46" y1="230.83" x2="502.61" y2="234.31"/></g><g><line class="uuid-4bf8e94b-17ea-4547-8d82-b038228e741d" x1="471.12" y1="301.37" x2="470.09" y2="310.82"/><line class="uuid-4bf8e94b-17ea-4547-8d82-b038228e741d" x1="475.33" y1="306.61" x2="465.88" y2="305.58"/></g></g></g></g></svg>
</svg>