<?xml version="1.0" encoding="UTF-8"?>
<svg xmlns="http://www.w3.org/2000/svg" viewBox="0 0 600 600">
<svg id="uuid-2ebc4e2e-813a-485c-9454-52c68b62da26" data-name="BACKGROUND" xmlns="http://www.w3.org/2000/svg" viewBox="0 0 600 600"><defs><style>
      .uuid-eb841eac-0e7b-47b1-8e78-e5724f1a9b43 {
        fill: #ffff0d;
      }
    </style></defs><rect class="uuid-eb841eac-0e7b-47b1-8e78-e5724f1a9b43" x="-1" y="-1" width="602" height="602"/></svg>
<svg id="uuid-79ae8300-360b-4786-a450-139d88b9bd1b" data-name="BACKGROUND" xmlns="http://www.w3.org/2000/svg" viewBox="0 0 600 600"><defs><style>
      .uuid-bb790ef4-3482-4c16-9212-ca22a42e94c3, .uuid-ce21024d-8548-4b65-8289-134ddf374839 {
        fill: #fff;
      }

      .uuid-30451256-22b5-42b4-8d7c-d574d31a414e, .uuid-ce21024d-8548-4b65-8289-134ddf374839, .uuid-ec441505-d704-4a03-88d5-730631e1d0ab, .uuid-4dc48eb6-7162-43bb-b26b-b457b7eed207, .uuid-69c06034-4b4b-451d-b5db-874d58b2df8d, .uuid-488e563d-fac1-4f7c-b70d-f33aa7f157d6, .uuid-2c7f611f-0762-4166-ba69-0c8fa63a7c69 {
        stroke: #000;
        stroke-width: 2px;
      }

      .uuid-30451256-22b5-42b4-8d7c-d574d31a414e, .uuid-ce21024d-8548-4b65-8289-134ddf374839, .uuid-4dc48eb6-7162-43bb-b26b-b457b7eed207, .uuid-69c06034-4b4b-451d-b5db-874d58b2df8d, .uuid-488e563d-fac1-4f7c-b70d-f33aa7f157d6 {
        stroke-linecap: round;
      }

      .uuid-30451256-22b5-42b4-8d7c-d574d31a414e, .uuid-ec441505-d704-4a03-88d5-730631e1d0ab, .uuid-69c06034-4b4b-451d-b5db-874d58b2df8d, .uuid-2c7f611f-0762-4166-ba69-0c8fa63a7c69 {
        fill: #3ef1ff;
      }

      .uuid-30451256-22b5-42b4-8d7c-d574d31a414e, .uuid-4dc48eb6-7162-43bb-b26b-b457b7eed207, .uuid-2c7f611f-0762-4166-ba69-0c8fa63a7c69 {
        stroke-linejoin: round;
      }

      .uuid-ce21024d-8548-4b65-8289-134ddf374839, .uuid-ec441505-d704-4a03-88d5-730631e1d0ab, .uuid-69c06034-4b4b-451d-b5db-874d58b2df8d, .uuid-488e563d-fac1-4f7c-b70d-f33aa7f157d6 {
        stroke-miterlimit: 10;
      }

      .uuid-4dc48eb6-7162-43bb-b26b-b457b7eed207 {
        fill: none;
      }

      .uuid-488e563d-fac1-4f7c-b70d-f33aa7f157d6 {
        fill: #f9a723;
      }
    </style></defs><path class="uuid-30451256-22b5-42b4-8d7c-d574d31a414e" d="m409.81,359.6c9.2,3.77,29.89,12.05,42.79,16.03,2.11.65,4.41.69,6.5-.04,11.79-4.08,28.47-11.39,33.03-11.32,5.25.08,7.8,3.93,19.88,2.04,13.36-2.1,22.43-11.99,20.93-23.3-4.21-43.28-25.18-26.79-25.18-26.79,0,0-5.84-8.75-18.76-4.82-11.83,3.6-10.2,14.44-6.47,22.47l-25.29,8.58c-2.14.72-4.45.71-6.59-.02l-35.7-12.61"/><path class="uuid-69c06034-4b4b-451d-b5db-874d58b2df8d" d="m533.36,312.82c2.5,3.94,1.62,9.14-1.57,12.4-2.47,2.53-5.88,3.88-9.32,4.4-2.8.43-5.7.42-8.49-.08-2.14-.39-4.29-1.1-5.79-2.75-1.66-1.83-2.27-4.46-1.98-6.87.51-4.17,3.84-7.14,7.22-9.26,3.17-1.98,6.86-3.26,10.64-3.09,3.8.18,7.36,2.19,9.3,5.24Z"/><path class="uuid-69c06034-4b4b-451d-b5db-874d58b2df8d" d="m538.57,349.84c.97,3.03.32,6.43-1.5,9.01-3.77,5.33-11.17,5.65-16.96,4.27-3.31-.79-6.69-2.21-8.67-5.13-3.13-4.61-.82-9.79,3.48-12.56,2.58-1.66,5.61-2.67,8.63-3.14,5.73-.89,13.1,1.51,15.03,7.56Z"/><path class="uuid-69c06034-4b4b-451d-b5db-874d58b2df8d" d="m538.71,328.53c1.8,2.99,2.06,6.89.22,9.9-1.95,3.2-4.94,5.25-8.49,6.28-3.66,1.07-7.64,1.27-11.4.44-2.25-.5-4.53-1.38-5.96-3.28-1.86-2.47-1.89-5.68-.85-8.49,1.2-3.24,4.17-5.69,7.09-7.37,6.15-3.56,15.21-4.43,19.39,2.52Z"/><path class="uuid-69c06034-4b4b-451d-b5db-874d58b2df8d" d="m501.85,311.68s9.27,3.84,7.77,12.02c-1.04,5.68-8.17,9.55-14.94,6.13"/><path class="uuid-4dc48eb6-7162-43bb-b26b-b457b7eed207" d="m500.67,331.08c2.41,1.63,5.11,8.04,3.4,14.42"/><path d="m443.44,339.88c-2.88,10.58-6.94,20.23-11.17,28.59-10.17-3.78-21.16-9.53-27-11.93l11.83-26.02,26.35,9.36Z"/><ellipse cx="300" cy="518.65" rx="138.6" ry="22.93"/><path class="uuid-ec441505-d704-4a03-88d5-730631e1d0ab" d="m319.36,427.14c-1.16,1.05-54.95,57-54.95,57,0,0,21.51-1.95,31.74,10.62,10.23,12.57,7.26,23.89,7.26,23.89h-66.9s-28.69-36.17-28.69-36.17c0,0,3.74-13.4,20.44-10.59,20.9-19.38,55.52-59.13,55.52-59.13l35.59,14.38Z"/><path d="m283.78,412.76l31.28,12.64-3.24,9.5c-2.93,3.03-9.76,10.12-13.64,14.14-11.92,0-27.98-2.13-41.33-6.37,13.95-15.1,26.93-29.92,26.93-29.92Z"/><path class="uuid-ec441505-d704-4a03-88d5-730631e1d0ab" d="m354.45,173.54l-.11.27-174.2,58.29c-11.49,20.13-18.05,43.43-18.05,68.27,0,76.2,61.77,137.98,137.97,137.98s137.98-61.77,137.98-137.98c0-56.89-34.43-105.72-83.58-126.83Z"/><path class="uuid-4dc48eb6-7162-43bb-b26b-b457b7eed207" d="m264.41,484.14c-4.06.49-11.49,1.36-17.85,7.23"/><path class="uuid-bb790ef4-3482-4c16-9212-ca22a42e94c3" d="m185.17,308.14c-4.41,0-7.98-3.57-7.98-7.98,0-67.74,55.11-122.86,122.86-122.86,4.41,0,7.98,3.57,7.98,7.98s-3.57,7.98-7.98,7.98c-58.94,0-106.9,47.95-106.9,106.9,0,4.41-3.57,7.98-7.98,7.98Z"/><path d="m203.75,397.46l34.2-27.46-24.86,36.3c-6.73-5.1-3.66-2.61-9.34-8.83Z"/><path class="uuid-2c7f611f-0762-4166-ba69-0c8fa63a7c69" d="m323.72,387.31c19.14-13.4,39.15-11.3,55.52,7.36,19.6,22.35,30.57,33.06,30.57,33.06,0,0,10.74-19.34,34.77-17.5,18.26,1.4,24.84,14.43,24.84,14.43,0,0,6.21,8.82-22.45,33.5-28.66,24.68-54.93,40.92-61.14,29.46-6.21-11.46-2.82-32.1-2.82-32.1,0,0-22.02-26.09-27.94-32.01-6.79-6.79-15.71-1.36-15.71-1.36"/><path class="uuid-ec441505-d704-4a03-88d5-730631e1d0ab" d="m446.97,458.17c-25.89,22.29-49.82,37.69-58.79,32.02-9.77-7.44,26.84-38.54,44.88-52.7,18.04-14.16,32.17-17.82,36.36-12.81,0,0,6.21,8.82-22.45,33.5Z"/><path class="uuid-4dc48eb6-7162-43bb-b26b-b457b7eed207" d="m409.81,427.74c-1.89,2.86-4.55,10.38-4.55,10.38"/><ellipse class="uuid-ce21024d-8548-4b65-8289-134ddf374839" cx="269.41" cy="209.07" rx="94.9" ry="26.25" transform="translate(-52.5 96.54) rotate(-18.55)"/><ellipse class="uuid-488e563d-fac1-4f7c-b70d-f33aa7f157d6" cx="269.41" cy="209.07" rx="71.19" ry="13.32" transform="translate(-52.5 96.54) rotate(-18.55)"/><g><path class="uuid-30451256-22b5-42b4-8d7c-d574d31a414e" d="m214.11,345.7c-8.05,5.83-25.34,20.79-35.52,29.67-1.67,1.45-2.82,3.41-3.39,5.55-3.14,11.67-8.55,33.44-8.55,33.44,0,0-8.42.58-12.19,14.35-3.64,13.3-6.64,25.06,3.77,29.75.35,7.47,7.51,15.45,19.2,9.41.14-.06,1.32,1.32,1.44,1.45,2.64,2.7,6.36,4.45,10.13,4.81,3.65.36,7.61-.67,10.43-3.08,3.29-2.81,5.4-6.94,6.05-11.2.4-2.61.26-5.31-.75-7.78,0,0,6.2-2.51,8.05-11.34,1.99-9.49-4.22-19.42-14.62-18.18l6.17-23.11c.51-2.2,1.74-4.16,3.49-5.59l29.38-24.3"/><path class="uuid-4dc48eb6-7162-43bb-b26b-b457b7eed207" d="m204.73,452.06c-1.37-3.47-5.39-7.08-9-6.88"/><path class="uuid-4dc48eb6-7162-43bb-b26b-b457b7eed207" d="m178.86,469.3c-5.16-5.27-3.82-11.97-2.9-13.54"/><path class="uuid-4dc48eb6-7162-43bb-b26b-b457b7eed207" d="m158.22,458.45c-.27-5.22.73-7.32,3.06-9.83"/><path class="uuid-4dc48eb6-7162-43bb-b26b-b457b7eed207" d="m193.93,450.63c.14-2.07.48-4.16,1.32-6.06.85-1.95,2.36-3.88,4.31-4.85"/></g></svg>
<svg id="uuid-783ed389-68eb-43cd-8772-5f49b9e71529" data-name="BODY" xmlns="http://www.w3.org/2000/svg" viewBox="0 0 600 600"><defs><style>
      .uuid-f7dbff45-408d-444d-ade6-4633d32cb1f2 {
        fill: none;
        stroke: #000;
        stroke-linecap: round;
        stroke-linejoin: round;
        stroke-width: 4px;
      }
    </style></defs><g id="uuid-4bc92f06-c84b-4f7f-af09-c2014f1ce8f9" data-name="mouth"><path d="m371.37,289.99c1.76,5.11-.95,10.68-6.06,12.44s-10.68-.95-12.44-6.06l18.49-6.38Z"/></g><g id="uuid-285df2d9-fba6-4a75-9123-94e1b459206d" data-name="eye L"><path class="uuid-f7dbff45-408d-444d-ade6-4633d32cb1f2" d="m346.88,270.76c1.76,5.11-.95,10.68-6.06,12.44s-10.68-.95-12.44-6.06"/></g><g id="uuid-a97f4a4e-8c90-4af2-892b-9ce222650c5a" data-name="eye R"><path class="uuid-f7dbff45-408d-444d-ade6-4633d32cb1f2" d="m378.79,259.75c1.76,5.11-.95,10.68-6.06,12.44-5.11,1.76-10.68-.95-12.44-6.06"/></g></svg>
<svg id="uuid-1814dd4d-896f-43a9-8cc5-9df7690e94a2" data-name="BACKGROUND" xmlns="http://www.w3.org/2000/svg" viewBox="0 0 600 600"><defs><style>
      .uuid-3be35196-23eb-415c-bbdf-01577589215b {
        fill: #ffff0d;
        stroke: #000;
        stroke-linecap: round;
        stroke-linejoin: round;
        stroke-width: 2px;
      }
    </style></defs><path class="uuid-3be35196-23eb-415c-bbdf-01577589215b" d="m375.86,319.37c-14.26,7.96-19.36,25.98-11.4,40.24,7.96,14.26,25.98,19.36,40.24,11.4,14.26-7.96,19.36-25.98,11.4-40.24-7.96-14.26-25.98-19.36-40.24-11.4Zm-.03,6.32l10.52,18.84-6.41,22.61c-4.44-2.08-8.29-5.52-10.86-10.12-6.02-10.78-2.93-24.18,6.75-31.33Zm9.99,43.35l4.79-16.89,8.69,15.57c-4.39,1.76-9.06,2.15-13.48,1.32Zm18.87-4.32l-8.9-15.94,17.51,4.1c-1.55,4.62-4.47,8.8-8.6,11.84Zm9.8-17.89l-22.77-5.34-10.5-18.81c11.18-4.52,24.23-.12,30.26,10.68,2.38,4.26,3.33,8.94,3.02,13.47Z"/><circle class="uuid-3be35196-23eb-415c-bbdf-01577589215b" cx="420.18" cy="318.72" r="8.31"/><circle class="uuid-3be35196-23eb-415c-bbdf-01577589215b" cx="436.89" cy="310.38" r="8.31"/><circle class="uuid-3be35196-23eb-415c-bbdf-01577589215b" cx="350.39" cy="343.04" r="8.31"/><circle class="uuid-3be35196-23eb-415c-bbdf-01577589215b" cx="332" cy="346.35" r="8.31"/><circle class="uuid-3be35196-23eb-415c-bbdf-01577589215b" cx="313.56" cy="349.17" r="8.31"/><circle class="uuid-3be35196-23eb-415c-bbdf-01577589215b" cx="295.1" cy="351.34" r="8.31"/><circle class="uuid-3be35196-23eb-415c-bbdf-01577589215b" cx="276.49" cy="352.43" r="8.31"/><circle class="uuid-3be35196-23eb-415c-bbdf-01577589215b" cx="257.85" cy="352.14" r="8.31"/><circle class="uuid-3be35196-23eb-415c-bbdf-01577589215b" cx="239.26" cy="352.14" r="8.31"/><circle class="uuid-3be35196-23eb-415c-bbdf-01577589215b" cx="220.83" cy="349.72" r="8.31"/><circle class="uuid-3be35196-23eb-415c-bbdf-01577589215b" cx="202.35" cy="347.91" r="8.31"/><circle class="uuid-3be35196-23eb-415c-bbdf-01577589215b" cx="184.1" cy="344.29" r="8.31"/><circle class="uuid-3be35196-23eb-415c-bbdf-01577589215b" cx="165.96" cy="340.27" r="8.31"/></svg>
<svg id="uuid-b86e4cbe-7f03-4745-ba6f-e4bbc34688fe" data-name="BODY" xmlns="http://www.w3.org/2000/svg" xmlns:xlink="http://www.w3.org/1999/xlink" viewBox="0 0 600 600"><defs><style>
      .uuid-04762781-8186-4ed2-baf1-f857ced1e0b2, .uuid-149eec6d-4f9d-4896-a106-a4156b50f562, .uuid-08a6c331-4618-44ee-9952-8ffa4e0c4160, .uuid-f8f6917d-050d-460b-a02b-714b9c75d550, .uuid-4bf8e94b-17ea-4547-8d82-b038228e741d {
        fill: none;
      }

      .uuid-149eec6d-4f9d-4896-a106-a4156b50f562 {
        clip-path: url(#uuid-2e72cd1b-fdab-4f81-b8e4-6702d6b9af87);
      }

      .uuid-08a6c331-4618-44ee-9952-8ffa4e0c4160 {
        opacity: .5;
      }

      .uuid-228d3895-0778-49c8-83d3-30dfba100097 {
        fill: #f9a723;
      }

      .uuid-c83b020e-f705-48cb-b7c0-f9c8b022d30e {
        fill: #ffff0d;
      }

      .uuid-ad6c224e-0faa-4e21-854d-c5af1dadf6bc {
        fill: #9dff0c;
      }

      .uuid-2ff116f9-003d-4be2-a2d8-3bde47bf1bad {
        stroke-width: 2px;
      }

      .uuid-2ff116f9-003d-4be2-a2d8-3bde47bf1bad, .uuid-dac2b130-be88-462b-b470-d741f5c5d6da {
        fill: #00dfa9;
      }

      .uuid-2ff116f9-003d-4be2-a2d8-3bde47bf1bad, .uuid-dac2b130-be88-462b-b470-d741f5c5d6da, .uuid-4bf8e94b-17ea-4547-8d82-b038228e741d {
        stroke: #000;
        stroke-linecap: round;
        stroke-linejoin: round;
      }

      .uuid-dac2b130-be88-462b-b470-d741f5c5d6da, .uuid-4bf8e94b-17ea-4547-8d82-b038228e741d {
        stroke-width: 2px;
      }

      .uuid-f8f6917d-050d-460b-a02b-714b9c75d550 {
        clip-path: url(#uuid-e9dd4566-59bc-434a-9bd4-054fa7e89a9b);
      }
    </style><clipPath id="uuid-e9dd4566-59bc-434a-9bd4-054fa7e89a9b"><path class="uuid-04762781-8186-4ed2-baf1-f857ced1e0b2" d="m498.37,310.73l-4.5-25.52,11.93-2.1,5.21,29.56c-1.02.95-2.29,2.19-3.27,3.31,0,0-3.34-3.93-9.37-5.26h0Zm17.67,33.69c-8.9-6.88-1.98-14.48-1.98-14.48,0,0-3.93-.74-5.6-2.81-2.36,2.77-4.89,3.75-6.47,4.1l12.07,68.44,11.93-2.1-6.09-34.55c-13.34-3.46-11.97-13.85-3.85-18.6Z"/></clipPath><clipPath id="uuid-2e72cd1b-fdab-4f81-b8e4-6702d6b9af87"><polygon class="uuid-04762781-8186-4ed2-baf1-f857ced1e0b2" points="491.78 238.48 506.31 258.29 530.87 257.55 516.52 277.5 524.82 300.62 501.42 293.14 481.98 308.18 481.87 283.61 461.56 269.77 484.9 262.07 491.78 238.48"/></clipPath></defs><g id="uuid-31aa461f-c31d-4f84-9021-f7584a52c7ff" data-name="uuid-05a871f0-c9cf-4aac-9586-bf584656164d"><g id="uuid-f94554ab-e65b-452c-86e5-d9a4ed313404" data-name="uuid-9f8862e7-91e0-4d66-aff9-c612ab9ab165"><g><path class="uuid-ad6c224e-0faa-4e21-854d-c5af1dadf6bc" d="m498.37,310.73l-4.5-25.52,11.93-2.1,5.21,29.56c-1.02.95-2.29,2.19-3.27,3.31,0,0-3.34-3.93-9.37-5.26h0Zm17.67,33.69c-8.9-6.88-1.98-14.48-1.98-14.48,0,0-3.93-.74-5.6-2.81-2.36,2.77-4.89,3.75-6.47,4.1l12.07,68.44,11.93-2.1-6.09-34.55c-13.34-3.46-11.97-13.85-3.85-18.6Z"/><g class="uuid-f8f6917d-050d-460b-a02b-714b9c75d550"><g><path class="uuid-dac2b130-be88-462b-b470-d741f5c5d6da" d="m502.79,335.82c3.5-4.83,7.37-8.54,10.35-11.04l-2.53-14.33c-3.14,2.56-7,6.13-10.44,10.53l2.62,14.84h0Z"/><path class="uuid-dac2b130-be88-462b-b470-d741f5c5d6da" d="m507.52,362.63c3.5-4.83,7.37-8.54,10.35-11.04l-2.53-14.33c-3.14,2.56-7,6.13-10.44,10.53l2.62,14.84h0Z"/><path class="uuid-dac2b130-be88-462b-b470-d741f5c5d6da" d="m505.89,283.64c-3.14,2.56-7,6.13-10.44,10.53l2.62,14.84c3.5-4.83,7.37-8.54,10.35-11.04l-2.53-14.33Z"/><path class="uuid-dac2b130-be88-462b-b470-d741f5c5d6da" d="m522.6,378.39l-2.53-14.33c-3.14,2.56-7,6.13-10.44,10.53l2.62,14.84c3.5-4.83,7.37-8.54,10.35-11.04Z"/></g></g><path class="uuid-4bf8e94b-17ea-4547-8d82-b038228e741d" d="m498.37,310.73l-4.5-25.52,11.93-2.1,5.21,29.56c-1.02.95-2.29,2.19-3.27,3.31,0,0-3.34-3.93-9.37-5.26h0Zm17.67,33.69c-8.9-6.88-1.98-14.48-1.98-14.48,0,0-3.93-.74-5.6-2.81-2.36,2.77-4.89,3.75-6.47,4.1l12.07,68.44,11.93-2.1-6.09-34.55c-13.34-3.46-11.97-13.85-3.85-18.6Z"/></g><ellipse class="uuid-2ff116f9-003d-4be2-a2d8-3bde47bf1bad" cx="520.02" cy="398.62" rx="6.06" ry="4.84" transform="translate(-61.32 96.36) rotate(-10)"/><g><polygon class="uuid-c83b020e-f705-48cb-b7c0-f9c8b022d30e" points="491.78 238.48 506.31 258.29 530.87 257.55 516.52 277.5 524.82 300.62 501.42 293.14 481.98 308.18 481.87 283.61 461.56 269.77 484.9 262.07 491.78 238.48"/><g class="uuid-149eec6d-4f9d-4896-a106-a4156b50f562"><g><polygon class="uuid-228d3895-0778-49c8-83d3-30dfba100097" points="484.9 262.07 497.59 271.44 491.78 238.48 484.9 262.07"/><polygon class="uuid-228d3895-0778-49c8-83d3-30dfba100097" points="501.42 293.14 497.59 271.44 481.98 308.18 501.42 293.14"/><polygon class="uuid-228d3895-0778-49c8-83d3-30dfba100097" points="481.87 283.61 497.59 271.44 461.56 269.77 481.87 283.61"/><polygon class="uuid-228d3895-0778-49c8-83d3-30dfba100097" points="506.31 258.29 497.59 271.44 530.87 257.55 506.31 258.29"/><polygon class="uuid-228d3895-0778-49c8-83d3-30dfba100097" points="497.59 271.44 524.82 300.62 516.52 277.5 497.59 271.44"/></g></g><polygon class="uuid-4bf8e94b-17ea-4547-8d82-b038228e741d" points="491.78 238.48 506.31 258.29 530.87 257.55 516.52 277.5 524.82 300.62 501.42 293.14 481.98 308.18 481.87 283.61 461.56 269.77 484.9 262.07 491.78 238.48"/></g><g class="uuid-08a6c331-4618-44ee-9952-8ffa4e0c4160"><line class="uuid-4bf8e94b-17ea-4547-8d82-b038228e741d" x1="476.5" y1="287.43" x2="466.18" y2="293.6"/><line class="uuid-4bf8e94b-17ea-4547-8d82-b038228e741d" x1="476.5" y1="254.77" x2="466.18" y2="248.2"/><line class="uuid-4bf8e94b-17ea-4547-8d82-b038228e741d" x1="512.4" y1="248.8" x2="519.47" y2="240.41"/><line class="uuid-4bf8e94b-17ea-4547-8d82-b038228e741d" x1="526.55" y1="277.93" x2="539.19" y2="281.87"/><circle class="uuid-4bf8e94b-17ea-4547-8d82-b038228e741d" cx="457.75" cy="258.18" r="4.58"/><circle cx="458.4" cy="284.06" r="2.05"/><circle cx="540.65" cy="250.25" r="2.05"/><circle cx="548.64" cy="268.25" r="2.05"/><circle class="uuid-4bf8e94b-17ea-4547-8d82-b038228e741d" cx="534.81" cy="293.6" r="4.58"/><g><line class="uuid-4bf8e94b-17ea-4547-8d82-b038228e741d" x1="505.29" y1="228.15" x2="508.78" y2="236.99"/><line class="uuid-4bf8e94b-17ea-4547-8d82-b038228e741d" x1="511.46" y1="230.83" x2="502.61" y2="234.31"/></g><g><line class="uuid-4bf8e94b-17ea-4547-8d82-b038228e741d" x1="471.12" y1="301.37" x2="470.09" y2="310.82"/><line class="uuid-4bf8e94b-17ea-4547-8d82-b038228e741d" x1="475.33" y1="306.61" x2="465.88" y2="305.58"/></g></g></g></g></svg>
<svg id="uuid-14aab01f-225f-4444-a2ff-db3660b5217d" data-name="BACKGROUND" xmlns="http://www.w3.org/2000/svg" viewBox="0 0 600 600"><defs><style>
      .uuid-03597922-628d-411e-a974-ebd8e62f0f96 {
        fill: #ffff0d;
        stroke-linecap: round;
        stroke-miterlimit: 10;
      }

      .uuid-03597922-628d-411e-a974-ebd8e62f0f96, .uuid-ec887c47-cc62-402d-b56d-c11c96d7fb7c, .uuid-d71d9369-c5f0-4b0d-a1be-0f612650467a, .uuid-1bdd2f04-8a42-478c-8647-65d9f3a4d4e9 {
        stroke: #000;
        stroke-width: 2px;
      }

      .uuid-ec887c47-cc62-402d-b56d-c11c96d7fb7c {
        fill: #3ef1ff;
      }

      .uuid-ec887c47-cc62-402d-b56d-c11c96d7fb7c, .uuid-d71d9369-c5f0-4b0d-a1be-0f612650467a, .uuid-1bdd2f04-8a42-478c-8647-65d9f3a4d4e9 {
        stroke-linejoin: round;
      }

      .uuid-d71d9369-c5f0-4b0d-a1be-0f612650467a {
        fill: #ff78d8;
      }

      .uuid-1bdd2f04-8a42-478c-8647-65d9f3a4d4e9 {
        fill: #f9a723;
      }
    </style></defs><path class="uuid-03597922-628d-411e-a974-ebd8e62f0f96" d="m241.89,207.77l-69.3-104.97c-1.06-1.6-3.21-2.05-4.82-1h0c-1.63,1.06-2.08,3.23-1.01,4.85l68.77,104.15,11.93,18.35c2.31-.55,4.71-1.15,7.16-1.81l-12.73-19.57Z"/><path class="uuid-1bdd2f04-8a42-478c-8647-65d9f3a4d4e9" d="m170.32,113.23l-74.03,133.27s36.12-51.66,72.66-50.21c.76-14.48,3.19-68.7,3.87-83.91-1.02.47-1.89.76-2.51.84Z"/><path class="uuid-d71d9369-c5f0-4b0d-a1be-0f612650467a" d="m177.4,108.92s.4.41-.71,1.2c14.5,5.68,64.55,25.26,78.01,30.41,13.5-33.99,75.37-46.04,75.37-46.04l-152.67,14.42Z"/><path class="uuid-ec887c47-cc62-402d-b56d-c11c96d7fb7c" d="m176.69,110.13c-.53.38-1.11.76-1.74,1.14-.84.5-1.65.91-2.38,1.23l-3.61,83.79c7.4-13.71,37.16-52.34,85.76-55.76-39.75-15.38-68.05-26.48-78.02-30.4Z"/></svg>
</svg>