<?xml version="1.0" encoding="UTF-8"?>
<svg xmlns="http://www.w3.org/2000/svg" viewBox="0 0 600 600">
<svg id="uuid-bc87ee82-23c3-4279-b438-811e43660712" data-name="BACKGROUND" xmlns="http://www.w3.org/2000/svg" viewBox="0 0 600 600"><defs><style>
      .uuid-52f0bbd2-4e52-45a8-8be3-bbbf1043e893 {
        fill: #a07bff;
      }
    </style></defs><rect class="uuid-52f0bbd2-4e52-45a8-8be3-bbbf1043e893" x="-1" y="-1" width="602" height="602"/></svg>
<svg id="uuid-bf7e525a-b2c7-4020-b508-877bdc0406a4" data-name="BACKGROUND" xmlns="http://www.w3.org/2000/svg" viewBox="0 0 600 600"><defs><style>
      .uuid-cae8e451-3158-423f-a4c4-142cfa64fc2f, .uuid-53b0b6c2-e2af-4a69-8394-836df11b181d {
        fill: #fff;
      }

      .uuid-6c565652-73da-4adf-a499-bd10556ab125, .uuid-53b0b6c2-e2af-4a69-8394-836df11b181d, .uuid-effa0351-bd28-4c1f-8e0f-0367a45f08e0, .uuid-be033c18-bf35-4c17-9e62-8709a499cbd0, .uuid-cd2bf4ed-c472-45eb-b36b-e9e8eed1b636, .uuid-2f2a2fea-5687-4202-a45d-609c70a3635c, .uuid-f9183db0-afbe-438e-8497-494846bbd113 {
        stroke: #000;
        stroke-width: 2px;
      }

      .uuid-6c565652-73da-4adf-a499-bd10556ab125, .uuid-53b0b6c2-e2af-4a69-8394-836df11b181d, .uuid-cd2bf4ed-c472-45eb-b36b-e9e8eed1b636, .uuid-2f2a2fea-5687-4202-a45d-609c70a3635c {
        stroke-miterlimit: 10;
      }

      .uuid-6c565652-73da-4adf-a499-bd10556ab125, .uuid-effa0351-bd28-4c1f-8e0f-0367a45f08e0, .uuid-cd2bf4ed-c472-45eb-b36b-e9e8eed1b636, .uuid-f9183db0-afbe-438e-8497-494846bbd113 {
        fill: #ff78d8;
      }

      .uuid-53b0b6c2-e2af-4a69-8394-836df11b181d, .uuid-effa0351-bd28-4c1f-8e0f-0367a45f08e0, .uuid-be033c18-bf35-4c17-9e62-8709a499cbd0, .uuid-cd2bf4ed-c472-45eb-b36b-e9e8eed1b636, .uuid-2f2a2fea-5687-4202-a45d-609c70a3635c {
        stroke-linecap: round;
      }

      .uuid-effa0351-bd28-4c1f-8e0f-0367a45f08e0, .uuid-be033c18-bf35-4c17-9e62-8709a499cbd0, .uuid-f9183db0-afbe-438e-8497-494846bbd113 {
        stroke-linejoin: round;
      }

      .uuid-be033c18-bf35-4c17-9e62-8709a499cbd0 {
        fill: none;
      }

      .uuid-2f2a2fea-5687-4202-a45d-609c70a3635c {
        fill: #3ef1ff;
      }
    </style></defs><path class="uuid-effa0351-bd28-4c1f-8e0f-0367a45f08e0" d="m409.81,359.6c9.2,3.77,29.89,12.05,42.79,16.03,2.11.65,4.41.69,6.5-.04,11.79-4.08,28.47-11.39,33.03-11.32,5.25.08,7.8,3.93,19.88,2.04,13.36-2.1,22.43-11.99,20.93-23.3-4.21-43.28-25.18-26.79-25.18-26.79,0,0-5.84-8.75-18.76-4.82-11.83,3.6-10.2,14.44-6.47,22.47l-25.29,8.58c-2.14.72-4.45.71-6.59-.02l-35.7-12.61"/><path class="uuid-cd2bf4ed-c472-45eb-b36b-e9e8eed1b636" d="m533.36,312.82c2.5,3.94,1.62,9.14-1.57,12.4-2.47,2.53-5.88,3.88-9.32,4.4-2.8.43-5.7.42-8.49-.08-2.14-.39-4.29-1.1-5.79-2.75-1.66-1.83-2.27-4.46-1.98-6.87.51-4.17,3.84-7.14,7.22-9.26,3.17-1.98,6.86-3.26,10.64-3.09,3.8.18,7.36,2.19,9.3,5.24Z"/><path class="uuid-cd2bf4ed-c472-45eb-b36b-e9e8eed1b636" d="m538.57,349.84c.97,3.03.32,6.43-1.5,9.01-3.77,5.33-11.17,5.65-16.96,4.27-3.31-.79-6.69-2.21-8.67-5.13-3.13-4.61-.82-9.79,3.48-12.56,2.58-1.66,5.61-2.67,8.63-3.14,5.73-.89,13.1,1.51,15.03,7.56Z"/><path class="uuid-cd2bf4ed-c472-45eb-b36b-e9e8eed1b636" d="m538.71,328.53c1.8,2.99,2.06,6.89.22,9.9-1.95,3.2-4.94,5.25-8.49,6.28-3.66,1.07-7.64,1.27-11.4.44-2.25-.5-4.53-1.38-5.96-3.28-1.86-2.47-1.89-5.68-.85-8.49,1.2-3.24,4.17-5.69,7.09-7.37,6.15-3.56,15.21-4.43,19.39,2.52Z"/><path class="uuid-cd2bf4ed-c472-45eb-b36b-e9e8eed1b636" d="m501.85,311.68s9.27,3.84,7.77,12.02c-1.04,5.68-8.17,9.55-14.94,6.13"/><path class="uuid-be033c18-bf35-4c17-9e62-8709a499cbd0" d="m500.67,331.08c2.41,1.63,5.11,8.04,3.4,14.42"/><path d="m443.44,339.88c-2.88,10.58-6.94,20.23-11.17,28.59-10.17-3.78-21.16-9.53-27-11.93l11.83-26.02,26.35,9.36Z"/><ellipse cx="300" cy="518.65" rx="138.6" ry="22.93"/><path class="uuid-6c565652-73da-4adf-a499-bd10556ab125" d="m319.36,427.14c-1.16,1.05-54.95,57-54.95,57,0,0,21.51-1.95,31.74,10.62,10.23,12.57,7.26,23.89,7.26,23.89h-66.9s-28.69-36.17-28.69-36.17c0,0,3.74-13.4,20.44-10.59,20.9-19.38,55.52-59.13,55.52-59.13l35.59,14.38Z"/><path d="m283.78,412.76l31.28,12.64-3.24,9.5c-2.93,3.03-9.76,10.12-13.64,14.14-11.92,0-27.98-2.13-41.33-6.37,13.95-15.1,26.93-29.92,26.93-29.92Z"/><path class="uuid-6c565652-73da-4adf-a499-bd10556ab125" d="m354.45,173.54l-.11.27-174.2,58.29c-11.49,20.13-18.05,43.43-18.05,68.27,0,76.2,61.77,137.98,137.97,137.98s137.98-61.77,137.98-137.98c0-56.89-34.43-105.72-83.58-126.83Z"/><path class="uuid-be033c18-bf35-4c17-9e62-8709a499cbd0" d="m264.41,484.14c-4.06.49-11.49,1.36-17.85,7.23"/><path class="uuid-cae8e451-3158-423f-a4c4-142cfa64fc2f" d="m185.17,308.14c-4.41,0-7.98-3.57-7.98-7.98,0-67.74,55.11-122.86,122.86-122.86,4.41,0,7.98,3.57,7.98,7.98s-3.57,7.98-7.98,7.98c-58.94,0-106.9,47.95-106.9,106.9,0,4.41-3.57,7.98-7.98,7.98Z"/><path d="m203.75,397.46l34.2-27.46-24.86,36.3c-6.73-5.1-3.66-2.61-9.34-8.83Z"/><path class="uuid-f9183db0-afbe-438e-8497-494846bbd113" d="m323.72,387.31c19.14-13.4,39.15-11.3,55.52,7.36,19.6,22.35,30.57,33.06,30.57,33.06,0,0,10.74-19.34,34.77-17.5,18.26,1.4,24.84,14.43,24.84,14.43,0,0,6.21,8.82-22.45,33.5-28.66,24.68-54.93,40.92-61.14,29.46-6.21-11.46-2.82-32.1-2.82-32.1,0,0-22.02-26.09-27.94-32.01-6.79-6.79-15.71-1.36-15.71-1.36"/><path class="uuid-6c565652-73da-4adf-a499-bd10556ab125" d="m446.97,458.17c-25.89,22.29-49.82,37.69-58.79,32.02-9.77-7.44,26.84-38.54,44.88-52.7,18.04-14.16,32.17-17.82,36.36-12.81,0,0,6.21,8.82-22.45,33.5Z"/><path class="uuid-be033c18-bf35-4c17-9e62-8709a499cbd0" d="m409.81,427.74c-1.89,2.86-4.55,10.38-4.55,10.38"/><ellipse class="uuid-53b0b6c2-e2af-4a69-8394-836df11b181d" cx="269.41" cy="209.07" rx="94.9" ry="26.25" transform="translate(-52.5 96.54) rotate(-18.55)"/><ellipse class="uuid-2f2a2fea-5687-4202-a45d-609c70a3635c" cx="269.41" cy="209.07" rx="71.19" ry="13.32" transform="translate(-52.5 96.54) rotate(-18.55)"/><g><path class="uuid-effa0351-bd28-4c1f-8e0f-0367a45f08e0" d="m214.11,345.7c-8.05,5.83-25.34,20.79-35.52,29.67-1.67,1.45-2.82,3.41-3.39,5.55-3.14,11.67-8.55,33.44-8.55,33.44,0,0-8.42.58-12.19,14.35-3.64,13.3-6.64,25.06,3.77,29.75.35,7.47,7.51,15.45,19.2,9.41.14-.06,1.32,1.32,1.44,1.45,2.64,2.7,6.36,4.45,10.13,4.81,3.65.36,7.61-.67,10.43-3.08,3.29-2.81,5.4-6.94,6.05-11.2.4-2.61.26-5.31-.75-7.78,0,0,6.2-2.51,8.05-11.34,1.99-9.49-4.22-19.42-14.62-18.18l6.17-23.11c.51-2.2,1.74-4.16,3.49-5.59l29.38-24.3"/><path class="uuid-be033c18-bf35-4c17-9e62-8709a499cbd0" d="m204.73,452.06c-1.37-3.47-5.39-7.08-9-6.88"/><path class="uuid-be033c18-bf35-4c17-9e62-8709a499cbd0" d="m178.86,469.3c-5.16-5.27-3.82-11.97-2.9-13.54"/><path class="uuid-be033c18-bf35-4c17-9e62-8709a499cbd0" d="m158.22,458.45c-.27-5.22.73-7.32,3.06-9.83"/><path class="uuid-be033c18-bf35-4c17-9e62-8709a499cbd0" d="m193.93,450.63c.14-2.07.48-4.16,1.32-6.06.85-1.95,2.36-3.88,4.31-4.85"/></g></svg>
<svg id="uuid-175be159-db61-4df5-a3ec-4e569af78a21" data-name="BODY" xmlns="http://www.w3.org/2000/svg" viewBox="0 0 600 600"><defs><style>
      .uuid-cb5ad370-d590-4d84-8471-319d1a4c5aa5 {
        fill: none;
        stroke: #000;
        stroke-linecap: round;
        stroke-linejoin: round;
        stroke-width: 4px;
      }
    </style></defs><g id="uuid-13c94933-b88a-4a0e-9bd5-264a3853387a" data-name="expressions"><g id="uuid-006bcb9c-427f-47d9-92c9-0f51d1e9073c" data-name="mouth"><circle cx="362.12" cy="293.18" r="9.78" transform="translate(-9.59 12.26) rotate(-1.91)"/></g><g id="uuid-aa5f76af-2ff8-4e7f-a2a4-73d690451a8d" data-name="eye L"><circle cx="337.63" cy="273.96" r="9.78" transform="translate(-8.96 11.43) rotate(-1.91)"/></g><g id="uuid-4d2b7d8b-0a30-48e5-b672-08579e330a1a" data-name="eye R"><polyline class="uuid-cb5ad370-d590-4d84-8471-319d1a4c5aa5" points="374.33 254.17 360.69 266.02 379.28 264.87"/></g></g></svg>
<svg id="uuid-7eb5044b-fa94-461c-9907-85b3dc64ac7e" data-name="BODY" xmlns="http://www.w3.org/2000/svg" viewBox="0 0 600 600"><defs><style>
      .uuid-87397e4f-7e3d-490c-b43b-0db3bec0377c {
        stroke-miterlimit: 10;
      }

      .uuid-87397e4f-7e3d-490c-b43b-0db3bec0377c, .uuid-179c102d-ff8a-46ca-913c-1d5c9e7a9cc5, .uuid-81fb7240-34aa-4204-83f9-daaedb437d29 {
        stroke: #000;
        stroke-width: 2px;
      }

      .uuid-87397e4f-7e3d-490c-b43b-0db3bec0377c, .uuid-81fb7240-34aa-4204-83f9-daaedb437d29 {
        fill: #00dfa9;
      }

      .uuid-179c102d-ff8a-46ca-913c-1d5c9e7a9cc5 {
        fill: #00dea8;
      }

      .uuid-179c102d-ff8a-46ca-913c-1d5c9e7a9cc5, .uuid-81fb7240-34aa-4204-83f9-daaedb437d29 {
        stroke-linecap: round;
        stroke-linejoin: round;
      }
    </style></defs><g id="uuid-0a79d125-2460-4fad-b66e-ec883e358a37" data-name="cloath"><path class="uuid-87397e4f-7e3d-490c-b43b-0db3bec0377c" d="m475.37,333.6l-.67.23-18.19,6.17c-2.14.72-4.45.71-6.59-.02l-14.53-5.13-.84-.31c-1.28,9.01-3.34,22.43-5.9,35.7,8.27,3.18,17.18,6.45,23.95,8.54,2.11.65,4.41.69,6.5-.04,8.64-2.99,19.91-7.72,27.11-10-5.49-14.17-8.97-27.13-10.85-35.15Z"/><path class="uuid-179c102d-ff8a-46ca-913c-1d5c9e7a9cc5" d="m389.96,395.83c.5,4.15.99,8.37,1.44,12.46,11.91,13.09,18.41,19.44,18.41,19.44,0,0,2.52-4.53,7.85-9,2.33-9.7,5.36-22.52,8.28-35.44,5.93-26.21,10.09-59.65,10.09-59.65l-58.59,43.63s9.92,7.1,12.53,28.55Z"/><path class="uuid-179c102d-ff8a-46ca-913c-1d5c9e7a9cc5" d="m229.38,322.79c-22.2-11.38-65.51-50.43-65.51-50.43,0,0-16.23,68.13-9.71,140.58,2.57,1.21,5.13,2.38,7.68,3.52,2.63-1.94,4.79-2.09,4.79-2.09,0,0,5.41-21.77,8.55-33.44.57-2.14,1.73-4.09,3.39-5.55,10.18-8.88,27.47-23.84,35.52-29.67l23.09,23.85-29.38,24.3c-1.75,1.43-2.97,3.39-3.49,5.59l-6.17,23.11c8.2-.97,13.79,4.99,14.82,12.21,66.61,18.53,119.01,13.83,119.01,13.83,0,0,18.43-66.82,37.77-80.41-68.91-16.49-81.39-15.13-140.38-45.38Z"/><path class="uuid-81fb7240-34aa-4204-83f9-daaedb437d29" d="m219.04,338.63c-8.05,5.83-31.04,24.25-41.22,33.13-1.67,1.45-2.82,3.41-3.39,5.55-1.89,7.03-4.6,17.71-6.46,25.1,3.49.59,9.59,2.09,17.16,5.88s15.2,7.66,19.3,9.74l4.87-18.24c.51-2.2,1.74-4.16,3.49-5.59l28.69-22.43"/><circle class="uuid-179c102d-ff8a-46ca-913c-1d5c9e7a9cc5" cx="173.5" cy="387.84" r="8.9"/><g><path class="uuid-179c102d-ff8a-46ca-913c-1d5c9e7a9cc5" d="m365.71,370.05c0-2.38.94-4.54,2.47-6.14-36.47-3.56-107.71-32.49-135.31-50.98-29.4-19.7-64.67-54.67-64.67-54.67,0,0-7.58,4.34-6.36,23.82,16.08,31.85,61.46,83.03,61.46,83.03l53.91-16.78-7.39,45.48s33.27-4.01,54.62-9.13c19.17-4.59,35.64-8.53,42.39-10.31-.71-1.28-1.12-2.75-1.12-4.32Z"/><path class="uuid-179c102d-ff8a-46ca-913c-1d5c9e7a9cc5" d="m438.28,298.43s-9.6,21.32-26.38,38.85c-9.15,9.56-25.57,20.93-32.29,25.42,2.34,1.6,3.88,4.29,3.88,7.35,0,1.17-.23,2.29-.64,3.31,10.42-2.02,33.64-8.21,49.69-25.01,8.17-22.96,5.74-49.91,5.74-49.91Z"/><circle class="uuid-179c102d-ff8a-46ca-913c-1d5c9e7a9cc5" cx="374.6" cy="370.05" r="8.9"/></g><path d="m436.13,335.09c-.88,4.42-2.04,8.91-3.59,13.26-.03.03-.06.06-.09.09-1.08,6.81-2.37,14.4-3.83,21.93,2.65.99,5.17,1.94,7.4,2.76,3.26-12,5.61-23.22,7.96-35.22l-7.85-2.83Z"/><path d="m207.37,394.72l34.83-22.3-38.87,49.43c-1.04-.39-2.74-.39-3.99-.28,2.43-8.59,6.17-23.11,8.04-26.85Z"/></g></svg>
<svg id="uuid-b4bd514c-c4d5-4213-8281-68a6dd76eb3c" data-name="BODY" xmlns="http://www.w3.org/2000/svg" viewBox="0 0 600 600"><defs><style>
      .uuid-4c99fb9a-23c7-484a-a28c-c41365b086be {
        fill: #fffdfd;
      }

      .uuid-7ddb5c13-f559-40bc-9bfe-865ea467dd8d {
        fill: #7aa6ff;
      }
    </style></defs><rect class="uuid-7ddb5c13-f559-40bc-9bfe-865ea467dd8d" x="264.41" y="292.9" width="9.74" height="9.74" transform="translate(-86.91 112.55) rotate(-20.4)"/><rect class="uuid-7ddb5c13-f559-40bc-9bfe-865ea467dd8d" x="261.02" y="283.77" width="9.74" height="9.74" transform="translate(-83.94 110.79) rotate(-20.4)"/><rect class="uuid-7ddb5c13-f559-40bc-9bfe-865ea467dd8d" x="257.62" y="274.64" width="9.74" height="9.74" transform="translate(-80.97 109.03) rotate(-20.4)"/><rect class="uuid-7ddb5c13-f559-40bc-9bfe-865ea467dd8d" x="266.75" y="271.25" width="9.74" height="9.74" transform="translate(-79.21 112) rotate(-20.4)"/><rect class="uuid-7ddb5c13-f559-40bc-9bfe-865ea467dd8d" x="275.88" y="267.85" width="9.74" height="9.74" transform="translate(-77.46 114.97) rotate(-20.4)"/><rect class="uuid-7ddb5c13-f559-40bc-9bfe-865ea467dd8d" x="330.66" y="247.48" width="9.74" height="9.74" transform="translate(-66.92 132.79) rotate(-20.4)"/><rect class="uuid-7ddb5c13-f559-40bc-9bfe-865ea467dd8d" x="339.79" y="244.08" width="9.74" height="9.74" transform="translate(-65.16 135.76) rotate(-20.4)"/><rect class="uuid-7ddb5c13-f559-40bc-9bfe-865ea467dd8d" x="327.27" y="238.35" width="9.74" height="9.74" transform="translate(-63.95 131.04) rotate(-20.4)"/><rect class="uuid-7ddb5c13-f559-40bc-9bfe-865ea467dd8d" x="287.35" y="242.8" width="9.74" height="9.74" transform="translate(-68.01 117.4) rotate(-20.4)"/><rect class="uuid-7ddb5c13-f559-40bc-9bfe-865ea467dd8d" x="351.26" y="219.03" width="9.74" height="9.74" transform="translate(-55.71 138.19) rotate(-20.4)"/><rect class="uuid-7ddb5c13-f559-40bc-9bfe-865ea467dd8d" x="304.33" y="288.44" width="9.74" height="9.74" transform="translate(-82.85 126.18) rotate(-20.4)"/><rect class="uuid-7ddb5c13-f559-40bc-9bfe-865ea467dd8d" x="368.24" y="264.67" width="9.74" height="9.74" transform="translate(-70.56 146.97) rotate(-20.4)"/><rect class="uuid-7ddb5c13-f559-40bc-9bfe-865ea467dd8d" x="296.48" y="239.41" width="9.74" height="9.74" transform="translate(-66.25 120.37) rotate(-20.4)"/><rect class="uuid-7ddb5c13-f559-40bc-9bfe-865ea467dd8d" x="360.39" y="215.64" width="9.74" height="9.74" transform="translate(-53.96 141.16) rotate(-20.4)"/><rect class="uuid-7ddb5c13-f559-40bc-9bfe-865ea467dd8d" x="313.46" y="285.05" width="9.74" height="9.74" transform="translate(-81.09 129.15) rotate(-20.4)"/><rect class="uuid-7ddb5c13-f559-40bc-9bfe-865ea467dd8d" x="377.37" y="261.28" width="9.74" height="9.74" transform="translate(-68.8 149.94) rotate(-20.4)"/><rect class="uuid-7ddb5c13-f559-40bc-9bfe-865ea467dd8d" x="305.61" y="236.01" width="9.74" height="9.74" transform="translate(-64.49 123.34) rotate(-20.4)"/><rect class="uuid-7ddb5c13-f559-40bc-9bfe-865ea467dd8d" x="369.52" y="212.24" width="9.74" height="9.74" transform="translate(-52.2 144.13) rotate(-20.4)"/><rect class="uuid-7ddb5c13-f559-40bc-9bfe-865ea467dd8d" x="322.59" y="281.65" width="9.74" height="9.74" transform="translate(-79.34 132.12) rotate(-20.4)"/><rect class="uuid-7ddb5c13-f559-40bc-9bfe-865ea467dd8d" x="386.5" y="257.88" width="9.74" height="9.74" transform="translate(-67.04 152.91) rotate(-20.4)"/><rect class="uuid-7ddb5c13-f559-40bc-9bfe-865ea467dd8d" x="314.74" y="232.62" width="9.74" height="9.74" transform="translate(-62.74 126.31) rotate(-20.4)"/><rect class="uuid-7ddb5c13-f559-40bc-9bfe-865ea467dd8d" x="378.65" y="208.85" width="9.74" height="9.74" transform="translate(-50.44 147.1) rotate(-20.4)"/><rect class="uuid-7ddb5c13-f559-40bc-9bfe-865ea467dd8d" x="331.72" y="278.25" width="9.74" height="9.74" transform="translate(-77.58 135.09) rotate(-20.4)"/><rect class="uuid-7ddb5c13-f559-40bc-9bfe-865ea467dd8d" x="395.63" y="254.48" width="9.74" height="9.74" transform="translate(-65.29 155.88) rotate(-20.4)"/><rect class="uuid-7ddb5c13-f559-40bc-9bfe-865ea467dd8d" x="323.87" y="229.22" width="9.74" height="9.74" transform="translate(-60.98 129.28) rotate(-20.4)"/><rect class="uuid-7ddb5c13-f559-40bc-9bfe-865ea467dd8d" x="334.06" y="256.6" width="9.74" height="9.74" transform="translate(-69.89 134.55) rotate(-20.4)"/><rect class="uuid-7ddb5c13-f559-40bc-9bfe-865ea467dd8d" x="337.45" y="265.73" width="9.74" height="9.74" transform="translate(-72.86 136.3) rotate(-20.4)"/><rect class="uuid-7ddb5c13-f559-40bc-9bfe-865ea467dd8d" x="285.01" y="264.45" width="9.74" height="9.74" transform="translate(-75.7 117.94) rotate(-20.4)"/><rect class="uuid-7ddb5c13-f559-40bc-9bfe-865ea467dd8d" x="281.62" y="255.33" width="9.74" height="9.74" transform="translate(-72.73 116.19) rotate(-20.4)"/><rect class="uuid-7ddb5c13-f559-40bc-9bfe-865ea467dd8d" x="278.22" y="246.2" width="9.74" height="9.74" transform="translate(-69.76 114.43) rotate(-20.4)"/><rect class="uuid-7ddb5c13-f559-40bc-9bfe-865ea467dd8d" x="288.41" y="273.58" width="9.74" height="9.74" transform="translate(-78.67 119.7) rotate(-20.4)"/><rect class="uuid-7ddb5c13-f559-40bc-9bfe-865ea467dd8d" x="291.8" y="282.71" width="9.74" height="9.74" transform="translate(-81.64 121.46) rotate(-20.4)"/><rect class="uuid-7ddb5c13-f559-40bc-9bfe-865ea467dd8d" x="295.2" y="291.84" width="9.74" height="9.74" transform="translate(-84.61 123.21) rotate(-20.4)"/><rect class="uuid-7ddb5c13-f559-40bc-9bfe-865ea467dd8d" x="348.92" y="240.68" width="9.74" height="9.74" transform="translate(-63.41 138.73) rotate(-20.4)"/><rect class="uuid-7ddb5c13-f559-40bc-9bfe-865ea467dd8d" x="345.53" y="231.56" width="9.74" height="9.74" transform="translate(-60.44 136.98) rotate(-20.4)"/><rect class="uuid-7ddb5c13-f559-40bc-9bfe-865ea467dd8d" x="342.13" y="222.43" width="9.74" height="9.74" transform="translate(-57.47 135.22) rotate(-20.4)"/><rect class="uuid-7ddb5c13-f559-40bc-9bfe-865ea467dd8d" x="352.32" y="249.81" width="9.74" height="9.74" transform="translate(-66.38 140.49) rotate(-20.4)"/><rect class="uuid-7ddb5c13-f559-40bc-9bfe-865ea467dd8d" x="355.71" y="258.94" width="9.74" height="9.74" transform="translate(-69.34 142.24) rotate(-20.4)"/><rect class="uuid-7ddb5c13-f559-40bc-9bfe-865ea467dd8d" x="359.11" y="268.07" width="9.74" height="9.74" transform="translate(-72.31 144) rotate(-20.4)"/><rect class="uuid-7ddb5c13-f559-40bc-9bfe-865ea467dd8d" x="394.57" y="223.71" width="9.74" height="9.74" transform="translate(-54.62 153.58) rotate(-20.4)"/><rect class="uuid-7ddb5c13-f559-40bc-9bfe-865ea467dd8d" x="391.18" y="214.58" width="9.74" height="9.74" transform="translate(-51.66 151.82) rotate(-20.4)"/><rect class="uuid-7ddb5c13-f559-40bc-9bfe-865ea467dd8d" x="387.78" y="205.45" width="9.74" height="9.74" transform="translate(-48.69 150.07) rotate(-20.4)"/><rect class="uuid-7ddb5c13-f559-40bc-9bfe-865ea467dd8d" x="397.97" y="232.83" width="9.74" height="9.74" transform="translate(-57.59 155.34) rotate(-20.4)"/><rect class="uuid-7ddb5c13-f559-40bc-9bfe-865ea467dd8d" x="401.36" y="241.96" width="9.74" height="9.74" transform="translate(-60.56 157.09) rotate(-20.4)"/><rect class="uuid-7ddb5c13-f559-40bc-9bfe-865ea467dd8d" x="404.76" y="251.09" width="9.74" height="9.74" transform="translate(-63.53 158.85) rotate(-20.4)"/><rect class="uuid-7ddb5c13-f559-40bc-9bfe-865ea467dd8d" x="340.85" y="274.86" width="9.74" height="9.74" transform="translate(-75.83 138.06) rotate(-20.4)"/><rect class="uuid-4c99fb9a-23c7-484a-a28c-c41365b086be" x="295.53" y="249.32" width="19.48" height="38.95" transform="translate(-74.55 123.28) rotate(-20.4)"/><rect class="uuid-4c99fb9a-23c7-484a-a28c-c41365b086be" x="359.44" y="225.55" width="19.48" height="38.95" transform="translate(-62.26 144.06) rotate(-20.4)"/><rect x="313.79" y="242.53" width="19.48" height="38.95" transform="translate(-71.04 129.22) rotate(-20.4)"/><rect x="377.7" y="218.76" width="19.48" height="38.95" transform="translate(-58.74 150) rotate(-20.4)"/></svg>
</svg>