<?xml version="1.0" encoding="UTF-8"?>
<svg xmlns="http://www.w3.org/2000/svg" viewBox="0 0 600 600">
<svg id="uuid-50f5b600-4bee-4d04-aa66-9a7827d0c80f" data-name="BACKGROUND" xmlns="http://www.w3.org/2000/svg" viewBox="0 0 600 600"><defs><style>
      .uuid-7826a2f3-55af-481e-b40d-34a6e43de7ed {
        fill: #7aa6ff;
      }
    </style></defs><rect class="uuid-7826a2f3-55af-481e-b40d-34a6e43de7ed" x="-1" y="-1" width="602" height="602"/></svg>
<svg id="uuid-f7144243-e6cd-4cab-932b-c5be46c6fb36" data-name="BACKGROUND" xmlns="http://www.w3.org/2000/svg" viewBox="0 0 600 600"><defs><style>
      .uuid-ee344cb6-6f49-4a63-aa7b-6b97f7278011, .uuid-2df137ed-1d1c-4841-89ca-f7589125bd76 {
        fill: #fff;
      }

      .uuid-2df137ed-1d1c-4841-89ca-f7589125bd76, .uuid-00c9b4c2-3408-4d90-88df-0016a53fdc8b, .uuid-9c4e21ff-8a5c-4860-9f42-740e78ff2dc7, .uuid-2a45fb5d-1b56-43fa-8c8f-251b0f959774, .uuid-53cf4bc2-4135-41a5-b8b2-af79dfc57a4e, .uuid-c8ed7fb8-48a5-4e1d-9b4a-eac3ff2accd7, .uuid-b11951d9-d6a4-4c59-b0b3-fb834948f050 {
        stroke: #000;
        stroke-width: 2px;
      }

      .uuid-2df137ed-1d1c-4841-89ca-f7589125bd76, .uuid-00c9b4c2-3408-4d90-88df-0016a53fdc8b, .uuid-2a45fb5d-1b56-43fa-8c8f-251b0f959774, .uuid-c8ed7fb8-48a5-4e1d-9b4a-eac3ff2accd7 {
        stroke-miterlimit: 10;
      }

      .uuid-2df137ed-1d1c-4841-89ca-f7589125bd76, .uuid-9c4e21ff-8a5c-4860-9f42-740e78ff2dc7, .uuid-2a45fb5d-1b56-43fa-8c8f-251b0f959774, .uuid-53cf4bc2-4135-41a5-b8b2-af79dfc57a4e, .uuid-c8ed7fb8-48a5-4e1d-9b4a-eac3ff2accd7 {
        stroke-linecap: round;
      }

      .uuid-00c9b4c2-3408-4d90-88df-0016a53fdc8b, .uuid-53cf4bc2-4135-41a5-b8b2-af79dfc57a4e, .uuid-c8ed7fb8-48a5-4e1d-9b4a-eac3ff2accd7, .uuid-b11951d9-d6a4-4c59-b0b3-fb834948f050 {
        fill: #f9a723;
      }

      .uuid-9c4e21ff-8a5c-4860-9f42-740e78ff2dc7 {
        fill: none;
      }

      .uuid-9c4e21ff-8a5c-4860-9f42-740e78ff2dc7, .uuid-53cf4bc2-4135-41a5-b8b2-af79dfc57a4e, .uuid-b11951d9-d6a4-4c59-b0b3-fb834948f050 {
        stroke-linejoin: round;
      }

      .uuid-2a45fb5d-1b56-43fa-8c8f-251b0f959774 {
        fill: #ff78d8;
      }
    </style></defs><path class="uuid-53cf4bc2-4135-41a5-b8b2-af79dfc57a4e" d="m409.81,359.6c9.2,3.77,29.89,12.05,42.79,16.03,2.11.65,4.41.69,6.5-.04,11.79-4.08,28.47-11.39,33.03-11.32,5.25.08,7.8,3.93,19.88,2.04,13.36-2.1,22.43-11.99,20.93-23.3-4.21-43.28-25.18-26.79-25.18-26.79,0,0-5.84-8.75-18.76-4.82-11.83,3.6-10.2,14.44-6.47,22.47l-25.29,8.58c-2.14.72-4.45.71-6.59-.02l-35.7-12.61"/><path class="uuid-c8ed7fb8-48a5-4e1d-9b4a-eac3ff2accd7" d="m533.36,312.82c2.5,3.94,1.62,9.14-1.57,12.4-2.47,2.53-5.88,3.88-9.32,4.4-2.8.43-5.7.42-8.49-.08-2.14-.39-4.29-1.1-5.79-2.75-1.66-1.83-2.27-4.46-1.98-6.87.51-4.17,3.84-7.14,7.22-9.26,3.17-1.98,6.86-3.26,10.64-3.09,3.8.18,7.36,2.19,9.3,5.24Z"/><path class="uuid-c8ed7fb8-48a5-4e1d-9b4a-eac3ff2accd7" d="m538.57,349.84c.97,3.03.32,6.43-1.5,9.01-3.77,5.33-11.17,5.65-16.96,4.27-3.31-.79-6.69-2.21-8.67-5.13-3.13-4.61-.82-9.79,3.48-12.56,2.58-1.66,5.61-2.67,8.63-3.14,5.73-.89,13.1,1.51,15.03,7.56Z"/><path class="uuid-c8ed7fb8-48a5-4e1d-9b4a-eac3ff2accd7" d="m538.71,328.53c1.8,2.99,2.06,6.89.22,9.9-1.95,3.2-4.94,5.25-8.49,6.28-3.66,1.07-7.64,1.27-11.4.44-2.25-.5-4.53-1.38-5.96-3.28-1.86-2.47-1.89-5.68-.85-8.49,1.2-3.24,4.17-5.69,7.09-7.37,6.15-3.56,15.21-4.43,19.39,2.52Z"/><path class="uuid-c8ed7fb8-48a5-4e1d-9b4a-eac3ff2accd7" d="m501.85,311.68s9.27,3.84,7.77,12.02c-1.04,5.68-8.17,9.55-14.94,6.13"/><path class="uuid-9c4e21ff-8a5c-4860-9f42-740e78ff2dc7" d="m500.67,331.08c2.41,1.63,5.11,8.04,3.4,14.42"/><path d="m443.44,339.88c-2.88,10.58-6.94,20.23-11.17,28.59-10.17-3.78-21.16-9.53-27-11.93l11.83-26.02,26.35,9.36Z"/><ellipse cx="300" cy="518.65" rx="138.6" ry="22.93"/><path class="uuid-00c9b4c2-3408-4d90-88df-0016a53fdc8b" d="m319.36,427.14c-1.16,1.05-54.95,57-54.95,57,0,0,21.51-1.95,31.74,10.62,10.23,12.57,7.26,23.89,7.26,23.89h-66.9s-28.69-36.17-28.69-36.17c0,0,3.74-13.4,20.44-10.59,20.9-19.38,55.52-59.13,55.52-59.13l35.59,14.38Z"/><path d="m283.78,412.76l31.28,12.64-3.24,9.5c-2.93,3.03-9.76,10.12-13.64,14.14-11.92,0-27.98-2.13-41.33-6.37,13.95-15.1,26.93-29.92,26.93-29.92Z"/><path class="uuid-00c9b4c2-3408-4d90-88df-0016a53fdc8b" d="m354.45,173.54l-.11.27-174.2,58.29c-11.49,20.13-18.05,43.43-18.05,68.27,0,76.2,61.77,137.98,137.97,137.98s137.98-61.77,137.98-137.98c0-56.89-34.43-105.72-83.58-126.83Z"/><path class="uuid-9c4e21ff-8a5c-4860-9f42-740e78ff2dc7" d="m264.41,484.14c-4.06.49-11.49,1.36-17.85,7.23"/><path class="uuid-ee344cb6-6f49-4a63-aa7b-6b97f7278011" d="m185.17,308.14c-4.41,0-7.98-3.57-7.98-7.98,0-67.74,55.11-122.86,122.86-122.86,4.41,0,7.98,3.57,7.98,7.98s-3.57,7.98-7.98,7.98c-58.94,0-106.9,47.95-106.9,106.9,0,4.41-3.57,7.98-7.98,7.98Z"/><path d="m203.75,397.46l34.2-27.46-24.86,36.3c-6.73-5.1-3.66-2.61-9.34-8.83Z"/><path class="uuid-b11951d9-d6a4-4c59-b0b3-fb834948f050" d="m323.72,387.31c19.14-13.4,39.15-11.3,55.52,7.36,19.6,22.35,30.57,33.06,30.57,33.06,0,0,10.74-19.34,34.77-17.5,18.26,1.4,24.84,14.43,24.84,14.43,0,0,6.21,8.82-22.45,33.5-28.66,24.68-54.93,40.92-61.14,29.46-6.21-11.46-2.82-32.1-2.82-32.1,0,0-22.02-26.09-27.94-32.01-6.79-6.79-15.71-1.36-15.71-1.36"/><path class="uuid-00c9b4c2-3408-4d90-88df-0016a53fdc8b" d="m446.97,458.17c-25.89,22.29-49.82,37.69-58.79,32.02-9.77-7.44,26.84-38.54,44.88-52.7,18.04-14.16,32.17-17.82,36.36-12.81,0,0,6.21,8.82-22.45,33.5Z"/><path class="uuid-9c4e21ff-8a5c-4860-9f42-740e78ff2dc7" d="m409.81,427.74c-1.89,2.86-4.55,10.38-4.55,10.38"/><ellipse class="uuid-2df137ed-1d1c-4841-89ca-f7589125bd76" cx="269.41" cy="209.07" rx="94.9" ry="26.25" transform="translate(-52.5 96.54) rotate(-18.55)"/><ellipse class="uuid-2a45fb5d-1b56-43fa-8c8f-251b0f959774" cx="269.41" cy="209.07" rx="71.19" ry="13.32" transform="translate(-52.5 96.54) rotate(-18.55)"/><g><path class="uuid-53cf4bc2-4135-41a5-b8b2-af79dfc57a4e" d="m214.11,345.7c-8.05,5.83-25.34,20.79-35.52,29.67-1.67,1.45-2.82,3.41-3.39,5.55-3.14,11.67-8.55,33.44-8.55,33.44,0,0-8.42.58-12.19,14.35-3.64,13.3-6.64,25.06,3.77,29.75.35,7.47,7.51,15.45,19.2,9.41.14-.06,1.32,1.32,1.44,1.45,2.64,2.7,6.36,4.45,10.13,4.81,3.65.36,7.61-.67,10.43-3.08,3.29-2.81,5.4-6.94,6.05-11.2.4-2.61.26-5.31-.75-7.78,0,0,6.2-2.51,8.05-11.34,1.99-9.49-4.22-19.42-14.62-18.18l6.17-23.11c.51-2.2,1.74-4.16,3.49-5.59l29.38-24.3"/><path class="uuid-9c4e21ff-8a5c-4860-9f42-740e78ff2dc7" d="m204.73,452.06c-1.37-3.47-5.39-7.08-9-6.88"/><path class="uuid-9c4e21ff-8a5c-4860-9f42-740e78ff2dc7" d="m178.86,469.3c-5.16-5.27-3.82-11.97-2.9-13.54"/><path class="uuid-9c4e21ff-8a5c-4860-9f42-740e78ff2dc7" d="m158.22,458.45c-.27-5.22.73-7.32,3.06-9.83"/><path class="uuid-9c4e21ff-8a5c-4860-9f42-740e78ff2dc7" d="m193.93,450.63c.14-2.07.48-4.16,1.32-6.06.85-1.95,2.36-3.88,4.31-4.85"/></g></svg>
<svg id="uuid-853b1779-0b40-4336-9fd3-56860412922a" data-name="BODY" xmlns="http://www.w3.org/2000/svg" viewBox="0 0 600 600"><defs><style>
      .uuid-270fe1d8-6ffc-45cd-908c-63708945a6da {
        fill: none;
        stroke: #000;
        stroke-linecap: round;
        stroke-miterlimit: 10;
        stroke-width: 4px;
      }
    </style></defs><path class="uuid-270fe1d8-6ffc-45cd-908c-63708945a6da" d="m378.79,259.75c-1.76-5.11-7.33-7.82-12.44-6.06s-7.82,7.33-6.06,12.44"/><circle cx="362.12" cy="293.18" r="9.78" transform="translate(-9.59 12.26) rotate(-1.91)"/><path class="uuid-270fe1d8-6ffc-45cd-908c-63708945a6da" d="m346.88,270.76c-1.76-5.11-7.33-7.82-12.44-6.06-5.11,1.76-7.82,7.33-6.06,12.44"/></svg>
<svg id="uuid-a02d3be7-cb6f-4a2c-b49b-641c04f66e2c" data-name="BODY" xmlns="http://www.w3.org/2000/svg" xmlns:xlink="http://www.w3.org/1999/xlink" viewBox="0 0 600 600"><defs><style>
      .uuid-97ec9160-f55b-4391-9ac6-2720ac70b4d7, .uuid-186e0f35-16d5-49b6-9cbd-d077b6af6fa7, .uuid-c3a6eae5-34c2-4348-b045-ee3a775c38d6 {
        fill: none;
      }

      .uuid-186e0f35-16d5-49b6-9cbd-d077b6af6fa7 {
        clip-path: url(#uuid-8e6e5a8e-41a9-45a6-8de2-1509de5fe4b8);
      }

      .uuid-8db21063-287c-4acc-a512-bbb5252bc182 {
        fill: #7aa6ff;
      }

      .uuid-8db21063-287c-4acc-a512-bbb5252bc182, .uuid-30e331db-4d21-49fc-9ac1-7c3c1e393256, .uuid-b54f6662-ff09-4ee8-b5f7-c135184e294b, .uuid-7ac34740-3707-468c-be51-b66a0dd2ed67, .uuid-f0a83435-45fe-4dc4-9872-f810804941c5, .uuid-3b92c40e-5c35-41fc-a2cd-b71aa1e768f8, .uuid-b7057188-22a7-479d-9437-632318c9ac2d, .uuid-4c30d6be-6a29-4f20-9678-daf62593094f, .uuid-f3cd72a2-e4c0-4201-b5e2-325e35e373ef, .uuid-c3a6eae5-34c2-4348-b045-ee3a775c38d6 {
        stroke: #000;
        stroke-linecap: round;
        stroke-linejoin: round;
      }

      .uuid-8db21063-287c-4acc-a512-bbb5252bc182, .uuid-f0a83435-45fe-4dc4-9872-f810804941c5, .uuid-b7057188-22a7-479d-9437-632318c9ac2d, .uuid-4c30d6be-6a29-4f20-9678-daf62593094f, .uuid-f3cd72a2-e4c0-4201-b5e2-325e35e373ef, .uuid-c3a6eae5-34c2-4348-b045-ee3a775c38d6 {
        stroke-width: 2px;
      }

      .uuid-1614a14c-44f3-41f2-970a-f9e88ea2d137 {
        fill: #ffff0d;
      }

      .uuid-30e331db-4d21-49fc-9ac1-7c3c1e393256 {
        stroke-width: 2px;
      }

      .uuid-30e331db-4d21-49fc-9ac1-7c3c1e393256, .uuid-b54f6662-ff09-4ee8-b5f7-c135184e294b {
        fill: #3ef1ff;
      }

      .uuid-b54f6662-ff09-4ee8-b5f7-c135184e294b, .uuid-7ac34740-3707-468c-be51-b66a0dd2ed67 {
        stroke-width: 2px;
      }

      .uuid-7ac34740-3707-468c-be51-b66a0dd2ed67, .uuid-f0a83435-45fe-4dc4-9872-f810804941c5, .uuid-3b92c40e-5c35-41fc-a2cd-b71aa1e768f8 {
        fill: #a07bff;
      }

      .uuid-3b92c40e-5c35-41fc-a2cd-b71aa1e768f8 {
        stroke-width: 2px;
      }

      .uuid-b7057188-22a7-479d-9437-632318c9ac2d {
        fill: #ff78d8;
      }

      .uuid-4c30d6be-6a29-4f20-9678-daf62593094f {
        fill: #fff7f0;
      }

      .uuid-f3cd72a2-e4c0-4201-b5e2-325e35e373ef {
        fill: #ffc9f1;
      }
    </style><clipPath id="uuid-8e6e5a8e-41a9-45a6-8de2-1509de5fe4b8"><path class="uuid-97ec9160-f55b-4391-9ac6-2720ac70b4d7" d="m218.44,385.68l-12.41,10.96-6.53,24.81s7.3-.56,11.65,5.92c4.35,6.48,4.93,18.37-5.19,25.2,0,0,2.66,7.57-2.84,15.69-5.5,8.12-13.98,7.22-17.39,6.23-3.42-.99-6.85-3.34-8.39-5.52,0,0-4.4,2.52-9.33,1.88-4.92-.64-9.88-4.55-10.66-11.79,0,0-4.68-1.75-6.47-7.46s-.04-12.91,2.44-22.27c2.48-9.35,6.68-14.17,12.51-15.83,0,0,7.52-29.22,8.52-33.06,1-3.84,2.56-4.88,6.36-8.16,3.8-3.28,15.08-13.12,15.08-13.12,0,0-6.03-58.25-12.88-63.84-15.33-12.53-44.41,24.06-87.62,45.85-62.5,31.52-65.76,86.65-49.19,122.95,16.58,36.3,55.81,43.29,75.6,42.64,19.79-.64,44.55-21.29,57.17-20.21,12.62,1.09,20.57,16.17,35.99,20.21,15.42,4.03,40.63-13.14,40.63-13.14l22.73-23.84,208.57,80.5,26.44-27.14,9.21-56.69-16.31-219.04-85.45-26.84-202.25,165.1h0Z"/></clipPath></defs><g id="uuid-4fc18071-2308-439e-9b03-a88b20c18554" data-name="uuid-25dbd0f2-a6de-441e-82e8-5e783d370578"><g id="uuid-468c7e84-7c20-452e-9305-e519acee2181" data-name="uuid-6de0adcf-05a0-4838-b094-5e13ac5553d7"><g class="uuid-186e0f35-16d5-49b6-9cbd-d077b6af6fa7"><g><g><path class="uuid-8db21063-287c-4acc-a512-bbb5252bc182" d="m256.85,397.34s43.17-16.87,99.05-41.15c55.88-24.29,75.83-39.11,88.23-49.9,12.4-10.79,16.75-22.06,17.55-24.64,0,0-15.57-4.04-25.44-4.73,0,0-1.95-11.06-4.24-17.83,0,0,23.38,4.08,29.67,10.6,6.29,6.52,8.26,24.14,3.97,34.72-4.29,10.58-48.76,44.48-82.27,59.41-33.52,14.93-34.93,14.89-34.93,14.89,0,0-10.52-1.58-24.73,8.6,0,0-36.6,14.62-59.39,23.39l-7.48-13.35h0Z"/><path class="uuid-8db21063-287c-4acc-a512-bbb5252bc182" d="m167.87,340.53s-9.7,4.37-15.66,9.02c-3.95-.93-22.86-3.02-22.86-3.02,0,0,15.25-13.12,34.71-21.71,0,0,1.23,8.09,3.82,15.72Z"/><path class="uuid-c3a6eae5-34c2-4348-b045-ee3a775c38d6" d="m461.68,281.65c1.48-4.21-.71-13.73-6.07-15.83"/><line class="uuid-c3a6eae5-34c2-4348-b045-ee3a775c38d6" x1="280.48" y1="387.88" x2="287.21" y2="401.78"/><line class="uuid-c3a6eae5-34c2-4348-b045-ee3a775c38d6" x1="287.21" y1="385.14" x2="293.75" y2="399.2"/><line class="uuid-c3a6eae5-34c2-4348-b045-ee3a775c38d6" x1="293.36" y1="382.62" x2="300" y2="396.73"/><g><path class="uuid-1614a14c-44f3-41f2-970a-f9e88ea2d137" d="m334.63,370.93l1.57,1.28c.15.12.36.17.55.11l1.94-.56c.48-.14.9.33.72.79l-.74,1.89c-.07.18-.05.39.06.55l1.14,1.68c.28.41-.03.96-.53.93l-2.02-.12c-.2-.01-.39.07-.51.23l-1.24,1.6c-.3.39-.92.26-1.05-.22l-.51-1.96c-.05-.19-.19-.34-.38-.41l-1.9-.69c-.47-.17-.54-.8-.12-1.07l1.7-1.09c.17-.11.27-.29.27-.48l.07-2.02c.02-.5.59-.76.98-.44h0Z"/><path class="uuid-1614a14c-44f3-41f2-970a-f9e88ea2d137" d="m352.67,363.26l1.57,1.28c.15.12.36.17.55.11l1.94-.56c.48-.14.9.33.72.79l-.74,1.89c-.07.18-.05.39.06.55l1.14,1.68c.28.41-.03.96-.53.93l-2.02-.12c-.2-.01-.39.07-.51.23l-1.24,1.6c-.3.39-.92.26-1.05-.22l-.51-1.96c-.05-.19-.19-.34-.38-.41l-1.9-.69c-.47-.17-.54-.8-.12-1.07l1.7-1.09c.17-.11.27-.29.27-.48l.07-2.02c.02-.5.59-.76.98-.44h0Z"/><path class="uuid-1614a14c-44f3-41f2-970a-f9e88ea2d137" d="m371.48,354.98l1.59,1.25c.15.12.36.16.55.1l1.93-.6c.47-.15.91.31.74.78l-.7,1.9c-.07.18-.04.39.07.55l1.17,1.65c.29.4-.02.96-.51.94l-2.02-.08c-.2,0-.38.08-.5.24l-1.21,1.62c-.3.4-.92.28-1.05-.2l-.55-1.95c-.05-.19-.2-.34-.38-.4l-1.92-.65c-.47-.16-.55-.79-.14-1.06l1.68-1.12c.16-.11.26-.29.27-.49l.03-2.02c0-.5.58-.77.97-.46h0Z"/><path class="uuid-1614a14c-44f3-41f2-970a-f9e88ea2d137" d="m389.42,346.05l1.67,1.14c.16.11.37.14.55.07l1.89-.73c.46-.18.93.25.79.73l-.57,1.94c-.06.19-.02.39.11.55l1.27,1.57c.31.39.05.96-.45.97l-2.02.05c-.2,0-.38.11-.49.27l-1.1,1.7c-.27.42-.9.34-1.07-.13l-.68-1.91c-.07-.19-.22-.33-.41-.38l-1.96-.52c-.48-.13-.6-.75-.21-1.05l1.6-1.23c.16-.12.24-.31.23-.51l-.11-2.02c-.03-.49.53-.8.94-.52h0Z"/><path class="uuid-1614a14c-44f3-41f2-970a-f9e88ea2d137" d="m405.93,337.19l1.71,1.09c.17.11.37.12.55.05l1.86-.79c.46-.19.94.22.81.7l-.51,1.96c-.05.19,0,.39.13.54l1.33,1.53c.33.37.08.96-.41.99l-2.02.12c-.2.01-.37.12-.48.29l-1.04,1.74c-.26.42-.89.37-1.07-.09l-.74-1.88c-.07-.18-.23-.32-.42-.36l-1.97-.46c-.48-.11-.63-.73-.25-1.04l1.56-1.29c.15-.13.23-.32.21-.51l-.18-2.02c-.04-.49.5-.82.92-.56h0Z"/></g></g><path class="uuid-b7057188-22a7-479d-9437-632318c9ac2d" d="m404.95,488.26c11.56,2.8,20.78,17.99,20.78,17.99,0,0,33.24,6.76,51.24,20.29l7.21-3.39-1.89-6.7s-31.23-16.75-50.98-17.71c0,0-7.08-8.51-12.34-9.3-5.26-.79-14.02-1.18-14.02-1.18h0Z"/><path class="uuid-f3cd72a2-e4c0-4201-b5e2-325e35e373ef" d="m490.26,485.51s-15.71-3.27-30.17-7.78c-14.46-4.51-25.51-10.58-25.51-10.58,0,0-5.75,4.04-7.78,4.51-1.78.41-124.87-31.46-154.41-39.12-.04-17.75-6.8-34.2-20.05-41.98-16.78-9.85-40.5,2.84-51.96-.89-11.46-3.73-14.08-38.2-57.48-43.98-43.41-5.78-74.21,23.56-86.3,54.22-12.09,30.66-7.3,85.91,54.32,93.9,32.12,4.16,46.04-19.92,68.1-16.65,18.73,2.78,19.06,19.57,37.56,20.82,0,0,7.8.37,11.04-3.07,0,0-.98-6.04-2.55-10.77-1.57-4.73-3.24-7.96-3.24-7.96,0,0,4.02-11.38,12.65-13.73,8.63-2.35,23.94,1.47,26.88,1.18,1.98-.2,4.55-2.12,6.76-7.14,39.95,9.21,144.97,33.46,149.5,34.88,5.6,1.76,11.98,10.32,11.98,10.32,0,0,16.95,3.73,30.33,8.87,13.38,5.13,24.26,12.6,24.26,12.6,0,0,3.89-12.91,8.87-17.27-3.27-7.47-2.8-20.38-2.8-20.38h0Z"/><path class="uuid-b7057188-22a7-479d-9437-632318c9ac2d" d="m216.43,497.98c-18.5-1.25-18.83-18.04-37.56-20.82-22.06-3.27-35.98,20.82-68.1,16.65-28.66-3.71-45.02-17.66-53.11-34.59,18.87,33.21,70.51,25.28,90.82,14.96,20.32-10.32,28.95-6.33,46.7,6.14,17.75,12.47,23.93,8.24,29.75,3.81,1.57,4.73,2.55,10.77,2.55,10.77-3.24,3.43-11.04,3.07-11.04,3.07h0Zm36.46-45.01h0c-4.99-.69-15.38-3.83-24.74,1.2-11.65,6.26-8.07,18.45-6.47,22.01.11.24.27.47.49.69-.21-.44-.34-.69-.34-.69,0,0,4.02-11.38,12.65-13.73,8.63-2.35,23.94,1.47,26.88,1.18,1.98-.2,4.55-2.12,6.76-7.14-9.43-2.17-15.24-3.51-15.24-3.51h0Zm13.17-22.07h0s2.29.59,6.32,1.64c-.02-9.45-1.94-18.54-5.75-26.14l-.2-.1c1.56,6.15,1.32,15.68-.38,24.6Z"/><g><g><path class="uuid-4c30d6be-6a29-4f20-9678-daf62593094f" d="m212.78,449.43l-14.2-3.29c-2.95-.68-4.24-3-2.87-5.16l15.67-24.85c1.37-2.17,4.87-3.37,7.82-2.69l14.2,3.29c2.95.68,4.24,3,2.87,5.16l-15.67,24.85c-1.37,2.17-4.87,3.37-7.82,2.69Z"/><path class="uuid-f0a83435-45fe-4dc4-9872-f810804941c5" d="m213.2,445.62l-10.75-2.49c-1.51-.35-2.17-1.53-1.47-2.64l13.79-21.87c.7-1.11,2.49-1.72,4-1.37l10.75,2.49c1.51.35,2.17,1.53,1.47,2.64l-13.79,21.87c-.7,1.11-2.49,1.72-4,1.37Z"/></g><g><path class="uuid-4c30d6be-6a29-4f20-9678-daf62593094f" d="m166.82,438.79l-14.2-3.29c-2.95-.68-4.24-3-2.87-5.16l15.67-24.85c1.37-2.17,4.87-3.37,7.82-2.69l14.2,3.29c2.95.68,4.24,3,2.87,5.16l-15.67,24.85c-1.37,2.17-4.87,3.37-7.82,2.69Z"/><path class="uuid-f0a83435-45fe-4dc4-9872-f810804941c5" d="m167.24,434.98l-10.75-2.49c-1.51-.35-2.17-1.53-1.47-2.64l13.79-21.87c.7-1.11,2.49-1.72,4-1.37l10.75,2.49c1.51.35,2.17,1.53,1.47,2.64l-13.79,21.87c-.7,1.11-2.49,1.72-4,1.37Z"/></g><path class="uuid-4c30d6be-6a29-4f20-9678-daf62593094f" d="m129.85,430.23h0c-2.95-.68-4.24-3-2.87-5.16l15.67-24.85c1.37-2.17,4.87-3.37,7.82-2.69h0c2.95.68,4.24,3,2.87,5.16l-15.67,24.85c-1.37,2.17-4.87,3.37-7.82,2.69Z"/><path class="uuid-4c30d6be-6a29-4f20-9678-daf62593094f" d="m107.78,425.12h0c-2.95-.68-4.24-3-2.87-5.16l15.67-24.85c1.37-2.17,4.87-3.37,7.82-2.69h0c2.95.68,4.24,3,2.87,5.16l-15.67,24.85c-1.37,2.17-4.87,3.37-7.82,2.69h0Z"/><path class="uuid-f0a83435-45fe-4dc4-9872-f810804941c5" d="m123.78,399.75l-11.38,18.04c-1.36,2.15-.1,4.44,2.81,5.14.14-.16.28-.32.4-.5l15.67-24.85c.11-.18.18-.35.25-.53-2.94-.65-6.39.55-7.75,2.7h0Z"/></g><g><path class="uuid-c3a6eae5-34c2-4348-b045-ee3a775c38d6" d="m436.81,495.25s-16.88-8.23-20.01-8.99-300.73-68.01-300.73-68.01"/><path class="uuid-c3a6eae5-34c2-4348-b045-ee3a775c38d6" d="m438.16,476.24s-11.22-.5-17.03-1.9c-5.81-1.4-294.08-73.68-294.08-73.68"/><path class="uuid-c3a6eae5-34c2-4348-b045-ee3a775c38d6" d="m473.11,489.44s-44.58-9.34-50.77-11.01c-6.2-1.66-299.13-71.93-299.13-71.93"/><path class="uuid-c3a6eae5-34c2-4348-b045-ee3a775c38d6" d="m119.35,412.39s288.32,67,298.94,69.56c10.62,2.56,53.31,24.81,53.31,24.81"/></g><g><g><ellipse class="uuid-7ac34740-3707-468c-be51-b66a0dd2ed67" cx="80.12" cy="438.43" rx="8" ry="6.02" transform="translate(-184.58 79.86) rotate(-26.08)"/><path class="uuid-8db21063-287c-4acc-a512-bbb5252bc182" d="m84.32,436.52c.6,1.22-.77,3.11-3.06,4.23-2.29,1.12-4.62,1.04-5.22-.18-.2-.41-1.95-3.98-2.48-5.06.41-1,4.02,1.57,5.54.83,1.51-.74,1.7-5.17,2.74-4.88l2.48,5.06h0Z"/><ellipse class="uuid-b54f6662-ff09-4ee8-b5f7-c135184e294b" cx="77.79" cy="433.66" rx="4.61" ry="3.55" transform="translate(-182.72 78.35) rotate(-26.08)"/></g><g><ellipse class="uuid-7ac34740-3707-468c-be51-b66a0dd2ed67" cx="106.81" cy="442.59" rx="8" ry="6.02" transform="translate(-183.69 92.02) rotate(-26.08)"/><path class="uuid-8db21063-287c-4acc-a512-bbb5252bc182" d="m111.01,440.68c.6,1.22-.77,3.11-3.06,4.23-2.29,1.12-4.62,1.04-5.22-.18-.2-.41-1.95-3.98-2.48-5.06.41-1,4.02,1.57,5.54.83,1.51-.74,1.7-5.17,2.74-4.88l2.48,5.06h0Z"/><ellipse class="uuid-b54f6662-ff09-4ee8-b5f7-c135184e294b" cx="104.47" cy="437.82" rx="4.61" ry="3.55" transform="translate(-181.84 90.5) rotate(-26.08)"/></g><g><ellipse class="uuid-7ac34740-3707-468c-be51-b66a0dd2ed67" cx="87.78" cy="459.18" rx="8" ry="6.02" transform="translate(-192.92 85.34) rotate(-26.08)"/><path class="uuid-8db21063-287c-4acc-a512-bbb5252bc182" d="m91.98,457.27c.6,1.22-.77,3.11-3.06,4.23-2.29,1.12-4.62,1.04-5.22-.18-.2-.41-1.95-3.98-2.48-5.06.41-1,4.02,1.57,5.54.83,1.51-.74,1.7-5.17,2.74-4.88l2.48,5.06h0Z"/><ellipse class="uuid-b54f6662-ff09-4ee8-b5f7-c135184e294b" cx="85.45" cy="454.41" rx="4.61" ry="3.55" transform="translate(-191.07 83.83) rotate(-26.08)"/></g><g><ellipse class="uuid-7ac34740-3707-468c-be51-b66a0dd2ed67" cx="114.47" cy="463.34" rx="8" ry="6.02" transform="translate(-192.04 97.5) rotate(-26.08)"/><path class="uuid-8db21063-287c-4acc-a512-bbb5252bc182" d="m118.67,461.44c.6,1.22-.77,3.11-3.06,4.23-2.29,1.12-4.62,1.04-5.22-.18-.2-.41-1.95-3.98-2.48-5.06.41-1,4.02,1.57,5.54.83,1.51-.74,1.7-5.17,2.74-4.88l2.48,5.06h0Z"/><ellipse class="uuid-b54f6662-ff09-4ee8-b5f7-c135184e294b" cx="112.14" cy="458.57" rx="4.61" ry="3.55" transform="translate(-190.18 95.99) rotate(-26.08)"/></g></g><g><ellipse class="uuid-7ac34740-3707-468c-be51-b66a0dd2ed67" cx="242.28" cy="405.28" rx="8" ry="6.02" transform="translate(-153.5 147.77) rotate(-26.08)"/><path class="uuid-8db21063-287c-4acc-a512-bbb5252bc182" d="m246.48,403.37c.6,1.22-.77,3.11-3.06,4.23-2.29,1.12-4.62,1.04-5.22-.18-.2-.41-1.95-3.98-2.48-5.06.41-1,4.02,1.57,5.54.83,1.51-.74,1.7-5.17,2.74-4.88l2.48,5.06h0Z"/><ellipse class="uuid-b54f6662-ff09-4ee8-b5f7-c135184e294b" cx="239.95" cy="400.51" rx="4.61" ry="3.55" transform="translate(-151.64 146.26) rotate(-26.08)"/></g><g><ellipse class="uuid-3b92c40e-5c35-41fc-a2cd-b71aa1e768f8" cx="443.7" cy="475.25" rx="5.05" ry="5.28" transform="translate(-189.67 328.37) rotate(-33.91)"/><path class="uuid-8db21063-287c-4acc-a512-bbb5252bc182" d="m443.56,472.68c-1.13.76-1.5,2.17-.83,3.16s2.12,1.18,3.24.42l4.68-3.14c.39-.71-.92-1.03-1.36-1.68-.44-.65-.24-1.99-1.04-1.9l-4.68,3.14Z"/><ellipse class="uuid-30e331db-4d21-49fc-9ac1-7c3c1e393256" cx="449.28" cy="471.43" rx="2.12" ry="2.16" transform="translate(-186.59 330.84) rotate(-33.91)"/></g><g><ellipse class="uuid-3b92c40e-5c35-41fc-a2cd-b71aa1e768f8" cx="476.71" cy="485.61" rx="5.05" ry="5.28" transform="translate(-189.83 348.55) rotate(-33.91)"/><path class="uuid-8db21063-287c-4acc-a512-bbb5252bc182" d="m476.58,483.03c-1.13.76-1.5,2.17-.83,3.16s2.12,1.18,3.24.42l4.68-3.14c.39-.71-.92-1.03-1.36-1.68-.44-.65-.24-1.99-1.04-1.9l-4.68,3.14Z"/><ellipse class="uuid-30e331db-4d21-49fc-9ac1-7c3c1e393256" cx="482.3" cy="481.78" rx="2.12" ry="2.16" transform="translate(-186.75 351.02) rotate(-33.91)"/></g><g><ellipse class="uuid-3b92c40e-5c35-41fc-a2cd-b71aa1e768f8" cx="474.12" cy="507.79" rx="5.05" ry="5.28" transform="translate(-202.65 350.88) rotate(-33.91)"/><path class="uuid-8db21063-287c-4acc-a512-bbb5252bc182" d="m473.98,505.22c-1.13.76-1.5,2.17-.83,3.16s2.12,1.18,3.24.42l4.68-3.14c.39-.71-.92-1.03-1.36-1.68-.44-.65-.24-1.99-1.04-1.9l-4.68,3.14Z"/><ellipse class="uuid-30e331db-4d21-49fc-9ac1-7c3c1e393256" cx="479.7" cy="503.97" rx="2.12" ry="2.16" transform="translate(-199.57 353.34) rotate(-33.91)"/></g><g><ellipse class="uuid-3b92c40e-5c35-41fc-a2cd-b71aa1e768f8" cx="441.1" cy="494.64" rx="5.05" ry="5.28" transform="translate(-200.93 330.22) rotate(-33.91)"/><path class="uuid-8db21063-287c-4acc-a512-bbb5252bc182" d="m440.96,492.07c-1.13.76-1.5,2.17-.83,3.16s2.12,1.18,3.24.42l4.68-3.14c.39-.71-.92-1.03-1.36-1.68-.44-.65-.24-1.99-1.04-1.9l-4.68,3.14Z"/><ellipse class="uuid-30e331db-4d21-49fc-9ac1-7c3c1e393256" cx="446.68" cy="490.82" rx="2.12" ry="2.16" transform="translate(-197.85 332.68) rotate(-33.91)"/></g></g></g></g></g></svg>
<svg id="uuid-812f6975-679d-4f88-a4ed-851daa0a87ab" data-name="BODY" xmlns="http://www.w3.org/2000/svg" viewBox="0 0 600 600"><defs><style>
      .uuid-c2b81f84-54b4-4471-8442-6dab97f9dbdb {
        fill: #7aa6ff;
      }

      .uuid-c2b81f84-54b4-4471-8442-6dab97f9dbdb, .uuid-8f93f715-e731-4f67-a3d6-2e442b938451, .uuid-52fe3725-26e2-42a9-8a9b-607d6ab8d4a1 {
        stroke: #000;
        stroke-linecap: round;
        stroke-linejoin: round;
        stroke-width: 2px;
      }

      .uuid-d52b56ba-8ce0-4864-b827-dcc6275d2116 {
        fill: #ffc9f1;
      }

      .uuid-8f93f715-e731-4f67-a3d6-2e442b938451 {
        fill: #ff78d8;
      }

      .uuid-52fe3725-26e2-42a9-8a9b-607d6ab8d4a1 {
        fill: none;
      }
    </style></defs><g id="uuid-2a31ff83-8394-4ae1-83e2-55ef45d928c7" data-name="uuid-831834e0-bbb8-426a-8cd6-ab5c8fbbbe1c"><g id="uuid-5a353068-881e-4ba2-860e-e9d7a7bbebc2" data-name="uuid-1fcb06a8-7212-4847-8b3f-ceda00c046b1"><g id="uuid-111bd790-e24a-47d4-950c-c3799bd40fa4" data-name="uuid-e9ed0fb3-5d7b-4b33-9f9b-ca7aaa2c4c4e"><circle class="uuid-8f93f715-e731-4f67-a3d6-2e442b938451" cx="489.69" cy="199.93" r="51.03" transform="translate(2.06 404.82) rotate(-45)"/><path class="uuid-8f93f715-e731-4f67-a3d6-2e442b938451" d="m543.98,181.68c-2.32-4.46-15.68-16.27-58.27-10.33-42.59,5.94-52.2,20.97-53.22,25.89-.85,4.1.27,25.66,12.14,26.71-2.48-5.6-3.39-10.66-3.39-10.66,0,0-1.04-13.08,47.55-19.86,48.44-6.76,51.17,6.09,51.17,6.09,0,0,.51,5.11-.34,11.18,11.13-4.26,6.3-25.29,4.37-29.01h0Z"/><g><path class="uuid-d52b56ba-8ce0-4864-b827-dcc6275d2116" d="m492.25,237.5c1.32-.8-2.83-7.79-4.88-20.65-2.05-12.86-1.21-17.43-3.79-17.45-2.58-.03-1.75,8.24.05,18.36,1.8,10.12,6.42,21.08,8.62,19.74h0Z"/><path class="uuid-d52b56ba-8ce0-4864-b827-dcc6275d2116" d="m465.36,219.85c-2.16,1.34-9.64-7.23-9.38-8.55s4.45-3.65,5.41-2.82,5.04,10.7,3.97,11.37Z"/><path class="uuid-d52b56ba-8ce0-4864-b827-dcc6275d2116" d="m507.79,240.81c.65,2.43,7.9-2.07,12.66-6.28,4.76-4.21,8.23-8.88,6.69-10.21s-5.38,3.46-9.7,7.15c-4.32,3.7-10.05,7.85-9.65,9.34h0Z"/><path class="uuid-d52b56ba-8ce0-4864-b827-dcc6275d2116" d="m528.66,221.27c1.31.69,5.74-5.97,3.92-6.69-1.82-.71-6.04,5.58-3.92,6.69Z"/><path class="uuid-d52b56ba-8ce0-4864-b827-dcc6275d2116" d="m517.57,174.22s2.67,7.62,3,13.63c6.31-.04,12.92,2.51,12.92,2.51,0,0-3.07-9.46-7.13-14.5,0,0-4.27-1.64-8.79-1.65Z"/><path class="uuid-d52b56ba-8ce0-4864-b827-dcc6275d2116" d="m446.91,187.4c-.93-.33-6.26,3.61-6.55,4.81s.52,10.21,1.91,11.14c1.39.93,7.99-14.78,4.64-15.95h0Z"/><path class="uuid-d52b56ba-8ce0-4864-b827-dcc6275d2116" d="m475.33,176.57c-1.18.68-2.89,14.87-2.63,15.54s15.42-1.93,16.17-2.61,1.34-14.43,1.1-14.98-12.84,1.02-14.63,2.04h0Z"/><path class="uuid-d52b56ba-8ce0-4864-b827-dcc6275d2116" d="m498.29,155.85c-1.48,3.03,14.49,8.56,15,6.7.51-1.86-12.18-12.47-15-6.7h0Z"/><path class="uuid-d52b56ba-8ce0-4864-b827-dcc6275d2116" d="m483.58,154.84c-.49,2.43,7.45,3.41,7.96.48.51-2.92-7.37-3.42-7.96-.48Z"/><path class="uuid-d52b56ba-8ce0-4864-b827-dcc6275d2116" d="m455.96,168.67c.51,3.37,9.82-2.85,8.12-5.58-1.7-2.73-8.56,2.64-8.12,5.58Z"/><path class="uuid-d52b56ba-8ce0-4864-b827-dcc6275d2116" d="m540.23,182.79c-3.62-1.64-.58,3.92.1,7.88.68,3.96.57,8.04,1.63,8.18,1.05.14,1.45-4.59,1.08-8.88s-.47-6.12-2.81-7.18h0Z"/></g><g><path class="uuid-c2b81f84-54b4-4471-8442-6dab97f9dbdb" d="m498.33,310.64h0s5.18.71,9.29,5.39c2.5-3.41,4.47-4.48,4.47-4.48l-9.42-67.52s-.42-2.97-7.1-2.04c-6.69.93-6.27,3.9-6.27,3.9l9.04,64.74Z"/><path class="uuid-c2b81f84-54b4-4471-8442-6dab97f9dbdb" d="m519.24,362.8c-14.5-4.39-8.79-16.19-2.56-18.34h0c-5.56-1.96-7.11-9.88-2.07-14.81h0c-4.28-.28-6.34-2.76-6.34-2.76,0,0-2.5,4.3-7.09,4.22h0l14.63,104.82s.41,2.97,7.1,2.04c6.69-.93,6.27-3.9,6.27-3.9l-9.95-71.27h0Z"/><path class="uuid-52fe3725-26e2-42a9-8a9b-607d6ab8d4a1" d="m515.82,435.93c-.57-4.08,12.8-5.94,13.37-1.87"/></g></g></g></g></svg>
</svg>