<?xml version="1.0" encoding="UTF-8"?>
<svg xmlns="http://www.w3.org/2000/svg" viewBox="0 0 600 600">
<svg id="uuid-b5df70f2-f26b-4cc4-9992-c02ca3e1ffe7" data-name="BACKGROUND" xmlns="http://www.w3.org/2000/svg" viewBox="0 0 600 600"><defs><style>
      .uuid-b49e1da8-89ab-4517-8063-4eac3fbcc068 {
        fill: #3ef1ff;
      }
    </style></defs><rect class="uuid-b49e1da8-89ab-4517-8063-4eac3fbcc068" x="-1" y="-1" width="602" height="602"/></svg>
<svg id="uuid-f93a7132-06a1-47b1-a2b4-c77f0728fad5" data-name="BODY" xmlns="http://www.w3.org/2000/svg" viewBox="0 0 600 600"><defs><style>
      .uuid-82287df5-6e35-4d66-8626-4bcb7eb53383 {
        fill: #fff;
      }

      .uuid-f691cc19-eed2-4361-aa82-a86e6caf5410, .uuid-516df90e-beab-48b6-8588-feebfcfe5d61, .uuid-54ede7df-6fa7-4365-a011-4ce7326aa7be, .uuid-3ebb8b96-d2bc-4434-b638-264e68acdf77, .uuid-608d99e6-bfbc-497c-9aff-848f8a7e71be {
        stroke: #000;
        stroke-width: 2px;
      }

      .uuid-f691cc19-eed2-4361-aa82-a86e6caf5410, .uuid-516df90e-beab-48b6-8588-feebfcfe5d61, .uuid-3ebb8b96-d2bc-4434-b638-264e68acdf77, .uuid-608d99e6-bfbc-497c-9aff-848f8a7e71be {
        fill: #ff78d8;
      }

      .uuid-f691cc19-eed2-4361-aa82-a86e6caf5410, .uuid-3ebb8b96-d2bc-4434-b638-264e68acdf77 {
        stroke-miterlimit: 10;
      }

      .uuid-516df90e-beab-48b6-8588-feebfcfe5d61, .uuid-54ede7df-6fa7-4365-a011-4ce7326aa7be, .uuid-3ebb8b96-d2bc-4434-b638-264e68acdf77 {
        stroke-linecap: round;
      }

      .uuid-516df90e-beab-48b6-8588-feebfcfe5d61, .uuid-54ede7df-6fa7-4365-a011-4ce7326aa7be, .uuid-608d99e6-bfbc-497c-9aff-848f8a7e71be {
        stroke-linejoin: round;
      }

      .uuid-54ede7df-6fa7-4365-a011-4ce7326aa7be {
        fill: none;
      }
    </style></defs><ellipse cx="300" cy="518.65" rx="138.6" ry="22.93"/><g><path class="uuid-f691cc19-eed2-4361-aa82-a86e6caf5410" d="m319.36,427.14c-1.16,1.05-54.95,57-54.95,57,0,0,21.51-1.95,31.74,10.62,10.23,12.57,7.26,23.89,7.26,23.89h-66.9s-28.69-36.17-28.69-36.17c0,0,3.74-13.4,20.44-10.59,20.9-19.38,55.52-59.13,55.52-59.13l35.59,14.38Z"/><path d="m283.78,412.76l31.28,12.64-3.24,9.5c-2.93,3.03-9.76,10.12-13.64,14.14-11.92,0-27.98-2.13-41.33-6.37,13.95-15.1,26.93-29.92,26.93-29.92Z"/></g><g><path class="uuid-516df90e-beab-48b6-8588-feebfcfe5d61" d="m409.81,359.6c9.2,3.77,29.89,12.05,42.79,16.03,2.11.65,4.41.69,6.5-.04,11.79-4.08,28.47-11.39,33.03-11.32,5.25.08,7.8,3.93,19.88,2.04,13.36-2.1,22.43-11.99,20.93-23.3-4.21-43.28-25.18-26.79-25.18-26.79,0,0-5.84-8.75-18.76-4.82-11.83,3.6-10.2,14.44-6.47,22.47l-25.29,8.58c-2.14.72-4.45.71-6.59-.02l-35.7-12.61"/><path class="uuid-3ebb8b96-d2bc-4434-b638-264e68acdf77" d="m533.36,312.82c2.5,3.94,1.62,9.14-1.57,12.4-2.47,2.53-5.88,3.88-9.32,4.4-2.8.43-5.7.42-8.49-.08-2.14-.39-4.29-1.1-5.79-2.75-1.66-1.83-2.27-4.46-1.98-6.87.51-4.17,3.84-7.14,7.22-9.26,3.17-1.98,6.86-3.26,10.64-3.09,3.8.18,7.36,2.19,9.3,5.24Z"/><path class="uuid-3ebb8b96-d2bc-4434-b638-264e68acdf77" d="m538.57,349.84c.97,3.03.32,6.43-1.5,9.01-3.77,5.33-11.17,5.65-16.96,4.27-3.31-.79-6.69-2.21-8.67-5.13-3.13-4.61-.82-9.79,3.48-12.56,2.58-1.66,5.61-2.67,8.63-3.14,5.73-.89,13.1,1.51,15.03,7.56Z"/><path class="uuid-3ebb8b96-d2bc-4434-b638-264e68acdf77" d="m538.71,328.53c1.8,2.99,2.06,6.89.22,9.9-1.95,3.2-4.94,5.25-8.49,6.28-3.66,1.07-7.64,1.27-11.4.44-2.25-.5-4.53-1.38-5.96-3.28-1.86-2.47-1.89-5.68-.85-8.49,1.2-3.24,4.17-5.69,7.09-7.37,6.15-3.56,15.21-4.43,19.39,2.52Z"/><path class="uuid-3ebb8b96-d2bc-4434-b638-264e68acdf77" d="m501.85,311.68s9.27,3.84,7.77,12.02c-1.04,5.68-8.17,9.55-14.94,6.13"/><path class="uuid-54ede7df-6fa7-4365-a011-4ce7326aa7be" d="m500.67,331.08c2.41,1.63,5.11,8.04,3.4,14.42"/><path d="m443.44,339.88c-2.88,10.58-6.94,20.23-11.17,28.59-10.17-3.78-21.16-9.53-27-11.93l11.83-26.02,26.35,9.36Z"/></g><g><circle class="uuid-f691cc19-eed2-4361-aa82-a86e6caf5410" cx="300" cy="300" r="138.16"/><path class="uuid-82287df5-6e35-4d66-8626-4bcb7eb53383" d="m184.58,308.17c-4.41,0-7.98-3.57-7.98-7.98,0-67.74,55.11-122.86,122.86-122.86,4.41,0,7.98,3.57,7.98,7.98s-3.57,7.98-7.98,7.98c-58.94,0-106.9,47.95-106.9,106.9,0,4.41-3.57,7.98-7.98,7.98Z"/></g><path class="uuid-54ede7df-6fa7-4365-a011-4ce7326aa7be" d="m264.41,484.14c-4.06.49-11.49,1.36-17.85,7.23"/><path class="uuid-82287df5-6e35-4d66-8626-4bcb7eb53383" d="m185.17,308.14c-4.41,0-7.98-3.57-7.98-7.98,0-67.74,55.11-122.86,122.86-122.86,4.41,0,7.98,3.57,7.98,7.98s-3.57,7.98-7.98,7.98c-58.94,0-106.9,47.95-106.9,106.9,0,4.41-3.57,7.98-7.98,7.98Z"/><path d="m203.75,397.46l34.2-27.46-24.86,36.3c-6.73-5.1-3.66-2.61-9.34-8.83Z"/><path class="uuid-608d99e6-bfbc-497c-9aff-848f8a7e71be" d="m323.72,387.31c19.14-13.4,39.15-11.3,55.52,7.36,19.6,22.35,30.57,33.06,30.57,33.06,0,0,10.74-19.34,34.77-17.5,18.26,1.4,24.84,14.43,24.84,14.43,0,0,6.21,8.82-22.45,33.5-28.66,24.68-54.93,40.92-61.14,29.46-6.21-11.46-2.82-32.1-2.82-32.1,0,0-22.02-26.09-27.94-32.01-6.79-6.79-15.71-1.36-15.71-1.36"/><path class="uuid-f691cc19-eed2-4361-aa82-a86e6caf5410" d="m446.97,458.17c-25.89,22.29-49.82,37.69-58.79,32.02-9.77-7.44,26.84-38.54,44.88-52.7,18.04-14.16,32.17-17.82,36.36-12.81,0,0,6.21,8.82-22.45,33.5Z"/><path class="uuid-54ede7df-6fa7-4365-a011-4ce7326aa7be" d="m409.81,427.74c-1.89,2.86-4.55,10.38-4.55,10.38"/><g><path class="uuid-516df90e-beab-48b6-8588-feebfcfe5d61" d="m214.11,345.7c-8.05,5.83-25.34,20.79-35.52,29.67-1.67,1.45-2.82,3.41-3.39,5.55-3.14,11.67-8.55,33.44-8.55,33.44,0,0-8.42.58-12.19,14.35-3.64,13.3-6.64,25.06,3.77,29.75.35,7.47,7.51,15.45,19.2,9.41.14-.06,1.32,1.32,1.44,1.45,2.64,2.7,6.36,4.45,10.13,4.81,3.65.36,7.61-.67,10.43-3.08,3.29-2.81,5.4-6.94,6.05-11.2.4-2.61.26-5.31-.75-7.78,0,0,6.2-2.51,8.05-11.34,1.99-9.49-4.22-19.42-14.62-18.18l6.17-23.11c.51-2.2,1.74-4.16,3.49-5.59l29.38-24.3"/><path class="uuid-54ede7df-6fa7-4365-a011-4ce7326aa7be" d="m204.73,452.06c-1.37-3.47-5.39-7.08-9-6.88"/><path class="uuid-54ede7df-6fa7-4365-a011-4ce7326aa7be" d="m178.86,469.3c-5.16-5.27-3.82-11.97-2.9-13.54"/><path class="uuid-54ede7df-6fa7-4365-a011-4ce7326aa7be" d="m158.22,458.45c-.27-5.22.73-7.32,3.06-9.83"/><path class="uuid-54ede7df-6fa7-4365-a011-4ce7326aa7be" d="m193.93,450.63c.14-2.07.48-4.16,1.32-6.06.85-1.95,2.36-3.88,4.31-4.85"/></g></svg>
<svg id="uuid-d2017022-49ac-4767-bd5b-8d3e235df956" data-name="BODY" xmlns="http://www.w3.org/2000/svg" viewBox="0 0 600 600"><defs><style>
      .uuid-ceb1f6db-ac22-433a-a64d-b7c361a52305 {
        fill: #ffff0d;
      }

      .uuid-ceb1f6db-ac22-433a-a64d-b7c361a52305, .uuid-8fc51c2b-2e55-48cc-a922-83a746c6089c {
        stroke-width: 2px;
      }

      .uuid-ceb1f6db-ac22-433a-a64d-b7c361a52305, .uuid-8fc51c2b-2e55-48cc-a922-83a746c6089c, .uuid-ededc5f7-d71c-4a39-8679-141d6e366d35 {
        stroke: #000;
        stroke-linecap: round;
        stroke-linejoin: round;
      }

      .uuid-8fc51c2b-2e55-48cc-a922-83a746c6089c, .uuid-ededc5f7-d71c-4a39-8679-141d6e366d35 {
        fill: none;
      }

      .uuid-ededc5f7-d71c-4a39-8679-141d6e366d35 {
        stroke-width: 4px;
      }
    </style></defs><g id="uuid-2e50336c-81e2-44ae-a2f0-cfae5c829496" data-name="uuid-ca7a59fd-5ea4-4026-baf3-83b8314686b7"><g><path d="m371.9,289.97c1.87,5.07-.73,10.69-5.8,12.56-5.07,1.87-10.69-.73-12.56-5.8l18.36-6.76h0Z"/><path class="uuid-ededc5f7-d71c-4a39-8679-141d6e366d35" d="m347.02,271.26c1.87,5.07-.73,10.69-5.8,12.56-5.07,1.87-10.69-.73-12.56-5.8"/><path class="uuid-ededc5f7-d71c-4a39-8679-141d6e366d35" d="m378.7,259.59c1.87,5.07-.73,10.69-5.8,12.56-5.07,1.87-10.69-.73-12.56-5.8"/><g><path class="uuid-ceb1f6db-ac22-433a-a64d-b7c361a52305" d="m394.29,286.52l-6.54-4.3c-2.76-1.82-6.22-2.22-9.33-1.07l-17.8,6.56-17.8,6.56c-3.1,1.14-5.48,3.69-6.4,6.87l-2.18,7.52c-.22.76.52,1.45,1.26,1.17l23.58-8.69c1.5-.55,2.5-1.96,2.54-3.56l.15-6.73,4.48,5.03c1.06,1.19,2.74,1.61,4.24,1.06l23.58-8.69c.74-.27.86-1.28.2-1.71l.02-.02Z"/><g><line class="uuid-8fc51c2b-2e55-48cc-a922-83a746c6089c" x1="352.99" y1="303.37" x2="353.29" y2="295.54"/><line class="uuid-8fc51c2b-2e55-48cc-a922-83a746c6089c" x1="343.37" y1="306.92" x2="344.56" y2="298.75"/><line class="uuid-8fc51c2b-2e55-48cc-a922-83a746c6089c" x1="376.62" y1="294.67" x2="371.32" y2="288.89"/><line class="uuid-8fc51c2b-2e55-48cc-a922-83a746c6089c" x1="386.25" y1="291.12" x2="380.04" y2="285.68"/></g></g><g><ellipse cx="334.14" cy="264.66" rx="11.53" ry="3.94" transform="translate(-70.88 131.8) rotate(-20.22)"/><ellipse cx="365.82" cy="252.99" rx="11.53" ry="3.94" transform="translate(-64.9 142.03) rotate(-20.22)"/></g></g></g></svg>
<svg id="uuid-7eb5044b-fa94-461c-9907-85b3dc64ac7e" data-name="BODY" xmlns="http://www.w3.org/2000/svg" viewBox="0 0 600 600"><defs><style>
      .uuid-87397e4f-7e3d-490c-b43b-0db3bec0377c {
        stroke-miterlimit: 10;
      }

      .uuid-87397e4f-7e3d-490c-b43b-0db3bec0377c, .uuid-179c102d-ff8a-46ca-913c-1d5c9e7a9cc5, .uuid-81fb7240-34aa-4204-83f9-daaedb437d29 {
        stroke: #000;
        stroke-width: 2px;
      }

      .uuid-87397e4f-7e3d-490c-b43b-0db3bec0377c, .uuid-81fb7240-34aa-4204-83f9-daaedb437d29 {
        fill: #00dfa9;
      }

      .uuid-179c102d-ff8a-46ca-913c-1d5c9e7a9cc5 {
        fill: #00dea8;
      }

      .uuid-179c102d-ff8a-46ca-913c-1d5c9e7a9cc5, .uuid-81fb7240-34aa-4204-83f9-daaedb437d29 {
        stroke-linecap: round;
        stroke-linejoin: round;
      }
    </style></defs><g id="uuid-0a79d125-2460-4fad-b66e-ec883e358a37" data-name="cloath"><path class="uuid-87397e4f-7e3d-490c-b43b-0db3bec0377c" d="m475.37,333.6l-.67.23-18.19,6.17c-2.14.72-4.45.71-6.59-.02l-14.53-5.13-.84-.31c-1.28,9.01-3.34,22.43-5.9,35.7,8.27,3.18,17.18,6.45,23.95,8.54,2.11.65,4.41.69,6.5-.04,8.64-2.99,19.91-7.72,27.11-10-5.49-14.17-8.97-27.13-10.85-35.15Z"/><path class="uuid-179c102d-ff8a-46ca-913c-1d5c9e7a9cc5" d="m389.96,395.83c.5,4.15.99,8.37,1.44,12.46,11.91,13.09,18.41,19.44,18.41,19.44,0,0,2.52-4.53,7.85-9,2.33-9.7,5.36-22.52,8.28-35.44,5.93-26.21,10.09-59.65,10.09-59.65l-58.59,43.63s9.92,7.1,12.53,28.55Z"/><path class="uuid-179c102d-ff8a-46ca-913c-1d5c9e7a9cc5" d="m229.38,322.79c-22.2-11.38-65.51-50.43-65.51-50.43,0,0-16.23,68.13-9.71,140.58,2.57,1.21,5.13,2.38,7.68,3.52,2.63-1.94,4.79-2.09,4.79-2.09,0,0,5.41-21.77,8.55-33.44.57-2.14,1.73-4.09,3.39-5.55,10.18-8.88,27.47-23.84,35.52-29.67l23.09,23.85-29.38,24.3c-1.75,1.43-2.97,3.39-3.49,5.59l-6.17,23.11c8.2-.97,13.79,4.99,14.82,12.21,66.61,18.53,119.01,13.83,119.01,13.83,0,0,18.43-66.82,37.77-80.41-68.91-16.49-81.39-15.13-140.38-45.38Z"/><path class="uuid-81fb7240-34aa-4204-83f9-daaedb437d29" d="m219.04,338.63c-8.05,5.83-31.04,24.25-41.22,33.13-1.67,1.45-2.82,3.41-3.39,5.55-1.89,7.03-4.6,17.71-6.46,25.1,3.49.59,9.59,2.09,17.16,5.88s15.2,7.66,19.3,9.74l4.87-18.24c.51-2.2,1.74-4.16,3.49-5.59l28.69-22.43"/><circle class="uuid-179c102d-ff8a-46ca-913c-1d5c9e7a9cc5" cx="173.5" cy="387.84" r="8.9"/><g><path class="uuid-179c102d-ff8a-46ca-913c-1d5c9e7a9cc5" d="m365.71,370.05c0-2.38.94-4.54,2.47-6.14-36.47-3.56-107.71-32.49-135.31-50.98-29.4-19.7-64.67-54.67-64.67-54.67,0,0-7.58,4.34-6.36,23.82,16.08,31.85,61.46,83.03,61.46,83.03l53.91-16.78-7.39,45.48s33.27-4.01,54.62-9.13c19.17-4.59,35.64-8.53,42.39-10.31-.71-1.28-1.12-2.75-1.12-4.32Z"/><path class="uuid-179c102d-ff8a-46ca-913c-1d5c9e7a9cc5" d="m438.28,298.43s-9.6,21.32-26.38,38.85c-9.15,9.56-25.57,20.93-32.29,25.42,2.34,1.6,3.88,4.29,3.88,7.35,0,1.17-.23,2.29-.64,3.31,10.42-2.02,33.64-8.21,49.69-25.01,8.17-22.96,5.74-49.91,5.74-49.91Z"/><circle class="uuid-179c102d-ff8a-46ca-913c-1d5c9e7a9cc5" cx="374.6" cy="370.05" r="8.9"/></g><path d="m436.13,335.09c-.88,4.42-2.04,8.91-3.59,13.26-.03.03-.06.06-.09.09-1.08,6.81-2.37,14.4-3.83,21.93,2.65.99,5.17,1.94,7.4,2.76,3.26-12,5.61-23.22,7.96-35.22l-7.85-2.83Z"/><path d="m207.37,394.72l34.83-22.3-38.87,49.43c-1.04-.39-2.74-.39-3.99-.28,2.43-8.59,6.17-23.11,8.04-26.85Z"/></g></svg>
<svg id="uuid-1b08aac9-9e08-4756-8d9e-8a9f6603c534" data-name="BODY" xmlns="http://www.w3.org/2000/svg" viewBox="0 0 600 600"><defs><style>
      .uuid-ac87fed6-fa30-4749-a240-d8828610f74f {
        fill: #00dfa9;
      }

      .uuid-1ff638b6-d0d1-4217-9825-a9422071689c {
        fill: #fff;
      }

      .uuid-872febec-4330-4ab2-a86b-49734363ee8d {
        fill: #ffff0d;
      }

      .uuid-8397099a-fe48-40cd-8fdd-5b593e433b66 {
        fill: #ff78d8;
      }

      .uuid-778e30d1-bd04-42f1-a7e6-ba8a3704772a {
        stroke-linecap: round;
        stroke-linejoin: round;
      }

      .uuid-778e30d1-bd04-42f1-a7e6-ba8a3704772a, .uuid-f1cf2760-0093-43d9-874f-71ff5def6357 {
        fill: none;
        stroke: #000;
        stroke-width: 2px;
      }

      .uuid-f1cf2760-0093-43d9-874f-71ff5def6357 {
        stroke-miterlimit: 10;
      }
    </style></defs><g id="uuid-798ab33b-e031-4a28-9cf1-199bb8f2066a" data-name="uuid-0591a78b-92e4-47f5-82f5-87bb82cff089"><g id="uuid-b84e47fe-6a5b-4076-8558-b05772d8acd0" data-name="uuid-ef3ece4f-8150-4652-82a9-55a11f34e840"><g id="uuid-a524eb37-ac85-42fb-8897-0cae06d4e47d" data-name="uuid-4dd11de8-2cdc-4aed-ae75-b123e92e7551"><path class="uuid-1ff638b6-d0d1-4217-9825-a9422071689c" d="m494.67,329.83s.94,43.86,1.14,58.12c.2,14.26,29.12,10.42,36.3,6.37l-2.02-5.06s9.99-3.71,6.94-13.13c-.08-.25-.17-.5-.27-.75-3.84-9.98-4.9-12.61-4.9-12.61,0,0-3.84,1.47-11.22.4-9.2-1.32-16.03-11.07-4.5-18.49,0,0-4.74-2.49-4.59-7.3.15-4.81,2.82-7.47,2.82-7.47,0,0-3.95-.82-6.08-2.91,0,0-4.96,6.88-13.61,2.82h-.01Z"/><path class="uuid-1ff638b6-d0d1-4217-9825-a9422071689c" d="m489.51,311.27l-14.63-29.66s1.69-13.55,17.93-16.79c16.25-3.24,24.61,9.03,24.61,9.03l-.57,34.87s-5.76,2.22-9.1,7.08c0,0-7.3-8.36-18.24-4.53h0Z"/></g><g id="uuid-1284ab39-adff-4632-966d-92d334e68346" data-name="uuid-8b80c383-2de1-459e-b0cd-74fd20d90043"><path class="uuid-ac87fed6-fa30-4749-a240-d8828610f74f" d="m476.28,284.44s.82-8.1,7.7-8.77c6.88-.67,7.96,7.15,6,14.09-1.96,6.94-6.42,9.17-6.42,9.17l-7.28-14.49h0Z"/><path class="uuid-872febec-4330-4ab2-a86b-49734363ee8d" d="m493.89,267.16c-4.85.86-3.59,7.53,1.37,6.88,4.96-.66,3.49-7.74-1.37-6.88Z"/><path class="uuid-8397099a-fe48-40cd-8fdd-5b593e433b66" d="m517.34,278.53c-2.27-6.98-12.33-9.33-14.96-2.91-2.56,6.26,2.94,14.76,8.85,16.1,3.99.91,5.9-.51,5.9-.51l.21-12.69h0Z"/><path class="uuid-872febec-4330-4ab2-a86b-49734363ee8d" d="m507.49,296.02s-4.55-3.43-8.24.52c-3.69,3.94,1.62,12.36,9.84,11.58,6.04-.57,3.17-8.48-.82-9.15l-.77-2.95h-.01Z"/><path class="uuid-8397099a-fe48-40cd-8fdd-5b593e433b66" d="m495.02,346.73c9.79-.47,12.65,12.77.37,18.05l-.37-18.05Z"/><path class="uuid-8397099a-fe48-40cd-8fdd-5b593e433b66" d="m514.15,371.23c.22,10.55,13.47,9.54,13.74-1.01,0,0-9.31-1.15-13.74,1.01Z"/><path class="uuid-ac87fed6-fa30-4749-a240-d8828610f74f" d="m506.86,373.81c.93,7.57-3.84,17.2-8.84,8.82,3.5-6.31,8.84-8.82,8.84-8.82Z"/><path class="uuid-872febec-4330-4ab2-a86b-49734363ee8d" d="m512.79,389.84c.82-8.86,13.61-8.68,15.38,0,0,0-1.52,1.56-7.43,1.53-5.91-.03-7.95-1.53-7.95-1.53Z"/><path class="uuid-8397099a-fe48-40cd-8fdd-5b593e433b66" d="m517.55,397.84c-2.43-7.41-14.01-7.71-15.85-1.75,7.71,3.39,15.85,1.75,15.85,1.75Z"/><path class="uuid-872febec-4330-4ab2-a86b-49734363ee8d" d="m510.37,356.1c-8.49,2.16-5.54,12.11,1.31,11.33,5.02-.57,5.51-5.17,5.51-5.17,0,0-2.14-.83-4.19-2.24s-2.63-3.91-2.63-3.91h0Z"/><path class="uuid-ac87fed6-fa30-4749-a240-d8828610f74f" d="m525.84,363.71c1.18,4.82,7.79,3.58,7.79,3.58l-1.78-4.52-6.02.94h.01Z"/><path class="uuid-ac87fed6-fa30-4749-a240-d8828610f74f" d="m514.28,343.96c-4.75,2.7-10.35.66-11.36-5.67l3.64-2.86,5.19-.57s-.74,1.38.2,4.99c.94,3.61,2.33,4.11,2.33,4.11h0Z"/></g><g><path class="uuid-778e30d1-bd04-42f1-a7e6-ba8a3704772a" d="m494.67,329.83s.94,43.86,1.14,58.12c.2,14.26,29.12,10.42,36.3,6.37l-2.02-5.06s9.99-3.71,6.94-13.13c-.08-.25-.17-.5-.27-.75-3.84-9.98-4.9-12.61-4.9-12.61,0,0-3.84,1.47-11.22.4-9.2-1.32-16.03-11.07-4.5-18.49,0,0-4.74-2.49-4.59-7.3.15-4.81,2.82-7.47,2.82-7.47,0,0-3.95-.82-6.08-2.91,0,0-4.96,6.88-13.61,2.82h-.01Z"/><path class="uuid-778e30d1-bd04-42f1-a7e6-ba8a3704772a" d="m489.51,311.27l-14.63-29.66s1.69-13.55,17.93-16.79c16.25-3.24,24.61,9.03,24.61,9.03l-.57,34.87s-5.76,2.22-9.1,7.08c0,0-7.3-8.36-18.24-4.53h0Z"/></g><line class="uuid-778e30d1-bd04-42f1-a7e6-ba8a3704772a" x1="505.55" y1="281.33" x2="509.78" y2="313.39"/><line class="uuid-778e30d1-bd04-42f1-a7e6-ba8a3704772a" x1="491.33" y1="297.65" x2="499.99" y2="310.99"/><path class="uuid-f1cf2760-0093-43d9-874f-71ff5def6357" d="m530.09,389.27c-6.34,3.1-16.38,3.03-20.76-1.96l-.5-14.52"/><path class="uuid-f1cf2760-0093-43d9-874f-71ff5def6357" d="m536.88,375.69c-1.68-4.38-8.61-7.31-21.96-4.83-13.35,2.48-19.23,13.86-18.98,18.52"/><polygon points="494.45 338 504.61 338.27 511.55 336.98 512.39 333.19 514.36 329.92 508.28 327.01 504.2 329.93 499.86 330.82 495.02 330.36 494.45 338"/></g></g></svg>
</svg>