<?xml version="1.0" encoding="UTF-8"?>
<svg xmlns="http://www.w3.org/2000/svg" viewBox="0 0 600 600">
<svg id="uuid-76576d14-1db9-41e1-baf2-b575b174d48a" data-name="BACKGROUND" xmlns="http://www.w3.org/2000/svg" viewBox="0 0 600 600"><defs><style>
      .uuid-5f5134e1-be85-4028-9053-a97aa84d746d {
        fill: #f9a723;
      }
    </style></defs><rect class="uuid-5f5134e1-be85-4028-9053-a97aa84d746d" x="-1" y="-1" width="602" height="602"/></svg>
<svg id="uuid-0a627572-8e49-4d41-b604-6d2cd0d32bdd" data-name="BODY" xmlns="http://www.w3.org/2000/svg" viewBox="0 0 600 600"><defs><style>
      .uuid-20245732-3cad-49d1-ac97-e0ac388550f3 {
        fill: #fff;
      }

      .uuid-f38a32ef-6172-45e7-957b-e89bf9d272a0, .uuid-07c074c9-1e26-4335-be01-1bb5dda577de, .uuid-890e0c82-6af4-45ed-921b-f8a5d79130b7, .uuid-0a238a3f-afd5-43e5-94a8-dd2acee1bcef, .uuid-d5e4c988-c233-4e82-9835-ea21972592ad {
        stroke: #000;
        stroke-width: 2px;
      }

      .uuid-f38a32ef-6172-45e7-957b-e89bf9d272a0, .uuid-07c074c9-1e26-4335-be01-1bb5dda577de, .uuid-0a238a3f-afd5-43e5-94a8-dd2acee1bcef, .uuid-d5e4c988-c233-4e82-9835-ea21972592ad {
        fill: #9dff0c;
      }

      .uuid-f38a32ef-6172-45e7-957b-e89bf9d272a0, .uuid-0a238a3f-afd5-43e5-94a8-dd2acee1bcef {
        stroke-miterlimit: 10;
      }

      .uuid-07c074c9-1e26-4335-be01-1bb5dda577de, .uuid-890e0c82-6af4-45ed-921b-f8a5d79130b7, .uuid-0a238a3f-afd5-43e5-94a8-dd2acee1bcef {
        stroke-linecap: round;
      }

      .uuid-07c074c9-1e26-4335-be01-1bb5dda577de, .uuid-890e0c82-6af4-45ed-921b-f8a5d79130b7, .uuid-d5e4c988-c233-4e82-9835-ea21972592ad {
        stroke-linejoin: round;
      }

      .uuid-890e0c82-6af4-45ed-921b-f8a5d79130b7 {
        fill: none;
      }
    </style></defs><ellipse cx="300" cy="518.65" rx="138.6" ry="22.93"/><g><path class="uuid-f38a32ef-6172-45e7-957b-e89bf9d272a0" d="m319.36,427.14c-1.16,1.05-54.95,57-54.95,57,0,0,21.51-1.95,31.74,10.62,10.23,12.57,7.26,23.89,7.26,23.89h-66.9s-28.69-36.17-28.69-36.17c0,0,3.74-13.4,20.44-10.59,20.9-19.38,55.52-59.13,55.52-59.13l35.59,14.38Z"/><path d="m283.78,412.76l31.28,12.64-3.24,9.5c-2.93,3.03-9.76,10.12-13.64,14.14-11.92,0-27.98-2.13-41.33-6.37,13.95-15.1,26.93-29.92,26.93-29.92Z"/></g><g><path class="uuid-07c074c9-1e26-4335-be01-1bb5dda577de" d="m409.81,359.6c9.2,3.77,29.89,12.05,42.79,16.03,2.11.65,4.41.69,6.5-.04,11.79-4.08,28.47-11.39,33.03-11.32,5.25.08,7.8,3.93,19.88,2.04,13.36-2.1,22.43-11.99,20.93-23.3-4.21-43.28-25.18-26.79-25.18-26.79,0,0-5.84-8.75-18.76-4.82-11.83,3.6-10.2,14.44-6.47,22.47l-25.29,8.58c-2.14.72-4.45.71-6.59-.02l-35.7-12.61"/><path class="uuid-0a238a3f-afd5-43e5-94a8-dd2acee1bcef" d="m533.36,312.82c2.5,3.94,1.62,9.14-1.57,12.4-2.47,2.53-5.88,3.88-9.32,4.4-2.8.43-5.7.42-8.49-.08-2.14-.39-4.29-1.1-5.79-2.75-1.66-1.83-2.27-4.46-1.98-6.87.51-4.17,3.84-7.14,7.22-9.26,3.17-1.98,6.86-3.26,10.64-3.09,3.8.18,7.36,2.19,9.3,5.24Z"/><path class="uuid-0a238a3f-afd5-43e5-94a8-dd2acee1bcef" d="m538.57,349.84c.97,3.03.32,6.43-1.5,9.01-3.77,5.33-11.17,5.65-16.96,4.27-3.31-.79-6.69-2.21-8.67-5.13-3.13-4.61-.82-9.79,3.48-12.56,2.58-1.66,5.61-2.67,8.63-3.14,5.73-.89,13.1,1.51,15.03,7.56Z"/><path class="uuid-0a238a3f-afd5-43e5-94a8-dd2acee1bcef" d="m538.71,328.53c1.8,2.99,2.06,6.89.22,9.9-1.95,3.2-4.94,5.25-8.49,6.28-3.66,1.07-7.64,1.27-11.4.44-2.25-.5-4.53-1.38-5.96-3.28-1.86-2.47-1.89-5.68-.85-8.49,1.2-3.24,4.17-5.69,7.09-7.37,6.15-3.56,15.21-4.43,19.39,2.52Z"/><path class="uuid-0a238a3f-afd5-43e5-94a8-dd2acee1bcef" d="m501.85,311.68s9.27,3.84,7.77,12.02c-1.04,5.68-8.17,9.55-14.94,6.13"/><path class="uuid-890e0c82-6af4-45ed-921b-f8a5d79130b7" d="m500.67,331.08c2.41,1.63,5.11,8.04,3.4,14.42"/></g><g><circle class="uuid-f38a32ef-6172-45e7-957b-e89bf9d272a0" cx="300" cy="300" r="138.16"/><path class="uuid-20245732-3cad-49d1-ac97-e0ac388550f3" d="m184.58,308.17c-4.41,0-7.98-3.57-7.98-7.98,0-67.74,55.11-122.86,122.86-122.86,4.41,0,7.98,3.57,7.98,7.98s-3.57,7.98-7.98,7.98c-58.94,0-106.9,47.95-106.9,106.9,0,4.41-3.57,7.98-7.98,7.98Z"/></g><path class="uuid-890e0c82-6af4-45ed-921b-f8a5d79130b7" d="m264.41,484.14c-4.06.49-11.49,1.36-17.85,7.23"/><path class="uuid-20245732-3cad-49d1-ac97-e0ac388550f3" d="m185.17,308.14c-4.41,0-7.98-3.57-7.98-7.98,0-67.74,55.11-122.86,122.86-122.86,4.41,0,7.98,3.57,7.98,7.98s-3.57,7.98-7.98,7.98c-58.94,0-106.9,47.95-106.9,106.9,0,4.41-3.57,7.98-7.98,7.98Z"/><path d="m203.75,397.46l34.2-27.46-24.86,36.3c-6.73-5.1-3.66-2.61-9.34-8.83Z"/><path class="uuid-d5e4c988-c233-4e82-9835-ea21972592ad" d="m323.72,387.31c19.14-13.4,39.15-11.3,55.52,7.36,19.6,22.35,30.57,33.06,30.57,33.06,0,0,10.74-19.34,34.77-17.5,18.26,1.4,24.84,14.43,24.84,14.43,0,0,6.21,8.82-22.45,33.5-28.66,24.68-54.93,40.92-61.14,29.46-6.21-11.46-2.82-32.1-2.82-32.1,0,0-22.02-26.09-27.94-32.01-6.79-6.79-15.71-1.36-15.71-1.36"/><path class="uuid-f38a32ef-6172-45e7-957b-e89bf9d272a0" d="m446.97,458.17c-25.89,22.29-49.82,37.69-58.79,32.02-9.77-7.44,26.84-38.54,44.88-52.7,18.04-14.16,32.17-17.82,36.36-12.81,0,0,6.21,8.82-22.45,33.5Z"/><path class="uuid-890e0c82-6af4-45ed-921b-f8a5d79130b7" d="m409.81,427.74c-1.89,2.86-4.55,10.38-4.55,10.38"/><g><path class="uuid-07c074c9-1e26-4335-be01-1bb5dda577de" d="m214.11,345.7c-8.05,5.83-25.34,20.79-35.52,29.67-1.67,1.45-2.82,3.41-3.39,5.55-3.14,11.67-8.55,33.44-8.55,33.44,0,0-8.42.58-12.19,14.35-3.64,13.3-6.64,25.06,3.77,29.75.35,7.47,7.51,15.45,19.2,9.41.14-.06,1.32,1.32,1.44,1.45,2.64,2.7,6.36,4.45,10.13,4.81,3.65.36,7.61-.67,10.43-3.08,3.29-2.81,5.4-6.94,6.05-11.2.4-2.61.26-5.31-.75-7.78,0,0,6.2-2.51,8.05-11.34,1.99-9.49-4.22-19.42-14.62-18.18l6.17-23.11c.51-2.2,1.74-4.16,3.49-5.59l29.38-24.3"/><path class="uuid-890e0c82-6af4-45ed-921b-f8a5d79130b7" d="m204.73,452.06c-1.37-3.47-5.39-7.08-9-6.88"/><path class="uuid-890e0c82-6af4-45ed-921b-f8a5d79130b7" d="m178.86,469.3c-5.16-5.27-3.82-11.97-2.9-13.54"/><path class="uuid-890e0c82-6af4-45ed-921b-f8a5d79130b7" d="m158.22,458.45c-.27-5.22.73-7.32,3.06-9.83"/><path class="uuid-890e0c82-6af4-45ed-921b-f8a5d79130b7" d="m193.93,450.63c.14-2.07.48-4.16,1.32-6.06.85-1.95,2.36-3.88,4.31-4.85"/></g></svg>
<svg id="uuid-ffac6761-6b9e-4a13-ab42-3dfadf65c420" data-name="BODY" xmlns="http://www.w3.org/2000/svg" viewBox="0 0 600 600"><circle cx="369.54" cy="262.94" r="9.78" transform="translate(-8.58 12.49) rotate(-1.91)"/><circle cx="362.12" cy="293.18" r="9.78" transform="translate(-9.59 12.26) rotate(-1.91)"/><circle cx="337.63" cy="273.96" r="9.78" transform="translate(-8.96 11.43) rotate(-1.91)"/></svg>
<svg id="uuid-48efa21b-da1b-48ad-ab10-757c6777e8ef" data-name="BODY" xmlns="http://www.w3.org/2000/svg" viewBox="0 0 600 600"><defs><style>
      .uuid-53318c0c-3185-4fc0-b44c-db50501b4f8c {
        fill: #353434;
      }

      .uuid-53318c0c-3185-4fc0-b44c-db50501b4f8c, .uuid-af5c2333-9a04-42a4-b63f-5e80c7076528 {
        stroke: #000;
        stroke-linecap: round;
        stroke-linejoin: round;
        stroke-width: 2px;
      }

      .uuid-af5c2333-9a04-42a4-b63f-5e80c7076528 {
        fill: none;
      }
    </style></defs><g id="uuid-a23e8dd5-6c2c-4ede-a31c-dd7f3bcbc81d" data-name="uuid-30adedbd-0f6a-4ac3-8c27-dd5f684aaeb2"><g id="uuid-f568b372-0f34-440f-b75f-61e9f492b6fc" data-name="uuid-71f2d591-11c5-485d-aa3d-ec098306b10e"><g id="uuid-93dfd512-6b6b-4507-9c48-5a4c5c4594db" data-name="uuid-7d0b675e-dad4-483d-8c78-f8eeafc30cf0"><g><path class="uuid-53318c0c-3185-4fc0-b44c-db50501b4f8c" d="m366.81,441.74l13.69,14.71s-3.55,18.09,3.13,29.5c0,0,11.14-19.1,33.82-39.23,22.69-20.13,35.95-26.59,49.92-28.7,0,0-11.16-13.78-31.73-11.1-15.93,2.07-25.36,13.77-25.36,13.77l-9.14-9.95s-8.87-.73-20.67,10.86c-11.8,11.59-13.66,20.15-13.66,20.15Z"/><g><path class="uuid-af5c2333-9a04-42a4-b63f-5e80c7076528" d="m410.28,420.68c-4.81,5.68-7.77,15.82-7.77,22.65"/><line class="uuid-af5c2333-9a04-42a4-b63f-5e80c7076528" x1="402.98" y1="438.12" x2="384.42" y2="418.05"/><path class="uuid-af5c2333-9a04-42a4-b63f-5e80c7076528" d="m380.5,456.44c13.49-5.15,21.72,5.29,21.72,5.29"/><path class="uuid-af5c2333-9a04-42a4-b63f-5e80c7076528" d="m441.3,406.56c-10.56,5.07-15.89,19.93-9.79,28.48"/></g><path class="uuid-53318c0c-3185-4fc0-b44c-db50501b4f8c" d="m467.37,414.89s-18.89-1.47-51.52,29.37c-32.63,30.84-34.96,41.03-34.88,41.68s7.89,10.49,9.27,11.71c1.38,1.22,8.79-1.06,8.79-1.06,0,0,.29-2.62,1.64-3.29,2.55-1.27,5.1,1.1,5.1,1.1,0,0,5.1-1.68,7.65-3.88-1.56-1.62.98-5.73,4.58-3.13,3.42-2.09,5.33-4.17,5.33-4.17l-4.13-3.53s26.72-12.4,31.82-15.18l-2.55-1.91s.29-4.63,5.68-4.46l2.72,1.97s3.65-3.07,6.2-6.14l-2.03-1.74s-.58-4.46,4.17-4.29l2.17,1.27s2.81-3.75,4.78-7.52l-2.17-1.69s-.44-5.21,4.89-3.42c0,0,3.56-7.12,2.12-10.48s-7.52-11.3-9.62-11.22h0Z"/><g><path class="uuid-af5c2333-9a04-42a4-b63f-5e80c7076528" d="m419.2,479.69l-16.68-13.48,27.05-17.71s-3.43-3.03,0-5.41c3.13-2.17,5.83.96,5.83.96l8.25-5.36s-4.15-3.09-1.01-4.86c2.55-1.44,6.58,1.62,6.58,1.62,0,0,5.46-3.59,7.64-4.55,0,0-3.59-3.44.25-4.91,2.89-1.1,5.87,1.77,5.87,1.77,0,0,5.31-2.99,9.16-2.58,3.85.4,5.58,2.5,5.03,4.77"/><line class="uuid-af5c2333-9a04-42a4-b63f-5e80c7076528" x1="429.57" y1="448.51" x2="448.46" y2="462.6"/><line class="uuid-af5c2333-9a04-42a4-b63f-5e80c7076528" x1="435.39" y1="444.06" x2="454.14" y2="458.14"/><line class="uuid-af5c2333-9a04-42a4-b63f-5e80c7076528" x1="443.64" y1="438.69" x2="461.03" y2="452.23"/><line class="uuid-af5c2333-9a04-42a4-b63f-5e80c7076528" x1="449.21" y1="435.46" x2="465.2" y2="447.95"/><line class="uuid-af5c2333-9a04-42a4-b63f-5e80c7076528" x1="456.85" y1="430.9" x2="469.99" y2="440.01"/><line class="uuid-af5c2333-9a04-42a4-b63f-5e80c7076528" x1="462.97" y1="427.76" x2="474.88" y2="436.59"/><path class="uuid-af5c2333-9a04-42a4-b63f-5e80c7076528" d="m447.97,462.23c-5.19,2.81-31.71,15.09-31.71,15.09"/><path class="uuid-af5c2333-9a04-42a4-b63f-5e80c7076528" d="m432.58,450.76s-18.96,12.82-27.55,17.49"/><path class="uuid-af5c2333-9a04-42a4-b63f-5e80c7076528" d="m406.41,469.37s-3.67,3.73-4.49,5.1c0,0-2.9-2.71-5.06-.27-2.04,2.3.13,4.65,1.34,5.5,0,0-2.61,3.68-3.69,5.74,0,0-3.14-3.05-4.61,0-.66,1.37-.34,3.54,1.47,4.76,0,0-1.57,8.03.54,7.82"/><line class="uuid-af5c2333-9a04-42a4-b63f-5e80c7076528" x1="401.92" y1="474.46" x2="417.99" y2="487.39"/><line class="uuid-af5c2333-9a04-42a4-b63f-5e80c7076528" x1="413.42" y1="490.52" x2="398.19" y2="479.69"/><line class="uuid-af5c2333-9a04-42a4-b63f-5e80c7076528" x1="394.5" y1="485.43" x2="405.77" y2="494.4"/><line class="uuid-af5c2333-9a04-42a4-b63f-5e80c7076528" x1="391.36" y1="490.19" x2="399.03" y2="496.59"/></g><g><path class="uuid-53318c0c-3185-4fc0-b44c-db50501b4f8c" d="m226.55,468.47l16.86-19.42s2.99-.9,6.5,1.06l-2.62,2.76s3.26,6.32,10.81,12.65c7.55,6.33,14.76,9.84,14.76,9.84l3.6-3.75s2.37,5.96,2.31,6.55-4.35,2.98-4.35,2.98c0,0,13.06.74,21.81,9.35,8.9,8.75,9.03,21.38,9.03,21.38,0,0-63.87,1.76-66.89,1.56s-30.15-36.89-30.15-36.89c0,0,5.39-9.16,18.32-8.1Z"/><g><path class="uuid-af5c2333-9a04-42a4-b63f-5e80c7076528" d="m274.42,481.15c-9.61-1.12-21.84,1.23-29.03,7.31"/><line class="uuid-af5c2333-9a04-42a4-b63f-5e80c7076528" x1="252.64" y1="484.14" x2="265.82" y2="471.24"/><path class="uuid-af5c2333-9a04-42a4-b63f-5e80c7076528" d="m220.98,493.39c10.86-8.6,5.57-24.93,5.57-24.93"/><path class="uuid-af5c2333-9a04-42a4-b63f-5e80c7076528" d="m293.43,488.1c-17.87-1.3-22.02,11.44-22.09,24.68"/></g><path class="uuid-53318c0c-3185-4fc0-b44c-db50501b4f8c" d="m305.49,509.34l-62.55,1.43c-2.5.06-4.89-1.05-6.46-3l-26.43-32.8c-.94-1.17-2.72-1.19-3.69-.05l-6.59,7.74c-.73.86-.77,2.12-.08,3.02l3.44,4.48,6.83.43-3.73,3.66,5.2,6.76,6.07.02,9.4,14.47c3.5,5.38,9.43,8.68,15.85,8.81l17.81.36s0-3.59,4.22-3.59,4.01,3.94,4.01,3.94h6.92s.44-4.12,4.68-4.12,3.48,4.12,3.48,4.12h7.95s-.11-3.9,4.14-3.9,3.65,3.9,3.65,3.9h6.78c1.57,0,2.81-1.34,2.68-2.9l-.82-10.3c-.11-1.42-1.32-2.51-2.74-2.48h0Z"/><path class="uuid-af5c2333-9a04-42a4-b63f-5e80c7076528" d="m217.49,501.03c-1.41-2.31-2.24-4.46-6.07-.02"/><path class="uuid-af5c2333-9a04-42a4-b63f-5e80c7076528" d="m209.96,490.59c.62-.58-1.71-4.07-3.15-3.24-1.44.83-3.67,2.8-3.67,2.8"/></g></g></g></g></g></svg>
<svg id="uuid-5e467335-96f0-4a19-bf5d-f66d24f9f050" data-name="BODY" xmlns="http://www.w3.org/2000/svg" viewBox="0 0 600 600"><defs><style>
      .uuid-c95b386d-6b7a-48bc-b015-46353c5ddf6d, .uuid-6dfda773-13b8-4575-9246-263a2a33ff95 {
        stroke-miterlimit: 10;
      }

      .uuid-c95b386d-6b7a-48bc-b015-46353c5ddf6d, .uuid-6dfda773-13b8-4575-9246-263a2a33ff95, .uuid-d59f6628-b02a-4e8d-88df-548bea5614f0 {
        stroke: #000;
        stroke-width: 2px;
      }

      .uuid-c95b386d-6b7a-48bc-b015-46353c5ddf6d, .uuid-d59f6628-b02a-4e8d-88df-548bea5614f0 {
        fill: #ffc9f1;
      }

      .uuid-6dfda773-13b8-4575-9246-263a2a33ff95 {
        fill: #a07bff;
      }

      .uuid-d59f6628-b02a-4e8d-88df-548bea5614f0 {
        stroke-linejoin: round;
      }
    </style></defs><path d="m444.53,340.27c-.12,10.07-1.69,20.13-1.47,32.18,0,0-31.96-13.5-37.8-15.9l11.83-26.02,27.44,9.74Z"/><g id="uuid-e0b59ec1-2080-4c6b-8b31-c6fdef44f520" data-name="cloth"><path class="uuid-c95b386d-6b7a-48bc-b015-46353c5ddf6d" d="m263.36,371.55c24.26-.34,48.58-3.99,69.96-9.03-7.88-3.13-21.03-8.64-28.59-13.47-15.72-10.04-37.83-23.22-78.26-39.57-40.44-16.35-60.88-16.79-64.71-17.14-3.83-.35-3.65,17.91.52,18.78s34.19,3.67,60.28,20.36c19.37,12.39,34.36,31.2,40.8,40.07Z"/><g><path class="uuid-d59f6628-b02a-4e8d-88df-548bea5614f0" d="m175.19,380.92c.57-2.14,1.73-4.09,3.39-5.55,4.11-3.58,9.38-8.16,14.73-12.73-12.63-3.41-19.99-6.47-19.99-6.47,0,0,1.19,7.68-3.39,24.26-4.47,16.18-10.42,24.96-10.42,24.96l10.07-2.77c1.77-7.01,3.99-15.7,5.61-21.71Z"/><path class="uuid-d59f6628-b02a-4e8d-88df-548bea5614f0" d="m436.02,361.39c2.62-27.84,1.57-45.91,1.57-45.91,0,0-23.21,23.41-84.08,41.67-31.63,9.49-73.99,16.96-113.56,13.64-1.29-.11-2.56-.23-3.83-.35l-28.31,23.41c-1.75,1.43-2.97,3.39-3.49,5.59l-6.17,23.11c1.6-.19,3.09-.11,4.48.18,10.94-4.39,20.36-13.9,20.36-13.9,0,0,3.04,11.81,3.04,28.1,12.65-1.74,29.55-18.91,29.55-18.91,0,0,3.71,13.26-4.81,29.26,17.78,0,33.52-20.56,33.52-20.56l15.94,23.95s7.48-5.92,14.49-22.21c7.39-17.17,6.6-34.62,8.99-41.14,9.67-6.47,21.58-10.5,33.18-7.49,6.62,1.72,12.55,5.45,17.68,9.89,5.18,4.49,8.72,10.46,13.8,15.02,4.08,3.66,9.3,5.25,14.65,5.91,1.08.13,11.39,1.12,11.39.41v-21.3l23.94,6.09s-4.77-8.69-2.35-34.45Zm-191.58,34.15c-.44-.17-.87-.39-1.26-.65-1.82-1.21-2.89-3.3-3.34-5.43-.47-2.21-.24-4.77,1.39-6.34,3.5-3.39,16.29-2.61,17.11,3.38.62,4.53-5.71,8.89-9.45,9.45-1.49.22-3.05.13-4.45-.41Zm26.93,14.8c-.72,1.06-1.77,1.95-3.12,2.45-2.19.82-4.72.56-6.81-.48-1.36-.67-2.61-1.74-3.06-3.19-.24-.78-.24-1.62-.09-2.42.82-4.42,6.05-6.74,10.14-5.47,4.34,1.34,5.06,6,2.95,9.11Zm133.66-31.05c-.04.27-.1.55-.16.81-.87,3.69-3.13,7.03-6.22,9.21-.82.58-1.74,1.09-2.75,1.14-1.96.09-3.54-1.59-4.51-3.29-1.62-2.85-2.38-6.34-1.39-9.46,1.64-5.18,7.44-6.92,12.06-4.49,1.32.69,2.44,1.84,2.87,3.26.28.91.25,1.88.1,2.82Z"/></g><path d="m206.23,395.47c-.91,1.16-1.57,2.51-1.91,3.96l-6.17,23.11c1.27-.15,2.48-.13,3.62.03l36.18-52.57-31.72,25.47Z"/><g id="uuid-7fe29411-92c2-4f52-b005-f15084171df6" data-name="zurzido"><path class="uuid-6dfda773-13b8-4575-9246-263a2a33ff95" d="m308.67,383.17c-5.42,4.18-10.17,10.28-13.38,16.13-2.78,5.06-10.1,2.03-7.89-5.55,1.89-6.46,9.65-12.22,14.53-16.48,5.01-4.37,14,.29,6.74,5.9Z"/><path class="uuid-6dfda773-13b8-4575-9246-263a2a33ff95" d="m302.21,395.42c-4.91-4.7-11.8-8.62-18.29-11.12-5.62-2.17-3.02-9.26,5.22-7.84,7.02,1.21,13.81,7.97,18.76,12.17,5.07,4.31.89,13.1-5.7,6.79Z"/></g></g></svg>
<svg id="uuid-6e9dd1ff-b3ca-4115-b70a-c695fd74bfe5" data-name="BODY" xmlns="http://www.w3.org/2000/svg" xmlns:xlink="http://www.w3.org/1999/xlink" viewBox="0 0 600 600"><defs><style>
      .uuid-f4d84360-108f-4651-b29c-e25ea16c4cc5, .uuid-13f171bf-333f-4b11-a6dc-6143bf8925b3, .uuid-d07d115d-d797-4bee-a1bd-d5ba731908b9, .uuid-30faa963-5431-4aaa-a0c3-a21f063be235, .uuid-8f6f04d1-c4ff-42b5-9302-95ef19a8b3d9 {
        fill: none;
      }

      .uuid-046b5435-62e7-4259-a2e9-7621ff339dd6, .uuid-49569550-84bb-4c62-b631-432cfe149004 {
        fill: #7aa6ff;
      }

      .uuid-046b5435-62e7-4259-a2e9-7621ff339dd6, .uuid-49569550-84bb-4c62-b631-432cfe149004, .uuid-94178579-7323-403b-a4b5-65c0e1c44d9b, .uuid-3ff8e150-fa1e-4d89-b36b-9e4e320d5024, .uuid-ff1760e6-70c2-4dee-b03b-1ede1b1fa95d, .uuid-d07d115d-d797-4bee-a1bd-d5ba731908b9, .uuid-30faa963-5431-4aaa-a0c3-a21f063be235 {
        stroke: #000;
        stroke-linecap: round;
        stroke-linejoin: round;
      }

      .uuid-046b5435-62e7-4259-a2e9-7621ff339dd6, .uuid-94178579-7323-403b-a4b5-65c0e1c44d9b, .uuid-3ff8e150-fa1e-4d89-b36b-9e4e320d5024, .uuid-d07d115d-d797-4bee-a1bd-d5ba731908b9 {
        stroke-width: 2px;
      }

      .uuid-49569550-84bb-4c62-b631-432cfe149004, .uuid-ff1760e6-70c2-4dee-b03b-1ede1b1fa95d, .uuid-30faa963-5431-4aaa-a0c3-a21f063be235 {
        stroke-width: 2px;
      }

      .uuid-13f171bf-333f-4b11-a6dc-6143bf8925b3 {
        clip-path: url(#uuid-3738efd7-810a-4b28-8335-8dd0fda8e553);
      }

      .uuid-94178579-7323-403b-a4b5-65c0e1c44d9b {
        fill: #8400ff;
      }

      .uuid-a0b7f615-c241-44b2-b757-466d7641aaac {
        fill: #ffff0d;
      }

      .uuid-149af8d5-0486-4f84-b8a4-62e4288482b2 {
        fill: #9dff0c;
      }

      .uuid-3ff8e150-fa1e-4d89-b36b-9e4e320d5024, .uuid-ff1760e6-70c2-4dee-b03b-1ede1b1fa95d {
        fill: #a07bff;
      }

      .uuid-8f6f04d1-c4ff-42b5-9302-95ef19a8b3d9 {
        clip-path: url(#uuid-099eeb1f-0739-4ac1-83ad-929f888b681c);
      }
    </style><clipPath id="uuid-3738efd7-810a-4b28-8335-8dd0fda8e553"><path class="uuid-f4d84360-108f-4651-b29c-e25ea16c4cc5" d="m207.25,349.68l-27.2,23.05c-3,2.4-5.15,5.71-6.11,9.43l-8.11,31.33s-3.45.35-7.09,4.5c-4.67,5.32-6.81,15.97-8.5,24.91-7.91-5.05-83.16-13.79-94.21-32.95-18.6-32.26,3.76-59.6,13.02-69.49,14.76-15.78,60.44-14.3,60.44-14.3l77.76,23.52h0Zm31.03,20.24s-28.11,23.09-30,24.91-3.01,4.97-3.46,6.62c-.44,1.66-5.36,20.02-5.36,20.02,0,0,8.86.08,12.53,7.22,1.18,2.3,2.41,5.31,2.08,9.59-.61,7.88-5.16,12.41-8.09,14.28,1.01,3.73,1.21,7.91.72,10.37,10.48,26.86,110.78,41.49,110.78,41.49l17.62-75.26-41.68-12.52-12.32-27.69-42.81-19.04h0Z"/></clipPath><clipPath id="uuid-099eeb1f-0739-4ac1-83ad-929f888b681c"><rect class="uuid-f4d84360-108f-4651-b29c-e25ea16c4cc5" x="162.78" y="342.92" width="45.45" height="140.68" transform="translate(-265.82 452.02) rotate(-70.73)"/></clipPath></defs><g id="uuid-054dfee4-fcfb-460e-acd1-76ff23fbc272" data-name="uuid-4e189f2a-7fa9-4cd8-b02c-e65b53e2a61c"><g id="uuid-900a0d9f-eac9-4919-b449-79c80911ee38" data-name="uuid-78b9dc61-4d36-4cc0-a416-4b7f00985a31"><g id="uuid-651b4fc5-0c91-42b6-b968-6b2ab50c1b36" data-name="uuid-dfdf5e4b-abde-406c-b0a2-d80837955070"><g class="uuid-13f171bf-333f-4b11-a6dc-6143bf8925b3"><g><g><path class="uuid-3ff8e150-fa1e-4d89-b36b-9e4e320d5024" d="m201.39,393.83l-101.23-35.38c-5.99-2.1-20.02,2.77-24.41,6.76-1.61,1.46-8.33,11.08,2.22,19.37-1.8-2.48-2.4-5.76-1.32-8.87,1.76-5.03,7.27-7.69,12.3-5.93s7.69,7.27,5.93,12.3c-1.53,4.38-5.91,6.96-10.34,6.39,1.36.62,2.85,1.22,4.5,1.8l101.23,35.38c8.72,3.05,18.26-1.55,21.3-10.27l.08-.24c3.05-8.72-1.55-18.26-10.27-21.3h0Z"/><path class="uuid-3ff8e150-fa1e-4d89-b36b-9e4e320d5024" d="m83.54,390.61c8.24,2.6,14.95-6.68,11.95-5.89-1.8.47-3.75.44-5.64-.22-5.03-1.76-7.69-7.27-5.93-12.3.66-1.87,1.83-3.42,3.31-4.53,2.49-1.87-8.51-2.62-12.39,4.89-3.76,7.27-1.11,14.96,8.7,18.05h0Z"/><path class="uuid-046b5435-62e7-4259-a2e9-7621ff339dd6" d="m192.81,397.97l-101.23-35.38c-8.72-3.05-18.26,1.55-21.31,10.27l-.08.24c-3.05,8.72,1.55,18.26,10.27,21.3l101.23,35.38c8.72,3.05,18.26-1.55,21.3-10.27l.08-.24c3.05-8.72-1.55-18.26-10.27-21.3h0Zm-110.23-9.96c-5.03-1.76-7.69-7.27-5.93-12.3,1.76-5.03,7.27-7.69,12.3-5.93,5.03,1.76,7.69,7.27,5.93,12.3-1.76,5.03-7.27,7.69-12.3,5.93Z"/></g><path class="uuid-94178579-7323-403b-a4b5-65c0e1c44d9b" d="m261.31,462.21l-11.61,5.56-137.85-56.99,9.03-51.81,11.8-5.84c2.07-1,4.46-1.13,6.63-.37l137.02,47.89c4.52,1.58,6.91,6.53,5.33,11.05l-15.92,45.56c-.76,2.17-2.35,3.95-4.42,4.95h0Z"/><rect class="uuid-ff1760e6-70c2-4dee-b03b-1ede1b1fa95d" x="153.59" y="332.97" width="63.83" height="160.6" rx="5.71" ry="5.71" transform="translate(-265.82 452.02) rotate(-70.73)"/><path class="uuid-3ff8e150-fa1e-4d89-b36b-9e4e320d5024" d="m262.98,458.19l6.96-33.27,8.55-4.15,37.81,13.21c2.11.74,3.22,3.05,2.49,5.16l-9.23,26.41c-.35,1.01-1.1,1.85-2.06,2.31l-7.07,3.41-37.44-13.09h0Z"/><rect class="uuid-49569550-84bb-4c62-b631-432cfe149004" x="268.33" y="426.07" width="33.7" height="44.07" transform="translate(-231.92 569.46) rotate(-70.73)"/><rect x="300.26" y="441.53" width="4.45" height="5.17" rx="1.17" ry="1.17" transform="translate(-216.57 583.13) rotate(-70.73)"/><rect x="294.07" y="459.25" width="4.45" height="5.17" rx="1.17" ry="1.17" transform="translate(-237.44 589.16) rotate(-70.73)"/><line class="uuid-d07d115d-d797-4bee-a1bd-d5ba731908b9" x1="269.72" y1="410.7" x2="281.3" y2="405.12"/><line class="uuid-d07d115d-d797-4bee-a1bd-d5ba731908b9" x1="311.54" y1="439.46" x2="318.6" y2="436.06"/><line class="uuid-d07d115d-d797-4bee-a1bd-d5ba731908b9" x1="264.38" y1="440.83" x2="305.98" y2="455.37"/><g><rect class="uuid-149af8d5-0486-4f84-b8a4-62e4288482b2" x="162.78" y="342.92" width="45.45" height="140.68" transform="translate(-265.82 452.02) rotate(-70.73)"/><g class="uuid-8f6f04d1-c4ff-42b5-9302-95ef19a8b3d9"><g><polygon class="uuid-a0b7f615-c241-44b2-b757-466d7641aaac" points="123.47 432.94 247.27 373.27 301.23 392.13 177.24 451.89 123.47 432.94"/><polygon class="uuid-a0b7f615-c241-44b2-b757-466d7641aaac" points="190.83 456.49 314.63 396.82 337.79 404.91 213.8 464.67 190.83 456.49"/><polygon class="uuid-a0b7f615-c241-44b2-b757-466d7641aaac" points="77.6 416.91 201.4 357.24 210.87 360.56 86.88 420.33 77.6 416.91"/></g></g><rect class="uuid-30faa963-5431-4aaa-a0c3-a21f063be235" x="162.78" y="342.92" width="45.45" height="140.68" transform="translate(-265.82 452.02) rotate(-70.73)"/></g></g></g></g></g></g></svg>
<svg id="uuid-5aa58eb9-9bc6-4246-98de-131b720bf369" data-name="BACKGROUND" xmlns="http://www.w3.org/2000/svg" xmlns:xlink="http://www.w3.org/1999/xlink" viewBox="0 0 600 600"><defs><style>
      .uuid-6985aa11-eb3f-4542-be5e-f06f163ab65a, .uuid-5d79269c-c705-4c92-bb8d-c7e355f5705c, .uuid-2a46fcf3-d87b-499e-8994-9a2b0673d8f4 {
        fill: none;
      }

      .uuid-97bf1ed2-1a68-4096-ad51-e16721e1321e {
        fill: #8400ff;
      }

      .uuid-97bf1ed2-1a68-4096-ad51-e16721e1321e, .uuid-cb8afc3d-b574-4149-9ebb-d08ea80dfdfd, .uuid-1158b133-ee03-42db-b9a0-a64a151692b9, .uuid-2d1bf830-110e-4ac0-acda-42bab81d5de9, .uuid-5d79269c-c705-4c92-bb8d-c7e355f5705c {
        stroke: #000;
        stroke-linecap: round;
        stroke-linejoin: round;
        stroke-width: 2px;
      }

      .uuid-cb8afc3d-b574-4149-9ebb-d08ea80dfdfd {
        fill: #353434;
      }

      .uuid-85d6e4d8-f77b-4b1d-bcab-475cfb014682 {
        fill: #3ef1ff;
      }

      .uuid-f90b45a5-d844-45d8-a5a5-02f5b3de003f {
        fill: #7aa6ff;
      }

      .uuid-1158b133-ee03-42db-b9a0-a64a151692b9 {
        fill: #a07bff;
      }

      .uuid-2d1bf830-110e-4ac0-acda-42bab81d5de9 {
        fill: #fff7f0;
      }

      .uuid-2a46fcf3-d87b-499e-8994-9a2b0673d8f4 {
        clip-path: url(#uuid-6161bbbb-bf7d-42ee-9eca-ac79318819d2);
      }
    </style><clipPath id="uuid-6161bbbb-bf7d-42ee-9eca-ac79318819d2"><path class="uuid-6985aa11-eb3f-4542-be5e-f06f163ab65a" d="m375.6,186.05c-3.67.37-7.36.83-11.04,1.37-1.16.17-1.77,1.49-1.14,2.49l2.05,3.28-4.85,5.97-40.96,9-1.31-10.32c-28.14,8.26-51.37,18.18-60.09,22.08-2.32,1.04-3.91,3.23-4.19,5.75-2.66,23.72-1.67,49.45-1.15,59.16.13,2.4,1.82,4.44,4.17,4.98,28.18,6.48,66.81,4.95,76.15,4.46,1.37-.07,2.62-.75,3.46-1.83,5.25-6.81,12.72-19.03,17.8-27.6,3.15-5.33,9.95-7.2,15.39-4.24l19.74,10.76c1.91,1.04,4.28.63,5.73-.99,9.99-11.15,18.56-23.84,23.37-31.39-13.65-21.51-34.2-43.68-43.12-52.92h0Z"/></clipPath></defs><g id="uuid-c1f37cab-67de-48fd-b7c5-98f83c88d0d7" data-name="uuid-908dc865-47bc-4301-990e-3d26525beded"><g id="uuid-41f759df-2a39-427c-9fc3-5ca925ac0198" data-name="uuid-845ae38f-23fa-4152-997a-f63073291681"><g id="uuid-0c819a8e-b91b-440c-a085-3351f77862d1" data-name="uuid-94b65ef2-ffe4-4b12-b92b-e951dcaa643d"><g><g><path class="uuid-97bf1ed2-1a68-4096-ad51-e16721e1321e" d="m244.57,212.86l-11.32,8.25c-2.86,2.09-4.69,5.28-5.03,8.81-.62,6.42-1.5,18.09-1.66,33.49-.16,14.85-.18,28.27,1.21,33.53.79,3,3.13,5.34,6.14,6.11,7.64,1.96,26.17,4.67,52.79,6.79,18.99,1.52,36.78,1.45,48.28-3.02,2.98-1.16,6.28-3.72,7.34-4.99,1.84-2.2-88.59-7.07-88.59-7.07l-7.82-59.28-1.36-22.63h0Z"/><line class="uuid-5d79269c-c705-4c92-bb8d-c7e355f5705c" x1="241.84" y1="295.33" x2="230.86" y2="301.57"/><path class="uuid-97bf1ed2-1a68-4096-ad51-e16721e1321e" d="m359.15,276.99l18.34,9.92c4.86,2.63,10.77,2.36,15.37-.69l3.22-2.13-32.64-18.09-6.37,3.44,2.08,7.56h0Z"/></g><path class="uuid-1158b133-ee03-42db-b9a0-a64a151692b9" d="m247.06,211.14c16.74-7.73,77.92-34.28,136.47-38.28,2.08-.14,4.13.54,5.72,1.89,7.17,6.05,28.04,24.98,43.62,52.38,1.5,2.63,1.39,5.89-.27,8.42-6.04,9.21-21.4,32.01-35.82,47.95-1.23,1.36-3.22,1.7-4.82.83l-24.77-13.41c-1.88-1.02-4.23-.36-5.3,1.48-3.64,6.27-11.87,20-18.93,28.85-.71.89-1.77,1.44-2.91,1.49-10.15.46-61.6,2.3-95.21-5.51-2.35-.55-4.04-2.59-4.15-5-.55-11.52-1.78-45.66,1.35-74.09.34-3.06,2.25-5.7,5.04-6.99h0Z"/><path class="uuid-97bf1ed2-1a68-4096-ad51-e16721e1321e" d="m375.6,186.05c8.92,9.24,29.47,31.42,43.12,52.92,1.07-1.68,1.95-3.1,2.62-4.2.93-1.52.92-3.44-.03-4.95-14.99-23.69-30.23-38.7-34.99-43.12-.95-.89-2.23-1.33-3.52-1.24-4.67.31-9.14.79-7.19.59h0Z"/><g><path class="uuid-f90b45a5-d844-45d8-a5a5-02f5b3de003f" d="m375.6,186.05c-3.67.37-7.36.83-11.04,1.37-1.16.17-1.77,1.49-1.14,2.49l2.05,3.28-4.85,5.97-40.96,9-1.31-10.32c-28.14,8.26-51.37,18.18-60.09,22.08-2.32,1.04-3.91,3.23-4.19,5.75-2.66,23.72-1.67,49.45-1.15,59.16.13,2.4,1.82,4.44,4.17,4.98,28.18,6.48,66.81,4.95,76.15,4.46,1.37-.07,2.62-.75,3.46-1.83,5.25-6.81,12.72-19.03,17.8-27.6,3.15-5.33,9.95-7.2,15.39-4.24l19.74,10.76c1.91,1.04,4.28.63,5.73-.99,9.99-11.15,18.56-23.84,23.37-31.39-13.65-21.51-34.2-43.68-43.12-52.92h0Z"/><g class="uuid-2a46fcf3-d87b-499e-8994-9a2b0673d8f4"><g><path class="uuid-85d6e4d8-f77b-4b1d-bcab-475cfb014682" d="m335.95,191.43c.3,4.33.59,10.52.32,15.69-.47,8.99-5.39,9.72-6.51,4.36-.82-3.96-1.53-15.31-1.85-20.97l-20.85,6.39c1.53,9.3,3.02,24.99-4.37,25.37-8.16.42-9.66-14.35-9.93-20.98l-9.83,3.01s.81,13.55.61,19.82c-.2,6.27-9.3,6.67-9.61,15.27-.3,8.6,2.33,57.64,2.33,57.64h56.43s-1.01-48.54-1.01-61.08,9.09-13.51,9.33-22.83c.24-9.32,0-20.79,0-20.79l-5.07-.91h0Zm-51.52,46.05c7.35.24,9.5,22.41,2.49,22.9-7.01.49-7.85-23.08-2.49-22.9h0Zm4.11,39.74c-4.45.13-4.99-9.37-.27-9.84,4.03-.4,4.72,9.71.27,9.84Z"/><path class="uuid-85d6e4d8-f77b-4b1d-bcab-475cfb014682" d="m276.45,227.21c4.45-.13,3.76-10.25-.27-9.84-4.72.47-4.18,9.98.27,9.84Z"/><path class="uuid-85d6e4d8-f77b-4b1d-bcab-475cfb014682" d="m260.8,279.24c-.51,5.35-.51,18.61-.51,18.61l-2.93,2.15,12.54,2.1s.61-9.4-.71-19.72-7.89-8.49-8.39-3.14h0Z"/><path class="uuid-85d6e4d8-f77b-4b1d-bcab-475cfb014682" d="m394.72,237.31c-4.58,0-4.92,15.98-.67,16.31,4.25.34,3.78-16.31.67-16.31Z"/><path class="uuid-85d6e4d8-f77b-4b1d-bcab-475cfb014682" d="m353.98,218.97c4.25.34,3.78-16.31.67-16.31-4.58,0-4.92,15.98-.67,16.31Z"/><path class="uuid-85d6e4d8-f77b-4b1d-bcab-475cfb014682" d="m399.37,216.21c-.09-10.79-.79-40.46-.79-40.46l-35.75,5.31s-.22,12.74-.51,28.21c-.29,15.47-10.82,16.58-10.82,24.57v40.45h16.65c.5-5.74,1.58-18.19,2.26-25.18.69-7.06,7.69-9.61,7.99-1.72.23,5.87.12,20.05.04,26.9h7.44s.4-18.44.81-31.57c.4-13.13,12.81-10.6,12.67-26.51h0Zm-9.1-5.39c3.17.09,4.31,11.73-1.01,11.6s-3.84-11.73,1.01-11.6Z"/></g></g><path class="uuid-5d79269c-c705-4c92-bb8d-c7e355f5705c" d="m375.6,186.05c-3.67.37-7.36.83-11.04,1.37-1.16.17-1.77,1.49-1.14,2.49l2.05,3.28-4.85,5.97-40.96,9-1.31-10.32c-28.14,8.26-51.37,18.18-60.09,22.08-2.32,1.04-3.91,3.23-4.19,5.75-2.66,23.72-1.67,49.45-1.15,59.16.13,2.4,1.82,4.44,4.17,4.98,28.18,6.48,66.81,4.95,76.15,4.46,1.37-.07,2.62-.75,3.46-1.83,5.25-6.81,12.72-19.03,17.8-27.6,3.15-5.33,9.95-7.2,15.39-4.24l19.74,10.76c1.91,1.04,4.28.63,5.73-.99,9.99-11.15,18.56-23.84,23.37-31.39-13.65-21.51-34.2-43.68-43.12-52.92h0Z"/></g><g><path class="uuid-97bf1ed2-1a68-4096-ad51-e16721e1321e" d="m318.34,197.84l5.96-1.88c1.07-.34,2.19.37,2.34,1.49l.46,3.39,38.36-7.65-4.85,5.97-40.96,9-1.31-10.32h0Z"/><line class="uuid-5d79269c-c705-4c92-bb8d-c7e355f5705c" x1="327.1" y1="200.84" x2="319.65" y2="208.15"/></g></g><path class="uuid-cb8afc3d-b574-4149-9ebb-d08ea80dfdfd" d="m183.48,225.72l-4.43,7.43s5.38,2.75,23.4,4.63c16.18,1.69,30.94.94,30.94.94,0,0-.51,37.69,0,46.58,0,0-25.38-.91-47.83-5.97-22.45-5.06-30.64-11.12-30.64-11.12,0,0,3.14-12.81,6.91-22.48,3.77-9.65,8.66-18.78,8.66-18.78l12.99-1.24h0Z"/><path class="uuid-97bf1ed2-1a68-4096-ad51-e16721e1321e" d="m200.23,240.61l-12.83,35.19s7.99,2.83,21.53,4.55c13.55,1.72,20.73,2.02,20.73,2.02l.61-40.34-30.03-1.43h0Z"/><path class="uuid-2d1bf830-110e-4ac0-acda-42bab81d5de9" d="m233.39,238.73s-14.76.74-30.94-.94c-.89-.09-1.74-.19-2.57-.28-1.03-.12-2.01.49-2.36,1.47l-13.59,37.42c-.46,1.27.29,2.66,1.61,2.96,0,0,.02,0,.03,0,22.45,5.06,47.83,5.97,47.83,5.97-.51-8.9,0-46.58,0-46.58h0Zm-6.6,40.51s-16.46-.4-34.23-3.84c0,0-.01,0-.02,0-1.03-.23-1.62-1.32-1.26-2.31l10.6-29.19c.28-.76,1.04-1.24,1.84-1.14.64.08,1.31.15,2,.22,12.62,1.31,22.04.81,22.04.81,0,0-.78,28.64-.99,35.45h0Z"/><g><circle cx="205.75" cy="256.06" r="3.23"/><circle cx="220.1" cy="257.16" r="3.23"/><circle cx="212.15" cy="266.64" r="3.23"/></g><g><line class="uuid-5d79269c-c705-4c92-bb8d-c7e355f5705c" x1="160.57" y1="261.93" x2="163.1" y2="268.09"/><line class="uuid-5d79269c-c705-4c92-bb8d-c7e355f5705c" x1="163.83" y1="251.26" x2="173.64" y2="272.6"/><line class="uuid-5d79269c-c705-4c92-bb8d-c7e355f5705c" x1="167.6" y1="242.04" x2="181.11" y2="271.41"/><line class="uuid-5d79269c-c705-4c92-bb8d-c7e355f5705c" x1="172.21" y1="231.62" x2="185.71" y2="260.99"/><line class="uuid-5d79269c-c705-4c92-bb8d-c7e355f5705c" x1="185.02" y1="238.64" x2="189.77" y2="248.98"/></g></g></g></g></svg>
</svg>