<?xml version="1.0" encoding="UTF-8"?>
<svg xmlns="http://www.w3.org/2000/svg" viewBox="0 0 600 600">
<svg id="uuid-d9dcaeb1-b3e9-4103-a9e9-674eb3b1cf0f" data-name="BACKGROUND" xmlns="http://www.w3.org/2000/svg" viewBox="0 0 600 600"><defs><style>
      .uuid-ddba642b-737c-447a-8d97-1fa19eb8e4a8 {
        fill: #ff78d8;
      }
    </style></defs><rect class="uuid-ddba642b-737c-447a-8d97-1fa19eb8e4a8" x="-1" y="-1" width="602" height="602"/></svg>
<svg id="uuid-9722f958-7a1b-41d5-b127-5f5664340acc" data-name="BACKGROUND" xmlns="http://www.w3.org/2000/svg" viewBox="0 0 600 600"><defs><style>
      .uuid-38d319f8-e1e2-4e35-8358-20269c2b2afc, .uuid-04aa5705-a527-4798-9248-8fcc4f62d66b {
        fill: #fff;
      }

      .uuid-9f9f1948-40a0-4747-af1d-9594efb41061, .uuid-621ab9aa-9a02-467e-87ae-ac926dafbcb1, .uuid-04aa5705-a527-4798-9248-8fcc4f62d66b, .uuid-c9a14ba2-b8bc-42e5-9f8d-275d1fff3c56, .uuid-6105d9dd-9f9c-48ac-a1fa-9ace9529afd0, .uuid-39fc5d50-c0b6-4d72-9b97-695125c5be4a, .uuid-332aab89-d113-4256-b1ac-e39bd2d752c7 {
        stroke: #000;
        stroke-width: 2px;
      }

      .uuid-9f9f1948-40a0-4747-af1d-9594efb41061, .uuid-621ab9aa-9a02-467e-87ae-ac926dafbcb1, .uuid-04aa5705-a527-4798-9248-8fcc4f62d66b, .uuid-39fc5d50-c0b6-4d72-9b97-695125c5be4a {
        stroke-miterlimit: 10;
      }

      .uuid-9f9f1948-40a0-4747-af1d-9594efb41061, .uuid-621ab9aa-9a02-467e-87ae-ac926dafbcb1, .uuid-c9a14ba2-b8bc-42e5-9f8d-275d1fff3c56, .uuid-332aab89-d113-4256-b1ac-e39bd2d752c7 {
        fill: #ffff0d;
      }

      .uuid-621ab9aa-9a02-467e-87ae-ac926dafbcb1, .uuid-04aa5705-a527-4798-9248-8fcc4f62d66b, .uuid-c9a14ba2-b8bc-42e5-9f8d-275d1fff3c56, .uuid-6105d9dd-9f9c-48ac-a1fa-9ace9529afd0, .uuid-39fc5d50-c0b6-4d72-9b97-695125c5be4a {
        stroke-linecap: round;
      }

      .uuid-c9a14ba2-b8bc-42e5-9f8d-275d1fff3c56, .uuid-6105d9dd-9f9c-48ac-a1fa-9ace9529afd0, .uuid-332aab89-d113-4256-b1ac-e39bd2d752c7 {
        stroke-linejoin: round;
      }

      .uuid-6105d9dd-9f9c-48ac-a1fa-9ace9529afd0 {
        fill: none;
      }

      .uuid-39fc5d50-c0b6-4d72-9b97-695125c5be4a {
        fill: #7aa6ff;
      }
    </style></defs><path class="uuid-c9a14ba2-b8bc-42e5-9f8d-275d1fff3c56" d="m409.81,359.6c9.2,3.77,29.89,12.05,42.79,16.03,2.11.65,4.41.69,6.5-.04,11.79-4.08,28.47-11.39,33.03-11.32,5.25.08,7.8,3.93,19.88,2.04,13.36-2.1,22.43-11.99,20.93-23.3-4.21-43.28-25.18-26.79-25.18-26.79,0,0-5.84-8.75-18.76-4.82-11.83,3.6-10.2,14.44-6.47,22.47l-25.29,8.58c-2.14.72-4.45.71-6.59-.02l-35.7-12.61"/><path class="uuid-621ab9aa-9a02-467e-87ae-ac926dafbcb1" d="m533.36,312.82c2.5,3.94,1.62,9.14-1.57,12.4-2.47,2.53-5.88,3.88-9.32,4.4-2.8.43-5.7.42-8.49-.08-2.14-.39-4.29-1.1-5.79-2.75-1.66-1.83-2.27-4.46-1.98-6.87.51-4.17,3.84-7.14,7.22-9.26,3.17-1.98,6.86-3.26,10.64-3.09,3.8.18,7.36,2.19,9.3,5.24Z"/><path class="uuid-621ab9aa-9a02-467e-87ae-ac926dafbcb1" d="m538.57,349.84c.97,3.03.32,6.43-1.5,9.01-3.77,5.33-11.17,5.65-16.96,4.27-3.31-.79-6.69-2.21-8.67-5.13-3.13-4.61-.82-9.79,3.48-12.56,2.58-1.66,5.61-2.67,8.63-3.14,5.73-.89,13.1,1.51,15.03,7.56Z"/><path class="uuid-621ab9aa-9a02-467e-87ae-ac926dafbcb1" d="m538.71,328.53c1.8,2.99,2.06,6.89.22,9.9-1.95,3.2-4.94,5.25-8.49,6.28-3.66,1.07-7.64,1.27-11.4.44-2.25-.5-4.53-1.38-5.96-3.28-1.86-2.47-1.89-5.68-.85-8.49,1.2-3.24,4.17-5.69,7.09-7.37,6.15-3.56,15.21-4.43,19.39,2.52Z"/><path class="uuid-621ab9aa-9a02-467e-87ae-ac926dafbcb1" d="m501.85,311.68s9.27,3.84,7.77,12.02c-1.04,5.68-8.17,9.55-14.94,6.13"/><path class="uuid-6105d9dd-9f9c-48ac-a1fa-9ace9529afd0" d="m500.67,331.08c2.41,1.63,5.11,8.04,3.4,14.42"/><path d="m443.44,339.88c-2.88,10.58-6.94,20.23-11.17,28.59-10.17-3.78-21.16-9.53-27-11.93l11.83-26.02,26.35,9.36Z"/><ellipse cx="300" cy="518.65" rx="138.6" ry="22.93"/><path class="uuid-9f9f1948-40a0-4747-af1d-9594efb41061" d="m319.36,427.14c-1.16,1.05-54.95,57-54.95,57,0,0,21.51-1.95,31.74,10.62,10.23,12.57,7.26,23.89,7.26,23.89h-66.9s-28.69-36.17-28.69-36.17c0,0,3.74-13.4,20.44-10.59,20.9-19.38,55.52-59.13,55.52-59.13l35.59,14.38Z"/><path d="m283.78,412.76l31.28,12.64-3.24,9.5c-2.93,3.03-9.76,10.12-13.64,14.14-11.92,0-27.98-2.13-41.33-6.37,13.95-15.1,26.93-29.92,26.93-29.92Z"/><path class="uuid-9f9f1948-40a0-4747-af1d-9594efb41061" d="m354.45,173.54l-.11.27-174.2,58.29c-11.49,20.13-18.05,43.43-18.05,68.27,0,76.2,61.77,137.98,137.97,137.98s137.98-61.77,137.98-137.98c0-56.89-34.43-105.72-83.58-126.83Z"/><path class="uuid-6105d9dd-9f9c-48ac-a1fa-9ace9529afd0" d="m264.41,484.14c-4.06.49-11.49,1.36-17.85,7.23"/><path class="uuid-38d319f8-e1e2-4e35-8358-20269c2b2afc" d="m185.17,308.14c-4.41,0-7.98-3.57-7.98-7.98,0-67.74,55.11-122.86,122.86-122.86,4.41,0,7.98,3.57,7.98,7.98s-3.57,7.98-7.98,7.98c-58.94,0-106.9,47.95-106.9,106.9,0,4.41-3.57,7.98-7.98,7.98Z"/><path d="m203.75,397.46l34.2-27.46-24.86,36.3c-6.73-5.1-3.66-2.61-9.34-8.83Z"/><path class="uuid-332aab89-d113-4256-b1ac-e39bd2d752c7" d="m323.72,387.31c19.14-13.4,39.15-11.3,55.52,7.36,19.6,22.35,30.57,33.06,30.57,33.06,0,0,10.74-19.34,34.77-17.5,18.26,1.4,24.84,14.43,24.84,14.43,0,0,6.21,8.82-22.45,33.5-28.66,24.68-54.93,40.92-61.14,29.46-6.21-11.46-2.82-32.1-2.82-32.1,0,0-22.02-26.09-27.94-32.01-6.79-6.79-15.71-1.36-15.71-1.36"/><path class="uuid-9f9f1948-40a0-4747-af1d-9594efb41061" d="m446.97,458.17c-25.89,22.29-49.82,37.69-58.79,32.02-9.77-7.44,26.84-38.54,44.88-52.7,18.04-14.16,32.17-17.82,36.36-12.81,0,0,6.21,8.82-22.45,33.5Z"/><path class="uuid-6105d9dd-9f9c-48ac-a1fa-9ace9529afd0" d="m409.81,427.74c-1.89,2.86-4.55,10.38-4.55,10.38"/><ellipse class="uuid-04aa5705-a527-4798-9248-8fcc4f62d66b" cx="269.41" cy="209.07" rx="94.9" ry="26.25" transform="translate(-52.5 96.54) rotate(-18.55)"/><ellipse class="uuid-39fc5d50-c0b6-4d72-9b97-695125c5be4a" cx="269.41" cy="209.07" rx="71.19" ry="13.32" transform="translate(-52.5 96.54) rotate(-18.55)"/><g><path class="uuid-c9a14ba2-b8bc-42e5-9f8d-275d1fff3c56" d="m214.11,345.7c-8.05,5.83-25.34,20.79-35.52,29.67-1.67,1.45-2.82,3.41-3.39,5.55-3.14,11.67-8.55,33.44-8.55,33.44,0,0-8.42.58-12.19,14.35-3.64,13.3-6.64,25.06,3.77,29.75.35,7.47,7.51,15.45,19.2,9.41.14-.06,1.32,1.32,1.44,1.45,2.64,2.7,6.36,4.45,10.13,4.81,3.65.36,7.61-.67,10.43-3.08,3.29-2.81,5.4-6.94,6.05-11.2.4-2.61.26-5.31-.75-7.78,0,0,6.2-2.51,8.05-11.34,1.99-9.49-4.22-19.42-14.62-18.18l6.17-23.11c.51-2.2,1.74-4.16,3.49-5.59l29.38-24.3"/><path class="uuid-6105d9dd-9f9c-48ac-a1fa-9ace9529afd0" d="m204.73,452.06c-1.37-3.47-5.39-7.08-9-6.88"/><path class="uuid-6105d9dd-9f9c-48ac-a1fa-9ace9529afd0" d="m178.86,469.3c-5.16-5.27-3.82-11.97-2.9-13.54"/><path class="uuid-6105d9dd-9f9c-48ac-a1fa-9ace9529afd0" d="m158.22,458.45c-.27-5.22.73-7.32,3.06-9.83"/><path class="uuid-6105d9dd-9f9c-48ac-a1fa-9ace9529afd0" d="m193.93,450.63c.14-2.07.48-4.16,1.32-6.06.85-1.95,2.36-3.88,4.31-4.85"/></g></svg>
<svg id="uuid-783ed389-68eb-43cd-8772-5f49b9e71529" data-name="BODY" xmlns="http://www.w3.org/2000/svg" viewBox="0 0 600 600"><defs><style>
      .uuid-f7dbff45-408d-444d-ade6-4633d32cb1f2 {
        fill: none;
        stroke: #000;
        stroke-linecap: round;
        stroke-linejoin: round;
        stroke-width: 4px;
      }
    </style></defs><g id="uuid-4bc92f06-c84b-4f7f-af09-c2014f1ce8f9" data-name="mouth"><path d="m371.37,289.99c1.76,5.11-.95,10.68-6.06,12.44s-10.68-.95-12.44-6.06l18.49-6.38Z"/></g><g id="uuid-285df2d9-fba6-4a75-9123-94e1b459206d" data-name="eye L"><path class="uuid-f7dbff45-408d-444d-ade6-4633d32cb1f2" d="m346.88,270.76c1.76,5.11-.95,10.68-6.06,12.44s-10.68-.95-12.44-6.06"/></g><g id="uuid-a97f4a4e-8c90-4af2-892b-9ce222650c5a" data-name="eye R"><path class="uuid-f7dbff45-408d-444d-ade6-4633d32cb1f2" d="m378.79,259.75c1.76,5.11-.95,10.68-6.06,12.44-5.11,1.76-10.68-.95-12.44-6.06"/></g></svg>
<svg id="uuid-a9ec8817-2407-47e3-b451-30ded90b5961" data-name="BACKGROUND" xmlns="http://www.w3.org/2000/svg" xmlns:xlink="http://www.w3.org/1999/xlink" viewBox="0 0 600 600"><defs><style>
      .uuid-38147cdf-a163-4f62-b3ec-fbcafbd26544, .uuid-c3665144-c5cd-4a6e-8bcd-77622d93734e, .uuid-90c49120-ed8c-4549-b597-935fb43d9a5c, .uuid-37f640f1-0b58-490d-aa0c-c6db63473e01, .uuid-0b44583d-d0ab-401d-bf44-3fab20b4cfe3, .uuid-7a856aa2-b511-4b15-8b44-65c14813becd, .uuid-c5531e56-35be-4489-bfa4-2d18d1c48b9a {
        fill: none;
      }

      .uuid-c3665144-c5cd-4a6e-8bcd-77622d93734e, .uuid-08975e20-1e06-470a-a6ad-274a08437e44, .uuid-90c49120-ed8c-4549-b597-935fb43d9a5c, .uuid-57a4487c-ab0d-45e7-bcdb-31380f7058fe, .uuid-37f640f1-0b58-490d-aa0c-c6db63473e01 {
        stroke: #000;
        stroke-linecap: round;
        stroke-linejoin: round;
      }

      .uuid-08975e20-1e06-470a-a6ad-274a08437e44 {
        fill: #353434;
      }

      .uuid-08975e20-1e06-470a-a6ad-274a08437e44, .uuid-90c49120-ed8c-4549-b597-935fb43d9a5c, .uuid-57a4487c-ab0d-45e7-bcdb-31380f7058fe, .uuid-37f640f1-0b58-490d-aa0c-c6db63473e01 {
        stroke-width: 2px;
      }

      .uuid-90c49120-ed8c-4549-b597-935fb43d9a5c {
        stroke-dasharray: 0 0 0 4;
      }

      .uuid-a7665a25-b1d6-4816-87d4-f1f8d0a00c6b {
        fill: #f9a723;
      }

      .uuid-a18afeca-8b09-4f0f-acfd-b939a492045c, .uuid-57a4487c-ab0d-45e7-bcdb-31380f7058fe {
        fill: #fff7f0;
      }

      .uuid-0b44583d-d0ab-401d-bf44-3fab20b4cfe3 {
        clip-path: url(#uuid-41d8c490-a2b5-4ce3-9120-3480010acea7);
      }

      .uuid-7a856aa2-b511-4b15-8b44-65c14813becd {
        clip-path: url(#uuid-86749df8-09be-4d89-a9e5-b30073c7eb55);
      }

      .uuid-c5531e56-35be-4489-bfa4-2d18d1c48b9a {
        clip-path: url(#uuid-c95a0056-7a63-4914-89d6-429f2c9f02dd);
      }
    </style><clipPath id="uuid-86749df8-09be-4d89-a9e5-b30073c7eb55"><path class="uuid-38147cdf-a163-4f62-b3ec-fbcafbd26544" d="m236.72,508.58l-27.63-35.34c-.99-1.27-2.89-1.3-3.93-.08l-4.54,5.35c-1.19,1.4-1.23,3.44-.1,4.88l29.22,37.38c1.22,1.56,3.1,2.48,5.08,2.48h71.09c1.33,0,2.41-1.08,2.41-2.41v-8.19c0-1.33-1.08-2.41-2.41-2.41h-65.78c-1.34,0-2.6-.62-3.42-1.67h0Z"/></clipPath><clipPath id="uuid-41d8c490-a2b5-4ce3-9120-3480010acea7"><path class="uuid-38147cdf-a163-4f62-b3ec-fbcafbd26544" d="m469.32,415.42c-.66-.63-1.59-.86-2.47-.62-5.87,1.59-29.25,8.95-53.86,30.76-23.28,20.64-30.4,35.59-32.22,40.34-.37.98-.27,2.06.31,2.94,1.37,2.1,4.19,6.25,6.89,9.08,4.73,4.98,26.38-2.07,55.09-27.69,28.72-25.62,37.69-40.52,34.25-45.67-2.52-3.77-6.2-7.44-7.99-9.14h0Z"/></clipPath><clipPath id="uuid-c95a0056-7a63-4914-89d6-429f2c9f02dd"><path class="uuid-38147cdf-a163-4f62-b3ec-fbcafbd26544" d="m477.9,426.07h0c-.62-4.79-20.55-1.28-53.98,25.69-33.41,26.94-37.41,45.67-34.1,47.26,7.15,2.33,27.31-5.65,53.25-28.79,24.07-21.47,34.26-35.41,34.9-42.4,0-.73,0-1.33-.07-1.76h0Z"/></clipPath></defs><g id="uuid-ba66d85f-07fa-4fc3-953c-f19e41c3212a" data-name="uuid-26a6d1fb-7a7a-43d6-9d7d-4988c6494f43"><g><g><path class="uuid-08975e20-1e06-470a-a6ad-274a08437e44" d="m232.09,463.9l-4.76,4.74s-12.85-2.78-19.77,7.48l29.07,36.91h68.51s.65-17.01-14.04-25.82c-8.29-5.06-18.57-5.38-18.57-5.38,0,0,.59-5.4-10.04-6.52-6.71-.71-10.69-1.45-11.43,5.09-3.34-.74-3.38.51-4.52.47-12.74-5.97-14.45-16.98-14.45-16.98h0Z"/><path class="uuid-57a4487c-ab0d-45e7-bcdb-31380f7058fe" d="m224.97,486.65l8.84,6.43c1.34.98,2.96,1.51,4.63,1.51h1.91c1.22,0,2.42.28,3.51.83l13.47,6.72c2.02,1.01,4.44.71,6.16-.75l4.2-3.56s-2.45-1.65-5.37-3.34c-.93.79-2.49,2.38-2.49,2.38-.47.45-1.18.54-1.75.23l-13.14-7.28c-1.17-.65-2.48-.99-3.81-.99h-1.5c-1.68,0-3.31-.54-4.66-1.53l-9.07-6.67-.92,6.03h0Z"/><g><path class="uuid-37f640f1-0b58-490d-aa0c-c6db63473e01" d="m224.03,468.31c5.12,10.55-1.65,27.23-1.65,27.23"/><path class="uuid-37f640f1-0b58-490d-aa0c-c6db63473e01" d="m272.94,501.95s-10.29-10.01-26.93-13.68c0,0-.04-4.76.53-7.38"/><path class="uuid-37f640f1-0b58-490d-aa0c-c6db63473e01" d="m251.06,480.41c-.2,1.65,0,4.68,0,4.68,0,0,14.89,1.67,24.77,11.68"/><path class="uuid-90c49120-ed8c-4549-b597-935fb43d9a5c" d="m233.41,508.95c11.41-5.97,21.79-.21,38.23-2.92"/><path class="uuid-37f640f1-0b58-490d-aa0c-c6db63473e01" d="m292.35,488.02c-19.07,2.22-21.4,18.25-21.65,25.02"/><path class="uuid-37f640f1-0b58-490d-aa0c-c6db63473e01" d="m244.42,489.63c5.92-5.31,14.38-9.03,28.11-7.79"/></g><g><path class="uuid-57a4487c-ab0d-45e7-bcdb-31380f7058fe" d="m272.79,481.86s-1.22-4.06-6.78-4.06c-7.86,0-12.12,6.94-13.58,9.53-1.46,2.58,2.88,4.92,4.88,1.92,4.3-6.42,6.78-7.15,8.16-7.61,3.05-.17,7.32.21,7.32.21h0Z"/><path class="uuid-57a4487c-ab0d-45e7-bcdb-31380f7058fe" d="m286.4,484.77s-.85-4.3-6.5-4.83c-7.98-.74-12.97,6.03-14.7,8.56-1.73,2.53,2.45,5.35,4.77,2.44,4.98-6.23,9.01-7.6,10.46-7.94,1.97.42,5.97,1.76,5.97,1.76h0Z"/></g><g><path class="uuid-a18afeca-8b09-4f0f-acfd-b939a492045c" d="m236.72,508.58l-27.63-35.34c-.99-1.27-2.89-1.3-3.93-.08l-4.54,5.35c-1.19,1.4-1.23,3.44-.1,4.88l29.22,37.38c1.22,1.56,3.1,2.48,5.08,2.48h71.09c1.33,0,2.41-1.08,2.41-2.41v-8.19c0-1.33-1.08-2.41-2.41-2.41h-65.78c-1.34,0-2.6-.62-3.42-1.67h0Z"/><g class="uuid-7a856aa2-b511-4b15-8b44-65c14813becd"><g><path class="uuid-37f640f1-0b58-490d-aa0c-c6db63473e01" d="m233.72,513.58l-31.07-39.51c-.99-1.27-2.89-1.3-3.93-.08l-4.54,5.35c-1.19,1.4-1.23,3.44-.1,4.88l32.66,41.55c1.22,1.56,3.1,2.48,5.08,2.48h78.32c1.33,0,2.41-1.08,2.41-2.41v-8.19c0-1.33-1.08-2.41-2.41-2.41h-73c-1.34,0-2.6-.62-3.42-1.67h0Z"/><path class="uuid-37f640f1-0b58-490d-aa0c-c6db63473e01" d="m257.13,515.25c-4.65,4.53-7.01,15.59-7.01,15.59"/><path class="uuid-c3665144-c5cd-4a6e-8bcd-77622d93734e" d="m203.87,471.28l31.75,40.14c.73.92,1.83,1.45,3,1.45h72.64"/></g></g><path class="uuid-37f640f1-0b58-490d-aa0c-c6db63473e01" d="m236.72,508.58l-27.63-35.34c-.99-1.27-2.89-1.3-3.93-.08l-4.54,5.35c-1.19,1.4-1.23,3.44-.1,4.88l29.22,37.38c1.22,1.56,3.1,2.48,5.08,2.48h71.09c1.33,0,2.41-1.08,2.41-2.41v-8.19c0-1.33-1.08-2.41-2.41-2.41h-65.78c-1.34,0-2.6-.62-3.42-1.67h0Z"/></g></g><g><path class="uuid-08975e20-1e06-470a-a6ad-274a08437e44" d="m374.29,449.88l5.62,6.52s-3.17,17.71,2.54,31.11c0,0,5.33-16.06,31.48-39.12,26.16-23.06,53.73-30.88,53.73-30.88,0,0-10.6-11.39-29.3-10.31-18.7,1.08-28.7,15.35-28.7,15.35l-7.34-6.97c-1.07-.79-2.2-1.09-3.35-.95-2.22.27-4.71,2.12-8.72,5.16-.66.5-.78,1.46-.26,2.11l1.05,1.3s-16.35,11.66-16.75,26.68h0Z"/><g><path class="uuid-37f640f1-0b58-490d-aa0c-c6db63473e01" d="m438.37,407.2c-12.71,7.85-5.52,21.67-3.18,25.5"/><path class="uuid-37f640f1-0b58-490d-aa0c-c6db63473e01" d="m387.04,426.55l16.04,14.9s14.31-12.47,28.39-17.83"/><path class="uuid-37f640f1-0b58-490d-aa0c-c6db63473e01" d="m431.04,419.33c-13.06,3.21-27.36,15.6-27.36,15.6l-12.64-11.73"/><path class="uuid-37f640f1-0b58-490d-aa0c-c6db63473e01" d="m379.19,462.98c7.61-4.75,16.48,0,16.48,0"/><path class="uuid-57a4487c-ab0d-45e7-bcdb-31380f7058fe" d="m409.66,422.54s-3.89,5.28-6.92,15.26"/></g><path class="uuid-57a4487c-ab0d-45e7-bcdb-31380f7058fe" d="m393.02,461.84s-4.36-1.04-6.05-.97l6.92-6.51c.88-.83,1.41-1.96,1.49-3.17h0c.1-1.53.92-2.92,2.22-3.73l18.26-11.43c.9-.56,1.46-1.53,1.48-2.59.02-.73,0-1.61-.11-2.44,0,0,3.79-2.34,5.17-3.09,0,0,.19,4.73.12,7.32-.03,1.03-.55,1.99-1.42,2.56l-18.86,12.04c-1.06.7-1.79,1.8-2.04,3.04l-.19.95c-.19.94-.65,1.81-1.34,2.48l-5.66,5.52h0Z"/><g><path class="uuid-a18afeca-8b09-4f0f-acfd-b939a492045c" d="m469.32,415.42c-.66-.63-1.59-.86-2.47-.62-5.87,1.59-29.25,8.95-53.86,30.76-23.28,20.64-30.4,35.59-32.22,40.34-.37.98-.27,2.06.31,2.94,1.37,2.1,4.19,6.25,6.89,9.08,4.73,4.98,26.38-2.07,55.09-27.69,28.72-25.62,37.69-40.52,34.25-45.67-2.52-3.77-6.2-7.44-7.99-9.14h0Z"/><g class="uuid-0b44583d-d0ab-401d-bf44-3fab20b4cfe3"><g><path class="uuid-37f640f1-0b58-490d-aa0c-c6db63473e01" d="m472.79,418c-6.13,1.66-31.38,8.54-57.1,31.34-24.34,21.57-30.97,38.01-32.86,42.97"/><path class="uuid-c3665144-c5cd-4a6e-8bcd-77622d93734e" d="m470.98,416.08c-6.13,1.66-31.16,8.82-56.88,31.61-24.34,21.57-30.97,38.01-32.86,42.97"/><path class="uuid-37f640f1-0b58-490d-aa0c-c6db63473e01" d="m426.8,440.38c.35,3.83,1.54,7.89,1.54,7.89"/></g></g><path class="uuid-37f640f1-0b58-490d-aa0c-c6db63473e01" d="m469.32,415.42c-.66-.63-1.59-.86-2.47-.62-5.87,1.59-29.25,8.95-53.86,30.76-23.28,20.64-30.4,35.59-32.22,40.34-.37.98-.27,2.06.31,2.94,1.37,2.1,4.19,6.25,6.89,9.08,4.73,4.98,26.38-2.07,55.09-27.69,28.72-25.62,37.69-40.52,34.25-45.67-2.52-3.77-6.2-7.44-7.99-9.14h0Z"/></g><g><path class="uuid-a7665a25-b1d6-4816-87d4-f1f8d0a00c6b" d="m477.9,426.07h0c-.62-4.79-20.55-1.28-53.98,25.69-33.41,26.94-37.41,45.67-34.1,47.26,7.15,2.33,27.31-5.65,53.25-28.79,24.07-21.47,34.26-35.41,34.9-42.4,0-.73,0-1.33-.07-1.76h0Z"/><g class="uuid-c5531e56-35be-4489-bfa4-2d18d1c48b9a"><g><g><line class="uuid-37f640f1-0b58-490d-aa0c-c6db63473e01" x1="381.54" y1="492.75" x2="444.59" y2="492.75"/><line class="uuid-37f640f1-0b58-490d-aa0c-c6db63473e01" x1="387.1" y1="486.55" x2="450.14" y2="486.55"/><line class="uuid-37f640f1-0b58-490d-aa0c-c6db63473e01" x1="392.37" y1="479.4" x2="455.41" y2="479.4"/><line class="uuid-37f640f1-0b58-490d-aa0c-c6db63473e01" x1="398.7" y1="472.12" x2="461.75" y2="472.12"/><line class="uuid-37f640f1-0b58-490d-aa0c-c6db63473e01" x1="406.85" y1="464.43" x2="469.89" y2="464.43"/><line class="uuid-37f640f1-0b58-490d-aa0c-c6db63473e01" x1="413.06" y1="457.06" x2="476.11" y2="457.06"/><line class="uuid-37f640f1-0b58-490d-aa0c-c6db63473e01" x1="422.54" y1="449.74" x2="485.59" y2="449.74"/><line class="uuid-37f640f1-0b58-490d-aa0c-c6db63473e01" x1="431.04" y1="442.32" x2="494.08" y2="442.32"/><line class="uuid-37f640f1-0b58-490d-aa0c-c6db63473e01" x1="439.8" y1="434.91" x2="502.84" y2="434.91"/><line class="uuid-37f640f1-0b58-490d-aa0c-c6db63473e01" x1="446.44" y1="428.43" x2="509.49" y2="428.43"/></g><g><line class="uuid-37f640f1-0b58-490d-aa0c-c6db63473e01" x1="425.89" y1="534.09" x2="367.66" y2="456.06"/><line class="uuid-37f640f1-0b58-490d-aa0c-c6db63473e01" x1="432.22" y1="530.76" x2="374" y2="452.74"/><line class="uuid-37f640f1-0b58-490d-aa0c-c6db63473e01" x1="439.41" y1="526.76" x2="381.19" y2="448.74"/><line class="uuid-37f640f1-0b58-490d-aa0c-c6db63473e01" x1="445.19" y1="521.9" x2="386.97" y2="443.88"/><line class="uuid-37f640f1-0b58-490d-aa0c-c6db63473e01" x1="451.27" y1="516.55" x2="393.04" y2="438.52"/><line class="uuid-37f640f1-0b58-490d-aa0c-c6db63473e01" x1="458.93" y1="511.95" x2="400.7" y2="433.93"/><line class="uuid-37f640f1-0b58-490d-aa0c-c6db63473e01" x1="465.81" y1="507.2" x2="407.59" y2="429.17"/><line class="uuid-37f640f1-0b58-490d-aa0c-c6db63473e01" x1="472.37" y1="502.45" x2="414.15" y2="424.42"/><line class="uuid-37f640f1-0b58-490d-aa0c-c6db63473e01" x1="478.85" y1="496.98" x2="420.62" y2="418.95"/><line class="uuid-37f640f1-0b58-490d-aa0c-c6db63473e01" x1="485.17" y1="491.75" x2="426.95" y2="413.72"/><line class="uuid-37f640f1-0b58-490d-aa0c-c6db63473e01" x1="492.86" y1="486.51" x2="434.64" y2="408.48"/><line class="uuid-37f640f1-0b58-490d-aa0c-c6db63473e01" x1="500.02" y1="481.69" x2="441.8" y2="403.66"/><line class="uuid-37f640f1-0b58-490d-aa0c-c6db63473e01" x1="507.96" y1="477.54" x2="449.73" y2="399.51"/></g></g></g><path class="uuid-37f640f1-0b58-490d-aa0c-c6db63473e01" d="m477.9,426.07h0c-.62-4.79-20.55-1.28-53.98,25.69-33.41,26.94-37.41,45.67-34.1,47.26,7.15,2.33,27.31-5.65,53.25-28.79,24.07-21.47,34.26-35.41,34.9-42.4,0-.73,0-1.33-.07-1.76h0Z"/></g><g><path class="uuid-57a4487c-ab0d-45e7-bcdb-31380f7058fe" d="m408.54,421.02c-3.73,3.19-6.72,6.78-9.07,9.63-2.35,2.86-6.8.03-3.59-3.64,3.21-3.67,7.19-7.82,9.39-9.15,2.2-1.33,5.76,1.03,3.27,3.15h0Z"/><path class="uuid-57a4487c-ab0d-45e7-bcdb-31380f7058fe" d="m418.62,414.25s-3.47-2.43-7.84,1.01c-6.17,4.87-5.22,12.96-4.76,15.89s5.3,2.08,5.02-1.51c-.6-7.7.9-9.81,1.7-11.03,2.29-2.02,5.88-4.36,5.88-4.36h0Z"/><path class="uuid-57a4487c-ab0d-45e7-bcdb-31380f7058fe" d="m431.11,408.11s-3.34-2.85-8.09.24c-6.73,4.36-6.45,12.77-6.24,15.82s5.24,2.68,5.26-1.04c.05-7.97,2.38-11.55,3.3-12.71,1.81-.89,5.78-2.31,5.78-2.31Z"/></g></g></g></g></svg>
<svg id="uuid-55ecc028-236b-4107-a473-b463f673f86d" data-name="BODY" xmlns="http://www.w3.org/2000/svg" xmlns:xlink="http://www.w3.org/1999/xlink" viewBox="0 0 600 600"><defs><style>
      .uuid-f7cf47f1-387c-40c0-8451-efa3e1f48bb3, .uuid-6ab753ec-842d-4635-8bda-4f11118cf21d, .uuid-e45dda09-b6fd-469a-8eb9-5847bc51013b, .uuid-b4015b0b-b5a2-4504-ab5f-b3dc7c0f0bea, .uuid-b1a063f9-d398-49ac-8717-dedd55fd17c7 {
        fill: none;
      }

      .uuid-6ab753ec-842d-4635-8bda-4f11118cf21d {
        clip-path: url(#uuid-cd30974c-211b-420c-b621-0d4b41918d4b);
      }

      .uuid-e45dda09-b6fd-469a-8eb9-5847bc51013b {
        clip-path: url(#uuid-0ad76e5b-fc91-46c9-818d-ed4d146208f8);
      }

      .uuid-8a193521-0ef5-4407-9ee8-bb4ebcd57992, .uuid-acba282c-cbdd-4fe6-aee3-1b2aaa578edb, .uuid-d76bb13e-79ef-4d22-868e-758f3fc81ba4, .uuid-7ca8cd12-c4ef-474d-b7e8-9ac616bc8090, .uuid-53cbd553-6925-4261-892e-503624ed011f, .uuid-8318a3fb-8d6a-4db7-b071-a15a473496d3, .uuid-93feedb8-91e3-42a2-bd0a-197c246fdb2b, .uuid-aa1376c1-8f7a-4198-be7e-f0dfeb7eba4b, .uuid-b4015b0b-b5a2-4504-ab5f-b3dc7c0f0bea, .uuid-b1a063f9-d398-49ac-8717-dedd55fd17c7 {
        stroke: #000;
        stroke-linecap: round;
        stroke-linejoin: round;
      }

      .uuid-8a193521-0ef5-4407-9ee8-bb4ebcd57992, .uuid-acba282c-cbdd-4fe6-aee3-1b2aaa578edb, .uuid-124c2ab5-3017-4aff-88c5-916403019659 {
        fill: #7aa6ff;
      }

      .uuid-8a193521-0ef5-4407-9ee8-bb4ebcd57992, .uuid-7ca8cd12-c4ef-474d-b7e8-9ac616bc8090, .uuid-53cbd553-6925-4261-892e-503624ed011f, .uuid-93feedb8-91e3-42a2-bd0a-197c246fdb2b, .uuid-b4015b0b-b5a2-4504-ab5f-b3dc7c0f0bea {
        stroke-width: 2px;
      }

      .uuid-acba282c-cbdd-4fe6-aee3-1b2aaa578edb, .uuid-8318a3fb-8d6a-4db7-b071-a15a473496d3, .uuid-aa1376c1-8f7a-4198-be7e-f0dfeb7eba4b, .uuid-b1a063f9-d398-49ac-8717-dedd55fd17c7 {
        stroke-width: 2px;
      }

      .uuid-d76bb13e-79ef-4d22-868e-758f3fc81ba4 {
        stroke-width: 2px;
      }

      .uuid-d76bb13e-79ef-4d22-868e-758f3fc81ba4, .uuid-7ca8cd12-c4ef-474d-b7e8-9ac616bc8090 {
        fill: #8400ff;
      }

      .uuid-66f64252-28db-40bd-8f2c-f28f22893256 {
        fill: #fff7f0;
      }

      .uuid-53cbd553-6925-4261-892e-503624ed011f, .uuid-8318a3fb-8d6a-4db7-b071-a15a473496d3 {
        fill: #a07bff;
      }

      .uuid-93feedb8-91e3-42a2-bd0a-197c246fdb2b, .uuid-aa1376c1-8f7a-4198-be7e-f0dfeb7eba4b {
        fill: #00dfa9;
      }
    </style><clipPath id="uuid-0ad76e5b-fc91-46c9-818d-ed4d146208f8"><rect class="uuid-f7cf47f1-387c-40c0-8451-efa3e1f48bb3" x="16.46" y="333.04" width="288" height="266.96"/></clipPath><clipPath id="uuid-cd30974c-211b-420c-b621-0d4b41918d4b"><rect class="uuid-f7cf47f1-387c-40c0-8451-efa3e1f48bb3" x="184.41" y="448.21" width="13.5" height="71.81" transform="translate(-328.3 516.71) rotate(-72.04)"/></clipPath></defs><g id="uuid-c271d4e6-0ed9-43ec-a6eb-586182258769" data-name="uuid-aa1a3761-725c-4c6a-bb08-3b927dabb1b6"><g class="uuid-e45dda09-b6fd-469a-8eb9-5847bc51013b"><g><g><polygon class="uuid-8a193521-0ef5-4407-9ee8-bb4ebcd57992" points="91.61 442.3 86.94 440.79 114.36 362.08 115.56 362.47 91.61 442.3"/><circle class="uuid-8a193521-0ef5-4407-9ee8-bb4ebcd57992" cx="114.96" cy="362.27" r="3.66"/></g><g><path class="uuid-53cbd553-6925-4261-892e-503624ed011f" d="m250.78,490.94l-162.48-40.18c-2.64-.86-5.48.59-6.33,3.23l-6.05,18.67c-.86,2.64.59,5.48,3.23,6.33l168.95,54.76c2.64.86,5.48-.59,6.33-3.23l6.05-18.67c.45-1.38.27-2.81-.38-3.98-.6-1.08-8.05-16.51-9.32-16.92h0Z"/><path class="uuid-aa1376c1-8f7a-4198-be7e-f0dfeb7eba4b" d="m80.92,435.35l167.79,54.38c2.96.96,4.58,4.14,3.62,7.1l-7.41,22.87-178.52-57.86,7.41-22.87c.96-2.96,4.14-4.58,7.1-3.62Z"/><g><polygon class="uuid-53cbd553-6925-4261-892e-503624ed011f" points="144.41 476.06 94.59 459.91 105.57 449.28 155.39 465.42 144.41 476.06"/><g><line class="uuid-b4015b0b-b5a2-4504-ab5f-b3dc7c0f0bea" x1="126.49" y1="470.25" x2="137.47" y2="459.61"/><line class="uuid-b4015b0b-b5a2-4504-ab5f-b3dc7c0f0bea" x1="119.33" y1="467.93" x2="130.31" y2="457.3"/><line class="uuid-b4015b0b-b5a2-4504-ab5f-b3dc7c0f0bea" x1="112.52" y1="465.72" x2="123.5" y2="455.09"/></g></g><g><rect class="uuid-124c2ab5-3017-4aff-88c5-916403019659" x="184.41" y="448.21" width="13.5" height="71.81" transform="translate(-328.3 516.71) rotate(-72.04)"/><g class="uuid-6ab753ec-842d-4635-8bda-4f11118cf21d"><g><polygon class="uuid-66f64252-28db-40bd-8f2c-f28f22893256" points="210.04 497.33 194.4 492.26 205.38 481.62 221.02 486.69 210.04 497.33"/><polygon class="uuid-66f64252-28db-40bd-8f2c-f28f22893256" points="187.58 490.05 179.76 487.51 190.74 476.88 198.56 479.41 187.58 490.05"/><polygon class="uuid-66f64252-28db-40bd-8f2c-f28f22893256" points="165.85 483 161.25 481.51 172.23 470.88 176.83 472.37 165.85 483"/></g></g><rect class="uuid-b1a063f9-d398-49ac-8717-dedd55fd17c7" x="184.41" y="448.21" width="13.5" height="71.81" transform="translate(-328.3 516.71) rotate(-72.04)"/></g><g><line class="uuid-b4015b0b-b5a2-4504-ab5f-b3dc7c0f0bea" x1="78.63" y1="440.55" x2="93.51" y2="445.37"/><line class="uuid-b4015b0b-b5a2-4504-ab5f-b3dc7c0f0bea" x1="74.47" y1="453.39" x2="89.35" y2="458.21"/><line class="uuid-b4015b0b-b5a2-4504-ab5f-b3dc7c0f0bea" x1="76.55" y1="446.97" x2="91.43" y2="451.79"/></g><g><line class="uuid-b4015b0b-b5a2-4504-ab5f-b3dc7c0f0bea" x1="232.2" y1="490.32" x2="247.07" y2="495.14"/><line class="uuid-b4015b0b-b5a2-4504-ab5f-b3dc7c0f0bea" x1="228.03" y1="503.16" x2="242.91" y2="507.98"/><line class="uuid-b4015b0b-b5a2-4504-ab5f-b3dc7c0f0bea" x1="230.12" y1="496.74" x2="244.99" y2="501.56"/></g></g><g><path class="uuid-7ca8cd12-c4ef-474d-b7e8-9ac616bc8090" d="m232.92,608.52l-188.32-61.03c-.83-.27-1.47-.85-1.83-1.56s-6.8-12.03-6.53-12.86l30.07-62.74c.54-1.65,2.31-2.56,3.96-2.02l183.3,49.39c.76.25,6.38,12.41,6.76,13.05.44.75.57,1.67.28,2.56l-23.72,73.19c-.54,1.65-2.31,2.56-3.96,2.02h0Z"/><rect class="uuid-8318a3fb-8d6a-4db7-b071-a15a473496d3" x="103.55" y="423.69" width="83.23" height="204.26" rx="3.15" ry="3.15" transform="translate(-399.79 501.8) rotate(-72.04)"/><line class="uuid-b4015b0b-b5a2-4504-ab5f-b3dc7c0f0bea" x1="235.39" y1="608.29" x2="228.96" y2="595.7"/></g><g><circle class="uuid-8a193521-0ef5-4407-9ee8-bb4ebcd57992" cx="85.25" cy="506.4" r="31.66"/><circle class="uuid-93feedb8-91e3-42a2-bd0a-197c246fdb2b" cx="85.25" cy="506.4" r="24.87"/><circle class="uuid-b4015b0b-b5a2-4504-ab5f-b3dc7c0f0bea" cx="86.2" cy="506.71" r="19.13"/><circle class="uuid-7ca8cd12-c4ef-474d-b7e8-9ac616bc8090" cx="87.39" cy="507.09" r="6.32"/></g><g><circle class="uuid-8a193521-0ef5-4407-9ee8-bb4ebcd57992" cx="203.53" cy="544.73" r="31.66"/><circle class="uuid-93feedb8-91e3-42a2-bd0a-197c246fdb2b" cx="203.53" cy="544.73" r="24.87"/><circle class="uuid-b4015b0b-b5a2-4504-ab5f-b3dc7c0f0bea" cx="204.48" cy="545.04" r="19.13"/><circle class="uuid-7ca8cd12-c4ef-474d-b7e8-9ac616bc8090" cx="205.67" cy="545.43" r="6.32"/></g><g><g><rect class="uuid-b1a063f9-d398-49ac-8717-dedd55fd17c7" x="148.01" y="499.61" width="7.15" height="12.83" transform="translate(-376.53 494.21) rotate(-72.04)"/><circle class="uuid-b4015b0b-b5a2-4504-ab5f-b3dc7c0f0bea" cx="138.27" cy="501.71" r="3.57"/><circle class="uuid-b4015b0b-b5a2-4504-ab5f-b3dc7c0f0bea" cx="164.89" cy="510.34" r="3.57"/></g><rect class="uuid-b1a063f9-d398-49ac-8717-dedd55fd17c7" x="138.18" y="482.66" width="26.81" height="46.72" rx="3.97" ry="3.97" transform="translate(-376.53 494.21) rotate(-72.04)"/></g><g><polygon class="uuid-7ca8cd12-c4ef-474d-b7e8-9ac616bc8090" points="157.51 563.5 113.06 549.1 109.84 542.79 121.33 523.59 162.56 531.69 165.78 538 157.51 563.5"/><rect class="uuid-acba282c-cbdd-4fe6-aee3-1b2aaa578edb" x="122.8" y="513.88" width="26.81" height="46.72" transform="translate(-416.86 501.17) rotate(-72.04)"/><polyline class="uuid-b4015b0b-b5a2-4504-ab5f-b3dc7c0f0bea" points="127.51 553.78 124.28 547.45 132.54 521.96"/><polyline class="uuid-b4015b0b-b5a2-4504-ab5f-b3dc7c0f0bea" points="142.78 558.73 139.55 552.4 147.81 526.91"/><line class="uuid-b4015b0b-b5a2-4504-ab5f-b3dc7c0f0bea" x1="154.29" y1="557.19" x2="157.51" y2="563.5"/></g><path class="uuid-53cbd553-6925-4261-892e-503624ed011f" d="m245.96,586.54c-.21.07-5.45.56-5.62.5-2.11-.68-.82-10.51,2.89-21.95,3.71-11.44,8.43-20.16,10.54-19.47.1.03,4.15,3.73,4.23,3.8,1.73,1.42-9.72,36.37-12.03,37.12h0Z"/><ellipse class="uuid-d76bb13e-79ef-4d22-868e-758f3fc81ba4" cx="252" cy="567.93" rx="19.46" ry="4.02" transform="translate(-365.96 632.55) rotate(-72.04)"/><g><path class="uuid-53cbd553-6925-4261-892e-503624ed011f" d="m152.45,436.42s.66-2.76,1.4-5.54,1.09-4.12,1.09-4.12c0,0-5.88-2.19-9.8-3.46-3.92-1.27-6.41-1.17-9.39,1.94-2.97,3.11-15.92,22.72-15.92,22.72l15.96,5.17s5.87-11.48,7.58-14.75,3.7-3.7,9.07-1.96h0Z"/><path class="uuid-7ca8cd12-c4ef-474d-b7e8-9ac616bc8090" d="m152.45,436.42s.5-2.1,1.12-4.48c-2.12-.62-4.79-1.37-5.52-1.61-2.23-.72-4.92-2.05-9.31,5.29-3.09,5.15-7.16,11.9-9.31,15.45h0l6.37,2.06s5.87-11.48,7.58-14.75c1.71-3.27,3.7-3.7,9.07-1.96Z"/></g><g><path class="uuid-53cbd553-6925-4261-892e-503624ed011f" d="m194.13,449.15s.25-2.82,1.22-4.81c1.13-2.3,2.73-3.64,2.73-3.64,0,0,24.75,7.78,28.66,9.04,3.92,1.27,5.88,2.81,6.46,7.08s-.43,27.74-.43,27.74l-15.96-5.17s1.99-12.74,2.51-16.4c.24-1.66.18-2.89-.46-3.9-.31-.49-.76-.93-1.38-1.34-.91-.6-21.63-8.04-23.37-8.61h0Z"/><path class="uuid-7ca8cd12-c4ef-474d-b7e8-9ac616bc8090" d="m233.21,456.83c-.58-4.26-2.55-5.81-6.46-7.08l-1.83-.59c7.01,2.27,2.46,33.66,2.46,33.66l5.4,1.75s1.02-23.47.43-27.74h0Z"/><path class="uuid-7ca8cd12-c4ef-474d-b7e8-9ac616bc8090" d="m218.87,459.1c.39.62.55,1.34.57,2.18.05-2.37-.14-7.25-2.42-7.99-2.34-.76-16.13-5.17-22.32-7.15-.43,1.56-.56,3.02-.56,3.02,1.74.56,22.46,8,23.37,8.61.62.41,1.07.85,1.38,1.34h0Z"/></g></g></g></g></svg>
<svg id="uuid-4f9c58ac-8fff-4862-9c52-f3e315adf08b" data-name="BODY" xmlns="http://www.w3.org/2000/svg" xmlns:xlink="http://www.w3.org/1999/xlink" viewBox="0 0 600 600"><defs><style>
      .uuid-fe807ae8-6d4c-4eb2-9250-b043792de360, .uuid-84bd41ec-755d-4570-bc7d-90640366e08e, .uuid-e86cd3fb-3bee-48a4-9442-0ed97831e34e {
        fill: none;
      }

      .uuid-da94aee9-5a9d-4f5d-9b29-9cde32a1175c, .uuid-afc4803e-77b0-4ecb-b056-33f2566dc0fd {
        fill: #ff78d8;
      }

      .uuid-9e1d4ef1-4fc7-4608-809b-a39c3676a322 {
        fill: #a07bff;
      }

      .uuid-9e1d4ef1-4fc7-4608-809b-a39c3676a322, .uuid-afc4803e-77b0-4ecb-b056-33f2566dc0fd, .uuid-e86cd3fb-3bee-48a4-9442-0ed97831e34e, .uuid-5b11b8c4-4aba-4d0e-97e1-bcb90f636dca {
        stroke: #000;
        stroke-linecap: round;
        stroke-linejoin: round;
        stroke-width: 2px;
      }

      .uuid-84bd41ec-755d-4570-bc7d-90640366e08e {
        clip-path: url(#uuid-908aa4b2-9986-4a9e-8169-3f477676d06c);
      }

      .uuid-5b11b8c4-4aba-4d0e-97e1-bcb90f636dca {
        fill: #f9a723;
      }
    </style><clipPath id="uuid-908aa4b2-9986-4a9e-8169-3f477676d06c"><path class="uuid-fe807ae8-6d4c-4eb2-9250-b043792de360" d="m470.37,263.4c.26.09,13.38,2.76,25.8-5.87,11.13,5.18,27.7,3.16,27.7,3.16,0,0,7.59,12.46,22.69,13.58,4.14,19.42,22.61,26.84,22.61,26.84,0,0-5.52,18.47,8.28,26.58-6.13,14.58,0,28.39,0,28.39,0,0-13.29,9.49-11.3,25.72-11.91.95-17.43,20.71-17.43,20.71l-42.02-54.71s3.66-4.86,2.16-10.1c-1.51-5.24-5.84-7.05-5.84-7.05,0,0,6.9-2.2,6.76-8.63s-7.36-13.75-19.44-11.06l-19.96-47.56h0Z"/></clipPath></defs><g id="uuid-cde481be-4b99-44d5-8b74-25417a789ef0" data-name="uuid-ac3cc490-8b26-46d1-bbbf-b285b8fc2132"><g id="uuid-0dd40599-6585-490b-8145-5052ad5056be" data-name="uuid-d903f005-6b44-47ef-b972-97b0f19dbeba"><g id="uuid-3290c729-ecd5-4a2b-afcc-a27cbc2a6411" data-name="uuid-5c0abff7-8440-4649-be7a-ff1b81cfa8e1"><g><g><path class="uuid-da94aee9-5a9d-4f5d-9b29-9cde32a1175c" d="m470.37,263.4c.26.09,13.38,2.76,25.8-5.87,11.13,5.18,27.7,3.16,27.7,3.16,0,0,7.59,12.46,22.69,13.58,4.14,19.42,22.61,26.84,22.61,26.84,0,0-5.52,18.47,8.28,26.58-6.13,14.58,0,28.39,0,28.39,0,0-13.29,9.49-11.3,25.72-11.91.95-17.43,20.71-17.43,20.71l-42.02-54.71s3.66-4.86,2.16-10.1c-1.51-5.24-5.84-7.05-5.84-7.05,0,0,6.9-2.2,6.76-8.63s-7.36-13.75-19.44-11.06l-19.96-47.56h0Z"/><g class="uuid-84bd41ec-755d-4570-bc7d-90640366e08e"><g><polygon class="uuid-9e1d4ef1-4fc7-4608-809b-a39c3676a322" points="569.18 301.11 506.13 337.1 502.22 333.48 546.57 274.28 569.18 301.11"/><polygon class="uuid-9e1d4ef1-4fc7-4608-809b-a39c3676a322" points="523.87 260.7 505.51 318.75 499.67 315.74 496.17 257.54 523.87 260.7"/><polygon class="uuid-9e1d4ef1-4fc7-4608-809b-a39c3676a322" points="577.46 327.69 506.74 338.29 506.74 342.1 577.46 356.08 577.46 327.69"/><polygon class="uuid-9e1d4ef1-4fc7-4608-809b-a39c3676a322" points="566.15 381.8 506.74 343.68 505.51 347.28 548.72 402.51 566.15 381.8"/></g></g><path class="uuid-e86cd3fb-3bee-48a4-9442-0ed97831e34e" d="m470.37,263.4c.26.09,13.38,2.76,25.8-5.87,11.13,5.18,27.7,3.16,27.7,3.16,0,0,7.59,12.46,22.69,13.58,4.14,19.42,22.61,26.84,22.61,26.84,0,0-5.52,18.47,8.28,26.58-6.13,14.58,0,28.39,0,28.39,0,0-13.29,9.49-11.3,25.72-11.91.95-17.43,20.71-17.43,20.71l-42.02-54.71s3.66-4.86,2.16-10.1c-1.51-5.24-5.84-7.05-5.84-7.05,0,0,6.9-2.2,6.76-8.63s-7.36-13.75-19.44-11.06l-19.96-47.56h0Z"/></g><g><path class="uuid-5b11b8c4-4aba-4d0e-97e1-bcb90f636dca" d="m499.19,358.31c-1.23.68-.81,10.43-.56,11.18.25.74,6.46.56,7.2,0s-.68-11.02-1.61-11.57c-.72-.43-3.91-.22-5.03.4Z"/><g><path class="uuid-afc4803e-77b0-4ecb-b056-33f2566dc0fd" d="m500.89,367.41s-.9,3.24.69,15.05c1.89,14.09,5.31,20.53-6.11,36.39,3.93,2.51,8.03,2.24,8.03,2.24l4.07-5.86s.08,4.89-.18,6.61c2.58.51,3.4-.66,3.4-.66,0,0,5.47-6.71,2.96-22.37s-7.17-15.37-10.39-31.76l-2.48.35h0Z"/><path class="uuid-afc4803e-77b0-4ecb-b056-33f2566dc0fd" d="m506.47,402.9c.65-5.32.04-10.47-1.06-15.34"/><path class="uuid-afc4803e-77b0-4ecb-b056-33f2566dc0fd" d="m499.11,420.5c2.65-3.5,4.48-6.97,5.68-10.4"/></g><path class="uuid-e86cd3fb-3bee-48a4-9442-0ed97831e34e" d="m501.63,357.74c.23-3.61-.96-6.93-.96-6.93"/></g><path class="uuid-e86cd3fb-3bee-48a4-9442-0ed97831e34e" d="m482.49,292.28c5.63-2.22,11.76-3.45,18.18-3.45,27.32,0,49.46,22.14,49.46,49.46,0,16.34-7.92,30.83-20.13,39.83"/><path class="uuid-5b11b8c4-4aba-4d0e-97e1-bcb90f636dca" d="m502.64,348.68c.18.19,42.42,58.69,42.42,58.69l5.63-4.05-43.56-57.65-4.49,3.01h0Z"/><path class="uuid-5b11b8c4-4aba-4d0e-97e1-bcb90f636dca" d="m486.22,312.51l-22.65-48.86,7.89-2.67,20.17,49.78s-2.26.32-5.41,1.75h0Z"/><g><path class="uuid-5b11b8c4-4aba-4d0e-97e1-bcb90f636dca" d="m511.55,340.68c0,5.61-4.55,10.16-10.16,10.16s-10.16-4.55-10.16-10.16c0-4.45,2.86-8.23,6.84-9.6,1.42.16,3.32.04,4.95-.43,4.84.78,8.53,4.97,8.53,10.03h0Z"/><circle class="uuid-e86cd3fb-3bee-48a4-9442-0ed97831e34e" cx="501.39" cy="340.68" r="4.12"/></g><path class="uuid-e86cd3fb-3bee-48a4-9442-0ed97831e34e" d="m547.58,292.44c-2.14,4.11-2.31,9.19-.44,13.43"/><path class="uuid-e86cd3fb-3bee-48a4-9442-0ed97831e34e" d="m539.62,294.42l-1,3.3"/><path class="uuid-e86cd3fb-3bee-48a4-9442-0ed97831e34e" d="m505.38,269.24c.08,4.78,1.77,9.52,4.73,13.27"/><path class="uuid-e86cd3fb-3bee-48a4-9442-0ed97831e34e" d="m486.17,274.47l2.24,3.9"/><path class="uuid-e86cd3fb-3bee-48a4-9442-0ed97831e34e" d="m568.3,339.57c-3.29.51-6.45,1.86-9.1,3.88"/><path class="uuid-e86cd3fb-3bee-48a4-9442-0ed97831e34e" d="m551.17,384.34c-3.35-1.41-7.17-1.66-10.68-.68"/><path class="uuid-e86cd3fb-3bee-48a4-9442-0ed97831e34e" d="m548.44,377.66c-1.59-.34-3.24-.35-4.83,0"/></g></g></g></g></svg>
</svg>