<?xml version="1.0" encoding="UTF-8"?>
<svg xmlns="http://www.w3.org/2000/svg" viewBox="0 0 600 600">
<svg id="uuid-79261e34-5d95-4eb7-bb85-10d7c969ade4" data-name="BACKGROUND" xmlns="http://www.w3.org/2000/svg" viewBox="0 0 600 600"><defs><style>
      .uuid-97803ec4-c756-4940-a80c-fce9d043143d {
        fill: #00dfa9;
      }
    </style></defs><rect class="uuid-97803ec4-c756-4940-a80c-fce9d043143d" x="-1" y="-1" width="602" height="602"/></svg>
<svg id="uuid-da5b8a35-a9b2-4004-9217-4254ce55b3fe" data-name="BODY" xmlns="http://www.w3.org/2000/svg" viewBox="0 0 600 600"><defs><style>
      .uuid-ec25118f-3915-43af-9dc5-5d64b7ba66c4 {
        fill: #fff;
      }

      .uuid-73059a94-03d4-49d7-a031-ef6b59ff4553, .uuid-813f35b8-d70c-4735-9e7c-d217ddabbc48, .uuid-3c21801f-90f4-41ce-bd53-f460193f8c05, .uuid-382536b8-ade7-4abe-aa61-124cac12416d, .uuid-72d6c9e3-e040-49a4-ab2c-cf903abb3d52 {
        stroke: #000;
        stroke-width: 2px;
      }

      .uuid-73059a94-03d4-49d7-a031-ef6b59ff4553, .uuid-813f35b8-d70c-4735-9e7c-d217ddabbc48, .uuid-382536b8-ade7-4abe-aa61-124cac12416d, .uuid-72d6c9e3-e040-49a4-ab2c-cf903abb3d52 {
        fill: #3ef1ff;
      }

      .uuid-73059a94-03d4-49d7-a031-ef6b59ff4553, .uuid-3c21801f-90f4-41ce-bd53-f460193f8c05, .uuid-382536b8-ade7-4abe-aa61-124cac12416d {
        stroke-linecap: round;
      }

      .uuid-73059a94-03d4-49d7-a031-ef6b59ff4553, .uuid-3c21801f-90f4-41ce-bd53-f460193f8c05, .uuid-72d6c9e3-e040-49a4-ab2c-cf903abb3d52 {
        stroke-linejoin: round;
      }

      .uuid-813f35b8-d70c-4735-9e7c-d217ddabbc48, .uuid-382536b8-ade7-4abe-aa61-124cac12416d {
        stroke-miterlimit: 10;
      }

      .uuid-3c21801f-90f4-41ce-bd53-f460193f8c05 {
        fill: none;
      }
    </style></defs><ellipse cx="300" cy="518.65" rx="138.6" ry="22.93"/><g><path class="uuid-813f35b8-d70c-4735-9e7c-d217ddabbc48" d="m319.36,427.14c-1.16,1.05-54.95,57-54.95,57,0,0,21.51-1.95,31.74,10.62,10.23,12.57,7.26,23.89,7.26,23.89h-66.9s-28.69-36.17-28.69-36.17c0,0,3.74-13.4,20.44-10.59,20.9-19.38,55.52-59.13,55.52-59.13l35.59,14.38Z"/><path d="m283.78,412.76l31.28,12.64-3.24,9.5c-2.93,3.03-9.76,10.12-13.64,14.14-11.92,0-27.98-2.13-41.33-6.37,13.95-15.1,26.93-29.92,26.93-29.92Z"/></g><g><path class="uuid-73059a94-03d4-49d7-a031-ef6b59ff4553" d="m409.81,359.6c9.2,3.77,29.89,12.05,42.79,16.03,2.11.65,4.41.69,6.5-.04,11.79-4.08,28.47-11.39,33.03-11.32,5.25.08,7.8,3.93,19.88,2.04,13.36-2.1,22.43-11.99,20.93-23.3-4.21-43.28-25.18-26.79-25.18-26.79,0,0-5.84-8.75-18.76-4.82-11.83,3.6-10.2,14.44-6.47,22.47l-25.29,8.58c-2.14.72-4.45.71-6.59-.02l-35.7-12.61"/><path class="uuid-382536b8-ade7-4abe-aa61-124cac12416d" d="m533.36,312.82c2.5,3.94,1.62,9.14-1.57,12.4-2.47,2.53-5.88,3.88-9.32,4.4-2.8.43-5.7.42-8.49-.08-2.14-.39-4.29-1.1-5.79-2.75-1.66-1.83-2.27-4.46-1.98-6.87.51-4.17,3.84-7.14,7.22-9.26,3.17-1.98,6.86-3.26,10.64-3.09,3.8.18,7.36,2.19,9.3,5.24Z"/><path class="uuid-382536b8-ade7-4abe-aa61-124cac12416d" d="m538.57,349.84c.97,3.03.32,6.43-1.5,9.01-3.77,5.33-11.17,5.65-16.96,4.27-3.31-.79-6.69-2.21-8.67-5.13-3.13-4.61-.82-9.79,3.48-12.56,2.58-1.66,5.61-2.67,8.63-3.14,5.73-.89,13.1,1.51,15.03,7.56Z"/><path class="uuid-382536b8-ade7-4abe-aa61-124cac12416d" d="m538.71,328.53c1.8,2.99,2.06,6.89.22,9.9-1.95,3.2-4.94,5.25-8.49,6.28-3.66,1.07-7.64,1.27-11.4.44-2.25-.5-4.53-1.38-5.96-3.28-1.86-2.47-1.89-5.68-.85-8.49,1.2-3.24,4.17-5.69,7.09-7.37,6.15-3.56,15.21-4.43,19.39,2.52Z"/><path class="uuid-382536b8-ade7-4abe-aa61-124cac12416d" d="m501.85,311.68s9.27,3.84,7.77,12.02c-1.04,5.68-8.17,9.55-14.94,6.13"/><path class="uuid-3c21801f-90f4-41ce-bd53-f460193f8c05" d="m500.67,331.08c2.41,1.63,5.11,8.04,3.4,14.42"/><path d="m443.44,339.88c-2.88,10.58-6.94,20.23-11.17,28.59-10.17-3.78-21.16-9.53-27-11.93l11.83-26.02,26.35,9.36Z"/></g><g><circle class="uuid-813f35b8-d70c-4735-9e7c-d217ddabbc48" cx="300" cy="300" r="138.16"/><path class="uuid-ec25118f-3915-43af-9dc5-5d64b7ba66c4" d="m184.58,308.17c-4.41,0-7.98-3.57-7.98-7.98,0-67.74,55.11-122.86,122.86-122.86,4.41,0,7.98,3.57,7.98,7.98s-3.57,7.98-7.98,7.98c-58.94,0-106.9,47.95-106.9,106.9,0,4.41-3.57,7.98-7.98,7.98Z"/></g><path class="uuid-3c21801f-90f4-41ce-bd53-f460193f8c05" d="m264.41,484.14c-4.06.49-11.49,1.36-17.85,7.23"/><path class="uuid-ec25118f-3915-43af-9dc5-5d64b7ba66c4" d="m185.17,308.14c-4.41,0-7.98-3.57-7.98-7.98,0-67.74,55.11-122.86,122.86-122.86,4.41,0,7.98,3.57,7.98,7.98s-3.57,7.98-7.98,7.98c-58.94,0-106.9,47.95-106.9,106.9,0,4.41-3.57,7.98-7.98,7.98Z"/><path d="m203.75,397.46l34.2-27.46-24.86,36.3c-6.73-5.1-3.66-2.61-9.34-8.83Z"/><path class="uuid-72d6c9e3-e040-49a4-ab2c-cf903abb3d52" d="m323.72,387.31c19.14-13.4,39.15-11.3,55.52,7.36,19.6,22.35,30.57,33.06,30.57,33.06,0,0,10.74-19.34,34.77-17.5,18.26,1.4,24.84,14.43,24.84,14.43,0,0,6.21,8.82-22.45,33.5-28.66,24.68-54.93,40.92-61.14,29.46-6.21-11.46-2.82-32.1-2.82-32.1,0,0-22.02-26.09-27.94-32.01-6.79-6.79-15.71-1.36-15.71-1.36"/><path class="uuid-813f35b8-d70c-4735-9e7c-d217ddabbc48" d="m446.97,458.17c-25.89,22.29-49.82,37.69-58.79,32.02-9.77-7.44,26.84-38.54,44.88-52.7,18.04-14.16,32.17-17.82,36.36-12.81,0,0,6.21,8.82-22.45,33.5Z"/><path class="uuid-3c21801f-90f4-41ce-bd53-f460193f8c05" d="m409.81,427.74c-1.89,2.86-4.55,10.38-4.55,10.38"/><g><path class="uuid-73059a94-03d4-49d7-a031-ef6b59ff4553" d="m214.11,345.7c-8.05,5.83-25.34,20.79-35.52,29.67-1.67,1.45-2.82,3.41-3.39,5.55-3.14,11.67-8.55,33.44-8.55,33.44,0,0-8.42.58-12.19,14.35-3.64,13.3-6.64,25.06,3.77,29.75.35,7.47,7.51,15.45,19.2,9.41.14-.06,1.32,1.32,1.44,1.45,2.64,2.7,6.36,4.45,10.13,4.81,3.65.36,7.61-.67,10.43-3.08,3.29-2.81,5.4-6.94,6.05-11.2.4-2.61.26-5.31-.75-7.78,0,0,6.2-2.51,8.05-11.34,1.99-9.49-4.22-19.42-14.62-18.18l6.17-23.11c.51-2.2,1.74-4.16,3.49-5.59l29.38-24.3"/><path class="uuid-3c21801f-90f4-41ce-bd53-f460193f8c05" d="m204.73,452.06c-1.37-3.47-5.39-7.08-9-6.88"/><path class="uuid-3c21801f-90f4-41ce-bd53-f460193f8c05" d="m178.86,469.3c-5.16-5.27-3.82-11.97-2.9-13.54"/><path class="uuid-3c21801f-90f4-41ce-bd53-f460193f8c05" d="m158.22,458.45c-.27-5.22.73-7.32,3.06-9.83"/><path class="uuid-3c21801f-90f4-41ce-bd53-f460193f8c05" d="m193.93,450.63c.14-2.07.48-4.16,1.32-6.06.85-1.95,2.36-3.88,4.31-4.85"/></g></svg>
<svg id="uuid-1cc09208-f3e2-41e0-bf45-a113ad3f9612" data-name="BODY" xmlns="http://www.w3.org/2000/svg" viewBox="0 0 600 600"><defs><style>
      .uuid-b1fb9c84-9278-4c3a-8295-76e21ab76bac {
        fill: none;
        stroke: #000;
        stroke-linecap: round;
        stroke-miterlimit: 10;
        stroke-width: 4px;
      }
    </style></defs><circle cx="369.54" cy="262.94" r="9.78" transform="translate(-8.58 12.49) rotate(-1.91)"/><path class="uuid-b1fb9c84-9278-4c3a-8295-76e21ab76bac" d="m352.87,296.37c1.76,5.11,7.33,7.82,12.44,6.06,5.11-1.76,7.82-7.33,6.06-12.44"/><circle cx="337.63" cy="273.96" r="9.78" transform="translate(-8.96 11.43) rotate(-1.91)"/></svg>
<svg id="uuid-6b1ca43c-fceb-4acd-85bc-eb7c63c2d5ed" data-name="BACKGROUND" xmlns="http://www.w3.org/2000/svg" xmlns:xlink="http://www.w3.org/1999/xlink" viewBox="0 0 600 600"><defs><style>
      .uuid-7d324a92-f859-4859-84b1-6b64e5c7ec03, .uuid-67100d62-60e5-4cd8-9feb-5d83ffa2b8c8, .uuid-bc5fc81c-92fa-4ec4-8e4a-352e040d594c, .uuid-5ac50f8a-6b3d-459b-9f7c-e2e49936e76c, .uuid-6c969cdd-f62e-43a7-a73f-31724797c8f5, .uuid-b67ff905-7fb7-4340-8266-4c03ea4a3719, .uuid-01b34b03-825a-47cb-a604-f9db4e1cd74f, .uuid-466c2826-7ac3-48ed-8208-b1d7f9e89468 {
        fill: none;
      }

      .uuid-67100d62-60e5-4cd8-9feb-5d83ffa2b8c8 {
        clip-path: url(#uuid-0502021d-5d50-4318-98da-cdd75b92ab18);
      }

      .uuid-617835b9-dcb7-47c3-8e7d-ba218dfa85d0 {
        fill: #353434;
      }

      .uuid-617835b9-dcb7-47c3-8e7d-ba218dfa85d0, .uuid-8e974996-2f7b-47a5-9824-e41b82eedcf4, .uuid-4e5a8a5f-577b-4228-8ffe-283c3c5a70f5, .uuid-bc5fc81c-92fa-4ec4-8e4a-352e040d594c, .uuid-5ac50f8a-6b3d-459b-9f7c-e2e49936e76c {
        stroke: #000;
        stroke-linecap: round;
        stroke-linejoin: round;
      }

      .uuid-617835b9-dcb7-47c3-8e7d-ba218dfa85d0, .uuid-8e974996-2f7b-47a5-9824-e41b82eedcf4, .uuid-4e5a8a5f-577b-4228-8ffe-283c3c5a70f5, .uuid-5ac50f8a-6b3d-459b-9f7c-e2e49936e76c {
        stroke-width: 2px;
      }

      .uuid-57d2f649-6cf8-4f64-88c1-f5885b0533cd, .uuid-4e5a8a5f-577b-4228-8ffe-283c3c5a70f5 {
        fill: #fff7f0;
      }

      .uuid-4a3249ec-b2f6-48bb-a8f3-a82bfffadfc2, .uuid-8e974996-2f7b-47a5-9824-e41b82eedcf4 {
        fill: #a07bff;
      }

      .uuid-bc5fc81c-92fa-4ec4-8e4a-352e040d594c {
        stroke-width: 2px;
      }

      .uuid-6c969cdd-f62e-43a7-a73f-31724797c8f5 {
        clip-path: url(#uuid-65b2ff7e-b3d6-471c-abcc-31367d16a59a);
      }

      .uuid-b67ff905-7fb7-4340-8266-4c03ea4a3719 {
        clip-path: url(#uuid-b7157335-6e6b-4f02-acd6-65c4362be68b);
      }

      .uuid-01b34b03-825a-47cb-a604-f9db4e1cd74f {
        clip-path: url(#uuid-210babb4-acd7-4b92-9096-56d819bae4c2);
      }

      .uuid-466c2826-7ac3-48ed-8208-b1d7f9e89468 {
        clip-path: url(#uuid-bafb8971-eb1d-4f25-a86c-d00529b534c5);
      }
    </style><clipPath id="uuid-0502021d-5d50-4318-98da-cdd75b92ab18"><path class="uuid-7d324a92-f859-4859-84b1-6b64e5c7ec03" d="m236.72,508.58l-26.43-36.69c-.99-1.27-2.89-1.3-3.93-.08l-5.74,6.7c-1.19,1.4-1.23,3.44-.1,4.88l29.22,37.38c1.22,1.56,3.1,2.48,5.08,2.48h71.09c1.33,0,2.41-1.08,2.41-2.41v-8.19c0-1.33-1.08-2.41-2.41-2.41h-65.78c-1.34,0-2.6-.62-3.42-1.67h0Z"/></clipPath><clipPath id="uuid-65b2ff7e-b3d6-471c-abcc-31367d16a59a"><path class="uuid-7d324a92-f859-4859-84b1-6b64e5c7ec03" d="m250.25,445.38l-22.93,23.27s-12.85-2.78-19.77,7.48l29.07,36.91h68.51s.65-17.01-14.04-25.82c-8.29-5.06-18.57-5.38-18.57-5.38l11.83-12.51c.96-1.06.66-2.75-.62-3.4-2.53-1.29-6.47-3.3-9.42-4.8-1.34-.68-2.97-.41-4.02.67l-1.42,1.47s-6.22-3.03-10.77-8.09-5.44-7.92-5.44-7.92l2.43-2.53-1.36-.35c-.75-.19-1.55-.17-2.25.15-.47.22-.9.52-1.22.84h0Z"/></clipPath><clipPath id="uuid-b7157335-6e6b-4f02-acd6-65c4362be68b"><path class="uuid-7d324a92-f859-4859-84b1-6b64e5c7ec03" d="m360,433.62l19.9,22.77s-3.17,17.71,2.54,31.11c0,0,5.33-16.06,31.48-39.12,26.16-23.06,53.73-30.88,53.73-30.88,0,0-10.6-11.39-29.3-10.31-18.7,1.08-28.7,15.35-28.7,15.35l-20.51-22.1c-.8-.85-1.95-1.29-3.1-1.14-2.22.27-6.08,1.2-10.09,4.24-.66.5-.78,1.46-.26,2.11l1.05,1.3s-16.35,11.66-16.75,26.68h0Z"/></clipPath><clipPath id="uuid-210babb4-acd7-4b92-9096-56d819bae4c2"><path class="uuid-7d324a92-f859-4859-84b1-6b64e5c7ec03" d="m469.32,415.42c-.66-.63-1.59-.86-2.47-.62-5.87,1.59-29.25,8.95-53.86,30.76-23.28,20.64-31.86,33.4-33.68,38.15-.37.98-.27,2.06.31,2.94,1.37,2.1,5.65,8.44,8.34,11.27,4.73,4.98,26.38-2.07,55.09-27.69,28.72-25.62,37.69-40.52,34.25-45.67-2.52-3.77-6.2-7.44-7.99-9.14h0Z"/></clipPath><clipPath id="uuid-bafb8971-eb1d-4f25-a86c-d00529b534c5"><path class="uuid-7d324a92-f859-4859-84b1-6b64e5c7ec03" d="m477.9,426.07h0c-.62-4.79-20.55-1.28-53.98,25.69-33.41,26.94-37.41,45.67-34.1,47.26,7.15,2.33,27.31-5.65,53.25-28.79,24.07-21.47,34.26-35.41,34.9-42.4,0-.73,0-1.33-.07-1.76h0Z"/></clipPath></defs><g id="uuid-f408db85-a353-4742-a68e-9c398e6873ff" data-name="uuid-cd11fcea-88d0-488e-8ad3-f73ba4124c0e"><g><g><g><path class="uuid-57d2f649-6cf8-4f64-88c1-f5885b0533cd" d="m236.72,508.58l-26.43-36.69c-.99-1.27-2.89-1.3-3.93-.08l-5.74,6.7c-1.19,1.4-1.23,3.44-.1,4.88l29.22,37.38c1.22,1.56,3.1,2.48,5.08,2.48h71.09c1.33,0,2.41-1.08,2.41-2.41v-8.19c0-1.33-1.08-2.41-2.41-2.41h-65.78c-1.34,0-2.6-.62-3.42-1.67h0Z"/><g class="uuid-67100d62-60e5-4cd8-9feb-5d83ffa2b8c8"><path class="uuid-4a3249ec-b2f6-48bb-a8f3-a82bfffadfc2" d="m311.73,519.85h-75.87c-1.43,0-2.79-.65-3.68-1.78l-33.28-41.94-4.78,6.84,36.02,45.1,81.59-1.62v-6.61h0Z"/></g><path class="uuid-5ac50f8a-6b3d-459b-9f7c-e2e49936e76c" d="m236.72,508.58l-26.43-36.69c-.99-1.27-2.89-1.3-3.93-.08l-5.74,6.7c-1.19,1.4-1.23,3.44-.1,4.88l29.22,37.38c1.22,1.56,3.1,2.48,5.08,2.48h71.09c1.33,0,2.41-1.08,2.41-2.41v-8.19c0-1.33-1.08-2.41-2.41-2.41h-65.78c-1.34,0-2.6-.62-3.42-1.67h0Z"/></g><g><path class="uuid-57d2f649-6cf8-4f64-88c1-f5885b0533cd" d="m250.25,445.38l-22.93,23.27s-12.85-2.78-19.77,7.48l29.07,36.91h68.51s.65-17.01-14.04-25.82c-8.29-5.06-18.57-5.38-18.57-5.38l11.83-12.51c.96-1.06.66-2.75-.62-3.4-2.53-1.29-6.47-3.3-9.42-4.8-1.34-.68-2.97-.41-4.02.67l-1.42,1.47s-6.22-3.03-10.77-8.09-5.44-7.92-5.44-7.92l2.43-2.53-1.36-.35c-.75-.19-1.55-.17-2.25.15-.47.22-.9.52-1.22.84h0Z"/><g class="uuid-6c969cdd-f62e-43a7-a73f-31724797c8f5"><g><path class="uuid-8e974996-2f7b-47a5-9824-e41b82eedcf4" d="m207.56,476.13l16.95,21.51,4.56-8.42c1.06-1.96,1.35-4.25.82-6.42l-3.54-14.32c-3.13-.41-13.01-.92-18.79,7.64h0Z"/><path class="uuid-617835b9-dcb7-47c3-8e7d-ba218dfa85d0" d="m235.69,468.65c5.41,7.65,11.73,8.93,11.73,8.93l17.3-19.75-9.01-19.35-13.15,2.63-11.12,19.55s1.48,4.08,4.25,7.99h0Z"/><g><path class="uuid-8e974996-2f7b-47a5-9824-e41b82eedcf4" d="m268.87,463.27s-18.49,21.32-19.16,22.2c-.67.88,10.65.19,18.81,2.29,8.16,2.09,14.33,4.3,14.83,7.23.51,2.93-3.21,3.65-7.01,6.46-4.82,3.56-2.97,6.66,2.61,5.17,3.03-.81,4.45-3.84,6.12-3.84h20.73s4.72,8.78,5.12,12.22h-64.36s13.07-7.62,17.85-17.02c-4.93.3-4.73-3.34-9.51-3.47s-7.82,4.45-13.08.74c-5.26-3.71.81-12.27,9.17-21.64,0,0-5.19-5.51-15.3-4.96,0,0-1.38-1.62-4.87-9.15l8.34-7.23s14.66,9.91,18.46,13.85l7.58-8.75,3.67,5.9h0Z"/><path class="uuid-8e974996-2f7b-47a5-9824-e41b82eedcf4" d="m264.41,497.97c1.72-3.24,2.38-5.16,8.9-5.36,4.73-.15,8.74-.71,9.95,2.03"/><line class="uuid-5ac50f8a-6b3d-459b-9f7c-e2e49936e76c" x1="250.99" y1="473.6" x2="257.61" y2="466.12"/></g><path class="uuid-5ac50f8a-6b3d-459b-9f7c-e2e49936e76c" d="m275.64,501.99c-4.04,3.39-8.12,11.05-8.12,11.05"/><polygon class="uuid-4a3249ec-b2f6-48bb-a8f3-a82bfffadfc2" points="278.48 461.05 272.13 468.34 277.35 470.68 283.97 463.81 278.48 461.05"/></g></g><path class="uuid-5ac50f8a-6b3d-459b-9f7c-e2e49936e76c" d="m250.25,445.38l-22.93,23.27s-12.85-2.78-19.77,7.48l29.07,36.91h68.51s.65-17.01-14.04-25.82c-8.29-5.06-18.57-5.38-18.57-5.38l11.83-12.51c.96-1.06.66-2.75-.62-3.4-2.53-1.29-6.47-3.3-9.42-4.8-1.34-.68-2.97-.41-4.02.67l-1.42,1.47s-6.22-3.03-10.77-8.09-5.44-7.92-5.44-7.92l2.43-2.53-1.36-.35c-.75-.19-1.55-.17-2.25.15-.47.22-.9.52-1.22.84h0Z"/></g><path class="uuid-5ac50f8a-6b3d-459b-9f7c-e2e49936e76c" d="m244.42,489.63c5.92-5.31,14.38-9.03,28.11-7.79"/><g><path class="uuid-4e5a8a5f-577b-4228-8ffe-283c3c5a70f5" d="m264.17,468.09c4.47,2.6,9.09,4.34,12.76,5.69,3.67,1.35,2.33,6.74-2.45,4.81-4.77-1.93-11.32-4.52-13.4-6.25s.11-5.99,3.09-4.26h0Z"/><path class="uuid-4e5a8a5f-577b-4228-8ffe-283c3c5a70f5" d="m256.34,476.65c2.44,1.28,4.92,2.3,7.25,3.14,1.81.66-1.41,4.84-3.61,4-2.73-1.04-5.18-2.09-6.31-2.95-2.05-1.55-.22-5.7,2.68-4.19Z"/><path class="uuid-4e5a8a5f-577b-4228-8ffe-283c3c5a70f5" d="m275.35,481.45s-.77-4.17-6.3-4.78c-7.82-.86-12.81,5.57-14.54,7.98s2.32,5.2,4.64,2.45c4.98-5.91,7.52-6.36,8.95-6.67,3.05.17,7.25,1.01,7.25,1.01h0Z"/><path class="uuid-4e5a8a5f-577b-4228-8ffe-283c3c5a70f5" d="m288.56,485.83s-.38-4.37-5.93-5.51c-7.86-1.61-13.55,4.58-15.55,6.9-1.99,2.33,1.85,5.58,4.48,2.95,5.63-5.64,9.79-6.56,11.27-6.75,1.91.64,5.74,2.4,5.74,2.4h0Z"/></g><g><circle cx="286.65" cy="493.08" r="1.01"/><circle cx="294.11" cy="493.08" r="1.01"/><circle cx="291.6" cy="495.81" r="1.01"/><circle cx="289.08" cy="498.97" r="1.01"/><circle cx="296.53" cy="498.97" r="1.01"/></g></g><g><g><path class="uuid-57d2f649-6cf8-4f64-88c1-f5885b0533cd" d="m360,433.62l19.9,22.77s-3.17,17.71,2.54,31.11c0,0,5.33-16.06,31.48-39.12,26.16-23.06,53.73-30.88,53.73-30.88,0,0-10.6-11.39-29.3-10.31-18.7,1.08-28.7,15.35-28.7,15.35l-20.51-22.1c-.8-.85-1.95-1.29-3.1-1.14-2.22.27-6.08,1.2-10.09,4.24-.66.5-.78,1.46-.26,2.11l1.05,1.3s-16.35,11.66-16.75,26.68h0Z"/><g class="uuid-b67ff905-7fb7-4340-8266-4c03ea4a3719"><g><path class="uuid-617835b9-dcb7-47c3-8e7d-ba218dfa85d0" d="m381.44,447.04c4.72-7.69,7.01-19.3,7.01-19.3l-19.82-20.2s-11.73,9.84-12.54,27.51l18.2,22.02,7.15-10.02h0Z"/><path class="uuid-8e974996-2f7b-47a5-9824-e41b82eedcf4" d="m386.55,424.93c-7.06,9.84-5.11,22.11-5.11,22.11,0,0-3.64,5.93-5.06,7.89l-8.56-9.17s.9-17.83,11.2-28.23l7.52,7.4h0Z"/><path class="uuid-8e974996-2f7b-47a5-9824-e41b82eedcf4" d="m376.75,406.95l27.24,27.12s7.58-6.51,15.13-11.9c7.55-5.39,15.66-6.4,17.28-6.3,1.62.1,1.57,2.33.81,4.04-.76,1.72-.61,2.43-.61,2.43,0,0,5.58-.04,5.38-5.77,0,0,4.72-3.57,16.31-7.01l8.7.94,6.67,3.71-19.42,13.53-29.9,13.91s1.38-7.48,1.52-13.21c-3.24,2.83-7.06.62-10.45,2.75-3.39,2.12-6.17,10.11-9.74,10.87-2.37.5-5.18.5-7.81-2.28-3.74-3.94-28.82-29.38-28.82-29.38l4.5-3.94,3.2.49h0Z"/><path class="uuid-8e974996-2f7b-47a5-9824-e41b82eedcf4" d="m377.18,464.97l11.88-6.76c1.46-.83,3.09-1.32,4.76-1.43l10.6-.71-26.22,34.72-3.1-12.74,2.08-13.08h0Z"/><path class="uuid-5ac50f8a-6b3d-459b-9f7c-e2e49936e76c" d="m425.87,428.43c-.03-5.04-2.63-8.79,3.04-11.15"/><path class="uuid-5ac50f8a-6b3d-459b-9f7c-e2e49936e76c" d="m436.62,421.78c-.43,3.41.54,8.14.54,8.14"/><polygon class="uuid-4a3249ec-b2f6-48bb-a8f3-a82bfffadfc2" points="379.85 401.15 383.87 405.09 388.18 403.12 384.85 399.49 380.73 397.86 379.85 401.15"/></g></g><path class="uuid-5ac50f8a-6b3d-459b-9f7c-e2e49936e76c" d="m360,433.62l19.9,22.77s-3.17,17.71,2.54,31.11c0,0,5.33-16.06,31.48-39.12,26.16-23.06,53.73-30.88,53.73-30.88,0,0-10.6-11.39-29.3-10.31-18.7,1.08-28.7,15.35-28.7,15.35l-20.51-22.1c-.8-.85-1.95-1.29-3.1-1.14-2.22.27-6.08,1.2-10.09,4.24-.66.5-.78,1.46-.26,2.11l1.05,1.3s-16.35,11.66-16.75,26.68h0Z"/></g><g><g><path class="uuid-57d2f649-6cf8-4f64-88c1-f5885b0533cd" d="m469.32,415.42c-.66-.63-1.59-.86-2.47-.62-5.87,1.59-29.25,8.95-53.86,30.76-23.28,20.64-31.86,33.4-33.68,38.15-.37.98-.27,2.06.31,2.94,1.37,2.1,5.65,8.44,8.34,11.27,4.73,4.98,26.38-2.07,55.09-27.69,28.72-25.62,37.69-40.52,34.25-45.67-2.52-3.77-6.2-7.44-7.99-9.14h0Z"/><g class="uuid-01b34b03-825a-47cb-a604-f9db4e1cd74f"><path class="uuid-4a3249ec-b2f6-48bb-a8f3-a82bfffadfc2" d="m474.46,421.06c-.67-.63-1.6-.86-2.49-.62-5.93,1.59-30.69,9.97-55.54,31.78-23.51,20.64-29.54,34.57-31.37,39.32-.38.98-.27,2.06.31,2.94,1.39,2.1,4.23,6.25,6.95,9.08,4.77,4.98,26.63-2.07,55.63-27.69,29-25.62,38.05-40.52,34.58-45.67-2.54-3.77-6.26-7.44-8.07-9.14h0Z"/></g><path class="uuid-5ac50f8a-6b3d-459b-9f7c-e2e49936e76c" d="m469.32,415.42c-.66-.63-1.59-.86-2.47-.62-5.87,1.59-29.25,8.95-53.86,30.76-23.28,20.64-31.86,33.4-33.68,38.15-.37.98-.27,2.06.31,2.94,1.37,2.1,5.65,8.44,8.34,11.27,4.73,4.98,26.38-2.07,55.09-27.69,28.72-25.62,37.69-40.52,34.25-45.67-2.52-3.77-6.2-7.44-7.99-9.14h0Z"/></g><g><path class="uuid-4a3249ec-b2f6-48bb-a8f3-a82bfffadfc2" d="m477.9,426.07h0c-.62-4.79-20.55-1.28-53.98,25.69-33.41,26.94-37.41,45.67-34.1,47.26,7.15,2.33,27.31-5.65,53.25-28.79,24.07-21.47,34.26-35.41,34.9-42.4,0-.73,0-1.33-.07-1.76h0Z"/><g class="uuid-466c2826-7ac3-48ed-8208-b1d7f9e89468"><g><g><ellipse class="uuid-bc5fc81c-92fa-4ec4-8e4a-352e040d594c" cx="452.04" cy="447.48" rx="3.55" ry="2.2" transform="translate(-183.16 414.29) rotate(-41.72)"/><ellipse class="uuid-bc5fc81c-92fa-4ec4-8e4a-352e040d594c" cx="452.04" cy="447.48" rx="8.67" ry="5.37" transform="translate(-183.16 414.29) rotate(-41.72)"/><ellipse class="uuid-bc5fc81c-92fa-4ec4-8e4a-352e040d594c" cx="452.04" cy="447.48" rx="13.41" ry="8.31" transform="translate(-183.16 414.29) rotate(-41.72)"/><ellipse class="uuid-bc5fc81c-92fa-4ec4-8e4a-352e040d594c" cx="452.04" cy="447.48" rx="17.54" ry="10.87" transform="translate(-183.16 414.29) rotate(-41.72)"/><ellipse class="uuid-bc5fc81c-92fa-4ec4-8e4a-352e040d594c" cx="452.04" cy="447.48" rx="22.28" ry="13.8" transform="translate(-183.16 414.29) rotate(-41.72)"/><ellipse class="uuid-bc5fc81c-92fa-4ec4-8e4a-352e040d594c" cx="452.04" cy="447.48" rx="27.13" ry="16.81" transform="translate(-183.16 414.29) rotate(-41.72)"/></g><g><path class="uuid-5ac50f8a-6b3d-459b-9f7c-e2e49936e76c" d="m419.16,451.36l6.27,17.09s-12.64,10.48-14.66,11.9c-2.02,1.42-.13,3.71,1.69,2.49,1.82-1.21,15.03-11.12,15.03-11.12l10.31,4.99"/><line class="uuid-5ac50f8a-6b3d-459b-9f7c-e2e49936e76c" x1="424.04" y1="474.29" x2="435.57" y2="481.83"/><line class="uuid-5ac50f8a-6b3d-459b-9f7c-e2e49936e76c" x1="419.85" y1="477.42" x2="430.25" y2="485.94"/><line class="uuid-5ac50f8a-6b3d-459b-9f7c-e2e49936e76c" x1="415.48" y1="480.65" x2="423.85" y2="489.65"/><line class="uuid-5ac50f8a-6b3d-459b-9f7c-e2e49936e76c" x1="412.45" y1="482.84" x2="416.83" y2="494.97"/><line class="uuid-5ac50f8a-6b3d-459b-9f7c-e2e49936e76c" x1="413.11" y1="478.53" x2="403.28" y2="468.21"/><line class="uuid-5ac50f8a-6b3d-459b-9f7c-e2e49936e76c" x1="408.19" y1="461.84" x2="417.88" y2="474.67"/><line class="uuid-5ac50f8a-6b3d-459b-9f7c-e2e49936e76c" x1="421.62" y1="471.59" x2="413.93" y2="456.61"/><line class="uuid-5ac50f8a-6b3d-459b-9f7c-e2e49936e76c" x1="410.4" y1="480.65" x2="395.13" y2="478.06"/><line class="uuid-5ac50f8a-6b3d-459b-9f7c-e2e49936e76c" x1="410.05" y1="482.39" x2="390" y2="486.28"/><line class="uuid-5ac50f8a-6b3d-459b-9f7c-e2e49936e76c" x1="411.01" y1="483.13" x2="405.24" y2="499.76"/><line class="uuid-5ac50f8a-6b3d-459b-9f7c-e2e49936e76c" x1="410.43" y1="482.84" x2="387.37" y2="499.41"/></g></g></g><path class="uuid-5ac50f8a-6b3d-459b-9f7c-e2e49936e76c" d="m477.9,426.07h0c-.62-4.79-20.55-1.28-53.98,25.69-33.41,26.94-37.41,45.67-34.1,47.26,7.15,2.33,27.31-5.65,53.25-28.79,24.07-21.47,34.26-35.41,34.9-42.4,0-.73,0-1.33-.07-1.76h0Z"/></g></g><path class="uuid-4e5a8a5f-577b-4228-8ffe-283c3c5a70f5" d="m409.66,422.54s-3.89,5.28-6.92,15.26"/><g><path class="uuid-4e5a8a5f-577b-4228-8ffe-283c3c5a70f5" d="m395.76,408.5c-4.48,2-8.37,4.59-11.44,6.66-3.07,2.07-6.53-1.91-2.41-4.51s9.11-5.45,11.6-6.1c2.49-.65,5.23,2.62,2.24,3.95h0Z"/><path class="uuid-4e5a8a5f-577b-4228-8ffe-283c3c5a70f5" d="m403.92,416.93c-4.48,2-8.37,4.59-11.44,6.66-3.07,2.07-6.53-1.91-2.41-4.51s9.11-5.45,11.6-6.1c2.49-.65,5.23,2.62,2.24,3.95h0Z"/><path class="uuid-4e5a8a5f-577b-4228-8ffe-283c3c5a70f5" d="m410.49,425.27c-4.48,2-7.42,3.94-10.49,6.02-3.07,2.07-6.53-1.91-2.41-4.51s9.11-5.45,11.6-6.1c.47.81.96,3.15,1.3,4.6h0Z"/><path class="uuid-4e5a8a5f-577b-4228-8ffe-283c3c5a70f5" d="m418.62,414.25s-3.47-2.43-7.84,1.01c-6.17,4.87-5.22,12.96-4.76,15.89s5.3,2.08,5.02-1.51c-.6-7.7.9-9.81,1.7-11.03,2.29-2.02,5.88-4.36,5.88-4.36h0Z"/><path class="uuid-4e5a8a5f-577b-4228-8ffe-283c3c5a70f5" d="m431.11,408.11s-3.34-2.85-8.09.24c-6.73,4.36-6.45,12.77-6.24,15.82.21,3.06,5.24,2.68,5.26-1.04.05-7.97,2.38-11.55,3.3-12.71,1.81-.89,5.78-2.31,5.78-2.31Z"/></g><g><circle cx="434.88" cy="410.61" r="1.01"/><circle cx="440.59" cy="410.07" r="1.01"/><circle cx="440" cy="413.7" r="1.01"/><circle cx="446.55" cy="410.14" r="1.01"/></g></g></g></g></svg>
<svg id="uuid-70f0d29f-f405-42dc-a6bb-4544aa100c37" data-name="BODY" xmlns="http://www.w3.org/2000/svg" viewBox="0 0 600 600"><defs><style>
      .uuid-6489de3e-494f-4122-88a1-f5ba77ab3810 {
        fill: #353434;
      }

      .uuid-6489de3e-494f-4122-88a1-f5ba77ab3810, .uuid-e4c379bf-7f75-4d67-b103-6a847d0bd3a0, .uuid-91a62cc3-fbc7-40d9-83eb-dda2d4a80b74, .uuid-972b44f8-7928-4282-90a9-33bf7ef45a6e {
        stroke-width: 2px;
      }

      .uuid-6489de3e-494f-4122-88a1-f5ba77ab3810, .uuid-e4c379bf-7f75-4d67-b103-6a847d0bd3a0, .uuid-91a62cc3-fbc7-40d9-83eb-dda2d4a80b74, .uuid-972b44f8-7928-4282-90a9-33bf7ef45a6e, .uuid-a85c0ee1-bb32-4b53-8b62-3fa4e7ae6fea {
        stroke: #000;
        stroke-linecap: round;
        stroke-linejoin: round;
      }

      .uuid-e4c379bf-7f75-4d67-b103-6a847d0bd3a0 {
        fill: #fff7f0;
      }

      .uuid-91a62cc3-fbc7-40d9-83eb-dda2d4a80b74 {
        fill: #fff;
      }

      .uuid-972b44f8-7928-4282-90a9-33bf7ef45a6e {
        fill: none;
      }

      .uuid-a85c0ee1-bb32-4b53-8b62-3fa4e7ae6fea {
        fill: #f9a723;
        stroke-width: 2px;
      }
    </style></defs><g id="uuid-ae67763d-2927-410b-8120-b78ccec6a88a" data-name="uuid-5ea017f5-6ab7-4b49-9ece-9b1cac5ff624"><g><g><path class="uuid-91a62cc3-fbc7-40d9-83eb-dda2d4a80b74" d="m468.51,338.63l-11.27,3.82c-2.14.72-4.46.71-6.59-.02l-35.7-12.61-5.14,29.78c9.2,3.77,29.89,12.05,42.79,16.03,2.11.65,4.41.69,6.5-.04,5.76-2,12.7-4.76,18.81-7.06-2.7-8.62-6.59-20.95-9.41-29.91h0Z"/><path d="m443.44,339.88c-2.88,10.58-6.94,20.23-11.17,28.59-10.17-3.78-21.16-9.53-27-11.93l11.83-26.02,26.35,9.36Z"/><path class="uuid-91a62cc3-fbc7-40d9-83eb-dda2d4a80b74" d="m468.45,373.64c-8.32-9.6-10.07-23.09-11.1-31.57-.4-3.26,1.5-6.35,4.59-7.49l7.36-2.7c1.61-.59,3.4-.29,4.73.79l3.54,2.87-4.51,1.53s-1.65,17.39,9.6,29.72l3.97-1.43-.16,3.5c-.09,1.97-1.36,3.69-3.22,4.36l-7.03,2.52c-2.77.99-5.85.15-7.78-2.08h0Z"/></g><g><path class="uuid-91a62cc3-fbc7-40d9-83eb-dda2d4a80b74" d="m319.36,402.14c54.04-5.61,84.58-20.5,97.52-28.47,12.37-19.58,19.96-42.47,21.12-67.06.09-2.29.16-5.1.16-7.45-10.26,6.42-30.03,16.38-54.87,23.74-2.63.78-5.7,4.93-6.96,8.27-2.98-2.28-6.94-4.56-9.95-3.89-19.73,4.37-41.69,6.61-64.09,4.3-57.11-5.89-121.07-45.52-138.48-55.02-.46,2.74-.69,4.67-1.01,7.1-.63,5.36-.97,10.81-.97,16.33,0,12.21,1.6,24.05,4.58,35.32,27.47,27.32,85.27,73.84,152.95,66.82h0Z"/><path class="uuid-91a62cc3-fbc7-40d9-83eb-dda2d4a80b74" d="m383.77,322.76c3.49-1.07,9.13.64,13.58,13.11,0,0,23.96-9.3,43.04-24.77,1.6-1.3,2.55-3.22,2.59-5.28l.14-8.89c.05-3.02-1.88-5.72-4.75-6.66l-.55-.18.32,6.98s-11.4,6.17-25.45,13.11c-14.33,7.08-28.92,12.57-28.92,12.57h0Z"/><path class="uuid-91a62cc3-fbc7-40d9-83eb-dda2d4a80b74" d="m366.38,327.28c-5.67,1.61-5.17,17.69-5.17,17.69,0,0-35.73,11.05-98.02-5.26-52.72-13.8-91.72-41.9-102.47-50.21-1.84-1.42-2.74-3.74-2.36-6.04l1.47-8.8c.4-2.36,2.09-4.3,4.39-5l1.02-.31-1.03,5.17s53.94,31.63,99.78,45.92c45.84,14.29,93.6,8.21,102.38,6.85h0Z"/><g><path class="uuid-91a62cc3-fbc7-40d9-83eb-dda2d4a80b74" d="m376.33,331.17c5.31,19.26,13.63,55.33,13.63,55.33"/><circle class="uuid-91a62cc3-fbc7-40d9-83eb-dda2d4a80b74" cx="386.37" cy="336.3" r="3.86"/><circle class="uuid-91a62cc3-fbc7-40d9-83eb-dda2d4a80b74" cx="390.87" cy="353.91" r="3.86"/></g></g><g><g><path class="uuid-6489de3e-494f-4122-88a1-f5ba77ab3810" d="m265.06,433.71l-12.83,13.93,24.11,24.11,32.61-33.86s-9.11-3.01-21.05-4.93c-11.93-1.92-22.84.76-22.84.76h0Z"/><path d="m283.78,412.76l31.28,12.64-3.24,9.5c-2.93,3.03-9.76,10.12-13.64,14.14-11.92,0-27.98-2.13-41.33-6.37,13.95-15.1,26.93-29.92,26.93-29.92h0Z"/><path class="uuid-6489de3e-494f-4122-88a1-f5ba77ab3810" d="m256.75,440.63c11.72,4.9,21.56,18.02,26.25,25.16,1.8,2.74,1.48,6.36-.78,8.74l-5.4,5.69c-1.18,1.24-2.92,1.77-4.59,1.4l-4.44-1,3.34-3.48s-8.51-18.01-24.06-24.06l-2.92,3.05-1.41-3.2c-.8-1.8-.42-3.91.94-5.33l5.18-5.38c2.04-2.12,5.18-2.73,7.89-1.6h0Z"/></g><g><path class="uuid-6489de3e-494f-4122-88a1-f5ba77ab3810" d="m195.72,360.99c-9.29-4.19-17.84-8.74-25.47-13.44,3.18,8.66,7.21,16.91,11.97,24.66l13.5-11.22h0Z"/><path class="uuid-6489de3e-494f-4122-88a1-f5ba77ab3810" d="m418.95,370.3c-24.03,7.71-48.97,5.83-75.98,8.83-39.41,8.01-77.99,4.3-111.27-5.07l-23.9,19.76c-1.62,1.34-2.78,3.14-3.33,5.17l-.18.65c24.83,23.86,58.55,38.52,95.7,38.52,20.42,0,39.8-4.45,57.24-12.4,0,0-.01.03-.01.03l10.9,12.33,27.36-25.36-6.48-7.1s-.02,0-.02,0c11.86-10,22.01-21.95,29.96-35.36h0Z"/></g><g><path class="uuid-e4c379bf-7f75-4d67-b103-6a847d0bd3a0" d="m203.69,354.36c-17.08-8.69-30-18.05-38.83-25.49,1.83,8.61,4.46,16.91,7.81,24.84,5.47,4.27,11.23,8.27,17.37,12l13.65-11.35Z"/><path class="uuid-e4c379bf-7f75-4d67-b103-6a847d0bd3a0" d="m342.98,379.13c-41.76,3.6-76.57-1.71-104.59-10.59l-15.49,12.81c24.69,8.91,54.95,14.31,93.96,15.13,0,0,9.76-15.82,28.03-17.52,18.89-1.76,28.81,10.15,28.81,10.15,0,0,26.43-3.81,42.25-13.99,4.66-7.17,8.68-14.8,11.96-22.81-22.27,15.48-52.65,24.04-84.93,26.82h0Z"/></g><path class="uuid-6489de3e-494f-4122-88a1-f5ba77ab3810" d="m363.75,435.78c5.95-11.23,22.62-22.64,30.16-26.66,2.9-1.55,6.47-.89,8.64,1.58l5.18,5.89c1.13,1.29,1.5,3.07.98,4.7l-1.2,4.15-3.35-3.46s-19.28,5.51-28.87,24.58l2.77,3.19-3.32,1.12c-1.87.63-3.93.07-5.22-1.43l-4.89-5.65c-1.93-2.23-2.25-5.4-.87-8.01h0Z"/><path class="uuid-6489de3e-494f-4122-88a1-f5ba77ab3810" d="m251.53,391.83l3.51-18.9c.48-2.58,2.98-4.26,5.55-3.73l5.12,1.06c1.43.3,2.64,1.24,3.27,2.56l1.72,3.58-4.74-.87-2.91,19.07"/><path class="uuid-6489de3e-494f-4122-88a1-f5ba77ab3810" d="m304.26,399.19l-.41-19.21c-.06-2.62,2.06-4.78,4.68-4.78h5.23c1.46,0,2.84.67,3.72,1.83l2.42,3.15-4.82.11,1.03,19.26"/><path class="uuid-6489de3e-494f-4122-88a1-f5ba77ab3810" d="m416.88,373.71l-4.03-12.57-3.04,1.52.44-3.75c.16-1.38.79-2.47,1.7-2.96l3.26-1.76c1.64-.88,3.68.41,4.53,2.87,0,0,1.79,5.26,2.48,7.39-2.03,4.03-5.35,9.26-5.35,9.26h0Z"/><path class="uuid-6489de3e-494f-4122-88a1-f5ba77ab3810" d="m182.89,364.72l6.4-18.43,2.98,1.81-.44-3.87c-.16-1.38-.79-2.47-1.7-2.96l-4.6-2.53c-1.64-.88-3.68.41-4.53,2.87,0,0-5.46,14.85-6.15,16.97"/><rect class="uuid-a85c0ee1-bb32-4b53-8b62-3fa4e7ae6fea" x="373.04" y="367.45" width="29.72" height="22.05" rx="5.33" ry="5.33" transform="translate(-85.21 114.14) rotate(-15.1)"/><g><path class="uuid-972b44f8-7928-4282-90a9-33bf7ef45a6e" d="m252.23,408.88s21.46,5.16,33.72-8.19"/><g><path d="m378.59,441.98c-.27,0-.53-.11-.73-.31l-2.75-2.91c-.38-.4-.36-1.03.04-1.41.4-.38,1.03-.36,1.41.04l2.75,2.91c.38.4.36,1.03-.04,1.41-.19.18-.44.27-.69.27h0Z"/><path d="m370.68,433.6c-.27,0-.53-.11-.73-.31l-2.75-2.91c-.38-.4-.36-1.03.04-1.41s1.03-.36,1.41.04l2.75,2.91c.38.4.36,1.03-.04,1.41-.19.18-.44.27-.69.27h0Z"/></g><path d="m375.6,422.97c-.28,0-.56-.12-.76-.34,0,0-1.36-1.57-3.3-3.78-.36-.42-.32-1.05.09-1.41.42-.36,1.05-.32,1.41.09,1.94,2.21,3.3,3.78,3.3,3.78.36.42.32,1.05-.1,1.41-.19.16-.42.25-.66.25h0Zm-6.61-7.55c-.28,0-.55-.11-.75-.34-1.1-1.24-2.23-2.52-3.32-3.74-.37-.41-.33-1.04.08-1.41.41-.37,1.04-.33,1.41.08,1.09,1.22,2.23,2.51,3.33,3.75.37.41.33,1.05-.09,1.41-.19.17-.43.25-.66.25h0Zm-6.68-7.47c-.27,0-.54-.11-.74-.32-.76-.83-1.41-1.53-1.91-2.04-.41-.43-.93-.85-1.53-1.27-.45-.31-.57-.94-.25-1.39.31-.45.94-.57,1.39-.25.71.49,1.32,1,1.82,1.52.51.52,1.18,1.24,1.95,2.08.37.41.35,1.04-.06,1.41-.19.18-.43.26-.68.26h0Zm-31.16-2.79c-.32,0-.64-.16-.83-.45-.31-.46-.18-1.08.28-1.39,1.21-.81,2.48-1.52,3.76-2.12.5-.23,1.1-.02,1.33.48.23.5.02,1.1-.48,1.33-1.19.56-2.37,1.22-3.5,1.97-.17.11-.36.17-.55.17h0Zm23.1-2.92c-.11,0-.23-.02-.34-.06-1.48-.54-3.04-.94-4.64-1.18-.55-.08-.92-.59-.84-1.14.08-.55.59-.92,1.14-.84,1.73.26,3.43.69,5.03,1.28.52.19.79.76.6,1.28-.15.41-.53.66-.94.66h0Zm-14.76-.79c-.45,0-.86-.31-.97-.76-.13-.54.2-1.08.73-1.21,1.68-.41,3.41-.66,5.14-.74.55-.02,1.02.4,1.04.96s-.4,1.02-.96,1.04c-1.6.07-3.2.3-4.75.68-.08.02-.16.03-.24.03h0Z"/><path d="m272.16,453c-.27,0-.54-.11-.74-.33-.37-.41-.34-1.04.07-1.41l3.71-3.36c.41-.37,1.04-.34,1.41.07.37.41.34,1.04-.07,1.41l-3.71,3.36c-.19.17-.43.26-.67.26h0Zm7.41-6.71c-.27,0-.54-.11-.74-.33-.37-.41-.34-1.04.07-1.41l3.71-3.36c.41-.37,1.04-.34,1.41.07.37.41.34,1.04-.07,1.41l-3.71,3.36c-.19.17-.43.26-.67.26h0Zm7.41-6.71c-.27,0-.54-.11-.74-.33-.37-.41-.34-1.04.07-1.41l1.02-.93c.41-.37,1.04-.34,1.41.07.37.41.34,1.04-.07,1.41l-1.02.93c-.19.17-.43.26-.67.26h0Z"/><path d="m256.35,459.55c-.26,0-.53-.1-.73-.31-.38-.4-.36-1.03.04-1.41l3.63-3.44c.4-.38,1.03-.36,1.41.04.38.4.36,1.03-.04,1.41l-3.63,3.44c-.19.18-.44.27-.69.27h0Zm7.26-6.88c-.26,0-.53-.1-.73-.31-.38-.4-.36-1.03.04-1.41l3.63-3.44c.4-.38,1.03-.36,1.41.04.38.4.36,1.03-.04,1.41l-3.63,3.44c-.19.18-.44.27-.69.27h0Z"/><path class="uuid-972b44f8-7928-4282-90a9-33bf7ef45a6e" d="m357.23,425.79c-4.86-5.22-9.35-8.05-17.88-3.63"/><line class="uuid-972b44f8-7928-4282-90a9-33bf7ef45a6e" x1="373.7" y1="389.11" x2="389.02" y2="405.66"/></g><path d="m236.76,369.41l-24.81,36.89c-6.13-4.65-8.2-5.86-6.62-10.11-.38-.43,31.43-26.78,31.43-26.78h0Z"/></g><g><path class="uuid-91a62cc3-fbc7-40d9-83eb-dda2d4a80b74" d="m214.11,345.7c-8.05,5.83-25.34,20.79-35.52,29.67-1.67,1.45-2.82,3.41-3.39,5.55-1.27,4.72-2.91,11.08-4.41,16.99l31.84,7.91,1.71-6.39c.51-2.2,1.74-4.16,3.49-5.59l29.38-24.3"/><path class="uuid-91a62cc3-fbc7-40d9-83eb-dda2d4a80b74" d="m170.94,388.98c12.6-1.64,26.56,4.52,34.21,8.35,2.94,1.47,4.47,4.76,3.71,7.96l-1.81,7.63c-.4,1.66-1.64,3-3.27,3.51l-4.34,1.36,1.21-4.6s-15.34-11.14-31.83-8.58l-1,4.1-2.83-2.06c-1.59-1.16-2.33-3.17-1.86-5.09l1.78-7.25c.7-2.86,3.11-4.96,6.03-5.34h0Z"/></g></g></g></svg>
<svg id="uuid-d89b1a3b-1abc-4239-8dc4-47b8ed987a23" data-name="BODY" xmlns="http://www.w3.org/2000/svg" viewBox="0 0 600 600"><defs><style>
      .uuid-c5c1942b-919f-4361-a538-7c7e7cf852f0 {
        fill: #7aa6ff;
      }

      .uuid-c5c1942b-919f-4361-a538-7c7e7cf852f0, .uuid-e2f7ad43-e6dd-4758-93ba-680831edc001, .uuid-56ad82ea-d48e-4308-a763-e34c42640525 {
        stroke: #000;
        stroke-linecap: round;
        stroke-linejoin: round;
      }

      .uuid-c5c1942b-919f-4361-a538-7c7e7cf852f0, .uuid-56ad82ea-d48e-4308-a763-e34c42640525 {
        stroke-width: 2px;
      }

      .uuid-e2f7ad43-e6dd-4758-93ba-680831edc001 {
        stroke-width: 2px;
      }

      .uuid-e2f7ad43-e6dd-4758-93ba-680831edc001, .uuid-56ad82ea-d48e-4308-a763-e34c42640525 {
        fill: #ff78d8;
      }
    </style></defs><g id="uuid-333657bb-b618-45a7-b183-dcd3ce45fb5d" data-name="uuid-2b0117f1-1776-4845-a0f5-c237a6ca9f96"><g id="uuid-04b458af-e80e-46bd-b30a-189016c9a742" data-name="uuid-0881513b-7c8c-44a0-be29-2e98fb16f773"><g id="uuid-16e95431-6b51-4de0-bde5-963b33635208" data-name="uuid-4ea92ad2-89cb-4935-9ee1-ea64959099a6"><g><path class="uuid-c5c1942b-919f-4361-a538-7c7e7cf852f0" d="m505.78,307.9s-4.59-35.13-27.13-66.82-85.23-42.92-85.23-42.92l-6.19-5.32s71.3,10.02,95.45,45.45c24.73,36.26,27.59,68.56,27.59,68.56l-4.5,1.04h0Z"/><path class="uuid-56ad82ea-d48e-4308-a763-e34c42640525" d="m520.68,366.22h0c.19,3.16-2.22,5.88-5.38,6.07l-.42.03c-3.16.19-5.88-2.22-6.07-5.38h0c-.19-3.16,2.22-5.88,5.38-6.07"/><g><path class="uuid-56ad82ea-d48e-4308-a763-e34c42640525" d="m209.79,442.76l-10.47-3.08h0c-2.15,1.3-3.42,3.25-4.07,4.89-.65,1.64-1.36,4.56-1.31,5.93l12.49,3.67c3.15.93,6.46-.88,7.38-4.03.93-3.15-.88-6.46-4.03-7.38Z"/><path class="uuid-56ad82ea-d48e-4308-a763-e34c42640525" d="m155.06,426.69c-3-.62-6.02,1.15-6.9,4.14-.93,3.15.88,6.46,4.03,7.38.65-2.81,1.99-9.48,2.87-11.53Z"/><path class="uuid-e2f7ad43-e6dd-4758-93ba-680831edc001" d="m202.75,447.11l.12-.41c.89-3.04,4.08-4.78,7.12-3.88h0c3.04.89,4.78,4.08,3.88,7.12l-.12.41c-.89,3.04-4.08,4.78-7.12,3.88h0c-3.04-.89-4.78-4.08-3.88-7.12Z"/></g><path class="uuid-c5c1942b-919f-4361-a538-7c7e7cf852f0" d="m174.51,242.11c-21.63,3.45-53.44-10.17-83.85-12-31.14-1.87-60.79,11.08-40.28,52.1,20.51,41.02,59.59,52.7,114.24,56.6,54.65,3.89,97.92,20.21,101.66,58.84,3.74,38.63-34.37,58.11-57.97,52.98-2.92-.63-2.05-4.33.9-3.83,10.1,1.72,47.12-2.23,52.61-38.59,5.49-36.37-29.45-61.17-96.95-65.11s-99.59-20.44-119.06-59.62c-17.82-35.86-2.26-59.81,45.89-58.16,23.43.8,48.13,11.53,84.9,12.48l-2.09,4.32h0Z"/><g><path class="uuid-56ad82ea-d48e-4308-a763-e34c42640525" d="m502.55,311.9s.07.03.11.05c2.71,1.34,4.95,4.09,4.95,4.09,0,0,3.47-4.64,6.71-5.9h0l-.07-.61c-.37-3.26-3.32-5.61-6.58-5.24-3.26.37-5.61,3.32-5.24,6.58l.12,1.04Z"/><path class="uuid-56ad82ea-d48e-4308-a763-e34c42640525" d="m520.35,363.24c-6.52-1.27-10.5-5.36-10.34-10.27.17-5.32,6.11-8.75,6.11-8.75,0,0-3.24-1.27-4.24-5.03-1.42-5.33,2.68-9.46,2.68-9.46-4.23-.67-6.25-2.9-6.25-2.9,0,0-1.95,2.45-3.7,3.18l4.2,37.02c.37,3.26,3.32,5.61,6.58,5.24,3.26-.37,5.61-3.32,5.24-6.58l-.28-2.46Z"/></g></g></g></g></g></svg>
<svg id="uuid-b435763a-c472-44da-a67a-e9e837fe0ccc" data-name="BODY" xmlns="http://www.w3.org/2000/svg" viewBox="0 0 600 600"><defs><style>
      .uuid-4a0441b6-000c-4e7a-abf1-7c702da6f88d {
        fill: #7aa6ff;
      }

      .uuid-4a0441b6-000c-4e7a-abf1-7c702da6f88d, .uuid-c6cdb512-b792-458d-9ced-5ea59dfaeca5, .uuid-6d94cb51-a65b-4f8c-a1b1-406de2803bfa, .uuid-ae63226a-9b36-45a3-82d1-fbc4c564cf5c {
        stroke: #000;
        stroke-linecap: round;
        stroke-linejoin: round;
      }

      .uuid-4a0441b6-000c-4e7a-abf1-7c702da6f88d, .uuid-6d94cb51-a65b-4f8c-a1b1-406de2803bfa, .uuid-ae63226a-9b36-45a3-82d1-fbc4c564cf5c {
        stroke-width: 2px;
      }

      .uuid-aa825ba1-e97a-4699-b196-07d41c01d80a {
        fill: #3ef1ff;
      }

      .uuid-c6cdb512-b792-458d-9ced-5ea59dfaeca5 {
        stroke-width: 2px;
      }

      .uuid-c6cdb512-b792-458d-9ced-5ea59dfaeca5, .uuid-6d94cb51-a65b-4f8c-a1b1-406de2803bfa {
        fill: #fff7f0;
      }

      .uuid-ae63226a-9b36-45a3-82d1-fbc4c564cf5c {
        fill: none;
      }
    </style></defs><g id="uuid-d21cdb81-6d30-4aee-95e2-0cd1953e30cb" data-name="uuid-0ddaaa68-545c-4eb2-a737-12a968a2ee61"><g id="uuid-6584a94e-1531-4cce-8f9d-343e3ee22826" data-name="uuid-0f5b18c2-d5c6-4aaa-8f08-473e1121eb23"><g id="uuid-0d2b73fa-9296-464b-8ccd-8fb51db96085" data-name="uuid-bf236e71-ae9d-44b4-a6ab-50816829c233"><path class="uuid-6d94cb51-a65b-4f8c-a1b1-406de2803bfa" d="m144.15,313.8c-.28-3.84-.43-7.72-.43-11.63,0-86.31,69.97-156.28,156.28-156.28,74.78,0,137.3,52.53,152.66,122.7-32.23,51.24-213.13,84.28-308.51,45.21h0Z"/><path class="uuid-6d94cb51-a65b-4f8c-a1b1-406de2803bfa" d="m143.99,310.94c-9.53-4.06-13.98,9.29-1.3,14.86,12.68,5.57,83.63,25.81,187.61,8.37,80.49-13.5,118.49-44.98,126.94-54.88,8.45-9.9-1.85-16.86-5.17-13.23s-33.72,42.11-135.39,56.99c-105.24,15.4-165.43-9.02-172.7-12.11h0Z"/><path class="uuid-4a0441b6-000c-4e7a-abf1-7c702da6f88d" d="m143.72,300s13.04,5.13,29.37,9.21v-15.26s-16.89-3.19-28.48-8.56c0,0-.54,5.84-.89,14.61Z"/><polygon class="uuid-4a0441b6-000c-4e7a-abf1-7c702da6f88d" points="180.37 310.76 180.27 295.65 189.34 297.3 189.82 312.95 180.37 310.76"/><g><path class="uuid-6d94cb51-a65b-4f8c-a1b1-406de2803bfa" d="m247.79,316.97c-2.24-.97-4.61-1.19-6.84-.76-3.67.7-14.16,5.28-15.76,8.97-2.57,5.92,7.37,10.68,13.29,13.25l18.96,14.57,7.65-3.02,9.31-21.46-26.61-11.55h0Z"/><rect class="uuid-c6cdb512-b792-458d-9ced-5ea59dfaeca5" x="237.1" y="321.98" width="23.39" height="29" transform="translate(-158.93 430.74) rotate(-66.54)"/><circle class="uuid-4a0441b6-000c-4e7a-abf1-7c702da6f88d" cx="235.49" cy="330.71" r="11.69"/><circle class="uuid-6d94cb51-a65b-4f8c-a1b1-406de2803bfa" cx="235.49" cy="330.71" r="6.32"/><line class="uuid-ae63226a-9b36-45a3-82d1-fbc4c564cf5c" x1="266.75" y1="331.53" x2="274.4" y2="328.51"/></g><g><path class="uuid-4a0441b6-000c-4e7a-abf1-7c702da6f88d" d="m196.05,231.32s22.08-30.4,74.49-54.02c52.41-23.62,110.53-11.95,110.53-11.95,0,0,21.58,9.91,44.53,37.62,12.56,15.17,22.27,39.78,22.27,39.78,0,0-15.89,36.62-87.54,61.53-71.65,24.91-153.37-9.48-165.47-18.89,0,0,14.75-7.61,13.01-27.92-1.74-20.32-11.82-26.15-11.82-26.15Z"/><g><path class="uuid-aa825ba1-e97a-4699-b196-07d41c01d80a" d="m270.45,186.45c-7.13,2.28-12.08,5.9-12.08,5.9,0,0,1.2,60.27,20.88,108.62,17.33,3.21,36.8.86,36.8.86,0,0-14.89-20.19-28.84-57.27-13.95-37.08-16.77-58.1-16.77-58.1h0Z"/><path class="uuid-aa825ba1-e97a-4699-b196-07d41c01d80a" d="m320.88,172.05s6.01-1.06,9.19-1.06c38.43,41.61,75.68,101.61,75.68,101.61,0,0-31.59,18.62-57.52,23.93,5.89-20.28,7.43-51.51-2.24-76.86-9.67-25.34-25.11-47.62-25.11-47.62Z"/><path class="uuid-aa825ba1-e97a-4699-b196-07d41c01d80a" d="m358.09,169.61c-.26-.22,19.02,1.38,19.02,1.38,0,0,21.01,13.35,35.63,29.48,14.63,16.13,26.76,43.39,26.76,43.39,0,0-6.25,9.75-15.5,16-12.13-32.26-53.54-79.96-65.91-90.24h0Z"/></g><path class="uuid-6d94cb51-a65b-4f8c-a1b1-406de2803bfa" d="m199.82,234.55s23.32-32.08,73.44-54.35c50.12-22.26,115.28-10.61,115.28-10.61,0,0,.28-2.62-6.05-7.12-6.33-4.5-65.2-10.41-111.76,9.97-51.18,22.4-77.67,56.34-77.67,56.34l6.76,5.78h0Z"/><path class="uuid-6d94cb51-a65b-4f8c-a1b1-406de2803bfa" d="m197.61,282.24c44.05,20.53,96.81,34.96,143.03,23.61,32.29-7.93,79.02-28.25,105.89-66.29,0,0,7.43-2.28,6.4,5.15-1.03,7.43-35.45,51.12-109.89,68.47-74.44,17.35-144.78-20.23-153.23-26.72l7.79-4.2h0Z"/></g><g><path class="uuid-6d94cb51-a65b-4f8c-a1b1-406de2803bfa" d="m178.8,283.48l7.38,3.84c2.87,1.49,6.26,1.61,9.22.31,6.25-2.74,15.51-10.14,15.51-29.95s-8.62-26.95-14.84-30.1c-3.27-1.66-7.16-1.54-10.31.32l-6.53,3.86-.43,51.72h0Z"/><ellipse class="uuid-4a0441b6-000c-4e7a-abf1-7c702da6f88d" cx="182.75" cy="257.68" rx="19.2" ry="26.36"/><ellipse class="uuid-6d94cb51-a65b-4f8c-a1b1-406de2803bfa" cx="182.75" cy="257.68" rx="12.45" ry="18.3"/></g></g></g></g></svg>
</svg>