<?xml version="1.0" encoding="UTF-8"?>
<svg xmlns="http://www.w3.org/2000/svg" viewBox="0 0 600 600">
<svg id="uuid-bc87ee82-23c3-4279-b438-811e43660712" data-name="BACKGROUND" xmlns="http://www.w3.org/2000/svg" viewBox="0 0 600 600"><defs><style>
      .uuid-52f0bbd2-4e52-45a8-8be3-bbbf1043e893 {
        fill: #a07bff;
      }
    </style></defs><rect class="uuid-52f0bbd2-4e52-45a8-8be3-bbbf1043e893" x="-1" y="-1" width="602" height="602"/></svg>
<svg id="uuid-9648c3a5-85bf-4111-b836-4f12d2846ea0" data-name="BODY" xmlns="http://www.w3.org/2000/svg" viewBox="0 0 600 600"><defs><style>
      .uuid-72b44662-bf92-45d6-ac71-8c8630eb5da1, .uuid-b37a1837-e78f-4ad9-8af6-f6160b19a96e, .uuid-b7e08078-eff0-49e0-882e-e19f6b9f0e51, .uuid-4887485d-8263-4dc3-866a-1e0074c49d38, .uuid-77a72000-cc0e-4046-a327-32f7083bfbd5 {
        stroke: #000;
        stroke-width: 2px;
      }

      .uuid-72b44662-bf92-45d6-ac71-8c8630eb5da1, .uuid-b37a1837-e78f-4ad9-8af6-f6160b19a96e, .uuid-4887485d-8263-4dc3-866a-1e0074c49d38, .uuid-77a72000-cc0e-4046-a327-32f7083bfbd5 {
        fill: #8400ff;
      }

      .uuid-72b44662-bf92-45d6-ac71-8c8630eb5da1, .uuid-b7e08078-eff0-49e0-882e-e19f6b9f0e51, .uuid-4887485d-8263-4dc3-866a-1e0074c49d38 {
        stroke-linecap: round;
      }

      .uuid-72b44662-bf92-45d6-ac71-8c8630eb5da1, .uuid-b7e08078-eff0-49e0-882e-e19f6b9f0e51, .uuid-77a72000-cc0e-4046-a327-32f7083bfbd5 {
        stroke-linejoin: round;
      }

      .uuid-a929d959-1aea-4f08-932c-c12aa89aeb8b {
        fill: #fff;
      }

      .uuid-b37a1837-e78f-4ad9-8af6-f6160b19a96e, .uuid-4887485d-8263-4dc3-866a-1e0074c49d38 {
        stroke-miterlimit: 10;
      }

      .uuid-b7e08078-eff0-49e0-882e-e19f6b9f0e51 {
        fill: none;
      }
    </style></defs><ellipse cx="300" cy="518.65" rx="138.6" ry="22.93"/><g><path class="uuid-b37a1837-e78f-4ad9-8af6-f6160b19a96e" d="m319.36,427.14c-1.16,1.05-54.95,57-54.95,57,0,0,21.51-1.95,31.74,10.62,10.23,12.57,7.26,23.89,7.26,23.89h-66.9s-28.69-36.17-28.69-36.17c0,0,3.74-13.4,20.44-10.59,20.9-19.38,55.52-59.13,55.52-59.13l35.59,14.38Z"/><path d="m283.78,412.76l31.28,12.64-3.24,9.5c-2.93,3.03-9.76,10.12-13.64,14.14-11.92,0-27.98-2.13-41.33-6.37,13.95-15.1,26.93-29.92,26.93-29.92Z"/></g><g><path class="uuid-72b44662-bf92-45d6-ac71-8c8630eb5da1" d="m409.81,359.6c9.2,3.77,29.89,12.05,42.79,16.03,2.11.65,4.41.69,6.5-.04,11.79-4.08,28.47-11.39,33.03-11.32,5.25.08,7.8,3.93,19.88,2.04,13.36-2.1,22.43-11.99,20.93-23.3-4.21-43.28-25.18-26.79-25.18-26.79,0,0-5.84-8.75-18.76-4.82-11.83,3.6-10.2,14.44-6.47,22.47l-25.29,8.58c-2.14.72-4.45.71-6.59-.02l-35.7-12.61"/><path class="uuid-4887485d-8263-4dc3-866a-1e0074c49d38" d="m533.36,312.82c2.5,3.94,1.62,9.14-1.57,12.4-2.47,2.53-5.88,3.88-9.32,4.4-2.8.43-5.7.42-8.49-.08-2.14-.39-4.29-1.1-5.79-2.75-1.66-1.83-2.27-4.46-1.98-6.87.51-4.17,3.84-7.14,7.22-9.26,3.17-1.98,6.86-3.26,10.64-3.09,3.8.18,7.36,2.19,9.3,5.24Z"/><path class="uuid-4887485d-8263-4dc3-866a-1e0074c49d38" d="m538.57,349.84c.97,3.03.32,6.43-1.5,9.01-3.77,5.33-11.17,5.65-16.96,4.27-3.31-.79-6.69-2.21-8.67-5.13-3.13-4.61-.82-9.79,3.48-12.56,2.58-1.66,5.61-2.67,8.63-3.14,5.73-.89,13.1,1.51,15.03,7.56Z"/><path class="uuid-4887485d-8263-4dc3-866a-1e0074c49d38" d="m538.71,328.53c1.8,2.99,2.06,6.89.22,9.9-1.95,3.2-4.94,5.25-8.49,6.28-3.66,1.07-7.64,1.27-11.4.44-2.25-.5-4.53-1.38-5.96-3.28-1.86-2.47-1.89-5.68-.85-8.49,1.2-3.24,4.17-5.69,7.09-7.37,6.15-3.56,15.21-4.43,19.39,2.52Z"/><path class="uuid-4887485d-8263-4dc3-866a-1e0074c49d38" d="m501.85,311.68s9.27,3.84,7.77,12.02c-1.04,5.68-8.17,9.55-14.94,6.13"/><path class="uuid-b7e08078-eff0-49e0-882e-e19f6b9f0e51" d="m500.67,331.08c2.41,1.63,5.11,8.04,3.4,14.42"/><path d="m443.44,339.88c-2.88,10.58-6.94,20.23-11.17,28.59-10.17-3.78-21.16-9.53-27-11.93l11.83-26.02,26.35,9.36Z"/></g><g><circle class="uuid-b37a1837-e78f-4ad9-8af6-f6160b19a96e" cx="300" cy="300" r="138.16"/><path class="uuid-a929d959-1aea-4f08-932c-c12aa89aeb8b" d="m184.58,308.17c-4.41,0-7.98-3.57-7.98-7.98,0-67.74,55.11-122.86,122.86-122.86,4.41,0,7.98,3.57,7.98,7.98s-3.57,7.98-7.98,7.98c-58.94,0-106.9,47.95-106.9,106.9,0,4.41-3.57,7.98-7.98,7.98Z"/></g><path class="uuid-b7e08078-eff0-49e0-882e-e19f6b9f0e51" d="m264.41,484.14c-4.06.49-11.49,1.36-17.85,7.23"/><path class="uuid-a929d959-1aea-4f08-932c-c12aa89aeb8b" d="m185.17,308.14c-4.41,0-7.98-3.57-7.98-7.98,0-67.74,55.11-122.86,122.86-122.86,4.41,0,7.98,3.57,7.98,7.98s-3.57,7.98-7.98,7.98c-58.94,0-106.9,47.95-106.9,106.9,0,4.41-3.57,7.98-7.98,7.98Z"/><path d="m203.75,397.46l34.2-27.46-24.86,36.3c-6.73-5.1-3.66-2.61-9.34-8.83Z"/><path class="uuid-77a72000-cc0e-4046-a327-32f7083bfbd5" d="m323.72,387.31c19.14-13.4,39.15-11.3,55.52,7.36,19.6,22.35,30.57,33.06,30.57,33.06,0,0,10.74-19.34,34.77-17.5,18.26,1.4,24.84,14.43,24.84,14.43,0,0,6.21,8.82-22.45,33.5-28.66,24.68-54.93,40.92-61.14,29.46-6.21-11.46-2.82-32.1-2.82-32.1,0,0-22.02-26.09-27.94-32.01-6.79-6.79-15.71-1.36-15.71-1.36"/><path class="uuid-b37a1837-e78f-4ad9-8af6-f6160b19a96e" d="m446.97,458.17c-25.89,22.29-49.82,37.69-58.79,32.02-9.77-7.44,26.84-38.54,44.88-52.7,18.04-14.16,32.17-17.82,36.36-12.81,0,0,6.21,8.82-22.45,33.5Z"/><path class="uuid-b7e08078-eff0-49e0-882e-e19f6b9f0e51" d="m409.81,427.74c-1.89,2.86-4.55,10.38-4.55,10.38"/><g><path class="uuid-72b44662-bf92-45d6-ac71-8c8630eb5da1" d="m214.11,345.7c-8.05,5.83-25.34,20.79-35.52,29.67-1.67,1.45-2.82,3.41-3.39,5.55-3.14,11.67-8.55,33.44-8.55,33.44,0,0-8.42.58-12.19,14.35-3.64,13.3-6.64,25.06,3.77,29.75.35,7.47,7.51,15.45,19.2,9.41.14-.06,1.32,1.32,1.44,1.45,2.64,2.7,6.36,4.45,10.13,4.81,3.65.36,7.61-.67,10.43-3.08,3.29-2.81,5.4-6.94,6.05-11.2.4-2.61.26-5.31-.75-7.78,0,0,6.2-2.51,8.05-11.34,1.99-9.49-4.22-19.42-14.62-18.18l6.17-23.11c.51-2.2,1.74-4.16,3.49-5.59l29.38-24.3"/><path class="uuid-b7e08078-eff0-49e0-882e-e19f6b9f0e51" d="m204.73,452.06c-1.37-3.47-5.39-7.08-9-6.88"/><path class="uuid-b7e08078-eff0-49e0-882e-e19f6b9f0e51" d="m178.86,469.3c-5.16-5.27-3.82-11.97-2.9-13.54"/><path class="uuid-b7e08078-eff0-49e0-882e-e19f6b9f0e51" d="m158.22,458.45c-.27-5.22.73-7.32,3.06-9.83"/><path class="uuid-b7e08078-eff0-49e0-882e-e19f6b9f0e51" d="m193.93,450.63c.14-2.07.48-4.16,1.32-6.06.85-1.95,2.36-3.88,4.31-4.85"/></g></svg>
<svg id="uuid-783ed389-68eb-43cd-8772-5f49b9e71529" data-name="BODY" xmlns="http://www.w3.org/2000/svg" viewBox="0 0 600 600"><defs><style>
      .uuid-f7dbff45-408d-444d-ade6-4633d32cb1f2 {
        fill: none;
        stroke: #000;
        stroke-linecap: round;
        stroke-linejoin: round;
        stroke-width: 4px;
      }
    </style></defs><g id="uuid-4bc92f06-c84b-4f7f-af09-c2014f1ce8f9" data-name="mouth"><path d="m371.37,289.99c1.76,5.11-.95,10.68-6.06,12.44s-10.68-.95-12.44-6.06l18.49-6.38Z"/></g><g id="uuid-285df2d9-fba6-4a75-9123-94e1b459206d" data-name="eye L"><path class="uuid-f7dbff45-408d-444d-ade6-4633d32cb1f2" d="m346.88,270.76c1.76,5.11-.95,10.68-6.06,12.44s-10.68-.95-12.44-6.06"/></g><g id="uuid-a97f4a4e-8c90-4af2-892b-9ce222650c5a" data-name="eye R"><path class="uuid-f7dbff45-408d-444d-ade6-4633d32cb1f2" d="m378.79,259.75c1.76,5.11-.95,10.68-6.06,12.44-5.11,1.76-10.68-.95-12.44-6.06"/></g></svg>
<svg id="uuid-d89b1a3b-1abc-4239-8dc4-47b8ed987a23" data-name="BODY" xmlns="http://www.w3.org/2000/svg" viewBox="0 0 600 600"><defs><style>
      .uuid-c5c1942b-919f-4361-a538-7c7e7cf852f0 {
        fill: #7aa6ff;
      }

      .uuid-c5c1942b-919f-4361-a538-7c7e7cf852f0, .uuid-e2f7ad43-e6dd-4758-93ba-680831edc001, .uuid-56ad82ea-d48e-4308-a763-e34c42640525 {
        stroke: #000;
        stroke-linecap: round;
        stroke-linejoin: round;
      }

      .uuid-c5c1942b-919f-4361-a538-7c7e7cf852f0, .uuid-56ad82ea-d48e-4308-a763-e34c42640525 {
        stroke-width: 2px;
      }

      .uuid-e2f7ad43-e6dd-4758-93ba-680831edc001 {
        stroke-width: 2px;
      }

      .uuid-e2f7ad43-e6dd-4758-93ba-680831edc001, .uuid-56ad82ea-d48e-4308-a763-e34c42640525 {
        fill: #ff78d8;
      }
    </style></defs><g id="uuid-333657bb-b618-45a7-b183-dcd3ce45fb5d" data-name="uuid-2b0117f1-1776-4845-a0f5-c237a6ca9f96"><g id="uuid-04b458af-e80e-46bd-b30a-189016c9a742" data-name="uuid-0881513b-7c8c-44a0-be29-2e98fb16f773"><g id="uuid-16e95431-6b51-4de0-bde5-963b33635208" data-name="uuid-4ea92ad2-89cb-4935-9ee1-ea64959099a6"><g><path class="uuid-c5c1942b-919f-4361-a538-7c7e7cf852f0" d="m505.78,307.9s-4.59-35.13-27.13-66.82-85.23-42.92-85.23-42.92l-6.19-5.32s71.3,10.02,95.45,45.45c24.73,36.26,27.59,68.56,27.59,68.56l-4.5,1.04h0Z"/><path class="uuid-56ad82ea-d48e-4308-a763-e34c42640525" d="m520.68,366.22h0c.19,3.16-2.22,5.88-5.38,6.07l-.42.03c-3.16.19-5.88-2.22-6.07-5.38h0c-.19-3.16,2.22-5.88,5.38-6.07"/><g><path class="uuid-56ad82ea-d48e-4308-a763-e34c42640525" d="m209.79,442.76l-10.47-3.08h0c-2.15,1.3-3.42,3.25-4.07,4.89-.65,1.64-1.36,4.56-1.31,5.93l12.49,3.67c3.15.93,6.46-.88,7.38-4.03.93-3.15-.88-6.46-4.03-7.38Z"/><path class="uuid-56ad82ea-d48e-4308-a763-e34c42640525" d="m155.06,426.69c-3-.62-6.02,1.15-6.9,4.14-.93,3.15.88,6.46,4.03,7.38.65-2.81,1.99-9.48,2.87-11.53Z"/><path class="uuid-e2f7ad43-e6dd-4758-93ba-680831edc001" d="m202.75,447.11l.12-.41c.89-3.04,4.08-4.78,7.12-3.88h0c3.04.89,4.78,4.08,3.88,7.12l-.12.41c-.89,3.04-4.08,4.78-7.12,3.88h0c-3.04-.89-4.78-4.08-3.88-7.12Z"/></g><path class="uuid-c5c1942b-919f-4361-a538-7c7e7cf852f0" d="m174.51,242.11c-21.63,3.45-53.44-10.17-83.85-12-31.14-1.87-60.79,11.08-40.28,52.1,20.51,41.02,59.59,52.7,114.24,56.6,54.65,3.89,97.92,20.21,101.66,58.84,3.74,38.63-34.37,58.11-57.97,52.98-2.92-.63-2.05-4.33.9-3.83,10.1,1.72,47.12-2.23,52.61-38.59,5.49-36.37-29.45-61.17-96.95-65.11s-99.59-20.44-119.06-59.62c-17.82-35.86-2.26-59.81,45.89-58.16,23.43.8,48.13,11.53,84.9,12.48l-2.09,4.32h0Z"/><g><path class="uuid-56ad82ea-d48e-4308-a763-e34c42640525" d="m502.55,311.9s.07.03.11.05c2.71,1.34,4.95,4.09,4.95,4.09,0,0,3.47-4.64,6.71-5.9h0l-.07-.61c-.37-3.26-3.32-5.61-6.58-5.24-3.26.37-5.61,3.32-5.24,6.58l.12,1.04Z"/><path class="uuid-56ad82ea-d48e-4308-a763-e34c42640525" d="m520.35,363.24c-6.52-1.27-10.5-5.36-10.34-10.27.17-5.32,6.11-8.75,6.11-8.75,0,0-3.24-1.27-4.24-5.03-1.42-5.33,2.68-9.46,2.68-9.46-4.23-.67-6.25-2.9-6.25-2.9,0,0-1.95,2.45-3.7,3.18l4.2,37.02c.37,3.26,3.32,5.61,6.58,5.24,3.26-.37,5.61-3.32,5.24-6.58l-.28-2.46Z"/></g></g></g></g></g></svg>
<svg id="uuid-dbdd0264-9f38-401c-9cf7-d3d251194c82" data-name="BODY" xmlns="http://www.w3.org/2000/svg" viewBox="0 0 600 600"><defs><style>
      .uuid-b1c08775-a845-4385-a2f8-870398f777c3 {
        fill: #fff;
        stroke: #000;
        stroke-miterlimit: 10;
        stroke-width: 2px;
      }
    </style></defs><path class="uuid-b1c08775-a845-4385-a2f8-870398f777c3" d="m234.82,145.43c-9.89-21.59-45.38-26.51-79.27-10.99-33.89,15.52-53.35,45.61-43.46,67.2,9.99,21.81,39.44,22.36,59.43,17.73,4.99-1.16,10.09-2.59,14.83-4.51,5.26-2.14,11.16-6.03,16.85-3.03,2.88,1.52,17.21,8.41,19.06,3.74.88-2.24-2.6-4.93-3.79-6.4-2.06-2.55-3.15-5.62-2.69-8.93.52-3.73,3.23-6.58,5.75-9.17,3.01-3.1,5.82-6.19,8.14-9.86,6.51-10.31,10.47-24.16,5.15-35.78Z"/><g><path d="m127.75,172.06l17.51-10.97,5,7.97-8.29,5.19,5.57,8.89,5.83-3.66,5,7.97-5.83,3.66,6.34,10.12,8.29-5.19,5,7.97-17.51,10.97-26.91-42.94Z"/><path d="m158.97,163.61l-6.76,4.23-5-7.97,22.73-14.24,5,7.97-6.76,4.23,21.91,34.96-9.21,5.77-21.91-34.96Z"/><path d="m172.83,143.82l9.21-5.77,10.96,17.48,3.07-1.92-10.96-17.48,9.21-5.77,26.91,42.94-9.21,5.77-10.96-17.48-3.07,1.92,10.96,17.48-9.21,5.77-26.91-42.94Z"/></g></svg>
</svg>