<?xml version="1.0" encoding="UTF-8"?>
<svg xmlns="http://www.w3.org/2000/svg" viewBox="0 0 600 600">
<svg id="uuid-79261e34-5d95-4eb7-bb85-10d7c969ade4" data-name="BACKGROUND" xmlns="http://www.w3.org/2000/svg" viewBox="0 0 600 600"><defs><style>
      .uuid-97803ec4-c756-4940-a80c-fce9d043143d {
        fill: #00dfa9;
      }
    </style></defs><rect class="uuid-97803ec4-c756-4940-a80c-fce9d043143d" x="-1" y="-1" width="602" height="602"/></svg>
<svg id="uuid-9648c3a5-85bf-4111-b836-4f12d2846ea0" data-name="BODY" xmlns="http://www.w3.org/2000/svg" viewBox="0 0 600 600"><defs><style>
      .uuid-72b44662-bf92-45d6-ac71-8c8630eb5da1, .uuid-b37a1837-e78f-4ad9-8af6-f6160b19a96e, .uuid-b7e08078-eff0-49e0-882e-e19f6b9f0e51, .uuid-4887485d-8263-4dc3-866a-1e0074c49d38, .uuid-77a72000-cc0e-4046-a327-32f7083bfbd5 {
        stroke: #000;
        stroke-width: 2px;
      }

      .uuid-72b44662-bf92-45d6-ac71-8c8630eb5da1, .uuid-b37a1837-e78f-4ad9-8af6-f6160b19a96e, .uuid-4887485d-8263-4dc3-866a-1e0074c49d38, .uuid-77a72000-cc0e-4046-a327-32f7083bfbd5 {
        fill: #8400ff;
      }

      .uuid-72b44662-bf92-45d6-ac71-8c8630eb5da1, .uuid-b7e08078-eff0-49e0-882e-e19f6b9f0e51, .uuid-4887485d-8263-4dc3-866a-1e0074c49d38 {
        stroke-linecap: round;
      }

      .uuid-72b44662-bf92-45d6-ac71-8c8630eb5da1, .uuid-b7e08078-eff0-49e0-882e-e19f6b9f0e51, .uuid-77a72000-cc0e-4046-a327-32f7083bfbd5 {
        stroke-linejoin: round;
      }

      .uuid-a929d959-1aea-4f08-932c-c12aa89aeb8b {
        fill: #fff;
      }

      .uuid-b37a1837-e78f-4ad9-8af6-f6160b19a96e, .uuid-4887485d-8263-4dc3-866a-1e0074c49d38 {
        stroke-miterlimit: 10;
      }

      .uuid-b7e08078-eff0-49e0-882e-e19f6b9f0e51 {
        fill: none;
      }
    </style></defs><ellipse cx="300" cy="518.65" rx="138.6" ry="22.93"/><g><path class="uuid-b37a1837-e78f-4ad9-8af6-f6160b19a96e" d="m319.36,427.14c-1.16,1.05-54.95,57-54.95,57,0,0,21.51-1.95,31.74,10.62,10.23,12.57,7.26,23.89,7.26,23.89h-66.9s-28.69-36.17-28.69-36.17c0,0,3.74-13.4,20.44-10.59,20.9-19.38,55.52-59.13,55.52-59.13l35.59,14.38Z"/><path d="m283.78,412.76l31.28,12.64-3.24,9.5c-2.93,3.03-9.76,10.12-13.64,14.14-11.92,0-27.98-2.13-41.33-6.37,13.95-15.1,26.93-29.92,26.93-29.92Z"/></g><g><path class="uuid-72b44662-bf92-45d6-ac71-8c8630eb5da1" d="m409.81,359.6c9.2,3.77,29.89,12.05,42.79,16.03,2.11.65,4.41.69,6.5-.04,11.79-4.08,28.47-11.39,33.03-11.32,5.25.08,7.8,3.93,19.88,2.04,13.36-2.1,22.43-11.99,20.93-23.3-4.21-43.28-25.18-26.79-25.18-26.79,0,0-5.84-8.75-18.76-4.82-11.83,3.6-10.2,14.44-6.47,22.47l-25.29,8.58c-2.14.72-4.45.71-6.59-.02l-35.7-12.61"/><path class="uuid-4887485d-8263-4dc3-866a-1e0074c49d38" d="m533.36,312.82c2.5,3.94,1.62,9.14-1.57,12.4-2.47,2.53-5.88,3.88-9.32,4.4-2.8.43-5.7.42-8.49-.08-2.14-.39-4.29-1.1-5.79-2.75-1.66-1.83-2.27-4.46-1.98-6.87.51-4.17,3.84-7.14,7.22-9.26,3.17-1.98,6.86-3.26,10.64-3.09,3.8.18,7.36,2.19,9.3,5.24Z"/><path class="uuid-4887485d-8263-4dc3-866a-1e0074c49d38" d="m538.57,349.84c.97,3.03.32,6.43-1.5,9.01-3.77,5.33-11.17,5.65-16.96,4.27-3.31-.79-6.69-2.21-8.67-5.13-3.13-4.61-.82-9.79,3.48-12.56,2.58-1.66,5.61-2.67,8.63-3.14,5.73-.89,13.1,1.51,15.03,7.56Z"/><path class="uuid-4887485d-8263-4dc3-866a-1e0074c49d38" d="m538.71,328.53c1.8,2.99,2.06,6.89.22,9.9-1.95,3.2-4.94,5.25-8.49,6.28-3.66,1.07-7.64,1.27-11.4.44-2.25-.5-4.53-1.38-5.96-3.28-1.86-2.47-1.89-5.68-.85-8.49,1.2-3.24,4.17-5.69,7.09-7.37,6.15-3.56,15.21-4.43,19.39,2.52Z"/><path class="uuid-4887485d-8263-4dc3-866a-1e0074c49d38" d="m501.85,311.68s9.27,3.84,7.77,12.02c-1.04,5.68-8.17,9.55-14.94,6.13"/><path class="uuid-b7e08078-eff0-49e0-882e-e19f6b9f0e51" d="m500.67,331.08c2.41,1.63,5.11,8.04,3.4,14.42"/><path d="m443.44,339.88c-2.88,10.58-6.94,20.23-11.17,28.59-10.17-3.78-21.16-9.53-27-11.93l11.83-26.02,26.35,9.36Z"/></g><g><circle class="uuid-b37a1837-e78f-4ad9-8af6-f6160b19a96e" cx="300" cy="300" r="138.16"/><path class="uuid-a929d959-1aea-4f08-932c-c12aa89aeb8b" d="m184.58,308.17c-4.41,0-7.98-3.57-7.98-7.98,0-67.74,55.11-122.86,122.86-122.86,4.41,0,7.98,3.57,7.98,7.98s-3.57,7.98-7.98,7.98c-58.94,0-106.9,47.95-106.9,106.9,0,4.41-3.57,7.98-7.98,7.98Z"/></g><path class="uuid-b7e08078-eff0-49e0-882e-e19f6b9f0e51" d="m264.41,484.14c-4.06.49-11.49,1.36-17.85,7.23"/><path class="uuid-a929d959-1aea-4f08-932c-c12aa89aeb8b" d="m185.17,308.14c-4.41,0-7.98-3.57-7.98-7.98,0-67.74,55.11-122.86,122.86-122.86,4.41,0,7.98,3.57,7.98,7.98s-3.57,7.98-7.98,7.98c-58.94,0-106.9,47.95-106.9,106.9,0,4.41-3.57,7.98-7.98,7.98Z"/><path d="m203.75,397.46l34.2-27.46-24.86,36.3c-6.73-5.1-3.66-2.61-9.34-8.83Z"/><path class="uuid-77a72000-cc0e-4046-a327-32f7083bfbd5" d="m323.72,387.31c19.14-13.4,39.15-11.3,55.52,7.36,19.6,22.35,30.57,33.06,30.57,33.06,0,0,10.74-19.34,34.77-17.5,18.26,1.4,24.84,14.43,24.84,14.43,0,0,6.21,8.82-22.45,33.5-28.66,24.68-54.93,40.92-61.14,29.46-6.21-11.46-2.82-32.1-2.82-32.1,0,0-22.02-26.09-27.94-32.01-6.79-6.79-15.71-1.36-15.71-1.36"/><path class="uuid-b37a1837-e78f-4ad9-8af6-f6160b19a96e" d="m446.97,458.17c-25.89,22.29-49.82,37.69-58.79,32.02-9.77-7.44,26.84-38.54,44.88-52.7,18.04-14.16,32.17-17.82,36.36-12.81,0,0,6.21,8.82-22.45,33.5Z"/><path class="uuid-b7e08078-eff0-49e0-882e-e19f6b9f0e51" d="m409.81,427.74c-1.89,2.86-4.55,10.38-4.55,10.38"/><g><path class="uuid-72b44662-bf92-45d6-ac71-8c8630eb5da1" d="m214.11,345.7c-8.05,5.83-25.34,20.79-35.52,29.67-1.67,1.45-2.82,3.41-3.39,5.55-3.14,11.67-8.55,33.44-8.55,33.44,0,0-8.42.58-12.19,14.35-3.64,13.3-6.64,25.06,3.77,29.75.35,7.47,7.51,15.45,19.2,9.41.14-.06,1.32,1.32,1.44,1.45,2.64,2.7,6.36,4.45,10.13,4.81,3.65.36,7.61-.67,10.43-3.08,3.29-2.81,5.4-6.94,6.05-11.2.4-2.61.26-5.31-.75-7.78,0,0,6.2-2.51,8.05-11.34,1.99-9.49-4.22-19.42-14.62-18.18l6.17-23.11c.51-2.2,1.74-4.16,3.49-5.59l29.38-24.3"/><path class="uuid-b7e08078-eff0-49e0-882e-e19f6b9f0e51" d="m204.73,452.06c-1.37-3.47-5.39-7.08-9-6.88"/><path class="uuid-b7e08078-eff0-49e0-882e-e19f6b9f0e51" d="m178.86,469.3c-5.16-5.27-3.82-11.97-2.9-13.54"/><path class="uuid-b7e08078-eff0-49e0-882e-e19f6b9f0e51" d="m158.22,458.45c-.27-5.22.73-7.32,3.06-9.83"/><path class="uuid-b7e08078-eff0-49e0-882e-e19f6b9f0e51" d="m193.93,450.63c.14-2.07.48-4.16,1.32-6.06.85-1.95,2.36-3.88,4.31-4.85"/></g></svg>
<svg id="uuid-853b1779-0b40-4336-9fd3-56860412922a" data-name="BODY" xmlns="http://www.w3.org/2000/svg" viewBox="0 0 600 600"><defs><style>
      .uuid-270fe1d8-6ffc-45cd-908c-63708945a6da {
        fill: none;
        stroke: #000;
        stroke-linecap: round;
        stroke-miterlimit: 10;
        stroke-width: 4px;
      }
    </style></defs><path class="uuid-270fe1d8-6ffc-45cd-908c-63708945a6da" d="m378.79,259.75c-1.76-5.11-7.33-7.82-12.44-6.06s-7.82,7.33-6.06,12.44"/><circle cx="362.12" cy="293.18" r="9.78" transform="translate(-9.59 12.26) rotate(-1.91)"/><path class="uuid-270fe1d8-6ffc-45cd-908c-63708945a6da" d="m346.88,270.76c-1.76-5.11-7.33-7.82-12.44-6.06-5.11,1.76-7.82,7.33-6.06,12.44"/></svg>
<svg id="uuid-0aa8c587-996b-4cdc-8f6f-9857078d28d3" data-name="BODY" xmlns="http://www.w3.org/2000/svg" viewBox="0 0 600 600"><defs><style>
      .uuid-5c1aa41b-276d-47a9-975e-6b51258e34fd {
        fill: #7aa6ff;
      }

      .uuid-5c1aa41b-276d-47a9-975e-6b51258e34fd, .uuid-5420853f-4843-434c-aead-428453da705c, .uuid-98d20c01-64f9-488a-bda2-9c627608ef99 {
        stroke: #000;
        stroke-linecap: round;
        stroke-linejoin: round;
        stroke-width: 2px;
      }

      .uuid-5420853f-4843-434c-aead-428453da705c {
        fill: none;
      }

      .uuid-98d20c01-64f9-488a-bda2-9c627608ef99 {
        fill: #f9a723;
      }
    </style></defs><g id="uuid-efe03c10-21e9-40e1-b362-43562c7320e3" data-name="uuid-3374edde-7b2c-4e71-84a6-3cb653058dc6"><g id="uuid-7e5c48c3-5d6e-4296-9f6a-e6035b6c477a" data-name="uuid-298fa604-3857-4000-a4c4-1a509c9ef803"><g><path class="uuid-5c1aa41b-276d-47a9-975e-6b51258e34fd" d="m244.59,514.46s8.09-20.22,26.83-20.22c15.1,0,19.01,7.06,19.01,7.06,0,0,3.03-5.94,8.09-9.18,0,0-4.15-7.58-14.26-9.3l-1.73,1.91s-6.97-5.35-23.92-2.28c-16.95,3.07-28.51,21.15-28.51,21.15l.92,8.35,4.39,6.42,9.18-3.89v-.02Z"/><path class="uuid-98d20c01-64f9-488a-bda2-9c627608ef99" d="m209.84,478.1l27.45,34.51c.93,1.16,2.33,1.84,3.82,1.84h61.66c1.79,0,3.24,1.45,3.24,3.24v4.45c0,1.79-1.45,3.24-3.24,3.24h-64.92c-3.9,0-7.59-1.79-10-4.85l-26.47-32.68c-.89-1.1-.9-2.68-.02-3.79l4.63-5.81c.91-1.33,2.85-1.41,3.86-.14h0Z"/><path class="uuid-5420853f-4843-434c-aead-428453da705c" d="m282.53,484.72c2.44,1.78,6.89,7.45,7.9,16.57,2.33,5.28,2.33,13.17,2.33,13.17"/></g><g><path class="uuid-5c1aa41b-276d-47a9-975e-6b51258e34fd" d="m405.26,457.42s-8.33-22.95,12.28-44.49c4.45-4.65,15.27-6.57,24.17-6.37,0,0-25.89,17.7-19.96,39.81l-16.49,11.06h0Z"/><path class="uuid-98d20c01-64f9-488a-bda2-9c627608ef99" d="m382.22,485.43c.29,4,3.37,8.75,9.54,9.05s18.87-1.74,46.41-24.52c27.54-22.78,37.32-34.79,34.59-45.81-2.73-11.02-15.88-8.29-29.33,0-13.45,8.29-23.24,15.87-39.34,30.44-15.19,13.75-22.52,21.98-21.88,30.84h0Z"/><path class="uuid-5420853f-4843-434c-aead-428453da705c" d="m472.87,430.86c1.07-6.88-12.92-14.11-52.29,20.95-38.8,34.55-33.55,42.06-30.93,42.38"/><path class="uuid-5420853f-4843-434c-aead-428453da705c" d="m395.95,488.37c1.88,1.93,15.96-4.79,39.42-24.07,23.46-19.28,33.17-30.27,31.28-32.36s-10.79-2.61-41.12,23.75c-30.33,26.36-31.35,30.85-29.58,32.67h0Z"/><path class="uuid-5420853f-4843-434c-aead-428453da705c" d="m441.71,406.56c12.54-.01,17.04,10.85,17.04,10.85"/></g></g></g></svg>
<svg id="uuid-f4074912-9272-4ef1-b1b1-d66f5acdc7c8" data-name="BODY" xmlns="http://www.w3.org/2000/svg" viewBox="0 0 600 600"><defs><style>
      .uuid-faa079f9-df7c-49b8-9fbd-6724fd225a2e {
        fill: #7aa6ff;
      }

      .uuid-faa079f9-df7c-49b8-9fbd-6724fd225a2e, .uuid-ac748af8-1ade-42a0-999e-0a2ce733572b, .uuid-1baff137-1693-4b4b-a630-944b4a445ce9, .uuid-e151b05c-5576-4bb6-b555-654c00b076ba, .uuid-f7781649-76e1-44b4-85bf-2cb5db06f6ae {
        stroke: #000;
        stroke-linecap: round;
        stroke-linejoin: round;
        stroke-width: 2px;
      }

      .uuid-ac748af8-1ade-42a0-999e-0a2ce733572b {
        fill: #ff78d8;
      }

      .uuid-1baff137-1693-4b4b-a630-944b4a445ce9 {
        fill: #ffff0d;
      }

      .uuid-e151b05c-5576-4bb6-b555-654c00b076ba {
        fill: #fff;
      }

      .uuid-f7781649-76e1-44b4-85bf-2cb5db06f6ae {
        fill: none;
      }
    </style></defs><g id="uuid-609b5b85-8169-408e-9e55-6a09e3454fc3" data-name="uuid-59560883-689f-43df-9f0b-d5c83d25eed8"><g><g><path class="uuid-e151b05c-5576-4bb6-b555-654c00b076ba" d="m166.95,413.12c11.19,10.25,31.2,9.43,31.2,9.43l4.5-16.84s-5.66-2.38-15.98-5.31c-10.32-2.93-15.34-4.65-15.34-4.65l-4.38,17.37Z"/><g><line class="uuid-f7781649-76e1-44b4-85bf-2cb5db06f6ae" x1="178.28" y1="404.79" x2="176.11" y2="413.89"/><line class="uuid-f7781649-76e1-44b4-85bf-2cb5db06f6ae" x1="191.19" y1="408.44" x2="189.01" y2="417.54"/></g></g><g><path class="uuid-e151b05c-5576-4bb6-b555-654c00b076ba" d="m466.27,339.39l16.26-5.52s-.43,19.89,9.61,30.41l-16.83,5.37s-9.23-5.12-11.25-14.64,2.22-15.62,2.22-15.62h-.01Z"/><path class="uuid-ac748af8-1ade-42a0-999e-0a2ce733572b" d="m436.03,324.33s17.68,5.27,18.89,5.75,11.35,9.31,11.35,9.31c0,0-.65,20.75,9.03,30.26,0,0-15.19,17.39-17.22,18.71-2.03,1.32-41.28-14.54-41.28-14.54,0,0,6.6-14.58,12.05-26.21,5.45-11.63,7.16-23.27,7.16-23.27h.02Z"/><line class="uuid-f7781649-76e1-44b4-85bf-2cb5db06f6ae" x1="473.46" y1="359.57" x2="482.77" y2="356.38"/><line class="uuid-f7781649-76e1-44b4-85bf-2cb5db06f6ae" x1="470.36" y1="348.29" x2="479.66" y2="345.1"/><path class="uuid-f7781649-76e1-44b4-85bf-2cb5db06f6ae" d="m469.02,358.71c-10.17,2.95-16.49,13.87-13.05,16.86,3.44,2.99,6.52-6.37,6.52-6.37"/><path class="uuid-f7781649-76e1-44b4-85bf-2cb5db06f6ae" d="m466.78,348.29c-8.18-2.09-15.56-4.17-15.56-4.17"/><path d="m446.06,327.34c-1.01,10.56-5.64,22.15-7.31,26.67-3.62,9.78-8.9,19.7-11.17,24.18-10.17-3.78-7.79-2.87-10.71-4.51l13.37-27.47,5.78-21.87,10.03,3.01h.01Z"/></g><g><path class="uuid-faa079f9-df7c-49b8-9fbd-6724fd225a2e" d="m305.9,456.21l11.12-16.69s29.17-3,37.01-5.81c4.96-1.77,4.75-6.23,4.75-6.23,0,0-3.63-4.35-6.23-5.92s-6.71-1.43-6.71-1.43c0,0-2.22-14.25-.14-27.85,1.65-10.77,3.42-13.58,3.42-13.58,0,0,7.52.12,16.47,4.63,8.95,4.51,25.62,24.76,25.62,24.76,0,0,8.74-7.2,18.19-18.57,7.9-9.51,18.19-23.81,25.11-44.09,1.35-3.97-7.32,4.09-6.26-.35l-36.04,20.64-23.93,5.56-7.28-8.73s-34.18,6.88-103.92-10.42c-65.9-16.35-98.53-45.2-98.53-45.2,0,0-.86,99.87,103.94,129.57,0,0,17.61,14.53,43.4,19.69v.02Z"/><g><path d="m299.53,440.27l17.49-.75c-1.25,1.77-3.89,6.12-5.89,8.83-1.78.8-6.5.69-12.95.69-5.09,0-10.93-.38-16.99-1.16-6.84-2.65-14.12-7.91-18.69-11.36,10.33,3.75,37.03,3.75,37.03,3.75h0Z"/><g><path class="uuid-f7781649-76e1-44b4-85bf-2cb5db06f6ae" d="m345.85,420.15c.91,7.61,5.87,14.72,9.05,13.21"/><path class="uuid-f7781649-76e1-44b4-85bf-2cb5db06f6ae" d="m357.59,368.15c-3.91,1.27-8.46,10.57-8.46,10.57"/><path class="uuid-f7781649-76e1-44b4-85bf-2cb5db06f6ae" d="m365.77,376.93c.81,2.81.44,6.74.44,6.74"/><path class="uuid-f7781649-76e1-44b4-85bf-2cb5db06f6ae" d="m375.84,391.39c27.34-6.78,45.94-18.94,45.94-18.94"/><path class="uuid-f7781649-76e1-44b4-85bf-2cb5db06f6ae" d="m305.26,388.93c-6.9,3.88-16.96,13.38-16.96,13.38,0,0-25.89-1.45-53.64-14.61"/><path class="uuid-f7781649-76e1-44b4-85bf-2cb5db06f6ae" d="m183.69,356.75c-9.65-4.5-18.55-12.21-18.55-12.21"/><path class="uuid-f7781649-76e1-44b4-85bf-2cb5db06f6ae" d="m262.5,436.52c18.96,6,54.52,3,54.52,3"/></g></g></g><g><path class="uuid-e151b05c-5576-4bb6-b555-654c00b076ba" d="m285.23,402.04s-17.84,21.72-41.45,34.31c-1.22.65-2.65.72-3.94.23-3.16-1.2-9.47-3.76-15.46-7.2-1.38-.79-2.27-2.21-2.4-3.79-.15-1.88-.3-4.52-.2-6.81,0,0,6.05,3.63,8.47,4.89,0,0,20.86-10.28,33.34-25.64,0,0,13.46,3.25,21.64,3.99v.02Z"/><g><path class="uuid-e151b05c-5576-4bb6-b555-654c00b076ba" d="m255.87,406.2c7.74,3.09,20.52,5.31,20.52,5.31"/><path class="uuid-e151b05c-5576-4bb6-b555-654c00b076ba" d="m245.98,414.29c8.29,4.28,19.77,6.99,19.77,6.99"/><path class="uuid-e151b05c-5576-4bb6-b555-654c00b076ba" d="m234.67,421.27c7.1,5.25,18.9,8.82,18.9,8.82"/></g><path class="uuid-f7781649-76e1-44b4-85bf-2cb5db06f6ae" d="m230.25,423.68c-3.14,1.72-4.59,1.01-4.59,1.01"/></g><g><path class="uuid-ac748af8-1ade-42a0-999e-0a2ce733572b" d="m160.3,324.43s21.12,15.53,34.57,21.27c0,0-29.63,28.9-30.64,31.83-1.01,2.93,7.1,18.21,7.1,18.21,0,0,9.38,10.52,31.32,9.96,0,0,15.57-3.8,17.09-4.3s26.8-25.18,26.8-25.18c0,0,33.1,13.52,58.72,12.71,0,0,27.78-16.72,52.33-20.78,4.83-.8,8.17,8.78,8.17,8.78,0,0,46.23-11.43,68.5-30.73l3.89-13.36s-32.3,16-38.39,18.77c-6.09,2.77-9.58,7.17-10.8,12.88,0,0-5.41-6.22-15.42-5.61-10.01.61-35.05,8.72-78.67.05-43.62-8.67-136.31-54.81-136.31-54.81,0,0-.17,10.86,1.73,20.31h0Z"/><path class="uuid-1baff137-1693-4b4b-a630-944b4a445ce9" d="m190.52,349.97l1.21,3.1-5.62,1.26-4.35,4.34s.46,1.94,2.21,2.08,12.02-.38,12.02-.38l9.05,9.63c.93.99,2.58.41,2.7-.94l.57-6.56,4.99-.39c1.48-.12,1.98-2.02.76-2.86l-6.83-4.64-.29-5.46c-.06-1.04-1.1-1.74-2.08-1.39l-6.05,2.14-5.91-2.27-2.38,2.34h0Z"/><g><path class="uuid-ac748af8-1ade-42a0-999e-0a2ce733572b" d="m194.87,345.7c2.93-2.8,1.21-5.78,1.21-5.78"/><path class="uuid-ac748af8-1ade-42a0-999e-0a2ce733572b" d="m246.54,376.22c4.15-4.15,7.69-3.44,7.69-3.44"/><path class="uuid-ac748af8-1ade-42a0-999e-0a2ce733572b" d="m181.58,402.21c-.16-10.42-5.72-15.88-5.72-15.88"/><path class="uuid-ac748af8-1ade-42a0-999e-0a2ce733572b" d="m188.66,404.42c15.82-16.77,20.79-12.53,20.97-10.15.3,3.93-6.57,5.11-6.57,5.11"/></g></g><g><path class="uuid-e151b05c-5576-4bb6-b555-654c00b076ba" d="m163.88,276.21l-1.03,7.03s112.9,81.34,203.12,57.16c4.51-1.21,9.14,1.49,10.21,6.04l2.12,9.04c1.04,4.43-1.7,8.86-6.13,9.89-7.25,1.69-19.8,4-38.99,5.62-32.93,2.77-108.69-13.12-175.39-61.23-2.96-2.13-4.66-5.6-4.52-9.24l.52-13.84c.2-5.15,3.99-9.46,9.07-10.3l1.02-.17h0Z"/><path class="uuid-e151b05c-5576-4bb6-b555-654c00b076ba" d="m390.47,340.24l2.55,9.52c1.12,4.19,5.71,6.39,9.67,4.64,9.73-4.3,26.86-12.96,39.6-25.3,2.24-2.17,3.59-5.09,3.72-8.2l.62-14.43c.24-5.5-3.29-10.46-8.57-12.05h0l.07,9.15s-17.38,15.96-43.79,28.45c-3.1,1.47-4.74,4.92-3.85,8.23h-.02Z"/><path class="uuid-f7781649-76e1-44b4-85bf-2cb5db06f6ae" d="m162.84,283.24c-2.15-1.47-2.15-2.51-2.15-2.51"/><path class="uuid-f7781649-76e1-44b4-85bf-2cb5db06f6ae" d="m438.12,303.56c2.38-1.92,2.73-2.98,2.73-2.98"/></g></g></g></svg>
<svg id="uuid-31565581-ca35-4969-9fd9-2072ce3d5031" data-name="BODY" xmlns="http://www.w3.org/2000/svg" viewBox="0 0 600 600"><defs><style>
      .uuid-d4efb741-f39c-4175-b36e-70da4e900c2a, .uuid-3a137114-0556-47bf-93c9-8d0537e58240 {
        fill: #7aa6ff;
      }

      .uuid-d4efb741-f39c-4175-b36e-70da4e900c2a, .uuid-3a137114-0556-47bf-93c9-8d0537e58240, .uuid-531241c1-13d8-410f-8dae-5bbada850f92, .uuid-1ab6c91c-7253-4ddf-ba98-d52b746628c1 {
        stroke: #000;
      }

      .uuid-d4efb741-f39c-4175-b36e-70da4e900c2a, .uuid-3a137114-0556-47bf-93c9-8d0537e58240, .uuid-531241c1-13d8-410f-8dae-5bbada850f92, .uuid-1ab6c91c-7253-4ddf-ba98-d52b746628c1, .uuid-ea35ab45-f2e3-4af5-9339-ec8c6da7eb39 {
        stroke-linecap: round;
        stroke-linejoin: round;
      }

      .uuid-d4efb741-f39c-4175-b36e-70da4e900c2a, .uuid-ea35ab45-f2e3-4af5-9339-ec8c6da7eb39 {
        stroke-width: 2px;
      }

      .uuid-3a137114-0556-47bf-93c9-8d0537e58240, .uuid-531241c1-13d8-410f-8dae-5bbada850f92, .uuid-1ab6c91c-7253-4ddf-ba98-d52b746628c1 {
        stroke-width: 2px;
      }

      .uuid-f5a6b52d-8cd9-4c8e-a14f-48a216007033 {
        fill: #f9a723;
      }

      .uuid-531241c1-13d8-410f-8dae-5bbada850f92 {
        fill: #fff7f0;
      }

      .uuid-1ab6c91c-7253-4ddf-ba98-d52b746628c1, .uuid-ea35ab45-f2e3-4af5-9339-ec8c6da7eb39 {
        fill: none;
      }

      .uuid-ea35ab45-f2e3-4af5-9339-ec8c6da7eb39 {
        stroke: #fff7f0;
      }
    </style></defs><g id="uuid-aa7dba29-6ee3-4191-9f6e-7d10b3fc19a7" data-name="uuid-cd416942-12e2-43f8-ae4e-d1c982c2d506"><g id="uuid-4128828c-817e-4372-b2c1-ac0ca83248cd" data-name="uuid-e8dcef20-5373-46c6-a16e-3fce2f927a1d"><g><rect class="uuid-d4efb741-f39c-4175-b36e-70da4e900c2a" x="480.68" y="291.97" width="80.06" height="93.21" transform="translate(-73.13 156.57) rotate(-15.99)"/><path class="uuid-3a137114-0556-47bf-93c9-8d0537e58240" d="m542.62,274.42c-6.78,3.79-15.92,7.76-36.39,13.63-20.47,5.87-30.32,7.34-38.08,7.71-7.76.38-8.71,12.78,1.28,14.22,7.73,1.12,18.56-.94,40.98-7.37,22.42-6.43,32.69-10.41,38.66-15.46,7.71-6.52.33-16.53-6.45-12.74h0Z"/><path class="uuid-3a137114-0556-47bf-93c9-8d0537e58240" d="m569.05,366.62c-6.78,3.79-15.92,7.76-36.39,13.63-20.47,5.87-30.32,7.34-38.08,7.71-7.76.38-8.71,12.78,1.28,14.22,7.73,1.12,18.56-.94,40.98-7.37,22.42-6.43,32.69-10.41,38.66-15.46,7.71-6.52.33-16.53-6.45-12.74h0Z"/><g><path class="uuid-f5a6b52d-8cd9-4c8e-a14f-48a216007033" d="m486.94,341.06s11.2,39.72,11.61,40.52,11.47.62,32.91-5.53c21.44-6.14,30.7-12.7,30.7-12.7l-11.61-40.52s-10.6-10.3-31.05-2.37c-16.78,6.51-14.91,13.92-32.56,20.6h0Z"/><circle class="uuid-f5a6b52d-8cd9-4c8e-a14f-48a216007033" cx="487.35" cy="330.31" r="3.44"/><circle class="uuid-f5a6b52d-8cd9-4c8e-a14f-48a216007033" cx="498.45" cy="322.54" r="6.14"/></g><g><rect class="uuid-ea35ab45-f2e3-4af5-9339-ec8c6da7eb39" x="495.42" y="313.65" width="12.23" height="64.13" rx="5.89" ry="5.89" transform="translate(-75.84 151.56) rotate(-15.99)"/><path class="uuid-ea35ab45-f2e3-4af5-9339-ec8c6da7eb39" d="m540.54,302.41h.44c3.25,0,5.89,2.64,5.89,5.89v52.35c0,3.25-2.64,5.89-5.89,5.89h-.44c-3.25,0-5.89-2.64-5.89-5.89v-52.35c0-3.25,2.64-5.89,5.89-5.89Z" transform="translate(-71.22 161.94) rotate(-15.99)"/><rect class="uuid-ea35ab45-f2e3-4af5-9339-ec8c6da7eb39" x="515.47" y="309.56" width="12.23" height="64.13" rx="5.89" ry="5.89" transform="translate(-73.94 156.93) rotate(-15.99)"/></g><g><path class="uuid-531241c1-13d8-410f-8dae-5bbada850f92" d="m463.03,298.89s-9.81-7.17.75-13.67c-4.98-5.29.9-8.2.9-8.2,0,0-1.5-13.45,14-8.16-.68-13.69,21.13-17.59,26.88-8.49,0,0,10.14-13.09,20.77-1.37,6.73-6.18,14.47-2.24,13.93,5.63,10.37-4.43,21.14,10.51,15.39,16.97,6.02,8.12,2.04,15.31-.64,16.52l6.2,21.62c2.02,7.03-4.01,9.2-7.81,9.46-3.8.25-8.01-4.14-10.65-12.56s-3.91-11.84-3.91-11.84c0,0-7.19.96-9.32-5.09s-6.56-7.97-6.56-7.97c0,0-9.06,8.57-15.89-.82-.61,5.05-11.29,6.31-11.29,6.31,0,0,3.26,7.56-2.89,10.41l4.32,15.06c1.08,3.77.05,8.84-5.08,9.71s-7.49-9.89-9.77-17.79c-2.27-7.9-3.04-10.6-3.04-10.6,0,0-8.22,3.16-10.7-8.29,0,0-3.89-.26-5.59,3.15h0Z"/><g><path class="uuid-1ab6c91c-7253-4ddf-ba98-d52b746628c1" d="m474.9,288.6s-.02-4.01,4.55-5.86c4.57-1.85,5.96.57,5.96.57,0,0,5.52-7.71,11.1-.9"/><path class="uuid-1ab6c91c-7253-4ddf-ba98-d52b746628c1" d="m496.79,265.33s6.93-10.33,16.76-.55"/><path class="uuid-1ab6c91c-7253-4ddf-ba98-d52b746628c1" d="m525.32,273.53s9.89-3.61,10.32,7.24"/><path class="uuid-1ab6c91c-7253-4ddf-ba98-d52b746628c1" d="m478.68,268.86c.09,2.66.61,4.23.61,4.23"/><path class="uuid-1ab6c91c-7253-4ddf-ba98-d52b746628c1" d="m464.67,277.01c1.72-.8,3.61-1.03,3.61-1.03"/></g></g></g></g></g></svg>
<svg id="uuid-304e6b1c-adf3-4938-b86f-18808d15f28a" data-name="BODY" xmlns="http://www.w3.org/2000/svg" xmlns:xlink="http://www.w3.org/1999/xlink" viewBox="0 0 600 600"><defs><style>
      .uuid-4df52052-1770-40d4-8106-076dbe4cf07f, .uuid-b32e8ccd-1edf-4401-b6d8-16e58badec10, .uuid-424ef470-d877-4567-bd72-49d411386bc2 {
        fill: none;
      }

      .uuid-b32e8ccd-1edf-4401-b6d8-16e58badec10 {
        clip-path: url(#uuid-e8076d28-252f-412e-9ac0-83e74d6132a1);
      }

      .uuid-a380e019-47bd-403d-b35c-b3f17b0c1504 {
        fill: #ffff0d;
      }

      .uuid-424ef470-d877-4567-bd72-49d411386bc2 {
        stroke: #000;
        stroke-linecap: round;
        stroke-linejoin: round;
        stroke-width: 2px;
      }
    </style><clipPath id="uuid-e8076d28-252f-412e-9ac0-83e74d6132a1"><path class="uuid-4df52052-1770-40d4-8106-076dbe4cf07f" d="m386.7,192.41s27.51,19.45,42.38,58.19l.33.87s-8.72-46.66-40.07-68.7c0,0,2.69-25.22-10.31-33.98,4.55,14.09,0,25.21,0,25.21,0,0-3.24-26.83-31.69-30.47-18.47-13.35-41.93-12.4-41.93-12.4l7.42,3.51s-37.62-8.36-75.91,3.24l18.88,1.89s-41.6-.88-62.43,28.25c-25.69,13.35-25.69,40.25-25.69,40.25,0,0,9.71-9.4,19.82-11.22-23.06,19.62-22.25,30.84-22.25,30.84l8.6-8.19s-14.66,23.16-15.67,24.57-19.72,9.71-31.04,2.83c1.62,6.88,12.03,11.93,12.03,11.93,0,0-18.91,3.24-26.09-9.81-2.22,5.56-.51,12.24-.51,12.24,0,0-5.11,10.52-.63,22.35,4.48,11.83,16.81,13.65,20.76,13.55,0,0-19.92,16.38-39.14-.51,1.82,16.69,19.52,20.93,19.52,20.93,0,0,14.56,23.36,43.08,3.64-8.9,16.58-4.65,32.87-4.65,32.87,0,0,7.18-11.93,15.27-15.07-6.98,12.13-3.44,34.18-3.44,34.18,0,0,19.72-33.47,37.31-43.58,17.6-10.11,62.29-26.7,72.4-44.7,10.11-18,1.48-29.33,1.48-29.33,0,0,.74-5.19,5.19-6.13,4.45-.94,20.56.61,29.19-15.37,8.7,2.7,20.49-7.96,20.49-7.96,0,0,19.48,2.63,28.58-14.63,17.73,3.17,28.72-19.28,28.72-19.28h0Z"/></clipPath></defs><g id="uuid-0a6c89ef-bc34-43d0-b36b-e097fede329b" data-name="uuid-27860d2a-070b-4b63-8098-32431e2aaf27"><g id="uuid-8acc9d46-7644-4422-b3b9-cd1dc47df6ca" data-name="uuid-34e0344d-9167-4332-8a66-86b9dfedfcdd"><g><path class="uuid-a380e019-47bd-403d-b35c-b3f17b0c1504" d="m386.7,192.41s27.51,19.45,42.38,58.19l.33.87s-8.72-46.66-40.07-68.7c0,0,2.69-25.22-10.31-33.98,4.55,14.09,0,25.21,0,25.21,0,0-3.24-26.83-31.69-30.47-18.47-13.35-41.93-12.4-41.93-12.4l7.42,3.51s-37.62-8.36-75.91,3.24l18.88,1.89s-41.6-.88-62.43,28.25c-25.69,13.35-25.69,40.25-25.69,40.25,0,0,9.71-9.4,19.82-11.22-23.06,19.62-22.25,30.84-22.25,30.84l8.6-8.19s-14.66,23.16-15.67,24.57-19.72,9.71-31.04,2.83c1.62,6.88,12.03,11.93,12.03,11.93,0,0-18.91,3.24-26.09-9.81-2.22,5.56-.51,12.24-.51,12.24,0,0-5.11,10.52-.63,22.35,4.48,11.83,16.81,13.65,20.76,13.55,0,0-19.92,16.38-39.14-.51,1.82,16.69,19.52,20.93,19.52,20.93,0,0,14.56,23.36,43.08,3.64-8.9,16.58-4.65,32.87-4.65,32.87,0,0,7.18-11.93,15.27-15.07-6.98,12.13-3.44,34.18-3.44,34.18,0,0,19.72-33.47,37.31-43.58,17.6-10.11,62.29-26.7,72.4-44.7,10.11-18,1.48-29.33,1.48-29.33,0,0,.74-5.19,5.19-6.13,4.45-.94,20.56.61,29.19-15.37,8.7,2.7,20.49-7.96,20.49-7.96,0,0,19.48,2.63,28.58-14.63,17.73,3.17,28.72-19.28,28.72-19.28h0Z"/><g class="uuid-b32e8ccd-1edf-4401-b6d8-16e58badec10"><g><path class="uuid-424ef470-d877-4567-bd72-49d411386bc2" d="m113.06,317.77c13.94,4.85,37.73-16.22,37.73-16.22"/><path class="uuid-424ef470-d877-4567-bd72-49d411386bc2" d="m132.68,297.34c9.06.05,18.11-14.22,18.11-14.22"/><path class="uuid-424ef470-d877-4567-bd72-49d411386bc2" d="m112.55,261.45c2.69,10.58,15.29,14.63,15.29,14.63"/><path class="uuid-424ef470-d877-4567-bd72-49d411386bc2" d="m111.02,265.99c.46,7.73,7.52,13.94,10.05,14.97"/><path class="uuid-424ef470-d877-4567-bd72-49d411386bc2" d="m158.16,244.25c-4.55,6.9-10.85,33.89-23.45,32.95"/><path class="uuid-424ef470-d877-4567-bd72-49d411386bc2" d="m173.83,219.68c10.52-10.27,27.45-17.14,27.45-17.14,0,0-22.38,8.18-29.43,36.67,13.45-15.14,31.41-15.42,31.41-15.42"/><path class="uuid-424ef470-d877-4567-bd72-49d411386bc2" d="m248.66,240.41s-26.6-21.64-56.53,4.92c5.93-26.56,27.24-32.9,38.83-32.22-6.88-8.63-20.22-3.64-20.22-3.64"/><path class="uuid-424ef470-d877-4567-bd72-49d411386bc2" d="m199.39,228.56c-23.43,14.16-43.05,46.31-43.05,46.31"/><path class="uuid-424ef470-d877-4567-bd72-49d411386bc2" d="m163.66,287.87c25.18-22.93,35.1-38.92,55.55-48.66"/><path class="uuid-424ef470-d877-4567-bd72-49d411386bc2" d="m236,244.25c-13.24,20.1-40.9,39.95-40.9,39.95"/><path class="uuid-424ef470-d877-4567-bd72-49d411386bc2" d="m179.98,295.79c-11.46,8.39-22.27,22.4-23.84,25.62"/><path class="uuid-424ef470-d877-4567-bd72-49d411386bc2" d="m166.75,339.21c8.38-16.47,23.5-29.95,43.48-42.59s40.3-29.67,40.19-47.63"/><path class="uuid-424ef470-d877-4567-bd72-49d411386bc2" d="m262,242.01c14.77-2.25,16.31-18.56,3.78-28.48s-47.28-17.14-47.28-17.14c0,0,27.78-21.38,58.39,6.16"/><path class="uuid-424ef470-d877-4567-bd72-49d411386bc2" d="m253.47,189.62c-18.89-7.06-32.48-4.1-32.48-4.1,0,0,23.76-20.8,58.51-3.9,34.75,16.9,33.04,45.28,29.41,52.66"/><path class="uuid-424ef470-d877-4567-bd72-49d411386bc2" d="m329.39,226.32c11.09-10.2,9.67-41.63,3.76-55.94-5.91-14.31-19.97-28.72-57.32-23.76"/><path class="uuid-424ef470-d877-4567-bd72-49d411386bc2" d="m275.83,179.95c-19.86-22.69-45.74-24.34-45.74-24.34,0,0,52.39-33.34,90.28,22.99"/><path class="uuid-424ef470-d877-4567-bd72-49d411386bc2" d="m255.78,139.76c6.63.97,15.78,6.35,15.78,6.35"/><path class="uuid-424ef470-d877-4567-bd72-49d411386bc2" d="m312.81,134.64c11.43,3.53,19.45,12.74,19.45,12.74,0,0-12.54-5.37-25.51-6.37,8.38,4.75,10.28,10.69,10.28,10.69"/><path class="uuid-424ef470-d877-4567-bd72-49d411386bc2" d="m347.33,143.53c24.93,22.6,21.3,47.71,10.65,68.16"/><path class="uuid-424ef470-d877-4567-bd72-49d411386bc2" d="m379.01,174.01c1.15,6.21-.58,11.97-.58,11.97"/><path class="uuid-424ef470-d877-4567-bd72-49d411386bc2" d="m386.7,192.41c2.03-4.82,2.63-9.64,2.63-9.64"/><path class="uuid-424ef470-d877-4567-bd72-49d411386bc2" d="m274.52,255.78c-2.42,6.08-5.31,14.88-14.5,21.93"/><path class="uuid-424ef470-d877-4567-bd72-49d411386bc2" d="m187.48,197.03c9.28-8.04,21.34-11.71,21.34-11.71"/><path class="uuid-424ef470-d877-4567-bd72-49d411386bc2" d="m193.35,168.01c7.39-3.72,15.47-6.51,15.47-6.51"/><path class="uuid-424ef470-d877-4567-bd72-49d411386bc2" d="m139.15,259.02c4.32-.81,5.87-2.2,5.87-2.2"/></g></g><path class="uuid-424ef470-d877-4567-bd72-49d411386bc2" d="m386.7,192.41s27.51,19.45,42.38,58.19l.33.87s-8.72-46.66-40.07-68.7c0,0,2.69-25.22-10.31-33.98,4.55,14.09,0,25.21,0,25.21,0,0-3.24-26.83-31.69-30.47-18.47-13.35-41.93-12.4-41.93-12.4l7.42,3.51s-37.62-8.36-75.91,3.24l18.88,1.89s-41.6-.88-62.43,28.25c-25.69,13.35-25.69,40.25-25.69,40.25,0,0,9.71-9.4,19.82-11.22-23.06,19.62-22.25,30.84-22.25,30.84l8.6-8.19s-14.66,23.16-15.67,24.57-19.72,9.71-31.04,2.83c1.62,6.88,12.03,11.93,12.03,11.93,0,0-18.91,3.24-26.09-9.81-2.22,5.56-.51,12.24-.51,12.24,0,0-5.11,10.52-.63,22.35,4.48,11.83,16.81,13.65,20.76,13.55,0,0-19.92,16.38-39.14-.51,1.82,16.69,19.52,20.93,19.52,20.93,0,0,14.56,23.36,43.08,3.64-8.9,16.58-4.65,32.87-4.65,32.87,0,0,7.18-11.93,15.27-15.07-6.98,12.13-3.44,34.18-3.44,34.18,0,0,19.72-33.47,37.31-43.58,17.6-10.11,62.29-26.7,72.4-44.7,10.11-18,1.48-29.33,1.48-29.33,0,0,.74-5.19,5.19-6.13,4.45-.94,20.56.61,29.19-15.37,8.7,2.7,20.49-7.96,20.49-7.96,0,0,19.48,2.63,28.58-14.63,17.73,3.17,28.72-19.28,28.72-19.28h0Z"/></g></g></g></svg>
</svg>