<?xml version="1.0" encoding="UTF-8"?>
<svg xmlns="http://www.w3.org/2000/svg" viewBox="0 0 600 600">
<svg id="uuid-b5df70f2-f26b-4cc4-9992-c02ca3e1ffe7" data-name="BACKGROUND" xmlns="http://www.w3.org/2000/svg" viewBox="0 0 600 600"><defs><style>
      .uuid-b49e1da8-89ab-4517-8063-4eac3fbcc068 {
        fill: #3ef1ff;
      }
    </style></defs><rect class="uuid-b49e1da8-89ab-4517-8063-4eac3fbcc068" x="-1" y="-1" width="602" height="602"/></svg>
<svg id="uuid-2e688e09-c4fe-4f4d-abf1-b0fbaf338f5b" data-name="BODY" xmlns="http://www.w3.org/2000/svg" viewBox="0 0 600 600"><defs><style>
      .uuid-eb2f9d7d-b927-4606-a144-95a98972db31 {
        fill: #fff;
      }

      .uuid-505f23ba-818d-453d-8ce0-ba561f80fb1c, .uuid-558f11d3-7dde-4524-89be-a8812332cdfc {
        stroke-miterlimit: 10;
      }

      .uuid-505f23ba-818d-453d-8ce0-ba561f80fb1c, .uuid-558f11d3-7dde-4524-89be-a8812332cdfc, .uuid-fd0f3372-5f7f-47e7-9d47-74d09a54ea2e, .uuid-8a42e792-8aec-4e83-b76a-8088904e37d9, .uuid-524e3d8f-4aaa-4994-b9e3-6b84067c906c {
        stroke: #000;
        stroke-width: 2px;
      }

      .uuid-505f23ba-818d-453d-8ce0-ba561f80fb1c, .uuid-558f11d3-7dde-4524-89be-a8812332cdfc, .uuid-fd0f3372-5f7f-47e7-9d47-74d09a54ea2e, .uuid-524e3d8f-4aaa-4994-b9e3-6b84067c906c {
        fill: #ffc9f1;
      }

      .uuid-558f11d3-7dde-4524-89be-a8812332cdfc, .uuid-fd0f3372-5f7f-47e7-9d47-74d09a54ea2e, .uuid-8a42e792-8aec-4e83-b76a-8088904e37d9 {
        stroke-linecap: round;
      }

      .uuid-fd0f3372-5f7f-47e7-9d47-74d09a54ea2e, .uuid-8a42e792-8aec-4e83-b76a-8088904e37d9, .uuid-524e3d8f-4aaa-4994-b9e3-6b84067c906c {
        stroke-linejoin: round;
      }

      .uuid-8a42e792-8aec-4e83-b76a-8088904e37d9 {
        fill: none;
      }
    </style></defs><ellipse cx="300" cy="518.65" rx="138.6" ry="22.93"/><g><path class="uuid-505f23ba-818d-453d-8ce0-ba561f80fb1c" d="m319.36,427.14c-1.16,1.05-54.95,57-54.95,57,0,0,21.51-1.95,31.74,10.62,10.23,12.57,7.26,23.89,7.26,23.89h-66.9s-28.69-36.17-28.69-36.17c0,0,3.74-13.4,20.44-10.59,20.9-19.38,55.52-59.13,55.52-59.13l35.59,14.38Z"/><path d="m283.78,412.76l31.28,12.64-3.24,9.5c-2.93,3.03-9.76,10.12-13.64,14.14-11.92,0-27.98-2.13-41.33-6.37,13.95-15.1,26.93-29.92,26.93-29.92Z"/></g><g><path class="uuid-fd0f3372-5f7f-47e7-9d47-74d09a54ea2e" d="m409.81,359.6c9.2,3.77,29.89,12.05,42.79,16.03,2.11.65,4.41.69,6.5-.04,11.79-4.08,28.47-11.39,33.03-11.32,5.25.08,7.8,3.93,19.88,2.04,13.36-2.1,22.43-11.99,20.93-23.3-4.21-43.28-25.18-26.79-25.18-26.79,0,0-5.84-8.75-18.76-4.82-11.83,3.6-10.2,14.44-6.47,22.47l-25.29,8.58c-2.14.72-4.45.71-6.59-.02l-35.7-12.61"/><path class="uuid-558f11d3-7dde-4524-89be-a8812332cdfc" d="m533.36,312.82c2.5,3.94,1.62,9.14-1.57,12.4-2.47,2.53-5.88,3.88-9.32,4.4-2.8.43-5.7.42-8.49-.08-2.14-.39-4.29-1.1-5.79-2.75-1.66-1.83-2.27-4.46-1.98-6.87.51-4.17,3.84-7.14,7.22-9.26,3.17-1.98,6.86-3.26,10.64-3.09,3.8.18,7.36,2.19,9.3,5.24Z"/><path class="uuid-558f11d3-7dde-4524-89be-a8812332cdfc" d="m538.57,349.84c.97,3.03.32,6.43-1.5,9.01-3.77,5.33-11.17,5.65-16.96,4.27-3.31-.79-6.69-2.21-8.67-5.13-3.13-4.61-.82-9.79,3.48-12.56,2.58-1.66,5.61-2.67,8.63-3.14,5.73-.89,13.1,1.51,15.03,7.56Z"/><path class="uuid-558f11d3-7dde-4524-89be-a8812332cdfc" d="m538.71,328.53c1.8,2.99,2.06,6.89.22,9.9-1.95,3.2-4.94,5.25-8.49,6.28-3.66,1.07-7.64,1.27-11.4.44-2.25-.5-4.53-1.38-5.96-3.28-1.86-2.47-1.89-5.68-.85-8.49,1.2-3.24,4.17-5.69,7.09-7.37,6.15-3.56,15.21-4.43,19.39,2.52Z"/><path class="uuid-558f11d3-7dde-4524-89be-a8812332cdfc" d="m501.85,311.68s9.27,3.84,7.77,12.02c-1.04,5.68-8.17,9.55-14.94,6.13"/><path class="uuid-8a42e792-8aec-4e83-b76a-8088904e37d9" d="m500.67,331.08c2.41,1.63,5.11,8.04,3.4,14.42"/><path d="m443.44,339.88c-2.88,10.58-6.94,20.23-11.17,28.59-10.17-3.78-21.16-9.53-27-11.93l11.83-26.02,26.35,9.36Z"/></g><g><circle class="uuid-505f23ba-818d-453d-8ce0-ba561f80fb1c" cx="300" cy="300" r="138.16"/><path class="uuid-eb2f9d7d-b927-4606-a144-95a98972db31" d="m184.58,308.17c-4.41,0-7.98-3.57-7.98-7.98,0-67.74,55.11-122.86,122.86-122.86,4.41,0,7.98,3.57,7.98,7.98s-3.57,7.98-7.98,7.98c-58.94,0-106.9,47.95-106.9,106.9,0,4.41-3.57,7.98-7.98,7.98Z"/></g><path class="uuid-8a42e792-8aec-4e83-b76a-8088904e37d9" d="m264.41,484.14c-4.06.49-11.49,1.36-17.85,7.23"/><path class="uuid-eb2f9d7d-b927-4606-a144-95a98972db31" d="m185.17,308.14c-4.41,0-7.98-3.57-7.98-7.98,0-67.74,55.11-122.86,122.86-122.86,4.41,0,7.98,3.57,7.98,7.98s-3.57,7.98-7.98,7.98c-58.94,0-106.9,47.95-106.9,106.9,0,4.41-3.57,7.98-7.98,7.98Z"/><path d="m203.75,397.46l34.2-27.46-24.86,36.3c-6.73-5.1-3.66-2.61-9.34-8.83Z"/><path class="uuid-524e3d8f-4aaa-4994-b9e3-6b84067c906c" d="m323.72,387.31c19.14-13.4,39.15-11.3,55.52,7.36,19.6,22.35,30.57,33.06,30.57,33.06,0,0,10.74-19.34,34.77-17.5,18.26,1.4,24.84,14.43,24.84,14.43,0,0,6.21,8.82-22.45,33.5-28.66,24.68-54.93,40.92-61.14,29.46-6.21-11.46-2.82-32.1-2.82-32.1,0,0-22.02-26.09-27.94-32.01-6.79-6.79-15.71-1.36-15.71-1.36"/><path class="uuid-505f23ba-818d-453d-8ce0-ba561f80fb1c" d="m446.97,458.17c-25.89,22.29-49.82,37.69-58.79,32.02-9.77-7.44,26.84-38.54,44.88-52.7,18.04-14.16,32.17-17.82,36.36-12.81,0,0,6.21,8.82-22.45,33.5Z"/><path class="uuid-8a42e792-8aec-4e83-b76a-8088904e37d9" d="m409.81,427.74c-1.89,2.86-4.55,10.38-4.55,10.38"/><g><path class="uuid-fd0f3372-5f7f-47e7-9d47-74d09a54ea2e" d="m214.11,345.7c-8.05,5.83-25.34,20.79-35.52,29.67-1.67,1.45-2.82,3.41-3.39,5.55-3.14,11.67-8.55,33.44-8.55,33.44,0,0-8.42.58-12.19,14.35-3.64,13.3-6.64,25.06,3.77,29.75.35,7.47,7.51,15.45,19.2,9.41.14-.06,1.32,1.32,1.44,1.45,2.64,2.7,6.36,4.45,10.13,4.81,3.65.36,7.61-.67,10.43-3.08,3.29-2.81,5.4-6.94,6.05-11.2.4-2.61.26-5.31-.75-7.78,0,0,6.2-2.51,8.05-11.34,1.99-9.49-4.22-19.42-14.62-18.18l6.17-23.11c.51-2.2,1.74-4.16,3.49-5.59l29.38-24.3"/><path class="uuid-8a42e792-8aec-4e83-b76a-8088904e37d9" d="m204.73,452.06c-1.37-3.47-5.39-7.08-9-6.88"/><path class="uuid-8a42e792-8aec-4e83-b76a-8088904e37d9" d="m178.86,469.3c-5.16-5.27-3.82-11.97-2.9-13.54"/><path class="uuid-8a42e792-8aec-4e83-b76a-8088904e37d9" d="m158.22,458.45c-.27-5.22.73-7.32,3.06-9.83"/><path class="uuid-8a42e792-8aec-4e83-b76a-8088904e37d9" d="m193.93,450.63c.14-2.07.48-4.16,1.32-6.06.85-1.95,2.36-3.88,4.31-4.85"/></g></svg>
<svg id="uuid-853b1779-0b40-4336-9fd3-56860412922a" data-name="BODY" xmlns="http://www.w3.org/2000/svg" viewBox="0 0 600 600"><defs><style>
      .uuid-270fe1d8-6ffc-45cd-908c-63708945a6da {
        fill: none;
        stroke: #000;
        stroke-linecap: round;
        stroke-miterlimit: 10;
        stroke-width: 4px;
      }
    </style></defs><path class="uuid-270fe1d8-6ffc-45cd-908c-63708945a6da" d="m378.79,259.75c-1.76-5.11-7.33-7.82-12.44-6.06s-7.82,7.33-6.06,12.44"/><circle cx="362.12" cy="293.18" r="9.78" transform="translate(-9.59 12.26) rotate(-1.91)"/><path class="uuid-270fe1d8-6ffc-45cd-908c-63708945a6da" d="m346.88,270.76c-1.76-5.11-7.33-7.82-12.44-6.06-5.11,1.76-7.82,7.33-6.06,12.44"/></svg>
<svg id="uuid-e27adad5-30bb-46c8-8e54-f8c1913f360c" data-name="BODY" xmlns="http://www.w3.org/2000/svg" xmlns:xlink="http://www.w3.org/1999/xlink" viewBox="0 0 600 600"><defs><style>
      .uuid-3fcb169e-3b1b-4e12-becc-5f80712b470c, .uuid-71f48634-c7c5-4ab0-b79f-ecd7a6ea3576, .uuid-1cfa6bdb-b40b-4a10-822f-5735a372275a {
        fill: none;
      }

      .uuid-399b8939-c3fd-4a77-bb11-cefdc3056a0b {
        fill: #ff78d8;
      }

      .uuid-692362c3-9c42-49ef-a7d9-00216a7861e4 {
        fill: #8400ff;
      }

      .uuid-c264d3ba-8696-457e-a5ac-d4558e99d766 {
        fill: #fff7f0;
      }

      .uuid-c264d3ba-8696-457e-a5ac-d4558e99d766, .uuid-4d4ae5f1-c6c3-49df-9321-b3c3eeaefea3, .uuid-71f48634-c7c5-4ab0-b79f-ecd7a6ea3576 {
        stroke: #000;
        stroke-linecap: round;
        stroke-linejoin: round;
      }

      .uuid-c264d3ba-8696-457e-a5ac-d4558e99d766, .uuid-71f48634-c7c5-4ab0-b79f-ecd7a6ea3576 {
        stroke-width: 2px;
      }

      .uuid-4d4ae5f1-c6c3-49df-9321-b3c3eeaefea3 {
        fill: #00dfa9;
        stroke-width: 2px;
      }

      .uuid-1cfa6bdb-b40b-4a10-822f-5735a372275a {
        clip-path: url(#uuid-47f39ff4-ab63-4b55-810f-676f2b09c621);
      }
    </style><clipPath id="uuid-47f39ff4-ab63-4b55-810f-676f2b09c621"><path class="uuid-3fcb169e-3b1b-4e12-becc-5f80712b470c" d="m273.7,388.15l-27.14,101.6-45.29-19.13c8.06-8.68,4.71-18.07,4.71-18.07,1.65-.63,8.95-7.38,8.08-16.55-1.46-15.37-14.56-14.54-14.56-14.54l5.48-20.55c.81-3.03,2.55-5.74,4.98-7.72l27.97-22.91,35.77,17.87h0Zm-108.69-32.21l-24.51-1.18-27.32,93.86s39.97,9.86,37.79,3.43c-2.18-6.43,0-14.66,3.27-25.72,3.28-11.07,11.55-12.86,11.55-12.86,0,0,6.12-24.01,6.65-26.08.52-2.08,1.79-7.38,3.06-9.79,1.27-2.4,4.84-5.11,4.84-5.11l-15.33-16.54h0Z"/></clipPath></defs><g id="uuid-b259e6eb-9282-4e58-986d-d3934aa91bcd" data-name="uuid-c570e703-2945-4177-b64d-06e285408742"><g id="uuid-c7bc8669-3c13-43c3-852a-c286d52fcb33" data-name="uuid-9f96e339-c3dc-4444-8fae-74ea4c1f77e1"><g class="uuid-1cfa6bdb-b40b-4a10-822f-5735a372275a"><g><rect class="uuid-4d4ae5f1-c6c3-49df-9321-b3c3eeaefea3" x="162.53" y="362.64" width="70.06" height="107.69" rx="1.7" ry="1.7" transform="translate(-259.02 479.93) rotate(-72.53)"/><g><polygon class="uuid-c264d3ba-8696-457e-a5ac-d4558e99d766" points="234.27 461.83 226.16 466.44 131.28 435.87 151.5 377.4 159.88 373.03 252.99 402.33 234.27 461.83"/><line class="uuid-71f48634-c7c5-4ab0-b79f-ecd7a6ea3576" x1="244.92" y1="406.8" x2="252.99" y2="402.33"/><line class="uuid-71f48634-c7c5-4ab0-b79f-ecd7a6ea3576" x1="237.13" y1="442.16" x2="230.21" y2="464.13"/><polyline class="uuid-c264d3ba-8696-457e-a5ac-d4558e99d766" points="237.95 400.92 249.01 404.4 241.6 427.95"/><line class="uuid-71f48634-c7c5-4ab0-b79f-ecd7a6ea3576" x1="197" y1="388.03" x2="229.22" y2="398.17"/><line class="uuid-71f48634-c7c5-4ab0-b79f-ecd7a6ea3576" x1="155.91" y1="375.1" x2="181.64" y2="383.2"/></g><rect class="uuid-4d4ae5f1-c6c3-49df-9321-b3c3eeaefea3" x="148.01" y="370.21" width="70.06" height="107.69" rx="1.7" ry="1.7" transform="translate(-276.4 471.38) rotate(-72.53)"/><path class="uuid-71f48634-c7c5-4ab0-b79f-ecd7a6ea3576" d="m232.42,402.86l-28.66,39.29,13.39,9.91,23.71-32.33s3.49-10.69,3.56-11.32.28-1.69-1.11-2.13l-10.89-3.43Z"/><polygon class="uuid-692362c3-9c42-49ef-a7d9-00216a7861e4" points="134.65 423.09 138.1 437.93 146.53 436.78 149.11 428.93 134.65 423.09"/><polygon class="uuid-692362c3-9c42-49ef-a7d9-00216a7861e4" points="139.78 439.85 147.96 438.94 150.4 431.37 152.94 443.92 139.78 439.85"/><polygon class="uuid-71f48634-c7c5-4ab0-b79f-ecd7a6ea3576" points="128.61 417.65 162.28 400.02 154.62 385.56 135.54 395.62 128.61 417.65"/><path class="uuid-399b8939-c3fd-4a77-bb11-cefdc3056a0b" d="m212.18,422.18s2.32-6.22,3.23-9.81c.91-3.59-4.98-6.51-7.32-.86-5.27-3.83-8.43,2.2-3.54,5.65,4.88,3.45,7.64,5.03,7.64,5.03h0Z"/><path d="m218.3,430.31c-2.04.6-2.41,3.38-1.34,4.96,1.17,1.74,3.59,2.12,5.28.89.94-.69,1.62-1.67,1.88-2.81.09-.39-.12-.81-.52-.92-.38-.1-.83.13-.92.52-.19.84-.67,1.6-1.41,2.06-.7.44-1.48.52-2.18.19-.68-.33-1.13-.98-1.21-1.68-.04-.38,0-.75.13-1.05.15-.35.39-.62.69-.71.92-.27.53-1.72-.4-1.45h0Z"/><path d="m222.53,423.92c-1.53.71-1.69,2.71-1.15,4.11.62,1.61,2.33,2.35,3.98,2.05,1.46-.27,2.65-1.52,2.92-2.96.27-1.48-.05-3.4-1.49-4.17-1.59-.84-3.37-.14-4.53,1.09-.66.7.4,1.77,1.06,1.06.32-.34.7-.66,1.12-.85.13-.06.27-.1.4-.13.1-.03.21-.04.25-.05.28-.02.41,0,.62.05.23.06.29.09.49.22.13.08.27.24.35.38.26.45.31,1.06.31,1.57-.01.98-.49,1.79-1.36,2.18-.72.33-1.91.22-2.47-.51-.34-.44-.46-1.09-.44-1.63.03-.54.25-.91.69-1.12.37-.17.46-.7.27-1.03-.22-.38-.66-.44-1.03-.27h0Z"/><path d="m227.6,416.59c-1.58,1.19-1.23,3.67,0,4.99,1.3,1.39,3.54,1.51,5,.33.79-.64,1.25-1.6,1.32-2.6.03-.4-.37-.75-.75-.75-.43,0-.72.34-.75.75-.04.59-.43,1.26-.97,1.6-.6.38-1.28.42-1.96.17-.6-.21-1.11-.78-1.31-1.39-.13-.39-.16-.67-.11-1.09-.01.08.03-.15.03-.14.03-.11.06-.23.1-.33-.04.08.09-.15.08-.13.02-.03.1-.12.08-.1.32-.24.49-.65.27-1.03-.19-.32-.7-.51-1.03-.27h0Z"/><path d="m232.5,409.97c-1.52.74-1.79,2.68-1.06,4.06.76,1.45,2.46,2.44,4.1,2.12,1.52-.29,2.73-1.67,3.04-3.15.32-1.57-.27-3.21-1.67-4.06-1.48-.9-3.51-.44-4.4,1.07-.49.83.8,1.59,1.3.76.2-.33.52-.59.89-.71.43-.13.8-.14,1.24.05.34.15.69.46.9.8.26.41.37.87.34,1.38-.05.97-.69,1.94-1.59,2.3-.41.17-.87.17-1.35.01-.48-.16-.92-.51-1.23-.9-.31-.39-.52-.93-.47-1.39.05-.46.31-.85.73-1.05.36-.18.46-.7.27-1.03-.22-.37-.66-.45-1.03-.27h0Z"/><path d="m213.42,443.88c1.02,1.34,2.9,1.53,4.26.56,1.36-.96,1.86-2.71,1.48-4.29-.21-.87-.81-1.46-1.71-1.57-.85-.1-1.68.26-2.36.74-.59.41-1.17.99-1.88,1.18-.48.13-1.04.04-1.12-.54-.09-.62.42-1.17.9-1.5.44-.3,1.22-.65,1.67-.28.31.26.76.3,1.06,0,.27-.27.31-.8,0-1.06-1.28-1.06-3.03-.49-4.13.56-.56.54-.95,1.24-1,2.02-.05.78.31,1.57.97,1.99.65.42,1.52.43,2.24.18.78-.27,1.38-.81,2.04-1.27.27-.19.56-.38.88-.47.23-.07.63-.17.83.02.15.14.18.45.21.63.05.34.04.7-.03,1.03-.16.7-.58,1.3-1.25,1.59-.55.23-1.36.23-1.76-.29-.25-.32-.65-.49-1.03-.27-.32.18-.52.7-.27,1.03h0Z"/><path d="m210.16,437.91c2.63,2.19,5.26,4.39,7.89,6.58.31.26.76.3,1.06,0,.27-.27.31-.8,0-1.06-2.63-2.19-5.26-4.39-7.89-6.58-.31-.26-.76-.3-1.06,0-.27.27-.31.8,0,1.06h0Z"/><path d="m131.34,409.07c1.43.92,3.03,1.47,4.72,1.68.39.05.77-.38.75-.75-.14-2.6-.34-5.21-.61-7.8-.04-.4-.32-.75-.75-.75-.37,0-.79.34-.75.75.26,2.6.47,5.2.61,7.8l.75-.75c-1.41-.18-2.76-.71-3.96-1.48-.81-.52-1.57.77-.76,1.3h0Z"/><path d="m139.73,397.4c-.56.36-1.19.68-1.7,1.11-.62.52-.39,1.18-.11,1.81.56,1.22,1.16,2.41,1.81,3.58.32.58.66,1.17,1.01,1.74.18.29.37.57.72.69.32.11.63.06.95-.03.81-.22,3.44-1.11,2.29-2.33-.66-.7-1.72.36-1.06,1.06l.04.05-.22-.53v.07s.09-.38.09-.38c.07-.11.02-.05-.06,0-.1.05-.19.11-.28.16-.15.08-.31.16-.47.22-.19.08-.72.34-.89.28l.33.19c-.23-.18-.37-.56-.52-.81-.17-.29-.34-.58-.5-.87-.36-.65-.71-1.3-1.05-1.96-.16-.32-.32-.64-.48-.96-.15-.3-.26-.7-.46-.97-.02-.04-.04-.08-.06-.13-.04.09-.08.17-.12.26.02.01.45-.29.49-.31l.98-.63c.81-.52.06-1.82-.76-1.3h0Z"/><path d="m142,400.83c-.66.28-1.29.62-1.87,1.03-.16.11-.29.25-.34.45-.05.18-.03.42.08.58.1.16.26.3.45.34.19.04.41.04.58-.08.59-.41,1.22-.75,1.87-1.03.16-.07.3-.29.34-.45.05-.18.03-.42-.08-.58-.1-.16-.26-.3-.45-.34l-.2-.03c-.14,0-.26.03-.38.1h0Z"/><path d="m147.93,403.17l-4.16-7.3-.27,1.03c.84-.45,2.18-.9,2.9.01.66.83-.47,1.76-1.07,2.21-.61.47.06,1.46.73,1.25.84-.25,2.62-.77,3.01.45.35,1.1-.85,1.81-1.74,2.01-.94.21-.54,1.66.4,1.45,1.72-.39,3.34-1.95,2.79-3.86-.26-.89-1.01-1.52-1.9-1.76-.99-.27-2-.02-2.96.26l.73,1.25c.65-.51,1.26-1.12,1.55-1.91.29-.81.12-1.68-.41-2.34-1.22-1.5-3.28-1.13-4.79-.33-.36.19-.46.69-.27,1.03l4.16,7.3c.48.84,1.77.08,1.3-.76h0Z"/><path d="m148.44,394.47c1.13-.75,2.33-1.38,3.61-1.84l-.95-.72c.04,1.18-.08,2.34-.36,3.49-.14.59.36,1.02.92.92.64-.12,1.37-.19,1.96.14.56.31.69.86.55,1.46-.1.46-.34,1.04-.82,1.2-.14.05-.3.03-.44-.03-.07-.03-.14-.08-.18-.12-.02-.02-.07-.13-.06-.07-.05-.4-.31-.75-.75-.75-.37,0-.8.35-.75.75.12,1.05,1.02,1.8,2.1,1.74,1.13-.06,1.92-.99,2.26-2,.38-1.11.23-2.41-.72-3.18-1.02-.83-2.32-.82-3.55-.59l.92.92c.31-1.27.46-2.58.41-3.89-.01-.45-.47-.89-.95-.72-1.4.5-2.73,1.16-3.97,1.99-.8.53-.05,1.83.76,1.3h0Z"/></g></g></g></g></svg>
<svg id="uuid-1b08aac9-9e08-4756-8d9e-8a9f6603c534" data-name="BODY" xmlns="http://www.w3.org/2000/svg" viewBox="0 0 600 600"><defs><style>
      .uuid-ac87fed6-fa30-4749-a240-d8828610f74f {
        fill: #00dfa9;
      }

      .uuid-1ff638b6-d0d1-4217-9825-a9422071689c {
        fill: #fff;
      }

      .uuid-872febec-4330-4ab2-a86b-49734363ee8d {
        fill: #ffff0d;
      }

      .uuid-8397099a-fe48-40cd-8fdd-5b593e433b66 {
        fill: #ff78d8;
      }

      .uuid-778e30d1-bd04-42f1-a7e6-ba8a3704772a {
        stroke-linecap: round;
        stroke-linejoin: round;
      }

      .uuid-778e30d1-bd04-42f1-a7e6-ba8a3704772a, .uuid-f1cf2760-0093-43d9-874f-71ff5def6357 {
        fill: none;
        stroke: #000;
        stroke-width: 2px;
      }

      .uuid-f1cf2760-0093-43d9-874f-71ff5def6357 {
        stroke-miterlimit: 10;
      }
    </style></defs><g id="uuid-798ab33b-e031-4a28-9cf1-199bb8f2066a" data-name="uuid-0591a78b-92e4-47f5-82f5-87bb82cff089"><g id="uuid-b84e47fe-6a5b-4076-8558-b05772d8acd0" data-name="uuid-ef3ece4f-8150-4652-82a9-55a11f34e840"><g id="uuid-a524eb37-ac85-42fb-8897-0cae06d4e47d" data-name="uuid-4dd11de8-2cdc-4aed-ae75-b123e92e7551"><path class="uuid-1ff638b6-d0d1-4217-9825-a9422071689c" d="m494.67,329.83s.94,43.86,1.14,58.12c.2,14.26,29.12,10.42,36.3,6.37l-2.02-5.06s9.99-3.71,6.94-13.13c-.08-.25-.17-.5-.27-.75-3.84-9.98-4.9-12.61-4.9-12.61,0,0-3.84,1.47-11.22.4-9.2-1.32-16.03-11.07-4.5-18.49,0,0-4.74-2.49-4.59-7.3.15-4.81,2.82-7.47,2.82-7.47,0,0-3.95-.82-6.08-2.91,0,0-4.96,6.88-13.61,2.82h-.01Z"/><path class="uuid-1ff638b6-d0d1-4217-9825-a9422071689c" d="m489.51,311.27l-14.63-29.66s1.69-13.55,17.93-16.79c16.25-3.24,24.61,9.03,24.61,9.03l-.57,34.87s-5.76,2.22-9.1,7.08c0,0-7.3-8.36-18.24-4.53h0Z"/></g><g id="uuid-1284ab39-adff-4632-966d-92d334e68346" data-name="uuid-8b80c383-2de1-459e-b0cd-74fd20d90043"><path class="uuid-ac87fed6-fa30-4749-a240-d8828610f74f" d="m476.28,284.44s.82-8.1,7.7-8.77c6.88-.67,7.96,7.15,6,14.09-1.96,6.94-6.42,9.17-6.42,9.17l-7.28-14.49h0Z"/><path class="uuid-872febec-4330-4ab2-a86b-49734363ee8d" d="m493.89,267.16c-4.85.86-3.59,7.53,1.37,6.88,4.96-.66,3.49-7.74-1.37-6.88Z"/><path class="uuid-8397099a-fe48-40cd-8fdd-5b593e433b66" d="m517.34,278.53c-2.27-6.98-12.33-9.33-14.96-2.91-2.56,6.26,2.94,14.76,8.85,16.1,3.99.91,5.9-.51,5.9-.51l.21-12.69h0Z"/><path class="uuid-872febec-4330-4ab2-a86b-49734363ee8d" d="m507.49,296.02s-4.55-3.43-8.24.52c-3.69,3.94,1.62,12.36,9.84,11.58,6.04-.57,3.17-8.48-.82-9.15l-.77-2.95h-.01Z"/><path class="uuid-8397099a-fe48-40cd-8fdd-5b593e433b66" d="m495.02,346.73c9.79-.47,12.65,12.77.37,18.05l-.37-18.05Z"/><path class="uuid-8397099a-fe48-40cd-8fdd-5b593e433b66" d="m514.15,371.23c.22,10.55,13.47,9.54,13.74-1.01,0,0-9.31-1.15-13.74,1.01Z"/><path class="uuid-ac87fed6-fa30-4749-a240-d8828610f74f" d="m506.86,373.81c.93,7.57-3.84,17.2-8.84,8.82,3.5-6.31,8.84-8.82,8.84-8.82Z"/><path class="uuid-872febec-4330-4ab2-a86b-49734363ee8d" d="m512.79,389.84c.82-8.86,13.61-8.68,15.38,0,0,0-1.52,1.56-7.43,1.53-5.91-.03-7.95-1.53-7.95-1.53Z"/><path class="uuid-8397099a-fe48-40cd-8fdd-5b593e433b66" d="m517.55,397.84c-2.43-7.41-14.01-7.71-15.85-1.75,7.71,3.39,15.85,1.75,15.85,1.75Z"/><path class="uuid-872febec-4330-4ab2-a86b-49734363ee8d" d="m510.37,356.1c-8.49,2.16-5.54,12.11,1.31,11.33,5.02-.57,5.51-5.17,5.51-5.17,0,0-2.14-.83-4.19-2.24s-2.63-3.91-2.63-3.91h0Z"/><path class="uuid-ac87fed6-fa30-4749-a240-d8828610f74f" d="m525.84,363.71c1.18,4.82,7.79,3.58,7.79,3.58l-1.78-4.52-6.02.94h.01Z"/><path class="uuid-ac87fed6-fa30-4749-a240-d8828610f74f" d="m514.28,343.96c-4.75,2.7-10.35.66-11.36-5.67l3.64-2.86,5.19-.57s-.74,1.38.2,4.99c.94,3.61,2.33,4.11,2.33,4.11h0Z"/></g><g><path class="uuid-778e30d1-bd04-42f1-a7e6-ba8a3704772a" d="m494.67,329.83s.94,43.86,1.14,58.12c.2,14.26,29.12,10.42,36.3,6.37l-2.02-5.06s9.99-3.71,6.94-13.13c-.08-.25-.17-.5-.27-.75-3.84-9.98-4.9-12.61-4.9-12.61,0,0-3.84,1.47-11.22.4-9.2-1.32-16.03-11.07-4.5-18.49,0,0-4.74-2.49-4.59-7.3.15-4.81,2.82-7.47,2.82-7.47,0,0-3.95-.82-6.08-2.91,0,0-4.96,6.88-13.61,2.82h-.01Z"/><path class="uuid-778e30d1-bd04-42f1-a7e6-ba8a3704772a" d="m489.51,311.27l-14.63-29.66s1.69-13.55,17.93-16.79c16.25-3.24,24.61,9.03,24.61,9.03l-.57,34.87s-5.76,2.22-9.1,7.08c0,0-7.3-8.36-18.24-4.53h0Z"/></g><line class="uuid-778e30d1-bd04-42f1-a7e6-ba8a3704772a" x1="505.55" y1="281.33" x2="509.78" y2="313.39"/><line class="uuid-778e30d1-bd04-42f1-a7e6-ba8a3704772a" x1="491.33" y1="297.65" x2="499.99" y2="310.99"/><path class="uuid-f1cf2760-0093-43d9-874f-71ff5def6357" d="m530.09,389.27c-6.34,3.1-16.38,3.03-20.76-1.96l-.5-14.52"/><path class="uuid-f1cf2760-0093-43d9-874f-71ff5def6357" d="m536.88,375.69c-1.68-4.38-8.61-7.31-21.96-4.83-13.35,2.48-19.23,13.86-18.98,18.52"/><polygon points="494.45 338 504.61 338.27 511.55 336.98 512.39 333.19 514.36 329.92 508.28 327.01 504.2 329.93 499.86 330.82 495.02 330.36 494.45 338"/></g></g></svg>
<svg id="uuid-5aa58eb9-9bc6-4246-98de-131b720bf369" data-name="BACKGROUND" xmlns="http://www.w3.org/2000/svg" xmlns:xlink="http://www.w3.org/1999/xlink" viewBox="0 0 600 600"><defs><style>
      .uuid-6985aa11-eb3f-4542-be5e-f06f163ab65a, .uuid-5d79269c-c705-4c92-bb8d-c7e355f5705c, .uuid-2a46fcf3-d87b-499e-8994-9a2b0673d8f4 {
        fill: none;
      }

      .uuid-97bf1ed2-1a68-4096-ad51-e16721e1321e {
        fill: #8400ff;
      }

      .uuid-97bf1ed2-1a68-4096-ad51-e16721e1321e, .uuid-cb8afc3d-b574-4149-9ebb-d08ea80dfdfd, .uuid-1158b133-ee03-42db-b9a0-a64a151692b9, .uuid-2d1bf830-110e-4ac0-acda-42bab81d5de9, .uuid-5d79269c-c705-4c92-bb8d-c7e355f5705c {
        stroke: #000;
        stroke-linecap: round;
        stroke-linejoin: round;
        stroke-width: 2px;
      }

      .uuid-cb8afc3d-b574-4149-9ebb-d08ea80dfdfd {
        fill: #353434;
      }

      .uuid-85d6e4d8-f77b-4b1d-bcab-475cfb014682 {
        fill: #3ef1ff;
      }

      .uuid-f90b45a5-d844-45d8-a5a5-02f5b3de003f {
        fill: #7aa6ff;
      }

      .uuid-1158b133-ee03-42db-b9a0-a64a151692b9 {
        fill: #a07bff;
      }

      .uuid-2d1bf830-110e-4ac0-acda-42bab81d5de9 {
        fill: #fff7f0;
      }

      .uuid-2a46fcf3-d87b-499e-8994-9a2b0673d8f4 {
        clip-path: url(#uuid-6161bbbb-bf7d-42ee-9eca-ac79318819d2);
      }
    </style><clipPath id="uuid-6161bbbb-bf7d-42ee-9eca-ac79318819d2"><path class="uuid-6985aa11-eb3f-4542-be5e-f06f163ab65a" d="m375.6,186.05c-3.67.37-7.36.83-11.04,1.37-1.16.17-1.77,1.49-1.14,2.49l2.05,3.28-4.85,5.97-40.96,9-1.31-10.32c-28.14,8.26-51.37,18.18-60.09,22.08-2.32,1.04-3.91,3.23-4.19,5.75-2.66,23.72-1.67,49.45-1.15,59.16.13,2.4,1.82,4.44,4.17,4.98,28.18,6.48,66.81,4.95,76.15,4.46,1.37-.07,2.62-.75,3.46-1.83,5.25-6.81,12.72-19.03,17.8-27.6,3.15-5.33,9.95-7.2,15.39-4.24l19.74,10.76c1.91,1.04,4.28.63,5.73-.99,9.99-11.15,18.56-23.84,23.37-31.39-13.65-21.51-34.2-43.68-43.12-52.92h0Z"/></clipPath></defs><g id="uuid-c1f37cab-67de-48fd-b7c5-98f83c88d0d7" data-name="uuid-908dc865-47bc-4301-990e-3d26525beded"><g id="uuid-41f759df-2a39-427c-9fc3-5ca925ac0198" data-name="uuid-845ae38f-23fa-4152-997a-f63073291681"><g id="uuid-0c819a8e-b91b-440c-a085-3351f77862d1" data-name="uuid-94b65ef2-ffe4-4b12-b92b-e951dcaa643d"><g><g><path class="uuid-97bf1ed2-1a68-4096-ad51-e16721e1321e" d="m244.57,212.86l-11.32,8.25c-2.86,2.09-4.69,5.28-5.03,8.81-.62,6.42-1.5,18.09-1.66,33.49-.16,14.85-.18,28.27,1.21,33.53.79,3,3.13,5.34,6.14,6.11,7.64,1.96,26.17,4.67,52.79,6.79,18.99,1.52,36.78,1.45,48.28-3.02,2.98-1.16,6.28-3.72,7.34-4.99,1.84-2.2-88.59-7.07-88.59-7.07l-7.82-59.28-1.36-22.63h0Z"/><line class="uuid-5d79269c-c705-4c92-bb8d-c7e355f5705c" x1="241.84" y1="295.33" x2="230.86" y2="301.57"/><path class="uuid-97bf1ed2-1a68-4096-ad51-e16721e1321e" d="m359.15,276.99l18.34,9.92c4.86,2.63,10.77,2.36,15.37-.69l3.22-2.13-32.64-18.09-6.37,3.44,2.08,7.56h0Z"/></g><path class="uuid-1158b133-ee03-42db-b9a0-a64a151692b9" d="m247.06,211.14c16.74-7.73,77.92-34.28,136.47-38.28,2.08-.14,4.13.54,5.72,1.89,7.17,6.05,28.04,24.98,43.62,52.38,1.5,2.63,1.39,5.89-.27,8.42-6.04,9.21-21.4,32.01-35.82,47.95-1.23,1.36-3.22,1.7-4.82.83l-24.77-13.41c-1.88-1.02-4.23-.36-5.3,1.48-3.64,6.27-11.87,20-18.93,28.85-.71.89-1.77,1.44-2.91,1.49-10.15.46-61.6,2.3-95.21-5.51-2.35-.55-4.04-2.59-4.15-5-.55-11.52-1.78-45.66,1.35-74.09.34-3.06,2.25-5.7,5.04-6.99h0Z"/><path class="uuid-97bf1ed2-1a68-4096-ad51-e16721e1321e" d="m375.6,186.05c8.92,9.24,29.47,31.42,43.12,52.92,1.07-1.68,1.95-3.1,2.62-4.2.93-1.52.92-3.44-.03-4.95-14.99-23.69-30.23-38.7-34.99-43.12-.95-.89-2.23-1.33-3.52-1.24-4.67.31-9.14.79-7.19.59h0Z"/><g><path class="uuid-f90b45a5-d844-45d8-a5a5-02f5b3de003f" d="m375.6,186.05c-3.67.37-7.36.83-11.04,1.37-1.16.17-1.77,1.49-1.14,2.49l2.05,3.28-4.85,5.97-40.96,9-1.31-10.32c-28.14,8.26-51.37,18.18-60.09,22.08-2.32,1.04-3.91,3.23-4.19,5.75-2.66,23.72-1.67,49.45-1.15,59.16.13,2.4,1.82,4.44,4.17,4.98,28.18,6.48,66.81,4.95,76.15,4.46,1.37-.07,2.62-.75,3.46-1.83,5.25-6.81,12.72-19.03,17.8-27.6,3.15-5.33,9.95-7.2,15.39-4.24l19.74,10.76c1.91,1.04,4.28.63,5.73-.99,9.99-11.15,18.56-23.84,23.37-31.39-13.65-21.51-34.2-43.68-43.12-52.92h0Z"/><g class="uuid-2a46fcf3-d87b-499e-8994-9a2b0673d8f4"><g><path class="uuid-85d6e4d8-f77b-4b1d-bcab-475cfb014682" d="m335.95,191.43c.3,4.33.59,10.52.32,15.69-.47,8.99-5.39,9.72-6.51,4.36-.82-3.96-1.53-15.31-1.85-20.97l-20.85,6.39c1.53,9.3,3.02,24.99-4.37,25.37-8.16.42-9.66-14.35-9.93-20.98l-9.83,3.01s.81,13.55.61,19.82c-.2,6.27-9.3,6.67-9.61,15.27-.3,8.6,2.33,57.64,2.33,57.64h56.43s-1.01-48.54-1.01-61.08,9.09-13.51,9.33-22.83c.24-9.32,0-20.79,0-20.79l-5.07-.91h0Zm-51.52,46.05c7.35.24,9.5,22.41,2.49,22.9-7.01.49-7.85-23.08-2.49-22.9h0Zm4.11,39.74c-4.45.13-4.99-9.37-.27-9.84,4.03-.4,4.72,9.71.27,9.84Z"/><path class="uuid-85d6e4d8-f77b-4b1d-bcab-475cfb014682" d="m276.45,227.21c4.45-.13,3.76-10.25-.27-9.84-4.72.47-4.18,9.98.27,9.84Z"/><path class="uuid-85d6e4d8-f77b-4b1d-bcab-475cfb014682" d="m260.8,279.24c-.51,5.35-.51,18.61-.51,18.61l-2.93,2.15,12.54,2.1s.61-9.4-.71-19.72-7.89-8.49-8.39-3.14h0Z"/><path class="uuid-85d6e4d8-f77b-4b1d-bcab-475cfb014682" d="m394.72,237.31c-4.58,0-4.92,15.98-.67,16.31,4.25.34,3.78-16.31.67-16.31Z"/><path class="uuid-85d6e4d8-f77b-4b1d-bcab-475cfb014682" d="m353.98,218.97c4.25.34,3.78-16.31.67-16.31-4.58,0-4.92,15.98-.67,16.31Z"/><path class="uuid-85d6e4d8-f77b-4b1d-bcab-475cfb014682" d="m399.37,216.21c-.09-10.79-.79-40.46-.79-40.46l-35.75,5.31s-.22,12.74-.51,28.21c-.29,15.47-10.82,16.58-10.82,24.57v40.45h16.65c.5-5.74,1.58-18.19,2.26-25.18.69-7.06,7.69-9.61,7.99-1.72.23,5.87.12,20.05.04,26.9h7.44s.4-18.44.81-31.57c.4-13.13,12.81-10.6,12.67-26.51h0Zm-9.1-5.39c3.17.09,4.31,11.73-1.01,11.6s-3.84-11.73,1.01-11.6Z"/></g></g><path class="uuid-5d79269c-c705-4c92-bb8d-c7e355f5705c" d="m375.6,186.05c-3.67.37-7.36.83-11.04,1.37-1.16.17-1.77,1.49-1.14,2.49l2.05,3.28-4.85,5.97-40.96,9-1.31-10.32c-28.14,8.26-51.37,18.18-60.09,22.08-2.32,1.04-3.91,3.23-4.19,5.75-2.66,23.72-1.67,49.45-1.15,59.16.13,2.4,1.82,4.44,4.17,4.98,28.18,6.48,66.81,4.95,76.15,4.46,1.37-.07,2.62-.75,3.46-1.83,5.25-6.81,12.72-19.03,17.8-27.6,3.15-5.33,9.95-7.2,15.39-4.24l19.74,10.76c1.91,1.04,4.28.63,5.73-.99,9.99-11.15,18.56-23.84,23.37-31.39-13.65-21.51-34.2-43.68-43.12-52.92h0Z"/></g><g><path class="uuid-97bf1ed2-1a68-4096-ad51-e16721e1321e" d="m318.34,197.84l5.96-1.88c1.07-.34,2.19.37,2.34,1.49l.46,3.39,38.36-7.65-4.85,5.97-40.96,9-1.31-10.32h0Z"/><line class="uuid-5d79269c-c705-4c92-bb8d-c7e355f5705c" x1="327.1" y1="200.84" x2="319.65" y2="208.15"/></g></g><path class="uuid-cb8afc3d-b574-4149-9ebb-d08ea80dfdfd" d="m183.48,225.72l-4.43,7.43s5.38,2.75,23.4,4.63c16.18,1.69,30.94.94,30.94.94,0,0-.51,37.69,0,46.58,0,0-25.38-.91-47.83-5.97-22.45-5.06-30.64-11.12-30.64-11.12,0,0,3.14-12.81,6.91-22.48,3.77-9.65,8.66-18.78,8.66-18.78l12.99-1.24h0Z"/><path class="uuid-97bf1ed2-1a68-4096-ad51-e16721e1321e" d="m200.23,240.61l-12.83,35.19s7.99,2.83,21.53,4.55c13.55,1.72,20.73,2.02,20.73,2.02l.61-40.34-30.03-1.43h0Z"/><path class="uuid-2d1bf830-110e-4ac0-acda-42bab81d5de9" d="m233.39,238.73s-14.76.74-30.94-.94c-.89-.09-1.74-.19-2.57-.28-1.03-.12-2.01.49-2.36,1.47l-13.59,37.42c-.46,1.27.29,2.66,1.61,2.96,0,0,.02,0,.03,0,22.45,5.06,47.83,5.97,47.83,5.97-.51-8.9,0-46.58,0-46.58h0Zm-6.6,40.51s-16.46-.4-34.23-3.84c0,0-.01,0-.02,0-1.03-.23-1.62-1.32-1.26-2.31l10.6-29.19c.28-.76,1.04-1.24,1.84-1.14.64.08,1.31.15,2,.22,12.62,1.31,22.04.81,22.04.81,0,0-.78,28.64-.99,35.45h0Z"/><g><circle cx="205.75" cy="256.06" r="3.23"/><circle cx="220.1" cy="257.16" r="3.23"/><circle cx="212.15" cy="266.64" r="3.23"/></g><g><line class="uuid-5d79269c-c705-4c92-bb8d-c7e355f5705c" x1="160.57" y1="261.93" x2="163.1" y2="268.09"/><line class="uuid-5d79269c-c705-4c92-bb8d-c7e355f5705c" x1="163.83" y1="251.26" x2="173.64" y2="272.6"/><line class="uuid-5d79269c-c705-4c92-bb8d-c7e355f5705c" x1="167.6" y1="242.04" x2="181.11" y2="271.41"/><line class="uuid-5d79269c-c705-4c92-bb8d-c7e355f5705c" x1="172.21" y1="231.62" x2="185.71" y2="260.99"/><line class="uuid-5d79269c-c705-4c92-bb8d-c7e355f5705c" x1="185.02" y1="238.64" x2="189.77" y2="248.98"/></g></g></g></g></svg>
</svg>