<?xml version="1.0" encoding="UTF-8"?>
<svg xmlns="http://www.w3.org/2000/svg" viewBox="0 0 600 600">
<svg id="uuid-b5df70f2-f26b-4cc4-9992-c02ca3e1ffe7" data-name="BACKGROUND" xmlns="http://www.w3.org/2000/svg" viewBox="0 0 600 600"><defs><style>
      .uuid-b49e1da8-89ab-4517-8063-4eac3fbcc068 {
        fill: #3ef1ff;
      }
    </style></defs><rect class="uuid-b49e1da8-89ab-4517-8063-4eac3fbcc068" x="-1" y="-1" width="602" height="602"/></svg>
<svg id="uuid-e5c605a8-e4f9-4978-ad72-5db31b65b190" data-name="BACKGROUND" xmlns="http://www.w3.org/2000/svg" viewBox="0 0 600 600"><defs><style>
      .uuid-883efea5-677f-4371-9dc7-5cd56130fbcb, .uuid-d3f758ac-5239-4a0a-b4e9-3b31a4d26e61 {
        fill: #fff;
      }

      .uuid-d3f758ac-5239-4a0a-b4e9-3b31a4d26e61, .uuid-7f242137-77c3-4516-b3dd-e07924d8b27d, .uuid-446566b0-e754-4323-8c0e-f2552727105b, .uuid-0f9d5605-abaf-429f-9eda-0762dec12f88, .uuid-dee44871-50d0-4ac4-9972-c62084d34d89, .uuid-4c0d796b-ae01-4a35-8369-ec5c74e01e56, .uuid-8394a5ef-9c6d-414e-8d02-2034ddcfd3a6 {
        stroke: #000;
        stroke-width: 2px;
      }

      .uuid-d3f758ac-5239-4a0a-b4e9-3b31a4d26e61, .uuid-7f242137-77c3-4516-b3dd-e07924d8b27d, .uuid-dee44871-50d0-4ac4-9972-c62084d34d89, .uuid-4c0d796b-ae01-4a35-8369-ec5c74e01e56 {
        stroke-miterlimit: 10;
      }

      .uuid-d3f758ac-5239-4a0a-b4e9-3b31a4d26e61, .uuid-446566b0-e754-4323-8c0e-f2552727105b, .uuid-0f9d5605-abaf-429f-9eda-0762dec12f88, .uuid-dee44871-50d0-4ac4-9972-c62084d34d89, .uuid-4c0d796b-ae01-4a35-8369-ec5c74e01e56 {
        stroke-linecap: round;
      }

      .uuid-7f242137-77c3-4516-b3dd-e07924d8b27d, .uuid-446566b0-e754-4323-8c0e-f2552727105b, .uuid-dee44871-50d0-4ac4-9972-c62084d34d89, .uuid-8394a5ef-9c6d-414e-8d02-2034ddcfd3a6 {
        fill: #a07bff;
      }

      .uuid-446566b0-e754-4323-8c0e-f2552727105b, .uuid-0f9d5605-abaf-429f-9eda-0762dec12f88, .uuid-8394a5ef-9c6d-414e-8d02-2034ddcfd3a6 {
        stroke-linejoin: round;
      }

      .uuid-0f9d5605-abaf-429f-9eda-0762dec12f88 {
        fill: none;
      }

      .uuid-4c0d796b-ae01-4a35-8369-ec5c74e01e56 {
        fill: #8400ff;
      }
    </style></defs><path class="uuid-446566b0-e754-4323-8c0e-f2552727105b" d="m409.81,359.6c9.2,3.77,29.89,12.05,42.79,16.03,2.11.65,4.41.69,6.5-.04,11.79-4.08,28.47-11.39,33.03-11.32,5.25.08,7.8,3.93,19.88,2.04,13.36-2.1,22.43-11.99,20.93-23.3-4.21-43.28-25.18-26.79-25.18-26.79,0,0-5.84-8.75-18.76-4.82-11.83,3.6-10.2,14.44-6.47,22.47l-25.29,8.58c-2.14.72-4.45.71-6.59-.02l-35.7-12.61"/><path class="uuid-dee44871-50d0-4ac4-9972-c62084d34d89" d="m533.36,312.82c2.5,3.94,1.62,9.14-1.57,12.4-2.47,2.53-5.88,3.88-9.32,4.4-2.8.43-5.7.42-8.49-.08-2.14-.39-4.29-1.1-5.79-2.75-1.66-1.83-2.27-4.46-1.98-6.87.51-4.17,3.84-7.14,7.22-9.26,3.17-1.98,6.86-3.26,10.64-3.09,3.8.18,7.36,2.19,9.3,5.24Z"/><path class="uuid-dee44871-50d0-4ac4-9972-c62084d34d89" d="m538.57,349.84c.97,3.03.32,6.43-1.5,9.01-3.77,5.33-11.17,5.65-16.96,4.27-3.31-.79-6.69-2.21-8.67-5.13-3.13-4.61-.82-9.79,3.48-12.56,2.58-1.66,5.61-2.67,8.63-3.14,5.73-.89,13.1,1.51,15.03,7.56Z"/><path class="uuid-dee44871-50d0-4ac4-9972-c62084d34d89" d="m538.71,328.53c1.8,2.99,2.06,6.89.22,9.9-1.95,3.2-4.94,5.25-8.49,6.28-3.66,1.07-7.64,1.27-11.4.44-2.25-.5-4.53-1.38-5.96-3.28-1.86-2.47-1.89-5.68-.85-8.49,1.2-3.24,4.17-5.69,7.09-7.37,6.15-3.56,15.21-4.43,19.39,2.52Z"/><path class="uuid-dee44871-50d0-4ac4-9972-c62084d34d89" d="m501.85,311.68s9.27,3.84,7.77,12.02c-1.04,5.68-8.17,9.55-14.94,6.13"/><path class="uuid-0f9d5605-abaf-429f-9eda-0762dec12f88" d="m500.67,331.08c2.41,1.63,5.11,8.04,3.4,14.42"/><path d="m443.44,339.88c-2.88,10.58-6.94,20.23-11.17,28.59-10.17-3.78-21.16-9.53-27-11.93l11.83-26.02,26.35,9.36Z"/><ellipse cx="300" cy="518.65" rx="138.6" ry="22.93"/><path class="uuid-7f242137-77c3-4516-b3dd-e07924d8b27d" d="m319.36,427.14c-1.16,1.05-54.95,57-54.95,57,0,0,21.51-1.95,31.74,10.62,10.23,12.57,7.26,23.89,7.26,23.89h-66.9s-28.69-36.17-28.69-36.17c0,0,3.74-13.4,20.44-10.59,20.9-19.38,55.52-59.13,55.52-59.13l35.59,14.38Z"/><path d="m283.78,412.76l31.28,12.64-3.24,9.5c-2.93,3.03-9.76,10.12-13.64,14.14-11.92,0-27.98-2.13-41.33-6.37,13.95-15.1,26.93-29.92,26.93-29.92Z"/><path class="uuid-7f242137-77c3-4516-b3dd-e07924d8b27d" d="m354.45,173.54l-.11.27-174.2,58.29c-11.49,20.13-18.05,43.43-18.05,68.27,0,76.2,61.77,137.98,137.97,137.98s137.98-61.77,137.98-137.98c0-56.89-34.43-105.72-83.58-126.83Z"/><path class="uuid-0f9d5605-abaf-429f-9eda-0762dec12f88" d="m264.41,484.14c-4.06.49-11.49,1.36-17.85,7.23"/><path class="uuid-883efea5-677f-4371-9dc7-5cd56130fbcb" d="m185.17,308.14c-4.41,0-7.98-3.57-7.98-7.98,0-67.74,55.11-122.86,122.86-122.86,4.41,0,7.98,3.57,7.98,7.98s-3.57,7.98-7.98,7.98c-58.94,0-106.9,47.95-106.9,106.9,0,4.41-3.57,7.98-7.98,7.98Z"/><path d="m203.75,397.46l34.2-27.46-24.86,36.3c-6.73-5.1-3.66-2.61-9.34-8.83Z"/><path class="uuid-8394a5ef-9c6d-414e-8d02-2034ddcfd3a6" d="m323.72,387.31c19.14-13.4,39.15-11.3,55.52,7.36,19.6,22.35,30.57,33.06,30.57,33.06,0,0,10.74-19.34,34.77-17.5,18.26,1.4,24.84,14.43,24.84,14.43,0,0,6.21,8.82-22.45,33.5-28.66,24.68-54.93,40.92-61.14,29.46-6.21-11.46-2.82-32.1-2.82-32.1,0,0-22.02-26.09-27.94-32.01-6.79-6.79-15.71-1.36-15.71-1.36"/><path class="uuid-7f242137-77c3-4516-b3dd-e07924d8b27d" d="m446.97,458.17c-25.89,22.29-49.82,37.69-58.79,32.02-9.77-7.44,26.84-38.54,44.88-52.7,18.04-14.16,32.17-17.82,36.36-12.81,0,0,6.21,8.82-22.45,33.5Z"/><path class="uuid-0f9d5605-abaf-429f-9eda-0762dec12f88" d="m409.81,427.74c-1.89,2.86-4.55,10.38-4.55,10.38"/><ellipse class="uuid-d3f758ac-5239-4a0a-b4e9-3b31a4d26e61" cx="269.41" cy="209.07" rx="94.9" ry="26.25" transform="translate(-52.5 96.54) rotate(-18.55)"/><ellipse class="uuid-4c0d796b-ae01-4a35-8369-ec5c74e01e56" cx="269.41" cy="209.07" rx="71.19" ry="13.32" transform="translate(-52.5 96.54) rotate(-18.55)"/><g><path class="uuid-446566b0-e754-4323-8c0e-f2552727105b" d="m214.11,345.7c-8.05,5.83-25.34,20.79-35.52,29.67-1.67,1.45-2.82,3.41-3.39,5.55-3.14,11.67-8.55,33.44-8.55,33.44,0,0-8.42.58-12.19,14.35-3.64,13.3-6.64,25.06,3.77,29.75.35,7.47,7.51,15.45,19.2,9.41.14-.06,1.32,1.32,1.44,1.45,2.64,2.7,6.36,4.45,10.13,4.81,3.65.36,7.61-.67,10.43-3.08,3.29-2.81,5.4-6.94,6.05-11.2.4-2.61.26-5.31-.75-7.78,0,0,6.2-2.51,8.05-11.34,1.99-9.49-4.22-19.42-14.62-18.18l6.17-23.11c.51-2.2,1.74-4.16,3.49-5.59l29.38-24.3"/><path class="uuid-0f9d5605-abaf-429f-9eda-0762dec12f88" d="m204.73,452.06c-1.37-3.47-5.39-7.08-9-6.88"/><path class="uuid-0f9d5605-abaf-429f-9eda-0762dec12f88" d="m178.86,469.3c-5.16-5.27-3.82-11.97-2.9-13.54"/><path class="uuid-0f9d5605-abaf-429f-9eda-0762dec12f88" d="m158.22,458.45c-.27-5.22.73-7.32,3.06-9.83"/><path class="uuid-0f9d5605-abaf-429f-9eda-0762dec12f88" d="m193.93,450.63c.14-2.07.48-4.16,1.32-6.06.85-1.95,2.36-3.88,4.31-4.85"/></g></svg>
<svg id="uuid-175be159-db61-4df5-a3ec-4e569af78a21" data-name="BODY" xmlns="http://www.w3.org/2000/svg" viewBox="0 0 600 600"><defs><style>
      .uuid-cb5ad370-d590-4d84-8471-319d1a4c5aa5 {
        fill: none;
        stroke: #000;
        stroke-linecap: round;
        stroke-linejoin: round;
        stroke-width: 4px;
      }
    </style></defs><g id="uuid-13c94933-b88a-4a0e-9bd5-264a3853387a" data-name="expressions"><g id="uuid-006bcb9c-427f-47d9-92c9-0f51d1e9073c" data-name="mouth"><circle cx="362.12" cy="293.18" r="9.78" transform="translate(-9.59 12.26) rotate(-1.91)"/></g><g id="uuid-aa5f76af-2ff8-4e7f-a2a4-73d690451a8d" data-name="eye L"><circle cx="337.63" cy="273.96" r="9.78" transform="translate(-8.96 11.43) rotate(-1.91)"/></g><g id="uuid-4d2b7d8b-0a30-48e5-b672-08579e330a1a" data-name="eye R"><polyline class="uuid-cb5ad370-d590-4d84-8471-319d1a4c5aa5" points="374.33 254.17 360.69 266.02 379.28 264.87"/></g></g></svg>
<svg id="uuid-c5dddc68-6ada-4116-b645-d03ebc480c27" data-name="BODY" xmlns="http://www.w3.org/2000/svg" xmlns:xlink="http://www.w3.org/1999/xlink" viewBox="0 0 600 600"><defs><style>
      .uuid-2567def0-8698-4265-9746-d0bc6967be93, .uuid-0562be6e-ffb4-47be-9bb1-48a29995208a, .uuid-80e162d4-8829-4ebf-85b2-a8fe674d77f3, .uuid-4db2b783-a1a5-4d26-ac75-2744874e22af {
        fill: none;
      }

      .uuid-712c89ac-99fe-40ee-8eee-f5af0112c987, .uuid-7a510ee3-bdcb-4485-b3e0-7e4f4341de5d {
        fill: #ffff0d;
      }

      .uuid-72fac4dd-26f1-4077-b6b6-7c4003149463 {
        fill: #ff78d8;
      }

      .uuid-72fac4dd-26f1-4077-b6b6-7c4003149463, .uuid-7a510ee3-bdcb-4485-b3e0-7e4f4341de5d, .uuid-a1fed1fc-4fc0-4285-843b-ea2281428dd2, .uuid-80fbf365-2f03-4e31-9a7d-a58cbc68ba7c, .uuid-aa64e389-c72b-4038-9104-9878c2d0f048, .uuid-d6627eaf-33b8-4d81-ab57-85345f61b522, .uuid-0562be6e-ffb4-47be-9bb1-48a29995208a {
        stroke: #000;
        stroke-linecap: round;
        stroke-linejoin: round;
      }

      .uuid-72fac4dd-26f1-4077-b6b6-7c4003149463, .uuid-7a510ee3-bdcb-4485-b3e0-7e4f4341de5d, .uuid-aa64e389-c72b-4038-9104-9878c2d0f048, .uuid-d6627eaf-33b8-4d81-ab57-85345f61b522, .uuid-0562be6e-ffb4-47be-9bb1-48a29995208a {
        stroke-width: 2px;
      }

      .uuid-a1fed1fc-4fc0-4285-843b-ea2281428dd2 {
        stroke-width: 2px;
      }

      .uuid-a1fed1fc-4fc0-4285-843b-ea2281428dd2, .uuid-80fbf365-2f03-4e31-9a7d-a58cbc68ba7c, .uuid-aa64e389-c72b-4038-9104-9878c2d0f048 {
        fill: #fff;
      }

      .uuid-80fbf365-2f03-4e31-9a7d-a58cbc68ba7c {
        stroke-width: 2px;
      }

      .uuid-d6627eaf-33b8-4d81-ab57-85345f61b522 {
        fill: #00dfa9;
      }

      .uuid-80e162d4-8829-4ebf-85b2-a8fe674d77f3 {
        clip-path: url(#uuid-df096713-fdda-48f8-9c1c-a9406374f0cc);
      }

      .uuid-4db2b783-a1a5-4d26-ac75-2744874e22af {
        clip-path: url(#uuid-3e2076b4-c9c1-4dc8-b8fd-37a273dcbc37);
      }
    </style><clipPath id="uuid-df096713-fdda-48f8-9c1c-a9406374f0cc"><path class="uuid-2567def0-8698-4265-9746-d0bc6967be93" d="m363.4,432.9s-8.1-9.4-9.8-10.6c-1.7-1.2-3.6-1.8-3.6-1.8,0,0-2.8-25.8,25.2-30.1l14.1,15.5s-2.9,7.2-9.7,16.6c-6.8,9.4-16.1,10.3-16.1,10.3l-.1.1Z"/></clipPath><clipPath id="uuid-3e2076b4-c9c1-4dc8-b8fd-37a273dcbc37"><path class="uuid-2567def0-8698-4265-9746-d0bc6967be93" d="m270.8,477.5l15.9-16.5s-9.6-1.4-17.3-7.7c-7.7-6.4-9.9-13.5-9.9-13.5l-15.5,16.5s-3,8.3,9,17.9c8.7,6.9,17.8,3.3,17.8,3.3h0Z"/></clipPath></defs><g id="uuid-1bc504d8-c3de-4e3f-9ed5-9b0bd381f76d" data-name="uuid-d19fd1aa-f160-4434-8ee1-8fc783292307"><g id="uuid-515fa590-8391-4f06-b616-e4dcfd3f254d" data-name="uuid-a613e983-7e29-4acc-9c52-7addab05ae69"><g><g><g><path class="uuid-712c89ac-99fe-40ee-8eee-f5af0112c987" d="m363.4,432.9s-8.1-9.4-9.8-10.6c-1.7-1.2-3.6-1.8-3.6-1.8,0,0-2.8-25.8,25.2-30.1l14.1,15.5s-2.9,7.2-9.7,16.6c-6.8,9.4-16.1,10.3-16.1,10.3l-.1.1Z"/><g class="uuid-80e162d4-8829-4ebf-85b2-a8fe674d77f3"><g><path class="uuid-d6627eaf-33b8-4d81-ab57-85345f61b522" d="m387.9,399.3c-19.7,4-26.8,19.8-29.1,31.4l6.4,6.9,24.7-9.9,4.9-27.2-6.9-1.2h0Z"/><path class="uuid-72fac4dd-26f1-4077-b6b6-7c4003149463" d="m381.8,393.8s-12,1-20.2,11.5-7.6,22.4-7.6,22.4l-8.8-5.6s-2.9-15.3,7.5-25c10.4-9.7,22.6-12.3,22.6-12.3l6.6,9h-.1Z"/></g></g><path class="uuid-0562be6e-ffb4-47be-9bb1-48a29995208a" d="m363.4,432.9s-8.1-9.4-9.8-10.6c-1.7-1.2-3.6-1.8-3.6-1.8,0,0-2.8-25.8,25.2-30.1l14.1,15.5s-2.9,7.2-9.7,16.6c-6.8,9.4-16.1,10.3-16.1,10.3l-.1.1Z"/></g><g><path class="uuid-aa64e389-c72b-4038-9104-9878c2d0f048" d="m383.1,481.9s-8.5-6.2-2.5-24.9l-17.6-18.8s-1.3-10.6,10.9-22.7c12.2-12.1,21.4-10.5,21.4-10.5l14.1,16.4s9.7-11.6,26.6-14.3c16.9-2.6,29.9,9.7,29.9,9.7,0,0-22.6,5.1-49,28.9-26.4,23.8-33.8,36.3-33.8,36.3v-.1Z"/><path class="uuid-0562be6e-ffb4-47be-9bb1-48a29995208a" d="m409.4,421.3c-4.8,5.4-7.6,15.2-7.6,15.2"/></g><g><g><path class="uuid-72fac4dd-26f1-4077-b6b6-7c4003149463" d="m468.1,415.9c-2.2-1.1-22.3,0-54.1,28.2-31.8,28.2-34.5,37.1-33.9,41.6.5,3.5,3.2,9.5,12.8,9.6,9.6.1,27.3-9.6,50.2-28.8,31.1-26,31.2-37.4,31.1-41.1s-2.9-7.9-6.1-9.6v.1Z"/><path class="uuid-72fac4dd-26f1-4077-b6b6-7c4003149463" d="m466.2,426.1c-7.4-6.6-85.3,55.5-74.3,61.3,11.1,5.7,82.6-53.8,74.3-61.3Z"/></g><g><g><g><path class="uuid-7a510ee3-bdcb-4485-b3e0-7e4f4341de5d" d="m395.3,500.2c3,3.6,8.3,4.1,11.9,1.1,3.6-3,4.1-8.3,1.1-11.9l-3.9-4.7-2,1.7c-2.1-.1-4.2.5-6,1.9-1.8,1.4-2.7,3.4-3,5.5l-2,1.7,3.9,4.7h0Z"/><circle class="uuid-7a510ee3-bdcb-4485-b3e0-7e4f4341de5d" cx="397.8" cy="490.1" r="8.4"/></g><g><path class="uuid-7a510ee3-bdcb-4485-b3e0-7e4f4341de5d" d="m412.5,485.8c3,3.6,8.3,4.1,11.9,1.1,3.6-3,4.1-8.3,1.1-11.9l-3.9-4.7-2,1.7c-2.1-.1-4.2.5-6,1.9-1.7,1.4-2.7,3.4-3,5.5l-2,1.7,3.9,4.7h0Z"/><circle class="uuid-7a510ee3-bdcb-4485-b3e0-7e4f4341de5d" cx="415.1" cy="475.7" r="8.4"/></g><g><path class="uuid-7a510ee3-bdcb-4485-b3e0-7e4f4341de5d" d="m429.8,471.4c3,3.6,8.3,4.1,11.9,1.1,3.6-3,4.1-8.3,1.1-11.9l-3.9-4.7-2,1.7c-2.1-.1-4.2.5-6,1.9-1.7,1.4-2.7,3.4-3,5.5l-2,1.7,3.9,4.7h0Z"/><circle class="uuid-7a510ee3-bdcb-4485-b3e0-7e4f4341de5d" cx="432.4" cy="461.3" r="8.4"/></g><g><path class="uuid-7a510ee3-bdcb-4485-b3e0-7e4f4341de5d" d="m447.1,457c3,3.6,8.3,4.1,11.9,1.1,3.6-3,4.1-8.3,1.1-11.9l-3.9-4.7-2,1.7c-2.1-.1-4.2.5-6,1.9-1.7,1.4-2.7,3.4-3,5.5l-2,1.7,3.9,4.7h0Z"/><circle class="uuid-7a510ee3-bdcb-4485-b3e0-7e4f4341de5d" cx="449.7" cy="446.9" r="8.4"/></g><g><path class="uuid-7a510ee3-bdcb-4485-b3e0-7e4f4341de5d" d="m464.4,442.6c3,3.6,8.3,4.1,11.9,1.1,3.6-3,4.1-8.3,1.1-11.9l-3.9-4.7-2,1.7c-2.1-.1-4.2.5-6,1.9-1.7,1.4-2.7,3.4-3,5.5l-2,1.7,3.9,4.7h0Z"/><circle class="uuid-7a510ee3-bdcb-4485-b3e0-7e4f4341de5d" cx="466.9" cy="432.5" r="8.4"/></g></g><g><path class="uuid-80fbf365-2f03-4e31-9a7d-a58cbc68ba7c" d="m394.62,469.33l.46-.38c1.08-.9,2.62-.76,3.52.32l11.84,14.21-4.3,3.58-11.84-14.21c-.9-1.08-.76-2.62.32-3.52Z"/><path class="uuid-80fbf365-2f03-4e31-9a7d-a58cbc68ba7c" d="m427.64,438.72l.46-.38c1.08-.9,2.62-.76,3.52.32l13.38,16.06-4.3,3.58-13.38-16.06c-.9-1.08-.76-2.62.32-3.52Z"/><path class="uuid-80fbf365-2f03-4e31-9a7d-a58cbc68ba7c" d="m446.47,426.08l.46-.38c1.08-.9,2.62-.76,3.52.32l11.84,14.21-4.3,3.58-11.84-14.21c-.9-1.08-.76-2.62.32-3.52Z"/><rect class="uuid-80fbf365-2f03-4e31-9a7d-a58cbc68ba7c" x="391.83" y="480.16" width="29.4" height="5.6" rx="2.5" ry="2.5" transform="translate(-214.95 372.13) rotate(-39.8)"/><rect class="uuid-80fbf365-2f03-4e31-9a7d-a58cbc68ba7c" x="424.05" y="444.26" width="51.3" height="5.6" rx="2.5" ry="2.5" transform="translate(-181.96 391.45) rotate(-39.8)"/></g></g></g></g><g><g><g><g><path class="uuid-7a510ee3-bdcb-4485-b3e0-7e4f4341de5d" d="m209.9,505.8c3.3-3.3,3.3-8.6,0-11.9s-8.6-3.3-11.9,0l-4.3,4.3,1.9,1.9c0,2.1.9,4.2,2.5,5.8,1.6,1.6,3.7,2.4,5.8,2.5l1.9,1.9,4.3-4.3-.2-.2Z"/><circle class="uuid-7a510ee3-bdcb-4485-b3e0-7e4f4341de5d" cx="199.7" cy="504.1" r="8.4"/></g><g><path class="uuid-7a510ee3-bdcb-4485-b3e0-7e4f4341de5d" d="m226.9,522.5c3.3-3.3,3.3-8.6,0-11.9-3.3-3.3-8.6-3.3-11.9,0l-4.3,4.3,1.9,1.9c0,2.1.9,4.2,2.5,5.8,1.6,1.6,3.7,2.4,5.8,2.5l1.9,1.9,4.3-4.3-.2-.2Z"/><circle class="uuid-7a510ee3-bdcb-4485-b3e0-7e4f4341de5d" cx="216.6" cy="520.8" r="8.4"/></g></g><path class="uuid-72fac4dd-26f1-4077-b6b6-7c4003149463" d="m211.4,475.2l25.7,33.5c.9,1.1,2.2,1.8,3.6,1.8h64.4c2.3,0,4.1,1.8,4.1,4.1v4.6c0,2.3-1.8,4.1-4.1,4.1h-68c-3,0-5.8-1.4-7.6-3.8l-27-35.4c-.9-1.2-.9-2.9,0-4.1l3.5-4.7c1.3-1.8,4-1.8,5.4,0v-.1Z"/><g><path class="uuid-a1fed1fc-4fc0-4285-843b-ea2281428dd2" d="m220.8,499.6l.41.43c.97,1.01.93,2.57-.09,3.53l-13.4,12.76-3.86-4.06,13.4-12.76c1.01-.97,2.57-.93,3.53.09Z"/><rect class="uuid-a1fed1fc-4fc0-4285-843b-ea2281428dd2" x="205.14" y="497.66" width="5.6" height="29.4" rx="2.5" ry="2.5" transform="translate(-295.98 284.73) rotate(-43.6)"/></g><g><g><path class="uuid-7a510ee3-bdcb-4485-b3e0-7e4f4341de5d" d="m255.9,537.7c3.3-3.3,3.3-8.6,0-11.9-3.3-3.3-8.6-3.3-11.9,0l-4.3,4.3,1.9,1.9c0,2.1.9,4.2,2.5,5.8,1.6,1.6,3.7,2.4,5.8,2.5l1.9,1.9,4.3-4.3-.2-.2Z"/><circle class="uuid-7a510ee3-bdcb-4485-b3e0-7e4f4341de5d" cx="245.6" cy="536" r="8.4"/></g><g><path class="uuid-7a510ee3-bdcb-4485-b3e0-7e4f4341de5d" d="m279.5,537.7c3.3-3.3,3.3-8.6,0-11.9-3.3-3.3-8.6-3.3-11.9,0l-4.3,4.3,1.9,1.9c0,2.1.9,4.2,2.5,5.8s3.7,2.4,5.8,2.5l1.9,1.9,4.3-4.3-.2-.2Z"/><circle class="uuid-7a510ee3-bdcb-4485-b3e0-7e4f4341de5d" cx="269.2" cy="536" r="8.4"/></g><g><path class="uuid-7a510ee3-bdcb-4485-b3e0-7e4f4341de5d" d="m303,537.7c3.3-3.3,3.3-8.6,0-11.9-3.3-3.3-8.6-3.3-11.9,0l-4.3,4.3,1.9,1.9c0,2.1.9,4.2,2.5,5.8s3.7,2.4,5.8,2.5l1.9,1.9,4.3-4.3-.2-.2Z"/><circle class="uuid-7a510ee3-bdcb-4485-b3e0-7e4f4341de5d" cx="292.8" cy="536" r="8.4"/></g></g><g><path class="uuid-aa64e389-c72b-4038-9104-9878c2d0f048" d="m257.6,517.8h.6c1.4,0,2.5,1.1,2.5,2.5v18.5h-5.6v-18.5c0-1.4,1.1-2.5,2.5-2.5Z"/><path class="uuid-aa64e389-c72b-4038-9104-9878c2d0f048" d="m280.1,517.8h.6c1.4,0,2.5,1.1,2.5,2.5v18.5h-5.6v-18.5c0-1.4,1.1-2.5,2.5-2.5Z"/><rect class="uuid-aa64e389-c72b-4038-9104-9878c2d0f048" x="243.6" y="533.1" width="51.3" height="5.6" rx="2.5" ry="2.5"/></g></g><g><path class="uuid-712c89ac-99fe-40ee-8eee-f5af0112c987" d="m270.8,477.5l15.9-16.5s-9.6-1.4-17.3-7.7c-7.7-6.4-9.9-13.5-9.9-13.5l-15.5,16.5s-3,8.3,9,17.9c8.7,6.9,17.8,3.3,17.8,3.3h0Z"/><g class="uuid-4db2b783-a1a5-4d26-ac75-2744874e22af"><g><path class="uuid-72fac4dd-26f1-4077-b6b6-7c4003149463" d="m251.9,441.6s2.3,9.8,13.2,18.3c10.6,8.3,20.8,8.3,20.8,8.3l10.6-11.2-37-24.9-7.7,9.5h.1Z"/><path class="uuid-d6627eaf-33b8-4d81-ab57-85345f61b522" d="m238.9,458.4l9.3-9.3s3.7,10.6,11,16.3c6.7,5.3,17.7,8.6,17.7,8.6l-8.5,9.8-29.4-25.3-.1-.1Z"/></g></g><path class="uuid-0562be6e-ffb4-47be-9bb1-48a29995208a" d="m270.8,477.5l15.9-16.5s-9.6-1.4-17.3-7.7c-7.7-6.4-9.9-13.5-9.9-13.5l-15.5,16.5s-3,8.3,9,17.9c8.7,6.9,17.8,3.3,17.8,3.3h0Z"/></g><g><path class="uuid-aa64e389-c72b-4038-9104-9878c2d0f048" d="m305.5,513.5h-68.3l-28.5-37.4s5.9-8.1,18.8-6.7l14.2-15.9c1-1.1,2.4-1.7,3.9-1.7h2.5c0,.1-4.1,4.4-4.1,4.4,0,0,4.3,19.6,26.8,21.2l3.3-3.4.6,1.8c.4,1.2.1,2.6-.8,3.6l-1.7,1.7s33.4,1.9,33.4,32.4h-.1Z"/><path class="uuid-0562be6e-ffb4-47be-9bb1-48a29995208a" d="m272.1,481.2c-8.1-.6-20,1.7-26.6,7.7"/></g></g></g></g></g></svg>
<svg id="uuid-f4074912-9272-4ef1-b1b1-d66f5acdc7c8" data-name="BODY" xmlns="http://www.w3.org/2000/svg" viewBox="0 0 600 600"><defs><style>
      .uuid-faa079f9-df7c-49b8-9fbd-6724fd225a2e {
        fill: #7aa6ff;
      }

      .uuid-faa079f9-df7c-49b8-9fbd-6724fd225a2e, .uuid-ac748af8-1ade-42a0-999e-0a2ce733572b, .uuid-1baff137-1693-4b4b-a630-944b4a445ce9, .uuid-e151b05c-5576-4bb6-b555-654c00b076ba, .uuid-f7781649-76e1-44b4-85bf-2cb5db06f6ae {
        stroke: #000;
        stroke-linecap: round;
        stroke-linejoin: round;
        stroke-width: 2px;
      }

      .uuid-ac748af8-1ade-42a0-999e-0a2ce733572b {
        fill: #ff78d8;
      }

      .uuid-1baff137-1693-4b4b-a630-944b4a445ce9 {
        fill: #ffff0d;
      }

      .uuid-e151b05c-5576-4bb6-b555-654c00b076ba {
        fill: #fff;
      }

      .uuid-f7781649-76e1-44b4-85bf-2cb5db06f6ae {
        fill: none;
      }
    </style></defs><g id="uuid-609b5b85-8169-408e-9e55-6a09e3454fc3" data-name="uuid-59560883-689f-43df-9f0b-d5c83d25eed8"><g><g><path class="uuid-e151b05c-5576-4bb6-b555-654c00b076ba" d="m166.95,413.12c11.19,10.25,31.2,9.43,31.2,9.43l4.5-16.84s-5.66-2.38-15.98-5.31c-10.32-2.93-15.34-4.65-15.34-4.65l-4.38,17.37Z"/><g><line class="uuid-f7781649-76e1-44b4-85bf-2cb5db06f6ae" x1="178.28" y1="404.79" x2="176.11" y2="413.89"/><line class="uuid-f7781649-76e1-44b4-85bf-2cb5db06f6ae" x1="191.19" y1="408.44" x2="189.01" y2="417.54"/></g></g><g><path class="uuid-e151b05c-5576-4bb6-b555-654c00b076ba" d="m466.27,339.39l16.26-5.52s-.43,19.89,9.61,30.41l-16.83,5.37s-9.23-5.12-11.25-14.64,2.22-15.62,2.22-15.62h-.01Z"/><path class="uuid-ac748af8-1ade-42a0-999e-0a2ce733572b" d="m436.03,324.33s17.68,5.27,18.89,5.75,11.35,9.31,11.35,9.31c0,0-.65,20.75,9.03,30.26,0,0-15.19,17.39-17.22,18.71-2.03,1.32-41.28-14.54-41.28-14.54,0,0,6.6-14.58,12.05-26.21,5.45-11.63,7.16-23.27,7.16-23.27h.02Z"/><line class="uuid-f7781649-76e1-44b4-85bf-2cb5db06f6ae" x1="473.46" y1="359.57" x2="482.77" y2="356.38"/><line class="uuid-f7781649-76e1-44b4-85bf-2cb5db06f6ae" x1="470.36" y1="348.29" x2="479.66" y2="345.1"/><path class="uuid-f7781649-76e1-44b4-85bf-2cb5db06f6ae" d="m469.02,358.71c-10.17,2.95-16.49,13.87-13.05,16.86,3.44,2.99,6.52-6.37,6.52-6.37"/><path class="uuid-f7781649-76e1-44b4-85bf-2cb5db06f6ae" d="m466.78,348.29c-8.18-2.09-15.56-4.17-15.56-4.17"/><path d="m446.06,327.34c-1.01,10.56-5.64,22.15-7.31,26.67-3.62,9.78-8.9,19.7-11.17,24.18-10.17-3.78-7.79-2.87-10.71-4.51l13.37-27.47,5.78-21.87,10.03,3.01h.01Z"/></g><g><path class="uuid-faa079f9-df7c-49b8-9fbd-6724fd225a2e" d="m305.9,456.21l11.12-16.69s29.17-3,37.01-5.81c4.96-1.77,4.75-6.23,4.75-6.23,0,0-3.63-4.35-6.23-5.92s-6.71-1.43-6.71-1.43c0,0-2.22-14.25-.14-27.85,1.65-10.77,3.42-13.58,3.42-13.58,0,0,7.52.12,16.47,4.63,8.95,4.51,25.62,24.76,25.62,24.76,0,0,8.74-7.2,18.19-18.57,7.9-9.51,18.19-23.81,25.11-44.09,1.35-3.97-7.32,4.09-6.26-.35l-36.04,20.64-23.93,5.56-7.28-8.73s-34.18,6.88-103.92-10.42c-65.9-16.35-98.53-45.2-98.53-45.2,0,0-.86,99.87,103.94,129.57,0,0,17.61,14.53,43.4,19.69v.02Z"/><g><path d="m299.53,440.27l17.49-.75c-1.25,1.77-3.89,6.12-5.89,8.83-1.78.8-6.5.69-12.95.69-5.09,0-10.93-.38-16.99-1.16-6.84-2.65-14.12-7.91-18.69-11.36,10.33,3.75,37.03,3.75,37.03,3.75h0Z"/><g><path class="uuid-f7781649-76e1-44b4-85bf-2cb5db06f6ae" d="m345.85,420.15c.91,7.61,5.87,14.72,9.05,13.21"/><path class="uuid-f7781649-76e1-44b4-85bf-2cb5db06f6ae" d="m357.59,368.15c-3.91,1.27-8.46,10.57-8.46,10.57"/><path class="uuid-f7781649-76e1-44b4-85bf-2cb5db06f6ae" d="m365.77,376.93c.81,2.81.44,6.74.44,6.74"/><path class="uuid-f7781649-76e1-44b4-85bf-2cb5db06f6ae" d="m375.84,391.39c27.34-6.78,45.94-18.94,45.94-18.94"/><path class="uuid-f7781649-76e1-44b4-85bf-2cb5db06f6ae" d="m305.26,388.93c-6.9,3.88-16.96,13.38-16.96,13.38,0,0-25.89-1.45-53.64-14.61"/><path class="uuid-f7781649-76e1-44b4-85bf-2cb5db06f6ae" d="m183.69,356.75c-9.65-4.5-18.55-12.21-18.55-12.21"/><path class="uuid-f7781649-76e1-44b4-85bf-2cb5db06f6ae" d="m262.5,436.52c18.96,6,54.52,3,54.52,3"/></g></g></g><g><path class="uuid-e151b05c-5576-4bb6-b555-654c00b076ba" d="m285.23,402.04s-17.84,21.72-41.45,34.31c-1.22.65-2.65.72-3.94.23-3.16-1.2-9.47-3.76-15.46-7.2-1.38-.79-2.27-2.21-2.4-3.79-.15-1.88-.3-4.52-.2-6.81,0,0,6.05,3.63,8.47,4.89,0,0,20.86-10.28,33.34-25.64,0,0,13.46,3.25,21.64,3.99v.02Z"/><g><path class="uuid-e151b05c-5576-4bb6-b555-654c00b076ba" d="m255.87,406.2c7.74,3.09,20.52,5.31,20.52,5.31"/><path class="uuid-e151b05c-5576-4bb6-b555-654c00b076ba" d="m245.98,414.29c8.29,4.28,19.77,6.99,19.77,6.99"/><path class="uuid-e151b05c-5576-4bb6-b555-654c00b076ba" d="m234.67,421.27c7.1,5.25,18.9,8.82,18.9,8.82"/></g><path class="uuid-f7781649-76e1-44b4-85bf-2cb5db06f6ae" d="m230.25,423.68c-3.14,1.72-4.59,1.01-4.59,1.01"/></g><g><path class="uuid-ac748af8-1ade-42a0-999e-0a2ce733572b" d="m160.3,324.43s21.12,15.53,34.57,21.27c0,0-29.63,28.9-30.64,31.83-1.01,2.93,7.1,18.21,7.1,18.21,0,0,9.38,10.52,31.32,9.96,0,0,15.57-3.8,17.09-4.3s26.8-25.18,26.8-25.18c0,0,33.1,13.52,58.72,12.71,0,0,27.78-16.72,52.33-20.78,4.83-.8,8.17,8.78,8.17,8.78,0,0,46.23-11.43,68.5-30.73l3.89-13.36s-32.3,16-38.39,18.77c-6.09,2.77-9.58,7.17-10.8,12.88,0,0-5.41-6.22-15.42-5.61-10.01.61-35.05,8.72-78.67.05-43.62-8.67-136.31-54.81-136.31-54.81,0,0-.17,10.86,1.73,20.31h0Z"/><path class="uuid-1baff137-1693-4b4b-a630-944b4a445ce9" d="m190.52,349.97l1.21,3.1-5.62,1.26-4.35,4.34s.46,1.94,2.21,2.08,12.02-.38,12.02-.38l9.05,9.63c.93.99,2.58.41,2.7-.94l.57-6.56,4.99-.39c1.48-.12,1.98-2.02.76-2.86l-6.83-4.64-.29-5.46c-.06-1.04-1.1-1.74-2.08-1.39l-6.05,2.14-5.91-2.27-2.38,2.34h0Z"/><g><path class="uuid-ac748af8-1ade-42a0-999e-0a2ce733572b" d="m194.87,345.7c2.93-2.8,1.21-5.78,1.21-5.78"/><path class="uuid-ac748af8-1ade-42a0-999e-0a2ce733572b" d="m246.54,376.22c4.15-4.15,7.69-3.44,7.69-3.44"/><path class="uuid-ac748af8-1ade-42a0-999e-0a2ce733572b" d="m181.58,402.21c-.16-10.42-5.72-15.88-5.72-15.88"/><path class="uuid-ac748af8-1ade-42a0-999e-0a2ce733572b" d="m188.66,404.42c15.82-16.77,20.79-12.53,20.97-10.15.3,3.93-6.57,5.11-6.57,5.11"/></g></g><g><path class="uuid-e151b05c-5576-4bb6-b555-654c00b076ba" d="m163.88,276.21l-1.03,7.03s112.9,81.34,203.12,57.16c4.51-1.21,9.14,1.49,10.21,6.04l2.12,9.04c1.04,4.43-1.7,8.86-6.13,9.89-7.25,1.69-19.8,4-38.99,5.62-32.93,2.77-108.69-13.12-175.39-61.23-2.96-2.13-4.66-5.6-4.52-9.24l.52-13.84c.2-5.15,3.99-9.46,9.07-10.3l1.02-.17h0Z"/><path class="uuid-e151b05c-5576-4bb6-b555-654c00b076ba" d="m390.47,340.24l2.55,9.52c1.12,4.19,5.71,6.39,9.67,4.64,9.73-4.3,26.86-12.96,39.6-25.3,2.24-2.17,3.59-5.09,3.72-8.2l.62-14.43c.24-5.5-3.29-10.46-8.57-12.05h0l.07,9.15s-17.38,15.96-43.79,28.45c-3.1,1.47-4.74,4.92-3.85,8.23h-.02Z"/><path class="uuid-f7781649-76e1-44b4-85bf-2cb5db06f6ae" d="m162.84,283.24c-2.15-1.47-2.15-2.51-2.15-2.51"/><path class="uuid-f7781649-76e1-44b4-85bf-2cb5db06f6ae" d="m438.12,303.56c2.38-1.92,2.73-2.98,2.73-2.98"/></g></g></g></svg>
<svg id="uuid-d89b1a3b-1abc-4239-8dc4-47b8ed987a23" data-name="BODY" xmlns="http://www.w3.org/2000/svg" viewBox="0 0 600 600"><defs><style>
      .uuid-c5c1942b-919f-4361-a538-7c7e7cf852f0 {
        fill: #7aa6ff;
      }

      .uuid-c5c1942b-919f-4361-a538-7c7e7cf852f0, .uuid-e2f7ad43-e6dd-4758-93ba-680831edc001, .uuid-56ad82ea-d48e-4308-a763-e34c42640525 {
        stroke: #000;
        stroke-linecap: round;
        stroke-linejoin: round;
      }

      .uuid-c5c1942b-919f-4361-a538-7c7e7cf852f0, .uuid-56ad82ea-d48e-4308-a763-e34c42640525 {
        stroke-width: 2px;
      }

      .uuid-e2f7ad43-e6dd-4758-93ba-680831edc001 {
        stroke-width: 2px;
      }

      .uuid-e2f7ad43-e6dd-4758-93ba-680831edc001, .uuid-56ad82ea-d48e-4308-a763-e34c42640525 {
        fill: #ff78d8;
      }
    </style></defs><g id="uuid-333657bb-b618-45a7-b183-dcd3ce45fb5d" data-name="uuid-2b0117f1-1776-4845-a0f5-c237a6ca9f96"><g id="uuid-04b458af-e80e-46bd-b30a-189016c9a742" data-name="uuid-0881513b-7c8c-44a0-be29-2e98fb16f773"><g id="uuid-16e95431-6b51-4de0-bde5-963b33635208" data-name="uuid-4ea92ad2-89cb-4935-9ee1-ea64959099a6"><g><path class="uuid-c5c1942b-919f-4361-a538-7c7e7cf852f0" d="m505.78,307.9s-4.59-35.13-27.13-66.82-85.23-42.92-85.23-42.92l-6.19-5.32s71.3,10.02,95.45,45.45c24.73,36.26,27.59,68.56,27.59,68.56l-4.5,1.04h0Z"/><path class="uuid-56ad82ea-d48e-4308-a763-e34c42640525" d="m520.68,366.22h0c.19,3.16-2.22,5.88-5.38,6.07l-.42.03c-3.16.19-5.88-2.22-6.07-5.38h0c-.19-3.16,2.22-5.88,5.38-6.07"/><g><path class="uuid-56ad82ea-d48e-4308-a763-e34c42640525" d="m209.79,442.76l-10.47-3.08h0c-2.15,1.3-3.42,3.25-4.07,4.89-.65,1.64-1.36,4.56-1.31,5.93l12.49,3.67c3.15.93,6.46-.88,7.38-4.03.93-3.15-.88-6.46-4.03-7.38Z"/><path class="uuid-56ad82ea-d48e-4308-a763-e34c42640525" d="m155.06,426.69c-3-.62-6.02,1.15-6.9,4.14-.93,3.15.88,6.46,4.03,7.38.65-2.81,1.99-9.48,2.87-11.53Z"/><path class="uuid-e2f7ad43-e6dd-4758-93ba-680831edc001" d="m202.75,447.11l.12-.41c.89-3.04,4.08-4.78,7.12-3.88h0c3.04.89,4.78,4.08,3.88,7.12l-.12.41c-.89,3.04-4.08,4.78-7.12,3.88h0c-3.04-.89-4.78-4.08-3.88-7.12Z"/></g><path class="uuid-c5c1942b-919f-4361-a538-7c7e7cf852f0" d="m174.51,242.11c-21.63,3.45-53.44-10.17-83.85-12-31.14-1.87-60.79,11.08-40.28,52.1,20.51,41.02,59.59,52.7,114.24,56.6,54.65,3.89,97.92,20.21,101.66,58.84,3.74,38.63-34.37,58.11-57.97,52.98-2.92-.63-2.05-4.33.9-3.83,10.1,1.72,47.12-2.23,52.61-38.59,5.49-36.37-29.45-61.17-96.95-65.11s-99.59-20.44-119.06-59.62c-17.82-35.86-2.26-59.81,45.89-58.16,23.43.8,48.13,11.53,84.9,12.48l-2.09,4.32h0Z"/><g><path class="uuid-56ad82ea-d48e-4308-a763-e34c42640525" d="m502.55,311.9s.07.03.11.05c2.71,1.34,4.95,4.09,4.95,4.09,0,0,3.47-4.64,6.71-5.9h0l-.07-.61c-.37-3.26-3.32-5.61-6.58-5.24-3.26.37-5.61,3.32-5.24,6.58l.12,1.04Z"/><path class="uuid-56ad82ea-d48e-4308-a763-e34c42640525" d="m520.35,363.24c-6.52-1.27-10.5-5.36-10.34-10.27.17-5.32,6.11-8.75,6.11-8.75,0,0-3.24-1.27-4.24-5.03-1.42-5.33,2.68-9.46,2.68-9.46-4.23-.67-6.25-2.9-6.25-2.9,0,0-1.95,2.45-3.7,3.18l4.2,37.02c.37,3.26,3.32,5.61,6.58,5.24,3.26-.37,5.61-3.32,5.24-6.58l-.28-2.46Z"/></g></g></g></g></g></svg>
<svg id="uuid-28487f57-969c-444b-a530-1d03d550218a" data-name="BODY" xmlns="http://www.w3.org/2000/svg" viewBox="0 0 600 600"><defs><style>
      .uuid-2345e484-47d2-47a9-b5e5-60211852c9d5 {
        fill: #fff;
        stroke: #000;
        stroke-miterlimit: 10;
        stroke-width: 2px;
      }
    </style></defs><path class="uuid-2345e484-47d2-47a9-b5e5-60211852c9d5" d="m234.82,145.43c-9.89-21.59-45.38-26.51-79.27-10.99-33.89,15.52-53.35,45.61-43.46,67.2,9.99,21.81,39.44,22.36,59.43,17.73,4.99-1.16,10.09-2.59,14.83-4.51,5.26-2.14,11.16-6.03,16.85-3.03,2.88,1.52,17.21,8.41,19.06,3.74.88-2.24-2.6-4.93-3.79-6.4-2.06-2.55-3.15-5.62-2.69-8.93.52-3.73,3.23-6.58,5.75-9.17,3.01-3.1,5.82-6.19,8.14-9.86,6.51-10.31,10.47-24.16,5.15-35.78Z"/><g><path d="m156.14,181.19l-18.06-15.17,9.83-6.16,10.41,11.84.92-.58-8.26-13.19,9.52-5.96,6.43,24.59,21.09,17.96-9.83,6.16-13.18-13.52-.92.58,9.8,15.64-9.52,5.96-8.24-28.15Z"/><path d="m163.39,150.17l9.21-5.77c7.37-4.62,16.36-2.56,26.35,13.39,9.99,15.95,7.93,24.93.56,29.55l-9.21,5.77-26.91-42.94Zm31.82,29.61c1.54-.96,2-2.96-6.08-15.84-8.07-12.88-10.07-13.34-11.6-12.38l-.31.19,17.68,28.21.31-.19Z"/></g></svg>
</svg>