<?xml version="1.0" encoding="UTF-8"?>
<svg xmlns="http://www.w3.org/2000/svg" viewBox="0 0 600 600">
<svg id="uuid-79261e34-5d95-4eb7-bb85-10d7c969ade4" data-name="BACKGROUND" xmlns="http://www.w3.org/2000/svg" viewBox="0 0 600 600"><defs><style>
      .uuid-97803ec4-c756-4940-a80c-fce9d043143d {
        fill: #00dfa9;
      }
    </style></defs><rect class="uuid-97803ec4-c756-4940-a80c-fce9d043143d" x="-1" y="-1" width="602" height="602"/></svg>
<svg id="uuid-f7144243-e6cd-4cab-932b-c5be46c6fb36" data-name="BACKGROUND" xmlns="http://www.w3.org/2000/svg" viewBox="0 0 600 600"><defs><style>
      .uuid-ee344cb6-6f49-4a63-aa7b-6b97f7278011, .uuid-2df137ed-1d1c-4841-89ca-f7589125bd76 {
        fill: #fff;
      }

      .uuid-2df137ed-1d1c-4841-89ca-f7589125bd76, .uuid-00c9b4c2-3408-4d90-88df-0016a53fdc8b, .uuid-9c4e21ff-8a5c-4860-9f42-740e78ff2dc7, .uuid-2a45fb5d-1b56-43fa-8c8f-251b0f959774, .uuid-53cf4bc2-4135-41a5-b8b2-af79dfc57a4e, .uuid-c8ed7fb8-48a5-4e1d-9b4a-eac3ff2accd7, .uuid-b11951d9-d6a4-4c59-b0b3-fb834948f050 {
        stroke: #000;
        stroke-width: 2px;
      }

      .uuid-2df137ed-1d1c-4841-89ca-f7589125bd76, .uuid-00c9b4c2-3408-4d90-88df-0016a53fdc8b, .uuid-2a45fb5d-1b56-43fa-8c8f-251b0f959774, .uuid-c8ed7fb8-48a5-4e1d-9b4a-eac3ff2accd7 {
        stroke-miterlimit: 10;
      }

      .uuid-2df137ed-1d1c-4841-89ca-f7589125bd76, .uuid-9c4e21ff-8a5c-4860-9f42-740e78ff2dc7, .uuid-2a45fb5d-1b56-43fa-8c8f-251b0f959774, .uuid-53cf4bc2-4135-41a5-b8b2-af79dfc57a4e, .uuid-c8ed7fb8-48a5-4e1d-9b4a-eac3ff2accd7 {
        stroke-linecap: round;
      }

      .uuid-00c9b4c2-3408-4d90-88df-0016a53fdc8b, .uuid-53cf4bc2-4135-41a5-b8b2-af79dfc57a4e, .uuid-c8ed7fb8-48a5-4e1d-9b4a-eac3ff2accd7, .uuid-b11951d9-d6a4-4c59-b0b3-fb834948f050 {
        fill: #f9a723;
      }

      .uuid-9c4e21ff-8a5c-4860-9f42-740e78ff2dc7 {
        fill: none;
      }

      .uuid-9c4e21ff-8a5c-4860-9f42-740e78ff2dc7, .uuid-53cf4bc2-4135-41a5-b8b2-af79dfc57a4e, .uuid-b11951d9-d6a4-4c59-b0b3-fb834948f050 {
        stroke-linejoin: round;
      }

      .uuid-2a45fb5d-1b56-43fa-8c8f-251b0f959774 {
        fill: #ff78d8;
      }
    </style></defs><path class="uuid-53cf4bc2-4135-41a5-b8b2-af79dfc57a4e" d="m409.81,359.6c9.2,3.77,29.89,12.05,42.79,16.03,2.11.65,4.41.69,6.5-.04,11.79-4.08,28.47-11.39,33.03-11.32,5.25.08,7.8,3.93,19.88,2.04,13.36-2.1,22.43-11.99,20.93-23.3-4.21-43.28-25.18-26.79-25.18-26.79,0,0-5.84-8.75-18.76-4.82-11.83,3.6-10.2,14.44-6.47,22.47l-25.29,8.58c-2.14.72-4.45.71-6.59-.02l-35.7-12.61"/><path class="uuid-c8ed7fb8-48a5-4e1d-9b4a-eac3ff2accd7" d="m533.36,312.82c2.5,3.94,1.62,9.14-1.57,12.4-2.47,2.53-5.88,3.88-9.32,4.4-2.8.43-5.7.42-8.49-.08-2.14-.39-4.29-1.1-5.79-2.75-1.66-1.83-2.27-4.46-1.98-6.87.51-4.17,3.84-7.14,7.22-9.26,3.17-1.98,6.86-3.26,10.64-3.09,3.8.18,7.36,2.19,9.3,5.24Z"/><path class="uuid-c8ed7fb8-48a5-4e1d-9b4a-eac3ff2accd7" d="m538.57,349.84c.97,3.03.32,6.43-1.5,9.01-3.77,5.33-11.17,5.65-16.96,4.27-3.31-.79-6.69-2.21-8.67-5.13-3.13-4.61-.82-9.79,3.48-12.56,2.58-1.66,5.61-2.67,8.63-3.14,5.73-.89,13.1,1.51,15.03,7.56Z"/><path class="uuid-c8ed7fb8-48a5-4e1d-9b4a-eac3ff2accd7" d="m538.71,328.53c1.8,2.99,2.06,6.89.22,9.9-1.95,3.2-4.94,5.25-8.49,6.28-3.66,1.07-7.64,1.27-11.4.44-2.25-.5-4.53-1.38-5.96-3.28-1.86-2.47-1.89-5.68-.85-8.49,1.2-3.24,4.17-5.69,7.09-7.37,6.15-3.56,15.21-4.43,19.39,2.52Z"/><path class="uuid-c8ed7fb8-48a5-4e1d-9b4a-eac3ff2accd7" d="m501.85,311.68s9.27,3.84,7.77,12.02c-1.04,5.68-8.17,9.55-14.94,6.13"/><path class="uuid-9c4e21ff-8a5c-4860-9f42-740e78ff2dc7" d="m500.67,331.08c2.41,1.63,5.11,8.04,3.4,14.42"/><path d="m443.44,339.88c-2.88,10.58-6.94,20.23-11.17,28.59-10.17-3.78-21.16-9.53-27-11.93l11.83-26.02,26.35,9.36Z"/><ellipse cx="300" cy="518.65" rx="138.6" ry="22.93"/><path class="uuid-00c9b4c2-3408-4d90-88df-0016a53fdc8b" d="m319.36,427.14c-1.16,1.05-54.95,57-54.95,57,0,0,21.51-1.95,31.74,10.62,10.23,12.57,7.26,23.89,7.26,23.89h-66.9s-28.69-36.17-28.69-36.17c0,0,3.74-13.4,20.44-10.59,20.9-19.38,55.52-59.13,55.52-59.13l35.59,14.38Z"/><path d="m283.78,412.76l31.28,12.64-3.24,9.5c-2.93,3.03-9.76,10.12-13.64,14.14-11.92,0-27.98-2.13-41.33-6.37,13.95-15.1,26.93-29.92,26.93-29.92Z"/><path class="uuid-00c9b4c2-3408-4d90-88df-0016a53fdc8b" d="m354.45,173.54l-.11.27-174.2,58.29c-11.49,20.13-18.05,43.43-18.05,68.27,0,76.2,61.77,137.98,137.97,137.98s137.98-61.77,137.98-137.98c0-56.89-34.43-105.72-83.58-126.83Z"/><path class="uuid-9c4e21ff-8a5c-4860-9f42-740e78ff2dc7" d="m264.41,484.14c-4.06.49-11.49,1.36-17.85,7.23"/><path class="uuid-ee344cb6-6f49-4a63-aa7b-6b97f7278011" d="m185.17,308.14c-4.41,0-7.98-3.57-7.98-7.98,0-67.74,55.11-122.86,122.86-122.86,4.41,0,7.98,3.57,7.98,7.98s-3.57,7.98-7.98,7.98c-58.94,0-106.9,47.95-106.9,106.9,0,4.41-3.57,7.98-7.98,7.98Z"/><path d="m203.75,397.46l34.2-27.46-24.86,36.3c-6.73-5.1-3.66-2.61-9.34-8.83Z"/><path class="uuid-b11951d9-d6a4-4c59-b0b3-fb834948f050" d="m323.72,387.31c19.14-13.4,39.15-11.3,55.52,7.36,19.6,22.35,30.57,33.06,30.57,33.06,0,0,10.74-19.34,34.77-17.5,18.26,1.4,24.84,14.43,24.84,14.43,0,0,6.21,8.82-22.45,33.5-28.66,24.68-54.93,40.92-61.14,29.46-6.21-11.46-2.82-32.1-2.82-32.1,0,0-22.02-26.09-27.94-32.01-6.79-6.79-15.71-1.36-15.71-1.36"/><path class="uuid-00c9b4c2-3408-4d90-88df-0016a53fdc8b" d="m446.97,458.17c-25.89,22.29-49.82,37.69-58.79,32.02-9.77-7.44,26.84-38.54,44.88-52.7,18.04-14.16,32.17-17.82,36.36-12.81,0,0,6.21,8.82-22.45,33.5Z"/><path class="uuid-9c4e21ff-8a5c-4860-9f42-740e78ff2dc7" d="m409.81,427.74c-1.89,2.86-4.55,10.38-4.55,10.38"/><ellipse class="uuid-2df137ed-1d1c-4841-89ca-f7589125bd76" cx="269.41" cy="209.07" rx="94.9" ry="26.25" transform="translate(-52.5 96.54) rotate(-18.55)"/><ellipse class="uuid-2a45fb5d-1b56-43fa-8c8f-251b0f959774" cx="269.41" cy="209.07" rx="71.19" ry="13.32" transform="translate(-52.5 96.54) rotate(-18.55)"/><g><path class="uuid-53cf4bc2-4135-41a5-b8b2-af79dfc57a4e" d="m214.11,345.7c-8.05,5.83-25.34,20.79-35.52,29.67-1.67,1.45-2.82,3.41-3.39,5.55-3.14,11.67-8.55,33.44-8.55,33.44,0,0-8.42.58-12.19,14.35-3.64,13.3-6.64,25.06,3.77,29.75.35,7.47,7.51,15.45,19.2,9.41.14-.06,1.32,1.32,1.44,1.45,2.64,2.7,6.36,4.45,10.13,4.81,3.65.36,7.61-.67,10.43-3.08,3.29-2.81,5.4-6.94,6.05-11.2.4-2.61.26-5.31-.75-7.78,0,0,6.2-2.51,8.05-11.34,1.99-9.49-4.22-19.42-14.62-18.18l6.17-23.11c.51-2.2,1.74-4.16,3.49-5.59l29.38-24.3"/><path class="uuid-9c4e21ff-8a5c-4860-9f42-740e78ff2dc7" d="m204.73,452.06c-1.37-3.47-5.39-7.08-9-6.88"/><path class="uuid-9c4e21ff-8a5c-4860-9f42-740e78ff2dc7" d="m178.86,469.3c-5.16-5.27-3.82-11.97-2.9-13.54"/><path class="uuid-9c4e21ff-8a5c-4860-9f42-740e78ff2dc7" d="m158.22,458.45c-.27-5.22.73-7.32,3.06-9.83"/><path class="uuid-9c4e21ff-8a5c-4860-9f42-740e78ff2dc7" d="m193.93,450.63c.14-2.07.48-4.16,1.32-6.06.85-1.95,2.36-3.88,4.31-4.85"/></g></svg>
<svg id="uuid-d2017022-49ac-4767-bd5b-8d3e235df956" data-name="BODY" xmlns="http://www.w3.org/2000/svg" viewBox="0 0 600 600"><defs><style>
      .uuid-ceb1f6db-ac22-433a-a64d-b7c361a52305 {
        fill: #ffff0d;
      }

      .uuid-ceb1f6db-ac22-433a-a64d-b7c361a52305, .uuid-8fc51c2b-2e55-48cc-a922-83a746c6089c {
        stroke-width: 2px;
      }

      .uuid-ceb1f6db-ac22-433a-a64d-b7c361a52305, .uuid-8fc51c2b-2e55-48cc-a922-83a746c6089c, .uuid-ededc5f7-d71c-4a39-8679-141d6e366d35 {
        stroke: #000;
        stroke-linecap: round;
        stroke-linejoin: round;
      }

      .uuid-8fc51c2b-2e55-48cc-a922-83a746c6089c, .uuid-ededc5f7-d71c-4a39-8679-141d6e366d35 {
        fill: none;
      }

      .uuid-ededc5f7-d71c-4a39-8679-141d6e366d35 {
        stroke-width: 4px;
      }
    </style></defs><g id="uuid-2e50336c-81e2-44ae-a2f0-cfae5c829496" data-name="uuid-ca7a59fd-5ea4-4026-baf3-83b8314686b7"><g><path d="m371.9,289.97c1.87,5.07-.73,10.69-5.8,12.56-5.07,1.87-10.69-.73-12.56-5.8l18.36-6.76h0Z"/><path class="uuid-ededc5f7-d71c-4a39-8679-141d6e366d35" d="m347.02,271.26c1.87,5.07-.73,10.69-5.8,12.56-5.07,1.87-10.69-.73-12.56-5.8"/><path class="uuid-ededc5f7-d71c-4a39-8679-141d6e366d35" d="m378.7,259.59c1.87,5.07-.73,10.69-5.8,12.56-5.07,1.87-10.69-.73-12.56-5.8"/><g><path class="uuid-ceb1f6db-ac22-433a-a64d-b7c361a52305" d="m394.29,286.52l-6.54-4.3c-2.76-1.82-6.22-2.22-9.33-1.07l-17.8,6.56-17.8,6.56c-3.1,1.14-5.48,3.69-6.4,6.87l-2.18,7.52c-.22.76.52,1.45,1.26,1.17l23.58-8.69c1.5-.55,2.5-1.96,2.54-3.56l.15-6.73,4.48,5.03c1.06,1.19,2.74,1.61,4.24,1.06l23.58-8.69c.74-.27.86-1.28.2-1.71l.02-.02Z"/><g><line class="uuid-8fc51c2b-2e55-48cc-a922-83a746c6089c" x1="352.99" y1="303.37" x2="353.29" y2="295.54"/><line class="uuid-8fc51c2b-2e55-48cc-a922-83a746c6089c" x1="343.37" y1="306.92" x2="344.56" y2="298.75"/><line class="uuid-8fc51c2b-2e55-48cc-a922-83a746c6089c" x1="376.62" y1="294.67" x2="371.32" y2="288.89"/><line class="uuid-8fc51c2b-2e55-48cc-a922-83a746c6089c" x1="386.25" y1="291.12" x2="380.04" y2="285.68"/></g></g><g><ellipse cx="334.14" cy="264.66" rx="11.53" ry="3.94" transform="translate(-70.88 131.8) rotate(-20.22)"/><ellipse cx="365.82" cy="252.99" rx="11.53" ry="3.94" transform="translate(-64.9 142.03) rotate(-20.22)"/></g></g></g></svg>
<svg id="uuid-a9b76fb0-fcc9-47a4-8a22-bf2a6be645e3" data-name="BODY" xmlns="http://www.w3.org/2000/svg" xmlns:xlink="http://www.w3.org/1999/xlink" viewBox="0 0 600 600"><defs><style>
      .uuid-b38ce0af-b4e9-45a0-a07c-ddbefe16b92c, .uuid-d0f82b25-b41c-4ccb-b99d-337e8c7b221c, .uuid-4c4391de-0469-45ae-85e6-f51b95112f18, .uuid-50bdb408-0f03-46e1-b11e-5fe1cf11a933 {
        fill: none;
      }

      .uuid-d0f82b25-b41c-4ccb-b99d-337e8c7b221c {
        clip-path: url(#uuid-b3878e00-90a2-4718-a8fa-787c32a78eda);
      }

      .uuid-2929258d-25b8-427e-8de3-6a1749239f1a, .uuid-4586ed58-3c26-4b5c-987c-00247d29fbe1 {
        fill: #7aa6ff;
      }

      .uuid-2929258d-25b8-427e-8de3-6a1749239f1a, .uuid-21d9377c-d8c1-4bc7-8f1d-7cae94ebdb6b, .uuid-50bdb408-0f03-46e1-b11e-5fe1cf11a933, .uuid-d9aa9a53-424e-4bf1-bdbc-808db4883ccb {
        stroke: #000;
        stroke-linecap: round;
        stroke-linejoin: round;
        stroke-width: 2px;
      }

      .uuid-4c4391de-0469-45ae-85e6-f51b95112f18 {
        clip-path: url(#uuid-98c8cd3b-e751-42de-aa63-77e0a36d3d5b);
      }

      .uuid-2d96f9ec-d66c-44b5-9875-4c3953027912, .uuid-21d9377c-d8c1-4bc7-8f1d-7cae94ebdb6b {
        fill: #fff;
      }

      .uuid-d9aa9a53-424e-4bf1-bdbc-808db4883ccb {
        fill: #f9a723;
      }
    </style><clipPath id="uuid-98c8cd3b-e751-42de-aa63-77e0a36d3d5b"><path class="uuid-b38ce0af-b4e9-45a0-a07c-ddbefe16b92c" d="m187.46,365.07c0-1.37.16-2.37.16-2.37l11.19-9.37,4.94.54,4.16-3.54-45.5-37.65s-.46-6.93-.57-13.62.57-13.95.57-13.95c19.42,20.93,67.75,51.78,95.66,65.63,27.91,13.85,60.83,24.27,75.34,27.46-5.61,2.07-6.03,4.26-16.69,7.77-10.66,3.51-22.99,2.36-42.4-1.62s-37.12-14.8-37.12-14.8l-8.86,7.52c.26,1.81.19,3.9.19,3.9l-9.7,8.9-5.45-.63,4.68-3.87s-.29-9.76-7.22-16.79c-6.93-7.03-18.28-5.3-18.28-5.3l-4.94,4.24s-.16-1.09-.16-2.46h0Zm237.71.67l8.26,3.17-.47.98c-.39.82-.01,1.79.82,2.14l8.27,3.38c.74.3,1.59,0,1.98-.7,1.53-2.8,5.2-9.98,6.98-17.6,1.78-7.62,1.86-13.58,1.82-16.23-.01-.82-.54-1.54-1.31-1.8l-7.18-2.48c-1.15-.4-2.39.35-2.56,1.56l-.16,1.08-9.17-3.8s-6.31,9.78-8.6,12.83l4.08,11.38-2.76,6.11v-.02Z"/></clipPath><clipPath id="uuid-b3878e00-90a2-4718-a8fa-787c32a78eda"><path class="uuid-b38ce0af-b4e9-45a0-a07c-ddbefe16b92c" d="m439.54,321.73c-4.23,10.84-15.69,26.53-15.69,26.53,0,0,4.15,11.07,4.08,11.38-.08.31-5.02,12.18-14.88,25.28-8.25,10.96-18.86,20.87-18.86,20.87,0,0,6.17,6.74,7.85,8.76s0,5.19,0,5.19l-2.45-2.6s-7.21,3.17-15.1,10.59c-7.89,7.43-11.9,15.53-11.9,15.53l3.02,3.52s-2.64,1.22-4.36-.6c-1.72-1.82-14.76-16.58-14.76-16.58-20.33,9.71-45.4,11.43-45.4,11.43l-35.49,36.3c-28.82-3.13-35.02-23.89-35.02-23.89l17.8-18.01c-32.9-9.98-54.89-32.72-54.89-32.72,0,0,1.26-5.64,2.51-6.89s7.43-6.6,7.43-6.6c0,0,4.99.68,5.45.63.46-.05,8.89-8.04,9.45-8.7s.06-4.11.06-4.11l8.86-7.52c13.1,8.93,45.08,18.91,64.56,18.44,19.48-.47,22.89-6.37,31.45-9.84-8.21-2.19-49.99-12-96.04-38.56-48.62-28.05-72.13-51.81-77.02-57.04-.62-.67-.91-1.58-.78-2.48,1.81-12.31,5.53-24.8,5.82-25.53.3-.76,5.32-2.81,5.32-2.81,0,0-1.67,4.75-2.87,8.54,5.27,9.46,36.81,36.33,81.72,61.73,44.91,25.4,83.33,34.65,89.65,34.75,6.32.1,69.07-15.09,78.08-26.22,9.01-11.12,19.87-48.85,19.87-48.85l-1.33-8.17c4.09.98,4.6,4.25,4.6,4.25,0,0,1.31,7,1.38,20.76.08,13.77-2.08,23.23-2.08,23.23h-.04Zm-231.4,28.58l-45.72-37.62-.24-3.05s-3.03,1.99-2.91,3.49,3.35,36.61,20.8,60.97l7.57-6.56s-.33-4.15,0-4.83c.33-.67,11.19-9.37,11.19-9.37l4.94.54,4.38-3.56h-.01Z"/></clipPath></defs><g id="uuid-af29460d-1585-47d9-9c08-90633e2ce16e" data-name="uuid-3ed2d463-9c98-4ccd-9d5d-4c3039953550"><g id="uuid-8cac3a0a-4265-40b4-9675-88e4177bf870" data-name="uuid-099ea80d-b0f2-4400-b65c-6ce909f17109"><g><path class="uuid-2d96f9ec-d66c-44b5-9875-4c3953027912" d="m187.46,365.07c0-1.37.16-2.37.16-2.37l11.19-9.37,4.94.54,4.16-3.54-45.5-37.65s-.46-6.93-.57-13.62.57-13.95.57-13.95c19.42,20.93,67.75,51.78,95.66,65.63,27.91,13.85,60.83,24.27,75.34,27.46-5.61,2.07-6.03,4.26-16.69,7.77-10.66,3.51-22.99,2.36-42.4-1.62s-37.12-14.8-37.12-14.8l-8.86,7.52c.26,1.81.19,3.9.19,3.9l-9.7,8.9-5.45-.63,4.68-3.87s-.29-9.76-7.22-16.79c-6.93-7.03-18.28-5.3-18.28-5.3l-4.94,4.24s-.16-1.09-.16-2.46h0Zm237.71.67l8.26,3.17-.47.98c-.39.82-.01,1.79.82,2.14l8.27,3.38c.74.3,1.59,0,1.98-.7,1.53-2.8,5.2-9.98,6.98-17.6,1.78-7.62,1.86-13.58,1.82-16.23-.01-.82-.54-1.54-1.31-1.8l-7.18-2.48c-1.15-.4-2.39.35-2.56,1.56l-.16,1.08-9.17-3.8s-6.31,9.78-8.6,12.83l4.08,11.38-2.76,6.11v-.02Z"/><g class="uuid-4c4391de-0469-45ae-85e6-f51b95112f18"><g><path class="uuid-21d9377c-d8c1-4bc7-8f1d-7cae94ebdb6b" d="m203.75,353.87c13.03,1.96,23.07,12.29,24.59,23.19"/><path class="uuid-21d9377c-d8c1-4bc7-8f1d-7cae94ebdb6b" d="m433.43,368.91c7.68-14.03,8.19-29.68,8.19-29.68"/><path class="uuid-21d9377c-d8c1-4bc7-8f1d-7cae94ebdb6b" d="m433.43,336c-2.4,9.19-6.74,19.23-6.74,19.23"/></g></g><path class="uuid-50bdb408-0f03-46e1-b11e-5fe1cf11a933" d="m187.46,365.07c0-1.37.16-2.37.16-2.37l11.19-9.37,4.94.54,4.16-3.54-45.5-37.65s-.46-6.93-.57-13.62.57-13.95.57-13.95c19.42,20.93,67.75,51.78,95.66,65.63,27.91,13.85,60.83,24.27,75.34,27.46-5.61,2.07-6.03,4.26-16.69,7.77-10.66,3.51-22.99,2.36-42.4-1.62s-37.12-14.8-37.12-14.8l-8.86,7.52c.26,1.81.19,3.9.19,3.9l-9.7,8.9-5.45-.63,4.68-3.87s-.29-9.76-7.22-16.79c-6.93-7.03-18.28-5.3-18.28-5.3l-4.94,4.24s-.16-1.09-.16-2.46h0Zm237.71.67l8.26,3.17-.47.98c-.39.82-.01,1.79.82,2.14l8.27,3.38c.74.3,1.59,0,1.98-.7,1.53-2.8,5.2-9.98,6.98-17.6,1.78-7.62,1.86-13.58,1.82-16.23-.01-.82-.54-1.54-1.31-1.8l-7.18-2.48c-1.15-.4-2.39.35-2.56,1.56l-.16,1.08-9.17-3.8s-6.31,9.78-8.6,12.83l4.08,11.38-2.76,6.11v-.02Z"/></g><g><path class="uuid-4586ed58-3c26-4b5c-987c-00247d29fbe1" d="m439.54,321.73c-4.23,10.84-15.69,26.53-15.69,26.53,0,0,4.15,11.07,4.08,11.38-.08.31-5.02,12.18-14.88,25.28-8.25,10.96-18.86,20.87-18.86,20.87,0,0,6.17,6.74,7.85,8.76s0,5.19,0,5.19l-2.45-2.6s-7.21,3.17-15.1,10.59c-7.89,7.43-11.9,15.53-11.9,15.53l3.02,3.52s-2.64,1.22-4.36-.6c-1.72-1.82-14.76-16.58-14.76-16.58-20.33,9.71-45.4,11.43-45.4,11.43l-35.49,36.3c-28.82-3.13-35.02-23.89-35.02-23.89l17.8-18.01c-32.9-9.98-54.89-32.72-54.89-32.72,0,0,1.26-5.64,2.51-6.89s7.43-6.6,7.43-6.6c0,0,4.99.68,5.45.63.46-.05,8.89-8.04,9.45-8.7s.06-4.11.06-4.11l8.86-7.52c13.1,8.93,45.08,18.91,64.56,18.44,19.48-.47,22.89-6.37,31.45-9.84-8.21-2.19-49.99-12-96.04-38.56-48.62-28.05-72.13-51.81-77.02-57.04-.62-.67-.91-1.58-.78-2.48,1.81-12.31,5.53-24.8,5.82-25.53.3-.76,5.32-2.81,5.32-2.81,0,0-1.67,4.75-2.87,8.54,5.27,9.46,36.81,36.33,81.72,61.73,44.91,25.4,83.33,34.65,89.65,34.75,6.32.1,69.07-15.09,78.08-26.22,9.01-11.12,19.87-48.85,19.87-48.85l-1.33-8.17c4.09.98,4.6,4.25,4.6,4.25,0,0,1.31,7,1.38,20.76.08,13.77-2.08,23.23-2.08,23.23h-.04Zm-231.4,28.58l-45.72-37.62-.24-3.05s-3.03,1.99-2.91,3.49,3.35,36.61,20.8,60.97l7.57-6.56s-.33-4.15,0-4.83c.33-.67,11.19-9.37,11.19-9.37l4.94.54,4.38-3.56h-.01Z"/><g class="uuid-d0f82b25-b41c-4ccb-b99d-337e8c7b221c"><g><path class="uuid-2929258d-25b8-427e-8de3-6a1749239f1a" d="m394.18,405.78c-21.84-24.51-27.24-28.01-41.1-29.82-7.38-.96-15.42.71-19.87,2.17"/><path class="uuid-2929258d-25b8-427e-8de3-6a1749239f1a" d="m356.46,429.61c-3.81-4.15-6.3-8.87-15.27-4.75"/><line class="uuid-50bdb408-0f03-46e1-b11e-5fe1cf11a933" x1="339.01" y1="356.74" x2="340.25" y2="376.42"/><path class="uuid-2929258d-25b8-427e-8de3-6a1749239f1a" d="m359.94,377.24l-.48-7.52s36.44-7.14,51.51-15.84c1.82,5.06,8.64,21.47,8.64,21.47"/><line class="uuid-50bdb408-0f03-46e1-b11e-5fe1cf11a933" x1="423.85" y1="348.26" x2="417.09" y2="330.52"/><path class="uuid-2929258d-25b8-427e-8de3-6a1749239f1a" d="m258.34,435.45c14.39,5.09,39.67,6.61,52.72,5.6"/><path d="m258.52,435.93l-5.11,4.85s17.9,8.67,49.25,8.26l8.34-7.65-25.28-.56-12.64-1.52-7.79-1.57-6.78-1.82h.01Z"/><g><circle class="uuid-d9aa9a53-424e-4bf1-bdbc-808db4883ccb" cx="349.52" cy="364.53" r="4.42"/><circle class="uuid-d9aa9a53-424e-4bf1-bdbc-808db4883ccb" cx="412.96" cy="344.53" r="4.42"/></g><polygon points="211.4 409.54 238.5 370.41 237.19 370 228.59 377.23 228.28 381.17 218.83 389.87 212.97 389.87 205.59 396.55 203.75 403.04 211.4 409.54"/></g></g><path class="uuid-50bdb408-0f03-46e1-b11e-5fe1cf11a933" d="m439.54,321.73c-4.23,10.84-15.69,26.53-15.69,26.53,0,0,4.15,11.07,4.08,11.38-.08.31-5.02,12.18-14.88,25.28-8.25,10.96-18.86,20.87-18.86,20.87,0,0,6.17,6.74,7.85,8.76s0,5.19,0,5.19l-2.45-2.6s-7.21,3.17-15.1,10.59c-7.89,7.43-11.9,15.53-11.9,15.53l3.02,3.52s-2.64,1.22-4.36-.6c-1.72-1.82-14.76-16.58-14.76-16.58-20.33,9.71-45.4,11.43-45.4,11.43l-35.49,36.3c-28.82-3.13-35.02-23.89-35.02-23.89l17.8-18.01c-32.9-9.98-54.89-32.72-54.89-32.72,0,0,1.26-5.64,2.51-6.89s7.43-6.6,7.43-6.6c0,0,4.99.68,5.45.63.46-.05,8.89-8.04,9.45-8.7s.06-4.11.06-4.11l8.86-7.52c13.1,8.93,45.08,18.91,64.56,18.44,19.48-.47,22.89-6.37,31.45-9.84-8.21-2.19-49.99-12-96.04-38.56-48.62-28.05-72.13-51.81-77.02-57.04-.62-.67-.91-1.58-.78-2.48,1.81-12.31,5.53-24.8,5.82-25.53.3-.76,5.32-2.81,5.32-2.81,0,0-1.67,4.75-2.87,8.54,5.27,9.46,36.81,36.33,81.72,61.73,44.91,25.4,83.33,34.65,89.65,34.75,6.32.1,69.07-15.09,78.08-26.22,9.01-11.12,19.87-48.85,19.87-48.85l-1.33-8.17c4.09.98,4.6,4.25,4.6,4.25,0,0,1.31,7,1.38,20.76.08,13.77-2.08,23.23-2.08,23.23h-.04Zm-231.4,28.58l-45.72-37.62-.24-3.05s-3.03,1.99-2.91,3.49,3.35,36.61,20.8,60.97l7.57-6.56s-.33-4.15,0-4.83c.33-.67,11.19-9.37,11.19-9.37l4.94.54,4.38-3.56h-.01Z"/></g></g></g></svg>
<svg id="uuid-667667c6-5500-4e66-a051-8aa827520612" data-name="BACKGROUND" xmlns="http://www.w3.org/2000/svg" viewBox="0 0 600 600"><defs><style>
      .uuid-d1c9b27c-b60a-4714-9d52-5f3abc1d85bb {
        stroke-miterlimit: 10;
      }

      .uuid-d1c9b27c-b60a-4714-9d52-5f3abc1d85bb, .uuid-c526f57f-7669-4064-8ba7-f5f98fc3f8cb, .uuid-44a872ce-82b9-4e50-80d6-8d32a9c47d8e, .uuid-8a39786c-d255-4ac5-ba56-3e5abbbba2ea, .uuid-e17c025c-9590-4c4d-b4c1-51f8ee68e844 {
        stroke: #000;
        stroke-width: 2px;
      }

      .uuid-d1c9b27c-b60a-4714-9d52-5f3abc1d85bb, .uuid-44a872ce-82b9-4e50-80d6-8d32a9c47d8e {
        fill: #ffff0d;
      }

      .uuid-c526f57f-7669-4064-8ba7-f5f98fc3f8cb {
        fill: #ffc9f1;
      }

      .uuid-c526f57f-7669-4064-8ba7-f5f98fc3f8cb, .uuid-44a872ce-82b9-4e50-80d6-8d32a9c47d8e, .uuid-8a39786c-d255-4ac5-ba56-3e5abbbba2ea, .uuid-e17c025c-9590-4c4d-b4c1-51f8ee68e844 {
        stroke-linejoin: round;
      }

      .uuid-8a39786c-d255-4ac5-ba56-3e5abbbba2ea {
        fill: #ff78d8;
      }

      .uuid-e17c025c-9590-4c4d-b4c1-51f8ee68e844 {
        fill: #9dfd14;
      }
    </style></defs><path class="uuid-e17c025c-9590-4c4d-b4c1-51f8ee68e844" d="m513.09,341.88c-1.86-2.47-1.89-5.68-.85-8.49.52-1.4,1.38-2.65,2.42-3.75-.22-.03-.45-.05-.67-.09-2.1-.38-4.21-1.08-5.7-2.67-.65.95-1.5,1.78-2.49,2.45,1.35,6.48,3.11,13.22,5.27,20.18.87-1.6,2.22-3.01,3.87-4.07.56-.36,1.14-.68,1.74-.98-1.39-.55-2.66-1.35-3.57-2.56Z"/><g><path class="uuid-e17c025c-9590-4c4d-b4c1-51f8ee68e844" d="m530.03,363.35c-3.23.76-6.81.52-9.92-.23-1.77-.42-3.55-1.04-5.14-1.95,4.38,12.12,9.87,24.8,16.45,37.85l11.42-5.04s-6.45-13.95-12.81-30.63Z"/><path class="uuid-e17c025c-9590-4c4d-b4c1-51f8ee68e844" d="m507.61,316.05c1.39-2.23,3.59-3.99,5.81-5.38.98-.62,2.02-1.15,3.1-1.61-.51-9.02.17-19.4,3.94-33.21-4.87-.59-9.25-2.96-12.44-6.47-4.85,14.83-5.7,30.1-4.7,43.07,1.21.7,2.92,1.89,4.29,3.6Z"/><path class="uuid-d1c9b27c-b60a-4714-9d52-5f3abc1d85bb" d="m543.02,394.41c.61,1.62-1.5,3.92-4.71,5.14-3.21,1.22-6.32.9-6.93-.72s1.49-3.92,4.71-5.14c3.21-1.22,6.32-.9,6.93.72Z"/><circle class="uuid-8a39786c-d255-4ac5-ba56-3e5abbbba2ea" cx="528.74" cy="272.15" r="20.41"/><circle class="uuid-8a39786c-d255-4ac5-ba56-3e5abbbba2ea" cx="541.91" cy="217.61" r="20.41"/><circle class="uuid-8a39786c-d255-4ac5-ba56-3e5abbbba2ea" cx="488.99" cy="233.69" r="20.41"/><circle class="uuid-c526f57f-7669-4064-8ba7-f5f98fc3f8cb" cx="551.96" cy="248.9" r="20.41"/><circle class="uuid-c526f57f-7669-4064-8ba7-f5f98fc3f8cb" cx="513.31" cy="210.7" r="20.41"/><circle class="uuid-c526f57f-7669-4064-8ba7-f5f98fc3f8cb" cx="500.14" cy="265.24" r="20.41"/><circle class="uuid-44a872ce-82b9-4e50-80d6-8d32a9c47d8e" cx="520.47" cy="241.29" r="18.62"/></g></svg>
<svg id="uuid-734829e7-8ac4-4b5c-a116-9d67e01cf8c6" data-name="BODY" xmlns="http://www.w3.org/2000/svg" viewBox="0 0 600 600"><defs><style>
      .uuid-0e7e8699-3590-4479-a271-4e2a88578054, .uuid-02371a53-177b-4f50-af8f-cbf1a1ea2403 {
        fill: #7aa6ff;
      }

      .uuid-0e7e8699-3590-4479-a271-4e2a88578054, .uuid-02371a53-177b-4f50-af8f-cbf1a1ea2403, .uuid-1d66d296-2390-46c4-a438-9faf10db4969, .uuid-23e864bf-e55f-4824-98fc-854bd42b6f4b, .uuid-d79b23fd-83a5-481f-8a72-99822e51a811 {
        stroke: #000;
        stroke-linecap: round;
        stroke-linejoin: round;
      }

      .uuid-0e7e8699-3590-4479-a271-4e2a88578054, .uuid-1d66d296-2390-46c4-a438-9faf10db4969, .uuid-23e864bf-e55f-4824-98fc-854bd42b6f4b, .uuid-d79b23fd-83a5-481f-8a72-99822e51a811 {
        stroke-width: 2px;
      }

      .uuid-02371a53-177b-4f50-af8f-cbf1a1ea2403 {
        stroke-width: 2px;
      }

      .uuid-1d66d296-2390-46c4-a438-9faf10db4969 {
        fill: #9dff0c;
      }

      .uuid-23e864bf-e55f-4824-98fc-854bd42b6f4b {
        fill: #00dfa9;
      }

      .uuid-d79b23fd-83a5-481f-8a72-99822e51a811 {
        fill: none;
      }
    </style></defs><g id="uuid-893dedc1-9e88-4be1-983c-46166c082a93" data-name="uuid-1c5d9f1e-418f-4125-a97b-7131a61f4a55"><g id="uuid-24247494-c628-40dd-b62f-913c6ee78cc2" data-name="uuid-61b22ca4-5362-4f81-9138-1d4ea794330d"><g><rect class="uuid-02371a53-177b-4f50-af8f-cbf1a1ea2403" x="245" y="63.22" width="13.45" height="161.37" transform="translate(-32.44 86.26) rotate(-18.29)"/><g><g><path class="uuid-1d66d296-2390-46c4-a438-9faf10db4969" d="m296.22,96.33c-45.65-18.1-70.77-31.92-70.77-31.92,0,0-11.94,26.07-37.81,67.81-25.87,41.74-56.63,61.35-56.63,61.35,0,0,17.31,12.36,44.55,4.97,27.24-7.38,26.54-16.87,36.67-19.67,10.13-2.81,23.38,14.4,52.61,4.74,29.23-9.66,29.61-31.37,39.43-35.16,9.81-3.78,14.9,4.25,41.17-6.05,26.28-10.3,32.81-30.54,32.81-30.54,0,0-36.38,2.58-82.03-15.52h0Z"/><path class="uuid-23e864bf-e55f-4824-98fc-854bd42b6f4b" d="m225.45,64.41h0s37.05,56.26,77.43,84.74h0c.45-.27.9-.52,1.39-.7,9.81-3.78,14.9,4.25,41.17-6.05,26.28-10.3,32.81-30.54,32.81-30.54,0,0-36.38,2.58-82.03-15.52-45.65-18.1-70.77-31.92-70.77-31.92h0Z"/><path class="uuid-23e864bf-e55f-4824-98fc-854bd42b6f4b" d="m187.64,132.22c-25.87,41.74-56.63,61.35-56.63,61.35,0,0,17.31,12.36,44.55,4.97,27.24-7.38,26.54-16.87,36.67-19.67.5-.14,1.02-.22,1.54-.26h0c15.46-46.94,11.68-114.19,11.68-114.19,0,0-11.94,26.07-37.81,67.81h0Z"/></g><circle class="uuid-0e7e8699-3590-4479-a271-4e2a88578054" cx="225.45" cy="64.41" r="10.58"/></g><path class="uuid-d79b23fd-83a5-481f-8a72-99822e51a811" d="m170.09,179.51c36.26-14.64,36.02-41.35,36.02-41.35"/><path class="uuid-d79b23fd-83a5-481f-8a72-99822e51a811" d="m338.5,123.84c-37.85,9.85-53.57-11.74-53.57-11.74"/></g></g></g></svg>
</svg>