<?xml version="1.0" encoding="UTF-8"?>
<svg xmlns="http://www.w3.org/2000/svg" viewBox="0 0 600 600">
<svg id="uuid-bc87ee82-23c3-4279-b438-811e43660712" data-name="BACKGROUND" xmlns="http://www.w3.org/2000/svg" viewBox="0 0 600 600"><defs><style>
      .uuid-52f0bbd2-4e52-45a8-8be3-bbbf1043e893 {
        fill: #a07bff;
      }
    </style></defs><rect class="uuid-52f0bbd2-4e52-45a8-8be3-bbbf1043e893" x="-1" y="-1" width="602" height="602"/></svg>
<svg id="uuid-bf7e525a-b2c7-4020-b508-877bdc0406a4" data-name="BACKGROUND" xmlns="http://www.w3.org/2000/svg" viewBox="0 0 600 600"><defs><style>
      .uuid-cae8e451-3158-423f-a4c4-142cfa64fc2f, .uuid-53b0b6c2-e2af-4a69-8394-836df11b181d {
        fill: #fff;
      }

      .uuid-6c565652-73da-4adf-a499-bd10556ab125, .uuid-53b0b6c2-e2af-4a69-8394-836df11b181d, .uuid-effa0351-bd28-4c1f-8e0f-0367a45f08e0, .uuid-be033c18-bf35-4c17-9e62-8709a499cbd0, .uuid-cd2bf4ed-c472-45eb-b36b-e9e8eed1b636, .uuid-2f2a2fea-5687-4202-a45d-609c70a3635c, .uuid-f9183db0-afbe-438e-8497-494846bbd113 {
        stroke: #000;
        stroke-width: 2px;
      }

      .uuid-6c565652-73da-4adf-a499-bd10556ab125, .uuid-53b0b6c2-e2af-4a69-8394-836df11b181d, .uuid-cd2bf4ed-c472-45eb-b36b-e9e8eed1b636, .uuid-2f2a2fea-5687-4202-a45d-609c70a3635c {
        stroke-miterlimit: 10;
      }

      .uuid-6c565652-73da-4adf-a499-bd10556ab125, .uuid-effa0351-bd28-4c1f-8e0f-0367a45f08e0, .uuid-cd2bf4ed-c472-45eb-b36b-e9e8eed1b636, .uuid-f9183db0-afbe-438e-8497-494846bbd113 {
        fill: #ff78d8;
      }

      .uuid-53b0b6c2-e2af-4a69-8394-836df11b181d, .uuid-effa0351-bd28-4c1f-8e0f-0367a45f08e0, .uuid-be033c18-bf35-4c17-9e62-8709a499cbd0, .uuid-cd2bf4ed-c472-45eb-b36b-e9e8eed1b636, .uuid-2f2a2fea-5687-4202-a45d-609c70a3635c {
        stroke-linecap: round;
      }

      .uuid-effa0351-bd28-4c1f-8e0f-0367a45f08e0, .uuid-be033c18-bf35-4c17-9e62-8709a499cbd0, .uuid-f9183db0-afbe-438e-8497-494846bbd113 {
        stroke-linejoin: round;
      }

      .uuid-be033c18-bf35-4c17-9e62-8709a499cbd0 {
        fill: none;
      }

      .uuid-2f2a2fea-5687-4202-a45d-609c70a3635c {
        fill: #3ef1ff;
      }
    </style></defs><path class="uuid-effa0351-bd28-4c1f-8e0f-0367a45f08e0" d="m409.81,359.6c9.2,3.77,29.89,12.05,42.79,16.03,2.11.65,4.41.69,6.5-.04,11.79-4.08,28.47-11.39,33.03-11.32,5.25.08,7.8,3.93,19.88,2.04,13.36-2.1,22.43-11.99,20.93-23.3-4.21-43.28-25.18-26.79-25.18-26.79,0,0-5.84-8.75-18.76-4.82-11.83,3.6-10.2,14.44-6.47,22.47l-25.29,8.58c-2.14.72-4.45.71-6.59-.02l-35.7-12.61"/><path class="uuid-cd2bf4ed-c472-45eb-b36b-e9e8eed1b636" d="m533.36,312.82c2.5,3.94,1.62,9.14-1.57,12.4-2.47,2.53-5.88,3.88-9.32,4.4-2.8.43-5.7.42-8.49-.08-2.14-.39-4.29-1.1-5.79-2.75-1.66-1.83-2.27-4.46-1.98-6.87.51-4.17,3.84-7.14,7.22-9.26,3.17-1.98,6.86-3.26,10.64-3.09,3.8.18,7.36,2.19,9.3,5.24Z"/><path class="uuid-cd2bf4ed-c472-45eb-b36b-e9e8eed1b636" d="m538.57,349.84c.97,3.03.32,6.43-1.5,9.01-3.77,5.33-11.17,5.65-16.96,4.27-3.31-.79-6.69-2.21-8.67-5.13-3.13-4.61-.82-9.79,3.48-12.56,2.58-1.66,5.61-2.67,8.63-3.14,5.73-.89,13.1,1.51,15.03,7.56Z"/><path class="uuid-cd2bf4ed-c472-45eb-b36b-e9e8eed1b636" d="m538.71,328.53c1.8,2.99,2.06,6.89.22,9.9-1.95,3.2-4.94,5.25-8.49,6.28-3.66,1.07-7.64,1.27-11.4.44-2.25-.5-4.53-1.38-5.96-3.28-1.86-2.47-1.89-5.68-.85-8.49,1.2-3.24,4.17-5.69,7.09-7.37,6.15-3.56,15.21-4.43,19.39,2.52Z"/><path class="uuid-cd2bf4ed-c472-45eb-b36b-e9e8eed1b636" d="m501.85,311.68s9.27,3.84,7.77,12.02c-1.04,5.68-8.17,9.55-14.94,6.13"/><path class="uuid-be033c18-bf35-4c17-9e62-8709a499cbd0" d="m500.67,331.08c2.41,1.63,5.11,8.04,3.4,14.42"/><path d="m443.44,339.88c-2.88,10.58-6.94,20.23-11.17,28.59-10.17-3.78-21.16-9.53-27-11.93l11.83-26.02,26.35,9.36Z"/><ellipse cx="300" cy="518.65" rx="138.6" ry="22.93"/><path class="uuid-6c565652-73da-4adf-a499-bd10556ab125" d="m319.36,427.14c-1.16,1.05-54.95,57-54.95,57,0,0,21.51-1.95,31.74,10.62,10.23,12.57,7.26,23.89,7.26,23.89h-66.9s-28.69-36.17-28.69-36.17c0,0,3.74-13.4,20.44-10.59,20.9-19.38,55.52-59.13,55.52-59.13l35.59,14.38Z"/><path d="m283.78,412.76l31.28,12.64-3.24,9.5c-2.93,3.03-9.76,10.12-13.64,14.14-11.92,0-27.98-2.13-41.33-6.37,13.95-15.1,26.93-29.92,26.93-29.92Z"/><path class="uuid-6c565652-73da-4adf-a499-bd10556ab125" d="m354.45,173.54l-.11.27-174.2,58.29c-11.49,20.13-18.05,43.43-18.05,68.27,0,76.2,61.77,137.98,137.97,137.98s137.98-61.77,137.98-137.98c0-56.89-34.43-105.72-83.58-126.83Z"/><path class="uuid-be033c18-bf35-4c17-9e62-8709a499cbd0" d="m264.41,484.14c-4.06.49-11.49,1.36-17.85,7.23"/><path class="uuid-cae8e451-3158-423f-a4c4-142cfa64fc2f" d="m185.17,308.14c-4.41,0-7.98-3.57-7.98-7.98,0-67.74,55.11-122.86,122.86-122.86,4.41,0,7.98,3.57,7.98,7.98s-3.57,7.98-7.98,7.98c-58.94,0-106.9,47.95-106.9,106.9,0,4.41-3.57,7.98-7.98,7.98Z"/><path d="m203.75,397.46l34.2-27.46-24.86,36.3c-6.73-5.1-3.66-2.61-9.34-8.83Z"/><path class="uuid-f9183db0-afbe-438e-8497-494846bbd113" d="m323.72,387.31c19.14-13.4,39.15-11.3,55.52,7.36,19.6,22.35,30.57,33.06,30.57,33.06,0,0,10.74-19.34,34.77-17.5,18.26,1.4,24.84,14.43,24.84,14.43,0,0,6.21,8.82-22.45,33.5-28.66,24.68-54.93,40.92-61.14,29.46-6.21-11.46-2.82-32.1-2.82-32.1,0,0-22.02-26.09-27.94-32.01-6.79-6.79-15.71-1.36-15.71-1.36"/><path class="uuid-6c565652-73da-4adf-a499-bd10556ab125" d="m446.97,458.17c-25.89,22.29-49.82,37.69-58.79,32.02-9.77-7.44,26.84-38.54,44.88-52.7,18.04-14.16,32.17-17.82,36.36-12.81,0,0,6.21,8.82-22.45,33.5Z"/><path class="uuid-be033c18-bf35-4c17-9e62-8709a499cbd0" d="m409.81,427.74c-1.89,2.86-4.55,10.38-4.55,10.38"/><ellipse class="uuid-53b0b6c2-e2af-4a69-8394-836df11b181d" cx="269.41" cy="209.07" rx="94.9" ry="26.25" transform="translate(-52.5 96.54) rotate(-18.55)"/><ellipse class="uuid-2f2a2fea-5687-4202-a45d-609c70a3635c" cx="269.41" cy="209.07" rx="71.19" ry="13.32" transform="translate(-52.5 96.54) rotate(-18.55)"/><g><path class="uuid-effa0351-bd28-4c1f-8e0f-0367a45f08e0" d="m214.11,345.7c-8.05,5.83-25.34,20.79-35.52,29.67-1.67,1.45-2.82,3.41-3.39,5.55-3.14,11.67-8.55,33.44-8.55,33.44,0,0-8.42.58-12.19,14.35-3.64,13.3-6.64,25.06,3.77,29.75.35,7.47,7.51,15.45,19.2,9.41.14-.06,1.32,1.32,1.44,1.45,2.64,2.7,6.36,4.45,10.13,4.81,3.65.36,7.61-.67,10.43-3.08,3.29-2.81,5.4-6.94,6.05-11.2.4-2.61.26-5.31-.75-7.78,0,0,6.2-2.51,8.05-11.34,1.99-9.49-4.22-19.42-14.62-18.18l6.17-23.11c.51-2.2,1.74-4.16,3.49-5.59l29.38-24.3"/><path class="uuid-be033c18-bf35-4c17-9e62-8709a499cbd0" d="m204.73,452.06c-1.37-3.47-5.39-7.08-9-6.88"/><path class="uuid-be033c18-bf35-4c17-9e62-8709a499cbd0" d="m178.86,469.3c-5.16-5.27-3.82-11.97-2.9-13.54"/><path class="uuid-be033c18-bf35-4c17-9e62-8709a499cbd0" d="m158.22,458.45c-.27-5.22.73-7.32,3.06-9.83"/><path class="uuid-be033c18-bf35-4c17-9e62-8709a499cbd0" d="m193.93,450.63c.14-2.07.48-4.16,1.32-6.06.85-1.95,2.36-3.88,4.31-4.85"/></g></svg>
<svg id="uuid-d5dd65a7-b2b1-4e4f-8af0-4691195114d0" data-name="BODY" xmlns="http://www.w3.org/2000/svg" viewBox="0 0 600 600"><circle cx="369.54" cy="262.94" r="9.78" transform="translate(-8.58 12.49) rotate(-1.91)"/><path d="m352.87,296.37c1.76,5.11,7.33,7.82,12.44,6.06,5.11-1.76,7.82-7.33,6.06-12.44"/><circle cx="337.63" cy="273.96" r="9.78" transform="translate(-8.96 11.43) rotate(-1.91)"/></svg>
<svg id="uuid-3d4b76ab-6c40-4db0-80a5-58215603a36a" data-name="BODY" xmlns="http://www.w3.org/2000/svg" viewBox="0 0 600 600"><defs><style>
      .uuid-b4ff5219-4456-479b-a4e6-3ec362204d57 {
        fill: #a07bff;
        stroke: #000;
        stroke-linecap: round;
        stroke-linejoin: round;
        stroke-width: 2px;
      }
    </style></defs><g id="uuid-24effac1-cb0a-4458-9f3b-3056f57ead23" data-name="uuid-1f78a3be-5fce-4020-89b4-7aa51f9e5b9c"><g id="uuid-ab39dc42-38f5-4a02-adb5-d02219b918d3" data-name="uuid-969c81b9-1e0e-41b0-9d6d-316f0948a7ae"><g id="uuid-e07eced2-eb92-4c3e-bc2f-47523d25c769" data-name="uuid-69f00393-7ebc-4c63-be88-21f81d4c3cd4"><g><g><g><path class="uuid-b4ff5219-4456-479b-a4e6-3ec362204d57" d="m252.95,512.53s-.13-19.98,20.94-31.34c3.45,0,6.66.45,9.62,1.27,2.65-2.1,6.05-.47,6.01,2.35,10.51,5.43,16.48,16.22,16.48,27.26l-53.04.45h0Z"/><g><path class="uuid-b4ff5219-4456-479b-a4e6-3ec362204d57" d="m271.52,490.69c3.35-3.3,8.28-1.24,7.95,2.97"/><path class="uuid-b4ff5219-4456-479b-a4e6-3ec362204d57" d="m261.12,503.04c2.5-3.99,7.77-3.12,8.42,1.06"/><path class="uuid-b4ff5219-4456-479b-a4e6-3ec362204d57" d="m280.55,505.22c2.5-3.99,7.77-3.12,8.42,1.06"/><path class="uuid-b4ff5219-4456-479b-a4e6-3ec362204d57" d="m293.27,497.89c4.21-2.11,8.26,1.37,6.65,5.27"/><path class="uuid-b4ff5219-4456-479b-a4e6-3ec362204d57" d="m278.79,490.47c3.54-3.1,8.34-.74,7.75,3.44"/></g></g><path class="uuid-b4ff5219-4456-479b-a4e6-3ec362204d57" d="m211.4,475.24l25.74,33.51c.86,1.11,2.18,1.77,3.59,1.77h64.41c2.26,0,4.1,1.83,4.1,4.1v4.55c0,2.26-1.83,4.1-4.1,4.1h-68c-3,0-5.83-1.4-7.64-3.79l-26.99-35.42c-.92-1.2-.93-2.87-.02-4.09l3.5-4.69c1.35-1.8,4.04-1.82,5.41-.04h0Z"/></g><g><g><path class="uuid-b4ff5219-4456-479b-a4e6-3ec362204d57" d="m414.18,446.66s-4.53-21.06,9-36.13c6.68-3.31,14.98-4.7,23.09-3.58,2.95-3.25,7.9-1.53,8.13,2.04,4.57,1.7,8.87,4.35,12.51,8.05,0,0-27.13,5.11-52.73,29.62h0Z"/><g><path class="uuid-b4ff5219-4456-479b-a4e6-3ec362204d57" d="m426.27,415.55c1.73-4.38,7.07-4.49,8.47-.5"/><path class="uuid-b4ff5219-4456-479b-a4e6-3ec362204d57" d="m418.82,431.73c.67-4.66,5.85-6,8.12-2.44"/><path class="uuid-b4ff5219-4456-479b-a4e6-3ec362204d57" d="m446.15,414.02c2.99-3.63,8.11-2.09,8.21,2.13"/><path class="uuid-b4ff5219-4456-479b-a4e6-3ec362204d57" d="m430.79,419.07c1.99-4.26,7.33-4.05,8.48.01"/></g></g><path class="uuid-b4ff5219-4456-479b-a4e6-3ec362204d57" d="m468.14,415.89c-2.24-1.13-22.3,0-54.12,28.18-31.82,28.18-34.52,37.14-33.85,41.63.52,3.51,3.2,9.54,12.81,9.64,9.61.1,27.32-9.56,50.22-28.75,31.08-26.04,31.18-37.38,31.08-41.12-.1-3.74-2.87-7.92-6.13-9.57h0Z"/><path class="uuid-b4ff5219-4456-479b-a4e6-3ec362204d57" d="m466.23,426.09c-7.45-6.64-85.34,55.53-74.28,61.26,11.06,5.73,82.61-53.84,74.28-61.26h0Z"/></g></g></g></g></g></svg>
<svg id="uuid-1814dd4d-896f-43a9-8cc5-9df7690e94a2" data-name="BACKGROUND" xmlns="http://www.w3.org/2000/svg" viewBox="0 0 600 600"><defs><style>
      .uuid-3be35196-23eb-415c-bbdf-01577589215b {
        fill: #ffff0d;
        stroke: #000;
        stroke-linecap: round;
        stroke-linejoin: round;
        stroke-width: 2px;
      }
    </style></defs><path class="uuid-3be35196-23eb-415c-bbdf-01577589215b" d="m375.86,319.37c-14.26,7.96-19.36,25.98-11.4,40.24,7.96,14.26,25.98,19.36,40.24,11.4,14.26-7.96,19.36-25.98,11.4-40.24-7.96-14.26-25.98-19.36-40.24-11.4Zm-.03,6.32l10.52,18.84-6.41,22.61c-4.44-2.08-8.29-5.52-10.86-10.12-6.02-10.78-2.93-24.18,6.75-31.33Zm9.99,43.35l4.79-16.89,8.69,15.57c-4.39,1.76-9.06,2.15-13.48,1.32Zm18.87-4.32l-8.9-15.94,17.51,4.1c-1.55,4.62-4.47,8.8-8.6,11.84Zm9.8-17.89l-22.77-5.34-10.5-18.81c11.18-4.52,24.23-.12,30.26,10.68,2.38,4.26,3.33,8.94,3.02,13.47Z"/><circle class="uuid-3be35196-23eb-415c-bbdf-01577589215b" cx="420.18" cy="318.72" r="8.31"/><circle class="uuid-3be35196-23eb-415c-bbdf-01577589215b" cx="436.89" cy="310.38" r="8.31"/><circle class="uuid-3be35196-23eb-415c-bbdf-01577589215b" cx="350.39" cy="343.04" r="8.31"/><circle class="uuid-3be35196-23eb-415c-bbdf-01577589215b" cx="332" cy="346.35" r="8.31"/><circle class="uuid-3be35196-23eb-415c-bbdf-01577589215b" cx="313.56" cy="349.17" r="8.31"/><circle class="uuid-3be35196-23eb-415c-bbdf-01577589215b" cx="295.1" cy="351.34" r="8.31"/><circle class="uuid-3be35196-23eb-415c-bbdf-01577589215b" cx="276.49" cy="352.43" r="8.31"/><circle class="uuid-3be35196-23eb-415c-bbdf-01577589215b" cx="257.85" cy="352.14" r="8.31"/><circle class="uuid-3be35196-23eb-415c-bbdf-01577589215b" cx="239.26" cy="352.14" r="8.31"/><circle class="uuid-3be35196-23eb-415c-bbdf-01577589215b" cx="220.83" cy="349.72" r="8.31"/><circle class="uuid-3be35196-23eb-415c-bbdf-01577589215b" cx="202.35" cy="347.91" r="8.31"/><circle class="uuid-3be35196-23eb-415c-bbdf-01577589215b" cx="184.1" cy="344.29" r="8.31"/><circle class="uuid-3be35196-23eb-415c-bbdf-01577589215b" cx="165.96" cy="340.27" r="8.31"/></svg>
<svg id="uuid-918f0af7-69b1-4d0f-8b25-1ebb8fa0263c" data-name="BODY" xmlns="http://www.w3.org/2000/svg" viewBox="0 0 600 600"><defs><style>
      .uuid-a94f1842-96f2-46e0-80ad-453adfe7c791 {
        fill: #a07bff;
      }

      .uuid-a94f1842-96f2-46e0-80ad-453adfe7c791, .uuid-076e47b0-9fcb-4add-9be6-e3a2aa36a1ab, .uuid-4e971888-5854-439c-9814-73de44346e35 {
        stroke: #000;
        stroke-linecap: round;
        stroke-linejoin: round;
        stroke-width: 2px;
      }

      .uuid-076e47b0-9fcb-4add-9be6-e3a2aa36a1ab {
        fill: #fff7f0;
      }

      .uuid-4e971888-5854-439c-9814-73de44346e35 {
        fill: none;
      }
    </style></defs><g id="uuid-2076c04b-299b-4973-851a-784433720c9f" data-name="uuid-c46f65ed-d275-49a6-b41b-9935c7f7cc5c"><g id="uuid-57e7f47e-e750-42fe-918c-fffed7408fdd" data-name="uuid-3d541555-fa28-433a-9ee6-066895a43351"><g id="uuid-e3887906-34ba-42eb-a2cc-6ba54a0f247d" data-name="uuid-1fe4f652-122b-4bcd-a2e3-81acaa81d790"><g><path class="uuid-4e971888-5854-439c-9814-73de44346e35" d="m508.21,325.78s-.94,17.21-1.53,29.14c-.61,12.3,4.87,22,4.17,36.99"/><g><path class="uuid-076e47b0-9fcb-4add-9be6-e3a2aa36a1ab" d="m498.16,421.23c-.11.15-3.38,1.37-3.64,6.75-2.87-5.14-1.58-9.04,2.43-10.29l1.21,3.53h0Z"/><path class="uuid-076e47b0-9fcb-4add-9be6-e3a2aa36a1ab" d="m504.92,425.01c-.02.19,1.54,3.53-2.11,7.49,5.8-1.42,7.63-5.13,5.53-9.05l-3.42,1.55h0Z"/></g><path class="uuid-a94f1842-96f2-46e0-80ad-453adfe7c791" d="m500.35,408.04s-1.74-14.99,10.78-16.09c12.52-1.11,11.91,19.11,2.97,21.21,2.22,4.75-1.77,17.53-13.83,11.65-7.05-3.44-5.5-13.96.08-16.77h0Z"/><path class="uuid-4e971888-5854-439c-9814-73de44346e35" d="m500.35,408.04c2.72-1.28,6.49-.58,8.63.3"/><path class="uuid-4e971888-5854-439c-9814-73de44346e35" d="m514.1,413.16c-.32-.86-1.88-2.26-1.88-2.26"/><path class="uuid-4e971888-5854-439c-9814-73de44346e35" d="m504.01,395.1s-2.7-5.97-2.23-8.56,8.01-8.89,8.01-8.89"/><path class="uuid-4e971888-5854-439c-9814-73de44346e35" d="m508.75,371.28s12.36,10.12,13.66,13.08-3.35,11.4-3.35,11.4"/><path class="uuid-4e971888-5854-439c-9814-73de44346e35" d="m501.94,398.08s-5.97-7.21-8.7-8.12-8.57,3.3-8.57,3.3"/><path class="uuid-4e971888-5854-439c-9814-73de44346e35" d="m500.48,403.15s-6.33-3.19-9.12-2.15c-2.79,1.04-5.91,7.66-5.91,7.66"/><path class="uuid-4e971888-5854-439c-9814-73de44346e35" d="m520.66,403.16s7.58-3.45,10.77-3.45,7.01,7.63,7.01,7.63"/><path class="uuid-4e971888-5854-439c-9814-73de44346e35" d="m519.5,408.12s6.93,2.76,7.78,5.81,0,10,0,10"/><path class="uuid-4e971888-5854-439c-9814-73de44346e35" d="m496.18,413.16s-7.16-3.18-7.75,10.05"/><path class="uuid-4e971888-5854-439c-9814-73de44346e35" d="m513.16,422.01s6.82,7.71-4.83,13.18"/><path class="uuid-076e47b0-9fcb-4add-9be6-e3a2aa36a1ab" d="m495.97,419.75c-1.97-6.64,4.68-7.08,5.46-1.74s-3.89,7.03-5.46,1.74Z"/><path class="uuid-076e47b0-9fcb-4add-9be6-e3a2aa36a1ab" d="m505.56,420.95c4.71-5.08,8.48.42,4.27,3.81s-8.03.23-4.27-3.81Z"/><ellipse cx="498.31" cy="418.89" rx=".84" ry="1.27" transform="translate(-64.89 92.41) rotate(-9.95)"/><ellipse cx="507.84" cy="423.07" rx="1.27" ry=".84" transform="translate(-152.31 456.1) rotate(-42.66)"/></g></g></g></g></svg>
<svg id="uuid-2c12b907-b76f-4699-b403-115b318e8c0a" data-name="BODY" xmlns="http://www.w3.org/2000/svg" viewBox="0 0 600 600"><g id="uuid-fbaff554-f4e8-4966-8dd6-93a04a55e731" data-name="notes"><path id="uuid-c4bab009-7e62-47ea-a24c-6e0e8eb4e622" data-name="note" d="m530.94,167.64c-1.6-.76-3.52-.08-4.29,1.52,0,0-15.87,35.49-21.85,48.86-2.39-1.88-5.81-3.17-9.68-3.41-7.57-.46-13.95,3.29-14.26,8.37-.31,5.08,5.58,9.57,13.15,10.03,6.58.4,12.26-2.39,13.84-6.46.18-.2.35-.42.48-.67l24.14-53.95c.76-1.6.08-3.52-1.52-4.29Z"/><path id="uuid-3ea0a4af-a12f-4b4b-b4be-488363ed619c" data-name="note" d="m399.17,83.39l-13.93-22.62c-.9-1.53-2.87-2.05-4.4-1.16-.87.51-1.4,1.36-1.54,2.29-.84,3.27-9.74,38.06-13.21,51.58-2.67-1.45-6.26-2.15-10.12-1.72-7.54.83-13.2,5.6-12.64,10.66.56,5.06,7.12,8.49,14.65,7.66,6.56-.72,11.68-4.43,12.55-8.71.14-.23.27-.47.35-.75l12.83-50.06c4.07,6.61,9.77,15.86,9.85,15.99.32.55-5.45,4.09-5.45,4.09,0,0,8.87-2.36,9.85-2.93,1.51-.88,2.03-2.8,1.19-4.32Z"/><path id="uuid-c9c4d404-b4a7-4a04-9f34-9ae196a5cd99" data-name="note" d="m494.28,83.17s0-.03,0-.04c-.35-1.74-2.05-2.87-3.79-2.51,0,0-33.19,7.52-33.44,7.57-1.54.31-2.6,1.69-2.57,3.21-.92,5-7.13,38.67-9.59,51.99-2.76-1.27-6.4-1.71-10.21-1.03-7.46,1.34-12.78,6.49-11.88,11.5.9,5.01,7.68,7.98,15.14,6.64,6.49-1.17,11.35-5.21,11.92-9.54.13-.24.24-.49.3-.77l7.63-41.31,26.58-6.06c-2.15,11.64-4.71,25.53-6.09,33-2.76-1.27-6.4-1.71-10.21-1.03-7.46,1.34-12.78,6.49-11.88,11.5.9,5.01,7.68,7.98,15.14,6.64,6.49-1.17,11.36-5.21,11.92-9.54.13-.24.24-.49.3-.77l10.73-58.12c.09-.45.08-.9,0-1.32Zm-35.22,18.82l1.48-8.01,26.56-6c-.39,2.13-.89,4.85-1.46,7.95-4.21.96-19.81,4.53-26.58,6.07Z"/></g></svg>
</svg>