<?xml version="1.0" encoding="UTF-8"?>
<svg xmlns="http://www.w3.org/2000/svg" viewBox="0 0 600 600">
<svg id="uuid-76576d14-1db9-41e1-baf2-b575b174d48a" data-name="BACKGROUND" xmlns="http://www.w3.org/2000/svg" viewBox="0 0 600 600"><defs><style>
      .uuid-5f5134e1-be85-4028-9053-a97aa84d746d {
        fill: #f9a723;
      }
    </style></defs><rect class="uuid-5f5134e1-be85-4028-9053-a97aa84d746d" x="-1" y="-1" width="602" height="602"/></svg>
<svg id="uuid-09dbe01b-fc39-4c48-9143-1b11829ee622" data-name="BODY" xmlns="http://www.w3.org/2000/svg" viewBox="0 0 600 600"><defs><style>
      .uuid-0e068f93-a4ce-4525-bc73-042279753465, .uuid-896c9f2e-4bdd-438c-b20a-d49b9a988943, .uuid-f61e2b2e-680e-4412-a25d-9c4f1d374aaa, .uuid-9d2bc652-0f8d-4f45-83f6-147ae07b83ac, .uuid-a8310226-7f3d-4492-965e-668c558de2ee {
        stroke: #000;
        stroke-width: 2px;
      }

      .uuid-0e068f93-a4ce-4525-bc73-042279753465, .uuid-896c9f2e-4bdd-438c-b20a-d49b9a988943, .uuid-9d2bc652-0f8d-4f45-83f6-147ae07b83ac, .uuid-a8310226-7f3d-4492-965e-668c558de2ee {
        fill: #7aa6ff;
      }

      .uuid-0e068f93-a4ce-4525-bc73-042279753465, .uuid-f61e2b2e-680e-4412-a25d-9c4f1d374aaa, .uuid-9d2bc652-0f8d-4f45-83f6-147ae07b83ac {
        stroke-linecap: round;
      }

      .uuid-0e068f93-a4ce-4525-bc73-042279753465, .uuid-f61e2b2e-680e-4412-a25d-9c4f1d374aaa, .uuid-a8310226-7f3d-4492-965e-668c558de2ee {
        stroke-linejoin: round;
      }

      .uuid-4e485c41-11e0-491a-aac2-66b77ba2e3f7 {
        fill: #fff;
      }

      .uuid-896c9f2e-4bdd-438c-b20a-d49b9a988943, .uuid-9d2bc652-0f8d-4f45-83f6-147ae07b83ac {
        stroke-miterlimit: 10;
      }

      .uuid-f61e2b2e-680e-4412-a25d-9c4f1d374aaa {
        fill: none;
      }
    </style></defs><ellipse cx="300" cy="518.65" rx="138.6" ry="22.93"/><g><path class="uuid-896c9f2e-4bdd-438c-b20a-d49b9a988943" d="m319.36,427.14c-1.16,1.05-54.95,57-54.95,57,0,0,21.51-1.95,31.74,10.62,10.23,12.57,7.26,23.89,7.26,23.89h-66.9s-28.69-36.17-28.69-36.17c0,0,3.74-13.4,20.44-10.59,20.9-19.38,55.52-59.13,55.52-59.13l35.59,14.38Z"/><path d="m283.78,412.76l31.28,12.64-3.24,9.5c-2.93,3.03-9.76,10.12-13.64,14.14-11.92,0-27.98-2.13-41.33-6.37,13.95-15.1,26.93-29.92,26.93-29.92Z"/></g><g><path class="uuid-0e068f93-a4ce-4525-bc73-042279753465" d="m409.81,359.6c9.2,3.77,29.89,12.05,42.79,16.03,2.11.65,4.41.69,6.5-.04,11.79-4.08,28.47-11.39,33.03-11.32,5.25.08,7.8,3.93,19.88,2.04,13.36-2.1,22.43-11.99,20.93-23.3-4.21-43.28-25.18-26.79-25.18-26.79,0,0-5.84-8.75-18.76-4.82-11.83,3.6-10.2,14.44-6.47,22.47l-25.29,8.58c-2.14.72-4.45.71-6.59-.02l-35.7-12.61"/><path class="uuid-9d2bc652-0f8d-4f45-83f6-147ae07b83ac" d="m533.36,312.82c2.5,3.94,1.62,9.14-1.57,12.4-2.47,2.53-5.88,3.88-9.32,4.4-2.8.43-5.7.42-8.49-.08-2.14-.39-4.29-1.1-5.79-2.75-1.66-1.83-2.27-4.46-1.98-6.87.51-4.17,3.84-7.14,7.22-9.26,3.17-1.98,6.86-3.26,10.64-3.09,3.8.18,7.36,2.19,9.3,5.24Z"/><path class="uuid-9d2bc652-0f8d-4f45-83f6-147ae07b83ac" d="m538.57,349.84c.97,3.03.32,6.43-1.5,9.01-3.77,5.33-11.17,5.65-16.96,4.27-3.31-.79-6.69-2.21-8.67-5.13-3.13-4.61-.82-9.79,3.48-12.56,2.58-1.66,5.61-2.67,8.63-3.14,5.73-.89,13.1,1.51,15.03,7.56Z"/><path class="uuid-9d2bc652-0f8d-4f45-83f6-147ae07b83ac" d="m538.71,328.53c1.8,2.99,2.06,6.89.22,9.9-1.95,3.2-4.94,5.25-8.49,6.28-3.66,1.07-7.64,1.27-11.4.44-2.25-.5-4.53-1.38-5.96-3.28-1.86-2.47-1.89-5.68-.85-8.49,1.2-3.24,4.17-5.69,7.09-7.37,6.15-3.56,15.21-4.43,19.39,2.52Z"/><path class="uuid-9d2bc652-0f8d-4f45-83f6-147ae07b83ac" d="m501.85,311.68s9.27,3.84,7.77,12.02c-1.04,5.68-8.17,9.55-14.94,6.13"/><path class="uuid-f61e2b2e-680e-4412-a25d-9c4f1d374aaa" d="m500.67,331.08c2.41,1.63,5.11,8.04,3.4,14.42"/><path d="m443.44,339.88c-2.88,10.58-6.94,20.23-11.17,28.59-10.17-3.78-21.16-9.53-27-11.93l11.83-26.02,26.35,9.36Z"/></g><g><circle class="uuid-896c9f2e-4bdd-438c-b20a-d49b9a988943" cx="300" cy="300" r="138.16"/><path class="uuid-4e485c41-11e0-491a-aac2-66b77ba2e3f7" d="m184.58,308.17c-4.41,0-7.98-3.57-7.98-7.98,0-67.74,55.11-122.86,122.86-122.86,4.41,0,7.98,3.57,7.98,7.98s-3.57,7.98-7.98,7.98c-58.94,0-106.9,47.95-106.9,106.9,0,4.41-3.57,7.98-7.98,7.98Z"/></g><path class="uuid-f61e2b2e-680e-4412-a25d-9c4f1d374aaa" d="m264.41,484.14c-4.06.49-11.49,1.36-17.85,7.23"/><path class="uuid-4e485c41-11e0-491a-aac2-66b77ba2e3f7" d="m185.17,308.14c-4.41,0-7.98-3.57-7.98-7.98,0-67.74,55.11-122.86,122.86-122.86,4.41,0,7.98,3.57,7.98,7.98s-3.57,7.98-7.98,7.98c-58.94,0-106.9,47.95-106.9,106.9,0,4.41-3.57,7.98-7.98,7.98Z"/><path d="m203.75,397.46l34.2-27.46-24.86,36.3c-6.73-5.1-3.66-2.61-9.34-8.83Z"/><path class="uuid-a8310226-7f3d-4492-965e-668c558de2ee" d="m323.72,387.31c19.14-13.4,39.15-11.3,55.52,7.36,19.6,22.35,30.57,33.06,30.57,33.06,0,0,10.74-19.34,34.77-17.5,18.26,1.4,24.84,14.43,24.84,14.43,0,0,6.21,8.82-22.45,33.5-28.66,24.68-54.93,40.92-61.14,29.46-6.21-11.46-2.82-32.1-2.82-32.1,0,0-22.02-26.09-27.94-32.01-6.79-6.79-15.71-1.36-15.71-1.36"/><path class="uuid-896c9f2e-4bdd-438c-b20a-d49b9a988943" d="m446.97,458.17c-25.89,22.29-49.82,37.69-58.79,32.02-9.77-7.44,26.84-38.54,44.88-52.7,18.04-14.16,32.17-17.82,36.36-12.81,0,0,6.21,8.82-22.45,33.5Z"/><path class="uuid-f61e2b2e-680e-4412-a25d-9c4f1d374aaa" d="m409.81,427.74c-1.89,2.86-4.55,10.38-4.55,10.38"/><g><path class="uuid-0e068f93-a4ce-4525-bc73-042279753465" d="m214.11,345.7c-8.05,5.83-25.34,20.79-35.52,29.67-1.67,1.45-2.82,3.41-3.39,5.55-3.14,11.67-8.55,33.44-8.55,33.44,0,0-8.42.58-12.19,14.35-3.64,13.3-6.64,25.06,3.77,29.75.35,7.47,7.51,15.45,19.2,9.41.14-.06,1.32,1.32,1.44,1.45,2.64,2.7,6.36,4.45,10.13,4.81,3.65.36,7.61-.67,10.43-3.08,3.29-2.81,5.4-6.94,6.05-11.2.4-2.61.26-5.31-.75-7.78,0,0,6.2-2.51,8.05-11.34,1.99-9.49-4.22-19.42-14.62-18.18l6.17-23.11c.51-2.2,1.74-4.16,3.49-5.59l29.38-24.3"/><path class="uuid-f61e2b2e-680e-4412-a25d-9c4f1d374aaa" d="m204.73,452.06c-1.37-3.47-5.39-7.08-9-6.88"/><path class="uuid-f61e2b2e-680e-4412-a25d-9c4f1d374aaa" d="m178.86,469.3c-5.16-5.27-3.82-11.97-2.9-13.54"/><path class="uuid-f61e2b2e-680e-4412-a25d-9c4f1d374aaa" d="m158.22,458.45c-.27-5.22.73-7.32,3.06-9.83"/><path class="uuid-f61e2b2e-680e-4412-a25d-9c4f1d374aaa" d="m193.93,450.63c.14-2.07.48-4.16,1.32-6.06.85-1.95,2.36-3.88,4.31-4.85"/></g></svg>
<svg id="uuid-783ed389-68eb-43cd-8772-5f49b9e71529" data-name="BODY" xmlns="http://www.w3.org/2000/svg" viewBox="0 0 600 600"><defs><style>
      .uuid-f7dbff45-408d-444d-ade6-4633d32cb1f2 {
        fill: none;
        stroke: #000;
        stroke-linecap: round;
        stroke-linejoin: round;
        stroke-width: 4px;
      }
    </style></defs><g id="uuid-4bc92f06-c84b-4f7f-af09-c2014f1ce8f9" data-name="mouth"><path d="m371.37,289.99c1.76,5.11-.95,10.68-6.06,12.44s-10.68-.95-12.44-6.06l18.49-6.38Z"/></g><g id="uuid-285df2d9-fba6-4a75-9123-94e1b459206d" data-name="eye L"><path class="uuid-f7dbff45-408d-444d-ade6-4633d32cb1f2" d="m346.88,270.76c1.76,5.11-.95,10.68-6.06,12.44s-10.68-.95-12.44-6.06"/></g><g id="uuid-a97f4a4e-8c90-4af2-892b-9ce222650c5a" data-name="eye R"><path class="uuid-f7dbff45-408d-444d-ade6-4633d32cb1f2" d="m378.79,259.75c1.76,5.11-.95,10.68-6.06,12.44-5.11,1.76-10.68-.95-12.44-6.06"/></g></svg>
<svg id="uuid-5e467335-96f0-4a19-bf5d-f66d24f9f050" data-name="BODY" xmlns="http://www.w3.org/2000/svg" viewBox="0 0 600 600"><defs><style>
      .uuid-c95b386d-6b7a-48bc-b015-46353c5ddf6d, .uuid-6dfda773-13b8-4575-9246-263a2a33ff95 {
        stroke-miterlimit: 10;
      }

      .uuid-c95b386d-6b7a-48bc-b015-46353c5ddf6d, .uuid-6dfda773-13b8-4575-9246-263a2a33ff95, .uuid-d59f6628-b02a-4e8d-88df-548bea5614f0 {
        stroke: #000;
        stroke-width: 2px;
      }

      .uuid-c95b386d-6b7a-48bc-b015-46353c5ddf6d, .uuid-d59f6628-b02a-4e8d-88df-548bea5614f0 {
        fill: #ffc9f1;
      }

      .uuid-6dfda773-13b8-4575-9246-263a2a33ff95 {
        fill: #a07bff;
      }

      .uuid-d59f6628-b02a-4e8d-88df-548bea5614f0 {
        stroke-linejoin: round;
      }
    </style></defs><path d="m444.53,340.27c-.12,10.07-1.69,20.13-1.47,32.18,0,0-31.96-13.5-37.8-15.9l11.83-26.02,27.44,9.74Z"/><g id="uuid-e0b59ec1-2080-4c6b-8b31-c6fdef44f520" data-name="cloth"><path class="uuid-c95b386d-6b7a-48bc-b015-46353c5ddf6d" d="m263.36,371.55c24.26-.34,48.58-3.99,69.96-9.03-7.88-3.13-21.03-8.64-28.59-13.47-15.72-10.04-37.83-23.22-78.26-39.57-40.44-16.35-60.88-16.79-64.71-17.14-3.83-.35-3.65,17.91.52,18.78s34.19,3.67,60.28,20.36c19.37,12.39,34.36,31.2,40.8,40.07Z"/><g><path class="uuid-d59f6628-b02a-4e8d-88df-548bea5614f0" d="m175.19,380.92c.57-2.14,1.73-4.09,3.39-5.55,4.11-3.58,9.38-8.16,14.73-12.73-12.63-3.41-19.99-6.47-19.99-6.47,0,0,1.19,7.68-3.39,24.26-4.47,16.18-10.42,24.96-10.42,24.96l10.07-2.77c1.77-7.01,3.99-15.7,5.61-21.71Z"/><path class="uuid-d59f6628-b02a-4e8d-88df-548bea5614f0" d="m436.02,361.39c2.62-27.84,1.57-45.91,1.57-45.91,0,0-23.21,23.41-84.08,41.67-31.63,9.49-73.99,16.96-113.56,13.64-1.29-.11-2.56-.23-3.83-.35l-28.31,23.41c-1.75,1.43-2.97,3.39-3.49,5.59l-6.17,23.11c1.6-.19,3.09-.11,4.48.18,10.94-4.39,20.36-13.9,20.36-13.9,0,0,3.04,11.81,3.04,28.1,12.65-1.74,29.55-18.91,29.55-18.91,0,0,3.71,13.26-4.81,29.26,17.78,0,33.52-20.56,33.52-20.56l15.94,23.95s7.48-5.92,14.49-22.21c7.39-17.17,6.6-34.62,8.99-41.14,9.67-6.47,21.58-10.5,33.18-7.49,6.62,1.72,12.55,5.45,17.68,9.89,5.18,4.49,8.72,10.46,13.8,15.02,4.08,3.66,9.3,5.25,14.65,5.91,1.08.13,11.39,1.12,11.39.41v-21.3l23.94,6.09s-4.77-8.69-2.35-34.45Zm-191.58,34.15c-.44-.17-.87-.39-1.26-.65-1.82-1.21-2.89-3.3-3.34-5.43-.47-2.21-.24-4.77,1.39-6.34,3.5-3.39,16.29-2.61,17.11,3.38.62,4.53-5.71,8.89-9.45,9.45-1.49.22-3.05.13-4.45-.41Zm26.93,14.8c-.72,1.06-1.77,1.95-3.12,2.45-2.19.82-4.72.56-6.81-.48-1.36-.67-2.61-1.74-3.06-3.19-.24-.78-.24-1.62-.09-2.42.82-4.42,6.05-6.74,10.14-5.47,4.34,1.34,5.06,6,2.95,9.11Zm133.66-31.05c-.04.27-.1.55-.16.81-.87,3.69-3.13,7.03-6.22,9.21-.82.58-1.74,1.09-2.75,1.14-1.96.09-3.54-1.59-4.51-3.29-1.62-2.85-2.38-6.34-1.39-9.46,1.64-5.18,7.44-6.92,12.06-4.49,1.32.69,2.44,1.84,2.87,3.26.28.91.25,1.88.1,2.82Z"/></g><path d="m206.23,395.47c-.91,1.16-1.57,2.51-1.91,3.96l-6.17,23.11c1.27-.15,2.48-.13,3.62.03l36.18-52.57-31.72,25.47Z"/><g id="uuid-7fe29411-92c2-4f52-b005-f15084171df6" data-name="zurzido"><path class="uuid-6dfda773-13b8-4575-9246-263a2a33ff95" d="m308.67,383.17c-5.42,4.18-10.17,10.28-13.38,16.13-2.78,5.06-10.1,2.03-7.89-5.55,1.89-6.46,9.65-12.22,14.53-16.48,5.01-4.37,14,.29,6.74,5.9Z"/><path class="uuid-6dfda773-13b8-4575-9246-263a2a33ff95" d="m302.21,395.42c-4.91-4.7-11.8-8.62-18.29-11.12-5.62-2.17-3.02-9.26,5.22-7.84,7.02,1.21,13.81,7.97,18.76,12.17,5.07,4.31.89,13.1-5.7,6.79Z"/></g></g></svg>
<svg id="uuid-a02d3be7-cb6f-4a2c-b49b-641c04f66e2c" data-name="BODY" xmlns="http://www.w3.org/2000/svg" xmlns:xlink="http://www.w3.org/1999/xlink" viewBox="0 0 600 600"><defs><style>
      .uuid-97ec9160-f55b-4391-9ac6-2720ac70b4d7, .uuid-186e0f35-16d5-49b6-9cbd-d077b6af6fa7, .uuid-c3a6eae5-34c2-4348-b045-ee3a775c38d6 {
        fill: none;
      }

      .uuid-186e0f35-16d5-49b6-9cbd-d077b6af6fa7 {
        clip-path: url(#uuid-8e6e5a8e-41a9-45a6-8de2-1509de5fe4b8);
      }

      .uuid-8db21063-287c-4acc-a512-bbb5252bc182 {
        fill: #7aa6ff;
      }

      .uuid-8db21063-287c-4acc-a512-bbb5252bc182, .uuid-30e331db-4d21-49fc-9ac1-7c3c1e393256, .uuid-b54f6662-ff09-4ee8-b5f7-c135184e294b, .uuid-7ac34740-3707-468c-be51-b66a0dd2ed67, .uuid-f0a83435-45fe-4dc4-9872-f810804941c5, .uuid-3b92c40e-5c35-41fc-a2cd-b71aa1e768f8, .uuid-b7057188-22a7-479d-9437-632318c9ac2d, .uuid-4c30d6be-6a29-4f20-9678-daf62593094f, .uuid-f3cd72a2-e4c0-4201-b5e2-325e35e373ef, .uuid-c3a6eae5-34c2-4348-b045-ee3a775c38d6 {
        stroke: #000;
        stroke-linecap: round;
        stroke-linejoin: round;
      }

      .uuid-8db21063-287c-4acc-a512-bbb5252bc182, .uuid-f0a83435-45fe-4dc4-9872-f810804941c5, .uuid-b7057188-22a7-479d-9437-632318c9ac2d, .uuid-4c30d6be-6a29-4f20-9678-daf62593094f, .uuid-f3cd72a2-e4c0-4201-b5e2-325e35e373ef, .uuid-c3a6eae5-34c2-4348-b045-ee3a775c38d6 {
        stroke-width: 2px;
      }

      .uuid-1614a14c-44f3-41f2-970a-f9e88ea2d137 {
        fill: #ffff0d;
      }

      .uuid-30e331db-4d21-49fc-9ac1-7c3c1e393256 {
        stroke-width: 2px;
      }

      .uuid-30e331db-4d21-49fc-9ac1-7c3c1e393256, .uuid-b54f6662-ff09-4ee8-b5f7-c135184e294b {
        fill: #3ef1ff;
      }

      .uuid-b54f6662-ff09-4ee8-b5f7-c135184e294b, .uuid-7ac34740-3707-468c-be51-b66a0dd2ed67 {
        stroke-width: 2px;
      }

      .uuid-7ac34740-3707-468c-be51-b66a0dd2ed67, .uuid-f0a83435-45fe-4dc4-9872-f810804941c5, .uuid-3b92c40e-5c35-41fc-a2cd-b71aa1e768f8 {
        fill: #a07bff;
      }

      .uuid-3b92c40e-5c35-41fc-a2cd-b71aa1e768f8 {
        stroke-width: 2px;
      }

      .uuid-b7057188-22a7-479d-9437-632318c9ac2d {
        fill: #ff78d8;
      }

      .uuid-4c30d6be-6a29-4f20-9678-daf62593094f {
        fill: #fff7f0;
      }

      .uuid-f3cd72a2-e4c0-4201-b5e2-325e35e373ef {
        fill: #ffc9f1;
      }
    </style><clipPath id="uuid-8e6e5a8e-41a9-45a6-8de2-1509de5fe4b8"><path class="uuid-97ec9160-f55b-4391-9ac6-2720ac70b4d7" d="m218.44,385.68l-12.41,10.96-6.53,24.81s7.3-.56,11.65,5.92c4.35,6.48,4.93,18.37-5.19,25.2,0,0,2.66,7.57-2.84,15.69-5.5,8.12-13.98,7.22-17.39,6.23-3.42-.99-6.85-3.34-8.39-5.52,0,0-4.4,2.52-9.33,1.88-4.92-.64-9.88-4.55-10.66-11.79,0,0-4.68-1.75-6.47-7.46s-.04-12.91,2.44-22.27c2.48-9.35,6.68-14.17,12.51-15.83,0,0,7.52-29.22,8.52-33.06,1-3.84,2.56-4.88,6.36-8.16,3.8-3.28,15.08-13.12,15.08-13.12,0,0-6.03-58.25-12.88-63.84-15.33-12.53-44.41,24.06-87.62,45.85-62.5,31.52-65.76,86.65-49.19,122.95,16.58,36.3,55.81,43.29,75.6,42.64,19.79-.64,44.55-21.29,57.17-20.21,12.62,1.09,20.57,16.17,35.99,20.21,15.42,4.03,40.63-13.14,40.63-13.14l22.73-23.84,208.57,80.5,26.44-27.14,9.21-56.69-16.31-219.04-85.45-26.84-202.25,165.1h0Z"/></clipPath></defs><g id="uuid-4fc18071-2308-439e-9b03-a88b20c18554" data-name="uuid-25dbd0f2-a6de-441e-82e8-5e783d370578"><g id="uuid-468c7e84-7c20-452e-9305-e519acee2181" data-name="uuid-6de0adcf-05a0-4838-b094-5e13ac5553d7"><g class="uuid-186e0f35-16d5-49b6-9cbd-d077b6af6fa7"><g><g><path class="uuid-8db21063-287c-4acc-a512-bbb5252bc182" d="m256.85,397.34s43.17-16.87,99.05-41.15c55.88-24.29,75.83-39.11,88.23-49.9,12.4-10.79,16.75-22.06,17.55-24.64,0,0-15.57-4.04-25.44-4.73,0,0-1.95-11.06-4.24-17.83,0,0,23.38,4.08,29.67,10.6,6.29,6.52,8.26,24.14,3.97,34.72-4.29,10.58-48.76,44.48-82.27,59.41-33.52,14.93-34.93,14.89-34.93,14.89,0,0-10.52-1.58-24.73,8.6,0,0-36.6,14.62-59.39,23.39l-7.48-13.35h0Z"/><path class="uuid-8db21063-287c-4acc-a512-bbb5252bc182" d="m167.87,340.53s-9.7,4.37-15.66,9.02c-3.95-.93-22.86-3.02-22.86-3.02,0,0,15.25-13.12,34.71-21.71,0,0,1.23,8.09,3.82,15.72Z"/><path class="uuid-c3a6eae5-34c2-4348-b045-ee3a775c38d6" d="m461.68,281.65c1.48-4.21-.71-13.73-6.07-15.83"/><line class="uuid-c3a6eae5-34c2-4348-b045-ee3a775c38d6" x1="280.48" y1="387.88" x2="287.21" y2="401.78"/><line class="uuid-c3a6eae5-34c2-4348-b045-ee3a775c38d6" x1="287.21" y1="385.14" x2="293.75" y2="399.2"/><line class="uuid-c3a6eae5-34c2-4348-b045-ee3a775c38d6" x1="293.36" y1="382.62" x2="300" y2="396.73"/><g><path class="uuid-1614a14c-44f3-41f2-970a-f9e88ea2d137" d="m334.63,370.93l1.57,1.28c.15.12.36.17.55.11l1.94-.56c.48-.14.9.33.72.79l-.74,1.89c-.07.18-.05.39.06.55l1.14,1.68c.28.41-.03.96-.53.93l-2.02-.12c-.2-.01-.39.07-.51.23l-1.24,1.6c-.3.39-.92.26-1.05-.22l-.51-1.96c-.05-.19-.19-.34-.38-.41l-1.9-.69c-.47-.17-.54-.8-.12-1.07l1.7-1.09c.17-.11.27-.29.27-.48l.07-2.02c.02-.5.59-.76.98-.44h0Z"/><path class="uuid-1614a14c-44f3-41f2-970a-f9e88ea2d137" d="m352.67,363.26l1.57,1.28c.15.12.36.17.55.11l1.94-.56c.48-.14.9.33.72.79l-.74,1.89c-.07.18-.05.39.06.55l1.14,1.68c.28.41-.03.96-.53.93l-2.02-.12c-.2-.01-.39.07-.51.23l-1.24,1.6c-.3.39-.92.26-1.05-.22l-.51-1.96c-.05-.19-.19-.34-.38-.41l-1.9-.69c-.47-.17-.54-.8-.12-1.07l1.7-1.09c.17-.11.27-.29.27-.48l.07-2.02c.02-.5.59-.76.98-.44h0Z"/><path class="uuid-1614a14c-44f3-41f2-970a-f9e88ea2d137" d="m371.48,354.98l1.59,1.25c.15.12.36.16.55.1l1.93-.6c.47-.15.91.31.74.78l-.7,1.9c-.07.18-.04.39.07.55l1.17,1.65c.29.4-.02.96-.51.94l-2.02-.08c-.2,0-.38.08-.5.24l-1.21,1.62c-.3.4-.92.28-1.05-.2l-.55-1.95c-.05-.19-.2-.34-.38-.4l-1.92-.65c-.47-.16-.55-.79-.14-1.06l1.68-1.12c.16-.11.26-.29.27-.49l.03-2.02c0-.5.58-.77.97-.46h0Z"/><path class="uuid-1614a14c-44f3-41f2-970a-f9e88ea2d137" d="m389.42,346.05l1.67,1.14c.16.11.37.14.55.07l1.89-.73c.46-.18.93.25.79.73l-.57,1.94c-.06.19-.02.39.11.55l1.27,1.57c.31.39.05.96-.45.97l-2.02.05c-.2,0-.38.11-.49.27l-1.1,1.7c-.27.42-.9.34-1.07-.13l-.68-1.91c-.07-.19-.22-.33-.41-.38l-1.96-.52c-.48-.13-.6-.75-.21-1.05l1.6-1.23c.16-.12.24-.31.23-.51l-.11-2.02c-.03-.49.53-.8.94-.52h0Z"/><path class="uuid-1614a14c-44f3-41f2-970a-f9e88ea2d137" d="m405.93,337.19l1.71,1.09c.17.11.37.12.55.05l1.86-.79c.46-.19.94.22.81.7l-.51,1.96c-.05.19,0,.39.13.54l1.33,1.53c.33.37.08.96-.41.99l-2.02.12c-.2.01-.37.12-.48.29l-1.04,1.74c-.26.42-.89.37-1.07-.09l-.74-1.88c-.07-.18-.23-.32-.42-.36l-1.97-.46c-.48-.11-.63-.73-.25-1.04l1.56-1.29c.15-.13.23-.32.21-.51l-.18-2.02c-.04-.49.5-.82.92-.56h0Z"/></g></g><path class="uuid-b7057188-22a7-479d-9437-632318c9ac2d" d="m404.95,488.26c11.56,2.8,20.78,17.99,20.78,17.99,0,0,33.24,6.76,51.24,20.29l7.21-3.39-1.89-6.7s-31.23-16.75-50.98-17.71c0,0-7.08-8.51-12.34-9.3-5.26-.79-14.02-1.18-14.02-1.18h0Z"/><path class="uuid-f3cd72a2-e4c0-4201-b5e2-325e35e373ef" d="m490.26,485.51s-15.71-3.27-30.17-7.78c-14.46-4.51-25.51-10.58-25.51-10.58,0,0-5.75,4.04-7.78,4.51-1.78.41-124.87-31.46-154.41-39.12-.04-17.75-6.8-34.2-20.05-41.98-16.78-9.85-40.5,2.84-51.96-.89-11.46-3.73-14.08-38.2-57.48-43.98-43.41-5.78-74.21,23.56-86.3,54.22-12.09,30.66-7.3,85.91,54.32,93.9,32.12,4.16,46.04-19.92,68.1-16.65,18.73,2.78,19.06,19.57,37.56,20.82,0,0,7.8.37,11.04-3.07,0,0-.98-6.04-2.55-10.77-1.57-4.73-3.24-7.96-3.24-7.96,0,0,4.02-11.38,12.65-13.73,8.63-2.35,23.94,1.47,26.88,1.18,1.98-.2,4.55-2.12,6.76-7.14,39.95,9.21,144.97,33.46,149.5,34.88,5.6,1.76,11.98,10.32,11.98,10.32,0,0,16.95,3.73,30.33,8.87,13.38,5.13,24.26,12.6,24.26,12.6,0,0,3.89-12.91,8.87-17.27-3.27-7.47-2.8-20.38-2.8-20.38h0Z"/><path class="uuid-b7057188-22a7-479d-9437-632318c9ac2d" d="m216.43,497.98c-18.5-1.25-18.83-18.04-37.56-20.82-22.06-3.27-35.98,20.82-68.1,16.65-28.66-3.71-45.02-17.66-53.11-34.59,18.87,33.21,70.51,25.28,90.82,14.96,20.32-10.32,28.95-6.33,46.7,6.14,17.75,12.47,23.93,8.24,29.75,3.81,1.57,4.73,2.55,10.77,2.55,10.77-3.24,3.43-11.04,3.07-11.04,3.07h0Zm36.46-45.01h0c-4.99-.69-15.38-3.83-24.74,1.2-11.65,6.26-8.07,18.45-6.47,22.01.11.24.27.47.49.69-.21-.44-.34-.69-.34-.69,0,0,4.02-11.38,12.65-13.73,8.63-2.35,23.94,1.47,26.88,1.18,1.98-.2,4.55-2.12,6.76-7.14-9.43-2.17-15.24-3.51-15.24-3.51h0Zm13.17-22.07h0s2.29.59,6.32,1.64c-.02-9.45-1.94-18.54-5.75-26.14l-.2-.1c1.56,6.15,1.32,15.68-.38,24.6Z"/><g><g><path class="uuid-4c30d6be-6a29-4f20-9678-daf62593094f" d="m212.78,449.43l-14.2-3.29c-2.95-.68-4.24-3-2.87-5.16l15.67-24.85c1.37-2.17,4.87-3.37,7.82-2.69l14.2,3.29c2.95.68,4.24,3,2.87,5.16l-15.67,24.85c-1.37,2.17-4.87,3.37-7.82,2.69Z"/><path class="uuid-f0a83435-45fe-4dc4-9872-f810804941c5" d="m213.2,445.62l-10.75-2.49c-1.51-.35-2.17-1.53-1.47-2.64l13.79-21.87c.7-1.11,2.49-1.72,4-1.37l10.75,2.49c1.51.35,2.17,1.53,1.47,2.64l-13.79,21.87c-.7,1.11-2.49,1.72-4,1.37Z"/></g><g><path class="uuid-4c30d6be-6a29-4f20-9678-daf62593094f" d="m166.82,438.79l-14.2-3.29c-2.95-.68-4.24-3-2.87-5.16l15.67-24.85c1.37-2.17,4.87-3.37,7.82-2.69l14.2,3.29c2.95.68,4.24,3,2.87,5.16l-15.67,24.85c-1.37,2.17-4.87,3.37-7.82,2.69Z"/><path class="uuid-f0a83435-45fe-4dc4-9872-f810804941c5" d="m167.24,434.98l-10.75-2.49c-1.51-.35-2.17-1.53-1.47-2.64l13.79-21.87c.7-1.11,2.49-1.72,4-1.37l10.75,2.49c1.51.35,2.17,1.53,1.47,2.64l-13.79,21.87c-.7,1.11-2.49,1.72-4,1.37Z"/></g><path class="uuid-4c30d6be-6a29-4f20-9678-daf62593094f" d="m129.85,430.23h0c-2.95-.68-4.24-3-2.87-5.16l15.67-24.85c1.37-2.17,4.87-3.37,7.82-2.69h0c2.95.68,4.24,3,2.87,5.16l-15.67,24.85c-1.37,2.17-4.87,3.37-7.82,2.69Z"/><path class="uuid-4c30d6be-6a29-4f20-9678-daf62593094f" d="m107.78,425.12h0c-2.95-.68-4.24-3-2.87-5.16l15.67-24.85c1.37-2.17,4.87-3.37,7.82-2.69h0c2.95.68,4.24,3,2.87,5.16l-15.67,24.85c-1.37,2.17-4.87,3.37-7.82,2.69h0Z"/><path class="uuid-f0a83435-45fe-4dc4-9872-f810804941c5" d="m123.78,399.75l-11.38,18.04c-1.36,2.15-.1,4.44,2.81,5.14.14-.16.28-.32.4-.5l15.67-24.85c.11-.18.18-.35.25-.53-2.94-.65-6.39.55-7.75,2.7h0Z"/></g><g><path class="uuid-c3a6eae5-34c2-4348-b045-ee3a775c38d6" d="m436.81,495.25s-16.88-8.23-20.01-8.99-300.73-68.01-300.73-68.01"/><path class="uuid-c3a6eae5-34c2-4348-b045-ee3a775c38d6" d="m438.16,476.24s-11.22-.5-17.03-1.9c-5.81-1.4-294.08-73.68-294.08-73.68"/><path class="uuid-c3a6eae5-34c2-4348-b045-ee3a775c38d6" d="m473.11,489.44s-44.58-9.34-50.77-11.01c-6.2-1.66-299.13-71.93-299.13-71.93"/><path class="uuid-c3a6eae5-34c2-4348-b045-ee3a775c38d6" d="m119.35,412.39s288.32,67,298.94,69.56c10.62,2.56,53.31,24.81,53.31,24.81"/></g><g><g><ellipse class="uuid-7ac34740-3707-468c-be51-b66a0dd2ed67" cx="80.12" cy="438.43" rx="8" ry="6.02" transform="translate(-184.58 79.86) rotate(-26.08)"/><path class="uuid-8db21063-287c-4acc-a512-bbb5252bc182" d="m84.32,436.52c.6,1.22-.77,3.11-3.06,4.23-2.29,1.12-4.62,1.04-5.22-.18-.2-.41-1.95-3.98-2.48-5.06.41-1,4.02,1.57,5.54.83,1.51-.74,1.7-5.17,2.74-4.88l2.48,5.06h0Z"/><ellipse class="uuid-b54f6662-ff09-4ee8-b5f7-c135184e294b" cx="77.79" cy="433.66" rx="4.61" ry="3.55" transform="translate(-182.72 78.35) rotate(-26.08)"/></g><g><ellipse class="uuid-7ac34740-3707-468c-be51-b66a0dd2ed67" cx="106.81" cy="442.59" rx="8" ry="6.02" transform="translate(-183.69 92.02) rotate(-26.08)"/><path class="uuid-8db21063-287c-4acc-a512-bbb5252bc182" d="m111.01,440.68c.6,1.22-.77,3.11-3.06,4.23-2.29,1.12-4.62,1.04-5.22-.18-.2-.41-1.95-3.98-2.48-5.06.41-1,4.02,1.57,5.54.83,1.51-.74,1.7-5.17,2.74-4.88l2.48,5.06h0Z"/><ellipse class="uuid-b54f6662-ff09-4ee8-b5f7-c135184e294b" cx="104.47" cy="437.82" rx="4.61" ry="3.55" transform="translate(-181.84 90.5) rotate(-26.08)"/></g><g><ellipse class="uuid-7ac34740-3707-468c-be51-b66a0dd2ed67" cx="87.78" cy="459.18" rx="8" ry="6.02" transform="translate(-192.92 85.34) rotate(-26.08)"/><path class="uuid-8db21063-287c-4acc-a512-bbb5252bc182" d="m91.98,457.27c.6,1.22-.77,3.11-3.06,4.23-2.29,1.12-4.62,1.04-5.22-.18-.2-.41-1.95-3.98-2.48-5.06.41-1,4.02,1.57,5.54.83,1.51-.74,1.7-5.17,2.74-4.88l2.48,5.06h0Z"/><ellipse class="uuid-b54f6662-ff09-4ee8-b5f7-c135184e294b" cx="85.45" cy="454.41" rx="4.61" ry="3.55" transform="translate(-191.07 83.83) rotate(-26.08)"/></g><g><ellipse class="uuid-7ac34740-3707-468c-be51-b66a0dd2ed67" cx="114.47" cy="463.34" rx="8" ry="6.02" transform="translate(-192.04 97.5) rotate(-26.08)"/><path class="uuid-8db21063-287c-4acc-a512-bbb5252bc182" d="m118.67,461.44c.6,1.22-.77,3.11-3.06,4.23-2.29,1.12-4.62,1.04-5.22-.18-.2-.41-1.95-3.98-2.48-5.06.41-1,4.02,1.57,5.54.83,1.51-.74,1.7-5.17,2.74-4.88l2.48,5.06h0Z"/><ellipse class="uuid-b54f6662-ff09-4ee8-b5f7-c135184e294b" cx="112.14" cy="458.57" rx="4.61" ry="3.55" transform="translate(-190.18 95.99) rotate(-26.08)"/></g></g><g><ellipse class="uuid-7ac34740-3707-468c-be51-b66a0dd2ed67" cx="242.28" cy="405.28" rx="8" ry="6.02" transform="translate(-153.5 147.77) rotate(-26.08)"/><path class="uuid-8db21063-287c-4acc-a512-bbb5252bc182" d="m246.48,403.37c.6,1.22-.77,3.11-3.06,4.23-2.29,1.12-4.62,1.04-5.22-.18-.2-.41-1.95-3.98-2.48-5.06.41-1,4.02,1.57,5.54.83,1.51-.74,1.7-5.17,2.74-4.88l2.48,5.06h0Z"/><ellipse class="uuid-b54f6662-ff09-4ee8-b5f7-c135184e294b" cx="239.95" cy="400.51" rx="4.61" ry="3.55" transform="translate(-151.64 146.26) rotate(-26.08)"/></g><g><ellipse class="uuid-3b92c40e-5c35-41fc-a2cd-b71aa1e768f8" cx="443.7" cy="475.25" rx="5.05" ry="5.28" transform="translate(-189.67 328.37) rotate(-33.91)"/><path class="uuid-8db21063-287c-4acc-a512-bbb5252bc182" d="m443.56,472.68c-1.13.76-1.5,2.17-.83,3.16s2.12,1.18,3.24.42l4.68-3.14c.39-.71-.92-1.03-1.36-1.68-.44-.65-.24-1.99-1.04-1.9l-4.68,3.14Z"/><ellipse class="uuid-30e331db-4d21-49fc-9ac1-7c3c1e393256" cx="449.28" cy="471.43" rx="2.12" ry="2.16" transform="translate(-186.59 330.84) rotate(-33.91)"/></g><g><ellipse class="uuid-3b92c40e-5c35-41fc-a2cd-b71aa1e768f8" cx="476.71" cy="485.61" rx="5.05" ry="5.28" transform="translate(-189.83 348.55) rotate(-33.91)"/><path class="uuid-8db21063-287c-4acc-a512-bbb5252bc182" d="m476.58,483.03c-1.13.76-1.5,2.17-.83,3.16s2.12,1.18,3.24.42l4.68-3.14c.39-.71-.92-1.03-1.36-1.68-.44-.65-.24-1.99-1.04-1.9l-4.68,3.14Z"/><ellipse class="uuid-30e331db-4d21-49fc-9ac1-7c3c1e393256" cx="482.3" cy="481.78" rx="2.12" ry="2.16" transform="translate(-186.75 351.02) rotate(-33.91)"/></g><g><ellipse class="uuid-3b92c40e-5c35-41fc-a2cd-b71aa1e768f8" cx="474.12" cy="507.79" rx="5.05" ry="5.28" transform="translate(-202.65 350.88) rotate(-33.91)"/><path class="uuid-8db21063-287c-4acc-a512-bbb5252bc182" d="m473.98,505.22c-1.13.76-1.5,2.17-.83,3.16s2.12,1.18,3.24.42l4.68-3.14c.39-.71-.92-1.03-1.36-1.68-.44-.65-.24-1.99-1.04-1.9l-4.68,3.14Z"/><ellipse class="uuid-30e331db-4d21-49fc-9ac1-7c3c1e393256" cx="479.7" cy="503.97" rx="2.12" ry="2.16" transform="translate(-199.57 353.34) rotate(-33.91)"/></g><g><ellipse class="uuid-3b92c40e-5c35-41fc-a2cd-b71aa1e768f8" cx="441.1" cy="494.64" rx="5.05" ry="5.28" transform="translate(-200.93 330.22) rotate(-33.91)"/><path class="uuid-8db21063-287c-4acc-a512-bbb5252bc182" d="m440.96,492.07c-1.13.76-1.5,2.17-.83,3.16s2.12,1.18,3.24.42l4.68-3.14c.39-.71-.92-1.03-1.36-1.68-.44-.65-.24-1.99-1.04-1.9l-4.68,3.14Z"/><ellipse class="uuid-30e331db-4d21-49fc-9ac1-7c3c1e393256" cx="446.68" cy="490.82" rx="2.12" ry="2.16" transform="translate(-197.85 332.68) rotate(-33.91)"/></g></g></g></g></g></svg>
<svg id="uuid-918f0af7-69b1-4d0f-8b25-1ebb8fa0263c" data-name="BODY" xmlns="http://www.w3.org/2000/svg" viewBox="0 0 600 600"><defs><style>
      .uuid-a94f1842-96f2-46e0-80ad-453adfe7c791 {
        fill: #a07bff;
      }

      .uuid-a94f1842-96f2-46e0-80ad-453adfe7c791, .uuid-076e47b0-9fcb-4add-9be6-e3a2aa36a1ab, .uuid-4e971888-5854-439c-9814-73de44346e35 {
        stroke: #000;
        stroke-linecap: round;
        stroke-linejoin: round;
        stroke-width: 2px;
      }

      .uuid-076e47b0-9fcb-4add-9be6-e3a2aa36a1ab {
        fill: #fff7f0;
      }

      .uuid-4e971888-5854-439c-9814-73de44346e35 {
        fill: none;
      }
    </style></defs><g id="uuid-2076c04b-299b-4973-851a-784433720c9f" data-name="uuid-c46f65ed-d275-49a6-b41b-9935c7f7cc5c"><g id="uuid-57e7f47e-e750-42fe-918c-fffed7408fdd" data-name="uuid-3d541555-fa28-433a-9ee6-066895a43351"><g id="uuid-e3887906-34ba-42eb-a2cc-6ba54a0f247d" data-name="uuid-1fe4f652-122b-4bcd-a2e3-81acaa81d790"><g><path class="uuid-4e971888-5854-439c-9814-73de44346e35" d="m508.21,325.78s-.94,17.21-1.53,29.14c-.61,12.3,4.87,22,4.17,36.99"/><g><path class="uuid-076e47b0-9fcb-4add-9be6-e3a2aa36a1ab" d="m498.16,421.23c-.11.15-3.38,1.37-3.64,6.75-2.87-5.14-1.58-9.04,2.43-10.29l1.21,3.53h0Z"/><path class="uuid-076e47b0-9fcb-4add-9be6-e3a2aa36a1ab" d="m504.92,425.01c-.02.19,1.54,3.53-2.11,7.49,5.8-1.42,7.63-5.13,5.53-9.05l-3.42,1.55h0Z"/></g><path class="uuid-a94f1842-96f2-46e0-80ad-453adfe7c791" d="m500.35,408.04s-1.74-14.99,10.78-16.09c12.52-1.11,11.91,19.11,2.97,21.21,2.22,4.75-1.77,17.53-13.83,11.65-7.05-3.44-5.5-13.96.08-16.77h0Z"/><path class="uuid-4e971888-5854-439c-9814-73de44346e35" d="m500.35,408.04c2.72-1.28,6.49-.58,8.63.3"/><path class="uuid-4e971888-5854-439c-9814-73de44346e35" d="m514.1,413.16c-.32-.86-1.88-2.26-1.88-2.26"/><path class="uuid-4e971888-5854-439c-9814-73de44346e35" d="m504.01,395.1s-2.7-5.97-2.23-8.56,8.01-8.89,8.01-8.89"/><path class="uuid-4e971888-5854-439c-9814-73de44346e35" d="m508.75,371.28s12.36,10.12,13.66,13.08-3.35,11.4-3.35,11.4"/><path class="uuid-4e971888-5854-439c-9814-73de44346e35" d="m501.94,398.08s-5.97-7.21-8.7-8.12-8.57,3.3-8.57,3.3"/><path class="uuid-4e971888-5854-439c-9814-73de44346e35" d="m500.48,403.15s-6.33-3.19-9.12-2.15c-2.79,1.04-5.91,7.66-5.91,7.66"/><path class="uuid-4e971888-5854-439c-9814-73de44346e35" d="m520.66,403.16s7.58-3.45,10.77-3.45,7.01,7.63,7.01,7.63"/><path class="uuid-4e971888-5854-439c-9814-73de44346e35" d="m519.5,408.12s6.93,2.76,7.78,5.81,0,10,0,10"/><path class="uuid-4e971888-5854-439c-9814-73de44346e35" d="m496.18,413.16s-7.16-3.18-7.75,10.05"/><path class="uuid-4e971888-5854-439c-9814-73de44346e35" d="m513.16,422.01s6.82,7.71-4.83,13.18"/><path class="uuid-076e47b0-9fcb-4add-9be6-e3a2aa36a1ab" d="m495.97,419.75c-1.97-6.64,4.68-7.08,5.46-1.74s-3.89,7.03-5.46,1.74Z"/><path class="uuid-076e47b0-9fcb-4add-9be6-e3a2aa36a1ab" d="m505.56,420.95c4.71-5.08,8.48.42,4.27,3.81s-8.03.23-4.27-3.81Z"/><ellipse cx="498.31" cy="418.89" rx=".84" ry="1.27" transform="translate(-64.89 92.41) rotate(-9.95)"/><ellipse cx="507.84" cy="423.07" rx="1.27" ry=".84" transform="translate(-152.31 456.1) rotate(-42.66)"/></g></g></g></g></svg>
<svg id="uuid-b435763a-c472-44da-a67a-e9e837fe0ccc" data-name="BODY" xmlns="http://www.w3.org/2000/svg" viewBox="0 0 600 600"><defs><style>
      .uuid-4a0441b6-000c-4e7a-abf1-7c702da6f88d {
        fill: #7aa6ff;
      }

      .uuid-4a0441b6-000c-4e7a-abf1-7c702da6f88d, .uuid-c6cdb512-b792-458d-9ced-5ea59dfaeca5, .uuid-6d94cb51-a65b-4f8c-a1b1-406de2803bfa, .uuid-ae63226a-9b36-45a3-82d1-fbc4c564cf5c {
        stroke: #000;
        stroke-linecap: round;
        stroke-linejoin: round;
      }

      .uuid-4a0441b6-000c-4e7a-abf1-7c702da6f88d, .uuid-6d94cb51-a65b-4f8c-a1b1-406de2803bfa, .uuid-ae63226a-9b36-45a3-82d1-fbc4c564cf5c {
        stroke-width: 2px;
      }

      .uuid-aa825ba1-e97a-4699-b196-07d41c01d80a {
        fill: #3ef1ff;
      }

      .uuid-c6cdb512-b792-458d-9ced-5ea59dfaeca5 {
        stroke-width: 2px;
      }

      .uuid-c6cdb512-b792-458d-9ced-5ea59dfaeca5, .uuid-6d94cb51-a65b-4f8c-a1b1-406de2803bfa {
        fill: #fff7f0;
      }

      .uuid-ae63226a-9b36-45a3-82d1-fbc4c564cf5c {
        fill: none;
      }
    </style></defs><g id="uuid-d21cdb81-6d30-4aee-95e2-0cd1953e30cb" data-name="uuid-0ddaaa68-545c-4eb2-a737-12a968a2ee61"><g id="uuid-6584a94e-1531-4cce-8f9d-343e3ee22826" data-name="uuid-0f5b18c2-d5c6-4aaa-8f08-473e1121eb23"><g id="uuid-0d2b73fa-9296-464b-8ccd-8fb51db96085" data-name="uuid-bf236e71-ae9d-44b4-a6ab-50816829c233"><path class="uuid-6d94cb51-a65b-4f8c-a1b1-406de2803bfa" d="m144.15,313.8c-.28-3.84-.43-7.72-.43-11.63,0-86.31,69.97-156.28,156.28-156.28,74.78,0,137.3,52.53,152.66,122.7-32.23,51.24-213.13,84.28-308.51,45.21h0Z"/><path class="uuid-6d94cb51-a65b-4f8c-a1b1-406de2803bfa" d="m143.99,310.94c-9.53-4.06-13.98,9.29-1.3,14.86,12.68,5.57,83.63,25.81,187.61,8.37,80.49-13.5,118.49-44.98,126.94-54.88,8.45-9.9-1.85-16.86-5.17-13.23s-33.72,42.11-135.39,56.99c-105.24,15.4-165.43-9.02-172.7-12.11h0Z"/><path class="uuid-4a0441b6-000c-4e7a-abf1-7c702da6f88d" d="m143.72,300s13.04,5.13,29.37,9.21v-15.26s-16.89-3.19-28.48-8.56c0,0-.54,5.84-.89,14.61Z"/><polygon class="uuid-4a0441b6-000c-4e7a-abf1-7c702da6f88d" points="180.37 310.76 180.27 295.65 189.34 297.3 189.82 312.95 180.37 310.76"/><g><path class="uuid-6d94cb51-a65b-4f8c-a1b1-406de2803bfa" d="m247.79,316.97c-2.24-.97-4.61-1.19-6.84-.76-3.67.7-14.16,5.28-15.76,8.97-2.57,5.92,7.37,10.68,13.29,13.25l18.96,14.57,7.65-3.02,9.31-21.46-26.61-11.55h0Z"/><rect class="uuid-c6cdb512-b792-458d-9ced-5ea59dfaeca5" x="237.1" y="321.98" width="23.39" height="29" transform="translate(-158.93 430.74) rotate(-66.54)"/><circle class="uuid-4a0441b6-000c-4e7a-abf1-7c702da6f88d" cx="235.49" cy="330.71" r="11.69"/><circle class="uuid-6d94cb51-a65b-4f8c-a1b1-406de2803bfa" cx="235.49" cy="330.71" r="6.32"/><line class="uuid-ae63226a-9b36-45a3-82d1-fbc4c564cf5c" x1="266.75" y1="331.53" x2="274.4" y2="328.51"/></g><g><path class="uuid-4a0441b6-000c-4e7a-abf1-7c702da6f88d" d="m196.05,231.32s22.08-30.4,74.49-54.02c52.41-23.62,110.53-11.95,110.53-11.95,0,0,21.58,9.91,44.53,37.62,12.56,15.17,22.27,39.78,22.27,39.78,0,0-15.89,36.62-87.54,61.53-71.65,24.91-153.37-9.48-165.47-18.89,0,0,14.75-7.61,13.01-27.92-1.74-20.32-11.82-26.15-11.82-26.15Z"/><g><path class="uuid-aa825ba1-e97a-4699-b196-07d41c01d80a" d="m270.45,186.45c-7.13,2.28-12.08,5.9-12.08,5.9,0,0,1.2,60.27,20.88,108.62,17.33,3.21,36.8.86,36.8.86,0,0-14.89-20.19-28.84-57.27-13.95-37.08-16.77-58.1-16.77-58.1h0Z"/><path class="uuid-aa825ba1-e97a-4699-b196-07d41c01d80a" d="m320.88,172.05s6.01-1.06,9.19-1.06c38.43,41.61,75.68,101.61,75.68,101.61,0,0-31.59,18.62-57.52,23.93,5.89-20.28,7.43-51.51-2.24-76.86-9.67-25.34-25.11-47.62-25.11-47.62Z"/><path class="uuid-aa825ba1-e97a-4699-b196-07d41c01d80a" d="m358.09,169.61c-.26-.22,19.02,1.38,19.02,1.38,0,0,21.01,13.35,35.63,29.48,14.63,16.13,26.76,43.39,26.76,43.39,0,0-6.25,9.75-15.5,16-12.13-32.26-53.54-79.96-65.91-90.24h0Z"/></g><path class="uuid-6d94cb51-a65b-4f8c-a1b1-406de2803bfa" d="m199.82,234.55s23.32-32.08,73.44-54.35c50.12-22.26,115.28-10.61,115.28-10.61,0,0,.28-2.62-6.05-7.12-6.33-4.5-65.2-10.41-111.76,9.97-51.18,22.4-77.67,56.34-77.67,56.34l6.76,5.78h0Z"/><path class="uuid-6d94cb51-a65b-4f8c-a1b1-406de2803bfa" d="m197.61,282.24c44.05,20.53,96.81,34.96,143.03,23.61,32.29-7.93,79.02-28.25,105.89-66.29,0,0,7.43-2.28,6.4,5.15-1.03,7.43-35.45,51.12-109.89,68.47-74.44,17.35-144.78-20.23-153.23-26.72l7.79-4.2h0Z"/></g><g><path class="uuid-6d94cb51-a65b-4f8c-a1b1-406de2803bfa" d="m178.8,283.48l7.38,3.84c2.87,1.49,6.26,1.61,9.22.31,6.25-2.74,15.51-10.14,15.51-29.95s-8.62-26.95-14.84-30.1c-3.27-1.66-7.16-1.54-10.31.32l-6.53,3.86-.43,51.72h0Z"/><ellipse class="uuid-4a0441b6-000c-4e7a-abf1-7c702da6f88d" cx="182.75" cy="257.68" rx="19.2" ry="26.36"/><ellipse class="uuid-6d94cb51-a65b-4f8c-a1b1-406de2803bfa" cx="182.75" cy="257.68" rx="12.45" ry="18.3"/></g></g></g></g></svg>
</svg>