<?xml version="1.0" encoding="UTF-8"?>
<svg xmlns="http://www.w3.org/2000/svg" viewBox="0 0 600 600">
<svg id="uuid-d9dcaeb1-b3e9-4103-a9e9-674eb3b1cf0f" data-name="BACKGROUND" xmlns="http://www.w3.org/2000/svg" viewBox="0 0 600 600"><defs><style>
      .uuid-ddba642b-737c-447a-8d97-1fa19eb8e4a8 {
        fill: #ff78d8;
      }
    </style></defs><rect class="uuid-ddba642b-737c-447a-8d97-1fa19eb8e4a8" x="-1" y="-1" width="602" height="602"/></svg>
<svg id="uuid-33f0a83e-2b0c-4eb8-8fa3-bfa9ea5086d3" data-name="BACKGROUND" xmlns="http://www.w3.org/2000/svg" viewBox="0 0 600 600"><defs><style>
      .uuid-450a74f4-b6b6-47ff-a9b8-91a171e1e341, .uuid-7fae2aa8-9ea1-45c0-a459-daab5bb141c8, .uuid-28d15e62-18ad-457b-95e7-fa4bdbf6607d, .uuid-f34e6d04-5895-4a55-8123-65c0a5c276be, .uuid-6f41a922-4956-4224-af6c-3d28e38947e5, .uuid-57d641cc-3e15-4ae9-829f-c36df3c7f79a, .uuid-5d2ce935-29a4-4a67-ac10-b6bb4cf3dd30 {
        stroke: #000;
        stroke-width: 2px;
      }

      .uuid-450a74f4-b6b6-47ff-a9b8-91a171e1e341, .uuid-7fae2aa8-9ea1-45c0-a459-daab5bb141c8, .uuid-28d15e62-18ad-457b-95e7-fa4bdbf6607d, .uuid-6f41a922-4956-4224-af6c-3d28e38947e5, .uuid-57d641cc-3e15-4ae9-829f-c36df3c7f79a {
        stroke-linecap: round;
      }

      .uuid-450a74f4-b6b6-47ff-a9b8-91a171e1e341, .uuid-f34e6d04-5895-4a55-8123-65c0a5c276be, .uuid-57d641cc-3e15-4ae9-829f-c36df3c7f79a, .uuid-5d2ce935-29a4-4a67-ac10-b6bb4cf3dd30 {
        fill: #8400ff;
      }

      .uuid-450a74f4-b6b6-47ff-a9b8-91a171e1e341, .uuid-6f41a922-4956-4224-af6c-3d28e38947e5, .uuid-5d2ce935-29a4-4a67-ac10-b6bb4cf3dd30 {
        stroke-linejoin: round;
      }

      .uuid-7b9f3a05-4cc7-4b23-b3bf-179c77ea9f5f, .uuid-28d15e62-18ad-457b-95e7-fa4bdbf6607d {
        fill: #fff;
      }

      .uuid-7fae2aa8-9ea1-45c0-a459-daab5bb141c8 {
        fill: #ffff0d;
      }

      .uuid-7fae2aa8-9ea1-45c0-a459-daab5bb141c8, .uuid-28d15e62-18ad-457b-95e7-fa4bdbf6607d, .uuid-f34e6d04-5895-4a55-8123-65c0a5c276be, .uuid-57d641cc-3e15-4ae9-829f-c36df3c7f79a {
        stroke-miterlimit: 10;
      }

      .uuid-6f41a922-4956-4224-af6c-3d28e38947e5 {
        fill: none;
      }
    </style></defs><path class="uuid-450a74f4-b6b6-47ff-a9b8-91a171e1e341" d="m409.81,359.6c9.2,3.77,29.89,12.05,42.79,16.03,2.11.65,4.41.69,6.5-.04,11.79-4.08,28.47-11.39,33.03-11.32,5.25.08,7.8,3.93,19.88,2.04,13.36-2.1,22.43-11.99,20.93-23.3-4.21-43.28-25.18-26.79-25.18-26.79,0,0-5.84-8.75-18.76-4.82-11.83,3.6-10.2,14.44-6.47,22.47l-25.29,8.58c-2.14.72-4.45.71-6.59-.02l-35.7-12.61"/><path class="uuid-57d641cc-3e15-4ae9-829f-c36df3c7f79a" d="m533.36,312.82c2.5,3.94,1.62,9.14-1.57,12.4-2.47,2.53-5.88,3.88-9.32,4.4-2.8.43-5.7.42-8.49-.08-2.14-.39-4.29-1.1-5.79-2.75-1.66-1.83-2.27-4.46-1.98-6.87.51-4.17,3.84-7.14,7.22-9.26,3.17-1.98,6.86-3.26,10.64-3.09,3.8.18,7.36,2.19,9.3,5.24Z"/><path class="uuid-57d641cc-3e15-4ae9-829f-c36df3c7f79a" d="m538.57,349.84c.97,3.03.32,6.43-1.5,9.01-3.77,5.33-11.17,5.65-16.96,4.27-3.31-.79-6.69-2.21-8.67-5.13-3.13-4.61-.82-9.79,3.48-12.56,2.58-1.66,5.61-2.67,8.63-3.14,5.73-.89,13.1,1.51,15.03,7.56Z"/><path class="uuid-57d641cc-3e15-4ae9-829f-c36df3c7f79a" d="m538.71,328.53c1.8,2.99,2.06,6.89.22,9.9-1.95,3.2-4.94,5.25-8.49,6.28-3.66,1.07-7.64,1.27-11.4.44-2.25-.5-4.53-1.38-5.96-3.28-1.86-2.47-1.89-5.68-.85-8.49,1.2-3.24,4.17-5.69,7.09-7.37,6.15-3.56,15.21-4.43,19.39,2.52Z"/><path class="uuid-57d641cc-3e15-4ae9-829f-c36df3c7f79a" d="m501.85,311.68s9.27,3.84,7.77,12.02c-1.04,5.68-8.17,9.55-14.94,6.13"/><path class="uuid-6f41a922-4956-4224-af6c-3d28e38947e5" d="m500.67,331.08c2.41,1.63,5.11,8.04,3.4,14.42"/><path d="m443.44,339.88c-2.88,10.58-6.94,20.23-11.17,28.59-10.17-3.78-21.16-9.53-27-11.93l11.83-26.02,26.35,9.36Z"/><ellipse cx="300" cy="518.65" rx="138.6" ry="22.93"/><path class="uuid-f34e6d04-5895-4a55-8123-65c0a5c276be" d="m319.36,427.14c-1.16,1.05-54.95,57-54.95,57,0,0,21.51-1.95,31.74,10.62,10.23,12.57,7.26,23.89,7.26,23.89h-66.9s-28.69-36.17-28.69-36.17c0,0,3.74-13.4,20.44-10.59,20.9-19.38,55.52-59.13,55.52-59.13l35.59,14.38Z"/><path d="m283.78,412.76l31.28,12.64-3.24,9.5c-2.93,3.03-9.76,10.12-13.64,14.14-11.92,0-27.98-2.13-41.33-6.37,13.95-15.1,26.93-29.92,26.93-29.92Z"/><path class="uuid-f34e6d04-5895-4a55-8123-65c0a5c276be" d="m354.45,173.54l-.11.27-174.2,58.29c-11.49,20.13-18.05,43.43-18.05,68.27,0,76.2,61.77,137.98,137.97,137.98s137.98-61.77,137.98-137.98c0-56.89-34.43-105.72-83.58-126.83Z"/><path class="uuid-6f41a922-4956-4224-af6c-3d28e38947e5" d="m264.41,484.14c-4.06.49-11.49,1.36-17.85,7.23"/><path class="uuid-7b9f3a05-4cc7-4b23-b3bf-179c77ea9f5f" d="m185.17,308.14c-4.41,0-7.98-3.57-7.98-7.98,0-67.74,55.11-122.86,122.86-122.86,4.41,0,7.98,3.57,7.98,7.98s-3.57,7.98-7.98,7.98c-58.94,0-106.9,47.95-106.9,106.9,0,4.41-3.57,7.98-7.98,7.98Z"/><path d="m203.75,397.46l34.2-27.46-24.86,36.3c-6.73-5.1-3.66-2.61-9.34-8.83Z"/><path class="uuid-5d2ce935-29a4-4a67-ac10-b6bb4cf3dd30" d="m323.72,387.31c19.14-13.4,39.15-11.3,55.52,7.36,19.6,22.35,30.57,33.06,30.57,33.06,0,0,10.74-19.34,34.77-17.5,18.26,1.4,24.84,14.43,24.84,14.43,0,0,6.21,8.82-22.45,33.5-28.66,24.68-54.93,40.92-61.14,29.46-6.21-11.46-2.82-32.1-2.82-32.1,0,0-22.02-26.09-27.94-32.01-6.79-6.79-15.71-1.36-15.71-1.36"/><path class="uuid-f34e6d04-5895-4a55-8123-65c0a5c276be" d="m446.97,458.17c-25.89,22.29-49.82,37.69-58.79,32.02-9.77-7.44,26.84-38.54,44.88-52.7,18.04-14.16,32.17-17.82,36.36-12.81,0,0,6.21,8.82-22.45,33.5Z"/><path class="uuid-6f41a922-4956-4224-af6c-3d28e38947e5" d="m409.81,427.74c-1.89,2.86-4.55,10.38-4.55,10.38"/><ellipse class="uuid-28d15e62-18ad-457b-95e7-fa4bdbf6607d" cx="269.41" cy="209.07" rx="94.9" ry="26.25" transform="translate(-52.5 96.54) rotate(-18.55)"/><ellipse class="uuid-7fae2aa8-9ea1-45c0-a459-daab5bb141c8" cx="269.41" cy="209.07" rx="71.19" ry="13.32" transform="translate(-52.5 96.54) rotate(-18.55)"/><g><path class="uuid-450a74f4-b6b6-47ff-a9b8-91a171e1e341" d="m214.11,345.7c-8.05,5.83-25.34,20.79-35.52,29.67-1.67,1.45-2.82,3.41-3.39,5.55-3.14,11.67-8.55,33.44-8.55,33.44,0,0-8.42.58-12.19,14.35-3.64,13.3-6.64,25.06,3.77,29.75.35,7.47,7.51,15.45,19.2,9.41.14-.06,1.32,1.32,1.44,1.45,2.64,2.7,6.36,4.45,10.13,4.81,3.65.36,7.61-.67,10.43-3.08,3.29-2.81,5.4-6.94,6.05-11.2.4-2.61.26-5.31-.75-7.78,0,0,6.2-2.51,8.05-11.34,1.99-9.49-4.22-19.42-14.62-18.18l6.17-23.11c.51-2.2,1.74-4.16,3.49-5.59l29.38-24.3"/><path class="uuid-6f41a922-4956-4224-af6c-3d28e38947e5" d="m204.73,452.06c-1.37-3.47-5.39-7.08-9-6.88"/><path class="uuid-6f41a922-4956-4224-af6c-3d28e38947e5" d="m178.86,469.3c-5.16-5.27-3.82-11.97-2.9-13.54"/><path class="uuid-6f41a922-4956-4224-af6c-3d28e38947e5" d="m158.22,458.45c-.27-5.22.73-7.32,3.06-9.83"/><path class="uuid-6f41a922-4956-4224-af6c-3d28e38947e5" d="m193.93,450.63c.14-2.07.48-4.16,1.32-6.06.85-1.95,2.36-3.88,4.31-4.85"/></g></svg>
<svg id="uuid-175be159-db61-4df5-a3ec-4e569af78a21" data-name="BODY" xmlns="http://www.w3.org/2000/svg" viewBox="0 0 600 600"><defs><style>
      .uuid-cb5ad370-d590-4d84-8471-319d1a4c5aa5 {
        fill: none;
        stroke: #000;
        stroke-linecap: round;
        stroke-linejoin: round;
        stroke-width: 4px;
      }
    </style></defs><g id="uuid-13c94933-b88a-4a0e-9bd5-264a3853387a" data-name="expressions"><g id="uuid-006bcb9c-427f-47d9-92c9-0f51d1e9073c" data-name="mouth"><circle cx="362.12" cy="293.18" r="9.78" transform="translate(-9.59 12.26) rotate(-1.91)"/></g><g id="uuid-aa5f76af-2ff8-4e7f-a2a4-73d690451a8d" data-name="eye L"><circle cx="337.63" cy="273.96" r="9.78" transform="translate(-8.96 11.43) rotate(-1.91)"/></g><g id="uuid-4d2b7d8b-0a30-48e5-b672-08579e330a1a" data-name="eye R"><polyline class="uuid-cb5ad370-d590-4d84-8471-319d1a4c5aa5" points="374.33 254.17 360.69 266.02 379.28 264.87"/></g></g></svg>
<svg id="uuid-0aa8c587-996b-4cdc-8f6f-9857078d28d3" data-name="BODY" xmlns="http://www.w3.org/2000/svg" viewBox="0 0 600 600"><defs><style>
      .uuid-5c1aa41b-276d-47a9-975e-6b51258e34fd {
        fill: #7aa6ff;
      }

      .uuid-5c1aa41b-276d-47a9-975e-6b51258e34fd, .uuid-5420853f-4843-434c-aead-428453da705c, .uuid-98d20c01-64f9-488a-bda2-9c627608ef99 {
        stroke: #000;
        stroke-linecap: round;
        stroke-linejoin: round;
        stroke-width: 2px;
      }

      .uuid-5420853f-4843-434c-aead-428453da705c {
        fill: none;
      }

      .uuid-98d20c01-64f9-488a-bda2-9c627608ef99 {
        fill: #f9a723;
      }
    </style></defs><g id="uuid-efe03c10-21e9-40e1-b362-43562c7320e3" data-name="uuid-3374edde-7b2c-4e71-84a6-3cb653058dc6"><g id="uuid-7e5c48c3-5d6e-4296-9f6a-e6035b6c477a" data-name="uuid-298fa604-3857-4000-a4c4-1a509c9ef803"><g><path class="uuid-5c1aa41b-276d-47a9-975e-6b51258e34fd" d="m244.59,514.46s8.09-20.22,26.83-20.22c15.1,0,19.01,7.06,19.01,7.06,0,0,3.03-5.94,8.09-9.18,0,0-4.15-7.58-14.26-9.3l-1.73,1.91s-6.97-5.35-23.92-2.28c-16.95,3.07-28.51,21.15-28.51,21.15l.92,8.35,4.39,6.42,9.18-3.89v-.02Z"/><path class="uuid-98d20c01-64f9-488a-bda2-9c627608ef99" d="m209.84,478.1l27.45,34.51c.93,1.16,2.33,1.84,3.82,1.84h61.66c1.79,0,3.24,1.45,3.24,3.24v4.45c0,1.79-1.45,3.24-3.24,3.24h-64.92c-3.9,0-7.59-1.79-10-4.85l-26.47-32.68c-.89-1.1-.9-2.68-.02-3.79l4.63-5.81c.91-1.33,2.85-1.41,3.86-.14h0Z"/><path class="uuid-5420853f-4843-434c-aead-428453da705c" d="m282.53,484.72c2.44,1.78,6.89,7.45,7.9,16.57,2.33,5.28,2.33,13.17,2.33,13.17"/></g><g><path class="uuid-5c1aa41b-276d-47a9-975e-6b51258e34fd" d="m405.26,457.42s-8.33-22.95,12.28-44.49c4.45-4.65,15.27-6.57,24.17-6.37,0,0-25.89,17.7-19.96,39.81l-16.49,11.06h0Z"/><path class="uuid-98d20c01-64f9-488a-bda2-9c627608ef99" d="m382.22,485.43c.29,4,3.37,8.75,9.54,9.05s18.87-1.74,46.41-24.52c27.54-22.78,37.32-34.79,34.59-45.81-2.73-11.02-15.88-8.29-29.33,0-13.45,8.29-23.24,15.87-39.34,30.44-15.19,13.75-22.52,21.98-21.88,30.84h0Z"/><path class="uuid-5420853f-4843-434c-aead-428453da705c" d="m472.87,430.86c1.07-6.88-12.92-14.11-52.29,20.95-38.8,34.55-33.55,42.06-30.93,42.38"/><path class="uuid-5420853f-4843-434c-aead-428453da705c" d="m395.95,488.37c1.88,1.93,15.96-4.79,39.42-24.07,23.46-19.28,33.17-30.27,31.28-32.36s-10.79-2.61-41.12,23.75c-30.33,26.36-31.35,30.85-29.58,32.67h0Z"/><path class="uuid-5420853f-4843-434c-aead-428453da705c" d="m441.71,406.56c12.54-.01,17.04,10.85,17.04,10.85"/></g></g></g></svg>
<svg id="uuid-f4074912-9272-4ef1-b1b1-d66f5acdc7c8" data-name="BODY" xmlns="http://www.w3.org/2000/svg" viewBox="0 0 600 600"><defs><style>
      .uuid-faa079f9-df7c-49b8-9fbd-6724fd225a2e {
        fill: #7aa6ff;
      }

      .uuid-faa079f9-df7c-49b8-9fbd-6724fd225a2e, .uuid-ac748af8-1ade-42a0-999e-0a2ce733572b, .uuid-1baff137-1693-4b4b-a630-944b4a445ce9, .uuid-e151b05c-5576-4bb6-b555-654c00b076ba, .uuid-f7781649-76e1-44b4-85bf-2cb5db06f6ae {
        stroke: #000;
        stroke-linecap: round;
        stroke-linejoin: round;
        stroke-width: 2px;
      }

      .uuid-ac748af8-1ade-42a0-999e-0a2ce733572b {
        fill: #ff78d8;
      }

      .uuid-1baff137-1693-4b4b-a630-944b4a445ce9 {
        fill: #ffff0d;
      }

      .uuid-e151b05c-5576-4bb6-b555-654c00b076ba {
        fill: #fff;
      }

      .uuid-f7781649-76e1-44b4-85bf-2cb5db06f6ae {
        fill: none;
      }
    </style></defs><g id="uuid-609b5b85-8169-408e-9e55-6a09e3454fc3" data-name="uuid-59560883-689f-43df-9f0b-d5c83d25eed8"><g><g><path class="uuid-e151b05c-5576-4bb6-b555-654c00b076ba" d="m166.95,413.12c11.19,10.25,31.2,9.43,31.2,9.43l4.5-16.84s-5.66-2.38-15.98-5.31c-10.32-2.93-15.34-4.65-15.34-4.65l-4.38,17.37Z"/><g><line class="uuid-f7781649-76e1-44b4-85bf-2cb5db06f6ae" x1="178.28" y1="404.79" x2="176.11" y2="413.89"/><line class="uuid-f7781649-76e1-44b4-85bf-2cb5db06f6ae" x1="191.19" y1="408.44" x2="189.01" y2="417.54"/></g></g><g><path class="uuid-e151b05c-5576-4bb6-b555-654c00b076ba" d="m466.27,339.39l16.26-5.52s-.43,19.89,9.61,30.41l-16.83,5.37s-9.23-5.12-11.25-14.64,2.22-15.62,2.22-15.62h-.01Z"/><path class="uuid-ac748af8-1ade-42a0-999e-0a2ce733572b" d="m436.03,324.33s17.68,5.27,18.89,5.75,11.35,9.31,11.35,9.31c0,0-.65,20.75,9.03,30.26,0,0-15.19,17.39-17.22,18.71-2.03,1.32-41.28-14.54-41.28-14.54,0,0,6.6-14.58,12.05-26.21,5.45-11.63,7.16-23.27,7.16-23.27h.02Z"/><line class="uuid-f7781649-76e1-44b4-85bf-2cb5db06f6ae" x1="473.46" y1="359.57" x2="482.77" y2="356.38"/><line class="uuid-f7781649-76e1-44b4-85bf-2cb5db06f6ae" x1="470.36" y1="348.29" x2="479.66" y2="345.1"/><path class="uuid-f7781649-76e1-44b4-85bf-2cb5db06f6ae" d="m469.02,358.71c-10.17,2.95-16.49,13.87-13.05,16.86,3.44,2.99,6.52-6.37,6.52-6.37"/><path class="uuid-f7781649-76e1-44b4-85bf-2cb5db06f6ae" d="m466.78,348.29c-8.18-2.09-15.56-4.17-15.56-4.17"/><path d="m446.06,327.34c-1.01,10.56-5.64,22.15-7.31,26.67-3.62,9.78-8.9,19.7-11.17,24.18-10.17-3.78-7.79-2.87-10.71-4.51l13.37-27.47,5.78-21.87,10.03,3.01h.01Z"/></g><g><path class="uuid-faa079f9-df7c-49b8-9fbd-6724fd225a2e" d="m305.9,456.21l11.12-16.69s29.17-3,37.01-5.81c4.96-1.77,4.75-6.23,4.75-6.23,0,0-3.63-4.35-6.23-5.92s-6.71-1.43-6.71-1.43c0,0-2.22-14.25-.14-27.85,1.65-10.77,3.42-13.58,3.42-13.58,0,0,7.52.12,16.47,4.63,8.95,4.51,25.62,24.76,25.62,24.76,0,0,8.74-7.2,18.19-18.57,7.9-9.51,18.19-23.81,25.11-44.09,1.35-3.97-7.32,4.09-6.26-.35l-36.04,20.64-23.93,5.56-7.28-8.73s-34.18,6.88-103.92-10.42c-65.9-16.35-98.53-45.2-98.53-45.2,0,0-.86,99.87,103.94,129.57,0,0,17.61,14.53,43.4,19.69v.02Z"/><g><path d="m299.53,440.27l17.49-.75c-1.25,1.77-3.89,6.12-5.89,8.83-1.78.8-6.5.69-12.95.69-5.09,0-10.93-.38-16.99-1.16-6.84-2.65-14.12-7.91-18.69-11.36,10.33,3.75,37.03,3.75,37.03,3.75h0Z"/><g><path class="uuid-f7781649-76e1-44b4-85bf-2cb5db06f6ae" d="m345.85,420.15c.91,7.61,5.87,14.72,9.05,13.21"/><path class="uuid-f7781649-76e1-44b4-85bf-2cb5db06f6ae" d="m357.59,368.15c-3.91,1.27-8.46,10.57-8.46,10.57"/><path class="uuid-f7781649-76e1-44b4-85bf-2cb5db06f6ae" d="m365.77,376.93c.81,2.81.44,6.74.44,6.74"/><path class="uuid-f7781649-76e1-44b4-85bf-2cb5db06f6ae" d="m375.84,391.39c27.34-6.78,45.94-18.94,45.94-18.94"/><path class="uuid-f7781649-76e1-44b4-85bf-2cb5db06f6ae" d="m305.26,388.93c-6.9,3.88-16.96,13.38-16.96,13.38,0,0-25.89-1.45-53.64-14.61"/><path class="uuid-f7781649-76e1-44b4-85bf-2cb5db06f6ae" d="m183.69,356.75c-9.65-4.5-18.55-12.21-18.55-12.21"/><path class="uuid-f7781649-76e1-44b4-85bf-2cb5db06f6ae" d="m262.5,436.52c18.96,6,54.52,3,54.52,3"/></g></g></g><g><path class="uuid-e151b05c-5576-4bb6-b555-654c00b076ba" d="m285.23,402.04s-17.84,21.72-41.45,34.31c-1.22.65-2.65.72-3.94.23-3.16-1.2-9.47-3.76-15.46-7.2-1.38-.79-2.27-2.21-2.4-3.79-.15-1.88-.3-4.52-.2-6.81,0,0,6.05,3.63,8.47,4.89,0,0,20.86-10.28,33.34-25.64,0,0,13.46,3.25,21.64,3.99v.02Z"/><g><path class="uuid-e151b05c-5576-4bb6-b555-654c00b076ba" d="m255.87,406.2c7.74,3.09,20.52,5.31,20.52,5.31"/><path class="uuid-e151b05c-5576-4bb6-b555-654c00b076ba" d="m245.98,414.29c8.29,4.28,19.77,6.99,19.77,6.99"/><path class="uuid-e151b05c-5576-4bb6-b555-654c00b076ba" d="m234.67,421.27c7.1,5.25,18.9,8.82,18.9,8.82"/></g><path class="uuid-f7781649-76e1-44b4-85bf-2cb5db06f6ae" d="m230.25,423.68c-3.14,1.72-4.59,1.01-4.59,1.01"/></g><g><path class="uuid-ac748af8-1ade-42a0-999e-0a2ce733572b" d="m160.3,324.43s21.12,15.53,34.57,21.27c0,0-29.63,28.9-30.64,31.83-1.01,2.93,7.1,18.21,7.1,18.21,0,0,9.38,10.52,31.32,9.96,0,0,15.57-3.8,17.09-4.3s26.8-25.18,26.8-25.18c0,0,33.1,13.52,58.72,12.71,0,0,27.78-16.72,52.33-20.78,4.83-.8,8.17,8.78,8.17,8.78,0,0,46.23-11.43,68.5-30.73l3.89-13.36s-32.3,16-38.39,18.77c-6.09,2.77-9.58,7.17-10.8,12.88,0,0-5.41-6.22-15.42-5.61-10.01.61-35.05,8.72-78.67.05-43.62-8.67-136.31-54.81-136.31-54.81,0,0-.17,10.86,1.73,20.31h0Z"/><path class="uuid-1baff137-1693-4b4b-a630-944b4a445ce9" d="m190.52,349.97l1.21,3.1-5.62,1.26-4.35,4.34s.46,1.94,2.21,2.08,12.02-.38,12.02-.38l9.05,9.63c.93.99,2.58.41,2.7-.94l.57-6.56,4.99-.39c1.48-.12,1.98-2.02.76-2.86l-6.83-4.64-.29-5.46c-.06-1.04-1.1-1.74-2.08-1.39l-6.05,2.14-5.91-2.27-2.38,2.34h0Z"/><g><path class="uuid-ac748af8-1ade-42a0-999e-0a2ce733572b" d="m194.87,345.7c2.93-2.8,1.21-5.78,1.21-5.78"/><path class="uuid-ac748af8-1ade-42a0-999e-0a2ce733572b" d="m246.54,376.22c4.15-4.15,7.69-3.44,7.69-3.44"/><path class="uuid-ac748af8-1ade-42a0-999e-0a2ce733572b" d="m181.58,402.21c-.16-10.42-5.72-15.88-5.72-15.88"/><path class="uuid-ac748af8-1ade-42a0-999e-0a2ce733572b" d="m188.66,404.42c15.82-16.77,20.79-12.53,20.97-10.15.3,3.93-6.57,5.11-6.57,5.11"/></g></g><g><path class="uuid-e151b05c-5576-4bb6-b555-654c00b076ba" d="m163.88,276.21l-1.03,7.03s112.9,81.34,203.12,57.16c4.51-1.21,9.14,1.49,10.21,6.04l2.12,9.04c1.04,4.43-1.7,8.86-6.13,9.89-7.25,1.69-19.8,4-38.99,5.62-32.93,2.77-108.69-13.12-175.39-61.23-2.96-2.13-4.66-5.6-4.52-9.24l.52-13.84c.2-5.15,3.99-9.46,9.07-10.3l1.02-.17h0Z"/><path class="uuid-e151b05c-5576-4bb6-b555-654c00b076ba" d="m390.47,340.24l2.55,9.52c1.12,4.19,5.71,6.39,9.67,4.64,9.73-4.3,26.86-12.96,39.6-25.3,2.24-2.17,3.59-5.09,3.72-8.2l.62-14.43c.24-5.5-3.29-10.46-8.57-12.05h0l.07,9.15s-17.38,15.96-43.79,28.45c-3.1,1.47-4.74,4.92-3.85,8.23h-.02Z"/><path class="uuid-f7781649-76e1-44b4-85bf-2cb5db06f6ae" d="m162.84,283.24c-2.15-1.47-2.15-2.51-2.15-2.51"/><path class="uuid-f7781649-76e1-44b4-85bf-2cb5db06f6ae" d="m438.12,303.56c2.38-1.92,2.73-2.98,2.73-2.98"/></g></g></g></svg>
<svg id="uuid-f404ceb8-7c39-4a18-b8b8-115c00c2bd91" data-name="BODY" xmlns="http://www.w3.org/2000/svg" viewBox="0 0 600 600"><defs><style>
      .uuid-f080fb2b-602f-4cf7-92ef-6037f33bace8 {
        fill: #ffff0d;
      }

      .uuid-f080fb2b-602f-4cf7-92ef-6037f33bace8, .uuid-67a4340c-4aab-4dd0-b330-b9e5e8d4b206, .uuid-fa7a50da-85f3-4b12-a5b7-369a35eddd61 {
        stroke: #000;
        stroke-linecap: round;
        stroke-linejoin: round;
        stroke-width: 2px;
      }

      .uuid-67a4340c-4aab-4dd0-b330-b9e5e8d4b206 {
        fill: none;
      }

      .uuid-fa7a50da-85f3-4b12-a5b7-369a35eddd61 {
        fill: #f9a723;
      }
    </style></defs><g id="uuid-cf137c39-0034-439d-adac-e4fa334b472a" data-name="uuid-0c0f6844-9252-4e38-b2ae-1fb7558b546c"><g id="uuid-985784ab-0fe5-462e-b6b7-3d43bf790f20" data-name="uuid-eba7662b-ff04-44ba-9d9b-c9fb86b595ea"><g id="uuid-93bf9e4f-3898-4943-9398-20954131d89e" data-name="uuid-e873324e-4a24-4e75-a94d-0c9fb771f1dc"><g><path class="uuid-fa7a50da-85f3-4b12-a5b7-369a35eddd61" d="m138.51,388.15c-3.22-11.04-6.43-23.51-23.05-29.14-16.62-5.63-31.09,3.22-34.98,18.89-3.89,15.68-4.02,41.1,8.04,58.14s23.18,16.95,32.3,14.58c9.11-2.37,17.02-17.96,17.02-17.96l10.05-24.34s-6.16-9.13-9.38-20.18h0Zm-16.62,1.28c-.67,7.24-10.01,18.89-10.84,26.67-.82,7.77,6.41,17.66,6.55,19.95.13,2.29-.4,3.67-.4,3.67,0,0-15.41.1-19.97-13.44-4.56-13.53,3.08-25.86,3.08-25.86,0,0-6.3-24.66-.13-32.3,14.61-1.74,22.38,14.07,21.71,21.31h0Z"/><path class="uuid-f080fb2b-602f-4cf7-92ef-6037f33bace8" d="m138.51,388.15c-3.22-11.04-6.43-23.51-23.05-29.14-10.38-3.52-19.92-1.38-26.57,4.53,6.66-4.23,20.81-4.13,30.46,5.12,9.65,9.25,13.13,18.36,9.92,31.76-3.22,13.4-8.09,14.34-7.33,22.25.76,7.91,4.65,13.13,3.98,17.69-.65,4.41-2.57,9.46-9.12,11.11,1.38-.2,2.73-.49,4.03-.83,9.11-2.37,17.02-17.96,17.02-17.96l10.05-24.34s-6.16-9.13-9.38-20.18h0Z"/><path class="uuid-f080fb2b-602f-4cf7-92ef-6037f33bace8" d="m117.21,439.72s-15.41.1-19.97-13.44c-4.56-13.53,3.08-25.86,3.08-25.86,0,0-6.3-24.66-.13-32.3h0c-7.5.54-15.14,9.25-9.11,34.71-5.76,13-2.28,29.55,8.44,36.89,10.72,7.33,17.29,3.67,17.69,0h0Z"/><path class="uuid-f080fb2b-602f-4cf7-92ef-6037f33bace8" d="m153.88,408.67s.21,4.54,0,5.65c-.21,1.11-3.94,5.04-5.56,8.37-1.61,3.33-1.61,8.17-1.82,9.48s-3.93,4.04-7.46,3.88c-3.53-.15-7.06-6.91-1.31-20.22,5.75-13.31,16.24-12.41,16.15-7.16h0Z"/><path class="uuid-f080fb2b-602f-4cf7-92ef-6037f33bace8" d="m158.93,419.29c1.9-2.02,0-6.54-2.94-7.1-1.77-.34-4.94-.5-9.28,8.17-4.34,8.67-2,13.38-1.01,14.62,1.61,2.02,6.83,1.11,7.68-2.32.55-2.2.93-3.83,2.37-7.82s3.18-5.56,3.18-5.56h0Z"/><path class="uuid-f080fb2b-602f-4cf7-92ef-6037f33bace8" d="m153.38,432.67s1.44-8.2,5.55-13.38l-4.15-2.26s-1.48.91-3.72,6.05c-2.24,5.14-2.24,7.36-2.24,7.36l4.55,2.22h0Z"/><path class="uuid-f080fb2b-602f-4cf7-92ef-6037f33bace8" d="m193.93,450.63c.19-6.04,3.41-9.84,5.62-10.91,0,0,12.42.33,17.34-.51,4.92-.84,6.77,5.2,1.86,15.31s-7.52,12.77-10.39,10.92c-3.32-2.14-2.49-6.17-14.43-14.81h0Z"/><path class="uuid-f080fb2b-602f-4cf7-92ef-6037f33bace8" d="m224.52,458.18c-5.38,11.37-14.69,6.69-9.41-4.53,5.28-11.22,15.26-7.82,9.41,4.53Z"/><g><path class="uuid-f080fb2b-602f-4cf7-92ef-6037f33bace8" d="m232.45,463.74v7.7s15.21,8.44,17.86,10.28c3.51,2.42,1.94,7.69,1.94,7.69l-10.66-5.27-6.59,2.46-1.38,16.04,23.22,12.96,5.25-3.08.74-7.42s7.33,2.53,8.07,5.83c.74,3.29-.74,10.94-.74,10.94l25.18,12.85,5.74-2.44,4.04-17.32s-13.39-5.95-14.98-7.65-1.59-6.48-1.59-6.48c0,0,2.12-.74,5.63,1.06s14.02,6.59,14.02,6.59l7.57-2.18.93-4.09-84.26-38.48h0Z"/><g><path class="uuid-fa7a50da-85f3-4b12-a5b7-369a35eddd61" d="m256.85,515.61l5.25-3.08.74-7.42c-4.16-1.56-4.99-1.23-5.99,10.5Z"/><polygon class="uuid-fa7a50da-85f3-4b12-a5b7-369a35eddd61" points="308.21 508.49 315.78 506.31 316.7 502.22 310.06 499.19 308.21 508.49"/><path class="uuid-fa7a50da-85f3-4b12-a5b7-369a35eddd61" d="m301.09,532.29l4.04-17.32s-13.39-5.95-14.98-7.65c-1.59-1.7-1.59-6.48-1.59-6.48-5.36.04-5.98,6.95-3.14,9.63,2.83,2.68,13.5,7.43,13.5,7.43l-3.56,16.83,5.74-2.44h0Z"/><path class="uuid-fa7a50da-85f3-4b12-a5b7-369a35eddd61" d="m252.25,489.41l-10.65-5.27-6.59,2.46s8.4,3.91,11.55,5.7c3.15,1.79,5.4-1.25,5.69-2.89h0Z"/></g></g><g><path class="uuid-f080fb2b-602f-4cf7-92ef-6037f33bace8" d="m218.25,460.55l106.4,49.92s4.24.66,6.38-3.76c2.14-4.42-.3-6.75-.3-6.75l-107.49-49.32s-4.94,2.52-4.99,9.92h0Z"/><path class="uuid-67a4340c-4aab-4dd0-b330-b9e5e8d4b206" d="m330.72,499.95c-3.94-1.81-9.58,8.59-6.08,10.52"/></g></g></g></g></g></svg>
<svg id="uuid-2f504206-111c-4779-9236-233d24245c5e" data-name="BODY" xmlns="http://www.w3.org/2000/svg" xmlns:xlink="http://www.w3.org/1999/xlink" viewBox="0 0 600 600"><defs><style>
      .uuid-d3edaed5-c7c6-4c4d-aa40-9a4dd8648ee7, .uuid-68d6c310-ce9e-402f-977e-09a9487d1f3f, .uuid-c55da662-6359-43da-9ece-79f419a77998 {
        fill: none;
      }

      .uuid-a378b470-e58b-414a-9aaa-c42cc7401d46, .uuid-ec8004b7-0527-439b-bc6e-4b5df54d70f5, .uuid-a970ff5c-387f-4ed2-bc98-796834b27354 {
        fill: #7aa6ff;
      }

      .uuid-a378b470-e58b-414a-9aaa-c42cc7401d46, .uuid-ec8004b7-0527-439b-bc6e-4b5df54d70f5, .uuid-68d6c310-ce9e-402f-977e-09a9487d1f3f, .uuid-5f18a3b5-25e8-4b4a-92b0-9c895b96bdd6 {
        stroke: #000;
        stroke-linecap: round;
        stroke-linejoin: round;
      }

      .uuid-a378b470-e58b-414a-9aaa-c42cc7401d46, .uuid-68d6c310-ce9e-402f-977e-09a9487d1f3f, .uuid-5f18a3b5-25e8-4b4a-92b0-9c895b96bdd6 {
        stroke-width: 2px;
      }

      .uuid-ec8004b7-0527-439b-bc6e-4b5df54d70f5 {
        stroke-width: 2px;
      }

      .uuid-5f18a3b5-25e8-4b4a-92b0-9c895b96bdd6 {
        fill: #f9a723;
      }

      .uuid-c55da662-6359-43da-9ece-79f419a77998 {
        clip-path: url(#uuid-eca54416-6e61-412d-a418-e0bcf3f00aa5);
      }
    </style><clipPath id="uuid-eca54416-6e61-412d-a418-e0bcf3f00aa5"><path class="uuid-d3edaed5-c7c6-4c4d-aa40-9a4dd8648ee7" d="m500.24,288.07s3.15-12.64,14.55-12.39c0,0,6.81-3.05,4.79-13.7s-9.48-7.62-9.48-7.62l-3.26,2.83s-4.99-3.71-11.8-4.25c-6.81-.54-29.6,19.74-28.65,47.05l2.58,4.27h5.71s1.04-3.08,1.49-4.63c.71,1.5,2.45,4.63,2.45,4.63h5.46s.25-16.04,10.62-13.7c3.59.81,5.54-2.49,5.54-2.49h0Z"/></clipPath></defs><g id="uuid-867e74de-e6be-4fed-8810-6aee283b78c1" data-name="uuid-7815cad7-8e3a-44d2-a5d3-2b4a6315d68d"><g><g><g><path class="uuid-a970ff5c-387f-4ed2-bc98-796834b27354" d="m500.24,288.07s3.15-12.64,14.55-12.39c0,0,6.81-3.05,4.79-13.7s-9.48-7.62-9.48-7.62l-3.26,2.83s-4.99-3.71-11.8-4.25c-6.81-.54-29.6,19.74-28.65,47.05l2.58,4.27h5.71s1.04-3.08,1.49-4.63c.71,1.5,2.45,4.63,2.45,4.63h5.46s.25-16.04,10.62-13.7c3.59.81,5.54-2.49,5.54-2.49h0Z"/><g class="uuid-c55da662-6359-43da-9ece-79f419a77998"><g><path class="uuid-68d6c310-ce9e-402f-977e-09a9487d1f3f" d="m468.96,304.27c3.56-19.63,12.25-29.34,22.7-23.21"/><path class="uuid-68d6c310-ce9e-402f-977e-09a9487d1f3f" d="m495.04,252.95c.78,9.4,3.57,11.29,11.8,4.25"/><path class="uuid-68d6c310-ce9e-402f-977e-09a9487d1f3f" d="m513.81,261.46s-11.73,5.35-20.22,9.49"/><path class="uuid-68d6c310-ce9e-402f-977e-09a9487d1f3f" d="m476.17,299.64c1.03-4.04,4.15-3.86,3.36-.09-.26,1.25-.58,3.01-.91,4.73"/></g></g><path class="uuid-68d6c310-ce9e-402f-977e-09a9487d1f3f" d="m500.24,288.07s3.15-12.64,14.55-12.39c0,0,6.81-3.05,4.79-13.7s-9.48-7.62-9.48-7.62l-3.26,2.83s-4.99-3.71-11.8-4.25c-6.81-.54-29.6,19.74-28.65,47.05l2.58,4.27h5.71s1.04-3.08,1.49-4.63c.71,1.5,2.45,4.63,2.45,4.63h5.46s.25-16.04,10.62-13.7c3.59.81,5.54-2.49,5.54-2.49h0Z"/></g><g><path class="uuid-a378b470-e58b-414a-9aaa-c42cc7401d46" d="m523.26,261.51c2.07,7.74,7.98,12.89,3.75,14.02-.15.04-7.96,2.12-8.12,2.15-4.13.64-8.94-4.61-10.93-12.07-2.03-7.6-.39-14.68,3.67-16,.07-.02,7.8-2.09,7.87-2.11,4.22-1.13,1.68,6.28,3.75,14.02Z"/><ellipse class="uuid-ec8004b7-0527-439b-bc6e-4b5df54d70f5" cx="523.26" cy="261.51" rx="10.33" ry="14.51" transform="translate(-49.81 144.13) rotate(-14.98)"/><line class="uuid-68d6c310-ce9e-402f-977e-09a9487d1f3f" x1="522.82" y1="253.67" x2="518.96" y2="264.52"/><line class="uuid-68d6c310-ce9e-402f-977e-09a9487d1f3f" x1="525.49" y1="265.86" x2="524.1" y2="269.78"/><line class="uuid-68d6c310-ce9e-402f-977e-09a9487d1f3f" x1="527.96" y1="258.93" x2="527.23" y2="260.97"/></g></g><g><path class="uuid-a378b470-e58b-414a-9aaa-c42cc7401d46" d="m521.42,363.39c-.44-.08-.88-.17-1.31-.27-3.31-.79-6.69-2.21-8.67-5.13-3.13-4.61-.82-9.79,3.48-12.56.56-.36,1.14-.68,1.74-.98-1.39-.55-2.66-1.35-3.57-2.56-1.86-2.47-1.89-5.68-.85-8.49.51-1.39,1.37-2.62,2.39-3.72v-.04c-.22-.03-.44-.05-.65-.09-2.1-.38-4.21-1.08-5.7-2.67-2.17,3.15-6.46,5-10.98,3.92l5.35,47.25,20.98-3.74-2.2-10.91h0Z"/><path class="uuid-5f18a3b5-25e8-4b4a-92b0-9c895b96bdd6" d="m507.62,316.05c.9-1.44,2.13-2.7,3.5-3.77l-6.51-32.3s-1.48-4.85-6.4-4.25c-4.92.61-6.54,5.33-6.54,5.33l3.32,29.35c2.06-.09,4.27.05,6.86,1.27,0,0,3.42,1.42,5.77,4.37h0Z"/></g><line class="uuid-68d6c310-ce9e-402f-977e-09a9487d1f3f" x1="501.22" y1="292.85" x2="502.88" y2="303.21"/><line class="uuid-68d6c310-ce9e-402f-977e-09a9487d1f3f" x1="499.45" y1="281.87" x2="500.24" y2="286.79"/><path class="uuid-a378b470-e58b-414a-9aaa-c42cc7401d46" d="m502.64,378.04c.99,8.71,22.7,4.78,20.98-3.74-1.51-7.49-21.81-3.52-20.98,3.74Z"/><path class="uuid-68d6c310-ce9e-402f-977e-09a9487d1f3f" d="m514.37,360.81c-4.9.25-10.44,1.84-13.21,4.18"/><path class="uuid-68d6c310-ce9e-402f-977e-09a9487d1f3f" d="m510.84,349.77c-4.19.5-8.51,1.88-10.97,3.8"/><path class="uuid-68d6c310-ce9e-402f-977e-09a9487d1f3f" d="m511.64,338.39c-4.76.21-10.15,1.71-13.05,3.94"/></g></g></svg>
</svg>