<?xml version="1.0" encoding="UTF-8"?>
<svg xmlns="http://www.w3.org/2000/svg" viewBox="0 0 600 600">
<svg id="uuid-50f5b600-4bee-4d04-aa66-9a7827d0c80f" data-name="BACKGROUND" xmlns="http://www.w3.org/2000/svg" viewBox="0 0 600 600"><defs><style>
      .uuid-7826a2f3-55af-481e-b40d-34a6e43de7ed {
        fill: #7aa6ff;
      }
    </style></defs><rect class="uuid-7826a2f3-55af-481e-b40d-34a6e43de7ed" x="-1" y="-1" width="602" height="602"/></svg>
<svg id="uuid-f15a017f-0e3f-4048-b7dc-9de2c27f1429" data-name="BODY" xmlns="http://www.w3.org/2000/svg" viewBox="0 0 600 600"><defs><style>
      .uuid-168f014a-da8e-4a4a-a17b-b4c761eee567 {
        fill: #fff;
      }

      .uuid-6dd09b89-221c-4a5d-a295-7f6bf4aca76b, .uuid-f0353f8a-5fb2-429a-9857-1825cf43f539, .uuid-45f9cea2-2ee0-4fc6-912f-4bd84051a339, .uuid-7174ee98-898f-4102-bb4e-2dc0b53af4a3, .uuid-8849dfc3-face-4699-b259-b17476a0b974 {
        stroke: #000;
        stroke-width: 2px;
      }

      .uuid-6dd09b89-221c-4a5d-a295-7f6bf4aca76b, .uuid-f0353f8a-5fb2-429a-9857-1825cf43f539, .uuid-7174ee98-898f-4102-bb4e-2dc0b53af4a3, .uuid-8849dfc3-face-4699-b259-b17476a0b974 {
        fill: #a07bff;
      }

      .uuid-6dd09b89-221c-4a5d-a295-7f6bf4aca76b, .uuid-7174ee98-898f-4102-bb4e-2dc0b53af4a3 {
        stroke-miterlimit: 10;
      }

      .uuid-f0353f8a-5fb2-429a-9857-1825cf43f539, .uuid-45f9cea2-2ee0-4fc6-912f-4bd84051a339, .uuid-7174ee98-898f-4102-bb4e-2dc0b53af4a3 {
        stroke-linecap: round;
      }

      .uuid-f0353f8a-5fb2-429a-9857-1825cf43f539, .uuid-45f9cea2-2ee0-4fc6-912f-4bd84051a339, .uuid-8849dfc3-face-4699-b259-b17476a0b974 {
        stroke-linejoin: round;
      }

      .uuid-45f9cea2-2ee0-4fc6-912f-4bd84051a339 {
        fill: none;
      }
    </style></defs><ellipse cx="300" cy="518.65" rx="138.6" ry="22.93"/><g><path class="uuid-6dd09b89-221c-4a5d-a295-7f6bf4aca76b" d="m319.36,427.14c-1.16,1.05-54.95,57-54.95,57,0,0,21.51-1.95,31.74,10.62,10.23,12.57,7.26,23.89,7.26,23.89h-66.9s-28.69-36.17-28.69-36.17c0,0,3.74-13.4,20.44-10.59,20.9-19.38,55.52-59.13,55.52-59.13l35.59,14.38Z"/><path d="m283.78,412.76l31.28,12.64-3.24,9.5c-2.93,3.03-9.76,10.12-13.64,14.14-11.92,0-27.98-2.13-41.33-6.37,13.95-15.1,26.93-29.92,26.93-29.92Z"/></g><g><path class="uuid-f0353f8a-5fb2-429a-9857-1825cf43f539" d="m409.81,359.6c9.2,3.77,29.89,12.05,42.79,16.03,2.11.65,4.41.69,6.5-.04,11.79-4.08,28.47-11.39,33.03-11.32,5.25.08,7.8,3.93,19.88,2.04,13.36-2.1,22.43-11.99,20.93-23.3-4.21-43.28-25.18-26.79-25.18-26.79,0,0-5.84-8.75-18.76-4.82-11.83,3.6-10.2,14.44-6.47,22.47l-25.29,8.58c-2.14.72-4.45.71-6.59-.02l-35.7-12.61"/><path class="uuid-7174ee98-898f-4102-bb4e-2dc0b53af4a3" d="m533.36,312.82c2.5,3.94,1.62,9.14-1.57,12.4-2.47,2.53-5.88,3.88-9.32,4.4-2.8.43-5.7.42-8.49-.08-2.14-.39-4.29-1.1-5.79-2.75-1.66-1.83-2.27-4.46-1.98-6.87.51-4.17,3.84-7.14,7.22-9.26,3.17-1.98,6.86-3.26,10.64-3.09,3.8.18,7.36,2.19,9.3,5.24Z"/><path class="uuid-7174ee98-898f-4102-bb4e-2dc0b53af4a3" d="m538.57,349.84c.97,3.03.32,6.43-1.5,9.01-3.77,5.33-11.17,5.65-16.96,4.27-3.31-.79-6.69-2.21-8.67-5.13-3.13-4.61-.82-9.79,3.48-12.56,2.58-1.66,5.61-2.67,8.63-3.14,5.73-.89,13.1,1.51,15.03,7.56Z"/><path class="uuid-7174ee98-898f-4102-bb4e-2dc0b53af4a3" d="m538.71,328.53c1.8,2.99,2.06,6.89.22,9.9-1.95,3.2-4.94,5.25-8.49,6.28-3.66,1.07-7.64,1.27-11.4.44-2.25-.5-4.53-1.38-5.96-3.28-1.86-2.47-1.89-5.68-.85-8.49,1.2-3.24,4.17-5.69,7.09-7.37,6.15-3.56,15.21-4.43,19.39,2.52Z"/><path class="uuid-7174ee98-898f-4102-bb4e-2dc0b53af4a3" d="m501.85,311.68s9.27,3.84,7.77,12.02c-1.04,5.68-8.17,9.55-14.94,6.13"/><path class="uuid-45f9cea2-2ee0-4fc6-912f-4bd84051a339" d="m500.67,331.08c2.41,1.63,5.11,8.04,3.4,14.42"/><path d="m443.44,339.88c-2.88,10.58-6.94,20.23-11.17,28.59-10.17-3.78-21.16-9.53-27-11.93l11.83-26.02,26.35,9.36Z"/></g><g><circle class="uuid-6dd09b89-221c-4a5d-a295-7f6bf4aca76b" cx="300" cy="300" r="138.16"/><path class="uuid-168f014a-da8e-4a4a-a17b-b4c761eee567" d="m184.58,308.17c-4.41,0-7.98-3.57-7.98-7.98,0-67.74,55.11-122.86,122.86-122.86,4.41,0,7.98,3.57,7.98,7.98s-3.57,7.98-7.98,7.98c-58.94,0-106.9,47.95-106.9,106.9,0,4.41-3.57,7.98-7.98,7.98Z"/></g><path class="uuid-45f9cea2-2ee0-4fc6-912f-4bd84051a339" d="m264.41,484.14c-4.06.49-11.49,1.36-17.85,7.23"/><path class="uuid-168f014a-da8e-4a4a-a17b-b4c761eee567" d="m185.17,308.14c-4.41,0-7.98-3.57-7.98-7.98,0-67.74,55.11-122.86,122.86-122.86,4.41,0,7.98,3.57,7.98,7.98s-3.57,7.98-7.98,7.98c-58.94,0-106.9,47.95-106.9,106.9,0,4.41-3.57,7.98-7.98,7.98Z"/><path d="m203.75,397.46l34.2-27.46-24.86,36.3c-6.73-5.1-3.66-2.61-9.34-8.83Z"/><path class="uuid-8849dfc3-face-4699-b259-b17476a0b974" d="m323.72,387.31c19.14-13.4,39.15-11.3,55.52,7.36,19.6,22.35,30.57,33.06,30.57,33.06,0,0,10.74-19.34,34.77-17.5,18.26,1.4,24.84,14.43,24.84,14.43,0,0,6.21,8.82-22.45,33.5-28.66,24.68-54.93,40.92-61.14,29.46-6.21-11.46-2.82-32.1-2.82-32.1,0,0-22.02-26.09-27.94-32.01-6.79-6.79-15.71-1.36-15.71-1.36"/><path class="uuid-6dd09b89-221c-4a5d-a295-7f6bf4aca76b" d="m446.97,458.17c-25.89,22.29-49.82,37.69-58.79,32.02-9.77-7.44,26.84-38.54,44.88-52.7,18.04-14.16,32.17-17.82,36.36-12.81,0,0,6.21,8.82-22.45,33.5Z"/><path class="uuid-45f9cea2-2ee0-4fc6-912f-4bd84051a339" d="m409.81,427.74c-1.89,2.86-4.55,10.38-4.55,10.38"/><g><path class="uuid-f0353f8a-5fb2-429a-9857-1825cf43f539" d="m214.11,345.7c-8.05,5.83-25.34,20.79-35.52,29.67-1.67,1.45-2.82,3.41-3.39,5.55-3.14,11.67-8.55,33.44-8.55,33.44,0,0-8.42.58-12.19,14.35-3.64,13.3-6.64,25.06,3.77,29.75.35,7.47,7.51,15.45,19.2,9.41.14-.06,1.32,1.32,1.44,1.45,2.64,2.7,6.36,4.45,10.13,4.81,3.65.36,7.61-.67,10.43-3.08,3.29-2.81,5.4-6.94,6.05-11.2.4-2.61.26-5.31-.75-7.78,0,0,6.2-2.51,8.05-11.34,1.99-9.49-4.22-19.42-14.62-18.18l6.17-23.11c.51-2.2,1.74-4.16,3.49-5.59l29.38-24.3"/><path class="uuid-45f9cea2-2ee0-4fc6-912f-4bd84051a339" d="m204.73,452.06c-1.37-3.47-5.39-7.08-9-6.88"/><path class="uuid-45f9cea2-2ee0-4fc6-912f-4bd84051a339" d="m178.86,469.3c-5.16-5.27-3.82-11.97-2.9-13.54"/><path class="uuid-45f9cea2-2ee0-4fc6-912f-4bd84051a339" d="m158.22,458.45c-.27-5.22.73-7.32,3.06-9.83"/><path class="uuid-45f9cea2-2ee0-4fc6-912f-4bd84051a339" d="m193.93,450.63c.14-2.07.48-4.16,1.32-6.06.85-1.95,2.36-3.88,4.31-4.85"/></g></svg>
<svg id="uuid-1cc09208-f3e2-41e0-bf45-a113ad3f9612" data-name="BODY" xmlns="http://www.w3.org/2000/svg" viewBox="0 0 600 600"><defs><style>
      .uuid-b1fb9c84-9278-4c3a-8295-76e21ab76bac {
        fill: none;
        stroke: #000;
        stroke-linecap: round;
        stroke-miterlimit: 10;
        stroke-width: 4px;
      }
    </style></defs><circle cx="369.54" cy="262.94" r="9.78" transform="translate(-8.58 12.49) rotate(-1.91)"/><path class="uuid-b1fb9c84-9278-4c3a-8295-76e21ab76bac" d="m352.87,296.37c1.76,5.11,7.33,7.82,12.44,6.06,5.11-1.76,7.82-7.33,6.06-12.44"/><circle cx="337.63" cy="273.96" r="9.78" transform="translate(-8.96 11.43) rotate(-1.91)"/></svg>
<svg id="uuid-0aa8c587-996b-4cdc-8f6f-9857078d28d3" data-name="BODY" xmlns="http://www.w3.org/2000/svg" viewBox="0 0 600 600"><defs><style>
      .uuid-5c1aa41b-276d-47a9-975e-6b51258e34fd {
        fill: #7aa6ff;
      }

      .uuid-5c1aa41b-276d-47a9-975e-6b51258e34fd, .uuid-5420853f-4843-434c-aead-428453da705c, .uuid-98d20c01-64f9-488a-bda2-9c627608ef99 {
        stroke: #000;
        stroke-linecap: round;
        stroke-linejoin: round;
        stroke-width: 2px;
      }

      .uuid-5420853f-4843-434c-aead-428453da705c {
        fill: none;
      }

      .uuid-98d20c01-64f9-488a-bda2-9c627608ef99 {
        fill: #f9a723;
      }
    </style></defs><g id="uuid-efe03c10-21e9-40e1-b362-43562c7320e3" data-name="uuid-3374edde-7b2c-4e71-84a6-3cb653058dc6"><g id="uuid-7e5c48c3-5d6e-4296-9f6a-e6035b6c477a" data-name="uuid-298fa604-3857-4000-a4c4-1a509c9ef803"><g><path class="uuid-5c1aa41b-276d-47a9-975e-6b51258e34fd" d="m244.59,514.46s8.09-20.22,26.83-20.22c15.1,0,19.01,7.06,19.01,7.06,0,0,3.03-5.94,8.09-9.18,0,0-4.15-7.58-14.26-9.3l-1.73,1.91s-6.97-5.35-23.92-2.28c-16.95,3.07-28.51,21.15-28.51,21.15l.92,8.35,4.39,6.42,9.18-3.89v-.02Z"/><path class="uuid-98d20c01-64f9-488a-bda2-9c627608ef99" d="m209.84,478.1l27.45,34.51c.93,1.16,2.33,1.84,3.82,1.84h61.66c1.79,0,3.24,1.45,3.24,3.24v4.45c0,1.79-1.45,3.24-3.24,3.24h-64.92c-3.9,0-7.59-1.79-10-4.85l-26.47-32.68c-.89-1.1-.9-2.68-.02-3.79l4.63-5.81c.91-1.33,2.85-1.41,3.86-.14h0Z"/><path class="uuid-5420853f-4843-434c-aead-428453da705c" d="m282.53,484.72c2.44,1.78,6.89,7.45,7.9,16.57,2.33,5.28,2.33,13.17,2.33,13.17"/></g><g><path class="uuid-5c1aa41b-276d-47a9-975e-6b51258e34fd" d="m405.26,457.42s-8.33-22.95,12.28-44.49c4.45-4.65,15.27-6.57,24.17-6.37,0,0-25.89,17.7-19.96,39.81l-16.49,11.06h0Z"/><path class="uuid-98d20c01-64f9-488a-bda2-9c627608ef99" d="m382.22,485.43c.29,4,3.37,8.75,9.54,9.05s18.87-1.74,46.41-24.52c27.54-22.78,37.32-34.79,34.59-45.81-2.73-11.02-15.88-8.29-29.33,0-13.45,8.29-23.24,15.87-39.34,30.44-15.19,13.75-22.52,21.98-21.88,30.84h0Z"/><path class="uuid-5420853f-4843-434c-aead-428453da705c" d="m472.87,430.86c1.07-6.88-12.92-14.11-52.29,20.95-38.8,34.55-33.55,42.06-30.93,42.38"/><path class="uuid-5420853f-4843-434c-aead-428453da705c" d="m395.95,488.37c1.88,1.93,15.96-4.79,39.42-24.07,23.46-19.28,33.17-30.27,31.28-32.36s-10.79-2.61-41.12,23.75c-30.33,26.36-31.35,30.85-29.58,32.67h0Z"/><path class="uuid-5420853f-4843-434c-aead-428453da705c" d="m441.71,406.56c12.54-.01,17.04,10.85,17.04,10.85"/></g></g></g></svg>
</svg>