<?xml version="1.0" encoding="UTF-8"?>
<svg xmlns="http://www.w3.org/2000/svg" viewBox="0 0 600 600">
<svg id="uuid-b5df70f2-f26b-4cc4-9992-c02ca3e1ffe7" data-name="BACKGROUND" xmlns="http://www.w3.org/2000/svg" viewBox="0 0 600 600"><defs><style>
      .uuid-b49e1da8-89ab-4517-8063-4eac3fbcc068 {
        fill: #3ef1ff;
      }
    </style></defs><rect class="uuid-b49e1da8-89ab-4517-8063-4eac3fbcc068" x="-1" y="-1" width="602" height="602"/></svg>
<svg id="uuid-e741404e-82c4-4369-9e18-3b285ad0d639" data-name="BACKGROUND" xmlns="http://www.w3.org/2000/svg" viewBox="0 0 600 600"><defs><style>
      .uuid-d96a9218-ac41-4a59-a766-168518bf484e, .uuid-62df82db-f943-4e5d-8b33-ce66e667749b {
        fill: #fff;
      }

      .uuid-3fd29da4-aff1-4808-923d-0b32c79c7637, .uuid-62df82db-f943-4e5d-8b33-ce66e667749b, .uuid-72477d5d-f7d9-4d71-877e-01caf37e8bcd, .uuid-5bb669c8-5a3f-440c-aba4-3853114d1d43, .uuid-62880ae1-7573-4820-a7ac-833c4461f068, .uuid-364077b4-4770-4526-89f6-25dde6160d98, .uuid-1e9082da-51b1-4e46-b839-8455f209e0c9 {
        stroke: #000;
        stroke-width: 2px;
      }

      .uuid-3fd29da4-aff1-4808-923d-0b32c79c7637, .uuid-62df82db-f943-4e5d-8b33-ce66e667749b, .uuid-72477d5d-f7d9-4d71-877e-01caf37e8bcd, .uuid-364077b4-4770-4526-89f6-25dde6160d98 {
        stroke-miterlimit: 10;
      }

      .uuid-3fd29da4-aff1-4808-923d-0b32c79c7637, .uuid-72477d5d-f7d9-4d71-877e-01caf37e8bcd, .uuid-5bb669c8-5a3f-440c-aba4-3853114d1d43, .uuid-1e9082da-51b1-4e46-b839-8455f209e0c9 {
        fill: #00dfa9;
      }

      .uuid-62df82db-f943-4e5d-8b33-ce66e667749b, .uuid-72477d5d-f7d9-4d71-877e-01caf37e8bcd, .uuid-5bb669c8-5a3f-440c-aba4-3853114d1d43, .uuid-62880ae1-7573-4820-a7ac-833c4461f068, .uuid-364077b4-4770-4526-89f6-25dde6160d98 {
        stroke-linecap: round;
      }

      .uuid-5bb669c8-5a3f-440c-aba4-3853114d1d43, .uuid-62880ae1-7573-4820-a7ac-833c4461f068, .uuid-1e9082da-51b1-4e46-b839-8455f209e0c9 {
        stroke-linejoin: round;
      }

      .uuid-62880ae1-7573-4820-a7ac-833c4461f068 {
        fill: none;
      }

      .uuid-364077b4-4770-4526-89f6-25dde6160d98 {
        fill: #9dff0c;
      }
    </style></defs><path class="uuid-5bb669c8-5a3f-440c-aba4-3853114d1d43" d="m409.81,359.6c9.2,3.77,29.89,12.05,42.79,16.03,2.11.65,4.41.69,6.5-.04,11.79-4.08,28.47-11.39,33.03-11.32,5.25.08,7.8,3.93,19.88,2.04,13.36-2.1,22.43-11.99,20.93-23.3-4.21-43.28-25.18-26.79-25.18-26.79,0,0-5.84-8.75-18.76-4.82-11.83,3.6-10.2,14.44-6.47,22.47l-25.29,8.58c-2.14.72-4.45.71-6.59-.02l-35.7-12.61"/><path class="uuid-72477d5d-f7d9-4d71-877e-01caf37e8bcd" d="m533.36,312.82c2.5,3.94,1.62,9.14-1.57,12.4-2.47,2.53-5.88,3.88-9.32,4.4-2.8.43-5.7.42-8.49-.08-2.14-.39-4.29-1.1-5.79-2.75-1.66-1.83-2.27-4.46-1.98-6.87.51-4.17,3.84-7.14,7.22-9.26,3.17-1.98,6.86-3.26,10.64-3.09,3.8.18,7.36,2.19,9.3,5.24Z"/><path class="uuid-72477d5d-f7d9-4d71-877e-01caf37e8bcd" d="m538.57,349.84c.97,3.03.32,6.43-1.5,9.01-3.77,5.33-11.17,5.65-16.96,4.27-3.31-.79-6.69-2.21-8.67-5.13-3.13-4.61-.82-9.79,3.48-12.56,2.58-1.66,5.61-2.67,8.63-3.14,5.73-.89,13.1,1.51,15.03,7.56Z"/><path class="uuid-72477d5d-f7d9-4d71-877e-01caf37e8bcd" d="m538.71,328.53c1.8,2.99,2.06,6.89.22,9.9-1.95,3.2-4.94,5.25-8.49,6.28-3.66,1.07-7.64,1.27-11.4.44-2.25-.5-4.53-1.38-5.96-3.28-1.86-2.47-1.89-5.68-.85-8.49,1.2-3.24,4.17-5.69,7.09-7.37,6.15-3.56,15.21-4.43,19.39,2.52Z"/><path class="uuid-72477d5d-f7d9-4d71-877e-01caf37e8bcd" d="m501.85,311.68s9.27,3.84,7.77,12.02c-1.04,5.68-8.17,9.55-14.94,6.13"/><path class="uuid-62880ae1-7573-4820-a7ac-833c4461f068" d="m500.67,331.08c2.41,1.63,5.11,8.04,3.4,14.42"/><path d="m443.44,339.88c-2.88,10.58-6.94,20.23-11.17,28.59-10.17-3.78-21.16-9.53-27-11.93l11.83-26.02,26.35,9.36Z"/><ellipse cx="300" cy="518.65" rx="138.6" ry="22.93"/><path class="uuid-3fd29da4-aff1-4808-923d-0b32c79c7637" d="m319.36,427.14c-1.16,1.05-54.95,57-54.95,57,0,0,21.51-1.95,31.74,10.62,10.23,12.57,7.26,23.89,7.26,23.89h-66.9s-28.69-36.17-28.69-36.17c0,0,3.74-13.4,20.44-10.59,20.9-19.38,55.52-59.13,55.52-59.13l35.59,14.38Z"/><path d="m283.78,412.76l31.28,12.64-3.24,9.5c-2.93,3.03-9.76,10.12-13.64,14.14-11.92,0-27.98-2.13-41.33-6.37,13.95-15.1,26.93-29.92,26.93-29.92Z"/><path class="uuid-3fd29da4-aff1-4808-923d-0b32c79c7637" d="m354.45,173.54l-.11.27-174.2,58.29c-11.49,20.13-18.05,43.43-18.05,68.27,0,76.2,61.77,137.98,137.97,137.98s137.98-61.77,137.98-137.98c0-56.89-34.43-105.72-83.58-126.83Z"/><path class="uuid-62880ae1-7573-4820-a7ac-833c4461f068" d="m264.41,484.14c-4.06.49-11.49,1.36-17.85,7.23"/><path class="uuid-d96a9218-ac41-4a59-a766-168518bf484e" d="m185.17,308.14c-4.41,0-7.98-3.57-7.98-7.98,0-67.74,55.11-122.86,122.86-122.86,4.41,0,7.98,3.57,7.98,7.98s-3.57,7.98-7.98,7.98c-58.94,0-106.9,47.95-106.9,106.9,0,4.41-3.57,7.98-7.98,7.98Z"/><path d="m203.75,397.46l34.2-27.46-24.86,36.3c-6.73-5.1-3.66-2.61-9.34-8.83Z"/><path class="uuid-1e9082da-51b1-4e46-b839-8455f209e0c9" d="m323.72,387.31c19.14-13.4,39.15-11.3,55.52,7.36,19.6,22.35,30.57,33.06,30.57,33.06,0,0,10.74-19.34,34.77-17.5,18.26,1.4,24.84,14.43,24.84,14.43,0,0,6.21,8.82-22.45,33.5-28.66,24.68-54.93,40.92-61.14,29.46-6.21-11.46-2.82-32.1-2.82-32.1,0,0-22.02-26.09-27.94-32.01-6.79-6.79-15.71-1.36-15.71-1.36"/><path class="uuid-3fd29da4-aff1-4808-923d-0b32c79c7637" d="m446.97,458.17c-25.89,22.29-49.82,37.69-58.79,32.02-9.77-7.44,26.84-38.54,44.88-52.7,18.04-14.16,32.17-17.82,36.36-12.81,0,0,6.21,8.82-22.45,33.5Z"/><path class="uuid-62880ae1-7573-4820-a7ac-833c4461f068" d="m409.81,427.74c-1.89,2.86-4.55,10.38-4.55,10.38"/><ellipse class="uuid-62df82db-f943-4e5d-8b33-ce66e667749b" cx="269.41" cy="209.07" rx="94.9" ry="26.25" transform="translate(-52.5 96.54) rotate(-18.55)"/><ellipse class="uuid-364077b4-4770-4526-89f6-25dde6160d98" cx="269.41" cy="209.07" rx="71.19" ry="13.32" transform="translate(-52.5 96.54) rotate(-18.55)"/><g><path class="uuid-5bb669c8-5a3f-440c-aba4-3853114d1d43" d="m214.11,345.7c-8.05,5.83-25.34,20.79-35.52,29.67-1.67,1.45-2.82,3.41-3.39,5.55-3.14,11.67-8.55,33.44-8.55,33.44,0,0-8.42.58-12.19,14.35-3.64,13.3-6.64,25.06,3.77,29.75.35,7.47,7.51,15.45,19.2,9.41.14-.06,1.32,1.32,1.44,1.45,2.64,2.7,6.36,4.45,10.13,4.81,3.65.36,7.61-.67,10.43-3.08,3.29-2.81,5.4-6.94,6.05-11.2.4-2.61.26-5.31-.75-7.78,0,0,6.2-2.51,8.05-11.34,1.99-9.49-4.22-19.42-14.62-18.18l6.17-23.11c.51-2.2,1.74-4.16,3.49-5.59l29.38-24.3"/><path class="uuid-62880ae1-7573-4820-a7ac-833c4461f068" d="m204.73,452.06c-1.37-3.47-5.39-7.08-9-6.88"/><path class="uuid-62880ae1-7573-4820-a7ac-833c4461f068" d="m178.86,469.3c-5.16-5.27-3.82-11.97-2.9-13.54"/><path class="uuid-62880ae1-7573-4820-a7ac-833c4461f068" d="m158.22,458.45c-.27-5.22.73-7.32,3.06-9.83"/><path class="uuid-62880ae1-7573-4820-a7ac-833c4461f068" d="m193.93,450.63c.14-2.07.48-4.16,1.32-6.06.85-1.95,2.36-3.88,4.31-4.85"/></g></svg>
<svg id="uuid-d68fbb24-c0f3-4dee-920e-134d781fb2e1" data-name="BODY" xmlns="http://www.w3.org/2000/svg" viewBox="0 0 600 600"><path d="m378.79,259.75c-1.76-5.11-7.33-7.82-12.44-6.06s-7.82,7.33-6.06,12.44"/><circle cx="362.12" cy="293.18" r="9.78" transform="translate(-9.59 12.26) rotate(-1.91)"/><path d="m346.88,270.76c-1.76-5.11-7.33-7.82-12.44-6.06-5.11,1.76-7.82,7.33-6.06,12.44"/></svg>
<svg id="uuid-6e9dd1ff-b3ca-4115-b70a-c695fd74bfe5" data-name="BODY" xmlns="http://www.w3.org/2000/svg" xmlns:xlink="http://www.w3.org/1999/xlink" viewBox="0 0 600 600"><defs><style>
      .uuid-f4d84360-108f-4651-b29c-e25ea16c4cc5, .uuid-13f171bf-333f-4b11-a6dc-6143bf8925b3, .uuid-d07d115d-d797-4bee-a1bd-d5ba731908b9, .uuid-30faa963-5431-4aaa-a0c3-a21f063be235, .uuid-8f6f04d1-c4ff-42b5-9302-95ef19a8b3d9 {
        fill: none;
      }

      .uuid-046b5435-62e7-4259-a2e9-7621ff339dd6, .uuid-49569550-84bb-4c62-b631-432cfe149004 {
        fill: #7aa6ff;
      }

      .uuid-046b5435-62e7-4259-a2e9-7621ff339dd6, .uuid-49569550-84bb-4c62-b631-432cfe149004, .uuid-94178579-7323-403b-a4b5-65c0e1c44d9b, .uuid-3ff8e150-fa1e-4d89-b36b-9e4e320d5024, .uuid-ff1760e6-70c2-4dee-b03b-1ede1b1fa95d, .uuid-d07d115d-d797-4bee-a1bd-d5ba731908b9, .uuid-30faa963-5431-4aaa-a0c3-a21f063be235 {
        stroke: #000;
        stroke-linecap: round;
        stroke-linejoin: round;
      }

      .uuid-046b5435-62e7-4259-a2e9-7621ff339dd6, .uuid-94178579-7323-403b-a4b5-65c0e1c44d9b, .uuid-3ff8e150-fa1e-4d89-b36b-9e4e320d5024, .uuid-d07d115d-d797-4bee-a1bd-d5ba731908b9 {
        stroke-width: 2px;
      }

      .uuid-49569550-84bb-4c62-b631-432cfe149004, .uuid-ff1760e6-70c2-4dee-b03b-1ede1b1fa95d, .uuid-30faa963-5431-4aaa-a0c3-a21f063be235 {
        stroke-width: 2px;
      }

      .uuid-13f171bf-333f-4b11-a6dc-6143bf8925b3 {
        clip-path: url(#uuid-3738efd7-810a-4b28-8335-8dd0fda8e553);
      }

      .uuid-94178579-7323-403b-a4b5-65c0e1c44d9b {
        fill: #8400ff;
      }

      .uuid-a0b7f615-c241-44b2-b757-466d7641aaac {
        fill: #ffff0d;
      }

      .uuid-149af8d5-0486-4f84-b8a4-62e4288482b2 {
        fill: #9dff0c;
      }

      .uuid-3ff8e150-fa1e-4d89-b36b-9e4e320d5024, .uuid-ff1760e6-70c2-4dee-b03b-1ede1b1fa95d {
        fill: #a07bff;
      }

      .uuid-8f6f04d1-c4ff-42b5-9302-95ef19a8b3d9 {
        clip-path: url(#uuid-099eeb1f-0739-4ac1-83ad-929f888b681c);
      }
    </style><clipPath id="uuid-3738efd7-810a-4b28-8335-8dd0fda8e553"><path class="uuid-f4d84360-108f-4651-b29c-e25ea16c4cc5" d="m207.25,349.68l-27.2,23.05c-3,2.4-5.15,5.71-6.11,9.43l-8.11,31.33s-3.45.35-7.09,4.5c-4.67,5.32-6.81,15.97-8.5,24.91-7.91-5.05-83.16-13.79-94.21-32.95-18.6-32.26,3.76-59.6,13.02-69.49,14.76-15.78,60.44-14.3,60.44-14.3l77.76,23.52h0Zm31.03,20.24s-28.11,23.09-30,24.91-3.01,4.97-3.46,6.62c-.44,1.66-5.36,20.02-5.36,20.02,0,0,8.86.08,12.53,7.22,1.18,2.3,2.41,5.31,2.08,9.59-.61,7.88-5.16,12.41-8.09,14.28,1.01,3.73,1.21,7.91.72,10.37,10.48,26.86,110.78,41.49,110.78,41.49l17.62-75.26-41.68-12.52-12.32-27.69-42.81-19.04h0Z"/></clipPath><clipPath id="uuid-099eeb1f-0739-4ac1-83ad-929f888b681c"><rect class="uuid-f4d84360-108f-4651-b29c-e25ea16c4cc5" x="162.78" y="342.92" width="45.45" height="140.68" transform="translate(-265.82 452.02) rotate(-70.73)"/></clipPath></defs><g id="uuid-054dfee4-fcfb-460e-acd1-76ff23fbc272" data-name="uuid-4e189f2a-7fa9-4cd8-b02c-e65b53e2a61c"><g id="uuid-900a0d9f-eac9-4919-b449-79c80911ee38" data-name="uuid-78b9dc61-4d36-4cc0-a416-4b7f00985a31"><g id="uuid-651b4fc5-0c91-42b6-b968-6b2ab50c1b36" data-name="uuid-dfdf5e4b-abde-406c-b0a2-d80837955070"><g class="uuid-13f171bf-333f-4b11-a6dc-6143bf8925b3"><g><g><path class="uuid-3ff8e150-fa1e-4d89-b36b-9e4e320d5024" d="m201.39,393.83l-101.23-35.38c-5.99-2.1-20.02,2.77-24.41,6.76-1.61,1.46-8.33,11.08,2.22,19.37-1.8-2.48-2.4-5.76-1.32-8.87,1.76-5.03,7.27-7.69,12.3-5.93s7.69,7.27,5.93,12.3c-1.53,4.38-5.91,6.96-10.34,6.39,1.36.62,2.85,1.22,4.5,1.8l101.23,35.38c8.72,3.05,18.26-1.55,21.3-10.27l.08-.24c3.05-8.72-1.55-18.26-10.27-21.3h0Z"/><path class="uuid-3ff8e150-fa1e-4d89-b36b-9e4e320d5024" d="m83.54,390.61c8.24,2.6,14.95-6.68,11.95-5.89-1.8.47-3.75.44-5.64-.22-5.03-1.76-7.69-7.27-5.93-12.3.66-1.87,1.83-3.42,3.31-4.53,2.49-1.87-8.51-2.62-12.39,4.89-3.76,7.27-1.11,14.96,8.7,18.05h0Z"/><path class="uuid-046b5435-62e7-4259-a2e9-7621ff339dd6" d="m192.81,397.97l-101.23-35.38c-8.72-3.05-18.26,1.55-21.31,10.27l-.08.24c-3.05,8.72,1.55,18.26,10.27,21.3l101.23,35.38c8.72,3.05,18.26-1.55,21.3-10.27l.08-.24c3.05-8.72-1.55-18.26-10.27-21.3h0Zm-110.23-9.96c-5.03-1.76-7.69-7.27-5.93-12.3,1.76-5.03,7.27-7.69,12.3-5.93,5.03,1.76,7.69,7.27,5.93,12.3-1.76,5.03-7.27,7.69-12.3,5.93Z"/></g><path class="uuid-94178579-7323-403b-a4b5-65c0e1c44d9b" d="m261.31,462.21l-11.61,5.56-137.85-56.99,9.03-51.81,11.8-5.84c2.07-1,4.46-1.13,6.63-.37l137.02,47.89c4.52,1.58,6.91,6.53,5.33,11.05l-15.92,45.56c-.76,2.17-2.35,3.95-4.42,4.95h0Z"/><rect class="uuid-ff1760e6-70c2-4dee-b03b-1ede1b1fa95d" x="153.59" y="332.97" width="63.83" height="160.6" rx="5.71" ry="5.71" transform="translate(-265.82 452.02) rotate(-70.73)"/><path class="uuid-3ff8e150-fa1e-4d89-b36b-9e4e320d5024" d="m262.98,458.19l6.96-33.27,8.55-4.15,37.81,13.21c2.11.74,3.22,3.05,2.49,5.16l-9.23,26.41c-.35,1.01-1.1,1.85-2.06,2.31l-7.07,3.41-37.44-13.09h0Z"/><rect class="uuid-49569550-84bb-4c62-b631-432cfe149004" x="268.33" y="426.07" width="33.7" height="44.07" transform="translate(-231.92 569.46) rotate(-70.73)"/><rect x="300.26" y="441.53" width="4.45" height="5.17" rx="1.17" ry="1.17" transform="translate(-216.57 583.13) rotate(-70.73)"/><rect x="294.07" y="459.25" width="4.45" height="5.17" rx="1.17" ry="1.17" transform="translate(-237.44 589.16) rotate(-70.73)"/><line class="uuid-d07d115d-d797-4bee-a1bd-d5ba731908b9" x1="269.72" y1="410.7" x2="281.3" y2="405.12"/><line class="uuid-d07d115d-d797-4bee-a1bd-d5ba731908b9" x1="311.54" y1="439.46" x2="318.6" y2="436.06"/><line class="uuid-d07d115d-d797-4bee-a1bd-d5ba731908b9" x1="264.38" y1="440.83" x2="305.98" y2="455.37"/><g><rect class="uuid-149af8d5-0486-4f84-b8a4-62e4288482b2" x="162.78" y="342.92" width="45.45" height="140.68" transform="translate(-265.82 452.02) rotate(-70.73)"/><g class="uuid-8f6f04d1-c4ff-42b5-9302-95ef19a8b3d9"><g><polygon class="uuid-a0b7f615-c241-44b2-b757-466d7641aaac" points="123.47 432.94 247.27 373.27 301.23 392.13 177.24 451.89 123.47 432.94"/><polygon class="uuid-a0b7f615-c241-44b2-b757-466d7641aaac" points="190.83 456.49 314.63 396.82 337.79 404.91 213.8 464.67 190.83 456.49"/><polygon class="uuid-a0b7f615-c241-44b2-b757-466d7641aaac" points="77.6 416.91 201.4 357.24 210.87 360.56 86.88 420.33 77.6 416.91"/></g></g><rect class="uuid-30faa963-5431-4aaa-a0c3-a21f063be235" x="162.78" y="342.92" width="45.45" height="140.68" transform="translate(-265.82 452.02) rotate(-70.73)"/></g></g></g></g></g></g></svg>
</svg>