<?xml version="1.0" encoding="UTF-8"?>
<svg xmlns="http://www.w3.org/2000/svg" viewBox="0 0 600 600">
<svg id="uuid-47722c1a-ec94-491f-b9ae-69c2f5e8f75c" data-name="BACKGROUND" xmlns="http://www.w3.org/2000/svg" viewBox="0 0 600 600"><defs><style>
      .uuid-ab0c32c0-b20c-4bf1-888e-57f882ba1299 {
        fill: #ffc9f1;
      }
    </style></defs><rect class="uuid-ab0c32c0-b20c-4bf1-888e-57f882ba1299" x="-1" y="-1" width="602" height="602"/></svg>
<svg id="uuid-a31a6b4f-e655-4c0b-9290-a675a01244c8" data-name="BODY" xmlns="http://www.w3.org/2000/svg" viewBox="0 0 600 600"><defs><style>
      .uuid-02feae16-15ad-446f-b155-475dfe7ead0f {
        fill: #fff;
      }

      .uuid-8e8e02c1-3774-4aaf-92fb-f3ff81fe8f6d, .uuid-51f9bb77-a202-4295-8587-9b7fab6500b3, .uuid-862d3442-dd45-4bf0-ad6b-177f0e2ee560, .uuid-55d8d9bd-f0f4-492f-ac99-834eda67cd9d, .uuid-3065f46c-b1cc-4fe6-9bdc-7fd254c39b59 {
        stroke: #000;
        stroke-width: 2px;
      }

      .uuid-8e8e02c1-3774-4aaf-92fb-f3ff81fe8f6d, .uuid-862d3442-dd45-4bf0-ad6b-177f0e2ee560, .uuid-55d8d9bd-f0f4-492f-ac99-834eda67cd9d, .uuid-3065f46c-b1cc-4fe6-9bdc-7fd254c39b59 {
        fill: #f9a723;
      }

      .uuid-8e8e02c1-3774-4aaf-92fb-f3ff81fe8f6d, .uuid-55d8d9bd-f0f4-492f-ac99-834eda67cd9d {
        stroke-miterlimit: 10;
      }

      .uuid-51f9bb77-a202-4295-8587-9b7fab6500b3 {
        fill: none;
      }

      .uuid-51f9bb77-a202-4295-8587-9b7fab6500b3, .uuid-862d3442-dd45-4bf0-ad6b-177f0e2ee560, .uuid-55d8d9bd-f0f4-492f-ac99-834eda67cd9d {
        stroke-linecap: round;
      }

      .uuid-51f9bb77-a202-4295-8587-9b7fab6500b3, .uuid-862d3442-dd45-4bf0-ad6b-177f0e2ee560, .uuid-3065f46c-b1cc-4fe6-9bdc-7fd254c39b59 {
        stroke-linejoin: round;
      }
    </style></defs><ellipse cx="300" cy="518.65" rx="138.6" ry="22.93"/><g><path class="uuid-8e8e02c1-3774-4aaf-92fb-f3ff81fe8f6d" d="m319.36,427.14c-1.16,1.05-54.95,57-54.95,57,0,0,21.51-1.95,31.74,10.62,10.23,12.57,7.26,23.89,7.26,23.89h-66.9s-28.69-36.17-28.69-36.17c0,0,3.74-13.4,20.44-10.59,20.9-19.38,55.52-59.13,55.52-59.13l35.59,14.38Z"/><path d="m283.78,412.76l31.28,12.64-3.24,9.5c-2.93,3.03-9.76,10.12-13.64,14.14-11.92,0-27.98-2.13-41.33-6.37,13.95-15.1,26.93-29.92,26.93-29.92Z"/></g><g><path class="uuid-862d3442-dd45-4bf0-ad6b-177f0e2ee560" d="m409.81,359.6c9.2,3.77,29.89,12.05,42.79,16.03,2.11.65,4.41.69,6.5-.04,11.79-4.08,28.47-11.39,33.03-11.32,5.25.08,7.8,3.93,19.88,2.04,13.36-2.1,22.43-11.99,20.93-23.3-4.21-43.28-25.18-26.79-25.18-26.79,0,0-5.84-8.75-18.76-4.82-11.83,3.6-10.2,14.44-6.47,22.47l-25.29,8.58c-2.14.72-4.45.71-6.59-.02l-35.7-12.61"/><path class="uuid-55d8d9bd-f0f4-492f-ac99-834eda67cd9d" d="m533.36,312.82c2.5,3.94,1.62,9.14-1.57,12.4-2.47,2.53-5.88,3.88-9.32,4.4-2.8.43-5.7.42-8.49-.08-2.14-.39-4.29-1.1-5.79-2.75-1.66-1.83-2.27-4.46-1.98-6.87.51-4.17,3.84-7.14,7.22-9.26,3.17-1.98,6.86-3.26,10.64-3.09,3.8.18,7.36,2.19,9.3,5.24Z"/><path class="uuid-55d8d9bd-f0f4-492f-ac99-834eda67cd9d" d="m538.57,349.84c.97,3.03.32,6.43-1.5,9.01-3.77,5.33-11.17,5.65-16.96,4.27-3.31-.79-6.69-2.21-8.67-5.13-3.13-4.61-.82-9.79,3.48-12.56,2.58-1.66,5.61-2.67,8.63-3.14,5.73-.89,13.1,1.51,15.03,7.56Z"/><path class="uuid-55d8d9bd-f0f4-492f-ac99-834eda67cd9d" d="m538.71,328.53c1.8,2.99,2.06,6.89.22,9.9-1.95,3.2-4.94,5.25-8.49,6.28-3.66,1.07-7.64,1.27-11.4.44-2.25-.5-4.53-1.38-5.96-3.28-1.86-2.47-1.89-5.68-.85-8.49,1.2-3.24,4.17-5.69,7.09-7.37,6.15-3.56,15.21-4.43,19.39,2.52Z"/><path class="uuid-55d8d9bd-f0f4-492f-ac99-834eda67cd9d" d="m501.85,311.68s9.27,3.84,7.77,12.02c-1.04,5.68-8.17,9.55-14.94,6.13"/><path class="uuid-51f9bb77-a202-4295-8587-9b7fab6500b3" d="m500.67,331.08c2.41,1.63,5.11,8.04,3.4,14.42"/><path d="m443.44,339.88c-2.88,10.58-6.94,20.23-11.17,28.59-10.17-3.78-21.16-9.53-27-11.93l11.83-26.02,26.35,9.36Z"/></g><g><circle class="uuid-8e8e02c1-3774-4aaf-92fb-f3ff81fe8f6d" cx="300" cy="300" r="138.16"/><path class="uuid-02feae16-15ad-446f-b155-475dfe7ead0f" d="m184.58,308.17c-4.41,0-7.98-3.57-7.98-7.98,0-67.74,55.11-122.86,122.86-122.86,4.41,0,7.98,3.57,7.98,7.98s-3.57,7.98-7.98,7.98c-58.94,0-106.9,47.95-106.9,106.9,0,4.41-3.57,7.98-7.98,7.98Z"/></g><path class="uuid-51f9bb77-a202-4295-8587-9b7fab6500b3" d="m264.41,484.14c-4.06.49-11.49,1.36-17.85,7.23"/><path class="uuid-02feae16-15ad-446f-b155-475dfe7ead0f" d="m185.17,308.14c-4.41,0-7.98-3.57-7.98-7.98,0-67.74,55.11-122.86,122.86-122.86,4.41,0,7.98,3.57,7.98,7.98s-3.57,7.98-7.98,7.98c-58.94,0-106.9,47.95-106.9,106.9,0,4.41-3.57,7.98-7.98,7.98Z"/><path d="m203.75,397.46l34.2-27.46-24.86,36.3c-6.73-5.1-3.66-2.61-9.34-8.83Z"/><path class="uuid-3065f46c-b1cc-4fe6-9bdc-7fd254c39b59" d="m323.72,387.31c19.14-13.4,39.15-11.3,55.52,7.36,19.6,22.35,30.57,33.06,30.57,33.06,0,0,10.74-19.34,34.77-17.5,18.26,1.4,24.84,14.43,24.84,14.43,0,0,6.21,8.82-22.45,33.5-28.66,24.68-54.93,40.92-61.14,29.46-6.21-11.46-2.82-32.1-2.82-32.1,0,0-22.02-26.09-27.94-32.01-6.79-6.79-15.71-1.36-15.71-1.36"/><path class="uuid-8e8e02c1-3774-4aaf-92fb-f3ff81fe8f6d" d="m446.97,458.17c-25.89,22.29-49.82,37.69-58.79,32.02-9.77-7.44,26.84-38.54,44.88-52.7,18.04-14.16,32.17-17.82,36.36-12.81,0,0,6.21,8.82-22.45,33.5Z"/><path class="uuid-51f9bb77-a202-4295-8587-9b7fab6500b3" d="m409.81,427.74c-1.89,2.86-4.55,10.38-4.55,10.38"/><g><path class="uuid-862d3442-dd45-4bf0-ad6b-177f0e2ee560" d="m214.11,345.7c-8.05,5.83-25.34,20.79-35.52,29.67-1.67,1.45-2.82,3.41-3.39,5.55-3.14,11.67-8.55,33.44-8.55,33.44,0,0-8.42.58-12.19,14.35-3.64,13.3-6.64,25.06,3.77,29.75.35,7.47,7.51,15.45,19.2,9.41.14-.06,1.32,1.32,1.44,1.45,2.64,2.7,6.36,4.45,10.13,4.81,3.65.36,7.61-.67,10.43-3.08,3.29-2.81,5.4-6.94,6.05-11.2.4-2.61.26-5.31-.75-7.78,0,0,6.2-2.51,8.05-11.34,1.99-9.49-4.22-19.42-14.62-18.18l6.17-23.11c.51-2.2,1.74-4.16,3.49-5.59l29.38-24.3"/><path class="uuid-51f9bb77-a202-4295-8587-9b7fab6500b3" d="m204.73,452.06c-1.37-3.47-5.39-7.08-9-6.88"/><path class="uuid-51f9bb77-a202-4295-8587-9b7fab6500b3" d="m178.86,469.3c-5.16-5.27-3.82-11.97-2.9-13.54"/><path class="uuid-51f9bb77-a202-4295-8587-9b7fab6500b3" d="m158.22,458.45c-.27-5.22.73-7.32,3.06-9.83"/><path class="uuid-51f9bb77-a202-4295-8587-9b7fab6500b3" d="m193.93,450.63c.14-2.07.48-4.16,1.32-6.06.85-1.95,2.36-3.88,4.31-4.85"/></g></svg>
<svg id="uuid-ffac6761-6b9e-4a13-ab42-3dfadf65c420" data-name="BODY" xmlns="http://www.w3.org/2000/svg" viewBox="0 0 600 600"><circle cx="369.54" cy="262.94" r="9.78" transform="translate(-8.58 12.49) rotate(-1.91)"/><circle cx="362.12" cy="293.18" r="9.78" transform="translate(-9.59 12.26) rotate(-1.91)"/><circle cx="337.63" cy="273.96" r="9.78" transform="translate(-8.96 11.43) rotate(-1.91)"/></svg>
<svg id="uuid-f3db1eb6-4f97-4492-acd4-59277665a4db" data-name="BACKGROUND" xmlns="http://www.w3.org/2000/svg" viewBox="0 0 600 600"><defs><style>
      .uuid-137cf754-8ee9-43f1-a9ec-46d5467ffedf {
        stroke-linecap: round;
      }

      .uuid-137cf754-8ee9-43f1-a9ec-46d5467ffedf, .uuid-2ca244a5-3277-4142-b0d8-4f90aed69e5b, .uuid-6709d634-fb39-496e-8134-aaf453bc2ef6 {
        stroke: #000;
        stroke-width: 2px;
      }

      .uuid-137cf754-8ee9-43f1-a9ec-46d5467ffedf, .uuid-6709d634-fb39-496e-8134-aaf453bc2ef6 {
        fill: #fff7f0;
        stroke-linejoin: round;
      }

      .uuid-2ca244a5-3277-4142-b0d8-4f90aed69e5b {
        fill: none;
        stroke-miterlimit: 10;
      }
    </style></defs><g id="uuid-7a884093-fbd7-4212-8f65-d3cd505a74ba" data-name="plaster foot"><path class="uuid-6709d634-fb39-496e-8134-aaf453bc2ef6" d="m409.81,427.74s10.74-19.34,34.77-17.5c18.26,1.4,24.84,14.43,24.84,14.43,0,0,6.21,8.82-22.45,33.5-28.66,24.68-54.93,40.92-61.14,29.46-6.21-11.46-2.82-32.1-2.82-32.1"/><path class="uuid-2ca244a5-3277-4142-b0d8-4f90aed69e5b" d="m388.17,490.18c-9.77-7.44,26.84-38.54,44.88-52.7,18.04-14.16,32.17-17.82,36.36-12.81"/><path class="uuid-137cf754-8ee9-43f1-a9ec-46d5467ffedf" d="m416.78,450.89h0c5.91-5.12,11.7-9.81,16.28-13.41,3.06-2.4,6-4.49,8.8-6.3,0,0,0,0,0,0-5.14-5.62-15.52-9.19-27.65-9.19-23.41-.78-25.67,26.26-25.67,26.26,0,0,20.52-4.94,28.24,2.63Z"/><path class="uuid-137cf754-8ee9-43f1-a9ec-46d5467ffedf" d="m367.67,443.32s11.74,5.26,14.61,20.07c4.7-13.04,6.92-17.95,13.57-25.3,3.66-4.05,9.91-12.26,18.37-16.09-1.55-1.7-7.15-2.95-12.1-6.16-3.32-2.15-9.22-9.4-9.22-9.4.34-.54-7.1,3.85-15.83,16-5.28,7.35-9.39,20.89-9.39,20.89Z"/><path class="uuid-137cf754-8ee9-43f1-a9ec-46d5467ffedf" d="m347.59,424.78s9.65,11.74,20.09,18.54c2.35-4.71,7.74-16.1,12.26-22.19,4.52-6.09,8.61-11.22,12.96-14.7-6.96-11.39-17.22-18.09-17.22-18.09,0,0-7.65,12.92-13.22,20.05-5.57,7.13-14.87,16.39-14.87,16.39Z"/></g></svg>
<svg id="uuid-6e9dd1ff-b3ca-4115-b70a-c695fd74bfe5" data-name="BODY" xmlns="http://www.w3.org/2000/svg" xmlns:xlink="http://www.w3.org/1999/xlink" viewBox="0 0 600 600"><defs><style>
      .uuid-f4d84360-108f-4651-b29c-e25ea16c4cc5, .uuid-13f171bf-333f-4b11-a6dc-6143bf8925b3, .uuid-d07d115d-d797-4bee-a1bd-d5ba731908b9, .uuid-30faa963-5431-4aaa-a0c3-a21f063be235, .uuid-8f6f04d1-c4ff-42b5-9302-95ef19a8b3d9 {
        fill: none;
      }

      .uuid-046b5435-62e7-4259-a2e9-7621ff339dd6, .uuid-49569550-84bb-4c62-b631-432cfe149004 {
        fill: #7aa6ff;
      }

      .uuid-046b5435-62e7-4259-a2e9-7621ff339dd6, .uuid-49569550-84bb-4c62-b631-432cfe149004, .uuid-94178579-7323-403b-a4b5-65c0e1c44d9b, .uuid-3ff8e150-fa1e-4d89-b36b-9e4e320d5024, .uuid-ff1760e6-70c2-4dee-b03b-1ede1b1fa95d, .uuid-d07d115d-d797-4bee-a1bd-d5ba731908b9, .uuid-30faa963-5431-4aaa-a0c3-a21f063be235 {
        stroke: #000;
        stroke-linecap: round;
        stroke-linejoin: round;
      }

      .uuid-046b5435-62e7-4259-a2e9-7621ff339dd6, .uuid-94178579-7323-403b-a4b5-65c0e1c44d9b, .uuid-3ff8e150-fa1e-4d89-b36b-9e4e320d5024, .uuid-d07d115d-d797-4bee-a1bd-d5ba731908b9 {
        stroke-width: 2px;
      }

      .uuid-49569550-84bb-4c62-b631-432cfe149004, .uuid-ff1760e6-70c2-4dee-b03b-1ede1b1fa95d, .uuid-30faa963-5431-4aaa-a0c3-a21f063be235 {
        stroke-width: 2px;
      }

      .uuid-13f171bf-333f-4b11-a6dc-6143bf8925b3 {
        clip-path: url(#uuid-3738efd7-810a-4b28-8335-8dd0fda8e553);
      }

      .uuid-94178579-7323-403b-a4b5-65c0e1c44d9b {
        fill: #8400ff;
      }

      .uuid-a0b7f615-c241-44b2-b757-466d7641aaac {
        fill: #ffff0d;
      }

      .uuid-149af8d5-0486-4f84-b8a4-62e4288482b2 {
        fill: #9dff0c;
      }

      .uuid-3ff8e150-fa1e-4d89-b36b-9e4e320d5024, .uuid-ff1760e6-70c2-4dee-b03b-1ede1b1fa95d {
        fill: #a07bff;
      }

      .uuid-8f6f04d1-c4ff-42b5-9302-95ef19a8b3d9 {
        clip-path: url(#uuid-099eeb1f-0739-4ac1-83ad-929f888b681c);
      }
    </style><clipPath id="uuid-3738efd7-810a-4b28-8335-8dd0fda8e553"><path class="uuid-f4d84360-108f-4651-b29c-e25ea16c4cc5" d="m207.25,349.68l-27.2,23.05c-3,2.4-5.15,5.71-6.11,9.43l-8.11,31.33s-3.45.35-7.09,4.5c-4.67,5.32-6.81,15.97-8.5,24.91-7.91-5.05-83.16-13.79-94.21-32.95-18.6-32.26,3.76-59.6,13.02-69.49,14.76-15.78,60.44-14.3,60.44-14.3l77.76,23.52h0Zm31.03,20.24s-28.11,23.09-30,24.91-3.01,4.97-3.46,6.62c-.44,1.66-5.36,20.02-5.36,20.02,0,0,8.86.08,12.53,7.22,1.18,2.3,2.41,5.31,2.08,9.59-.61,7.88-5.16,12.41-8.09,14.28,1.01,3.73,1.21,7.91.72,10.37,10.48,26.86,110.78,41.49,110.78,41.49l17.62-75.26-41.68-12.52-12.32-27.69-42.81-19.04h0Z"/></clipPath><clipPath id="uuid-099eeb1f-0739-4ac1-83ad-929f888b681c"><rect class="uuid-f4d84360-108f-4651-b29c-e25ea16c4cc5" x="162.78" y="342.92" width="45.45" height="140.68" transform="translate(-265.82 452.02) rotate(-70.73)"/></clipPath></defs><g id="uuid-054dfee4-fcfb-460e-acd1-76ff23fbc272" data-name="uuid-4e189f2a-7fa9-4cd8-b02c-e65b53e2a61c"><g id="uuid-900a0d9f-eac9-4919-b449-79c80911ee38" data-name="uuid-78b9dc61-4d36-4cc0-a416-4b7f00985a31"><g id="uuid-651b4fc5-0c91-42b6-b968-6b2ab50c1b36" data-name="uuid-dfdf5e4b-abde-406c-b0a2-d80837955070"><g class="uuid-13f171bf-333f-4b11-a6dc-6143bf8925b3"><g><g><path class="uuid-3ff8e150-fa1e-4d89-b36b-9e4e320d5024" d="m201.39,393.83l-101.23-35.38c-5.99-2.1-20.02,2.77-24.41,6.76-1.61,1.46-8.33,11.08,2.22,19.37-1.8-2.48-2.4-5.76-1.32-8.87,1.76-5.03,7.27-7.69,12.3-5.93s7.69,7.27,5.93,12.3c-1.53,4.38-5.91,6.96-10.34,6.39,1.36.62,2.85,1.22,4.5,1.8l101.23,35.38c8.72,3.05,18.26-1.55,21.3-10.27l.08-.24c3.05-8.72-1.55-18.26-10.27-21.3h0Z"/><path class="uuid-3ff8e150-fa1e-4d89-b36b-9e4e320d5024" d="m83.54,390.61c8.24,2.6,14.95-6.68,11.95-5.89-1.8.47-3.75.44-5.64-.22-5.03-1.76-7.69-7.27-5.93-12.3.66-1.87,1.83-3.42,3.31-4.53,2.49-1.87-8.51-2.62-12.39,4.89-3.76,7.27-1.11,14.96,8.7,18.05h0Z"/><path class="uuid-046b5435-62e7-4259-a2e9-7621ff339dd6" d="m192.81,397.97l-101.23-35.38c-8.72-3.05-18.26,1.55-21.31,10.27l-.08.24c-3.05,8.72,1.55,18.26,10.27,21.3l101.23,35.38c8.72,3.05,18.26-1.55,21.3-10.27l.08-.24c3.05-8.72-1.55-18.26-10.27-21.3h0Zm-110.23-9.96c-5.03-1.76-7.69-7.27-5.93-12.3,1.76-5.03,7.27-7.69,12.3-5.93,5.03,1.76,7.69,7.27,5.93,12.3-1.76,5.03-7.27,7.69-12.3,5.93Z"/></g><path class="uuid-94178579-7323-403b-a4b5-65c0e1c44d9b" d="m261.31,462.21l-11.61,5.56-137.85-56.99,9.03-51.81,11.8-5.84c2.07-1,4.46-1.13,6.63-.37l137.02,47.89c4.52,1.58,6.91,6.53,5.33,11.05l-15.92,45.56c-.76,2.17-2.35,3.95-4.42,4.95h0Z"/><rect class="uuid-ff1760e6-70c2-4dee-b03b-1ede1b1fa95d" x="153.59" y="332.97" width="63.83" height="160.6" rx="5.71" ry="5.71" transform="translate(-265.82 452.02) rotate(-70.73)"/><path class="uuid-3ff8e150-fa1e-4d89-b36b-9e4e320d5024" d="m262.98,458.19l6.96-33.27,8.55-4.15,37.81,13.21c2.11.74,3.22,3.05,2.49,5.16l-9.23,26.41c-.35,1.01-1.1,1.85-2.06,2.31l-7.07,3.41-37.44-13.09h0Z"/><rect class="uuid-49569550-84bb-4c62-b631-432cfe149004" x="268.33" y="426.07" width="33.7" height="44.07" transform="translate(-231.92 569.46) rotate(-70.73)"/><rect x="300.26" y="441.53" width="4.45" height="5.17" rx="1.17" ry="1.17" transform="translate(-216.57 583.13) rotate(-70.73)"/><rect x="294.07" y="459.25" width="4.45" height="5.17" rx="1.17" ry="1.17" transform="translate(-237.44 589.16) rotate(-70.73)"/><line class="uuid-d07d115d-d797-4bee-a1bd-d5ba731908b9" x1="269.72" y1="410.7" x2="281.3" y2="405.12"/><line class="uuid-d07d115d-d797-4bee-a1bd-d5ba731908b9" x1="311.54" y1="439.46" x2="318.6" y2="436.06"/><line class="uuid-d07d115d-d797-4bee-a1bd-d5ba731908b9" x1="264.38" y1="440.83" x2="305.98" y2="455.37"/><g><rect class="uuid-149af8d5-0486-4f84-b8a4-62e4288482b2" x="162.78" y="342.92" width="45.45" height="140.68" transform="translate(-265.82 452.02) rotate(-70.73)"/><g class="uuid-8f6f04d1-c4ff-42b5-9302-95ef19a8b3d9"><g><polygon class="uuid-a0b7f615-c241-44b2-b757-466d7641aaac" points="123.47 432.94 247.27 373.27 301.23 392.13 177.24 451.89 123.47 432.94"/><polygon class="uuid-a0b7f615-c241-44b2-b757-466d7641aaac" points="190.83 456.49 314.63 396.82 337.79 404.91 213.8 464.67 190.83 456.49"/><polygon class="uuid-a0b7f615-c241-44b2-b757-466d7641aaac" points="77.6 416.91 201.4 357.24 210.87 360.56 86.88 420.33 77.6 416.91"/></g></g><rect class="uuid-30faa963-5431-4aaa-a0c3-a21f063be235" x="162.78" y="342.92" width="45.45" height="140.68" transform="translate(-265.82 452.02) rotate(-70.73)"/></g></g></g></g></g></g></svg>
<svg id="uuid-a434a263-1d52-419b-9f08-c2e050f7b089" data-name="BODY" xmlns="http://www.w3.org/2000/svg" viewBox="0 0 600 600"><defs><style>
      .uuid-3fe757a2-f884-4021-8b90-a2fb836a0d83 {
        fill: #7aa6ff;
      }

      .uuid-3fe757a2-f884-4021-8b90-a2fb836a0d83, .uuid-0535e5fd-e169-42bb-9b3a-04ea61531b11, .uuid-b5b40eee-3492-4a40-8cdf-74f0932ec0ba, .uuid-813fd1ba-5c6f-412d-b3d0-bab0da44157c {
        stroke: #000;
        stroke-linecap: round;
        stroke-linejoin: round;
        stroke-width: 2px;
      }

      .uuid-0535e5fd-e169-42bb-9b3a-04ea61531b11 {
        fill: #ffc9f1;
      }

      .uuid-b5b40eee-3492-4a40-8cdf-74f0932ec0ba {
        fill: none;
      }

      .uuid-813fd1ba-5c6f-412d-b3d0-bab0da44157c {
        fill: #f9a723;
      }
    </style></defs><g id="uuid-4d71603c-b588-4e7e-bdcb-85f6e7a816db" data-name="uuid-e739bccc-2d2c-4a63-b977-7b31664c2716"><g id="uuid-63e5130d-7ae7-4f0d-8331-573e75af8b15" data-name="uuid-af806a75-da6f-4a25-9368-44a11c35c8fd"><g><path class="uuid-3fe757a2-f884-4021-8b90-a2fb836a0d83" d="m494.29,225.3c-2.32-.72-4.21,6.13-13.6,5.3-9.38-.83-9.83-5.81-9.83-5.81,0,0-5.94-3.89-2.62-11.49-1.79-7.91,2.19-10.35,3.32-20.49.45-4.02-4.6-11.68-14.43-22.02s-36.38-40.72-39.7-44.94c.77-3.06,2.78-5.7,2.78-5.7l8.76,8.43-9.24-20.82s2.25-3.06,4.07-3.83c2.68,6.03,18.96,38.92,18.96,38.92l-9.94-38.92,5.94-2.65,2.23,7.34,3.89-1.15-.51-2.68,5.23-2.62-.57-6.13s4.4-3.13,6.83-3.83c-.19,3.26,1.72,14.36,1.72,14.36,0,0,1.34-14.68,1.85-17.62,2.04-.89,7.02-.32,7.02-.32l-1.34,6.77,6.51,1.66-.67-10.88,8.36-.32s1.44,31.05,5.01,44.71c-1.66-19.53-.51-49.28-.51-49.28l9.26,1.53s-.45,6.89-.32,13.28c2.3-.13,5.68-.57,5.68-.57,0,0,.89,9.83,1.28,13.91,1.79-9.7,4.09-16.28,4.09-16.28l7.02,2.62s3.26-8.36,6.89-12.32c2.43,1.91,5.23,4.15,5.23,4.15,0,0-3.19,5.81-4.53,9,2.36,1.02,5.43,2.87,5.43,2.87,0,0,1.28-2.65,2.78-4.12,1.85,1.05,4.15,3.19,4.15,3.19,0,0-5.33,11.39-8.78,23.55,8.04-17.14,17.14-25.66,17.14-25.66l4.6,4.31s-11.87,11.2-22.98,39.35c-11.11,28.15-13.24,43.12-13.63,46.44s8.68,7.79,7.66,17.62c6.45,6.7-.19,13.34-.19,13.34,0,0-2.68,13.28-20.3,7.79h0Z"/><g><path class="uuid-b5b40eee-3492-4a40-8cdf-74f0932ec0ba" d="m482.13,224.79c4.71-1.23,10.45-8.61,9.8-7.79-1.18,1.48,6,2.6,12.21,2.29"/><path class="uuid-b5b40eee-3492-4a40-8cdf-74f0932ec0ba" d="m477.18,211.73s4.95,6.82,15.21,5.21c8.12-1.27,10.2-9,10.2-9"/><path class="uuid-b5b40eee-3492-4a40-8cdf-74f0932ec0ba" d="m508.23,211.03s-9.22,7.59-15.6,7.24-4.79.13-4.79.13c0,0-5.33,2.44-10.27,1.43"/></g><path class="uuid-813fd1ba-5c6f-412d-b3d0-bab0da44157c" d="m485.92,216.91s2.23,6.29,2.49,12.99-.51,23.59,5.14,41.68c5.65,18.1,6,39.32,6,39.32,0,0,4.59,1.38,8.25,4.84,2.54-3.11,5.38-4.92,5.38-4.92,0,0,.25-16.84-4.6-25.52-4.85-8.68-8.23-33.54-8.14-47.43s-.29-17.01-2.49-22.72c-1.28.61-3.86,1.63-6.03,1.85-3.89.4-6-.1-6-.1h0Z"/><path class="uuid-813fd1ba-5c6f-412d-b3d0-bab0da44157c" d="m508.18,326.79s2.21,2.33,6.18,3.14c-5.99,8.88-1.02,12.88,2.29,14.51-6.85,3.78-9.87,14.07,3.82,18.76,3.11,10.72.18,14.84,4.65,27.8s7.15,12.83,8.55,22.34,3.26,18.83,3.64,21.19.96,9.77-8.55,9.77-10.79-4.66-11.3-7.21-.32-17.94-1.6-26.04c-1.28-8.11-4.18-11.04-6.94-25.47-2.76-14.43-1.74-19.28-3.4-27.38s-1.25-18.81-4.85-27.12c5.47-.35,7.52-4.29,7.52-4.29h0Z"/><path class="uuid-b5b40eee-3492-4a40-8cdf-74f0932ec0ba" d="m537.47,435.69c-.61-3.66-4.22-2.37-6.86-.77-6.94,4.21-13.43,2.37-11.31,6.28"/><path class="uuid-b5b40eee-3492-4a40-8cdf-74f0932ec0ba" d="m523.85,443.76c5.23.94,9.61-3.48,9.39-4.75s-6.34,1.51-6.34,1.51"/><path class="uuid-b5b40eee-3492-4a40-8cdf-74f0932ec0ba" d="m531.13,434.62s-2.88-21.15-3.78-25.42c-.89-4.28-6.7-18-6.7-18"/><path class="uuid-b5b40eee-3492-4a40-8cdf-74f0932ec0ba" d="m518.73,385.19c-2.87-10.4-3.06-23.58-3.06-23.58"/><path class="uuid-b5b40eee-3492-4a40-8cdf-74f0932ec0ba" d="m523.85,437.62c-.33-14.06-2.69-29.95-2.69-29.95"/><path class="uuid-b5b40eee-3492-4a40-8cdf-74f0932ec0ba" d="m519.5,400.96c-2.81-8.43-4.98-10.15-7.02-21.83-2.04-11.68-2.23-23.36-2.94-30.83-.7-7.47-2.67-19.17-2.67-19.17"/><path class="uuid-b5b40eee-3492-4a40-8cdf-74f0932ec0ba" d="m503.75,312.45c.33-14.07-4.11-34.08-4.11-34.08"/><path class="uuid-b5b40eee-3492-4a40-8cdf-74f0932ec0ba" d="m505.65,277.64c1.3,12.7,3.81,35.61,3.81,35.61"/><path class="uuid-b5b40eee-3492-4a40-8cdf-74f0932ec0ba" d="m498.15,271c-2.01-9.86-3.73-13.12-4.12-21.26-.35-7.43.56-20.8-2.41-32.72"/><g><path class="uuid-b5b40eee-3492-4a40-8cdf-74f0932ec0ba" d="m440.99,108.62c3.34,13.07,11.99,43.41,16.25,53.29"/><path class="uuid-b5b40eee-3492-4a40-8cdf-74f0932ec0ba" d="m428.97,128.58c4.73,11.1,9.01,19.81,12.02,24.4"/><path class="uuid-b5b40eee-3492-4a40-8cdf-74f0932ec0ba" d="m442.76,142.85c4.42,7.61,13.36,18.27,18.74,24.15,5.39,5.88,15.92,18.49,16.9,21.43.98,2.94-2.94,8.2-2.2,15.67"/><path class="uuid-b5b40eee-3492-4a40-8cdf-74f0932ec0ba" d="m482.93,200.18c-1.96-4.29-.24-15.06-.61-16.53s-19.49-42.63-24.74-77.07"/><path class="uuid-b5b40eee-3492-4a40-8cdf-74f0932ec0ba" d="m465.12,95.41c-2.1,8.11,2.94,28.41,9.31,50.93,6.37,22.52,11.5,38.08,11.5,38.08"/><path class="uuid-b5b40eee-3492-4a40-8cdf-74f0932ec0ba" d="m484.33,130.58c.91,18.43,5.52,49.55,7.29,53.84,1.77,4.3,3.4,2.67,4.44,11.71"/><path class="uuid-b5b40eee-3492-4a40-8cdf-74f0932ec0ba" d="m503.61,201.61c.44-9.78-5.78-15.41-6.52-19.56s-4.68-64.61-4.34-85.94"/><path class="uuid-b5b40eee-3492-4a40-8cdf-74f0932ec0ba" d="m499.71,109.45c-3.36,15.55-5.34,33.4-5.34,33.4"/><path class="uuid-b5b40eee-3492-4a40-8cdf-74f0932ec0ba" d="m510.82,95.79c-6.76,15.29-8.98,41.66-8.54,51.88s-2.57,34.97-2.57,34.97"/><path class="uuid-b5b40eee-3492-4a40-8cdf-74f0932ec0ba" d="m521.99,122.12c-13.19,30.3-19.71,60.52-19.71,60.52"/><path class="uuid-b5b40eee-3492-4a40-8cdf-74f0932ec0ba" d="m523.84,99.49c-9.56,16.47-14.45,41.29-14.45,41.29"/><path class="uuid-b5b40eee-3492-4a40-8cdf-74f0932ec0ba" d="m518.41,96.62c-10.8,24.68-8.44,56.1-12.06,70.04"/><path class="uuid-b5b40eee-3492-4a40-8cdf-74f0932ec0ba" d="m471.63,97.07c1.07,20.23,4.06,54.19,7.75,66.29"/><path class="uuid-b5b40eee-3492-4a40-8cdf-74f0932ec0ba" d="m449.61,102.17c3.9,28.91,18.97,72.4,25.67,81.36"/><path class="uuid-b5b40eee-3492-4a40-8cdf-74f0932ec0ba" d="m444.88,107.47c4.22,17.93,18.31,61.4,18.31,61.4"/><path class="uuid-b5b40eee-3492-4a40-8cdf-74f0932ec0ba" d="m514.58,217.51c-2.72,2.32-5.81,1.7-5.81,1.7"/><path class="uuid-b5b40eee-3492-4a40-8cdf-74f0932ec0ba" d="m470.86,224.79c3.39,2.38,8.02,1.15,8.02,1.15"/><path class="uuid-b5b40eee-3492-4a40-8cdf-74f0932ec0ba" d="m468.24,213.3c.83,3.06,4.92,5.1,4.92,5.1"/><path class="uuid-b5b40eee-3492-4a40-8cdf-74f0932ec0ba" d="m514.78,204.17c-.72,1.71-2.33,3.46-2.33,3.46"/></g><path class="uuid-0535e5fd-e169-42bb-9b3a-04ea61531b11" d="m470.71,197.7s-3.87.25-4.06-4.68c-.19-4.93,2.75-10.33,21.6-12.32,18.86-1.99,23.81,2.18,24.26,5.31.44,3.13-1.69,6.44-1.69,6.44,0,0-3.14-3.27-3.61-5.05-22.88-2.09-32.37,2.81-35.64,5.41,0,0-.25,2.65-.86,4.89h0Z"/></g></g></g></svg>
<svg id="uuid-706c66c1-904f-4e6b-ae5a-7d28757b7aa5" data-name="BODY" xmlns="http://www.w3.org/2000/svg" viewBox="0 0 600 600"><defs><style>
      .uuid-e783e61a-5a56-4ab2-963f-7f791da5a080 {
        fill: #9dff0c;
      }

      .uuid-e783e61a-5a56-4ab2-963f-7f791da5a080, .uuid-b57c3a7e-405d-471e-9dd4-85222df50f42, .uuid-4fb7418d-b5b6-44db-ba8f-3c1ee6a0dc8d {
        stroke: #000;
        stroke-linecap: round;
        stroke-linejoin: round;
        stroke-width: 2px;
      }

      .uuid-b57c3a7e-405d-471e-9dd4-85222df50f42 {
        fill: #fff;
      }

      .uuid-4fb7418d-b5b6-44db-ba8f-3c1ee6a0dc8d {
        fill: #ffc9f1;
      }
    </style></defs><path class="uuid-b57c3a7e-405d-471e-9dd4-85222df50f42" d="m249.92,302.6c-2.79-7.57-11.8-24.95-11.8-24.95.17-.46-9.01,17.39-11.8,24.95-.48,1.31-1.21,3.5-1.21,5.45,0,7.18,5.82,13,13,13s13-5.82,13-13c0-1.95-.73-4.14-1.21-5.45Z"/><path class="uuid-e783e61a-5a56-4ab2-963f-7f791da5a080" d="m307.79,206.07c-14.43-.53-29.74-6.92-45.11-23-32.46-33.95-60.76-18.26-60.76-18.26,0,0,33.11-51.48,92.55-40.34-3.72-12.38-16.1-12.38-16.1-12.38,0,0,17.85-5.8,40.87,4.95,18.42,8.61,35.21,30.63,33.17,65.88"/><path class="uuid-4fb7418d-b5b6-44db-ba8f-3c1ee6a0dc8d" d="m426.99,245.51s-7.43-22.29-78.02-16.1c-110.34,9.68-169.26,60.88-181.12,90.66-1.68,4.22-2.11,8.84-1.47,13.34l.54,3.75s-5.57-5.57-9.29-19.2c-3.72-13.62-3.8-25.68-3.15-34.26,2.53-33.24,57.22-90.25,178.39-101.35,70.59-2.48,76.54,15.26,81.12,21.67,9.29,13,19.2,34.33,13,41.49Z"/><path class="uuid-b57c3a7e-405d-471e-9dd4-85222df50f42" d="m410.49,187.32c-.48,1.1.48,2.29,1.66,2.05,7.86-1.61,30.35-7.13,35.66-18.39,6.29-13.36-23.33-15.3-37.31,16.35Z"/><path class="uuid-b57c3a7e-405d-471e-9dd4-85222df50f42" d="m396.67,179.32c.95.7,2.32.23,2.62-.91,1.48-5.54,4.61-19.7-.85-23.75-6.57-4.87-16.89,13.5-1.77,24.66Z"/></svg>
</svg>