<?xml version="1.0" encoding="UTF-8"?>
<svg id="uuid-4f567c22-ce40-4a1d-8ea7-c632769deb62" data-name="COCOBAY" xmlns="http://www.w3.org/2000/svg" viewBox="0 0 600 600">
  <defs>
    <style>
      .uuid-a5fc841a-ff7e-4ff4-b770-368bab427e56 {
        fill: #f9a723;
      }

      .uuid-a5fc841a-ff7e-4ff4-b770-368bab427e56, .uuid-ff71ed49-bfda-4db7-ae88-2c92aaee1417, .uuid-a1d9bc85-5a13-4fb7-b59a-da9b4a60ee3a {
        stroke: #000;
        stroke-linecap: round;
        stroke-linejoin: round;
        stroke-width: 2px;
      }

      .uuid-ff71ed49-bfda-4db7-ae88-2c92aaee1417 {
        fill: none;
      }

      .uuid-a1d9bc85-5a13-4fb7-b59a-da9b4a60ee3a {
        fill: #ffff0d;
      }
    </style>
  </defs>
  <g id="uuid-0c0f6844-9252-4e38-b2ae-1fb7558b546c" data-name="OBJECT RIGHT">
    <g id="uuid-eba7662b-ff04-44ba-9d9b-c9fb86b595ea" data-name="Capa 48">
      <g id="uuid-e873324e-4a24-4e75-a94d-0c9fb771f1dc" data-name="Capa 50">
        <g>
          <path class="uuid-a5fc841a-ff7e-4ff4-b770-368bab427e56" d="M138.5125,388.1516c-3.2158-11.0444-6.4321-23.5073-23.0488-29.1357-16.6172-5.6279-31.0898,3.2163-34.9756,18.895-3.8862,15.6787-4.0205,41.1025,8.04,58.1401s23.1831,16.9526,32.2959,14.583c9.1123-2.3696,17.0186-17.9595,17.0186-17.9595l10.0503-24.3442s-6.1641-9.1343-9.3804-20.1787Zm-16.6167,1.2842c-.6699,7.2363-10.0132,18.8945-10.8359,26.667s6.4136,17.6636,6.5479,19.9541c.1338,2.291-.4019,3.667-.4019,3.667,0,0-15.4111,.0981-19.9673-13.4365s3.082-25.8633,3.082-25.8633c0,0-6.2983-24.6572-.1338-32.2954,14.6069-1.7422,22.3789,14.0708,21.709,21.3071Z"/>
          <path class="uuid-a1d9bc85-5a13-4fb7-b59a-da9b4a60ee3a" d="M138.5125,388.1516c-3.2158-11.0444-6.4321-23.5073-23.0488-29.1357-10.3794-3.5151-19.9219-1.3838-26.5703,4.5322,6.6558-4.2285,20.8086-4.1294,30.4565,5.1162,9.6484,9.2466,13.1323,18.3594,9.9165,31.7598-3.2163,13.4004-8.0947,14.3389-7.3306,22.2451s4.6504,13.1328,3.98,17.689c-.6479,4.4087-2.5659,9.46-9.124,11.106,1.3823-.2021,2.7285-.4912,4.0322-.8301,9.1123-2.3696,17.0186-17.9595,17.0186-17.9595l10.0503-24.3442s-6.1641-9.1343-9.3804-20.1787Z"/>
          <path class="uuid-a1d9bc85-5a13-4fb7-b59a-da9b4a60ee3a" d="M117.2059,439.7239c-.0063,0-15.4121,.0957-19.9673-13.4365-4.5562-13.5347,3.082-25.8633,3.082-25.8633,0,0-6.2983-24.6572-.1338-32.2954h0c-7.5044,.5356-15.1426,9.2466-9.1123,34.7075-5.7622,12.9985-2.2783,29.5527,8.4424,36.8877,10.7202,7.3345,17.2866,3.6665,17.689,0Z"/>
          <path class="uuid-a1d9bc85-5a13-4fb7-b59a-da9b4a60ee3a" d="M153.8803,408.6668s.2115,4.5385,0,5.648-3.9432,5.0428-5.5569,8.3711-1.6137,8.1694-1.8154,9.4805-3.9334,4.0375-7.4634,3.8846-7.0599-6.9103-1.3111-20.2233,16.2408-12.4053,16.1468-7.1608Z"/>
          <path class="uuid-a1d9bc85-5a13-4fb7-b59a-da9b4a60ee3a" d="M158.9329,419.2945c1.8973-2.017,0-6.5358-2.9444-7.0978-1.7722-.3383-4.942-.5043-9.2788,8.1694s-2.0048,13.3789-1.0086,14.6242c1.6137,2.0171,6.8276,1.1092,7.681-2.3155,.5486-2.2015,.928-3.8325,2.3723-7.8185s3.1784-5.5618,3.1784-5.5618Z"/>
          <path class="uuid-a1d9bc85-5a13-4fb7-b59a-da9b4a60ee3a" d="M153.3822,432.6748s1.4351-8.1987,5.5507-13.3802l-4.1546-2.2567s-1.4796,.9077-3.7151,6.0514-2.2355,7.3625-2.2355,7.3625l4.5545,2.223Z"/>
          <path class="uuid-a1d9bc85-5a13-4fb7-b59a-da9b4a60ee3a" d="M193.9343,450.6341c.1948-6.0378,3.408-9.8436,5.622-10.9104,0,0,12.4224,.3252,17.3411-.51s6.7747,5.197,1.8561,15.3127-7.5172,12.7725-10.3941,10.9165c-3.3205-2.1422-2.4936-6.1724-14.425-14.8087Z"/>
          <path class="uuid-a1d9bc85-5a13-4fb7-b59a-da9b4a60ee3a" d="M224.5222,458.1847c-5.3832,11.3679-14.6908,6.6891-9.4135-4.5299s15.2613-7.819,9.4135,4.5299Z"/>
          <g>
            <path class="uuid-a1d9bc85-5a13-4fb7-b59a-da9b4a60ee3a" d="M232.4488,463.7388v7.701s15.2064,8.4447,17.8588,10.2787c3.5058,2.424,1.9438,7.6946,1.9438,7.6946l-10.6551-5.2706-6.5866,2.4628-1.3811,16.0415,23.2232,12.9607,5.2479-3.0808,.7436-7.4199s7.3302,2.5331,8.0739,5.8264-.7436,10.9422-.7436,10.9422l25.1778,12.8545,5.7367-2.4434,4.0369-17.3164s-13.3857-5.9492-14.9792-7.6489-1.5935-6.4804-1.5935-6.4804c0,0,2.1247-.7436,5.6305,1.0624s14.0231,6.5866,14.0231,6.5866l7.5698-2.1825,.929-4.0854-84.2559-38.4831Z"/>
            <g>
              <path class="uuid-a5fc841a-ff7e-4ff4-b770-368bab427e56" d="M256.8519,515.6077l5.248-3.0811,.7437-7.4199c-4.1562-1.5635-4.9946-1.23-5.9917,10.501Z"/>
              <polygon class="uuid-a5fc841a-ff7e-4ff4-b770-368bab427e56" points="308.2059 508.49 315.7757 506.3074 316.7049 502.2219 310.0604 499.1872 308.2059 508.49"/>
              <path class="uuid-a5fc841a-ff7e-4ff4-b770-368bab427e56" d="M301.0882,532.2864l4.0366-17.3164s-13.3853-5.9492-14.979-7.6489c-1.5933-1.6997-1.5933-6.48-1.5933-6.48-5.3564,.0361-5.9751,6.9512-3.1426,9.6284,2.833,2.6777,13.5034,7.4263,13.5034,7.4263l-3.562,16.834,5.7368-2.4434Z"/>
              <path class="uuid-a5fc841a-ff7e-4ff4-b770-368bab427e56" d="M252.2513,489.4133l-10.6548-5.271-6.5869,2.4629s8.3989,3.9072,11.5532,5.7012,5.396-1.2534,5.6885-2.8931Z"/>
            </g>
          </g>
          <g>
            <path class="uuid-a1d9bc85-5a13-4fb7-b59a-da9b4a60ee3a" d="M218.2465,460.5496l106.401,49.92s4.2417,.6573,6.3811-3.7641-.304-6.7516-.304-6.7516l-107.4862-49.3199s-4.944,2.5187-4.992,9.9155Z"/>
            <path class="uuid-ff71ed49-bfda-4db7-ae88-2c92aaee1417" d="M330.7247,499.954c-3.938-1.8069-9.5813,8.5853-6.0772,10.5157"/>
          </g>
        </g>
      </g>
    </g>
  </g>
</svg>