<?xml version="1.0" encoding="UTF-8"?>
<svg id="uuid-f4178599-7b5f-45cc-b87f-f9014f3af15c" data-name="COCOBAY" xmlns="http://www.w3.org/2000/svg" xmlns:xlink="http://www.w3.org/1999/xlink" viewBox="0 0 600 600">
  <defs>
    <style>
      .uuid-c7761aec-79d7-4674-9087-5966e340b2a2 {
        fill: #ffc9f1;
      }

      .uuid-c7761aec-79d7-4674-9087-5966e340b2a2, .uuid-0a072e3c-d6f2-470a-9770-22a4106b6fcd, .uuid-3f358d21-11fb-4cca-b5d7-692a8d71ddc5, .uuid-207bfc53-0038-4e32-823f-54b11035ad0b, .uuid-c03cd960-b1a5-4734-8b74-0537318c36de, .uuid-dab84833-00d6-4ac5-b871-bf722894ea30, .uuid-5ebc4cb1-22ef-4a36-8c01-6e740654efab {
        stroke: #000;
        stroke-linecap: round;
        stroke-linejoin: round;
        stroke-width: 2px;
      }

      .uuid-0a072e3c-d6f2-470a-9770-22a4106b6fcd {
        fill: #fff7f0;
      }

      .uuid-3f358d21-11fb-4cca-b5d7-692a8d71ddc5 {
        fill: #ff78d8;
      }

      .uuid-207bfc53-0038-4e32-823f-54b11035ad0b {
        fill: #a07bff;
      }

      .uuid-9bcd28cb-bcda-4278-89d6-5a621109116c {
        fill: #ffff0d;
      }

      .uuid-82d2ce6c-7f55-4245-a06c-29503cee28b1 {
        clip-path: url(#uuid-89293507-bc92-42fa-b34e-1e1571e7e747);
      }

      .uuid-c03cd960-b1a5-4734-8b74-0537318c36de {
        fill: #3ef1ff;
      }

      .uuid-dab84833-00d6-4ac5-b871-bf722894ea30 {
        fill: #7aa6ff;
      }

      .uuid-9b04f13d-093d-415d-b941-fdd3901430a2, .uuid-5ebc4cb1-22ef-4a36-8c01-6e740654efab {
        fill: none;
      }
    </style>
    <clipPath id="uuid-89293507-bc92-42fa-b34e-1e1571e7e747">
      <path class="uuid-9b04f13d-093d-415d-b941-fdd3901430a2" d="M218.4367,385.6756l-12.4064,10.9582-6.5311,24.8102s7.299-.5615,11.6504,5.9234,4.9269,18.3677-5.1877,25.1969c0,0,2.6579,7.5675-2.8424,15.6887s-13.9756,7.2204-17.3945,6.2338-6.8523-3.3444-8.3874-5.5166c0,0-4.4023,2.5197-9.326,1.8826s-9.8763-4.5471-10.6582-11.7878c0,0-4.6751-1.7457-6.4741-7.4625s-.04-12.9128,2.4386-22.2675,6.6812-14.1721,12.513-15.8311c0,0,7.5158-29.2236,8.5152-33.0615s2.5586-4.8773,6.3564-8.1554,15.0792-13.121,15.0792-13.121c0,0-6.0316-58.2455-12.8751-63.8414-15.3276-12.5331-44.4132,24.0565-87.6226,45.849-62.5018,31.5227-65.7628,86.6475-49.1862,122.9456s55.8086,43.2852,75.5959,42.645,44.553-21.293,57.1709-20.206,20.5654,16.1734,35.9881,20.206,40.6349-13.1405,40.6349-13.1405l22.7305-23.8363,208.5691,80.5048,26.4415-27.1445,9.2145-56.6908-16.3081-219.0397-85.4514-26.8421-202.2468,165.1005Z"/>
    </clipPath>
  </defs>
  <g id="uuid-25dbd0f2-a6de-441e-82e8-5e783d370578" data-name="OBJECT LEFT">
    <g id="uuid-6de0adcf-05a0-4838-b094-5e13ac5553d7" data-name="Capa 63">
      <g class="uuid-82d2ce6c-7f55-4245-a06c-29503cee28b1">
        <g>
          <g>
            <path class="uuid-dab84833-00d6-4ac5-b871-bf722894ea30" d="M256.8518,397.3434s43.1696-16.8689,99.0456-41.1548,75.8323-39.1146,88.2314-49.9034,16.7468-22.0607,17.5519-24.6371c0,0-15.5663-4.0425-25.4368-4.7321,0,0-1.9477-11.0595-4.2366-17.8252,0,0,23.3841,4.0752,29.6734,10.595s8.2622,24.1403,3.9702,34.7205-48.7562,44.475-82.2738,59.4094-34.9302,14.8937-34.9302,14.8937c0,0-10.5208-1.5787-24.7257,8.5989,0,0-36.595,14.6153-59.3886,23.3898l-7.4808-13.3547Z"/>
            <path class="uuid-dab84833-00d6-4ac5-b871-bf722894ea30" d="M167.8744,340.5255s-9.6965,4.3666-15.6641,9.0167c-3.9526-.93-22.863-3.0226-22.863-3.0226,0,0,15.2451-13.1218,34.7094-21.7125,0,0,1.2335,8.0902,3.8177,15.7184Z"/>
            <path class="uuid-5ebc4cb1-22ef-4a36-8c01-6e740654efab" d="M461.6807,281.6482c1.4826-4.2145-.7148-13.7324-6.0738-15.8343"/>
            <line class="uuid-5ebc4cb1-22ef-4a36-8c01-6e740654efab" x1="280.4825" y1="387.8833" x2="287.2108" y2="401.777"/>
            <line class="uuid-5ebc4cb1-22ef-4a36-8c01-6e740654efab" x1="287.2108" y1="385.1424" x2="293.7453" y2="399.2028"/>
            <line class="uuid-5ebc4cb1-22ef-4a36-8c01-6e740654efab" x1="293.3647" y1="382.6201" x2="300" y2="396.7317"/>
            <g>
              <path class="uuid-9bcd28cb-bcda-4278-89d6-5a621109116c" d="M334.6283,370.9276l1.5658,1.2828c.1522,.1247,.3561,.1665,.5452,.1118l1.9444-.5626c.4761-.1378,.9035,.3302,.7232,.7919l-.7362,1.8856c-.0716,.1833-.0484,.3901,.0621,.553l1.136,1.6754c.2781,.4102-.0348,.9613-.5296,.9325l-2.0208-.1175c-.1965-.0114-.386,.0746-.5068,.2299l-1.2424,1.5981c-.3042,.3913-.925,.2639-1.0505-.2155l-.5128-1.9582c-.0499-.1904-.1902-.3441-.3753-.4109l-1.9038-.6877c-.4661-.1684-.5368-.7982-.1197-1.0657l1.7039-1.0928c.1657-.1062,.2684-.2872,.2748-.4839l.0658-2.0231c.0161-.4953,.5932-.7572,.9766-.4431Z"/>
              <path class="uuid-9bcd28cb-bcda-4278-89d6-5a621109116c" d="M352.671,363.2573l1.5658,1.2828c.1522,.1247,.3561,.1665,.5452,.1118l1.9444-.5626c.4761-.1378,.9035,.3302,.7232,.7919l-.7362,1.8856c-.0716,.1833-.0484,.3901,.0621,.553l1.136,1.6754c.2781,.4102-.0348,.9613-.5296,.9325l-2.0208-.1175c-.1965-.0114-.386,.0746-.5068,.2299l-1.2424,1.5981c-.3042,.3913-.925,.2639-1.0505-.2155l-.5128-1.9582c-.0499-.1904-.1902-.3441-.3753-.4109l-1.9038-.6877c-.4661-.1684-.5368-.7982-.1197-1.0657l1.7039-1.0928c.1657-.1062,.2684-.2872,.2748-.4839l.0658-2.0231c.0161-.4953,.5932-.7572,.9766-.4431Z"/>
              <path class="uuid-9bcd28cb-bcda-4278-89d6-5a621109116c" d="M371.4848,354.9785l1.5894,1.2534c.1545,.1219,.3591,.1599,.5471,.1017l1.9336-.5987c.4734-.1466,.9094,.3133,.7378,.7783l-.7009,1.899c-.0681,.1846-.0411,.391,.0724,.5518l1.1669,1.654c.2857,.405-.0169,.9618-.5122,.9422l-2.0226-.0798c-.1967-.0078-.3845,.0817-.5024,.2393l-1.2124,1.6209c-.2968,.3969-.9199,.2811-1.0544-.1959l-.5491-1.9483c-.0534-.1894-.1966-.3405-.3829-.4039l-1.9163-.6522c-.4692-.1597-.5516-.788-.1395-1.0633l1.6832-1.1243c.1637-.1093,.263-.2922,.2658-.4889l.0281-2.024c.0069-.4956,.579-.7681,.9682-.4612Z"/>
              <path class="uuid-9bcd28cb-bcda-4278-89d6-5a621109116c" d="M389.4174,346.0474l1.6692,1.145c.1623,.1113,.369,.1357,.5527,.0651l1.8895-.7259c.4626-.1777,.9283,.2522,.7879,.7275l-.5732,1.9413c-.0557,.1888-.015,.3928,.1089,.5457l1.2743,1.5727c.312,.3851,.047,.9608-.4484,.9742l-2.0234,.0548c-.1967,.0053-.3782,.1071-.4854,.2722l-1.102,1.6979c-.2698,.4157-.8992,.3416-1.0651-.1254l-.6774-1.9075c-.0659-.1855-.2188-.3266-.4089-.3775l-1.9554-.5233c-.4788-.1281-.6028-.7496-.2098-1.0517l1.6048-1.2337c.156-.1199,.243-.309,.2327-.5055l-.1065-2.0214c-.0261-.4949,.5267-.8049,.9354-.5246Z"/>
              <path class="uuid-9bcd28cb-bcda-4278-89d6-5a621109116c" d="M405.9269,337.1932l1.7079,1.0865c.1661,.1056,.3735,.1228,.5546,.0459l1.8633-.7909c.4562-.1937,.9364,.2199,.8127,.6998l-.5056,1.96c-.0492,.1906-.0014,.3931,.1277,.5417l1.328,1.5277c.3252,.374,.0803,.9585-.4144,.9891l-2.0203,.1249c-.1964,.0121-.3743,.1202-.4757,.2889l-1.0425,1.7351c-.2552,.4248-.8868,.3725-1.0688-.0885l-.7431-1.8829c-.0722-.1831-.2299-.3189-.4217-.3631l-1.9723-.4553c-.4829-.1115-.6284-.7283-.2461-1.0438l1.5611-1.2885c.1518-.1253,.2322-.3172,.215-.5133l-.1764-2.0165c-.0432-.4937,.4985-.8227,.9166-.5566Z"/>
            </g>
          </g>
          <path class="uuid-3f358d21-11fb-4cca-b5d7-692a8d71ddc5" d="M404.9513,488.2633c11.5626,2.8033,20.7845,17.9902,20.7845,17.9902,0,0,33.2441,6.7628,51.241,20.2883l7.2124-3.3941-1.8932-6.6964s-31.2266-16.7459-50.9783-17.712c0,0-7.0848-8.5072-12.3448-9.2988s-14.0217-1.1772-14.0217-1.1772Z"/>
          <path class="uuid-c7761aec-79d7-4674-9087-5966e340b2a2" d="M490.2557,485.5071s-15.7095-3.2661-30.1748-7.7764c-14.4648-4.5107-25.5078-10.5767-25.5078-10.5767,0,0-5.7549,4.0439-7.7769,4.5103-1.7793,.4106-124.8726-31.4609-154.4121-39.1221-.0415-17.7524-6.8018-34.2007-20.0454-41.9766-16.7783-9.8516-40.5015,2.8384-51.96-.8896-11.4585-3.7285-14.0752-38.1987-57.4834-43.9761-43.4082-5.7769-74.2056,23.5605-86.2983,54.2192s-7.3022,85.9102,54.3184,93.8979c32.1152,4.1631,46.0415-19.9209,68.1001-16.6523,18.73,2.7754,19.0625,19.5654,37.563,20.8154,0,0,7.8013,.3677,11.0386-3.0659,0,0-.9814-6.0444-2.5508-10.772-1.5693-4.7271-3.2373-7.9644-3.2373-7.9644,0,0,4.022-11.3789,12.6543-13.7334,8.6328-2.3545,23.9355,1.4717,26.8784,1.1772,1.9849-.1987,4.5464-2.1172,6.7607-7.1372,39.9463,9.2095,144.9668,33.4585,149.4971,34.8833,5.5991,1.7607,11.9761,10.3154,11.9761,10.3154,0,0,16.9536,3.7329,30.3301,8.8657,13.376,5.1328,24.2637,12.5986,24.2637,12.5986,0,0,3.8887-12.9097,8.8657-17.2651-3.2661-7.4653-2.7993-20.3755-2.7993-20.3755Z"/>
          <path class="uuid-3f358d21-11fb-4cca-b5d7-692a8d71ddc5" d="M216.4276,497.9802c-18.5005-1.25-18.833-18.04-37.563-20.8154-22.0586-3.2686-35.9849,20.8154-68.1001,16.6523-28.6592-3.7148-45.0205-17.6558-53.1128-34.5894,18.8667,33.2104,70.5078,25.2793,90.8193,14.96,20.3164-10.3218,28.9536-6.3306,46.6987,6.1401,17.7451,12.4712,23.9253,8.2446,29.7456,3.8145,1.5698,4.7275,2.5508,10.772,2.5508,10.772-3.2373,3.4336-11.0386,3.0659-11.0386,3.0659Zm36.459-45.0063h0c-4.9888-.6895-15.3779-3.8345-24.7378,1.1963-11.6499,6.2617-8.0728,18.4463-6.4702,22.0078,.1064,.2368,.2744,.4668,.4883,.6904-.2114-.4438-.3379-.6904-.3379-.6904,0,0,4.022-11.3789,12.6543-13.7334,8.6328-2.3545,23.9355,1.4717,26.8784,1.1772,1.9849-.1987,4.5464-2.1172,6.7607-7.1377-9.4287-2.1733-15.2358-3.5103-15.2358-3.5103Zm13.1699-22.0723l.002-.0005s2.2915,.5952,6.3188,1.6396c-.0239-9.4546-1.9448-18.5396-5.7456-26.1411l-.2002-.1001c1.5645,6.1489,1.3232,15.6802-.375,24.6021Z"/>
          <g>
            <g>
              <path class="uuid-0a072e3c-d6f2-470a-9770-22a4106b6fcd" d="M212.7773,449.429l-14.2017-3.2881c-2.9535-.6838-4.2397-2.9955-2.8726-5.1634l15.6694-24.8484c1.367-2.1678,4.8695-3.3708,7.8231-2.687l14.2017,3.2881c2.9535,.6838,4.2397,2.9955,2.8726,5.1634l-15.6694,24.8484c-1.367,2.1678-4.8695,3.3708-7.8231,2.687Z"/>
              <path class="uuid-207bfc53-0038-4e32-823f-54b11035ad0b" d="M213.197,445.6243l-10.7469-2.4882c-1.5108-.3498-2.1686-1.5323-1.4694-2.6411l13.7935-21.8737c.6992-1.1089,2.4908-1.7242,4.0016-1.3744l10.7469,2.4882c1.5108,.3498,2.1686,1.5323,1.4694,2.6411l-13.7935,21.8737c-.6992,1.1089-2.4908,1.7242-4.0016,1.3744Z"/>
            </g>
            <g>
              <path class="uuid-0a072e3c-d6f2-470a-9770-22a4106b6fcd" d="M166.8226,438.7891l-14.2017-3.2881c-2.9535-.6838-4.2397-2.9955-2.8726-5.1634l15.6694-24.8484c1.367-2.1678,4.8695-3.3708,7.8231-2.687l14.2017,3.2881c2.9535,.6838,4.2397,2.9955,2.8726,5.1634l-15.6694,24.8484c-1.367,2.1678-4.8695,3.3708-7.8231,2.687Z"/>
              <path class="uuid-207bfc53-0038-4e32-823f-54b11035ad0b" d="M167.2423,434.9844l-10.7469-2.4882c-1.5108-.3498-2.1686-1.5323-1.4694-2.6411l13.7935-21.8737c.6992-1.1089,2.4908-1.7242,4.0016-1.3744l10.7469,2.4882c1.5108,.3498,2.1686,1.5323,1.4694,2.6411l-13.7935,21.8737c-.6992,1.1089-2.4908,1.7242-4.0016,1.3744Z"/>
            </g>
            <path class="uuid-0a072e3c-d6f2-470a-9770-22a4106b6fcd" d="M129.852,430.2293h0c-2.9535-.6838-4.2397-2.9955-2.8726-5.1634l15.6694-24.8484c1.367-2.1678,4.8695-3.3708,7.8231-2.687h0c2.9535,.6838,4.2397,2.9955,2.8726,5.1634l-15.6694,24.8484c-1.367,2.1678-4.8695,3.3708-7.8231,2.687Z"/>
            <path class="uuid-0a072e3c-d6f2-470a-9770-22a4106b6fcd" d="M107.7822,425.1195h0c-2.9535-.6838-4.2397-2.9955-2.8726-5.1634l15.6694-24.8484c1.367-2.1678,4.8695-3.3708,7.8231-2.687h0c2.9535,.6838,4.2397,2.9955,2.8726,5.1634l-15.6694,24.8484c-1.367,2.1678-4.8695,3.3708-7.8231,2.687Z"/>
            <path class="uuid-207bfc53-0038-4e32-823f-54b11035ad0b" d="M123.7797,399.7507l-11.3752,18.0388c-1.3558,2.15-.0968,4.4373,2.8051,5.1416,.1383-.1628,.2842-.3222,.3955-.4988l15.6692-24.8482c.1114-.1766,.178-.3543,.2542-.5315-2.9376-.6477-6.393,.5481-7.7488,2.6981Z"/>
          </g>
          <g>
            <path class="uuid-5ebc4cb1-22ef-4a36-8c01-6e740654efab" d="M436.8054,495.2494s-16.8815-8.226-20.0085-8.9867S116.0704,418.2509,116.0704,418.2509"/>
            <path class="uuid-5ebc4cb1-22ef-4a36-8c01-6e740654efab" d="M438.1646,476.2419s-11.2176-.5008-17.0267-1.903S127.0574,400.6624,127.0574,400.6624"/>
            <path class="uuid-5ebc4cb1-22ef-4a36-8c01-6e740654efab" d="M473.1116,489.4404s-44.5769-9.3408-50.7733-11.0055S123.2045,406.5088,123.2045,406.5088"/>
            <path class="uuid-5ebc4cb1-22ef-4a36-8c01-6e740654efab" d="M119.3459,412.3881s288.3187,66.9994,298.9355,69.5621,53.308,24.8141,53.308,24.8141"/>
          </g>
          <g>
            <g>
              <ellipse class="uuid-207bfc53-0038-4e32-823f-54b11035ad0b" cx="80.1212" cy="438.4252" rx="8.0041" ry="6.0236" transform="translate(-184.5805 79.8599) rotate(-26.0793)"/>
              <path class="uuid-dab84833-00d6-4ac5-b871-bf722894ea30" d="M84.3206,436.5224c.596,1.2176-.7741,3.1117-3.0601,4.2306s-4.6223,1.0388-5.2183-.1788c-.2012-.4111-1.9463-3.9764-2.4771-5.0611,.4053-.9995,4.023,1.5716,5.5372,.8305,1.5125-.7403,1.7032-5.1739,2.7411-4.8823l2.4771,5.0611Z"/>
              <ellipse class="uuid-c03cd960-b1a5-4734-8b74-0537318c36de" cx="77.7891" cy="433.6604" rx="4.6084" ry="3.5509" transform="translate(-182.7233 78.3496) rotate(-26.0793)"/>
            </g>
            <g>
              <ellipse class="uuid-207bfc53-0038-4e32-823f-54b11035ad0b" cx="106.8065" cy="442.587" rx="8.0041" ry="6.0236" transform="translate(-183.6932 92.0149) rotate(-26.0793)"/>
              <path class="uuid-dab84833-00d6-4ac5-b871-bf722894ea30" d="M111.0059,440.6842c.596,1.2176-.7741,3.1117-3.0601,4.2306s-4.6223,1.0388-5.2183-.1788c-.2012-.4111-1.9463-3.9764-2.4771-5.0611,.4053-.9995,4.023,1.5716,5.5372,.8305,1.5125-.7403,1.7032-5.1739,2.7411-4.8823l2.4771,5.0611Z"/>
              <ellipse class="uuid-c03cd960-b1a5-4734-8b74-0537318c36de" cx="104.4744" cy="437.8222" rx="4.6084" ry="3.5509" transform="translate(-181.836 90.5045) rotate(-26.0793)"/>
            </g>
            <g>
              <ellipse class="uuid-207bfc53-0038-4e32-823f-54b11035ad0b" cx="87.7846" cy="459.1777" rx="8.0041" ry="6.0236" transform="translate(-192.9234 85.3418) rotate(-26.0793)"/>
              <path class="uuid-dab84833-00d6-4ac5-b871-bf722894ea30" d="M91.984,457.275c.596,1.2176-.7741,3.1117-3.0601,4.2306s-4.6223,1.0388-5.2183-.1788c-.2012-.4111-1.9463-3.9764-2.4771-5.0611,.4053-.9995,4.023,1.5716,5.5372,.8305,1.5125-.7403,1.7032-5.1739,2.7411-4.8823l2.4771,5.0611Z"/>
              <ellipse class="uuid-c03cd960-b1a5-4734-8b74-0537318c36de" cx="85.4525" cy="454.413" rx="4.6084" ry="3.5509" transform="translate(-191.0662 83.8314) rotate(-26.0793)"/>
            </g>
            <g>
              <ellipse class="uuid-207bfc53-0038-4e32-823f-54b11035ad0b" cx="114.4699" cy="463.3395" rx="8.0041" ry="6.0236" transform="translate(-192.0361 97.4967) rotate(-26.0793)"/>
              <path class="uuid-dab84833-00d6-4ac5-b871-bf722894ea30" d="M118.6693,461.4368c.596,1.2176-.7741,3.1117-3.0601,4.2306s-4.6223,1.0388-5.2183-.1788c-.2012-.4111-1.9463-3.9764-2.4771-5.0611,.4053-.9995,4.023,1.5716,5.5372,.8305,1.5125-.7403,1.7032-5.1739,2.7411-4.8823l2.4771,5.0611Z"/>
              <ellipse class="uuid-c03cd960-b1a5-4734-8b74-0537318c36de" cx="112.1378" cy="458.5748" rx="4.6084" ry="3.5509" transform="translate(-190.1789 95.9864) rotate(-26.0793)"/>
            </g>
          </g>
          <g>
            <ellipse class="uuid-207bfc53-0038-4e32-823f-54b11035ad0b" cx="242.2778" cy="405.2753" rx="8.0041" ry="6.0236" transform="translate(-153.4977 147.7712) rotate(-26.0793)"/>
            <path class="uuid-dab84833-00d6-4ac5-b871-bf722894ea30" d="M246.4773,403.3725c.596,1.2176-.7741,3.1117-3.0601,4.2306s-4.6223,1.0388-5.2183-.1788c-.2012-.4111-1.9463-3.9764-2.4771-5.0611,.4053-.9995,4.023,1.5716,5.5372,.8305,1.5125-.7403,1.7032-5.1739,2.7411-4.8823l2.4771,5.0611Z"/>
            <ellipse class="uuid-c03cd960-b1a5-4734-8b74-0537318c36de" cx="239.9457" cy="400.5105" rx="4.6084" ry="3.5509" transform="translate(-151.6405 146.2609) rotate(-26.0793)"/>
          </g>
          <g>
            <ellipse class="uuid-207bfc53-0038-4e32-823f-54b11035ad0b" cx="443.6952" cy="475.2533" rx="5.0521" ry="5.2755" transform="translate(-189.6738 328.3692) rotate(-33.9102)"/>
            <path class="uuid-dab84833-00d6-4ac5-b871-bf722894ea30" d="M443.5584,472.6782c-1.1251,.7563-1.4981,2.1712-.8332,3.1604s2.116,1.1778,3.241,.4215l4.6764-3.1436c.3873-.7137-.9235-1.0282-1.3639-1.6834-.4399-.6544-.2378-1.9867-1.0439-1.8985l-4.6764,3.1436Z"/>
            <ellipse class="uuid-c03cd960-b1a5-4734-8b74-0537318c36de" cx="449.2787" cy="471.4331" rx="2.1178" ry="2.158" transform="translate(-186.5929 330.8352) rotate(-33.9103)"/>
          </g>
          <g>
            <ellipse class="uuid-207bfc53-0038-4e32-823f-54b11035ad0b" cx="476.7125" cy="485.605" rx="5.0521" ry="5.2755" transform="translate(-189.833 348.5501) rotate(-33.9102)"/>
            <path class="uuid-dab84833-00d6-4ac5-b871-bf722894ea30" d="M476.5758,483.0298c-1.1251,.7563-1.4981,2.1712-.8332,3.1604s2.116,1.1778,3.241,.4215l4.6764-3.1436c.3873-.7137-.9235-1.0282-1.3639-1.6834-.4399-.6544-.2378-1.9867-1.0439-1.8985l-4.6764,3.1436Z"/>
            <ellipse class="uuid-c03cd960-b1a5-4734-8b74-0537318c36de" cx="482.2961" cy="481.7847" rx="2.1178" ry="2.158" transform="translate(-186.7522 351.016) rotate(-33.9103)"/>
          </g>
          <g>
            <ellipse class="uuid-207bfc53-0038-4e32-823f-54b11035ad0b" cx="474.1175" cy="507.7931" rx="5.0521" ry="5.2755" transform="translate(-202.653 350.8763) rotate(-33.9102)"/>
            <path class="uuid-dab84833-00d6-4ac5-b871-bf722894ea30" d="M473.9808,505.218c-1.1251,.7563-1.4981,2.1712-.8332,3.1604s2.116,1.1778,3.241,.4215l4.6764-3.1436c.3873-.7137-.9235-1.0282-1.3639-1.6834-.4399-.6544-.2378-1.9867-1.0439-1.8985l-4.6764,3.1436Z"/>
            <ellipse class="uuid-c03cd960-b1a5-4734-8b74-0537318c36de" cx="479.7011" cy="503.9729" rx="2.1178" ry="2.158" transform="translate(-199.5722 353.3423) rotate(-33.9103)"/>
          </g>
          <g>
            <ellipse class="uuid-207bfc53-0038-4e32-823f-54b11035ad0b" cx="441.1002" cy="494.6403" rx="5.0521" ry="5.2755" transform="translate(-200.931 330.219) rotate(-33.9102)"/>
            <path class="uuid-dab84833-00d6-4ac5-b871-bf722894ea30" d="M440.9635,492.0651c-1.1251,.7563-1.4981,2.1712-.8332,3.1604s2.116,1.1778,3.241,.4215l4.6764-3.1436c.3873-.7137-.9235-1.0282-1.3639-1.6834-.4399-.6544-.2378-1.9867-1.0439-1.8985l-4.6764,3.1436Z"/>
            <ellipse class="uuid-c03cd960-b1a5-4734-8b74-0537318c36de" cx="446.6838" cy="490.82" rx="2.1178" ry="2.158" transform="translate(-197.8502 332.6849) rotate(-33.9103)"/>
          </g>
        </g>
      </g>
    </g>
  </g>
</svg>