<?xml version="1.0" encoding="UTF-8"?>
<svg id="uuid-cddb6664-12bf-4c9e-8f4f-8ad7d1ba6b2e" data-name="COCOBAY" xmlns="http://www.w3.org/2000/svg" viewBox="0 0 600 600">
  <defs>
    <style>
      .uuid-f2c16817-df5b-4403-a9a1-82d4f43a9801 {
        fill: #fff7f0;
      }

      .uuid-f2c16817-df5b-4403-a9a1-82d4f43a9801, .uuid-3521fd61-4c50-4e9a-ae11-12f34f53f970, .uuid-8c73af1d-8148-4a1c-8c54-5bf7b8b9a6a2, .uuid-9493ac63-3e42-4097-8424-c62c0ccec069, .uuid-f573f0fa-edcc-453a-9f3b-1959280fa9b0, .uuid-56dc5fb4-ec30-4f21-b049-ec7d899d6ac8 {
        stroke: #000;
        stroke-linecap: round;
        stroke-linejoin: round;
        stroke-width: 2px;
      }

      .uuid-3521fd61-4c50-4e9a-ae11-12f34f53f970 {
        fill: #353434;
      }

      .uuid-8c73af1d-8148-4a1c-8c54-5bf7b8b9a6a2 {
        fill: #fff;
      }

      .uuid-9493ac63-3e42-4097-8424-c62c0ccec069 {
        fill: #7aa6ff;
      }

      .uuid-f573f0fa-edcc-453a-9f3b-1959280fa9b0 {
        fill: #f9a723;
      }

      .uuid-56dc5fb4-ec30-4f21-b049-ec7d899d6ac8 {
        fill: none;
      }
    </style>
  </defs>
  <g id="uuid-5ea017f5-6ab7-4b49-9ece-9b1cac5ff624" data-name="WEAR">
    <g>
      <g>
        <path class="uuid-8c73af1d-8148-4a1c-8c54-5bf7b8b9a6a2" d="M468.512,338.6287l-11.269,3.8247c-2.1387,.7197-4.4551,.7119-6.5879-.0229l-35.7026-12.6108-5.1411,29.7822c9.1973,3.7725,29.8867,12.0537,42.7939,16.0322,2.1128,.6514,4.4131,.687,6.502-.0371,5.7642-1.9971,12.6973-4.7627,18.813-7.061-2.7012-8.6167-6.5854-20.9497-9.4082-29.9072Z"/>
        <path d="M443.4375,339.8811c-2.884,10.5815-6.9425,20.2278-11.1716,28.5925-10.1723-3.7752-21.1637-9.5345-27.0037-11.9294l11.8273-26.0229,26.348,9.3598Z"/>
        <path class="uuid-8c73af1d-8148-4a1c-8c54-5bf7b8b9a6a2" d="M468.4542,373.6426c-8.3218-9.5998-10.07-23.088-11.1002-31.5736-.3957-3.2594,1.5049-6.3542,4.5872-7.4853l7.3637-2.7022c1.6063-.5895,3.4043-.2906,4.7336,.787l3.5363,2.8666-4.506,1.5293s-1.6496,17.3878,9.5959,29.7155l3.9705-1.4308-.1568,3.4958c-.0884,1.9701-1.3588,3.6913-3.2153,4.3564l-7.0285,2.5179c-2.7727,.9933-5.8511,.1489-7.7802-2.0765Z"/>
      </g>
      <g>
        <path class="uuid-8c73af1d-8148-4a1c-8c54-5bf7b8b9a6a2" d="M319.3646,402.1418c54.0435-5.6113,84.5815-20.5039,97.5225-28.4697,12.3672-19.5776,19.9575-42.4736,21.1167-67.0566,.0945-2.2923,.1609-5.1001,.1609-7.4512-10.2618,6.4231-30.0304,16.3754-54.8678,23.7362-2.6297,.7793-5.6996,4.9324-6.9636,8.2694-2.9831-2.2753-6.9425-4.5556-9.9488-3.8901-19.7338,4.3686-41.6856,6.6146-64.0905,4.3042-57.1111-5.8894-121.0657-45.5197-138.4794-55.0159-.4556,2.7411-.6887,4.6672-1.0134,7.0977-.6313,5.3579-.9658,10.8066-.9658,16.3345,0,12.2129,1.604,24.0474,4.5811,35.3247,27.4678,27.3169,85.2729,73.8433,152.9482,66.8169Z"/>
        <path class="uuid-8c73af1d-8148-4a1c-8c54-5bf7b8b9a6a2" d="M383.7693,322.7597c3.4864-1.0674,9.1313,.6404,13.5808,13.1124,0,0,23.959-9.3017,43.037-24.7677,1.5981-1.2956,2.5534-3.2237,2.5858-5.2807l.1399-8.893c.0475-3.0213-1.8781-5.7214-4.7501-6.6605l-.548-.1792,.3195,6.9834s-11.3998,6.1713-25.4471,13.1123c-14.3258,7.0787-28.9178,12.573-28.9178,12.573Z"/>
        <path class="uuid-8c73af1d-8148-4a1c-8c54-5bf7b8b9a6a2" d="M366.3844,327.2797c-5.6748,1.6148-5.1692,17.6935-5.1692,17.6935,0,0-35.7303,11.0499-98.0225-5.2615-52.718-13.8045-91.7231-41.9035-102.4676-50.2149-1.8398-1.4231-2.7405-3.7426-2.3569-6.0367l1.4716-8.8023c.3953-2.3645,2.0936-4.3022,4.3859-5.0042l1.0237-.3135-1.0262,5.1694s53.9359,31.6323,99.7786,45.9244,93.5968,8.2141,102.3827,6.8458Z"/>
        <g>
          <path class="uuid-8c73af1d-8148-4a1c-8c54-5bf7b8b9a6a2" d="M376.3332,331.1698c5.309,19.264,13.6339,55.3292,13.6339,55.3292"/>
          <circle class="uuid-8c73af1d-8148-4a1c-8c54-5bf7b8b9a6a2" cx="386.3685" cy="336.3025" r="3.8591"/>
          <circle class="uuid-8c73af1d-8148-4a1c-8c54-5bf7b8b9a6a2" cx="390.8656" cy="353.9069" r="3.8591"/>
        </g>
      </g>
      <g>
        <g>
          <path class="uuid-3521fd61-4c50-4e9a-ae11-12f34f53f970" d="M265.062,433.7081l-12.8299,13.9258,24.1061,24.1077,32.6077-33.8622s-9.1127-3.0073-21.0453-4.9286-22.8385,.7574-22.8385,.7574Z"/>
          <path d="M283.7772,412.7587l31.281,12.6399-3.2374,9.503c-2.9302,3.0335-9.7629,10.122-13.6358,14.1415-11.9165,.0096-27.9823-2.1326-41.3331-6.3652,13.9491-15.1018,26.9254-29.9191,26.9254-29.9191Z"/>
          <path class="uuid-3521fd61-4c50-4e9a-ae11-12f34f53f970" d="M256.7491,440.6324c11.7206,4.9026,21.5587,18.0159,26.252,25.1602,1.8027,2.7441,1.4751,6.3612-.7836,8.744l-5.3962,5.6927c-1.1772,1.2418-2.9207,1.7729-4.5903,1.3982l-4.4417-.9969,3.3425-3.4758s-8.512-18.013-24.0639-24.0603l-2.9213,3.046-1.4128-3.2014c-.7962-1.8042-.4229-3.9107,.9448-5.3314l5.1779-5.3786c2.0426-2.1218,5.1756-2.7332,7.8927-1.5966Z"/>
        </g>
        <g>
          <path class="uuid-3521fd61-4c50-4e9a-ae11-12f34f53f970" d="M195.7166,360.9871c-9.292-4.1943-17.8379-8.7412-25.4712-13.436,3.1753,8.6631,7.208,16.9092,11.9692,24.6602l13.502-11.2241Z"/>
          <path class="uuid-3521fd61-4c50-4e9a-ae11-12f34f53f970" d="M418.9515,370.3015c-24.0283,7.7056-48.9722,5.8296-75.9751,8.8267-39.4087,8.0142-77.9932,4.3042-111.2705-5.0684l-23.8965,19.7593c-1.6191,1.3369-2.7837,3.1436-3.334,5.1699l-.1768,.6509c24.8281,23.8564,58.5493,38.5249,95.7012,38.5249,20.4233,0,39.8008-4.4497,57.2437-12.4038-.002,.0049-.0122,.0264-.0122,.0264l10.8994,12.3281,27.3604-25.3569-6.4761-7.0957s-.019,.0015-.0244,.0015c11.856-9.998,22.0122-21.9492,29.9609-35.3628Z"/>
        </g>
        <g>
          <path class="uuid-f2c16817-df5b-4403-a9a1-82d4f43a9801" d="M203.6922,354.3567c-17.0801-8.6904-30.0034-18.0532-38.8281-25.4941,1.8291,8.605,4.4629,16.9116,7.812,24.8428,5.4692,4.2656,11.2339,8.2705,17.3667,11.9985l13.6494-11.3472Z"/>
          <path class="uuid-f2c16817-df5b-4403-a9a1-82d4f43a9801" d="M342.9764,379.1282c-41.7573,3.6045-76.5684-1.71-104.5869-10.5947l-15.4937,12.811c24.6914,8.9146,54.9463,14.3105,93.96,15.1343,0,0,9.7622-15.8232,28.0327-17.5234,18.8887-1.7573,28.8096,10.1528,28.8096,10.1528,0,0,26.4336-3.814,42.2549-13.9907,4.6587-7.1729,8.6768-14.8003,11.9561-22.811-22.2656,15.4819-52.6523,24.0352-84.9326,26.8218Z"/>
        </g>
        <path class="uuid-3521fd61-4c50-4e9a-ae11-12f34f53f970" d="M363.7539,435.7771c5.9477-11.2265,22.6232-22.6396,30.1645-26.664,2.8966-1.5458,6.4689-.8908,8.6366,1.5752l5.1786,5.8913c1.1297,1.2852,1.5001,3.0698,.9752,4.6984l-1.2033,4.1451-3.3508-3.457s-19.2775,5.5054-28.8704,24.585l2.7678,3.1861-3.3166,1.1159c-1.8691,.6289-3.9329,.0656-5.2234-1.4255l-4.8857-5.6454c-1.9273-2.227-2.2514-5.4026-.8726-8.0052Z"/>
        <path class="uuid-3521fd61-4c50-4e9a-ae11-12f34f53f970" d="M251.5298,391.8271l3.5092-18.8955c.4792-2.5802,2.9842-4.2636,5.5542-3.7323l5.1181,1.0579c1.4294,.2955,2.6394,1.2403,3.2726,2.5555l1.7237,3.5802-4.7405-.8668-2.9093,19.0652"/>
        <path class="uuid-3521fd61-4c50-4e9a-ae11-12f34f53f970" d="M304.2555,399.1883l-.4052-19.2143c-.0553-2.6238,2.0552-4.7812,4.6796-4.7835l5.2263-.0046c1.4596-.0013,2.8365,.6779,3.7238,1.8368l2.4155,3.155-4.8177,.1149,1.027,19.2585"/>
        <path class="uuid-3521fd61-4c50-4e9a-ae11-12f34f53f970" d="M416.8819,373.7091l-4.029-12.5729-3.0418,1.5168,.4424-3.7483c.1625-1.3769,.7918-2.4726,1.7021-2.9633l3.2593-1.7572c1.6366-.8823,3.6793,.4128,4.5291,2.8716,0,0,1.7914,5.2601,2.4837,7.3888-2.0321,4.029-5.3457,9.2644-5.3457,9.2644Z"/>
        <path class="uuid-3521fd61-4c50-4e9a-ae11-12f34f53f970" d="M182.8878,364.719l6.4032-18.4312,2.9842,1.8125-.4424-3.8744c-.1625-1.3769-.7918-2.4726-1.7021-2.9633l-4.6033-2.5335c-1.6366-.8823-3.6793,.4128-4.5291,2.8716,0,0-5.4617,14.845-6.1539,16.9737"/>
        <rect class="uuid-f573f0fa-edcc-453a-9f3b-1959280fa9b0" x="373.0362" y="367.4544" width="29.7226" height="22.0527" rx="5.3258" ry="5.3258" transform="translate(-85.2146 114.138) rotate(-15.1025)"/>
        <g>
          <path class="uuid-56dc5fb4-ec30-4f21-b049-ec7d899d6ac8" d="M252.2321,408.8833s21.4627,5.1573,33.7229-8.191"/>
          <g>
            <path d="M378.5927,441.9831c-.2655,0-.5304-.1051-.7272-.3134l-2.7466-2.9082c-.3792-.4016-.3611-1.0344,.0404-1.4137,.4015-.3789,1.0344-.3611,1.4137,.0404l2.7466,2.9082c.3792,.4016,.3611,1.0344-.0404,1.4137-.1932,.1825-.4401,.2729-.6865,.2729Z"/>
            <path d="M370.6787,433.6023c-.2655,0-.5305-.1051-.7272-.3135l-2.7461-2.9082c-.3792-.4015-.3611-1.0344,.0405-1.4136s1.0345-.3611,1.4136,.0405l2.7461,2.9082c.3792,.4015,.3611,1.0344-.0405,1.4136-.1932,.1825-.4401,.2729-.6864,.2729Z"/>
          </g>
          <path d="M375.5974,422.9691c-.2795,0-.5575-.1166-.7552-.3441-.0006-.0007-1.363-1.5687-3.2988-3.7791-.3638-.4154-.322-1.0472,.0935-1.4111,.4153-.3638,1.0471-.3221,1.4111,.0935,1.9392,2.2142,3.304,3.7849,3.304,3.7849,.3622,.4169,.3179,1.0485-.099,1.4108-.1893,.1644-.423,.2451-.6555,.2451Zm-6.6094-7.5455c-.277,0-.5525-.1144-.7502-.3384-1.0963-1.2424-2.231-2.5232-3.3204-3.7438-.3677-.4121-.3318-1.0442,.0802-1.412,.412-.3677,1.0441-.3318,1.412,.0802,1.0919,1.2235,2.2292,2.507,3.328,3.7523,.3654,.4142,.3259,1.046-.0883,1.4115-.1901,.1677-.4261,.2501-.6613,.2501Zm-6.6809-7.4686c-.2705,0-.5402-.1091-.7373-.3242-.7573-.826-1.4121-1.527-1.9113-2.0398-.4142-.4257-.9287-.8525-1.5291-1.2689-.4539-.3148-.5667-.9379-.252-1.3917,.3148-.4536,.9381-.5664,1.3917-.2518,.7057,.4895,1.319,1.0001,1.8226,1.5177,.5096,.5238,1.1786,1.2394,1.952,2.083,.3733,.4071,.3458,1.0397-.0613,1.4128-.192,.176-.4341,.2629-.6755,.2629Zm-31.1583-2.7906c-.3232,0-.6403-.1564-.833-.4454-.3064-.4595-.1823-1.0803,.2773-1.3867,1.2124-.8085,2.4786-1.5219,3.7632-2.1204,.5005-.2333,1.0956-.0166,1.3287,.484,.2333,.5006,.0166,1.0955-.484,1.3287-1.193,.5559-2.37,1.2194-3.4985,1.9717-.1704,.1136-.3632,.1681-.5537,.1681Zm23.1006-2.9171c-.114,0-.23-.0197-.3434-.0612-1.4788-.5409-3.0415-.9387-4.6449-1.1825-.5459-.083-.9213-.593-.8383-1.139,.0831-.5458,.5933-.9203,1.1389-.8383,1.7349,.2638,3.4276,.6949,5.0312,1.2815,.5187,.1898,.7854,.764,.5956,1.2827-.1482,.4053-.5312,.6567-.9392,.6567Zm-14.7646-.791c-.4495,0-.8579-.3052-.9702-.7611-.1321-.5363,.1956-1.078,.7318-1.2101,1.6776-.4132,3.4058-.6613,5.1364-.7372,.5525-.0208,1.0187,.4034,1.0428,.9552s-.4034,1.0187-.9552,1.0428c-1.5991,.0702-3.1958,.2993-4.7457,.681-.0803,.0198-.1608,.0293-.2399,.0293Z"/>
          <path d="M272.1564,452.9993c-.2727,0-.5444-.1108-.7418-.329-.3706-.4094-.3391-1.0419,.0704-1.4125l3.7072-3.3552c.4094-.3707,1.0419-.3392,1.4125,.0704,.3706,.4094,.3391,1.0419-.0704,1.4125l-3.7072,3.3552c-.1914,.1732-.4314,.2585-.6707,.2585Zm7.4143-6.7103c-.2727,0-.5444-.1108-.7418-.329-.3706-.4094-.3391-1.0419,.0704-1.4125l3.7072-3.3552c.4094-.3704,1.0417-.3392,1.4125,.0704,.3706,.4094,.3391,1.0419-.0704,1.4125l-3.7072,3.3552c-.1914,.1732-.4314,.2585-.6707,.2585Zm7.4142-6.7103c-.2727,0-.5444-.1108-.7418-.329-.3706-.4094-.3391-1.0419,.0704-1.4125l1.0245-.9272c.4094-.3704,1.0417-.3392,1.4125,.0704,.3706,.4094,.3391,1.0419-.0704,1.4125l-1.0245,.9272c-.1914,.1732-.4314,.2585-.6707,.2585Z"/>
          <path d="M256.3469,459.5475c-.2649,0-.5293-.1046-.726-.3121-.3799-.4008-.3629-1.0337,.038-1.4137l3.629-3.4396c.4008-.3798,1.0337-.363,1.4137,.038,.3799,.4008,.3629,1.0337-.038,1.4137l-3.629,3.4396c-.1934,.1832-.4408,.2742-.6877,.2742Zm7.2579-6.8792c-.2649,0-.5293-.1046-.726-.3121-.3799-.4008-.3629-1.0337,.038-1.4137l3.629-3.4396c.4009-.3799,1.0337-.363,1.4137,.038,.3799,.4008,.3629,1.0337-.038,1.4137l-3.629,3.4396c-.1934,.1832-.4408,.2742-.6877,.2742Z"/>
          <path class="uuid-56dc5fb4-ec30-4f21-b049-ec7d899d6ac8" d="M357.2313,425.7873c-4.8644-5.2242-9.3483-8.0511-17.876-3.6292"/>
          <line class="uuid-9493ac63-3e42-4097-8424-c62c0ccec069" x1="373.6981" y1="389.1081" x2="389.015" y2="405.6628"/>
        </g>
        <path d="M236.7636,369.41l-24.8069,36.8895c-6.1323-4.651-8.2031-5.86-6.6191-10.1066-.378-.4252,31.426-26.7828,31.426-26.7828Z"/>
      </g>
      <g>
        <path class="uuid-8c73af1d-8148-4a1c-8c54-5bf7b8b9a6a2" d="M214.1053,345.6999c-8.0503,5.8315-25.3423,20.7949-35.522,29.6714-1.6665,1.4531-2.8188,3.4116-3.3931,5.5464-1.2686,4.7168-2.9082,11.0825-4.4111,16.9941l31.8433,7.9111,1.7051-6.3872c.5142-2.1963,1.7412-4.1616,3.4893-5.5879l29.3784-24.2998"/>
        <path class="uuid-8c73af1d-8148-4a1c-8c54-5bf7b8b9a6a2" d="M170.9434,388.9796c12.5989-1.6362,26.5633,4.522,34.2065,8.3494,2.9358,1.4701,4.4663,4.7637,3.707,7.958l-1.8139,7.6312c-.3957,1.6647-1.6378,2.9986-3.2702,3.5117l-4.3427,1.365,1.2135-4.6011s-15.339-11.1444-31.8266-8.5773l-.9999,4.1003-2.8277-2.0613c-1.5936-1.1617-2.327-3.1713-1.8562-5.0864l1.7824-7.25c.7031-2.86,3.1071-4.9601,6.0278-5.3394Z"/>
      </g>
    </g>
  </g>
</svg>