<?xml version="1.0" encoding="UTF-8"?>
<svg id="uuid-9f189630-fb82-45f3-a12e-c43b62c1416d" data-name="BODY" xmlns="http://www.w3.org/2000/svg" viewBox="0 0 600 600">
  <defs>
    <style>
      .uuid-c3076e00-8100-4270-ba00-538e730f4b82 {
        fill: #7aa6ff;
      }

      .uuid-c3076e00-8100-4270-ba00-538e730f4b82, .uuid-27c04b12-0ae4-4af0-a19e-b2b135b686cd, .uuid-ab7b286f-e419-4fb2-a5fd-590dc6c7d8f6, .uuid-0b48c721-601b-4756-8adf-13ab8e5dc725, .uuid-96cdae85-f99a-4a0f-95d8-b1bc7d69157e {
        stroke: #000;
        stroke-linecap: round;
        stroke-linejoin: round;
        stroke-width: 2px;
      }

      .uuid-27c04b12-0ae4-4af0-a19e-b2b135b686cd {
        fill: #ff78d8;
      }

      .uuid-ab7b286f-e419-4fb2-a5fd-590dc6c7d8f6 {
        fill: #ffff0d;
      }

      .uuid-0b48c721-601b-4756-8adf-13ab8e5dc725 {
        fill: #fff;
      }

      .uuid-96cdae85-f99a-4a0f-95d8-b1bc7d69157e {
        fill: none;
      }
    </style>
  </defs>
  <g id="uuid-76a621b9-6d6d-4c88-b64a-394f0c06bfe4" data-name="uuid-59560883-689f-43df-9f0b-d5c83d25eed8">
    <g>
      <g>
        <path class="uuid-0b48c721-601b-4756-8adf-13ab8e5dc725" d="m166.95,413.12c11.19,10.25,31.2,9.43,31.2,9.43l4.5-16.84s-5.66-2.38-15.98-5.31c-10.32-2.93-15.34-4.65-15.34-4.65l-4.38,17.37Z"/>
        <g>
          <line class="uuid-96cdae85-f99a-4a0f-95d8-b1bc7d69157e" x1="178.28" y1="404.79" x2="176.11" y2="413.89"/>
          <line class="uuid-96cdae85-f99a-4a0f-95d8-b1bc7d69157e" x1="191.19" y1="408.44" x2="189.01" y2="417.54"/>
        </g>
      </g>
      <g>
        <path class="uuid-0b48c721-601b-4756-8adf-13ab8e5dc725" d="m466.27,339.39l16.26-5.52s-.43,19.89,9.61,30.41l-16.83,5.37s-9.23-5.12-11.25-14.64,2.22-15.62,2.22-15.62h-.01Z"/>
        <path class="uuid-27c04b12-0ae4-4af0-a19e-b2b135b686cd" d="m436.03,324.33s17.68,5.27,18.89,5.75,11.35,9.31,11.35,9.31c0,0-.65,20.75,9.03,30.26,0,0-15.19,17.39-17.22,18.71-2.03,1.32-41.28-14.54-41.28-14.54,0,0,6.6-14.58,12.05-26.21,5.45-11.63,7.16-23.27,7.16-23.27h.02Z"/>
        <line class="uuid-96cdae85-f99a-4a0f-95d8-b1bc7d69157e" x1="473.46" y1="359.57" x2="482.77" y2="356.38"/>
        <line class="uuid-96cdae85-f99a-4a0f-95d8-b1bc7d69157e" x1="470.36" y1="348.29" x2="479.66" y2="345.1"/>
        <path class="uuid-96cdae85-f99a-4a0f-95d8-b1bc7d69157e" d="m469.02,358.71c-10.17,2.95-16.49,13.87-13.05,16.86,3.44,2.99,6.52-6.37,6.52-6.37"/>
        <path class="uuid-96cdae85-f99a-4a0f-95d8-b1bc7d69157e" d="m466.78,348.29c-8.18-2.09-15.56-4.17-15.56-4.17"/>
        <path d="m446.06,327.34c-1.01,10.56-5.64,22.15-7.31,26.67-3.62,9.78-8.9,19.7-11.17,24.18-10.17-3.78-7.79-2.87-10.71-4.51l13.37-27.47,5.78-21.87,10.03,3.01h.01Z"/>
      </g>
      <g>
        <path class="uuid-c3076e00-8100-4270-ba00-538e730f4b82" d="m305.9,456.21l11.12-16.69s29.17-3,37.01-5.81c4.96-1.77,4.75-6.23,4.75-6.23,0,0-3.63-4.35-6.23-5.92s-6.71-1.43-6.71-1.43c0,0-2.22-14.25-.14-27.85,1.65-10.77,3.42-13.58,3.42-13.58,0,0,7.52.12,16.47,4.63,8.95,4.51,25.62,24.76,25.62,24.76,0,0,8.74-7.2,18.19-18.57,7.9-9.51,18.19-23.81,25.11-44.09,1.35-3.97-7.32,4.09-6.26-.35l-36.04,20.64-23.93,5.56-7.28-8.73s-34.18,6.88-103.92-10.42c-65.9-16.35-98.53-45.2-98.53-45.2,0,0-.86,99.87,103.94,129.57,0,0,17.61,14.53,43.4,19.69v.02Z"/>
        <g>
          <path d="m299.53,440.27l17.49-.75c-1.25,1.77-3.89,6.12-5.89,8.83-1.78.8-6.5.69-12.95.69-5.09,0-10.93-.38-16.99-1.16-6.84-2.65-14.12-7.91-18.69-11.36,10.33,3.75,37.03,3.75,37.03,3.75h0Z"/>
          <g>
            <path class="uuid-96cdae85-f99a-4a0f-95d8-b1bc7d69157e" d="m345.85,420.15c.91,7.61,5.87,14.72,9.05,13.21"/>
            <path class="uuid-96cdae85-f99a-4a0f-95d8-b1bc7d69157e" d="m357.59,368.15c-3.91,1.27-8.46,10.57-8.46,10.57"/>
            <path class="uuid-96cdae85-f99a-4a0f-95d8-b1bc7d69157e" d="m365.77,376.93c.81,2.81.44,6.74.44,6.74"/>
            <path class="uuid-96cdae85-f99a-4a0f-95d8-b1bc7d69157e" d="m375.84,391.39c27.34-6.78,45.94-18.94,45.94-18.94"/>
            <path class="uuid-96cdae85-f99a-4a0f-95d8-b1bc7d69157e" d="m305.26,388.93c-6.9,3.88-16.96,13.38-16.96,13.38,0,0-25.89-1.45-53.64-14.61"/>
            <path class="uuid-96cdae85-f99a-4a0f-95d8-b1bc7d69157e" d="m183.69,356.75c-9.65-4.5-18.55-12.21-18.55-12.21"/>
            <path class="uuid-96cdae85-f99a-4a0f-95d8-b1bc7d69157e" d="m262.5,436.52c18.96,6,54.52,3,54.52,3"/>
          </g>
        </g>
      </g>
      <g>
        <path class="uuid-0b48c721-601b-4756-8adf-13ab8e5dc725" d="m285.23,402.04s-17.84,21.72-41.45,34.31c-1.22.65-2.65.72-3.94.23-3.16-1.2-9.47-3.76-15.46-7.2-1.38-.79-2.27-2.21-2.4-3.79-.15-1.88-.3-4.52-.2-6.81,0,0,6.05,3.63,8.47,4.89,0,0,20.86-10.28,33.34-25.64,0,0,13.46,3.25,21.64,3.99v.02Z"/>
        <g>
          <path class="uuid-0b48c721-601b-4756-8adf-13ab8e5dc725" d="m255.87,406.2c7.74,3.09,20.52,5.31,20.52,5.31"/>
          <path class="uuid-0b48c721-601b-4756-8adf-13ab8e5dc725" d="m245.98,414.29c8.29,4.28,19.77,6.99,19.77,6.99"/>
          <path class="uuid-0b48c721-601b-4756-8adf-13ab8e5dc725" d="m234.67,421.27c7.1,5.25,18.9,8.82,18.9,8.82"/>
        </g>
        <path class="uuid-96cdae85-f99a-4a0f-95d8-b1bc7d69157e" d="m230.25,423.68c-3.14,1.72-4.59,1.01-4.59,1.01"/>
      </g>
      <g>
        <path class="uuid-27c04b12-0ae4-4af0-a19e-b2b135b686cd" d="m160.3,324.43s21.12,15.53,34.57,21.27c0,0-29.63,28.9-30.64,31.83-1.01,2.93,7.1,18.21,7.1,18.21,0,0,9.38,10.52,31.32,9.96,0,0,15.57-3.8,17.09-4.3s26.8-25.18,26.8-25.18c0,0,33.1,13.52,58.72,12.71,0,0,27.78-16.72,52.33-20.78,4.83-.8,8.17,8.78,8.17,8.78,0,0,46.23-11.43,68.5-30.73l3.89-13.36s-32.3,16-38.39,18.77c-6.09,2.77-9.58,7.17-10.8,12.88,0,0-5.41-6.22-15.42-5.61-10.01.61-35.05,8.72-78.67.05-43.62-8.67-136.31-54.81-136.31-54.81,0,0-.17,10.86,1.73,20.31h0Z"/>
        <path class="uuid-ab7b286f-e419-4fb2-a5fd-590dc6c7d8f6" d="m190.52,349.97l1.21,3.1-5.62,1.26-4.35,4.34s.46,1.94,2.21,2.08,12.02-.38,12.02-.38l9.05,9.63c.93.99,2.58.41,2.7-.94l.57-6.56,4.99-.39c1.48-.12,1.98-2.02.76-2.86l-6.83-4.64-.29-5.46c-.06-1.04-1.1-1.74-2.08-1.39l-6.05,2.14-5.91-2.27-2.38,2.34h0Z"/>
        <g>
          <path class="uuid-27c04b12-0ae4-4af0-a19e-b2b135b686cd" d="m194.87,345.7c2.93-2.8,1.21-5.78,1.21-5.78"/>
          <path class="uuid-27c04b12-0ae4-4af0-a19e-b2b135b686cd" d="m246.54,376.22c4.15-4.15,7.69-3.44,7.69-3.44"/>
          <path class="uuid-27c04b12-0ae4-4af0-a19e-b2b135b686cd" d="m181.58,402.21c-.16-10.42-5.72-15.88-5.72-15.88"/>
          <path class="uuid-27c04b12-0ae4-4af0-a19e-b2b135b686cd" d="m188.66,404.42c15.82-16.77,20.79-12.53,20.97-10.15.3,3.93-6.57,5.11-6.57,5.11"/>
        </g>
      </g>
      <g>
        <path class="uuid-0b48c721-601b-4756-8adf-13ab8e5dc725" d="m163.88,276.21l-1.03,7.03s112.9,81.34,203.12,57.16c4.51-1.21,9.14,1.49,10.21,6.04l2.12,9.04c1.04,4.43-1.7,8.86-6.13,9.89-7.25,1.69-19.8,4-38.99,5.62-32.93,2.77-108.69-13.12-175.39-61.23-2.96-2.13-4.66-5.6-4.52-9.24l.52-13.84c.2-5.15,3.99-9.46,9.07-10.3l1.02-.17h0Z"/>
        <path class="uuid-0b48c721-601b-4756-8adf-13ab8e5dc725" d="m390.47,340.24l2.55,9.52c1.12,4.19,5.71,6.39,9.67,4.64,9.73-4.3,26.86-12.96,39.6-25.3,2.24-2.17,3.59-5.09,3.72-8.2l.62-14.43c.24-5.5-3.29-10.46-8.57-12.05h0l.07,9.15s-17.38,15.96-43.79,28.45c-3.1,1.47-4.74,4.92-3.85,8.23h-.02Z"/>
        <path class="uuid-96cdae85-f99a-4a0f-95d8-b1bc7d69157e" d="m162.84,283.24c-2.15-1.47-2.15-2.51-2.15-2.51"/>
        <path class="uuid-96cdae85-f99a-4a0f-95d8-b1bc7d69157e" d="m438.12,303.56c2.38-1.92,2.73-2.98,2.73-2.98"/>
      </g>
    </g>
  </g>
</svg>