<?xml version="1.0" encoding="UTF-8"?>
<svg id="uuid-4d992f25-65e2-4a32-a6e1-596ddfbdd3ff" data-name="BODY" xmlns="http://www.w3.org/2000/svg" viewBox="0 0 600 600">
  <defs>
    <style>
      .uuid-896ed296-de0f-4f4d-9681-5aa1e0f80ae7 {
        stroke-miterlimit: 10;
      }

      .uuid-896ed296-de0f-4f4d-9681-5aa1e0f80ae7, .uuid-fb83b51f-63b3-4212-833f-d85b76d5a2ea, .uuid-d8a18d37-560b-40df-8de7-759185c03477 {
        stroke: #000;
        stroke-width: 2px;
      }

      .uuid-896ed296-de0f-4f4d-9681-5aa1e0f80ae7, .uuid-d8a18d37-560b-40df-8de7-759185c03477 {
        fill: #00dfa9;
      }

      .uuid-fb83b51f-63b3-4212-833f-d85b76d5a2ea {
        fill: #00dea8;
      }

      .uuid-fb83b51f-63b3-4212-833f-d85b76d5a2ea, .uuid-d8a18d37-560b-40df-8de7-759185c03477 {
        stroke-linecap: round;
        stroke-linejoin: round;
      }
    </style>
  </defs>
  <g id="uuid-37043ada-76be-4d1b-a230-98c0546db05d" data-name="cloath">
    <path class="uuid-896ed296-de0f-4f4d-9681-5aa1e0f80ae7" d="m475.37,333.6l-.67.23-18.19,6.17c-2.14.72-4.45.71-6.59-.02l-14.53-5.13-.84-.31c-1.28,9.01-3.34,22.43-5.9,35.7,8.27,3.18,17.18,6.45,23.95,8.54,2.11.65,4.41.69,6.5-.04,8.64-2.99,19.91-7.72,27.11-10-5.49-14.17-8.97-27.13-10.85-35.15Z"/>
    <path class="uuid-fb83b51f-63b3-4212-833f-d85b76d5a2ea" d="m389.96,395.83c.5,4.15.99,8.37,1.44,12.46,11.91,13.09,18.41,19.44,18.41,19.44,0,0,2.52-4.53,7.85-9,2.33-9.7,5.36-22.52,8.28-35.44,5.93-26.21,10.09-59.65,10.09-59.65l-58.59,43.63s9.92,7.1,12.53,28.55Z"/>
    <path class="uuid-fb83b51f-63b3-4212-833f-d85b76d5a2ea" d="m229.38,322.79c-22.2-11.38-65.51-50.43-65.51-50.43,0,0-16.23,68.13-9.71,140.58,2.57,1.21,5.13,2.38,7.68,3.52,2.63-1.94,4.79-2.09,4.79-2.09,0,0,5.41-21.77,8.55-33.44.57-2.14,1.73-4.09,3.39-5.55,10.18-8.88,27.47-23.84,35.52-29.67l23.09,23.85-29.38,24.3c-1.75,1.43-2.97,3.39-3.49,5.59l-6.17,23.11c8.2-.97,13.79,4.99,14.82,12.21,66.61,18.53,119.01,13.83,119.01,13.83,0,0,18.43-66.82,37.77-80.41-68.91-16.49-81.39-15.13-140.38-45.38Z"/>
    <path class="uuid-d8a18d37-560b-40df-8de7-759185c03477" d="m219.04,338.63c-8.05,5.83-31.04,24.25-41.22,33.13-1.67,1.45-2.82,3.41-3.39,5.55-1.89,7.03-4.6,17.71-6.46,25.1,3.49.59,9.59,2.09,17.16,5.88s15.2,7.66,19.3,9.74l4.87-18.24c.51-2.2,1.74-4.16,3.49-5.59l28.69-22.43"/>
    <circle class="uuid-fb83b51f-63b3-4212-833f-d85b76d5a2ea" cx="173.5" cy="387.84" r="8.9"/>
    <g>
      <path class="uuid-fb83b51f-63b3-4212-833f-d85b76d5a2ea" d="m365.71,370.05c0-2.38.94-4.54,2.47-6.14-36.47-3.56-107.71-32.49-135.31-50.98-29.4-19.7-64.67-54.67-64.67-54.67,0,0-7.58,4.34-6.36,23.82,16.08,31.85,61.46,83.03,61.46,83.03l53.91-16.78-7.39,45.48s33.27-4.01,54.62-9.13c19.17-4.59,35.64-8.53,42.39-10.31-.71-1.28-1.12-2.75-1.12-4.32Z"/>
      <path class="uuid-fb83b51f-63b3-4212-833f-d85b76d5a2ea" d="m438.28,298.43s-9.6,21.32-26.38,38.85c-9.15,9.56-25.57,20.93-32.29,25.42,2.34,1.6,3.88,4.29,3.88,7.35,0,1.17-.23,2.29-.64,3.31,10.42-2.02,33.64-8.21,49.69-25.01,8.17-22.96,5.74-49.91,5.74-49.91Z"/>
      <circle class="uuid-fb83b51f-63b3-4212-833f-d85b76d5a2ea" cx="374.6" cy="370.05" r="8.9"/>
    </g>
    <path d="m436.13,335.09c-.88,4.42-2.04,8.91-3.59,13.26-.03.03-.06.06-.09.09-1.08,6.81-2.37,14.4-3.83,21.93,2.65.99,5.17,1.94,7.4,2.76,3.26-12,5.61-23.22,7.96-35.22l-7.85-2.83Z"/>
    <path d="m207.37,394.72l34.83-22.3-38.87,49.43c-1.04-.39-2.74-.39-3.99-.28,2.43-8.59,6.17-23.11,8.04-26.85Z"/>
  </g>
</svg>