<?xml version="1.0" encoding="UTF-8"?>
<svg id="BACKGROUND" xmlns="http://www.w3.org/2000/svg" viewBox="0 0 600 600">
  <defs>
    <style>
      .cls-1 {
        fill: #ffff0d;
        stroke: #000;
        stroke-linecap: round;
        stroke-linejoin: round;
        stroke-width: 2px;
      }
    </style>
  </defs>
  <path class="cls-1" d="m375.86,319.37c-14.26,7.96-19.36,25.98-11.4,40.24,7.96,14.26,25.98,19.36,40.24,11.4,14.26-7.96,19.36-25.98,11.4-40.24-7.96-14.26-25.98-19.36-40.24-11.4Zm-.03,6.32l10.52,18.84-6.41,22.61c-4.44-2.08-8.29-5.52-10.86-10.12-6.02-10.78-2.93-24.18,6.75-31.33Zm9.99,43.35l4.79-16.89,8.69,15.57c-4.39,1.76-9.06,2.15-13.48,1.32Zm18.87-4.32l-8.9-15.94,17.51,4.1c-1.55,4.62-4.47,8.8-8.6,11.84Zm9.8-17.89l-22.77-5.34-10.5-18.81c11.18-4.52,24.23-.12,30.26,10.68,2.38,4.26,3.33,8.94,3.02,13.47Z"/>
  <circle class="cls-1" cx="420.18" cy="318.72" r="8.31"/>
  <circle class="cls-1" cx="436.89" cy="310.38" r="8.31"/>
  <circle class="cls-1" cx="350.39" cy="343.04" r="8.31"/>
  <circle class="cls-1" cx="332" cy="346.35" r="8.31"/>
  <circle class="cls-1" cx="313.56" cy="349.17" r="8.31"/>
  <circle class="cls-1" cx="295.1" cy="351.34" r="8.31"/>
  <circle class="cls-1" cx="276.49" cy="352.43" r="8.31"/>
  <circle class="cls-1" cx="257.85" cy="352.14" r="8.31"/>
  <circle class="cls-1" cx="239.26" cy="352.14" r="8.31"/>
  <circle class="cls-1" cx="220.83" cy="349.72" r="8.31"/>
  <circle class="cls-1" cx="202.35" cy="347.91" r="8.31"/>
  <circle class="cls-1" cx="184.1" cy="344.29" r="8.31"/>
  <circle class="cls-1" cx="165.96" cy="340.27" r="8.31"/>
</svg>