<?xml version="1.0" encoding="UTF-8"?>
<svg id="uuid-ccfb0941-69b9-4c97-afb5-674e223b45ef" data-name="BODY" xmlns="http://www.w3.org/2000/svg" viewBox="0 0 600 600">
  <defs>
    <style>
      .uuid-4b46832d-4175-4675-8770-222b464018b3 {
        fill: #fff;
        stroke: #000;
        stroke-miterlimit: 10;
        stroke-width: 2px;
      }
    </style>
  </defs>
  <path class="uuid-4b46832d-4175-4675-8770-222b464018b3" d="m234.82,145.43c-9.89-21.59-45.38-26.51-79.27-10.99-33.89,15.52-53.35,45.61-43.46,67.2,9.99,21.81,39.44,22.36,59.43,17.73,4.99-1.16,10.09-2.59,14.83-4.51,5.26-2.14,11.16-6.03,16.85-3.03,2.88,1.52,17.21,8.41,19.06,3.74.88-2.24-2.6-4.93-3.79-6.4-2.06-2.55-3.15-5.62-2.69-8.93.52-3.73,3.23-6.58,5.75-9.17,3.01-3.1,5.82-6.19,8.14-9.86,6.51-10.31,10.47-24.16,5.15-35.78Z"/>
  <g>
    <path d="m127.75,172.06l9.21-5.77c8.29-5.19,15.28-3.59,18.93,2.23s2.16,12.32-6.44,17.7l.58.92c8.91-5.58,15.9-3.98,19.93,2.46,4.27,6.81,2.5,14.23-6.09,19.62l-9.21,5.77-26.91-42.94Zm19.52,9.98c1.9-1.19,2.34-3.09.19-6.52-2.15-3.44-4.05-3.87-5.95-2.68l-.31.19,5.77,9.2.31-.19Zm12.69,20.24c2.15-1.35,2.76-3.78.03-8.14-2.5-3.99-5-4.56-7.15-3.21l-.31.19,7.11,11.35.31-.19Z"/>
    <path d="m163.88,160.53l-6.76,4.23-5-7.97,22.73-14.24,5,7.97-6.76,4.23,21.91,34.96-9.21,5.77-21.91-34.96Z"/>
    <path d="m205.87,159l8.29-5.19c.33.39.72.74,1.11,1.1.68.68,1.5,1.71,2.38,3.12,5.38,8.59,3.54,16.57-1.98,20.04-6.45,4.04-15.44,1.98-26.01-14.89-10.57-16.87-8.5-25.85-2.05-29.89,5.53-3.46,13.52-1.63,18.9,6.95.88,1.41,1.45,2.59,1.77,3.5.15.51.29,1.01.5,1.48l-8.29,5.19-1.15-1.84c-5.07-8.1-6.43-8.36-7.23-7.86-1.17.73-1.41,2.25,7.39,16.3,8.8,14.05,10.28,14.49,11.45,13.76.8-.5,1.16-1.84-3.92-9.93l-1.15-1.84Z"/>
  </g>
</svg>