<?xml version="1.0" encoding="UTF-8"?>
<svg id="uuid-1374b8f1-e5aa-4e85-9b33-1bfc9e6b5ea5" data-name="BODY" xmlns="http://www.w3.org/2000/svg" viewBox="0 0 600 600">
  <defs>
    <style>
      .uuid-fab39758-67ee-4f08-9c60-c9b40f49b2a5 {
        fill: #fff;
        stroke: #000;
        stroke-miterlimit: 10;
        stroke-width: 2px;
      }
    </style>
  </defs>
  <path class="uuid-fab39758-67ee-4f08-9c60-c9b40f49b2a5" d="m234.82,145.43c-9.89-21.59-45.38-26.51-79.27-10.99-33.89,15.52-53.35,45.61-43.46,67.2,9.99,21.81,39.44,22.36,59.43,17.73,4.99-1.16,10.09-2.59,14.83-4.51,5.26-2.14,11.16-6.03,16.85-3.03,2.88,1.52,17.21,8.41,19.06,3.74.88-2.24-2.6-4.93-3.79-6.4-2.06-2.55-3.15-5.62-2.69-8.93.52-3.73,3.23-6.58,5.75-9.17,3.01-3.1,5.82-6.19,8.14-9.86,6.51-10.31,10.47-24.16,5.15-35.78Z"/>
  <g>
    <path d="m146.49,197.26l6.87-4.31c.27.32.6.62.92.91.57.57,1.24,1.42,1.98,2.59,4.46,7.12,2.93,13.74-1.65,16.61-5.35,3.35-12.8,1.65-21.56-12.34-8.76-13.98-7.05-21.43-1.7-24.78,4.58-2.87,11.21-1.36,15.67,5.76.73,1.17,1.21,2.15,1.47,2.9.12.42.24.84.42,1.23l-6.88,4.31-.96-1.52c-4.21-6.71-5.33-6.92-5.99-6.51-.97.61-1.17,1.87,6.12,13.51,7.3,11.64,8.52,12.01,9.49,11.4.66-.41.96-1.52-3.25-8.23l-.96-1.52Z"/>
    <path d="m154.29,187.42c-8.76-13.98-7.05-21.43-1.95-24.62,5.09-3.19,12.54-1.49,21.3,12.5,8.76,13.98,7.05,21.43,1.95,24.62-5.09,3.19-12.54,1.49-21.3-12.5Zm11.2-7.02c-7.3-11.64-8.57-11.98-9.33-11.5s-1.02,1.77,6.28,13.41c7.3,11.64,8.57,11.98,9.33,11.5.76-.48,1.02-1.77-6.28-13.41Z"/>
    <path d="m189.72,170.18l6.88-4.31c.27.32.6.62.92.91.57.57,1.24,1.42,1.97,2.59,4.46,7.12,2.94,13.74-1.65,16.61-5.35,3.35-12.8,1.65-21.56-12.34-8.76-13.98-7.05-21.43-1.7-24.78,4.58-2.87,11.21-1.36,15.67,5.76.73,1.17,1.21,2.15,1.47,2.9.12.42.24.84.41,1.23l-6.87,4.31-.96-1.52c-4.21-6.71-5.33-6.92-6-6.51-.97.61-1.17,1.87,6.13,13.51,7.3,11.64,8.52,12.01,9.49,11.4.66-.41.96-1.52-3.25-8.23l-.96-1.52Z"/>
    <path d="m197.52,160.34c-8.76-13.98-7.05-21.43-1.95-24.62,5.09-3.19,12.54-1.49,21.3,12.5,8.76,13.98,7.05,21.43,1.95,24.62-5.09,3.19-12.54,1.49-21.3-12.5Zm11.2-7.02c-7.3-11.64-8.57-11.98-9.33-11.5-.76.48-1.02,1.77,6.28,13.41,7.3,11.64,8.57,11.98,9.33,11.5s1.02-1.77-6.28-13.41Z"/>
  </g>
</svg>