<?xml version="1.0" encoding="UTF-8"?>
<svg id="uuid-8354892e-304a-4bd4-959d-5c4f6e20b28b" data-name="BODY" xmlns="http://www.w3.org/2000/svg" viewBox="0 0 600 600">
  <defs>
    <style>
      .uuid-7793b01c-8dd1-4091-814e-ffdf2b67875d {
        letter-spacing: .01em;
      }

      .uuid-e1d548a5-009a-49e8-b777-3d3a36cc33e9 {
        letter-spacing: 0em;
      }

      .uuid-ffd6e56e-2a53-4f11-b46f-271600776817 {
        fill: #fff;
        stroke: #000;
        stroke-miterlimit: 10;
        stroke-width: 2px;
      }

      .uuid-928929f5-9449-418a-bcbc-1f3dd1bbafed {
        font-family: TTTrailers-Black, 'TT Trailers';
        font-size: 72.38px;
        font-weight: 800;
      }
    </style>
  </defs>
  <path class="uuid-ffd6e56e-2a53-4f11-b46f-271600776817" d="m234.82,145.43c-9.89-21.59-45.38-26.51-79.27-10.99-33.89,15.52-53.35,45.61-43.46,67.2,9.99,21.81,39.44,22.36,59.43,17.73,4.99-1.16,10.09-2.59,14.83-4.51,5.26-2.14,11.16-6.03,16.85-3.03,2.88,1.52,17.21,8.41,19.06,3.74.88-2.24-2.6-4.93-3.79-6.4-2.06-2.55-3.15-5.62-2.69-8.93.52-3.73,3.23-6.58,5.75-9.17,3.01-3.1,5.82-6.19,8.14-9.86,6.51-10.31,10.47-24.16,5.15-35.78Z"/>
  <text class="uuid-928929f5-9449-418a-bcbc-1f3dd1bbafed" transform="translate(155.68 216.15) rotate(-32.07) skewX(.01)"><tspan class="uuid-e1d548a5-009a-49e8-b777-3d3a36cc33e9" x="0" y="0">L</tspan><tspan class="uuid-7793b01c-8dd1-4091-814e-ffdf2b67875d" x="22.94" y="0">OL</tspan></text>
</svg>