<?xml version="1.0" encoding="UTF-8"?>
<svg id="uuid-e082c6f6-d81a-4462-bda6-1af344954f9c" data-name="BODY" xmlns="http://www.w3.org/2000/svg" viewBox="0 0 600 600">
  <defs>
    <style>
      .uuid-2c77fae7-f895-4bf5-85cd-b6073fa59878 {
        fill: #fff;
        stroke: #000;
        stroke-miterlimit: 10;
        stroke-width: 2px;
      }
    </style>
  </defs>
  <path class="uuid-2c77fae7-f895-4bf5-85cd-b6073fa59878" d="m234.82,145.43c-9.89-21.59-45.38-26.51-79.27-10.99-33.89,15.52-53.35,45.61-43.46,67.2,9.99,21.81,39.44,22.36,59.43,17.73,4.99-1.16,10.09-2.59,14.83-4.51,5.26-2.14,11.16-6.03,16.85-3.03,2.88,1.52,17.21,8.41,19.06,3.74.88-2.24-2.6-4.93-3.79-6.4-2.06-2.55-3.15-5.62-2.69-8.93.52-3.73,3.23-6.58,5.75-9.17,3.01-3.1,5.82-6.19,8.14-9.86,6.51-10.31,10.47-24.16,5.15-35.78Z"/>
  <g>
    <path d="m148.46,190.92c-10.57-16.87-8.5-25.85-2.36-29.7,6.14-3.85,15.13-1.79,25.7,15.08,10.57,16.87,8.5,25.85,2.36,29.7-6.14,3.85-15.13,1.79-25.7-15.08Zm13.51-8.46c-8.8-14.05-10.34-14.45-11.26-13.87-.92.58-1.23,2.14,7.57,16.18,8.8,14.05,10.34,14.45,11.26,13.87.92-.58,1.23-2.14-7.58-16.18Z"/>
    <path d="m196.68,161.13c.47.47,1.01,1.07,1.62,1.63.98,1.01,2.3,2.58,3.53,4.54,6.57,10.49,4.7,18.41-.83,21.88-6.45,4.04-15.44,1.98-26.01-14.89-10.57-16.87-8.5-25.85-2.05-29.89,5.53-3.46,13.52-1.63,18.9,6.95.88,1.41,1.45,2.59,1.77,3.5.15.51.29,1.01.5,1.48l-8.29,5.19-1.15-1.84c-5.07-8.1-6.43-8.36-7.23-7.86-1.17.73-1.41,2.25,7.39,16.3l.19.31,11.67-7.31Zm-7.83,13.44c5.07,7.41,6.43,7.93,7.41,7.32.8-.5,1.16-1.84-3.72-9.63l-3.69,2.31Z"/>
  </g>
</svg>