<?xml version="1.0" encoding="UTF-8"?>
<svg xmlns="http://www.w3.org/2000/svg" viewBox="0 0 600 600">
<svg id="uuid-c55b6f18-22d9-42e7-94a5-9418063ab399" data-name="BACKGROUND" xmlns="http://www.w3.org/2000/svg" viewBox="0 0 600 600"><defs><style>
      .uuid-65b83bcd-5755-41b5-8f46-23c20c164524 {
        fill: #9dff0c;
      }
    </style></defs><rect class="uuid-65b83bcd-5755-41b5-8f46-23c20c164524" x="-1" y="-1" width="602" height="602"/></svg>
<svg id="uuid-da5b8a35-a9b2-4004-9217-4254ce55b3fe" data-name="BODY" xmlns="http://www.w3.org/2000/svg" viewBox="0 0 600 600"><defs><style>
      .uuid-ec25118f-3915-43af-9dc5-5d64b7ba66c4 {
        fill: #fff;
      }

      .uuid-73059a94-03d4-49d7-a031-ef6b59ff4553, .uuid-813f35b8-d70c-4735-9e7c-d217ddabbc48, .uuid-3c21801f-90f4-41ce-bd53-f460193f8c05, .uuid-382536b8-ade7-4abe-aa61-124cac12416d, .uuid-72d6c9e3-e040-49a4-ab2c-cf903abb3d52 {
        stroke: #000;
        stroke-width: 2px;
      }

      .uuid-73059a94-03d4-49d7-a031-ef6b59ff4553, .uuid-813f35b8-d70c-4735-9e7c-d217ddabbc48, .uuid-382536b8-ade7-4abe-aa61-124cac12416d, .uuid-72d6c9e3-e040-49a4-ab2c-cf903abb3d52 {
        fill: #3ef1ff;
      }

      .uuid-73059a94-03d4-49d7-a031-ef6b59ff4553, .uuid-3c21801f-90f4-41ce-bd53-f460193f8c05, .uuid-382536b8-ade7-4abe-aa61-124cac12416d {
        stroke-linecap: round;
      }

      .uuid-73059a94-03d4-49d7-a031-ef6b59ff4553, .uuid-3c21801f-90f4-41ce-bd53-f460193f8c05, .uuid-72d6c9e3-e040-49a4-ab2c-cf903abb3d52 {
        stroke-linejoin: round;
      }

      .uuid-813f35b8-d70c-4735-9e7c-d217ddabbc48, .uuid-382536b8-ade7-4abe-aa61-124cac12416d {
        stroke-miterlimit: 10;
      }

      .uuid-3c21801f-90f4-41ce-bd53-f460193f8c05 {
        fill: none;
      }
    </style></defs><ellipse cx="300" cy="518.65" rx="138.6" ry="22.93"/><g><path class="uuid-813f35b8-d70c-4735-9e7c-d217ddabbc48" d="m319.36,427.14c-1.16,1.05-54.95,57-54.95,57,0,0,21.51-1.95,31.74,10.62,10.23,12.57,7.26,23.89,7.26,23.89h-66.9s-28.69-36.17-28.69-36.17c0,0,3.74-13.4,20.44-10.59,20.9-19.38,55.52-59.13,55.52-59.13l35.59,14.38Z"/><path d="m283.78,412.76l31.28,12.64-3.24,9.5c-2.93,3.03-9.76,10.12-13.64,14.14-11.92,0-27.98-2.13-41.33-6.37,13.95-15.1,26.93-29.92,26.93-29.92Z"/></g><g><path class="uuid-73059a94-03d4-49d7-a031-ef6b59ff4553" d="m409.81,359.6c9.2,3.77,29.89,12.05,42.79,16.03,2.11.65,4.41.69,6.5-.04,11.79-4.08,28.47-11.39,33.03-11.32,5.25.08,7.8,3.93,19.88,2.04,13.36-2.1,22.43-11.99,20.93-23.3-4.21-43.28-25.18-26.79-25.18-26.79,0,0-5.84-8.75-18.76-4.82-11.83,3.6-10.2,14.44-6.47,22.47l-25.29,8.58c-2.14.72-4.45.71-6.59-.02l-35.7-12.61"/><path class="uuid-382536b8-ade7-4abe-aa61-124cac12416d" d="m533.36,312.82c2.5,3.94,1.62,9.14-1.57,12.4-2.47,2.53-5.88,3.88-9.32,4.4-2.8.43-5.7.42-8.49-.08-2.14-.39-4.29-1.1-5.79-2.75-1.66-1.83-2.27-4.46-1.98-6.87.51-4.17,3.84-7.14,7.22-9.26,3.17-1.98,6.86-3.26,10.64-3.09,3.8.18,7.36,2.19,9.3,5.24Z"/><path class="uuid-382536b8-ade7-4abe-aa61-124cac12416d" d="m538.57,349.84c.97,3.03.32,6.43-1.5,9.01-3.77,5.33-11.17,5.65-16.96,4.27-3.31-.79-6.69-2.21-8.67-5.13-3.13-4.61-.82-9.79,3.48-12.56,2.58-1.66,5.61-2.67,8.63-3.14,5.73-.89,13.1,1.51,15.03,7.56Z"/><path class="uuid-382536b8-ade7-4abe-aa61-124cac12416d" d="m538.71,328.53c1.8,2.99,2.06,6.89.22,9.9-1.95,3.2-4.94,5.25-8.49,6.28-3.66,1.07-7.64,1.27-11.4.44-2.25-.5-4.53-1.38-5.96-3.28-1.86-2.47-1.89-5.68-.85-8.49,1.2-3.24,4.17-5.69,7.09-7.37,6.15-3.56,15.21-4.43,19.39,2.52Z"/><path class="uuid-382536b8-ade7-4abe-aa61-124cac12416d" d="m501.85,311.68s9.27,3.84,7.77,12.02c-1.04,5.68-8.17,9.55-14.94,6.13"/><path class="uuid-3c21801f-90f4-41ce-bd53-f460193f8c05" d="m500.67,331.08c2.41,1.63,5.11,8.04,3.4,14.42"/><path d="m443.44,339.88c-2.88,10.58-6.94,20.23-11.17,28.59-10.17-3.78-21.16-9.53-27-11.93l11.83-26.02,26.35,9.36Z"/></g><g><circle class="uuid-813f35b8-d70c-4735-9e7c-d217ddabbc48" cx="300" cy="300" r="138.16"/><path class="uuid-ec25118f-3915-43af-9dc5-5d64b7ba66c4" d="m184.58,308.17c-4.41,0-7.98-3.57-7.98-7.98,0-67.74,55.11-122.86,122.86-122.86,4.41,0,7.98,3.57,7.98,7.98s-3.57,7.98-7.98,7.98c-58.94,0-106.9,47.95-106.9,106.9,0,4.41-3.57,7.98-7.98,7.98Z"/></g><path class="uuid-3c21801f-90f4-41ce-bd53-f460193f8c05" d="m264.41,484.14c-4.06.49-11.49,1.36-17.85,7.23"/><path class="uuid-ec25118f-3915-43af-9dc5-5d64b7ba66c4" d="m185.17,308.14c-4.41,0-7.98-3.57-7.98-7.98,0-67.74,55.11-122.86,122.86-122.86,4.41,0,7.98,3.57,7.98,7.98s-3.57,7.98-7.98,7.98c-58.94,0-106.9,47.95-106.9,106.9,0,4.41-3.57,7.98-7.98,7.98Z"/><path d="m203.75,397.46l34.2-27.46-24.86,36.3c-6.73-5.1-3.66-2.61-9.34-8.83Z"/><path class="uuid-72d6c9e3-e040-49a4-ab2c-cf903abb3d52" d="m323.72,387.31c19.14-13.4,39.15-11.3,55.52,7.36,19.6,22.35,30.57,33.06,30.57,33.06,0,0,10.74-19.34,34.77-17.5,18.26,1.4,24.84,14.43,24.84,14.43,0,0,6.21,8.82-22.45,33.5-28.66,24.68-54.93,40.92-61.14,29.46-6.21-11.46-2.82-32.1-2.82-32.1,0,0-22.02-26.09-27.94-32.01-6.79-6.79-15.71-1.36-15.71-1.36"/><path class="uuid-813f35b8-d70c-4735-9e7c-d217ddabbc48" d="m446.97,458.17c-25.89,22.29-49.82,37.69-58.79,32.02-9.77-7.44,26.84-38.54,44.88-52.7,18.04-14.16,32.17-17.82,36.36-12.81,0,0,6.21,8.82-22.45,33.5Z"/><path class="uuid-3c21801f-90f4-41ce-bd53-f460193f8c05" d="m409.81,427.74c-1.89,2.86-4.55,10.38-4.55,10.38"/><g><path class="uuid-73059a94-03d4-49d7-a031-ef6b59ff4553" d="m214.11,345.7c-8.05,5.83-25.34,20.79-35.52,29.67-1.67,1.45-2.82,3.41-3.39,5.55-3.14,11.67-8.55,33.44-8.55,33.44,0,0-8.42.58-12.19,14.35-3.64,13.3-6.64,25.06,3.77,29.75.35,7.47,7.51,15.45,19.2,9.41.14-.06,1.32,1.32,1.44,1.45,2.64,2.7,6.36,4.45,10.13,4.81,3.65.36,7.61-.67,10.43-3.08,3.29-2.81,5.4-6.94,6.05-11.2.4-2.61.26-5.31-.75-7.78,0,0,6.2-2.51,8.05-11.34,1.99-9.49-4.22-19.42-14.62-18.18l6.17-23.11c.51-2.2,1.74-4.16,3.49-5.59l29.38-24.3"/><path class="uuid-3c21801f-90f4-41ce-bd53-f460193f8c05" d="m204.73,452.06c-1.37-3.47-5.39-7.08-9-6.88"/><path class="uuid-3c21801f-90f4-41ce-bd53-f460193f8c05" d="m178.86,469.3c-5.16-5.27-3.82-11.97-2.9-13.54"/><path class="uuid-3c21801f-90f4-41ce-bd53-f460193f8c05" d="m158.22,458.45c-.27-5.22.73-7.32,3.06-9.83"/><path class="uuid-3c21801f-90f4-41ce-bd53-f460193f8c05" d="m193.93,450.63c.14-2.07.48-4.16,1.32-6.06.85-1.95,2.36-3.88,4.31-4.85"/></g></svg>
<svg id="uuid-6a02459f-1b68-443c-bd4b-7b11b7abbe5a" data-name="BODY" xmlns="http://www.w3.org/2000/svg" viewBox="0 0 600 600"><defs><style>
      .uuid-f630b38e-3266-47b2-bfbc-f2260501e18f {
        fill: #ff78d8;
        stroke: #000;
        stroke-linecap: round;
        stroke-linejoin: round;
        stroke-width: 2px;
      }
    </style></defs><circle cx="362.12" cy="293.18" r="9.78" transform="translate(-9.59 12.26) rotate(-1.91)"/><path class="uuid-f630b38e-3266-47b2-bfbc-f2260501e18f" d="m337.57,261.14c-1.59,1.06-2.46,2.67-2.79,4.19-.28,1.29-1.56,2.12-2.85,1.86-1.5-.3-3.22-.16-4.8.89-2.88,1.92-3.44,6.16-1.23,9.48,3.99,6.01,12.54,6.76,17.83,6.27.82-.08,1.55-.56,1.94-1.29,2.5-4.69,5.12-12.85,1.13-18.86-2.2-3.32-6.33-4.45-9.21-2.54Z"/><path class="uuid-f630b38e-3266-47b2-bfbc-f2260501e18f" d="m371.18,249c-1.81.61-3.07,1.94-3.79,3.32-.6,1.17-2.05,1.64-3.24,1.06-1.37-.67-3.07-1-4.87-.39-3.28,1.1-4.92,5.06-3.65,8.83,2.29,6.84,10.35,9.79,15.59,10.69.82.14,1.64-.14,2.21-.74,3.64-3.88,8.28-11.08,5.99-17.92-1.27-3.78-4.96-5.94-8.24-4.84Z"/></svg>
<svg id="uuid-a9ec8817-2407-47e3-b451-30ded90b5961" data-name="BACKGROUND" xmlns="http://www.w3.org/2000/svg" xmlns:xlink="http://www.w3.org/1999/xlink" viewBox="0 0 600 600"><defs><style>
      .uuid-38147cdf-a163-4f62-b3ec-fbcafbd26544, .uuid-c3665144-c5cd-4a6e-8bcd-77622d93734e, .uuid-90c49120-ed8c-4549-b597-935fb43d9a5c, .uuid-37f640f1-0b58-490d-aa0c-c6db63473e01, .uuid-0b44583d-d0ab-401d-bf44-3fab20b4cfe3, .uuid-7a856aa2-b511-4b15-8b44-65c14813becd, .uuid-c5531e56-35be-4489-bfa4-2d18d1c48b9a {
        fill: none;
      }

      .uuid-c3665144-c5cd-4a6e-8bcd-77622d93734e, .uuid-08975e20-1e06-470a-a6ad-274a08437e44, .uuid-90c49120-ed8c-4549-b597-935fb43d9a5c, .uuid-57a4487c-ab0d-45e7-bcdb-31380f7058fe, .uuid-37f640f1-0b58-490d-aa0c-c6db63473e01 {
        stroke: #000;
        stroke-linecap: round;
        stroke-linejoin: round;
      }

      .uuid-08975e20-1e06-470a-a6ad-274a08437e44 {
        fill: #353434;
      }

      .uuid-08975e20-1e06-470a-a6ad-274a08437e44, .uuid-90c49120-ed8c-4549-b597-935fb43d9a5c, .uuid-57a4487c-ab0d-45e7-bcdb-31380f7058fe, .uuid-37f640f1-0b58-490d-aa0c-c6db63473e01 {
        stroke-width: 2px;
      }

      .uuid-90c49120-ed8c-4549-b597-935fb43d9a5c {
        stroke-dasharray: 0 0 0 4;
      }

      .uuid-a7665a25-b1d6-4816-87d4-f1f8d0a00c6b {
        fill: #f9a723;
      }

      .uuid-a18afeca-8b09-4f0f-acfd-b939a492045c, .uuid-57a4487c-ab0d-45e7-bcdb-31380f7058fe {
        fill: #fff7f0;
      }

      .uuid-0b44583d-d0ab-401d-bf44-3fab20b4cfe3 {
        clip-path: url(#uuid-41d8c490-a2b5-4ce3-9120-3480010acea7);
      }

      .uuid-7a856aa2-b511-4b15-8b44-65c14813becd {
        clip-path: url(#uuid-86749df8-09be-4d89-a9e5-b30073c7eb55);
      }

      .uuid-c5531e56-35be-4489-bfa4-2d18d1c48b9a {
        clip-path: url(#uuid-c95a0056-7a63-4914-89d6-429f2c9f02dd);
      }
    </style><clipPath id="uuid-86749df8-09be-4d89-a9e5-b30073c7eb55"><path class="uuid-38147cdf-a163-4f62-b3ec-fbcafbd26544" d="m236.72,508.58l-27.63-35.34c-.99-1.27-2.89-1.3-3.93-.08l-4.54,5.35c-1.19,1.4-1.23,3.44-.1,4.88l29.22,37.38c1.22,1.56,3.1,2.48,5.08,2.48h71.09c1.33,0,2.41-1.08,2.41-2.41v-8.19c0-1.33-1.08-2.41-2.41-2.41h-65.78c-1.34,0-2.6-.62-3.42-1.67h0Z"/></clipPath><clipPath id="uuid-41d8c490-a2b5-4ce3-9120-3480010acea7"><path class="uuid-38147cdf-a163-4f62-b3ec-fbcafbd26544" d="m469.32,415.42c-.66-.63-1.59-.86-2.47-.62-5.87,1.59-29.25,8.95-53.86,30.76-23.28,20.64-30.4,35.59-32.22,40.34-.37.98-.27,2.06.31,2.94,1.37,2.1,4.19,6.25,6.89,9.08,4.73,4.98,26.38-2.07,55.09-27.69,28.72-25.62,37.69-40.52,34.25-45.67-2.52-3.77-6.2-7.44-7.99-9.14h0Z"/></clipPath><clipPath id="uuid-c95a0056-7a63-4914-89d6-429f2c9f02dd"><path class="uuid-38147cdf-a163-4f62-b3ec-fbcafbd26544" d="m477.9,426.07h0c-.62-4.79-20.55-1.28-53.98,25.69-33.41,26.94-37.41,45.67-34.1,47.26,7.15,2.33,27.31-5.65,53.25-28.79,24.07-21.47,34.26-35.41,34.9-42.4,0-.73,0-1.33-.07-1.76h0Z"/></clipPath></defs><g id="uuid-ba66d85f-07fa-4fc3-953c-f19e41c3212a" data-name="uuid-26a6d1fb-7a7a-43d6-9d7d-4988c6494f43"><g><g><path class="uuid-08975e20-1e06-470a-a6ad-274a08437e44" d="m232.09,463.9l-4.76,4.74s-12.85-2.78-19.77,7.48l29.07,36.91h68.51s.65-17.01-14.04-25.82c-8.29-5.06-18.57-5.38-18.57-5.38,0,0,.59-5.4-10.04-6.52-6.71-.71-10.69-1.45-11.43,5.09-3.34-.74-3.38.51-4.52.47-12.74-5.97-14.45-16.98-14.45-16.98h0Z"/><path class="uuid-57a4487c-ab0d-45e7-bcdb-31380f7058fe" d="m224.97,486.65l8.84,6.43c1.34.98,2.96,1.51,4.63,1.51h1.91c1.22,0,2.42.28,3.51.83l13.47,6.72c2.02,1.01,4.44.71,6.16-.75l4.2-3.56s-2.45-1.65-5.37-3.34c-.93.79-2.49,2.38-2.49,2.38-.47.45-1.18.54-1.75.23l-13.14-7.28c-1.17-.65-2.48-.99-3.81-.99h-1.5c-1.68,0-3.31-.54-4.66-1.53l-9.07-6.67-.92,6.03h0Z"/><g><path class="uuid-37f640f1-0b58-490d-aa0c-c6db63473e01" d="m224.03,468.31c5.12,10.55-1.65,27.23-1.65,27.23"/><path class="uuid-37f640f1-0b58-490d-aa0c-c6db63473e01" d="m272.94,501.95s-10.29-10.01-26.93-13.68c0,0-.04-4.76.53-7.38"/><path class="uuid-37f640f1-0b58-490d-aa0c-c6db63473e01" d="m251.06,480.41c-.2,1.65,0,4.68,0,4.68,0,0,14.89,1.67,24.77,11.68"/><path class="uuid-90c49120-ed8c-4549-b597-935fb43d9a5c" d="m233.41,508.95c11.41-5.97,21.79-.21,38.23-2.92"/><path class="uuid-37f640f1-0b58-490d-aa0c-c6db63473e01" d="m292.35,488.02c-19.07,2.22-21.4,18.25-21.65,25.02"/><path class="uuid-37f640f1-0b58-490d-aa0c-c6db63473e01" d="m244.42,489.63c5.92-5.31,14.38-9.03,28.11-7.79"/></g><g><path class="uuid-57a4487c-ab0d-45e7-bcdb-31380f7058fe" d="m272.79,481.86s-1.22-4.06-6.78-4.06c-7.86,0-12.12,6.94-13.58,9.53-1.46,2.58,2.88,4.92,4.88,1.92,4.3-6.42,6.78-7.15,8.16-7.61,3.05-.17,7.32.21,7.32.21h0Z"/><path class="uuid-57a4487c-ab0d-45e7-bcdb-31380f7058fe" d="m286.4,484.77s-.85-4.3-6.5-4.83c-7.98-.74-12.97,6.03-14.7,8.56-1.73,2.53,2.45,5.35,4.77,2.44,4.98-6.23,9.01-7.6,10.46-7.94,1.97.42,5.97,1.76,5.97,1.76h0Z"/></g><g><path class="uuid-a18afeca-8b09-4f0f-acfd-b939a492045c" d="m236.72,508.58l-27.63-35.34c-.99-1.27-2.89-1.3-3.93-.08l-4.54,5.35c-1.19,1.4-1.23,3.44-.1,4.88l29.22,37.38c1.22,1.56,3.1,2.48,5.08,2.48h71.09c1.33,0,2.41-1.08,2.41-2.41v-8.19c0-1.33-1.08-2.41-2.41-2.41h-65.78c-1.34,0-2.6-.62-3.42-1.67h0Z"/><g class="uuid-7a856aa2-b511-4b15-8b44-65c14813becd"><g><path class="uuid-37f640f1-0b58-490d-aa0c-c6db63473e01" d="m233.72,513.58l-31.07-39.51c-.99-1.27-2.89-1.3-3.93-.08l-4.54,5.35c-1.19,1.4-1.23,3.44-.1,4.88l32.66,41.55c1.22,1.56,3.1,2.48,5.08,2.48h78.32c1.33,0,2.41-1.08,2.41-2.41v-8.19c0-1.33-1.08-2.41-2.41-2.41h-73c-1.34,0-2.6-.62-3.42-1.67h0Z"/><path class="uuid-37f640f1-0b58-490d-aa0c-c6db63473e01" d="m257.13,515.25c-4.65,4.53-7.01,15.59-7.01,15.59"/><path class="uuid-c3665144-c5cd-4a6e-8bcd-77622d93734e" d="m203.87,471.28l31.75,40.14c.73.92,1.83,1.45,3,1.45h72.64"/></g></g><path class="uuid-37f640f1-0b58-490d-aa0c-c6db63473e01" d="m236.72,508.58l-27.63-35.34c-.99-1.27-2.89-1.3-3.93-.08l-4.54,5.35c-1.19,1.4-1.23,3.44-.1,4.88l29.22,37.38c1.22,1.56,3.1,2.48,5.08,2.48h71.09c1.33,0,2.41-1.08,2.41-2.41v-8.19c0-1.33-1.08-2.41-2.41-2.41h-65.78c-1.34,0-2.6-.62-3.42-1.67h0Z"/></g></g><g><path class="uuid-08975e20-1e06-470a-a6ad-274a08437e44" d="m374.29,449.88l5.62,6.52s-3.17,17.71,2.54,31.11c0,0,5.33-16.06,31.48-39.12,26.16-23.06,53.73-30.88,53.73-30.88,0,0-10.6-11.39-29.3-10.31-18.7,1.08-28.7,15.35-28.7,15.35l-7.34-6.97c-1.07-.79-2.2-1.09-3.35-.95-2.22.27-4.71,2.12-8.72,5.16-.66.5-.78,1.46-.26,2.11l1.05,1.3s-16.35,11.66-16.75,26.68h0Z"/><g><path class="uuid-37f640f1-0b58-490d-aa0c-c6db63473e01" d="m438.37,407.2c-12.71,7.85-5.52,21.67-3.18,25.5"/><path class="uuid-37f640f1-0b58-490d-aa0c-c6db63473e01" d="m387.04,426.55l16.04,14.9s14.31-12.47,28.39-17.83"/><path class="uuid-37f640f1-0b58-490d-aa0c-c6db63473e01" d="m431.04,419.33c-13.06,3.21-27.36,15.6-27.36,15.6l-12.64-11.73"/><path class="uuid-37f640f1-0b58-490d-aa0c-c6db63473e01" d="m379.19,462.98c7.61-4.75,16.48,0,16.48,0"/><path class="uuid-57a4487c-ab0d-45e7-bcdb-31380f7058fe" d="m409.66,422.54s-3.89,5.28-6.92,15.26"/></g><path class="uuid-57a4487c-ab0d-45e7-bcdb-31380f7058fe" d="m393.02,461.84s-4.36-1.04-6.05-.97l6.92-6.51c.88-.83,1.41-1.96,1.49-3.17h0c.1-1.53.92-2.92,2.22-3.73l18.26-11.43c.9-.56,1.46-1.53,1.48-2.59.02-.73,0-1.61-.11-2.44,0,0,3.79-2.34,5.17-3.09,0,0,.19,4.73.12,7.32-.03,1.03-.55,1.99-1.42,2.56l-18.86,12.04c-1.06.7-1.79,1.8-2.04,3.04l-.19.95c-.19.94-.65,1.81-1.34,2.48l-5.66,5.52h0Z"/><g><path class="uuid-a18afeca-8b09-4f0f-acfd-b939a492045c" d="m469.32,415.42c-.66-.63-1.59-.86-2.47-.62-5.87,1.59-29.25,8.95-53.86,30.76-23.28,20.64-30.4,35.59-32.22,40.34-.37.98-.27,2.06.31,2.94,1.37,2.1,4.19,6.25,6.89,9.08,4.73,4.98,26.38-2.07,55.09-27.69,28.72-25.62,37.69-40.52,34.25-45.67-2.52-3.77-6.2-7.44-7.99-9.14h0Z"/><g class="uuid-0b44583d-d0ab-401d-bf44-3fab20b4cfe3"><g><path class="uuid-37f640f1-0b58-490d-aa0c-c6db63473e01" d="m472.79,418c-6.13,1.66-31.38,8.54-57.1,31.34-24.34,21.57-30.97,38.01-32.86,42.97"/><path class="uuid-c3665144-c5cd-4a6e-8bcd-77622d93734e" d="m470.98,416.08c-6.13,1.66-31.16,8.82-56.88,31.61-24.34,21.57-30.97,38.01-32.86,42.97"/><path class="uuid-37f640f1-0b58-490d-aa0c-c6db63473e01" d="m426.8,440.38c.35,3.83,1.54,7.89,1.54,7.89"/></g></g><path class="uuid-37f640f1-0b58-490d-aa0c-c6db63473e01" d="m469.32,415.42c-.66-.63-1.59-.86-2.47-.62-5.87,1.59-29.25,8.95-53.86,30.76-23.28,20.64-30.4,35.59-32.22,40.34-.37.98-.27,2.06.31,2.94,1.37,2.1,4.19,6.25,6.89,9.08,4.73,4.98,26.38-2.07,55.09-27.69,28.72-25.62,37.69-40.52,34.25-45.67-2.52-3.77-6.2-7.44-7.99-9.14h0Z"/></g><g><path class="uuid-a7665a25-b1d6-4816-87d4-f1f8d0a00c6b" d="m477.9,426.07h0c-.62-4.79-20.55-1.28-53.98,25.69-33.41,26.94-37.41,45.67-34.1,47.26,7.15,2.33,27.31-5.65,53.25-28.79,24.07-21.47,34.26-35.41,34.9-42.4,0-.73,0-1.33-.07-1.76h0Z"/><g class="uuid-c5531e56-35be-4489-bfa4-2d18d1c48b9a"><g><g><line class="uuid-37f640f1-0b58-490d-aa0c-c6db63473e01" x1="381.54" y1="492.75" x2="444.59" y2="492.75"/><line class="uuid-37f640f1-0b58-490d-aa0c-c6db63473e01" x1="387.1" y1="486.55" x2="450.14" y2="486.55"/><line class="uuid-37f640f1-0b58-490d-aa0c-c6db63473e01" x1="392.37" y1="479.4" x2="455.41" y2="479.4"/><line class="uuid-37f640f1-0b58-490d-aa0c-c6db63473e01" x1="398.7" y1="472.12" x2="461.75" y2="472.12"/><line class="uuid-37f640f1-0b58-490d-aa0c-c6db63473e01" x1="406.85" y1="464.43" x2="469.89" y2="464.43"/><line class="uuid-37f640f1-0b58-490d-aa0c-c6db63473e01" x1="413.06" y1="457.06" x2="476.11" y2="457.06"/><line class="uuid-37f640f1-0b58-490d-aa0c-c6db63473e01" x1="422.54" y1="449.74" x2="485.59" y2="449.74"/><line class="uuid-37f640f1-0b58-490d-aa0c-c6db63473e01" x1="431.04" y1="442.32" x2="494.08" y2="442.32"/><line class="uuid-37f640f1-0b58-490d-aa0c-c6db63473e01" x1="439.8" y1="434.91" x2="502.84" y2="434.91"/><line class="uuid-37f640f1-0b58-490d-aa0c-c6db63473e01" x1="446.44" y1="428.43" x2="509.49" y2="428.43"/></g><g><line class="uuid-37f640f1-0b58-490d-aa0c-c6db63473e01" x1="425.89" y1="534.09" x2="367.66" y2="456.06"/><line class="uuid-37f640f1-0b58-490d-aa0c-c6db63473e01" x1="432.22" y1="530.76" x2="374" y2="452.74"/><line class="uuid-37f640f1-0b58-490d-aa0c-c6db63473e01" x1="439.41" y1="526.76" x2="381.19" y2="448.74"/><line class="uuid-37f640f1-0b58-490d-aa0c-c6db63473e01" x1="445.19" y1="521.9" x2="386.97" y2="443.88"/><line class="uuid-37f640f1-0b58-490d-aa0c-c6db63473e01" x1="451.27" y1="516.55" x2="393.04" y2="438.52"/><line class="uuid-37f640f1-0b58-490d-aa0c-c6db63473e01" x1="458.93" y1="511.95" x2="400.7" y2="433.93"/><line class="uuid-37f640f1-0b58-490d-aa0c-c6db63473e01" x1="465.81" y1="507.2" x2="407.59" y2="429.17"/><line class="uuid-37f640f1-0b58-490d-aa0c-c6db63473e01" x1="472.37" y1="502.45" x2="414.15" y2="424.42"/><line class="uuid-37f640f1-0b58-490d-aa0c-c6db63473e01" x1="478.85" y1="496.98" x2="420.62" y2="418.95"/><line class="uuid-37f640f1-0b58-490d-aa0c-c6db63473e01" x1="485.17" y1="491.75" x2="426.95" y2="413.72"/><line class="uuid-37f640f1-0b58-490d-aa0c-c6db63473e01" x1="492.86" y1="486.51" x2="434.64" y2="408.48"/><line class="uuid-37f640f1-0b58-490d-aa0c-c6db63473e01" x1="500.02" y1="481.69" x2="441.8" y2="403.66"/><line class="uuid-37f640f1-0b58-490d-aa0c-c6db63473e01" x1="507.96" y1="477.54" x2="449.73" y2="399.51"/></g></g></g><path class="uuid-37f640f1-0b58-490d-aa0c-c6db63473e01" d="m477.9,426.07h0c-.62-4.79-20.55-1.28-53.98,25.69-33.41,26.94-37.41,45.67-34.1,47.26,7.15,2.33,27.31-5.65,53.25-28.79,24.07-21.47,34.26-35.41,34.9-42.4,0-.73,0-1.33-.07-1.76h0Z"/></g><g><path class="uuid-57a4487c-ab0d-45e7-bcdb-31380f7058fe" d="m408.54,421.02c-3.73,3.19-6.72,6.78-9.07,9.63-2.35,2.86-6.8.03-3.59-3.64,3.21-3.67,7.19-7.82,9.39-9.15,2.2-1.33,5.76,1.03,3.27,3.15h0Z"/><path class="uuid-57a4487c-ab0d-45e7-bcdb-31380f7058fe" d="m418.62,414.25s-3.47-2.43-7.84,1.01c-6.17,4.87-5.22,12.96-4.76,15.89s5.3,2.08,5.02-1.51c-.6-7.7.9-9.81,1.7-11.03,2.29-2.02,5.88-4.36,5.88-4.36h0Z"/><path class="uuid-57a4487c-ab0d-45e7-bcdb-31380f7058fe" d="m431.11,408.11s-3.34-2.85-8.09.24c-6.73,4.36-6.45,12.77-6.24,15.82s5.24,2.68,5.26-1.04c.05-7.97,2.38-11.55,3.3-12.71,1.81-.89,5.78-2.31,5.78-2.31Z"/></g></g></g></g></svg>
<svg id="uuid-7eb5044b-fa94-461c-9907-85b3dc64ac7e" data-name="BODY" xmlns="http://www.w3.org/2000/svg" viewBox="0 0 600 600"><defs><style>
      .uuid-87397e4f-7e3d-490c-b43b-0db3bec0377c {
        stroke-miterlimit: 10;
      }

      .uuid-87397e4f-7e3d-490c-b43b-0db3bec0377c, .uuid-179c102d-ff8a-46ca-913c-1d5c9e7a9cc5, .uuid-81fb7240-34aa-4204-83f9-daaedb437d29 {
        stroke: #000;
        stroke-width: 2px;
      }

      .uuid-87397e4f-7e3d-490c-b43b-0db3bec0377c, .uuid-81fb7240-34aa-4204-83f9-daaedb437d29 {
        fill: #00dfa9;
      }

      .uuid-179c102d-ff8a-46ca-913c-1d5c9e7a9cc5 {
        fill: #00dea8;
      }

      .uuid-179c102d-ff8a-46ca-913c-1d5c9e7a9cc5, .uuid-81fb7240-34aa-4204-83f9-daaedb437d29 {
        stroke-linecap: round;
        stroke-linejoin: round;
      }
    </style></defs><g id="uuid-0a79d125-2460-4fad-b66e-ec883e358a37" data-name="cloath"><path class="uuid-87397e4f-7e3d-490c-b43b-0db3bec0377c" d="m475.37,333.6l-.67.23-18.19,6.17c-2.14.72-4.45.71-6.59-.02l-14.53-5.13-.84-.31c-1.28,9.01-3.34,22.43-5.9,35.7,8.27,3.18,17.18,6.45,23.95,8.54,2.11.65,4.41.69,6.5-.04,8.64-2.99,19.91-7.72,27.11-10-5.49-14.17-8.97-27.13-10.85-35.15Z"/><path class="uuid-179c102d-ff8a-46ca-913c-1d5c9e7a9cc5" d="m389.96,395.83c.5,4.15.99,8.37,1.44,12.46,11.91,13.09,18.41,19.44,18.41,19.44,0,0,2.52-4.53,7.85-9,2.33-9.7,5.36-22.52,8.28-35.44,5.93-26.21,10.09-59.65,10.09-59.65l-58.59,43.63s9.92,7.1,12.53,28.55Z"/><path class="uuid-179c102d-ff8a-46ca-913c-1d5c9e7a9cc5" d="m229.38,322.79c-22.2-11.38-65.51-50.43-65.51-50.43,0,0-16.23,68.13-9.71,140.58,2.57,1.21,5.13,2.38,7.68,3.52,2.63-1.94,4.79-2.09,4.79-2.09,0,0,5.41-21.77,8.55-33.44.57-2.14,1.73-4.09,3.39-5.55,10.18-8.88,27.47-23.84,35.52-29.67l23.09,23.85-29.38,24.3c-1.75,1.43-2.97,3.39-3.49,5.59l-6.17,23.11c8.2-.97,13.79,4.99,14.82,12.21,66.61,18.53,119.01,13.83,119.01,13.83,0,0,18.43-66.82,37.77-80.41-68.91-16.49-81.39-15.13-140.38-45.38Z"/><path class="uuid-81fb7240-34aa-4204-83f9-daaedb437d29" d="m219.04,338.63c-8.05,5.83-31.04,24.25-41.22,33.13-1.67,1.45-2.82,3.41-3.39,5.55-1.89,7.03-4.6,17.71-6.46,25.1,3.49.59,9.59,2.09,17.16,5.88s15.2,7.66,19.3,9.74l4.87-18.24c.51-2.2,1.74-4.16,3.49-5.59l28.69-22.43"/><circle class="uuid-179c102d-ff8a-46ca-913c-1d5c9e7a9cc5" cx="173.5" cy="387.84" r="8.9"/><g><path class="uuid-179c102d-ff8a-46ca-913c-1d5c9e7a9cc5" d="m365.71,370.05c0-2.38.94-4.54,2.47-6.14-36.47-3.56-107.71-32.49-135.31-50.98-29.4-19.7-64.67-54.67-64.67-54.67,0,0-7.58,4.34-6.36,23.82,16.08,31.85,61.46,83.03,61.46,83.03l53.91-16.78-7.39,45.48s33.27-4.01,54.62-9.13c19.17-4.59,35.64-8.53,42.39-10.31-.71-1.28-1.12-2.75-1.12-4.32Z"/><path class="uuid-179c102d-ff8a-46ca-913c-1d5c9e7a9cc5" d="m438.28,298.43s-9.6,21.32-26.38,38.85c-9.15,9.56-25.57,20.93-32.29,25.42,2.34,1.6,3.88,4.29,3.88,7.35,0,1.17-.23,2.29-.64,3.31,10.42-2.02,33.64-8.21,49.69-25.01,8.17-22.96,5.74-49.91,5.74-49.91Z"/><circle class="uuid-179c102d-ff8a-46ca-913c-1d5c9e7a9cc5" cx="374.6" cy="370.05" r="8.9"/></g><path d="m436.13,335.09c-.88,4.42-2.04,8.91-3.59,13.26-.03.03-.06.06-.09.09-1.08,6.81-2.37,14.4-3.83,21.93,2.65.99,5.17,1.94,7.4,2.76,3.26-12,5.61-23.22,7.96-35.22l-7.85-2.83Z"/><path d="m207.37,394.72l34.83-22.3-38.87,49.43c-1.04-.39-2.74-.39-3.99-.28,2.43-8.59,6.17-23.11,8.04-26.85Z"/></g></svg>
<svg id="uuid-55ecc028-236b-4107-a473-b463f673f86d" data-name="BODY" xmlns="http://www.w3.org/2000/svg" xmlns:xlink="http://www.w3.org/1999/xlink" viewBox="0 0 600 600"><defs><style>
      .uuid-f7cf47f1-387c-40c0-8451-efa3e1f48bb3, .uuid-6ab753ec-842d-4635-8bda-4f11118cf21d, .uuid-e45dda09-b6fd-469a-8eb9-5847bc51013b, .uuid-b4015b0b-b5a2-4504-ab5f-b3dc7c0f0bea, .uuid-b1a063f9-d398-49ac-8717-dedd55fd17c7 {
        fill: none;
      }

      .uuid-6ab753ec-842d-4635-8bda-4f11118cf21d {
        clip-path: url(#uuid-cd30974c-211b-420c-b621-0d4b41918d4b);
      }

      .uuid-e45dda09-b6fd-469a-8eb9-5847bc51013b {
        clip-path: url(#uuid-0ad76e5b-fc91-46c9-818d-ed4d146208f8);
      }

      .uuid-8a193521-0ef5-4407-9ee8-bb4ebcd57992, .uuid-acba282c-cbdd-4fe6-aee3-1b2aaa578edb, .uuid-d76bb13e-79ef-4d22-868e-758f3fc81ba4, .uuid-7ca8cd12-c4ef-474d-b7e8-9ac616bc8090, .uuid-53cbd553-6925-4261-892e-503624ed011f, .uuid-8318a3fb-8d6a-4db7-b071-a15a473496d3, .uuid-93feedb8-91e3-42a2-bd0a-197c246fdb2b, .uuid-aa1376c1-8f7a-4198-be7e-f0dfeb7eba4b, .uuid-b4015b0b-b5a2-4504-ab5f-b3dc7c0f0bea, .uuid-b1a063f9-d398-49ac-8717-dedd55fd17c7 {
        stroke: #000;
        stroke-linecap: round;
        stroke-linejoin: round;
      }

      .uuid-8a193521-0ef5-4407-9ee8-bb4ebcd57992, .uuid-acba282c-cbdd-4fe6-aee3-1b2aaa578edb, .uuid-124c2ab5-3017-4aff-88c5-916403019659 {
        fill: #7aa6ff;
      }

      .uuid-8a193521-0ef5-4407-9ee8-bb4ebcd57992, .uuid-7ca8cd12-c4ef-474d-b7e8-9ac616bc8090, .uuid-53cbd553-6925-4261-892e-503624ed011f, .uuid-93feedb8-91e3-42a2-bd0a-197c246fdb2b, .uuid-b4015b0b-b5a2-4504-ab5f-b3dc7c0f0bea {
        stroke-width: 2px;
      }

      .uuid-acba282c-cbdd-4fe6-aee3-1b2aaa578edb, .uuid-8318a3fb-8d6a-4db7-b071-a15a473496d3, .uuid-aa1376c1-8f7a-4198-be7e-f0dfeb7eba4b, .uuid-b1a063f9-d398-49ac-8717-dedd55fd17c7 {
        stroke-width: 2px;
      }

      .uuid-d76bb13e-79ef-4d22-868e-758f3fc81ba4 {
        stroke-width: 2px;
      }

      .uuid-d76bb13e-79ef-4d22-868e-758f3fc81ba4, .uuid-7ca8cd12-c4ef-474d-b7e8-9ac616bc8090 {
        fill: #8400ff;
      }

      .uuid-66f64252-28db-40bd-8f2c-f28f22893256 {
        fill: #fff7f0;
      }

      .uuid-53cbd553-6925-4261-892e-503624ed011f, .uuid-8318a3fb-8d6a-4db7-b071-a15a473496d3 {
        fill: #a07bff;
      }

      .uuid-93feedb8-91e3-42a2-bd0a-197c246fdb2b, .uuid-aa1376c1-8f7a-4198-be7e-f0dfeb7eba4b {
        fill: #00dfa9;
      }
    </style><clipPath id="uuid-0ad76e5b-fc91-46c9-818d-ed4d146208f8"><rect class="uuid-f7cf47f1-387c-40c0-8451-efa3e1f48bb3" x="16.46" y="333.04" width="288" height="266.96"/></clipPath><clipPath id="uuid-cd30974c-211b-420c-b621-0d4b41918d4b"><rect class="uuid-f7cf47f1-387c-40c0-8451-efa3e1f48bb3" x="184.41" y="448.21" width="13.5" height="71.81" transform="translate(-328.3 516.71) rotate(-72.04)"/></clipPath></defs><g id="uuid-c271d4e6-0ed9-43ec-a6eb-586182258769" data-name="uuid-aa1a3761-725c-4c6a-bb08-3b927dabb1b6"><g class="uuid-e45dda09-b6fd-469a-8eb9-5847bc51013b"><g><g><polygon class="uuid-8a193521-0ef5-4407-9ee8-bb4ebcd57992" points="91.61 442.3 86.94 440.79 114.36 362.08 115.56 362.47 91.61 442.3"/><circle class="uuid-8a193521-0ef5-4407-9ee8-bb4ebcd57992" cx="114.96" cy="362.27" r="3.66"/></g><g><path class="uuid-53cbd553-6925-4261-892e-503624ed011f" d="m250.78,490.94l-162.48-40.18c-2.64-.86-5.48.59-6.33,3.23l-6.05,18.67c-.86,2.64.59,5.48,3.23,6.33l168.95,54.76c2.64.86,5.48-.59,6.33-3.23l6.05-18.67c.45-1.38.27-2.81-.38-3.98-.6-1.08-8.05-16.51-9.32-16.92h0Z"/><path class="uuid-aa1376c1-8f7a-4198-be7e-f0dfeb7eba4b" d="m80.92,435.35l167.79,54.38c2.96.96,4.58,4.14,3.62,7.1l-7.41,22.87-178.52-57.86,7.41-22.87c.96-2.96,4.14-4.58,7.1-3.62Z"/><g><polygon class="uuid-53cbd553-6925-4261-892e-503624ed011f" points="144.41 476.06 94.59 459.91 105.57 449.28 155.39 465.42 144.41 476.06"/><g><line class="uuid-b4015b0b-b5a2-4504-ab5f-b3dc7c0f0bea" x1="126.49" y1="470.25" x2="137.47" y2="459.61"/><line class="uuid-b4015b0b-b5a2-4504-ab5f-b3dc7c0f0bea" x1="119.33" y1="467.93" x2="130.31" y2="457.3"/><line class="uuid-b4015b0b-b5a2-4504-ab5f-b3dc7c0f0bea" x1="112.52" y1="465.72" x2="123.5" y2="455.09"/></g></g><g><rect class="uuid-124c2ab5-3017-4aff-88c5-916403019659" x="184.41" y="448.21" width="13.5" height="71.81" transform="translate(-328.3 516.71) rotate(-72.04)"/><g class="uuid-6ab753ec-842d-4635-8bda-4f11118cf21d"><g><polygon class="uuid-66f64252-28db-40bd-8f2c-f28f22893256" points="210.04 497.33 194.4 492.26 205.38 481.62 221.02 486.69 210.04 497.33"/><polygon class="uuid-66f64252-28db-40bd-8f2c-f28f22893256" points="187.58 490.05 179.76 487.51 190.74 476.88 198.56 479.41 187.58 490.05"/><polygon class="uuid-66f64252-28db-40bd-8f2c-f28f22893256" points="165.85 483 161.25 481.51 172.23 470.88 176.83 472.37 165.85 483"/></g></g><rect class="uuid-b1a063f9-d398-49ac-8717-dedd55fd17c7" x="184.41" y="448.21" width="13.5" height="71.81" transform="translate(-328.3 516.71) rotate(-72.04)"/></g><g><line class="uuid-b4015b0b-b5a2-4504-ab5f-b3dc7c0f0bea" x1="78.63" y1="440.55" x2="93.51" y2="445.37"/><line class="uuid-b4015b0b-b5a2-4504-ab5f-b3dc7c0f0bea" x1="74.47" y1="453.39" x2="89.35" y2="458.21"/><line class="uuid-b4015b0b-b5a2-4504-ab5f-b3dc7c0f0bea" x1="76.55" y1="446.97" x2="91.43" y2="451.79"/></g><g><line class="uuid-b4015b0b-b5a2-4504-ab5f-b3dc7c0f0bea" x1="232.2" y1="490.32" x2="247.07" y2="495.14"/><line class="uuid-b4015b0b-b5a2-4504-ab5f-b3dc7c0f0bea" x1="228.03" y1="503.16" x2="242.91" y2="507.98"/><line class="uuid-b4015b0b-b5a2-4504-ab5f-b3dc7c0f0bea" x1="230.12" y1="496.74" x2="244.99" y2="501.56"/></g></g><g><path class="uuid-7ca8cd12-c4ef-474d-b7e8-9ac616bc8090" d="m232.92,608.52l-188.32-61.03c-.83-.27-1.47-.85-1.83-1.56s-6.8-12.03-6.53-12.86l30.07-62.74c.54-1.65,2.31-2.56,3.96-2.02l183.3,49.39c.76.25,6.38,12.41,6.76,13.05.44.75.57,1.67.28,2.56l-23.72,73.19c-.54,1.65-2.31,2.56-3.96,2.02h0Z"/><rect class="uuid-8318a3fb-8d6a-4db7-b071-a15a473496d3" x="103.55" y="423.69" width="83.23" height="204.26" rx="3.15" ry="3.15" transform="translate(-399.79 501.8) rotate(-72.04)"/><line class="uuid-b4015b0b-b5a2-4504-ab5f-b3dc7c0f0bea" x1="235.39" y1="608.29" x2="228.96" y2="595.7"/></g><g><circle class="uuid-8a193521-0ef5-4407-9ee8-bb4ebcd57992" cx="85.25" cy="506.4" r="31.66"/><circle class="uuid-93feedb8-91e3-42a2-bd0a-197c246fdb2b" cx="85.25" cy="506.4" r="24.87"/><circle class="uuid-b4015b0b-b5a2-4504-ab5f-b3dc7c0f0bea" cx="86.2" cy="506.71" r="19.13"/><circle class="uuid-7ca8cd12-c4ef-474d-b7e8-9ac616bc8090" cx="87.39" cy="507.09" r="6.32"/></g><g><circle class="uuid-8a193521-0ef5-4407-9ee8-bb4ebcd57992" cx="203.53" cy="544.73" r="31.66"/><circle class="uuid-93feedb8-91e3-42a2-bd0a-197c246fdb2b" cx="203.53" cy="544.73" r="24.87"/><circle class="uuid-b4015b0b-b5a2-4504-ab5f-b3dc7c0f0bea" cx="204.48" cy="545.04" r="19.13"/><circle class="uuid-7ca8cd12-c4ef-474d-b7e8-9ac616bc8090" cx="205.67" cy="545.43" r="6.32"/></g><g><g><rect class="uuid-b1a063f9-d398-49ac-8717-dedd55fd17c7" x="148.01" y="499.61" width="7.15" height="12.83" transform="translate(-376.53 494.21) rotate(-72.04)"/><circle class="uuid-b4015b0b-b5a2-4504-ab5f-b3dc7c0f0bea" cx="138.27" cy="501.71" r="3.57"/><circle class="uuid-b4015b0b-b5a2-4504-ab5f-b3dc7c0f0bea" cx="164.89" cy="510.34" r="3.57"/></g><rect class="uuid-b1a063f9-d398-49ac-8717-dedd55fd17c7" x="138.18" y="482.66" width="26.81" height="46.72" rx="3.97" ry="3.97" transform="translate(-376.53 494.21) rotate(-72.04)"/></g><g><polygon class="uuid-7ca8cd12-c4ef-474d-b7e8-9ac616bc8090" points="157.51 563.5 113.06 549.1 109.84 542.79 121.33 523.59 162.56 531.69 165.78 538 157.51 563.5"/><rect class="uuid-acba282c-cbdd-4fe6-aee3-1b2aaa578edb" x="122.8" y="513.88" width="26.81" height="46.72" transform="translate(-416.86 501.17) rotate(-72.04)"/><polyline class="uuid-b4015b0b-b5a2-4504-ab5f-b3dc7c0f0bea" points="127.51 553.78 124.28 547.45 132.54 521.96"/><polyline class="uuid-b4015b0b-b5a2-4504-ab5f-b3dc7c0f0bea" points="142.78 558.73 139.55 552.4 147.81 526.91"/><line class="uuid-b4015b0b-b5a2-4504-ab5f-b3dc7c0f0bea" x1="154.29" y1="557.19" x2="157.51" y2="563.5"/></g><path class="uuid-53cbd553-6925-4261-892e-503624ed011f" d="m245.96,586.54c-.21.07-5.45.56-5.62.5-2.11-.68-.82-10.51,2.89-21.95,3.71-11.44,8.43-20.16,10.54-19.47.1.03,4.15,3.73,4.23,3.8,1.73,1.42-9.72,36.37-12.03,37.12h0Z"/><ellipse class="uuid-d76bb13e-79ef-4d22-868e-758f3fc81ba4" cx="252" cy="567.93" rx="19.46" ry="4.02" transform="translate(-365.96 632.55) rotate(-72.04)"/><g><path class="uuid-53cbd553-6925-4261-892e-503624ed011f" d="m152.45,436.42s.66-2.76,1.4-5.54,1.09-4.12,1.09-4.12c0,0-5.88-2.19-9.8-3.46-3.92-1.27-6.41-1.17-9.39,1.94-2.97,3.11-15.92,22.72-15.92,22.72l15.96,5.17s5.87-11.48,7.58-14.75,3.7-3.7,9.07-1.96h0Z"/><path class="uuid-7ca8cd12-c4ef-474d-b7e8-9ac616bc8090" d="m152.45,436.42s.5-2.1,1.12-4.48c-2.12-.62-4.79-1.37-5.52-1.61-2.23-.72-4.92-2.05-9.31,5.29-3.09,5.15-7.16,11.9-9.31,15.45h0l6.37,2.06s5.87-11.48,7.58-14.75c1.71-3.27,3.7-3.7,9.07-1.96Z"/></g><g><path class="uuid-53cbd553-6925-4261-892e-503624ed011f" d="m194.13,449.15s.25-2.82,1.22-4.81c1.13-2.3,2.73-3.64,2.73-3.64,0,0,24.75,7.78,28.66,9.04,3.92,1.27,5.88,2.81,6.46,7.08s-.43,27.74-.43,27.74l-15.96-5.17s1.99-12.74,2.51-16.4c.24-1.66.18-2.89-.46-3.9-.31-.49-.76-.93-1.38-1.34-.91-.6-21.63-8.04-23.37-8.61h0Z"/><path class="uuid-7ca8cd12-c4ef-474d-b7e8-9ac616bc8090" d="m233.21,456.83c-.58-4.26-2.55-5.81-6.46-7.08l-1.83-.59c7.01,2.27,2.46,33.66,2.46,33.66l5.4,1.75s1.02-23.47.43-27.74h0Z"/><path class="uuid-7ca8cd12-c4ef-474d-b7e8-9ac616bc8090" d="m218.87,459.1c.39.62.55,1.34.57,2.18.05-2.37-.14-7.25-2.42-7.99-2.34-.76-16.13-5.17-22.32-7.15-.43,1.56-.56,3.02-.56,3.02,1.74.56,22.46,8,23.37,8.61.62.41,1.07.85,1.38,1.34h0Z"/></g></g></g></g></svg>
</svg>