<?xml version="1.0" encoding="UTF-8"?>
<svg xmlns="http://www.w3.org/2000/svg" viewBox="0 0 600 600">
<svg id="uuid-bc87ee82-23c3-4279-b438-811e43660712" data-name="BACKGROUND" xmlns="http://www.w3.org/2000/svg" viewBox="0 0 600 600"><defs><style>
      .uuid-52f0bbd2-4e52-45a8-8be3-bbbf1043e893 {
        fill: #a07bff;
      }
    </style></defs><rect class="uuid-52f0bbd2-4e52-45a8-8be3-bbbf1043e893" x="-1" y="-1" width="602" height="602"/></svg>
<svg id="uuid-f8681a4c-d0c2-449f-a9f1-2fd52d806420" data-name="BACKGROUND" xmlns="http://www.w3.org/2000/svg" viewBox="0 0 600 600"><defs><style>
      .uuid-1bc07910-d725-49b1-b81c-861f915adcc6, .uuid-9ddfa16e-bace-432f-aa3a-51d3b17f239e {
        fill: #fff;
      }

      .uuid-65b75369-b923-44e2-b78c-6bddbc28b17a {
        fill: #ffc9f1;
      }

      .uuid-65b75369-b923-44e2-b78c-6bddbc28b17a, .uuid-9ddfa16e-bace-432f-aa3a-51d3b17f239e, .uuid-8c0c8b42-d7d4-48a2-b526-de07e5764de5, .uuid-08c45eb5-1cdc-49ac-97c9-ea41763b4f2b, .uuid-2a58a464-3e43-4399-8a88-0a87e134b211, .uuid-9580be1f-d770-452a-9f53-26f311741d51, .uuid-17d7239d-cf3c-4a45-b307-7dc59d66faa7 {
        stroke: #000;
        stroke-width: 2px;
      }

      .uuid-65b75369-b923-44e2-b78c-6bddbc28b17a, .uuid-9ddfa16e-bace-432f-aa3a-51d3b17f239e, .uuid-8c0c8b42-d7d4-48a2-b526-de07e5764de5, .uuid-9580be1f-d770-452a-9f53-26f311741d51 {
        stroke-miterlimit: 10;
      }

      .uuid-65b75369-b923-44e2-b78c-6bddbc28b17a, .uuid-9ddfa16e-bace-432f-aa3a-51d3b17f239e, .uuid-08c45eb5-1cdc-49ac-97c9-ea41763b4f2b, .uuid-2a58a464-3e43-4399-8a88-0a87e134b211, .uuid-9580be1f-d770-452a-9f53-26f311741d51 {
        stroke-linecap: round;
      }

      .uuid-8c0c8b42-d7d4-48a2-b526-de07e5764de5, .uuid-08c45eb5-1cdc-49ac-97c9-ea41763b4f2b, .uuid-9580be1f-d770-452a-9f53-26f311741d51, .uuid-17d7239d-cf3c-4a45-b307-7dc59d66faa7 {
        fill: #9dff0c;
      }

      .uuid-08c45eb5-1cdc-49ac-97c9-ea41763b4f2b, .uuid-2a58a464-3e43-4399-8a88-0a87e134b211, .uuid-17d7239d-cf3c-4a45-b307-7dc59d66faa7 {
        stroke-linejoin: round;
      }

      .uuid-2a58a464-3e43-4399-8a88-0a87e134b211 {
        fill: none;
      }
    </style></defs><path class="uuid-08c45eb5-1cdc-49ac-97c9-ea41763b4f2b" d="m409.81,359.6c9.2,3.77,29.89,12.05,42.79,16.03,2.11.65,4.41.69,6.5-.04,11.79-4.08,28.47-11.39,33.03-11.32,5.25.08,7.8,3.93,19.88,2.04,13.36-2.1,22.43-11.99,20.93-23.3-4.21-43.28-25.18-26.79-25.18-26.79,0,0-5.84-8.75-18.76-4.82-11.83,3.6-10.2,14.44-6.47,22.47l-25.29,8.58c-2.14.72-4.45.71-6.59-.02l-35.7-12.61"/><path class="uuid-9580be1f-d770-452a-9f53-26f311741d51" d="m533.36,312.82c2.5,3.94,1.62,9.14-1.57,12.4-2.47,2.53-5.88,3.88-9.32,4.4-2.8.43-5.7.42-8.49-.08-2.14-.39-4.29-1.1-5.79-2.75-1.66-1.83-2.27-4.46-1.98-6.87.51-4.17,3.84-7.14,7.22-9.26,3.17-1.98,6.86-3.26,10.64-3.09,3.8.18,7.36,2.19,9.3,5.24Z"/><path class="uuid-9580be1f-d770-452a-9f53-26f311741d51" d="m538.57,349.84c.97,3.03.32,6.43-1.5,9.01-3.77,5.33-11.17,5.65-16.96,4.27-3.31-.79-6.69-2.21-8.67-5.13-3.13-4.61-.82-9.79,3.48-12.56,2.58-1.66,5.61-2.67,8.63-3.14,5.73-.89,13.1,1.51,15.03,7.56Z"/><path class="uuid-9580be1f-d770-452a-9f53-26f311741d51" d="m538.71,328.53c1.8,2.99,2.06,6.89.22,9.9-1.95,3.2-4.94,5.25-8.49,6.28-3.66,1.07-7.64,1.27-11.4.44-2.25-.5-4.53-1.38-5.96-3.28-1.86-2.47-1.89-5.68-.85-8.49,1.2-3.24,4.17-5.69,7.09-7.37,6.15-3.56,15.21-4.43,19.39,2.52Z"/><path class="uuid-9580be1f-d770-452a-9f53-26f311741d51" d="m501.85,311.68s9.27,3.84,7.77,12.02c-1.04,5.68-8.17,9.55-14.94,6.13"/><path class="uuid-2a58a464-3e43-4399-8a88-0a87e134b211" d="m500.67,331.08c2.41,1.63,5.11,8.04,3.4,14.42"/><path d="m443.44,339.88c-2.88,10.58-6.94,20.23-11.17,28.59-10.17-3.78-21.16-9.53-27-11.93l11.83-26.02,26.35,9.36Z"/><ellipse cx="300" cy="518.65" rx="138.6" ry="22.93"/><path class="uuid-8c0c8b42-d7d4-48a2-b526-de07e5764de5" d="m319.36,427.14c-1.16,1.05-54.95,57-54.95,57,0,0,21.51-1.95,31.74,10.62,10.23,12.57,7.26,23.89,7.26,23.89h-66.9s-28.69-36.17-28.69-36.17c0,0,3.74-13.4,20.44-10.59,20.9-19.38,55.52-59.13,55.52-59.13l35.59,14.38Z"/><path d="m283.78,412.76l31.28,12.64-3.24,9.5c-2.93,3.03-9.76,10.12-13.64,14.14-11.92,0-27.98-2.13-41.33-6.37,13.95-15.1,26.93-29.92,26.93-29.92Z"/><path class="uuid-8c0c8b42-d7d4-48a2-b526-de07e5764de5" d="m354.45,173.54l-.11.27-174.2,58.29c-11.49,20.13-18.05,43.43-18.05,68.27,0,76.2,61.77,137.98,137.97,137.98s137.98-61.77,137.98-137.98c0-56.89-34.43-105.72-83.58-126.83Z"/><path class="uuid-2a58a464-3e43-4399-8a88-0a87e134b211" d="m264.41,484.14c-4.06.49-11.49,1.36-17.85,7.23"/><path class="uuid-1bc07910-d725-49b1-b81c-861f915adcc6" d="m185.17,308.14c-4.41,0-7.98-3.57-7.98-7.98,0-67.74,55.11-122.86,122.86-122.86,4.41,0,7.98,3.57,7.98,7.98s-3.57,7.98-7.98,7.98c-58.94,0-106.9,47.95-106.9,106.9,0,4.41-3.57,7.98-7.98,7.98Z"/><path d="m203.75,397.46l34.2-27.46-24.86,36.3c-6.73-5.1-3.66-2.61-9.34-8.83Z"/><path class="uuid-17d7239d-cf3c-4a45-b307-7dc59d66faa7" d="m323.72,387.31c19.14-13.4,39.15-11.3,55.52,7.36,19.6,22.35,30.57,33.06,30.57,33.06,0,0,10.74-19.34,34.77-17.5,18.26,1.4,24.84,14.43,24.84,14.43,0,0,6.21,8.82-22.45,33.5-28.66,24.68-54.93,40.92-61.14,29.46-6.21-11.46-2.82-32.1-2.82-32.1,0,0-22.02-26.09-27.94-32.01-6.79-6.79-15.71-1.36-15.71-1.36"/><path class="uuid-8c0c8b42-d7d4-48a2-b526-de07e5764de5" d="m446.97,458.17c-25.89,22.29-49.82,37.69-58.79,32.02-9.77-7.44,26.84-38.54,44.88-52.7,18.04-14.16,32.17-17.82,36.36-12.81,0,0,6.21,8.82-22.45,33.5Z"/><path class="uuid-2a58a464-3e43-4399-8a88-0a87e134b211" d="m409.81,427.74c-1.89,2.86-4.55,10.38-4.55,10.38"/><ellipse class="uuid-9ddfa16e-bace-432f-aa3a-51d3b17f239e" cx="269.41" cy="209.07" rx="94.9" ry="26.25" transform="translate(-52.5 96.54) rotate(-18.55)"/><ellipse class="uuid-65b75369-b923-44e2-b78c-6bddbc28b17a" cx="269.41" cy="209.07" rx="71.19" ry="13.32" transform="translate(-52.5 96.54) rotate(-18.55)"/><g><path class="uuid-08c45eb5-1cdc-49ac-97c9-ea41763b4f2b" d="m214.11,345.7c-8.05,5.83-25.34,20.79-35.52,29.67-1.67,1.45-2.82,3.41-3.39,5.55-3.14,11.67-8.55,33.44-8.55,33.44,0,0-8.42.58-12.19,14.35-3.64,13.3-6.64,25.06,3.77,29.75.35,7.47,7.51,15.45,19.2,9.41.14-.06,1.32,1.32,1.44,1.45,2.64,2.7,6.36,4.45,10.13,4.81,3.65.36,7.61-.67,10.43-3.08,3.29-2.81,5.4-6.94,6.05-11.2.4-2.61.26-5.31-.75-7.78,0,0,6.2-2.51,8.05-11.34,1.99-9.49-4.22-19.42-14.62-18.18l6.17-23.11c.51-2.2,1.74-4.16,3.49-5.59l29.38-24.3"/><path class="uuid-2a58a464-3e43-4399-8a88-0a87e134b211" d="m204.73,452.06c-1.37-3.47-5.39-7.08-9-6.88"/><path class="uuid-2a58a464-3e43-4399-8a88-0a87e134b211" d="m178.86,469.3c-5.16-5.27-3.82-11.97-2.9-13.54"/><path class="uuid-2a58a464-3e43-4399-8a88-0a87e134b211" d="m158.22,458.45c-.27-5.22.73-7.32,3.06-9.83"/><path class="uuid-2a58a464-3e43-4399-8a88-0a87e134b211" d="m193.93,450.63c.14-2.07.48-4.16,1.32-6.06.85-1.95,2.36-3.88,4.31-4.85"/></g></svg>
<svg id="uuid-ffac6761-6b9e-4a13-ab42-3dfadf65c420" data-name="BODY" xmlns="http://www.w3.org/2000/svg" viewBox="0 0 600 600"><circle cx="369.54" cy="262.94" r="9.78" transform="translate(-8.58 12.49) rotate(-1.91)"/><circle cx="362.12" cy="293.18" r="9.78" transform="translate(-9.59 12.26) rotate(-1.91)"/><circle cx="337.63" cy="273.96" r="9.78" transform="translate(-8.96 11.43) rotate(-1.91)"/></svg>
<svg id="uuid-1814dd4d-896f-43a9-8cc5-9df7690e94a2" data-name="BACKGROUND" xmlns="http://www.w3.org/2000/svg" viewBox="0 0 600 600"><defs><style>
      .uuid-3be35196-23eb-415c-bbdf-01577589215b {
        fill: #ffff0d;
        stroke: #000;
        stroke-linecap: round;
        stroke-linejoin: round;
        stroke-width: 2px;
      }
    </style></defs><path class="uuid-3be35196-23eb-415c-bbdf-01577589215b" d="m375.86,319.37c-14.26,7.96-19.36,25.98-11.4,40.24,7.96,14.26,25.98,19.36,40.24,11.4,14.26-7.96,19.36-25.98,11.4-40.24-7.96-14.26-25.98-19.36-40.24-11.4Zm-.03,6.32l10.52,18.84-6.41,22.61c-4.44-2.08-8.29-5.52-10.86-10.12-6.02-10.78-2.93-24.18,6.75-31.33Zm9.99,43.35l4.79-16.89,8.69,15.57c-4.39,1.76-9.06,2.15-13.48,1.32Zm18.87-4.32l-8.9-15.94,17.51,4.1c-1.55,4.62-4.47,8.8-8.6,11.84Zm9.8-17.89l-22.77-5.34-10.5-18.81c11.18-4.52,24.23-.12,30.26,10.68,2.38,4.26,3.33,8.94,3.02,13.47Z"/><circle class="uuid-3be35196-23eb-415c-bbdf-01577589215b" cx="420.18" cy="318.72" r="8.31"/><circle class="uuid-3be35196-23eb-415c-bbdf-01577589215b" cx="436.89" cy="310.38" r="8.31"/><circle class="uuid-3be35196-23eb-415c-bbdf-01577589215b" cx="350.39" cy="343.04" r="8.31"/><circle class="uuid-3be35196-23eb-415c-bbdf-01577589215b" cx="332" cy="346.35" r="8.31"/><circle class="uuid-3be35196-23eb-415c-bbdf-01577589215b" cx="313.56" cy="349.17" r="8.31"/><circle class="uuid-3be35196-23eb-415c-bbdf-01577589215b" cx="295.1" cy="351.34" r="8.31"/><circle class="uuid-3be35196-23eb-415c-bbdf-01577589215b" cx="276.49" cy="352.43" r="8.31"/><circle class="uuid-3be35196-23eb-415c-bbdf-01577589215b" cx="257.85" cy="352.14" r="8.31"/><circle class="uuid-3be35196-23eb-415c-bbdf-01577589215b" cx="239.26" cy="352.14" r="8.31"/><circle class="uuid-3be35196-23eb-415c-bbdf-01577589215b" cx="220.83" cy="349.72" r="8.31"/><circle class="uuid-3be35196-23eb-415c-bbdf-01577589215b" cx="202.35" cy="347.91" r="8.31"/><circle class="uuid-3be35196-23eb-415c-bbdf-01577589215b" cx="184.1" cy="344.29" r="8.31"/><circle class="uuid-3be35196-23eb-415c-bbdf-01577589215b" cx="165.96" cy="340.27" r="8.31"/></svg>
<svg id="uuid-1b08aac9-9e08-4756-8d9e-8a9f6603c534" data-name="BODY" xmlns="http://www.w3.org/2000/svg" viewBox="0 0 600 600"><defs><style>
      .uuid-ac87fed6-fa30-4749-a240-d8828610f74f {
        fill: #00dfa9;
      }

      .uuid-1ff638b6-d0d1-4217-9825-a9422071689c {
        fill: #fff;
      }

      .uuid-872febec-4330-4ab2-a86b-49734363ee8d {
        fill: #ffff0d;
      }

      .uuid-8397099a-fe48-40cd-8fdd-5b593e433b66 {
        fill: #ff78d8;
      }

      .uuid-778e30d1-bd04-42f1-a7e6-ba8a3704772a {
        stroke-linecap: round;
        stroke-linejoin: round;
      }

      .uuid-778e30d1-bd04-42f1-a7e6-ba8a3704772a, .uuid-f1cf2760-0093-43d9-874f-71ff5def6357 {
        fill: none;
        stroke: #000;
        stroke-width: 2px;
      }

      .uuid-f1cf2760-0093-43d9-874f-71ff5def6357 {
        stroke-miterlimit: 10;
      }
    </style></defs><g id="uuid-798ab33b-e031-4a28-9cf1-199bb8f2066a" data-name="uuid-0591a78b-92e4-47f5-82f5-87bb82cff089"><g id="uuid-b84e47fe-6a5b-4076-8558-b05772d8acd0" data-name="uuid-ef3ece4f-8150-4652-82a9-55a11f34e840"><g id="uuid-a524eb37-ac85-42fb-8897-0cae06d4e47d" data-name="uuid-4dd11de8-2cdc-4aed-ae75-b123e92e7551"><path class="uuid-1ff638b6-d0d1-4217-9825-a9422071689c" d="m494.67,329.83s.94,43.86,1.14,58.12c.2,14.26,29.12,10.42,36.3,6.37l-2.02-5.06s9.99-3.71,6.94-13.13c-.08-.25-.17-.5-.27-.75-3.84-9.98-4.9-12.61-4.9-12.61,0,0-3.84,1.47-11.22.4-9.2-1.32-16.03-11.07-4.5-18.49,0,0-4.74-2.49-4.59-7.3.15-4.81,2.82-7.47,2.82-7.47,0,0-3.95-.82-6.08-2.91,0,0-4.96,6.88-13.61,2.82h-.01Z"/><path class="uuid-1ff638b6-d0d1-4217-9825-a9422071689c" d="m489.51,311.27l-14.63-29.66s1.69-13.55,17.93-16.79c16.25-3.24,24.61,9.03,24.61,9.03l-.57,34.87s-5.76,2.22-9.1,7.08c0,0-7.3-8.36-18.24-4.53h0Z"/></g><g id="uuid-1284ab39-adff-4632-966d-92d334e68346" data-name="uuid-8b80c383-2de1-459e-b0cd-74fd20d90043"><path class="uuid-ac87fed6-fa30-4749-a240-d8828610f74f" d="m476.28,284.44s.82-8.1,7.7-8.77c6.88-.67,7.96,7.15,6,14.09-1.96,6.94-6.42,9.17-6.42,9.17l-7.28-14.49h0Z"/><path class="uuid-872febec-4330-4ab2-a86b-49734363ee8d" d="m493.89,267.16c-4.85.86-3.59,7.53,1.37,6.88,4.96-.66,3.49-7.74-1.37-6.88Z"/><path class="uuid-8397099a-fe48-40cd-8fdd-5b593e433b66" d="m517.34,278.53c-2.27-6.98-12.33-9.33-14.96-2.91-2.56,6.26,2.94,14.76,8.85,16.1,3.99.91,5.9-.51,5.9-.51l.21-12.69h0Z"/><path class="uuid-872febec-4330-4ab2-a86b-49734363ee8d" d="m507.49,296.02s-4.55-3.43-8.24.52c-3.69,3.94,1.62,12.36,9.84,11.58,6.04-.57,3.17-8.48-.82-9.15l-.77-2.95h-.01Z"/><path class="uuid-8397099a-fe48-40cd-8fdd-5b593e433b66" d="m495.02,346.73c9.79-.47,12.65,12.77.37,18.05l-.37-18.05Z"/><path class="uuid-8397099a-fe48-40cd-8fdd-5b593e433b66" d="m514.15,371.23c.22,10.55,13.47,9.54,13.74-1.01,0,0-9.31-1.15-13.74,1.01Z"/><path class="uuid-ac87fed6-fa30-4749-a240-d8828610f74f" d="m506.86,373.81c.93,7.57-3.84,17.2-8.84,8.82,3.5-6.31,8.84-8.82,8.84-8.82Z"/><path class="uuid-872febec-4330-4ab2-a86b-49734363ee8d" d="m512.79,389.84c.82-8.86,13.61-8.68,15.38,0,0,0-1.52,1.56-7.43,1.53-5.91-.03-7.95-1.53-7.95-1.53Z"/><path class="uuid-8397099a-fe48-40cd-8fdd-5b593e433b66" d="m517.55,397.84c-2.43-7.41-14.01-7.71-15.85-1.75,7.71,3.39,15.85,1.75,15.85,1.75Z"/><path class="uuid-872febec-4330-4ab2-a86b-49734363ee8d" d="m510.37,356.1c-8.49,2.16-5.54,12.11,1.31,11.33,5.02-.57,5.51-5.17,5.51-5.17,0,0-2.14-.83-4.19-2.24s-2.63-3.91-2.63-3.91h0Z"/><path class="uuid-ac87fed6-fa30-4749-a240-d8828610f74f" d="m525.84,363.71c1.18,4.82,7.79,3.58,7.79,3.58l-1.78-4.52-6.02.94h.01Z"/><path class="uuid-ac87fed6-fa30-4749-a240-d8828610f74f" d="m514.28,343.96c-4.75,2.7-10.35.66-11.36-5.67l3.64-2.86,5.19-.57s-.74,1.38.2,4.99c.94,3.61,2.33,4.11,2.33,4.11h0Z"/></g><g><path class="uuid-778e30d1-bd04-42f1-a7e6-ba8a3704772a" d="m494.67,329.83s.94,43.86,1.14,58.12c.2,14.26,29.12,10.42,36.3,6.37l-2.02-5.06s9.99-3.71,6.94-13.13c-.08-.25-.17-.5-.27-.75-3.84-9.98-4.9-12.61-4.9-12.61,0,0-3.84,1.47-11.22.4-9.2-1.32-16.03-11.07-4.5-18.49,0,0-4.74-2.49-4.59-7.3.15-4.81,2.82-7.47,2.82-7.47,0,0-3.95-.82-6.08-2.91,0,0-4.96,6.88-13.61,2.82h-.01Z"/><path class="uuid-778e30d1-bd04-42f1-a7e6-ba8a3704772a" d="m489.51,311.27l-14.63-29.66s1.69-13.55,17.93-16.79c16.25-3.24,24.61,9.03,24.61,9.03l-.57,34.87s-5.76,2.22-9.1,7.08c0,0-7.3-8.36-18.24-4.53h0Z"/></g><line class="uuid-778e30d1-bd04-42f1-a7e6-ba8a3704772a" x1="505.55" y1="281.33" x2="509.78" y2="313.39"/><line class="uuid-778e30d1-bd04-42f1-a7e6-ba8a3704772a" x1="491.33" y1="297.65" x2="499.99" y2="310.99"/><path class="uuid-f1cf2760-0093-43d9-874f-71ff5def6357" d="m530.09,389.27c-6.34,3.1-16.38,3.03-20.76-1.96l-.5-14.52"/><path class="uuid-f1cf2760-0093-43d9-874f-71ff5def6357" d="m536.88,375.69c-1.68-4.38-8.61-7.31-21.96-4.83-13.35,2.48-19.23,13.86-18.98,18.52"/><polygon points="494.45 338 504.61 338.27 511.55 336.98 512.39 333.19 514.36 329.92 508.28 327.01 504.2 329.93 499.86 330.82 495.02 330.36 494.45 338"/></g></g></svg>
<svg id="uuid-429d44c8-274e-4b71-a2d2-01fc3b9cce7b" data-name="BACKGROUND" xmlns="http://www.w3.org/2000/svg" viewBox="0 0 600 600"><defs><style>
      .uuid-f37691f2-e13e-4b40-92b6-ac287502bddc, .uuid-2d5b3d3b-fc03-45c9-8e20-1bf67474cfdc {
        stroke-miterlimit: 10;
      }

      .uuid-f37691f2-e13e-4b40-92b6-ac287502bddc, .uuid-2d5b3d3b-fc03-45c9-8e20-1bf67474cfdc, .uuid-c46f5cdf-b0c8-48ef-925c-b72c4a78de0b {
        stroke: #000;
        stroke-width: 2px;
      }

      .uuid-f37691f2-e13e-4b40-92b6-ac287502bddc, .uuid-c46f5cdf-b0c8-48ef-925c-b72c4a78de0b {
        fill: #ff78d8;
      }

      .uuid-2d5b3d3b-fc03-45c9-8e20-1bf67474cfdc {
        fill: #fff;
        stroke-linecap: round;
      }

      .uuid-c46f5cdf-b0c8-48ef-925c-b72c4a78de0b {
        stroke-linejoin: round;
      }
    </style></defs><path class="uuid-c46f5cdf-b0c8-48ef-925c-b72c4a78de0b" d="m235.44,232.11l-52.28-70.42,16.28-12.11,56.96,77.43c-4.91,1.38-13.79,3.74-20.96,5.09Z"/><ellipse class="uuid-f37691f2-e13e-4b40-92b6-ac287502bddc" cx="191.3" cy="155.64" rx="10.14" ry="5.9" transform="translate(-55.08 144.88) rotate(-36.63)"/><path class="uuid-2d5b3d3b-fc03-45c9-8e20-1bf67474cfdc" d="m289.77,196.01c.39,1.68,2.54,2.21,3.68.92,7.65-8.68,28.77-34.56,25.1-52.13-4.35-20.84-40.15,2.62-28.79,51.21Z"/><path class="uuid-2d5b3d3b-fc03-45c9-8e20-1bf67474cfdc" d="m264.28,167.04c1.37,1.01,3.34.33,3.78-1.32,2.14-7.98,6.65-28.41-1.23-34.24-9.47-7.02-24.36,19.46-2.55,35.56Z"/></svg>
</svg>