<?xml version="1.0" encoding="UTF-8"?>
<svg xmlns="http://www.w3.org/2000/svg" viewBox="0 0 600 600">
<svg id="uuid-47722c1a-ec94-491f-b9ae-69c2f5e8f75c" data-name="BACKGROUND" xmlns="http://www.w3.org/2000/svg" viewBox="0 0 600 600"><defs><style>
      .uuid-ab0c32c0-b20c-4bf1-888e-57f882ba1299 {
        fill: #ffc9f1;
      }
    </style></defs><rect class="uuid-ab0c32c0-b20c-4bf1-888e-57f882ba1299" x="-1" y="-1" width="602" height="602"/></svg>
<svg id="uuid-33f0a83e-2b0c-4eb8-8fa3-bfa9ea5086d3" data-name="BACKGROUND" xmlns="http://www.w3.org/2000/svg" viewBox="0 0 600 600"><defs><style>
      .uuid-450a74f4-b6b6-47ff-a9b8-91a171e1e341, .uuid-7fae2aa8-9ea1-45c0-a459-daab5bb141c8, .uuid-28d15e62-18ad-457b-95e7-fa4bdbf6607d, .uuid-f34e6d04-5895-4a55-8123-65c0a5c276be, .uuid-6f41a922-4956-4224-af6c-3d28e38947e5, .uuid-57d641cc-3e15-4ae9-829f-c36df3c7f79a, .uuid-5d2ce935-29a4-4a67-ac10-b6bb4cf3dd30 {
        stroke: #000;
        stroke-width: 2px;
      }

      .uuid-450a74f4-b6b6-47ff-a9b8-91a171e1e341, .uuid-7fae2aa8-9ea1-45c0-a459-daab5bb141c8, .uuid-28d15e62-18ad-457b-95e7-fa4bdbf6607d, .uuid-6f41a922-4956-4224-af6c-3d28e38947e5, .uuid-57d641cc-3e15-4ae9-829f-c36df3c7f79a {
        stroke-linecap: round;
      }

      .uuid-450a74f4-b6b6-47ff-a9b8-91a171e1e341, .uuid-f34e6d04-5895-4a55-8123-65c0a5c276be, .uuid-57d641cc-3e15-4ae9-829f-c36df3c7f79a, .uuid-5d2ce935-29a4-4a67-ac10-b6bb4cf3dd30 {
        fill: #8400ff;
      }

      .uuid-450a74f4-b6b6-47ff-a9b8-91a171e1e341, .uuid-6f41a922-4956-4224-af6c-3d28e38947e5, .uuid-5d2ce935-29a4-4a67-ac10-b6bb4cf3dd30 {
        stroke-linejoin: round;
      }

      .uuid-7b9f3a05-4cc7-4b23-b3bf-179c77ea9f5f, .uuid-28d15e62-18ad-457b-95e7-fa4bdbf6607d {
        fill: #fff;
      }

      .uuid-7fae2aa8-9ea1-45c0-a459-daab5bb141c8 {
        fill: #ffff0d;
      }

      .uuid-7fae2aa8-9ea1-45c0-a459-daab5bb141c8, .uuid-28d15e62-18ad-457b-95e7-fa4bdbf6607d, .uuid-f34e6d04-5895-4a55-8123-65c0a5c276be, .uuid-57d641cc-3e15-4ae9-829f-c36df3c7f79a {
        stroke-miterlimit: 10;
      }

      .uuid-6f41a922-4956-4224-af6c-3d28e38947e5 {
        fill: none;
      }
    </style></defs><path class="uuid-450a74f4-b6b6-47ff-a9b8-91a171e1e341" d="m409.81,359.6c9.2,3.77,29.89,12.05,42.79,16.03,2.11.65,4.41.69,6.5-.04,11.79-4.08,28.47-11.39,33.03-11.32,5.25.08,7.8,3.93,19.88,2.04,13.36-2.1,22.43-11.99,20.93-23.3-4.21-43.28-25.18-26.79-25.18-26.79,0,0-5.84-8.75-18.76-4.82-11.83,3.6-10.2,14.44-6.47,22.47l-25.29,8.58c-2.14.72-4.45.71-6.59-.02l-35.7-12.61"/><path class="uuid-57d641cc-3e15-4ae9-829f-c36df3c7f79a" d="m533.36,312.82c2.5,3.94,1.62,9.14-1.57,12.4-2.47,2.53-5.88,3.88-9.32,4.4-2.8.43-5.7.42-8.49-.08-2.14-.39-4.29-1.1-5.79-2.75-1.66-1.83-2.27-4.46-1.98-6.87.51-4.17,3.84-7.14,7.22-9.26,3.17-1.98,6.86-3.26,10.64-3.09,3.8.18,7.36,2.19,9.3,5.24Z"/><path class="uuid-57d641cc-3e15-4ae9-829f-c36df3c7f79a" d="m538.57,349.84c.97,3.03.32,6.43-1.5,9.01-3.77,5.33-11.17,5.65-16.96,4.27-3.31-.79-6.69-2.21-8.67-5.13-3.13-4.61-.82-9.79,3.48-12.56,2.58-1.66,5.61-2.67,8.63-3.14,5.73-.89,13.1,1.51,15.03,7.56Z"/><path class="uuid-57d641cc-3e15-4ae9-829f-c36df3c7f79a" d="m538.71,328.53c1.8,2.99,2.06,6.89.22,9.9-1.95,3.2-4.94,5.25-8.49,6.28-3.66,1.07-7.64,1.27-11.4.44-2.25-.5-4.53-1.38-5.96-3.28-1.86-2.47-1.89-5.68-.85-8.49,1.2-3.24,4.17-5.69,7.09-7.37,6.15-3.56,15.21-4.43,19.39,2.52Z"/><path class="uuid-57d641cc-3e15-4ae9-829f-c36df3c7f79a" d="m501.85,311.68s9.27,3.84,7.77,12.02c-1.04,5.68-8.17,9.55-14.94,6.13"/><path class="uuid-6f41a922-4956-4224-af6c-3d28e38947e5" d="m500.67,331.08c2.41,1.63,5.11,8.04,3.4,14.42"/><path d="m443.44,339.88c-2.88,10.58-6.94,20.23-11.17,28.59-10.17-3.78-21.16-9.53-27-11.93l11.83-26.02,26.35,9.36Z"/><ellipse cx="300" cy="518.65" rx="138.6" ry="22.93"/><path class="uuid-f34e6d04-5895-4a55-8123-65c0a5c276be" d="m319.36,427.14c-1.16,1.05-54.95,57-54.95,57,0,0,21.51-1.95,31.74,10.62,10.23,12.57,7.26,23.89,7.26,23.89h-66.9s-28.69-36.17-28.69-36.17c0,0,3.74-13.4,20.44-10.59,20.9-19.38,55.52-59.13,55.52-59.13l35.59,14.38Z"/><path d="m283.78,412.76l31.28,12.64-3.24,9.5c-2.93,3.03-9.76,10.12-13.64,14.14-11.92,0-27.98-2.13-41.33-6.37,13.95-15.1,26.93-29.92,26.93-29.92Z"/><path class="uuid-f34e6d04-5895-4a55-8123-65c0a5c276be" d="m354.45,173.54l-.11.27-174.2,58.29c-11.49,20.13-18.05,43.43-18.05,68.27,0,76.2,61.77,137.98,137.97,137.98s137.98-61.77,137.98-137.98c0-56.89-34.43-105.72-83.58-126.83Z"/><path class="uuid-6f41a922-4956-4224-af6c-3d28e38947e5" d="m264.41,484.14c-4.06.49-11.49,1.36-17.85,7.23"/><path class="uuid-7b9f3a05-4cc7-4b23-b3bf-179c77ea9f5f" d="m185.17,308.14c-4.41,0-7.98-3.57-7.98-7.98,0-67.74,55.11-122.86,122.86-122.86,4.41,0,7.98,3.57,7.98,7.98s-3.57,7.98-7.98,7.98c-58.94,0-106.9,47.95-106.9,106.9,0,4.41-3.57,7.98-7.98,7.98Z"/><path d="m203.75,397.46l34.2-27.46-24.86,36.3c-6.73-5.1-3.66-2.61-9.34-8.83Z"/><path class="uuid-5d2ce935-29a4-4a67-ac10-b6bb4cf3dd30" d="m323.72,387.31c19.14-13.4,39.15-11.3,55.52,7.36,19.6,22.35,30.57,33.06,30.57,33.06,0,0,10.74-19.34,34.77-17.5,18.26,1.4,24.84,14.43,24.84,14.43,0,0,6.21,8.82-22.45,33.5-28.66,24.68-54.93,40.92-61.14,29.46-6.21-11.46-2.82-32.1-2.82-32.1,0,0-22.02-26.09-27.94-32.01-6.79-6.79-15.71-1.36-15.71-1.36"/><path class="uuid-f34e6d04-5895-4a55-8123-65c0a5c276be" d="m446.97,458.17c-25.89,22.29-49.82,37.69-58.79,32.02-9.77-7.44,26.84-38.54,44.88-52.7,18.04-14.16,32.17-17.82,36.36-12.81,0,0,6.21,8.82-22.45,33.5Z"/><path class="uuid-6f41a922-4956-4224-af6c-3d28e38947e5" d="m409.81,427.74c-1.89,2.86-4.55,10.38-4.55,10.38"/><ellipse class="uuid-28d15e62-18ad-457b-95e7-fa4bdbf6607d" cx="269.41" cy="209.07" rx="94.9" ry="26.25" transform="translate(-52.5 96.54) rotate(-18.55)"/><ellipse class="uuid-7fae2aa8-9ea1-45c0-a459-daab5bb141c8" cx="269.41" cy="209.07" rx="71.19" ry="13.32" transform="translate(-52.5 96.54) rotate(-18.55)"/><g><path class="uuid-450a74f4-b6b6-47ff-a9b8-91a171e1e341" d="m214.11,345.7c-8.05,5.83-25.34,20.79-35.52,29.67-1.67,1.45-2.82,3.41-3.39,5.55-3.14,11.67-8.55,33.44-8.55,33.44,0,0-8.42.58-12.19,14.35-3.64,13.3-6.64,25.06,3.77,29.75.35,7.47,7.51,15.45,19.2,9.41.14-.06,1.32,1.32,1.44,1.45,2.64,2.7,6.36,4.45,10.13,4.81,3.65.36,7.61-.67,10.43-3.08,3.29-2.81,5.4-6.94,6.05-11.2.4-2.61.26-5.31-.75-7.78,0,0,6.2-2.51,8.05-11.34,1.99-9.49-4.22-19.42-14.62-18.18l6.17-23.11c.51-2.2,1.74-4.16,3.49-5.59l29.38-24.3"/><path class="uuid-6f41a922-4956-4224-af6c-3d28e38947e5" d="m204.73,452.06c-1.37-3.47-5.39-7.08-9-6.88"/><path class="uuid-6f41a922-4956-4224-af6c-3d28e38947e5" d="m178.86,469.3c-5.16-5.27-3.82-11.97-2.9-13.54"/><path class="uuid-6f41a922-4956-4224-af6c-3d28e38947e5" d="m158.22,458.45c-.27-5.22.73-7.32,3.06-9.83"/><path class="uuid-6f41a922-4956-4224-af6c-3d28e38947e5" d="m193.93,450.63c.14-2.07.48-4.16,1.32-6.06.85-1.95,2.36-3.88,4.31-4.85"/></g></svg>
<svg id="uuid-853b1779-0b40-4336-9fd3-56860412922a" data-name="BODY" xmlns="http://www.w3.org/2000/svg" viewBox="0 0 600 600"><defs><style>
      .uuid-270fe1d8-6ffc-45cd-908c-63708945a6da {
        fill: none;
        stroke: #000;
        stroke-linecap: round;
        stroke-miterlimit: 10;
        stroke-width: 4px;
      }
    </style></defs><path class="uuid-270fe1d8-6ffc-45cd-908c-63708945a6da" d="m378.79,259.75c-1.76-5.11-7.33-7.82-12.44-6.06s-7.82,7.33-6.06,12.44"/><circle cx="362.12" cy="293.18" r="9.78" transform="translate(-9.59 12.26) rotate(-1.91)"/><path class="uuid-270fe1d8-6ffc-45cd-908c-63708945a6da" d="m346.88,270.76c-1.76-5.11-7.33-7.82-12.44-6.06-5.11,1.76-7.82,7.33-6.06,12.44"/></svg>
<svg id="uuid-450fdecb-733e-48b4-b0a4-0ab574031883" data-name="BODY" xmlns="http://www.w3.org/2000/svg" viewBox="0 0 600 600"><defs><style>
      .uuid-068101b7-7fbf-4e92-86bc-660a3f256797 {
        fill: #7aa6ff;
      }

      .uuid-068101b7-7fbf-4e92-86bc-660a3f256797, .uuid-8211c350-dcfc-4db5-8deb-9ae37e4bdaf2 {
        stroke: #000;
        stroke-linecap: round;
        stroke-linejoin: round;
        stroke-width: 2px;
      }

      .uuid-8211c350-dcfc-4db5-8deb-9ae37e4bdaf2 {
        fill: none;
      }
    </style></defs><g id="uuid-646dc1e2-07ae-409b-aec3-9c03ac390205" data-name="uuid-f5c00d25-8460-49cf-b64c-50f57d72c6be"><g id="uuid-9a962497-8755-4ac0-b66c-d171e128c02a" data-name="uuid-8849d8e3-d3e6-4da8-a11f-9a3bbb4f63ac"><g><g><g><path class="uuid-068101b7-7fbf-4e92-86bc-660a3f256797" d="m153.02,434.09c.3-1.14.97-3.55,1.49-5.37-.02,0-.04-.02-.05-.02-15.17-6.61-31.48-17.86-31.48-17.86,0,0-3.24,1.42-3.24,4.92-2.76,1.28-2.97,5.33-2.97,5.33l9.54,5.49s9.98,6.74,25.53,13.16c.37-1.92.89-4.49,1.19-5.65h0Z"/><path class="uuid-068101b7-7fbf-4e92-86bc-660a3f256797" d="m514.62,329.65s-3.89-.54-6.34-2.76c0,0-2.14,3.07-4.98,3.77,0,0,1.29,9.75-.66,19.77-3.39,17.48-12.68,31.31-50.54,41.73-14.33,3.94-51.82,10.82-51.82,10.82,0,0-8.89-35.45-54.32-25.85-32.4,6.84-52.82,33.98-52.82,33.98,0,0-14.34-.9-47.25,16.03-14.09,7.25-31.44,12.57-46.32,12.58-.12,0-.25,0-.37,0-1.3,1.04-2.85,2.57-3.8,4.57-.96,2.01-1.32,4.44-1.44,6.35,37.3,3.55,72.47-26.25,92.29-29.35,0,0-4.98,7.83-3.79,19.04,1.65,15.61,26.64,14.68,28.94-2.63,2.38-17.9-6.99-23.76-6.99-23.76,0,0,11.02-14.36,36.61-23.87,25.58-9.51,42.8-.63,48.16,15.74,0,0-21.58,6.61-34.88,21.92-11.73,13.51-12.16,44.54,26.56,25.23l-6.14-7.21s-13.39,5.75-16.17,1.2c-2.78-4.55,1.87-20.14,37.89-33.18l5.57,5.95s-.14-4.31-.34-7.55c0,0,11.46-3.02,25.48-5.85,14.02-2.83,58.58-10.77,73.28-30.19,4.81-6.35,7.92-13.54,9.93-20.33-.85-3.45-.09-6.28,2.03-8.45.35-1.84.62-3.6.83-5.25-4.47-6.74,1.39-12.45,1.39-12.45h0Zm-216.94,111.53c-5.8.81-6.44-9.03.43-18.88,6.13,4.04,5.36,18.07-.43,18.88Z"/></g><path class="uuid-068101b7-7fbf-4e92-86bc-660a3f256797" d="m286.23,421.29s2.05-3.32,6.89-10.18"/><path class="uuid-068101b7-7fbf-4e92-86bc-660a3f256797" d="m304.38,413.94c-2.9,3.17-6.27,8.36-6.27,8.36"/><path class="uuid-068101b7-7fbf-4e92-86bc-660a3f256797" d="m389.15,405.82s7.3-2.13,11.11-2.83"/><line class="uuid-8211c350-dcfc-4db5-8deb-9ae37e4bdaf2" x1="396.43" y1="413.77" x2="401.66" y2="412.17"/><path class="uuid-068101b7-7fbf-4e92-86bc-660a3f256797" d="m133.19,417.4c-4.76,5.04-3.95,11.03-3.95,11.03"/><line class="uuid-8211c350-dcfc-4db5-8deb-9ae37e4bdaf2" x1="119.73" y1="415.76" x2="130.09" y2="422.39"/><g><path class="uuid-068101b7-7fbf-4e92-86bc-660a3f256797" d="m500.03,311.03s-1.76-7.04-2.91-9.74l12.07-2.02s2.26,6.34,3.21,12.07c0,0-3.49,2.96-4.78,4.7,0,0-2.95-3.76-7.58-5.01h0Z"/><path class="uuid-068101b7-7fbf-4e92-86bc-660a3f256797" d="m479.68,263.35l35.88-6.83c1.06-.2,2.12.33,2.37,1.18l7.4,24.82c.71,2.39.59,4.78-.22,6.97-1.65,4.47-8.33,13.26-14.38,14.41l-4.86-3.8c-9.02,1.72-18.08-2.77-20.24-10.03l-11.57-20.23c1.24-1.63,4.15-5.46,4.42-5.81.26-.33.68-.59,1.2-.68h0Z"/><path class="uuid-068101b7-7fbf-4e92-86bc-660a3f256797" d="m475.35,269.02l35.88-6.83c1.06-.2,2.12.33,2.37,1.18l7.4,24.82c2.16,7.25-3.39,14.52-12.41,16.24l-7.06,1.34c-9.02,1.72-18.08-2.77-20.24-10.03l-7.4-24.82c-.25-.85.4-1.7,1.46-1.9Z"/><g><path class="uuid-068101b7-7fbf-4e92-86bc-660a3f256797" d="m486.66,266.05l-1.61.31-5.75-19.27c-.22-.74-.12-1.5.27-2.08l.52-.77c.14-.21.34-.33.55-.38.52-.11,1.13-.22,1.62-.31l4.39,22.5h0Z"/><path class="uuid-068101b7-7fbf-4e92-86bc-660a3f256797" d="m489,262.54l-2.35,3.51-5.75-19.27c-.22-.74-.12-1.5.27-2.08l.52-.77c.48-.71,1.64-.42,1.9.48l5.41,18.13h0Z"/><line class="uuid-8211c350-dcfc-4db5-8deb-9ae37e4bdaf2" x1="479.2" y1="246.52" x2="480.74" y2="246.23"/></g><g><path class="uuid-068101b7-7fbf-4e92-86bc-660a3f256797" d="m503.95,262.76l-1.61.31-5.75-19.27c-.22-.74-.12-1.5.27-2.08l.52-.77c.14-.21.34-.33.55-.38.52-.11,1.13-.22,1.62-.31l4.39,22.5h0Z"/><path class="uuid-068101b7-7fbf-4e92-86bc-660a3f256797" d="m506.3,259.25l-2.35,3.51-5.75-19.27c-.22-.74-.12-1.5.27-2.08l.52-.77c.48-.71,1.64-.42,1.9.48l5.41,18.13h0Z"/><line class="uuid-8211c350-dcfc-4db5-8deb-9ae37e4bdaf2" x1="496.49" y1="243.23" x2="498.04" y2="242.93"/></g><line class="uuid-8211c350-dcfc-4db5-8deb-9ae37e4bdaf2" x1="517.06" y1="256.72" x2="512.65" y2="262.36"/></g></g><circle class="uuid-068101b7-7fbf-4e92-86bc-660a3f256797" cx="499.11" cy="286.46" r="6.19"/></g></g></g></svg>
<svg id="uuid-cfa177e0-3db8-41e4-8a52-6ff5aa173990" data-name="BACKGROUND" xmlns="http://www.w3.org/2000/svg" viewBox="0 0 600 600"><defs><style>
      .uuid-b8723a43-7cc7-4620-9c33-b5aeb61146d3 {
        opacity: .5;
      }

      .uuid-b8723a43-7cc7-4620-9c33-b5aeb61146d3, .uuid-3ef18c27-fb31-42a1-8e43-d208d9f8ba52, .uuid-d66d6b9e-12fb-4ad4-a164-2db1cf7825d1 {
        fill: none;
      }

      .uuid-3ef18c27-fb31-42a1-8e43-d208d9f8ba52, .uuid-d66d6b9e-12fb-4ad4-a164-2db1cf7825d1 {
        stroke: #000;
        stroke-linecap: round;
        stroke-linejoin: round;
      }

      .uuid-d66d6b9e-12fb-4ad4-a164-2db1cf7825d1 {
        stroke-width: 2px;
      }
    </style></defs><g id="uuid-da9cc0e6-3cfe-461e-8a8f-34904e1cffc2" data-name="uuid-df7eda05-8d90-48fe-8005-fe68a29d7cab"><g id="uuid-7f73c803-a58b-4b9b-9db5-f7182fa6d44b" data-name="uuid-e789c629-4a7f-4a38-b33d-b89f18fb6b0e"><g class="uuid-b8723a43-7cc7-4620-9c33-b5aeb61146d3"><g><circle cx="456.94" cy="353.59" r="2.25"/><circle cx="471.2" cy="357.76" r="1.58"/><circle cx="459.7" cy="348.86" r=".79"/><line class="uuid-d66d6b9e-12fb-4ad4-a164-2db1cf7825d1" x1="466.43" y1="354.78" x2="467.45" y2="357.36"/><line class="uuid-d66d6b9e-12fb-4ad4-a164-2db1cf7825d1" x1="470.91" y1="351.75" x2="472.45" y2="353.59"/><line class="uuid-d66d6b9e-12fb-4ad4-a164-2db1cf7825d1" x1="474.02" y1="347.38" x2="476.29" y2="348.16"/><line class="uuid-d66d6b9e-12fb-4ad4-a164-2db1cf7825d1" x1="475.59" y1="341.74" x2="478.11" y2="341.99"/><line class="uuid-d66d6b9e-12fb-4ad4-a164-2db1cf7825d1" x1="475.59" y1="337.29" x2="478.42" y2="336.3"/><g><path class="uuid-d66d6b9e-12fb-4ad4-a164-2db1cf7825d1" d="m485.94,343.29c.16-.15.32-.3.49-.44,3.21-2.69,7.6-2.73,9.8-.1s1.37,6.94-1.84,9.63c-.17.15-.35.28-.53.41"/><path class="uuid-d66d6b9e-12fb-4ad4-a164-2db1cf7825d1" d="m490.83,354.2c-2.39.58-4.8.01-6.25-1.72-1.45-1.74-1.59-4.2-.58-6.45"/><path class="uuid-d66d6b9e-12fb-4ad4-a164-2db1cf7825d1" d="m489.14,341.28c-2.26-2.7-4.88-3.71-6.29-2.97-1.85.97-1.6,4.94,4.32,12.01,6.04,7.22,10.01,8.14,11.22,6.37.88-1.28.31-3.98-1.98-6.71"/><path class="uuid-d66d6b9e-12fb-4ad4-a164-2db1cf7825d1" d="m484.96,340.63c-.2.5.71,3.05,4.61,7.71,3.85,4.61,6.24,6.02,6.81,5.97"/></g><polygon points="489.53 359.14 491.48 359.75 492.95 358.66 492.48 360.34 493.53 361.96 491.92 361.32 490.18 362.32 490.83 360.72 489.53 359.14"/><polygon points="479.87 350.73 480.59 352.64 482.36 353.13 480.74 353.79 480.12 355.62 479.63 353.95 477.76 353.21 479.42 352.73 479.87 350.73"/><polygon points="490.55 335.71 490.93 336.72 491.86 336.98 491.01 337.33 490.68 338.29 490.42 337.41 489.44 337.02 490.32 336.77 490.55 335.71"/><polygon points="486.04 333.73 486.42 334.73 487.35 334.99 486.5 335.34 486.17 336.3 485.91 335.42 484.93 335.03 485.81 334.78 486.04 333.73"/><path class="uuid-d66d6b9e-12fb-4ad4-a164-2db1cf7825d1" d="m435.59,358.22s1.41,5.62,1.63,6.57c.36,1.52-1.99,4.3,0,5.28,1.99.98,2.71-4.7,3.62-4.7s0,3.34,1.47,3.24,1.19-4.25,2.2-6.4c1.01-2.15,2.98-5.03,3.59-4.85s-.33,3.11.99,3.11,1.42-4.73,2.28-6.8c.86-2.07,2.93-5.01,2.93-5.01,0,0-5.21-4.1-12.49-5.87"/><path class="uuid-d66d6b9e-12fb-4ad4-a164-2db1cf7825d1" d="m454.3,348.66c2.88.86,3.64-3.79,2.17-5.61"/><path class="uuid-3ef18c27-fb31-42a1-8e43-d208d9f8ba52" d="m444.64,351.72s-.3,2.44,1.09,2.79c1.32.34,1.49-1.54,1.49-1.54"/><path class="uuid-3ef18c27-fb31-42a1-8e43-d208d9f8ba52" d="m439.03,360.8s-.03,2.53,1.31,2.53,1.52-1.72,1.52-1.72"/><circle class="uuid-3ef18c27-fb31-42a1-8e43-d208d9f8ba52" cx="441.73" cy="356.91" r="2.24"/><circle class="uuid-3ef18c27-fb31-42a1-8e43-d208d9f8ba52" cx="448.54" cy="348.77" r="2.24"/><circle class="uuid-3ef18c27-fb31-42a1-8e43-d208d9f8ba52" cx="441.33" cy="347.81" r="2.24"/><path class="uuid-d66d6b9e-12fb-4ad4-a164-2db1cf7825d1" d="m452.89,369.39c-2.97-4.45-.67-11.34,6.38-11.03s6.91,9.4,1.96,12.1c0,0,.15,3.78-1.54,3.94s-1.77-2.53-1.77-2.53c0,0-.25,2.93-1.69,2.93s-1.44-2.91-1.44-2.91c0,0-1.29,2.4-2.3,1.79s.41-4.3.41-4.3h0Z"/><path d="m454.84,363.98c2.12-.1,1.2,3.87-.12,3.72s-1.34-3.65.12-3.72Z"/><path d="m458.38,363.98c2.12-.1,1.2,3.87-.12,3.72s-1.34-3.65.12-3.72Z"/><path class="uuid-3ef18c27-fb31-42a1-8e43-d208d9f8ba52" d="m452.45,368.65s-1.59.54-2.68,1.15-1.57,1.77-2.68,1.54c-1.11-.23-1.31-3.05.46-3.64-1.87-.91-1.21-3.39.83-2.73,2.05.66,3.26.87,3.26.87"/><path class="uuid-3ef18c27-fb31-42a1-8e43-d208d9f8ba52" d="m464.77,364.12s.37-.19,1.43-.84,1.49-1.84,2.61-1.66c1.12.18,1.45,2.99-.3,3.65,1.91.83,1.36,3.34-.71,2.77s-3.3-.73-3.3-.73"/><polygon class="uuid-d66d6b9e-12fb-4ad4-a164-2db1cf7825d1" points="471.72 367.45 477.43 362.52 475.23 355.24 480.64 360.8 487.27 358.34 482.73 363.48 483.27 366.24 480.57 367.45 479.21 365.67 471.72 367.45"/><path class="uuid-d66d6b9e-12fb-4ad4-a164-2db1cf7825d1" d="m465.64,339.6s-5.81,8.05-1.14,15.89c0,0,12.97-3.08,10.86-19.19"/><path class="uuid-d66d6b9e-12fb-4ad4-a164-2db1cf7825d1" d="m464.5,355.49s2.34-9.66,6.41-17.67"/><path d="m466.16,349.71c3.8,0,8.34-6.47,4.25-10.69l-4.25,10.69Z"/></g><g><path class="uuid-d66d6b9e-12fb-4ad4-a164-2db1cf7825d1" d="m187.2,411.38c-.39,0-.77.04-1.15.1,1.97.69,3.39,2.54,3.39,4.74,0,2.78-2.26,5.04-5.04,5.04-2.2,0-4.05-1.42-4.74-3.39-.06.38-.1.76-.1,1.15,0,4.22,3.42,7.63,7.63,7.63s7.63-3.42,7.63-7.63-3.42-7.63-7.63-7.63h0Z"/><circle cx="182.72" cy="414.55" r="1.79"/><circle cx="202.81" cy="377.76" r="1.79"/><circle cx="226.98" cy="350.5" r="1.26"/><circle cx="227.31" cy="346.96" r="1.26"/><circle cx="230.42" cy="348.73" r="1.26"/><circle cx="204.15" cy="383.07" r=".79"/><circle cx="188.24" cy="385.47" r=".79"/><circle cx="193.15" cy="402.91" r="1.86"/><polyline class="uuid-d66d6b9e-12fb-4ad4-a164-2db1cf7825d1" points="167.11 412.5 189.56 406.71 184.75 387.34 172.72 390.32"/><polyline class="uuid-d66d6b9e-12fb-4ad4-a164-2db1cf7825d1" points="168.47 407.03 184.7 402.92 182.02 391.69 171.68 394.38"/><polyline class="uuid-d66d6b9e-12fb-4ad4-a164-2db1cf7825d1" points="170.66 398.39 175.81 397.05 176.74 400.78 169.58 402.64"/><line class="uuid-d66d6b9e-12fb-4ad4-a164-2db1cf7825d1" x1="178.33" y1="404.53" x2="182.59" y2="408.51"/><line class="uuid-3ef18c27-fb31-42a1-8e43-d208d9f8ba52" x1="167.84" y1="409.74" x2="176.99" y2="407.44"/><path class="uuid-d66d6b9e-12fb-4ad4-a164-2db1cf7825d1" d="m205.84,374.96s-.35-10.78.3-15.52c.96-6.93,11.93-10.21,13.25,2.17,0,0,8.54-.91,8.24,6.93-.3,7.84-21.79,6.42-21.79,6.42h0Z"/><line class="uuid-d66d6b9e-12fb-4ad4-a164-2db1cf7825d1" x1="231.71" y1="363.58" x2="234.81" y2="366.21"/><polyline class="uuid-d66d6b9e-12fb-4ad4-a164-2db1cf7825d1" points="227.42 366.21 234.81 366.21 231.84 369.24"/><polyline class="uuid-d66d6b9e-12fb-4ad4-a164-2db1cf7825d1" points="198.14 363.58 201.04 366.21 205.76 366.21"/><line class="uuid-d66d6b9e-12fb-4ad4-a164-2db1cf7825d1" x1="198.14" y1="368.77" x2="201.04" y2="366.21"/><polyline class="uuid-d66d6b9e-12fb-4ad4-a164-2db1cf7825d1" points="212.08 390.32 205.48 391.69 207.82 381.38 220.85 378.01 218.7 384.85"/><polyline class="uuid-d66d6b9e-12fb-4ad4-a164-2db1cf7825d1" points="220.85 378.01 211.08 386.16 205.48 391.69"/><polyline class="uuid-d66d6b9e-12fb-4ad4-a164-2db1cf7825d1" points="207.82 381.38 211.08 386.16 214.52 387.78"/><polygon points="181.67 385.68 182.73 380.67 188.24 378.01 182.18 377.64 181.27 373.44 179.46 374.61 179.46 378.5 174.8 382.38 179.6 382.24 181.67 385.68"/><path class="uuid-d66d6b9e-12fb-4ad4-a164-2db1cf7825d1" d="m200.78,411.95c-4.13.25-4.67-2.83-3.25-12.59-7.35-2.41-6.94-7.47-5.39-11.21,1.55-3.74-1.69-8.26-2.06-9.81-.37-1.55.67-4.89,1.28-4.9.42-.01.87,1.45,1.11,2.37.11.42.49.72.93.72h1.13c.41,0,.77-.26.9-.64.34-.98,1-2.74,1.27-2.77.37-.03,1.72,2.66,1.72,4.45s-.37,3.74.13,5.09,4.96,6.44,4.28,11.06-5.29,5.65-5.29,5.65"/><path class="uuid-d66d6b9e-12fb-4ad4-a164-2db1cf7825d1" d="m193.15,408.93s3.3-5.26,9.17-2.69"/><line class="uuid-3ef18c27-fb31-42a1-8e43-d208d9f8ba52" x1="209.07" y1="375.05" x2="209.07" y2="370.51"/><line class="uuid-3ef18c27-fb31-42a1-8e43-d208d9f8ba52" x1="211.99" y1="370" x2="212.13" y2="375.01"/><line class="uuid-3ef18c27-fb31-42a1-8e43-d208d9f8ba52" x1="215.43" y1="374.81" x2="214.86" y2="370"/><line class="uuid-3ef18c27-fb31-42a1-8e43-d208d9f8ba52" x1="218.76" y1="374.38" x2="217.89" y2="369.65"/><line class="uuid-3ef18c27-fb31-42a1-8e43-d208d9f8ba52" x1="222.26" y1="373.56" x2="220.85" y2="369.24"/><line class="uuid-3ef18c27-fb31-42a1-8e43-d208d9f8ba52" x1="225.08" y1="372.32" x2="223.15" y2="368.3"/><line class="uuid-3ef18c27-fb31-42a1-8e43-d208d9f8ba52" x1="227.42" y1="369.67" x2="224.77" y2="366.78"/><line class="uuid-3ef18c27-fb31-42a1-8e43-d208d9f8ba52" x1="219.39" y1="361.61" x2="215.6" y2="363.07"/><line class="uuid-3ef18c27-fb31-42a1-8e43-d208d9f8ba52" x1="218.9" y1="358.92" x2="214.86" y2="360.58"/><line class="uuid-3ef18c27-fb31-42a1-8e43-d208d9f8ba52" x1="217.89" y1="356.43" x2="213.95" y2="358.62"/><line class="uuid-3ef18c27-fb31-42a1-8e43-d208d9f8ba52" x1="215.6" y1="354.01" x2="212.9" y2="357.01"/><line class="uuid-3ef18c27-fb31-42a1-8e43-d208d9f8ba52" x1="211.99" y1="353.34" x2="211.32" y2="356.43"/><circle class="uuid-d66d6b9e-12fb-4ad4-a164-2db1cf7825d1" cx="230.42" cy="351.71" r="8.87"/></g></g></g></g></svg>
<svg id="uuid-499a4094-d166-418c-a33c-d07543a88333" data-name="BODY" xmlns="http://www.w3.org/2000/svg" xmlns:xlink="http://www.w3.org/1999/xlink" viewBox="0 0 600 600"><defs><style>
      .uuid-76e919c8-f769-4746-9f54-c052f2839f0b, .uuid-3577aa37-3100-467b-bbbd-ee2c590872d6, .uuid-79007a77-5932-4ed7-86d6-b7f735da2a3f {
        fill: none;
      }

      .uuid-000301ee-73bf-4908-838f-f0acc3cafb97 {
        fill: #7aa6ff;
        stroke-width: 2px;
      }

      .uuid-000301ee-73bf-4908-838f-f0acc3cafb97, .uuid-cd01507f-41e2-4af0-8521-a8f3d5b2032c, .uuid-ad3e7142-bf3e-4804-b7ac-b75c86c32751, .uuid-3577aa37-3100-467b-bbbd-ee2c590872d6 {
        stroke: #000;
        stroke-linecap: round;
        stroke-linejoin: round;
      }

      .uuid-cd01507f-41e2-4af0-8521-a8f3d5b2032c {
        fill: #ffff0d;
      }

      .uuid-cd01507f-41e2-4af0-8521-a8f3d5b2032c, .uuid-ad3e7142-bf3e-4804-b7ac-b75c86c32751, .uuid-3577aa37-3100-467b-bbbd-ee2c590872d6 {
        stroke-width: 2px;
      }

      .uuid-ad3e7142-bf3e-4804-b7ac-b75c86c32751 {
        fill: #fff;
      }

      .uuid-79007a77-5932-4ed7-86d6-b7f735da2a3f {
        clip-path: url(#uuid-ce0777ef-ae89-43b1-bc43-aff59ad98230);
      }
    </style><clipPath id="uuid-ce0777ef-ae89-43b1-bc43-aff59ad98230"><rect class="uuid-76e919c8-f769-4746-9f54-c052f2839f0b" x="622" y="0" width="356.77" height="259.02"/></clipPath></defs><g id="uuid-3edb28fb-1dc5-4fe3-b8f5-b89a21cbec72" data-name="uuid-d8bf4a7d-ed85-4a3e-a407-7d1570284e6b"><g id="uuid-48f3e834-e885-438b-a9bd-fa187af06f63" data-name="uuid-1dd71221-1f4e-4737-8065-faffc7160480"><g><ellipse class="uuid-000301ee-73bf-4908-838f-f0acc3cafb97" cx="266.94" cy="203.15" rx="30.35" ry="11.13" transform="translate(-52.75 101.53) rotate(-19.64)"/><ellipse class="uuid-000301ee-73bf-4908-838f-f0acc3cafb97" cx="264.79" cy="197.11" rx="30.35" ry="11.13" transform="translate(-50.84 100.45) rotate(-19.64)"/><ellipse class="uuid-000301ee-73bf-4908-838f-f0acc3cafb97" cx="262.63" cy="191.07" rx="30.35" ry="11.13" transform="translate(-48.94 99.38) rotate(-19.64)"/><ellipse class="uuid-000301ee-73bf-4908-838f-f0acc3cafb97" cx="260.47" cy="185.02" rx="30.35" ry="11.13" transform="translate(-47.03 98.3) rotate(-19.64)"/></g><g><path class="uuid-ad3e7142-bf3e-4804-b7ac-b75c86c32751" d="m330.41,99.76l-62.82,22.42c-2.6.93-5.39-.74-5.83-3.47-1.29-8.1-2.08-23.59,8.68-30.57,18.38-11.91,27.66,4.66,27.66,4.66,0,0,4.36-8.28,13.29-9.59,11.98-1.75,18.34,5.15,21.32,10.16,1.41,2.38.3,5.46-2.31,6.39h0Z"/><path class="uuid-ad3e7142-bf3e-4804-b7ac-b75c86c32751" d="m298.11,92.8c2.54,4.8.55,8.27.55,8.27"/></g><g><path class="uuid-cd01507f-41e2-4af0-8521-a8f3d5b2032c" d="m282.6,119.07c-8.17-22.91-33.78-34.59-56.57-25.44-20.44,8.2-31.46,30.96-25.19,52.08,3.36,11.33,10.89,20.15,20.34,25.4,6.82,3.79,11.92,10.06,14.54,17.4l1.72,4.83s1.55,4.35,24.6-3.88c23.05-8.22,21.5-12.57,21.5-12.57l-1.73-4.83c-2.63-7.38-2.6-15.48.28-22.77,3.69-9.34,4.14-20.01.5-30.21h0Z"/><g><path class="uuid-ad3e7142-bf3e-4804-b7ac-b75c86c32751" d="m249.28,153.66c-1.16.41-2.54.87-4.06,1.31,2.91,6.34,6.15,15,10.37,26.82.46,1.3-.21,2.73-1.51,3.19s-2.73-.21-3.19-1.51c-4.37-12.24-7.7-21.09-10.62-27.31-4.18.78-8.65,1.01-12.11-.31-4.08-1.56-7.33-4.89-8.47-8.69-.77-2.57-.47-5.08.84-6.89,1.23-1.7,3.19-2.74,5.52-2.93,3.76-.29,7.87,1.61,11.59,5.36,1.83,1.85,3.56,4.34,5.36,7.71,1.49-.4,3.03-.89,4.63-1.45m-22.07-6.45c-.42.15-.75.38-.96.68-.38.53-.42,1.48-.11,2.53.55,1.84,2.28,4.25,5.46,5.46,1.86.71,4.61.8,7.94.32-1.29-2.26-2.54-3.99-3.8-5.27-3.73-3.76-6.59-3.98-7.64-3.89-.33.03-.62.09-.89.18h0Z"/><path class="uuid-ad3e7142-bf3e-4804-b7ac-b75c86c32751" d="m237.86,151.48s3.08-.49,5.11-1.08"/><path class="uuid-ad3e7142-bf3e-4804-b7ac-b75c86c32751" d="m240.26,156.15s2.72-.5,4.96-1.18"/><path class="uuid-ad3e7142-bf3e-4804-b7ac-b75c86c32751" d="m247.6,148.95c1.59-.57,3.1-1.17,4.5-1.8-.74-3.75-.98-6.77-.73-9.36.5-5.26,2.48-9.34,5.57-11.49,1.92-1.34,4.1-1.77,6.12-1.23,2.15.58,3.98,2.33,5.01,4.8,1.53,3.67,1.12,8.3-1.05,12.09-1.85,3.22-5.45,5.87-9.18,7.91,1.68,6.67,4.7,15.63,9.07,27.87.46,1.3-.21,2.73-1.51,3.19-1.3.46-2.73-.21-3.19-1.51-4.22-11.82-7.18-20.57-8.95-27.33-1.45.62-2.81,1.15-3.97,1.56m10.52-23.25c-.87.6-2.95,2.58-3.45,7.85-.17,1.78-.04,3.91.39,6.48,2.88-1.73,4.96-3.55,5.94-5.27,1.7-2.95,1.51-5.91.77-7.68-.42-1.01-1.05-1.72-1.68-1.89-.36-.1-.76-.07-1.18.08-.26.09-.53.24-.8.42h0Z"/><path class="uuid-ad3e7142-bf3e-4804-b7ac-b75c86c32751" d="m256.74,144.74s-2.7,1.57-4.64,2.4"/><path class="uuid-ad3e7142-bf3e-4804-b7ac-b75c86c32751" d="m257.84,149.87s-2.42,1.34-4.59,2.22"/></g></g><g><path class="uuid-ad3e7142-bf3e-4804-b7ac-b75c86c32751" d="m159.12,183.16l62.82-22.42c2.6-.93,3.7-3.99,2.31-6.37-4.14-7.09-13.32-19.58-26.07-18.17-21.77,2.41-18.46,21.12-18.46,21.12,0,0-8.62-3.65-16.35.99-10.38,6.23-10.94,15.6-10.07,21.36.41,2.74,3.22,4.42,5.83,3.49h0Z"/><path class="uuid-ad3e7142-bf3e-4804-b7ac-b75c86c32751" d="m179.72,157.33c1.07,5.32,4.81,6.75,4.81,6.75"/></g><g><path class="uuid-ad3e7142-bf3e-4804-b7ac-b75c86c32751" d="m187.72,100.34l51.25-18.29c2.12-.76,2.98-3.38,1.79-5.47-3.52-6.2-11.29-17.15-21.74-16.15-17.85,1.71-14.81,17.93-14.81,17.93,0,0-7.15-3.3-13.42.57-8.43,5.2-8.72,13.3-7.91,18.28.39,2.37,2.72,3.87,4.85,3.11h0Z"/><path class="uuid-ad3e7142-bf3e-4804-b7ac-b75c86c32751" d="m204.2,78.36c.97,4.61,4.07,5.92,4.07,5.92"/></g><path class="uuid-3577aa37-3100-467b-bbbd-ee2c590872d6" d="m153.9,136.08s14.12-8.54,20.74-2.46c-2.05-8.89,4.05-12.3,4.05-12.3"/><path class="uuid-3577aa37-3100-467b-bbbd-ee2c590872d6" d="m266.41,57.89s-11.26,2.17-11.04,10.9c-3.89-8.07-8.6-6.92-8.6-6.92"/><path class="uuid-3577aa37-3100-467b-bbbd-ee2c590872d6" d="m294.53,68.95s-7.36-1.3-9.28,4.95c-.47-6.71-3.61-7.08-3.61-7.08"/></g></g><g id="uuid-d91b92b5-8f94-44f5-918e-22daf6ee3a0b" data-name="uuid-e7813b6f-2e9c-4ced-a089-4ee6c80ec3de"><g id="uuid-f225defe-e3c7-4b99-a35f-f82dd7397eda" data-name="uuid-a396a31d-4a55-404b-af28-89c8152d84a8"><g class="uuid-79007a77-5932-4ed7-86d6-b7f735da2a3f"><path class="uuid-cd01507f-41e2-4af0-8521-a8f3d5b2032c" d="m643.84-3.16h-47.46s16.55,65.86,104.09,137.39c42.59,34.8,80.9,50.61,123.9,98.29,0,0,4.35,5.26,26.05.81,0,0-11.34-27.93-32.91-47.67-21.57-19.74-59.06-42.39-92.22-73.14-33.17-30.74-60.94-72.81-81.44-115.69Z"/></g></g></g></svg>
</svg>