<?xml version="1.0" encoding="UTF-8"?>
<svg xmlns="http://www.w3.org/2000/svg" viewBox="0 0 600 600">
<svg id="uuid-50f5b600-4bee-4d04-aa66-9a7827d0c80f" data-name="BACKGROUND" xmlns="http://www.w3.org/2000/svg" viewBox="0 0 600 600"><defs><style>
      .uuid-7826a2f3-55af-481e-b40d-34a6e43de7ed {
        fill: #7aa6ff;
      }
    </style></defs><rect class="uuid-7826a2f3-55af-481e-b40d-34a6e43de7ed" x="-1" y="-1" width="602" height="602"/></svg>
<svg id="uuid-dbde9422-7524-4caa-9aef-973de947a85a" data-name="BACKGROUND" xmlns="http://www.w3.org/2000/svg" viewBox="0 0 600 600"><defs><style>
      .uuid-00b29d56-32db-44bc-b865-b505689ce7f2, .uuid-bc0c1d1d-f35d-4801-ab0a-7ed1f6579806 {
        fill: #fff;
      }

      .uuid-721045bb-6a0a-43b1-bbbb-700680bef5ac, .uuid-8bce232e-cf9f-4930-aa41-bc826f060c10, .uuid-bc0c1d1d-f35d-4801-ab0a-7ed1f6579806, .uuid-7a18d1de-3b5c-43f4-b300-729f0a8ada13, .uuid-9a9b3e9a-3b64-462c-a5b9-1ed4fe14cc54, .uuid-49737ab1-df19-44de-9973-63511c143097, .uuid-f441cade-332c-4c12-ac30-b324c1b26b62 {
        stroke: #000;
        stroke-width: 2px;
      }

      .uuid-721045bb-6a0a-43b1-bbbb-700680bef5ac, .uuid-8bce232e-cf9f-4930-aa41-bc826f060c10, .uuid-bc0c1d1d-f35d-4801-ab0a-7ed1f6579806, .uuid-49737ab1-df19-44de-9973-63511c143097 {
        stroke-miterlimit: 10;
      }

      .uuid-721045bb-6a0a-43b1-bbbb-700680bef5ac, .uuid-8bce232e-cf9f-4930-aa41-bc826f060c10, .uuid-7a18d1de-3b5c-43f4-b300-729f0a8ada13, .uuid-f441cade-332c-4c12-ac30-b324c1b26b62 {
        fill: #ffc9f1;
      }

      .uuid-8bce232e-cf9f-4930-aa41-bc826f060c10, .uuid-bc0c1d1d-f35d-4801-ab0a-7ed1f6579806, .uuid-7a18d1de-3b5c-43f4-b300-729f0a8ada13, .uuid-9a9b3e9a-3b64-462c-a5b9-1ed4fe14cc54, .uuid-49737ab1-df19-44de-9973-63511c143097 {
        stroke-linecap: round;
      }

      .uuid-7a18d1de-3b5c-43f4-b300-729f0a8ada13, .uuid-9a9b3e9a-3b64-462c-a5b9-1ed4fe14cc54, .uuid-f441cade-332c-4c12-ac30-b324c1b26b62 {
        stroke-linejoin: round;
      }

      .uuid-9a9b3e9a-3b64-462c-a5b9-1ed4fe14cc54 {
        fill: none;
      }

      .uuid-49737ab1-df19-44de-9973-63511c143097 {
        fill: #a07bff;
      }
    </style></defs><path class="uuid-7a18d1de-3b5c-43f4-b300-729f0a8ada13" d="m409.81,359.6c9.2,3.77,29.89,12.05,42.79,16.03,2.11.65,4.41.69,6.5-.04,11.79-4.08,28.47-11.39,33.03-11.32,5.25.08,7.8,3.93,19.88,2.04,13.36-2.1,22.43-11.99,20.93-23.3-4.21-43.28-25.18-26.79-25.18-26.79,0,0-5.84-8.75-18.76-4.82-11.83,3.6-10.2,14.44-6.47,22.47l-25.29,8.58c-2.14.72-4.45.71-6.59-.02l-35.7-12.61"/><path class="uuid-8bce232e-cf9f-4930-aa41-bc826f060c10" d="m533.36,312.82c2.5,3.94,1.62,9.14-1.57,12.4-2.47,2.53-5.88,3.88-9.32,4.4-2.8.43-5.7.42-8.49-.08-2.14-.39-4.29-1.1-5.79-2.75-1.66-1.83-2.27-4.46-1.98-6.87.51-4.17,3.84-7.14,7.22-9.26,3.17-1.98,6.86-3.26,10.64-3.09,3.8.18,7.36,2.19,9.3,5.24Z"/><path class="uuid-8bce232e-cf9f-4930-aa41-bc826f060c10" d="m538.57,349.84c.97,3.03.32,6.43-1.5,9.01-3.77,5.33-11.17,5.65-16.96,4.27-3.31-.79-6.69-2.21-8.67-5.13-3.13-4.61-.82-9.79,3.48-12.56,2.58-1.66,5.61-2.67,8.63-3.14,5.73-.89,13.1,1.51,15.03,7.56Z"/><path class="uuid-8bce232e-cf9f-4930-aa41-bc826f060c10" d="m538.71,328.53c1.8,2.99,2.06,6.89.22,9.9-1.95,3.2-4.94,5.25-8.49,6.28-3.66,1.07-7.64,1.27-11.4.44-2.25-.5-4.53-1.38-5.96-3.28-1.86-2.47-1.89-5.68-.85-8.49,1.2-3.24,4.17-5.69,7.09-7.37,6.15-3.56,15.21-4.43,19.39,2.52Z"/><path class="uuid-8bce232e-cf9f-4930-aa41-bc826f060c10" d="m501.85,311.68s9.27,3.84,7.77,12.02c-1.04,5.68-8.17,9.55-14.94,6.13"/><path class="uuid-9a9b3e9a-3b64-462c-a5b9-1ed4fe14cc54" d="m500.67,331.08c2.41,1.63,5.11,8.04,3.4,14.42"/><path d="m443.44,339.88c-2.88,10.58-6.94,20.23-11.17,28.59-10.17-3.78-21.16-9.53-27-11.93l11.83-26.02,26.35,9.36Z"/><ellipse cx="300" cy="518.65" rx="138.6" ry="22.93"/><path class="uuid-721045bb-6a0a-43b1-bbbb-700680bef5ac" d="m319.36,427.14c-1.16,1.05-54.95,57-54.95,57,0,0,21.51-1.95,31.74,10.62,10.23,12.57,7.26,23.89,7.26,23.89h-66.9s-28.69-36.17-28.69-36.17c0,0,3.74-13.4,20.44-10.59,20.9-19.38,55.52-59.13,55.52-59.13l35.59,14.38Z"/><path d="m283.78,412.76l31.28,12.64-3.24,9.5c-2.93,3.03-9.76,10.12-13.64,14.14-11.92,0-27.98-2.13-41.33-6.37,13.95-15.1,26.93-29.92,26.93-29.92Z"/><path class="uuid-721045bb-6a0a-43b1-bbbb-700680bef5ac" d="m354.45,173.54l-.11.27-174.2,58.29c-11.49,20.13-18.05,43.43-18.05,68.27,0,76.2,61.77,137.98,137.97,137.98s137.98-61.77,137.98-137.98c0-56.89-34.43-105.72-83.58-126.83Z"/><path class="uuid-9a9b3e9a-3b64-462c-a5b9-1ed4fe14cc54" d="m264.41,484.14c-4.06.49-11.49,1.36-17.85,7.23"/><path class="uuid-00b29d56-32db-44bc-b865-b505689ce7f2" d="m185.17,308.14c-4.41,0-7.98-3.57-7.98-7.98,0-67.74,55.11-122.86,122.86-122.86,4.41,0,7.98,3.57,7.98,7.98s-3.57,7.98-7.98,7.98c-58.94,0-106.9,47.95-106.9,106.9,0,4.41-3.57,7.98-7.98,7.98Z"/><path d="m203.75,397.46l34.2-27.46-24.86,36.3c-6.73-5.1-3.66-2.61-9.34-8.83Z"/><path class="uuid-f441cade-332c-4c12-ac30-b324c1b26b62" d="m323.72,387.31c19.14-13.4,39.15-11.3,55.52,7.36,19.6,22.35,30.57,33.06,30.57,33.06,0,0,10.74-19.34,34.77-17.5,18.26,1.4,24.84,14.43,24.84,14.43,0,0,6.21,8.82-22.45,33.5-28.66,24.68-54.93,40.92-61.14,29.46-6.21-11.46-2.82-32.1-2.82-32.1,0,0-22.02-26.09-27.94-32.01-6.79-6.79-15.71-1.36-15.71-1.36"/><path class="uuid-721045bb-6a0a-43b1-bbbb-700680bef5ac" d="m446.97,458.17c-25.89,22.29-49.82,37.69-58.79,32.02-9.77-7.44,26.84-38.54,44.88-52.7,18.04-14.16,32.17-17.82,36.36-12.81,0,0,6.21,8.82-22.45,33.5Z"/><path class="uuid-9a9b3e9a-3b64-462c-a5b9-1ed4fe14cc54" d="m409.81,427.74c-1.89,2.86-4.55,10.38-4.55,10.38"/><ellipse class="uuid-bc0c1d1d-f35d-4801-ab0a-7ed1f6579806" cx="269.41" cy="209.07" rx="94.9" ry="26.25" transform="translate(-52.5 96.54) rotate(-18.55)"/><ellipse class="uuid-49737ab1-df19-44de-9973-63511c143097" cx="269.41" cy="209.07" rx="71.19" ry="13.32" transform="translate(-52.5 96.54) rotate(-18.55)"/><g><path class="uuid-7a18d1de-3b5c-43f4-b300-729f0a8ada13" d="m214.11,345.7c-8.05,5.83-25.34,20.79-35.52,29.67-1.67,1.45-2.82,3.41-3.39,5.55-3.14,11.67-8.55,33.44-8.55,33.44,0,0-8.42.58-12.19,14.35-3.64,13.3-6.64,25.06,3.77,29.75.35,7.47,7.51,15.45,19.2,9.41.14-.06,1.32,1.32,1.44,1.45,2.64,2.7,6.36,4.45,10.13,4.81,3.65.36,7.61-.67,10.43-3.08,3.29-2.81,5.4-6.94,6.05-11.2.4-2.61.26-5.31-.75-7.78,0,0,6.2-2.51,8.05-11.34,1.99-9.49-4.22-19.42-14.62-18.18l6.17-23.11c.51-2.2,1.74-4.16,3.49-5.59l29.38-24.3"/><path class="uuid-9a9b3e9a-3b64-462c-a5b9-1ed4fe14cc54" d="m204.73,452.06c-1.37-3.47-5.39-7.08-9-6.88"/><path class="uuid-9a9b3e9a-3b64-462c-a5b9-1ed4fe14cc54" d="m178.86,469.3c-5.16-5.27-3.82-11.97-2.9-13.54"/><path class="uuid-9a9b3e9a-3b64-462c-a5b9-1ed4fe14cc54" d="m158.22,458.45c-.27-5.22.73-7.32,3.06-9.83"/><path class="uuid-9a9b3e9a-3b64-462c-a5b9-1ed4fe14cc54" d="m193.93,450.63c.14-2.07.48-4.16,1.32-6.06.85-1.95,2.36-3.88,4.31-4.85"/></g></svg>
<svg id="uuid-d2017022-49ac-4767-bd5b-8d3e235df956" data-name="BODY" xmlns="http://www.w3.org/2000/svg" viewBox="0 0 600 600"><defs><style>
      .uuid-ceb1f6db-ac22-433a-a64d-b7c361a52305 {
        fill: #ffff0d;
      }

      .uuid-ceb1f6db-ac22-433a-a64d-b7c361a52305, .uuid-8fc51c2b-2e55-48cc-a922-83a746c6089c {
        stroke-width: 2px;
      }

      .uuid-ceb1f6db-ac22-433a-a64d-b7c361a52305, .uuid-8fc51c2b-2e55-48cc-a922-83a746c6089c, .uuid-ededc5f7-d71c-4a39-8679-141d6e366d35 {
        stroke: #000;
        stroke-linecap: round;
        stroke-linejoin: round;
      }

      .uuid-8fc51c2b-2e55-48cc-a922-83a746c6089c, .uuid-ededc5f7-d71c-4a39-8679-141d6e366d35 {
        fill: none;
      }

      .uuid-ededc5f7-d71c-4a39-8679-141d6e366d35 {
        stroke-width: 4px;
      }
    </style></defs><g id="uuid-2e50336c-81e2-44ae-a2f0-cfae5c829496" data-name="uuid-ca7a59fd-5ea4-4026-baf3-83b8314686b7"><g><path d="m371.9,289.97c1.87,5.07-.73,10.69-5.8,12.56-5.07,1.87-10.69-.73-12.56-5.8l18.36-6.76h0Z"/><path class="uuid-ededc5f7-d71c-4a39-8679-141d6e366d35" d="m347.02,271.26c1.87,5.07-.73,10.69-5.8,12.56-5.07,1.87-10.69-.73-12.56-5.8"/><path class="uuid-ededc5f7-d71c-4a39-8679-141d6e366d35" d="m378.7,259.59c1.87,5.07-.73,10.69-5.8,12.56-5.07,1.87-10.69-.73-12.56-5.8"/><g><path class="uuid-ceb1f6db-ac22-433a-a64d-b7c361a52305" d="m394.29,286.52l-6.54-4.3c-2.76-1.82-6.22-2.22-9.33-1.07l-17.8,6.56-17.8,6.56c-3.1,1.14-5.48,3.69-6.4,6.87l-2.18,7.52c-.22.76.52,1.45,1.26,1.17l23.58-8.69c1.5-.55,2.5-1.96,2.54-3.56l.15-6.73,4.48,5.03c1.06,1.19,2.74,1.61,4.24,1.06l23.58-8.69c.74-.27.86-1.28.2-1.71l.02-.02Z"/><g><line class="uuid-8fc51c2b-2e55-48cc-a922-83a746c6089c" x1="352.99" y1="303.37" x2="353.29" y2="295.54"/><line class="uuid-8fc51c2b-2e55-48cc-a922-83a746c6089c" x1="343.37" y1="306.92" x2="344.56" y2="298.75"/><line class="uuid-8fc51c2b-2e55-48cc-a922-83a746c6089c" x1="376.62" y1="294.67" x2="371.32" y2="288.89"/><line class="uuid-8fc51c2b-2e55-48cc-a922-83a746c6089c" x1="386.25" y1="291.12" x2="380.04" y2="285.68"/></g></g><g><ellipse cx="334.14" cy="264.66" rx="11.53" ry="3.94" transform="translate(-70.88 131.8) rotate(-20.22)"/><ellipse cx="365.82" cy="252.99" rx="11.53" ry="3.94" transform="translate(-64.9 142.03) rotate(-20.22)"/></g></g></g></svg>
<svg id="uuid-0aa8c587-996b-4cdc-8f6f-9857078d28d3" data-name="BODY" xmlns="http://www.w3.org/2000/svg" viewBox="0 0 600 600"><defs><style>
      .uuid-5c1aa41b-276d-47a9-975e-6b51258e34fd {
        fill: #7aa6ff;
      }

      .uuid-5c1aa41b-276d-47a9-975e-6b51258e34fd, .uuid-5420853f-4843-434c-aead-428453da705c, .uuid-98d20c01-64f9-488a-bda2-9c627608ef99 {
        stroke: #000;
        stroke-linecap: round;
        stroke-linejoin: round;
        stroke-width: 2px;
      }

      .uuid-5420853f-4843-434c-aead-428453da705c {
        fill: none;
      }

      .uuid-98d20c01-64f9-488a-bda2-9c627608ef99 {
        fill: #f9a723;
      }
    </style></defs><g id="uuid-efe03c10-21e9-40e1-b362-43562c7320e3" data-name="uuid-3374edde-7b2c-4e71-84a6-3cb653058dc6"><g id="uuid-7e5c48c3-5d6e-4296-9f6a-e6035b6c477a" data-name="uuid-298fa604-3857-4000-a4c4-1a509c9ef803"><g><path class="uuid-5c1aa41b-276d-47a9-975e-6b51258e34fd" d="m244.59,514.46s8.09-20.22,26.83-20.22c15.1,0,19.01,7.06,19.01,7.06,0,0,3.03-5.94,8.09-9.18,0,0-4.15-7.58-14.26-9.3l-1.73,1.91s-6.97-5.35-23.92-2.28c-16.95,3.07-28.51,21.15-28.51,21.15l.92,8.35,4.39,6.42,9.18-3.89v-.02Z"/><path class="uuid-98d20c01-64f9-488a-bda2-9c627608ef99" d="m209.84,478.1l27.45,34.51c.93,1.16,2.33,1.84,3.82,1.84h61.66c1.79,0,3.24,1.45,3.24,3.24v4.45c0,1.79-1.45,3.24-3.24,3.24h-64.92c-3.9,0-7.59-1.79-10-4.85l-26.47-32.68c-.89-1.1-.9-2.68-.02-3.79l4.63-5.81c.91-1.33,2.85-1.41,3.86-.14h0Z"/><path class="uuid-5420853f-4843-434c-aead-428453da705c" d="m282.53,484.72c2.44,1.78,6.89,7.45,7.9,16.57,2.33,5.28,2.33,13.17,2.33,13.17"/></g><g><path class="uuid-5c1aa41b-276d-47a9-975e-6b51258e34fd" d="m405.26,457.42s-8.33-22.95,12.28-44.49c4.45-4.65,15.27-6.57,24.17-6.37,0,0-25.89,17.7-19.96,39.81l-16.49,11.06h0Z"/><path class="uuid-98d20c01-64f9-488a-bda2-9c627608ef99" d="m382.22,485.43c.29,4,3.37,8.75,9.54,9.05s18.87-1.74,46.41-24.52c27.54-22.78,37.32-34.79,34.59-45.81-2.73-11.02-15.88-8.29-29.33,0-13.45,8.29-23.24,15.87-39.34,30.44-15.19,13.75-22.52,21.98-21.88,30.84h0Z"/><path class="uuid-5420853f-4843-434c-aead-428453da705c" d="m472.87,430.86c1.07-6.88-12.92-14.11-52.29,20.95-38.8,34.55-33.55,42.06-30.93,42.38"/><path class="uuid-5420853f-4843-434c-aead-428453da705c" d="m395.95,488.37c1.88,1.93,15.96-4.79,39.42-24.07,23.46-19.28,33.17-30.27,31.28-32.36s-10.79-2.61-41.12,23.75c-30.33,26.36-31.35,30.85-29.58,32.67h0Z"/><path class="uuid-5420853f-4843-434c-aead-428453da705c" d="m441.71,406.56c12.54-.01,17.04,10.85,17.04,10.85"/></g></g></g></svg>
<svg id="uuid-2f504206-111c-4779-9236-233d24245c5e" data-name="BODY" xmlns="http://www.w3.org/2000/svg" xmlns:xlink="http://www.w3.org/1999/xlink" viewBox="0 0 600 600"><defs><style>
      .uuid-d3edaed5-c7c6-4c4d-aa40-9a4dd8648ee7, .uuid-68d6c310-ce9e-402f-977e-09a9487d1f3f, .uuid-c55da662-6359-43da-9ece-79f419a77998 {
        fill: none;
      }

      .uuid-a378b470-e58b-414a-9aaa-c42cc7401d46, .uuid-ec8004b7-0527-439b-bc6e-4b5df54d70f5, .uuid-a970ff5c-387f-4ed2-bc98-796834b27354 {
        fill: #7aa6ff;
      }

      .uuid-a378b470-e58b-414a-9aaa-c42cc7401d46, .uuid-ec8004b7-0527-439b-bc6e-4b5df54d70f5, .uuid-68d6c310-ce9e-402f-977e-09a9487d1f3f, .uuid-5f18a3b5-25e8-4b4a-92b0-9c895b96bdd6 {
        stroke: #000;
        stroke-linecap: round;
        stroke-linejoin: round;
      }

      .uuid-a378b470-e58b-414a-9aaa-c42cc7401d46, .uuid-68d6c310-ce9e-402f-977e-09a9487d1f3f, .uuid-5f18a3b5-25e8-4b4a-92b0-9c895b96bdd6 {
        stroke-width: 2px;
      }

      .uuid-ec8004b7-0527-439b-bc6e-4b5df54d70f5 {
        stroke-width: 2px;
      }

      .uuid-5f18a3b5-25e8-4b4a-92b0-9c895b96bdd6 {
        fill: #f9a723;
      }

      .uuid-c55da662-6359-43da-9ece-79f419a77998 {
        clip-path: url(#uuid-eca54416-6e61-412d-a418-e0bcf3f00aa5);
      }
    </style><clipPath id="uuid-eca54416-6e61-412d-a418-e0bcf3f00aa5"><path class="uuid-d3edaed5-c7c6-4c4d-aa40-9a4dd8648ee7" d="m500.24,288.07s3.15-12.64,14.55-12.39c0,0,6.81-3.05,4.79-13.7s-9.48-7.62-9.48-7.62l-3.26,2.83s-4.99-3.71-11.8-4.25c-6.81-.54-29.6,19.74-28.65,47.05l2.58,4.27h5.71s1.04-3.08,1.49-4.63c.71,1.5,2.45,4.63,2.45,4.63h5.46s.25-16.04,10.62-13.7c3.59.81,5.54-2.49,5.54-2.49h0Z"/></clipPath></defs><g id="uuid-867e74de-e6be-4fed-8810-6aee283b78c1" data-name="uuid-7815cad7-8e3a-44d2-a5d3-2b4a6315d68d"><g><g><g><path class="uuid-a970ff5c-387f-4ed2-bc98-796834b27354" d="m500.24,288.07s3.15-12.64,14.55-12.39c0,0,6.81-3.05,4.79-13.7s-9.48-7.62-9.48-7.62l-3.26,2.83s-4.99-3.71-11.8-4.25c-6.81-.54-29.6,19.74-28.65,47.05l2.58,4.27h5.71s1.04-3.08,1.49-4.63c.71,1.5,2.45,4.63,2.45,4.63h5.46s.25-16.04,10.62-13.7c3.59.81,5.54-2.49,5.54-2.49h0Z"/><g class="uuid-c55da662-6359-43da-9ece-79f419a77998"><g><path class="uuid-68d6c310-ce9e-402f-977e-09a9487d1f3f" d="m468.96,304.27c3.56-19.63,12.25-29.34,22.7-23.21"/><path class="uuid-68d6c310-ce9e-402f-977e-09a9487d1f3f" d="m495.04,252.95c.78,9.4,3.57,11.29,11.8,4.25"/><path class="uuid-68d6c310-ce9e-402f-977e-09a9487d1f3f" d="m513.81,261.46s-11.73,5.35-20.22,9.49"/><path class="uuid-68d6c310-ce9e-402f-977e-09a9487d1f3f" d="m476.17,299.64c1.03-4.04,4.15-3.86,3.36-.09-.26,1.25-.58,3.01-.91,4.73"/></g></g><path class="uuid-68d6c310-ce9e-402f-977e-09a9487d1f3f" d="m500.24,288.07s3.15-12.64,14.55-12.39c0,0,6.81-3.05,4.79-13.7s-9.48-7.62-9.48-7.62l-3.26,2.83s-4.99-3.71-11.8-4.25c-6.81-.54-29.6,19.74-28.65,47.05l2.58,4.27h5.71s1.04-3.08,1.49-4.63c.71,1.5,2.45,4.63,2.45,4.63h5.46s.25-16.04,10.62-13.7c3.59.81,5.54-2.49,5.54-2.49h0Z"/></g><g><path class="uuid-a378b470-e58b-414a-9aaa-c42cc7401d46" d="m523.26,261.51c2.07,7.74,7.98,12.89,3.75,14.02-.15.04-7.96,2.12-8.12,2.15-4.13.64-8.94-4.61-10.93-12.07-2.03-7.6-.39-14.68,3.67-16,.07-.02,7.8-2.09,7.87-2.11,4.22-1.13,1.68,6.28,3.75,14.02Z"/><ellipse class="uuid-ec8004b7-0527-439b-bc6e-4b5df54d70f5" cx="523.26" cy="261.51" rx="10.33" ry="14.51" transform="translate(-49.81 144.13) rotate(-14.98)"/><line class="uuid-68d6c310-ce9e-402f-977e-09a9487d1f3f" x1="522.82" y1="253.67" x2="518.96" y2="264.52"/><line class="uuid-68d6c310-ce9e-402f-977e-09a9487d1f3f" x1="525.49" y1="265.86" x2="524.1" y2="269.78"/><line class="uuid-68d6c310-ce9e-402f-977e-09a9487d1f3f" x1="527.96" y1="258.93" x2="527.23" y2="260.97"/></g></g><g><path class="uuid-a378b470-e58b-414a-9aaa-c42cc7401d46" d="m521.42,363.39c-.44-.08-.88-.17-1.31-.27-3.31-.79-6.69-2.21-8.67-5.13-3.13-4.61-.82-9.79,3.48-12.56.56-.36,1.14-.68,1.74-.98-1.39-.55-2.66-1.35-3.57-2.56-1.86-2.47-1.89-5.68-.85-8.49.51-1.39,1.37-2.62,2.39-3.72v-.04c-.22-.03-.44-.05-.65-.09-2.1-.38-4.21-1.08-5.7-2.67-2.17,3.15-6.46,5-10.98,3.92l5.35,47.25,20.98-3.74-2.2-10.91h0Z"/><path class="uuid-5f18a3b5-25e8-4b4a-92b0-9c895b96bdd6" d="m507.62,316.05c.9-1.44,2.13-2.7,3.5-3.77l-6.51-32.3s-1.48-4.85-6.4-4.25c-4.92.61-6.54,5.33-6.54,5.33l3.32,29.35c2.06-.09,4.27.05,6.86,1.27,0,0,3.42,1.42,5.77,4.37h0Z"/></g><line class="uuid-68d6c310-ce9e-402f-977e-09a9487d1f3f" x1="501.22" y1="292.85" x2="502.88" y2="303.21"/><line class="uuid-68d6c310-ce9e-402f-977e-09a9487d1f3f" x1="499.45" y1="281.87" x2="500.24" y2="286.79"/><path class="uuid-a378b470-e58b-414a-9aaa-c42cc7401d46" d="m502.64,378.04c.99,8.71,22.7,4.78,20.98-3.74-1.51-7.49-21.81-3.52-20.98,3.74Z"/><path class="uuid-68d6c310-ce9e-402f-977e-09a9487d1f3f" d="m514.37,360.81c-4.9.25-10.44,1.84-13.21,4.18"/><path class="uuid-68d6c310-ce9e-402f-977e-09a9487d1f3f" d="m510.84,349.77c-4.19.5-8.51,1.88-10.97,3.8"/><path class="uuid-68d6c310-ce9e-402f-977e-09a9487d1f3f" d="m511.64,338.39c-4.76.21-10.15,1.71-13.05,3.94"/></g></g></svg>
<svg id="uuid-cfa177e0-3db8-41e4-8a52-6ff5aa173990" data-name="BACKGROUND" xmlns="http://www.w3.org/2000/svg" viewBox="0 0 600 600"><defs><style>
      .uuid-b8723a43-7cc7-4620-9c33-b5aeb61146d3 {
        opacity: .5;
      }

      .uuid-b8723a43-7cc7-4620-9c33-b5aeb61146d3, .uuid-3ef18c27-fb31-42a1-8e43-d208d9f8ba52, .uuid-d66d6b9e-12fb-4ad4-a164-2db1cf7825d1 {
        fill: none;
      }

      .uuid-3ef18c27-fb31-42a1-8e43-d208d9f8ba52, .uuid-d66d6b9e-12fb-4ad4-a164-2db1cf7825d1 {
        stroke: #000;
        stroke-linecap: round;
        stroke-linejoin: round;
      }

      .uuid-d66d6b9e-12fb-4ad4-a164-2db1cf7825d1 {
        stroke-width: 2px;
      }
    </style></defs><g id="uuid-da9cc0e6-3cfe-461e-8a8f-34904e1cffc2" data-name="uuid-df7eda05-8d90-48fe-8005-fe68a29d7cab"><g id="uuid-7f73c803-a58b-4b9b-9db5-f7182fa6d44b" data-name="uuid-e789c629-4a7f-4a38-b33d-b89f18fb6b0e"><g class="uuid-b8723a43-7cc7-4620-9c33-b5aeb61146d3"><g><circle cx="456.94" cy="353.59" r="2.25"/><circle cx="471.2" cy="357.76" r="1.58"/><circle cx="459.7" cy="348.86" r=".79"/><line class="uuid-d66d6b9e-12fb-4ad4-a164-2db1cf7825d1" x1="466.43" y1="354.78" x2="467.45" y2="357.36"/><line class="uuid-d66d6b9e-12fb-4ad4-a164-2db1cf7825d1" x1="470.91" y1="351.75" x2="472.45" y2="353.59"/><line class="uuid-d66d6b9e-12fb-4ad4-a164-2db1cf7825d1" x1="474.02" y1="347.38" x2="476.29" y2="348.16"/><line class="uuid-d66d6b9e-12fb-4ad4-a164-2db1cf7825d1" x1="475.59" y1="341.74" x2="478.11" y2="341.99"/><line class="uuid-d66d6b9e-12fb-4ad4-a164-2db1cf7825d1" x1="475.59" y1="337.29" x2="478.42" y2="336.3"/><g><path class="uuid-d66d6b9e-12fb-4ad4-a164-2db1cf7825d1" d="m485.94,343.29c.16-.15.32-.3.49-.44,3.21-2.69,7.6-2.73,9.8-.1s1.37,6.94-1.84,9.63c-.17.15-.35.28-.53.41"/><path class="uuid-d66d6b9e-12fb-4ad4-a164-2db1cf7825d1" d="m490.83,354.2c-2.39.58-4.8.01-6.25-1.72-1.45-1.74-1.59-4.2-.58-6.45"/><path class="uuid-d66d6b9e-12fb-4ad4-a164-2db1cf7825d1" d="m489.14,341.28c-2.26-2.7-4.88-3.71-6.29-2.97-1.85.97-1.6,4.94,4.32,12.01,6.04,7.22,10.01,8.14,11.22,6.37.88-1.28.31-3.98-1.98-6.71"/><path class="uuid-d66d6b9e-12fb-4ad4-a164-2db1cf7825d1" d="m484.96,340.63c-.2.5.71,3.05,4.61,7.71,3.85,4.61,6.24,6.02,6.81,5.97"/></g><polygon points="489.53 359.14 491.48 359.75 492.95 358.66 492.48 360.34 493.53 361.96 491.92 361.32 490.18 362.32 490.83 360.72 489.53 359.14"/><polygon points="479.87 350.73 480.59 352.64 482.36 353.13 480.74 353.79 480.12 355.62 479.63 353.95 477.76 353.21 479.42 352.73 479.87 350.73"/><polygon points="490.55 335.71 490.93 336.72 491.86 336.98 491.01 337.33 490.68 338.29 490.42 337.41 489.44 337.02 490.32 336.77 490.55 335.71"/><polygon points="486.04 333.73 486.42 334.73 487.35 334.99 486.5 335.34 486.17 336.3 485.91 335.42 484.93 335.03 485.81 334.78 486.04 333.73"/><path class="uuid-d66d6b9e-12fb-4ad4-a164-2db1cf7825d1" d="m435.59,358.22s1.41,5.62,1.63,6.57c.36,1.52-1.99,4.3,0,5.28,1.99.98,2.71-4.7,3.62-4.7s0,3.34,1.47,3.24,1.19-4.25,2.2-6.4c1.01-2.15,2.98-5.03,3.59-4.85s-.33,3.11.99,3.11,1.42-4.73,2.28-6.8c.86-2.07,2.93-5.01,2.93-5.01,0,0-5.21-4.1-12.49-5.87"/><path class="uuid-d66d6b9e-12fb-4ad4-a164-2db1cf7825d1" d="m454.3,348.66c2.88.86,3.64-3.79,2.17-5.61"/><path class="uuid-3ef18c27-fb31-42a1-8e43-d208d9f8ba52" d="m444.64,351.72s-.3,2.44,1.09,2.79c1.32.34,1.49-1.54,1.49-1.54"/><path class="uuid-3ef18c27-fb31-42a1-8e43-d208d9f8ba52" d="m439.03,360.8s-.03,2.53,1.31,2.53,1.52-1.72,1.52-1.72"/><circle class="uuid-3ef18c27-fb31-42a1-8e43-d208d9f8ba52" cx="441.73" cy="356.91" r="2.24"/><circle class="uuid-3ef18c27-fb31-42a1-8e43-d208d9f8ba52" cx="448.54" cy="348.77" r="2.24"/><circle class="uuid-3ef18c27-fb31-42a1-8e43-d208d9f8ba52" cx="441.33" cy="347.81" r="2.24"/><path class="uuid-d66d6b9e-12fb-4ad4-a164-2db1cf7825d1" d="m452.89,369.39c-2.97-4.45-.67-11.34,6.38-11.03s6.91,9.4,1.96,12.1c0,0,.15,3.78-1.54,3.94s-1.77-2.53-1.77-2.53c0,0-.25,2.93-1.69,2.93s-1.44-2.91-1.44-2.91c0,0-1.29,2.4-2.3,1.79s.41-4.3.41-4.3h0Z"/><path d="m454.84,363.98c2.12-.1,1.2,3.87-.12,3.72s-1.34-3.65.12-3.72Z"/><path d="m458.38,363.98c2.12-.1,1.2,3.87-.12,3.72s-1.34-3.65.12-3.72Z"/><path class="uuid-3ef18c27-fb31-42a1-8e43-d208d9f8ba52" d="m452.45,368.65s-1.59.54-2.68,1.15-1.57,1.77-2.68,1.54c-1.11-.23-1.31-3.05.46-3.64-1.87-.91-1.21-3.39.83-2.73,2.05.66,3.26.87,3.26.87"/><path class="uuid-3ef18c27-fb31-42a1-8e43-d208d9f8ba52" d="m464.77,364.12s.37-.19,1.43-.84,1.49-1.84,2.61-1.66c1.12.18,1.45,2.99-.3,3.65,1.91.83,1.36,3.34-.71,2.77s-3.3-.73-3.3-.73"/><polygon class="uuid-d66d6b9e-12fb-4ad4-a164-2db1cf7825d1" points="471.72 367.45 477.43 362.52 475.23 355.24 480.64 360.8 487.27 358.34 482.73 363.48 483.27 366.24 480.57 367.45 479.21 365.67 471.72 367.45"/><path class="uuid-d66d6b9e-12fb-4ad4-a164-2db1cf7825d1" d="m465.64,339.6s-5.81,8.05-1.14,15.89c0,0,12.97-3.08,10.86-19.19"/><path class="uuid-d66d6b9e-12fb-4ad4-a164-2db1cf7825d1" d="m464.5,355.49s2.34-9.66,6.41-17.67"/><path d="m466.16,349.71c3.8,0,8.34-6.47,4.25-10.69l-4.25,10.69Z"/></g><g><path class="uuid-d66d6b9e-12fb-4ad4-a164-2db1cf7825d1" d="m187.2,411.38c-.39,0-.77.04-1.15.1,1.97.69,3.39,2.54,3.39,4.74,0,2.78-2.26,5.04-5.04,5.04-2.2,0-4.05-1.42-4.74-3.39-.06.38-.1.76-.1,1.15,0,4.22,3.42,7.63,7.63,7.63s7.63-3.42,7.63-7.63-3.42-7.63-7.63-7.63h0Z"/><circle cx="182.72" cy="414.55" r="1.79"/><circle cx="202.81" cy="377.76" r="1.79"/><circle cx="226.98" cy="350.5" r="1.26"/><circle cx="227.31" cy="346.96" r="1.26"/><circle cx="230.42" cy="348.73" r="1.26"/><circle cx="204.15" cy="383.07" r=".79"/><circle cx="188.24" cy="385.47" r=".79"/><circle cx="193.15" cy="402.91" r="1.86"/><polyline class="uuid-d66d6b9e-12fb-4ad4-a164-2db1cf7825d1" points="167.11 412.5 189.56 406.71 184.75 387.34 172.72 390.32"/><polyline class="uuid-d66d6b9e-12fb-4ad4-a164-2db1cf7825d1" points="168.47 407.03 184.7 402.92 182.02 391.69 171.68 394.38"/><polyline class="uuid-d66d6b9e-12fb-4ad4-a164-2db1cf7825d1" points="170.66 398.39 175.81 397.05 176.74 400.78 169.58 402.64"/><line class="uuid-d66d6b9e-12fb-4ad4-a164-2db1cf7825d1" x1="178.33" y1="404.53" x2="182.59" y2="408.51"/><line class="uuid-3ef18c27-fb31-42a1-8e43-d208d9f8ba52" x1="167.84" y1="409.74" x2="176.99" y2="407.44"/><path class="uuid-d66d6b9e-12fb-4ad4-a164-2db1cf7825d1" d="m205.84,374.96s-.35-10.78.3-15.52c.96-6.93,11.93-10.21,13.25,2.17,0,0,8.54-.91,8.24,6.93-.3,7.84-21.79,6.42-21.79,6.42h0Z"/><line class="uuid-d66d6b9e-12fb-4ad4-a164-2db1cf7825d1" x1="231.71" y1="363.58" x2="234.81" y2="366.21"/><polyline class="uuid-d66d6b9e-12fb-4ad4-a164-2db1cf7825d1" points="227.42 366.21 234.81 366.21 231.84 369.24"/><polyline class="uuid-d66d6b9e-12fb-4ad4-a164-2db1cf7825d1" points="198.14 363.58 201.04 366.21 205.76 366.21"/><line class="uuid-d66d6b9e-12fb-4ad4-a164-2db1cf7825d1" x1="198.14" y1="368.77" x2="201.04" y2="366.21"/><polyline class="uuid-d66d6b9e-12fb-4ad4-a164-2db1cf7825d1" points="212.08 390.32 205.48 391.69 207.82 381.38 220.85 378.01 218.7 384.85"/><polyline class="uuid-d66d6b9e-12fb-4ad4-a164-2db1cf7825d1" points="220.85 378.01 211.08 386.16 205.48 391.69"/><polyline class="uuid-d66d6b9e-12fb-4ad4-a164-2db1cf7825d1" points="207.82 381.38 211.08 386.16 214.52 387.78"/><polygon points="181.67 385.68 182.73 380.67 188.24 378.01 182.18 377.64 181.27 373.44 179.46 374.61 179.46 378.5 174.8 382.38 179.6 382.24 181.67 385.68"/><path class="uuid-d66d6b9e-12fb-4ad4-a164-2db1cf7825d1" d="m200.78,411.95c-4.13.25-4.67-2.83-3.25-12.59-7.35-2.41-6.94-7.47-5.39-11.21,1.55-3.74-1.69-8.26-2.06-9.81-.37-1.55.67-4.89,1.28-4.9.42-.01.87,1.45,1.11,2.37.11.42.49.72.93.72h1.13c.41,0,.77-.26.9-.64.34-.98,1-2.74,1.27-2.77.37-.03,1.72,2.66,1.72,4.45s-.37,3.74.13,5.09,4.96,6.44,4.28,11.06-5.29,5.65-5.29,5.65"/><path class="uuid-d66d6b9e-12fb-4ad4-a164-2db1cf7825d1" d="m193.15,408.93s3.3-5.26,9.17-2.69"/><line class="uuid-3ef18c27-fb31-42a1-8e43-d208d9f8ba52" x1="209.07" y1="375.05" x2="209.07" y2="370.51"/><line class="uuid-3ef18c27-fb31-42a1-8e43-d208d9f8ba52" x1="211.99" y1="370" x2="212.13" y2="375.01"/><line class="uuid-3ef18c27-fb31-42a1-8e43-d208d9f8ba52" x1="215.43" y1="374.81" x2="214.86" y2="370"/><line class="uuid-3ef18c27-fb31-42a1-8e43-d208d9f8ba52" x1="218.76" y1="374.38" x2="217.89" y2="369.65"/><line class="uuid-3ef18c27-fb31-42a1-8e43-d208d9f8ba52" x1="222.26" y1="373.56" x2="220.85" y2="369.24"/><line class="uuid-3ef18c27-fb31-42a1-8e43-d208d9f8ba52" x1="225.08" y1="372.32" x2="223.15" y2="368.3"/><line class="uuid-3ef18c27-fb31-42a1-8e43-d208d9f8ba52" x1="227.42" y1="369.67" x2="224.77" y2="366.78"/><line class="uuid-3ef18c27-fb31-42a1-8e43-d208d9f8ba52" x1="219.39" y1="361.61" x2="215.6" y2="363.07"/><line class="uuid-3ef18c27-fb31-42a1-8e43-d208d9f8ba52" x1="218.9" y1="358.92" x2="214.86" y2="360.58"/><line class="uuid-3ef18c27-fb31-42a1-8e43-d208d9f8ba52" x1="217.89" y1="356.43" x2="213.95" y2="358.62"/><line class="uuid-3ef18c27-fb31-42a1-8e43-d208d9f8ba52" x1="215.6" y1="354.01" x2="212.9" y2="357.01"/><line class="uuid-3ef18c27-fb31-42a1-8e43-d208d9f8ba52" x1="211.99" y1="353.34" x2="211.32" y2="356.43"/><circle class="uuid-d66d6b9e-12fb-4ad4-a164-2db1cf7825d1" cx="230.42" cy="351.71" r="8.87"/></g></g></g></g></svg>
</svg>