<?xml version="1.0" encoding="UTF-8"?>
<svg xmlns="http://www.w3.org/2000/svg" viewBox="0 0 600 600">
<svg id="uuid-d9dcaeb1-b3e9-4103-a9e9-674eb3b1cf0f" data-name="BACKGROUND" xmlns="http://www.w3.org/2000/svg" viewBox="0 0 600 600"><defs><style>
      .uuid-ddba642b-737c-447a-8d97-1fa19eb8e4a8 {
        fill: #ff78d8;
      }
    </style></defs><rect class="uuid-ddba642b-737c-447a-8d97-1fa19eb8e4a8" x="-1" y="-1" width="602" height="602"/></svg>
<svg id="uuid-da5b8a35-a9b2-4004-9217-4254ce55b3fe" data-name="BODY" xmlns="http://www.w3.org/2000/svg" viewBox="0 0 600 600"><defs><style>
      .uuid-ec25118f-3915-43af-9dc5-5d64b7ba66c4 {
        fill: #fff;
      }

      .uuid-73059a94-03d4-49d7-a031-ef6b59ff4553, .uuid-813f35b8-d70c-4735-9e7c-d217ddabbc48, .uuid-3c21801f-90f4-41ce-bd53-f460193f8c05, .uuid-382536b8-ade7-4abe-aa61-124cac12416d, .uuid-72d6c9e3-e040-49a4-ab2c-cf903abb3d52 {
        stroke: #000;
        stroke-width: 2px;
      }

      .uuid-73059a94-03d4-49d7-a031-ef6b59ff4553, .uuid-813f35b8-d70c-4735-9e7c-d217ddabbc48, .uuid-382536b8-ade7-4abe-aa61-124cac12416d, .uuid-72d6c9e3-e040-49a4-ab2c-cf903abb3d52 {
        fill: #3ef1ff;
      }

      .uuid-73059a94-03d4-49d7-a031-ef6b59ff4553, .uuid-3c21801f-90f4-41ce-bd53-f460193f8c05, .uuid-382536b8-ade7-4abe-aa61-124cac12416d {
        stroke-linecap: round;
      }

      .uuid-73059a94-03d4-49d7-a031-ef6b59ff4553, .uuid-3c21801f-90f4-41ce-bd53-f460193f8c05, .uuid-72d6c9e3-e040-49a4-ab2c-cf903abb3d52 {
        stroke-linejoin: round;
      }

      .uuid-813f35b8-d70c-4735-9e7c-d217ddabbc48, .uuid-382536b8-ade7-4abe-aa61-124cac12416d {
        stroke-miterlimit: 10;
      }

      .uuid-3c21801f-90f4-41ce-bd53-f460193f8c05 {
        fill: none;
      }
    </style></defs><ellipse cx="300" cy="518.65" rx="138.6" ry="22.93"/><g><path class="uuid-813f35b8-d70c-4735-9e7c-d217ddabbc48" d="m319.36,427.14c-1.16,1.05-54.95,57-54.95,57,0,0,21.51-1.95,31.74,10.62,10.23,12.57,7.26,23.89,7.26,23.89h-66.9s-28.69-36.17-28.69-36.17c0,0,3.74-13.4,20.44-10.59,20.9-19.38,55.52-59.13,55.52-59.13l35.59,14.38Z"/><path d="m283.78,412.76l31.28,12.64-3.24,9.5c-2.93,3.03-9.76,10.12-13.64,14.14-11.92,0-27.98-2.13-41.33-6.37,13.95-15.1,26.93-29.92,26.93-29.92Z"/></g><g><path class="uuid-73059a94-03d4-49d7-a031-ef6b59ff4553" d="m409.81,359.6c9.2,3.77,29.89,12.05,42.79,16.03,2.11.65,4.41.69,6.5-.04,11.79-4.08,28.47-11.39,33.03-11.32,5.25.08,7.8,3.93,19.88,2.04,13.36-2.1,22.43-11.99,20.93-23.3-4.21-43.28-25.18-26.79-25.18-26.79,0,0-5.84-8.75-18.76-4.82-11.83,3.6-10.2,14.44-6.47,22.47l-25.29,8.58c-2.14.72-4.45.71-6.59-.02l-35.7-12.61"/><path class="uuid-382536b8-ade7-4abe-aa61-124cac12416d" d="m533.36,312.82c2.5,3.94,1.62,9.14-1.57,12.4-2.47,2.53-5.88,3.88-9.32,4.4-2.8.43-5.7.42-8.49-.08-2.14-.39-4.29-1.1-5.79-2.75-1.66-1.83-2.27-4.46-1.98-6.87.51-4.17,3.84-7.14,7.22-9.26,3.17-1.98,6.86-3.26,10.64-3.09,3.8.18,7.36,2.19,9.3,5.24Z"/><path class="uuid-382536b8-ade7-4abe-aa61-124cac12416d" d="m538.57,349.84c.97,3.03.32,6.43-1.5,9.01-3.77,5.33-11.17,5.65-16.96,4.27-3.31-.79-6.69-2.21-8.67-5.13-3.13-4.61-.82-9.79,3.48-12.56,2.58-1.66,5.61-2.67,8.63-3.14,5.73-.89,13.1,1.51,15.03,7.56Z"/><path class="uuid-382536b8-ade7-4abe-aa61-124cac12416d" d="m538.71,328.53c1.8,2.99,2.06,6.89.22,9.9-1.95,3.2-4.94,5.25-8.49,6.28-3.66,1.07-7.64,1.27-11.4.44-2.25-.5-4.53-1.38-5.96-3.28-1.86-2.47-1.89-5.68-.85-8.49,1.2-3.24,4.17-5.69,7.09-7.37,6.15-3.56,15.21-4.43,19.39,2.52Z"/><path class="uuid-382536b8-ade7-4abe-aa61-124cac12416d" d="m501.85,311.68s9.27,3.84,7.77,12.02c-1.04,5.68-8.17,9.55-14.94,6.13"/><path class="uuid-3c21801f-90f4-41ce-bd53-f460193f8c05" d="m500.67,331.08c2.41,1.63,5.11,8.04,3.4,14.42"/><path d="m443.44,339.88c-2.88,10.58-6.94,20.23-11.17,28.59-10.17-3.78-21.16-9.53-27-11.93l11.83-26.02,26.35,9.36Z"/></g><g><circle class="uuid-813f35b8-d70c-4735-9e7c-d217ddabbc48" cx="300" cy="300" r="138.16"/><path class="uuid-ec25118f-3915-43af-9dc5-5d64b7ba66c4" d="m184.58,308.17c-4.41,0-7.98-3.57-7.98-7.98,0-67.74,55.11-122.86,122.86-122.86,4.41,0,7.98,3.57,7.98,7.98s-3.57,7.98-7.98,7.98c-58.94,0-106.9,47.95-106.9,106.9,0,4.41-3.57,7.98-7.98,7.98Z"/></g><path class="uuid-3c21801f-90f4-41ce-bd53-f460193f8c05" d="m264.41,484.14c-4.06.49-11.49,1.36-17.85,7.23"/><path class="uuid-ec25118f-3915-43af-9dc5-5d64b7ba66c4" d="m185.17,308.14c-4.41,0-7.98-3.57-7.98-7.98,0-67.74,55.11-122.86,122.86-122.86,4.41,0,7.98,3.57,7.98,7.98s-3.57,7.98-7.98,7.98c-58.94,0-106.9,47.95-106.9,106.9,0,4.41-3.57,7.98-7.98,7.98Z"/><path d="m203.75,397.46l34.2-27.46-24.86,36.3c-6.73-5.1-3.66-2.61-9.34-8.83Z"/><path class="uuid-72d6c9e3-e040-49a4-ab2c-cf903abb3d52" d="m323.72,387.31c19.14-13.4,39.15-11.3,55.52,7.36,19.6,22.35,30.57,33.06,30.57,33.06,0,0,10.74-19.34,34.77-17.5,18.26,1.4,24.84,14.43,24.84,14.43,0,0,6.21,8.82-22.45,33.5-28.66,24.68-54.93,40.92-61.14,29.46-6.21-11.46-2.82-32.1-2.82-32.1,0,0-22.02-26.09-27.94-32.01-6.79-6.79-15.71-1.36-15.71-1.36"/><path class="uuid-813f35b8-d70c-4735-9e7c-d217ddabbc48" d="m446.97,458.17c-25.89,22.29-49.82,37.69-58.79,32.02-9.77-7.44,26.84-38.54,44.88-52.7,18.04-14.16,32.17-17.82,36.36-12.81,0,0,6.21,8.82-22.45,33.5Z"/><path class="uuid-3c21801f-90f4-41ce-bd53-f460193f8c05" d="m409.81,427.74c-1.89,2.86-4.55,10.38-4.55,10.38"/><g><path class="uuid-73059a94-03d4-49d7-a031-ef6b59ff4553" d="m214.11,345.7c-8.05,5.83-25.34,20.79-35.52,29.67-1.67,1.45-2.82,3.41-3.39,5.55-3.14,11.67-8.55,33.44-8.55,33.44,0,0-8.42.58-12.19,14.35-3.64,13.3-6.64,25.06,3.77,29.75.35,7.47,7.51,15.45,19.2,9.41.14-.06,1.32,1.32,1.44,1.45,2.64,2.7,6.36,4.45,10.13,4.81,3.65.36,7.61-.67,10.43-3.08,3.29-2.81,5.4-6.94,6.05-11.2.4-2.61.26-5.31-.75-7.78,0,0,6.2-2.51,8.05-11.34,1.99-9.49-4.22-19.42-14.62-18.18l6.17-23.11c.51-2.2,1.74-4.16,3.49-5.59l29.38-24.3"/><path class="uuid-3c21801f-90f4-41ce-bd53-f460193f8c05" d="m204.73,452.06c-1.37-3.47-5.39-7.08-9-6.88"/><path class="uuid-3c21801f-90f4-41ce-bd53-f460193f8c05" d="m178.86,469.3c-5.16-5.27-3.82-11.97-2.9-13.54"/><path class="uuid-3c21801f-90f4-41ce-bd53-f460193f8c05" d="m158.22,458.45c-.27-5.22.73-7.32,3.06-9.83"/><path class="uuid-3c21801f-90f4-41ce-bd53-f460193f8c05" d="m193.93,450.63c.14-2.07.48-4.16,1.32-6.06.85-1.95,2.36-3.88,4.31-4.85"/></g></svg>
<svg id="uuid-1cc09208-f3e2-41e0-bf45-a113ad3f9612" data-name="BODY" xmlns="http://www.w3.org/2000/svg" viewBox="0 0 600 600"><defs><style>
      .uuid-b1fb9c84-9278-4c3a-8295-76e21ab76bac {
        fill: none;
        stroke: #000;
        stroke-linecap: round;
        stroke-miterlimit: 10;
        stroke-width: 4px;
      }
    </style></defs><circle cx="369.54" cy="262.94" r="9.78" transform="translate(-8.58 12.49) rotate(-1.91)"/><path class="uuid-b1fb9c84-9278-4c3a-8295-76e21ab76bac" d="m352.87,296.37c1.76,5.11,7.33,7.82,12.44,6.06,5.11-1.76,7.82-7.33,6.06-12.44"/><circle cx="337.63" cy="273.96" r="9.78" transform="translate(-8.96 11.43) rotate(-1.91)"/></svg>
<svg id="uuid-0aa8c587-996b-4cdc-8f6f-9857078d28d3" data-name="BODY" xmlns="http://www.w3.org/2000/svg" viewBox="0 0 600 600"><defs><style>
      .uuid-5c1aa41b-276d-47a9-975e-6b51258e34fd {
        fill: #7aa6ff;
      }

      .uuid-5c1aa41b-276d-47a9-975e-6b51258e34fd, .uuid-5420853f-4843-434c-aead-428453da705c, .uuid-98d20c01-64f9-488a-bda2-9c627608ef99 {
        stroke: #000;
        stroke-linecap: round;
        stroke-linejoin: round;
        stroke-width: 2px;
      }

      .uuid-5420853f-4843-434c-aead-428453da705c {
        fill: none;
      }

      .uuid-98d20c01-64f9-488a-bda2-9c627608ef99 {
        fill: #f9a723;
      }
    </style></defs><g id="uuid-efe03c10-21e9-40e1-b362-43562c7320e3" data-name="uuid-3374edde-7b2c-4e71-84a6-3cb653058dc6"><g id="uuid-7e5c48c3-5d6e-4296-9f6a-e6035b6c477a" data-name="uuid-298fa604-3857-4000-a4c4-1a509c9ef803"><g><path class="uuid-5c1aa41b-276d-47a9-975e-6b51258e34fd" d="m244.59,514.46s8.09-20.22,26.83-20.22c15.1,0,19.01,7.06,19.01,7.06,0,0,3.03-5.94,8.09-9.18,0,0-4.15-7.58-14.26-9.3l-1.73,1.91s-6.97-5.35-23.92-2.28c-16.95,3.07-28.51,21.15-28.51,21.15l.92,8.35,4.39,6.42,9.18-3.89v-.02Z"/><path class="uuid-98d20c01-64f9-488a-bda2-9c627608ef99" d="m209.84,478.1l27.45,34.51c.93,1.16,2.33,1.84,3.82,1.84h61.66c1.79,0,3.24,1.45,3.24,3.24v4.45c0,1.79-1.45,3.24-3.24,3.24h-64.92c-3.9,0-7.59-1.79-10-4.85l-26.47-32.68c-.89-1.1-.9-2.68-.02-3.79l4.63-5.81c.91-1.33,2.85-1.41,3.86-.14h0Z"/><path class="uuid-5420853f-4843-434c-aead-428453da705c" d="m282.53,484.72c2.44,1.78,6.89,7.45,7.9,16.57,2.33,5.28,2.33,13.17,2.33,13.17"/></g><g><path class="uuid-5c1aa41b-276d-47a9-975e-6b51258e34fd" d="m405.26,457.42s-8.33-22.95,12.28-44.49c4.45-4.65,15.27-6.57,24.17-6.37,0,0-25.89,17.7-19.96,39.81l-16.49,11.06h0Z"/><path class="uuid-98d20c01-64f9-488a-bda2-9c627608ef99" d="m382.22,485.43c.29,4,3.37,8.75,9.54,9.05s18.87-1.74,46.41-24.52c27.54-22.78,37.32-34.79,34.59-45.81-2.73-11.02-15.88-8.29-29.33,0-13.45,8.29-23.24,15.87-39.34,30.44-15.19,13.75-22.52,21.98-21.88,30.84h0Z"/><path class="uuid-5420853f-4843-434c-aead-428453da705c" d="m472.87,430.86c1.07-6.88-12.92-14.11-52.29,20.95-38.8,34.55-33.55,42.06-30.93,42.38"/><path class="uuid-5420853f-4843-434c-aead-428453da705c" d="m395.95,488.37c1.88,1.93,15.96-4.79,39.42-24.07,23.46-19.28,33.17-30.27,31.28-32.36s-10.79-2.61-41.12,23.75c-30.33,26.36-31.35,30.85-29.58,32.67h0Z"/><path class="uuid-5420853f-4843-434c-aead-428453da705c" d="m441.71,406.56c12.54-.01,17.04,10.85,17.04,10.85"/></g></g></g></svg>
<svg id="uuid-f4074912-9272-4ef1-b1b1-d66f5acdc7c8" data-name="BODY" xmlns="http://www.w3.org/2000/svg" viewBox="0 0 600 600"><defs><style>
      .uuid-faa079f9-df7c-49b8-9fbd-6724fd225a2e {
        fill: #7aa6ff;
      }

      .uuid-faa079f9-df7c-49b8-9fbd-6724fd225a2e, .uuid-ac748af8-1ade-42a0-999e-0a2ce733572b, .uuid-1baff137-1693-4b4b-a630-944b4a445ce9, .uuid-e151b05c-5576-4bb6-b555-654c00b076ba, .uuid-f7781649-76e1-44b4-85bf-2cb5db06f6ae {
        stroke: #000;
        stroke-linecap: round;
        stroke-linejoin: round;
        stroke-width: 2px;
      }

      .uuid-ac748af8-1ade-42a0-999e-0a2ce733572b {
        fill: #ff78d8;
      }

      .uuid-1baff137-1693-4b4b-a630-944b4a445ce9 {
        fill: #ffff0d;
      }

      .uuid-e151b05c-5576-4bb6-b555-654c00b076ba {
        fill: #fff;
      }

      .uuid-f7781649-76e1-44b4-85bf-2cb5db06f6ae {
        fill: none;
      }
    </style></defs><g id="uuid-609b5b85-8169-408e-9e55-6a09e3454fc3" data-name="uuid-59560883-689f-43df-9f0b-d5c83d25eed8"><g><g><path class="uuid-e151b05c-5576-4bb6-b555-654c00b076ba" d="m166.95,413.12c11.19,10.25,31.2,9.43,31.2,9.43l4.5-16.84s-5.66-2.38-15.98-5.31c-10.32-2.93-15.34-4.65-15.34-4.65l-4.38,17.37Z"/><g><line class="uuid-f7781649-76e1-44b4-85bf-2cb5db06f6ae" x1="178.28" y1="404.79" x2="176.11" y2="413.89"/><line class="uuid-f7781649-76e1-44b4-85bf-2cb5db06f6ae" x1="191.19" y1="408.44" x2="189.01" y2="417.54"/></g></g><g><path class="uuid-e151b05c-5576-4bb6-b555-654c00b076ba" d="m466.27,339.39l16.26-5.52s-.43,19.89,9.61,30.41l-16.83,5.37s-9.23-5.12-11.25-14.64,2.22-15.62,2.22-15.62h-.01Z"/><path class="uuid-ac748af8-1ade-42a0-999e-0a2ce733572b" d="m436.03,324.33s17.68,5.27,18.89,5.75,11.35,9.31,11.35,9.31c0,0-.65,20.75,9.03,30.26,0,0-15.19,17.39-17.22,18.71-2.03,1.32-41.28-14.54-41.28-14.54,0,0,6.6-14.58,12.05-26.21,5.45-11.63,7.16-23.27,7.16-23.27h.02Z"/><line class="uuid-f7781649-76e1-44b4-85bf-2cb5db06f6ae" x1="473.46" y1="359.57" x2="482.77" y2="356.38"/><line class="uuid-f7781649-76e1-44b4-85bf-2cb5db06f6ae" x1="470.36" y1="348.29" x2="479.66" y2="345.1"/><path class="uuid-f7781649-76e1-44b4-85bf-2cb5db06f6ae" d="m469.02,358.71c-10.17,2.95-16.49,13.87-13.05,16.86,3.44,2.99,6.52-6.37,6.52-6.37"/><path class="uuid-f7781649-76e1-44b4-85bf-2cb5db06f6ae" d="m466.78,348.29c-8.18-2.09-15.56-4.17-15.56-4.17"/><path d="m446.06,327.34c-1.01,10.56-5.64,22.15-7.31,26.67-3.62,9.78-8.9,19.7-11.17,24.18-10.17-3.78-7.79-2.87-10.71-4.51l13.37-27.47,5.78-21.87,10.03,3.01h.01Z"/></g><g><path class="uuid-faa079f9-df7c-49b8-9fbd-6724fd225a2e" d="m305.9,456.21l11.12-16.69s29.17-3,37.01-5.81c4.96-1.77,4.75-6.23,4.75-6.23,0,0-3.63-4.35-6.23-5.92s-6.71-1.43-6.71-1.43c0,0-2.22-14.25-.14-27.85,1.65-10.77,3.42-13.58,3.42-13.58,0,0,7.52.12,16.47,4.63,8.95,4.51,25.62,24.76,25.62,24.76,0,0,8.74-7.2,18.19-18.57,7.9-9.51,18.19-23.81,25.11-44.09,1.35-3.97-7.32,4.09-6.26-.35l-36.04,20.64-23.93,5.56-7.28-8.73s-34.18,6.88-103.92-10.42c-65.9-16.35-98.53-45.2-98.53-45.2,0,0-.86,99.87,103.94,129.57,0,0,17.61,14.53,43.4,19.69v.02Z"/><g><path d="m299.53,440.27l17.49-.75c-1.25,1.77-3.89,6.12-5.89,8.83-1.78.8-6.5.69-12.95.69-5.09,0-10.93-.38-16.99-1.16-6.84-2.65-14.12-7.91-18.69-11.36,10.33,3.75,37.03,3.75,37.03,3.75h0Z"/><g><path class="uuid-f7781649-76e1-44b4-85bf-2cb5db06f6ae" d="m345.85,420.15c.91,7.61,5.87,14.72,9.05,13.21"/><path class="uuid-f7781649-76e1-44b4-85bf-2cb5db06f6ae" d="m357.59,368.15c-3.91,1.27-8.46,10.57-8.46,10.57"/><path class="uuid-f7781649-76e1-44b4-85bf-2cb5db06f6ae" d="m365.77,376.93c.81,2.81.44,6.74.44,6.74"/><path class="uuid-f7781649-76e1-44b4-85bf-2cb5db06f6ae" d="m375.84,391.39c27.34-6.78,45.94-18.94,45.94-18.94"/><path class="uuid-f7781649-76e1-44b4-85bf-2cb5db06f6ae" d="m305.26,388.93c-6.9,3.88-16.96,13.38-16.96,13.38,0,0-25.89-1.45-53.64-14.61"/><path class="uuid-f7781649-76e1-44b4-85bf-2cb5db06f6ae" d="m183.69,356.75c-9.65-4.5-18.55-12.21-18.55-12.21"/><path class="uuid-f7781649-76e1-44b4-85bf-2cb5db06f6ae" d="m262.5,436.52c18.96,6,54.52,3,54.52,3"/></g></g></g><g><path class="uuid-e151b05c-5576-4bb6-b555-654c00b076ba" d="m285.23,402.04s-17.84,21.72-41.45,34.31c-1.22.65-2.65.72-3.94.23-3.16-1.2-9.47-3.76-15.46-7.2-1.38-.79-2.27-2.21-2.4-3.79-.15-1.88-.3-4.52-.2-6.81,0,0,6.05,3.63,8.47,4.89,0,0,20.86-10.28,33.34-25.64,0,0,13.46,3.25,21.64,3.99v.02Z"/><g><path class="uuid-e151b05c-5576-4bb6-b555-654c00b076ba" d="m255.87,406.2c7.74,3.09,20.52,5.31,20.52,5.31"/><path class="uuid-e151b05c-5576-4bb6-b555-654c00b076ba" d="m245.98,414.29c8.29,4.28,19.77,6.99,19.77,6.99"/><path class="uuid-e151b05c-5576-4bb6-b555-654c00b076ba" d="m234.67,421.27c7.1,5.25,18.9,8.82,18.9,8.82"/></g><path class="uuid-f7781649-76e1-44b4-85bf-2cb5db06f6ae" d="m230.25,423.68c-3.14,1.72-4.59,1.01-4.59,1.01"/></g><g><path class="uuid-ac748af8-1ade-42a0-999e-0a2ce733572b" d="m160.3,324.43s21.12,15.53,34.57,21.27c0,0-29.63,28.9-30.64,31.83-1.01,2.93,7.1,18.21,7.1,18.21,0,0,9.38,10.52,31.32,9.96,0,0,15.57-3.8,17.09-4.3s26.8-25.18,26.8-25.18c0,0,33.1,13.52,58.72,12.71,0,0,27.78-16.72,52.33-20.78,4.83-.8,8.17,8.78,8.17,8.78,0,0,46.23-11.43,68.5-30.73l3.89-13.36s-32.3,16-38.39,18.77c-6.09,2.77-9.58,7.17-10.8,12.88,0,0-5.41-6.22-15.42-5.61-10.01.61-35.05,8.72-78.67.05-43.62-8.67-136.31-54.81-136.31-54.81,0,0-.17,10.86,1.73,20.31h0Z"/><path class="uuid-1baff137-1693-4b4b-a630-944b4a445ce9" d="m190.52,349.97l1.21,3.1-5.62,1.26-4.35,4.34s.46,1.94,2.21,2.08,12.02-.38,12.02-.38l9.05,9.63c.93.99,2.58.41,2.7-.94l.57-6.56,4.99-.39c1.48-.12,1.98-2.02.76-2.86l-6.83-4.64-.29-5.46c-.06-1.04-1.1-1.74-2.08-1.39l-6.05,2.14-5.91-2.27-2.38,2.34h0Z"/><g><path class="uuid-ac748af8-1ade-42a0-999e-0a2ce733572b" d="m194.87,345.7c2.93-2.8,1.21-5.78,1.21-5.78"/><path class="uuid-ac748af8-1ade-42a0-999e-0a2ce733572b" d="m246.54,376.22c4.15-4.15,7.69-3.44,7.69-3.44"/><path class="uuid-ac748af8-1ade-42a0-999e-0a2ce733572b" d="m181.58,402.21c-.16-10.42-5.72-15.88-5.72-15.88"/><path class="uuid-ac748af8-1ade-42a0-999e-0a2ce733572b" d="m188.66,404.42c15.82-16.77,20.79-12.53,20.97-10.15.3,3.93-6.57,5.11-6.57,5.11"/></g></g><g><path class="uuid-e151b05c-5576-4bb6-b555-654c00b076ba" d="m163.88,276.21l-1.03,7.03s112.9,81.34,203.12,57.16c4.51-1.21,9.14,1.49,10.21,6.04l2.12,9.04c1.04,4.43-1.7,8.86-6.13,9.89-7.25,1.69-19.8,4-38.99,5.62-32.93,2.77-108.69-13.12-175.39-61.23-2.96-2.13-4.66-5.6-4.52-9.24l.52-13.84c.2-5.15,3.99-9.46,9.07-10.3l1.02-.17h0Z"/><path class="uuid-e151b05c-5576-4bb6-b555-654c00b076ba" d="m390.47,340.24l2.55,9.52c1.12,4.19,5.71,6.39,9.67,4.64,9.73-4.3,26.86-12.96,39.6-25.3,2.24-2.17,3.59-5.09,3.72-8.2l.62-14.43c.24-5.5-3.29-10.46-8.57-12.05h0l.07,9.15s-17.38,15.96-43.79,28.45c-3.1,1.47-4.74,4.92-3.85,8.23h-.02Z"/><path class="uuid-f7781649-76e1-44b4-85bf-2cb5db06f6ae" d="m162.84,283.24c-2.15-1.47-2.15-2.51-2.15-2.51"/><path class="uuid-f7781649-76e1-44b4-85bf-2cb5db06f6ae" d="m438.12,303.56c2.38-1.92,2.73-2.98,2.73-2.98"/></g></g></g></svg>
<svg id="uuid-1b08aac9-9e08-4756-8d9e-8a9f6603c534" data-name="BODY" xmlns="http://www.w3.org/2000/svg" viewBox="0 0 600 600"><defs><style>
      .uuid-ac87fed6-fa30-4749-a240-d8828610f74f {
        fill: #00dfa9;
      }

      .uuid-1ff638b6-d0d1-4217-9825-a9422071689c {
        fill: #fff;
      }

      .uuid-872febec-4330-4ab2-a86b-49734363ee8d {
        fill: #ffff0d;
      }

      .uuid-8397099a-fe48-40cd-8fdd-5b593e433b66 {
        fill: #ff78d8;
      }

      .uuid-778e30d1-bd04-42f1-a7e6-ba8a3704772a {
        stroke-linecap: round;
        stroke-linejoin: round;
      }

      .uuid-778e30d1-bd04-42f1-a7e6-ba8a3704772a, .uuid-f1cf2760-0093-43d9-874f-71ff5def6357 {
        fill: none;
        stroke: #000;
        stroke-width: 2px;
      }

      .uuid-f1cf2760-0093-43d9-874f-71ff5def6357 {
        stroke-miterlimit: 10;
      }
    </style></defs><g id="uuid-798ab33b-e031-4a28-9cf1-199bb8f2066a" data-name="uuid-0591a78b-92e4-47f5-82f5-87bb82cff089"><g id="uuid-b84e47fe-6a5b-4076-8558-b05772d8acd0" data-name="uuid-ef3ece4f-8150-4652-82a9-55a11f34e840"><g id="uuid-a524eb37-ac85-42fb-8897-0cae06d4e47d" data-name="uuid-4dd11de8-2cdc-4aed-ae75-b123e92e7551"><path class="uuid-1ff638b6-d0d1-4217-9825-a9422071689c" d="m494.67,329.83s.94,43.86,1.14,58.12c.2,14.26,29.12,10.42,36.3,6.37l-2.02-5.06s9.99-3.71,6.94-13.13c-.08-.25-.17-.5-.27-.75-3.84-9.98-4.9-12.61-4.9-12.61,0,0-3.84,1.47-11.22.4-9.2-1.32-16.03-11.07-4.5-18.49,0,0-4.74-2.49-4.59-7.3.15-4.81,2.82-7.47,2.82-7.47,0,0-3.95-.82-6.08-2.91,0,0-4.96,6.88-13.61,2.82h-.01Z"/><path class="uuid-1ff638b6-d0d1-4217-9825-a9422071689c" d="m489.51,311.27l-14.63-29.66s1.69-13.55,17.93-16.79c16.25-3.24,24.61,9.03,24.61,9.03l-.57,34.87s-5.76,2.22-9.1,7.08c0,0-7.3-8.36-18.24-4.53h0Z"/></g><g id="uuid-1284ab39-adff-4632-966d-92d334e68346" data-name="uuid-8b80c383-2de1-459e-b0cd-74fd20d90043"><path class="uuid-ac87fed6-fa30-4749-a240-d8828610f74f" d="m476.28,284.44s.82-8.1,7.7-8.77c6.88-.67,7.96,7.15,6,14.09-1.96,6.94-6.42,9.17-6.42,9.17l-7.28-14.49h0Z"/><path class="uuid-872febec-4330-4ab2-a86b-49734363ee8d" d="m493.89,267.16c-4.85.86-3.59,7.53,1.37,6.88,4.96-.66,3.49-7.74-1.37-6.88Z"/><path class="uuid-8397099a-fe48-40cd-8fdd-5b593e433b66" d="m517.34,278.53c-2.27-6.98-12.33-9.33-14.96-2.91-2.56,6.26,2.94,14.76,8.85,16.1,3.99.91,5.9-.51,5.9-.51l.21-12.69h0Z"/><path class="uuid-872febec-4330-4ab2-a86b-49734363ee8d" d="m507.49,296.02s-4.55-3.43-8.24.52c-3.69,3.94,1.62,12.36,9.84,11.58,6.04-.57,3.17-8.48-.82-9.15l-.77-2.95h-.01Z"/><path class="uuid-8397099a-fe48-40cd-8fdd-5b593e433b66" d="m495.02,346.73c9.79-.47,12.65,12.77.37,18.05l-.37-18.05Z"/><path class="uuid-8397099a-fe48-40cd-8fdd-5b593e433b66" d="m514.15,371.23c.22,10.55,13.47,9.54,13.74-1.01,0,0-9.31-1.15-13.74,1.01Z"/><path class="uuid-ac87fed6-fa30-4749-a240-d8828610f74f" d="m506.86,373.81c.93,7.57-3.84,17.2-8.84,8.82,3.5-6.31,8.84-8.82,8.84-8.82Z"/><path class="uuid-872febec-4330-4ab2-a86b-49734363ee8d" d="m512.79,389.84c.82-8.86,13.61-8.68,15.38,0,0,0-1.52,1.56-7.43,1.53-5.91-.03-7.95-1.53-7.95-1.53Z"/><path class="uuid-8397099a-fe48-40cd-8fdd-5b593e433b66" d="m517.55,397.84c-2.43-7.41-14.01-7.71-15.85-1.75,7.71,3.39,15.85,1.75,15.85,1.75Z"/><path class="uuid-872febec-4330-4ab2-a86b-49734363ee8d" d="m510.37,356.1c-8.49,2.16-5.54,12.11,1.31,11.33,5.02-.57,5.51-5.17,5.51-5.17,0,0-2.14-.83-4.19-2.24s-2.63-3.91-2.63-3.91h0Z"/><path class="uuid-ac87fed6-fa30-4749-a240-d8828610f74f" d="m525.84,363.71c1.18,4.82,7.79,3.58,7.79,3.58l-1.78-4.52-6.02.94h.01Z"/><path class="uuid-ac87fed6-fa30-4749-a240-d8828610f74f" d="m514.28,343.96c-4.75,2.7-10.35.66-11.36-5.67l3.64-2.86,5.19-.57s-.74,1.38.2,4.99c.94,3.61,2.33,4.11,2.33,4.11h0Z"/></g><g><path class="uuid-778e30d1-bd04-42f1-a7e6-ba8a3704772a" d="m494.67,329.83s.94,43.86,1.14,58.12c.2,14.26,29.12,10.42,36.3,6.37l-2.02-5.06s9.99-3.71,6.94-13.13c-.08-.25-.17-.5-.27-.75-3.84-9.98-4.9-12.61-4.9-12.61,0,0-3.84,1.47-11.22.4-9.2-1.32-16.03-11.07-4.5-18.49,0,0-4.74-2.49-4.59-7.3.15-4.81,2.82-7.47,2.82-7.47,0,0-3.95-.82-6.08-2.91,0,0-4.96,6.88-13.61,2.82h-.01Z"/><path class="uuid-778e30d1-bd04-42f1-a7e6-ba8a3704772a" d="m489.51,311.27l-14.63-29.66s1.69-13.55,17.93-16.79c16.25-3.24,24.61,9.03,24.61,9.03l-.57,34.87s-5.76,2.22-9.1,7.08c0,0-7.3-8.36-18.24-4.53h0Z"/></g><line class="uuid-778e30d1-bd04-42f1-a7e6-ba8a3704772a" x1="505.55" y1="281.33" x2="509.78" y2="313.39"/><line class="uuid-778e30d1-bd04-42f1-a7e6-ba8a3704772a" x1="491.33" y1="297.65" x2="499.99" y2="310.99"/><path class="uuid-f1cf2760-0093-43d9-874f-71ff5def6357" d="m530.09,389.27c-6.34,3.1-16.38,3.03-20.76-1.96l-.5-14.52"/><path class="uuid-f1cf2760-0093-43d9-874f-71ff5def6357" d="m536.88,375.69c-1.68-4.38-8.61-7.31-21.96-4.83-13.35,2.48-19.23,13.86-18.98,18.52"/><polygon points="494.45 338 504.61 338.27 511.55 336.98 512.39 333.19 514.36 329.92 508.28 327.01 504.2 329.93 499.86 330.82 495.02 330.36 494.45 338"/></g></g></svg>
<svg id="uuid-b4bd514c-c4d5-4213-8281-68a6dd76eb3c" data-name="BODY" xmlns="http://www.w3.org/2000/svg" viewBox="0 0 600 600"><defs><style>
      .uuid-4c99fb9a-23c7-484a-a28c-c41365b086be {
        fill: #fffdfd;
      }

      .uuid-7ddb5c13-f559-40bc-9bfe-865ea467dd8d {
        fill: #7aa6ff;
      }
    </style></defs><rect class="uuid-7ddb5c13-f559-40bc-9bfe-865ea467dd8d" x="264.41" y="292.9" width="9.74" height="9.74" transform="translate(-86.91 112.55) rotate(-20.4)"/><rect class="uuid-7ddb5c13-f559-40bc-9bfe-865ea467dd8d" x="261.02" y="283.77" width="9.74" height="9.74" transform="translate(-83.94 110.79) rotate(-20.4)"/><rect class="uuid-7ddb5c13-f559-40bc-9bfe-865ea467dd8d" x="257.62" y="274.64" width="9.74" height="9.74" transform="translate(-80.97 109.03) rotate(-20.4)"/><rect class="uuid-7ddb5c13-f559-40bc-9bfe-865ea467dd8d" x="266.75" y="271.25" width="9.74" height="9.74" transform="translate(-79.21 112) rotate(-20.4)"/><rect class="uuid-7ddb5c13-f559-40bc-9bfe-865ea467dd8d" x="275.88" y="267.85" width="9.74" height="9.74" transform="translate(-77.46 114.97) rotate(-20.4)"/><rect class="uuid-7ddb5c13-f559-40bc-9bfe-865ea467dd8d" x="330.66" y="247.48" width="9.74" height="9.74" transform="translate(-66.92 132.79) rotate(-20.4)"/><rect class="uuid-7ddb5c13-f559-40bc-9bfe-865ea467dd8d" x="339.79" y="244.08" width="9.74" height="9.74" transform="translate(-65.16 135.76) rotate(-20.4)"/><rect class="uuid-7ddb5c13-f559-40bc-9bfe-865ea467dd8d" x="327.27" y="238.35" width="9.74" height="9.74" transform="translate(-63.95 131.04) rotate(-20.4)"/><rect class="uuid-7ddb5c13-f559-40bc-9bfe-865ea467dd8d" x="287.35" y="242.8" width="9.74" height="9.74" transform="translate(-68.01 117.4) rotate(-20.4)"/><rect class="uuid-7ddb5c13-f559-40bc-9bfe-865ea467dd8d" x="351.26" y="219.03" width="9.74" height="9.74" transform="translate(-55.71 138.19) rotate(-20.4)"/><rect class="uuid-7ddb5c13-f559-40bc-9bfe-865ea467dd8d" x="304.33" y="288.44" width="9.74" height="9.74" transform="translate(-82.85 126.18) rotate(-20.4)"/><rect class="uuid-7ddb5c13-f559-40bc-9bfe-865ea467dd8d" x="368.24" y="264.67" width="9.74" height="9.74" transform="translate(-70.56 146.97) rotate(-20.4)"/><rect class="uuid-7ddb5c13-f559-40bc-9bfe-865ea467dd8d" x="296.48" y="239.41" width="9.74" height="9.74" transform="translate(-66.25 120.37) rotate(-20.4)"/><rect class="uuid-7ddb5c13-f559-40bc-9bfe-865ea467dd8d" x="360.39" y="215.64" width="9.74" height="9.74" transform="translate(-53.96 141.16) rotate(-20.4)"/><rect class="uuid-7ddb5c13-f559-40bc-9bfe-865ea467dd8d" x="313.46" y="285.05" width="9.74" height="9.74" transform="translate(-81.09 129.15) rotate(-20.4)"/><rect class="uuid-7ddb5c13-f559-40bc-9bfe-865ea467dd8d" x="377.37" y="261.28" width="9.74" height="9.74" transform="translate(-68.8 149.94) rotate(-20.4)"/><rect class="uuid-7ddb5c13-f559-40bc-9bfe-865ea467dd8d" x="305.61" y="236.01" width="9.74" height="9.74" transform="translate(-64.49 123.34) rotate(-20.4)"/><rect class="uuid-7ddb5c13-f559-40bc-9bfe-865ea467dd8d" x="369.52" y="212.24" width="9.74" height="9.74" transform="translate(-52.2 144.13) rotate(-20.4)"/><rect class="uuid-7ddb5c13-f559-40bc-9bfe-865ea467dd8d" x="322.59" y="281.65" width="9.74" height="9.74" transform="translate(-79.34 132.12) rotate(-20.4)"/><rect class="uuid-7ddb5c13-f559-40bc-9bfe-865ea467dd8d" x="386.5" y="257.88" width="9.74" height="9.74" transform="translate(-67.04 152.91) rotate(-20.4)"/><rect class="uuid-7ddb5c13-f559-40bc-9bfe-865ea467dd8d" x="314.74" y="232.62" width="9.74" height="9.74" transform="translate(-62.74 126.31) rotate(-20.4)"/><rect class="uuid-7ddb5c13-f559-40bc-9bfe-865ea467dd8d" x="378.65" y="208.85" width="9.74" height="9.74" transform="translate(-50.44 147.1) rotate(-20.4)"/><rect class="uuid-7ddb5c13-f559-40bc-9bfe-865ea467dd8d" x="331.72" y="278.25" width="9.74" height="9.74" transform="translate(-77.58 135.09) rotate(-20.4)"/><rect class="uuid-7ddb5c13-f559-40bc-9bfe-865ea467dd8d" x="395.63" y="254.48" width="9.74" height="9.74" transform="translate(-65.29 155.88) rotate(-20.4)"/><rect class="uuid-7ddb5c13-f559-40bc-9bfe-865ea467dd8d" x="323.87" y="229.22" width="9.74" height="9.74" transform="translate(-60.98 129.28) rotate(-20.4)"/><rect class="uuid-7ddb5c13-f559-40bc-9bfe-865ea467dd8d" x="334.06" y="256.6" width="9.74" height="9.74" transform="translate(-69.89 134.55) rotate(-20.4)"/><rect class="uuid-7ddb5c13-f559-40bc-9bfe-865ea467dd8d" x="337.45" y="265.73" width="9.74" height="9.74" transform="translate(-72.86 136.3) rotate(-20.4)"/><rect class="uuid-7ddb5c13-f559-40bc-9bfe-865ea467dd8d" x="285.01" y="264.45" width="9.74" height="9.74" transform="translate(-75.7 117.94) rotate(-20.4)"/><rect class="uuid-7ddb5c13-f559-40bc-9bfe-865ea467dd8d" x="281.62" y="255.33" width="9.74" height="9.74" transform="translate(-72.73 116.19) rotate(-20.4)"/><rect class="uuid-7ddb5c13-f559-40bc-9bfe-865ea467dd8d" x="278.22" y="246.2" width="9.74" height="9.74" transform="translate(-69.76 114.43) rotate(-20.4)"/><rect class="uuid-7ddb5c13-f559-40bc-9bfe-865ea467dd8d" x="288.41" y="273.58" width="9.74" height="9.74" transform="translate(-78.67 119.7) rotate(-20.4)"/><rect class="uuid-7ddb5c13-f559-40bc-9bfe-865ea467dd8d" x="291.8" y="282.71" width="9.74" height="9.74" transform="translate(-81.64 121.46) rotate(-20.4)"/><rect class="uuid-7ddb5c13-f559-40bc-9bfe-865ea467dd8d" x="295.2" y="291.84" width="9.74" height="9.74" transform="translate(-84.61 123.21) rotate(-20.4)"/><rect class="uuid-7ddb5c13-f559-40bc-9bfe-865ea467dd8d" x="348.92" y="240.68" width="9.74" height="9.74" transform="translate(-63.41 138.73) rotate(-20.4)"/><rect class="uuid-7ddb5c13-f559-40bc-9bfe-865ea467dd8d" x="345.53" y="231.56" width="9.74" height="9.74" transform="translate(-60.44 136.98) rotate(-20.4)"/><rect class="uuid-7ddb5c13-f559-40bc-9bfe-865ea467dd8d" x="342.13" y="222.43" width="9.74" height="9.74" transform="translate(-57.47 135.22) rotate(-20.4)"/><rect class="uuid-7ddb5c13-f559-40bc-9bfe-865ea467dd8d" x="352.32" y="249.81" width="9.74" height="9.74" transform="translate(-66.38 140.49) rotate(-20.4)"/><rect class="uuid-7ddb5c13-f559-40bc-9bfe-865ea467dd8d" x="355.71" y="258.94" width="9.74" height="9.74" transform="translate(-69.34 142.24) rotate(-20.4)"/><rect class="uuid-7ddb5c13-f559-40bc-9bfe-865ea467dd8d" x="359.11" y="268.07" width="9.74" height="9.74" transform="translate(-72.31 144) rotate(-20.4)"/><rect class="uuid-7ddb5c13-f559-40bc-9bfe-865ea467dd8d" x="394.57" y="223.71" width="9.74" height="9.74" transform="translate(-54.62 153.58) rotate(-20.4)"/><rect class="uuid-7ddb5c13-f559-40bc-9bfe-865ea467dd8d" x="391.18" y="214.58" width="9.74" height="9.74" transform="translate(-51.66 151.82) rotate(-20.4)"/><rect class="uuid-7ddb5c13-f559-40bc-9bfe-865ea467dd8d" x="387.78" y="205.45" width="9.74" height="9.74" transform="translate(-48.69 150.07) rotate(-20.4)"/><rect class="uuid-7ddb5c13-f559-40bc-9bfe-865ea467dd8d" x="397.97" y="232.83" width="9.74" height="9.74" transform="translate(-57.59 155.34) rotate(-20.4)"/><rect class="uuid-7ddb5c13-f559-40bc-9bfe-865ea467dd8d" x="401.36" y="241.96" width="9.74" height="9.74" transform="translate(-60.56 157.09) rotate(-20.4)"/><rect class="uuid-7ddb5c13-f559-40bc-9bfe-865ea467dd8d" x="404.76" y="251.09" width="9.74" height="9.74" transform="translate(-63.53 158.85) rotate(-20.4)"/><rect class="uuid-7ddb5c13-f559-40bc-9bfe-865ea467dd8d" x="340.85" y="274.86" width="9.74" height="9.74" transform="translate(-75.83 138.06) rotate(-20.4)"/><rect class="uuid-4c99fb9a-23c7-484a-a28c-c41365b086be" x="295.53" y="249.32" width="19.48" height="38.95" transform="translate(-74.55 123.28) rotate(-20.4)"/><rect class="uuid-4c99fb9a-23c7-484a-a28c-c41365b086be" x="359.44" y="225.55" width="19.48" height="38.95" transform="translate(-62.26 144.06) rotate(-20.4)"/><rect x="313.79" y="242.53" width="19.48" height="38.95" transform="translate(-71.04 129.22) rotate(-20.4)"/><rect x="377.7" y="218.76" width="19.48" height="38.95" transform="translate(-58.74 150) rotate(-20.4)"/></svg>
</svg>