<?xml version="1.0" encoding="UTF-8"?>
<svg xmlns="http://www.w3.org/2000/svg" viewBox="0 0 600 600">
<svg id="uuid-50f5b600-4bee-4d04-aa66-9a7827d0c80f" data-name="BACKGROUND" xmlns="http://www.w3.org/2000/svg" viewBox="0 0 600 600"><defs><style>
      .uuid-7826a2f3-55af-481e-b40d-34a6e43de7ed {
        fill: #7aa6ff;
      }
    </style></defs><rect class="uuid-7826a2f3-55af-481e-b40d-34a6e43de7ed" x="-1" y="-1" width="602" height="602"/></svg>
<svg id="uuid-33f0a83e-2b0c-4eb8-8fa3-bfa9ea5086d3" data-name="BACKGROUND" xmlns="http://www.w3.org/2000/svg" viewBox="0 0 600 600"><defs><style>
      .uuid-450a74f4-b6b6-47ff-a9b8-91a171e1e341, .uuid-7fae2aa8-9ea1-45c0-a459-daab5bb141c8, .uuid-28d15e62-18ad-457b-95e7-fa4bdbf6607d, .uuid-f34e6d04-5895-4a55-8123-65c0a5c276be, .uuid-6f41a922-4956-4224-af6c-3d28e38947e5, .uuid-57d641cc-3e15-4ae9-829f-c36df3c7f79a, .uuid-5d2ce935-29a4-4a67-ac10-b6bb4cf3dd30 {
        stroke: #000;
        stroke-width: 2px;
      }

      .uuid-450a74f4-b6b6-47ff-a9b8-91a171e1e341, .uuid-7fae2aa8-9ea1-45c0-a459-daab5bb141c8, .uuid-28d15e62-18ad-457b-95e7-fa4bdbf6607d, .uuid-6f41a922-4956-4224-af6c-3d28e38947e5, .uuid-57d641cc-3e15-4ae9-829f-c36df3c7f79a {
        stroke-linecap: round;
      }

      .uuid-450a74f4-b6b6-47ff-a9b8-91a171e1e341, .uuid-f34e6d04-5895-4a55-8123-65c0a5c276be, .uuid-57d641cc-3e15-4ae9-829f-c36df3c7f79a, .uuid-5d2ce935-29a4-4a67-ac10-b6bb4cf3dd30 {
        fill: #8400ff;
      }

      .uuid-450a74f4-b6b6-47ff-a9b8-91a171e1e341, .uuid-6f41a922-4956-4224-af6c-3d28e38947e5, .uuid-5d2ce935-29a4-4a67-ac10-b6bb4cf3dd30 {
        stroke-linejoin: round;
      }

      .uuid-7b9f3a05-4cc7-4b23-b3bf-179c77ea9f5f, .uuid-28d15e62-18ad-457b-95e7-fa4bdbf6607d {
        fill: #fff;
      }

      .uuid-7fae2aa8-9ea1-45c0-a459-daab5bb141c8 {
        fill: #ffff0d;
      }

      .uuid-7fae2aa8-9ea1-45c0-a459-daab5bb141c8, .uuid-28d15e62-18ad-457b-95e7-fa4bdbf6607d, .uuid-f34e6d04-5895-4a55-8123-65c0a5c276be, .uuid-57d641cc-3e15-4ae9-829f-c36df3c7f79a {
        stroke-miterlimit: 10;
      }

      .uuid-6f41a922-4956-4224-af6c-3d28e38947e5 {
        fill: none;
      }
    </style></defs><path class="uuid-450a74f4-b6b6-47ff-a9b8-91a171e1e341" d="m409.81,359.6c9.2,3.77,29.89,12.05,42.79,16.03,2.11.65,4.41.69,6.5-.04,11.79-4.08,28.47-11.39,33.03-11.32,5.25.08,7.8,3.93,19.88,2.04,13.36-2.1,22.43-11.99,20.93-23.3-4.21-43.28-25.18-26.79-25.18-26.79,0,0-5.84-8.75-18.76-4.82-11.83,3.6-10.2,14.44-6.47,22.47l-25.29,8.58c-2.14.72-4.45.71-6.59-.02l-35.7-12.61"/><path class="uuid-57d641cc-3e15-4ae9-829f-c36df3c7f79a" d="m533.36,312.82c2.5,3.94,1.62,9.14-1.57,12.4-2.47,2.53-5.88,3.88-9.32,4.4-2.8.43-5.7.42-8.49-.08-2.14-.39-4.29-1.1-5.79-2.75-1.66-1.83-2.27-4.46-1.98-6.87.51-4.17,3.84-7.14,7.22-9.26,3.17-1.98,6.86-3.26,10.64-3.09,3.8.18,7.36,2.19,9.3,5.24Z"/><path class="uuid-57d641cc-3e15-4ae9-829f-c36df3c7f79a" d="m538.57,349.84c.97,3.03.32,6.43-1.5,9.01-3.77,5.33-11.17,5.65-16.96,4.27-3.31-.79-6.69-2.21-8.67-5.13-3.13-4.61-.82-9.79,3.48-12.56,2.58-1.66,5.61-2.67,8.63-3.14,5.73-.89,13.1,1.51,15.03,7.56Z"/><path class="uuid-57d641cc-3e15-4ae9-829f-c36df3c7f79a" d="m538.71,328.53c1.8,2.99,2.06,6.89.22,9.9-1.95,3.2-4.94,5.25-8.49,6.28-3.66,1.07-7.64,1.27-11.4.44-2.25-.5-4.53-1.38-5.96-3.28-1.86-2.47-1.89-5.68-.85-8.49,1.2-3.24,4.17-5.69,7.09-7.37,6.15-3.56,15.21-4.43,19.39,2.52Z"/><path class="uuid-57d641cc-3e15-4ae9-829f-c36df3c7f79a" d="m501.85,311.68s9.27,3.84,7.77,12.02c-1.04,5.68-8.17,9.55-14.94,6.13"/><path class="uuid-6f41a922-4956-4224-af6c-3d28e38947e5" d="m500.67,331.08c2.41,1.63,5.11,8.04,3.4,14.42"/><path d="m443.44,339.88c-2.88,10.58-6.94,20.23-11.17,28.59-10.17-3.78-21.16-9.53-27-11.93l11.83-26.02,26.35,9.36Z"/><ellipse cx="300" cy="518.65" rx="138.6" ry="22.93"/><path class="uuid-f34e6d04-5895-4a55-8123-65c0a5c276be" d="m319.36,427.14c-1.16,1.05-54.95,57-54.95,57,0,0,21.51-1.95,31.74,10.62,10.23,12.57,7.26,23.89,7.26,23.89h-66.9s-28.69-36.17-28.69-36.17c0,0,3.74-13.4,20.44-10.59,20.9-19.38,55.52-59.13,55.52-59.13l35.59,14.38Z"/><path d="m283.78,412.76l31.28,12.64-3.24,9.5c-2.93,3.03-9.76,10.12-13.64,14.14-11.92,0-27.98-2.13-41.33-6.37,13.95-15.1,26.93-29.92,26.93-29.92Z"/><path class="uuid-f34e6d04-5895-4a55-8123-65c0a5c276be" d="m354.45,173.54l-.11.27-174.2,58.29c-11.49,20.13-18.05,43.43-18.05,68.27,0,76.2,61.77,137.98,137.97,137.98s137.98-61.77,137.98-137.98c0-56.89-34.43-105.72-83.58-126.83Z"/><path class="uuid-6f41a922-4956-4224-af6c-3d28e38947e5" d="m264.41,484.14c-4.06.49-11.49,1.36-17.85,7.23"/><path class="uuid-7b9f3a05-4cc7-4b23-b3bf-179c77ea9f5f" d="m185.17,308.14c-4.41,0-7.98-3.57-7.98-7.98,0-67.74,55.11-122.86,122.86-122.86,4.41,0,7.98,3.57,7.98,7.98s-3.57,7.98-7.98,7.98c-58.94,0-106.9,47.95-106.9,106.9,0,4.41-3.57,7.98-7.98,7.98Z"/><path d="m203.75,397.46l34.2-27.46-24.86,36.3c-6.73-5.1-3.66-2.61-9.34-8.83Z"/><path class="uuid-5d2ce935-29a4-4a67-ac10-b6bb4cf3dd30" d="m323.72,387.31c19.14-13.4,39.15-11.3,55.52,7.36,19.6,22.35,30.57,33.06,30.57,33.06,0,0,10.74-19.34,34.77-17.5,18.26,1.4,24.84,14.43,24.84,14.43,0,0,6.21,8.82-22.45,33.5-28.66,24.68-54.93,40.92-61.14,29.46-6.21-11.46-2.82-32.1-2.82-32.1,0,0-22.02-26.09-27.94-32.01-6.79-6.79-15.71-1.36-15.71-1.36"/><path class="uuid-f34e6d04-5895-4a55-8123-65c0a5c276be" d="m446.97,458.17c-25.89,22.29-49.82,37.69-58.79,32.02-9.77-7.44,26.84-38.54,44.88-52.7,18.04-14.16,32.17-17.82,36.36-12.81,0,0,6.21,8.82-22.45,33.5Z"/><path class="uuid-6f41a922-4956-4224-af6c-3d28e38947e5" d="m409.81,427.74c-1.89,2.86-4.55,10.38-4.55,10.38"/><ellipse class="uuid-28d15e62-18ad-457b-95e7-fa4bdbf6607d" cx="269.41" cy="209.07" rx="94.9" ry="26.25" transform="translate(-52.5 96.54) rotate(-18.55)"/><ellipse class="uuid-7fae2aa8-9ea1-45c0-a459-daab5bb141c8" cx="269.41" cy="209.07" rx="71.19" ry="13.32" transform="translate(-52.5 96.54) rotate(-18.55)"/><g><path class="uuid-450a74f4-b6b6-47ff-a9b8-91a171e1e341" d="m214.11,345.7c-8.05,5.83-25.34,20.79-35.52,29.67-1.67,1.45-2.82,3.41-3.39,5.55-3.14,11.67-8.55,33.44-8.55,33.44,0,0-8.42.58-12.19,14.35-3.64,13.3-6.64,25.06,3.77,29.75.35,7.47,7.51,15.45,19.2,9.41.14-.06,1.32,1.32,1.44,1.45,2.64,2.7,6.36,4.45,10.13,4.81,3.65.36,7.61-.67,10.43-3.08,3.29-2.81,5.4-6.94,6.05-11.2.4-2.61.26-5.31-.75-7.78,0,0,6.2-2.51,8.05-11.34,1.99-9.49-4.22-19.42-14.62-18.18l6.17-23.11c.51-2.2,1.74-4.16,3.49-5.59l29.38-24.3"/><path class="uuid-6f41a922-4956-4224-af6c-3d28e38947e5" d="m204.73,452.06c-1.37-3.47-5.39-7.08-9-6.88"/><path class="uuid-6f41a922-4956-4224-af6c-3d28e38947e5" d="m178.86,469.3c-5.16-5.27-3.82-11.97-2.9-13.54"/><path class="uuid-6f41a922-4956-4224-af6c-3d28e38947e5" d="m158.22,458.45c-.27-5.22.73-7.32,3.06-9.83"/><path class="uuid-6f41a922-4956-4224-af6c-3d28e38947e5" d="m193.93,450.63c.14-2.07.48-4.16,1.32-6.06.85-1.95,2.36-3.88,4.31-4.85"/></g></svg>
<svg id="uuid-1cc09208-f3e2-41e0-bf45-a113ad3f9612" data-name="BODY" xmlns="http://www.w3.org/2000/svg" viewBox="0 0 600 600"><defs><style>
      .uuid-b1fb9c84-9278-4c3a-8295-76e21ab76bac {
        fill: none;
        stroke: #000;
        stroke-linecap: round;
        stroke-miterlimit: 10;
        stroke-width: 4px;
      }
    </style></defs><circle cx="369.54" cy="262.94" r="9.78" transform="translate(-8.58 12.49) rotate(-1.91)"/><path class="uuid-b1fb9c84-9278-4c3a-8295-76e21ab76bac" d="m352.87,296.37c1.76,5.11,7.33,7.82,12.44,6.06,5.11-1.76,7.82-7.33,6.06-12.44"/><circle cx="337.63" cy="273.96" r="9.78" transform="translate(-8.96 11.43) rotate(-1.91)"/></svg>
<svg id="uuid-48efa21b-da1b-48ad-ab10-757c6777e8ef" data-name="BODY" xmlns="http://www.w3.org/2000/svg" viewBox="0 0 600 600"><defs><style>
      .uuid-53318c0c-3185-4fc0-b44c-db50501b4f8c {
        fill: #353434;
      }

      .uuid-53318c0c-3185-4fc0-b44c-db50501b4f8c, .uuid-af5c2333-9a04-42a4-b63f-5e80c7076528 {
        stroke: #000;
        stroke-linecap: round;
        stroke-linejoin: round;
        stroke-width: 2px;
      }

      .uuid-af5c2333-9a04-42a4-b63f-5e80c7076528 {
        fill: none;
      }
    </style></defs><g id="uuid-a23e8dd5-6c2c-4ede-a31c-dd7f3bcbc81d" data-name="uuid-30adedbd-0f6a-4ac3-8c27-dd5f684aaeb2"><g id="uuid-f568b372-0f34-440f-b75f-61e9f492b6fc" data-name="uuid-71f2d591-11c5-485d-aa3d-ec098306b10e"><g id="uuid-93dfd512-6b6b-4507-9c48-5a4c5c4594db" data-name="uuid-7d0b675e-dad4-483d-8c78-f8eeafc30cf0"><g><path class="uuid-53318c0c-3185-4fc0-b44c-db50501b4f8c" d="m366.81,441.74l13.69,14.71s-3.55,18.09,3.13,29.5c0,0,11.14-19.1,33.82-39.23,22.69-20.13,35.95-26.59,49.92-28.7,0,0-11.16-13.78-31.73-11.1-15.93,2.07-25.36,13.77-25.36,13.77l-9.14-9.95s-8.87-.73-20.67,10.86c-11.8,11.59-13.66,20.15-13.66,20.15Z"/><g><path class="uuid-af5c2333-9a04-42a4-b63f-5e80c7076528" d="m410.28,420.68c-4.81,5.68-7.77,15.82-7.77,22.65"/><line class="uuid-af5c2333-9a04-42a4-b63f-5e80c7076528" x1="402.98" y1="438.12" x2="384.42" y2="418.05"/><path class="uuid-af5c2333-9a04-42a4-b63f-5e80c7076528" d="m380.5,456.44c13.49-5.15,21.72,5.29,21.72,5.29"/><path class="uuid-af5c2333-9a04-42a4-b63f-5e80c7076528" d="m441.3,406.56c-10.56,5.07-15.89,19.93-9.79,28.48"/></g><path class="uuid-53318c0c-3185-4fc0-b44c-db50501b4f8c" d="m467.37,414.89s-18.89-1.47-51.52,29.37c-32.63,30.84-34.96,41.03-34.88,41.68s7.89,10.49,9.27,11.71c1.38,1.22,8.79-1.06,8.79-1.06,0,0,.29-2.62,1.64-3.29,2.55-1.27,5.1,1.1,5.1,1.1,0,0,5.1-1.68,7.65-3.88-1.56-1.62.98-5.73,4.58-3.13,3.42-2.09,5.33-4.17,5.33-4.17l-4.13-3.53s26.72-12.4,31.82-15.18l-2.55-1.91s.29-4.63,5.68-4.46l2.72,1.97s3.65-3.07,6.2-6.14l-2.03-1.74s-.58-4.46,4.17-4.29l2.17,1.27s2.81-3.75,4.78-7.52l-2.17-1.69s-.44-5.21,4.89-3.42c0,0,3.56-7.12,2.12-10.48s-7.52-11.3-9.62-11.22h0Z"/><g><path class="uuid-af5c2333-9a04-42a4-b63f-5e80c7076528" d="m419.2,479.69l-16.68-13.48,27.05-17.71s-3.43-3.03,0-5.41c3.13-2.17,5.83.96,5.83.96l8.25-5.36s-4.15-3.09-1.01-4.86c2.55-1.44,6.58,1.62,6.58,1.62,0,0,5.46-3.59,7.64-4.55,0,0-3.59-3.44.25-4.91,2.89-1.1,5.87,1.77,5.87,1.77,0,0,5.31-2.99,9.16-2.58,3.85.4,5.58,2.5,5.03,4.77"/><line class="uuid-af5c2333-9a04-42a4-b63f-5e80c7076528" x1="429.57" y1="448.51" x2="448.46" y2="462.6"/><line class="uuid-af5c2333-9a04-42a4-b63f-5e80c7076528" x1="435.39" y1="444.06" x2="454.14" y2="458.14"/><line class="uuid-af5c2333-9a04-42a4-b63f-5e80c7076528" x1="443.64" y1="438.69" x2="461.03" y2="452.23"/><line class="uuid-af5c2333-9a04-42a4-b63f-5e80c7076528" x1="449.21" y1="435.46" x2="465.2" y2="447.95"/><line class="uuid-af5c2333-9a04-42a4-b63f-5e80c7076528" x1="456.85" y1="430.9" x2="469.99" y2="440.01"/><line class="uuid-af5c2333-9a04-42a4-b63f-5e80c7076528" x1="462.97" y1="427.76" x2="474.88" y2="436.59"/><path class="uuid-af5c2333-9a04-42a4-b63f-5e80c7076528" d="m447.97,462.23c-5.19,2.81-31.71,15.09-31.71,15.09"/><path class="uuid-af5c2333-9a04-42a4-b63f-5e80c7076528" d="m432.58,450.76s-18.96,12.82-27.55,17.49"/><path class="uuid-af5c2333-9a04-42a4-b63f-5e80c7076528" d="m406.41,469.37s-3.67,3.73-4.49,5.1c0,0-2.9-2.71-5.06-.27-2.04,2.3.13,4.65,1.34,5.5,0,0-2.61,3.68-3.69,5.74,0,0-3.14-3.05-4.61,0-.66,1.37-.34,3.54,1.47,4.76,0,0-1.57,8.03.54,7.82"/><line class="uuid-af5c2333-9a04-42a4-b63f-5e80c7076528" x1="401.92" y1="474.46" x2="417.99" y2="487.39"/><line class="uuid-af5c2333-9a04-42a4-b63f-5e80c7076528" x1="413.42" y1="490.52" x2="398.19" y2="479.69"/><line class="uuid-af5c2333-9a04-42a4-b63f-5e80c7076528" x1="394.5" y1="485.43" x2="405.77" y2="494.4"/><line class="uuid-af5c2333-9a04-42a4-b63f-5e80c7076528" x1="391.36" y1="490.19" x2="399.03" y2="496.59"/></g><g><path class="uuid-53318c0c-3185-4fc0-b44c-db50501b4f8c" d="m226.55,468.47l16.86-19.42s2.99-.9,6.5,1.06l-2.62,2.76s3.26,6.32,10.81,12.65c7.55,6.33,14.76,9.84,14.76,9.84l3.6-3.75s2.37,5.96,2.31,6.55-4.35,2.98-4.35,2.98c0,0,13.06.74,21.81,9.35,8.9,8.75,9.03,21.38,9.03,21.38,0,0-63.87,1.76-66.89,1.56s-30.15-36.89-30.15-36.89c0,0,5.39-9.16,18.32-8.1Z"/><g><path class="uuid-af5c2333-9a04-42a4-b63f-5e80c7076528" d="m274.42,481.15c-9.61-1.12-21.84,1.23-29.03,7.31"/><line class="uuid-af5c2333-9a04-42a4-b63f-5e80c7076528" x1="252.64" y1="484.14" x2="265.82" y2="471.24"/><path class="uuid-af5c2333-9a04-42a4-b63f-5e80c7076528" d="m220.98,493.39c10.86-8.6,5.57-24.93,5.57-24.93"/><path class="uuid-af5c2333-9a04-42a4-b63f-5e80c7076528" d="m293.43,488.1c-17.87-1.3-22.02,11.44-22.09,24.68"/></g><path class="uuid-53318c0c-3185-4fc0-b44c-db50501b4f8c" d="m305.49,509.34l-62.55,1.43c-2.5.06-4.89-1.05-6.46-3l-26.43-32.8c-.94-1.17-2.72-1.19-3.69-.05l-6.59,7.74c-.73.86-.77,2.12-.08,3.02l3.44,4.48,6.83.43-3.73,3.66,5.2,6.76,6.07.02,9.4,14.47c3.5,5.38,9.43,8.68,15.85,8.81l17.81.36s0-3.59,4.22-3.59,4.01,3.94,4.01,3.94h6.92s.44-4.12,4.68-4.12,3.48,4.12,3.48,4.12h7.95s-.11-3.9,4.14-3.9,3.65,3.9,3.65,3.9h6.78c1.57,0,2.81-1.34,2.68-2.9l-.82-10.3c-.11-1.42-1.32-2.51-2.74-2.48h0Z"/><path class="uuid-af5c2333-9a04-42a4-b63f-5e80c7076528" d="m217.49,501.03c-1.41-2.31-2.24-4.46-6.07-.02"/><path class="uuid-af5c2333-9a04-42a4-b63f-5e80c7076528" d="m209.96,490.59c.62-.58-1.71-4.07-3.15-3.24-1.44.83-3.67,2.8-3.67,2.8"/></g></g></g></g></g></svg>
<svg id="uuid-1814dd4d-896f-43a9-8cc5-9df7690e94a2" data-name="BACKGROUND" xmlns="http://www.w3.org/2000/svg" viewBox="0 0 600 600"><defs><style>
      .uuid-3be35196-23eb-415c-bbdf-01577589215b {
        fill: #ffff0d;
        stroke: #000;
        stroke-linecap: round;
        stroke-linejoin: round;
        stroke-width: 2px;
      }
    </style></defs><path class="uuid-3be35196-23eb-415c-bbdf-01577589215b" d="m375.86,319.37c-14.26,7.96-19.36,25.98-11.4,40.24,7.96,14.26,25.98,19.36,40.24,11.4,14.26-7.96,19.36-25.98,11.4-40.24-7.96-14.26-25.98-19.36-40.24-11.4Zm-.03,6.32l10.52,18.84-6.41,22.61c-4.44-2.08-8.29-5.52-10.86-10.12-6.02-10.78-2.93-24.18,6.75-31.33Zm9.99,43.35l4.79-16.89,8.69,15.57c-4.39,1.76-9.06,2.15-13.48,1.32Zm18.87-4.32l-8.9-15.94,17.51,4.1c-1.55,4.62-4.47,8.8-8.6,11.84Zm9.8-17.89l-22.77-5.34-10.5-18.81c11.18-4.52,24.23-.12,30.26,10.68,2.38,4.26,3.33,8.94,3.02,13.47Z"/><circle class="uuid-3be35196-23eb-415c-bbdf-01577589215b" cx="420.18" cy="318.72" r="8.31"/><circle class="uuid-3be35196-23eb-415c-bbdf-01577589215b" cx="436.89" cy="310.38" r="8.31"/><circle class="uuid-3be35196-23eb-415c-bbdf-01577589215b" cx="350.39" cy="343.04" r="8.31"/><circle class="uuid-3be35196-23eb-415c-bbdf-01577589215b" cx="332" cy="346.35" r="8.31"/><circle class="uuid-3be35196-23eb-415c-bbdf-01577589215b" cx="313.56" cy="349.17" r="8.31"/><circle class="uuid-3be35196-23eb-415c-bbdf-01577589215b" cx="295.1" cy="351.34" r="8.31"/><circle class="uuid-3be35196-23eb-415c-bbdf-01577589215b" cx="276.49" cy="352.43" r="8.31"/><circle class="uuid-3be35196-23eb-415c-bbdf-01577589215b" cx="257.85" cy="352.14" r="8.31"/><circle class="uuid-3be35196-23eb-415c-bbdf-01577589215b" cx="239.26" cy="352.14" r="8.31"/><circle class="uuid-3be35196-23eb-415c-bbdf-01577589215b" cx="220.83" cy="349.72" r="8.31"/><circle class="uuid-3be35196-23eb-415c-bbdf-01577589215b" cx="202.35" cy="347.91" r="8.31"/><circle class="uuid-3be35196-23eb-415c-bbdf-01577589215b" cx="184.1" cy="344.29" r="8.31"/><circle class="uuid-3be35196-23eb-415c-bbdf-01577589215b" cx="165.96" cy="340.27" r="8.31"/></svg>
<svg id="uuid-8bc2e97e-2302-49ce-b93f-c973a8abe5bb" data-name="BODY" xmlns="http://www.w3.org/2000/svg" viewBox="0 0 600 600"><defs><style>
      .uuid-b97aa3d8-a87d-4289-bdcc-07399a28406c {
        fill: #7aa6ff;
      }

      .uuid-b97aa3d8-a87d-4289-bdcc-07399a28406c, .uuid-cdb588a1-0293-4620-85fb-9a46c000d399, .uuid-8d4667d0-21ed-47fe-9334-55112e464e4c, .uuid-3a554514-f2a1-49cb-9361-dc8b0e329a06, .uuid-f56facfc-ca11-46e9-8b50-a71f100a7582 {
        stroke: #000;
        stroke-linecap: round;
        stroke-linejoin: round;
        stroke-width: 2px;
      }

      .uuid-cdb588a1-0293-4620-85fb-9a46c000d399 {
        fill: #ff78d8;
      }

      .uuid-8d4667d0-21ed-47fe-9334-55112e464e4c {
        fill: #ffff0d;
      }

      .uuid-3a554514-f2a1-49cb-9361-dc8b0e329a06 {
        fill: none;
      }

      .uuid-f56facfc-ca11-46e9-8b50-a71f100a7582 {
        fill: #f9a723;
      }
    </style></defs><g id="uuid-f9c1b82f-8493-43ad-8540-48b447ee144b" data-name="uuid-5d087d90-db25-43a6-ad2e-0d1f05b40ae9"><g><path class="uuid-cdb588a1-0293-4620-85fb-9a46c000d399" d="m142.41,416.81l-6.37-2.56c-2.49-1-5.39.36-6.47,3.05l-.56,1.41c-1.08,2.68.07,5.67,2.56,6.67l6.37,2.56,4.47-11.13Z"/><g><path class="uuid-8d4667d0-21ed-47fe-9334-55112e464e4c" d="m156.8,422.59l-8.26-3.32-4.47,11.13,8.89,3.57c.7-3.08,2.02-8.04,3.84-11.38Z"/><path class="uuid-8d4667d0-21ed-47fe-9334-55112e464e4c" d="m217.49,446.97l-17.98-7.22c-.45.23-5.56,3-5.56,10.69h0l19.07,7.66,22.08,2.41-17.61-13.54h0Z"/></g><g><polygon class="uuid-f56facfc-ca11-46e9-8b50-a71f100a7582" points="217.49 446.97 209.8 446.4 214.82 452.36 207.53 452.04 213.02 458.1 235.1 460.51 217.49 446.97"/><path d="m227.02,457.01l-.16.39c-.42,1.04.19,2.18,1.23,2.3l7.01.81-5.6-4.3c-.84-.64-2.06-.25-2.49.8h.01Z"/></g><g><path class="uuid-b97aa3d8-a87d-4289-bdcc-07399a28406c" d="m140.31,415.97c-5.98,3.98-4.42,11.15-4.42,11.15l11.5,4.62s-.97-6.35,4.47-11.13l-11.55-4.64h0Z"/><path class="uuid-3a554514-f2a1-49cb-9361-dc8b0e329a06" d="m143.97,417.44c-2.81,1.91-5.58,6.62-4.15,11.26"/><path class="uuid-3a554514-f2a1-49cb-9361-dc8b0e329a06" d="m148.02,419.06c-2.81,1.91-5.58,6.62-4.15,11.26"/></g></g></g></svg>
<svg id="uuid-a434a263-1d52-419b-9f08-c2e050f7b089" data-name="BODY" xmlns="http://www.w3.org/2000/svg" viewBox="0 0 600 600"><defs><style>
      .uuid-3fe757a2-f884-4021-8b90-a2fb836a0d83 {
        fill: #7aa6ff;
      }

      .uuid-3fe757a2-f884-4021-8b90-a2fb836a0d83, .uuid-0535e5fd-e169-42bb-9b3a-04ea61531b11, .uuid-b5b40eee-3492-4a40-8cdf-74f0932ec0ba, .uuid-813fd1ba-5c6f-412d-b3d0-bab0da44157c {
        stroke: #000;
        stroke-linecap: round;
        stroke-linejoin: round;
        stroke-width: 2px;
      }

      .uuid-0535e5fd-e169-42bb-9b3a-04ea61531b11 {
        fill: #ffc9f1;
      }

      .uuid-b5b40eee-3492-4a40-8cdf-74f0932ec0ba {
        fill: none;
      }

      .uuid-813fd1ba-5c6f-412d-b3d0-bab0da44157c {
        fill: #f9a723;
      }
    </style></defs><g id="uuid-4d71603c-b588-4e7e-bdcb-85f6e7a816db" data-name="uuid-e739bccc-2d2c-4a63-b977-7b31664c2716"><g id="uuid-63e5130d-7ae7-4f0d-8331-573e75af8b15" data-name="uuid-af806a75-da6f-4a25-9368-44a11c35c8fd"><g><path class="uuid-3fe757a2-f884-4021-8b90-a2fb836a0d83" d="m494.29,225.3c-2.32-.72-4.21,6.13-13.6,5.3-9.38-.83-9.83-5.81-9.83-5.81,0,0-5.94-3.89-2.62-11.49-1.79-7.91,2.19-10.35,3.32-20.49.45-4.02-4.6-11.68-14.43-22.02s-36.38-40.72-39.7-44.94c.77-3.06,2.78-5.7,2.78-5.7l8.76,8.43-9.24-20.82s2.25-3.06,4.07-3.83c2.68,6.03,18.96,38.92,18.96,38.92l-9.94-38.92,5.94-2.65,2.23,7.34,3.89-1.15-.51-2.68,5.23-2.62-.57-6.13s4.4-3.13,6.83-3.83c-.19,3.26,1.72,14.36,1.72,14.36,0,0,1.34-14.68,1.85-17.62,2.04-.89,7.02-.32,7.02-.32l-1.34,6.77,6.51,1.66-.67-10.88,8.36-.32s1.44,31.05,5.01,44.71c-1.66-19.53-.51-49.28-.51-49.28l9.26,1.53s-.45,6.89-.32,13.28c2.3-.13,5.68-.57,5.68-.57,0,0,.89,9.83,1.28,13.91,1.79-9.7,4.09-16.28,4.09-16.28l7.02,2.62s3.26-8.36,6.89-12.32c2.43,1.91,5.23,4.15,5.23,4.15,0,0-3.19,5.81-4.53,9,2.36,1.02,5.43,2.87,5.43,2.87,0,0,1.28-2.65,2.78-4.12,1.85,1.05,4.15,3.19,4.15,3.19,0,0-5.33,11.39-8.78,23.55,8.04-17.14,17.14-25.66,17.14-25.66l4.6,4.31s-11.87,11.2-22.98,39.35c-11.11,28.15-13.24,43.12-13.63,46.44s8.68,7.79,7.66,17.62c6.45,6.7-.19,13.34-.19,13.34,0,0-2.68,13.28-20.3,7.79h0Z"/><g><path class="uuid-b5b40eee-3492-4a40-8cdf-74f0932ec0ba" d="m482.13,224.79c4.71-1.23,10.45-8.61,9.8-7.79-1.18,1.48,6,2.6,12.21,2.29"/><path class="uuid-b5b40eee-3492-4a40-8cdf-74f0932ec0ba" d="m477.18,211.73s4.95,6.82,15.21,5.21c8.12-1.27,10.2-9,10.2-9"/><path class="uuid-b5b40eee-3492-4a40-8cdf-74f0932ec0ba" d="m508.23,211.03s-9.22,7.59-15.6,7.24-4.79.13-4.79.13c0,0-5.33,2.44-10.27,1.43"/></g><path class="uuid-813fd1ba-5c6f-412d-b3d0-bab0da44157c" d="m485.92,216.91s2.23,6.29,2.49,12.99-.51,23.59,5.14,41.68c5.65,18.1,6,39.32,6,39.32,0,0,4.59,1.38,8.25,4.84,2.54-3.11,5.38-4.92,5.38-4.92,0,0,.25-16.84-4.6-25.52-4.85-8.68-8.23-33.54-8.14-47.43s-.29-17.01-2.49-22.72c-1.28.61-3.86,1.63-6.03,1.85-3.89.4-6-.1-6-.1h0Z"/><path class="uuid-813fd1ba-5c6f-412d-b3d0-bab0da44157c" d="m508.18,326.79s2.21,2.33,6.18,3.14c-5.99,8.88-1.02,12.88,2.29,14.51-6.85,3.78-9.87,14.07,3.82,18.76,3.11,10.72.18,14.84,4.65,27.8s7.15,12.83,8.55,22.34,3.26,18.83,3.64,21.19.96,9.77-8.55,9.77-10.79-4.66-11.3-7.21-.32-17.94-1.6-26.04c-1.28-8.11-4.18-11.04-6.94-25.47-2.76-14.43-1.74-19.28-3.4-27.38s-1.25-18.81-4.85-27.12c5.47-.35,7.52-4.29,7.52-4.29h0Z"/><path class="uuid-b5b40eee-3492-4a40-8cdf-74f0932ec0ba" d="m537.47,435.69c-.61-3.66-4.22-2.37-6.86-.77-6.94,4.21-13.43,2.37-11.31,6.28"/><path class="uuid-b5b40eee-3492-4a40-8cdf-74f0932ec0ba" d="m523.85,443.76c5.23.94,9.61-3.48,9.39-4.75s-6.34,1.51-6.34,1.51"/><path class="uuid-b5b40eee-3492-4a40-8cdf-74f0932ec0ba" d="m531.13,434.62s-2.88-21.15-3.78-25.42c-.89-4.28-6.7-18-6.7-18"/><path class="uuid-b5b40eee-3492-4a40-8cdf-74f0932ec0ba" d="m518.73,385.19c-2.87-10.4-3.06-23.58-3.06-23.58"/><path class="uuid-b5b40eee-3492-4a40-8cdf-74f0932ec0ba" d="m523.85,437.62c-.33-14.06-2.69-29.95-2.69-29.95"/><path class="uuid-b5b40eee-3492-4a40-8cdf-74f0932ec0ba" d="m519.5,400.96c-2.81-8.43-4.98-10.15-7.02-21.83-2.04-11.68-2.23-23.36-2.94-30.83-.7-7.47-2.67-19.17-2.67-19.17"/><path class="uuid-b5b40eee-3492-4a40-8cdf-74f0932ec0ba" d="m503.75,312.45c.33-14.07-4.11-34.08-4.11-34.08"/><path class="uuid-b5b40eee-3492-4a40-8cdf-74f0932ec0ba" d="m505.65,277.64c1.3,12.7,3.81,35.61,3.81,35.61"/><path class="uuid-b5b40eee-3492-4a40-8cdf-74f0932ec0ba" d="m498.15,271c-2.01-9.86-3.73-13.12-4.12-21.26-.35-7.43.56-20.8-2.41-32.72"/><g><path class="uuid-b5b40eee-3492-4a40-8cdf-74f0932ec0ba" d="m440.99,108.62c3.34,13.07,11.99,43.41,16.25,53.29"/><path class="uuid-b5b40eee-3492-4a40-8cdf-74f0932ec0ba" d="m428.97,128.58c4.73,11.1,9.01,19.81,12.02,24.4"/><path class="uuid-b5b40eee-3492-4a40-8cdf-74f0932ec0ba" d="m442.76,142.85c4.42,7.61,13.36,18.27,18.74,24.15,5.39,5.88,15.92,18.49,16.9,21.43.98,2.94-2.94,8.2-2.2,15.67"/><path class="uuid-b5b40eee-3492-4a40-8cdf-74f0932ec0ba" d="m482.93,200.18c-1.96-4.29-.24-15.06-.61-16.53s-19.49-42.63-24.74-77.07"/><path class="uuid-b5b40eee-3492-4a40-8cdf-74f0932ec0ba" d="m465.12,95.41c-2.1,8.11,2.94,28.41,9.31,50.93,6.37,22.52,11.5,38.08,11.5,38.08"/><path class="uuid-b5b40eee-3492-4a40-8cdf-74f0932ec0ba" d="m484.33,130.58c.91,18.43,5.52,49.55,7.29,53.84,1.77,4.3,3.4,2.67,4.44,11.71"/><path class="uuid-b5b40eee-3492-4a40-8cdf-74f0932ec0ba" d="m503.61,201.61c.44-9.78-5.78-15.41-6.52-19.56s-4.68-64.61-4.34-85.94"/><path class="uuid-b5b40eee-3492-4a40-8cdf-74f0932ec0ba" d="m499.71,109.45c-3.36,15.55-5.34,33.4-5.34,33.4"/><path class="uuid-b5b40eee-3492-4a40-8cdf-74f0932ec0ba" d="m510.82,95.79c-6.76,15.29-8.98,41.66-8.54,51.88s-2.57,34.97-2.57,34.97"/><path class="uuid-b5b40eee-3492-4a40-8cdf-74f0932ec0ba" d="m521.99,122.12c-13.19,30.3-19.71,60.52-19.71,60.52"/><path class="uuid-b5b40eee-3492-4a40-8cdf-74f0932ec0ba" d="m523.84,99.49c-9.56,16.47-14.45,41.29-14.45,41.29"/><path class="uuid-b5b40eee-3492-4a40-8cdf-74f0932ec0ba" d="m518.41,96.62c-10.8,24.68-8.44,56.1-12.06,70.04"/><path class="uuid-b5b40eee-3492-4a40-8cdf-74f0932ec0ba" d="m471.63,97.07c1.07,20.23,4.06,54.19,7.75,66.29"/><path class="uuid-b5b40eee-3492-4a40-8cdf-74f0932ec0ba" d="m449.61,102.17c3.9,28.91,18.97,72.4,25.67,81.36"/><path class="uuid-b5b40eee-3492-4a40-8cdf-74f0932ec0ba" d="m444.88,107.47c4.22,17.93,18.31,61.4,18.31,61.4"/><path class="uuid-b5b40eee-3492-4a40-8cdf-74f0932ec0ba" d="m514.58,217.51c-2.72,2.32-5.81,1.7-5.81,1.7"/><path class="uuid-b5b40eee-3492-4a40-8cdf-74f0932ec0ba" d="m470.86,224.79c3.39,2.38,8.02,1.15,8.02,1.15"/><path class="uuid-b5b40eee-3492-4a40-8cdf-74f0932ec0ba" d="m468.24,213.3c.83,3.06,4.92,5.1,4.92,5.1"/><path class="uuid-b5b40eee-3492-4a40-8cdf-74f0932ec0ba" d="m514.78,204.17c-.72,1.71-2.33,3.46-2.33,3.46"/></g><path class="uuid-0535e5fd-e169-42bb-9b3a-04ea61531b11" d="m470.71,197.7s-3.87.25-4.06-4.68c-.19-4.93,2.75-10.33,21.6-12.32,18.86-1.99,23.81,2.18,24.26,5.31.44,3.13-1.69,6.44-1.69,6.44,0,0-3.14-3.27-3.61-5.05-22.88-2.09-32.37,2.81-35.64,5.41,0,0-.25,2.65-.86,4.89h0Z"/></g></g></g></svg>
<svg id="uuid-1374b8f1-e5aa-4e85-9b33-1bfc9e6b5ea5" data-name="BODY" xmlns="http://www.w3.org/2000/svg" viewBox="0 0 600 600"><defs><style>
      .uuid-fab39758-67ee-4f08-9c60-c9b40f49b2a5 {
        fill: #fff;
        stroke: #000;
        stroke-miterlimit: 10;
        stroke-width: 2px;
      }
    </style></defs><path class="uuid-fab39758-67ee-4f08-9c60-c9b40f49b2a5" d="m234.82,145.43c-9.89-21.59-45.38-26.51-79.27-10.99-33.89,15.52-53.35,45.61-43.46,67.2,9.99,21.81,39.44,22.36,59.43,17.73,4.99-1.16,10.09-2.59,14.83-4.51,5.26-2.14,11.16-6.03,16.85-3.03,2.88,1.52,17.21,8.41,19.06,3.74.88-2.24-2.6-4.93-3.79-6.4-2.06-2.55-3.15-5.62-2.69-8.93.52-3.73,3.23-6.58,5.75-9.17,3.01-3.1,5.82-6.19,8.14-9.86,6.51-10.31,10.47-24.16,5.15-35.78Z"/><g><path d="m146.49,197.26l6.87-4.31c.27.32.6.62.92.91.57.57,1.24,1.42,1.98,2.59,4.46,7.12,2.93,13.74-1.65,16.61-5.35,3.35-12.8,1.65-21.56-12.34-8.76-13.98-7.05-21.43-1.7-24.78,4.58-2.87,11.21-1.36,15.67,5.76.73,1.17,1.21,2.15,1.47,2.9.12.42.24.84.42,1.23l-6.88,4.31-.96-1.52c-4.21-6.71-5.33-6.92-5.99-6.51-.97.61-1.17,1.87,6.12,13.51,7.3,11.64,8.52,12.01,9.49,11.4.66-.41.96-1.52-3.25-8.23l-.96-1.52Z"/><path d="m154.29,187.42c-8.76-13.98-7.05-21.43-1.95-24.62,5.09-3.19,12.54-1.49,21.3,12.5,8.76,13.98,7.05,21.43,1.95,24.62-5.09,3.19-12.54,1.49-21.3-12.5Zm11.2-7.02c-7.3-11.64-8.57-11.98-9.33-11.5s-1.02,1.77,6.28,13.41c7.3,11.64,8.57,11.98,9.33,11.5.76-.48,1.02-1.77-6.28-13.41Z"/><path d="m189.72,170.18l6.88-4.31c.27.32.6.62.92.91.57.57,1.24,1.42,1.97,2.59,4.46,7.12,2.94,13.74-1.65,16.61-5.35,3.35-12.8,1.65-21.56-12.34-8.76-13.98-7.05-21.43-1.7-24.78,4.58-2.87,11.21-1.36,15.67,5.76.73,1.17,1.21,2.15,1.47,2.9.12.42.24.84.41,1.23l-6.87,4.31-.96-1.52c-4.21-6.71-5.33-6.92-6-6.51-.97.61-1.17,1.87,6.13,13.51,7.3,11.64,8.52,12.01,9.49,11.4.66-.41.96-1.52-3.25-8.23l-.96-1.52Z"/><path d="m197.52,160.34c-8.76-13.98-7.05-21.43-1.95-24.62,5.09-3.19,12.54-1.49,21.3,12.5,8.76,13.98,7.05,21.43,1.95,24.62-5.09,3.19-12.54,1.49-21.3-12.5Zm11.2-7.02c-7.3-11.64-8.57-11.98-9.33-11.5-.76.48-1.02,1.77,6.28,13.41,7.3,11.64,8.57,11.98,9.33,11.5s1.02-1.77-6.28-13.41Z"/></g></svg>
</svg>