<?xml version="1.0" encoding="UTF-8"?>
<svg xmlns="http://www.w3.org/2000/svg" viewBox="0 0 600 600">
<svg id="uuid-47722c1a-ec94-491f-b9ae-69c2f5e8f75c" data-name="BACKGROUND" xmlns="http://www.w3.org/2000/svg" viewBox="0 0 600 600"><defs><style>
      .uuid-ab0c32c0-b20c-4bf1-888e-57f882ba1299 {
        fill: #ffc9f1;
      }
    </style></defs><rect class="uuid-ab0c32c0-b20c-4bf1-888e-57f882ba1299" x="-1" y="-1" width="602" height="602"/></svg>
<svg id="uuid-09dbe01b-fc39-4c48-9143-1b11829ee622" data-name="BODY" xmlns="http://www.w3.org/2000/svg" viewBox="0 0 600 600"><defs><style>
      .uuid-0e068f93-a4ce-4525-bc73-042279753465, .uuid-896c9f2e-4bdd-438c-b20a-d49b9a988943, .uuid-f61e2b2e-680e-4412-a25d-9c4f1d374aaa, .uuid-9d2bc652-0f8d-4f45-83f6-147ae07b83ac, .uuid-a8310226-7f3d-4492-965e-668c558de2ee {
        stroke: #000;
        stroke-width: 2px;
      }

      .uuid-0e068f93-a4ce-4525-bc73-042279753465, .uuid-896c9f2e-4bdd-438c-b20a-d49b9a988943, .uuid-9d2bc652-0f8d-4f45-83f6-147ae07b83ac, .uuid-a8310226-7f3d-4492-965e-668c558de2ee {
        fill: #7aa6ff;
      }

      .uuid-0e068f93-a4ce-4525-bc73-042279753465, .uuid-f61e2b2e-680e-4412-a25d-9c4f1d374aaa, .uuid-9d2bc652-0f8d-4f45-83f6-147ae07b83ac {
        stroke-linecap: round;
      }

      .uuid-0e068f93-a4ce-4525-bc73-042279753465, .uuid-f61e2b2e-680e-4412-a25d-9c4f1d374aaa, .uuid-a8310226-7f3d-4492-965e-668c558de2ee {
        stroke-linejoin: round;
      }

      .uuid-4e485c41-11e0-491a-aac2-66b77ba2e3f7 {
        fill: #fff;
      }

      .uuid-896c9f2e-4bdd-438c-b20a-d49b9a988943, .uuid-9d2bc652-0f8d-4f45-83f6-147ae07b83ac {
        stroke-miterlimit: 10;
      }

      .uuid-f61e2b2e-680e-4412-a25d-9c4f1d374aaa {
        fill: none;
      }
    </style></defs><ellipse cx="300" cy="518.65" rx="138.6" ry="22.93"/><g><path class="uuid-896c9f2e-4bdd-438c-b20a-d49b9a988943" d="m319.36,427.14c-1.16,1.05-54.95,57-54.95,57,0,0,21.51-1.95,31.74,10.62,10.23,12.57,7.26,23.89,7.26,23.89h-66.9s-28.69-36.17-28.69-36.17c0,0,3.74-13.4,20.44-10.59,20.9-19.38,55.52-59.13,55.52-59.13l35.59,14.38Z"/><path d="m283.78,412.76l31.28,12.64-3.24,9.5c-2.93,3.03-9.76,10.12-13.64,14.14-11.92,0-27.98-2.13-41.33-6.37,13.95-15.1,26.93-29.92,26.93-29.92Z"/></g><g><path class="uuid-0e068f93-a4ce-4525-bc73-042279753465" d="m409.81,359.6c9.2,3.77,29.89,12.05,42.79,16.03,2.11.65,4.41.69,6.5-.04,11.79-4.08,28.47-11.39,33.03-11.32,5.25.08,7.8,3.93,19.88,2.04,13.36-2.1,22.43-11.99,20.93-23.3-4.21-43.28-25.18-26.79-25.18-26.79,0,0-5.84-8.75-18.76-4.82-11.83,3.6-10.2,14.44-6.47,22.47l-25.29,8.58c-2.14.72-4.45.71-6.59-.02l-35.7-12.61"/><path class="uuid-9d2bc652-0f8d-4f45-83f6-147ae07b83ac" d="m533.36,312.82c2.5,3.94,1.62,9.14-1.57,12.4-2.47,2.53-5.88,3.88-9.32,4.4-2.8.43-5.7.42-8.49-.08-2.14-.39-4.29-1.1-5.79-2.75-1.66-1.83-2.27-4.46-1.98-6.87.51-4.17,3.84-7.14,7.22-9.26,3.17-1.98,6.86-3.26,10.64-3.09,3.8.18,7.36,2.19,9.3,5.24Z"/><path class="uuid-9d2bc652-0f8d-4f45-83f6-147ae07b83ac" d="m538.57,349.84c.97,3.03.32,6.43-1.5,9.01-3.77,5.33-11.17,5.65-16.96,4.27-3.31-.79-6.69-2.21-8.67-5.13-3.13-4.61-.82-9.79,3.48-12.56,2.58-1.66,5.61-2.67,8.63-3.14,5.73-.89,13.1,1.51,15.03,7.56Z"/><path class="uuid-9d2bc652-0f8d-4f45-83f6-147ae07b83ac" d="m538.71,328.53c1.8,2.99,2.06,6.89.22,9.9-1.95,3.2-4.94,5.25-8.49,6.28-3.66,1.07-7.64,1.27-11.4.44-2.25-.5-4.53-1.38-5.96-3.28-1.86-2.47-1.89-5.68-.85-8.49,1.2-3.24,4.17-5.69,7.09-7.37,6.15-3.56,15.21-4.43,19.39,2.52Z"/><path class="uuid-9d2bc652-0f8d-4f45-83f6-147ae07b83ac" d="m501.85,311.68s9.27,3.84,7.77,12.02c-1.04,5.68-8.17,9.55-14.94,6.13"/><path class="uuid-f61e2b2e-680e-4412-a25d-9c4f1d374aaa" d="m500.67,331.08c2.41,1.63,5.11,8.04,3.4,14.42"/><path d="m443.44,339.88c-2.88,10.58-6.94,20.23-11.17,28.59-10.17-3.78-21.16-9.53-27-11.93l11.83-26.02,26.35,9.36Z"/></g><g><circle class="uuid-896c9f2e-4bdd-438c-b20a-d49b9a988943" cx="300" cy="300" r="138.16"/><path class="uuid-4e485c41-11e0-491a-aac2-66b77ba2e3f7" d="m184.58,308.17c-4.41,0-7.98-3.57-7.98-7.98,0-67.74,55.11-122.86,122.86-122.86,4.41,0,7.98,3.57,7.98,7.98s-3.57,7.98-7.98,7.98c-58.94,0-106.9,47.95-106.9,106.9,0,4.41-3.57,7.98-7.98,7.98Z"/></g><path class="uuid-f61e2b2e-680e-4412-a25d-9c4f1d374aaa" d="m264.41,484.14c-4.06.49-11.49,1.36-17.85,7.23"/><path class="uuid-4e485c41-11e0-491a-aac2-66b77ba2e3f7" d="m185.17,308.14c-4.41,0-7.98-3.57-7.98-7.98,0-67.74,55.11-122.86,122.86-122.86,4.41,0,7.98,3.57,7.98,7.98s-3.57,7.98-7.98,7.98c-58.94,0-106.9,47.95-106.9,106.9,0,4.41-3.57,7.98-7.98,7.98Z"/><path d="m203.75,397.46l34.2-27.46-24.86,36.3c-6.73-5.1-3.66-2.61-9.34-8.83Z"/><path class="uuid-a8310226-7f3d-4492-965e-668c558de2ee" d="m323.72,387.31c19.14-13.4,39.15-11.3,55.52,7.36,19.6,22.35,30.57,33.06,30.57,33.06,0,0,10.74-19.34,34.77-17.5,18.26,1.4,24.84,14.43,24.84,14.43,0,0,6.21,8.82-22.45,33.5-28.66,24.68-54.93,40.92-61.14,29.46-6.21-11.46-2.82-32.1-2.82-32.1,0,0-22.02-26.09-27.94-32.01-6.79-6.79-15.71-1.36-15.71-1.36"/><path class="uuid-896c9f2e-4bdd-438c-b20a-d49b9a988943" d="m446.97,458.17c-25.89,22.29-49.82,37.69-58.79,32.02-9.77-7.44,26.84-38.54,44.88-52.7,18.04-14.16,32.17-17.82,36.36-12.81,0,0,6.21,8.82-22.45,33.5Z"/><path class="uuid-f61e2b2e-680e-4412-a25d-9c4f1d374aaa" d="m409.81,427.74c-1.89,2.86-4.55,10.38-4.55,10.38"/><g><path class="uuid-0e068f93-a4ce-4525-bc73-042279753465" d="m214.11,345.7c-8.05,5.83-25.34,20.79-35.52,29.67-1.67,1.45-2.82,3.41-3.39,5.55-3.14,11.67-8.55,33.44-8.55,33.44,0,0-8.42.58-12.19,14.35-3.64,13.3-6.64,25.06,3.77,29.75.35,7.47,7.51,15.45,19.2,9.41.14-.06,1.32,1.32,1.44,1.45,2.64,2.7,6.36,4.45,10.13,4.81,3.65.36,7.61-.67,10.43-3.08,3.29-2.81,5.4-6.94,6.05-11.2.4-2.61.26-5.31-.75-7.78,0,0,6.2-2.51,8.05-11.34,1.99-9.49-4.22-19.42-14.62-18.18l6.17-23.11c.51-2.2,1.74-4.16,3.49-5.59l29.38-24.3"/><path class="uuid-f61e2b2e-680e-4412-a25d-9c4f1d374aaa" d="m204.73,452.06c-1.37-3.47-5.39-7.08-9-6.88"/><path class="uuid-f61e2b2e-680e-4412-a25d-9c4f1d374aaa" d="m178.86,469.3c-5.16-5.27-3.82-11.97-2.9-13.54"/><path class="uuid-f61e2b2e-680e-4412-a25d-9c4f1d374aaa" d="m158.22,458.45c-.27-5.22.73-7.32,3.06-9.83"/><path class="uuid-f61e2b2e-680e-4412-a25d-9c4f1d374aaa" d="m193.93,450.63c.14-2.07.48-4.16,1.32-6.06.85-1.95,2.36-3.88,4.31-4.85"/></g></svg>
<svg id="uuid-1cc09208-f3e2-41e0-bf45-a113ad3f9612" data-name="BODY" xmlns="http://www.w3.org/2000/svg" viewBox="0 0 600 600"><defs><style>
      .uuid-b1fb9c84-9278-4c3a-8295-76e21ab76bac {
        fill: none;
        stroke: #000;
        stroke-linecap: round;
        stroke-miterlimit: 10;
        stroke-width: 4px;
      }
    </style></defs><circle cx="369.54" cy="262.94" r="9.78" transform="translate(-8.58 12.49) rotate(-1.91)"/><path class="uuid-b1fb9c84-9278-4c3a-8295-76e21ab76bac" d="m352.87,296.37c1.76,5.11,7.33,7.82,12.44,6.06,5.11-1.76,7.82-7.33,6.06-12.44"/><circle cx="337.63" cy="273.96" r="9.78" transform="translate(-8.96 11.43) rotate(-1.91)"/></svg>
<svg id="uuid-9d1e8aa9-c04a-46e9-b3c3-01823dd59a59" data-name="BACKGROUND" xmlns="http://www.w3.org/2000/svg" viewBox="0 0 600 600"><defs><style>
      .uuid-b5c36b33-7bcc-4de6-9bcc-b09b8a2016f6, .uuid-660c04b4-fa82-4422-b1ba-a2c1dd7e0159 {
        fill: #7aa6ff;
      }

      .uuid-b5c36b33-7bcc-4de6-9bcc-b09b8a2016f6, .uuid-41032fe0-d2fe-461a-b8c6-491b03ab54be, .uuid-8460c441-7e92-40ce-bb73-f11f0dcaf042, .uuid-8971ef88-c9ee-424d-b142-c3a328f2a790, .uuid-9210ebd9-abde-4e8b-b154-3bb591c63759 {
        stroke: #000;
        stroke-linejoin: round;
      }

      .uuid-b5c36b33-7bcc-4de6-9bcc-b09b8a2016f6, .uuid-8460c441-7e92-40ce-bb73-f11f0dcaf042, .uuid-8971ef88-c9ee-424d-b142-c3a328f2a790, .uuid-9210ebd9-abde-4e8b-b154-3bb591c63759 {
        stroke-linecap: round;
        stroke-width: 2px;
      }

      .uuid-f649728e-69c6-4a97-a0f0-388adbfc0e12, .uuid-8460c441-7e92-40ce-bb73-f11f0dcaf042 {
        fill: #fff7f0;
      }

      .uuid-41032fe0-d2fe-461a-b8c6-491b03ab54be {
        stroke-width: 3px;
      }

      .uuid-41032fe0-d2fe-461a-b8c6-491b03ab54be, .uuid-8971ef88-c9ee-424d-b142-c3a328f2a790 {
        fill: none;
      }

      .uuid-9210ebd9-abde-4e8b-b154-3bb591c63759 {
        fill: #f9a723;
      }
    </style></defs><g id="uuid-3ff62dab-83dd-4bd0-b5a2-51453336e98e" data-name="uuid-09b8933c-635f-4dcd-977d-7eb4fc105aa8"><g><g><path class="uuid-b5c36b33-7bcc-4de6-9bcc-b09b8a2016f6" d="m241.22,454.8l-13.89,13.85s-12.85-2.78-19.77,7.48l29.07,36.91h68.51s.65-17.01-14.04-25.82c-8.29-5.06-18.57-5.38-18.57-5.38l2.79-3.09c.96-1.06.66-2.75-.62-3.4-2.53-1.29-6.47-3.3-9.42-4.8-1.34-.68-2.97-.41-4.02.67l-1.42,1.47s-6.22-3.03-10.77-8.09c-4.55-5.06-5.44-7.92-5.44-7.92l2.43-2.53-2.37-.23c-.91-.09-1.81.23-2.46.88h0Z"/><path class="uuid-8971ef88-c9ee-424d-b142-c3a328f2a790" d="m244.42,489.63c5.92-5.31,14.38-9.03,28.11-7.79"/><path class="uuid-8460c441-7e92-40ce-bb73-f11f0dcaf042" d="m305.14,513.04s.61-16.03-12.79-25.02c-19.07,2.22-21.4,18.25-21.65,25.02h34.44Z"/><path class="uuid-8971ef88-c9ee-424d-b142-c3a328f2a790" d="m259.84,472.69c-3.71,4.36-10.76,13.48-10.76,13.48"/><g><circle cx="241.51" cy="504.3" r="2.39"/><circle cx="252.8" cy="504.3" r="2.39"/></g><g><path class="uuid-8460c441-7e92-40ce-bb73-f11f0dcaf042" d="m261.71,478.55s-3.86-1.4-6.22-2.86c-3.94-2.43-6.53,2.16-3.35,4.35,2.2,1.51,5.38,2.69,5.38,2.69l4.19-4.18Z"/><path class="uuid-8460c441-7e92-40ce-bb73-f11f0dcaf042" d="m272.79,481.86s-1.22-4.06-6.78-4.06c-7.86,0-12.12,6.94-13.58,9.53-1.46,2.58,2.88,4.92,4.88,1.92,4.3-6.42,6.78-7.15,8.16-7.61,3.05-.17,7.32.21,7.32.21h0Z"/><path class="uuid-8460c441-7e92-40ce-bb73-f11f0dcaf042" d="m286.4,484.77s-.85-4.3-6.5-4.83c-7.98-.74-12.97,6.03-14.7,8.56-1.73,2.53,2.45,5.35,4.77,2.44,4.98-6.23,9.01-7.6,10.46-7.94,1.97.42,5.97,1.76,5.97,1.76h0Z"/></g><g><circle class="uuid-f649728e-69c6-4a97-a0f0-388adbfc0e12" cx="240.43" cy="473.54" r="9.19"/><path class="uuid-660c04b4-fa82-4422-b1ba-a2c1dd7e0159" d="m244.02,470.6l-.63,2.28c-.07.26-.01.54.16.74l1.52,1.81c.44.52.09,1.32-.59,1.35l-2.36.11c-.27.01-.52.16-.66.39l-1.25,2.01c-.36.58-1.22.49-1.46-.14l-.83-2.22c-.1-.25-.31-.44-.57-.51l-2.3-.57c-.66-.16-.84-1.01-.31-1.44l1.85-1.48c.21-.17.33-.43.31-.7l-.17-2.36c-.05-.68.7-1.12,1.27-.74l1.98,1.3c.23.15.51.18.76.08l2.19-.89c.63-.26,1.28.32,1.1.98h0Z"/></g><path class="uuid-8460c441-7e92-40ce-bb73-f11f0dcaf042" d="m236.72,508.58l-27.63-35.34c-.99-1.27-2.89-1.3-3.93-.08l-4.54,5.35c-1.19,1.4-1.23,3.44-.1,4.88l29.22,37.38c1.22,1.56,3.1,2.48,5.08,2.48h71.09c1.33,0,2.41-1.08,2.41-2.41v-8.19c0-1.33-1.08-2.41-2.41-2.41h-65.78c-1.34,0-2.6-.62-3.42-1.67h0Z"/><line class="uuid-8971ef88-c9ee-424d-b142-c3a328f2a790" x1="256.96" y1="510.14" x2="256.96" y2="523.15"/><g><line class="uuid-8971ef88-c9ee-424d-b142-c3a328f2a790" x1="261.81" y1="519.72" x2="267.96" y2="513.57"/><line class="uuid-8971ef88-c9ee-424d-b142-c3a328f2a790" x1="270.81" y1="519.72" x2="276.96" y2="513.57"/><line class="uuid-8971ef88-c9ee-424d-b142-c3a328f2a790" x1="279.82" y1="519.72" x2="285.97" y2="513.57"/><line class="uuid-8971ef88-c9ee-424d-b142-c3a328f2a790" x1="297.82" y1="519.72" x2="303.97" y2="513.57"/><line class="uuid-8971ef88-c9ee-424d-b142-c3a328f2a790" x1="288.82" y1="519.72" x2="294.97" y2="513.57"/></g><path class="uuid-41032fe0-d2fe-461a-b8c6-491b03ab54be" d="m256.96,516.65h-21.1c-.79,0-1.53-.37-2.01-.99l-30.83-39.95"/></g><g><path class="uuid-b5c36b33-7bcc-4de6-9bcc-b09b8a2016f6" d="m368.09,442.51l11.81,13.89s-3.17,17.71,2.54,31.11c0,0,5.33-16.06,31.48-39.12,26.16-23.06,53.73-30.88,53.73-30.88,0,0-10.6-11.39-29.3-10.31-18.7,1.08-28.7,15.35-28.7,15.35l-12.42-13.22c-.8-.85-1.95-1.29-3.1-1.14-2.22.27-6.08,1.2-10.09,4.24-.66.5-.78,1.46-.26,2.11l1.05,1.3s-16.35,11.66-16.75,26.68h0Z"/><path class="uuid-8460c441-7e92-40ce-bb73-f11f0dcaf042" d="m409.66,422.54s-3.89,5.28-6.92,15.26"/><line class="uuid-8971ef88-c9ee-424d-b142-c3a328f2a790" x1="384.84" y1="415.83" x2="403.68" y2="434.93"/><path class="uuid-8460c441-7e92-40ce-bb73-f11f0dcaf042" d="m435.19,432.7c17.96-11.07,32.48-15.19,32.48-15.19,0,0-10.6-11.39-29.3-10.31-12.71,7.85-5.52,21.67-3.18,25.5h0Z"/><path class="uuid-8460c441-7e92-40ce-bb73-f11f0dcaf042" d="m469.32,415.42c-.66-.63-1.59-.86-2.47-.62-5.87,1.59-29.25,8.95-53.86,30.76-23.28,20.64-30.4,35.59-32.22,40.34-.37.98-.27,2.06.31,2.94,1.37,2.1,4.19,6.25,6.89,9.08,4.73,4.98,26.38-2.07,55.09-27.69,28.72-25.62,37.69-40.52,34.25-45.67-2.52-3.77-6.2-7.44-7.99-9.14h0Z"/><path class="uuid-9210ebd9-abde-4e8b-b154-3bb591c63759" d="m477.9,426.07h0c-.62-4.79-20.55-1.28-53.98,25.69-33.41,26.94-37.41,45.67-34.1,47.26,7.15,2.33,27.31-5.65,53.25-28.79,24.07-21.47,34.26-35.41,34.9-42.4,0-.73,0-1.33-.07-1.76h0Z"/><g><g><path class="uuid-9210ebd9-abde-4e8b-b154-3bb591c63759" d="m447.29,460.39c14.43-13.2,21.63-21.14,22.08-26,0-.59,0-1.08-.05-1.42-.5-3.87-14.68,2.19-41.67,23.96-1.47,1.18-2.86,2.33-4.2,3.46h23.84,0Z"/><path class="uuid-9210ebd9-abde-4e8b-b154-3bb591c63759" d="m411.51,471.18c-12.88,12.71-15.31,19.71-13.29,20.67,5.33,1.74,18.47-4.91,36.96-20.67h-23.67,0Z"/></g><line class="uuid-8971ef88-c9ee-424d-b142-c3a328f2a790" x1="398.24" y1="488.01" x2="411.89" y2="488.01"/><polyline class="uuid-8971ef88-c9ee-424d-b142-c3a328f2a790" points="411.51 471.18 418.84 483.75 400.63 483.75 435.18 471.18"/><line class="uuid-8971ef88-c9ee-424d-b142-c3a328f2a790" x1="429.11" y1="455.76" x2="452.29" y2="455.76"/><polygon class="uuid-8971ef88-c9ee-424d-b142-c3a328f2a790" points="451.17 439.65 467.13 439.65 435.18 451 457.21 451 451.17 439.65"/><line class="uuid-8971ef88-c9ee-424d-b142-c3a328f2a790" x1="459.15" y1="434.95" x2="469.28" y2="434.95"/></g><line class="uuid-8971ef88-c9ee-424d-b142-c3a328f2a790" x1="422.8" y1="437.53" x2="430.61" y2="446.53"/><g><path class="uuid-8460c441-7e92-40ce-bb73-f11f0dcaf042" d="m408.54,421.02c-3.73,3.19-6.72,6.78-9.07,9.63-2.35,2.86-6.8.03-3.59-3.64,3.21-3.67,7.19-7.82,9.39-9.15,2.2-1.33,5.76,1.03,3.27,3.15h0Z"/><path class="uuid-8460c441-7e92-40ce-bb73-f11f0dcaf042" d="m402.17,415.16c-4.39,2.18-8.18,4.92-11.16,7.11-2.98,2.19-6.6-1.64-2.59-4.41,4.01-2.77,8.88-5.81,11.35-6.56,2.46-.75,5.33,2.41,2.4,3.86h0Z"/><path class="uuid-8460c441-7e92-40ce-bb73-f11f0dcaf042" d="m418.62,414.25s-3.47-2.43-7.84,1.01c-6.17,4.87-5.22,12.96-4.76,15.89s5.3,2.08,5.02-1.51c-.6-7.7.9-9.81,1.7-11.03,2.29-2.02,5.88-4.36,5.88-4.36h0Z"/><path class="uuid-8460c441-7e92-40ce-bb73-f11f0dcaf042" d="m431.11,408.11s-3.34-2.85-8.09.24c-6.73,4.36-6.45,12.77-6.24,15.82.21,3.06,5.24,2.68,5.26-1.04.05-7.97,2.38-11.55,3.3-12.71,1.81-.89,5.78-2.31,5.78-2.31Z"/></g><g><circle class="uuid-f649728e-69c6-4a97-a0f0-388adbfc0e12" cx="384.02" cy="438.12" r="9.19"/><path class="uuid-660c04b4-fa82-4422-b1ba-a2c1dd7e0159" d="m387.08,434.62l-.24,2.35c-.03.27.08.53.28.71l1.8,1.53c.52.44.31,1.28-.36,1.43l-2.31.5c-.26.06-.48.24-.59.49l-.9,2.19c-.26.63-1.13.69-1.47.1l-1.19-2.05c-.14-.23-.38-.38-.65-.41l-2.36-.18c-.68-.05-1-.86-.55-1.36l1.58-1.76c.18-.2.25-.48.19-.74l-.56-2.3c-.16-.66.51-1.22,1.13-.94l2.16.96c.25.11.53.09.76-.05l2.02-1.24c.58-.36,1.31.11,1.24.78h0Z"/></g><g><circle cx="404.5" cy="444.74" r="2.39"/><circle cx="413" cy="437.31" r="2.39"/></g><line class="uuid-8971ef88-c9ee-424d-b142-c3a328f2a790" x1="464.72" y1="423.14" x2="464.32" y2="418.64"/><line class="uuid-8971ef88-c9ee-424d-b142-c3a328f2a790" x1="456.77" y1="426.32" x2="456.36" y2="421.82"/><line class="uuid-8971ef88-c9ee-424d-b142-c3a328f2a790" x1="449.12" y1="430.04" x2="448.71" y2="425.54"/><line class="uuid-8971ef88-c9ee-424d-b142-c3a328f2a790" x1="441.27" y1="434.42" x2="440.86" y2="429.92"/><line class="uuid-8971ef88-c9ee-424d-b142-c3a328f2a790" x1="433.62" y1="439.43" x2="433.21" y2="434.93"/><path class="uuid-41032fe0-d2fe-461a-b8c6-491b03ab54be" d="m426.7,442.03s-36.57,26.72-42.89,50.79"/></g></g></g></svg>
<svg id="uuid-5e467335-96f0-4a19-bf5d-f66d24f9f050" data-name="BODY" xmlns="http://www.w3.org/2000/svg" viewBox="0 0 600 600"><defs><style>
      .uuid-c95b386d-6b7a-48bc-b015-46353c5ddf6d, .uuid-6dfda773-13b8-4575-9246-263a2a33ff95 {
        stroke-miterlimit: 10;
      }

      .uuid-c95b386d-6b7a-48bc-b015-46353c5ddf6d, .uuid-6dfda773-13b8-4575-9246-263a2a33ff95, .uuid-d59f6628-b02a-4e8d-88df-548bea5614f0 {
        stroke: #000;
        stroke-width: 2px;
      }

      .uuid-c95b386d-6b7a-48bc-b015-46353c5ddf6d, .uuid-d59f6628-b02a-4e8d-88df-548bea5614f0 {
        fill: #ffc9f1;
      }

      .uuid-6dfda773-13b8-4575-9246-263a2a33ff95 {
        fill: #a07bff;
      }

      .uuid-d59f6628-b02a-4e8d-88df-548bea5614f0 {
        stroke-linejoin: round;
      }
    </style></defs><path d="m444.53,340.27c-.12,10.07-1.69,20.13-1.47,32.18,0,0-31.96-13.5-37.8-15.9l11.83-26.02,27.44,9.74Z"/><g id="uuid-e0b59ec1-2080-4c6b-8b31-c6fdef44f520" data-name="cloth"><path class="uuid-c95b386d-6b7a-48bc-b015-46353c5ddf6d" d="m263.36,371.55c24.26-.34,48.58-3.99,69.96-9.03-7.88-3.13-21.03-8.64-28.59-13.47-15.72-10.04-37.83-23.22-78.26-39.57-40.44-16.35-60.88-16.79-64.71-17.14-3.83-.35-3.65,17.91.52,18.78s34.19,3.67,60.28,20.36c19.37,12.39,34.36,31.2,40.8,40.07Z"/><g><path class="uuid-d59f6628-b02a-4e8d-88df-548bea5614f0" d="m175.19,380.92c.57-2.14,1.73-4.09,3.39-5.55,4.11-3.58,9.38-8.16,14.73-12.73-12.63-3.41-19.99-6.47-19.99-6.47,0,0,1.19,7.68-3.39,24.26-4.47,16.18-10.42,24.96-10.42,24.96l10.07-2.77c1.77-7.01,3.99-15.7,5.61-21.71Z"/><path class="uuid-d59f6628-b02a-4e8d-88df-548bea5614f0" d="m436.02,361.39c2.62-27.84,1.57-45.91,1.57-45.91,0,0-23.21,23.41-84.08,41.67-31.63,9.49-73.99,16.96-113.56,13.64-1.29-.11-2.56-.23-3.83-.35l-28.31,23.41c-1.75,1.43-2.97,3.39-3.49,5.59l-6.17,23.11c1.6-.19,3.09-.11,4.48.18,10.94-4.39,20.36-13.9,20.36-13.9,0,0,3.04,11.81,3.04,28.1,12.65-1.74,29.55-18.91,29.55-18.91,0,0,3.71,13.26-4.81,29.26,17.78,0,33.52-20.56,33.52-20.56l15.94,23.95s7.48-5.92,14.49-22.21c7.39-17.17,6.6-34.62,8.99-41.14,9.67-6.47,21.58-10.5,33.18-7.49,6.62,1.72,12.55,5.45,17.68,9.89,5.18,4.49,8.72,10.46,13.8,15.02,4.08,3.66,9.3,5.25,14.65,5.91,1.08.13,11.39,1.12,11.39.41v-21.3l23.94,6.09s-4.77-8.69-2.35-34.45Zm-191.58,34.15c-.44-.17-.87-.39-1.26-.65-1.82-1.21-2.89-3.3-3.34-5.43-.47-2.21-.24-4.77,1.39-6.34,3.5-3.39,16.29-2.61,17.11,3.38.62,4.53-5.71,8.89-9.45,9.45-1.49.22-3.05.13-4.45-.41Zm26.93,14.8c-.72,1.06-1.77,1.95-3.12,2.45-2.19.82-4.72.56-6.81-.48-1.36-.67-2.61-1.74-3.06-3.19-.24-.78-.24-1.62-.09-2.42.82-4.42,6.05-6.74,10.14-5.47,4.34,1.34,5.06,6,2.95,9.11Zm133.66-31.05c-.04.27-.1.55-.16.81-.87,3.69-3.13,7.03-6.22,9.21-.82.58-1.74,1.09-2.75,1.14-1.96.09-3.54-1.59-4.51-3.29-1.62-2.85-2.38-6.34-1.39-9.46,1.64-5.18,7.44-6.92,12.06-4.49,1.32.69,2.44,1.84,2.87,3.26.28.91.25,1.88.1,2.82Z"/></g><path d="m206.23,395.47c-.91,1.16-1.57,2.51-1.91,3.96l-6.17,23.11c1.27-.15,2.48-.13,3.62.03l36.18-52.57-31.72,25.47Z"/><g id="uuid-7fe29411-92c2-4f52-b005-f15084171df6" data-name="zurzido"><path class="uuid-6dfda773-13b8-4575-9246-263a2a33ff95" d="m308.67,383.17c-5.42,4.18-10.17,10.28-13.38,16.13-2.78,5.06-10.1,2.03-7.89-5.55,1.89-6.46,9.65-12.22,14.53-16.48,5.01-4.37,14,.29,6.74,5.9Z"/><path class="uuid-6dfda773-13b8-4575-9246-263a2a33ff95" d="m302.21,395.42c-4.91-4.7-11.8-8.62-18.29-11.12-5.62-2.17-3.02-9.26,5.22-7.84,7.02,1.21,13.81,7.97,18.76,12.17,5.07,4.31.89,13.1-5.7,6.79Z"/></g></g></svg>
<svg id="uuid-a434a263-1d52-419b-9f08-c2e050f7b089" data-name="BODY" xmlns="http://www.w3.org/2000/svg" viewBox="0 0 600 600"><defs><style>
      .uuid-3fe757a2-f884-4021-8b90-a2fb836a0d83 {
        fill: #7aa6ff;
      }

      .uuid-3fe757a2-f884-4021-8b90-a2fb836a0d83, .uuid-0535e5fd-e169-42bb-9b3a-04ea61531b11, .uuid-b5b40eee-3492-4a40-8cdf-74f0932ec0ba, .uuid-813fd1ba-5c6f-412d-b3d0-bab0da44157c {
        stroke: #000;
        stroke-linecap: round;
        stroke-linejoin: round;
        stroke-width: 2px;
      }

      .uuid-0535e5fd-e169-42bb-9b3a-04ea61531b11 {
        fill: #ffc9f1;
      }

      .uuid-b5b40eee-3492-4a40-8cdf-74f0932ec0ba {
        fill: none;
      }

      .uuid-813fd1ba-5c6f-412d-b3d0-bab0da44157c {
        fill: #f9a723;
      }
    </style></defs><g id="uuid-4d71603c-b588-4e7e-bdcb-85f6e7a816db" data-name="uuid-e739bccc-2d2c-4a63-b977-7b31664c2716"><g id="uuid-63e5130d-7ae7-4f0d-8331-573e75af8b15" data-name="uuid-af806a75-da6f-4a25-9368-44a11c35c8fd"><g><path class="uuid-3fe757a2-f884-4021-8b90-a2fb836a0d83" d="m494.29,225.3c-2.32-.72-4.21,6.13-13.6,5.3-9.38-.83-9.83-5.81-9.83-5.81,0,0-5.94-3.89-2.62-11.49-1.79-7.91,2.19-10.35,3.32-20.49.45-4.02-4.6-11.68-14.43-22.02s-36.38-40.72-39.7-44.94c.77-3.06,2.78-5.7,2.78-5.7l8.76,8.43-9.24-20.82s2.25-3.06,4.07-3.83c2.68,6.03,18.96,38.92,18.96,38.92l-9.94-38.92,5.94-2.65,2.23,7.34,3.89-1.15-.51-2.68,5.23-2.62-.57-6.13s4.4-3.13,6.83-3.83c-.19,3.26,1.72,14.36,1.72,14.36,0,0,1.34-14.68,1.85-17.62,2.04-.89,7.02-.32,7.02-.32l-1.34,6.77,6.51,1.66-.67-10.88,8.36-.32s1.44,31.05,5.01,44.71c-1.66-19.53-.51-49.28-.51-49.28l9.26,1.53s-.45,6.89-.32,13.28c2.3-.13,5.68-.57,5.68-.57,0,0,.89,9.83,1.28,13.91,1.79-9.7,4.09-16.28,4.09-16.28l7.02,2.62s3.26-8.36,6.89-12.32c2.43,1.91,5.23,4.15,5.23,4.15,0,0-3.19,5.81-4.53,9,2.36,1.02,5.43,2.87,5.43,2.87,0,0,1.28-2.65,2.78-4.12,1.85,1.05,4.15,3.19,4.15,3.19,0,0-5.33,11.39-8.78,23.55,8.04-17.14,17.14-25.66,17.14-25.66l4.6,4.31s-11.87,11.2-22.98,39.35c-11.11,28.15-13.24,43.12-13.63,46.44s8.68,7.79,7.66,17.62c6.45,6.7-.19,13.34-.19,13.34,0,0-2.68,13.28-20.3,7.79h0Z"/><g><path class="uuid-b5b40eee-3492-4a40-8cdf-74f0932ec0ba" d="m482.13,224.79c4.71-1.23,10.45-8.61,9.8-7.79-1.18,1.48,6,2.6,12.21,2.29"/><path class="uuid-b5b40eee-3492-4a40-8cdf-74f0932ec0ba" d="m477.18,211.73s4.95,6.82,15.21,5.21c8.12-1.27,10.2-9,10.2-9"/><path class="uuid-b5b40eee-3492-4a40-8cdf-74f0932ec0ba" d="m508.23,211.03s-9.22,7.59-15.6,7.24-4.79.13-4.79.13c0,0-5.33,2.44-10.27,1.43"/></g><path class="uuid-813fd1ba-5c6f-412d-b3d0-bab0da44157c" d="m485.92,216.91s2.23,6.29,2.49,12.99-.51,23.59,5.14,41.68c5.65,18.1,6,39.32,6,39.32,0,0,4.59,1.38,8.25,4.84,2.54-3.11,5.38-4.92,5.38-4.92,0,0,.25-16.84-4.6-25.52-4.85-8.68-8.23-33.54-8.14-47.43s-.29-17.01-2.49-22.72c-1.28.61-3.86,1.63-6.03,1.85-3.89.4-6-.1-6-.1h0Z"/><path class="uuid-813fd1ba-5c6f-412d-b3d0-bab0da44157c" d="m508.18,326.79s2.21,2.33,6.18,3.14c-5.99,8.88-1.02,12.88,2.29,14.51-6.85,3.78-9.87,14.07,3.82,18.76,3.11,10.72.18,14.84,4.65,27.8s7.15,12.83,8.55,22.34,3.26,18.83,3.64,21.19.96,9.77-8.55,9.77-10.79-4.66-11.3-7.21-.32-17.94-1.6-26.04c-1.28-8.11-4.18-11.04-6.94-25.47-2.76-14.43-1.74-19.28-3.4-27.38s-1.25-18.81-4.85-27.12c5.47-.35,7.52-4.29,7.52-4.29h0Z"/><path class="uuid-b5b40eee-3492-4a40-8cdf-74f0932ec0ba" d="m537.47,435.69c-.61-3.66-4.22-2.37-6.86-.77-6.94,4.21-13.43,2.37-11.31,6.28"/><path class="uuid-b5b40eee-3492-4a40-8cdf-74f0932ec0ba" d="m523.85,443.76c5.23.94,9.61-3.48,9.39-4.75s-6.34,1.51-6.34,1.51"/><path class="uuid-b5b40eee-3492-4a40-8cdf-74f0932ec0ba" d="m531.13,434.62s-2.88-21.15-3.78-25.42c-.89-4.28-6.7-18-6.7-18"/><path class="uuid-b5b40eee-3492-4a40-8cdf-74f0932ec0ba" d="m518.73,385.19c-2.87-10.4-3.06-23.58-3.06-23.58"/><path class="uuid-b5b40eee-3492-4a40-8cdf-74f0932ec0ba" d="m523.85,437.62c-.33-14.06-2.69-29.95-2.69-29.95"/><path class="uuid-b5b40eee-3492-4a40-8cdf-74f0932ec0ba" d="m519.5,400.96c-2.81-8.43-4.98-10.15-7.02-21.83-2.04-11.68-2.23-23.36-2.94-30.83-.7-7.47-2.67-19.17-2.67-19.17"/><path class="uuid-b5b40eee-3492-4a40-8cdf-74f0932ec0ba" d="m503.75,312.45c.33-14.07-4.11-34.08-4.11-34.08"/><path class="uuid-b5b40eee-3492-4a40-8cdf-74f0932ec0ba" d="m505.65,277.64c1.3,12.7,3.81,35.61,3.81,35.61"/><path class="uuid-b5b40eee-3492-4a40-8cdf-74f0932ec0ba" d="m498.15,271c-2.01-9.86-3.73-13.12-4.12-21.26-.35-7.43.56-20.8-2.41-32.72"/><g><path class="uuid-b5b40eee-3492-4a40-8cdf-74f0932ec0ba" d="m440.99,108.62c3.34,13.07,11.99,43.41,16.25,53.29"/><path class="uuid-b5b40eee-3492-4a40-8cdf-74f0932ec0ba" d="m428.97,128.58c4.73,11.1,9.01,19.81,12.02,24.4"/><path class="uuid-b5b40eee-3492-4a40-8cdf-74f0932ec0ba" d="m442.76,142.85c4.42,7.61,13.36,18.27,18.74,24.15,5.39,5.88,15.92,18.49,16.9,21.43.98,2.94-2.94,8.2-2.2,15.67"/><path class="uuid-b5b40eee-3492-4a40-8cdf-74f0932ec0ba" d="m482.93,200.18c-1.96-4.29-.24-15.06-.61-16.53s-19.49-42.63-24.74-77.07"/><path class="uuid-b5b40eee-3492-4a40-8cdf-74f0932ec0ba" d="m465.12,95.41c-2.1,8.11,2.94,28.41,9.31,50.93,6.37,22.52,11.5,38.08,11.5,38.08"/><path class="uuid-b5b40eee-3492-4a40-8cdf-74f0932ec0ba" d="m484.33,130.58c.91,18.43,5.52,49.55,7.29,53.84,1.77,4.3,3.4,2.67,4.44,11.71"/><path class="uuid-b5b40eee-3492-4a40-8cdf-74f0932ec0ba" d="m503.61,201.61c.44-9.78-5.78-15.41-6.52-19.56s-4.68-64.61-4.34-85.94"/><path class="uuid-b5b40eee-3492-4a40-8cdf-74f0932ec0ba" d="m499.71,109.45c-3.36,15.55-5.34,33.4-5.34,33.4"/><path class="uuid-b5b40eee-3492-4a40-8cdf-74f0932ec0ba" d="m510.82,95.79c-6.76,15.29-8.98,41.66-8.54,51.88s-2.57,34.97-2.57,34.97"/><path class="uuid-b5b40eee-3492-4a40-8cdf-74f0932ec0ba" d="m521.99,122.12c-13.19,30.3-19.71,60.52-19.71,60.52"/><path class="uuid-b5b40eee-3492-4a40-8cdf-74f0932ec0ba" d="m523.84,99.49c-9.56,16.47-14.45,41.29-14.45,41.29"/><path class="uuid-b5b40eee-3492-4a40-8cdf-74f0932ec0ba" d="m518.41,96.62c-10.8,24.68-8.44,56.1-12.06,70.04"/><path class="uuid-b5b40eee-3492-4a40-8cdf-74f0932ec0ba" d="m471.63,97.07c1.07,20.23,4.06,54.19,7.75,66.29"/><path class="uuid-b5b40eee-3492-4a40-8cdf-74f0932ec0ba" d="m449.61,102.17c3.9,28.91,18.97,72.4,25.67,81.36"/><path class="uuid-b5b40eee-3492-4a40-8cdf-74f0932ec0ba" d="m444.88,107.47c4.22,17.93,18.31,61.4,18.31,61.4"/><path class="uuid-b5b40eee-3492-4a40-8cdf-74f0932ec0ba" d="m514.58,217.51c-2.72,2.32-5.81,1.7-5.81,1.7"/><path class="uuid-b5b40eee-3492-4a40-8cdf-74f0932ec0ba" d="m470.86,224.79c3.39,2.38,8.02,1.15,8.02,1.15"/><path class="uuid-b5b40eee-3492-4a40-8cdf-74f0932ec0ba" d="m468.24,213.3c.83,3.06,4.92,5.1,4.92,5.1"/><path class="uuid-b5b40eee-3492-4a40-8cdf-74f0932ec0ba" d="m514.78,204.17c-.72,1.71-2.33,3.46-2.33,3.46"/></g><path class="uuid-0535e5fd-e169-42bb-9b3a-04ea61531b11" d="m470.71,197.7s-3.87.25-4.06-4.68c-.19-4.93,2.75-10.33,21.6-12.32,18.86-1.99,23.81,2.18,24.26,5.31.44,3.13-1.69,6.44-1.69,6.44,0,0-3.14-3.27-3.61-5.05-22.88-2.09-32.37,2.81-35.64,5.41,0,0-.25,2.65-.86,4.89h0Z"/></g></g></g></svg>
<svg id="uuid-706c66c1-904f-4e6b-ae5a-7d28757b7aa5" data-name="BODY" xmlns="http://www.w3.org/2000/svg" viewBox="0 0 600 600"><defs><style>
      .uuid-e783e61a-5a56-4ab2-963f-7f791da5a080 {
        fill: #9dff0c;
      }

      .uuid-e783e61a-5a56-4ab2-963f-7f791da5a080, .uuid-b57c3a7e-405d-471e-9dd4-85222df50f42, .uuid-4fb7418d-b5b6-44db-ba8f-3c1ee6a0dc8d {
        stroke: #000;
        stroke-linecap: round;
        stroke-linejoin: round;
        stroke-width: 2px;
      }

      .uuid-b57c3a7e-405d-471e-9dd4-85222df50f42 {
        fill: #fff;
      }

      .uuid-4fb7418d-b5b6-44db-ba8f-3c1ee6a0dc8d {
        fill: #ffc9f1;
      }
    </style></defs><path class="uuid-b57c3a7e-405d-471e-9dd4-85222df50f42" d="m249.92,302.6c-2.79-7.57-11.8-24.95-11.8-24.95.17-.46-9.01,17.39-11.8,24.95-.48,1.31-1.21,3.5-1.21,5.45,0,7.18,5.82,13,13,13s13-5.82,13-13c0-1.95-.73-4.14-1.21-5.45Z"/><path class="uuid-e783e61a-5a56-4ab2-963f-7f791da5a080" d="m307.79,206.07c-14.43-.53-29.74-6.92-45.11-23-32.46-33.95-60.76-18.26-60.76-18.26,0,0,33.11-51.48,92.55-40.34-3.72-12.38-16.1-12.38-16.1-12.38,0,0,17.85-5.8,40.87,4.95,18.42,8.61,35.21,30.63,33.17,65.88"/><path class="uuid-4fb7418d-b5b6-44db-ba8f-3c1ee6a0dc8d" d="m426.99,245.51s-7.43-22.29-78.02-16.1c-110.34,9.68-169.26,60.88-181.12,90.66-1.68,4.22-2.11,8.84-1.47,13.34l.54,3.75s-5.57-5.57-9.29-19.2c-3.72-13.62-3.8-25.68-3.15-34.26,2.53-33.24,57.22-90.25,178.39-101.35,70.59-2.48,76.54,15.26,81.12,21.67,9.29,13,19.2,34.33,13,41.49Z"/><path class="uuid-b57c3a7e-405d-471e-9dd4-85222df50f42" d="m410.49,187.32c-.48,1.1.48,2.29,1.66,2.05,7.86-1.61,30.35-7.13,35.66-18.39,6.29-13.36-23.33-15.3-37.31,16.35Z"/><path class="uuid-b57c3a7e-405d-471e-9dd4-85222df50f42" d="m396.67,179.32c.95.7,2.32.23,2.62-.91,1.48-5.54,4.61-19.7-.85-23.75-6.57-4.87-16.89,13.5-1.77,24.66Z"/></svg>
</svg>