<?xml version="1.0" encoding="UTF-8"?>
<svg xmlns="http://www.w3.org/2000/svg" viewBox="0 0 600 600">
<svg id="uuid-b5df70f2-f26b-4cc4-9992-c02ca3e1ffe7" data-name="BACKGROUND" xmlns="http://www.w3.org/2000/svg" viewBox="0 0 600 600"><defs><style>
      .uuid-b49e1da8-89ab-4517-8063-4eac3fbcc068 {
        fill: #3ef1ff;
      }
    </style></defs><rect class="uuid-b49e1da8-89ab-4517-8063-4eac3fbcc068" x="-1" y="-1" width="602" height="602"/></svg>
<svg id="uuid-e5c605a8-e4f9-4978-ad72-5db31b65b190" data-name="BACKGROUND" xmlns="http://www.w3.org/2000/svg" viewBox="0 0 600 600"><defs><style>
      .uuid-883efea5-677f-4371-9dc7-5cd56130fbcb, .uuid-d3f758ac-5239-4a0a-b4e9-3b31a4d26e61 {
        fill: #fff;
      }

      .uuid-d3f758ac-5239-4a0a-b4e9-3b31a4d26e61, .uuid-7f242137-77c3-4516-b3dd-e07924d8b27d, .uuid-446566b0-e754-4323-8c0e-f2552727105b, .uuid-0f9d5605-abaf-429f-9eda-0762dec12f88, .uuid-dee44871-50d0-4ac4-9972-c62084d34d89, .uuid-4c0d796b-ae01-4a35-8369-ec5c74e01e56, .uuid-8394a5ef-9c6d-414e-8d02-2034ddcfd3a6 {
        stroke: #000;
        stroke-width: 2px;
      }

      .uuid-d3f758ac-5239-4a0a-b4e9-3b31a4d26e61, .uuid-7f242137-77c3-4516-b3dd-e07924d8b27d, .uuid-dee44871-50d0-4ac4-9972-c62084d34d89, .uuid-4c0d796b-ae01-4a35-8369-ec5c74e01e56 {
        stroke-miterlimit: 10;
      }

      .uuid-d3f758ac-5239-4a0a-b4e9-3b31a4d26e61, .uuid-446566b0-e754-4323-8c0e-f2552727105b, .uuid-0f9d5605-abaf-429f-9eda-0762dec12f88, .uuid-dee44871-50d0-4ac4-9972-c62084d34d89, .uuid-4c0d796b-ae01-4a35-8369-ec5c74e01e56 {
        stroke-linecap: round;
      }

      .uuid-7f242137-77c3-4516-b3dd-e07924d8b27d, .uuid-446566b0-e754-4323-8c0e-f2552727105b, .uuid-dee44871-50d0-4ac4-9972-c62084d34d89, .uuid-8394a5ef-9c6d-414e-8d02-2034ddcfd3a6 {
        fill: #a07bff;
      }

      .uuid-446566b0-e754-4323-8c0e-f2552727105b, .uuid-0f9d5605-abaf-429f-9eda-0762dec12f88, .uuid-8394a5ef-9c6d-414e-8d02-2034ddcfd3a6 {
        stroke-linejoin: round;
      }

      .uuid-0f9d5605-abaf-429f-9eda-0762dec12f88 {
        fill: none;
      }

      .uuid-4c0d796b-ae01-4a35-8369-ec5c74e01e56 {
        fill: #8400ff;
      }
    </style></defs><path class="uuid-446566b0-e754-4323-8c0e-f2552727105b" d="m409.81,359.6c9.2,3.77,29.89,12.05,42.79,16.03,2.11.65,4.41.69,6.5-.04,11.79-4.08,28.47-11.39,33.03-11.32,5.25.08,7.8,3.93,19.88,2.04,13.36-2.1,22.43-11.99,20.93-23.3-4.21-43.28-25.18-26.79-25.18-26.79,0,0-5.84-8.75-18.76-4.82-11.83,3.6-10.2,14.44-6.47,22.47l-25.29,8.58c-2.14.72-4.45.71-6.59-.02l-35.7-12.61"/><path class="uuid-dee44871-50d0-4ac4-9972-c62084d34d89" d="m533.36,312.82c2.5,3.94,1.62,9.14-1.57,12.4-2.47,2.53-5.88,3.88-9.32,4.4-2.8.43-5.7.42-8.49-.08-2.14-.39-4.29-1.1-5.79-2.75-1.66-1.83-2.27-4.46-1.98-6.87.51-4.17,3.84-7.14,7.22-9.26,3.17-1.98,6.86-3.26,10.64-3.09,3.8.18,7.36,2.19,9.3,5.24Z"/><path class="uuid-dee44871-50d0-4ac4-9972-c62084d34d89" d="m538.57,349.84c.97,3.03.32,6.43-1.5,9.01-3.77,5.33-11.17,5.65-16.96,4.27-3.31-.79-6.69-2.21-8.67-5.13-3.13-4.61-.82-9.79,3.48-12.56,2.58-1.66,5.61-2.67,8.63-3.14,5.73-.89,13.1,1.51,15.03,7.56Z"/><path class="uuid-dee44871-50d0-4ac4-9972-c62084d34d89" d="m538.71,328.53c1.8,2.99,2.06,6.89.22,9.9-1.95,3.2-4.94,5.25-8.49,6.28-3.66,1.07-7.64,1.27-11.4.44-2.25-.5-4.53-1.38-5.96-3.28-1.86-2.47-1.89-5.68-.85-8.49,1.2-3.24,4.17-5.69,7.09-7.37,6.15-3.56,15.21-4.43,19.39,2.52Z"/><path class="uuid-dee44871-50d0-4ac4-9972-c62084d34d89" d="m501.85,311.68s9.27,3.84,7.77,12.02c-1.04,5.68-8.17,9.55-14.94,6.13"/><path class="uuid-0f9d5605-abaf-429f-9eda-0762dec12f88" d="m500.67,331.08c2.41,1.63,5.11,8.04,3.4,14.42"/><path d="m443.44,339.88c-2.88,10.58-6.94,20.23-11.17,28.59-10.17-3.78-21.16-9.53-27-11.93l11.83-26.02,26.35,9.36Z"/><ellipse cx="300" cy="518.65" rx="138.6" ry="22.93"/><path class="uuid-7f242137-77c3-4516-b3dd-e07924d8b27d" d="m319.36,427.14c-1.16,1.05-54.95,57-54.95,57,0,0,21.51-1.95,31.74,10.62,10.23,12.57,7.26,23.89,7.26,23.89h-66.9s-28.69-36.17-28.69-36.17c0,0,3.74-13.4,20.44-10.59,20.9-19.38,55.52-59.13,55.52-59.13l35.59,14.38Z"/><path d="m283.78,412.76l31.28,12.64-3.24,9.5c-2.93,3.03-9.76,10.12-13.64,14.14-11.92,0-27.98-2.13-41.33-6.37,13.95-15.1,26.93-29.92,26.93-29.92Z"/><path class="uuid-7f242137-77c3-4516-b3dd-e07924d8b27d" d="m354.45,173.54l-.11.27-174.2,58.29c-11.49,20.13-18.05,43.43-18.05,68.27,0,76.2,61.77,137.98,137.97,137.98s137.98-61.77,137.98-137.98c0-56.89-34.43-105.72-83.58-126.83Z"/><path class="uuid-0f9d5605-abaf-429f-9eda-0762dec12f88" d="m264.41,484.14c-4.06.49-11.49,1.36-17.85,7.23"/><path class="uuid-883efea5-677f-4371-9dc7-5cd56130fbcb" d="m185.17,308.14c-4.41,0-7.98-3.57-7.98-7.98,0-67.74,55.11-122.86,122.86-122.86,4.41,0,7.98,3.57,7.98,7.98s-3.57,7.98-7.98,7.98c-58.94,0-106.9,47.95-106.9,106.9,0,4.41-3.57,7.98-7.98,7.98Z"/><path d="m203.75,397.46l34.2-27.46-24.86,36.3c-6.73-5.1-3.66-2.61-9.34-8.83Z"/><path class="uuid-8394a5ef-9c6d-414e-8d02-2034ddcfd3a6" d="m323.72,387.31c19.14-13.4,39.15-11.3,55.52,7.36,19.6,22.35,30.57,33.06,30.57,33.06,0,0,10.74-19.34,34.77-17.5,18.26,1.4,24.84,14.43,24.84,14.43,0,0,6.21,8.82-22.45,33.5-28.66,24.68-54.93,40.92-61.14,29.46-6.21-11.46-2.82-32.1-2.82-32.1,0,0-22.02-26.09-27.94-32.01-6.79-6.79-15.71-1.36-15.71-1.36"/><path class="uuid-7f242137-77c3-4516-b3dd-e07924d8b27d" d="m446.97,458.17c-25.89,22.29-49.82,37.69-58.79,32.02-9.77-7.44,26.84-38.54,44.88-52.7,18.04-14.16,32.17-17.82,36.36-12.81,0,0,6.21,8.82-22.45,33.5Z"/><path class="uuid-0f9d5605-abaf-429f-9eda-0762dec12f88" d="m409.81,427.74c-1.89,2.86-4.55,10.38-4.55,10.38"/><ellipse class="uuid-d3f758ac-5239-4a0a-b4e9-3b31a4d26e61" cx="269.41" cy="209.07" rx="94.9" ry="26.25" transform="translate(-52.5 96.54) rotate(-18.55)"/><ellipse class="uuid-4c0d796b-ae01-4a35-8369-ec5c74e01e56" cx="269.41" cy="209.07" rx="71.19" ry="13.32" transform="translate(-52.5 96.54) rotate(-18.55)"/><g><path class="uuid-446566b0-e754-4323-8c0e-f2552727105b" d="m214.11,345.7c-8.05,5.83-25.34,20.79-35.52,29.67-1.67,1.45-2.82,3.41-3.39,5.55-3.14,11.67-8.55,33.44-8.55,33.44,0,0-8.42.58-12.19,14.35-3.64,13.3-6.64,25.06,3.77,29.75.35,7.47,7.51,15.45,19.2,9.41.14-.06,1.32,1.32,1.44,1.45,2.64,2.7,6.36,4.45,10.13,4.81,3.65.36,7.61-.67,10.43-3.08,3.29-2.81,5.4-6.94,6.05-11.2.4-2.61.26-5.31-.75-7.78,0,0,6.2-2.51,8.05-11.34,1.99-9.49-4.22-19.42-14.62-18.18l6.17-23.11c.51-2.2,1.74-4.16,3.49-5.59l29.38-24.3"/><path class="uuid-0f9d5605-abaf-429f-9eda-0762dec12f88" d="m204.73,452.06c-1.37-3.47-5.39-7.08-9-6.88"/><path class="uuid-0f9d5605-abaf-429f-9eda-0762dec12f88" d="m178.86,469.3c-5.16-5.27-3.82-11.97-2.9-13.54"/><path class="uuid-0f9d5605-abaf-429f-9eda-0762dec12f88" d="m158.22,458.45c-.27-5.22.73-7.32,3.06-9.83"/><path class="uuid-0f9d5605-abaf-429f-9eda-0762dec12f88" d="m193.93,450.63c.14-2.07.48-4.16,1.32-6.06.85-1.95,2.36-3.88,4.31-4.85"/></g></svg>
<svg id="uuid-783ed389-68eb-43cd-8772-5f49b9e71529" data-name="BODY" xmlns="http://www.w3.org/2000/svg" viewBox="0 0 600 600"><defs><style>
      .uuid-f7dbff45-408d-444d-ade6-4633d32cb1f2 {
        fill: none;
        stroke: #000;
        stroke-linecap: round;
        stroke-linejoin: round;
        stroke-width: 4px;
      }
    </style></defs><g id="uuid-4bc92f06-c84b-4f7f-af09-c2014f1ce8f9" data-name="mouth"><path d="m371.37,289.99c1.76,5.11-.95,10.68-6.06,12.44s-10.68-.95-12.44-6.06l18.49-6.38Z"/></g><g id="uuid-285df2d9-fba6-4a75-9123-94e1b459206d" data-name="eye L"><path class="uuid-f7dbff45-408d-444d-ade6-4633d32cb1f2" d="m346.88,270.76c1.76,5.11-.95,10.68-6.06,12.44s-10.68-.95-12.44-6.06"/></g><g id="uuid-a97f4a4e-8c90-4af2-892b-9ce222650c5a" data-name="eye R"><path class="uuid-f7dbff45-408d-444d-ade6-4633d32cb1f2" d="m378.79,259.75c1.76,5.11-.95,10.68-6.06,12.44-5.11,1.76-10.68-.95-12.44-6.06"/></g></svg>
<svg id="uuid-48efa21b-da1b-48ad-ab10-757c6777e8ef" data-name="BODY" xmlns="http://www.w3.org/2000/svg" viewBox="0 0 600 600"><defs><style>
      .uuid-53318c0c-3185-4fc0-b44c-db50501b4f8c {
        fill: #353434;
      }

      .uuid-53318c0c-3185-4fc0-b44c-db50501b4f8c, .uuid-af5c2333-9a04-42a4-b63f-5e80c7076528 {
        stroke: #000;
        stroke-linecap: round;
        stroke-linejoin: round;
        stroke-width: 2px;
      }

      .uuid-af5c2333-9a04-42a4-b63f-5e80c7076528 {
        fill: none;
      }
    </style></defs><g id="uuid-a23e8dd5-6c2c-4ede-a31c-dd7f3bcbc81d" data-name="uuid-30adedbd-0f6a-4ac3-8c27-dd5f684aaeb2"><g id="uuid-f568b372-0f34-440f-b75f-61e9f492b6fc" data-name="uuid-71f2d591-11c5-485d-aa3d-ec098306b10e"><g id="uuid-93dfd512-6b6b-4507-9c48-5a4c5c4594db" data-name="uuid-7d0b675e-dad4-483d-8c78-f8eeafc30cf0"><g><path class="uuid-53318c0c-3185-4fc0-b44c-db50501b4f8c" d="m366.81,441.74l13.69,14.71s-3.55,18.09,3.13,29.5c0,0,11.14-19.1,33.82-39.23,22.69-20.13,35.95-26.59,49.92-28.7,0,0-11.16-13.78-31.73-11.1-15.93,2.07-25.36,13.77-25.36,13.77l-9.14-9.95s-8.87-.73-20.67,10.86c-11.8,11.59-13.66,20.15-13.66,20.15Z"/><g><path class="uuid-af5c2333-9a04-42a4-b63f-5e80c7076528" d="m410.28,420.68c-4.81,5.68-7.77,15.82-7.77,22.65"/><line class="uuid-af5c2333-9a04-42a4-b63f-5e80c7076528" x1="402.98" y1="438.12" x2="384.42" y2="418.05"/><path class="uuid-af5c2333-9a04-42a4-b63f-5e80c7076528" d="m380.5,456.44c13.49-5.15,21.72,5.29,21.72,5.29"/><path class="uuid-af5c2333-9a04-42a4-b63f-5e80c7076528" d="m441.3,406.56c-10.56,5.07-15.89,19.93-9.79,28.48"/></g><path class="uuid-53318c0c-3185-4fc0-b44c-db50501b4f8c" d="m467.37,414.89s-18.89-1.47-51.52,29.37c-32.63,30.84-34.96,41.03-34.88,41.68s7.89,10.49,9.27,11.71c1.38,1.22,8.79-1.06,8.79-1.06,0,0,.29-2.62,1.64-3.29,2.55-1.27,5.1,1.1,5.1,1.1,0,0,5.1-1.68,7.65-3.88-1.56-1.62.98-5.73,4.58-3.13,3.42-2.09,5.33-4.17,5.33-4.17l-4.13-3.53s26.72-12.4,31.82-15.18l-2.55-1.91s.29-4.63,5.68-4.46l2.72,1.97s3.65-3.07,6.2-6.14l-2.03-1.74s-.58-4.46,4.17-4.29l2.17,1.27s2.81-3.75,4.78-7.52l-2.17-1.69s-.44-5.21,4.89-3.42c0,0,3.56-7.12,2.12-10.48s-7.52-11.3-9.62-11.22h0Z"/><g><path class="uuid-af5c2333-9a04-42a4-b63f-5e80c7076528" d="m419.2,479.69l-16.68-13.48,27.05-17.71s-3.43-3.03,0-5.41c3.13-2.17,5.83.96,5.83.96l8.25-5.36s-4.15-3.09-1.01-4.86c2.55-1.44,6.58,1.62,6.58,1.62,0,0,5.46-3.59,7.64-4.55,0,0-3.59-3.44.25-4.91,2.89-1.1,5.87,1.77,5.87,1.77,0,0,5.31-2.99,9.16-2.58,3.85.4,5.58,2.5,5.03,4.77"/><line class="uuid-af5c2333-9a04-42a4-b63f-5e80c7076528" x1="429.57" y1="448.51" x2="448.46" y2="462.6"/><line class="uuid-af5c2333-9a04-42a4-b63f-5e80c7076528" x1="435.39" y1="444.06" x2="454.14" y2="458.14"/><line class="uuid-af5c2333-9a04-42a4-b63f-5e80c7076528" x1="443.64" y1="438.69" x2="461.03" y2="452.23"/><line class="uuid-af5c2333-9a04-42a4-b63f-5e80c7076528" x1="449.21" y1="435.46" x2="465.2" y2="447.95"/><line class="uuid-af5c2333-9a04-42a4-b63f-5e80c7076528" x1="456.85" y1="430.9" x2="469.99" y2="440.01"/><line class="uuid-af5c2333-9a04-42a4-b63f-5e80c7076528" x1="462.97" y1="427.76" x2="474.88" y2="436.59"/><path class="uuid-af5c2333-9a04-42a4-b63f-5e80c7076528" d="m447.97,462.23c-5.19,2.81-31.71,15.09-31.71,15.09"/><path class="uuid-af5c2333-9a04-42a4-b63f-5e80c7076528" d="m432.58,450.76s-18.96,12.82-27.55,17.49"/><path class="uuid-af5c2333-9a04-42a4-b63f-5e80c7076528" d="m406.41,469.37s-3.67,3.73-4.49,5.1c0,0-2.9-2.71-5.06-.27-2.04,2.3.13,4.65,1.34,5.5,0,0-2.61,3.68-3.69,5.74,0,0-3.14-3.05-4.61,0-.66,1.37-.34,3.54,1.47,4.76,0,0-1.57,8.03.54,7.82"/><line class="uuid-af5c2333-9a04-42a4-b63f-5e80c7076528" x1="401.92" y1="474.46" x2="417.99" y2="487.39"/><line class="uuid-af5c2333-9a04-42a4-b63f-5e80c7076528" x1="413.42" y1="490.52" x2="398.19" y2="479.69"/><line class="uuid-af5c2333-9a04-42a4-b63f-5e80c7076528" x1="394.5" y1="485.43" x2="405.77" y2="494.4"/><line class="uuid-af5c2333-9a04-42a4-b63f-5e80c7076528" x1="391.36" y1="490.19" x2="399.03" y2="496.59"/></g><g><path class="uuid-53318c0c-3185-4fc0-b44c-db50501b4f8c" d="m226.55,468.47l16.86-19.42s2.99-.9,6.5,1.06l-2.62,2.76s3.26,6.32,10.81,12.65c7.55,6.33,14.76,9.84,14.76,9.84l3.6-3.75s2.37,5.96,2.31,6.55-4.35,2.98-4.35,2.98c0,0,13.06.74,21.81,9.35,8.9,8.75,9.03,21.38,9.03,21.38,0,0-63.87,1.76-66.89,1.56s-30.15-36.89-30.15-36.89c0,0,5.39-9.16,18.32-8.1Z"/><g><path class="uuid-af5c2333-9a04-42a4-b63f-5e80c7076528" d="m274.42,481.15c-9.61-1.12-21.84,1.23-29.03,7.31"/><line class="uuid-af5c2333-9a04-42a4-b63f-5e80c7076528" x1="252.64" y1="484.14" x2="265.82" y2="471.24"/><path class="uuid-af5c2333-9a04-42a4-b63f-5e80c7076528" d="m220.98,493.39c10.86-8.6,5.57-24.93,5.57-24.93"/><path class="uuid-af5c2333-9a04-42a4-b63f-5e80c7076528" d="m293.43,488.1c-17.87-1.3-22.02,11.44-22.09,24.68"/></g><path class="uuid-53318c0c-3185-4fc0-b44c-db50501b4f8c" d="m305.49,509.34l-62.55,1.43c-2.5.06-4.89-1.05-6.46-3l-26.43-32.8c-.94-1.17-2.72-1.19-3.69-.05l-6.59,7.74c-.73.86-.77,2.12-.08,3.02l3.44,4.48,6.83.43-3.73,3.66,5.2,6.76,6.07.02,9.4,14.47c3.5,5.38,9.43,8.68,15.85,8.81l17.81.36s0-3.59,4.22-3.59,4.01,3.94,4.01,3.94h6.92s.44-4.12,4.68-4.12,3.48,4.12,3.48,4.12h7.95s-.11-3.9,4.14-3.9,3.65,3.9,3.65,3.9h6.78c1.57,0,2.81-1.34,2.68-2.9l-.82-10.3c-.11-1.42-1.32-2.51-2.74-2.48h0Z"/><path class="uuid-af5c2333-9a04-42a4-b63f-5e80c7076528" d="m217.49,501.03c-1.41-2.31-2.24-4.46-6.07-.02"/><path class="uuid-af5c2333-9a04-42a4-b63f-5e80c7076528" d="m209.96,490.59c.62-.58-1.71-4.07-3.15-3.24-1.44.83-3.67,2.8-3.67,2.8"/></g></g></g></g></g></svg>
<svg id="uuid-e27adad5-30bb-46c8-8e54-f8c1913f360c" data-name="BODY" xmlns="http://www.w3.org/2000/svg" xmlns:xlink="http://www.w3.org/1999/xlink" viewBox="0 0 600 600"><defs><style>
      .uuid-3fcb169e-3b1b-4e12-becc-5f80712b470c, .uuid-71f48634-c7c5-4ab0-b79f-ecd7a6ea3576, .uuid-1cfa6bdb-b40b-4a10-822f-5735a372275a {
        fill: none;
      }

      .uuid-399b8939-c3fd-4a77-bb11-cefdc3056a0b {
        fill: #ff78d8;
      }

      .uuid-692362c3-9c42-49ef-a7d9-00216a7861e4 {
        fill: #8400ff;
      }

      .uuid-c264d3ba-8696-457e-a5ac-d4558e99d766 {
        fill: #fff7f0;
      }

      .uuid-c264d3ba-8696-457e-a5ac-d4558e99d766, .uuid-4d4ae5f1-c6c3-49df-9321-b3c3eeaefea3, .uuid-71f48634-c7c5-4ab0-b79f-ecd7a6ea3576 {
        stroke: #000;
        stroke-linecap: round;
        stroke-linejoin: round;
      }

      .uuid-c264d3ba-8696-457e-a5ac-d4558e99d766, .uuid-71f48634-c7c5-4ab0-b79f-ecd7a6ea3576 {
        stroke-width: 2px;
      }

      .uuid-4d4ae5f1-c6c3-49df-9321-b3c3eeaefea3 {
        fill: #00dfa9;
        stroke-width: 2px;
      }

      .uuid-1cfa6bdb-b40b-4a10-822f-5735a372275a {
        clip-path: url(#uuid-47f39ff4-ab63-4b55-810f-676f2b09c621);
      }
    </style><clipPath id="uuid-47f39ff4-ab63-4b55-810f-676f2b09c621"><path class="uuid-3fcb169e-3b1b-4e12-becc-5f80712b470c" d="m273.7,388.15l-27.14,101.6-45.29-19.13c8.06-8.68,4.71-18.07,4.71-18.07,1.65-.63,8.95-7.38,8.08-16.55-1.46-15.37-14.56-14.54-14.56-14.54l5.48-20.55c.81-3.03,2.55-5.74,4.98-7.72l27.97-22.91,35.77,17.87h0Zm-108.69-32.21l-24.51-1.18-27.32,93.86s39.97,9.86,37.79,3.43c-2.18-6.43,0-14.66,3.27-25.72,3.28-11.07,11.55-12.86,11.55-12.86,0,0,6.12-24.01,6.65-26.08.52-2.08,1.79-7.38,3.06-9.79,1.27-2.4,4.84-5.11,4.84-5.11l-15.33-16.54h0Z"/></clipPath></defs><g id="uuid-b259e6eb-9282-4e58-986d-d3934aa91bcd" data-name="uuid-c570e703-2945-4177-b64d-06e285408742"><g id="uuid-c7bc8669-3c13-43c3-852a-c286d52fcb33" data-name="uuid-9f96e339-c3dc-4444-8fae-74ea4c1f77e1"><g class="uuid-1cfa6bdb-b40b-4a10-822f-5735a372275a"><g><rect class="uuid-4d4ae5f1-c6c3-49df-9321-b3c3eeaefea3" x="162.53" y="362.64" width="70.06" height="107.69" rx="1.7" ry="1.7" transform="translate(-259.02 479.93) rotate(-72.53)"/><g><polygon class="uuid-c264d3ba-8696-457e-a5ac-d4558e99d766" points="234.27 461.83 226.16 466.44 131.28 435.87 151.5 377.4 159.88 373.03 252.99 402.33 234.27 461.83"/><line class="uuid-71f48634-c7c5-4ab0-b79f-ecd7a6ea3576" x1="244.92" y1="406.8" x2="252.99" y2="402.33"/><line class="uuid-71f48634-c7c5-4ab0-b79f-ecd7a6ea3576" x1="237.13" y1="442.16" x2="230.21" y2="464.13"/><polyline class="uuid-c264d3ba-8696-457e-a5ac-d4558e99d766" points="237.95 400.92 249.01 404.4 241.6 427.95"/><line class="uuid-71f48634-c7c5-4ab0-b79f-ecd7a6ea3576" x1="197" y1="388.03" x2="229.22" y2="398.17"/><line class="uuid-71f48634-c7c5-4ab0-b79f-ecd7a6ea3576" x1="155.91" y1="375.1" x2="181.64" y2="383.2"/></g><rect class="uuid-4d4ae5f1-c6c3-49df-9321-b3c3eeaefea3" x="148.01" y="370.21" width="70.06" height="107.69" rx="1.7" ry="1.7" transform="translate(-276.4 471.38) rotate(-72.53)"/><path class="uuid-71f48634-c7c5-4ab0-b79f-ecd7a6ea3576" d="m232.42,402.86l-28.66,39.29,13.39,9.91,23.71-32.33s3.49-10.69,3.56-11.32.28-1.69-1.11-2.13l-10.89-3.43Z"/><polygon class="uuid-692362c3-9c42-49ef-a7d9-00216a7861e4" points="134.65 423.09 138.1 437.93 146.53 436.78 149.11 428.93 134.65 423.09"/><polygon class="uuid-692362c3-9c42-49ef-a7d9-00216a7861e4" points="139.78 439.85 147.96 438.94 150.4 431.37 152.94 443.92 139.78 439.85"/><polygon class="uuid-71f48634-c7c5-4ab0-b79f-ecd7a6ea3576" points="128.61 417.65 162.28 400.02 154.62 385.56 135.54 395.62 128.61 417.65"/><path class="uuid-399b8939-c3fd-4a77-bb11-cefdc3056a0b" d="m212.18,422.18s2.32-6.22,3.23-9.81c.91-3.59-4.98-6.51-7.32-.86-5.27-3.83-8.43,2.2-3.54,5.65,4.88,3.45,7.64,5.03,7.64,5.03h0Z"/><path d="m218.3,430.31c-2.04.6-2.41,3.38-1.34,4.96,1.17,1.74,3.59,2.12,5.28.89.94-.69,1.62-1.67,1.88-2.81.09-.39-.12-.81-.52-.92-.38-.1-.83.13-.92.52-.19.84-.67,1.6-1.41,2.06-.7.44-1.48.52-2.18.19-.68-.33-1.13-.98-1.21-1.68-.04-.38,0-.75.13-1.05.15-.35.39-.62.69-.71.92-.27.53-1.72-.4-1.45h0Z"/><path d="m222.53,423.92c-1.53.71-1.69,2.71-1.15,4.11.62,1.61,2.33,2.35,3.98,2.05,1.46-.27,2.65-1.52,2.92-2.96.27-1.48-.05-3.4-1.49-4.17-1.59-.84-3.37-.14-4.53,1.09-.66.7.4,1.77,1.06,1.06.32-.34.7-.66,1.12-.85.13-.06.27-.1.4-.13.1-.03.21-.04.25-.05.28-.02.41,0,.62.05.23.06.29.09.49.22.13.08.27.24.35.38.26.45.31,1.06.31,1.57-.01.98-.49,1.79-1.36,2.18-.72.33-1.91.22-2.47-.51-.34-.44-.46-1.09-.44-1.63.03-.54.25-.91.69-1.12.37-.17.46-.7.27-1.03-.22-.38-.66-.44-1.03-.27h0Z"/><path d="m227.6,416.59c-1.58,1.19-1.23,3.67,0,4.99,1.3,1.39,3.54,1.51,5,.33.79-.64,1.25-1.6,1.32-2.6.03-.4-.37-.75-.75-.75-.43,0-.72.34-.75.75-.04.59-.43,1.26-.97,1.6-.6.38-1.28.42-1.96.17-.6-.21-1.11-.78-1.31-1.39-.13-.39-.16-.67-.11-1.09-.01.08.03-.15.03-.14.03-.11.06-.23.1-.33-.04.08.09-.15.08-.13.02-.03.1-.12.08-.1.32-.24.49-.65.27-1.03-.19-.32-.7-.51-1.03-.27h0Z"/><path d="m232.5,409.97c-1.52.74-1.79,2.68-1.06,4.06.76,1.45,2.46,2.44,4.1,2.12,1.52-.29,2.73-1.67,3.04-3.15.32-1.57-.27-3.21-1.67-4.06-1.48-.9-3.51-.44-4.4,1.07-.49.83.8,1.59,1.3.76.2-.33.52-.59.89-.71.43-.13.8-.14,1.24.05.34.15.69.46.9.8.26.41.37.87.34,1.38-.05.97-.69,1.94-1.59,2.3-.41.17-.87.17-1.35.01-.48-.16-.92-.51-1.23-.9-.31-.39-.52-.93-.47-1.39.05-.46.31-.85.73-1.05.36-.18.46-.7.27-1.03-.22-.37-.66-.45-1.03-.27h0Z"/><path d="m213.42,443.88c1.02,1.34,2.9,1.53,4.26.56,1.36-.96,1.86-2.71,1.48-4.29-.21-.87-.81-1.46-1.71-1.57-.85-.1-1.68.26-2.36.74-.59.41-1.17.99-1.88,1.18-.48.13-1.04.04-1.12-.54-.09-.62.42-1.17.9-1.5.44-.3,1.22-.65,1.67-.28.31.26.76.3,1.06,0,.27-.27.31-.8,0-1.06-1.28-1.06-3.03-.49-4.13.56-.56.54-.95,1.24-1,2.02-.05.78.31,1.57.97,1.99.65.42,1.52.43,2.24.18.78-.27,1.38-.81,2.04-1.27.27-.19.56-.38.88-.47.23-.07.63-.17.83.02.15.14.18.45.21.63.05.34.04.7-.03,1.03-.16.7-.58,1.3-1.25,1.59-.55.23-1.36.23-1.76-.29-.25-.32-.65-.49-1.03-.27-.32.18-.52.7-.27,1.03h0Z"/><path d="m210.16,437.91c2.63,2.19,5.26,4.39,7.89,6.58.31.26.76.3,1.06,0,.27-.27.31-.8,0-1.06-2.63-2.19-5.26-4.39-7.89-6.58-.31-.26-.76-.3-1.06,0-.27.27-.31.8,0,1.06h0Z"/><path d="m131.34,409.07c1.43.92,3.03,1.47,4.72,1.68.39.05.77-.38.75-.75-.14-2.6-.34-5.21-.61-7.8-.04-.4-.32-.75-.75-.75-.37,0-.79.34-.75.75.26,2.6.47,5.2.61,7.8l.75-.75c-1.41-.18-2.76-.71-3.96-1.48-.81-.52-1.57.77-.76,1.3h0Z"/><path d="m139.73,397.4c-.56.36-1.19.68-1.7,1.11-.62.52-.39,1.18-.11,1.81.56,1.22,1.16,2.41,1.81,3.58.32.58.66,1.17,1.01,1.74.18.29.37.57.72.69.32.11.63.06.95-.03.81-.22,3.44-1.11,2.29-2.33-.66-.7-1.72.36-1.06,1.06l.04.05-.22-.53v.07s.09-.38.09-.38c.07-.11.02-.05-.06,0-.1.05-.19.11-.28.16-.15.08-.31.16-.47.22-.19.08-.72.34-.89.28l.33.19c-.23-.18-.37-.56-.52-.81-.17-.29-.34-.58-.5-.87-.36-.65-.71-1.3-1.05-1.96-.16-.32-.32-.64-.48-.96-.15-.3-.26-.7-.46-.97-.02-.04-.04-.08-.06-.13-.04.09-.08.17-.12.26.02.01.45-.29.49-.31l.98-.63c.81-.52.06-1.82-.76-1.3h0Z"/><path d="m142,400.83c-.66.28-1.29.62-1.87,1.03-.16.11-.29.25-.34.45-.05.18-.03.42.08.58.1.16.26.3.45.34.19.04.41.04.58-.08.59-.41,1.22-.75,1.87-1.03.16-.07.3-.29.34-.45.05-.18.03-.42-.08-.58-.1-.16-.26-.3-.45-.34l-.2-.03c-.14,0-.26.03-.38.1h0Z"/><path d="m147.93,403.17l-4.16-7.3-.27,1.03c.84-.45,2.18-.9,2.9.01.66.83-.47,1.76-1.07,2.21-.61.47.06,1.46.73,1.25.84-.25,2.62-.77,3.01.45.35,1.1-.85,1.81-1.74,2.01-.94.21-.54,1.66.4,1.45,1.72-.39,3.34-1.95,2.79-3.86-.26-.89-1.01-1.52-1.9-1.76-.99-.27-2-.02-2.96.26l.73,1.25c.65-.51,1.26-1.12,1.55-1.91.29-.81.12-1.68-.41-2.34-1.22-1.5-3.28-1.13-4.79-.33-.36.19-.46.69-.27,1.03l4.16,7.3c.48.84,1.77.08,1.3-.76h0Z"/><path d="m148.44,394.47c1.13-.75,2.33-1.38,3.61-1.84l-.95-.72c.04,1.18-.08,2.34-.36,3.49-.14.59.36,1.02.92.92.64-.12,1.37-.19,1.96.14.56.31.69.86.55,1.46-.1.46-.34,1.04-.82,1.2-.14.05-.3.03-.44-.03-.07-.03-.14-.08-.18-.12-.02-.02-.07-.13-.06-.07-.05-.4-.31-.75-.75-.75-.37,0-.8.35-.75.75.12,1.05,1.02,1.8,2.1,1.74,1.13-.06,1.92-.99,2.26-2,.38-1.11.23-2.41-.72-3.18-1.02-.83-2.32-.82-3.55-.59l.92.92c.31-1.27.46-2.58.41-3.89-.01-.45-.47-.89-.95-.72-1.4.5-2.73,1.16-3.97,1.99-.8.53-.05,1.83.76,1.3h0Z"/></g></g></g></g></svg>
<svg id="uuid-734829e7-8ac4-4b5c-a116-9d67e01cf8c6" data-name="BODY" xmlns="http://www.w3.org/2000/svg" viewBox="0 0 600 600"><defs><style>
      .uuid-0e7e8699-3590-4479-a271-4e2a88578054, .uuid-02371a53-177b-4f50-af8f-cbf1a1ea2403 {
        fill: #7aa6ff;
      }

      .uuid-0e7e8699-3590-4479-a271-4e2a88578054, .uuid-02371a53-177b-4f50-af8f-cbf1a1ea2403, .uuid-1d66d296-2390-46c4-a438-9faf10db4969, .uuid-23e864bf-e55f-4824-98fc-854bd42b6f4b, .uuid-d79b23fd-83a5-481f-8a72-99822e51a811 {
        stroke: #000;
        stroke-linecap: round;
        stroke-linejoin: round;
      }

      .uuid-0e7e8699-3590-4479-a271-4e2a88578054, .uuid-1d66d296-2390-46c4-a438-9faf10db4969, .uuid-23e864bf-e55f-4824-98fc-854bd42b6f4b, .uuid-d79b23fd-83a5-481f-8a72-99822e51a811 {
        stroke-width: 2px;
      }

      .uuid-02371a53-177b-4f50-af8f-cbf1a1ea2403 {
        stroke-width: 2px;
      }

      .uuid-1d66d296-2390-46c4-a438-9faf10db4969 {
        fill: #9dff0c;
      }

      .uuid-23e864bf-e55f-4824-98fc-854bd42b6f4b {
        fill: #00dfa9;
      }

      .uuid-d79b23fd-83a5-481f-8a72-99822e51a811 {
        fill: none;
      }
    </style></defs><g id="uuid-893dedc1-9e88-4be1-983c-46166c082a93" data-name="uuid-1c5d9f1e-418f-4125-a97b-7131a61f4a55"><g id="uuid-24247494-c628-40dd-b62f-913c6ee78cc2" data-name="uuid-61b22ca4-5362-4f81-9138-1d4ea794330d"><g><rect class="uuid-02371a53-177b-4f50-af8f-cbf1a1ea2403" x="245" y="63.22" width="13.45" height="161.37" transform="translate(-32.44 86.26) rotate(-18.29)"/><g><g><path class="uuid-1d66d296-2390-46c4-a438-9faf10db4969" d="m296.22,96.33c-45.65-18.1-70.77-31.92-70.77-31.92,0,0-11.94,26.07-37.81,67.81-25.87,41.74-56.63,61.35-56.63,61.35,0,0,17.31,12.36,44.55,4.97,27.24-7.38,26.54-16.87,36.67-19.67,10.13-2.81,23.38,14.4,52.61,4.74,29.23-9.66,29.61-31.37,39.43-35.16,9.81-3.78,14.9,4.25,41.17-6.05,26.28-10.3,32.81-30.54,32.81-30.54,0,0-36.38,2.58-82.03-15.52h0Z"/><path class="uuid-23e864bf-e55f-4824-98fc-854bd42b6f4b" d="m225.45,64.41h0s37.05,56.26,77.43,84.74h0c.45-.27.9-.52,1.39-.7,9.81-3.78,14.9,4.25,41.17-6.05,26.28-10.3,32.81-30.54,32.81-30.54,0,0-36.38,2.58-82.03-15.52-45.65-18.1-70.77-31.92-70.77-31.92h0Z"/><path class="uuid-23e864bf-e55f-4824-98fc-854bd42b6f4b" d="m187.64,132.22c-25.87,41.74-56.63,61.35-56.63,61.35,0,0,17.31,12.36,44.55,4.97,27.24-7.38,26.54-16.87,36.67-19.67.5-.14,1.02-.22,1.54-.26h0c15.46-46.94,11.68-114.19,11.68-114.19,0,0-11.94,26.07-37.81,67.81h0Z"/></g><circle class="uuid-0e7e8699-3590-4479-a271-4e2a88578054" cx="225.45" cy="64.41" r="10.58"/></g><path class="uuid-d79b23fd-83a5-481f-8a72-99822e51a811" d="m170.09,179.51c36.26-14.64,36.02-41.35,36.02-41.35"/><path class="uuid-d79b23fd-83a5-481f-8a72-99822e51a811" d="m338.5,123.84c-37.85,9.85-53.57-11.74-53.57-11.74"/></g></g></g></svg>
</svg>