<?xml version="1.0" encoding="UTF-8"?>
<svg xmlns="http://www.w3.org/2000/svg" viewBox="0 0 600 600">
<svg id="uuid-2ebc4e2e-813a-485c-9454-52c68b62da26" data-name="BACKGROUND" xmlns="http://www.w3.org/2000/svg" viewBox="0 0 600 600"><defs><style>
      .uuid-eb841eac-0e7b-47b1-8e78-e5724f1a9b43 {
        fill: #ffff0d;
      }
    </style></defs><rect class="uuid-eb841eac-0e7b-47b1-8e78-e5724f1a9b43" x="-1" y="-1" width="602" height="602"/></svg>
<svg id="uuid-9648c3a5-85bf-4111-b836-4f12d2846ea0" data-name="BODY" xmlns="http://www.w3.org/2000/svg" viewBox="0 0 600 600"><defs><style>
      .uuid-72b44662-bf92-45d6-ac71-8c8630eb5da1, .uuid-b37a1837-e78f-4ad9-8af6-f6160b19a96e, .uuid-b7e08078-eff0-49e0-882e-e19f6b9f0e51, .uuid-4887485d-8263-4dc3-866a-1e0074c49d38, .uuid-77a72000-cc0e-4046-a327-32f7083bfbd5 {
        stroke: #000;
        stroke-width: 2px;
      }

      .uuid-72b44662-bf92-45d6-ac71-8c8630eb5da1, .uuid-b37a1837-e78f-4ad9-8af6-f6160b19a96e, .uuid-4887485d-8263-4dc3-866a-1e0074c49d38, .uuid-77a72000-cc0e-4046-a327-32f7083bfbd5 {
        fill: #8400ff;
      }

      .uuid-72b44662-bf92-45d6-ac71-8c8630eb5da1, .uuid-b7e08078-eff0-49e0-882e-e19f6b9f0e51, .uuid-4887485d-8263-4dc3-866a-1e0074c49d38 {
        stroke-linecap: round;
      }

      .uuid-72b44662-bf92-45d6-ac71-8c8630eb5da1, .uuid-b7e08078-eff0-49e0-882e-e19f6b9f0e51, .uuid-77a72000-cc0e-4046-a327-32f7083bfbd5 {
        stroke-linejoin: round;
      }

      .uuid-a929d959-1aea-4f08-932c-c12aa89aeb8b {
        fill: #fff;
      }

      .uuid-b37a1837-e78f-4ad9-8af6-f6160b19a96e, .uuid-4887485d-8263-4dc3-866a-1e0074c49d38 {
        stroke-miterlimit: 10;
      }

      .uuid-b7e08078-eff0-49e0-882e-e19f6b9f0e51 {
        fill: none;
      }
    </style></defs><ellipse cx="300" cy="518.65" rx="138.6" ry="22.93"/><g><path class="uuid-b37a1837-e78f-4ad9-8af6-f6160b19a96e" d="m319.36,427.14c-1.16,1.05-54.95,57-54.95,57,0,0,21.51-1.95,31.74,10.62,10.23,12.57,7.26,23.89,7.26,23.89h-66.9s-28.69-36.17-28.69-36.17c0,0,3.74-13.4,20.44-10.59,20.9-19.38,55.52-59.13,55.52-59.13l35.59,14.38Z"/><path d="m283.78,412.76l31.28,12.64-3.24,9.5c-2.93,3.03-9.76,10.12-13.64,14.14-11.92,0-27.98-2.13-41.33-6.37,13.95-15.1,26.93-29.92,26.93-29.92Z"/></g><g><path class="uuid-72b44662-bf92-45d6-ac71-8c8630eb5da1" d="m409.81,359.6c9.2,3.77,29.89,12.05,42.79,16.03,2.11.65,4.41.69,6.5-.04,11.79-4.08,28.47-11.39,33.03-11.32,5.25.08,7.8,3.93,19.88,2.04,13.36-2.1,22.43-11.99,20.93-23.3-4.21-43.28-25.18-26.79-25.18-26.79,0,0-5.84-8.75-18.76-4.82-11.83,3.6-10.2,14.44-6.47,22.47l-25.29,8.58c-2.14.72-4.45.71-6.59-.02l-35.7-12.61"/><path class="uuid-4887485d-8263-4dc3-866a-1e0074c49d38" d="m533.36,312.82c2.5,3.94,1.62,9.14-1.57,12.4-2.47,2.53-5.88,3.88-9.32,4.4-2.8.43-5.7.42-8.49-.08-2.14-.39-4.29-1.1-5.79-2.75-1.66-1.83-2.27-4.46-1.98-6.87.51-4.17,3.84-7.14,7.22-9.26,3.17-1.98,6.86-3.26,10.64-3.09,3.8.18,7.36,2.19,9.3,5.24Z"/><path class="uuid-4887485d-8263-4dc3-866a-1e0074c49d38" d="m538.57,349.84c.97,3.03.32,6.43-1.5,9.01-3.77,5.33-11.17,5.65-16.96,4.27-3.31-.79-6.69-2.21-8.67-5.13-3.13-4.61-.82-9.79,3.48-12.56,2.58-1.66,5.61-2.67,8.63-3.14,5.73-.89,13.1,1.51,15.03,7.56Z"/><path class="uuid-4887485d-8263-4dc3-866a-1e0074c49d38" d="m538.71,328.53c1.8,2.99,2.06,6.89.22,9.9-1.95,3.2-4.94,5.25-8.49,6.28-3.66,1.07-7.64,1.27-11.4.44-2.25-.5-4.53-1.38-5.96-3.28-1.86-2.47-1.89-5.68-.85-8.49,1.2-3.24,4.17-5.69,7.09-7.37,6.15-3.56,15.21-4.43,19.39,2.52Z"/><path class="uuid-4887485d-8263-4dc3-866a-1e0074c49d38" d="m501.85,311.68s9.27,3.84,7.77,12.02c-1.04,5.68-8.17,9.55-14.94,6.13"/><path class="uuid-b7e08078-eff0-49e0-882e-e19f6b9f0e51" d="m500.67,331.08c2.41,1.63,5.11,8.04,3.4,14.42"/><path d="m443.44,339.88c-2.88,10.58-6.94,20.23-11.17,28.59-10.17-3.78-21.16-9.53-27-11.93l11.83-26.02,26.35,9.36Z"/></g><g><circle class="uuid-b37a1837-e78f-4ad9-8af6-f6160b19a96e" cx="300" cy="300" r="138.16"/><path class="uuid-a929d959-1aea-4f08-932c-c12aa89aeb8b" d="m184.58,308.17c-4.41,0-7.98-3.57-7.98-7.98,0-67.74,55.11-122.86,122.86-122.86,4.41,0,7.98,3.57,7.98,7.98s-3.57,7.98-7.98,7.98c-58.94,0-106.9,47.95-106.9,106.9,0,4.41-3.57,7.98-7.98,7.98Z"/></g><path class="uuid-b7e08078-eff0-49e0-882e-e19f6b9f0e51" d="m264.41,484.14c-4.06.49-11.49,1.36-17.85,7.23"/><path class="uuid-a929d959-1aea-4f08-932c-c12aa89aeb8b" d="m185.17,308.14c-4.41,0-7.98-3.57-7.98-7.98,0-67.74,55.11-122.86,122.86-122.86,4.41,0,7.98,3.57,7.98,7.98s-3.57,7.98-7.98,7.98c-58.94,0-106.9,47.95-106.9,106.9,0,4.41-3.57,7.98-7.98,7.98Z"/><path d="m203.75,397.46l34.2-27.46-24.86,36.3c-6.73-5.1-3.66-2.61-9.34-8.83Z"/><path class="uuid-77a72000-cc0e-4046-a327-32f7083bfbd5" d="m323.72,387.31c19.14-13.4,39.15-11.3,55.52,7.36,19.6,22.35,30.57,33.06,30.57,33.06,0,0,10.74-19.34,34.77-17.5,18.26,1.4,24.84,14.43,24.84,14.43,0,0,6.21,8.82-22.45,33.5-28.66,24.68-54.93,40.92-61.14,29.46-6.21-11.46-2.82-32.1-2.82-32.1,0,0-22.02-26.09-27.94-32.01-6.79-6.79-15.71-1.36-15.71-1.36"/><path class="uuid-b37a1837-e78f-4ad9-8af6-f6160b19a96e" d="m446.97,458.17c-25.89,22.29-49.82,37.69-58.79,32.02-9.77-7.44,26.84-38.54,44.88-52.7,18.04-14.16,32.17-17.82,36.36-12.81,0,0,6.21,8.82-22.45,33.5Z"/><path class="uuid-b7e08078-eff0-49e0-882e-e19f6b9f0e51" d="m409.81,427.74c-1.89,2.86-4.55,10.38-4.55,10.38"/><g><path class="uuid-72b44662-bf92-45d6-ac71-8c8630eb5da1" d="m214.11,345.7c-8.05,5.83-25.34,20.79-35.52,29.67-1.67,1.45-2.82,3.41-3.39,5.55-3.14,11.67-8.55,33.44-8.55,33.44,0,0-8.42.58-12.19,14.35-3.64,13.3-6.64,25.06,3.77,29.75.35,7.47,7.51,15.45,19.2,9.41.14-.06,1.32,1.32,1.44,1.45,2.64,2.7,6.36,4.45,10.13,4.81,3.65.36,7.61-.67,10.43-3.08,3.29-2.81,5.4-6.94,6.05-11.2.4-2.61.26-5.31-.75-7.78,0,0,6.2-2.51,8.05-11.34,1.99-9.49-4.22-19.42-14.62-18.18l6.17-23.11c.51-2.2,1.74-4.16,3.49-5.59l29.38-24.3"/><path class="uuid-b7e08078-eff0-49e0-882e-e19f6b9f0e51" d="m204.73,452.06c-1.37-3.47-5.39-7.08-9-6.88"/><path class="uuid-b7e08078-eff0-49e0-882e-e19f6b9f0e51" d="m178.86,469.3c-5.16-5.27-3.82-11.97-2.9-13.54"/><path class="uuid-b7e08078-eff0-49e0-882e-e19f6b9f0e51" d="m158.22,458.45c-.27-5.22.73-7.32,3.06-9.83"/><path class="uuid-b7e08078-eff0-49e0-882e-e19f6b9f0e51" d="m193.93,450.63c.14-2.07.48-4.16,1.32-6.06.85-1.95,2.36-3.88,4.31-4.85"/></g></svg>
<svg id="uuid-d68fbb24-c0f3-4dee-920e-134d781fb2e1" data-name="BODY" xmlns="http://www.w3.org/2000/svg" viewBox="0 0 600 600"><path d="m378.79,259.75c-1.76-5.11-7.33-7.82-12.44-6.06s-7.82,7.33-6.06,12.44"/><circle cx="362.12" cy="293.18" r="9.78" transform="translate(-9.59 12.26) rotate(-1.91)"/><path d="m346.88,270.76c-1.76-5.11-7.33-7.82-12.44-6.06-5.11,1.76-7.82,7.33-6.06,12.44"/></svg>
<svg id="uuid-45076936-bf6a-400d-9d76-99472c58c4e9" data-name="BODY" xmlns="http://www.w3.org/2000/svg" viewBox="0 0 600 600"><defs><style>
      .uuid-00e92ae1-42c8-44e2-857e-a94a78f8009e {
        fill: #7aa6ff;
      }

      .uuid-00e92ae1-42c8-44e2-857e-a94a78f8009e, .uuid-c8acc748-5549-488d-9673-ee82474a7e79, .uuid-d7d2649e-ee29-4e07-944b-c87f4fdef738, .uuid-73ac82b7-4b52-4b93-b621-04fff5d4c5c9 {
        stroke-width: 2px;
      }

      .uuid-00e92ae1-42c8-44e2-857e-a94a78f8009e, .uuid-c8acc748-5549-488d-9673-ee82474a7e79, .uuid-d7d2649e-ee29-4e07-944b-c87f4fdef738, .uuid-73ac82b7-4b52-4b93-b621-04fff5d4c5c9, .uuid-089f3058-646e-4e65-9510-fa18f21a0218 {
        stroke: #000;
        stroke-linecap: round;
        stroke-linejoin: round;
      }

      .uuid-c8acc748-5549-488d-9673-ee82474a7e79 {
        fill: #ffff0d;
      }

      .uuid-d7d2649e-ee29-4e07-944b-c87f4fdef738 {
        fill: #fff7f0;
      }

      .uuid-73ac82b7-4b52-4b93-b621-04fff5d4c5c9 {
        fill: none;
      }

      .uuid-089f3058-646e-4e65-9510-fa18f21a0218 {
        fill: #f9a723;
        stroke-width: 2px;
      }
    </style></defs><g id="uuid-92d075af-fa6e-4eea-88c5-a8003c321dc0" data-name="uuid-703517f9-cd20-496a-807d-fc23883ee864"><g><g><path class="uuid-c8acc748-5549-488d-9673-ee82474a7e79" d="m468.51,338.63l-11.27,3.82c-2.14.72-4.46.71-6.59-.02l-35.7-12.61-5.14,29.78c9.2,3.77,29.89,12.05,42.79,16.03,2.11.65,4.41.69,6.5-.04,5.76-2,12.7-4.76,18.81-7.06-2.7-8.62-6.59-20.95-9.41-29.91h0Z"/><path d="m443.44,339.88c-2.88,10.58-6.94,20.23-11.17,28.59-10.17-3.78-21.16-9.53-27-11.93l11.83-26.02,26.35,9.36Z"/><path class="uuid-c8acc748-5549-488d-9673-ee82474a7e79" d="m468.45,373.64c-8.32-9.6-10.07-23.09-11.1-31.57-.4-3.26,1.5-6.35,4.59-7.49l7.36-2.7c1.61-.59,3.4-.29,4.73.79l3.54,2.87-4.51,1.53s-1.65,17.39,9.6,29.72l3.97-1.43-.16,3.5c-.09,1.97-1.36,3.69-3.22,4.36l-7.03,2.52c-2.77.99-5.85.15-7.78-2.08h0Z"/></g><path class="uuid-c8acc748-5549-488d-9673-ee82474a7e79" d="m319.36,402.14c54.04-5.61,84.58-20.5,97.52-28.47,12.37-19.58,19.96-42.47,21.12-67.06-3.19,2.68-54.14,44.28-135.14,35.93-67.15-6.92-139.67-58.6-140.07-58.88-.63,5.36-.97,10.81-.97,16.33,0,12.21,1.6,24.05,4.58,35.32,27.47,27.32,85.27,73.84,152.95,66.82h0Z"/><g><g><path class="uuid-00e92ae1-42c8-44e2-857e-a94a78f8009e" d="m265.06,433.71l-12.83,13.93,24.11,24.11,32.61-33.86s-9.11-3.01-21.05-4.93c-11.93-1.92-22.84.76-22.84.76h0Z"/><path d="m283.78,412.76l31.28,12.64-3.24,9.5c-2.93,3.03-9.76,10.12-13.64,14.14-11.92,0-27.98-2.13-41.33-6.37,13.95-15.1,26.93-29.92,26.93-29.92h0Z"/><path class="uuid-00e92ae1-42c8-44e2-857e-a94a78f8009e" d="m256.75,440.63c11.72,4.9,21.56,18.02,26.25,25.16,1.8,2.74,1.48,6.36-.78,8.74l-5.4,5.69c-1.18,1.24-2.92,1.77-4.59,1.4l-4.44-1,3.34-3.48s-8.51-18.01-24.06-24.06l-2.92,3.05-1.41-3.2c-.8-1.8-.42-3.91.94-5.33l5.18-5.38c2.04-2.12,5.18-2.73,7.89-1.6h0Z"/></g><g><path class="uuid-00e92ae1-42c8-44e2-857e-a94a78f8009e" d="m195.72,360.99c-9.29-4.19-17.84-8.74-25.47-13.44,3.18,8.66,7.21,16.91,11.97,24.66l13.5-11.22h0Z"/><path class="uuid-00e92ae1-42c8-44e2-857e-a94a78f8009e" d="m418.95,370.3c-24.03,7.71-48.97,5.83-75.98,8.83-39.41,8.01-77.99,4.3-111.27-5.07l-23.9,19.76c-1.62,1.34-2.78,3.14-3.33,5.17l-.18.65c24.83,23.86,58.55,38.52,95.7,38.52,20.42,0,39.8-4.45,57.24-12.4,0,0-.01.03-.01.03l10.9,12.33,27.36-25.36-6.48-7.1s-.02,0-.02,0c11.86-10,22.01-21.95,29.96-35.36h0Z"/></g><g><path class="uuid-d7d2649e-ee29-4e07-944b-c87f4fdef738" d="m203.69,354.36c-17.08-8.69-30-18.05-38.83-25.49,1.83,8.61,4.46,16.91,7.81,24.84,5.47,4.27,11.23,8.27,17.37,12l13.65-11.35Z"/><path class="uuid-d7d2649e-ee29-4e07-944b-c87f4fdef738" d="m342.98,379.13c-41.76,3.6-76.57-1.71-104.59-10.59l-15.49,12.81c24.69,8.91,54.95,14.31,93.96,15.13,0,0,9.76-15.82,28.03-17.52,18.89-1.76,28.81,10.15,28.81,10.15,0,0,26.43-3.81,42.25-13.99,4.66-7.17,8.68-14.8,11.96-22.81-22.27,15.48-52.65,24.04-84.93,26.82h0Z"/></g><path class="uuid-00e92ae1-42c8-44e2-857e-a94a78f8009e" d="m363.75,435.78c5.95-11.23,22.62-22.64,30.16-26.66,2.9-1.55,6.47-.89,8.64,1.58l5.18,5.89c1.13,1.29,1.5,3.07.98,4.7l-1.2,4.15-3.35-3.46s-19.28,5.51-28.87,24.58l2.77,3.19-3.32,1.12c-1.87.63-3.93.07-5.22-1.43l-4.89-5.65c-1.93-2.23-2.25-5.4-.87-8.01h0Z"/><path class="uuid-00e92ae1-42c8-44e2-857e-a94a78f8009e" d="m251.53,391.83l3.51-18.9c.48-2.58,2.98-4.26,5.55-3.73l5.12,1.06c1.43.3,2.64,1.24,3.27,2.56l1.72,3.58-4.74-.87-2.91,19.07"/><path class="uuid-00e92ae1-42c8-44e2-857e-a94a78f8009e" d="m304.26,399.19l-.41-19.21c-.06-2.62,2.06-4.78,4.68-4.78h5.23c1.46,0,2.84.67,3.72,1.83l2.42,3.15-4.82.11,1.03,19.26"/><path class="uuid-00e92ae1-42c8-44e2-857e-a94a78f8009e" d="m416.88,373.71l-4.03-12.57-3.04,1.52.44-3.75c.16-1.38.79-2.47,1.7-2.96l3.26-1.76c1.64-.88,3.68.41,4.53,2.87,0,0,1.79,5.26,2.48,7.39-2.03,4.03-5.35,9.26-5.35,9.26h0Z"/><path class="uuid-00e92ae1-42c8-44e2-857e-a94a78f8009e" d="m182.89,364.72l6.4-18.43,2.98,1.81-.44-3.87c-.16-1.38-.79-2.47-1.7-2.96l-4.6-2.53c-1.64-.88-3.68.41-4.53,2.87,0,0-5.46,14.85-6.15,16.97"/><rect class="uuid-089f3058-646e-4e65-9510-fa18f21a0218" x="373.04" y="367.45" width="29.72" height="22.05" rx="5.33" ry="5.33" transform="translate(-85.21 114.14) rotate(-15.1)"/><g><path class="uuid-73ac82b7-4b52-4b93-b621-04fff5d4c5c9" d="m252.23,408.88s21.46,5.16,33.72-8.19"/><g><path d="m378.59,441.98c-.27,0-.53-.11-.73-.31l-2.75-2.91c-.38-.4-.36-1.03.04-1.41.4-.38,1.03-.36,1.41.04l2.75,2.91c.38.4.36,1.03-.04,1.41-.19.18-.44.27-.69.27h0Z"/><path d="m370.68,433.6c-.27,0-.53-.11-.73-.31l-2.75-2.91c-.38-.4-.36-1.03.04-1.41s1.03-.36,1.41.04l2.75,2.91c.38.4.36,1.03-.04,1.41-.19.18-.44.27-.69.27h0Z"/></g><path d="m375.6,422.97c-.28,0-.56-.12-.76-.34,0,0-1.36-1.57-3.3-3.78-.36-.42-.32-1.05.09-1.41.42-.36,1.05-.32,1.41.09,1.94,2.21,3.3,3.78,3.3,3.78.36.42.32,1.05-.1,1.41-.19.16-.42.25-.66.25h0Zm-6.61-7.55c-.28,0-.55-.11-.75-.34-1.1-1.24-2.23-2.52-3.32-3.74-.37-.41-.33-1.04.08-1.41.41-.37,1.04-.33,1.41.08,1.09,1.22,2.23,2.51,3.33,3.75.37.41.33,1.05-.09,1.41-.19.17-.43.25-.66.25h0Zm-6.68-7.47c-.27,0-.54-.11-.74-.32-.76-.83-1.41-1.53-1.91-2.04-.41-.43-.93-.85-1.53-1.27-.45-.31-.57-.94-.25-1.39.31-.45.94-.57,1.39-.25.71.49,1.32,1,1.82,1.52.51.52,1.18,1.24,1.95,2.08.37.41.35,1.04-.06,1.41-.19.18-.43.26-.68.26h0Zm-31.16-2.79c-.32,0-.64-.16-.83-.45-.31-.46-.18-1.08.28-1.39,1.21-.81,2.48-1.52,3.76-2.12.5-.23,1.1-.02,1.33.48.23.5.02,1.1-.48,1.33-1.19.56-2.37,1.22-3.5,1.97-.17.11-.36.17-.55.17h0Zm23.1-2.92c-.11,0-.23-.02-.34-.06-1.48-.54-3.04-.94-4.64-1.18-.55-.08-.92-.59-.84-1.14.08-.55.59-.92,1.14-.84,1.73.26,3.43.69,5.03,1.28.52.19.79.76.6,1.28-.15.41-.53.66-.94.66h0Zm-14.76-.79c-.45,0-.86-.31-.97-.76-.13-.54.2-1.08.73-1.21,1.68-.41,3.41-.66,5.14-.74.55-.02,1.02.4,1.04.96s-.4,1.02-.96,1.04c-1.6.07-3.2.3-4.75.68-.08.02-.16.03-.24.03h0Z"/><path d="m272.16,453c-.27,0-.54-.11-.74-.33-.37-.41-.34-1.04.07-1.41l3.71-3.36c.41-.37,1.04-.34,1.41.07.37.41.34,1.04-.07,1.41l-3.71,3.36c-.19.17-.43.26-.67.26h0Zm7.41-6.71c-.27,0-.54-.11-.74-.33-.37-.41-.34-1.04.07-1.41l3.71-3.36c.41-.37,1.04-.34,1.41.07.37.41.34,1.04-.07,1.41l-3.71,3.36c-.19.17-.43.26-.67.26h0Zm7.41-6.71c-.27,0-.54-.11-.74-.33-.37-.41-.34-1.04.07-1.41l1.02-.93c.41-.37,1.04-.34,1.41.07.37.41.34,1.04-.07,1.41l-1.02.93c-.19.17-.43.26-.67.26h0Z"/><path d="m256.35,459.55c-.26,0-.53-.1-.73-.31-.38-.4-.36-1.03.04-1.41l3.63-3.44c.4-.38,1.03-.36,1.41.04.38.4.36,1.03-.04,1.41l-3.63,3.44c-.19.18-.44.27-.69.27h0Zm7.26-6.88c-.26,0-.53-.1-.73-.31-.38-.4-.36-1.03.04-1.41l3.63-3.44c.4-.38,1.03-.36,1.41.04.38.4.36,1.03-.04,1.41l-3.63,3.44c-.19.18-.44.27-.69.27h0Z"/><path class="uuid-73ac82b7-4b52-4b93-b621-04fff5d4c5c9" d="m357.23,425.79c-4.86-5.22-9.35-8.05-17.88-3.63"/><line class="uuid-73ac82b7-4b52-4b93-b621-04fff5d4c5c9" x1="373.7" y1="389.11" x2="389.02" y2="405.66"/></g><path d="m236.76,369.41l-24.81,36.89c-6.13-4.65-8.2-5.86-6.62-10.11-.38-.43,31.43-26.78,31.43-26.78h0Z"/></g><g><path class="uuid-c8acc748-5549-488d-9673-ee82474a7e79" d="m214.11,345.7c-8.05,5.83-25.34,20.79-35.52,29.67-1.67,1.45-2.82,3.41-3.39,5.55-1.27,4.72-2.91,11.08-4.41,16.99l31.84,7.91,1.71-6.39c.51-2.2,1.74-4.16,3.49-5.59l29.38-24.3"/><path class="uuid-c8acc748-5549-488d-9673-ee82474a7e79" d="m170.94,388.98c12.6-1.64,26.56,4.52,34.21,8.35,2.94,1.47,4.47,4.76,3.71,7.96l-1.81,7.63c-.4,1.66-1.64,3-3.27,3.51l-4.34,1.36,1.21-4.6s-15.34-11.14-31.83-8.58l-1,4.1-2.83-2.06c-1.59-1.16-2.33-3.17-1.86-5.09l1.78-7.25c.7-2.86,3.11-4.96,6.03-5.34h0Z"/></g></g></g></svg>
<svg id="uuid-304e6b1c-adf3-4938-b86f-18808d15f28a" data-name="BODY" xmlns="http://www.w3.org/2000/svg" xmlns:xlink="http://www.w3.org/1999/xlink" viewBox="0 0 600 600"><defs><style>
      .uuid-4df52052-1770-40d4-8106-076dbe4cf07f, .uuid-b32e8ccd-1edf-4401-b6d8-16e58badec10, .uuid-424ef470-d877-4567-bd72-49d411386bc2 {
        fill: none;
      }

      .uuid-b32e8ccd-1edf-4401-b6d8-16e58badec10 {
        clip-path: url(#uuid-e8076d28-252f-412e-9ac0-83e74d6132a1);
      }

      .uuid-a380e019-47bd-403d-b35c-b3f17b0c1504 {
        fill: #ffff0d;
      }

      .uuid-424ef470-d877-4567-bd72-49d411386bc2 {
        stroke: #000;
        stroke-linecap: round;
        stroke-linejoin: round;
        stroke-width: 2px;
      }
    </style><clipPath id="uuid-e8076d28-252f-412e-9ac0-83e74d6132a1"><path class="uuid-4df52052-1770-40d4-8106-076dbe4cf07f" d="m386.7,192.41s27.51,19.45,42.38,58.19l.33.87s-8.72-46.66-40.07-68.7c0,0,2.69-25.22-10.31-33.98,4.55,14.09,0,25.21,0,25.21,0,0-3.24-26.83-31.69-30.47-18.47-13.35-41.93-12.4-41.93-12.4l7.42,3.51s-37.62-8.36-75.91,3.24l18.88,1.89s-41.6-.88-62.43,28.25c-25.69,13.35-25.69,40.25-25.69,40.25,0,0,9.71-9.4,19.82-11.22-23.06,19.62-22.25,30.84-22.25,30.84l8.6-8.19s-14.66,23.16-15.67,24.57-19.72,9.71-31.04,2.83c1.62,6.88,12.03,11.93,12.03,11.93,0,0-18.91,3.24-26.09-9.81-2.22,5.56-.51,12.24-.51,12.24,0,0-5.11,10.52-.63,22.35,4.48,11.83,16.81,13.65,20.76,13.55,0,0-19.92,16.38-39.14-.51,1.82,16.69,19.52,20.93,19.52,20.93,0,0,14.56,23.36,43.08,3.64-8.9,16.58-4.65,32.87-4.65,32.87,0,0,7.18-11.93,15.27-15.07-6.98,12.13-3.44,34.18-3.44,34.18,0,0,19.72-33.47,37.31-43.58,17.6-10.11,62.29-26.7,72.4-44.7,10.11-18,1.48-29.33,1.48-29.33,0,0,.74-5.19,5.19-6.13,4.45-.94,20.56.61,29.19-15.37,8.7,2.7,20.49-7.96,20.49-7.96,0,0,19.48,2.63,28.58-14.63,17.73,3.17,28.72-19.28,28.72-19.28h0Z"/></clipPath></defs><g id="uuid-0a6c89ef-bc34-43d0-b36b-e097fede329b" data-name="uuid-27860d2a-070b-4b63-8098-32431e2aaf27"><g id="uuid-8acc9d46-7644-4422-b3b9-cd1dc47df6ca" data-name="uuid-34e0344d-9167-4332-8a66-86b9dfedfcdd"><g><path class="uuid-a380e019-47bd-403d-b35c-b3f17b0c1504" d="m386.7,192.41s27.51,19.45,42.38,58.19l.33.87s-8.72-46.66-40.07-68.7c0,0,2.69-25.22-10.31-33.98,4.55,14.09,0,25.21,0,25.21,0,0-3.24-26.83-31.69-30.47-18.47-13.35-41.93-12.4-41.93-12.4l7.42,3.51s-37.62-8.36-75.91,3.24l18.88,1.89s-41.6-.88-62.43,28.25c-25.69,13.35-25.69,40.25-25.69,40.25,0,0,9.71-9.4,19.82-11.22-23.06,19.62-22.25,30.84-22.25,30.84l8.6-8.19s-14.66,23.16-15.67,24.57-19.72,9.71-31.04,2.83c1.62,6.88,12.03,11.93,12.03,11.93,0,0-18.91,3.24-26.09-9.81-2.22,5.56-.51,12.24-.51,12.24,0,0-5.11,10.52-.63,22.35,4.48,11.83,16.81,13.65,20.76,13.55,0,0-19.92,16.38-39.14-.51,1.82,16.69,19.52,20.93,19.52,20.93,0,0,14.56,23.36,43.08,3.64-8.9,16.58-4.65,32.87-4.65,32.87,0,0,7.18-11.93,15.27-15.07-6.98,12.13-3.44,34.18-3.44,34.18,0,0,19.72-33.47,37.31-43.58,17.6-10.11,62.29-26.7,72.4-44.7,10.11-18,1.48-29.33,1.48-29.33,0,0,.74-5.19,5.19-6.13,4.45-.94,20.56.61,29.19-15.37,8.7,2.7,20.49-7.96,20.49-7.96,0,0,19.48,2.63,28.58-14.63,17.73,3.17,28.72-19.28,28.72-19.28h0Z"/><g class="uuid-b32e8ccd-1edf-4401-b6d8-16e58badec10"><g><path class="uuid-424ef470-d877-4567-bd72-49d411386bc2" d="m113.06,317.77c13.94,4.85,37.73-16.22,37.73-16.22"/><path class="uuid-424ef470-d877-4567-bd72-49d411386bc2" d="m132.68,297.34c9.06.05,18.11-14.22,18.11-14.22"/><path class="uuid-424ef470-d877-4567-bd72-49d411386bc2" d="m112.55,261.45c2.69,10.58,15.29,14.63,15.29,14.63"/><path class="uuid-424ef470-d877-4567-bd72-49d411386bc2" d="m111.02,265.99c.46,7.73,7.52,13.94,10.05,14.97"/><path class="uuid-424ef470-d877-4567-bd72-49d411386bc2" d="m158.16,244.25c-4.55,6.9-10.85,33.89-23.45,32.95"/><path class="uuid-424ef470-d877-4567-bd72-49d411386bc2" d="m173.83,219.68c10.52-10.27,27.45-17.14,27.45-17.14,0,0-22.38,8.18-29.43,36.67,13.45-15.14,31.41-15.42,31.41-15.42"/><path class="uuid-424ef470-d877-4567-bd72-49d411386bc2" d="m248.66,240.41s-26.6-21.64-56.53,4.92c5.93-26.56,27.24-32.9,38.83-32.22-6.88-8.63-20.22-3.64-20.22-3.64"/><path class="uuid-424ef470-d877-4567-bd72-49d411386bc2" d="m199.39,228.56c-23.43,14.16-43.05,46.31-43.05,46.31"/><path class="uuid-424ef470-d877-4567-bd72-49d411386bc2" d="m163.66,287.87c25.18-22.93,35.1-38.92,55.55-48.66"/><path class="uuid-424ef470-d877-4567-bd72-49d411386bc2" d="m236,244.25c-13.24,20.1-40.9,39.95-40.9,39.95"/><path class="uuid-424ef470-d877-4567-bd72-49d411386bc2" d="m179.98,295.79c-11.46,8.39-22.27,22.4-23.84,25.62"/><path class="uuid-424ef470-d877-4567-bd72-49d411386bc2" d="m166.75,339.21c8.38-16.47,23.5-29.95,43.48-42.59s40.3-29.67,40.19-47.63"/><path class="uuid-424ef470-d877-4567-bd72-49d411386bc2" d="m262,242.01c14.77-2.25,16.31-18.56,3.78-28.48s-47.28-17.14-47.28-17.14c0,0,27.78-21.38,58.39,6.16"/><path class="uuid-424ef470-d877-4567-bd72-49d411386bc2" d="m253.47,189.62c-18.89-7.06-32.48-4.1-32.48-4.1,0,0,23.76-20.8,58.51-3.9,34.75,16.9,33.04,45.28,29.41,52.66"/><path class="uuid-424ef470-d877-4567-bd72-49d411386bc2" d="m329.39,226.32c11.09-10.2,9.67-41.63,3.76-55.94-5.91-14.31-19.97-28.72-57.32-23.76"/><path class="uuid-424ef470-d877-4567-bd72-49d411386bc2" d="m275.83,179.95c-19.86-22.69-45.74-24.34-45.74-24.34,0,0,52.39-33.34,90.28,22.99"/><path class="uuid-424ef470-d877-4567-bd72-49d411386bc2" d="m255.78,139.76c6.63.97,15.78,6.35,15.78,6.35"/><path class="uuid-424ef470-d877-4567-bd72-49d411386bc2" d="m312.81,134.64c11.43,3.53,19.45,12.74,19.45,12.74,0,0-12.54-5.37-25.51-6.37,8.38,4.75,10.28,10.69,10.28,10.69"/><path class="uuid-424ef470-d877-4567-bd72-49d411386bc2" d="m347.33,143.53c24.93,22.6,21.3,47.71,10.65,68.16"/><path class="uuid-424ef470-d877-4567-bd72-49d411386bc2" d="m379.01,174.01c1.15,6.21-.58,11.97-.58,11.97"/><path class="uuid-424ef470-d877-4567-bd72-49d411386bc2" d="m386.7,192.41c2.03-4.82,2.63-9.64,2.63-9.64"/><path class="uuid-424ef470-d877-4567-bd72-49d411386bc2" d="m274.52,255.78c-2.42,6.08-5.31,14.88-14.5,21.93"/><path class="uuid-424ef470-d877-4567-bd72-49d411386bc2" d="m187.48,197.03c9.28-8.04,21.34-11.71,21.34-11.71"/><path class="uuid-424ef470-d877-4567-bd72-49d411386bc2" d="m193.35,168.01c7.39-3.72,15.47-6.51,15.47-6.51"/><path class="uuid-424ef470-d877-4567-bd72-49d411386bc2" d="m139.15,259.02c4.32-.81,5.87-2.2,5.87-2.2"/></g></g><path class="uuid-424ef470-d877-4567-bd72-49d411386bc2" d="m386.7,192.41s27.51,19.45,42.38,58.19l.33.87s-8.72-46.66-40.07-68.7c0,0,2.69-25.22-10.31-33.98,4.55,14.09,0,25.21,0,25.21,0,0-3.24-26.83-31.69-30.47-18.47-13.35-41.93-12.4-41.93-12.4l7.42,3.51s-37.62-8.36-75.91,3.24l18.88,1.89s-41.6-.88-62.43,28.25c-25.69,13.35-25.69,40.25-25.69,40.25,0,0,9.71-9.4,19.82-11.22-23.06,19.62-22.25,30.84-22.25,30.84l8.6-8.19s-14.66,23.16-15.67,24.57-19.72,9.71-31.04,2.83c1.62,6.88,12.03,11.93,12.03,11.93,0,0-18.91,3.24-26.09-9.81-2.22,5.56-.51,12.24-.51,12.24,0,0-5.11,10.52-.63,22.35,4.48,11.83,16.81,13.65,20.76,13.55,0,0-19.92,16.38-39.14-.51,1.82,16.69,19.52,20.93,19.52,20.93,0,0,14.56,23.36,43.08,3.64-8.9,16.58-4.65,32.87-4.65,32.87,0,0,7.18-11.93,15.27-15.07-6.98,12.13-3.44,34.18-3.44,34.18,0,0,19.72-33.47,37.31-43.58,17.6-10.11,62.29-26.7,72.4-44.7,10.11-18,1.48-29.33,1.48-29.33,0,0,.74-5.19,5.19-6.13,4.45-.94,20.56.61,29.19-15.37,8.7,2.7,20.49-7.96,20.49-7.96,0,0,19.48,2.63,28.58-14.63,17.73,3.17,28.72-19.28,28.72-19.28h0Z"/></g></g></g></svg>
</svg>