<?xml version="1.0" encoding="UTF-8"?>
<svg xmlns="http://www.w3.org/2000/svg" viewBox="0 0 600 600">
<svg id="uuid-d9dcaeb1-b3e9-4103-a9e9-674eb3b1cf0f" data-name="BACKGROUND" xmlns="http://www.w3.org/2000/svg" viewBox="0 0 600 600"><defs><style>
      .uuid-ddba642b-737c-447a-8d97-1fa19eb8e4a8 {
        fill: #ff78d8;
      }
    </style></defs><rect class="uuid-ddba642b-737c-447a-8d97-1fa19eb8e4a8" x="-1" y="-1" width="602" height="602"/></svg>
<svg id="uuid-2e688e09-c4fe-4f4d-abf1-b0fbaf338f5b" data-name="BODY" xmlns="http://www.w3.org/2000/svg" viewBox="0 0 600 600"><defs><style>
      .uuid-eb2f9d7d-b927-4606-a144-95a98972db31 {
        fill: #fff;
      }

      .uuid-505f23ba-818d-453d-8ce0-ba561f80fb1c, .uuid-558f11d3-7dde-4524-89be-a8812332cdfc {
        stroke-miterlimit: 10;
      }

      .uuid-505f23ba-818d-453d-8ce0-ba561f80fb1c, .uuid-558f11d3-7dde-4524-89be-a8812332cdfc, .uuid-fd0f3372-5f7f-47e7-9d47-74d09a54ea2e, .uuid-8a42e792-8aec-4e83-b76a-8088904e37d9, .uuid-524e3d8f-4aaa-4994-b9e3-6b84067c906c {
        stroke: #000;
        stroke-width: 2px;
      }

      .uuid-505f23ba-818d-453d-8ce0-ba561f80fb1c, .uuid-558f11d3-7dde-4524-89be-a8812332cdfc, .uuid-fd0f3372-5f7f-47e7-9d47-74d09a54ea2e, .uuid-524e3d8f-4aaa-4994-b9e3-6b84067c906c {
        fill: #ffc9f1;
      }

      .uuid-558f11d3-7dde-4524-89be-a8812332cdfc, .uuid-fd0f3372-5f7f-47e7-9d47-74d09a54ea2e, .uuid-8a42e792-8aec-4e83-b76a-8088904e37d9 {
        stroke-linecap: round;
      }

      .uuid-fd0f3372-5f7f-47e7-9d47-74d09a54ea2e, .uuid-8a42e792-8aec-4e83-b76a-8088904e37d9, .uuid-524e3d8f-4aaa-4994-b9e3-6b84067c906c {
        stroke-linejoin: round;
      }

      .uuid-8a42e792-8aec-4e83-b76a-8088904e37d9 {
        fill: none;
      }
    </style></defs><ellipse cx="300" cy="518.65" rx="138.6" ry="22.93"/><g><path class="uuid-505f23ba-818d-453d-8ce0-ba561f80fb1c" d="m319.36,427.14c-1.16,1.05-54.95,57-54.95,57,0,0,21.51-1.95,31.74,10.62,10.23,12.57,7.26,23.89,7.26,23.89h-66.9s-28.69-36.17-28.69-36.17c0,0,3.74-13.4,20.44-10.59,20.9-19.38,55.52-59.13,55.52-59.13l35.59,14.38Z"/><path d="m283.78,412.76l31.28,12.64-3.24,9.5c-2.93,3.03-9.76,10.12-13.64,14.14-11.92,0-27.98-2.13-41.33-6.37,13.95-15.1,26.93-29.92,26.93-29.92Z"/></g><g><path class="uuid-fd0f3372-5f7f-47e7-9d47-74d09a54ea2e" d="m409.81,359.6c9.2,3.77,29.89,12.05,42.79,16.03,2.11.65,4.41.69,6.5-.04,11.79-4.08,28.47-11.39,33.03-11.32,5.25.08,7.8,3.93,19.88,2.04,13.36-2.1,22.43-11.99,20.93-23.3-4.21-43.28-25.18-26.79-25.18-26.79,0,0-5.84-8.75-18.76-4.82-11.83,3.6-10.2,14.44-6.47,22.47l-25.29,8.58c-2.14.72-4.45.71-6.59-.02l-35.7-12.61"/><path class="uuid-558f11d3-7dde-4524-89be-a8812332cdfc" d="m533.36,312.82c2.5,3.94,1.62,9.14-1.57,12.4-2.47,2.53-5.88,3.88-9.32,4.4-2.8.43-5.7.42-8.49-.08-2.14-.39-4.29-1.1-5.79-2.75-1.66-1.83-2.27-4.46-1.98-6.87.51-4.17,3.84-7.14,7.22-9.26,3.17-1.98,6.86-3.26,10.64-3.09,3.8.18,7.36,2.19,9.3,5.24Z"/><path class="uuid-558f11d3-7dde-4524-89be-a8812332cdfc" d="m538.57,349.84c.97,3.03.32,6.43-1.5,9.01-3.77,5.33-11.17,5.65-16.96,4.27-3.31-.79-6.69-2.21-8.67-5.13-3.13-4.61-.82-9.79,3.48-12.56,2.58-1.66,5.61-2.67,8.63-3.14,5.73-.89,13.1,1.51,15.03,7.56Z"/><path class="uuid-558f11d3-7dde-4524-89be-a8812332cdfc" d="m538.71,328.53c1.8,2.99,2.06,6.89.22,9.9-1.95,3.2-4.94,5.25-8.49,6.28-3.66,1.07-7.64,1.27-11.4.44-2.25-.5-4.53-1.38-5.96-3.28-1.86-2.47-1.89-5.68-.85-8.49,1.2-3.24,4.17-5.69,7.09-7.37,6.15-3.56,15.21-4.43,19.39,2.52Z"/><path class="uuid-558f11d3-7dde-4524-89be-a8812332cdfc" d="m501.85,311.68s9.27,3.84,7.77,12.02c-1.04,5.68-8.17,9.55-14.94,6.13"/><path class="uuid-8a42e792-8aec-4e83-b76a-8088904e37d9" d="m500.67,331.08c2.41,1.63,5.11,8.04,3.4,14.42"/><path d="m443.44,339.88c-2.88,10.58-6.94,20.23-11.17,28.59-10.17-3.78-21.16-9.53-27-11.93l11.83-26.02,26.35,9.36Z"/></g><g><circle class="uuid-505f23ba-818d-453d-8ce0-ba561f80fb1c" cx="300" cy="300" r="138.16"/><path class="uuid-eb2f9d7d-b927-4606-a144-95a98972db31" d="m184.58,308.17c-4.41,0-7.98-3.57-7.98-7.98,0-67.74,55.11-122.86,122.86-122.86,4.41,0,7.98,3.57,7.98,7.98s-3.57,7.98-7.98,7.98c-58.94,0-106.9,47.95-106.9,106.9,0,4.41-3.57,7.98-7.98,7.98Z"/></g><path class="uuid-8a42e792-8aec-4e83-b76a-8088904e37d9" d="m264.41,484.14c-4.06.49-11.49,1.36-17.85,7.23"/><path class="uuid-eb2f9d7d-b927-4606-a144-95a98972db31" d="m185.17,308.14c-4.41,0-7.98-3.57-7.98-7.98,0-67.74,55.11-122.86,122.86-122.86,4.41,0,7.98,3.57,7.98,7.98s-3.57,7.98-7.98,7.98c-58.94,0-106.9,47.95-106.9,106.9,0,4.41-3.57,7.98-7.98,7.98Z"/><path d="m203.75,397.46l34.2-27.46-24.86,36.3c-6.73-5.1-3.66-2.61-9.34-8.83Z"/><path class="uuid-524e3d8f-4aaa-4994-b9e3-6b84067c906c" d="m323.72,387.31c19.14-13.4,39.15-11.3,55.52,7.36,19.6,22.35,30.57,33.06,30.57,33.06,0,0,10.74-19.34,34.77-17.5,18.26,1.4,24.84,14.43,24.84,14.43,0,0,6.21,8.82-22.45,33.5-28.66,24.68-54.93,40.92-61.14,29.46-6.21-11.46-2.82-32.1-2.82-32.1,0,0-22.02-26.09-27.94-32.01-6.79-6.79-15.71-1.36-15.71-1.36"/><path class="uuid-505f23ba-818d-453d-8ce0-ba561f80fb1c" d="m446.97,458.17c-25.89,22.29-49.82,37.69-58.79,32.02-9.77-7.44,26.84-38.54,44.88-52.7,18.04-14.16,32.17-17.82,36.36-12.81,0,0,6.21,8.82-22.45,33.5Z"/><path class="uuid-8a42e792-8aec-4e83-b76a-8088904e37d9" d="m409.81,427.74c-1.89,2.86-4.55,10.38-4.55,10.38"/><g><path class="uuid-fd0f3372-5f7f-47e7-9d47-74d09a54ea2e" d="m214.11,345.7c-8.05,5.83-25.34,20.79-35.52,29.67-1.67,1.45-2.82,3.41-3.39,5.55-3.14,11.67-8.55,33.44-8.55,33.44,0,0-8.42.58-12.19,14.35-3.64,13.3-6.64,25.06,3.77,29.75.35,7.47,7.51,15.45,19.2,9.41.14-.06,1.32,1.32,1.44,1.45,2.64,2.7,6.36,4.45,10.13,4.81,3.65.36,7.61-.67,10.43-3.08,3.29-2.81,5.4-6.94,6.05-11.2.4-2.61.26-5.31-.75-7.78,0,0,6.2-2.51,8.05-11.34,1.99-9.49-4.22-19.42-14.62-18.18l6.17-23.11c.51-2.2,1.74-4.16,3.49-5.59l29.38-24.3"/><path class="uuid-8a42e792-8aec-4e83-b76a-8088904e37d9" d="m204.73,452.06c-1.37-3.47-5.39-7.08-9-6.88"/><path class="uuid-8a42e792-8aec-4e83-b76a-8088904e37d9" d="m178.86,469.3c-5.16-5.27-3.82-11.97-2.9-13.54"/><path class="uuid-8a42e792-8aec-4e83-b76a-8088904e37d9" d="m158.22,458.45c-.27-5.22.73-7.32,3.06-9.83"/><path class="uuid-8a42e792-8aec-4e83-b76a-8088904e37d9" d="m193.93,450.63c.14-2.07.48-4.16,1.32-6.06.85-1.95,2.36-3.88,4.31-4.85"/></g></svg>
<svg id="uuid-853b1779-0b40-4336-9fd3-56860412922a" data-name="BODY" xmlns="http://www.w3.org/2000/svg" viewBox="0 0 600 600"><defs><style>
      .uuid-270fe1d8-6ffc-45cd-908c-63708945a6da {
        fill: none;
        stroke: #000;
        stroke-linecap: round;
        stroke-miterlimit: 10;
        stroke-width: 4px;
      }
    </style></defs><path class="uuid-270fe1d8-6ffc-45cd-908c-63708945a6da" d="m378.79,259.75c-1.76-5.11-7.33-7.82-12.44-6.06s-7.82,7.33-6.06,12.44"/><circle cx="362.12" cy="293.18" r="9.78" transform="translate(-9.59 12.26) rotate(-1.91)"/><path class="uuid-270fe1d8-6ffc-45cd-908c-63708945a6da" d="m346.88,270.76c-1.76-5.11-7.33-7.82-12.44-6.06-5.11,1.76-7.82,7.33-6.06,12.44"/></svg>
<svg id="uuid-f404ceb8-7c39-4a18-b8b8-115c00c2bd91" data-name="BODY" xmlns="http://www.w3.org/2000/svg" viewBox="0 0 600 600"><defs><style>
      .uuid-f080fb2b-602f-4cf7-92ef-6037f33bace8 {
        fill: #ffff0d;
      }

      .uuid-f080fb2b-602f-4cf7-92ef-6037f33bace8, .uuid-67a4340c-4aab-4dd0-b330-b9e5e8d4b206, .uuid-fa7a50da-85f3-4b12-a5b7-369a35eddd61 {
        stroke: #000;
        stroke-linecap: round;
        stroke-linejoin: round;
        stroke-width: 2px;
      }

      .uuid-67a4340c-4aab-4dd0-b330-b9e5e8d4b206 {
        fill: none;
      }

      .uuid-fa7a50da-85f3-4b12-a5b7-369a35eddd61 {
        fill: #f9a723;
      }
    </style></defs><g id="uuid-cf137c39-0034-439d-adac-e4fa334b472a" data-name="uuid-0c0f6844-9252-4e38-b2ae-1fb7558b546c"><g id="uuid-985784ab-0fe5-462e-b6b7-3d43bf790f20" data-name="uuid-eba7662b-ff04-44ba-9d9b-c9fb86b595ea"><g id="uuid-93bf9e4f-3898-4943-9398-20954131d89e" data-name="uuid-e873324e-4a24-4e75-a94d-0c9fb771f1dc"><g><path class="uuid-fa7a50da-85f3-4b12-a5b7-369a35eddd61" d="m138.51,388.15c-3.22-11.04-6.43-23.51-23.05-29.14-16.62-5.63-31.09,3.22-34.98,18.89-3.89,15.68-4.02,41.1,8.04,58.14s23.18,16.95,32.3,14.58c9.11-2.37,17.02-17.96,17.02-17.96l10.05-24.34s-6.16-9.13-9.38-20.18h0Zm-16.62,1.28c-.67,7.24-10.01,18.89-10.84,26.67-.82,7.77,6.41,17.66,6.55,19.95.13,2.29-.4,3.67-.4,3.67,0,0-15.41.1-19.97-13.44-4.56-13.53,3.08-25.86,3.08-25.86,0,0-6.3-24.66-.13-32.3,14.61-1.74,22.38,14.07,21.71,21.31h0Z"/><path class="uuid-f080fb2b-602f-4cf7-92ef-6037f33bace8" d="m138.51,388.15c-3.22-11.04-6.43-23.51-23.05-29.14-10.38-3.52-19.92-1.38-26.57,4.53,6.66-4.23,20.81-4.13,30.46,5.12,9.65,9.25,13.13,18.36,9.92,31.76-3.22,13.4-8.09,14.34-7.33,22.25.76,7.91,4.65,13.13,3.98,17.69-.65,4.41-2.57,9.46-9.12,11.11,1.38-.2,2.73-.49,4.03-.83,9.11-2.37,17.02-17.96,17.02-17.96l10.05-24.34s-6.16-9.13-9.38-20.18h0Z"/><path class="uuid-f080fb2b-602f-4cf7-92ef-6037f33bace8" d="m117.21,439.72s-15.41.1-19.97-13.44c-4.56-13.53,3.08-25.86,3.08-25.86,0,0-6.3-24.66-.13-32.3h0c-7.5.54-15.14,9.25-9.11,34.71-5.76,13-2.28,29.55,8.44,36.89,10.72,7.33,17.29,3.67,17.69,0h0Z"/><path class="uuid-f080fb2b-602f-4cf7-92ef-6037f33bace8" d="m153.88,408.67s.21,4.54,0,5.65c-.21,1.11-3.94,5.04-5.56,8.37-1.61,3.33-1.61,8.17-1.82,9.48s-3.93,4.04-7.46,3.88c-3.53-.15-7.06-6.91-1.31-20.22,5.75-13.31,16.24-12.41,16.15-7.16h0Z"/><path class="uuid-f080fb2b-602f-4cf7-92ef-6037f33bace8" d="m158.93,419.29c1.9-2.02,0-6.54-2.94-7.1-1.77-.34-4.94-.5-9.28,8.17-4.34,8.67-2,13.38-1.01,14.62,1.61,2.02,6.83,1.11,7.68-2.32.55-2.2.93-3.83,2.37-7.82s3.18-5.56,3.18-5.56h0Z"/><path class="uuid-f080fb2b-602f-4cf7-92ef-6037f33bace8" d="m153.38,432.67s1.44-8.2,5.55-13.38l-4.15-2.26s-1.48.91-3.72,6.05c-2.24,5.14-2.24,7.36-2.24,7.36l4.55,2.22h0Z"/><path class="uuid-f080fb2b-602f-4cf7-92ef-6037f33bace8" d="m193.93,450.63c.19-6.04,3.41-9.84,5.62-10.91,0,0,12.42.33,17.34-.51,4.92-.84,6.77,5.2,1.86,15.31s-7.52,12.77-10.39,10.92c-3.32-2.14-2.49-6.17-14.43-14.81h0Z"/><path class="uuid-f080fb2b-602f-4cf7-92ef-6037f33bace8" d="m224.52,458.18c-5.38,11.37-14.69,6.69-9.41-4.53,5.28-11.22,15.26-7.82,9.41,4.53Z"/><g><path class="uuid-f080fb2b-602f-4cf7-92ef-6037f33bace8" d="m232.45,463.74v7.7s15.21,8.44,17.86,10.28c3.51,2.42,1.94,7.69,1.94,7.69l-10.66-5.27-6.59,2.46-1.38,16.04,23.22,12.96,5.25-3.08.74-7.42s7.33,2.53,8.07,5.83c.74,3.29-.74,10.94-.74,10.94l25.18,12.85,5.74-2.44,4.04-17.32s-13.39-5.95-14.98-7.65-1.59-6.48-1.59-6.48c0,0,2.12-.74,5.63,1.06s14.02,6.59,14.02,6.59l7.57-2.18.93-4.09-84.26-38.48h0Z"/><g><path class="uuid-fa7a50da-85f3-4b12-a5b7-369a35eddd61" d="m256.85,515.61l5.25-3.08.74-7.42c-4.16-1.56-4.99-1.23-5.99,10.5Z"/><polygon class="uuid-fa7a50da-85f3-4b12-a5b7-369a35eddd61" points="308.21 508.49 315.78 506.31 316.7 502.22 310.06 499.19 308.21 508.49"/><path class="uuid-fa7a50da-85f3-4b12-a5b7-369a35eddd61" d="m301.09,532.29l4.04-17.32s-13.39-5.95-14.98-7.65c-1.59-1.7-1.59-6.48-1.59-6.48-5.36.04-5.98,6.95-3.14,9.63,2.83,2.68,13.5,7.43,13.5,7.43l-3.56,16.83,5.74-2.44h0Z"/><path class="uuid-fa7a50da-85f3-4b12-a5b7-369a35eddd61" d="m252.25,489.41l-10.65-5.27-6.59,2.46s8.4,3.91,11.55,5.7c3.15,1.79,5.4-1.25,5.69-2.89h0Z"/></g></g><g><path class="uuid-f080fb2b-602f-4cf7-92ef-6037f33bace8" d="m218.25,460.55l106.4,49.92s4.24.66,6.38-3.76c2.14-4.42-.3-6.75-.3-6.75l-107.49-49.32s-4.94,2.52-4.99,9.92h0Z"/><path class="uuid-67a4340c-4aab-4dd0-b330-b9e5e8d4b206" d="m330.72,499.95c-3.94-1.81-9.58,8.59-6.08,10.52"/></g></g></g></g></g></svg>
<svg id="uuid-31565581-ca35-4969-9fd9-2072ce3d5031" data-name="BODY" xmlns="http://www.w3.org/2000/svg" viewBox="0 0 600 600"><defs><style>
      .uuid-d4efb741-f39c-4175-b36e-70da4e900c2a, .uuid-3a137114-0556-47bf-93c9-8d0537e58240 {
        fill: #7aa6ff;
      }

      .uuid-d4efb741-f39c-4175-b36e-70da4e900c2a, .uuid-3a137114-0556-47bf-93c9-8d0537e58240, .uuid-531241c1-13d8-410f-8dae-5bbada850f92, .uuid-1ab6c91c-7253-4ddf-ba98-d52b746628c1 {
        stroke: #000;
      }

      .uuid-d4efb741-f39c-4175-b36e-70da4e900c2a, .uuid-3a137114-0556-47bf-93c9-8d0537e58240, .uuid-531241c1-13d8-410f-8dae-5bbada850f92, .uuid-1ab6c91c-7253-4ddf-ba98-d52b746628c1, .uuid-ea35ab45-f2e3-4af5-9339-ec8c6da7eb39 {
        stroke-linecap: round;
        stroke-linejoin: round;
      }

      .uuid-d4efb741-f39c-4175-b36e-70da4e900c2a, .uuid-ea35ab45-f2e3-4af5-9339-ec8c6da7eb39 {
        stroke-width: 2px;
      }

      .uuid-3a137114-0556-47bf-93c9-8d0537e58240, .uuid-531241c1-13d8-410f-8dae-5bbada850f92, .uuid-1ab6c91c-7253-4ddf-ba98-d52b746628c1 {
        stroke-width: 2px;
      }

      .uuid-f5a6b52d-8cd9-4c8e-a14f-48a216007033 {
        fill: #f9a723;
      }

      .uuid-531241c1-13d8-410f-8dae-5bbada850f92 {
        fill: #fff7f0;
      }

      .uuid-1ab6c91c-7253-4ddf-ba98-d52b746628c1, .uuid-ea35ab45-f2e3-4af5-9339-ec8c6da7eb39 {
        fill: none;
      }

      .uuid-ea35ab45-f2e3-4af5-9339-ec8c6da7eb39 {
        stroke: #fff7f0;
      }
    </style></defs><g id="uuid-aa7dba29-6ee3-4191-9f6e-7d10b3fc19a7" data-name="uuid-cd416942-12e2-43f8-ae4e-d1c982c2d506"><g id="uuid-4128828c-817e-4372-b2c1-ac0ca83248cd" data-name="uuid-e8dcef20-5373-46c6-a16e-3fce2f927a1d"><g><rect class="uuid-d4efb741-f39c-4175-b36e-70da4e900c2a" x="480.68" y="291.97" width="80.06" height="93.21" transform="translate(-73.13 156.57) rotate(-15.99)"/><path class="uuid-3a137114-0556-47bf-93c9-8d0537e58240" d="m542.62,274.42c-6.78,3.79-15.92,7.76-36.39,13.63-20.47,5.87-30.32,7.34-38.08,7.71-7.76.38-8.71,12.78,1.28,14.22,7.73,1.12,18.56-.94,40.98-7.37,22.42-6.43,32.69-10.41,38.66-15.46,7.71-6.52.33-16.53-6.45-12.74h0Z"/><path class="uuid-3a137114-0556-47bf-93c9-8d0537e58240" d="m569.05,366.62c-6.78,3.79-15.92,7.76-36.39,13.63-20.47,5.87-30.32,7.34-38.08,7.71-7.76.38-8.71,12.78,1.28,14.22,7.73,1.12,18.56-.94,40.98-7.37,22.42-6.43,32.69-10.41,38.66-15.46,7.71-6.52.33-16.53-6.45-12.74h0Z"/><g><path class="uuid-f5a6b52d-8cd9-4c8e-a14f-48a216007033" d="m486.94,341.06s11.2,39.72,11.61,40.52,11.47.62,32.91-5.53c21.44-6.14,30.7-12.7,30.7-12.7l-11.61-40.52s-10.6-10.3-31.05-2.37c-16.78,6.51-14.91,13.92-32.56,20.6h0Z"/><circle class="uuid-f5a6b52d-8cd9-4c8e-a14f-48a216007033" cx="487.35" cy="330.31" r="3.44"/><circle class="uuid-f5a6b52d-8cd9-4c8e-a14f-48a216007033" cx="498.45" cy="322.54" r="6.14"/></g><g><rect class="uuid-ea35ab45-f2e3-4af5-9339-ec8c6da7eb39" x="495.42" y="313.65" width="12.23" height="64.13" rx="5.89" ry="5.89" transform="translate(-75.84 151.56) rotate(-15.99)"/><path class="uuid-ea35ab45-f2e3-4af5-9339-ec8c6da7eb39" d="m540.54,302.41h.44c3.25,0,5.89,2.64,5.89,5.89v52.35c0,3.25-2.64,5.89-5.89,5.89h-.44c-3.25,0-5.89-2.64-5.89-5.89v-52.35c0-3.25,2.64-5.89,5.89-5.89Z" transform="translate(-71.22 161.94) rotate(-15.99)"/><rect class="uuid-ea35ab45-f2e3-4af5-9339-ec8c6da7eb39" x="515.47" y="309.56" width="12.23" height="64.13" rx="5.89" ry="5.89" transform="translate(-73.94 156.93) rotate(-15.99)"/></g><g><path class="uuid-531241c1-13d8-410f-8dae-5bbada850f92" d="m463.03,298.89s-9.81-7.17.75-13.67c-4.98-5.29.9-8.2.9-8.2,0,0-1.5-13.45,14-8.16-.68-13.69,21.13-17.59,26.88-8.49,0,0,10.14-13.09,20.77-1.37,6.73-6.18,14.47-2.24,13.93,5.63,10.37-4.43,21.14,10.51,15.39,16.97,6.02,8.12,2.04,15.31-.64,16.52l6.2,21.62c2.02,7.03-4.01,9.2-7.81,9.46-3.8.25-8.01-4.14-10.65-12.56s-3.91-11.84-3.91-11.84c0,0-7.19.96-9.32-5.09s-6.56-7.97-6.56-7.97c0,0-9.06,8.57-15.89-.82-.61,5.05-11.29,6.31-11.29,6.31,0,0,3.26,7.56-2.89,10.41l4.32,15.06c1.08,3.77.05,8.84-5.08,9.71s-7.49-9.89-9.77-17.79c-2.27-7.9-3.04-10.6-3.04-10.6,0,0-8.22,3.16-10.7-8.29,0,0-3.89-.26-5.59,3.15h0Z"/><g><path class="uuid-1ab6c91c-7253-4ddf-ba98-d52b746628c1" d="m474.9,288.6s-.02-4.01,4.55-5.86c4.57-1.85,5.96.57,5.96.57,0,0,5.52-7.71,11.1-.9"/><path class="uuid-1ab6c91c-7253-4ddf-ba98-d52b746628c1" d="m496.79,265.33s6.93-10.33,16.76-.55"/><path class="uuid-1ab6c91c-7253-4ddf-ba98-d52b746628c1" d="m525.32,273.53s9.89-3.61,10.32,7.24"/><path class="uuid-1ab6c91c-7253-4ddf-ba98-d52b746628c1" d="m478.68,268.86c.09,2.66.61,4.23.61,4.23"/><path class="uuid-1ab6c91c-7253-4ddf-ba98-d52b746628c1" d="m464.67,277.01c1.72-.8,3.61-1.03,3.61-1.03"/></g></g></g></g></g></svg>
</svg>