<?xml version="1.0" encoding="UTF-8"?>
<svg xmlns="http://www.w3.org/2000/svg" viewBox="0 0 600 600">
<svg id="uuid-50f5b600-4bee-4d04-aa66-9a7827d0c80f" data-name="BACKGROUND" xmlns="http://www.w3.org/2000/svg" viewBox="0 0 600 600"><defs><style>
      .uuid-7826a2f3-55af-481e-b40d-34a6e43de7ed {
        fill: #7aa6ff;
      }
    </style></defs><rect class="uuid-7826a2f3-55af-481e-b40d-34a6e43de7ed" x="-1" y="-1" width="602" height="602"/></svg>
<svg id="uuid-e5c605a8-e4f9-4978-ad72-5db31b65b190" data-name="BACKGROUND" xmlns="http://www.w3.org/2000/svg" viewBox="0 0 600 600"><defs><style>
      .uuid-883efea5-677f-4371-9dc7-5cd56130fbcb, .uuid-d3f758ac-5239-4a0a-b4e9-3b31a4d26e61 {
        fill: #fff;
      }

      .uuid-d3f758ac-5239-4a0a-b4e9-3b31a4d26e61, .uuid-7f242137-77c3-4516-b3dd-e07924d8b27d, .uuid-446566b0-e754-4323-8c0e-f2552727105b, .uuid-0f9d5605-abaf-429f-9eda-0762dec12f88, .uuid-dee44871-50d0-4ac4-9972-c62084d34d89, .uuid-4c0d796b-ae01-4a35-8369-ec5c74e01e56, .uuid-8394a5ef-9c6d-414e-8d02-2034ddcfd3a6 {
        stroke: #000;
        stroke-width: 2px;
      }

      .uuid-d3f758ac-5239-4a0a-b4e9-3b31a4d26e61, .uuid-7f242137-77c3-4516-b3dd-e07924d8b27d, .uuid-dee44871-50d0-4ac4-9972-c62084d34d89, .uuid-4c0d796b-ae01-4a35-8369-ec5c74e01e56 {
        stroke-miterlimit: 10;
      }

      .uuid-d3f758ac-5239-4a0a-b4e9-3b31a4d26e61, .uuid-446566b0-e754-4323-8c0e-f2552727105b, .uuid-0f9d5605-abaf-429f-9eda-0762dec12f88, .uuid-dee44871-50d0-4ac4-9972-c62084d34d89, .uuid-4c0d796b-ae01-4a35-8369-ec5c74e01e56 {
        stroke-linecap: round;
      }

      .uuid-7f242137-77c3-4516-b3dd-e07924d8b27d, .uuid-446566b0-e754-4323-8c0e-f2552727105b, .uuid-dee44871-50d0-4ac4-9972-c62084d34d89, .uuid-8394a5ef-9c6d-414e-8d02-2034ddcfd3a6 {
        fill: #a07bff;
      }

      .uuid-446566b0-e754-4323-8c0e-f2552727105b, .uuid-0f9d5605-abaf-429f-9eda-0762dec12f88, .uuid-8394a5ef-9c6d-414e-8d02-2034ddcfd3a6 {
        stroke-linejoin: round;
      }

      .uuid-0f9d5605-abaf-429f-9eda-0762dec12f88 {
        fill: none;
      }

      .uuid-4c0d796b-ae01-4a35-8369-ec5c74e01e56 {
        fill: #8400ff;
      }
    </style></defs><path class="uuid-446566b0-e754-4323-8c0e-f2552727105b" d="m409.81,359.6c9.2,3.77,29.89,12.05,42.79,16.03,2.11.65,4.41.69,6.5-.04,11.79-4.08,28.47-11.39,33.03-11.32,5.25.08,7.8,3.93,19.88,2.04,13.36-2.1,22.43-11.99,20.93-23.3-4.21-43.28-25.18-26.79-25.18-26.79,0,0-5.84-8.75-18.76-4.82-11.83,3.6-10.2,14.44-6.47,22.47l-25.29,8.58c-2.14.72-4.45.71-6.59-.02l-35.7-12.61"/><path class="uuid-dee44871-50d0-4ac4-9972-c62084d34d89" d="m533.36,312.82c2.5,3.94,1.62,9.14-1.57,12.4-2.47,2.53-5.88,3.88-9.32,4.4-2.8.43-5.7.42-8.49-.08-2.14-.39-4.29-1.1-5.79-2.75-1.66-1.83-2.27-4.46-1.98-6.87.51-4.17,3.84-7.14,7.22-9.26,3.17-1.98,6.86-3.26,10.64-3.09,3.8.18,7.36,2.19,9.3,5.24Z"/><path class="uuid-dee44871-50d0-4ac4-9972-c62084d34d89" d="m538.57,349.84c.97,3.03.32,6.43-1.5,9.01-3.77,5.33-11.17,5.65-16.96,4.27-3.31-.79-6.69-2.21-8.67-5.13-3.13-4.61-.82-9.79,3.48-12.56,2.58-1.66,5.61-2.67,8.63-3.14,5.73-.89,13.1,1.51,15.03,7.56Z"/><path class="uuid-dee44871-50d0-4ac4-9972-c62084d34d89" d="m538.71,328.53c1.8,2.99,2.06,6.89.22,9.9-1.95,3.2-4.94,5.25-8.49,6.28-3.66,1.07-7.64,1.27-11.4.44-2.25-.5-4.53-1.38-5.96-3.28-1.86-2.47-1.89-5.68-.85-8.49,1.2-3.24,4.17-5.69,7.09-7.37,6.15-3.56,15.21-4.43,19.39,2.52Z"/><path class="uuid-dee44871-50d0-4ac4-9972-c62084d34d89" d="m501.85,311.68s9.27,3.84,7.77,12.02c-1.04,5.68-8.17,9.55-14.94,6.13"/><path class="uuid-0f9d5605-abaf-429f-9eda-0762dec12f88" d="m500.67,331.08c2.41,1.63,5.11,8.04,3.4,14.42"/><path d="m443.44,339.88c-2.88,10.58-6.94,20.23-11.17,28.59-10.17-3.78-21.16-9.53-27-11.93l11.83-26.02,26.35,9.36Z"/><ellipse cx="300" cy="518.65" rx="138.6" ry="22.93"/><path class="uuid-7f242137-77c3-4516-b3dd-e07924d8b27d" d="m319.36,427.14c-1.16,1.05-54.95,57-54.95,57,0,0,21.51-1.95,31.74,10.62,10.23,12.57,7.26,23.89,7.26,23.89h-66.9s-28.69-36.17-28.69-36.17c0,0,3.74-13.4,20.44-10.59,20.9-19.38,55.52-59.13,55.52-59.13l35.59,14.38Z"/><path d="m283.78,412.76l31.28,12.64-3.24,9.5c-2.93,3.03-9.76,10.12-13.64,14.14-11.92,0-27.98-2.13-41.33-6.37,13.95-15.1,26.93-29.92,26.93-29.92Z"/><path class="uuid-7f242137-77c3-4516-b3dd-e07924d8b27d" d="m354.45,173.54l-.11.27-174.2,58.29c-11.49,20.13-18.05,43.43-18.05,68.27,0,76.2,61.77,137.98,137.97,137.98s137.98-61.77,137.98-137.98c0-56.89-34.43-105.72-83.58-126.83Z"/><path class="uuid-0f9d5605-abaf-429f-9eda-0762dec12f88" d="m264.41,484.14c-4.06.49-11.49,1.36-17.85,7.23"/><path class="uuid-883efea5-677f-4371-9dc7-5cd56130fbcb" d="m185.17,308.14c-4.41,0-7.98-3.57-7.98-7.98,0-67.74,55.11-122.86,122.86-122.86,4.41,0,7.98,3.57,7.98,7.98s-3.57,7.98-7.98,7.98c-58.94,0-106.9,47.95-106.9,106.9,0,4.41-3.57,7.98-7.98,7.98Z"/><path d="m203.75,397.46l34.2-27.46-24.86,36.3c-6.73-5.1-3.66-2.61-9.34-8.83Z"/><path class="uuid-8394a5ef-9c6d-414e-8d02-2034ddcfd3a6" d="m323.72,387.31c19.14-13.4,39.15-11.3,55.52,7.36,19.6,22.35,30.57,33.06,30.57,33.06,0,0,10.74-19.34,34.77-17.5,18.26,1.4,24.84,14.43,24.84,14.43,0,0,6.21,8.82-22.45,33.5-28.66,24.68-54.93,40.92-61.14,29.46-6.21-11.46-2.82-32.1-2.82-32.1,0,0-22.02-26.09-27.94-32.01-6.79-6.79-15.71-1.36-15.71-1.36"/><path class="uuid-7f242137-77c3-4516-b3dd-e07924d8b27d" d="m446.97,458.17c-25.89,22.29-49.82,37.69-58.79,32.02-9.77-7.44,26.84-38.54,44.88-52.7,18.04-14.16,32.17-17.82,36.36-12.81,0,0,6.21,8.82-22.45,33.5Z"/><path class="uuid-0f9d5605-abaf-429f-9eda-0762dec12f88" d="m409.81,427.74c-1.89,2.86-4.55,10.38-4.55,10.38"/><ellipse class="uuid-d3f758ac-5239-4a0a-b4e9-3b31a4d26e61" cx="269.41" cy="209.07" rx="94.9" ry="26.25" transform="translate(-52.5 96.54) rotate(-18.55)"/><ellipse class="uuid-4c0d796b-ae01-4a35-8369-ec5c74e01e56" cx="269.41" cy="209.07" rx="71.19" ry="13.32" transform="translate(-52.5 96.54) rotate(-18.55)"/><g><path class="uuid-446566b0-e754-4323-8c0e-f2552727105b" d="m214.11,345.7c-8.05,5.83-25.34,20.79-35.52,29.67-1.67,1.45-2.82,3.41-3.39,5.55-3.14,11.67-8.55,33.44-8.55,33.44,0,0-8.42.58-12.19,14.35-3.64,13.3-6.64,25.06,3.77,29.75.35,7.47,7.51,15.45,19.2,9.41.14-.06,1.32,1.32,1.44,1.45,2.64,2.7,6.36,4.45,10.13,4.81,3.65.36,7.61-.67,10.43-3.08,3.29-2.81,5.4-6.94,6.05-11.2.4-2.61.26-5.31-.75-7.78,0,0,6.2-2.51,8.05-11.34,1.99-9.49-4.22-19.42-14.62-18.18l6.17-23.11c.51-2.2,1.74-4.16,3.49-5.59l29.38-24.3"/><path class="uuid-0f9d5605-abaf-429f-9eda-0762dec12f88" d="m204.73,452.06c-1.37-3.47-5.39-7.08-9-6.88"/><path class="uuid-0f9d5605-abaf-429f-9eda-0762dec12f88" d="m178.86,469.3c-5.16-5.27-3.82-11.97-2.9-13.54"/><path class="uuid-0f9d5605-abaf-429f-9eda-0762dec12f88" d="m158.22,458.45c-.27-5.22.73-7.32,3.06-9.83"/><path class="uuid-0f9d5605-abaf-429f-9eda-0762dec12f88" d="m193.93,450.63c.14-2.07.48-4.16,1.32-6.06.85-1.95,2.36-3.88,4.31-4.85"/></g></svg>
<svg id="uuid-ffac6761-6b9e-4a13-ab42-3dfadf65c420" data-name="BODY" xmlns="http://www.w3.org/2000/svg" viewBox="0 0 600 600"><circle cx="369.54" cy="262.94" r="9.78" transform="translate(-8.58 12.49) rotate(-1.91)"/><circle cx="362.12" cy="293.18" r="9.78" transform="translate(-9.59 12.26) rotate(-1.91)"/><circle cx="337.63" cy="273.96" r="9.78" transform="translate(-8.96 11.43) rotate(-1.91)"/></svg>
<svg id="uuid-f404ceb8-7c39-4a18-b8b8-115c00c2bd91" data-name="BODY" xmlns="http://www.w3.org/2000/svg" viewBox="0 0 600 600"><defs><style>
      .uuid-f080fb2b-602f-4cf7-92ef-6037f33bace8 {
        fill: #ffff0d;
      }

      .uuid-f080fb2b-602f-4cf7-92ef-6037f33bace8, .uuid-67a4340c-4aab-4dd0-b330-b9e5e8d4b206, .uuid-fa7a50da-85f3-4b12-a5b7-369a35eddd61 {
        stroke: #000;
        stroke-linecap: round;
        stroke-linejoin: round;
        stroke-width: 2px;
      }

      .uuid-67a4340c-4aab-4dd0-b330-b9e5e8d4b206 {
        fill: none;
      }

      .uuid-fa7a50da-85f3-4b12-a5b7-369a35eddd61 {
        fill: #f9a723;
      }
    </style></defs><g id="uuid-cf137c39-0034-439d-adac-e4fa334b472a" data-name="uuid-0c0f6844-9252-4e38-b2ae-1fb7558b546c"><g id="uuid-985784ab-0fe5-462e-b6b7-3d43bf790f20" data-name="uuid-eba7662b-ff04-44ba-9d9b-c9fb86b595ea"><g id="uuid-93bf9e4f-3898-4943-9398-20954131d89e" data-name="uuid-e873324e-4a24-4e75-a94d-0c9fb771f1dc"><g><path class="uuid-fa7a50da-85f3-4b12-a5b7-369a35eddd61" d="m138.51,388.15c-3.22-11.04-6.43-23.51-23.05-29.14-16.62-5.63-31.09,3.22-34.98,18.89-3.89,15.68-4.02,41.1,8.04,58.14s23.18,16.95,32.3,14.58c9.11-2.37,17.02-17.96,17.02-17.96l10.05-24.34s-6.16-9.13-9.38-20.18h0Zm-16.62,1.28c-.67,7.24-10.01,18.89-10.84,26.67-.82,7.77,6.41,17.66,6.55,19.95.13,2.29-.4,3.67-.4,3.67,0,0-15.41.1-19.97-13.44-4.56-13.53,3.08-25.86,3.08-25.86,0,0-6.3-24.66-.13-32.3,14.61-1.74,22.38,14.07,21.71,21.31h0Z"/><path class="uuid-f080fb2b-602f-4cf7-92ef-6037f33bace8" d="m138.51,388.15c-3.22-11.04-6.43-23.51-23.05-29.14-10.38-3.52-19.92-1.38-26.57,4.53,6.66-4.23,20.81-4.13,30.46,5.12,9.65,9.25,13.13,18.36,9.92,31.76-3.22,13.4-8.09,14.34-7.33,22.25.76,7.91,4.65,13.13,3.98,17.69-.65,4.41-2.57,9.46-9.12,11.11,1.38-.2,2.73-.49,4.03-.83,9.11-2.37,17.02-17.96,17.02-17.96l10.05-24.34s-6.16-9.13-9.38-20.18h0Z"/><path class="uuid-f080fb2b-602f-4cf7-92ef-6037f33bace8" d="m117.21,439.72s-15.41.1-19.97-13.44c-4.56-13.53,3.08-25.86,3.08-25.86,0,0-6.3-24.66-.13-32.3h0c-7.5.54-15.14,9.25-9.11,34.71-5.76,13-2.28,29.55,8.44,36.89,10.72,7.33,17.29,3.67,17.69,0h0Z"/><path class="uuid-f080fb2b-602f-4cf7-92ef-6037f33bace8" d="m153.88,408.67s.21,4.54,0,5.65c-.21,1.11-3.94,5.04-5.56,8.37-1.61,3.33-1.61,8.17-1.82,9.48s-3.93,4.04-7.46,3.88c-3.53-.15-7.06-6.91-1.31-20.22,5.75-13.31,16.24-12.41,16.15-7.16h0Z"/><path class="uuid-f080fb2b-602f-4cf7-92ef-6037f33bace8" d="m158.93,419.29c1.9-2.02,0-6.54-2.94-7.1-1.77-.34-4.94-.5-9.28,8.17-4.34,8.67-2,13.38-1.01,14.62,1.61,2.02,6.83,1.11,7.68-2.32.55-2.2.93-3.83,2.37-7.82s3.18-5.56,3.18-5.56h0Z"/><path class="uuid-f080fb2b-602f-4cf7-92ef-6037f33bace8" d="m153.38,432.67s1.44-8.2,5.55-13.38l-4.15-2.26s-1.48.91-3.72,6.05c-2.24,5.14-2.24,7.36-2.24,7.36l4.55,2.22h0Z"/><path class="uuid-f080fb2b-602f-4cf7-92ef-6037f33bace8" d="m193.93,450.63c.19-6.04,3.41-9.84,5.62-10.91,0,0,12.42.33,17.34-.51,4.92-.84,6.77,5.2,1.86,15.31s-7.52,12.77-10.39,10.92c-3.32-2.14-2.49-6.17-14.43-14.81h0Z"/><path class="uuid-f080fb2b-602f-4cf7-92ef-6037f33bace8" d="m224.52,458.18c-5.38,11.37-14.69,6.69-9.41-4.53,5.28-11.22,15.26-7.82,9.41,4.53Z"/><g><path class="uuid-f080fb2b-602f-4cf7-92ef-6037f33bace8" d="m232.45,463.74v7.7s15.21,8.44,17.86,10.28c3.51,2.42,1.94,7.69,1.94,7.69l-10.66-5.27-6.59,2.46-1.38,16.04,23.22,12.96,5.25-3.08.74-7.42s7.33,2.53,8.07,5.83c.74,3.29-.74,10.94-.74,10.94l25.18,12.85,5.74-2.44,4.04-17.32s-13.39-5.95-14.98-7.65-1.59-6.48-1.59-6.48c0,0,2.12-.74,5.63,1.06s14.02,6.59,14.02,6.59l7.57-2.18.93-4.09-84.26-38.48h0Z"/><g><path class="uuid-fa7a50da-85f3-4b12-a5b7-369a35eddd61" d="m256.85,515.61l5.25-3.08.74-7.42c-4.16-1.56-4.99-1.23-5.99,10.5Z"/><polygon class="uuid-fa7a50da-85f3-4b12-a5b7-369a35eddd61" points="308.21 508.49 315.78 506.31 316.7 502.22 310.06 499.19 308.21 508.49"/><path class="uuid-fa7a50da-85f3-4b12-a5b7-369a35eddd61" d="m301.09,532.29l4.04-17.32s-13.39-5.95-14.98-7.65c-1.59-1.7-1.59-6.48-1.59-6.48-5.36.04-5.98,6.95-3.14,9.63,2.83,2.68,13.5,7.43,13.5,7.43l-3.56,16.83,5.74-2.44h0Z"/><path class="uuid-fa7a50da-85f3-4b12-a5b7-369a35eddd61" d="m252.25,489.41l-10.65-5.27-6.59,2.46s8.4,3.91,11.55,5.7c3.15,1.79,5.4-1.25,5.69-2.89h0Z"/></g></g><g><path class="uuid-f080fb2b-602f-4cf7-92ef-6037f33bace8" d="m218.25,460.55l106.4,49.92s4.24.66,6.38-3.76c2.14-4.42-.3-6.75-.3-6.75l-107.49-49.32s-4.94,2.52-4.99,9.92h0Z"/><path class="uuid-67a4340c-4aab-4dd0-b330-b9e5e8d4b206" d="m330.72,499.95c-3.94-1.81-9.58,8.59-6.08,10.52"/></g></g></g></g></g></svg>
<svg id="uuid-a434a263-1d52-419b-9f08-c2e050f7b089" data-name="BODY" xmlns="http://www.w3.org/2000/svg" viewBox="0 0 600 600"><defs><style>
      .uuid-3fe757a2-f884-4021-8b90-a2fb836a0d83 {
        fill: #7aa6ff;
      }

      .uuid-3fe757a2-f884-4021-8b90-a2fb836a0d83, .uuid-0535e5fd-e169-42bb-9b3a-04ea61531b11, .uuid-b5b40eee-3492-4a40-8cdf-74f0932ec0ba, .uuid-813fd1ba-5c6f-412d-b3d0-bab0da44157c {
        stroke: #000;
        stroke-linecap: round;
        stroke-linejoin: round;
        stroke-width: 2px;
      }

      .uuid-0535e5fd-e169-42bb-9b3a-04ea61531b11 {
        fill: #ffc9f1;
      }

      .uuid-b5b40eee-3492-4a40-8cdf-74f0932ec0ba {
        fill: none;
      }

      .uuid-813fd1ba-5c6f-412d-b3d0-bab0da44157c {
        fill: #f9a723;
      }
    </style></defs><g id="uuid-4d71603c-b588-4e7e-bdcb-85f6e7a816db" data-name="uuid-e739bccc-2d2c-4a63-b977-7b31664c2716"><g id="uuid-63e5130d-7ae7-4f0d-8331-573e75af8b15" data-name="uuid-af806a75-da6f-4a25-9368-44a11c35c8fd"><g><path class="uuid-3fe757a2-f884-4021-8b90-a2fb836a0d83" d="m494.29,225.3c-2.32-.72-4.21,6.13-13.6,5.3-9.38-.83-9.83-5.81-9.83-5.81,0,0-5.94-3.89-2.62-11.49-1.79-7.91,2.19-10.35,3.32-20.49.45-4.02-4.6-11.68-14.43-22.02s-36.38-40.72-39.7-44.94c.77-3.06,2.78-5.7,2.78-5.7l8.76,8.43-9.24-20.82s2.25-3.06,4.07-3.83c2.68,6.03,18.96,38.92,18.96,38.92l-9.94-38.92,5.94-2.65,2.23,7.34,3.89-1.15-.51-2.68,5.23-2.62-.57-6.13s4.4-3.13,6.83-3.83c-.19,3.26,1.72,14.36,1.72,14.36,0,0,1.34-14.68,1.85-17.62,2.04-.89,7.02-.32,7.02-.32l-1.34,6.77,6.51,1.66-.67-10.88,8.36-.32s1.44,31.05,5.01,44.71c-1.66-19.53-.51-49.28-.51-49.28l9.26,1.53s-.45,6.89-.32,13.28c2.3-.13,5.68-.57,5.68-.57,0,0,.89,9.83,1.28,13.91,1.79-9.7,4.09-16.28,4.09-16.28l7.02,2.62s3.26-8.36,6.89-12.32c2.43,1.91,5.23,4.15,5.23,4.15,0,0-3.19,5.81-4.53,9,2.36,1.02,5.43,2.87,5.43,2.87,0,0,1.28-2.65,2.78-4.12,1.85,1.05,4.15,3.19,4.15,3.19,0,0-5.33,11.39-8.78,23.55,8.04-17.14,17.14-25.66,17.14-25.66l4.6,4.31s-11.87,11.2-22.98,39.35c-11.11,28.15-13.24,43.12-13.63,46.44s8.68,7.79,7.66,17.62c6.45,6.7-.19,13.34-.19,13.34,0,0-2.68,13.28-20.3,7.79h0Z"/><g><path class="uuid-b5b40eee-3492-4a40-8cdf-74f0932ec0ba" d="m482.13,224.79c4.71-1.23,10.45-8.61,9.8-7.79-1.18,1.48,6,2.6,12.21,2.29"/><path class="uuid-b5b40eee-3492-4a40-8cdf-74f0932ec0ba" d="m477.18,211.73s4.95,6.82,15.21,5.21c8.12-1.27,10.2-9,10.2-9"/><path class="uuid-b5b40eee-3492-4a40-8cdf-74f0932ec0ba" d="m508.23,211.03s-9.22,7.59-15.6,7.24-4.79.13-4.79.13c0,0-5.33,2.44-10.27,1.43"/></g><path class="uuid-813fd1ba-5c6f-412d-b3d0-bab0da44157c" d="m485.92,216.91s2.23,6.29,2.49,12.99-.51,23.59,5.14,41.68c5.65,18.1,6,39.32,6,39.32,0,0,4.59,1.38,8.25,4.84,2.54-3.11,5.38-4.92,5.38-4.92,0,0,.25-16.84-4.6-25.52-4.85-8.68-8.23-33.54-8.14-47.43s-.29-17.01-2.49-22.72c-1.28.61-3.86,1.63-6.03,1.85-3.89.4-6-.1-6-.1h0Z"/><path class="uuid-813fd1ba-5c6f-412d-b3d0-bab0da44157c" d="m508.18,326.79s2.21,2.33,6.18,3.14c-5.99,8.88-1.02,12.88,2.29,14.51-6.85,3.78-9.87,14.07,3.82,18.76,3.11,10.72.18,14.84,4.65,27.8s7.15,12.83,8.55,22.34,3.26,18.83,3.64,21.19.96,9.77-8.55,9.77-10.79-4.66-11.3-7.21-.32-17.94-1.6-26.04c-1.28-8.11-4.18-11.04-6.94-25.47-2.76-14.43-1.74-19.28-3.4-27.38s-1.25-18.81-4.85-27.12c5.47-.35,7.52-4.29,7.52-4.29h0Z"/><path class="uuid-b5b40eee-3492-4a40-8cdf-74f0932ec0ba" d="m537.47,435.69c-.61-3.66-4.22-2.37-6.86-.77-6.94,4.21-13.43,2.37-11.31,6.28"/><path class="uuid-b5b40eee-3492-4a40-8cdf-74f0932ec0ba" d="m523.85,443.76c5.23.94,9.61-3.48,9.39-4.75s-6.34,1.51-6.34,1.51"/><path class="uuid-b5b40eee-3492-4a40-8cdf-74f0932ec0ba" d="m531.13,434.62s-2.88-21.15-3.78-25.42c-.89-4.28-6.7-18-6.7-18"/><path class="uuid-b5b40eee-3492-4a40-8cdf-74f0932ec0ba" d="m518.73,385.19c-2.87-10.4-3.06-23.58-3.06-23.58"/><path class="uuid-b5b40eee-3492-4a40-8cdf-74f0932ec0ba" d="m523.85,437.62c-.33-14.06-2.69-29.95-2.69-29.95"/><path class="uuid-b5b40eee-3492-4a40-8cdf-74f0932ec0ba" d="m519.5,400.96c-2.81-8.43-4.98-10.15-7.02-21.83-2.04-11.68-2.23-23.36-2.94-30.83-.7-7.47-2.67-19.17-2.67-19.17"/><path class="uuid-b5b40eee-3492-4a40-8cdf-74f0932ec0ba" d="m503.75,312.45c.33-14.07-4.11-34.08-4.11-34.08"/><path class="uuid-b5b40eee-3492-4a40-8cdf-74f0932ec0ba" d="m505.65,277.64c1.3,12.7,3.81,35.61,3.81,35.61"/><path class="uuid-b5b40eee-3492-4a40-8cdf-74f0932ec0ba" d="m498.15,271c-2.01-9.86-3.73-13.12-4.12-21.26-.35-7.43.56-20.8-2.41-32.72"/><g><path class="uuid-b5b40eee-3492-4a40-8cdf-74f0932ec0ba" d="m440.99,108.62c3.34,13.07,11.99,43.41,16.25,53.29"/><path class="uuid-b5b40eee-3492-4a40-8cdf-74f0932ec0ba" d="m428.97,128.58c4.73,11.1,9.01,19.81,12.02,24.4"/><path class="uuid-b5b40eee-3492-4a40-8cdf-74f0932ec0ba" d="m442.76,142.85c4.42,7.61,13.36,18.27,18.74,24.15,5.39,5.88,15.92,18.49,16.9,21.43.98,2.94-2.94,8.2-2.2,15.67"/><path class="uuid-b5b40eee-3492-4a40-8cdf-74f0932ec0ba" d="m482.93,200.18c-1.96-4.29-.24-15.06-.61-16.53s-19.49-42.63-24.74-77.07"/><path class="uuid-b5b40eee-3492-4a40-8cdf-74f0932ec0ba" d="m465.12,95.41c-2.1,8.11,2.94,28.41,9.31,50.93,6.37,22.52,11.5,38.08,11.5,38.08"/><path class="uuid-b5b40eee-3492-4a40-8cdf-74f0932ec0ba" d="m484.33,130.58c.91,18.43,5.52,49.55,7.29,53.84,1.77,4.3,3.4,2.67,4.44,11.71"/><path class="uuid-b5b40eee-3492-4a40-8cdf-74f0932ec0ba" d="m503.61,201.61c.44-9.78-5.78-15.41-6.52-19.56s-4.68-64.61-4.34-85.94"/><path class="uuid-b5b40eee-3492-4a40-8cdf-74f0932ec0ba" d="m499.71,109.45c-3.36,15.55-5.34,33.4-5.34,33.4"/><path class="uuid-b5b40eee-3492-4a40-8cdf-74f0932ec0ba" d="m510.82,95.79c-6.76,15.29-8.98,41.66-8.54,51.88s-2.57,34.97-2.57,34.97"/><path class="uuid-b5b40eee-3492-4a40-8cdf-74f0932ec0ba" d="m521.99,122.12c-13.19,30.3-19.71,60.52-19.71,60.52"/><path class="uuid-b5b40eee-3492-4a40-8cdf-74f0932ec0ba" d="m523.84,99.49c-9.56,16.47-14.45,41.29-14.45,41.29"/><path class="uuid-b5b40eee-3492-4a40-8cdf-74f0932ec0ba" d="m518.41,96.62c-10.8,24.68-8.44,56.1-12.06,70.04"/><path class="uuid-b5b40eee-3492-4a40-8cdf-74f0932ec0ba" d="m471.63,97.07c1.07,20.23,4.06,54.19,7.75,66.29"/><path class="uuid-b5b40eee-3492-4a40-8cdf-74f0932ec0ba" d="m449.61,102.17c3.9,28.91,18.97,72.4,25.67,81.36"/><path class="uuid-b5b40eee-3492-4a40-8cdf-74f0932ec0ba" d="m444.88,107.47c4.22,17.93,18.31,61.4,18.31,61.4"/><path class="uuid-b5b40eee-3492-4a40-8cdf-74f0932ec0ba" d="m514.58,217.51c-2.72,2.32-5.81,1.7-5.81,1.7"/><path class="uuid-b5b40eee-3492-4a40-8cdf-74f0932ec0ba" d="m470.86,224.79c3.39,2.38,8.02,1.15,8.02,1.15"/><path class="uuid-b5b40eee-3492-4a40-8cdf-74f0932ec0ba" d="m468.24,213.3c.83,3.06,4.92,5.1,4.92,5.1"/><path class="uuid-b5b40eee-3492-4a40-8cdf-74f0932ec0ba" d="m514.78,204.17c-.72,1.71-2.33,3.46-2.33,3.46"/></g><path class="uuid-0535e5fd-e169-42bb-9b3a-04ea61531b11" d="m470.71,197.7s-3.87.25-4.06-4.68c-.19-4.93,2.75-10.33,21.6-12.32,18.86-1.99,23.81,2.18,24.26,5.31.44,3.13-1.69,6.44-1.69,6.44,0,0-3.14-3.27-3.61-5.05-22.88-2.09-32.37,2.81-35.64,5.41,0,0-.25,2.65-.86,4.89h0Z"/></g></g></g></svg>
</svg>