<?xml version="1.0" encoding="UTF-8"?>
<svg xmlns="http://www.w3.org/2000/svg" viewBox="0 0 600 600">
<svg id="uuid-c55b6f18-22d9-42e7-94a5-9418063ab399" data-name="BACKGROUND" xmlns="http://www.w3.org/2000/svg" viewBox="0 0 600 600"><defs><style>
      .uuid-65b83bcd-5755-41b5-8f46-23c20c164524 {
        fill: #9dff0c;
      }
    </style></defs><rect class="uuid-65b83bcd-5755-41b5-8f46-23c20c164524" x="-1" y="-1" width="602" height="602"/></svg>
<svg id="uuid-09dbe01b-fc39-4c48-9143-1b11829ee622" data-name="BODY" xmlns="http://www.w3.org/2000/svg" viewBox="0 0 600 600"><defs><style>
      .uuid-0e068f93-a4ce-4525-bc73-042279753465, .uuid-896c9f2e-4bdd-438c-b20a-d49b9a988943, .uuid-f61e2b2e-680e-4412-a25d-9c4f1d374aaa, .uuid-9d2bc652-0f8d-4f45-83f6-147ae07b83ac, .uuid-a8310226-7f3d-4492-965e-668c558de2ee {
        stroke: #000;
        stroke-width: 2px;
      }

      .uuid-0e068f93-a4ce-4525-bc73-042279753465, .uuid-896c9f2e-4bdd-438c-b20a-d49b9a988943, .uuid-9d2bc652-0f8d-4f45-83f6-147ae07b83ac, .uuid-a8310226-7f3d-4492-965e-668c558de2ee {
        fill: #7aa6ff;
      }

      .uuid-0e068f93-a4ce-4525-bc73-042279753465, .uuid-f61e2b2e-680e-4412-a25d-9c4f1d374aaa, .uuid-9d2bc652-0f8d-4f45-83f6-147ae07b83ac {
        stroke-linecap: round;
      }

      .uuid-0e068f93-a4ce-4525-bc73-042279753465, .uuid-f61e2b2e-680e-4412-a25d-9c4f1d374aaa, .uuid-a8310226-7f3d-4492-965e-668c558de2ee {
        stroke-linejoin: round;
      }

      .uuid-4e485c41-11e0-491a-aac2-66b77ba2e3f7 {
        fill: #fff;
      }

      .uuid-896c9f2e-4bdd-438c-b20a-d49b9a988943, .uuid-9d2bc652-0f8d-4f45-83f6-147ae07b83ac {
        stroke-miterlimit: 10;
      }

      .uuid-f61e2b2e-680e-4412-a25d-9c4f1d374aaa {
        fill: none;
      }
    </style></defs><ellipse cx="300" cy="518.65" rx="138.6" ry="22.93"/><g><path class="uuid-896c9f2e-4bdd-438c-b20a-d49b9a988943" d="m319.36,427.14c-1.16,1.05-54.95,57-54.95,57,0,0,21.51-1.95,31.74,10.62,10.23,12.57,7.26,23.89,7.26,23.89h-66.9s-28.69-36.17-28.69-36.17c0,0,3.74-13.4,20.44-10.59,20.9-19.38,55.52-59.13,55.52-59.13l35.59,14.38Z"/><path d="m283.78,412.76l31.28,12.64-3.24,9.5c-2.93,3.03-9.76,10.12-13.64,14.14-11.92,0-27.98-2.13-41.33-6.37,13.95-15.1,26.93-29.92,26.93-29.92Z"/></g><g><path class="uuid-0e068f93-a4ce-4525-bc73-042279753465" d="m409.81,359.6c9.2,3.77,29.89,12.05,42.79,16.03,2.11.65,4.41.69,6.5-.04,11.79-4.08,28.47-11.39,33.03-11.32,5.25.08,7.8,3.93,19.88,2.04,13.36-2.1,22.43-11.99,20.93-23.3-4.21-43.28-25.18-26.79-25.18-26.79,0,0-5.84-8.75-18.76-4.82-11.83,3.6-10.2,14.44-6.47,22.47l-25.29,8.58c-2.14.72-4.45.71-6.59-.02l-35.7-12.61"/><path class="uuid-9d2bc652-0f8d-4f45-83f6-147ae07b83ac" d="m533.36,312.82c2.5,3.94,1.62,9.14-1.57,12.4-2.47,2.53-5.88,3.88-9.32,4.4-2.8.43-5.7.42-8.49-.08-2.14-.39-4.29-1.1-5.79-2.75-1.66-1.83-2.27-4.46-1.98-6.87.51-4.17,3.84-7.14,7.22-9.26,3.17-1.98,6.86-3.26,10.64-3.09,3.8.18,7.36,2.19,9.3,5.24Z"/><path class="uuid-9d2bc652-0f8d-4f45-83f6-147ae07b83ac" d="m538.57,349.84c.97,3.03.32,6.43-1.5,9.01-3.77,5.33-11.17,5.65-16.96,4.27-3.31-.79-6.69-2.21-8.67-5.13-3.13-4.61-.82-9.79,3.48-12.56,2.58-1.66,5.61-2.67,8.63-3.14,5.73-.89,13.1,1.51,15.03,7.56Z"/><path class="uuid-9d2bc652-0f8d-4f45-83f6-147ae07b83ac" d="m538.71,328.53c1.8,2.99,2.06,6.89.22,9.9-1.95,3.2-4.94,5.25-8.49,6.28-3.66,1.07-7.64,1.27-11.4.44-2.25-.5-4.53-1.38-5.96-3.28-1.86-2.47-1.89-5.68-.85-8.49,1.2-3.24,4.17-5.69,7.09-7.37,6.15-3.56,15.21-4.43,19.39,2.52Z"/><path class="uuid-9d2bc652-0f8d-4f45-83f6-147ae07b83ac" d="m501.85,311.68s9.27,3.84,7.77,12.02c-1.04,5.68-8.17,9.55-14.94,6.13"/><path class="uuid-f61e2b2e-680e-4412-a25d-9c4f1d374aaa" d="m500.67,331.08c2.41,1.63,5.11,8.04,3.4,14.42"/><path d="m443.44,339.88c-2.88,10.58-6.94,20.23-11.17,28.59-10.17-3.78-21.16-9.53-27-11.93l11.83-26.02,26.35,9.36Z"/></g><g><circle class="uuid-896c9f2e-4bdd-438c-b20a-d49b9a988943" cx="300" cy="300" r="138.16"/><path class="uuid-4e485c41-11e0-491a-aac2-66b77ba2e3f7" d="m184.58,308.17c-4.41,0-7.98-3.57-7.98-7.98,0-67.74,55.11-122.86,122.86-122.86,4.41,0,7.98,3.57,7.98,7.98s-3.57,7.98-7.98,7.98c-58.94,0-106.9,47.95-106.9,106.9,0,4.41-3.57,7.98-7.98,7.98Z"/></g><path class="uuid-f61e2b2e-680e-4412-a25d-9c4f1d374aaa" d="m264.41,484.14c-4.06.49-11.49,1.36-17.85,7.23"/><path class="uuid-4e485c41-11e0-491a-aac2-66b77ba2e3f7" d="m185.17,308.14c-4.41,0-7.98-3.57-7.98-7.98,0-67.74,55.11-122.86,122.86-122.86,4.41,0,7.98,3.57,7.98,7.98s-3.57,7.98-7.98,7.98c-58.94,0-106.9,47.95-106.9,106.9,0,4.41-3.57,7.98-7.98,7.98Z"/><path d="m203.75,397.46l34.2-27.46-24.86,36.3c-6.73-5.1-3.66-2.61-9.34-8.83Z"/><path class="uuid-a8310226-7f3d-4492-965e-668c558de2ee" d="m323.72,387.31c19.14-13.4,39.15-11.3,55.52,7.36,19.6,22.35,30.57,33.06,30.57,33.06,0,0,10.74-19.34,34.77-17.5,18.26,1.4,24.84,14.43,24.84,14.43,0,0,6.21,8.82-22.45,33.5-28.66,24.68-54.93,40.92-61.14,29.46-6.21-11.46-2.82-32.1-2.82-32.1,0,0-22.02-26.09-27.94-32.01-6.79-6.79-15.71-1.36-15.71-1.36"/><path class="uuid-896c9f2e-4bdd-438c-b20a-d49b9a988943" d="m446.97,458.17c-25.89,22.29-49.82,37.69-58.79,32.02-9.77-7.44,26.84-38.54,44.88-52.7,18.04-14.16,32.17-17.82,36.36-12.81,0,0,6.21,8.82-22.45,33.5Z"/><path class="uuid-f61e2b2e-680e-4412-a25d-9c4f1d374aaa" d="m409.81,427.74c-1.89,2.86-4.55,10.38-4.55,10.38"/><g><path class="uuid-0e068f93-a4ce-4525-bc73-042279753465" d="m214.11,345.7c-8.05,5.83-25.34,20.79-35.52,29.67-1.67,1.45-2.82,3.41-3.39,5.55-3.14,11.67-8.55,33.44-8.55,33.44,0,0-8.42.58-12.19,14.35-3.64,13.3-6.64,25.06,3.77,29.75.35,7.47,7.51,15.45,19.2,9.41.14-.06,1.32,1.32,1.44,1.45,2.64,2.7,6.36,4.45,10.13,4.81,3.65.36,7.61-.67,10.43-3.08,3.29-2.81,5.4-6.94,6.05-11.2.4-2.61.26-5.31-.75-7.78,0,0,6.2-2.51,8.05-11.34,1.99-9.49-4.22-19.42-14.62-18.18l6.17-23.11c.51-2.2,1.74-4.16,3.49-5.59l29.38-24.3"/><path class="uuid-f61e2b2e-680e-4412-a25d-9c4f1d374aaa" d="m204.73,452.06c-1.37-3.47-5.39-7.08-9-6.88"/><path class="uuid-f61e2b2e-680e-4412-a25d-9c4f1d374aaa" d="m178.86,469.3c-5.16-5.27-3.82-11.97-2.9-13.54"/><path class="uuid-f61e2b2e-680e-4412-a25d-9c4f1d374aaa" d="m158.22,458.45c-.27-5.22.73-7.32,3.06-9.83"/><path class="uuid-f61e2b2e-680e-4412-a25d-9c4f1d374aaa" d="m193.93,450.63c.14-2.07.48-4.16,1.32-6.06.85-1.95,2.36-3.88,4.31-4.85"/></g></svg>
<svg id="uuid-d5dd65a7-b2b1-4e4f-8af0-4691195114d0" data-name="BODY" xmlns="http://www.w3.org/2000/svg" viewBox="0 0 600 600"><circle cx="369.54" cy="262.94" r="9.78" transform="translate(-8.58 12.49) rotate(-1.91)"/><path d="m352.87,296.37c1.76,5.11,7.33,7.82,12.44,6.06,5.11-1.76,7.82-7.33,6.06-12.44"/><circle cx="337.63" cy="273.96" r="9.78" transform="translate(-8.96 11.43) rotate(-1.91)"/></svg>
<svg id="uuid-b9482b2c-4739-4122-81da-4de338103694" data-name="BODY" xmlns="http://www.w3.org/2000/svg" viewBox="0 0 600 600"><defs><style>
      .uuid-191029f6-3576-4ed7-97ef-969e58bf69e1 {
        fill: #ffff0d;
        stroke: #000;
        stroke-linecap: round;
        stroke-linejoin: round;
        stroke-width: 2px;
      }
    </style></defs><path class="uuid-191029f6-3576-4ed7-97ef-969e58bf69e1" d="m209.08,417.82c0-3.45-2.8-6.25-6.25-6.25-.62,0-1.21.12-1.78.29l-2.74,10.26c.13.14.27.26.42.38,2.44-.2,4.65.19,6.55,1.07,2.23-.95,3.8-3.17,3.8-5.75Z"/><path class="uuid-191029f6-3576-4ed7-97ef-969e58bf69e1" d="m160.14,417.77c3.29-3.25,6.4-3.47,6.4-3.47,0,0,.51-2.04,1.3-5.21-1.04-2.02-3.12-3.41-5.54-3.41-3.45,0-6.25,2.8-6.25,6.25,0,2.69,1.71,4.96,4.09,5.84Z"/><circle class="uuid-191029f6-3576-4ed7-97ef-969e58bf69e1" cx="169.36" cy="403.62" r="7.06"/><circle class="uuid-191029f6-3576-4ed7-97ef-969e58bf69e1" cx="184.37" cy="402.37" r="7.06"/><circle class="uuid-191029f6-3576-4ed7-97ef-969e58bf69e1" cx="198.12" cy="409.87" r="7.06"/></svg>
<svg id="uuid-2f504206-111c-4779-9236-233d24245c5e" data-name="BODY" xmlns="http://www.w3.org/2000/svg" xmlns:xlink="http://www.w3.org/1999/xlink" viewBox="0 0 600 600"><defs><style>
      .uuid-d3edaed5-c7c6-4c4d-aa40-9a4dd8648ee7, .uuid-68d6c310-ce9e-402f-977e-09a9487d1f3f, .uuid-c55da662-6359-43da-9ece-79f419a77998 {
        fill: none;
      }

      .uuid-a378b470-e58b-414a-9aaa-c42cc7401d46, .uuid-ec8004b7-0527-439b-bc6e-4b5df54d70f5, .uuid-a970ff5c-387f-4ed2-bc98-796834b27354 {
        fill: #7aa6ff;
      }

      .uuid-a378b470-e58b-414a-9aaa-c42cc7401d46, .uuid-ec8004b7-0527-439b-bc6e-4b5df54d70f5, .uuid-68d6c310-ce9e-402f-977e-09a9487d1f3f, .uuid-5f18a3b5-25e8-4b4a-92b0-9c895b96bdd6 {
        stroke: #000;
        stroke-linecap: round;
        stroke-linejoin: round;
      }

      .uuid-a378b470-e58b-414a-9aaa-c42cc7401d46, .uuid-68d6c310-ce9e-402f-977e-09a9487d1f3f, .uuid-5f18a3b5-25e8-4b4a-92b0-9c895b96bdd6 {
        stroke-width: 2px;
      }

      .uuid-ec8004b7-0527-439b-bc6e-4b5df54d70f5 {
        stroke-width: 2px;
      }

      .uuid-5f18a3b5-25e8-4b4a-92b0-9c895b96bdd6 {
        fill: #f9a723;
      }

      .uuid-c55da662-6359-43da-9ece-79f419a77998 {
        clip-path: url(#uuid-eca54416-6e61-412d-a418-e0bcf3f00aa5);
      }
    </style><clipPath id="uuid-eca54416-6e61-412d-a418-e0bcf3f00aa5"><path class="uuid-d3edaed5-c7c6-4c4d-aa40-9a4dd8648ee7" d="m500.24,288.07s3.15-12.64,14.55-12.39c0,0,6.81-3.05,4.79-13.7s-9.48-7.62-9.48-7.62l-3.26,2.83s-4.99-3.71-11.8-4.25c-6.81-.54-29.6,19.74-28.65,47.05l2.58,4.27h5.71s1.04-3.08,1.49-4.63c.71,1.5,2.45,4.63,2.45,4.63h5.46s.25-16.04,10.62-13.7c3.59.81,5.54-2.49,5.54-2.49h0Z"/></clipPath></defs><g id="uuid-867e74de-e6be-4fed-8810-6aee283b78c1" data-name="uuid-7815cad7-8e3a-44d2-a5d3-2b4a6315d68d"><g><g><g><path class="uuid-a970ff5c-387f-4ed2-bc98-796834b27354" d="m500.24,288.07s3.15-12.64,14.55-12.39c0,0,6.81-3.05,4.79-13.7s-9.48-7.62-9.48-7.62l-3.26,2.83s-4.99-3.71-11.8-4.25c-6.81-.54-29.6,19.74-28.65,47.05l2.58,4.27h5.71s1.04-3.08,1.49-4.63c.71,1.5,2.45,4.63,2.45,4.63h5.46s.25-16.04,10.62-13.7c3.59.81,5.54-2.49,5.54-2.49h0Z"/><g class="uuid-c55da662-6359-43da-9ece-79f419a77998"><g><path class="uuid-68d6c310-ce9e-402f-977e-09a9487d1f3f" d="m468.96,304.27c3.56-19.63,12.25-29.34,22.7-23.21"/><path class="uuid-68d6c310-ce9e-402f-977e-09a9487d1f3f" d="m495.04,252.95c.78,9.4,3.57,11.29,11.8,4.25"/><path class="uuid-68d6c310-ce9e-402f-977e-09a9487d1f3f" d="m513.81,261.46s-11.73,5.35-20.22,9.49"/><path class="uuid-68d6c310-ce9e-402f-977e-09a9487d1f3f" d="m476.17,299.64c1.03-4.04,4.15-3.86,3.36-.09-.26,1.25-.58,3.01-.91,4.73"/></g></g><path class="uuid-68d6c310-ce9e-402f-977e-09a9487d1f3f" d="m500.24,288.07s3.15-12.64,14.55-12.39c0,0,6.81-3.05,4.79-13.7s-9.48-7.62-9.48-7.62l-3.26,2.83s-4.99-3.71-11.8-4.25c-6.81-.54-29.6,19.74-28.65,47.05l2.58,4.27h5.71s1.04-3.08,1.49-4.63c.71,1.5,2.45,4.63,2.45,4.63h5.46s.25-16.04,10.62-13.7c3.59.81,5.54-2.49,5.54-2.49h0Z"/></g><g><path class="uuid-a378b470-e58b-414a-9aaa-c42cc7401d46" d="m523.26,261.51c2.07,7.74,7.98,12.89,3.75,14.02-.15.04-7.96,2.12-8.12,2.15-4.13.64-8.94-4.61-10.93-12.07-2.03-7.6-.39-14.68,3.67-16,.07-.02,7.8-2.09,7.87-2.11,4.22-1.13,1.68,6.28,3.75,14.02Z"/><ellipse class="uuid-ec8004b7-0527-439b-bc6e-4b5df54d70f5" cx="523.26" cy="261.51" rx="10.33" ry="14.51" transform="translate(-49.81 144.13) rotate(-14.98)"/><line class="uuid-68d6c310-ce9e-402f-977e-09a9487d1f3f" x1="522.82" y1="253.67" x2="518.96" y2="264.52"/><line class="uuid-68d6c310-ce9e-402f-977e-09a9487d1f3f" x1="525.49" y1="265.86" x2="524.1" y2="269.78"/><line class="uuid-68d6c310-ce9e-402f-977e-09a9487d1f3f" x1="527.96" y1="258.93" x2="527.23" y2="260.97"/></g></g><g><path class="uuid-a378b470-e58b-414a-9aaa-c42cc7401d46" d="m521.42,363.39c-.44-.08-.88-.17-1.31-.27-3.31-.79-6.69-2.21-8.67-5.13-3.13-4.61-.82-9.79,3.48-12.56.56-.36,1.14-.68,1.74-.98-1.39-.55-2.66-1.35-3.57-2.56-1.86-2.47-1.89-5.68-.85-8.49.51-1.39,1.37-2.62,2.39-3.72v-.04c-.22-.03-.44-.05-.65-.09-2.1-.38-4.21-1.08-5.7-2.67-2.17,3.15-6.46,5-10.98,3.92l5.35,47.25,20.98-3.74-2.2-10.91h0Z"/><path class="uuid-5f18a3b5-25e8-4b4a-92b0-9c895b96bdd6" d="m507.62,316.05c.9-1.44,2.13-2.7,3.5-3.77l-6.51-32.3s-1.48-4.85-6.4-4.25c-4.92.61-6.54,5.33-6.54,5.33l3.32,29.35c2.06-.09,4.27.05,6.86,1.27,0,0,3.42,1.42,5.77,4.37h0Z"/></g><line class="uuid-68d6c310-ce9e-402f-977e-09a9487d1f3f" x1="501.22" y1="292.85" x2="502.88" y2="303.21"/><line class="uuid-68d6c310-ce9e-402f-977e-09a9487d1f3f" x1="499.45" y1="281.87" x2="500.24" y2="286.79"/><path class="uuid-a378b470-e58b-414a-9aaa-c42cc7401d46" d="m502.64,378.04c.99,8.71,22.7,4.78,20.98-3.74-1.51-7.49-21.81-3.52-20.98,3.74Z"/><path class="uuid-68d6c310-ce9e-402f-977e-09a9487d1f3f" d="m514.37,360.81c-4.9.25-10.44,1.84-13.21,4.18"/><path class="uuid-68d6c310-ce9e-402f-977e-09a9487d1f3f" d="m510.84,349.77c-4.19.5-8.51,1.88-10.97,3.8"/><path class="uuid-68d6c310-ce9e-402f-977e-09a9487d1f3f" d="m511.64,338.39c-4.76.21-10.15,1.71-13.05,3.94"/></g></g></svg>
<svg id="uuid-ebe0cd20-7f47-4ca6-8fd5-66deb411f990" data-name="BODY" xmlns="http://www.w3.org/2000/svg" viewBox="0 0 600 600"><defs><style>
      .uuid-0b662e94-ed23-4475-8094-9a3d63466319 {
        fill: #fffdfd;
      }

      .uuid-a440a8a9-a80d-49bd-8690-6feb9e180396 {
        fill: #ff78d8;
      }
    </style></defs><rect class="uuid-a440a8a9-a80d-49bd-8690-6feb9e180396" x="264.41" y="292.9" width="9.74" height="9.74" transform="translate(-86.91 112.55) rotate(-20.4)"/><rect class="uuid-a440a8a9-a80d-49bd-8690-6feb9e180396" x="261.02" y="283.77" width="9.74" height="9.74" transform="translate(-83.94 110.79) rotate(-20.4)"/><rect class="uuid-a440a8a9-a80d-49bd-8690-6feb9e180396" x="257.62" y="274.64" width="9.74" height="9.74" transform="translate(-80.97 109.03) rotate(-20.4)"/><rect class="uuid-a440a8a9-a80d-49bd-8690-6feb9e180396" x="266.75" y="271.25" width="9.74" height="9.74" transform="translate(-79.21 112) rotate(-20.4)"/><rect class="uuid-a440a8a9-a80d-49bd-8690-6feb9e180396" x="275.88" y="267.85" width="9.74" height="9.74" transform="translate(-77.46 114.97) rotate(-20.4)"/><rect class="uuid-a440a8a9-a80d-49bd-8690-6feb9e180396" x="330.66" y="247.48" width="9.74" height="9.74" transform="translate(-66.92 132.79) rotate(-20.4)"/><rect class="uuid-a440a8a9-a80d-49bd-8690-6feb9e180396" x="339.79" y="244.08" width="9.74" height="9.74" transform="translate(-65.16 135.76) rotate(-20.4)"/><rect class="uuid-a440a8a9-a80d-49bd-8690-6feb9e180396" x="327.27" y="238.35" width="9.74" height="9.74" transform="translate(-63.95 131.04) rotate(-20.4)"/><rect class="uuid-a440a8a9-a80d-49bd-8690-6feb9e180396" x="287.35" y="242.8" width="9.74" height="9.74" transform="translate(-68.01 117.4) rotate(-20.4)"/><rect class="uuid-a440a8a9-a80d-49bd-8690-6feb9e180396" x="351.26" y="219.03" width="9.74" height="9.74" transform="translate(-55.71 138.19) rotate(-20.4)"/><rect class="uuid-a440a8a9-a80d-49bd-8690-6feb9e180396" x="304.33" y="288.44" width="9.74" height="9.74" transform="translate(-82.85 126.18) rotate(-20.4)"/><rect class="uuid-a440a8a9-a80d-49bd-8690-6feb9e180396" x="368.24" y="264.67" width="9.74" height="9.74" transform="translate(-70.56 146.97) rotate(-20.4)"/><rect class="uuid-a440a8a9-a80d-49bd-8690-6feb9e180396" x="296.48" y="239.41" width="9.74" height="9.74" transform="translate(-66.25 120.37) rotate(-20.4)"/><rect class="uuid-a440a8a9-a80d-49bd-8690-6feb9e180396" x="360.39" y="215.64" width="9.74" height="9.74" transform="translate(-53.96 141.16) rotate(-20.4)"/><rect class="uuid-a440a8a9-a80d-49bd-8690-6feb9e180396" x="313.46" y="285.05" width="9.74" height="9.74" transform="translate(-81.09 129.15) rotate(-20.4)"/><rect class="uuid-a440a8a9-a80d-49bd-8690-6feb9e180396" x="377.37" y="261.28" width="9.74" height="9.74" transform="translate(-68.8 149.94) rotate(-20.4)"/><rect class="uuid-a440a8a9-a80d-49bd-8690-6feb9e180396" x="305.61" y="236.01" width="9.74" height="9.74" transform="translate(-64.49 123.34) rotate(-20.4)"/><rect class="uuid-a440a8a9-a80d-49bd-8690-6feb9e180396" x="369.52" y="212.24" width="9.74" height="9.74" transform="translate(-52.2 144.13) rotate(-20.4)"/><rect class="uuid-a440a8a9-a80d-49bd-8690-6feb9e180396" x="322.59" y="281.65" width="9.74" height="9.74" transform="translate(-79.34 132.12) rotate(-20.4)"/><rect class="uuid-a440a8a9-a80d-49bd-8690-6feb9e180396" x="386.5" y="257.88" width="9.74" height="9.74" transform="translate(-67.04 152.91) rotate(-20.4)"/><rect class="uuid-a440a8a9-a80d-49bd-8690-6feb9e180396" x="314.74" y="232.62" width="9.74" height="9.74" transform="translate(-62.74 126.31) rotate(-20.4)"/><rect class="uuid-a440a8a9-a80d-49bd-8690-6feb9e180396" x="378.65" y="208.85" width="9.74" height="9.74" transform="translate(-50.44 147.1) rotate(-20.4)"/><rect class="uuid-a440a8a9-a80d-49bd-8690-6feb9e180396" x="331.72" y="278.25" width="9.74" height="9.74" transform="translate(-77.58 135.09) rotate(-20.4)"/><rect class="uuid-a440a8a9-a80d-49bd-8690-6feb9e180396" x="395.63" y="254.48" width="9.74" height="9.74" transform="translate(-65.29 155.88) rotate(-20.4)"/><rect class="uuid-a440a8a9-a80d-49bd-8690-6feb9e180396" x="323.87" y="229.22" width="9.74" height="9.74" transform="translate(-60.98 129.28) rotate(-20.4)"/><rect class="uuid-a440a8a9-a80d-49bd-8690-6feb9e180396" x="334.06" y="256.6" width="9.74" height="9.74" transform="translate(-69.89 134.55) rotate(-20.4)"/><rect class="uuid-a440a8a9-a80d-49bd-8690-6feb9e180396" x="337.45" y="265.73" width="9.74" height="9.74" transform="translate(-72.86 136.3) rotate(-20.4)"/><rect class="uuid-a440a8a9-a80d-49bd-8690-6feb9e180396" x="285.01" y="264.45" width="9.74" height="9.74" transform="translate(-75.7 117.94) rotate(-20.4)"/><rect class="uuid-a440a8a9-a80d-49bd-8690-6feb9e180396" x="281.62" y="255.33" width="9.74" height="9.74" transform="translate(-72.73 116.19) rotate(-20.4)"/><rect class="uuid-a440a8a9-a80d-49bd-8690-6feb9e180396" x="278.22" y="246.2" width="9.74" height="9.74" transform="translate(-69.76 114.43) rotate(-20.4)"/><rect class="uuid-a440a8a9-a80d-49bd-8690-6feb9e180396" x="288.41" y="273.58" width="9.74" height="9.74" transform="translate(-78.67 119.7) rotate(-20.4)"/><rect class="uuid-a440a8a9-a80d-49bd-8690-6feb9e180396" x="291.8" y="282.71" width="9.74" height="9.74" transform="translate(-81.64 121.46) rotate(-20.4)"/><rect class="uuid-a440a8a9-a80d-49bd-8690-6feb9e180396" x="295.2" y="291.84" width="9.74" height="9.74" transform="translate(-84.61 123.21) rotate(-20.4)"/><rect class="uuid-a440a8a9-a80d-49bd-8690-6feb9e180396" x="348.92" y="240.68" width="9.74" height="9.74" transform="translate(-63.41 138.73) rotate(-20.4)"/><rect class="uuid-a440a8a9-a80d-49bd-8690-6feb9e180396" x="345.53" y="231.56" width="9.74" height="9.74" transform="translate(-60.44 136.98) rotate(-20.4)"/><rect class="uuid-a440a8a9-a80d-49bd-8690-6feb9e180396" x="342.13" y="222.43" width="9.74" height="9.74" transform="translate(-57.47 135.22) rotate(-20.4)"/><rect class="uuid-a440a8a9-a80d-49bd-8690-6feb9e180396" x="352.32" y="249.81" width="9.74" height="9.74" transform="translate(-66.38 140.49) rotate(-20.4)"/><rect class="uuid-a440a8a9-a80d-49bd-8690-6feb9e180396" x="355.71" y="258.94" width="9.74" height="9.74" transform="translate(-69.34 142.24) rotate(-20.4)"/><rect class="uuid-a440a8a9-a80d-49bd-8690-6feb9e180396" x="359.11" y="268.07" width="9.74" height="9.74" transform="translate(-72.31 144) rotate(-20.4)"/><rect class="uuid-a440a8a9-a80d-49bd-8690-6feb9e180396" x="394.57" y="223.71" width="9.74" height="9.74" transform="translate(-54.62 153.58) rotate(-20.4)"/><rect class="uuid-a440a8a9-a80d-49bd-8690-6feb9e180396" x="391.18" y="214.58" width="9.74" height="9.74" transform="translate(-51.66 151.82) rotate(-20.4)"/><rect class="uuid-a440a8a9-a80d-49bd-8690-6feb9e180396" x="387.78" y="205.45" width="9.74" height="9.74" transform="translate(-48.69 150.07) rotate(-20.4)"/><rect class="uuid-a440a8a9-a80d-49bd-8690-6feb9e180396" x="397.97" y="232.83" width="9.74" height="9.74" transform="translate(-57.59 155.34) rotate(-20.4)"/><rect class="uuid-a440a8a9-a80d-49bd-8690-6feb9e180396" x="401.36" y="241.96" width="9.74" height="9.74" transform="translate(-60.56 157.09) rotate(-20.4)"/><rect class="uuid-a440a8a9-a80d-49bd-8690-6feb9e180396" x="404.76" y="251.09" width="9.74" height="9.74" transform="translate(-63.53 158.85) rotate(-20.4)"/><rect class="uuid-a440a8a9-a80d-49bd-8690-6feb9e180396" x="340.85" y="274.86" width="9.74" height="9.74" transform="translate(-75.83 138.06) rotate(-20.4)"/><rect class="uuid-0b662e94-ed23-4475-8094-9a3d63466319" x="295.53" y="249.32" width="19.48" height="38.95" transform="translate(-74.55 123.28) rotate(-20.4)"/><rect class="uuid-0b662e94-ed23-4475-8094-9a3d63466319" x="359.44" y="225.55" width="19.48" height="38.95" transform="translate(-62.26 144.06) rotate(-20.4)"/><rect x="313.79" y="242.53" width="19.48" height="38.95" transform="translate(-71.04 129.22) rotate(-20.4)"/><rect x="377.7" y="218.76" width="19.48" height="38.95" transform="translate(-58.74 150) rotate(-20.4)"/></svg>
</svg>