<?xml version="1.0" encoding="UTF-8"?>
<svg xmlns="http://www.w3.org/2000/svg" viewBox="0 0 600 600">
<svg id="uuid-c55b6f18-22d9-42e7-94a5-9418063ab399" data-name="BACKGROUND" xmlns="http://www.w3.org/2000/svg" viewBox="0 0 600 600"><defs><style>
      .uuid-65b83bcd-5755-41b5-8f46-23c20c164524 {
        fill: #9dff0c;
      }
    </style></defs><rect class="uuid-65b83bcd-5755-41b5-8f46-23c20c164524" x="-1" y="-1" width="602" height="602"/></svg>
<svg id="uuid-4b9ac9a2-518f-484a-8405-8c4c95b5d820" data-name="BODY" xmlns="http://www.w3.org/2000/svg" viewBox="0 0 600 600"><defs><style>
      .uuid-3f9ec564-8708-4e75-9244-a1a973efafea {
        fill: #fff;
      }

      .uuid-f4a0fca1-efe7-48bf-8a76-ffe42a36dabc, .uuid-f74b9348-d91e-454e-bf3d-c745fef9ac7d {
        stroke-miterlimit: 10;
      }

      .uuid-f4a0fca1-efe7-48bf-8a76-ffe42a36dabc, .uuid-f74b9348-d91e-454e-bf3d-c745fef9ac7d, .uuid-e88451e4-f64f-4221-9af8-5fb1c0132909, .uuid-c46f19fa-5207-4ebd-8a30-4d23cbcc2fc1, .uuid-0fbafe0f-c1a7-4154-b2d4-f3b317584526 {
        stroke: #000;
        stroke-width: 2px;
      }

      .uuid-f4a0fca1-efe7-48bf-8a76-ffe42a36dabc, .uuid-f74b9348-d91e-454e-bf3d-c745fef9ac7d, .uuid-e88451e4-f64f-4221-9af8-5fb1c0132909, .uuid-0fbafe0f-c1a7-4154-b2d4-f3b317584526 {
        fill: #ffff0d;
      }

      .uuid-f74b9348-d91e-454e-bf3d-c745fef9ac7d, .uuid-e88451e4-f64f-4221-9af8-5fb1c0132909, .uuid-c46f19fa-5207-4ebd-8a30-4d23cbcc2fc1 {
        stroke-linecap: round;
      }

      .uuid-e88451e4-f64f-4221-9af8-5fb1c0132909, .uuid-c46f19fa-5207-4ebd-8a30-4d23cbcc2fc1, .uuid-0fbafe0f-c1a7-4154-b2d4-f3b317584526 {
        stroke-linejoin: round;
      }

      .uuid-c46f19fa-5207-4ebd-8a30-4d23cbcc2fc1 {
        fill: none;
      }
    </style></defs><ellipse cx="300" cy="518.65" rx="138.6" ry="22.93"/><g><path class="uuid-f4a0fca1-efe7-48bf-8a76-ffe42a36dabc" d="m319.36,427.14c-1.16,1.05-54.95,57-54.95,57,0,0,21.51-1.95,31.74,10.62,10.23,12.57,7.26,23.89,7.26,23.89h-66.9s-28.69-36.17-28.69-36.17c0,0,3.74-13.4,20.44-10.59,20.9-19.38,55.52-59.13,55.52-59.13l35.59,14.38Z"/><path d="m283.78,412.76l31.28,12.64-3.24,9.5c-2.93,3.03-9.76,10.12-13.64,14.14-11.92,0-27.98-2.13-41.33-6.37,13.95-15.1,26.93-29.92,26.93-29.92Z"/></g><g><path class="uuid-e88451e4-f64f-4221-9af8-5fb1c0132909" d="m409.81,359.6c9.2,3.77,29.89,12.05,42.79,16.03,2.11.65,4.41.69,6.5-.04,11.79-4.08,28.47-11.39,33.03-11.32,5.25.08,7.8,3.93,19.88,2.04,13.36-2.1,22.43-11.99,20.93-23.3-4.21-43.28-25.18-26.79-25.18-26.79,0,0-5.84-8.75-18.76-4.82-11.83,3.6-10.2,14.44-6.47,22.47l-25.29,8.58c-2.14.72-4.45.71-6.59-.02l-35.7-12.61"/><path class="uuid-f74b9348-d91e-454e-bf3d-c745fef9ac7d" d="m533.36,312.82c2.5,3.94,1.62,9.14-1.57,12.4-2.47,2.53-5.88,3.88-9.32,4.4-2.8.43-5.7.42-8.49-.08-2.14-.39-4.29-1.1-5.79-2.75-1.66-1.83-2.27-4.46-1.98-6.87.51-4.17,3.84-7.14,7.22-9.26,3.17-1.98,6.86-3.26,10.64-3.09,3.8.18,7.36,2.19,9.3,5.24Z"/><path class="uuid-f74b9348-d91e-454e-bf3d-c745fef9ac7d" d="m538.57,349.84c.97,3.03.32,6.43-1.5,9.01-3.77,5.33-11.17,5.65-16.96,4.27-3.31-.79-6.69-2.21-8.67-5.13-3.13-4.61-.82-9.79,3.48-12.56,2.58-1.66,5.61-2.67,8.63-3.14,5.73-.89,13.1,1.51,15.03,7.56Z"/><path class="uuid-f74b9348-d91e-454e-bf3d-c745fef9ac7d" d="m538.71,328.53c1.8,2.99,2.06,6.89.22,9.9-1.95,3.2-4.94,5.25-8.49,6.28-3.66,1.07-7.64,1.27-11.4.44-2.25-.5-4.53-1.38-5.96-3.28-1.86-2.47-1.89-5.68-.85-8.49,1.2-3.24,4.17-5.69,7.09-7.37,6.15-3.56,15.21-4.43,19.39,2.52Z"/><path class="uuid-f74b9348-d91e-454e-bf3d-c745fef9ac7d" d="m501.85,311.68s9.27,3.84,7.77,12.02c-1.04,5.68-8.17,9.55-14.94,6.13"/><path class="uuid-c46f19fa-5207-4ebd-8a30-4d23cbcc2fc1" d="m500.67,331.08c2.41,1.63,5.11,8.04,3.4,14.42"/><path d="m443.44,339.88c-2.88,10.58-6.94,20.23-11.17,28.59-10.17-3.78-21.16-9.53-27-11.93l11.83-26.02,26.35,9.36Z"/></g><g><circle class="uuid-f4a0fca1-efe7-48bf-8a76-ffe42a36dabc" cx="300" cy="300" r="138.16"/><path class="uuid-3f9ec564-8708-4e75-9244-a1a973efafea" d="m184.58,308.17c-4.41,0-7.98-3.57-7.98-7.98,0-67.74,55.11-122.86,122.86-122.86,4.41,0,7.98,3.57,7.98,7.98s-3.57,7.98-7.98,7.98c-58.94,0-106.9,47.95-106.9,106.9,0,4.41-3.57,7.98-7.98,7.98Z"/></g><path class="uuid-c46f19fa-5207-4ebd-8a30-4d23cbcc2fc1" d="m264.41,484.14c-4.06.49-11.49,1.36-17.85,7.23"/><path class="uuid-3f9ec564-8708-4e75-9244-a1a973efafea" d="m185.17,308.14c-4.41,0-7.98-3.57-7.98-7.98,0-67.74,55.11-122.86,122.86-122.86,4.41,0,7.98,3.57,7.98,7.98s-3.57,7.98-7.98,7.98c-58.94,0-106.9,47.95-106.9,106.9,0,4.41-3.57,7.98-7.98,7.98Z"/><path d="m203.75,397.46l34.2-27.46-24.86,36.3c-6.73-5.1-3.66-2.61-9.34-8.83Z"/><path class="uuid-0fbafe0f-c1a7-4154-b2d4-f3b317584526" d="m323.72,387.31c19.14-13.4,39.15-11.3,55.52,7.36,19.6,22.35,30.57,33.06,30.57,33.06,0,0,10.74-19.34,34.77-17.5,18.26,1.4,24.84,14.43,24.84,14.43,0,0,6.21,8.82-22.45,33.5-28.66,24.68-54.93,40.92-61.14,29.46-6.21-11.46-2.82-32.1-2.82-32.1,0,0-22.02-26.09-27.94-32.01-6.79-6.79-15.71-1.36-15.71-1.36"/><path class="uuid-f4a0fca1-efe7-48bf-8a76-ffe42a36dabc" d="m446.97,458.17c-25.89,22.29-49.82,37.69-58.79,32.02-9.77-7.44,26.84-38.54,44.88-52.7,18.04-14.16,32.17-17.82,36.36-12.81,0,0,6.21,8.82-22.45,33.5Z"/><path class="uuid-c46f19fa-5207-4ebd-8a30-4d23cbcc2fc1" d="m409.81,427.74c-1.89,2.86-4.55,10.38-4.55,10.38"/><g><path class="uuid-e88451e4-f64f-4221-9af8-5fb1c0132909" d="m214.11,345.7c-8.05,5.83-25.34,20.79-35.52,29.67-1.67,1.45-2.82,3.41-3.39,5.55-3.14,11.67-8.55,33.44-8.55,33.44,0,0-8.42.58-12.19,14.35-3.64,13.3-6.64,25.06,3.77,29.75.35,7.47,7.51,15.45,19.2,9.41.14-.06,1.32,1.32,1.44,1.45,2.64,2.7,6.36,4.45,10.13,4.81,3.65.36,7.61-.67,10.43-3.08,3.29-2.81,5.4-6.94,6.05-11.2.4-2.61.26-5.31-.75-7.78,0,0,6.2-2.51,8.05-11.34,1.99-9.49-4.22-19.42-14.62-18.18l6.17-23.11c.51-2.2,1.74-4.16,3.49-5.59l29.38-24.3"/><path class="uuid-c46f19fa-5207-4ebd-8a30-4d23cbcc2fc1" d="m204.73,452.06c-1.37-3.47-5.39-7.08-9-6.88"/><path class="uuid-c46f19fa-5207-4ebd-8a30-4d23cbcc2fc1" d="m178.86,469.3c-5.16-5.27-3.82-11.97-2.9-13.54"/><path class="uuid-c46f19fa-5207-4ebd-8a30-4d23cbcc2fc1" d="m158.22,458.45c-.27-5.22.73-7.32,3.06-9.83"/><path class="uuid-c46f19fa-5207-4ebd-8a30-4d23cbcc2fc1" d="m193.93,450.63c.14-2.07.48-4.16,1.32-6.06.85-1.95,2.36-3.88,4.31-4.85"/></g></svg>
<svg id="uuid-d68fbb24-c0f3-4dee-920e-134d781fb2e1" data-name="BODY" xmlns="http://www.w3.org/2000/svg" viewBox="0 0 600 600"><path d="m378.79,259.75c-1.76-5.11-7.33-7.82-12.44-6.06s-7.82,7.33-6.06,12.44"/><circle cx="362.12" cy="293.18" r="9.78" transform="translate(-9.59 12.26) rotate(-1.91)"/><path d="m346.88,270.76c-1.76-5.11-7.33-7.82-12.44-6.06-5.11,1.76-7.82,7.33-6.06,12.44"/></svg>
<svg id="uuid-1ec43f51-5c60-4c96-ad17-e29ecce1c662" data-name="BODY" xmlns="http://www.w3.org/2000/svg" viewBox="0 0 600 600"><defs><style>
      .uuid-5d4f3a03-ccd8-4e63-ab0d-8ba17c873bbf {
        fill: #fff;
        stroke: #000;
        stroke-miterlimit: 10;
        stroke-width: 2px;
      }
    </style></defs><path class="uuid-5d4f3a03-ccd8-4e63-ab0d-8ba17c873bbf" d="m234.82,145.43c-9.89-21.59-45.38-26.51-79.27-10.99-33.89,15.52-53.35,45.61-43.46,67.2,9.99,21.81,39.44,22.36,59.43,17.73,4.99-1.16,10.09-2.59,14.83-4.51,5.26-2.14,11.16-6.03,16.85-3.03,2.88,1.52,17.21,8.41,19.06,3.74.88-2.24-2.6-4.93-3.79-6.4-2.06-2.55-3.15-5.62-2.69-8.93.52-3.73,3.23-6.58,5.75-9.17,3.01-3.1,5.82-6.19,8.14-9.86,6.51-10.31,10.47-24.16,5.15-35.78Z"/><g><path d="m165.15,177.76c.47.48,1.01,1.07,1.62,1.63.98,1.01,2.3,2.57,3.53,4.54,6.57,10.49,4.7,18.41-.83,21.88-6.45,4.04-15.44,1.98-26.01-14.89-10.57-16.87-8.5-25.85-2.05-29.89,5.53-3.46,13.52-1.63,18.9,6.95.88,1.41,1.45,2.59,1.77,3.51.15.51.29,1.01.5,1.48l-8.29,5.19-1.15-1.84c-5.07-8.1-6.43-8.36-7.23-7.86-1.17.73-1.41,2.25,7.39,16.3l.19.31,11.67-7.31Zm-7.83,13.44c5.07,7.41,6.43,7.93,7.41,7.32.8-.5,1.16-1.84-3.72-9.63l-3.69,2.31Z"/><path d="m156.23,153.02l9.52-5.96,15.6,16.71.61-.38-8.23-21.32,9.52-5.96,26.91,42.94-9.83,6.16-15.53-32.98-.92.58,7.39,22.71-3.07,1.92-17.21-16.55-.92.58,22.91,28.36-9.83,6.16-26.91-42.94Z"/></g></svg>
</svg>