<?xml version="1.0" encoding="UTF-8"?>
<svg xmlns="http://www.w3.org/2000/svg" viewBox="0 0 600 600">
<svg id="uuid-2ebc4e2e-813a-485c-9454-52c68b62da26" data-name="BACKGROUND" xmlns="http://www.w3.org/2000/svg" viewBox="0 0 600 600"><defs><style>
      .uuid-eb841eac-0e7b-47b1-8e78-e5724f1a9b43 {
        fill: #ffff0d;
      }
    </style></defs><rect class="uuid-eb841eac-0e7b-47b1-8e78-e5724f1a9b43" x="-1" y="-1" width="602" height="602"/></svg>
<svg id="uuid-f8681a4c-d0c2-449f-a9f1-2fd52d806420" data-name="BACKGROUND" xmlns="http://www.w3.org/2000/svg" viewBox="0 0 600 600"><defs><style>
      .uuid-1bc07910-d725-49b1-b81c-861f915adcc6, .uuid-9ddfa16e-bace-432f-aa3a-51d3b17f239e {
        fill: #fff;
      }

      .uuid-65b75369-b923-44e2-b78c-6bddbc28b17a {
        fill: #ffc9f1;
      }

      .uuid-65b75369-b923-44e2-b78c-6bddbc28b17a, .uuid-9ddfa16e-bace-432f-aa3a-51d3b17f239e, .uuid-8c0c8b42-d7d4-48a2-b526-de07e5764de5, .uuid-08c45eb5-1cdc-49ac-97c9-ea41763b4f2b, .uuid-2a58a464-3e43-4399-8a88-0a87e134b211, .uuid-9580be1f-d770-452a-9f53-26f311741d51, .uuid-17d7239d-cf3c-4a45-b307-7dc59d66faa7 {
        stroke: #000;
        stroke-width: 2px;
      }

      .uuid-65b75369-b923-44e2-b78c-6bddbc28b17a, .uuid-9ddfa16e-bace-432f-aa3a-51d3b17f239e, .uuid-8c0c8b42-d7d4-48a2-b526-de07e5764de5, .uuid-9580be1f-d770-452a-9f53-26f311741d51 {
        stroke-miterlimit: 10;
      }

      .uuid-65b75369-b923-44e2-b78c-6bddbc28b17a, .uuid-9ddfa16e-bace-432f-aa3a-51d3b17f239e, .uuid-08c45eb5-1cdc-49ac-97c9-ea41763b4f2b, .uuid-2a58a464-3e43-4399-8a88-0a87e134b211, .uuid-9580be1f-d770-452a-9f53-26f311741d51 {
        stroke-linecap: round;
      }

      .uuid-8c0c8b42-d7d4-48a2-b526-de07e5764de5, .uuid-08c45eb5-1cdc-49ac-97c9-ea41763b4f2b, .uuid-9580be1f-d770-452a-9f53-26f311741d51, .uuid-17d7239d-cf3c-4a45-b307-7dc59d66faa7 {
        fill: #9dff0c;
      }

      .uuid-08c45eb5-1cdc-49ac-97c9-ea41763b4f2b, .uuid-2a58a464-3e43-4399-8a88-0a87e134b211, .uuid-17d7239d-cf3c-4a45-b307-7dc59d66faa7 {
        stroke-linejoin: round;
      }

      .uuid-2a58a464-3e43-4399-8a88-0a87e134b211 {
        fill: none;
      }
    </style></defs><path class="uuid-08c45eb5-1cdc-49ac-97c9-ea41763b4f2b" d="m409.81,359.6c9.2,3.77,29.89,12.05,42.79,16.03,2.11.65,4.41.69,6.5-.04,11.79-4.08,28.47-11.39,33.03-11.32,5.25.08,7.8,3.93,19.88,2.04,13.36-2.1,22.43-11.99,20.93-23.3-4.21-43.28-25.18-26.79-25.18-26.79,0,0-5.84-8.75-18.76-4.82-11.83,3.6-10.2,14.44-6.47,22.47l-25.29,8.58c-2.14.72-4.45.71-6.59-.02l-35.7-12.61"/><path class="uuid-9580be1f-d770-452a-9f53-26f311741d51" d="m533.36,312.82c2.5,3.94,1.62,9.14-1.57,12.4-2.47,2.53-5.88,3.88-9.32,4.4-2.8.43-5.7.42-8.49-.08-2.14-.39-4.29-1.1-5.79-2.75-1.66-1.83-2.27-4.46-1.98-6.87.51-4.17,3.84-7.14,7.22-9.26,3.17-1.98,6.86-3.26,10.64-3.09,3.8.18,7.36,2.19,9.3,5.24Z"/><path class="uuid-9580be1f-d770-452a-9f53-26f311741d51" d="m538.57,349.84c.97,3.03.32,6.43-1.5,9.01-3.77,5.33-11.17,5.65-16.96,4.27-3.31-.79-6.69-2.21-8.67-5.13-3.13-4.61-.82-9.79,3.48-12.56,2.58-1.66,5.61-2.67,8.63-3.14,5.73-.89,13.1,1.51,15.03,7.56Z"/><path class="uuid-9580be1f-d770-452a-9f53-26f311741d51" d="m538.71,328.53c1.8,2.99,2.06,6.89.22,9.9-1.95,3.2-4.94,5.25-8.49,6.28-3.66,1.07-7.64,1.27-11.4.44-2.25-.5-4.53-1.38-5.96-3.28-1.86-2.47-1.89-5.68-.85-8.49,1.2-3.24,4.17-5.69,7.09-7.37,6.15-3.56,15.21-4.43,19.39,2.52Z"/><path class="uuid-9580be1f-d770-452a-9f53-26f311741d51" d="m501.85,311.68s9.27,3.84,7.77,12.02c-1.04,5.68-8.17,9.55-14.94,6.13"/><path class="uuid-2a58a464-3e43-4399-8a88-0a87e134b211" d="m500.67,331.08c2.41,1.63,5.11,8.04,3.4,14.42"/><path d="m443.44,339.88c-2.88,10.58-6.94,20.23-11.17,28.59-10.17-3.78-21.16-9.53-27-11.93l11.83-26.02,26.35,9.36Z"/><ellipse cx="300" cy="518.65" rx="138.6" ry="22.93"/><path class="uuid-8c0c8b42-d7d4-48a2-b526-de07e5764de5" d="m319.36,427.14c-1.16,1.05-54.95,57-54.95,57,0,0,21.51-1.95,31.74,10.62,10.23,12.57,7.26,23.89,7.26,23.89h-66.9s-28.69-36.17-28.69-36.17c0,0,3.74-13.4,20.44-10.59,20.9-19.38,55.52-59.13,55.52-59.13l35.59,14.38Z"/><path d="m283.78,412.76l31.28,12.64-3.24,9.5c-2.93,3.03-9.76,10.12-13.64,14.14-11.92,0-27.98-2.13-41.33-6.37,13.95-15.1,26.93-29.92,26.93-29.92Z"/><path class="uuid-8c0c8b42-d7d4-48a2-b526-de07e5764de5" d="m354.45,173.54l-.11.27-174.2,58.29c-11.49,20.13-18.05,43.43-18.05,68.27,0,76.2,61.77,137.98,137.97,137.98s137.98-61.77,137.98-137.98c0-56.89-34.43-105.72-83.58-126.83Z"/><path class="uuid-2a58a464-3e43-4399-8a88-0a87e134b211" d="m264.41,484.14c-4.06.49-11.49,1.36-17.85,7.23"/><path class="uuid-1bc07910-d725-49b1-b81c-861f915adcc6" d="m185.17,308.14c-4.41,0-7.98-3.57-7.98-7.98,0-67.74,55.11-122.86,122.86-122.86,4.41,0,7.98,3.57,7.98,7.98s-3.57,7.98-7.98,7.98c-58.94,0-106.9,47.95-106.9,106.9,0,4.41-3.57,7.98-7.98,7.98Z"/><path d="m203.75,397.46l34.2-27.46-24.86,36.3c-6.73-5.1-3.66-2.61-9.34-8.83Z"/><path class="uuid-17d7239d-cf3c-4a45-b307-7dc59d66faa7" d="m323.72,387.31c19.14-13.4,39.15-11.3,55.52,7.36,19.6,22.35,30.57,33.06,30.57,33.06,0,0,10.74-19.34,34.77-17.5,18.26,1.4,24.84,14.43,24.84,14.43,0,0,6.21,8.82-22.45,33.5-28.66,24.68-54.93,40.92-61.14,29.46-6.21-11.46-2.82-32.1-2.82-32.1,0,0-22.02-26.09-27.94-32.01-6.79-6.79-15.71-1.36-15.71-1.36"/><path class="uuid-8c0c8b42-d7d4-48a2-b526-de07e5764de5" d="m446.97,458.17c-25.89,22.29-49.82,37.69-58.79,32.02-9.77-7.44,26.84-38.54,44.88-52.7,18.04-14.16,32.17-17.82,36.36-12.81,0,0,6.21,8.82-22.45,33.5Z"/><path class="uuid-2a58a464-3e43-4399-8a88-0a87e134b211" d="m409.81,427.74c-1.89,2.86-4.55,10.38-4.55,10.38"/><ellipse class="uuid-9ddfa16e-bace-432f-aa3a-51d3b17f239e" cx="269.41" cy="209.07" rx="94.9" ry="26.25" transform="translate(-52.5 96.54) rotate(-18.55)"/><ellipse class="uuid-65b75369-b923-44e2-b78c-6bddbc28b17a" cx="269.41" cy="209.07" rx="71.19" ry="13.32" transform="translate(-52.5 96.54) rotate(-18.55)"/><g><path class="uuid-08c45eb5-1cdc-49ac-97c9-ea41763b4f2b" d="m214.11,345.7c-8.05,5.83-25.34,20.79-35.52,29.67-1.67,1.45-2.82,3.41-3.39,5.55-3.14,11.67-8.55,33.44-8.55,33.44,0,0-8.42.58-12.19,14.35-3.64,13.3-6.64,25.06,3.77,29.75.35,7.47,7.51,15.45,19.2,9.41.14-.06,1.32,1.32,1.44,1.45,2.64,2.7,6.36,4.45,10.13,4.81,3.65.36,7.61-.67,10.43-3.08,3.29-2.81,5.4-6.94,6.05-11.2.4-2.61.26-5.31-.75-7.78,0,0,6.2-2.51,8.05-11.34,1.99-9.49-4.22-19.42-14.62-18.18l6.17-23.11c.51-2.2,1.74-4.16,3.49-5.59l29.38-24.3"/><path class="uuid-2a58a464-3e43-4399-8a88-0a87e134b211" d="m204.73,452.06c-1.37-3.47-5.39-7.08-9-6.88"/><path class="uuid-2a58a464-3e43-4399-8a88-0a87e134b211" d="m178.86,469.3c-5.16-5.27-3.82-11.97-2.9-13.54"/><path class="uuid-2a58a464-3e43-4399-8a88-0a87e134b211" d="m158.22,458.45c-.27-5.22.73-7.32,3.06-9.83"/><path class="uuid-2a58a464-3e43-4399-8a88-0a87e134b211" d="m193.93,450.63c.14-2.07.48-4.16,1.32-6.06.85-1.95,2.36-3.88,4.31-4.85"/></g></svg>
<svg id="uuid-853b1779-0b40-4336-9fd3-56860412922a" data-name="BODY" xmlns="http://www.w3.org/2000/svg" viewBox="0 0 600 600"><defs><style>
      .uuid-270fe1d8-6ffc-45cd-908c-63708945a6da {
        fill: none;
        stroke: #000;
        stroke-linecap: round;
        stroke-miterlimit: 10;
        stroke-width: 4px;
      }
    </style></defs><path class="uuid-270fe1d8-6ffc-45cd-908c-63708945a6da" d="m378.79,259.75c-1.76-5.11-7.33-7.82-12.44-6.06s-7.82,7.33-6.06,12.44"/><circle cx="362.12" cy="293.18" r="9.78" transform="translate(-9.59 12.26) rotate(-1.91)"/><path class="uuid-270fe1d8-6ffc-45cd-908c-63708945a6da" d="m346.88,270.76c-1.76-5.11-7.33-7.82-12.44-6.06-5.11,1.76-7.82,7.33-6.06,12.44"/></svg>
<svg id="uuid-9d1e8aa9-c04a-46e9-b3c3-01823dd59a59" data-name="BACKGROUND" xmlns="http://www.w3.org/2000/svg" viewBox="0 0 600 600"><defs><style>
      .uuid-b5c36b33-7bcc-4de6-9bcc-b09b8a2016f6, .uuid-660c04b4-fa82-4422-b1ba-a2c1dd7e0159 {
        fill: #7aa6ff;
      }

      .uuid-b5c36b33-7bcc-4de6-9bcc-b09b8a2016f6, .uuid-41032fe0-d2fe-461a-b8c6-491b03ab54be, .uuid-8460c441-7e92-40ce-bb73-f11f0dcaf042, .uuid-8971ef88-c9ee-424d-b142-c3a328f2a790, .uuid-9210ebd9-abde-4e8b-b154-3bb591c63759 {
        stroke: #000;
        stroke-linejoin: round;
      }

      .uuid-b5c36b33-7bcc-4de6-9bcc-b09b8a2016f6, .uuid-8460c441-7e92-40ce-bb73-f11f0dcaf042, .uuid-8971ef88-c9ee-424d-b142-c3a328f2a790, .uuid-9210ebd9-abde-4e8b-b154-3bb591c63759 {
        stroke-linecap: round;
        stroke-width: 2px;
      }

      .uuid-f649728e-69c6-4a97-a0f0-388adbfc0e12, .uuid-8460c441-7e92-40ce-bb73-f11f0dcaf042 {
        fill: #fff7f0;
      }

      .uuid-41032fe0-d2fe-461a-b8c6-491b03ab54be {
        stroke-width: 3px;
      }

      .uuid-41032fe0-d2fe-461a-b8c6-491b03ab54be, .uuid-8971ef88-c9ee-424d-b142-c3a328f2a790 {
        fill: none;
      }

      .uuid-9210ebd9-abde-4e8b-b154-3bb591c63759 {
        fill: #f9a723;
      }
    </style></defs><g id="uuid-3ff62dab-83dd-4bd0-b5a2-51453336e98e" data-name="uuid-09b8933c-635f-4dcd-977d-7eb4fc105aa8"><g><g><path class="uuid-b5c36b33-7bcc-4de6-9bcc-b09b8a2016f6" d="m241.22,454.8l-13.89,13.85s-12.85-2.78-19.77,7.48l29.07,36.91h68.51s.65-17.01-14.04-25.82c-8.29-5.06-18.57-5.38-18.57-5.38l2.79-3.09c.96-1.06.66-2.75-.62-3.4-2.53-1.29-6.47-3.3-9.42-4.8-1.34-.68-2.97-.41-4.02.67l-1.42,1.47s-6.22-3.03-10.77-8.09c-4.55-5.06-5.44-7.92-5.44-7.92l2.43-2.53-2.37-.23c-.91-.09-1.81.23-2.46.88h0Z"/><path class="uuid-8971ef88-c9ee-424d-b142-c3a328f2a790" d="m244.42,489.63c5.92-5.31,14.38-9.03,28.11-7.79"/><path class="uuid-8460c441-7e92-40ce-bb73-f11f0dcaf042" d="m305.14,513.04s.61-16.03-12.79-25.02c-19.07,2.22-21.4,18.25-21.65,25.02h34.44Z"/><path class="uuid-8971ef88-c9ee-424d-b142-c3a328f2a790" d="m259.84,472.69c-3.71,4.36-10.76,13.48-10.76,13.48"/><g><circle cx="241.51" cy="504.3" r="2.39"/><circle cx="252.8" cy="504.3" r="2.39"/></g><g><path class="uuid-8460c441-7e92-40ce-bb73-f11f0dcaf042" d="m261.71,478.55s-3.86-1.4-6.22-2.86c-3.94-2.43-6.53,2.16-3.35,4.35,2.2,1.51,5.38,2.69,5.38,2.69l4.19-4.18Z"/><path class="uuid-8460c441-7e92-40ce-bb73-f11f0dcaf042" d="m272.79,481.86s-1.22-4.06-6.78-4.06c-7.86,0-12.12,6.94-13.58,9.53-1.46,2.58,2.88,4.92,4.88,1.92,4.3-6.42,6.78-7.15,8.16-7.61,3.05-.17,7.32.21,7.32.21h0Z"/><path class="uuid-8460c441-7e92-40ce-bb73-f11f0dcaf042" d="m286.4,484.77s-.85-4.3-6.5-4.83c-7.98-.74-12.97,6.03-14.7,8.56-1.73,2.53,2.45,5.35,4.77,2.44,4.98-6.23,9.01-7.6,10.46-7.94,1.97.42,5.97,1.76,5.97,1.76h0Z"/></g><g><circle class="uuid-f649728e-69c6-4a97-a0f0-388adbfc0e12" cx="240.43" cy="473.54" r="9.19"/><path class="uuid-660c04b4-fa82-4422-b1ba-a2c1dd7e0159" d="m244.02,470.6l-.63,2.28c-.07.26-.01.54.16.74l1.52,1.81c.44.52.09,1.32-.59,1.35l-2.36.11c-.27.01-.52.16-.66.39l-1.25,2.01c-.36.58-1.22.49-1.46-.14l-.83-2.22c-.1-.25-.31-.44-.57-.51l-2.3-.57c-.66-.16-.84-1.01-.31-1.44l1.85-1.48c.21-.17.33-.43.31-.7l-.17-2.36c-.05-.68.7-1.12,1.27-.74l1.98,1.3c.23.15.51.18.76.08l2.19-.89c.63-.26,1.28.32,1.1.98h0Z"/></g><path class="uuid-8460c441-7e92-40ce-bb73-f11f0dcaf042" d="m236.72,508.58l-27.63-35.34c-.99-1.27-2.89-1.3-3.93-.08l-4.54,5.35c-1.19,1.4-1.23,3.44-.1,4.88l29.22,37.38c1.22,1.56,3.1,2.48,5.08,2.48h71.09c1.33,0,2.41-1.08,2.41-2.41v-8.19c0-1.33-1.08-2.41-2.41-2.41h-65.78c-1.34,0-2.6-.62-3.42-1.67h0Z"/><line class="uuid-8971ef88-c9ee-424d-b142-c3a328f2a790" x1="256.96" y1="510.14" x2="256.96" y2="523.15"/><g><line class="uuid-8971ef88-c9ee-424d-b142-c3a328f2a790" x1="261.81" y1="519.72" x2="267.96" y2="513.57"/><line class="uuid-8971ef88-c9ee-424d-b142-c3a328f2a790" x1="270.81" y1="519.72" x2="276.96" y2="513.57"/><line class="uuid-8971ef88-c9ee-424d-b142-c3a328f2a790" x1="279.82" y1="519.72" x2="285.97" y2="513.57"/><line class="uuid-8971ef88-c9ee-424d-b142-c3a328f2a790" x1="297.82" y1="519.72" x2="303.97" y2="513.57"/><line class="uuid-8971ef88-c9ee-424d-b142-c3a328f2a790" x1="288.82" y1="519.72" x2="294.97" y2="513.57"/></g><path class="uuid-41032fe0-d2fe-461a-b8c6-491b03ab54be" d="m256.96,516.65h-21.1c-.79,0-1.53-.37-2.01-.99l-30.83-39.95"/></g><g><path class="uuid-b5c36b33-7bcc-4de6-9bcc-b09b8a2016f6" d="m368.09,442.51l11.81,13.89s-3.17,17.71,2.54,31.11c0,0,5.33-16.06,31.48-39.12,26.16-23.06,53.73-30.88,53.73-30.88,0,0-10.6-11.39-29.3-10.31-18.7,1.08-28.7,15.35-28.7,15.35l-12.42-13.22c-.8-.85-1.95-1.29-3.1-1.14-2.22.27-6.08,1.2-10.09,4.24-.66.5-.78,1.46-.26,2.11l1.05,1.3s-16.35,11.66-16.75,26.68h0Z"/><path class="uuid-8460c441-7e92-40ce-bb73-f11f0dcaf042" d="m409.66,422.54s-3.89,5.28-6.92,15.26"/><line class="uuid-8971ef88-c9ee-424d-b142-c3a328f2a790" x1="384.84" y1="415.83" x2="403.68" y2="434.93"/><path class="uuid-8460c441-7e92-40ce-bb73-f11f0dcaf042" d="m435.19,432.7c17.96-11.07,32.48-15.19,32.48-15.19,0,0-10.6-11.39-29.3-10.31-12.71,7.85-5.52,21.67-3.18,25.5h0Z"/><path class="uuid-8460c441-7e92-40ce-bb73-f11f0dcaf042" d="m469.32,415.42c-.66-.63-1.59-.86-2.47-.62-5.87,1.59-29.25,8.95-53.86,30.76-23.28,20.64-30.4,35.59-32.22,40.34-.37.98-.27,2.06.31,2.94,1.37,2.1,4.19,6.25,6.89,9.08,4.73,4.98,26.38-2.07,55.09-27.69,28.72-25.62,37.69-40.52,34.25-45.67-2.52-3.77-6.2-7.44-7.99-9.14h0Z"/><path class="uuid-9210ebd9-abde-4e8b-b154-3bb591c63759" d="m477.9,426.07h0c-.62-4.79-20.55-1.28-53.98,25.69-33.41,26.94-37.41,45.67-34.1,47.26,7.15,2.33,27.31-5.65,53.25-28.79,24.07-21.47,34.26-35.41,34.9-42.4,0-.73,0-1.33-.07-1.76h0Z"/><g><g><path class="uuid-9210ebd9-abde-4e8b-b154-3bb591c63759" d="m447.29,460.39c14.43-13.2,21.63-21.14,22.08-26,0-.59,0-1.08-.05-1.42-.5-3.87-14.68,2.19-41.67,23.96-1.47,1.18-2.86,2.33-4.2,3.46h23.84,0Z"/><path class="uuid-9210ebd9-abde-4e8b-b154-3bb591c63759" d="m411.51,471.18c-12.88,12.71-15.31,19.71-13.29,20.67,5.33,1.74,18.47-4.91,36.96-20.67h-23.67,0Z"/></g><line class="uuid-8971ef88-c9ee-424d-b142-c3a328f2a790" x1="398.24" y1="488.01" x2="411.89" y2="488.01"/><polyline class="uuid-8971ef88-c9ee-424d-b142-c3a328f2a790" points="411.51 471.18 418.84 483.75 400.63 483.75 435.18 471.18"/><line class="uuid-8971ef88-c9ee-424d-b142-c3a328f2a790" x1="429.11" y1="455.76" x2="452.29" y2="455.76"/><polygon class="uuid-8971ef88-c9ee-424d-b142-c3a328f2a790" points="451.17 439.65 467.13 439.65 435.18 451 457.21 451 451.17 439.65"/><line class="uuid-8971ef88-c9ee-424d-b142-c3a328f2a790" x1="459.15" y1="434.95" x2="469.28" y2="434.95"/></g><line class="uuid-8971ef88-c9ee-424d-b142-c3a328f2a790" x1="422.8" y1="437.53" x2="430.61" y2="446.53"/><g><path class="uuid-8460c441-7e92-40ce-bb73-f11f0dcaf042" d="m408.54,421.02c-3.73,3.19-6.72,6.78-9.07,9.63-2.35,2.86-6.8.03-3.59-3.64,3.21-3.67,7.19-7.82,9.39-9.15,2.2-1.33,5.76,1.03,3.27,3.15h0Z"/><path class="uuid-8460c441-7e92-40ce-bb73-f11f0dcaf042" d="m402.17,415.16c-4.39,2.18-8.18,4.92-11.16,7.11-2.98,2.19-6.6-1.64-2.59-4.41,4.01-2.77,8.88-5.81,11.35-6.56,2.46-.75,5.33,2.41,2.4,3.86h0Z"/><path class="uuid-8460c441-7e92-40ce-bb73-f11f0dcaf042" d="m418.62,414.25s-3.47-2.43-7.84,1.01c-6.17,4.87-5.22,12.96-4.76,15.89s5.3,2.08,5.02-1.51c-.6-7.7.9-9.81,1.7-11.03,2.29-2.02,5.88-4.36,5.88-4.36h0Z"/><path class="uuid-8460c441-7e92-40ce-bb73-f11f0dcaf042" d="m431.11,408.11s-3.34-2.85-8.09.24c-6.73,4.36-6.45,12.77-6.24,15.82.21,3.06,5.24,2.68,5.26-1.04.05-7.97,2.38-11.55,3.3-12.71,1.81-.89,5.78-2.31,5.78-2.31Z"/></g><g><circle class="uuid-f649728e-69c6-4a97-a0f0-388adbfc0e12" cx="384.02" cy="438.12" r="9.19"/><path class="uuid-660c04b4-fa82-4422-b1ba-a2c1dd7e0159" d="m387.08,434.62l-.24,2.35c-.03.27.08.53.28.71l1.8,1.53c.52.44.31,1.28-.36,1.43l-2.31.5c-.26.06-.48.24-.59.49l-.9,2.19c-.26.63-1.13.69-1.47.1l-1.19-2.05c-.14-.23-.38-.38-.65-.41l-2.36-.18c-.68-.05-1-.86-.55-1.36l1.58-1.76c.18-.2.25-.48.19-.74l-.56-2.3c-.16-.66.51-1.22,1.13-.94l2.16.96c.25.11.53.09.76-.05l2.02-1.24c.58-.36,1.31.11,1.24.78h0Z"/></g><g><circle cx="404.5" cy="444.74" r="2.39"/><circle cx="413" cy="437.31" r="2.39"/></g><line class="uuid-8971ef88-c9ee-424d-b142-c3a328f2a790" x1="464.72" y1="423.14" x2="464.32" y2="418.64"/><line class="uuid-8971ef88-c9ee-424d-b142-c3a328f2a790" x1="456.77" y1="426.32" x2="456.36" y2="421.82"/><line class="uuid-8971ef88-c9ee-424d-b142-c3a328f2a790" x1="449.12" y1="430.04" x2="448.71" y2="425.54"/><line class="uuid-8971ef88-c9ee-424d-b142-c3a328f2a790" x1="441.27" y1="434.42" x2="440.86" y2="429.92"/><line class="uuid-8971ef88-c9ee-424d-b142-c3a328f2a790" x1="433.62" y1="439.43" x2="433.21" y2="434.93"/><path class="uuid-41032fe0-d2fe-461a-b8c6-491b03ab54be" d="m426.7,442.03s-36.57,26.72-42.89,50.79"/></g></g></g></svg>
<svg id="uuid-918f0af7-69b1-4d0f-8b25-1ebb8fa0263c" data-name="BODY" xmlns="http://www.w3.org/2000/svg" viewBox="0 0 600 600"><defs><style>
      .uuid-a94f1842-96f2-46e0-80ad-453adfe7c791 {
        fill: #a07bff;
      }

      .uuid-a94f1842-96f2-46e0-80ad-453adfe7c791, .uuid-076e47b0-9fcb-4add-9be6-e3a2aa36a1ab, .uuid-4e971888-5854-439c-9814-73de44346e35 {
        stroke: #000;
        stroke-linecap: round;
        stroke-linejoin: round;
        stroke-width: 2px;
      }

      .uuid-076e47b0-9fcb-4add-9be6-e3a2aa36a1ab {
        fill: #fff7f0;
      }

      .uuid-4e971888-5854-439c-9814-73de44346e35 {
        fill: none;
      }
    </style></defs><g id="uuid-2076c04b-299b-4973-851a-784433720c9f" data-name="uuid-c46f65ed-d275-49a6-b41b-9935c7f7cc5c"><g id="uuid-57e7f47e-e750-42fe-918c-fffed7408fdd" data-name="uuid-3d541555-fa28-433a-9ee6-066895a43351"><g id="uuid-e3887906-34ba-42eb-a2cc-6ba54a0f247d" data-name="uuid-1fe4f652-122b-4bcd-a2e3-81acaa81d790"><g><path class="uuid-4e971888-5854-439c-9814-73de44346e35" d="m508.21,325.78s-.94,17.21-1.53,29.14c-.61,12.3,4.87,22,4.17,36.99"/><g><path class="uuid-076e47b0-9fcb-4add-9be6-e3a2aa36a1ab" d="m498.16,421.23c-.11.15-3.38,1.37-3.64,6.75-2.87-5.14-1.58-9.04,2.43-10.29l1.21,3.53h0Z"/><path class="uuid-076e47b0-9fcb-4add-9be6-e3a2aa36a1ab" d="m504.92,425.01c-.02.19,1.54,3.53-2.11,7.49,5.8-1.42,7.63-5.13,5.53-9.05l-3.42,1.55h0Z"/></g><path class="uuid-a94f1842-96f2-46e0-80ad-453adfe7c791" d="m500.35,408.04s-1.74-14.99,10.78-16.09c12.52-1.11,11.91,19.11,2.97,21.21,2.22,4.75-1.77,17.53-13.83,11.65-7.05-3.44-5.5-13.96.08-16.77h0Z"/><path class="uuid-4e971888-5854-439c-9814-73de44346e35" d="m500.35,408.04c2.72-1.28,6.49-.58,8.63.3"/><path class="uuid-4e971888-5854-439c-9814-73de44346e35" d="m514.1,413.16c-.32-.86-1.88-2.26-1.88-2.26"/><path class="uuid-4e971888-5854-439c-9814-73de44346e35" d="m504.01,395.1s-2.7-5.97-2.23-8.56,8.01-8.89,8.01-8.89"/><path class="uuid-4e971888-5854-439c-9814-73de44346e35" d="m508.75,371.28s12.36,10.12,13.66,13.08-3.35,11.4-3.35,11.4"/><path class="uuid-4e971888-5854-439c-9814-73de44346e35" d="m501.94,398.08s-5.97-7.21-8.7-8.12-8.57,3.3-8.57,3.3"/><path class="uuid-4e971888-5854-439c-9814-73de44346e35" d="m500.48,403.15s-6.33-3.19-9.12-2.15c-2.79,1.04-5.91,7.66-5.91,7.66"/><path class="uuid-4e971888-5854-439c-9814-73de44346e35" d="m520.66,403.16s7.58-3.45,10.77-3.45,7.01,7.63,7.01,7.63"/><path class="uuid-4e971888-5854-439c-9814-73de44346e35" d="m519.5,408.12s6.93,2.76,7.78,5.81,0,10,0,10"/><path class="uuid-4e971888-5854-439c-9814-73de44346e35" d="m496.18,413.16s-7.16-3.18-7.75,10.05"/><path class="uuid-4e971888-5854-439c-9814-73de44346e35" d="m513.16,422.01s6.82,7.71-4.83,13.18"/><path class="uuid-076e47b0-9fcb-4add-9be6-e3a2aa36a1ab" d="m495.97,419.75c-1.97-6.64,4.68-7.08,5.46-1.74s-3.89,7.03-5.46,1.74Z"/><path class="uuid-076e47b0-9fcb-4add-9be6-e3a2aa36a1ab" d="m505.56,420.95c4.71-5.08,8.48.42,4.27,3.81s-8.03.23-4.27-3.81Z"/><ellipse cx="498.31" cy="418.89" rx=".84" ry="1.27" transform="translate(-64.89 92.41) rotate(-9.95)"/><ellipse cx="507.84" cy="423.07" rx="1.27" ry=".84" transform="translate(-152.31 456.1) rotate(-42.66)"/></g></g></g></g></svg>
</svg>