<?xml version="1.0" encoding="UTF-8"?>
<svg xmlns="http://www.w3.org/2000/svg" viewBox="0 0 600 600">
<svg id="uuid-2ebc4e2e-813a-485c-9454-52c68b62da26" data-name="BACKGROUND" xmlns="http://www.w3.org/2000/svg" viewBox="0 0 600 600"><defs><style>
      .uuid-eb841eac-0e7b-47b1-8e78-e5724f1a9b43 {
        fill: #ffff0d;
      }
    </style></defs><rect class="uuid-eb841eac-0e7b-47b1-8e78-e5724f1a9b43" x="-1" y="-1" width="602" height="602"/></svg>
<svg id="uuid-2e688e09-c4fe-4f4d-abf1-b0fbaf338f5b" data-name="BODY" xmlns="http://www.w3.org/2000/svg" viewBox="0 0 600 600"><defs><style>
      .uuid-eb2f9d7d-b927-4606-a144-95a98972db31 {
        fill: #fff;
      }

      .uuid-505f23ba-818d-453d-8ce0-ba561f80fb1c, .uuid-558f11d3-7dde-4524-89be-a8812332cdfc {
        stroke-miterlimit: 10;
      }

      .uuid-505f23ba-818d-453d-8ce0-ba561f80fb1c, .uuid-558f11d3-7dde-4524-89be-a8812332cdfc, .uuid-fd0f3372-5f7f-47e7-9d47-74d09a54ea2e, .uuid-8a42e792-8aec-4e83-b76a-8088904e37d9, .uuid-524e3d8f-4aaa-4994-b9e3-6b84067c906c {
        stroke: #000;
        stroke-width: 2px;
      }

      .uuid-505f23ba-818d-453d-8ce0-ba561f80fb1c, .uuid-558f11d3-7dde-4524-89be-a8812332cdfc, .uuid-fd0f3372-5f7f-47e7-9d47-74d09a54ea2e, .uuid-524e3d8f-4aaa-4994-b9e3-6b84067c906c {
        fill: #ffc9f1;
      }

      .uuid-558f11d3-7dde-4524-89be-a8812332cdfc, .uuid-fd0f3372-5f7f-47e7-9d47-74d09a54ea2e, .uuid-8a42e792-8aec-4e83-b76a-8088904e37d9 {
        stroke-linecap: round;
      }

      .uuid-fd0f3372-5f7f-47e7-9d47-74d09a54ea2e, .uuid-8a42e792-8aec-4e83-b76a-8088904e37d9, .uuid-524e3d8f-4aaa-4994-b9e3-6b84067c906c {
        stroke-linejoin: round;
      }

      .uuid-8a42e792-8aec-4e83-b76a-8088904e37d9 {
        fill: none;
      }
    </style></defs><ellipse cx="300" cy="518.65" rx="138.6" ry="22.93"/><g><path class="uuid-505f23ba-818d-453d-8ce0-ba561f80fb1c" d="m319.36,427.14c-1.16,1.05-54.95,57-54.95,57,0,0,21.51-1.95,31.74,10.62,10.23,12.57,7.26,23.89,7.26,23.89h-66.9s-28.69-36.17-28.69-36.17c0,0,3.74-13.4,20.44-10.59,20.9-19.38,55.52-59.13,55.52-59.13l35.59,14.38Z"/><path d="m283.78,412.76l31.28,12.64-3.24,9.5c-2.93,3.03-9.76,10.12-13.64,14.14-11.92,0-27.98-2.13-41.33-6.37,13.95-15.1,26.93-29.92,26.93-29.92Z"/></g><g><path class="uuid-fd0f3372-5f7f-47e7-9d47-74d09a54ea2e" d="m409.81,359.6c9.2,3.77,29.89,12.05,42.79,16.03,2.11.65,4.41.69,6.5-.04,11.79-4.08,28.47-11.39,33.03-11.32,5.25.08,7.8,3.93,19.88,2.04,13.36-2.1,22.43-11.99,20.93-23.3-4.21-43.28-25.18-26.79-25.18-26.79,0,0-5.84-8.75-18.76-4.82-11.83,3.6-10.2,14.44-6.47,22.47l-25.29,8.58c-2.14.72-4.45.71-6.59-.02l-35.7-12.61"/><path class="uuid-558f11d3-7dde-4524-89be-a8812332cdfc" d="m533.36,312.82c2.5,3.94,1.62,9.14-1.57,12.4-2.47,2.53-5.88,3.88-9.32,4.4-2.8.43-5.7.42-8.49-.08-2.14-.39-4.29-1.1-5.79-2.75-1.66-1.83-2.27-4.46-1.98-6.87.51-4.17,3.84-7.14,7.22-9.26,3.17-1.98,6.86-3.26,10.64-3.09,3.8.18,7.36,2.19,9.3,5.24Z"/><path class="uuid-558f11d3-7dde-4524-89be-a8812332cdfc" d="m538.57,349.84c.97,3.03.32,6.43-1.5,9.01-3.77,5.33-11.17,5.65-16.96,4.27-3.31-.79-6.69-2.21-8.67-5.13-3.13-4.61-.82-9.79,3.48-12.56,2.58-1.66,5.61-2.67,8.63-3.14,5.73-.89,13.1,1.51,15.03,7.56Z"/><path class="uuid-558f11d3-7dde-4524-89be-a8812332cdfc" d="m538.71,328.53c1.8,2.99,2.06,6.89.22,9.9-1.95,3.2-4.94,5.25-8.49,6.28-3.66,1.07-7.64,1.27-11.4.44-2.25-.5-4.53-1.38-5.96-3.28-1.86-2.47-1.89-5.68-.85-8.49,1.2-3.24,4.17-5.69,7.09-7.37,6.15-3.56,15.21-4.43,19.39,2.52Z"/><path class="uuid-558f11d3-7dde-4524-89be-a8812332cdfc" d="m501.85,311.68s9.27,3.84,7.77,12.02c-1.04,5.68-8.17,9.55-14.94,6.13"/><path class="uuid-8a42e792-8aec-4e83-b76a-8088904e37d9" d="m500.67,331.08c2.41,1.63,5.11,8.04,3.4,14.42"/><path d="m443.44,339.88c-2.88,10.58-6.94,20.23-11.17,28.59-10.17-3.78-21.16-9.53-27-11.93l11.83-26.02,26.35,9.36Z"/></g><g><circle class="uuid-505f23ba-818d-453d-8ce0-ba561f80fb1c" cx="300" cy="300" r="138.16"/><path class="uuid-eb2f9d7d-b927-4606-a144-95a98972db31" d="m184.58,308.17c-4.41,0-7.98-3.57-7.98-7.98,0-67.74,55.11-122.86,122.86-122.86,4.41,0,7.98,3.57,7.98,7.98s-3.57,7.98-7.98,7.98c-58.94,0-106.9,47.95-106.9,106.9,0,4.41-3.57,7.98-7.98,7.98Z"/></g><path class="uuid-8a42e792-8aec-4e83-b76a-8088904e37d9" d="m264.41,484.14c-4.06.49-11.49,1.36-17.85,7.23"/><path class="uuid-eb2f9d7d-b927-4606-a144-95a98972db31" d="m185.17,308.14c-4.41,0-7.98-3.57-7.98-7.98,0-67.74,55.11-122.86,122.86-122.86,4.41,0,7.98,3.57,7.98,7.98s-3.57,7.98-7.98,7.98c-58.94,0-106.9,47.95-106.9,106.9,0,4.41-3.57,7.98-7.98,7.98Z"/><path d="m203.75,397.46l34.2-27.46-24.86,36.3c-6.73-5.1-3.66-2.61-9.34-8.83Z"/><path class="uuid-524e3d8f-4aaa-4994-b9e3-6b84067c906c" d="m323.72,387.31c19.14-13.4,39.15-11.3,55.52,7.36,19.6,22.35,30.57,33.06,30.57,33.06,0,0,10.74-19.34,34.77-17.5,18.26,1.4,24.84,14.43,24.84,14.43,0,0,6.21,8.82-22.45,33.5-28.66,24.68-54.93,40.92-61.14,29.46-6.21-11.46-2.82-32.1-2.82-32.1,0,0-22.02-26.09-27.94-32.01-6.79-6.79-15.71-1.36-15.71-1.36"/><path class="uuid-505f23ba-818d-453d-8ce0-ba561f80fb1c" d="m446.97,458.17c-25.89,22.29-49.82,37.69-58.79,32.02-9.77-7.44,26.84-38.54,44.88-52.7,18.04-14.16,32.17-17.82,36.36-12.81,0,0,6.21,8.82-22.45,33.5Z"/><path class="uuid-8a42e792-8aec-4e83-b76a-8088904e37d9" d="m409.81,427.74c-1.89,2.86-4.55,10.38-4.55,10.38"/><g><path class="uuid-fd0f3372-5f7f-47e7-9d47-74d09a54ea2e" d="m214.11,345.7c-8.05,5.83-25.34,20.79-35.52,29.67-1.67,1.45-2.82,3.41-3.39,5.55-3.14,11.67-8.55,33.44-8.55,33.44,0,0-8.42.58-12.19,14.35-3.64,13.3-6.64,25.06,3.77,29.75.35,7.47,7.51,15.45,19.2,9.41.14-.06,1.32,1.32,1.44,1.45,2.64,2.7,6.36,4.45,10.13,4.81,3.65.36,7.61-.67,10.43-3.08,3.29-2.81,5.4-6.94,6.05-11.2.4-2.61.26-5.31-.75-7.78,0,0,6.2-2.51,8.05-11.34,1.99-9.49-4.22-19.42-14.62-18.18l6.17-23.11c.51-2.2,1.74-4.16,3.49-5.59l29.38-24.3"/><path class="uuid-8a42e792-8aec-4e83-b76a-8088904e37d9" d="m204.73,452.06c-1.37-3.47-5.39-7.08-9-6.88"/><path class="uuid-8a42e792-8aec-4e83-b76a-8088904e37d9" d="m178.86,469.3c-5.16-5.27-3.82-11.97-2.9-13.54"/><path class="uuid-8a42e792-8aec-4e83-b76a-8088904e37d9" d="m158.22,458.45c-.27-5.22.73-7.32,3.06-9.83"/><path class="uuid-8a42e792-8aec-4e83-b76a-8088904e37d9" d="m193.93,450.63c.14-2.07.48-4.16,1.32-6.06.85-1.95,2.36-3.88,4.31-4.85"/></g></svg>
<svg id="uuid-d2017022-49ac-4767-bd5b-8d3e235df956" data-name="BODY" xmlns="http://www.w3.org/2000/svg" viewBox="0 0 600 600"><defs><style>
      .uuid-ceb1f6db-ac22-433a-a64d-b7c361a52305 {
        fill: #ffff0d;
      }

      .uuid-ceb1f6db-ac22-433a-a64d-b7c361a52305, .uuid-8fc51c2b-2e55-48cc-a922-83a746c6089c {
        stroke-width: 2px;
      }

      .uuid-ceb1f6db-ac22-433a-a64d-b7c361a52305, .uuid-8fc51c2b-2e55-48cc-a922-83a746c6089c, .uuid-ededc5f7-d71c-4a39-8679-141d6e366d35 {
        stroke: #000;
        stroke-linecap: round;
        stroke-linejoin: round;
      }

      .uuid-8fc51c2b-2e55-48cc-a922-83a746c6089c, .uuid-ededc5f7-d71c-4a39-8679-141d6e366d35 {
        fill: none;
      }

      .uuid-ededc5f7-d71c-4a39-8679-141d6e366d35 {
        stroke-width: 4px;
      }
    </style></defs><g id="uuid-2e50336c-81e2-44ae-a2f0-cfae5c829496" data-name="uuid-ca7a59fd-5ea4-4026-baf3-83b8314686b7"><g><path d="m371.9,289.97c1.87,5.07-.73,10.69-5.8,12.56-5.07,1.87-10.69-.73-12.56-5.8l18.36-6.76h0Z"/><path class="uuid-ededc5f7-d71c-4a39-8679-141d6e366d35" d="m347.02,271.26c1.87,5.07-.73,10.69-5.8,12.56-5.07,1.87-10.69-.73-12.56-5.8"/><path class="uuid-ededc5f7-d71c-4a39-8679-141d6e366d35" d="m378.7,259.59c1.87,5.07-.73,10.69-5.8,12.56-5.07,1.87-10.69-.73-12.56-5.8"/><g><path class="uuid-ceb1f6db-ac22-433a-a64d-b7c361a52305" d="m394.29,286.52l-6.54-4.3c-2.76-1.82-6.22-2.22-9.33-1.07l-17.8,6.56-17.8,6.56c-3.1,1.14-5.48,3.69-6.4,6.87l-2.18,7.52c-.22.76.52,1.45,1.26,1.17l23.58-8.69c1.5-.55,2.5-1.96,2.54-3.56l.15-6.73,4.48,5.03c1.06,1.19,2.74,1.61,4.24,1.06l23.58-8.69c.74-.27.86-1.28.2-1.71l.02-.02Z"/><g><line class="uuid-8fc51c2b-2e55-48cc-a922-83a746c6089c" x1="352.99" y1="303.37" x2="353.29" y2="295.54"/><line class="uuid-8fc51c2b-2e55-48cc-a922-83a746c6089c" x1="343.37" y1="306.92" x2="344.56" y2="298.75"/><line class="uuid-8fc51c2b-2e55-48cc-a922-83a746c6089c" x1="376.62" y1="294.67" x2="371.32" y2="288.89"/><line class="uuid-8fc51c2b-2e55-48cc-a922-83a746c6089c" x1="386.25" y1="291.12" x2="380.04" y2="285.68"/></g></g><g><ellipse cx="334.14" cy="264.66" rx="11.53" ry="3.94" transform="translate(-70.88 131.8) rotate(-20.22)"/><ellipse cx="365.82" cy="252.99" rx="11.53" ry="3.94" transform="translate(-64.9 142.03) rotate(-20.22)"/></g></g></g></svg>
<svg id="uuid-0aa8c587-996b-4cdc-8f6f-9857078d28d3" data-name="BODY" xmlns="http://www.w3.org/2000/svg" viewBox="0 0 600 600"><defs><style>
      .uuid-5c1aa41b-276d-47a9-975e-6b51258e34fd {
        fill: #7aa6ff;
      }

      .uuid-5c1aa41b-276d-47a9-975e-6b51258e34fd, .uuid-5420853f-4843-434c-aead-428453da705c, .uuid-98d20c01-64f9-488a-bda2-9c627608ef99 {
        stroke: #000;
        stroke-linecap: round;
        stroke-linejoin: round;
        stroke-width: 2px;
      }

      .uuid-5420853f-4843-434c-aead-428453da705c {
        fill: none;
      }

      .uuid-98d20c01-64f9-488a-bda2-9c627608ef99 {
        fill: #f9a723;
      }
    </style></defs><g id="uuid-efe03c10-21e9-40e1-b362-43562c7320e3" data-name="uuid-3374edde-7b2c-4e71-84a6-3cb653058dc6"><g id="uuid-7e5c48c3-5d6e-4296-9f6a-e6035b6c477a" data-name="uuid-298fa604-3857-4000-a4c4-1a509c9ef803"><g><path class="uuid-5c1aa41b-276d-47a9-975e-6b51258e34fd" d="m244.59,514.46s8.09-20.22,26.83-20.22c15.1,0,19.01,7.06,19.01,7.06,0,0,3.03-5.94,8.09-9.18,0,0-4.15-7.58-14.26-9.3l-1.73,1.91s-6.97-5.35-23.92-2.28c-16.95,3.07-28.51,21.15-28.51,21.15l.92,8.35,4.39,6.42,9.18-3.89v-.02Z"/><path class="uuid-98d20c01-64f9-488a-bda2-9c627608ef99" d="m209.84,478.1l27.45,34.51c.93,1.16,2.33,1.84,3.82,1.84h61.66c1.79,0,3.24,1.45,3.24,3.24v4.45c0,1.79-1.45,3.24-3.24,3.24h-64.92c-3.9,0-7.59-1.79-10-4.85l-26.47-32.68c-.89-1.1-.9-2.68-.02-3.79l4.63-5.81c.91-1.33,2.85-1.41,3.86-.14h0Z"/><path class="uuid-5420853f-4843-434c-aead-428453da705c" d="m282.53,484.72c2.44,1.78,6.89,7.45,7.9,16.57,2.33,5.28,2.33,13.17,2.33,13.17"/></g><g><path class="uuid-5c1aa41b-276d-47a9-975e-6b51258e34fd" d="m405.26,457.42s-8.33-22.95,12.28-44.49c4.45-4.65,15.27-6.57,24.17-6.37,0,0-25.89,17.7-19.96,39.81l-16.49,11.06h0Z"/><path class="uuid-98d20c01-64f9-488a-bda2-9c627608ef99" d="m382.22,485.43c.29,4,3.37,8.75,9.54,9.05s18.87-1.74,46.41-24.52c27.54-22.78,37.32-34.79,34.59-45.81-2.73-11.02-15.88-8.29-29.33,0-13.45,8.29-23.24,15.87-39.34,30.44-15.19,13.75-22.52,21.98-21.88,30.84h0Z"/><path class="uuid-5420853f-4843-434c-aead-428453da705c" d="m472.87,430.86c1.07-6.88-12.92-14.11-52.29,20.95-38.8,34.55-33.55,42.06-30.93,42.38"/><path class="uuid-5420853f-4843-434c-aead-428453da705c" d="m395.95,488.37c1.88,1.93,15.96-4.79,39.42-24.07,23.46-19.28,33.17-30.27,31.28-32.36s-10.79-2.61-41.12,23.75c-30.33,26.36-31.35,30.85-29.58,32.67h0Z"/><path class="uuid-5420853f-4843-434c-aead-428453da705c" d="m441.71,406.56c12.54-.01,17.04,10.85,17.04,10.85"/></g></g></g></svg>
<svg id="uuid-39dff219-9e19-48c2-9e34-cadd47e3fa29" data-name="BODY" xmlns="http://www.w3.org/2000/svg" viewBox="0 0 600 600"><defs><style>
      .uuid-8ea0a070-6485-4467-a882-6a678192df94 {
        fill: #7aa6ff;
      }

      .uuid-8ea0a070-6485-4467-a882-6a678192df94, .uuid-2d9e3db4-341e-407d-8af0-075f449215a0, .uuid-cd755845-3013-4a0d-82f9-783fcd3dda15 {
        stroke: #000;
        stroke-linecap: round;
        stroke-linejoin: round;
        stroke-width: 2px;
      }

      .uuid-2d9e3db4-341e-407d-8af0-075f449215a0 {
        fill: #fff7f0;
      }

      .uuid-cd755845-3013-4a0d-82f9-783fcd3dda15 {
        fill: none;
      }
    </style></defs><g id="uuid-0bddc305-27d8-4ea5-862d-046e5ab4ffae" data-name="uuid-e2fbca77-8e7a-49a9-ad56-906492ae40c9"><g id="uuid-a4e09157-4eb3-4d2b-b6da-ed8f9f5e45a4" data-name="uuid-e52b1ae6-7e41-417a-a53a-e6c5d75aeb92"><g><path class="uuid-8ea0a070-6485-4467-a882-6a678192df94" d="m171.75,394.13s-4.65.45-5.76.95c-1.11.51-3.78,11.83-3.93,12.49s6.85,9.32,36.81,12.35c5.87.59,6.42-.22,6.86-2.04.44-1.82,2.36-8.9,2.53-9.64s-4.96-4.93-4.96-4.93l-1.19,4.44s-10.85-.49-19.61-3.38c-8.76-2.9-12.13-4.84-12.13-4.84l1.38-5.4Z"/><line class="uuid-cd755845-3013-4a0d-82f9-783fcd3dda15" x1="193.91" y1="411.28" x2="192.95" y2="415.08"/><line class="uuid-cd755845-3013-4a0d-82f9-783fcd3dda15" x1="200.36" y1="412.14" x2="199.39" y2="415.94"/><circle class="uuid-2d9e3db4-341e-407d-8af0-075f449215a0" cx="178.56" cy="408.85" r="12.13"/><circle class="uuid-8ea0a070-6485-4467-a882-6a678192df94" cx="178.56" cy="408.85" r="6.23"/></g></g></g></svg>
<svg id="uuid-058dae0e-0ea2-49ca-ae9f-b68ef70ad996" data-name="BASE" xmlns="http://www.w3.org/2000/svg" viewBox="0 0 600 600"><defs><style>
      .uuid-c178cbd3-a724-433a-a7c3-f6cdad9c3981 {
        fill: #a07bff;
      }

      .uuid-c178cbd3-a724-433a-a7c3-f6cdad9c3981, .uuid-3810ce6e-eb88-48ed-bcff-bd0506d0cbae {
        stroke: #000;
        stroke-linecap: round;
        stroke-linejoin: round;
        stroke-width: 2px;
      }

      .uuid-3810ce6e-eb88-48ed-bcff-bd0506d0cbae {
        fill: none;
      }
    </style></defs><g><path class="uuid-c178cbd3-a724-433a-a7c3-f6cdad9c3981" d="m502.22,311.85c1.42.67,3.02,1.57,5.54,4.38,1.26-2.31,3.53-4.05,5.67-5.56,2.52-1.79,5.63-2.61,8.69-3.05-.27-13.26,0-33.93,3.26-59.17,4.85-37.5,7.61-90.51,1.78-119.34-5.84-28.83-21.64-39.98-49.15-30.92-23.57,7.76-26.74,39.11-24.2,74.78,2.53,35.67,13.3,53.02,23.49,77.48,6.76,16.24,13.51,43.44,17.71,59.94,3.9,0,5.71.75,7.24,1.46Z"/><path class="uuid-c178cbd3-a724-433a-a7c3-f6cdad9c3981" d="m540.72,424.5s-6.33-9.74-11.56-31.81c-1.87-7.91-3.43-18.38-4.63-28.92-1.52-.09-3.02-.32-4.43-.66-3.31-.79-6.69-2.21-8.67-5.13-3.13-4.61-.82-9.79,3.48-12.56.56-.36,1.14-.68,1.74-.98-1.39-.55-2.66-1.35-3.57-2.56-1.86-2.47-1.89-5.68-.85-8.49.52-1.4,1.38-2.65,2.42-3.75-.22-.03-.45-.05-.67-.09-2.1-.38-4.21-1.08-5.7-2.67-1.86,2.7-5.28,4.44-9.06,4.2,2.5,14.5,8.38,49.55,9.18,63.16.96,16.21-1.39,43.14-.59,45.2.91,2.36,9.26.82,18.35-3.31,9.09-4.13,15.61-9.34,14.57-11.63Z"/><ellipse class="uuid-c178cbd3-a724-433a-a7c3-f6cdad9c3981" cx="524.26" cy="431.97" rx="18.08" ry="4.57" transform="translate(-131.67 255.33) rotate(-24.42)"/><path id="uuid-ba56e70d-e3a8-43b5-8354-766d610bdf5b" data-name="linea" class="uuid-c178cbd3-a724-433a-a7c3-f6cdad9c3981" d="m522.37,427.81s-3.11-10.59-5.66-27.27c5.54,16.46,11.68,25.16,11.68,25.16l-6.02,2.11"/><ellipse class="uuid-c178cbd3-a724-433a-a7c3-f6cdad9c3981" cx="458.38" cy="184.82" rx="12.85" ry="28.04" transform="translate(-28.57 100.25) rotate(-12.11)"/><ellipse class="uuid-c178cbd3-a724-433a-a7c3-f6cdad9c3981" cx="514.92" cy="126.7" rx="15.68" ry="24.57" transform="translate(-15.12 110.81) rotate(-12.11)"/><ellipse class="uuid-c178cbd3-a724-433a-a7c3-f6cdad9c3981" cx="455.33" cy="184.77" rx="6.11" ry="9.98" transform="translate(-28.63 99.61) rotate(-12.11)"/><ellipse class="uuid-c178cbd3-a724-433a-a7c3-f6cdad9c3981" cx="514.09" cy="122.8" rx="8.15" ry="9.98" transform="translate(-14.32 110.55) rotate(-12.11)"/><g id="uuid-45336622-f42b-42a3-9677-42604915898c" data-name="buton line"><path class="uuid-3810ce6e-eb88-48ed-bcff-bd0506d0cbae" d="m456.14,125c13.36,11.39,18.04,28.56,22.13,44.92,3.48,13.92,4.79,28.39,3.65,42.71-1.14,14.31-6.22,28.31-2.71,42.7"/><path class="uuid-3810ce6e-eb88-48ed-bcff-bd0506d0cbae" d="m493.22,95.15c-5.54,13.38-4.25,27.58-.96,41.36,3.74,15.66,7.74,30.1,8.35,46.39.79,21.15-2.17,42.08-1.17,63.16"/><path class="uuid-3810ce6e-eb88-48ed-bcff-bd0506d0cbae" d="m514.58,278.26s1.05-52.71,3.45-80.15c2.4-27.45,6.67-37.86,11.73-47.69"/></g><path class="uuid-3810ce6e-eb88-48ed-bcff-bd0506d0cbae" d="m508.15,328.54c.93,6.66,1.96,13.68,3.07,20.66"/><path class="uuid-3810ce6e-eb88-48ed-bcff-bd0506d0cbae" d="m503.31,289.2c.24,2.74,1.33,12.59,2.99,25.51"/></g><path class="uuid-3810ce6e-eb88-48ed-bcff-bd0506d0cbae" d="m522.11,399.07s-5.41-21.86-9.23-39.46"/></svg>
<svg id="uuid-0de5f23b-a9c3-41d0-a07b-55d620b71dd1" data-name="BODY" xmlns="http://www.w3.org/2000/svg" viewBox="0 0 600 600"><defs><style>
      .uuid-98a7d5c3-cae7-43d0-a8db-2d531b27fa52 {
        fill: #7aa6ff;
      }

      .uuid-98a7d5c3-cae7-43d0-a8db-2d531b27fa52, .uuid-16744c03-097f-478e-a59a-7cffde4095eb {
        stroke: #000;
        stroke-linecap: round;
        stroke-linejoin: round;
        stroke-width: 2px;
      }

      .uuid-16744c03-097f-478e-a59a-7cffde4095eb {
        fill: #3ef1ff;
      }
    </style></defs><path class="uuid-98a7d5c3-cae7-43d0-a8db-2d531b27fa52" d="m215.33,190.99c22.77-16.43,79.18-20.03,109.99,21.2l-17.23-95.42s-96.74,13.25-113.97,94.09c6.35-8.67,21.2-19.88,21.2-19.88Z"/><polygon class="uuid-16744c03-097f-478e-a59a-7cffde4095eb" points="325.33 212.19 365.08 206.89 358.46 111.48 308.1 116.78 325.33 212.19"/></svg>
</svg>