<?xml version="1.0" encoding="UTF-8"?>
<svg xmlns="http://www.w3.org/2000/svg" viewBox="0 0 600 600">
<svg id="uuid-79261e34-5d95-4eb7-bb85-10d7c969ade4" data-name="BACKGROUND" xmlns="http://www.w3.org/2000/svg" viewBox="0 0 600 600"><defs><style>
      .uuid-97803ec4-c756-4940-a80c-fce9d043143d {
        fill: #00dfa9;
      }
    </style></defs><rect class="uuid-97803ec4-c756-4940-a80c-fce9d043143d" x="-1" y="-1" width="602" height="602"/></svg>
<svg id="uuid-f7144243-e6cd-4cab-932b-c5be46c6fb36" data-name="BACKGROUND" xmlns="http://www.w3.org/2000/svg" viewBox="0 0 600 600"><defs><style>
      .uuid-ee344cb6-6f49-4a63-aa7b-6b97f7278011, .uuid-2df137ed-1d1c-4841-89ca-f7589125bd76 {
        fill: #fff;
      }

      .uuid-2df137ed-1d1c-4841-89ca-f7589125bd76, .uuid-00c9b4c2-3408-4d90-88df-0016a53fdc8b, .uuid-9c4e21ff-8a5c-4860-9f42-740e78ff2dc7, .uuid-2a45fb5d-1b56-43fa-8c8f-251b0f959774, .uuid-53cf4bc2-4135-41a5-b8b2-af79dfc57a4e, .uuid-c8ed7fb8-48a5-4e1d-9b4a-eac3ff2accd7, .uuid-b11951d9-d6a4-4c59-b0b3-fb834948f050 {
        stroke: #000;
        stroke-width: 2px;
      }

      .uuid-2df137ed-1d1c-4841-89ca-f7589125bd76, .uuid-00c9b4c2-3408-4d90-88df-0016a53fdc8b, .uuid-2a45fb5d-1b56-43fa-8c8f-251b0f959774, .uuid-c8ed7fb8-48a5-4e1d-9b4a-eac3ff2accd7 {
        stroke-miterlimit: 10;
      }

      .uuid-2df137ed-1d1c-4841-89ca-f7589125bd76, .uuid-9c4e21ff-8a5c-4860-9f42-740e78ff2dc7, .uuid-2a45fb5d-1b56-43fa-8c8f-251b0f959774, .uuid-53cf4bc2-4135-41a5-b8b2-af79dfc57a4e, .uuid-c8ed7fb8-48a5-4e1d-9b4a-eac3ff2accd7 {
        stroke-linecap: round;
      }

      .uuid-00c9b4c2-3408-4d90-88df-0016a53fdc8b, .uuid-53cf4bc2-4135-41a5-b8b2-af79dfc57a4e, .uuid-c8ed7fb8-48a5-4e1d-9b4a-eac3ff2accd7, .uuid-b11951d9-d6a4-4c59-b0b3-fb834948f050 {
        fill: #f9a723;
      }

      .uuid-9c4e21ff-8a5c-4860-9f42-740e78ff2dc7 {
        fill: none;
      }

      .uuid-9c4e21ff-8a5c-4860-9f42-740e78ff2dc7, .uuid-53cf4bc2-4135-41a5-b8b2-af79dfc57a4e, .uuid-b11951d9-d6a4-4c59-b0b3-fb834948f050 {
        stroke-linejoin: round;
      }

      .uuid-2a45fb5d-1b56-43fa-8c8f-251b0f959774 {
        fill: #ff78d8;
      }
    </style></defs><path class="uuid-53cf4bc2-4135-41a5-b8b2-af79dfc57a4e" d="m409.81,359.6c9.2,3.77,29.89,12.05,42.79,16.03,2.11.65,4.41.69,6.5-.04,11.79-4.08,28.47-11.39,33.03-11.32,5.25.08,7.8,3.93,19.88,2.04,13.36-2.1,22.43-11.99,20.93-23.3-4.21-43.28-25.18-26.79-25.18-26.79,0,0-5.84-8.75-18.76-4.82-11.83,3.6-10.2,14.44-6.47,22.47l-25.29,8.58c-2.14.72-4.45.71-6.59-.02l-35.7-12.61"/><path class="uuid-c8ed7fb8-48a5-4e1d-9b4a-eac3ff2accd7" d="m533.36,312.82c2.5,3.94,1.62,9.14-1.57,12.4-2.47,2.53-5.88,3.88-9.32,4.4-2.8.43-5.7.42-8.49-.08-2.14-.39-4.29-1.1-5.79-2.75-1.66-1.83-2.27-4.46-1.98-6.87.51-4.17,3.84-7.14,7.22-9.26,3.17-1.98,6.86-3.26,10.64-3.09,3.8.18,7.36,2.19,9.3,5.24Z"/><path class="uuid-c8ed7fb8-48a5-4e1d-9b4a-eac3ff2accd7" d="m538.57,349.84c.97,3.03.32,6.43-1.5,9.01-3.77,5.33-11.17,5.65-16.96,4.27-3.31-.79-6.69-2.21-8.67-5.13-3.13-4.61-.82-9.79,3.48-12.56,2.58-1.66,5.61-2.67,8.63-3.14,5.73-.89,13.1,1.51,15.03,7.56Z"/><path class="uuid-c8ed7fb8-48a5-4e1d-9b4a-eac3ff2accd7" d="m538.71,328.53c1.8,2.99,2.06,6.89.22,9.9-1.95,3.2-4.94,5.25-8.49,6.28-3.66,1.07-7.64,1.27-11.4.44-2.25-.5-4.53-1.38-5.96-3.28-1.86-2.47-1.89-5.68-.85-8.49,1.2-3.24,4.17-5.69,7.09-7.37,6.15-3.56,15.21-4.43,19.39,2.52Z"/><path class="uuid-c8ed7fb8-48a5-4e1d-9b4a-eac3ff2accd7" d="m501.85,311.68s9.27,3.84,7.77,12.02c-1.04,5.68-8.17,9.55-14.94,6.13"/><path class="uuid-9c4e21ff-8a5c-4860-9f42-740e78ff2dc7" d="m500.67,331.08c2.41,1.63,5.11,8.04,3.4,14.42"/><path d="m443.44,339.88c-2.88,10.58-6.94,20.23-11.17,28.59-10.17-3.78-21.16-9.53-27-11.93l11.83-26.02,26.35,9.36Z"/><ellipse cx="300" cy="518.65" rx="138.6" ry="22.93"/><path class="uuid-00c9b4c2-3408-4d90-88df-0016a53fdc8b" d="m319.36,427.14c-1.16,1.05-54.95,57-54.95,57,0,0,21.51-1.95,31.74,10.62,10.23,12.57,7.26,23.89,7.26,23.89h-66.9s-28.69-36.17-28.69-36.17c0,0,3.74-13.4,20.44-10.59,20.9-19.38,55.52-59.13,55.52-59.13l35.59,14.38Z"/><path d="m283.78,412.76l31.28,12.64-3.24,9.5c-2.93,3.03-9.76,10.12-13.64,14.14-11.92,0-27.98-2.13-41.33-6.37,13.95-15.1,26.93-29.92,26.93-29.92Z"/><path class="uuid-00c9b4c2-3408-4d90-88df-0016a53fdc8b" d="m354.45,173.54l-.11.27-174.2,58.29c-11.49,20.13-18.05,43.43-18.05,68.27,0,76.2,61.77,137.98,137.97,137.98s137.98-61.77,137.98-137.98c0-56.89-34.43-105.72-83.58-126.83Z"/><path class="uuid-9c4e21ff-8a5c-4860-9f42-740e78ff2dc7" d="m264.41,484.14c-4.06.49-11.49,1.36-17.85,7.23"/><path class="uuid-ee344cb6-6f49-4a63-aa7b-6b97f7278011" d="m185.17,308.14c-4.41,0-7.98-3.57-7.98-7.98,0-67.74,55.11-122.86,122.86-122.86,4.41,0,7.98,3.57,7.98,7.98s-3.57,7.98-7.98,7.98c-58.94,0-106.9,47.95-106.9,106.9,0,4.41-3.57,7.98-7.98,7.98Z"/><path d="m203.75,397.46l34.2-27.46-24.86,36.3c-6.73-5.1-3.66-2.61-9.34-8.83Z"/><path class="uuid-b11951d9-d6a4-4c59-b0b3-fb834948f050" d="m323.72,387.31c19.14-13.4,39.15-11.3,55.52,7.36,19.6,22.35,30.57,33.06,30.57,33.06,0,0,10.74-19.34,34.77-17.5,18.26,1.4,24.84,14.43,24.84,14.43,0,0,6.21,8.82-22.45,33.5-28.66,24.68-54.93,40.92-61.14,29.46-6.21-11.46-2.82-32.1-2.82-32.1,0,0-22.02-26.09-27.94-32.01-6.79-6.79-15.71-1.36-15.71-1.36"/><path class="uuid-00c9b4c2-3408-4d90-88df-0016a53fdc8b" d="m446.97,458.17c-25.89,22.29-49.82,37.69-58.79,32.02-9.77-7.44,26.84-38.54,44.88-52.7,18.04-14.16,32.17-17.82,36.36-12.81,0,0,6.21,8.82-22.45,33.5Z"/><path class="uuid-9c4e21ff-8a5c-4860-9f42-740e78ff2dc7" d="m409.81,427.74c-1.89,2.86-4.55,10.38-4.55,10.38"/><ellipse class="uuid-2df137ed-1d1c-4841-89ca-f7589125bd76" cx="269.41" cy="209.07" rx="94.9" ry="26.25" transform="translate(-52.5 96.54) rotate(-18.55)"/><ellipse class="uuid-2a45fb5d-1b56-43fa-8c8f-251b0f959774" cx="269.41" cy="209.07" rx="71.19" ry="13.32" transform="translate(-52.5 96.54) rotate(-18.55)"/><g><path class="uuid-53cf4bc2-4135-41a5-b8b2-af79dfc57a4e" d="m214.11,345.7c-8.05,5.83-25.34,20.79-35.52,29.67-1.67,1.45-2.82,3.41-3.39,5.55-3.14,11.67-8.55,33.44-8.55,33.44,0,0-8.42.58-12.19,14.35-3.64,13.3-6.64,25.06,3.77,29.75.35,7.47,7.51,15.45,19.2,9.41.14-.06,1.32,1.32,1.44,1.45,2.64,2.7,6.36,4.45,10.13,4.81,3.65.36,7.61-.67,10.43-3.08,3.29-2.81,5.4-6.94,6.05-11.2.4-2.61.26-5.31-.75-7.78,0,0,6.2-2.51,8.05-11.34,1.99-9.49-4.22-19.42-14.62-18.18l6.17-23.11c.51-2.2,1.74-4.16,3.49-5.59l29.38-24.3"/><path class="uuid-9c4e21ff-8a5c-4860-9f42-740e78ff2dc7" d="m204.73,452.06c-1.37-3.47-5.39-7.08-9-6.88"/><path class="uuid-9c4e21ff-8a5c-4860-9f42-740e78ff2dc7" d="m178.86,469.3c-5.16-5.27-3.82-11.97-2.9-13.54"/><path class="uuid-9c4e21ff-8a5c-4860-9f42-740e78ff2dc7" d="m158.22,458.45c-.27-5.22.73-7.32,3.06-9.83"/><path class="uuid-9c4e21ff-8a5c-4860-9f42-740e78ff2dc7" d="m193.93,450.63c.14-2.07.48-4.16,1.32-6.06.85-1.95,2.36-3.88,4.31-4.85"/></g></svg>
<svg id="uuid-ffac6761-6b9e-4a13-ab42-3dfadf65c420" data-name="BODY" xmlns="http://www.w3.org/2000/svg" viewBox="0 0 600 600"><circle cx="369.54" cy="262.94" r="9.78" transform="translate(-8.58 12.49) rotate(-1.91)"/><circle cx="362.12" cy="293.18" r="9.78" transform="translate(-9.59 12.26) rotate(-1.91)"/><circle cx="337.63" cy="273.96" r="9.78" transform="translate(-8.96 11.43) rotate(-1.91)"/></svg>
<svg id="uuid-f3db1eb6-4f97-4492-acd4-59277665a4db" data-name="BACKGROUND" xmlns="http://www.w3.org/2000/svg" viewBox="0 0 600 600"><defs><style>
      .uuid-137cf754-8ee9-43f1-a9ec-46d5467ffedf {
        stroke-linecap: round;
      }

      .uuid-137cf754-8ee9-43f1-a9ec-46d5467ffedf, .uuid-2ca244a5-3277-4142-b0d8-4f90aed69e5b, .uuid-6709d634-fb39-496e-8134-aaf453bc2ef6 {
        stroke: #000;
        stroke-width: 2px;
      }

      .uuid-137cf754-8ee9-43f1-a9ec-46d5467ffedf, .uuid-6709d634-fb39-496e-8134-aaf453bc2ef6 {
        fill: #fff7f0;
        stroke-linejoin: round;
      }

      .uuid-2ca244a5-3277-4142-b0d8-4f90aed69e5b {
        fill: none;
        stroke-miterlimit: 10;
      }
    </style></defs><g id="uuid-7a884093-fbd7-4212-8f65-d3cd505a74ba" data-name="plaster foot"><path class="uuid-6709d634-fb39-496e-8134-aaf453bc2ef6" d="m409.81,427.74s10.74-19.34,34.77-17.5c18.26,1.4,24.84,14.43,24.84,14.43,0,0,6.21,8.82-22.45,33.5-28.66,24.68-54.93,40.92-61.14,29.46-6.21-11.46-2.82-32.1-2.82-32.1"/><path class="uuid-2ca244a5-3277-4142-b0d8-4f90aed69e5b" d="m388.17,490.18c-9.77-7.44,26.84-38.54,44.88-52.7,18.04-14.16,32.17-17.82,36.36-12.81"/><path class="uuid-137cf754-8ee9-43f1-a9ec-46d5467ffedf" d="m416.78,450.89h0c5.91-5.12,11.7-9.81,16.28-13.41,3.06-2.4,6-4.49,8.8-6.3,0,0,0,0,0,0-5.14-5.62-15.52-9.19-27.65-9.19-23.41-.78-25.67,26.26-25.67,26.26,0,0,20.52-4.94,28.24,2.63Z"/><path class="uuid-137cf754-8ee9-43f1-a9ec-46d5467ffedf" d="m367.67,443.32s11.74,5.26,14.61,20.07c4.7-13.04,6.92-17.95,13.57-25.3,3.66-4.05,9.91-12.26,18.37-16.09-1.55-1.7-7.15-2.95-12.1-6.16-3.32-2.15-9.22-9.4-9.22-9.4.34-.54-7.1,3.85-15.83,16-5.28,7.35-9.39,20.89-9.39,20.89Z"/><path class="uuid-137cf754-8ee9-43f1-a9ec-46d5467ffedf" d="m347.59,424.78s9.65,11.74,20.09,18.54c2.35-4.71,7.74-16.1,12.26-22.19,4.52-6.09,8.61-11.22,12.96-14.7-6.96-11.39-17.22-18.09-17.22-18.09,0,0-7.65,12.92-13.22,20.05-5.57,7.13-14.87,16.39-14.87,16.39Z"/></g></svg>
<svg id="uuid-a02d3be7-cb6f-4a2c-b49b-641c04f66e2c" data-name="BODY" xmlns="http://www.w3.org/2000/svg" xmlns:xlink="http://www.w3.org/1999/xlink" viewBox="0 0 600 600"><defs><style>
      .uuid-97ec9160-f55b-4391-9ac6-2720ac70b4d7, .uuid-186e0f35-16d5-49b6-9cbd-d077b6af6fa7, .uuid-c3a6eae5-34c2-4348-b045-ee3a775c38d6 {
        fill: none;
      }

      .uuid-186e0f35-16d5-49b6-9cbd-d077b6af6fa7 {
        clip-path: url(#uuid-8e6e5a8e-41a9-45a6-8de2-1509de5fe4b8);
      }

      .uuid-8db21063-287c-4acc-a512-bbb5252bc182 {
        fill: #7aa6ff;
      }

      .uuid-8db21063-287c-4acc-a512-bbb5252bc182, .uuid-30e331db-4d21-49fc-9ac1-7c3c1e393256, .uuid-b54f6662-ff09-4ee8-b5f7-c135184e294b, .uuid-7ac34740-3707-468c-be51-b66a0dd2ed67, .uuid-f0a83435-45fe-4dc4-9872-f810804941c5, .uuid-3b92c40e-5c35-41fc-a2cd-b71aa1e768f8, .uuid-b7057188-22a7-479d-9437-632318c9ac2d, .uuid-4c30d6be-6a29-4f20-9678-daf62593094f, .uuid-f3cd72a2-e4c0-4201-b5e2-325e35e373ef, .uuid-c3a6eae5-34c2-4348-b045-ee3a775c38d6 {
        stroke: #000;
        stroke-linecap: round;
        stroke-linejoin: round;
      }

      .uuid-8db21063-287c-4acc-a512-bbb5252bc182, .uuid-f0a83435-45fe-4dc4-9872-f810804941c5, .uuid-b7057188-22a7-479d-9437-632318c9ac2d, .uuid-4c30d6be-6a29-4f20-9678-daf62593094f, .uuid-f3cd72a2-e4c0-4201-b5e2-325e35e373ef, .uuid-c3a6eae5-34c2-4348-b045-ee3a775c38d6 {
        stroke-width: 2px;
      }

      .uuid-1614a14c-44f3-41f2-970a-f9e88ea2d137 {
        fill: #ffff0d;
      }

      .uuid-30e331db-4d21-49fc-9ac1-7c3c1e393256 {
        stroke-width: 2px;
      }

      .uuid-30e331db-4d21-49fc-9ac1-7c3c1e393256, .uuid-b54f6662-ff09-4ee8-b5f7-c135184e294b {
        fill: #3ef1ff;
      }

      .uuid-b54f6662-ff09-4ee8-b5f7-c135184e294b, .uuid-7ac34740-3707-468c-be51-b66a0dd2ed67 {
        stroke-width: 2px;
      }

      .uuid-7ac34740-3707-468c-be51-b66a0dd2ed67, .uuid-f0a83435-45fe-4dc4-9872-f810804941c5, .uuid-3b92c40e-5c35-41fc-a2cd-b71aa1e768f8 {
        fill: #a07bff;
      }

      .uuid-3b92c40e-5c35-41fc-a2cd-b71aa1e768f8 {
        stroke-width: 2px;
      }

      .uuid-b7057188-22a7-479d-9437-632318c9ac2d {
        fill: #ff78d8;
      }

      .uuid-4c30d6be-6a29-4f20-9678-daf62593094f {
        fill: #fff7f0;
      }

      .uuid-f3cd72a2-e4c0-4201-b5e2-325e35e373ef {
        fill: #ffc9f1;
      }
    </style><clipPath id="uuid-8e6e5a8e-41a9-45a6-8de2-1509de5fe4b8"><path class="uuid-97ec9160-f55b-4391-9ac6-2720ac70b4d7" d="m218.44,385.68l-12.41,10.96-6.53,24.81s7.3-.56,11.65,5.92c4.35,6.48,4.93,18.37-5.19,25.2,0,0,2.66,7.57-2.84,15.69-5.5,8.12-13.98,7.22-17.39,6.23-3.42-.99-6.85-3.34-8.39-5.52,0,0-4.4,2.52-9.33,1.88-4.92-.64-9.88-4.55-10.66-11.79,0,0-4.68-1.75-6.47-7.46s-.04-12.91,2.44-22.27c2.48-9.35,6.68-14.17,12.51-15.83,0,0,7.52-29.22,8.52-33.06,1-3.84,2.56-4.88,6.36-8.16,3.8-3.28,15.08-13.12,15.08-13.12,0,0-6.03-58.25-12.88-63.84-15.33-12.53-44.41,24.06-87.62,45.85-62.5,31.52-65.76,86.65-49.19,122.95,16.58,36.3,55.81,43.29,75.6,42.64,19.79-.64,44.55-21.29,57.17-20.21,12.62,1.09,20.57,16.17,35.99,20.21,15.42,4.03,40.63-13.14,40.63-13.14l22.73-23.84,208.57,80.5,26.44-27.14,9.21-56.69-16.31-219.04-85.45-26.84-202.25,165.1h0Z"/></clipPath></defs><g id="uuid-4fc18071-2308-439e-9b03-a88b20c18554" data-name="uuid-25dbd0f2-a6de-441e-82e8-5e783d370578"><g id="uuid-468c7e84-7c20-452e-9305-e519acee2181" data-name="uuid-6de0adcf-05a0-4838-b094-5e13ac5553d7"><g class="uuid-186e0f35-16d5-49b6-9cbd-d077b6af6fa7"><g><g><path class="uuid-8db21063-287c-4acc-a512-bbb5252bc182" d="m256.85,397.34s43.17-16.87,99.05-41.15c55.88-24.29,75.83-39.11,88.23-49.9,12.4-10.79,16.75-22.06,17.55-24.64,0,0-15.57-4.04-25.44-4.73,0,0-1.95-11.06-4.24-17.83,0,0,23.38,4.08,29.67,10.6,6.29,6.52,8.26,24.14,3.97,34.72-4.29,10.58-48.76,44.48-82.27,59.41-33.52,14.93-34.93,14.89-34.93,14.89,0,0-10.52-1.58-24.73,8.6,0,0-36.6,14.62-59.39,23.39l-7.48-13.35h0Z"/><path class="uuid-8db21063-287c-4acc-a512-bbb5252bc182" d="m167.87,340.53s-9.7,4.37-15.66,9.02c-3.95-.93-22.86-3.02-22.86-3.02,0,0,15.25-13.12,34.71-21.71,0,0,1.23,8.09,3.82,15.72Z"/><path class="uuid-c3a6eae5-34c2-4348-b045-ee3a775c38d6" d="m461.68,281.65c1.48-4.21-.71-13.73-6.07-15.83"/><line class="uuid-c3a6eae5-34c2-4348-b045-ee3a775c38d6" x1="280.48" y1="387.88" x2="287.21" y2="401.78"/><line class="uuid-c3a6eae5-34c2-4348-b045-ee3a775c38d6" x1="287.21" y1="385.14" x2="293.75" y2="399.2"/><line class="uuid-c3a6eae5-34c2-4348-b045-ee3a775c38d6" x1="293.36" y1="382.62" x2="300" y2="396.73"/><g><path class="uuid-1614a14c-44f3-41f2-970a-f9e88ea2d137" d="m334.63,370.93l1.57,1.28c.15.12.36.17.55.11l1.94-.56c.48-.14.9.33.72.79l-.74,1.89c-.07.18-.05.39.06.55l1.14,1.68c.28.41-.03.96-.53.93l-2.02-.12c-.2-.01-.39.07-.51.23l-1.24,1.6c-.3.39-.92.26-1.05-.22l-.51-1.96c-.05-.19-.19-.34-.38-.41l-1.9-.69c-.47-.17-.54-.8-.12-1.07l1.7-1.09c.17-.11.27-.29.27-.48l.07-2.02c.02-.5.59-.76.98-.44h0Z"/><path class="uuid-1614a14c-44f3-41f2-970a-f9e88ea2d137" d="m352.67,363.26l1.57,1.28c.15.12.36.17.55.11l1.94-.56c.48-.14.9.33.72.79l-.74,1.89c-.07.18-.05.39.06.55l1.14,1.68c.28.41-.03.96-.53.93l-2.02-.12c-.2-.01-.39.07-.51.23l-1.24,1.6c-.3.39-.92.26-1.05-.22l-.51-1.96c-.05-.19-.19-.34-.38-.41l-1.9-.69c-.47-.17-.54-.8-.12-1.07l1.7-1.09c.17-.11.27-.29.27-.48l.07-2.02c.02-.5.59-.76.98-.44h0Z"/><path class="uuid-1614a14c-44f3-41f2-970a-f9e88ea2d137" d="m371.48,354.98l1.59,1.25c.15.12.36.16.55.1l1.93-.6c.47-.15.91.31.74.78l-.7,1.9c-.07.18-.04.39.07.55l1.17,1.65c.29.4-.02.96-.51.94l-2.02-.08c-.2,0-.38.08-.5.24l-1.21,1.62c-.3.4-.92.28-1.05-.2l-.55-1.95c-.05-.19-.2-.34-.38-.4l-1.92-.65c-.47-.16-.55-.79-.14-1.06l1.68-1.12c.16-.11.26-.29.27-.49l.03-2.02c0-.5.58-.77.97-.46h0Z"/><path class="uuid-1614a14c-44f3-41f2-970a-f9e88ea2d137" d="m389.42,346.05l1.67,1.14c.16.11.37.14.55.07l1.89-.73c.46-.18.93.25.79.73l-.57,1.94c-.06.19-.02.39.11.55l1.27,1.57c.31.39.05.96-.45.97l-2.02.05c-.2,0-.38.11-.49.27l-1.1,1.7c-.27.42-.9.34-1.07-.13l-.68-1.91c-.07-.19-.22-.33-.41-.38l-1.96-.52c-.48-.13-.6-.75-.21-1.05l1.6-1.23c.16-.12.24-.31.23-.51l-.11-2.02c-.03-.49.53-.8.94-.52h0Z"/><path class="uuid-1614a14c-44f3-41f2-970a-f9e88ea2d137" d="m405.93,337.19l1.71,1.09c.17.11.37.12.55.05l1.86-.79c.46-.19.94.22.81.7l-.51,1.96c-.05.19,0,.39.13.54l1.33,1.53c.33.37.08.96-.41.99l-2.02.12c-.2.01-.37.12-.48.29l-1.04,1.74c-.26.42-.89.37-1.07-.09l-.74-1.88c-.07-.18-.23-.32-.42-.36l-1.97-.46c-.48-.11-.63-.73-.25-1.04l1.56-1.29c.15-.13.23-.32.21-.51l-.18-2.02c-.04-.49.5-.82.92-.56h0Z"/></g></g><path class="uuid-b7057188-22a7-479d-9437-632318c9ac2d" d="m404.95,488.26c11.56,2.8,20.78,17.99,20.78,17.99,0,0,33.24,6.76,51.24,20.29l7.21-3.39-1.89-6.7s-31.23-16.75-50.98-17.71c0,0-7.08-8.51-12.34-9.3-5.26-.79-14.02-1.18-14.02-1.18h0Z"/><path class="uuid-f3cd72a2-e4c0-4201-b5e2-325e35e373ef" d="m490.26,485.51s-15.71-3.27-30.17-7.78c-14.46-4.51-25.51-10.58-25.51-10.58,0,0-5.75,4.04-7.78,4.51-1.78.41-124.87-31.46-154.41-39.12-.04-17.75-6.8-34.2-20.05-41.98-16.78-9.85-40.5,2.84-51.96-.89-11.46-3.73-14.08-38.2-57.48-43.98-43.41-5.78-74.21,23.56-86.3,54.22-12.09,30.66-7.3,85.91,54.32,93.9,32.12,4.16,46.04-19.92,68.1-16.65,18.73,2.78,19.06,19.57,37.56,20.82,0,0,7.8.37,11.04-3.07,0,0-.98-6.04-2.55-10.77-1.57-4.73-3.24-7.96-3.24-7.96,0,0,4.02-11.38,12.65-13.73,8.63-2.35,23.94,1.47,26.88,1.18,1.98-.2,4.55-2.12,6.76-7.14,39.95,9.21,144.97,33.46,149.5,34.88,5.6,1.76,11.98,10.32,11.98,10.32,0,0,16.95,3.73,30.33,8.87,13.38,5.13,24.26,12.6,24.26,12.6,0,0,3.89-12.91,8.87-17.27-3.27-7.47-2.8-20.38-2.8-20.38h0Z"/><path class="uuid-b7057188-22a7-479d-9437-632318c9ac2d" d="m216.43,497.98c-18.5-1.25-18.83-18.04-37.56-20.82-22.06-3.27-35.98,20.82-68.1,16.65-28.66-3.71-45.02-17.66-53.11-34.59,18.87,33.21,70.51,25.28,90.82,14.96,20.32-10.32,28.95-6.33,46.7,6.14,17.75,12.47,23.93,8.24,29.75,3.81,1.57,4.73,2.55,10.77,2.55,10.77-3.24,3.43-11.04,3.07-11.04,3.07h0Zm36.46-45.01h0c-4.99-.69-15.38-3.83-24.74,1.2-11.65,6.26-8.07,18.45-6.47,22.01.11.24.27.47.49.69-.21-.44-.34-.69-.34-.69,0,0,4.02-11.38,12.65-13.73,8.63-2.35,23.94,1.47,26.88,1.18,1.98-.2,4.55-2.12,6.76-7.14-9.43-2.17-15.24-3.51-15.24-3.51h0Zm13.17-22.07h0s2.29.59,6.32,1.64c-.02-9.45-1.94-18.54-5.75-26.14l-.2-.1c1.56,6.15,1.32,15.68-.38,24.6Z"/><g><g><path class="uuid-4c30d6be-6a29-4f20-9678-daf62593094f" d="m212.78,449.43l-14.2-3.29c-2.95-.68-4.24-3-2.87-5.16l15.67-24.85c1.37-2.17,4.87-3.37,7.82-2.69l14.2,3.29c2.95.68,4.24,3,2.87,5.16l-15.67,24.85c-1.37,2.17-4.87,3.37-7.82,2.69Z"/><path class="uuid-f0a83435-45fe-4dc4-9872-f810804941c5" d="m213.2,445.62l-10.75-2.49c-1.51-.35-2.17-1.53-1.47-2.64l13.79-21.87c.7-1.11,2.49-1.72,4-1.37l10.75,2.49c1.51.35,2.17,1.53,1.47,2.64l-13.79,21.87c-.7,1.11-2.49,1.72-4,1.37Z"/></g><g><path class="uuid-4c30d6be-6a29-4f20-9678-daf62593094f" d="m166.82,438.79l-14.2-3.29c-2.95-.68-4.24-3-2.87-5.16l15.67-24.85c1.37-2.17,4.87-3.37,7.82-2.69l14.2,3.29c2.95.68,4.24,3,2.87,5.16l-15.67,24.85c-1.37,2.17-4.87,3.37-7.82,2.69Z"/><path class="uuid-f0a83435-45fe-4dc4-9872-f810804941c5" d="m167.24,434.98l-10.75-2.49c-1.51-.35-2.17-1.53-1.47-2.64l13.79-21.87c.7-1.11,2.49-1.72,4-1.37l10.75,2.49c1.51.35,2.17,1.53,1.47,2.64l-13.79,21.87c-.7,1.11-2.49,1.72-4,1.37Z"/></g><path class="uuid-4c30d6be-6a29-4f20-9678-daf62593094f" d="m129.85,430.23h0c-2.95-.68-4.24-3-2.87-5.16l15.67-24.85c1.37-2.17,4.87-3.37,7.82-2.69h0c2.95.68,4.24,3,2.87,5.16l-15.67,24.85c-1.37,2.17-4.87,3.37-7.82,2.69Z"/><path class="uuid-4c30d6be-6a29-4f20-9678-daf62593094f" d="m107.78,425.12h0c-2.95-.68-4.24-3-2.87-5.16l15.67-24.85c1.37-2.17,4.87-3.37,7.82-2.69h0c2.95.68,4.24,3,2.87,5.16l-15.67,24.85c-1.37,2.17-4.87,3.37-7.82,2.69h0Z"/><path class="uuid-f0a83435-45fe-4dc4-9872-f810804941c5" d="m123.78,399.75l-11.38,18.04c-1.36,2.15-.1,4.44,2.81,5.14.14-.16.28-.32.4-.5l15.67-24.85c.11-.18.18-.35.25-.53-2.94-.65-6.39.55-7.75,2.7h0Z"/></g><g><path class="uuid-c3a6eae5-34c2-4348-b045-ee3a775c38d6" d="m436.81,495.25s-16.88-8.23-20.01-8.99-300.73-68.01-300.73-68.01"/><path class="uuid-c3a6eae5-34c2-4348-b045-ee3a775c38d6" d="m438.16,476.24s-11.22-.5-17.03-1.9c-5.81-1.4-294.08-73.68-294.08-73.68"/><path class="uuid-c3a6eae5-34c2-4348-b045-ee3a775c38d6" d="m473.11,489.44s-44.58-9.34-50.77-11.01c-6.2-1.66-299.13-71.93-299.13-71.93"/><path class="uuid-c3a6eae5-34c2-4348-b045-ee3a775c38d6" d="m119.35,412.39s288.32,67,298.94,69.56c10.62,2.56,53.31,24.81,53.31,24.81"/></g><g><g><ellipse class="uuid-7ac34740-3707-468c-be51-b66a0dd2ed67" cx="80.12" cy="438.43" rx="8" ry="6.02" transform="translate(-184.58 79.86) rotate(-26.08)"/><path class="uuid-8db21063-287c-4acc-a512-bbb5252bc182" d="m84.32,436.52c.6,1.22-.77,3.11-3.06,4.23-2.29,1.12-4.62,1.04-5.22-.18-.2-.41-1.95-3.98-2.48-5.06.41-1,4.02,1.57,5.54.83,1.51-.74,1.7-5.17,2.74-4.88l2.48,5.06h0Z"/><ellipse class="uuid-b54f6662-ff09-4ee8-b5f7-c135184e294b" cx="77.79" cy="433.66" rx="4.61" ry="3.55" transform="translate(-182.72 78.35) rotate(-26.08)"/></g><g><ellipse class="uuid-7ac34740-3707-468c-be51-b66a0dd2ed67" cx="106.81" cy="442.59" rx="8" ry="6.02" transform="translate(-183.69 92.02) rotate(-26.08)"/><path class="uuid-8db21063-287c-4acc-a512-bbb5252bc182" d="m111.01,440.68c.6,1.22-.77,3.11-3.06,4.23-2.29,1.12-4.62,1.04-5.22-.18-.2-.41-1.95-3.98-2.48-5.06.41-1,4.02,1.57,5.54.83,1.51-.74,1.7-5.17,2.74-4.88l2.48,5.06h0Z"/><ellipse class="uuid-b54f6662-ff09-4ee8-b5f7-c135184e294b" cx="104.47" cy="437.82" rx="4.61" ry="3.55" transform="translate(-181.84 90.5) rotate(-26.08)"/></g><g><ellipse class="uuid-7ac34740-3707-468c-be51-b66a0dd2ed67" cx="87.78" cy="459.18" rx="8" ry="6.02" transform="translate(-192.92 85.34) rotate(-26.08)"/><path class="uuid-8db21063-287c-4acc-a512-bbb5252bc182" d="m91.98,457.27c.6,1.22-.77,3.11-3.06,4.23-2.29,1.12-4.62,1.04-5.22-.18-.2-.41-1.95-3.98-2.48-5.06.41-1,4.02,1.57,5.54.83,1.51-.74,1.7-5.17,2.74-4.88l2.48,5.06h0Z"/><ellipse class="uuid-b54f6662-ff09-4ee8-b5f7-c135184e294b" cx="85.45" cy="454.41" rx="4.61" ry="3.55" transform="translate(-191.07 83.83) rotate(-26.08)"/></g><g><ellipse class="uuid-7ac34740-3707-468c-be51-b66a0dd2ed67" cx="114.47" cy="463.34" rx="8" ry="6.02" transform="translate(-192.04 97.5) rotate(-26.08)"/><path class="uuid-8db21063-287c-4acc-a512-bbb5252bc182" d="m118.67,461.44c.6,1.22-.77,3.11-3.06,4.23-2.29,1.12-4.62,1.04-5.22-.18-.2-.41-1.95-3.98-2.48-5.06.41-1,4.02,1.57,5.54.83,1.51-.74,1.7-5.17,2.74-4.88l2.48,5.06h0Z"/><ellipse class="uuid-b54f6662-ff09-4ee8-b5f7-c135184e294b" cx="112.14" cy="458.57" rx="4.61" ry="3.55" transform="translate(-190.18 95.99) rotate(-26.08)"/></g></g><g><ellipse class="uuid-7ac34740-3707-468c-be51-b66a0dd2ed67" cx="242.28" cy="405.28" rx="8" ry="6.02" transform="translate(-153.5 147.77) rotate(-26.08)"/><path class="uuid-8db21063-287c-4acc-a512-bbb5252bc182" d="m246.48,403.37c.6,1.22-.77,3.11-3.06,4.23-2.29,1.12-4.62,1.04-5.22-.18-.2-.41-1.95-3.98-2.48-5.06.41-1,4.02,1.57,5.54.83,1.51-.74,1.7-5.17,2.74-4.88l2.48,5.06h0Z"/><ellipse class="uuid-b54f6662-ff09-4ee8-b5f7-c135184e294b" cx="239.95" cy="400.51" rx="4.61" ry="3.55" transform="translate(-151.64 146.26) rotate(-26.08)"/></g><g><ellipse class="uuid-3b92c40e-5c35-41fc-a2cd-b71aa1e768f8" cx="443.7" cy="475.25" rx="5.05" ry="5.28" transform="translate(-189.67 328.37) rotate(-33.91)"/><path class="uuid-8db21063-287c-4acc-a512-bbb5252bc182" d="m443.56,472.68c-1.13.76-1.5,2.17-.83,3.16s2.12,1.18,3.24.42l4.68-3.14c.39-.71-.92-1.03-1.36-1.68-.44-.65-.24-1.99-1.04-1.9l-4.68,3.14Z"/><ellipse class="uuid-30e331db-4d21-49fc-9ac1-7c3c1e393256" cx="449.28" cy="471.43" rx="2.12" ry="2.16" transform="translate(-186.59 330.84) rotate(-33.91)"/></g><g><ellipse class="uuid-3b92c40e-5c35-41fc-a2cd-b71aa1e768f8" cx="476.71" cy="485.61" rx="5.05" ry="5.28" transform="translate(-189.83 348.55) rotate(-33.91)"/><path class="uuid-8db21063-287c-4acc-a512-bbb5252bc182" d="m476.58,483.03c-1.13.76-1.5,2.17-.83,3.16s2.12,1.18,3.24.42l4.68-3.14c.39-.71-.92-1.03-1.36-1.68-.44-.65-.24-1.99-1.04-1.9l-4.68,3.14Z"/><ellipse class="uuid-30e331db-4d21-49fc-9ac1-7c3c1e393256" cx="482.3" cy="481.78" rx="2.12" ry="2.16" transform="translate(-186.75 351.02) rotate(-33.91)"/></g><g><ellipse class="uuid-3b92c40e-5c35-41fc-a2cd-b71aa1e768f8" cx="474.12" cy="507.79" rx="5.05" ry="5.28" transform="translate(-202.65 350.88) rotate(-33.91)"/><path class="uuid-8db21063-287c-4acc-a512-bbb5252bc182" d="m473.98,505.22c-1.13.76-1.5,2.17-.83,3.16s2.12,1.18,3.24.42l4.68-3.14c.39-.71-.92-1.03-1.36-1.68-.44-.65-.24-1.99-1.04-1.9l-4.68,3.14Z"/><ellipse class="uuid-30e331db-4d21-49fc-9ac1-7c3c1e393256" cx="479.7" cy="503.97" rx="2.12" ry="2.16" transform="translate(-199.57 353.34) rotate(-33.91)"/></g><g><ellipse class="uuid-3b92c40e-5c35-41fc-a2cd-b71aa1e768f8" cx="441.1" cy="494.64" rx="5.05" ry="5.28" transform="translate(-200.93 330.22) rotate(-33.91)"/><path class="uuid-8db21063-287c-4acc-a512-bbb5252bc182" d="m440.96,492.07c-1.13.76-1.5,2.17-.83,3.16s2.12,1.18,3.24.42l4.68-3.14c.39-.71-.92-1.03-1.36-1.68-.44-.65-.24-1.99-1.04-1.9l-4.68,3.14Z"/><ellipse class="uuid-30e331db-4d21-49fc-9ac1-7c3c1e393256" cx="446.68" cy="490.82" rx="2.12" ry="2.16" transform="translate(-197.85 332.68) rotate(-33.91)"/></g></g></g></g></g></svg>
<svg id="uuid-4f9c58ac-8fff-4862-9c52-f3e315adf08b" data-name="BODY" xmlns="http://www.w3.org/2000/svg" xmlns:xlink="http://www.w3.org/1999/xlink" viewBox="0 0 600 600"><defs><style>
      .uuid-fe807ae8-6d4c-4eb2-9250-b043792de360, .uuid-84bd41ec-755d-4570-bc7d-90640366e08e, .uuid-e86cd3fb-3bee-48a4-9442-0ed97831e34e {
        fill: none;
      }

      .uuid-da94aee9-5a9d-4f5d-9b29-9cde32a1175c, .uuid-afc4803e-77b0-4ecb-b056-33f2566dc0fd {
        fill: #ff78d8;
      }

      .uuid-9e1d4ef1-4fc7-4608-809b-a39c3676a322 {
        fill: #a07bff;
      }

      .uuid-9e1d4ef1-4fc7-4608-809b-a39c3676a322, .uuid-afc4803e-77b0-4ecb-b056-33f2566dc0fd, .uuid-e86cd3fb-3bee-48a4-9442-0ed97831e34e, .uuid-5b11b8c4-4aba-4d0e-97e1-bcb90f636dca {
        stroke: #000;
        stroke-linecap: round;
        stroke-linejoin: round;
        stroke-width: 2px;
      }

      .uuid-84bd41ec-755d-4570-bc7d-90640366e08e {
        clip-path: url(#uuid-908aa4b2-9986-4a9e-8169-3f477676d06c);
      }

      .uuid-5b11b8c4-4aba-4d0e-97e1-bcb90f636dca {
        fill: #f9a723;
      }
    </style><clipPath id="uuid-908aa4b2-9986-4a9e-8169-3f477676d06c"><path class="uuid-fe807ae8-6d4c-4eb2-9250-b043792de360" d="m470.37,263.4c.26.09,13.38,2.76,25.8-5.87,11.13,5.18,27.7,3.16,27.7,3.16,0,0,7.59,12.46,22.69,13.58,4.14,19.42,22.61,26.84,22.61,26.84,0,0-5.52,18.47,8.28,26.58-6.13,14.58,0,28.39,0,28.39,0,0-13.29,9.49-11.3,25.72-11.91.95-17.43,20.71-17.43,20.71l-42.02-54.71s3.66-4.86,2.16-10.1c-1.51-5.24-5.84-7.05-5.84-7.05,0,0,6.9-2.2,6.76-8.63s-7.36-13.75-19.44-11.06l-19.96-47.56h0Z"/></clipPath></defs><g id="uuid-cde481be-4b99-44d5-8b74-25417a789ef0" data-name="uuid-ac3cc490-8b26-46d1-bbbf-b285b8fc2132"><g id="uuid-0dd40599-6585-490b-8145-5052ad5056be" data-name="uuid-d903f005-6b44-47ef-b972-97b0f19dbeba"><g id="uuid-3290c729-ecd5-4a2b-afcc-a27cbc2a6411" data-name="uuid-5c0abff7-8440-4649-be7a-ff1b81cfa8e1"><g><g><path class="uuid-da94aee9-5a9d-4f5d-9b29-9cde32a1175c" d="m470.37,263.4c.26.09,13.38,2.76,25.8-5.87,11.13,5.18,27.7,3.16,27.7,3.16,0,0,7.59,12.46,22.69,13.58,4.14,19.42,22.61,26.84,22.61,26.84,0,0-5.52,18.47,8.28,26.58-6.13,14.58,0,28.39,0,28.39,0,0-13.29,9.49-11.3,25.72-11.91.95-17.43,20.71-17.43,20.71l-42.02-54.71s3.66-4.86,2.16-10.1c-1.51-5.24-5.84-7.05-5.84-7.05,0,0,6.9-2.2,6.76-8.63s-7.36-13.75-19.44-11.06l-19.96-47.56h0Z"/><g class="uuid-84bd41ec-755d-4570-bc7d-90640366e08e"><g><polygon class="uuid-9e1d4ef1-4fc7-4608-809b-a39c3676a322" points="569.18 301.11 506.13 337.1 502.22 333.48 546.57 274.28 569.18 301.11"/><polygon class="uuid-9e1d4ef1-4fc7-4608-809b-a39c3676a322" points="523.87 260.7 505.51 318.75 499.67 315.74 496.17 257.54 523.87 260.7"/><polygon class="uuid-9e1d4ef1-4fc7-4608-809b-a39c3676a322" points="577.46 327.69 506.74 338.29 506.74 342.1 577.46 356.08 577.46 327.69"/><polygon class="uuid-9e1d4ef1-4fc7-4608-809b-a39c3676a322" points="566.15 381.8 506.74 343.68 505.51 347.28 548.72 402.51 566.15 381.8"/></g></g><path class="uuid-e86cd3fb-3bee-48a4-9442-0ed97831e34e" d="m470.37,263.4c.26.09,13.38,2.76,25.8-5.87,11.13,5.18,27.7,3.16,27.7,3.16,0,0,7.59,12.46,22.69,13.58,4.14,19.42,22.61,26.84,22.61,26.84,0,0-5.52,18.47,8.28,26.58-6.13,14.58,0,28.39,0,28.39,0,0-13.29,9.49-11.3,25.72-11.91.95-17.43,20.71-17.43,20.71l-42.02-54.71s3.66-4.86,2.16-10.1c-1.51-5.24-5.84-7.05-5.84-7.05,0,0,6.9-2.2,6.76-8.63s-7.36-13.75-19.44-11.06l-19.96-47.56h0Z"/></g><g><path class="uuid-5b11b8c4-4aba-4d0e-97e1-bcb90f636dca" d="m499.19,358.31c-1.23.68-.81,10.43-.56,11.18.25.74,6.46.56,7.2,0s-.68-11.02-1.61-11.57c-.72-.43-3.91-.22-5.03.4Z"/><g><path class="uuid-afc4803e-77b0-4ecb-b056-33f2566dc0fd" d="m500.89,367.41s-.9,3.24.69,15.05c1.89,14.09,5.31,20.53-6.11,36.39,3.93,2.51,8.03,2.24,8.03,2.24l4.07-5.86s.08,4.89-.18,6.61c2.58.51,3.4-.66,3.4-.66,0,0,5.47-6.71,2.96-22.37s-7.17-15.37-10.39-31.76l-2.48.35h0Z"/><path class="uuid-afc4803e-77b0-4ecb-b056-33f2566dc0fd" d="m506.47,402.9c.65-5.32.04-10.47-1.06-15.34"/><path class="uuid-afc4803e-77b0-4ecb-b056-33f2566dc0fd" d="m499.11,420.5c2.65-3.5,4.48-6.97,5.68-10.4"/></g><path class="uuid-e86cd3fb-3bee-48a4-9442-0ed97831e34e" d="m501.63,357.74c.23-3.61-.96-6.93-.96-6.93"/></g><path class="uuid-e86cd3fb-3bee-48a4-9442-0ed97831e34e" d="m482.49,292.28c5.63-2.22,11.76-3.45,18.18-3.45,27.32,0,49.46,22.14,49.46,49.46,0,16.34-7.92,30.83-20.13,39.83"/><path class="uuid-5b11b8c4-4aba-4d0e-97e1-bcb90f636dca" d="m502.64,348.68c.18.19,42.42,58.69,42.42,58.69l5.63-4.05-43.56-57.65-4.49,3.01h0Z"/><path class="uuid-5b11b8c4-4aba-4d0e-97e1-bcb90f636dca" d="m486.22,312.51l-22.65-48.86,7.89-2.67,20.17,49.78s-2.26.32-5.41,1.75h0Z"/><g><path class="uuid-5b11b8c4-4aba-4d0e-97e1-bcb90f636dca" d="m511.55,340.68c0,5.61-4.55,10.16-10.16,10.16s-10.16-4.55-10.16-10.16c0-4.45,2.86-8.23,6.84-9.6,1.42.16,3.32.04,4.95-.43,4.84.78,8.53,4.97,8.53,10.03h0Z"/><circle class="uuid-e86cd3fb-3bee-48a4-9442-0ed97831e34e" cx="501.39" cy="340.68" r="4.12"/></g><path class="uuid-e86cd3fb-3bee-48a4-9442-0ed97831e34e" d="m547.58,292.44c-2.14,4.11-2.31,9.19-.44,13.43"/><path class="uuid-e86cd3fb-3bee-48a4-9442-0ed97831e34e" d="m539.62,294.42l-1,3.3"/><path class="uuid-e86cd3fb-3bee-48a4-9442-0ed97831e34e" d="m505.38,269.24c.08,4.78,1.77,9.52,4.73,13.27"/><path class="uuid-e86cd3fb-3bee-48a4-9442-0ed97831e34e" d="m486.17,274.47l2.24,3.9"/><path class="uuid-e86cd3fb-3bee-48a4-9442-0ed97831e34e" d="m568.3,339.57c-3.29.51-6.45,1.86-9.1,3.88"/><path class="uuid-e86cd3fb-3bee-48a4-9442-0ed97831e34e" d="m551.17,384.34c-3.35-1.41-7.17-1.66-10.68-.68"/><path class="uuid-e86cd3fb-3bee-48a4-9442-0ed97831e34e" d="m548.44,377.66c-1.59-.34-3.24-.35-4.83,0"/></g></g></g></g></svg>
<svg id="uuid-a3f28a2b-9461-4e4d-b00c-2d487f48f076" data-name="BODY" xmlns="http://www.w3.org/2000/svg" viewBox="0 0 600 600"><defs><style>
      .uuid-acb057e4-f306-4fba-b40b-dbc41b13acec {
        fill: #ff78d8;
      }

      .uuid-acb057e4-f306-4fba-b40b-dbc41b13acec, .uuid-aceaffa3-efee-4308-a432-20436515d004, .uuid-d8124620-b43e-4bc1-beb5-309127ff787b {
        stroke: #000;
        stroke-linecap: round;
        stroke-linejoin: round;
        stroke-width: 2px;
      }

      .uuid-aceaffa3-efee-4308-a432-20436515d004 {
        fill: #00dfa9;
      }

      .uuid-d8124620-b43e-4bc1-beb5-309127ff787b {
        fill: none;
      }
    </style></defs><g id="uuid-e8139ec1-edd0-4f0d-8fd4-48880cb3b56d" data-name="uuid-cf5c384c-56be-4047-b09e-8fa456ae6f54"><g id="uuid-1c116393-5c5f-40bc-a11f-a356b6e372f0" data-name="uuid-4260774e-7531-4491-80c5-0b19b5b0241d"><g><path class="uuid-acb057e4-f306-4fba-b40b-dbc41b13acec" d="m201.92,231.71s-2.8-9.09,2.15-14.96c0,0-6.16-4.45-6.83-14.26-.95-13.86,8.76-19.32,8.76-19.32,0,0-8.28-17.27,7.18-29.43,11.83-9.3,25.99-2.22,25.99-2.22,0,0,6.05-13.07,20.43-14.36,13.55-1.21,18,5.76,18,5.76,0,0,16.37-12.58,27.61,7.79,0,0,14.36.61,11.53,11.53,0,0,12.74-3.44,19.31,8.49,6.57,11.93-.77,20.29-.77,20.29,0,0-10.85,13.76-61.62,30.66-50.77,16.9-70.37,14.46-71.73,10.02h0Z"/><g><path class="uuid-d8124620-b43e-4bc1-beb5-309127ff787b" d="m205.99,183.18c10.42-6.47,20.83-4.65,20.83-4.65,0,0,2-10.05,15.78-13.33,14.87-3.54,23.45,5.45,23.45,5.45"/><path class="uuid-d8124620-b43e-4bc1-beb5-309127ff787b" d="m229.73,172.86c-6.44.41-8.97-4.04-8.97-4.04"/><path class="uuid-d8124620-b43e-4bc1-beb5-309127ff787b" d="m239.16,151.52c-2.83,5.36-2.12,9.71-2.12,9.71"/><path class="uuid-d8124620-b43e-4bc1-beb5-309127ff787b" d="m302.46,169.32c11.93,5.36,9.91,17.9,9.91,17.9"/><path class="uuid-d8124620-b43e-4bc1-beb5-309127ff787b" d="m323.33,200.12c-7.52-15.33-23.26-15.33-23.26-15.33"/><path class="uuid-d8124620-b43e-4bc1-beb5-309127ff787b" d="m294.39,193.41s-2.14,12.32-17.71,14.95c-15.57,2.63-23.36-8.9-23.36-8.9"/><path class="uuid-d8124620-b43e-4bc1-beb5-309127ff787b" d="m261.47,206.23c-3.81,5.97-3.5,12.54-3.5,12.54"/><path class="uuid-d8124620-b43e-4bc1-beb5-309127ff787b" d="m244.19,230.3c-13.83-6.37-4.93-22.35-4.93-22.35"/><path class="uuid-d8124620-b43e-4bc1-beb5-309127ff787b" d="m236.44,218.46c-10.33-2.52-16.9,7.08-16.9,7.08"/><path class="uuid-d8124620-b43e-4bc1-beb5-309127ff787b" d="m204.07,216.75c1.89-2.6,5.39-3.91,5.39-3.91"/><path class="uuid-d8124620-b43e-4bc1-beb5-309127ff787b" d="m289.91,201.67c2.91,4.46,9.02,3.19,9.02,3.19"/></g><g><g><g><path class="uuid-aceaffa3-efee-4308-a432-20436515d004" d="m198.41,193.59s-2.9-10.08-22.72-17.9c-19.82-7.82-31.55.44-48-4.36-16.45-4.81-20.9-12.96-22.18-15.52-1.28-2.56-3.44-1.75-3.57.88s1.28,15.98.4,17.53-9.03,3.51-11.6,3.78-3.98,3.24,3.84,6.4,17.16,5.56,33.84,3.84c16.69-1.72,25.08-7.69,42.67-4.85,17.6,2.83,25.08,17.39,25.08,17.39l2.22-7.18h0Z"/><path class="uuid-aceaffa3-efee-4308-a432-20436515d004" d="m102.34,174.21c8.36,4.92,22.65,5.46,22.65,5.46"/></g><g><path class="uuid-aceaffa3-efee-4308-a432-20436515d004" d="m194.01,200.97c-15.73-11.73-32.01-7.28-36.46,2.63-4.45,9.91-4.57,16.51-11.8,31.37-7.51,15.42-15.96,16.35-17.6,15.22-2.43-1.69,1.42-9.44.34-12.34-1.08-2.9-4.92-1.21-9.71-2.76-4.79-1.55-6.67-3.61-6-5.26.77-1.89,12.4-3.67,22.72-15.4,10.31-11.73,11.22-26.6,30.03-29.93,19.09-3.39,30.44,13.52,30.44,13.52l-1.97,2.97h0Z"/><path class="uuid-aceaffa3-efee-4308-a432-20436515d004" d="m128.04,237.06s6.65-3.62,12.42-13.23"/></g></g><g><path class="uuid-aceaffa3-efee-4308-a432-20436515d004" d="m204.57,178.91s.87,3.36,1.42,4.27c0,0-4.22,2.27-6.59,7.49,7.67.09,30.16-6.48,57.66-18.61,27.51-12.13,39.11-21.96,44.03-27.19,0,0-1.71-1.93-3.27-2.91,0,0,3.63-6.71,10-5.14,6.37,1.57,3.24,9.35,9.2,14.01s11.93,6.27,8.65,12.39c-3.29,6.12-27.76,23.21-70.03,34.74-42.27,11.53-59.01,7.08-61.69,5.97-2.68-1.11-2.38-4.5-.4-7.03,1.97-2.53-3.17-5.28-.2-10.13s11.22-7.84,11.22-7.84h0Z"/><g><path class="uuid-d8124620-b43e-4bc1-beb5-309127ff787b" d="m194.01,195.71c11.07,2.68,22.55.66,22.55.66"/><path class="uuid-d8124620-b43e-4bc1-beb5-309127ff787b" d="m307.48,153.95c-21.6,19.72-55.78,32.04-55.78,32.04"/><path class="uuid-d8124620-b43e-4bc1-beb5-309127ff787b" d="m311.72,162.9c-10.11,4.4-17.85,11.43-17.85,11.43"/></g></g></g><g><path d="m269.96,160.23c2.11.34,3.34-1.98,5.73-3.3,2.39-1.32,4.9-.52,5.46-2.74.48-1.9-3.02-5.03-8.6-2.08-5.34,2.83-4.14,7.86-2.59,8.11Z"/><path d="m255.89,140.45c-1.53,1.45-1.61,3.12-2.79,5.31s-3.13,3.79-2.79,4.93c.29.98,3.51-.3,6.31-5.39,2.68-4.87.4-5.91-.73-4.85h0Z"/><path d="m274.07,131.5c2.09-.33,3.45.62,5.91,1.02,2.46.4,4.91-.17,5.61.79.6.83-2.38,2.6-8.12,1.72-5.5-.84-4.93-3.29-3.4-3.53h0Z"/><ellipse cx="261.76" cy="152.85" rx="3.79" ry="4.5" transform="translate(-40.6 131.44) rotate(-26.23)"/><ellipse cx="280.33" cy="143.71" rx="3.79" ry="4.5" transform="translate(-34.65 138.7) rotate(-26.23)"/></g></g></g></g></svg>
</svg>