<?xml version="1.0" encoding="UTF-8"?>
<svg xmlns="http://www.w3.org/2000/svg" viewBox="0 0 600 600">
<svg id="uuid-2ea87d43-c6ef-40cc-a87c-887da2835b1b" data-name="BACKGROUND" xmlns="http://www.w3.org/2000/svg" viewBox="0 0 600 600"><defs><style>
      .uuid-17cb9272-29e7-4ef7-9290-dab5baec4708 {
        fill: #8400ff;
      }
    </style></defs><rect class="uuid-17cb9272-29e7-4ef7-9290-dab5baec4708" x="-1" y="-1" width="602" height="602"/></svg>
<svg id="uuid-09dbe01b-fc39-4c48-9143-1b11829ee622" data-name="BODY" xmlns="http://www.w3.org/2000/svg" viewBox="0 0 600 600"><defs><style>
      .uuid-0e068f93-a4ce-4525-bc73-042279753465, .uuid-896c9f2e-4bdd-438c-b20a-d49b9a988943, .uuid-f61e2b2e-680e-4412-a25d-9c4f1d374aaa, .uuid-9d2bc652-0f8d-4f45-83f6-147ae07b83ac, .uuid-a8310226-7f3d-4492-965e-668c558de2ee {
        stroke: #000;
        stroke-width: 2px;
      }

      .uuid-0e068f93-a4ce-4525-bc73-042279753465, .uuid-896c9f2e-4bdd-438c-b20a-d49b9a988943, .uuid-9d2bc652-0f8d-4f45-83f6-147ae07b83ac, .uuid-a8310226-7f3d-4492-965e-668c558de2ee {
        fill: #7aa6ff;
      }

      .uuid-0e068f93-a4ce-4525-bc73-042279753465, .uuid-f61e2b2e-680e-4412-a25d-9c4f1d374aaa, .uuid-9d2bc652-0f8d-4f45-83f6-147ae07b83ac {
        stroke-linecap: round;
      }

      .uuid-0e068f93-a4ce-4525-bc73-042279753465, .uuid-f61e2b2e-680e-4412-a25d-9c4f1d374aaa, .uuid-a8310226-7f3d-4492-965e-668c558de2ee {
        stroke-linejoin: round;
      }

      .uuid-4e485c41-11e0-491a-aac2-66b77ba2e3f7 {
        fill: #fff;
      }

      .uuid-896c9f2e-4bdd-438c-b20a-d49b9a988943, .uuid-9d2bc652-0f8d-4f45-83f6-147ae07b83ac {
        stroke-miterlimit: 10;
      }

      .uuid-f61e2b2e-680e-4412-a25d-9c4f1d374aaa {
        fill: none;
      }
    </style></defs><ellipse cx="300" cy="518.65" rx="138.6" ry="22.93"/><g><path class="uuid-896c9f2e-4bdd-438c-b20a-d49b9a988943" d="m319.36,427.14c-1.16,1.05-54.95,57-54.95,57,0,0,21.51-1.95,31.74,10.62,10.23,12.57,7.26,23.89,7.26,23.89h-66.9s-28.69-36.17-28.69-36.17c0,0,3.74-13.4,20.44-10.59,20.9-19.38,55.52-59.13,55.52-59.13l35.59,14.38Z"/><path d="m283.78,412.76l31.28,12.64-3.24,9.5c-2.93,3.03-9.76,10.12-13.64,14.14-11.92,0-27.98-2.13-41.33-6.37,13.95-15.1,26.93-29.92,26.93-29.92Z"/></g><g><path class="uuid-0e068f93-a4ce-4525-bc73-042279753465" d="m409.81,359.6c9.2,3.77,29.89,12.05,42.79,16.03,2.11.65,4.41.69,6.5-.04,11.79-4.08,28.47-11.39,33.03-11.32,5.25.08,7.8,3.93,19.88,2.04,13.36-2.1,22.43-11.99,20.93-23.3-4.21-43.28-25.18-26.79-25.18-26.79,0,0-5.84-8.75-18.76-4.82-11.83,3.6-10.2,14.44-6.47,22.47l-25.29,8.58c-2.14.72-4.45.71-6.59-.02l-35.7-12.61"/><path class="uuid-9d2bc652-0f8d-4f45-83f6-147ae07b83ac" d="m533.36,312.82c2.5,3.94,1.62,9.14-1.57,12.4-2.47,2.53-5.88,3.88-9.32,4.4-2.8.43-5.7.42-8.49-.08-2.14-.39-4.29-1.1-5.79-2.75-1.66-1.83-2.27-4.46-1.98-6.87.51-4.17,3.84-7.14,7.22-9.26,3.17-1.98,6.86-3.26,10.64-3.09,3.8.18,7.36,2.19,9.3,5.24Z"/><path class="uuid-9d2bc652-0f8d-4f45-83f6-147ae07b83ac" d="m538.57,349.84c.97,3.03.32,6.43-1.5,9.01-3.77,5.33-11.17,5.65-16.96,4.27-3.31-.79-6.69-2.21-8.67-5.13-3.13-4.61-.82-9.79,3.48-12.56,2.58-1.66,5.61-2.67,8.63-3.14,5.73-.89,13.1,1.51,15.03,7.56Z"/><path class="uuid-9d2bc652-0f8d-4f45-83f6-147ae07b83ac" d="m538.71,328.53c1.8,2.99,2.06,6.89.22,9.9-1.95,3.2-4.94,5.25-8.49,6.28-3.66,1.07-7.64,1.27-11.4.44-2.25-.5-4.53-1.38-5.96-3.28-1.86-2.47-1.89-5.68-.85-8.49,1.2-3.24,4.17-5.69,7.09-7.37,6.15-3.56,15.21-4.43,19.39,2.52Z"/><path class="uuid-9d2bc652-0f8d-4f45-83f6-147ae07b83ac" d="m501.85,311.68s9.27,3.84,7.77,12.02c-1.04,5.68-8.17,9.55-14.94,6.13"/><path class="uuid-f61e2b2e-680e-4412-a25d-9c4f1d374aaa" d="m500.67,331.08c2.41,1.63,5.11,8.04,3.4,14.42"/><path d="m443.44,339.88c-2.88,10.58-6.94,20.23-11.17,28.59-10.17-3.78-21.16-9.53-27-11.93l11.83-26.02,26.35,9.36Z"/></g><g><circle class="uuid-896c9f2e-4bdd-438c-b20a-d49b9a988943" cx="300" cy="300" r="138.16"/><path class="uuid-4e485c41-11e0-491a-aac2-66b77ba2e3f7" d="m184.58,308.17c-4.41,0-7.98-3.57-7.98-7.98,0-67.74,55.11-122.86,122.86-122.86,4.41,0,7.98,3.57,7.98,7.98s-3.57,7.98-7.98,7.98c-58.94,0-106.9,47.95-106.9,106.9,0,4.41-3.57,7.98-7.98,7.98Z"/></g><path class="uuid-f61e2b2e-680e-4412-a25d-9c4f1d374aaa" d="m264.41,484.14c-4.06.49-11.49,1.36-17.85,7.23"/><path class="uuid-4e485c41-11e0-491a-aac2-66b77ba2e3f7" d="m185.17,308.14c-4.41,0-7.98-3.57-7.98-7.98,0-67.74,55.11-122.86,122.86-122.86,4.41,0,7.98,3.57,7.98,7.98s-3.57,7.98-7.98,7.98c-58.94,0-106.9,47.95-106.9,106.9,0,4.41-3.57,7.98-7.98,7.98Z"/><path d="m203.75,397.46l34.2-27.46-24.86,36.3c-6.73-5.1-3.66-2.61-9.34-8.83Z"/><path class="uuid-a8310226-7f3d-4492-965e-668c558de2ee" d="m323.72,387.31c19.14-13.4,39.15-11.3,55.52,7.36,19.6,22.35,30.57,33.06,30.57,33.06,0,0,10.74-19.34,34.77-17.5,18.26,1.4,24.84,14.43,24.84,14.43,0,0,6.21,8.82-22.45,33.5-28.66,24.68-54.93,40.92-61.14,29.46-6.21-11.46-2.82-32.1-2.82-32.1,0,0-22.02-26.09-27.94-32.01-6.79-6.79-15.71-1.36-15.71-1.36"/><path class="uuid-896c9f2e-4bdd-438c-b20a-d49b9a988943" d="m446.97,458.17c-25.89,22.29-49.82,37.69-58.79,32.02-9.77-7.44,26.84-38.54,44.88-52.7,18.04-14.16,32.17-17.82,36.36-12.81,0,0,6.21,8.82-22.45,33.5Z"/><path class="uuid-f61e2b2e-680e-4412-a25d-9c4f1d374aaa" d="m409.81,427.74c-1.89,2.86-4.55,10.38-4.55,10.38"/><g><path class="uuid-0e068f93-a4ce-4525-bc73-042279753465" d="m214.11,345.7c-8.05,5.83-25.34,20.79-35.52,29.67-1.67,1.45-2.82,3.41-3.39,5.55-3.14,11.67-8.55,33.44-8.55,33.44,0,0-8.42.58-12.19,14.35-3.64,13.3-6.64,25.06,3.77,29.75.35,7.47,7.51,15.45,19.2,9.41.14-.06,1.32,1.32,1.44,1.45,2.64,2.7,6.36,4.45,10.13,4.81,3.65.36,7.61-.67,10.43-3.08,3.29-2.81,5.4-6.94,6.05-11.2.4-2.61.26-5.31-.75-7.78,0,0,6.2-2.51,8.05-11.34,1.99-9.49-4.22-19.42-14.62-18.18l6.17-23.11c.51-2.2,1.74-4.16,3.49-5.59l29.38-24.3"/><path class="uuid-f61e2b2e-680e-4412-a25d-9c4f1d374aaa" d="m204.73,452.06c-1.37-3.47-5.39-7.08-9-6.88"/><path class="uuid-f61e2b2e-680e-4412-a25d-9c4f1d374aaa" d="m178.86,469.3c-5.16-5.27-3.82-11.97-2.9-13.54"/><path class="uuid-f61e2b2e-680e-4412-a25d-9c4f1d374aaa" d="m158.22,458.45c-.27-5.22.73-7.32,3.06-9.83"/><path class="uuid-f61e2b2e-680e-4412-a25d-9c4f1d374aaa" d="m193.93,450.63c.14-2.07.48-4.16,1.32-6.06.85-1.95,2.36-3.88,4.31-4.85"/></g></svg>
<svg id="uuid-d68fbb24-c0f3-4dee-920e-134d781fb2e1" data-name="BODY" xmlns="http://www.w3.org/2000/svg" viewBox="0 0 600 600"><path d="m378.79,259.75c-1.76-5.11-7.33-7.82-12.44-6.06s-7.82,7.33-6.06,12.44"/><circle cx="362.12" cy="293.18" r="9.78" transform="translate(-9.59 12.26) rotate(-1.91)"/><path d="m346.88,270.76c-1.76-5.11-7.33-7.82-12.44-6.06-5.11,1.76-7.82,7.33-6.06,12.44"/></svg>
<svg id="uuid-55ecc028-236b-4107-a473-b463f673f86d" data-name="BODY" xmlns="http://www.w3.org/2000/svg" xmlns:xlink="http://www.w3.org/1999/xlink" viewBox="0 0 600 600"><defs><style>
      .uuid-f7cf47f1-387c-40c0-8451-efa3e1f48bb3, .uuid-6ab753ec-842d-4635-8bda-4f11118cf21d, .uuid-e45dda09-b6fd-469a-8eb9-5847bc51013b, .uuid-b4015b0b-b5a2-4504-ab5f-b3dc7c0f0bea, .uuid-b1a063f9-d398-49ac-8717-dedd55fd17c7 {
        fill: none;
      }

      .uuid-6ab753ec-842d-4635-8bda-4f11118cf21d {
        clip-path: url(#uuid-cd30974c-211b-420c-b621-0d4b41918d4b);
      }

      .uuid-e45dda09-b6fd-469a-8eb9-5847bc51013b {
        clip-path: url(#uuid-0ad76e5b-fc91-46c9-818d-ed4d146208f8);
      }

      .uuid-8a193521-0ef5-4407-9ee8-bb4ebcd57992, .uuid-acba282c-cbdd-4fe6-aee3-1b2aaa578edb, .uuid-d76bb13e-79ef-4d22-868e-758f3fc81ba4, .uuid-7ca8cd12-c4ef-474d-b7e8-9ac616bc8090, .uuid-53cbd553-6925-4261-892e-503624ed011f, .uuid-8318a3fb-8d6a-4db7-b071-a15a473496d3, .uuid-93feedb8-91e3-42a2-bd0a-197c246fdb2b, .uuid-aa1376c1-8f7a-4198-be7e-f0dfeb7eba4b, .uuid-b4015b0b-b5a2-4504-ab5f-b3dc7c0f0bea, .uuid-b1a063f9-d398-49ac-8717-dedd55fd17c7 {
        stroke: #000;
        stroke-linecap: round;
        stroke-linejoin: round;
      }

      .uuid-8a193521-0ef5-4407-9ee8-bb4ebcd57992, .uuid-acba282c-cbdd-4fe6-aee3-1b2aaa578edb, .uuid-124c2ab5-3017-4aff-88c5-916403019659 {
        fill: #7aa6ff;
      }

      .uuid-8a193521-0ef5-4407-9ee8-bb4ebcd57992, .uuid-7ca8cd12-c4ef-474d-b7e8-9ac616bc8090, .uuid-53cbd553-6925-4261-892e-503624ed011f, .uuid-93feedb8-91e3-42a2-bd0a-197c246fdb2b, .uuid-b4015b0b-b5a2-4504-ab5f-b3dc7c0f0bea {
        stroke-width: 2px;
      }

      .uuid-acba282c-cbdd-4fe6-aee3-1b2aaa578edb, .uuid-8318a3fb-8d6a-4db7-b071-a15a473496d3, .uuid-aa1376c1-8f7a-4198-be7e-f0dfeb7eba4b, .uuid-b1a063f9-d398-49ac-8717-dedd55fd17c7 {
        stroke-width: 2px;
      }

      .uuid-d76bb13e-79ef-4d22-868e-758f3fc81ba4 {
        stroke-width: 2px;
      }

      .uuid-d76bb13e-79ef-4d22-868e-758f3fc81ba4, .uuid-7ca8cd12-c4ef-474d-b7e8-9ac616bc8090 {
        fill: #8400ff;
      }

      .uuid-66f64252-28db-40bd-8f2c-f28f22893256 {
        fill: #fff7f0;
      }

      .uuid-53cbd553-6925-4261-892e-503624ed011f, .uuid-8318a3fb-8d6a-4db7-b071-a15a473496d3 {
        fill: #a07bff;
      }

      .uuid-93feedb8-91e3-42a2-bd0a-197c246fdb2b, .uuid-aa1376c1-8f7a-4198-be7e-f0dfeb7eba4b {
        fill: #00dfa9;
      }
    </style><clipPath id="uuid-0ad76e5b-fc91-46c9-818d-ed4d146208f8"><rect class="uuid-f7cf47f1-387c-40c0-8451-efa3e1f48bb3" x="16.46" y="333.04" width="288" height="266.96"/></clipPath><clipPath id="uuid-cd30974c-211b-420c-b621-0d4b41918d4b"><rect class="uuid-f7cf47f1-387c-40c0-8451-efa3e1f48bb3" x="184.41" y="448.21" width="13.5" height="71.81" transform="translate(-328.3 516.71) rotate(-72.04)"/></clipPath></defs><g id="uuid-c271d4e6-0ed9-43ec-a6eb-586182258769" data-name="uuid-aa1a3761-725c-4c6a-bb08-3b927dabb1b6"><g class="uuid-e45dda09-b6fd-469a-8eb9-5847bc51013b"><g><g><polygon class="uuid-8a193521-0ef5-4407-9ee8-bb4ebcd57992" points="91.61 442.3 86.94 440.79 114.36 362.08 115.56 362.47 91.61 442.3"/><circle class="uuid-8a193521-0ef5-4407-9ee8-bb4ebcd57992" cx="114.96" cy="362.27" r="3.66"/></g><g><path class="uuid-53cbd553-6925-4261-892e-503624ed011f" d="m250.78,490.94l-162.48-40.18c-2.64-.86-5.48.59-6.33,3.23l-6.05,18.67c-.86,2.64.59,5.48,3.23,6.33l168.95,54.76c2.64.86,5.48-.59,6.33-3.23l6.05-18.67c.45-1.38.27-2.81-.38-3.98-.6-1.08-8.05-16.51-9.32-16.92h0Z"/><path class="uuid-aa1376c1-8f7a-4198-be7e-f0dfeb7eba4b" d="m80.92,435.35l167.79,54.38c2.96.96,4.58,4.14,3.62,7.1l-7.41,22.87-178.52-57.86,7.41-22.87c.96-2.96,4.14-4.58,7.1-3.62Z"/><g><polygon class="uuid-53cbd553-6925-4261-892e-503624ed011f" points="144.41 476.06 94.59 459.91 105.57 449.28 155.39 465.42 144.41 476.06"/><g><line class="uuid-b4015b0b-b5a2-4504-ab5f-b3dc7c0f0bea" x1="126.49" y1="470.25" x2="137.47" y2="459.61"/><line class="uuid-b4015b0b-b5a2-4504-ab5f-b3dc7c0f0bea" x1="119.33" y1="467.93" x2="130.31" y2="457.3"/><line class="uuid-b4015b0b-b5a2-4504-ab5f-b3dc7c0f0bea" x1="112.52" y1="465.72" x2="123.5" y2="455.09"/></g></g><g><rect class="uuid-124c2ab5-3017-4aff-88c5-916403019659" x="184.41" y="448.21" width="13.5" height="71.81" transform="translate(-328.3 516.71) rotate(-72.04)"/><g class="uuid-6ab753ec-842d-4635-8bda-4f11118cf21d"><g><polygon class="uuid-66f64252-28db-40bd-8f2c-f28f22893256" points="210.04 497.33 194.4 492.26 205.38 481.62 221.02 486.69 210.04 497.33"/><polygon class="uuid-66f64252-28db-40bd-8f2c-f28f22893256" points="187.58 490.05 179.76 487.51 190.74 476.88 198.56 479.41 187.58 490.05"/><polygon class="uuid-66f64252-28db-40bd-8f2c-f28f22893256" points="165.85 483 161.25 481.51 172.23 470.88 176.83 472.37 165.85 483"/></g></g><rect class="uuid-b1a063f9-d398-49ac-8717-dedd55fd17c7" x="184.41" y="448.21" width="13.5" height="71.81" transform="translate(-328.3 516.71) rotate(-72.04)"/></g><g><line class="uuid-b4015b0b-b5a2-4504-ab5f-b3dc7c0f0bea" x1="78.63" y1="440.55" x2="93.51" y2="445.37"/><line class="uuid-b4015b0b-b5a2-4504-ab5f-b3dc7c0f0bea" x1="74.47" y1="453.39" x2="89.35" y2="458.21"/><line class="uuid-b4015b0b-b5a2-4504-ab5f-b3dc7c0f0bea" x1="76.55" y1="446.97" x2="91.43" y2="451.79"/></g><g><line class="uuid-b4015b0b-b5a2-4504-ab5f-b3dc7c0f0bea" x1="232.2" y1="490.32" x2="247.07" y2="495.14"/><line class="uuid-b4015b0b-b5a2-4504-ab5f-b3dc7c0f0bea" x1="228.03" y1="503.16" x2="242.91" y2="507.98"/><line class="uuid-b4015b0b-b5a2-4504-ab5f-b3dc7c0f0bea" x1="230.12" y1="496.74" x2="244.99" y2="501.56"/></g></g><g><path class="uuid-7ca8cd12-c4ef-474d-b7e8-9ac616bc8090" d="m232.92,608.52l-188.32-61.03c-.83-.27-1.47-.85-1.83-1.56s-6.8-12.03-6.53-12.86l30.07-62.74c.54-1.65,2.31-2.56,3.96-2.02l183.3,49.39c.76.25,6.38,12.41,6.76,13.05.44.75.57,1.67.28,2.56l-23.72,73.19c-.54,1.65-2.31,2.56-3.96,2.02h0Z"/><rect class="uuid-8318a3fb-8d6a-4db7-b071-a15a473496d3" x="103.55" y="423.69" width="83.23" height="204.26" rx="3.15" ry="3.15" transform="translate(-399.79 501.8) rotate(-72.04)"/><line class="uuid-b4015b0b-b5a2-4504-ab5f-b3dc7c0f0bea" x1="235.39" y1="608.29" x2="228.96" y2="595.7"/></g><g><circle class="uuid-8a193521-0ef5-4407-9ee8-bb4ebcd57992" cx="85.25" cy="506.4" r="31.66"/><circle class="uuid-93feedb8-91e3-42a2-bd0a-197c246fdb2b" cx="85.25" cy="506.4" r="24.87"/><circle class="uuid-b4015b0b-b5a2-4504-ab5f-b3dc7c0f0bea" cx="86.2" cy="506.71" r="19.13"/><circle class="uuid-7ca8cd12-c4ef-474d-b7e8-9ac616bc8090" cx="87.39" cy="507.09" r="6.32"/></g><g><circle class="uuid-8a193521-0ef5-4407-9ee8-bb4ebcd57992" cx="203.53" cy="544.73" r="31.66"/><circle class="uuid-93feedb8-91e3-42a2-bd0a-197c246fdb2b" cx="203.53" cy="544.73" r="24.87"/><circle class="uuid-b4015b0b-b5a2-4504-ab5f-b3dc7c0f0bea" cx="204.48" cy="545.04" r="19.13"/><circle class="uuid-7ca8cd12-c4ef-474d-b7e8-9ac616bc8090" cx="205.67" cy="545.43" r="6.32"/></g><g><g><rect class="uuid-b1a063f9-d398-49ac-8717-dedd55fd17c7" x="148.01" y="499.61" width="7.15" height="12.83" transform="translate(-376.53 494.21) rotate(-72.04)"/><circle class="uuid-b4015b0b-b5a2-4504-ab5f-b3dc7c0f0bea" cx="138.27" cy="501.71" r="3.57"/><circle class="uuid-b4015b0b-b5a2-4504-ab5f-b3dc7c0f0bea" cx="164.89" cy="510.34" r="3.57"/></g><rect class="uuid-b1a063f9-d398-49ac-8717-dedd55fd17c7" x="138.18" y="482.66" width="26.81" height="46.72" rx="3.97" ry="3.97" transform="translate(-376.53 494.21) rotate(-72.04)"/></g><g><polygon class="uuid-7ca8cd12-c4ef-474d-b7e8-9ac616bc8090" points="157.51 563.5 113.06 549.1 109.84 542.79 121.33 523.59 162.56 531.69 165.78 538 157.51 563.5"/><rect class="uuid-acba282c-cbdd-4fe6-aee3-1b2aaa578edb" x="122.8" y="513.88" width="26.81" height="46.72" transform="translate(-416.86 501.17) rotate(-72.04)"/><polyline class="uuid-b4015b0b-b5a2-4504-ab5f-b3dc7c0f0bea" points="127.51 553.78 124.28 547.45 132.54 521.96"/><polyline class="uuid-b4015b0b-b5a2-4504-ab5f-b3dc7c0f0bea" points="142.78 558.73 139.55 552.4 147.81 526.91"/><line class="uuid-b4015b0b-b5a2-4504-ab5f-b3dc7c0f0bea" x1="154.29" y1="557.19" x2="157.51" y2="563.5"/></g><path class="uuid-53cbd553-6925-4261-892e-503624ed011f" d="m245.96,586.54c-.21.07-5.45.56-5.62.5-2.11-.68-.82-10.51,2.89-21.95,3.71-11.44,8.43-20.16,10.54-19.47.1.03,4.15,3.73,4.23,3.8,1.73,1.42-9.72,36.37-12.03,37.12h0Z"/><ellipse class="uuid-d76bb13e-79ef-4d22-868e-758f3fc81ba4" cx="252" cy="567.93" rx="19.46" ry="4.02" transform="translate(-365.96 632.55) rotate(-72.04)"/><g><path class="uuid-53cbd553-6925-4261-892e-503624ed011f" d="m152.45,436.42s.66-2.76,1.4-5.54,1.09-4.12,1.09-4.12c0,0-5.88-2.19-9.8-3.46-3.92-1.27-6.41-1.17-9.39,1.94-2.97,3.11-15.92,22.72-15.92,22.72l15.96,5.17s5.87-11.48,7.58-14.75,3.7-3.7,9.07-1.96h0Z"/><path class="uuid-7ca8cd12-c4ef-474d-b7e8-9ac616bc8090" d="m152.45,436.42s.5-2.1,1.12-4.48c-2.12-.62-4.79-1.37-5.52-1.61-2.23-.72-4.92-2.05-9.31,5.29-3.09,5.15-7.16,11.9-9.31,15.45h0l6.37,2.06s5.87-11.48,7.58-14.75c1.71-3.27,3.7-3.7,9.07-1.96Z"/></g><g><path class="uuid-53cbd553-6925-4261-892e-503624ed011f" d="m194.13,449.15s.25-2.82,1.22-4.81c1.13-2.3,2.73-3.64,2.73-3.64,0,0,24.75,7.78,28.66,9.04,3.92,1.27,5.88,2.81,6.46,7.08s-.43,27.74-.43,27.74l-15.96-5.17s1.99-12.74,2.51-16.4c.24-1.66.18-2.89-.46-3.9-.31-.49-.76-.93-1.38-1.34-.91-.6-21.63-8.04-23.37-8.61h0Z"/><path class="uuid-7ca8cd12-c4ef-474d-b7e8-9ac616bc8090" d="m233.21,456.83c-.58-4.26-2.55-5.81-6.46-7.08l-1.83-.59c7.01,2.27,2.46,33.66,2.46,33.66l5.4,1.75s1.02-23.47.43-27.74h0Z"/><path class="uuid-7ca8cd12-c4ef-474d-b7e8-9ac616bc8090" d="m218.87,459.1c.39.62.55,1.34.57,2.18.05-2.37-.14-7.25-2.42-7.99-2.34-.76-16.13-5.17-22.32-7.15-.43,1.56-.56,3.02-.56,3.02,1.74.56,22.46,8,23.37,8.61.62.41,1.07.85,1.38,1.34h0Z"/></g></g></g></g></svg>
<svg id="uuid-2f504206-111c-4779-9236-233d24245c5e" data-name="BODY" xmlns="http://www.w3.org/2000/svg" xmlns:xlink="http://www.w3.org/1999/xlink" viewBox="0 0 600 600"><defs><style>
      .uuid-d3edaed5-c7c6-4c4d-aa40-9a4dd8648ee7, .uuid-68d6c310-ce9e-402f-977e-09a9487d1f3f, .uuid-c55da662-6359-43da-9ece-79f419a77998 {
        fill: none;
      }

      .uuid-a378b470-e58b-414a-9aaa-c42cc7401d46, .uuid-ec8004b7-0527-439b-bc6e-4b5df54d70f5, .uuid-a970ff5c-387f-4ed2-bc98-796834b27354 {
        fill: #7aa6ff;
      }

      .uuid-a378b470-e58b-414a-9aaa-c42cc7401d46, .uuid-ec8004b7-0527-439b-bc6e-4b5df54d70f5, .uuid-68d6c310-ce9e-402f-977e-09a9487d1f3f, .uuid-5f18a3b5-25e8-4b4a-92b0-9c895b96bdd6 {
        stroke: #000;
        stroke-linecap: round;
        stroke-linejoin: round;
      }

      .uuid-a378b470-e58b-414a-9aaa-c42cc7401d46, .uuid-68d6c310-ce9e-402f-977e-09a9487d1f3f, .uuid-5f18a3b5-25e8-4b4a-92b0-9c895b96bdd6 {
        stroke-width: 2px;
      }

      .uuid-ec8004b7-0527-439b-bc6e-4b5df54d70f5 {
        stroke-width: 2px;
      }

      .uuid-5f18a3b5-25e8-4b4a-92b0-9c895b96bdd6 {
        fill: #f9a723;
      }

      .uuid-c55da662-6359-43da-9ece-79f419a77998 {
        clip-path: url(#uuid-eca54416-6e61-412d-a418-e0bcf3f00aa5);
      }
    </style><clipPath id="uuid-eca54416-6e61-412d-a418-e0bcf3f00aa5"><path class="uuid-d3edaed5-c7c6-4c4d-aa40-9a4dd8648ee7" d="m500.24,288.07s3.15-12.64,14.55-12.39c0,0,6.81-3.05,4.79-13.7s-9.48-7.62-9.48-7.62l-3.26,2.83s-4.99-3.71-11.8-4.25c-6.81-.54-29.6,19.74-28.65,47.05l2.58,4.27h5.71s1.04-3.08,1.49-4.63c.71,1.5,2.45,4.63,2.45,4.63h5.46s.25-16.04,10.62-13.7c3.59.81,5.54-2.49,5.54-2.49h0Z"/></clipPath></defs><g id="uuid-867e74de-e6be-4fed-8810-6aee283b78c1" data-name="uuid-7815cad7-8e3a-44d2-a5d3-2b4a6315d68d"><g><g><g><path class="uuid-a970ff5c-387f-4ed2-bc98-796834b27354" d="m500.24,288.07s3.15-12.64,14.55-12.39c0,0,6.81-3.05,4.79-13.7s-9.48-7.62-9.48-7.62l-3.26,2.83s-4.99-3.71-11.8-4.25c-6.81-.54-29.6,19.74-28.65,47.05l2.58,4.27h5.71s1.04-3.08,1.49-4.63c.71,1.5,2.45,4.63,2.45,4.63h5.46s.25-16.04,10.62-13.7c3.59.81,5.54-2.49,5.54-2.49h0Z"/><g class="uuid-c55da662-6359-43da-9ece-79f419a77998"><g><path class="uuid-68d6c310-ce9e-402f-977e-09a9487d1f3f" d="m468.96,304.27c3.56-19.63,12.25-29.34,22.7-23.21"/><path class="uuid-68d6c310-ce9e-402f-977e-09a9487d1f3f" d="m495.04,252.95c.78,9.4,3.57,11.29,11.8,4.25"/><path class="uuid-68d6c310-ce9e-402f-977e-09a9487d1f3f" d="m513.81,261.46s-11.73,5.35-20.22,9.49"/><path class="uuid-68d6c310-ce9e-402f-977e-09a9487d1f3f" d="m476.17,299.64c1.03-4.04,4.15-3.86,3.36-.09-.26,1.25-.58,3.01-.91,4.73"/></g></g><path class="uuid-68d6c310-ce9e-402f-977e-09a9487d1f3f" d="m500.24,288.07s3.15-12.64,14.55-12.39c0,0,6.81-3.05,4.79-13.7s-9.48-7.62-9.48-7.62l-3.26,2.83s-4.99-3.71-11.8-4.25c-6.81-.54-29.6,19.74-28.65,47.05l2.58,4.27h5.71s1.04-3.08,1.49-4.63c.71,1.5,2.45,4.63,2.45,4.63h5.46s.25-16.04,10.62-13.7c3.59.81,5.54-2.49,5.54-2.49h0Z"/></g><g><path class="uuid-a378b470-e58b-414a-9aaa-c42cc7401d46" d="m523.26,261.51c2.07,7.74,7.98,12.89,3.75,14.02-.15.04-7.96,2.12-8.12,2.15-4.13.64-8.94-4.61-10.93-12.07-2.03-7.6-.39-14.68,3.67-16,.07-.02,7.8-2.09,7.87-2.11,4.22-1.13,1.68,6.28,3.75,14.02Z"/><ellipse class="uuid-ec8004b7-0527-439b-bc6e-4b5df54d70f5" cx="523.26" cy="261.51" rx="10.33" ry="14.51" transform="translate(-49.81 144.13) rotate(-14.98)"/><line class="uuid-68d6c310-ce9e-402f-977e-09a9487d1f3f" x1="522.82" y1="253.67" x2="518.96" y2="264.52"/><line class="uuid-68d6c310-ce9e-402f-977e-09a9487d1f3f" x1="525.49" y1="265.86" x2="524.1" y2="269.78"/><line class="uuid-68d6c310-ce9e-402f-977e-09a9487d1f3f" x1="527.96" y1="258.93" x2="527.23" y2="260.97"/></g></g><g><path class="uuid-a378b470-e58b-414a-9aaa-c42cc7401d46" d="m521.42,363.39c-.44-.08-.88-.17-1.31-.27-3.31-.79-6.69-2.21-8.67-5.13-3.13-4.61-.82-9.79,3.48-12.56.56-.36,1.14-.68,1.74-.98-1.39-.55-2.66-1.35-3.57-2.56-1.86-2.47-1.89-5.68-.85-8.49.51-1.39,1.37-2.62,2.39-3.72v-.04c-.22-.03-.44-.05-.65-.09-2.1-.38-4.21-1.08-5.7-2.67-2.17,3.15-6.46,5-10.98,3.92l5.35,47.25,20.98-3.74-2.2-10.91h0Z"/><path class="uuid-5f18a3b5-25e8-4b4a-92b0-9c895b96bdd6" d="m507.62,316.05c.9-1.44,2.13-2.7,3.5-3.77l-6.51-32.3s-1.48-4.85-6.4-4.25c-4.92.61-6.54,5.33-6.54,5.33l3.32,29.35c2.06-.09,4.27.05,6.86,1.27,0,0,3.42,1.42,5.77,4.37h0Z"/></g><line class="uuid-68d6c310-ce9e-402f-977e-09a9487d1f3f" x1="501.22" y1="292.85" x2="502.88" y2="303.21"/><line class="uuid-68d6c310-ce9e-402f-977e-09a9487d1f3f" x1="499.45" y1="281.87" x2="500.24" y2="286.79"/><path class="uuid-a378b470-e58b-414a-9aaa-c42cc7401d46" d="m502.64,378.04c.99,8.71,22.7,4.78,20.98-3.74-1.51-7.49-21.81-3.52-20.98,3.74Z"/><path class="uuid-68d6c310-ce9e-402f-977e-09a9487d1f3f" d="m514.37,360.81c-4.9.25-10.44,1.84-13.21,4.18"/><path class="uuid-68d6c310-ce9e-402f-977e-09a9487d1f3f" d="m510.84,349.77c-4.19.5-8.51,1.88-10.97,3.8"/><path class="uuid-68d6c310-ce9e-402f-977e-09a9487d1f3f" d="m511.64,338.39c-4.76.21-10.15,1.71-13.05,3.94"/></g></g></svg>
<svg id="uuid-9f11f70b-d87e-465d-95e5-5fcb8506a057" data-name="BODY" xmlns="http://www.w3.org/2000/svg" viewBox="0 0 600 600"><defs><style>
      .uuid-4f36f437-1ed5-400d-aa5a-f257f4ff4af5 {
        fill: #ffff0d;
      }

      .uuid-4f36f437-1ed5-400d-aa5a-f257f4ff4af5, .uuid-22593ec9-b10a-4e92-9978-994a8e1bfa25, .uuid-870a6478-9cb7-47ff-972e-589545ccc99e {
        stroke: #000;
        stroke-miterlimit: 10;
        stroke-width: 2px;
      }

      .uuid-22593ec9-b10a-4e92-9978-994a8e1bfa25 {
        fill: #a07bff;
      }

      .uuid-870a6478-9cb7-47ff-972e-589545ccc99e {
        fill: #8400ff;
      }
    </style></defs><g id="uuid-d81d1885-5cfa-4812-820a-d3701e7b0358" data-name="hat 1"><path class="uuid-870a6478-9cb7-47ff-972e-589545ccc99e" d="m395.86,171.74c6.97,23.13-43.13,58.68-111.9,79.41-68.78,20.73-130.18,18.78-137.15-4.35-2.25-7.46-5.49-13.63,2.83-22.76,17.51-19.18,62.47-42.6,109.07-56.65,49.9-15.04,100.14-22.8,124.31-14.54,9.14,3.13,10.93,12.54,12.85,18.89Z"/><ellipse class="uuid-22593ec9-b10a-4e92-9978-994a8e1bfa25" cx="268.62" cy="201.59" rx="130.06" ry="43.74" transform="translate(-46.74 86.08) rotate(-16.77)"/><path class="uuid-870a6478-9cb7-47ff-972e-589545ccc99e" d="m177.29,158.53l18.9,62.69c3.36,11.16,38.25,10.51,77.91-1.45,39.67-11.95,69.1-30.69,65.74-41.84l-18.9-62.69-143.65,43.29Z"/><ellipse class="uuid-22593ec9-b10a-4e92-9978-994a8e1bfa25" cx="249.12" cy="136.89" rx="75.01" ry="21.1" transform="translate(-28.9 77.7) rotate(-16.77)"/><path class="uuid-4f36f437-1ed5-400d-aa5a-f257f4ff4af5" d="m331.8,151.01c3.36,11.16-26.07,29.89-65.74,41.84-39.67,11.95-74.55,12.6-77.91,1.45l3.41,11.55c3.36,11.16,38.25,10.51,77.91-1.45,39.67-11.95,69.1-30.69,65.74-41.84l-3.41-11.55Z"/></g></svg>
</svg>