<?xml version="1.0" encoding="UTF-8"?>
<svg xmlns="http://www.w3.org/2000/svg" viewBox="0 0 600 600">
<svg id="uuid-79261e34-5d95-4eb7-bb85-10d7c969ade4" data-name="BACKGROUND" xmlns="http://www.w3.org/2000/svg" viewBox="0 0 600 600"><defs><style>
      .uuid-97803ec4-c756-4940-a80c-fce9d043143d {
        fill: #00dfa9;
      }
    </style></defs><rect class="uuid-97803ec4-c756-4940-a80c-fce9d043143d" x="-1" y="-1" width="602" height="602"/></svg>
<svg id="uuid-f93a7132-06a1-47b1-a2b4-c77f0728fad5" data-name="BODY" xmlns="http://www.w3.org/2000/svg" viewBox="0 0 600 600"><defs><style>
      .uuid-82287df5-6e35-4d66-8626-4bcb7eb53383 {
        fill: #fff;
      }

      .uuid-f691cc19-eed2-4361-aa82-a86e6caf5410, .uuid-516df90e-beab-48b6-8588-feebfcfe5d61, .uuid-54ede7df-6fa7-4365-a011-4ce7326aa7be, .uuid-3ebb8b96-d2bc-4434-b638-264e68acdf77, .uuid-608d99e6-bfbc-497c-9aff-848f8a7e71be {
        stroke: #000;
        stroke-width: 2px;
      }

      .uuid-f691cc19-eed2-4361-aa82-a86e6caf5410, .uuid-516df90e-beab-48b6-8588-feebfcfe5d61, .uuid-3ebb8b96-d2bc-4434-b638-264e68acdf77, .uuid-608d99e6-bfbc-497c-9aff-848f8a7e71be {
        fill: #ff78d8;
      }

      .uuid-f691cc19-eed2-4361-aa82-a86e6caf5410, .uuid-3ebb8b96-d2bc-4434-b638-264e68acdf77 {
        stroke-miterlimit: 10;
      }

      .uuid-516df90e-beab-48b6-8588-feebfcfe5d61, .uuid-54ede7df-6fa7-4365-a011-4ce7326aa7be, .uuid-3ebb8b96-d2bc-4434-b638-264e68acdf77 {
        stroke-linecap: round;
      }

      .uuid-516df90e-beab-48b6-8588-feebfcfe5d61, .uuid-54ede7df-6fa7-4365-a011-4ce7326aa7be, .uuid-608d99e6-bfbc-497c-9aff-848f8a7e71be {
        stroke-linejoin: round;
      }

      .uuid-54ede7df-6fa7-4365-a011-4ce7326aa7be {
        fill: none;
      }
    </style></defs><ellipse cx="300" cy="518.65" rx="138.6" ry="22.93"/><g><path class="uuid-f691cc19-eed2-4361-aa82-a86e6caf5410" d="m319.36,427.14c-1.16,1.05-54.95,57-54.95,57,0,0,21.51-1.95,31.74,10.62,10.23,12.57,7.26,23.89,7.26,23.89h-66.9s-28.69-36.17-28.69-36.17c0,0,3.74-13.4,20.44-10.59,20.9-19.38,55.52-59.13,55.52-59.13l35.59,14.38Z"/><path d="m283.78,412.76l31.28,12.64-3.24,9.5c-2.93,3.03-9.76,10.12-13.64,14.14-11.92,0-27.98-2.13-41.33-6.37,13.95-15.1,26.93-29.92,26.93-29.92Z"/></g><g><path class="uuid-516df90e-beab-48b6-8588-feebfcfe5d61" d="m409.81,359.6c9.2,3.77,29.89,12.05,42.79,16.03,2.11.65,4.41.69,6.5-.04,11.79-4.08,28.47-11.39,33.03-11.32,5.25.08,7.8,3.93,19.88,2.04,13.36-2.1,22.43-11.99,20.93-23.3-4.21-43.28-25.18-26.79-25.18-26.79,0,0-5.84-8.75-18.76-4.82-11.83,3.6-10.2,14.44-6.47,22.47l-25.29,8.58c-2.14.72-4.45.71-6.59-.02l-35.7-12.61"/><path class="uuid-3ebb8b96-d2bc-4434-b638-264e68acdf77" d="m533.36,312.82c2.5,3.94,1.62,9.14-1.57,12.4-2.47,2.53-5.88,3.88-9.32,4.4-2.8.43-5.7.42-8.49-.08-2.14-.39-4.29-1.1-5.79-2.75-1.66-1.83-2.27-4.46-1.98-6.87.51-4.17,3.84-7.14,7.22-9.26,3.17-1.98,6.86-3.26,10.64-3.09,3.8.18,7.36,2.19,9.3,5.24Z"/><path class="uuid-3ebb8b96-d2bc-4434-b638-264e68acdf77" d="m538.57,349.84c.97,3.03.32,6.43-1.5,9.01-3.77,5.33-11.17,5.65-16.96,4.27-3.31-.79-6.69-2.21-8.67-5.13-3.13-4.61-.82-9.79,3.48-12.56,2.58-1.66,5.61-2.67,8.63-3.14,5.73-.89,13.1,1.51,15.03,7.56Z"/><path class="uuid-3ebb8b96-d2bc-4434-b638-264e68acdf77" d="m538.71,328.53c1.8,2.99,2.06,6.89.22,9.9-1.95,3.2-4.94,5.25-8.49,6.28-3.66,1.07-7.64,1.27-11.4.44-2.25-.5-4.53-1.38-5.96-3.28-1.86-2.47-1.89-5.68-.85-8.49,1.2-3.24,4.17-5.69,7.09-7.37,6.15-3.56,15.21-4.43,19.39,2.52Z"/><path class="uuid-3ebb8b96-d2bc-4434-b638-264e68acdf77" d="m501.85,311.68s9.27,3.84,7.77,12.02c-1.04,5.68-8.17,9.55-14.94,6.13"/><path class="uuid-54ede7df-6fa7-4365-a011-4ce7326aa7be" d="m500.67,331.08c2.41,1.63,5.11,8.04,3.4,14.42"/><path d="m443.44,339.88c-2.88,10.58-6.94,20.23-11.17,28.59-10.17-3.78-21.16-9.53-27-11.93l11.83-26.02,26.35,9.36Z"/></g><g><circle class="uuid-f691cc19-eed2-4361-aa82-a86e6caf5410" cx="300" cy="300" r="138.16"/><path class="uuid-82287df5-6e35-4d66-8626-4bcb7eb53383" d="m184.58,308.17c-4.41,0-7.98-3.57-7.98-7.98,0-67.74,55.11-122.86,122.86-122.86,4.41,0,7.98,3.57,7.98,7.98s-3.57,7.98-7.98,7.98c-58.94,0-106.9,47.95-106.9,106.9,0,4.41-3.57,7.98-7.98,7.98Z"/></g><path class="uuid-54ede7df-6fa7-4365-a011-4ce7326aa7be" d="m264.41,484.14c-4.06.49-11.49,1.36-17.85,7.23"/><path class="uuid-82287df5-6e35-4d66-8626-4bcb7eb53383" d="m185.17,308.14c-4.41,0-7.98-3.57-7.98-7.98,0-67.74,55.11-122.86,122.86-122.86,4.41,0,7.98,3.57,7.98,7.98s-3.57,7.98-7.98,7.98c-58.94,0-106.9,47.95-106.9,106.9,0,4.41-3.57,7.98-7.98,7.98Z"/><path d="m203.75,397.46l34.2-27.46-24.86,36.3c-6.73-5.1-3.66-2.61-9.34-8.83Z"/><path class="uuid-608d99e6-bfbc-497c-9aff-848f8a7e71be" d="m323.72,387.31c19.14-13.4,39.15-11.3,55.52,7.36,19.6,22.35,30.57,33.06,30.57,33.06,0,0,10.74-19.34,34.77-17.5,18.26,1.4,24.84,14.43,24.84,14.43,0,0,6.21,8.82-22.45,33.5-28.66,24.68-54.93,40.92-61.14,29.46-6.21-11.46-2.82-32.1-2.82-32.1,0,0-22.02-26.09-27.94-32.01-6.79-6.79-15.71-1.36-15.71-1.36"/><path class="uuid-f691cc19-eed2-4361-aa82-a86e6caf5410" d="m446.97,458.17c-25.89,22.29-49.82,37.69-58.79,32.02-9.77-7.44,26.84-38.54,44.88-52.7,18.04-14.16,32.17-17.82,36.36-12.81,0,0,6.21,8.82-22.45,33.5Z"/><path class="uuid-54ede7df-6fa7-4365-a011-4ce7326aa7be" d="m409.81,427.74c-1.89,2.86-4.55,10.38-4.55,10.38"/><g><path class="uuid-516df90e-beab-48b6-8588-feebfcfe5d61" d="m214.11,345.7c-8.05,5.83-25.34,20.79-35.52,29.67-1.67,1.45-2.82,3.41-3.39,5.55-3.14,11.67-8.55,33.44-8.55,33.44,0,0-8.42.58-12.19,14.35-3.64,13.3-6.64,25.06,3.77,29.75.35,7.47,7.51,15.45,19.2,9.41.14-.06,1.32,1.32,1.44,1.45,2.64,2.7,6.36,4.45,10.13,4.81,3.65.36,7.61-.67,10.43-3.08,3.29-2.81,5.4-6.94,6.05-11.2.4-2.61.26-5.31-.75-7.78,0,0,6.2-2.51,8.05-11.34,1.99-9.49-4.22-19.42-14.62-18.18l6.17-23.11c.51-2.2,1.74-4.16,3.49-5.59l29.38-24.3"/><path class="uuid-54ede7df-6fa7-4365-a011-4ce7326aa7be" d="m204.73,452.06c-1.37-3.47-5.39-7.08-9-6.88"/><path class="uuid-54ede7df-6fa7-4365-a011-4ce7326aa7be" d="m178.86,469.3c-5.16-5.27-3.82-11.97-2.9-13.54"/><path class="uuid-54ede7df-6fa7-4365-a011-4ce7326aa7be" d="m158.22,458.45c-.27-5.22.73-7.32,3.06-9.83"/><path class="uuid-54ede7df-6fa7-4365-a011-4ce7326aa7be" d="m193.93,450.63c.14-2.07.48-4.16,1.32-6.06.85-1.95,2.36-3.88,4.31-4.85"/></g></svg>
<svg id="uuid-d2017022-49ac-4767-bd5b-8d3e235df956" data-name="BODY" xmlns="http://www.w3.org/2000/svg" viewBox="0 0 600 600"><defs><style>
      .uuid-ceb1f6db-ac22-433a-a64d-b7c361a52305 {
        fill: #ffff0d;
      }

      .uuid-ceb1f6db-ac22-433a-a64d-b7c361a52305, .uuid-8fc51c2b-2e55-48cc-a922-83a746c6089c {
        stroke-width: 2px;
      }

      .uuid-ceb1f6db-ac22-433a-a64d-b7c361a52305, .uuid-8fc51c2b-2e55-48cc-a922-83a746c6089c, .uuid-ededc5f7-d71c-4a39-8679-141d6e366d35 {
        stroke: #000;
        stroke-linecap: round;
        stroke-linejoin: round;
      }

      .uuid-8fc51c2b-2e55-48cc-a922-83a746c6089c, .uuid-ededc5f7-d71c-4a39-8679-141d6e366d35 {
        fill: none;
      }

      .uuid-ededc5f7-d71c-4a39-8679-141d6e366d35 {
        stroke-width: 4px;
      }
    </style></defs><g id="uuid-2e50336c-81e2-44ae-a2f0-cfae5c829496" data-name="uuid-ca7a59fd-5ea4-4026-baf3-83b8314686b7"><g><path d="m371.9,289.97c1.87,5.07-.73,10.69-5.8,12.56-5.07,1.87-10.69-.73-12.56-5.8l18.36-6.76h0Z"/><path class="uuid-ededc5f7-d71c-4a39-8679-141d6e366d35" d="m347.02,271.26c1.87,5.07-.73,10.69-5.8,12.56-5.07,1.87-10.69-.73-12.56-5.8"/><path class="uuid-ededc5f7-d71c-4a39-8679-141d6e366d35" d="m378.7,259.59c1.87,5.07-.73,10.69-5.8,12.56-5.07,1.87-10.69-.73-12.56-5.8"/><g><path class="uuid-ceb1f6db-ac22-433a-a64d-b7c361a52305" d="m394.29,286.52l-6.54-4.3c-2.76-1.82-6.22-2.22-9.33-1.07l-17.8,6.56-17.8,6.56c-3.1,1.14-5.48,3.69-6.4,6.87l-2.18,7.52c-.22.76.52,1.45,1.26,1.17l23.58-8.69c1.5-.55,2.5-1.96,2.54-3.56l.15-6.73,4.48,5.03c1.06,1.19,2.74,1.61,4.24,1.06l23.58-8.69c.74-.27.86-1.28.2-1.71l.02-.02Z"/><g><line class="uuid-8fc51c2b-2e55-48cc-a922-83a746c6089c" x1="352.99" y1="303.37" x2="353.29" y2="295.54"/><line class="uuid-8fc51c2b-2e55-48cc-a922-83a746c6089c" x1="343.37" y1="306.92" x2="344.56" y2="298.75"/><line class="uuid-8fc51c2b-2e55-48cc-a922-83a746c6089c" x1="376.62" y1="294.67" x2="371.32" y2="288.89"/><line class="uuid-8fc51c2b-2e55-48cc-a922-83a746c6089c" x1="386.25" y1="291.12" x2="380.04" y2="285.68"/></g></g><g><ellipse cx="334.14" cy="264.66" rx="11.53" ry="3.94" transform="translate(-70.88 131.8) rotate(-20.22)"/><ellipse cx="365.82" cy="252.99" rx="11.53" ry="3.94" transform="translate(-64.9 142.03) rotate(-20.22)"/></g></g></g></svg>
<svg id="uuid-6b1ca43c-fceb-4acd-85bc-eb7c63c2d5ed" data-name="BACKGROUND" xmlns="http://www.w3.org/2000/svg" xmlns:xlink="http://www.w3.org/1999/xlink" viewBox="0 0 600 600"><defs><style>
      .uuid-7d324a92-f859-4859-84b1-6b64e5c7ec03, .uuid-67100d62-60e5-4cd8-9feb-5d83ffa2b8c8, .uuid-bc5fc81c-92fa-4ec4-8e4a-352e040d594c, .uuid-5ac50f8a-6b3d-459b-9f7c-e2e49936e76c, .uuid-6c969cdd-f62e-43a7-a73f-31724797c8f5, .uuid-b67ff905-7fb7-4340-8266-4c03ea4a3719, .uuid-01b34b03-825a-47cb-a604-f9db4e1cd74f, .uuid-466c2826-7ac3-48ed-8208-b1d7f9e89468 {
        fill: none;
      }

      .uuid-67100d62-60e5-4cd8-9feb-5d83ffa2b8c8 {
        clip-path: url(#uuid-0502021d-5d50-4318-98da-cdd75b92ab18);
      }

      .uuid-617835b9-dcb7-47c3-8e7d-ba218dfa85d0 {
        fill: #353434;
      }

      .uuid-617835b9-dcb7-47c3-8e7d-ba218dfa85d0, .uuid-8e974996-2f7b-47a5-9824-e41b82eedcf4, .uuid-4e5a8a5f-577b-4228-8ffe-283c3c5a70f5, .uuid-bc5fc81c-92fa-4ec4-8e4a-352e040d594c, .uuid-5ac50f8a-6b3d-459b-9f7c-e2e49936e76c {
        stroke: #000;
        stroke-linecap: round;
        stroke-linejoin: round;
      }

      .uuid-617835b9-dcb7-47c3-8e7d-ba218dfa85d0, .uuid-8e974996-2f7b-47a5-9824-e41b82eedcf4, .uuid-4e5a8a5f-577b-4228-8ffe-283c3c5a70f5, .uuid-5ac50f8a-6b3d-459b-9f7c-e2e49936e76c {
        stroke-width: 2px;
      }

      .uuid-57d2f649-6cf8-4f64-88c1-f5885b0533cd, .uuid-4e5a8a5f-577b-4228-8ffe-283c3c5a70f5 {
        fill: #fff7f0;
      }

      .uuid-4a3249ec-b2f6-48bb-a8f3-a82bfffadfc2, .uuid-8e974996-2f7b-47a5-9824-e41b82eedcf4 {
        fill: #a07bff;
      }

      .uuid-bc5fc81c-92fa-4ec4-8e4a-352e040d594c {
        stroke-width: 2px;
      }

      .uuid-6c969cdd-f62e-43a7-a73f-31724797c8f5 {
        clip-path: url(#uuid-65b2ff7e-b3d6-471c-abcc-31367d16a59a);
      }

      .uuid-b67ff905-7fb7-4340-8266-4c03ea4a3719 {
        clip-path: url(#uuid-b7157335-6e6b-4f02-acd6-65c4362be68b);
      }

      .uuid-01b34b03-825a-47cb-a604-f9db4e1cd74f {
        clip-path: url(#uuid-210babb4-acd7-4b92-9096-56d819bae4c2);
      }

      .uuid-466c2826-7ac3-48ed-8208-b1d7f9e89468 {
        clip-path: url(#uuid-bafb8971-eb1d-4f25-a86c-d00529b534c5);
      }
    </style><clipPath id="uuid-0502021d-5d50-4318-98da-cdd75b92ab18"><path class="uuid-7d324a92-f859-4859-84b1-6b64e5c7ec03" d="m236.72,508.58l-26.43-36.69c-.99-1.27-2.89-1.3-3.93-.08l-5.74,6.7c-1.19,1.4-1.23,3.44-.1,4.88l29.22,37.38c1.22,1.56,3.1,2.48,5.08,2.48h71.09c1.33,0,2.41-1.08,2.41-2.41v-8.19c0-1.33-1.08-2.41-2.41-2.41h-65.78c-1.34,0-2.6-.62-3.42-1.67h0Z"/></clipPath><clipPath id="uuid-65b2ff7e-b3d6-471c-abcc-31367d16a59a"><path class="uuid-7d324a92-f859-4859-84b1-6b64e5c7ec03" d="m250.25,445.38l-22.93,23.27s-12.85-2.78-19.77,7.48l29.07,36.91h68.51s.65-17.01-14.04-25.82c-8.29-5.06-18.57-5.38-18.57-5.38l11.83-12.51c.96-1.06.66-2.75-.62-3.4-2.53-1.29-6.47-3.3-9.42-4.8-1.34-.68-2.97-.41-4.02.67l-1.42,1.47s-6.22-3.03-10.77-8.09-5.44-7.92-5.44-7.92l2.43-2.53-1.36-.35c-.75-.19-1.55-.17-2.25.15-.47.22-.9.52-1.22.84h0Z"/></clipPath><clipPath id="uuid-b7157335-6e6b-4f02-acd6-65c4362be68b"><path class="uuid-7d324a92-f859-4859-84b1-6b64e5c7ec03" d="m360,433.62l19.9,22.77s-3.17,17.71,2.54,31.11c0,0,5.33-16.06,31.48-39.12,26.16-23.06,53.73-30.88,53.73-30.88,0,0-10.6-11.39-29.3-10.31-18.7,1.08-28.7,15.35-28.7,15.35l-20.51-22.1c-.8-.85-1.95-1.29-3.1-1.14-2.22.27-6.08,1.2-10.09,4.24-.66.5-.78,1.46-.26,2.11l1.05,1.3s-16.35,11.66-16.75,26.68h0Z"/></clipPath><clipPath id="uuid-210babb4-acd7-4b92-9096-56d819bae4c2"><path class="uuid-7d324a92-f859-4859-84b1-6b64e5c7ec03" d="m469.32,415.42c-.66-.63-1.59-.86-2.47-.62-5.87,1.59-29.25,8.95-53.86,30.76-23.28,20.64-31.86,33.4-33.68,38.15-.37.98-.27,2.06.31,2.94,1.37,2.1,5.65,8.44,8.34,11.27,4.73,4.98,26.38-2.07,55.09-27.69,28.72-25.62,37.69-40.52,34.25-45.67-2.52-3.77-6.2-7.44-7.99-9.14h0Z"/></clipPath><clipPath id="uuid-bafb8971-eb1d-4f25-a86c-d00529b534c5"><path class="uuid-7d324a92-f859-4859-84b1-6b64e5c7ec03" d="m477.9,426.07h0c-.62-4.79-20.55-1.28-53.98,25.69-33.41,26.94-37.41,45.67-34.1,47.26,7.15,2.33,27.31-5.65,53.25-28.79,24.07-21.47,34.26-35.41,34.9-42.4,0-.73,0-1.33-.07-1.76h0Z"/></clipPath></defs><g id="uuid-f408db85-a353-4742-a68e-9c398e6873ff" data-name="uuid-cd11fcea-88d0-488e-8ad3-f73ba4124c0e"><g><g><g><path class="uuid-57d2f649-6cf8-4f64-88c1-f5885b0533cd" d="m236.72,508.58l-26.43-36.69c-.99-1.27-2.89-1.3-3.93-.08l-5.74,6.7c-1.19,1.4-1.23,3.44-.1,4.88l29.22,37.38c1.22,1.56,3.1,2.48,5.08,2.48h71.09c1.33,0,2.41-1.08,2.41-2.41v-8.19c0-1.33-1.08-2.41-2.41-2.41h-65.78c-1.34,0-2.6-.62-3.42-1.67h0Z"/><g class="uuid-67100d62-60e5-4cd8-9feb-5d83ffa2b8c8"><path class="uuid-4a3249ec-b2f6-48bb-a8f3-a82bfffadfc2" d="m311.73,519.85h-75.87c-1.43,0-2.79-.65-3.68-1.78l-33.28-41.94-4.78,6.84,36.02,45.1,81.59-1.62v-6.61h0Z"/></g><path class="uuid-5ac50f8a-6b3d-459b-9f7c-e2e49936e76c" d="m236.72,508.58l-26.43-36.69c-.99-1.27-2.89-1.3-3.93-.08l-5.74,6.7c-1.19,1.4-1.23,3.44-.1,4.88l29.22,37.38c1.22,1.56,3.1,2.48,5.08,2.48h71.09c1.33,0,2.41-1.08,2.41-2.41v-8.19c0-1.33-1.08-2.41-2.41-2.41h-65.78c-1.34,0-2.6-.62-3.42-1.67h0Z"/></g><g><path class="uuid-57d2f649-6cf8-4f64-88c1-f5885b0533cd" d="m250.25,445.38l-22.93,23.27s-12.85-2.78-19.77,7.48l29.07,36.91h68.51s.65-17.01-14.04-25.82c-8.29-5.06-18.57-5.38-18.57-5.38l11.83-12.51c.96-1.06.66-2.75-.62-3.4-2.53-1.29-6.47-3.3-9.42-4.8-1.34-.68-2.97-.41-4.02.67l-1.42,1.47s-6.22-3.03-10.77-8.09-5.44-7.92-5.44-7.92l2.43-2.53-1.36-.35c-.75-.19-1.55-.17-2.25.15-.47.22-.9.52-1.22.84h0Z"/><g class="uuid-6c969cdd-f62e-43a7-a73f-31724797c8f5"><g><path class="uuid-8e974996-2f7b-47a5-9824-e41b82eedcf4" d="m207.56,476.13l16.95,21.51,4.56-8.42c1.06-1.96,1.35-4.25.82-6.42l-3.54-14.32c-3.13-.41-13.01-.92-18.79,7.64h0Z"/><path class="uuid-617835b9-dcb7-47c3-8e7d-ba218dfa85d0" d="m235.69,468.65c5.41,7.65,11.73,8.93,11.73,8.93l17.3-19.75-9.01-19.35-13.15,2.63-11.12,19.55s1.48,4.08,4.25,7.99h0Z"/><g><path class="uuid-8e974996-2f7b-47a5-9824-e41b82eedcf4" d="m268.87,463.27s-18.49,21.32-19.16,22.2c-.67.88,10.65.19,18.81,2.29,8.16,2.09,14.33,4.3,14.83,7.23.51,2.93-3.21,3.65-7.01,6.46-4.82,3.56-2.97,6.66,2.61,5.17,3.03-.81,4.45-3.84,6.12-3.84h20.73s4.72,8.78,5.12,12.22h-64.36s13.07-7.62,17.85-17.02c-4.93.3-4.73-3.34-9.51-3.47s-7.82,4.45-13.08.74c-5.26-3.71.81-12.27,9.17-21.64,0,0-5.19-5.51-15.3-4.96,0,0-1.38-1.62-4.87-9.15l8.34-7.23s14.66,9.91,18.46,13.85l7.58-8.75,3.67,5.9h0Z"/><path class="uuid-8e974996-2f7b-47a5-9824-e41b82eedcf4" d="m264.41,497.97c1.72-3.24,2.38-5.16,8.9-5.36,4.73-.15,8.74-.71,9.95,2.03"/><line class="uuid-5ac50f8a-6b3d-459b-9f7c-e2e49936e76c" x1="250.99" y1="473.6" x2="257.61" y2="466.12"/></g><path class="uuid-5ac50f8a-6b3d-459b-9f7c-e2e49936e76c" d="m275.64,501.99c-4.04,3.39-8.12,11.05-8.12,11.05"/><polygon class="uuid-4a3249ec-b2f6-48bb-a8f3-a82bfffadfc2" points="278.48 461.05 272.13 468.34 277.35 470.68 283.97 463.81 278.48 461.05"/></g></g><path class="uuid-5ac50f8a-6b3d-459b-9f7c-e2e49936e76c" d="m250.25,445.38l-22.93,23.27s-12.85-2.78-19.77,7.48l29.07,36.91h68.51s.65-17.01-14.04-25.82c-8.29-5.06-18.57-5.38-18.57-5.38l11.83-12.51c.96-1.06.66-2.75-.62-3.4-2.53-1.29-6.47-3.3-9.42-4.8-1.34-.68-2.97-.41-4.02.67l-1.42,1.47s-6.22-3.03-10.77-8.09-5.44-7.92-5.44-7.92l2.43-2.53-1.36-.35c-.75-.19-1.55-.17-2.25.15-.47.22-.9.52-1.22.84h0Z"/></g><path class="uuid-5ac50f8a-6b3d-459b-9f7c-e2e49936e76c" d="m244.42,489.63c5.92-5.31,14.38-9.03,28.11-7.79"/><g><path class="uuid-4e5a8a5f-577b-4228-8ffe-283c3c5a70f5" d="m264.17,468.09c4.47,2.6,9.09,4.34,12.76,5.69,3.67,1.35,2.33,6.74-2.45,4.81-4.77-1.93-11.32-4.52-13.4-6.25s.11-5.99,3.09-4.26h0Z"/><path class="uuid-4e5a8a5f-577b-4228-8ffe-283c3c5a70f5" d="m256.34,476.65c2.44,1.28,4.92,2.3,7.25,3.14,1.81.66-1.41,4.84-3.61,4-2.73-1.04-5.18-2.09-6.31-2.95-2.05-1.55-.22-5.7,2.68-4.19Z"/><path class="uuid-4e5a8a5f-577b-4228-8ffe-283c3c5a70f5" d="m275.35,481.45s-.77-4.17-6.3-4.78c-7.82-.86-12.81,5.57-14.54,7.98s2.32,5.2,4.64,2.45c4.98-5.91,7.52-6.36,8.95-6.67,3.05.17,7.25,1.01,7.25,1.01h0Z"/><path class="uuid-4e5a8a5f-577b-4228-8ffe-283c3c5a70f5" d="m288.56,485.83s-.38-4.37-5.93-5.51c-7.86-1.61-13.55,4.58-15.55,6.9-1.99,2.33,1.85,5.58,4.48,2.95,5.63-5.64,9.79-6.56,11.27-6.75,1.91.64,5.74,2.4,5.74,2.4h0Z"/></g><g><circle cx="286.65" cy="493.08" r="1.01"/><circle cx="294.11" cy="493.08" r="1.01"/><circle cx="291.6" cy="495.81" r="1.01"/><circle cx="289.08" cy="498.97" r="1.01"/><circle cx="296.53" cy="498.97" r="1.01"/></g></g><g><g><path class="uuid-57d2f649-6cf8-4f64-88c1-f5885b0533cd" d="m360,433.62l19.9,22.77s-3.17,17.71,2.54,31.11c0,0,5.33-16.06,31.48-39.12,26.16-23.06,53.73-30.88,53.73-30.88,0,0-10.6-11.39-29.3-10.31-18.7,1.08-28.7,15.35-28.7,15.35l-20.51-22.1c-.8-.85-1.95-1.29-3.1-1.14-2.22.27-6.08,1.2-10.09,4.24-.66.5-.78,1.46-.26,2.11l1.05,1.3s-16.35,11.66-16.75,26.68h0Z"/><g class="uuid-b67ff905-7fb7-4340-8266-4c03ea4a3719"><g><path class="uuid-617835b9-dcb7-47c3-8e7d-ba218dfa85d0" d="m381.44,447.04c4.72-7.69,7.01-19.3,7.01-19.3l-19.82-20.2s-11.73,9.84-12.54,27.51l18.2,22.02,7.15-10.02h0Z"/><path class="uuid-8e974996-2f7b-47a5-9824-e41b82eedcf4" d="m386.55,424.93c-7.06,9.84-5.11,22.11-5.11,22.11,0,0-3.64,5.93-5.06,7.89l-8.56-9.17s.9-17.83,11.2-28.23l7.52,7.4h0Z"/><path class="uuid-8e974996-2f7b-47a5-9824-e41b82eedcf4" d="m376.75,406.95l27.24,27.12s7.58-6.51,15.13-11.9c7.55-5.39,15.66-6.4,17.28-6.3,1.62.1,1.57,2.33.81,4.04-.76,1.72-.61,2.43-.61,2.43,0,0,5.58-.04,5.38-5.77,0,0,4.72-3.57,16.31-7.01l8.7.94,6.67,3.71-19.42,13.53-29.9,13.91s1.38-7.48,1.52-13.21c-3.24,2.83-7.06.62-10.45,2.75-3.39,2.12-6.17,10.11-9.74,10.87-2.37.5-5.18.5-7.81-2.28-3.74-3.94-28.82-29.38-28.82-29.38l4.5-3.94,3.2.49h0Z"/><path class="uuid-8e974996-2f7b-47a5-9824-e41b82eedcf4" d="m377.18,464.97l11.88-6.76c1.46-.83,3.09-1.32,4.76-1.43l10.6-.71-26.22,34.72-3.1-12.74,2.08-13.08h0Z"/><path class="uuid-5ac50f8a-6b3d-459b-9f7c-e2e49936e76c" d="m425.87,428.43c-.03-5.04-2.63-8.79,3.04-11.15"/><path class="uuid-5ac50f8a-6b3d-459b-9f7c-e2e49936e76c" d="m436.62,421.78c-.43,3.41.54,8.14.54,8.14"/><polygon class="uuid-4a3249ec-b2f6-48bb-a8f3-a82bfffadfc2" points="379.85 401.15 383.87 405.09 388.18 403.12 384.85 399.49 380.73 397.86 379.85 401.15"/></g></g><path class="uuid-5ac50f8a-6b3d-459b-9f7c-e2e49936e76c" d="m360,433.62l19.9,22.77s-3.17,17.71,2.54,31.11c0,0,5.33-16.06,31.48-39.12,26.16-23.06,53.73-30.88,53.73-30.88,0,0-10.6-11.39-29.3-10.31-18.7,1.08-28.7,15.35-28.7,15.35l-20.51-22.1c-.8-.85-1.95-1.29-3.1-1.14-2.22.27-6.08,1.2-10.09,4.24-.66.5-.78,1.46-.26,2.11l1.05,1.3s-16.35,11.66-16.75,26.68h0Z"/></g><g><g><path class="uuid-57d2f649-6cf8-4f64-88c1-f5885b0533cd" d="m469.32,415.42c-.66-.63-1.59-.86-2.47-.62-5.87,1.59-29.25,8.95-53.86,30.76-23.28,20.64-31.86,33.4-33.68,38.15-.37.98-.27,2.06.31,2.94,1.37,2.1,5.65,8.44,8.34,11.27,4.73,4.98,26.38-2.07,55.09-27.69,28.72-25.62,37.69-40.52,34.25-45.67-2.52-3.77-6.2-7.44-7.99-9.14h0Z"/><g class="uuid-01b34b03-825a-47cb-a604-f9db4e1cd74f"><path class="uuid-4a3249ec-b2f6-48bb-a8f3-a82bfffadfc2" d="m474.46,421.06c-.67-.63-1.6-.86-2.49-.62-5.93,1.59-30.69,9.97-55.54,31.78-23.51,20.64-29.54,34.57-31.37,39.32-.38.98-.27,2.06.31,2.94,1.39,2.1,4.23,6.25,6.95,9.08,4.77,4.98,26.63-2.07,55.63-27.69,29-25.62,38.05-40.52,34.58-45.67-2.54-3.77-6.26-7.44-8.07-9.14h0Z"/></g><path class="uuid-5ac50f8a-6b3d-459b-9f7c-e2e49936e76c" d="m469.32,415.42c-.66-.63-1.59-.86-2.47-.62-5.87,1.59-29.25,8.95-53.86,30.76-23.28,20.64-31.86,33.4-33.68,38.15-.37.98-.27,2.06.31,2.94,1.37,2.1,5.65,8.44,8.34,11.27,4.73,4.98,26.38-2.07,55.09-27.69,28.72-25.62,37.69-40.52,34.25-45.67-2.52-3.77-6.2-7.44-7.99-9.14h0Z"/></g><g><path class="uuid-4a3249ec-b2f6-48bb-a8f3-a82bfffadfc2" d="m477.9,426.07h0c-.62-4.79-20.55-1.28-53.98,25.69-33.41,26.94-37.41,45.67-34.1,47.26,7.15,2.33,27.31-5.65,53.25-28.79,24.07-21.47,34.26-35.41,34.9-42.4,0-.73,0-1.33-.07-1.76h0Z"/><g class="uuid-466c2826-7ac3-48ed-8208-b1d7f9e89468"><g><g><ellipse class="uuid-bc5fc81c-92fa-4ec4-8e4a-352e040d594c" cx="452.04" cy="447.48" rx="3.55" ry="2.2" transform="translate(-183.16 414.29) rotate(-41.72)"/><ellipse class="uuid-bc5fc81c-92fa-4ec4-8e4a-352e040d594c" cx="452.04" cy="447.48" rx="8.67" ry="5.37" transform="translate(-183.16 414.29) rotate(-41.72)"/><ellipse class="uuid-bc5fc81c-92fa-4ec4-8e4a-352e040d594c" cx="452.04" cy="447.48" rx="13.41" ry="8.31" transform="translate(-183.16 414.29) rotate(-41.72)"/><ellipse class="uuid-bc5fc81c-92fa-4ec4-8e4a-352e040d594c" cx="452.04" cy="447.48" rx="17.54" ry="10.87" transform="translate(-183.16 414.29) rotate(-41.72)"/><ellipse class="uuid-bc5fc81c-92fa-4ec4-8e4a-352e040d594c" cx="452.04" cy="447.48" rx="22.28" ry="13.8" transform="translate(-183.16 414.29) rotate(-41.72)"/><ellipse class="uuid-bc5fc81c-92fa-4ec4-8e4a-352e040d594c" cx="452.04" cy="447.48" rx="27.13" ry="16.81" transform="translate(-183.16 414.29) rotate(-41.72)"/></g><g><path class="uuid-5ac50f8a-6b3d-459b-9f7c-e2e49936e76c" d="m419.16,451.36l6.27,17.09s-12.64,10.48-14.66,11.9c-2.02,1.42-.13,3.71,1.69,2.49,1.82-1.21,15.03-11.12,15.03-11.12l10.31,4.99"/><line class="uuid-5ac50f8a-6b3d-459b-9f7c-e2e49936e76c" x1="424.04" y1="474.29" x2="435.57" y2="481.83"/><line class="uuid-5ac50f8a-6b3d-459b-9f7c-e2e49936e76c" x1="419.85" y1="477.42" x2="430.25" y2="485.94"/><line class="uuid-5ac50f8a-6b3d-459b-9f7c-e2e49936e76c" x1="415.48" y1="480.65" x2="423.85" y2="489.65"/><line class="uuid-5ac50f8a-6b3d-459b-9f7c-e2e49936e76c" x1="412.45" y1="482.84" x2="416.83" y2="494.97"/><line class="uuid-5ac50f8a-6b3d-459b-9f7c-e2e49936e76c" x1="413.11" y1="478.53" x2="403.28" y2="468.21"/><line class="uuid-5ac50f8a-6b3d-459b-9f7c-e2e49936e76c" x1="408.19" y1="461.84" x2="417.88" y2="474.67"/><line class="uuid-5ac50f8a-6b3d-459b-9f7c-e2e49936e76c" x1="421.62" y1="471.59" x2="413.93" y2="456.61"/><line class="uuid-5ac50f8a-6b3d-459b-9f7c-e2e49936e76c" x1="410.4" y1="480.65" x2="395.13" y2="478.06"/><line class="uuid-5ac50f8a-6b3d-459b-9f7c-e2e49936e76c" x1="410.05" y1="482.39" x2="390" y2="486.28"/><line class="uuid-5ac50f8a-6b3d-459b-9f7c-e2e49936e76c" x1="411.01" y1="483.13" x2="405.24" y2="499.76"/><line class="uuid-5ac50f8a-6b3d-459b-9f7c-e2e49936e76c" x1="410.43" y1="482.84" x2="387.37" y2="499.41"/></g></g></g><path class="uuid-5ac50f8a-6b3d-459b-9f7c-e2e49936e76c" d="m477.9,426.07h0c-.62-4.79-20.55-1.28-53.98,25.69-33.41,26.94-37.41,45.67-34.1,47.26,7.15,2.33,27.31-5.65,53.25-28.79,24.07-21.47,34.26-35.41,34.9-42.4,0-.73,0-1.33-.07-1.76h0Z"/></g></g><path class="uuid-4e5a8a5f-577b-4228-8ffe-283c3c5a70f5" d="m409.66,422.54s-3.89,5.28-6.92,15.26"/><g><path class="uuid-4e5a8a5f-577b-4228-8ffe-283c3c5a70f5" d="m395.76,408.5c-4.48,2-8.37,4.59-11.44,6.66-3.07,2.07-6.53-1.91-2.41-4.51s9.11-5.45,11.6-6.1c2.49-.65,5.23,2.62,2.24,3.95h0Z"/><path class="uuid-4e5a8a5f-577b-4228-8ffe-283c3c5a70f5" d="m403.92,416.93c-4.48,2-8.37,4.59-11.44,6.66-3.07,2.07-6.53-1.91-2.41-4.51s9.11-5.45,11.6-6.1c2.49-.65,5.23,2.62,2.24,3.95h0Z"/><path class="uuid-4e5a8a5f-577b-4228-8ffe-283c3c5a70f5" d="m410.49,425.27c-4.48,2-7.42,3.94-10.49,6.02-3.07,2.07-6.53-1.91-2.41-4.51s9.11-5.45,11.6-6.1c.47.81.96,3.15,1.3,4.6h0Z"/><path class="uuid-4e5a8a5f-577b-4228-8ffe-283c3c5a70f5" d="m418.62,414.25s-3.47-2.43-7.84,1.01c-6.17,4.87-5.22,12.96-4.76,15.89s5.3,2.08,5.02-1.51c-.6-7.7.9-9.81,1.7-11.03,2.29-2.02,5.88-4.36,5.88-4.36h0Z"/><path class="uuid-4e5a8a5f-577b-4228-8ffe-283c3c5a70f5" d="m431.11,408.11s-3.34-2.85-8.09.24c-6.73,4.36-6.45,12.77-6.24,15.82.21,3.06,5.24,2.68,5.26-1.04.05-7.97,2.38-11.55,3.3-12.71,1.81-.89,5.78-2.31,5.78-2.31Z"/></g><g><circle cx="434.88" cy="410.61" r="1.01"/><circle cx="440.59" cy="410.07" r="1.01"/><circle cx="440" cy="413.7" r="1.01"/><circle cx="446.55" cy="410.14" r="1.01"/></g></g></g></g></svg>
<svg id="uuid-6e9dd1ff-b3ca-4115-b70a-c695fd74bfe5" data-name="BODY" xmlns="http://www.w3.org/2000/svg" xmlns:xlink="http://www.w3.org/1999/xlink" viewBox="0 0 600 600"><defs><style>
      .uuid-f4d84360-108f-4651-b29c-e25ea16c4cc5, .uuid-13f171bf-333f-4b11-a6dc-6143bf8925b3, .uuid-d07d115d-d797-4bee-a1bd-d5ba731908b9, .uuid-30faa963-5431-4aaa-a0c3-a21f063be235, .uuid-8f6f04d1-c4ff-42b5-9302-95ef19a8b3d9 {
        fill: none;
      }

      .uuid-046b5435-62e7-4259-a2e9-7621ff339dd6, .uuid-49569550-84bb-4c62-b631-432cfe149004 {
        fill: #7aa6ff;
      }

      .uuid-046b5435-62e7-4259-a2e9-7621ff339dd6, .uuid-49569550-84bb-4c62-b631-432cfe149004, .uuid-94178579-7323-403b-a4b5-65c0e1c44d9b, .uuid-3ff8e150-fa1e-4d89-b36b-9e4e320d5024, .uuid-ff1760e6-70c2-4dee-b03b-1ede1b1fa95d, .uuid-d07d115d-d797-4bee-a1bd-d5ba731908b9, .uuid-30faa963-5431-4aaa-a0c3-a21f063be235 {
        stroke: #000;
        stroke-linecap: round;
        stroke-linejoin: round;
      }

      .uuid-046b5435-62e7-4259-a2e9-7621ff339dd6, .uuid-94178579-7323-403b-a4b5-65c0e1c44d9b, .uuid-3ff8e150-fa1e-4d89-b36b-9e4e320d5024, .uuid-d07d115d-d797-4bee-a1bd-d5ba731908b9 {
        stroke-width: 2px;
      }

      .uuid-49569550-84bb-4c62-b631-432cfe149004, .uuid-ff1760e6-70c2-4dee-b03b-1ede1b1fa95d, .uuid-30faa963-5431-4aaa-a0c3-a21f063be235 {
        stroke-width: 2px;
      }

      .uuid-13f171bf-333f-4b11-a6dc-6143bf8925b3 {
        clip-path: url(#uuid-3738efd7-810a-4b28-8335-8dd0fda8e553);
      }

      .uuid-94178579-7323-403b-a4b5-65c0e1c44d9b {
        fill: #8400ff;
      }

      .uuid-a0b7f615-c241-44b2-b757-466d7641aaac {
        fill: #ffff0d;
      }

      .uuid-149af8d5-0486-4f84-b8a4-62e4288482b2 {
        fill: #9dff0c;
      }

      .uuid-3ff8e150-fa1e-4d89-b36b-9e4e320d5024, .uuid-ff1760e6-70c2-4dee-b03b-1ede1b1fa95d {
        fill: #a07bff;
      }

      .uuid-8f6f04d1-c4ff-42b5-9302-95ef19a8b3d9 {
        clip-path: url(#uuid-099eeb1f-0739-4ac1-83ad-929f888b681c);
      }
    </style><clipPath id="uuid-3738efd7-810a-4b28-8335-8dd0fda8e553"><path class="uuid-f4d84360-108f-4651-b29c-e25ea16c4cc5" d="m207.25,349.68l-27.2,23.05c-3,2.4-5.15,5.71-6.11,9.43l-8.11,31.33s-3.45.35-7.09,4.5c-4.67,5.32-6.81,15.97-8.5,24.91-7.91-5.05-83.16-13.79-94.21-32.95-18.6-32.26,3.76-59.6,13.02-69.49,14.76-15.78,60.44-14.3,60.44-14.3l77.76,23.52h0Zm31.03,20.24s-28.11,23.09-30,24.91-3.01,4.97-3.46,6.62c-.44,1.66-5.36,20.02-5.36,20.02,0,0,8.86.08,12.53,7.22,1.18,2.3,2.41,5.31,2.08,9.59-.61,7.88-5.16,12.41-8.09,14.28,1.01,3.73,1.21,7.91.72,10.37,10.48,26.86,110.78,41.49,110.78,41.49l17.62-75.26-41.68-12.52-12.32-27.69-42.81-19.04h0Z"/></clipPath><clipPath id="uuid-099eeb1f-0739-4ac1-83ad-929f888b681c"><rect class="uuid-f4d84360-108f-4651-b29c-e25ea16c4cc5" x="162.78" y="342.92" width="45.45" height="140.68" transform="translate(-265.82 452.02) rotate(-70.73)"/></clipPath></defs><g id="uuid-054dfee4-fcfb-460e-acd1-76ff23fbc272" data-name="uuid-4e189f2a-7fa9-4cd8-b02c-e65b53e2a61c"><g id="uuid-900a0d9f-eac9-4919-b449-79c80911ee38" data-name="uuid-78b9dc61-4d36-4cc0-a416-4b7f00985a31"><g id="uuid-651b4fc5-0c91-42b6-b968-6b2ab50c1b36" data-name="uuid-dfdf5e4b-abde-406c-b0a2-d80837955070"><g class="uuid-13f171bf-333f-4b11-a6dc-6143bf8925b3"><g><g><path class="uuid-3ff8e150-fa1e-4d89-b36b-9e4e320d5024" d="m201.39,393.83l-101.23-35.38c-5.99-2.1-20.02,2.77-24.41,6.76-1.61,1.46-8.33,11.08,2.22,19.37-1.8-2.48-2.4-5.76-1.32-8.87,1.76-5.03,7.27-7.69,12.3-5.93s7.69,7.27,5.93,12.3c-1.53,4.38-5.91,6.96-10.34,6.39,1.36.62,2.85,1.22,4.5,1.8l101.23,35.38c8.72,3.05,18.26-1.55,21.3-10.27l.08-.24c3.05-8.72-1.55-18.26-10.27-21.3h0Z"/><path class="uuid-3ff8e150-fa1e-4d89-b36b-9e4e320d5024" d="m83.54,390.61c8.24,2.6,14.95-6.68,11.95-5.89-1.8.47-3.75.44-5.64-.22-5.03-1.76-7.69-7.27-5.93-12.3.66-1.87,1.83-3.42,3.31-4.53,2.49-1.87-8.51-2.62-12.39,4.89-3.76,7.27-1.11,14.96,8.7,18.05h0Z"/><path class="uuid-046b5435-62e7-4259-a2e9-7621ff339dd6" d="m192.81,397.97l-101.23-35.38c-8.72-3.05-18.26,1.55-21.31,10.27l-.08.24c-3.05,8.72,1.55,18.26,10.27,21.3l101.23,35.38c8.72,3.05,18.26-1.55,21.3-10.27l.08-.24c3.05-8.72-1.55-18.26-10.27-21.3h0Zm-110.23-9.96c-5.03-1.76-7.69-7.27-5.93-12.3,1.76-5.03,7.27-7.69,12.3-5.93,5.03,1.76,7.69,7.27,5.93,12.3-1.76,5.03-7.27,7.69-12.3,5.93Z"/></g><path class="uuid-94178579-7323-403b-a4b5-65c0e1c44d9b" d="m261.31,462.21l-11.61,5.56-137.85-56.99,9.03-51.81,11.8-5.84c2.07-1,4.46-1.13,6.63-.37l137.02,47.89c4.52,1.58,6.91,6.53,5.33,11.05l-15.92,45.56c-.76,2.17-2.35,3.95-4.42,4.95h0Z"/><rect class="uuid-ff1760e6-70c2-4dee-b03b-1ede1b1fa95d" x="153.59" y="332.97" width="63.83" height="160.6" rx="5.71" ry="5.71" transform="translate(-265.82 452.02) rotate(-70.73)"/><path class="uuid-3ff8e150-fa1e-4d89-b36b-9e4e320d5024" d="m262.98,458.19l6.96-33.27,8.55-4.15,37.81,13.21c2.11.74,3.22,3.05,2.49,5.16l-9.23,26.41c-.35,1.01-1.1,1.85-2.06,2.31l-7.07,3.41-37.44-13.09h0Z"/><rect class="uuid-49569550-84bb-4c62-b631-432cfe149004" x="268.33" y="426.07" width="33.7" height="44.07" transform="translate(-231.92 569.46) rotate(-70.73)"/><rect x="300.26" y="441.53" width="4.45" height="5.17" rx="1.17" ry="1.17" transform="translate(-216.57 583.13) rotate(-70.73)"/><rect x="294.07" y="459.25" width="4.45" height="5.17" rx="1.17" ry="1.17" transform="translate(-237.44 589.16) rotate(-70.73)"/><line class="uuid-d07d115d-d797-4bee-a1bd-d5ba731908b9" x1="269.72" y1="410.7" x2="281.3" y2="405.12"/><line class="uuid-d07d115d-d797-4bee-a1bd-d5ba731908b9" x1="311.54" y1="439.46" x2="318.6" y2="436.06"/><line class="uuid-d07d115d-d797-4bee-a1bd-d5ba731908b9" x1="264.38" y1="440.83" x2="305.98" y2="455.37"/><g><rect class="uuid-149af8d5-0486-4f84-b8a4-62e4288482b2" x="162.78" y="342.92" width="45.45" height="140.68" transform="translate(-265.82 452.02) rotate(-70.73)"/><g class="uuid-8f6f04d1-c4ff-42b5-9302-95ef19a8b3d9"><g><polygon class="uuid-a0b7f615-c241-44b2-b757-466d7641aaac" points="123.47 432.94 247.27 373.27 301.23 392.13 177.24 451.89 123.47 432.94"/><polygon class="uuid-a0b7f615-c241-44b2-b757-466d7641aaac" points="190.83 456.49 314.63 396.82 337.79 404.91 213.8 464.67 190.83 456.49"/><polygon class="uuid-a0b7f615-c241-44b2-b757-466d7641aaac" points="77.6 416.91 201.4 357.24 210.87 360.56 86.88 420.33 77.6 416.91"/></g></g><rect class="uuid-30faa963-5431-4aaa-a0c3-a21f063be235" x="162.78" y="342.92" width="45.45" height="140.68" transform="translate(-265.82 452.02) rotate(-70.73)"/></g></g></g></g></g></g></svg>
<svg id="uuid-20641d54-9b80-4738-a850-744e9e159449" data-name="BODY" xmlns="http://www.w3.org/2000/svg" xmlns:xlink="http://www.w3.org/1999/xlink" viewBox="0 0 600 600"><defs><style>
      .uuid-08cd35e5-5429-4678-9716-d686ab3ecfef, .uuid-dda132b2-d95f-4871-a7b1-064b32f66064, .uuid-ebdbf30b-e82b-478c-8ba4-0d0c364ee291 {
        fill: none;
      }

      .uuid-742681a4-c23e-4f30-b8ee-5b9c20c0b35c {
        stroke: #ff78d8;
        stroke-width: 5px;
      }

      .uuid-742681a4-c23e-4f30-b8ee-5b9c20c0b35c, .uuid-7cac7961-9347-486a-acb0-10dbd6513383, .uuid-b14f2490-b4c9-4cfa-9101-1711323d80d6, .uuid-dda132b2-d95f-4871-a7b1-064b32f66064 {
        stroke-linecap: round;
        stroke-linejoin: round;
      }

      .uuid-4e16943e-fd44-479d-99ea-a54526ffe949, .uuid-b14f2490-b4c9-4cfa-9101-1711323d80d6 {
        fill: #fff7f0;
      }

      .uuid-658b5f94-e9af-4c82-a1e0-8418994c6472 {
        fill: #ff78d8;
      }

      .uuid-58a45e6e-6234-4179-aa22-3da84e379254, .uuid-7cac7961-9347-486a-acb0-10dbd6513383 {
        fill: #a07bff;
      }

      .uuid-7cac7961-9347-486a-acb0-10dbd6513383, .uuid-b14f2490-b4c9-4cfa-9101-1711323d80d6, .uuid-dda132b2-d95f-4871-a7b1-064b32f66064 {
        stroke: #000;
        stroke-width: 2px;
      }

      .uuid-ebdbf30b-e82b-478c-8ba4-0d0c364ee291 {
        clip-path: url(#uuid-f1915c35-cc3e-42ae-bf03-e75644ba9dff);
      }
    </style><clipPath id="uuid-f1915c35-cc3e-42ae-bf03-e75644ba9dff"><path class="uuid-08cd35e5-5429-4678-9716-d686ab3ecfef" d="m292.18,151.63c-45.29,18.53-57.04,82.27-16.83,154.86,40.21,72.59,92.47,79.78,131.35,57.32,32.27-18.64,50.95-86.94,11.5-148.35-38.38-59.74-88.11-79.35-126.02-63.84h0Z"/></clipPath></defs><g id="uuid-85e1621e-e44d-479c-b341-dd87cf6c87d5" data-name="uuid-a9579faf-1ae5-4d40-a4cc-22ba1730b184"><g id="uuid-160c4403-e087-4e8a-a846-a26c4516381d" data-name="uuid-5d29859d-1e7e-4471-9f73-63fc681f3063"><g id="uuid-78a2c4f3-0092-4c8a-a81b-4d0f0dd090a9" data-name="uuid-a170f457-5acf-49c3-a376-5e6480af8811"><g><g><path class="uuid-7cac7961-9347-486a-acb0-10dbd6513383" d="m265.36,275.49s-48.99,12.97-101.9,3.29l1.51-8.18s-5.22,1.59-6.22,2.59c-1.01,1.01-3.02,18.49-2.61,30.55,0,0,12.76,8.08,57.95,8.49,45.19.41,64.06-9.23,64.06-9.23l-12.79-27.53h0Z"/><path class="uuid-7cac7961-9347-486a-acb0-10dbd6513383" d="m207.05,282.36c-1.15,13.66.63,29.77.63,29.77"/><path class="uuid-7cac7961-9347-486a-acb0-10dbd6513383" d="m237.19,280.43c1.04,19.57,4.82,30.82,4.82,30.82"/></g><g><path class="uuid-b14f2490-b4c9-4cfa-9101-1711323d80d6" d="m345.05,154s7.1-16.33,18.29-25.28c2.87-2.3,8.01-4.02,14.78,11.3,6.77,15.32,11.49,44.17,11.49,44.17,0,0-12.77-13.79-44.55-30.19h0Z"/><path class="uuid-dda132b2-d95f-4871-a7b1-064b32f66064" d="m358.58,163.39s2.74-13.98,5.04-20.17c2.3-6.19,5.36-2.87,5.36-2.87"/><path class="uuid-b14f2490-b4c9-4cfa-9101-1711323d80d6" d="m260.03,190.39s-18.01-1.34-37.15,6.79c-3.27,1.39-11.44,6.49-2.11,20.21,9.33,13.72,35.02,32.79,35.02,32.79,0,0,1.57-25.73,4.23-59.79Z"/><path class="uuid-dda132b2-d95f-4871-a7b1-064b32f66064" d="m253.44,206.95s-12.01-2.61-18.57-2.87c-6.55-.26-6.47,3.52-6.47,3.52"/></g><g><path class="uuid-4e16943e-fd44-479d-99ea-a54526ffe949" d="m292.18,151.63c-45.29,18.53-57.04,82.27-16.83,154.86,40.21,72.59,92.47,79.78,131.35,57.32,32.27-18.64,50.95-86.94,11.5-148.35-38.38-59.74-88.11-79.35-126.02-63.84h0Z"/><g class="uuid-ebdbf30b-e82b-478c-8ba4-0d0c364ee291"><g><path class="uuid-742681a4-c23e-4f30-b8ee-5b9c20c0b35c" d="m383.73,253.96s-5.17-13.4,3.06-26.33c8.23-12.93,17.71-11.2,17.71-11.2,0,0-3.64,3.06-1.91,13.5,1.72,10.44-1.44,22.98-18.86,24.03h0Z"/><path class="uuid-742681a4-c23e-4f30-b8ee-5b9c20c0b35c" d="m355.81,266.02s-12.03-13.06-30.94-8.41c-18.91,4.65-22.24,17.83-22.24,17.83,0,0,4.67-2.21,16.75,2.13,13.15,4.72,26.28,6.55,36.44-11.56Z"/><path class="uuid-dda132b2-d95f-4871-a7b1-064b32f66064" d="m392.88,282.4c-.96-3.83,2.35-6.41,3.64-6.27"/><path class="uuid-dda132b2-d95f-4871-a7b1-064b32f66064" d="m383.25,287.76s-8.04-3.26-10.63,2.87"/><path class="uuid-dda132b2-d95f-4871-a7b1-064b32f66064" d="m359.32,346.45s12.64,5.68,19.82-15.93c7.18-21.6,20.27-25.8,29.59-26.01,8.62-.19,14.74,6.51,15.63-1.82"/><path class="uuid-dda132b2-d95f-4871-a7b1-064b32f66064" d="m410.64,318.97s-8.52-3.06-10.82,6.7"/><g><path class="uuid-58a45e6e-6234-4179-aa22-3da84e379254" d="m429.31,260.28c2.49-10.53,5.84-14.74,5.84-14.74l-9.77-21.26c-4.02,9.63-1.63,16.37-3.35,25.95-1.72,9.57-6.46,19.68-15.99,22.79,14.55,2.87,20.78-2.2,23.27-12.73Z"/><path class="uuid-658b5f94-e9af-4c82-a1e0-8418994c6472" d="m440.49,262.7c-.69,13.12-12.07,25.43-16.8,26.06,13.66,2.79,19.86-3.49,19.86-3.49l-3.06-22.57Z"/><path class="uuid-58a45e6e-6234-4179-aa22-3da84e379254" d="m320.36,303.41c-18.67-1.54-31.68-8.26-49.26,1.54-3.48,1.94,9.34,15.51,9.34,15.51,5.6-4.74,15.94-6.61,38.49-6.75,22.55-.14,26.73-13.71,26.73-13.71,0,0-6.62,4.95-25.29,3.41Z"/><path class="uuid-658b5f94-e9af-4c82-a1e0-8418994c6472" d="m301.55,347.9s25.95-8.05,35.43-22.99c-11.92,7.61-36.58,4.89-46.06,12.22l10.63,10.77Z"/></g></g></g><path class="uuid-dda132b2-d95f-4871-a7b1-064b32f66064" d="m292.18,151.63c-45.29,18.53-57.04,82.27-16.83,154.86,40.21,72.59,92.47,79.78,131.35,57.32,32.27-18.64,50.95-86.94,11.5-148.35-38.38-59.74-88.11-79.35-126.02-63.84h0Z"/></g></g></g></g></g></svg>
</svg>