<?xml version="1.0" encoding="UTF-8"?>
<svg xmlns="http://www.w3.org/2000/svg" viewBox="0 0 600 600">
<svg id="uuid-76576d14-1db9-41e1-baf2-b575b174d48a" data-name="BACKGROUND" xmlns="http://www.w3.org/2000/svg" viewBox="0 0 600 600"><defs><style>
      .uuid-5f5134e1-be85-4028-9053-a97aa84d746d {
        fill: #f9a723;
      }
    </style></defs><rect class="uuid-5f5134e1-be85-4028-9053-a97aa84d746d" x="-1" y="-1" width="602" height="602"/></svg>
<svg id="uuid-2e688e09-c4fe-4f4d-abf1-b0fbaf338f5b" data-name="BODY" xmlns="http://www.w3.org/2000/svg" viewBox="0 0 600 600"><defs><style>
      .uuid-eb2f9d7d-b927-4606-a144-95a98972db31 {
        fill: #fff;
      }

      .uuid-505f23ba-818d-453d-8ce0-ba561f80fb1c, .uuid-558f11d3-7dde-4524-89be-a8812332cdfc {
        stroke-miterlimit: 10;
      }

      .uuid-505f23ba-818d-453d-8ce0-ba561f80fb1c, .uuid-558f11d3-7dde-4524-89be-a8812332cdfc, .uuid-fd0f3372-5f7f-47e7-9d47-74d09a54ea2e, .uuid-8a42e792-8aec-4e83-b76a-8088904e37d9, .uuid-524e3d8f-4aaa-4994-b9e3-6b84067c906c {
        stroke: #000;
        stroke-width: 2px;
      }

      .uuid-505f23ba-818d-453d-8ce0-ba561f80fb1c, .uuid-558f11d3-7dde-4524-89be-a8812332cdfc, .uuid-fd0f3372-5f7f-47e7-9d47-74d09a54ea2e, .uuid-524e3d8f-4aaa-4994-b9e3-6b84067c906c {
        fill: #ffc9f1;
      }

      .uuid-558f11d3-7dde-4524-89be-a8812332cdfc, .uuid-fd0f3372-5f7f-47e7-9d47-74d09a54ea2e, .uuid-8a42e792-8aec-4e83-b76a-8088904e37d9 {
        stroke-linecap: round;
      }

      .uuid-fd0f3372-5f7f-47e7-9d47-74d09a54ea2e, .uuid-8a42e792-8aec-4e83-b76a-8088904e37d9, .uuid-524e3d8f-4aaa-4994-b9e3-6b84067c906c {
        stroke-linejoin: round;
      }

      .uuid-8a42e792-8aec-4e83-b76a-8088904e37d9 {
        fill: none;
      }
    </style></defs><ellipse cx="300" cy="518.65" rx="138.6" ry="22.93"/><g><path class="uuid-505f23ba-818d-453d-8ce0-ba561f80fb1c" d="m319.36,427.14c-1.16,1.05-54.95,57-54.95,57,0,0,21.51-1.95,31.74,10.62,10.23,12.57,7.26,23.89,7.26,23.89h-66.9s-28.69-36.17-28.69-36.17c0,0,3.74-13.4,20.44-10.59,20.9-19.38,55.52-59.13,55.52-59.13l35.59,14.38Z"/><path d="m283.78,412.76l31.28,12.64-3.24,9.5c-2.93,3.03-9.76,10.12-13.64,14.14-11.92,0-27.98-2.13-41.33-6.37,13.95-15.1,26.93-29.92,26.93-29.92Z"/></g><g><path class="uuid-fd0f3372-5f7f-47e7-9d47-74d09a54ea2e" d="m409.81,359.6c9.2,3.77,29.89,12.05,42.79,16.03,2.11.65,4.41.69,6.5-.04,11.79-4.08,28.47-11.39,33.03-11.32,5.25.08,7.8,3.93,19.88,2.04,13.36-2.1,22.43-11.99,20.93-23.3-4.21-43.28-25.18-26.79-25.18-26.79,0,0-5.84-8.75-18.76-4.82-11.83,3.6-10.2,14.44-6.47,22.47l-25.29,8.58c-2.14.72-4.45.71-6.59-.02l-35.7-12.61"/><path class="uuid-558f11d3-7dde-4524-89be-a8812332cdfc" d="m533.36,312.82c2.5,3.94,1.62,9.14-1.57,12.4-2.47,2.53-5.88,3.88-9.32,4.4-2.8.43-5.7.42-8.49-.08-2.14-.39-4.29-1.1-5.79-2.75-1.66-1.83-2.27-4.46-1.98-6.87.51-4.17,3.84-7.14,7.22-9.26,3.17-1.98,6.86-3.26,10.64-3.09,3.8.18,7.36,2.19,9.3,5.24Z"/><path class="uuid-558f11d3-7dde-4524-89be-a8812332cdfc" d="m538.57,349.84c.97,3.03.32,6.43-1.5,9.01-3.77,5.33-11.17,5.65-16.96,4.27-3.31-.79-6.69-2.21-8.67-5.13-3.13-4.61-.82-9.79,3.48-12.56,2.58-1.66,5.61-2.67,8.63-3.14,5.73-.89,13.1,1.51,15.03,7.56Z"/><path class="uuid-558f11d3-7dde-4524-89be-a8812332cdfc" d="m538.71,328.53c1.8,2.99,2.06,6.89.22,9.9-1.95,3.2-4.94,5.25-8.49,6.28-3.66,1.07-7.64,1.27-11.4.44-2.25-.5-4.53-1.38-5.96-3.28-1.86-2.47-1.89-5.68-.85-8.49,1.2-3.24,4.17-5.69,7.09-7.37,6.15-3.56,15.21-4.43,19.39,2.52Z"/><path class="uuid-558f11d3-7dde-4524-89be-a8812332cdfc" d="m501.85,311.68s9.27,3.84,7.77,12.02c-1.04,5.68-8.17,9.55-14.94,6.13"/><path class="uuid-8a42e792-8aec-4e83-b76a-8088904e37d9" d="m500.67,331.08c2.41,1.63,5.11,8.04,3.4,14.42"/><path d="m443.44,339.88c-2.88,10.58-6.94,20.23-11.17,28.59-10.17-3.78-21.16-9.53-27-11.93l11.83-26.02,26.35,9.36Z"/></g><g><circle class="uuid-505f23ba-818d-453d-8ce0-ba561f80fb1c" cx="300" cy="300" r="138.16"/><path class="uuid-eb2f9d7d-b927-4606-a144-95a98972db31" d="m184.58,308.17c-4.41,0-7.98-3.57-7.98-7.98,0-67.74,55.11-122.86,122.86-122.86,4.41,0,7.98,3.57,7.98,7.98s-3.57,7.98-7.98,7.98c-58.94,0-106.9,47.95-106.9,106.9,0,4.41-3.57,7.98-7.98,7.98Z"/></g><path class="uuid-8a42e792-8aec-4e83-b76a-8088904e37d9" d="m264.41,484.14c-4.06.49-11.49,1.36-17.85,7.23"/><path class="uuid-eb2f9d7d-b927-4606-a144-95a98972db31" d="m185.17,308.14c-4.41,0-7.98-3.57-7.98-7.98,0-67.74,55.11-122.86,122.86-122.86,4.41,0,7.98,3.57,7.98,7.98s-3.57,7.98-7.98,7.98c-58.94,0-106.9,47.95-106.9,106.9,0,4.41-3.57,7.98-7.98,7.98Z"/><path d="m203.75,397.46l34.2-27.46-24.86,36.3c-6.73-5.1-3.66-2.61-9.34-8.83Z"/><path class="uuid-524e3d8f-4aaa-4994-b9e3-6b84067c906c" d="m323.72,387.31c19.14-13.4,39.15-11.3,55.52,7.36,19.6,22.35,30.57,33.06,30.57,33.06,0,0,10.74-19.34,34.77-17.5,18.26,1.4,24.84,14.43,24.84,14.43,0,0,6.21,8.82-22.45,33.5-28.66,24.68-54.93,40.92-61.14,29.46-6.21-11.46-2.82-32.1-2.82-32.1,0,0-22.02-26.09-27.94-32.01-6.79-6.79-15.71-1.36-15.71-1.36"/><path class="uuid-505f23ba-818d-453d-8ce0-ba561f80fb1c" d="m446.97,458.17c-25.89,22.29-49.82,37.69-58.79,32.02-9.77-7.44,26.84-38.54,44.88-52.7,18.04-14.16,32.17-17.82,36.36-12.81,0,0,6.21,8.82-22.45,33.5Z"/><path class="uuid-8a42e792-8aec-4e83-b76a-8088904e37d9" d="m409.81,427.74c-1.89,2.86-4.55,10.38-4.55,10.38"/><g><path class="uuid-fd0f3372-5f7f-47e7-9d47-74d09a54ea2e" d="m214.11,345.7c-8.05,5.83-25.34,20.79-35.52,29.67-1.67,1.45-2.82,3.41-3.39,5.55-3.14,11.67-8.55,33.44-8.55,33.44,0,0-8.42.58-12.19,14.35-3.64,13.3-6.64,25.06,3.77,29.75.35,7.47,7.51,15.45,19.2,9.41.14-.06,1.32,1.32,1.44,1.45,2.64,2.7,6.36,4.45,10.13,4.81,3.65.36,7.61-.67,10.43-3.08,3.29-2.81,5.4-6.94,6.05-11.2.4-2.61.26-5.31-.75-7.78,0,0,6.2-2.51,8.05-11.34,1.99-9.49-4.22-19.42-14.62-18.18l6.17-23.11c.51-2.2,1.74-4.16,3.49-5.59l29.38-24.3"/><path class="uuid-8a42e792-8aec-4e83-b76a-8088904e37d9" d="m204.73,452.06c-1.37-3.47-5.39-7.08-9-6.88"/><path class="uuid-8a42e792-8aec-4e83-b76a-8088904e37d9" d="m178.86,469.3c-5.16-5.27-3.82-11.97-2.9-13.54"/><path class="uuid-8a42e792-8aec-4e83-b76a-8088904e37d9" d="m158.22,458.45c-.27-5.22.73-7.32,3.06-9.83"/><path class="uuid-8a42e792-8aec-4e83-b76a-8088904e37d9" d="m193.93,450.63c.14-2.07.48-4.16,1.32-6.06.85-1.95,2.36-3.88,4.31-4.85"/></g></svg>
<svg id="uuid-ffac6761-6b9e-4a13-ab42-3dfadf65c420" data-name="BODY" xmlns="http://www.w3.org/2000/svg" viewBox="0 0 600 600"><circle cx="369.54" cy="262.94" r="9.78" transform="translate(-8.58 12.49) rotate(-1.91)"/><circle cx="362.12" cy="293.18" r="9.78" transform="translate(-9.59 12.26) rotate(-1.91)"/><circle cx="337.63" cy="273.96" r="9.78" transform="translate(-8.96 11.43) rotate(-1.91)"/></svg>
<svg id="uuid-d89b1a3b-1abc-4239-8dc4-47b8ed987a23" data-name="BODY" xmlns="http://www.w3.org/2000/svg" viewBox="0 0 600 600"><defs><style>
      .uuid-c5c1942b-919f-4361-a538-7c7e7cf852f0 {
        fill: #7aa6ff;
      }

      .uuid-c5c1942b-919f-4361-a538-7c7e7cf852f0, .uuid-e2f7ad43-e6dd-4758-93ba-680831edc001, .uuid-56ad82ea-d48e-4308-a763-e34c42640525 {
        stroke: #000;
        stroke-linecap: round;
        stroke-linejoin: round;
      }

      .uuid-c5c1942b-919f-4361-a538-7c7e7cf852f0, .uuid-56ad82ea-d48e-4308-a763-e34c42640525 {
        stroke-width: 2px;
      }

      .uuid-e2f7ad43-e6dd-4758-93ba-680831edc001 {
        stroke-width: 2px;
      }

      .uuid-e2f7ad43-e6dd-4758-93ba-680831edc001, .uuid-56ad82ea-d48e-4308-a763-e34c42640525 {
        fill: #ff78d8;
      }
    </style></defs><g id="uuid-333657bb-b618-45a7-b183-dcd3ce45fb5d" data-name="uuid-2b0117f1-1776-4845-a0f5-c237a6ca9f96"><g id="uuid-04b458af-e80e-46bd-b30a-189016c9a742" data-name="uuid-0881513b-7c8c-44a0-be29-2e98fb16f773"><g id="uuid-16e95431-6b51-4de0-bde5-963b33635208" data-name="uuid-4ea92ad2-89cb-4935-9ee1-ea64959099a6"><g><path class="uuid-c5c1942b-919f-4361-a538-7c7e7cf852f0" d="m505.78,307.9s-4.59-35.13-27.13-66.82-85.23-42.92-85.23-42.92l-6.19-5.32s71.3,10.02,95.45,45.45c24.73,36.26,27.59,68.56,27.59,68.56l-4.5,1.04h0Z"/><path class="uuid-56ad82ea-d48e-4308-a763-e34c42640525" d="m520.68,366.22h0c.19,3.16-2.22,5.88-5.38,6.07l-.42.03c-3.16.19-5.88-2.22-6.07-5.38h0c-.19-3.16,2.22-5.88,5.38-6.07"/><g><path class="uuid-56ad82ea-d48e-4308-a763-e34c42640525" d="m209.79,442.76l-10.47-3.08h0c-2.15,1.3-3.42,3.25-4.07,4.89-.65,1.64-1.36,4.56-1.31,5.93l12.49,3.67c3.15.93,6.46-.88,7.38-4.03.93-3.15-.88-6.46-4.03-7.38Z"/><path class="uuid-56ad82ea-d48e-4308-a763-e34c42640525" d="m155.06,426.69c-3-.62-6.02,1.15-6.9,4.14-.93,3.15.88,6.46,4.03,7.38.65-2.81,1.99-9.48,2.87-11.53Z"/><path class="uuid-e2f7ad43-e6dd-4758-93ba-680831edc001" d="m202.75,447.11l.12-.41c.89-3.04,4.08-4.78,7.12-3.88h0c3.04.89,4.78,4.08,3.88,7.12l-.12.41c-.89,3.04-4.08,4.78-7.12,3.88h0c-3.04-.89-4.78-4.08-3.88-7.12Z"/></g><path class="uuid-c5c1942b-919f-4361-a538-7c7e7cf852f0" d="m174.51,242.11c-21.63,3.45-53.44-10.17-83.85-12-31.14-1.87-60.79,11.08-40.28,52.1,20.51,41.02,59.59,52.7,114.24,56.6,54.65,3.89,97.92,20.21,101.66,58.84,3.74,38.63-34.37,58.11-57.97,52.98-2.92-.63-2.05-4.33.9-3.83,10.1,1.72,47.12-2.23,52.61-38.59,5.49-36.37-29.45-61.17-96.95-65.11s-99.59-20.44-119.06-59.62c-17.82-35.86-2.26-59.81,45.89-58.16,23.43.8,48.13,11.53,84.9,12.48l-2.09,4.32h0Z"/><g><path class="uuid-56ad82ea-d48e-4308-a763-e34c42640525" d="m502.55,311.9s.07.03.11.05c2.71,1.34,4.95,4.09,4.95,4.09,0,0,3.47-4.64,6.71-5.9h0l-.07-.61c-.37-3.26-3.32-5.61-6.58-5.24-3.26.37-5.61,3.32-5.24,6.58l.12,1.04Z"/><path class="uuid-56ad82ea-d48e-4308-a763-e34c42640525" d="m520.35,363.24c-6.52-1.27-10.5-5.36-10.34-10.27.17-5.32,6.11-8.75,6.11-8.75,0,0-3.24-1.27-4.24-5.03-1.42-5.33,2.68-9.46,2.68-9.46-4.23-.67-6.25-2.9-6.25-2.9,0,0-1.95,2.45-3.7,3.18l4.2,37.02c.37,3.26,3.32,5.61,6.58,5.24,3.26-.37,5.61-3.32,5.24-6.58l-.28-2.46Z"/></g></g></g></g></g></svg>
<svg id="uuid-32df2771-6e0c-4fb0-a256-cee20347e81b" data-name="BODY" xmlns="http://www.w3.org/2000/svg" viewBox="0 0 600 600"><defs><style>
      .uuid-efeb3350-efa9-4cf7-a7a8-b084aca9d1ad {
        fill: #353434;
      }

      .uuid-efeb3350-efa9-4cf7-a7a8-b084aca9d1ad, .uuid-b1a9a703-fb16-4afa-bf90-8dc5e2aac02b {
        stroke: #000;
        stroke-linecap: round;
        stroke-linejoin: round;
        stroke-width: 2px;
      }

      .uuid-b1a9a703-fb16-4afa-bf90-8dc5e2aac02b {
        fill: none;
      }
    </style></defs><g id="uuid-b408f2c4-01d8-418a-8f58-ef7ebdcfee44" data-name="uuid-4a0f5770-94e2-475f-8f80-1d829fd1575f"><g id="uuid-ae0df641-c1a1-4339-a3ec-5f2bd01e9a36" data-name="uuid-0ea39616-cb16-4072-9c35-549ff496136e"><g id="uuid-af0fcd2d-5090-4273-b1f0-b9bdb9a91628" data-name="uuid-c5e91212-ec86-4a9c-b6fc-09a30aa7cd5a"><g><path class="uuid-efeb3350-efa9-4cf7-a7a8-b084aca9d1ad" d="m197.51,207.34l6.04-6.27s4.04,1.25,7.13-1.78c7.73,3.9,13.24-1.73,13.24-1.73,0,0,12.06,6.93,23.82-1.42,1.61,5.51,10.11,5.64,13.91,4.25.07,7.25,10.96,6.2,10.96,6.2,0,0-2.66,3.53,5.32,6.06,7.98,2.54,7.05,13.18,1.3,13.86-5.75.68-6.31-4.45-6.31-4.45,0,0-2.65,8.6,6.93,9.47,6.12.56,9.65-5.82,9.65-5.82,0,0,.56,3.96,8.6,4.45,8.04.49,11.75,3.34,11.14,5.69-.62,2.35-9.09,4.08-10.02,8.66-.93,4.58,7.61,8.66,7.61,8.66,0,0-4.15-4.83-2.23-7.24,1.92-2.41,16.77-7.42,11.32-14.91,6.25,4.52,14.04.87,15.84-4.64,4.02,3.71,12.99,1.73,13.55-4.15,8.35,3.9,13.49,9.65,3.34,16.27,6.99,1.24,12.25-6.19,10.89-12.19-1.36-6-6.37-7.92-6.37-7.92,0,0,8.29,1.98,8.91-5.32,4.58.49,7.61-3.77,7.61-3.77,0,0-2.66,8.04,2.72,13.3s13.49.06,13.49.06c0,0-6.5,1.11-9.47-2.66-2.97-3.77,2.29-11.38,3.96-14.29,9.4,2.78,14.04-6.25,13.55-11.82-.49-5.57-5.14-9.84-5.14-9.84,0,0,4.95-3.96-1.36-7.11,8.48,3.16,12.37-3.84,12.93-5.88-6.99,4.15-12.44,3.03-15.96-2.23-3.53-5.26-2.66-12.93-10.33-15.84-7.67-2.91-10.89.62-10.89.62,0,0-.43-10.08-8.72-13.05-8.29-2.97-16.33,2.1-16.33,2.1,0,0-4.08-7.86-14.72-4.08-3.28-9.03-26.36-11.82-35.7,2.47-4.27-6.5-15.1-3.53-16.52,1.05-6.74-4.45-16.89.19-21.53,6.74-5.44-3.71.25-7.55,4.95-12.56,4.7-5.01-1.92-10.89-1.92-10.89,0,0,3.46,4.76-2.29,9.78-5.75,5.01-15.96,10.95-10.08,17.57-6.19-3.34-20.23-.25-18.13,12.81-5.44,2.1-6.31,9.16-6.31,9.16,0,0-9.34-2.6-11.2,6.62-8.48-1.42-12.68,8.35-9.47,14.66-4.33,7.9,2.3,11.33,2.3,11.33h0Z"/><g><path class="uuid-b1a9a703-fb16-4afa-bf90-8dc5e2aac02b" d="m195.22,196.01c2.09-3.31,4.18-3.64,4.18-3.64"/><path class="uuid-b1a9a703-fb16-4afa-bf90-8dc5e2aac02b" d="m203.55,201.07c-2.11-.41-3.96-1.88-3.96-1.88"/><path class="uuid-b1a9a703-fb16-4afa-bf90-8dc5e2aac02b" d="m210.68,199.29s-2.83-1.61-5.14-5.1"/><path class="uuid-b1a9a703-fb16-4afa-bf90-8dc5e2aac02b" d="m223.92,197.55c-5.02-2.65-5.52-6.86-5.52-6.86"/><path class="uuid-b1a9a703-fb16-4afa-bf90-8dc5e2aac02b" d="m247.74,196.13c2.48-1.84,4.6-4.9,4.6-4.9"/><path class="uuid-b1a9a703-fb16-4afa-bf90-8dc5e2aac02b" d="m264.24,184.01s6.37-1.47,6.95,4.25"/><path class="uuid-b1a9a703-fb16-4afa-bf90-8dc5e2aac02b" d="m278.49,181.28s14.56-4.92,22.52,2.07c7.96,6.99-.65,15.99-.65,15.99"/><path class="uuid-b1a9a703-fb16-4afa-bf90-8dc5e2aac02b" d="m304.07,192.69c11.31-2.35,14.8,7.16,12.54,13.57"/><path class="uuid-b1a9a703-fb16-4afa-bf90-8dc5e2aac02b" d="m300.46,212.94s7.7-4.41,8.31,4.26"/><path class="uuid-b1a9a703-fb16-4afa-bf90-8dc5e2aac02b" d="m289.5,225.7c2.39-4.71.75-11.12-1.97-14.2"/><path class="uuid-b1a9a703-fb16-4afa-bf90-8dc5e2aac02b" d="m315.92,231.02c-2.14-2.21-5.26-3.39-5.26-3.39"/><path class="uuid-b1a9a703-fb16-4afa-bf90-8dc5e2aac02b" d="m345.31,222.24c.12-3.53-2.25-6.17-2.25-6.17"/><path class="uuid-b1a9a703-fb16-4afa-bf90-8dc5e2aac02b" d="m332.67,215.69c.13.13,4.44,3.57,10.4.1,3.17-1.85,2.96-5.48,2.96-5.48"/><path class="uuid-b1a9a703-fb16-4afa-bf90-8dc5e2aac02b" d="m317.61,175.38c-.54,1.17-.33,2.59.3,3.72s1.64,1.99,2.72,2.7c3.17,2.07,6.96,2.88,10.57,4.01s7.31,2.73,9.5,5.81c2.42,3.4,2.44,8.33.04,11.75-1.26,1.8-3.06,3.13-4.9,4.35-2.07,1.37-4.26,2.63-6.67,3.26,3.07-1.73,5.19-5.03,5.5-8.54.31-3.51-1.2-7.13-3.92-9.38"/><path class="uuid-b1a9a703-fb16-4afa-bf90-8dc5e2aac02b" d="m369.43,209.62c1.95-1.75,2.9-4.44,2.89-7.06s-.91-5.18-2.18-7.47c-.59-1.07-1.27-2.1-2.16-2.94-1.98-1.87-4.77-2.6-7.46-2.96"/><path class="uuid-b1a9a703-fb16-4afa-bf90-8dc5e2aac02b" d="m380.08,205.86c.84-1.23,1.59-2.56,1.89-4.02.31-1.46.12-3.07-.77-4.27"/><path class="uuid-b1a9a703-fb16-4afa-bf90-8dc5e2aac02b" d="m372.49,184.57c.81-2.65.65-5.65-.77-8.03s-4.16-4-6.92-3.76c0-1.72-.34-3.46-1.12-5-.78-1.54-2.02-2.86-3.57-3.61-2-.96-4.32-.91-6.53-.84"/><path class="uuid-b1a9a703-fb16-4afa-bf90-8dc5e2aac02b" d="m353.51,185.41c.22-1.97-.66-4.02-2.23-5.22s-3.78-1.51-5.63-.78c-.51-2.43-1.13-4.85-2.15-7.12s-2.46-4.38-4.42-5.91c-2.11-1.65-4.76-2.56-7.43-2.66-1.78-.07-3.58.21-5.25.82-2.7.99-5.02,2.78-7.29,4.56"/><path class="uuid-b1a9a703-fb16-4afa-bf90-8dc5e2aac02b" d="m323.16,153.24c-2.04-2.87-5.86-4.34-9.3-3.59-3.44.75-6.3,3.68-6.97,7.13-1.93-1.38-3.92-2.79-6.21-3.42-2.38-.66-4.97-.42-7.25.52s-4.25,2.56-5.74,4.53"/><path class="uuid-b1a9a703-fb16-4afa-bf90-8dc5e2aac02b" d="m228.2,181.59c-.3-1.59.31-3.25,1.37-4.47s2.52-2.02,4.04-2.57c4.77-1.72,10.36-.96,14.49,1.98-.04-2.59.93-5.19,2.66-7.12s4.2-3.18,6.78-3.42c1.97-.19,3.95.19,5.93.29,3.13.15,6.42-.47,8.88-2.41,2.46-1.94,3.86-5.4,2.79-8.35,3.35,3.09,4.23,8.53,2.03,12.52-2.2,3.99-7.27,6.15-11.67,4.96"/><path class="uuid-b1a9a703-fb16-4afa-bf90-8dc5e2aac02b" d="m249.72,148.8c-2.27,2.69-3.91,5.92-4.74,9.35"/><path class="uuid-b1a9a703-fb16-4afa-bf90-8dc5e2aac02b" d="m222.21,165.49c3.49-1.21,7.58-.46,10.42,1.9"/><path class="uuid-b1a9a703-fb16-4afa-bf90-8dc5e2aac02b" d="m271.15,142.08c2.69,1.83,5,4.2,6.75,6.94"/><path class="uuid-b1a9a703-fb16-4afa-bf90-8dc5e2aac02b" d="m323.55,138.58c-2.54,1.05-4.92,2.48-7.03,4.24"/><path class="uuid-b1a9a703-fb16-4afa-bf90-8dc5e2aac02b" d="m338.1,142.44c1.03,1.81,1.82,3.76,2.33,5.78,1.99-.95,4.39-1.03,6.43-.2,2.05.83,3.72,2.55,4.49,4.62"/><path class="uuid-b1a9a703-fb16-4afa-bf90-8dc5e2aac02b" d="m363.07,153.43c-.02,1.62-.16,3.24-.43,4.84"/><path class="uuid-b1a9a703-fb16-4afa-bf90-8dc5e2aac02b" d="m387.44,176.95c-3.18-.91-6.31-3.97-8.41-6.53s-3.07-4.33-4.48-7.32"/></g></g></g></g></g></svg>
</svg>