<?xml version="1.0" encoding="UTF-8"?>
<svg xmlns="http://www.w3.org/2000/svg" viewBox="0 0 600 600">
<svg id="uuid-47722c1a-ec94-491f-b9ae-69c2f5e8f75c" data-name="BACKGROUND" xmlns="http://www.w3.org/2000/svg" viewBox="0 0 600 600"><defs><style>
      .uuid-ab0c32c0-b20c-4bf1-888e-57f882ba1299 {
        fill: #ffc9f1;
      }
    </style></defs><rect class="uuid-ab0c32c0-b20c-4bf1-888e-57f882ba1299" x="-1" y="-1" width="602" height="602"/></svg>
<svg id="uuid-79ae8300-360b-4786-a450-139d88b9bd1b" data-name="BACKGROUND" xmlns="http://www.w3.org/2000/svg" viewBox="0 0 600 600"><defs><style>
      .uuid-bb790ef4-3482-4c16-9212-ca22a42e94c3, .uuid-ce21024d-8548-4b65-8289-134ddf374839 {
        fill: #fff;
      }

      .uuid-30451256-22b5-42b4-8d7c-d574d31a414e, .uuid-ce21024d-8548-4b65-8289-134ddf374839, .uuid-ec441505-d704-4a03-88d5-730631e1d0ab, .uuid-4dc48eb6-7162-43bb-b26b-b457b7eed207, .uuid-69c06034-4b4b-451d-b5db-874d58b2df8d, .uuid-488e563d-fac1-4f7c-b70d-f33aa7f157d6, .uuid-2c7f611f-0762-4166-ba69-0c8fa63a7c69 {
        stroke: #000;
        stroke-width: 2px;
      }

      .uuid-30451256-22b5-42b4-8d7c-d574d31a414e, .uuid-ce21024d-8548-4b65-8289-134ddf374839, .uuid-4dc48eb6-7162-43bb-b26b-b457b7eed207, .uuid-69c06034-4b4b-451d-b5db-874d58b2df8d, .uuid-488e563d-fac1-4f7c-b70d-f33aa7f157d6 {
        stroke-linecap: round;
      }

      .uuid-30451256-22b5-42b4-8d7c-d574d31a414e, .uuid-ec441505-d704-4a03-88d5-730631e1d0ab, .uuid-69c06034-4b4b-451d-b5db-874d58b2df8d, .uuid-2c7f611f-0762-4166-ba69-0c8fa63a7c69 {
        fill: #3ef1ff;
      }

      .uuid-30451256-22b5-42b4-8d7c-d574d31a414e, .uuid-4dc48eb6-7162-43bb-b26b-b457b7eed207, .uuid-2c7f611f-0762-4166-ba69-0c8fa63a7c69 {
        stroke-linejoin: round;
      }

      .uuid-ce21024d-8548-4b65-8289-134ddf374839, .uuid-ec441505-d704-4a03-88d5-730631e1d0ab, .uuid-69c06034-4b4b-451d-b5db-874d58b2df8d, .uuid-488e563d-fac1-4f7c-b70d-f33aa7f157d6 {
        stroke-miterlimit: 10;
      }

      .uuid-4dc48eb6-7162-43bb-b26b-b457b7eed207 {
        fill: none;
      }

      .uuid-488e563d-fac1-4f7c-b70d-f33aa7f157d6 {
        fill: #f9a723;
      }
    </style></defs><path class="uuid-30451256-22b5-42b4-8d7c-d574d31a414e" d="m409.81,359.6c9.2,3.77,29.89,12.05,42.79,16.03,2.11.65,4.41.69,6.5-.04,11.79-4.08,28.47-11.39,33.03-11.32,5.25.08,7.8,3.93,19.88,2.04,13.36-2.1,22.43-11.99,20.93-23.3-4.21-43.28-25.18-26.79-25.18-26.79,0,0-5.84-8.75-18.76-4.82-11.83,3.6-10.2,14.44-6.47,22.47l-25.29,8.58c-2.14.72-4.45.71-6.59-.02l-35.7-12.61"/><path class="uuid-69c06034-4b4b-451d-b5db-874d58b2df8d" d="m533.36,312.82c2.5,3.94,1.62,9.14-1.57,12.4-2.47,2.53-5.88,3.88-9.32,4.4-2.8.43-5.7.42-8.49-.08-2.14-.39-4.29-1.1-5.79-2.75-1.66-1.83-2.27-4.46-1.98-6.87.51-4.17,3.84-7.14,7.22-9.26,3.17-1.98,6.86-3.26,10.64-3.09,3.8.18,7.36,2.19,9.3,5.24Z"/><path class="uuid-69c06034-4b4b-451d-b5db-874d58b2df8d" d="m538.57,349.84c.97,3.03.32,6.43-1.5,9.01-3.77,5.33-11.17,5.65-16.96,4.27-3.31-.79-6.69-2.21-8.67-5.13-3.13-4.61-.82-9.79,3.48-12.56,2.58-1.66,5.61-2.67,8.63-3.14,5.73-.89,13.1,1.51,15.03,7.56Z"/><path class="uuid-69c06034-4b4b-451d-b5db-874d58b2df8d" d="m538.71,328.53c1.8,2.99,2.06,6.89.22,9.9-1.95,3.2-4.94,5.25-8.49,6.28-3.66,1.07-7.64,1.27-11.4.44-2.25-.5-4.53-1.38-5.96-3.28-1.86-2.47-1.89-5.68-.85-8.49,1.2-3.24,4.17-5.69,7.09-7.37,6.15-3.56,15.21-4.43,19.39,2.52Z"/><path class="uuid-69c06034-4b4b-451d-b5db-874d58b2df8d" d="m501.85,311.68s9.27,3.84,7.77,12.02c-1.04,5.68-8.17,9.55-14.94,6.13"/><path class="uuid-4dc48eb6-7162-43bb-b26b-b457b7eed207" d="m500.67,331.08c2.41,1.63,5.11,8.04,3.4,14.42"/><path d="m443.44,339.88c-2.88,10.58-6.94,20.23-11.17,28.59-10.17-3.78-21.16-9.53-27-11.93l11.83-26.02,26.35,9.36Z"/><ellipse cx="300" cy="518.65" rx="138.6" ry="22.93"/><path class="uuid-ec441505-d704-4a03-88d5-730631e1d0ab" d="m319.36,427.14c-1.16,1.05-54.95,57-54.95,57,0,0,21.51-1.95,31.74,10.62,10.23,12.57,7.26,23.89,7.26,23.89h-66.9s-28.69-36.17-28.69-36.17c0,0,3.74-13.4,20.44-10.59,20.9-19.38,55.52-59.13,55.52-59.13l35.59,14.38Z"/><path d="m283.78,412.76l31.28,12.64-3.24,9.5c-2.93,3.03-9.76,10.12-13.64,14.14-11.92,0-27.98-2.13-41.33-6.37,13.95-15.1,26.93-29.92,26.93-29.92Z"/><path class="uuid-ec441505-d704-4a03-88d5-730631e1d0ab" d="m354.45,173.54l-.11.27-174.2,58.29c-11.49,20.13-18.05,43.43-18.05,68.27,0,76.2,61.77,137.98,137.97,137.98s137.98-61.77,137.98-137.98c0-56.89-34.43-105.72-83.58-126.83Z"/><path class="uuid-4dc48eb6-7162-43bb-b26b-b457b7eed207" d="m264.41,484.14c-4.06.49-11.49,1.36-17.85,7.23"/><path class="uuid-bb790ef4-3482-4c16-9212-ca22a42e94c3" d="m185.17,308.14c-4.41,0-7.98-3.57-7.98-7.98,0-67.74,55.11-122.86,122.86-122.86,4.41,0,7.98,3.57,7.98,7.98s-3.57,7.98-7.98,7.98c-58.94,0-106.9,47.95-106.9,106.9,0,4.41-3.57,7.98-7.98,7.98Z"/><path d="m203.75,397.46l34.2-27.46-24.86,36.3c-6.73-5.1-3.66-2.61-9.34-8.83Z"/><path class="uuid-2c7f611f-0762-4166-ba69-0c8fa63a7c69" d="m323.72,387.31c19.14-13.4,39.15-11.3,55.52,7.36,19.6,22.35,30.57,33.06,30.57,33.06,0,0,10.74-19.34,34.77-17.5,18.26,1.4,24.84,14.43,24.84,14.43,0,0,6.21,8.82-22.45,33.5-28.66,24.68-54.93,40.92-61.14,29.46-6.21-11.46-2.82-32.1-2.82-32.1,0,0-22.02-26.09-27.94-32.01-6.79-6.79-15.71-1.36-15.71-1.36"/><path class="uuid-ec441505-d704-4a03-88d5-730631e1d0ab" d="m446.97,458.17c-25.89,22.29-49.82,37.69-58.79,32.02-9.77-7.44,26.84-38.54,44.88-52.7,18.04-14.16,32.17-17.82,36.36-12.81,0,0,6.21,8.82-22.45,33.5Z"/><path class="uuid-4dc48eb6-7162-43bb-b26b-b457b7eed207" d="m409.81,427.74c-1.89,2.86-4.55,10.38-4.55,10.38"/><ellipse class="uuid-ce21024d-8548-4b65-8289-134ddf374839" cx="269.41" cy="209.07" rx="94.9" ry="26.25" transform="translate(-52.5 96.54) rotate(-18.55)"/><ellipse class="uuid-488e563d-fac1-4f7c-b70d-f33aa7f157d6" cx="269.41" cy="209.07" rx="71.19" ry="13.32" transform="translate(-52.5 96.54) rotate(-18.55)"/><g><path class="uuid-30451256-22b5-42b4-8d7c-d574d31a414e" d="m214.11,345.7c-8.05,5.83-25.34,20.79-35.52,29.67-1.67,1.45-2.82,3.41-3.39,5.55-3.14,11.67-8.55,33.44-8.55,33.44,0,0-8.42.58-12.19,14.35-3.64,13.3-6.64,25.06,3.77,29.75.35,7.47,7.51,15.45,19.2,9.41.14-.06,1.32,1.32,1.44,1.45,2.64,2.7,6.36,4.45,10.13,4.81,3.65.36,7.61-.67,10.43-3.08,3.29-2.81,5.4-6.94,6.05-11.2.4-2.61.26-5.31-.75-7.78,0,0,6.2-2.51,8.05-11.34,1.99-9.49-4.22-19.42-14.62-18.18l6.17-23.11c.51-2.2,1.74-4.16,3.49-5.59l29.38-24.3"/><path class="uuid-4dc48eb6-7162-43bb-b26b-b457b7eed207" d="m204.73,452.06c-1.37-3.47-5.39-7.08-9-6.88"/><path class="uuid-4dc48eb6-7162-43bb-b26b-b457b7eed207" d="m178.86,469.3c-5.16-5.27-3.82-11.97-2.9-13.54"/><path class="uuid-4dc48eb6-7162-43bb-b26b-b457b7eed207" d="m158.22,458.45c-.27-5.22.73-7.32,3.06-9.83"/><path class="uuid-4dc48eb6-7162-43bb-b26b-b457b7eed207" d="m193.93,450.63c.14-2.07.48-4.16,1.32-6.06.85-1.95,2.36-3.88,4.31-4.85"/></g></svg>
<svg id="uuid-6a02459f-1b68-443c-bd4b-7b11b7abbe5a" data-name="BODY" xmlns="http://www.w3.org/2000/svg" viewBox="0 0 600 600"><defs><style>
      .uuid-f630b38e-3266-47b2-bfbc-f2260501e18f {
        fill: #ff78d8;
        stroke: #000;
        stroke-linecap: round;
        stroke-linejoin: round;
        stroke-width: 2px;
      }
    </style></defs><circle cx="362.12" cy="293.18" r="9.78" transform="translate(-9.59 12.26) rotate(-1.91)"/><path class="uuid-f630b38e-3266-47b2-bfbc-f2260501e18f" d="m337.57,261.14c-1.59,1.06-2.46,2.67-2.79,4.19-.28,1.29-1.56,2.12-2.85,1.86-1.5-.3-3.22-.16-4.8.89-2.88,1.92-3.44,6.16-1.23,9.48,3.99,6.01,12.54,6.76,17.83,6.27.82-.08,1.55-.56,1.94-1.29,2.5-4.69,5.12-12.85,1.13-18.86-2.2-3.32-6.33-4.45-9.21-2.54Z"/><path class="uuid-f630b38e-3266-47b2-bfbc-f2260501e18f" d="m371.18,249c-1.81.61-3.07,1.94-3.79,3.32-.6,1.17-2.05,1.64-3.24,1.06-1.37-.67-3.07-1-4.87-.39-3.28,1.1-4.92,5.06-3.65,8.83,2.29,6.84,10.35,9.79,15.59,10.69.82.14,1.64-.14,2.21-.74,3.64-3.88,8.28-11.08,5.99-17.92-1.27-3.78-4.96-5.94-8.24-4.84Z"/></svg>
<svg id="uuid-0aa8c587-996b-4cdc-8f6f-9857078d28d3" data-name="BODY" xmlns="http://www.w3.org/2000/svg" viewBox="0 0 600 600"><defs><style>
      .uuid-5c1aa41b-276d-47a9-975e-6b51258e34fd {
        fill: #7aa6ff;
      }

      .uuid-5c1aa41b-276d-47a9-975e-6b51258e34fd, .uuid-5420853f-4843-434c-aead-428453da705c, .uuid-98d20c01-64f9-488a-bda2-9c627608ef99 {
        stroke: #000;
        stroke-linecap: round;
        stroke-linejoin: round;
        stroke-width: 2px;
      }

      .uuid-5420853f-4843-434c-aead-428453da705c {
        fill: none;
      }

      .uuid-98d20c01-64f9-488a-bda2-9c627608ef99 {
        fill: #f9a723;
      }
    </style></defs><g id="uuid-efe03c10-21e9-40e1-b362-43562c7320e3" data-name="uuid-3374edde-7b2c-4e71-84a6-3cb653058dc6"><g id="uuid-7e5c48c3-5d6e-4296-9f6a-e6035b6c477a" data-name="uuid-298fa604-3857-4000-a4c4-1a509c9ef803"><g><path class="uuid-5c1aa41b-276d-47a9-975e-6b51258e34fd" d="m244.59,514.46s8.09-20.22,26.83-20.22c15.1,0,19.01,7.06,19.01,7.06,0,0,3.03-5.94,8.09-9.18,0,0-4.15-7.58-14.26-9.3l-1.73,1.91s-6.97-5.35-23.92-2.28c-16.95,3.07-28.51,21.15-28.51,21.15l.92,8.35,4.39,6.42,9.18-3.89v-.02Z"/><path class="uuid-98d20c01-64f9-488a-bda2-9c627608ef99" d="m209.84,478.1l27.45,34.51c.93,1.16,2.33,1.84,3.82,1.84h61.66c1.79,0,3.24,1.45,3.24,3.24v4.45c0,1.79-1.45,3.24-3.24,3.24h-64.92c-3.9,0-7.59-1.79-10-4.85l-26.47-32.68c-.89-1.1-.9-2.68-.02-3.79l4.63-5.81c.91-1.33,2.85-1.41,3.86-.14h0Z"/><path class="uuid-5420853f-4843-434c-aead-428453da705c" d="m282.53,484.72c2.44,1.78,6.89,7.45,7.9,16.57,2.33,5.28,2.33,13.17,2.33,13.17"/></g><g><path class="uuid-5c1aa41b-276d-47a9-975e-6b51258e34fd" d="m405.26,457.42s-8.33-22.95,12.28-44.49c4.45-4.65,15.27-6.57,24.17-6.37,0,0-25.89,17.7-19.96,39.81l-16.49,11.06h0Z"/><path class="uuid-98d20c01-64f9-488a-bda2-9c627608ef99" d="m382.22,485.43c.29,4,3.37,8.75,9.54,9.05s18.87-1.74,46.41-24.52c27.54-22.78,37.32-34.79,34.59-45.81-2.73-11.02-15.88-8.29-29.33,0-13.45,8.29-23.24,15.87-39.34,30.44-15.19,13.75-22.52,21.98-21.88,30.84h0Z"/><path class="uuid-5420853f-4843-434c-aead-428453da705c" d="m472.87,430.86c1.07-6.88-12.92-14.11-52.29,20.95-38.8,34.55-33.55,42.06-30.93,42.38"/><path class="uuid-5420853f-4843-434c-aead-428453da705c" d="m395.95,488.37c1.88,1.93,15.96-4.79,39.42-24.07,23.46-19.28,33.17-30.27,31.28-32.36s-10.79-2.61-41.12,23.75c-30.33,26.36-31.35,30.85-29.58,32.67h0Z"/><path class="uuid-5420853f-4843-434c-aead-428453da705c" d="m441.71,406.56c12.54-.01,17.04,10.85,17.04,10.85"/></g></g></g></svg>
<svg id="uuid-39dff219-9e19-48c2-9e34-cadd47e3fa29" data-name="BODY" xmlns="http://www.w3.org/2000/svg" viewBox="0 0 600 600"><defs><style>
      .uuid-8ea0a070-6485-4467-a882-6a678192df94 {
        fill: #7aa6ff;
      }

      .uuid-8ea0a070-6485-4467-a882-6a678192df94, .uuid-2d9e3db4-341e-407d-8af0-075f449215a0, .uuid-cd755845-3013-4a0d-82f9-783fcd3dda15 {
        stroke: #000;
        stroke-linecap: round;
        stroke-linejoin: round;
        stroke-width: 2px;
      }

      .uuid-2d9e3db4-341e-407d-8af0-075f449215a0 {
        fill: #fff7f0;
      }

      .uuid-cd755845-3013-4a0d-82f9-783fcd3dda15 {
        fill: none;
      }
    </style></defs><g id="uuid-0bddc305-27d8-4ea5-862d-046e5ab4ffae" data-name="uuid-e2fbca77-8e7a-49a9-ad56-906492ae40c9"><g id="uuid-a4e09157-4eb3-4d2b-b6da-ed8f9f5e45a4" data-name="uuid-e52b1ae6-7e41-417a-a53a-e6c5d75aeb92"><g><path class="uuid-8ea0a070-6485-4467-a882-6a678192df94" d="m171.75,394.13s-4.65.45-5.76.95c-1.11.51-3.78,11.83-3.93,12.49s6.85,9.32,36.81,12.35c5.87.59,6.42-.22,6.86-2.04.44-1.82,2.36-8.9,2.53-9.64s-4.96-4.93-4.96-4.93l-1.19,4.44s-10.85-.49-19.61-3.38c-8.76-2.9-12.13-4.84-12.13-4.84l1.38-5.4Z"/><line class="uuid-cd755845-3013-4a0d-82f9-783fcd3dda15" x1="193.91" y1="411.28" x2="192.95" y2="415.08"/><line class="uuid-cd755845-3013-4a0d-82f9-783fcd3dda15" x1="200.36" y1="412.14" x2="199.39" y2="415.94"/><circle class="uuid-2d9e3db4-341e-407d-8af0-075f449215a0" cx="178.56" cy="408.85" r="12.13"/><circle class="uuid-8ea0a070-6485-4467-a882-6a678192df94" cx="178.56" cy="408.85" r="6.23"/></g></g></g></svg>
<svg id="uuid-1ec43f51-5c60-4c96-ad17-e29ecce1c662" data-name="BODY" xmlns="http://www.w3.org/2000/svg" viewBox="0 0 600 600"><defs><style>
      .uuid-5d4f3a03-ccd8-4e63-ab0d-8ba17c873bbf {
        fill: #fff;
        stroke: #000;
        stroke-miterlimit: 10;
        stroke-width: 2px;
      }
    </style></defs><path class="uuid-5d4f3a03-ccd8-4e63-ab0d-8ba17c873bbf" d="m234.82,145.43c-9.89-21.59-45.38-26.51-79.27-10.99-33.89,15.52-53.35,45.61-43.46,67.2,9.99,21.81,39.44,22.36,59.43,17.73,4.99-1.16,10.09-2.59,14.83-4.51,5.26-2.14,11.16-6.03,16.85-3.03,2.88,1.52,17.21,8.41,19.06,3.74.88-2.24-2.6-4.93-3.79-6.4-2.06-2.55-3.15-5.62-2.69-8.93.52-3.73,3.23-6.58,5.75-9.17,3.01-3.1,5.82-6.19,8.14-9.86,6.51-10.31,10.47-24.16,5.15-35.78Z"/><g><path d="m165.15,177.76c.47.48,1.01,1.07,1.62,1.63.98,1.01,2.3,2.57,3.53,4.54,6.57,10.49,4.7,18.41-.83,21.88-6.45,4.04-15.44,1.98-26.01-14.89-10.57-16.87-8.5-25.85-2.05-29.89,5.53-3.46,13.52-1.63,18.9,6.95.88,1.41,1.45,2.59,1.77,3.51.15.51.29,1.01.5,1.48l-8.29,5.19-1.15-1.84c-5.07-8.1-6.43-8.36-7.23-7.86-1.17.73-1.41,2.25,7.39,16.3l.19.31,11.67-7.31Zm-7.83,13.44c5.07,7.41,6.43,7.93,7.41,7.32.8-.5,1.16-1.84-3.72-9.63l-3.69,2.31Z"/><path d="m156.23,153.02l9.52-5.96,15.6,16.71.61-.38-8.23-21.32,9.52-5.96,26.91,42.94-9.83,6.16-15.53-32.98-.92.58,7.39,22.71-3.07,1.92-17.21-16.55-.92.58,22.91,28.36-9.83,6.16-26.91-42.94Z"/></g></svg>
</svg>