<?xml version="1.0" encoding="UTF-8"?>
<svg xmlns="http://www.w3.org/2000/svg" viewBox="0 0 600 600">
<svg id="uuid-c55b6f18-22d9-42e7-94a5-9418063ab399" data-name="BACKGROUND" xmlns="http://www.w3.org/2000/svg" viewBox="0 0 600 600"><defs><style>
      .uuid-65b83bcd-5755-41b5-8f46-23c20c164524 {
        fill: #9dff0c;
      }
    </style></defs><rect class="uuid-65b83bcd-5755-41b5-8f46-23c20c164524" x="-1" y="-1" width="602" height="602"/></svg>
<svg id="uuid-a31a6b4f-e655-4c0b-9290-a675a01244c8" data-name="BODY" xmlns="http://www.w3.org/2000/svg" viewBox="0 0 600 600"><defs><style>
      .uuid-02feae16-15ad-446f-b155-475dfe7ead0f {
        fill: #fff;
      }

      .uuid-8e8e02c1-3774-4aaf-92fb-f3ff81fe8f6d, .uuid-51f9bb77-a202-4295-8587-9b7fab6500b3, .uuid-862d3442-dd45-4bf0-ad6b-177f0e2ee560, .uuid-55d8d9bd-f0f4-492f-ac99-834eda67cd9d, .uuid-3065f46c-b1cc-4fe6-9bdc-7fd254c39b59 {
        stroke: #000;
        stroke-width: 2px;
      }

      .uuid-8e8e02c1-3774-4aaf-92fb-f3ff81fe8f6d, .uuid-862d3442-dd45-4bf0-ad6b-177f0e2ee560, .uuid-55d8d9bd-f0f4-492f-ac99-834eda67cd9d, .uuid-3065f46c-b1cc-4fe6-9bdc-7fd254c39b59 {
        fill: #f9a723;
      }

      .uuid-8e8e02c1-3774-4aaf-92fb-f3ff81fe8f6d, .uuid-55d8d9bd-f0f4-492f-ac99-834eda67cd9d {
        stroke-miterlimit: 10;
      }

      .uuid-51f9bb77-a202-4295-8587-9b7fab6500b3 {
        fill: none;
      }

      .uuid-51f9bb77-a202-4295-8587-9b7fab6500b3, .uuid-862d3442-dd45-4bf0-ad6b-177f0e2ee560, .uuid-55d8d9bd-f0f4-492f-ac99-834eda67cd9d {
        stroke-linecap: round;
      }

      .uuid-51f9bb77-a202-4295-8587-9b7fab6500b3, .uuid-862d3442-dd45-4bf0-ad6b-177f0e2ee560, .uuid-3065f46c-b1cc-4fe6-9bdc-7fd254c39b59 {
        stroke-linejoin: round;
      }
    </style></defs><ellipse cx="300" cy="518.65" rx="138.6" ry="22.93"/><g><path class="uuid-8e8e02c1-3774-4aaf-92fb-f3ff81fe8f6d" d="m319.36,427.14c-1.16,1.05-54.95,57-54.95,57,0,0,21.51-1.95,31.74,10.62,10.23,12.57,7.26,23.89,7.26,23.89h-66.9s-28.69-36.17-28.69-36.17c0,0,3.74-13.4,20.44-10.59,20.9-19.38,55.52-59.13,55.52-59.13l35.59,14.38Z"/><path d="m283.78,412.76l31.28,12.64-3.24,9.5c-2.93,3.03-9.76,10.12-13.64,14.14-11.92,0-27.98-2.13-41.33-6.37,13.95-15.1,26.93-29.92,26.93-29.92Z"/></g><g><path class="uuid-862d3442-dd45-4bf0-ad6b-177f0e2ee560" d="m409.81,359.6c9.2,3.77,29.89,12.05,42.79,16.03,2.11.65,4.41.69,6.5-.04,11.79-4.08,28.47-11.39,33.03-11.32,5.25.08,7.8,3.93,19.88,2.04,13.36-2.1,22.43-11.99,20.93-23.3-4.21-43.28-25.18-26.79-25.18-26.79,0,0-5.84-8.75-18.76-4.82-11.83,3.6-10.2,14.44-6.47,22.47l-25.29,8.58c-2.14.72-4.45.71-6.59-.02l-35.7-12.61"/><path class="uuid-55d8d9bd-f0f4-492f-ac99-834eda67cd9d" d="m533.36,312.82c2.5,3.94,1.62,9.14-1.57,12.4-2.47,2.53-5.88,3.88-9.32,4.4-2.8.43-5.7.42-8.49-.08-2.14-.39-4.29-1.1-5.79-2.75-1.66-1.83-2.27-4.46-1.98-6.87.51-4.17,3.84-7.14,7.22-9.26,3.17-1.98,6.86-3.26,10.64-3.09,3.8.18,7.36,2.19,9.3,5.24Z"/><path class="uuid-55d8d9bd-f0f4-492f-ac99-834eda67cd9d" d="m538.57,349.84c.97,3.03.32,6.43-1.5,9.01-3.77,5.33-11.17,5.65-16.96,4.27-3.31-.79-6.69-2.21-8.67-5.13-3.13-4.61-.82-9.79,3.48-12.56,2.58-1.66,5.61-2.67,8.63-3.14,5.73-.89,13.1,1.51,15.03,7.56Z"/><path class="uuid-55d8d9bd-f0f4-492f-ac99-834eda67cd9d" d="m538.71,328.53c1.8,2.99,2.06,6.89.22,9.9-1.95,3.2-4.94,5.25-8.49,6.28-3.66,1.07-7.64,1.27-11.4.44-2.25-.5-4.53-1.38-5.96-3.28-1.86-2.47-1.89-5.68-.85-8.49,1.2-3.24,4.17-5.69,7.09-7.37,6.15-3.56,15.21-4.43,19.39,2.52Z"/><path class="uuid-55d8d9bd-f0f4-492f-ac99-834eda67cd9d" d="m501.85,311.68s9.27,3.84,7.77,12.02c-1.04,5.68-8.17,9.55-14.94,6.13"/><path class="uuid-51f9bb77-a202-4295-8587-9b7fab6500b3" d="m500.67,331.08c2.41,1.63,5.11,8.04,3.4,14.42"/><path d="m443.44,339.88c-2.88,10.58-6.94,20.23-11.17,28.59-10.17-3.78-21.16-9.53-27-11.93l11.83-26.02,26.35,9.36Z"/></g><g><circle class="uuid-8e8e02c1-3774-4aaf-92fb-f3ff81fe8f6d" cx="300" cy="300" r="138.16"/><path class="uuid-02feae16-15ad-446f-b155-475dfe7ead0f" d="m184.58,308.17c-4.41,0-7.98-3.57-7.98-7.98,0-67.74,55.11-122.86,122.86-122.86,4.41,0,7.98,3.57,7.98,7.98s-3.57,7.98-7.98,7.98c-58.94,0-106.9,47.95-106.9,106.9,0,4.41-3.57,7.98-7.98,7.98Z"/></g><path class="uuid-51f9bb77-a202-4295-8587-9b7fab6500b3" d="m264.41,484.14c-4.06.49-11.49,1.36-17.85,7.23"/><path class="uuid-02feae16-15ad-446f-b155-475dfe7ead0f" d="m185.17,308.14c-4.41,0-7.98-3.57-7.98-7.98,0-67.74,55.11-122.86,122.86-122.86,4.41,0,7.98,3.57,7.98,7.98s-3.57,7.98-7.98,7.98c-58.94,0-106.9,47.95-106.9,106.9,0,4.41-3.57,7.98-7.98,7.98Z"/><path d="m203.75,397.46l34.2-27.46-24.86,36.3c-6.73-5.1-3.66-2.61-9.34-8.83Z"/><path class="uuid-3065f46c-b1cc-4fe6-9bdc-7fd254c39b59" d="m323.72,387.31c19.14-13.4,39.15-11.3,55.52,7.36,19.6,22.35,30.57,33.06,30.57,33.06,0,0,10.74-19.34,34.77-17.5,18.26,1.4,24.84,14.43,24.84,14.43,0,0,6.21,8.82-22.45,33.5-28.66,24.68-54.93,40.92-61.14,29.46-6.21-11.46-2.82-32.1-2.82-32.1,0,0-22.02-26.09-27.94-32.01-6.79-6.79-15.71-1.36-15.71-1.36"/><path class="uuid-8e8e02c1-3774-4aaf-92fb-f3ff81fe8f6d" d="m446.97,458.17c-25.89,22.29-49.82,37.69-58.79,32.02-9.77-7.44,26.84-38.54,44.88-52.7,18.04-14.16,32.17-17.82,36.36-12.81,0,0,6.21,8.82-22.45,33.5Z"/><path class="uuid-51f9bb77-a202-4295-8587-9b7fab6500b3" d="m409.81,427.74c-1.89,2.86-4.55,10.38-4.55,10.38"/><g><path class="uuid-862d3442-dd45-4bf0-ad6b-177f0e2ee560" d="m214.11,345.7c-8.05,5.83-25.34,20.79-35.52,29.67-1.67,1.45-2.82,3.41-3.39,5.55-3.14,11.67-8.55,33.44-8.55,33.44,0,0-8.42.58-12.19,14.35-3.64,13.3-6.64,25.06,3.77,29.75.35,7.47,7.51,15.45,19.2,9.41.14-.06,1.32,1.32,1.44,1.45,2.64,2.7,6.36,4.45,10.13,4.81,3.65.36,7.61-.67,10.43-3.08,3.29-2.81,5.4-6.94,6.05-11.2.4-2.61.26-5.31-.75-7.78,0,0,6.2-2.51,8.05-11.34,1.99-9.49-4.22-19.42-14.62-18.18l6.17-23.11c.51-2.2,1.74-4.16,3.49-5.59l29.38-24.3"/><path class="uuid-51f9bb77-a202-4295-8587-9b7fab6500b3" d="m204.73,452.06c-1.37-3.47-5.39-7.08-9-6.88"/><path class="uuid-51f9bb77-a202-4295-8587-9b7fab6500b3" d="m178.86,469.3c-5.16-5.27-3.82-11.97-2.9-13.54"/><path class="uuid-51f9bb77-a202-4295-8587-9b7fab6500b3" d="m158.22,458.45c-.27-5.22.73-7.32,3.06-9.83"/><path class="uuid-51f9bb77-a202-4295-8587-9b7fab6500b3" d="m193.93,450.63c.14-2.07.48-4.16,1.32-6.06.85-1.95,2.36-3.88,4.31-4.85"/></g></svg>
<svg id="uuid-d68fbb24-c0f3-4dee-920e-134d781fb2e1" data-name="BODY" xmlns="http://www.w3.org/2000/svg" viewBox="0 0 600 600"><path d="m378.79,259.75c-1.76-5.11-7.33-7.82-12.44-6.06s-7.82,7.33-6.06,12.44"/><circle cx="362.12" cy="293.18" r="9.78" transform="translate(-9.59 12.26) rotate(-1.91)"/><path d="m346.88,270.76c-1.76-5.11-7.33-7.82-12.44-6.06-5.11,1.76-7.82,7.33-6.06,12.44"/></svg>
<svg id="uuid-5e467335-96f0-4a19-bf5d-f66d24f9f050" data-name="BODY" xmlns="http://www.w3.org/2000/svg" viewBox="0 0 600 600"><defs><style>
      .uuid-c95b386d-6b7a-48bc-b015-46353c5ddf6d, .uuid-6dfda773-13b8-4575-9246-263a2a33ff95 {
        stroke-miterlimit: 10;
      }

      .uuid-c95b386d-6b7a-48bc-b015-46353c5ddf6d, .uuid-6dfda773-13b8-4575-9246-263a2a33ff95, .uuid-d59f6628-b02a-4e8d-88df-548bea5614f0 {
        stroke: #000;
        stroke-width: 2px;
      }

      .uuid-c95b386d-6b7a-48bc-b015-46353c5ddf6d, .uuid-d59f6628-b02a-4e8d-88df-548bea5614f0 {
        fill: #ffc9f1;
      }

      .uuid-6dfda773-13b8-4575-9246-263a2a33ff95 {
        fill: #a07bff;
      }

      .uuid-d59f6628-b02a-4e8d-88df-548bea5614f0 {
        stroke-linejoin: round;
      }
    </style></defs><path d="m444.53,340.27c-.12,10.07-1.69,20.13-1.47,32.18,0,0-31.96-13.5-37.8-15.9l11.83-26.02,27.44,9.74Z"/><g id="uuid-e0b59ec1-2080-4c6b-8b31-c6fdef44f520" data-name="cloth"><path class="uuid-c95b386d-6b7a-48bc-b015-46353c5ddf6d" d="m263.36,371.55c24.26-.34,48.58-3.99,69.96-9.03-7.88-3.13-21.03-8.64-28.59-13.47-15.72-10.04-37.83-23.22-78.26-39.57-40.44-16.35-60.88-16.79-64.71-17.14-3.83-.35-3.65,17.91.52,18.78s34.19,3.67,60.28,20.36c19.37,12.39,34.36,31.2,40.8,40.07Z"/><g><path class="uuid-d59f6628-b02a-4e8d-88df-548bea5614f0" d="m175.19,380.92c.57-2.14,1.73-4.09,3.39-5.55,4.11-3.58,9.38-8.16,14.73-12.73-12.63-3.41-19.99-6.47-19.99-6.47,0,0,1.19,7.68-3.39,24.26-4.47,16.18-10.42,24.96-10.42,24.96l10.07-2.77c1.77-7.01,3.99-15.7,5.61-21.71Z"/><path class="uuid-d59f6628-b02a-4e8d-88df-548bea5614f0" d="m436.02,361.39c2.62-27.84,1.57-45.91,1.57-45.91,0,0-23.21,23.41-84.08,41.67-31.63,9.49-73.99,16.96-113.56,13.64-1.29-.11-2.56-.23-3.83-.35l-28.31,23.41c-1.75,1.43-2.97,3.39-3.49,5.59l-6.17,23.11c1.6-.19,3.09-.11,4.48.18,10.94-4.39,20.36-13.9,20.36-13.9,0,0,3.04,11.81,3.04,28.1,12.65-1.74,29.55-18.91,29.55-18.91,0,0,3.71,13.26-4.81,29.26,17.78,0,33.52-20.56,33.52-20.56l15.94,23.95s7.48-5.92,14.49-22.21c7.39-17.17,6.6-34.62,8.99-41.14,9.67-6.47,21.58-10.5,33.18-7.49,6.62,1.72,12.55,5.45,17.68,9.89,5.18,4.49,8.72,10.46,13.8,15.02,4.08,3.66,9.3,5.25,14.65,5.91,1.08.13,11.39,1.12,11.39.41v-21.3l23.94,6.09s-4.77-8.69-2.35-34.45Zm-191.58,34.15c-.44-.17-.87-.39-1.26-.65-1.82-1.21-2.89-3.3-3.34-5.43-.47-2.21-.24-4.77,1.39-6.34,3.5-3.39,16.29-2.61,17.11,3.38.62,4.53-5.71,8.89-9.45,9.45-1.49.22-3.05.13-4.45-.41Zm26.93,14.8c-.72,1.06-1.77,1.95-3.12,2.45-2.19.82-4.72.56-6.81-.48-1.36-.67-2.61-1.74-3.06-3.19-.24-.78-.24-1.62-.09-2.42.82-4.42,6.05-6.74,10.14-5.47,4.34,1.34,5.06,6,2.95,9.11Zm133.66-31.05c-.04.27-.1.55-.16.81-.87,3.69-3.13,7.03-6.22,9.21-.82.58-1.74,1.09-2.75,1.14-1.96.09-3.54-1.59-4.51-3.29-1.62-2.85-2.38-6.34-1.39-9.46,1.64-5.18,7.44-6.92,12.06-4.49,1.32.69,2.44,1.84,2.87,3.26.28.91.25,1.88.1,2.82Z"/></g><path d="m206.23,395.47c-.91,1.16-1.57,2.51-1.91,3.96l-6.17,23.11c1.27-.15,2.48-.13,3.62.03l36.18-52.57-31.72,25.47Z"/><g id="uuid-7fe29411-92c2-4f52-b005-f15084171df6" data-name="zurzido"><path class="uuid-6dfda773-13b8-4575-9246-263a2a33ff95" d="m308.67,383.17c-5.42,4.18-10.17,10.28-13.38,16.13-2.78,5.06-10.1,2.03-7.89-5.55,1.89-6.46,9.65-12.22,14.53-16.48,5.01-4.37,14,.29,6.74,5.9Z"/><path class="uuid-6dfda773-13b8-4575-9246-263a2a33ff95" d="m302.21,395.42c-4.91-4.7-11.8-8.62-18.29-11.12-5.62-2.17-3.02-9.26,5.22-7.84,7.02,1.21,13.81,7.97,18.76,12.17,5.07,4.31.89,13.1-5.7,6.79Z"/></g></g></svg>
<svg id="uuid-4f9c58ac-8fff-4862-9c52-f3e315adf08b" data-name="BODY" xmlns="http://www.w3.org/2000/svg" xmlns:xlink="http://www.w3.org/1999/xlink" viewBox="0 0 600 600"><defs><style>
      .uuid-fe807ae8-6d4c-4eb2-9250-b043792de360, .uuid-84bd41ec-755d-4570-bc7d-90640366e08e, .uuid-e86cd3fb-3bee-48a4-9442-0ed97831e34e {
        fill: none;
      }

      .uuid-da94aee9-5a9d-4f5d-9b29-9cde32a1175c, .uuid-afc4803e-77b0-4ecb-b056-33f2566dc0fd {
        fill: #ff78d8;
      }

      .uuid-9e1d4ef1-4fc7-4608-809b-a39c3676a322 {
        fill: #a07bff;
      }

      .uuid-9e1d4ef1-4fc7-4608-809b-a39c3676a322, .uuid-afc4803e-77b0-4ecb-b056-33f2566dc0fd, .uuid-e86cd3fb-3bee-48a4-9442-0ed97831e34e, .uuid-5b11b8c4-4aba-4d0e-97e1-bcb90f636dca {
        stroke: #000;
        stroke-linecap: round;
        stroke-linejoin: round;
        stroke-width: 2px;
      }

      .uuid-84bd41ec-755d-4570-bc7d-90640366e08e {
        clip-path: url(#uuid-908aa4b2-9986-4a9e-8169-3f477676d06c);
      }

      .uuid-5b11b8c4-4aba-4d0e-97e1-bcb90f636dca {
        fill: #f9a723;
      }
    </style><clipPath id="uuid-908aa4b2-9986-4a9e-8169-3f477676d06c"><path class="uuid-fe807ae8-6d4c-4eb2-9250-b043792de360" d="m470.37,263.4c.26.09,13.38,2.76,25.8-5.87,11.13,5.18,27.7,3.16,27.7,3.16,0,0,7.59,12.46,22.69,13.58,4.14,19.42,22.61,26.84,22.61,26.84,0,0-5.52,18.47,8.28,26.58-6.13,14.58,0,28.39,0,28.39,0,0-13.29,9.49-11.3,25.72-11.91.95-17.43,20.71-17.43,20.71l-42.02-54.71s3.66-4.86,2.16-10.1c-1.51-5.24-5.84-7.05-5.84-7.05,0,0,6.9-2.2,6.76-8.63s-7.36-13.75-19.44-11.06l-19.96-47.56h0Z"/></clipPath></defs><g id="uuid-cde481be-4b99-44d5-8b74-25417a789ef0" data-name="uuid-ac3cc490-8b26-46d1-bbbf-b285b8fc2132"><g id="uuid-0dd40599-6585-490b-8145-5052ad5056be" data-name="uuid-d903f005-6b44-47ef-b972-97b0f19dbeba"><g id="uuid-3290c729-ecd5-4a2b-afcc-a27cbc2a6411" data-name="uuid-5c0abff7-8440-4649-be7a-ff1b81cfa8e1"><g><g><path class="uuid-da94aee9-5a9d-4f5d-9b29-9cde32a1175c" d="m470.37,263.4c.26.09,13.38,2.76,25.8-5.87,11.13,5.18,27.7,3.16,27.7,3.16,0,0,7.59,12.46,22.69,13.58,4.14,19.42,22.61,26.84,22.61,26.84,0,0-5.52,18.47,8.28,26.58-6.13,14.58,0,28.39,0,28.39,0,0-13.29,9.49-11.3,25.72-11.91.95-17.43,20.71-17.43,20.71l-42.02-54.71s3.66-4.86,2.16-10.1c-1.51-5.24-5.84-7.05-5.84-7.05,0,0,6.9-2.2,6.76-8.63s-7.36-13.75-19.44-11.06l-19.96-47.56h0Z"/><g class="uuid-84bd41ec-755d-4570-bc7d-90640366e08e"><g><polygon class="uuid-9e1d4ef1-4fc7-4608-809b-a39c3676a322" points="569.18 301.11 506.13 337.1 502.22 333.48 546.57 274.28 569.18 301.11"/><polygon class="uuid-9e1d4ef1-4fc7-4608-809b-a39c3676a322" points="523.87 260.7 505.51 318.75 499.67 315.74 496.17 257.54 523.87 260.7"/><polygon class="uuid-9e1d4ef1-4fc7-4608-809b-a39c3676a322" points="577.46 327.69 506.74 338.29 506.74 342.1 577.46 356.08 577.46 327.69"/><polygon class="uuid-9e1d4ef1-4fc7-4608-809b-a39c3676a322" points="566.15 381.8 506.74 343.68 505.51 347.28 548.72 402.51 566.15 381.8"/></g></g><path class="uuid-e86cd3fb-3bee-48a4-9442-0ed97831e34e" d="m470.37,263.4c.26.09,13.38,2.76,25.8-5.87,11.13,5.18,27.7,3.16,27.7,3.16,0,0,7.59,12.46,22.69,13.58,4.14,19.42,22.61,26.84,22.61,26.84,0,0-5.52,18.47,8.28,26.58-6.13,14.58,0,28.39,0,28.39,0,0-13.29,9.49-11.3,25.72-11.91.95-17.43,20.71-17.43,20.71l-42.02-54.71s3.66-4.86,2.16-10.1c-1.51-5.24-5.84-7.05-5.84-7.05,0,0,6.9-2.2,6.76-8.63s-7.36-13.75-19.44-11.06l-19.96-47.56h0Z"/></g><g><path class="uuid-5b11b8c4-4aba-4d0e-97e1-bcb90f636dca" d="m499.19,358.31c-1.23.68-.81,10.43-.56,11.18.25.74,6.46.56,7.2,0s-.68-11.02-1.61-11.57c-.72-.43-3.91-.22-5.03.4Z"/><g><path class="uuid-afc4803e-77b0-4ecb-b056-33f2566dc0fd" d="m500.89,367.41s-.9,3.24.69,15.05c1.89,14.09,5.31,20.53-6.11,36.39,3.93,2.51,8.03,2.24,8.03,2.24l4.07-5.86s.08,4.89-.18,6.61c2.58.51,3.4-.66,3.4-.66,0,0,5.47-6.71,2.96-22.37s-7.17-15.37-10.39-31.76l-2.48.35h0Z"/><path class="uuid-afc4803e-77b0-4ecb-b056-33f2566dc0fd" d="m506.47,402.9c.65-5.32.04-10.47-1.06-15.34"/><path class="uuid-afc4803e-77b0-4ecb-b056-33f2566dc0fd" d="m499.11,420.5c2.65-3.5,4.48-6.97,5.68-10.4"/></g><path class="uuid-e86cd3fb-3bee-48a4-9442-0ed97831e34e" d="m501.63,357.74c.23-3.61-.96-6.93-.96-6.93"/></g><path class="uuid-e86cd3fb-3bee-48a4-9442-0ed97831e34e" d="m482.49,292.28c5.63-2.22,11.76-3.45,18.18-3.45,27.32,0,49.46,22.14,49.46,49.46,0,16.34-7.92,30.83-20.13,39.83"/><path class="uuid-5b11b8c4-4aba-4d0e-97e1-bcb90f636dca" d="m502.64,348.68c.18.19,42.42,58.69,42.42,58.69l5.63-4.05-43.56-57.65-4.49,3.01h0Z"/><path class="uuid-5b11b8c4-4aba-4d0e-97e1-bcb90f636dca" d="m486.22,312.51l-22.65-48.86,7.89-2.67,20.17,49.78s-2.26.32-5.41,1.75h0Z"/><g><path class="uuid-5b11b8c4-4aba-4d0e-97e1-bcb90f636dca" d="m511.55,340.68c0,5.61-4.55,10.16-10.16,10.16s-10.16-4.55-10.16-10.16c0-4.45,2.86-8.23,6.84-9.6,1.42.16,3.32.04,4.95-.43,4.84.78,8.53,4.97,8.53,10.03h0Z"/><circle class="uuid-e86cd3fb-3bee-48a4-9442-0ed97831e34e" cx="501.39" cy="340.68" r="4.12"/></g><path class="uuid-e86cd3fb-3bee-48a4-9442-0ed97831e34e" d="m547.58,292.44c-2.14,4.11-2.31,9.19-.44,13.43"/><path class="uuid-e86cd3fb-3bee-48a4-9442-0ed97831e34e" d="m539.62,294.42l-1,3.3"/><path class="uuid-e86cd3fb-3bee-48a4-9442-0ed97831e34e" d="m505.38,269.24c.08,4.78,1.77,9.52,4.73,13.27"/><path class="uuid-e86cd3fb-3bee-48a4-9442-0ed97831e34e" d="m486.17,274.47l2.24,3.9"/><path class="uuid-e86cd3fb-3bee-48a4-9442-0ed97831e34e" d="m568.3,339.57c-3.29.51-6.45,1.86-9.1,3.88"/><path class="uuid-e86cd3fb-3bee-48a4-9442-0ed97831e34e" d="m551.17,384.34c-3.35-1.41-7.17-1.66-10.68-.68"/><path class="uuid-e86cd3fb-3bee-48a4-9442-0ed97831e34e" d="m548.44,377.66c-1.59-.34-3.24-.35-4.83,0"/></g></g></g></g></svg>
<svg id="uuid-b4bd514c-c4d5-4213-8281-68a6dd76eb3c" data-name="BODY" xmlns="http://www.w3.org/2000/svg" viewBox="0 0 600 600"><defs><style>
      .uuid-4c99fb9a-23c7-484a-a28c-c41365b086be {
        fill: #fffdfd;
      }

      .uuid-7ddb5c13-f559-40bc-9bfe-865ea467dd8d {
        fill: #7aa6ff;
      }
    </style></defs><rect class="uuid-7ddb5c13-f559-40bc-9bfe-865ea467dd8d" x="264.41" y="292.9" width="9.74" height="9.74" transform="translate(-86.91 112.55) rotate(-20.4)"/><rect class="uuid-7ddb5c13-f559-40bc-9bfe-865ea467dd8d" x="261.02" y="283.77" width="9.74" height="9.74" transform="translate(-83.94 110.79) rotate(-20.4)"/><rect class="uuid-7ddb5c13-f559-40bc-9bfe-865ea467dd8d" x="257.62" y="274.64" width="9.74" height="9.74" transform="translate(-80.97 109.03) rotate(-20.4)"/><rect class="uuid-7ddb5c13-f559-40bc-9bfe-865ea467dd8d" x="266.75" y="271.25" width="9.74" height="9.74" transform="translate(-79.21 112) rotate(-20.4)"/><rect class="uuid-7ddb5c13-f559-40bc-9bfe-865ea467dd8d" x="275.88" y="267.85" width="9.74" height="9.74" transform="translate(-77.46 114.97) rotate(-20.4)"/><rect class="uuid-7ddb5c13-f559-40bc-9bfe-865ea467dd8d" x="330.66" y="247.48" width="9.74" height="9.74" transform="translate(-66.92 132.79) rotate(-20.4)"/><rect class="uuid-7ddb5c13-f559-40bc-9bfe-865ea467dd8d" x="339.79" y="244.08" width="9.74" height="9.74" transform="translate(-65.16 135.76) rotate(-20.4)"/><rect class="uuid-7ddb5c13-f559-40bc-9bfe-865ea467dd8d" x="327.27" y="238.35" width="9.74" height="9.74" transform="translate(-63.95 131.04) rotate(-20.4)"/><rect class="uuid-7ddb5c13-f559-40bc-9bfe-865ea467dd8d" x="287.35" y="242.8" width="9.74" height="9.74" transform="translate(-68.01 117.4) rotate(-20.4)"/><rect class="uuid-7ddb5c13-f559-40bc-9bfe-865ea467dd8d" x="351.26" y="219.03" width="9.74" height="9.74" transform="translate(-55.71 138.19) rotate(-20.4)"/><rect class="uuid-7ddb5c13-f559-40bc-9bfe-865ea467dd8d" x="304.33" y="288.44" width="9.74" height="9.74" transform="translate(-82.85 126.18) rotate(-20.4)"/><rect class="uuid-7ddb5c13-f559-40bc-9bfe-865ea467dd8d" x="368.24" y="264.67" width="9.74" height="9.74" transform="translate(-70.56 146.97) rotate(-20.4)"/><rect class="uuid-7ddb5c13-f559-40bc-9bfe-865ea467dd8d" x="296.48" y="239.41" width="9.74" height="9.74" transform="translate(-66.25 120.37) rotate(-20.4)"/><rect class="uuid-7ddb5c13-f559-40bc-9bfe-865ea467dd8d" x="360.39" y="215.64" width="9.74" height="9.74" transform="translate(-53.96 141.16) rotate(-20.4)"/><rect class="uuid-7ddb5c13-f559-40bc-9bfe-865ea467dd8d" x="313.46" y="285.05" width="9.74" height="9.74" transform="translate(-81.09 129.15) rotate(-20.4)"/><rect class="uuid-7ddb5c13-f559-40bc-9bfe-865ea467dd8d" x="377.37" y="261.28" width="9.74" height="9.74" transform="translate(-68.8 149.94) rotate(-20.4)"/><rect class="uuid-7ddb5c13-f559-40bc-9bfe-865ea467dd8d" x="305.61" y="236.01" width="9.74" height="9.74" transform="translate(-64.49 123.34) rotate(-20.4)"/><rect class="uuid-7ddb5c13-f559-40bc-9bfe-865ea467dd8d" x="369.52" y="212.24" width="9.74" height="9.74" transform="translate(-52.2 144.13) rotate(-20.4)"/><rect class="uuid-7ddb5c13-f559-40bc-9bfe-865ea467dd8d" x="322.59" y="281.65" width="9.74" height="9.74" transform="translate(-79.34 132.12) rotate(-20.4)"/><rect class="uuid-7ddb5c13-f559-40bc-9bfe-865ea467dd8d" x="386.5" y="257.88" width="9.74" height="9.74" transform="translate(-67.04 152.91) rotate(-20.4)"/><rect class="uuid-7ddb5c13-f559-40bc-9bfe-865ea467dd8d" x="314.74" y="232.62" width="9.74" height="9.74" transform="translate(-62.74 126.31) rotate(-20.4)"/><rect class="uuid-7ddb5c13-f559-40bc-9bfe-865ea467dd8d" x="378.65" y="208.85" width="9.74" height="9.74" transform="translate(-50.44 147.1) rotate(-20.4)"/><rect class="uuid-7ddb5c13-f559-40bc-9bfe-865ea467dd8d" x="331.72" y="278.25" width="9.74" height="9.74" transform="translate(-77.58 135.09) rotate(-20.4)"/><rect class="uuid-7ddb5c13-f559-40bc-9bfe-865ea467dd8d" x="395.63" y="254.48" width="9.74" height="9.74" transform="translate(-65.29 155.88) rotate(-20.4)"/><rect class="uuid-7ddb5c13-f559-40bc-9bfe-865ea467dd8d" x="323.87" y="229.22" width="9.74" height="9.74" transform="translate(-60.98 129.28) rotate(-20.4)"/><rect class="uuid-7ddb5c13-f559-40bc-9bfe-865ea467dd8d" x="334.06" y="256.6" width="9.74" height="9.74" transform="translate(-69.89 134.55) rotate(-20.4)"/><rect class="uuid-7ddb5c13-f559-40bc-9bfe-865ea467dd8d" x="337.45" y="265.73" width="9.74" height="9.74" transform="translate(-72.86 136.3) rotate(-20.4)"/><rect class="uuid-7ddb5c13-f559-40bc-9bfe-865ea467dd8d" x="285.01" y="264.45" width="9.74" height="9.74" transform="translate(-75.7 117.94) rotate(-20.4)"/><rect class="uuid-7ddb5c13-f559-40bc-9bfe-865ea467dd8d" x="281.62" y="255.33" width="9.74" height="9.74" transform="translate(-72.73 116.19) rotate(-20.4)"/><rect class="uuid-7ddb5c13-f559-40bc-9bfe-865ea467dd8d" x="278.22" y="246.2" width="9.74" height="9.74" transform="translate(-69.76 114.43) rotate(-20.4)"/><rect class="uuid-7ddb5c13-f559-40bc-9bfe-865ea467dd8d" x="288.41" y="273.58" width="9.74" height="9.74" transform="translate(-78.67 119.7) rotate(-20.4)"/><rect class="uuid-7ddb5c13-f559-40bc-9bfe-865ea467dd8d" x="291.8" y="282.71" width="9.74" height="9.74" transform="translate(-81.64 121.46) rotate(-20.4)"/><rect class="uuid-7ddb5c13-f559-40bc-9bfe-865ea467dd8d" x="295.2" y="291.84" width="9.74" height="9.74" transform="translate(-84.61 123.21) rotate(-20.4)"/><rect class="uuid-7ddb5c13-f559-40bc-9bfe-865ea467dd8d" x="348.92" y="240.68" width="9.74" height="9.74" transform="translate(-63.41 138.73) rotate(-20.4)"/><rect class="uuid-7ddb5c13-f559-40bc-9bfe-865ea467dd8d" x="345.53" y="231.56" width="9.74" height="9.74" transform="translate(-60.44 136.98) rotate(-20.4)"/><rect class="uuid-7ddb5c13-f559-40bc-9bfe-865ea467dd8d" x="342.13" y="222.43" width="9.74" height="9.74" transform="translate(-57.47 135.22) rotate(-20.4)"/><rect class="uuid-7ddb5c13-f559-40bc-9bfe-865ea467dd8d" x="352.32" y="249.81" width="9.74" height="9.74" transform="translate(-66.38 140.49) rotate(-20.4)"/><rect class="uuid-7ddb5c13-f559-40bc-9bfe-865ea467dd8d" x="355.71" y="258.94" width="9.74" height="9.74" transform="translate(-69.34 142.24) rotate(-20.4)"/><rect class="uuid-7ddb5c13-f559-40bc-9bfe-865ea467dd8d" x="359.11" y="268.07" width="9.74" height="9.74" transform="translate(-72.31 144) rotate(-20.4)"/><rect class="uuid-7ddb5c13-f559-40bc-9bfe-865ea467dd8d" x="394.57" y="223.71" width="9.74" height="9.74" transform="translate(-54.62 153.58) rotate(-20.4)"/><rect class="uuid-7ddb5c13-f559-40bc-9bfe-865ea467dd8d" x="391.18" y="214.58" width="9.74" height="9.74" transform="translate(-51.66 151.82) rotate(-20.4)"/><rect class="uuid-7ddb5c13-f559-40bc-9bfe-865ea467dd8d" x="387.78" y="205.45" width="9.74" height="9.74" transform="translate(-48.69 150.07) rotate(-20.4)"/><rect class="uuid-7ddb5c13-f559-40bc-9bfe-865ea467dd8d" x="397.97" y="232.83" width="9.74" height="9.74" transform="translate(-57.59 155.34) rotate(-20.4)"/><rect class="uuid-7ddb5c13-f559-40bc-9bfe-865ea467dd8d" x="401.36" y="241.96" width="9.74" height="9.74" transform="translate(-60.56 157.09) rotate(-20.4)"/><rect class="uuid-7ddb5c13-f559-40bc-9bfe-865ea467dd8d" x="404.76" y="251.09" width="9.74" height="9.74" transform="translate(-63.53 158.85) rotate(-20.4)"/><rect class="uuid-7ddb5c13-f559-40bc-9bfe-865ea467dd8d" x="340.85" y="274.86" width="9.74" height="9.74" transform="translate(-75.83 138.06) rotate(-20.4)"/><rect class="uuid-4c99fb9a-23c7-484a-a28c-c41365b086be" x="295.53" y="249.32" width="19.48" height="38.95" transform="translate(-74.55 123.28) rotate(-20.4)"/><rect class="uuid-4c99fb9a-23c7-484a-a28c-c41365b086be" x="359.44" y="225.55" width="19.48" height="38.95" transform="translate(-62.26 144.06) rotate(-20.4)"/><rect x="313.79" y="242.53" width="19.48" height="38.95" transform="translate(-71.04 129.22) rotate(-20.4)"/><rect x="377.7" y="218.76" width="19.48" height="38.95" transform="translate(-58.74 150) rotate(-20.4)"/></svg>
</svg>