<?xml version="1.0" encoding="UTF-8"?>
<svg xmlns="http://www.w3.org/2000/svg" viewBox="0 0 600 600">
<svg id="uuid-2ebc4e2e-813a-485c-9454-52c68b62da26" data-name="BACKGROUND" xmlns="http://www.w3.org/2000/svg" viewBox="0 0 600 600"><defs><style>
      .uuid-eb841eac-0e7b-47b1-8e78-e5724f1a9b43 {
        fill: #ffff0d;
      }
    </style></defs><rect class="uuid-eb841eac-0e7b-47b1-8e78-e5724f1a9b43" x="-1" y="-1" width="602" height="602"/></svg>
<svg id="uuid-0a627572-8e49-4d41-b604-6d2cd0d32bdd" data-name="BODY" xmlns="http://www.w3.org/2000/svg" viewBox="0 0 600 600"><defs><style>
      .uuid-20245732-3cad-49d1-ac97-e0ac388550f3 {
        fill: #fff;
      }

      .uuid-f38a32ef-6172-45e7-957b-e89bf9d272a0, .uuid-07c074c9-1e26-4335-be01-1bb5dda577de, .uuid-890e0c82-6af4-45ed-921b-f8a5d79130b7, .uuid-0a238a3f-afd5-43e5-94a8-dd2acee1bcef, .uuid-d5e4c988-c233-4e82-9835-ea21972592ad {
        stroke: #000;
        stroke-width: 2px;
      }

      .uuid-f38a32ef-6172-45e7-957b-e89bf9d272a0, .uuid-07c074c9-1e26-4335-be01-1bb5dda577de, .uuid-0a238a3f-afd5-43e5-94a8-dd2acee1bcef, .uuid-d5e4c988-c233-4e82-9835-ea21972592ad {
        fill: #9dff0c;
      }

      .uuid-f38a32ef-6172-45e7-957b-e89bf9d272a0, .uuid-0a238a3f-afd5-43e5-94a8-dd2acee1bcef {
        stroke-miterlimit: 10;
      }

      .uuid-07c074c9-1e26-4335-be01-1bb5dda577de, .uuid-890e0c82-6af4-45ed-921b-f8a5d79130b7, .uuid-0a238a3f-afd5-43e5-94a8-dd2acee1bcef {
        stroke-linecap: round;
      }

      .uuid-07c074c9-1e26-4335-be01-1bb5dda577de, .uuid-890e0c82-6af4-45ed-921b-f8a5d79130b7, .uuid-d5e4c988-c233-4e82-9835-ea21972592ad {
        stroke-linejoin: round;
      }

      .uuid-890e0c82-6af4-45ed-921b-f8a5d79130b7 {
        fill: none;
      }
    </style></defs><ellipse cx="300" cy="518.65" rx="138.6" ry="22.93"/><g><path class="uuid-f38a32ef-6172-45e7-957b-e89bf9d272a0" d="m319.36,427.14c-1.16,1.05-54.95,57-54.95,57,0,0,21.51-1.95,31.74,10.62,10.23,12.57,7.26,23.89,7.26,23.89h-66.9s-28.69-36.17-28.69-36.17c0,0,3.74-13.4,20.44-10.59,20.9-19.38,55.52-59.13,55.52-59.13l35.59,14.38Z"/><path d="m283.78,412.76l31.28,12.64-3.24,9.5c-2.93,3.03-9.76,10.12-13.64,14.14-11.92,0-27.98-2.13-41.33-6.37,13.95-15.1,26.93-29.92,26.93-29.92Z"/></g><g><path class="uuid-07c074c9-1e26-4335-be01-1bb5dda577de" d="m409.81,359.6c9.2,3.77,29.89,12.05,42.79,16.03,2.11.65,4.41.69,6.5-.04,11.79-4.08,28.47-11.39,33.03-11.32,5.25.08,7.8,3.93,19.88,2.04,13.36-2.1,22.43-11.99,20.93-23.3-4.21-43.28-25.18-26.79-25.18-26.79,0,0-5.84-8.75-18.76-4.82-11.83,3.6-10.2,14.44-6.47,22.47l-25.29,8.58c-2.14.72-4.45.71-6.59-.02l-35.7-12.61"/><path class="uuid-0a238a3f-afd5-43e5-94a8-dd2acee1bcef" d="m533.36,312.82c2.5,3.94,1.62,9.14-1.57,12.4-2.47,2.53-5.88,3.88-9.32,4.4-2.8.43-5.7.42-8.49-.08-2.14-.39-4.29-1.1-5.79-2.75-1.66-1.83-2.27-4.46-1.98-6.87.51-4.17,3.84-7.14,7.22-9.26,3.17-1.98,6.86-3.26,10.64-3.09,3.8.18,7.36,2.19,9.3,5.24Z"/><path class="uuid-0a238a3f-afd5-43e5-94a8-dd2acee1bcef" d="m538.57,349.84c.97,3.03.32,6.43-1.5,9.01-3.77,5.33-11.17,5.65-16.96,4.27-3.31-.79-6.69-2.21-8.67-5.13-3.13-4.61-.82-9.79,3.48-12.56,2.58-1.66,5.61-2.67,8.63-3.14,5.73-.89,13.1,1.51,15.03,7.56Z"/><path class="uuid-0a238a3f-afd5-43e5-94a8-dd2acee1bcef" d="m538.71,328.53c1.8,2.99,2.06,6.89.22,9.9-1.95,3.2-4.94,5.25-8.49,6.28-3.66,1.07-7.64,1.27-11.4.44-2.25-.5-4.53-1.38-5.96-3.28-1.86-2.47-1.89-5.68-.85-8.49,1.2-3.24,4.17-5.69,7.09-7.37,6.15-3.56,15.21-4.43,19.39,2.52Z"/><path class="uuid-0a238a3f-afd5-43e5-94a8-dd2acee1bcef" d="m501.85,311.68s9.27,3.84,7.77,12.02c-1.04,5.68-8.17,9.55-14.94,6.13"/><path class="uuid-890e0c82-6af4-45ed-921b-f8a5d79130b7" d="m500.67,331.08c2.41,1.63,5.11,8.04,3.4,14.42"/></g><g><circle class="uuid-f38a32ef-6172-45e7-957b-e89bf9d272a0" cx="300" cy="300" r="138.16"/><path class="uuid-20245732-3cad-49d1-ac97-e0ac388550f3" d="m184.58,308.17c-4.41,0-7.98-3.57-7.98-7.98,0-67.74,55.11-122.86,122.86-122.86,4.41,0,7.98,3.57,7.98,7.98s-3.57,7.98-7.98,7.98c-58.94,0-106.9,47.95-106.9,106.9,0,4.41-3.57,7.98-7.98,7.98Z"/></g><path class="uuid-890e0c82-6af4-45ed-921b-f8a5d79130b7" d="m264.41,484.14c-4.06.49-11.49,1.36-17.85,7.23"/><path class="uuid-20245732-3cad-49d1-ac97-e0ac388550f3" d="m185.17,308.14c-4.41,0-7.98-3.57-7.98-7.98,0-67.74,55.11-122.86,122.86-122.86,4.41,0,7.98,3.57,7.98,7.98s-3.57,7.98-7.98,7.98c-58.94,0-106.9,47.95-106.9,106.9,0,4.41-3.57,7.98-7.98,7.98Z"/><path d="m203.75,397.46l34.2-27.46-24.86,36.3c-6.73-5.1-3.66-2.61-9.34-8.83Z"/><path class="uuid-d5e4c988-c233-4e82-9835-ea21972592ad" d="m323.72,387.31c19.14-13.4,39.15-11.3,55.52,7.36,19.6,22.35,30.57,33.06,30.57,33.06,0,0,10.74-19.34,34.77-17.5,18.26,1.4,24.84,14.43,24.84,14.43,0,0,6.21,8.82-22.45,33.5-28.66,24.68-54.93,40.92-61.14,29.46-6.21-11.46-2.82-32.1-2.82-32.1,0,0-22.02-26.09-27.94-32.01-6.79-6.79-15.71-1.36-15.71-1.36"/><path class="uuid-f38a32ef-6172-45e7-957b-e89bf9d272a0" d="m446.97,458.17c-25.89,22.29-49.82,37.69-58.79,32.02-9.77-7.44,26.84-38.54,44.88-52.7,18.04-14.16,32.17-17.82,36.36-12.81,0,0,6.21,8.82-22.45,33.5Z"/><path class="uuid-890e0c82-6af4-45ed-921b-f8a5d79130b7" d="m409.81,427.74c-1.89,2.86-4.55,10.38-4.55,10.38"/><g><path class="uuid-07c074c9-1e26-4335-be01-1bb5dda577de" d="m214.11,345.7c-8.05,5.83-25.34,20.79-35.52,29.67-1.67,1.45-2.82,3.41-3.39,5.55-3.14,11.67-8.55,33.44-8.55,33.44,0,0-8.42.58-12.19,14.35-3.64,13.3-6.64,25.06,3.77,29.75.35,7.47,7.51,15.45,19.2,9.41.14-.06,1.32,1.32,1.44,1.45,2.64,2.7,6.36,4.45,10.13,4.81,3.65.36,7.61-.67,10.43-3.08,3.29-2.81,5.4-6.94,6.05-11.2.4-2.61.26-5.31-.75-7.78,0,0,6.2-2.51,8.05-11.34,1.99-9.49-4.22-19.42-14.62-18.18l6.17-23.11c.51-2.2,1.74-4.16,3.49-5.59l29.38-24.3"/><path class="uuid-890e0c82-6af4-45ed-921b-f8a5d79130b7" d="m204.73,452.06c-1.37-3.47-5.39-7.08-9-6.88"/><path class="uuid-890e0c82-6af4-45ed-921b-f8a5d79130b7" d="m178.86,469.3c-5.16-5.27-3.82-11.97-2.9-13.54"/><path class="uuid-890e0c82-6af4-45ed-921b-f8a5d79130b7" d="m158.22,458.45c-.27-5.22.73-7.32,3.06-9.83"/><path class="uuid-890e0c82-6af4-45ed-921b-f8a5d79130b7" d="m193.93,450.63c.14-2.07.48-4.16,1.32-6.06.85-1.95,2.36-3.88,4.31-4.85"/></g></svg>
<svg id="uuid-d2017022-49ac-4767-bd5b-8d3e235df956" data-name="BODY" xmlns="http://www.w3.org/2000/svg" viewBox="0 0 600 600"><defs><style>
      .uuid-ceb1f6db-ac22-433a-a64d-b7c361a52305 {
        fill: #ffff0d;
      }

      .uuid-ceb1f6db-ac22-433a-a64d-b7c361a52305, .uuid-8fc51c2b-2e55-48cc-a922-83a746c6089c {
        stroke-width: 2px;
      }

      .uuid-ceb1f6db-ac22-433a-a64d-b7c361a52305, .uuid-8fc51c2b-2e55-48cc-a922-83a746c6089c, .uuid-ededc5f7-d71c-4a39-8679-141d6e366d35 {
        stroke: #000;
        stroke-linecap: round;
        stroke-linejoin: round;
      }

      .uuid-8fc51c2b-2e55-48cc-a922-83a746c6089c, .uuid-ededc5f7-d71c-4a39-8679-141d6e366d35 {
        fill: none;
      }

      .uuid-ededc5f7-d71c-4a39-8679-141d6e366d35 {
        stroke-width: 4px;
      }
    </style></defs><g id="uuid-2e50336c-81e2-44ae-a2f0-cfae5c829496" data-name="uuid-ca7a59fd-5ea4-4026-baf3-83b8314686b7"><g><path d="m371.9,289.97c1.87,5.07-.73,10.69-5.8,12.56-5.07,1.87-10.69-.73-12.56-5.8l18.36-6.76h0Z"/><path class="uuid-ededc5f7-d71c-4a39-8679-141d6e366d35" d="m347.02,271.26c1.87,5.07-.73,10.69-5.8,12.56-5.07,1.87-10.69-.73-12.56-5.8"/><path class="uuid-ededc5f7-d71c-4a39-8679-141d6e366d35" d="m378.7,259.59c1.87,5.07-.73,10.69-5.8,12.56-5.07,1.87-10.69-.73-12.56-5.8"/><g><path class="uuid-ceb1f6db-ac22-433a-a64d-b7c361a52305" d="m394.29,286.52l-6.54-4.3c-2.76-1.82-6.22-2.22-9.33-1.07l-17.8,6.56-17.8,6.56c-3.1,1.14-5.48,3.69-6.4,6.87l-2.18,7.52c-.22.76.52,1.45,1.26,1.17l23.58-8.69c1.5-.55,2.5-1.96,2.54-3.56l.15-6.73,4.48,5.03c1.06,1.19,2.74,1.61,4.24,1.06l23.58-8.69c.74-.27.86-1.28.2-1.71l.02-.02Z"/><g><line class="uuid-8fc51c2b-2e55-48cc-a922-83a746c6089c" x1="352.99" y1="303.37" x2="353.29" y2="295.54"/><line class="uuid-8fc51c2b-2e55-48cc-a922-83a746c6089c" x1="343.37" y1="306.92" x2="344.56" y2="298.75"/><line class="uuid-8fc51c2b-2e55-48cc-a922-83a746c6089c" x1="376.62" y1="294.67" x2="371.32" y2="288.89"/><line class="uuid-8fc51c2b-2e55-48cc-a922-83a746c6089c" x1="386.25" y1="291.12" x2="380.04" y2="285.68"/></g></g><g><ellipse cx="334.14" cy="264.66" rx="11.53" ry="3.94" transform="translate(-70.88 131.8) rotate(-20.22)"/><ellipse cx="365.82" cy="252.99" rx="11.53" ry="3.94" transform="translate(-64.9 142.03) rotate(-20.22)"/></g></g></g></svg>
<svg id="uuid-45076936-bf6a-400d-9d76-99472c58c4e9" data-name="BODY" xmlns="http://www.w3.org/2000/svg" viewBox="0 0 600 600"><defs><style>
      .uuid-00e92ae1-42c8-44e2-857e-a94a78f8009e {
        fill: #7aa6ff;
      }

      .uuid-00e92ae1-42c8-44e2-857e-a94a78f8009e, .uuid-c8acc748-5549-488d-9673-ee82474a7e79, .uuid-d7d2649e-ee29-4e07-944b-c87f4fdef738, .uuid-73ac82b7-4b52-4b93-b621-04fff5d4c5c9 {
        stroke-width: 2px;
      }

      .uuid-00e92ae1-42c8-44e2-857e-a94a78f8009e, .uuid-c8acc748-5549-488d-9673-ee82474a7e79, .uuid-d7d2649e-ee29-4e07-944b-c87f4fdef738, .uuid-73ac82b7-4b52-4b93-b621-04fff5d4c5c9, .uuid-089f3058-646e-4e65-9510-fa18f21a0218 {
        stroke: #000;
        stroke-linecap: round;
        stroke-linejoin: round;
      }

      .uuid-c8acc748-5549-488d-9673-ee82474a7e79 {
        fill: #ffff0d;
      }

      .uuid-d7d2649e-ee29-4e07-944b-c87f4fdef738 {
        fill: #fff7f0;
      }

      .uuid-73ac82b7-4b52-4b93-b621-04fff5d4c5c9 {
        fill: none;
      }

      .uuid-089f3058-646e-4e65-9510-fa18f21a0218 {
        fill: #f9a723;
        stroke-width: 2px;
      }
    </style></defs><g id="uuid-92d075af-fa6e-4eea-88c5-a8003c321dc0" data-name="uuid-703517f9-cd20-496a-807d-fc23883ee864"><g><g><path class="uuid-c8acc748-5549-488d-9673-ee82474a7e79" d="m468.51,338.63l-11.27,3.82c-2.14.72-4.46.71-6.59-.02l-35.7-12.61-5.14,29.78c9.2,3.77,29.89,12.05,42.79,16.03,2.11.65,4.41.69,6.5-.04,5.76-2,12.7-4.76,18.81-7.06-2.7-8.62-6.59-20.95-9.41-29.91h0Z"/><path d="m443.44,339.88c-2.88,10.58-6.94,20.23-11.17,28.59-10.17-3.78-21.16-9.53-27-11.93l11.83-26.02,26.35,9.36Z"/><path class="uuid-c8acc748-5549-488d-9673-ee82474a7e79" d="m468.45,373.64c-8.32-9.6-10.07-23.09-11.1-31.57-.4-3.26,1.5-6.35,4.59-7.49l7.36-2.7c1.61-.59,3.4-.29,4.73.79l3.54,2.87-4.51,1.53s-1.65,17.39,9.6,29.72l3.97-1.43-.16,3.5c-.09,1.97-1.36,3.69-3.22,4.36l-7.03,2.52c-2.77.99-5.85.15-7.78-2.08h0Z"/></g><path class="uuid-c8acc748-5549-488d-9673-ee82474a7e79" d="m319.36,402.14c54.04-5.61,84.58-20.5,97.52-28.47,12.37-19.58,19.96-42.47,21.12-67.06-3.19,2.68-54.14,44.28-135.14,35.93-67.15-6.92-139.67-58.6-140.07-58.88-.63,5.36-.97,10.81-.97,16.33,0,12.21,1.6,24.05,4.58,35.32,27.47,27.32,85.27,73.84,152.95,66.82h0Z"/><g><g><path class="uuid-00e92ae1-42c8-44e2-857e-a94a78f8009e" d="m265.06,433.71l-12.83,13.93,24.11,24.11,32.61-33.86s-9.11-3.01-21.05-4.93c-11.93-1.92-22.84.76-22.84.76h0Z"/><path d="m283.78,412.76l31.28,12.64-3.24,9.5c-2.93,3.03-9.76,10.12-13.64,14.14-11.92,0-27.98-2.13-41.33-6.37,13.95-15.1,26.93-29.92,26.93-29.92h0Z"/><path class="uuid-00e92ae1-42c8-44e2-857e-a94a78f8009e" d="m256.75,440.63c11.72,4.9,21.56,18.02,26.25,25.16,1.8,2.74,1.48,6.36-.78,8.74l-5.4,5.69c-1.18,1.24-2.92,1.77-4.59,1.4l-4.44-1,3.34-3.48s-8.51-18.01-24.06-24.06l-2.92,3.05-1.41-3.2c-.8-1.8-.42-3.91.94-5.33l5.18-5.38c2.04-2.12,5.18-2.73,7.89-1.6h0Z"/></g><g><path class="uuid-00e92ae1-42c8-44e2-857e-a94a78f8009e" d="m195.72,360.99c-9.29-4.19-17.84-8.74-25.47-13.44,3.18,8.66,7.21,16.91,11.97,24.66l13.5-11.22h0Z"/><path class="uuid-00e92ae1-42c8-44e2-857e-a94a78f8009e" d="m418.95,370.3c-24.03,7.71-48.97,5.83-75.98,8.83-39.41,8.01-77.99,4.3-111.27-5.07l-23.9,19.76c-1.62,1.34-2.78,3.14-3.33,5.17l-.18.65c24.83,23.86,58.55,38.52,95.7,38.52,20.42,0,39.8-4.45,57.24-12.4,0,0-.01.03-.01.03l10.9,12.33,27.36-25.36-6.48-7.1s-.02,0-.02,0c11.86-10,22.01-21.95,29.96-35.36h0Z"/></g><g><path class="uuid-d7d2649e-ee29-4e07-944b-c87f4fdef738" d="m203.69,354.36c-17.08-8.69-30-18.05-38.83-25.49,1.83,8.61,4.46,16.91,7.81,24.84,5.47,4.27,11.23,8.27,17.37,12l13.65-11.35Z"/><path class="uuid-d7d2649e-ee29-4e07-944b-c87f4fdef738" d="m342.98,379.13c-41.76,3.6-76.57-1.71-104.59-10.59l-15.49,12.81c24.69,8.91,54.95,14.31,93.96,15.13,0,0,9.76-15.82,28.03-17.52,18.89-1.76,28.81,10.15,28.81,10.15,0,0,26.43-3.81,42.25-13.99,4.66-7.17,8.68-14.8,11.96-22.81-22.27,15.48-52.65,24.04-84.93,26.82h0Z"/></g><path class="uuid-00e92ae1-42c8-44e2-857e-a94a78f8009e" d="m363.75,435.78c5.95-11.23,22.62-22.64,30.16-26.66,2.9-1.55,6.47-.89,8.64,1.58l5.18,5.89c1.13,1.29,1.5,3.07.98,4.7l-1.2,4.15-3.35-3.46s-19.28,5.51-28.87,24.58l2.77,3.19-3.32,1.12c-1.87.63-3.93.07-5.22-1.43l-4.89-5.65c-1.93-2.23-2.25-5.4-.87-8.01h0Z"/><path class="uuid-00e92ae1-42c8-44e2-857e-a94a78f8009e" d="m251.53,391.83l3.51-18.9c.48-2.58,2.98-4.26,5.55-3.73l5.12,1.06c1.43.3,2.64,1.24,3.27,2.56l1.72,3.58-4.74-.87-2.91,19.07"/><path class="uuid-00e92ae1-42c8-44e2-857e-a94a78f8009e" d="m304.26,399.19l-.41-19.21c-.06-2.62,2.06-4.78,4.68-4.78h5.23c1.46,0,2.84.67,3.72,1.83l2.42,3.15-4.82.11,1.03,19.26"/><path class="uuid-00e92ae1-42c8-44e2-857e-a94a78f8009e" d="m416.88,373.71l-4.03-12.57-3.04,1.52.44-3.75c.16-1.38.79-2.47,1.7-2.96l3.26-1.76c1.64-.88,3.68.41,4.53,2.87,0,0,1.79,5.26,2.48,7.39-2.03,4.03-5.35,9.26-5.35,9.26h0Z"/><path class="uuid-00e92ae1-42c8-44e2-857e-a94a78f8009e" d="m182.89,364.72l6.4-18.43,2.98,1.81-.44-3.87c-.16-1.38-.79-2.47-1.7-2.96l-4.6-2.53c-1.64-.88-3.68.41-4.53,2.87,0,0-5.46,14.85-6.15,16.97"/><rect class="uuid-089f3058-646e-4e65-9510-fa18f21a0218" x="373.04" y="367.45" width="29.72" height="22.05" rx="5.33" ry="5.33" transform="translate(-85.21 114.14) rotate(-15.1)"/><g><path class="uuid-73ac82b7-4b52-4b93-b621-04fff5d4c5c9" d="m252.23,408.88s21.46,5.16,33.72-8.19"/><g><path d="m378.59,441.98c-.27,0-.53-.11-.73-.31l-2.75-2.91c-.38-.4-.36-1.03.04-1.41.4-.38,1.03-.36,1.41.04l2.75,2.91c.38.4.36,1.03-.04,1.41-.19.18-.44.27-.69.27h0Z"/><path d="m370.68,433.6c-.27,0-.53-.11-.73-.31l-2.75-2.91c-.38-.4-.36-1.03.04-1.41s1.03-.36,1.41.04l2.75,2.91c.38.4.36,1.03-.04,1.41-.19.18-.44.27-.69.27h0Z"/></g><path d="m375.6,422.97c-.28,0-.56-.12-.76-.34,0,0-1.36-1.57-3.3-3.78-.36-.42-.32-1.05.09-1.41.42-.36,1.05-.32,1.41.09,1.94,2.21,3.3,3.78,3.3,3.78.36.42.32,1.05-.1,1.41-.19.16-.42.25-.66.25h0Zm-6.61-7.55c-.28,0-.55-.11-.75-.34-1.1-1.24-2.23-2.52-3.32-3.74-.37-.41-.33-1.04.08-1.41.41-.37,1.04-.33,1.41.08,1.09,1.22,2.23,2.51,3.33,3.75.37.41.33,1.05-.09,1.41-.19.17-.43.25-.66.25h0Zm-6.68-7.47c-.27,0-.54-.11-.74-.32-.76-.83-1.41-1.53-1.91-2.04-.41-.43-.93-.85-1.53-1.27-.45-.31-.57-.94-.25-1.39.31-.45.94-.57,1.39-.25.71.49,1.32,1,1.82,1.52.51.52,1.18,1.24,1.95,2.08.37.41.35,1.04-.06,1.41-.19.18-.43.26-.68.26h0Zm-31.16-2.79c-.32,0-.64-.16-.83-.45-.31-.46-.18-1.08.28-1.39,1.21-.81,2.48-1.52,3.76-2.12.5-.23,1.1-.02,1.33.48.23.5.02,1.1-.48,1.33-1.19.56-2.37,1.22-3.5,1.97-.17.11-.36.17-.55.17h0Zm23.1-2.92c-.11,0-.23-.02-.34-.06-1.48-.54-3.04-.94-4.64-1.18-.55-.08-.92-.59-.84-1.14.08-.55.59-.92,1.14-.84,1.73.26,3.43.69,5.03,1.28.52.19.79.76.6,1.28-.15.41-.53.66-.94.66h0Zm-14.76-.79c-.45,0-.86-.31-.97-.76-.13-.54.2-1.08.73-1.21,1.68-.41,3.41-.66,5.14-.74.55-.02,1.02.4,1.04.96s-.4,1.02-.96,1.04c-1.6.07-3.2.3-4.75.68-.08.02-.16.03-.24.03h0Z"/><path d="m272.16,453c-.27,0-.54-.11-.74-.33-.37-.41-.34-1.04.07-1.41l3.71-3.36c.41-.37,1.04-.34,1.41.07.37.41.34,1.04-.07,1.41l-3.71,3.36c-.19.17-.43.26-.67.26h0Zm7.41-6.71c-.27,0-.54-.11-.74-.33-.37-.41-.34-1.04.07-1.41l3.71-3.36c.41-.37,1.04-.34,1.41.07.37.41.34,1.04-.07,1.41l-3.71,3.36c-.19.17-.43.26-.67.26h0Zm7.41-6.71c-.27,0-.54-.11-.74-.33-.37-.41-.34-1.04.07-1.41l1.02-.93c.41-.37,1.04-.34,1.41.07.37.41.34,1.04-.07,1.41l-1.02.93c-.19.17-.43.26-.67.26h0Z"/><path d="m256.35,459.55c-.26,0-.53-.1-.73-.31-.38-.4-.36-1.03.04-1.41l3.63-3.44c.4-.38,1.03-.36,1.41.04.38.4.36,1.03-.04,1.41l-3.63,3.44c-.19.18-.44.27-.69.27h0Zm7.26-6.88c-.26,0-.53-.1-.73-.31-.38-.4-.36-1.03.04-1.41l3.63-3.44c.4-.38,1.03-.36,1.41.04.38.4.36,1.03-.04,1.41l-3.63,3.44c-.19.18-.44.27-.69.27h0Z"/><path class="uuid-73ac82b7-4b52-4b93-b621-04fff5d4c5c9" d="m357.23,425.79c-4.86-5.22-9.35-8.05-17.88-3.63"/><line class="uuid-73ac82b7-4b52-4b93-b621-04fff5d4c5c9" x1="373.7" y1="389.11" x2="389.02" y2="405.66"/></g><path d="m236.76,369.41l-24.81,36.89c-6.13-4.65-8.2-5.86-6.62-10.11-.38-.43,31.43-26.78,31.43-26.78h0Z"/></g><g><path class="uuid-c8acc748-5549-488d-9673-ee82474a7e79" d="m214.11,345.7c-8.05,5.83-25.34,20.79-35.52,29.67-1.67,1.45-2.82,3.41-3.39,5.55-1.27,4.72-2.91,11.08-4.41,16.99l31.84,7.91,1.71-6.39c.51-2.2,1.74-4.16,3.49-5.59l29.38-24.3"/><path class="uuid-c8acc748-5549-488d-9673-ee82474a7e79" d="m170.94,388.98c12.6-1.64,26.56,4.52,34.21,8.35,2.94,1.47,4.47,4.76,3.71,7.96l-1.81,7.63c-.4,1.66-1.64,3-3.27,3.51l-4.34,1.36,1.21-4.6s-15.34-11.14-31.83-8.58l-1,4.1-2.83-2.06c-1.59-1.16-2.33-3.17-1.86-5.09l1.78-7.25c.7-2.86,3.11-4.96,6.03-5.34h0Z"/></g></g></g></svg>
<svg id="uuid-f404ceb8-7c39-4a18-b8b8-115c00c2bd91" data-name="BODY" xmlns="http://www.w3.org/2000/svg" viewBox="0 0 600 600"><defs><style>
      .uuid-f080fb2b-602f-4cf7-92ef-6037f33bace8 {
        fill: #ffff0d;
      }

      .uuid-f080fb2b-602f-4cf7-92ef-6037f33bace8, .uuid-67a4340c-4aab-4dd0-b330-b9e5e8d4b206, .uuid-fa7a50da-85f3-4b12-a5b7-369a35eddd61 {
        stroke: #000;
        stroke-linecap: round;
        stroke-linejoin: round;
        stroke-width: 2px;
      }

      .uuid-67a4340c-4aab-4dd0-b330-b9e5e8d4b206 {
        fill: none;
      }

      .uuid-fa7a50da-85f3-4b12-a5b7-369a35eddd61 {
        fill: #f9a723;
      }
    </style></defs><g id="uuid-cf137c39-0034-439d-adac-e4fa334b472a" data-name="uuid-0c0f6844-9252-4e38-b2ae-1fb7558b546c"><g id="uuid-985784ab-0fe5-462e-b6b7-3d43bf790f20" data-name="uuid-eba7662b-ff04-44ba-9d9b-c9fb86b595ea"><g id="uuid-93bf9e4f-3898-4943-9398-20954131d89e" data-name="uuid-e873324e-4a24-4e75-a94d-0c9fb771f1dc"><g><path class="uuid-fa7a50da-85f3-4b12-a5b7-369a35eddd61" d="m138.51,388.15c-3.22-11.04-6.43-23.51-23.05-29.14-16.62-5.63-31.09,3.22-34.98,18.89-3.89,15.68-4.02,41.1,8.04,58.14s23.18,16.95,32.3,14.58c9.11-2.37,17.02-17.96,17.02-17.96l10.05-24.34s-6.16-9.13-9.38-20.18h0Zm-16.62,1.28c-.67,7.24-10.01,18.89-10.84,26.67-.82,7.77,6.41,17.66,6.55,19.95.13,2.29-.4,3.67-.4,3.67,0,0-15.41.1-19.97-13.44-4.56-13.53,3.08-25.86,3.08-25.86,0,0-6.3-24.66-.13-32.3,14.61-1.74,22.38,14.07,21.71,21.31h0Z"/><path class="uuid-f080fb2b-602f-4cf7-92ef-6037f33bace8" d="m138.51,388.15c-3.22-11.04-6.43-23.51-23.05-29.14-10.38-3.52-19.92-1.38-26.57,4.53,6.66-4.23,20.81-4.13,30.46,5.12,9.65,9.25,13.13,18.36,9.92,31.76-3.22,13.4-8.09,14.34-7.33,22.25.76,7.91,4.65,13.13,3.98,17.69-.65,4.41-2.57,9.46-9.12,11.11,1.38-.2,2.73-.49,4.03-.83,9.11-2.37,17.02-17.96,17.02-17.96l10.05-24.34s-6.16-9.13-9.38-20.18h0Z"/><path class="uuid-f080fb2b-602f-4cf7-92ef-6037f33bace8" d="m117.21,439.72s-15.41.1-19.97-13.44c-4.56-13.53,3.08-25.86,3.08-25.86,0,0-6.3-24.66-.13-32.3h0c-7.5.54-15.14,9.25-9.11,34.71-5.76,13-2.28,29.55,8.44,36.89,10.72,7.33,17.29,3.67,17.69,0h0Z"/><path class="uuid-f080fb2b-602f-4cf7-92ef-6037f33bace8" d="m153.88,408.67s.21,4.54,0,5.65c-.21,1.11-3.94,5.04-5.56,8.37-1.61,3.33-1.61,8.17-1.82,9.48s-3.93,4.04-7.46,3.88c-3.53-.15-7.06-6.91-1.31-20.22,5.75-13.31,16.24-12.41,16.15-7.16h0Z"/><path class="uuid-f080fb2b-602f-4cf7-92ef-6037f33bace8" d="m158.93,419.29c1.9-2.02,0-6.54-2.94-7.1-1.77-.34-4.94-.5-9.28,8.17-4.34,8.67-2,13.38-1.01,14.62,1.61,2.02,6.83,1.11,7.68-2.32.55-2.2.93-3.83,2.37-7.82s3.18-5.56,3.18-5.56h0Z"/><path class="uuid-f080fb2b-602f-4cf7-92ef-6037f33bace8" d="m153.38,432.67s1.44-8.2,5.55-13.38l-4.15-2.26s-1.48.91-3.72,6.05c-2.24,5.14-2.24,7.36-2.24,7.36l4.55,2.22h0Z"/><path class="uuid-f080fb2b-602f-4cf7-92ef-6037f33bace8" d="m193.93,450.63c.19-6.04,3.41-9.84,5.62-10.91,0,0,12.42.33,17.34-.51,4.92-.84,6.77,5.2,1.86,15.31s-7.52,12.77-10.39,10.92c-3.32-2.14-2.49-6.17-14.43-14.81h0Z"/><path class="uuid-f080fb2b-602f-4cf7-92ef-6037f33bace8" d="m224.52,458.18c-5.38,11.37-14.69,6.69-9.41-4.53,5.28-11.22,15.26-7.82,9.41,4.53Z"/><g><path class="uuid-f080fb2b-602f-4cf7-92ef-6037f33bace8" d="m232.45,463.74v7.7s15.21,8.44,17.86,10.28c3.51,2.42,1.94,7.69,1.94,7.69l-10.66-5.27-6.59,2.46-1.38,16.04,23.22,12.96,5.25-3.08.74-7.42s7.33,2.53,8.07,5.83c.74,3.29-.74,10.94-.74,10.94l25.18,12.85,5.74-2.44,4.04-17.32s-13.39-5.95-14.98-7.65-1.59-6.48-1.59-6.48c0,0,2.12-.74,5.63,1.06s14.02,6.59,14.02,6.59l7.57-2.18.93-4.09-84.26-38.48h0Z"/><g><path class="uuid-fa7a50da-85f3-4b12-a5b7-369a35eddd61" d="m256.85,515.61l5.25-3.08.74-7.42c-4.16-1.56-4.99-1.23-5.99,10.5Z"/><polygon class="uuid-fa7a50da-85f3-4b12-a5b7-369a35eddd61" points="308.21 508.49 315.78 506.31 316.7 502.22 310.06 499.19 308.21 508.49"/><path class="uuid-fa7a50da-85f3-4b12-a5b7-369a35eddd61" d="m301.09,532.29l4.04-17.32s-13.39-5.95-14.98-7.65c-1.59-1.7-1.59-6.48-1.59-6.48-5.36.04-5.98,6.95-3.14,9.63,2.83,2.68,13.5,7.43,13.5,7.43l-3.56,16.83,5.74-2.44h0Z"/><path class="uuid-fa7a50da-85f3-4b12-a5b7-369a35eddd61" d="m252.25,489.41l-10.65-5.27-6.59,2.46s8.4,3.91,11.55,5.7c3.15,1.79,5.4-1.25,5.69-2.89h0Z"/></g></g><g><path class="uuid-f080fb2b-602f-4cf7-92ef-6037f33bace8" d="m218.25,460.55l106.4,49.92s4.24.66,6.38-3.76c2.14-4.42-.3-6.75-.3-6.75l-107.49-49.32s-4.94,2.52-4.99,9.92h0Z"/><path class="uuid-67a4340c-4aab-4dd0-b330-b9e5e8d4b206" d="m330.72,499.95c-3.94-1.81-9.58,8.59-6.08,10.52"/></g></g></g></g></g></svg>
<svg id="uuid-2c12b907-b76f-4699-b403-115b318e8c0a" data-name="BODY" xmlns="http://www.w3.org/2000/svg" viewBox="0 0 600 600"><g id="uuid-fbaff554-f4e8-4966-8dd6-93a04a55e731" data-name="notes"><path id="uuid-c4bab009-7e62-47ea-a24c-6e0e8eb4e622" data-name="note" d="m530.94,167.64c-1.6-.76-3.52-.08-4.29,1.52,0,0-15.87,35.49-21.85,48.86-2.39-1.88-5.81-3.17-9.68-3.41-7.57-.46-13.95,3.29-14.26,8.37-.31,5.08,5.58,9.57,13.15,10.03,6.58.4,12.26-2.39,13.84-6.46.18-.2.35-.42.48-.67l24.14-53.95c.76-1.6.08-3.52-1.52-4.29Z"/><path id="uuid-3ea0a4af-a12f-4b4b-b4be-488363ed619c" data-name="note" d="m399.17,83.39l-13.93-22.62c-.9-1.53-2.87-2.05-4.4-1.16-.87.51-1.4,1.36-1.54,2.29-.84,3.27-9.74,38.06-13.21,51.58-2.67-1.45-6.26-2.15-10.12-1.72-7.54.83-13.2,5.6-12.64,10.66.56,5.06,7.12,8.49,14.65,7.66,6.56-.72,11.68-4.43,12.55-8.71.14-.23.27-.47.35-.75l12.83-50.06c4.07,6.61,9.77,15.86,9.85,15.99.32.55-5.45,4.09-5.45,4.09,0,0,8.87-2.36,9.85-2.93,1.51-.88,2.03-2.8,1.19-4.32Z"/><path id="uuid-c9c4d404-b4a7-4a04-9f34-9ae196a5cd99" data-name="note" d="m494.28,83.17s0-.03,0-.04c-.35-1.74-2.05-2.87-3.79-2.51,0,0-33.19,7.52-33.44,7.57-1.54.31-2.6,1.69-2.57,3.21-.92,5-7.13,38.67-9.59,51.99-2.76-1.27-6.4-1.71-10.21-1.03-7.46,1.34-12.78,6.49-11.88,11.5.9,5.01,7.68,7.98,15.14,6.64,6.49-1.17,11.35-5.21,11.92-9.54.13-.24.24-.49.3-.77l7.63-41.31,26.58-6.06c-2.15,11.64-4.71,25.53-6.09,33-2.76-1.27-6.4-1.71-10.21-1.03-7.46,1.34-12.78,6.49-11.88,11.5.9,5.01,7.68,7.98,15.14,6.64,6.49-1.17,11.36-5.21,11.92-9.54.13-.24.24-.49.3-.77l10.73-58.12c.09-.45.08-.9,0-1.32Zm-35.22,18.82l1.48-8.01,26.56-6c-.39,2.13-.89,4.85-1.46,7.95-4.21.96-19.81,4.53-26.58,6.07Z"/></g></svg>
<svg id="uuid-ab1931fc-d5c0-4cb4-afd6-f3bc81ff7581" data-name="BODY" xmlns="http://www.w3.org/2000/svg" xmlns:xlink="http://www.w3.org/1999/xlink" viewBox="0 0 600 600"><defs><style>
      .uuid-46c841ce-3b67-4779-b315-85ce00fa542b, .uuid-51c94c6f-fd18-4e3b-98c7-3f099a22fee0, .uuid-9e6c6a35-d2f6-4ae0-951a-9d22770e9b35, .uuid-55198174-3401-4ad9-94f7-c8a54995cc5e {
        fill: none;
      }

      .uuid-51c94c6f-fd18-4e3b-98c7-3f099a22fee0 {
        clip-path: url(#uuid-96d0c1a6-a810-45b4-bcd2-6cce64fda90e);
      }

      .uuid-cb49d95c-18e8-459d-b7b5-1b5c6d4b6d33, .uuid-b2f3ed1d-5c30-4614-b99f-eaad7ebd5d96 {
        fill: #7aa6ff;
      }

      .uuid-cb49d95c-18e8-459d-b7b5-1b5c6d4b6d33, .uuid-b2f3ed1d-5c30-4614-b99f-eaad7ebd5d96, .uuid-1bd459ee-3e86-4ab0-8ca7-9f1d28e7821b, .uuid-9e6c6a35-d2f6-4ae0-951a-9d22770e9b35 {
        stroke: #000;
        stroke-linecap: round;
        stroke-linejoin: round;
      }

      .uuid-cb49d95c-18e8-459d-b7b5-1b5c6d4b6d33, .uuid-1bd459ee-3e86-4ab0-8ca7-9f1d28e7821b, .uuid-9e6c6a35-d2f6-4ae0-951a-9d22770e9b35 {
        stroke-width: 2px;
      }

      .uuid-b2f3ed1d-5c30-4614-b99f-eaad7ebd5d96 {
        stroke-width: 2px;
      }

      .uuid-1ab747fd-048c-4897-9f0a-d0eb8569cbe1 {
        fill: #f9a723;
      }

      .uuid-1bd459ee-3e86-4ab0-8ca7-9f1d28e7821b {
        fill: #ffff0d;
      }

      .uuid-55198174-3401-4ad9-94f7-c8a54995cc5e {
        clip-path: url(#uuid-cca5cbc4-5e03-4551-b42d-78a54b79ec4d);
      }
    </style><clipPath id="uuid-cca5cbc4-5e03-4551-b42d-78a54b79ec4d"><path class="uuid-46c841ce-3b67-4779-b315-85ce00fa542b" d="m187.08,173.64l-1.95-7.59c-.18-.71-.1-1.46.24-2.11,2.02-3.91,10.25-18.26,28.21-31.73,0,0,23.2-20.5,68.77-17.54,40.38,2.63,70.17,28.44,76.43,34.29.77.71,1.1,1.77.89,2.8l-1.27,6.15c-.18.88-.75,1.64-1.55,2.05-4.05,2.11-16.93,8.97-24.55,14.58-1.2.88-2.85.75-3.89-.31-6.9-7.06-33.64-30.87-78.7-28.82-48.78,2.23-62.63,28.23-62.63,28.23h0Z"/></clipPath><clipPath id="uuid-96d0c1a6-a810-45b4-bcd2-6cce64fda90e"><path class="uuid-46c841ce-3b67-4779-b315-85ce00fa542b" d="m393.75,182.6l1.89.33c1.67.29,3.23.98,4.57,2.02,5.28,4.08,18.96,14.87,19.85,17.97,1.11,3.84.61,9.81.61,9.81,0,0-14.8,20.22-33.94,24-19.15,3.78-95.09,20.88-194.19,14-25.46-1.77-33.57-7.97-33.57-7.97,0,0-.67-6.72-.88-9.01-.2-2.29,8.63-7.28,8.63-7.28,0,0-.09-3.54-.15-7.07-.05-3.11,1.62-5.99,4.35-7.48l5.11-2.8s-.67,6.19-.69,9.6c0,0,28.24,2.76,62.76,1.42,34.52-1.35,57.44-3.1,64.58-3.37,7.15-.27,19.89,8.39,19.89,8.39,0,0,41.19-6.91,55.21-14.46,14.02-7.55,15.95-28.08,15.95-28.08h0Z"/></clipPath></defs><g id="uuid-9b290a8c-1546-4f24-aae8-16bce36dddf7" data-name="uuid-23968290-0a3a-4a15-8166-5b4124cfd492"><g><path class="uuid-1bd459ee-3e86-4ab0-8ca7-9f1d28e7821b" d="m281.13,233.94c75.24-6.27,104.36-20.83,104.36-20.83l12.32-16.88c-12.1-54.27-66.47-90.62-125.26-82.17-61.12,8.79-104.01,62.7-96.37,120.76,13.82,1.47,48.52,3.82,104.95-.88h0Z"/><path class="uuid-9e6c6a35-d2f6-4ae0-951a-9d22770e9b35" d="m204.85,189.49s14.94-1.52,20.48-15.09"/><g><path class="uuid-1ab747fd-048c-4897-9f0a-d0eb8569cbe1" d="m187.08,173.64l-1.95-7.59c-.18-.71-.1-1.46.24-2.11,2.02-3.91,10.25-18.26,28.21-31.73,0,0,23.2-20.5,68.77-17.54,40.38,2.63,70.17,28.44,76.43,34.29.77.71,1.1,1.77.89,2.8l-1.27,6.15c-.18.88-.75,1.64-1.55,2.05-4.05,2.11-16.93,8.97-24.55,14.58-1.2.88-2.85.75-3.89-.31-6.9-7.06-33.64-30.87-78.7-28.82-48.78,2.23-62.63,28.23-62.63,28.23h0Z"/><g class="uuid-55198174-3401-4ad9-94f7-c8a54995cc5e"><g><path class="uuid-9e6c6a35-d2f6-4ae0-951a-9d22770e9b35" d="m184.86,164.97s20.97-27.38,68.16-27.51c51.57-.14,79.22,28.15,79.22,28.15,8.45-5.6,27.77-15.48,27.77-15.48"/><line class="uuid-9e6c6a35-d2f6-4ae0-951a-9d22770e9b35" x1="332.24" y1="165.62" x2="330.2" y2="176.16"/></g></g><path class="uuid-9e6c6a35-d2f6-4ae0-951a-9d22770e9b35" d="m187.08,173.64l-1.95-7.59c-.18-.71-.1-1.46.24-2.11,2.02-3.91,10.25-18.26,28.21-31.73,0,0,23.2-20.5,68.77-17.54,40.38,2.63,70.17,28.44,76.43,34.29.77.71,1.1,1.77.89,2.8l-1.27,6.15c-.18.88-.75,1.64-1.55,2.05-4.05,2.11-16.93,8.97-24.55,14.58-1.2.88-2.85.75-3.89-.31-6.9-7.06-33.64-30.87-78.7-28.82-48.78,2.23-62.63,28.23-62.63,28.23h0Z"/></g><g><path class="uuid-1ab747fd-048c-4897-9f0a-d0eb8569cbe1" d="m393.75,182.6l1.89.33c1.67.29,3.23.98,4.57,2.02,5.28,4.08,18.96,14.87,19.85,17.97,1.11,3.84.61,9.81.61,9.81,0,0-14.8,20.22-33.94,24-19.15,3.78-95.09,20.88-194.19,14-25.46-1.77-33.57-7.97-33.57-7.97,0,0-.67-6.72-.88-9.01-.2-2.29,8.63-7.28,8.63-7.28,0,0-.09-3.54-.15-7.07-.05-3.11,1.62-5.99,4.35-7.48l5.11-2.8s-.67,6.19-.69,9.6c0,0,28.24,2.76,62.76,1.42,34.52-1.35,57.44-3.1,64.58-3.37,7.15-.27,19.89,8.39,19.89,8.39,0,0,41.19-6.91,55.21-14.46,14.02-7.55,15.95-28.08,15.95-28.08h0Z"/><g class="uuid-51c94c6f-fd18-4e3b-98c7-3f099a22fee0"><g><path class="uuid-9e6c6a35-d2f6-4ae0-951a-9d22770e9b35" d="m158.09,233.74c.88,9.01,49.4,12.98,100.52,11.46,72.08-2.15,125.26-14.09,130.42-16.11,5.16-2.02,21.67-12.4,31.04-26.17"/><line class="uuid-9e6c6a35-d2f6-4ae0-951a-9d22770e9b35" x1="389.02" y1="229.09" x2="389.71" y2="236"/><path class="uuid-9e6c6a35-d2f6-4ae0-951a-9d22770e9b35" d="m166.72,226.46l.24,7.42s9,7.15,85.04,5.93c25.97-.41,51.15-2.46,73.03-6.22,42.18-7.25,67.12-10.07,74.4-40.81"/><path class="uuid-9e6c6a35-d2f6-4ae0-951a-9d22770e9b35" d="m175.35,218.7c-4.55-.44-3.26-3.24-3.26-3.24"/></g></g><path class="uuid-9e6c6a35-d2f6-4ae0-951a-9d22770e9b35" d="m393.75,182.6l1.89.33c1.67.29,3.23.98,4.57,2.02,5.28,4.08,18.96,14.87,19.85,17.97,1.11,3.84.61,9.81.61,9.81,0,0-14.8,20.22-33.94,24-19.15,3.78-95.09,20.88-194.19,14-25.46-1.77-33.57-7.97-33.57-7.97,0,0-.67-6.72-.88-9.01-.2-2.29,8.63-7.28,8.63-7.28,0,0-.09-3.54-.15-7.07-.05-3.11,1.62-5.99,4.35-7.48l5.11-2.8s-.67,6.19-.69,9.6c0,0,28.24,2.76,62.76,1.42,34.52-1.35,57.44-3.1,64.58-3.37,7.15-.27,19.89,8.39,19.89,8.39,0,0,41.19-6.91,55.21-14.46,14.02-7.55,15.95-28.08,15.95-28.08h0Z"/></g><g><path class="uuid-cb49d95c-18e8-459d-b7b5-1b5c6d4b6d33" d="m379.46,212.59c-1.27.62-9.71,4.59-11.04,4.93-10.68,2.77-22.72-3.19-28.34-14.7-5.53-11.32-3.01-24.24,5.4-31.06,1.2-.97,9.66-5.31,11.09-6.01,6.51,13.31,17.78,36.38,22.89,46.83h0Z"/><ellipse class="uuid-b2f3ed1d-5c30-4614-b99f-eaad7ebd5d96" cx="368.02" cy="189.18" rx="23.15" ry="26.06" transform="translate(-45.69 180.81) rotate(-26.05)"/><ellipse class="uuid-b2f3ed1d-5c30-4614-b99f-eaad7ebd5d96" cx="368.02" cy="189.18" rx="16.01" ry="18.02" transform="translate(-45.69 180.81) rotate(-26.05)"/><path class="uuid-cb49d95c-18e8-459d-b7b5-1b5c6d4b6d33" d="m357.1,174.97c-5.59,4.77-7.23,13.53-3.46,21.23,3.76,7.7,11.68,11.79,18.88,10.31,5.59-4.77,7.23-13.53,3.47-21.23-3.76-7.7-11.68-11.79-18.88-10.31Z"/></g></g></g></svg>
</svg>