<?xml version="1.0" encoding="UTF-8"?>
<svg xmlns="http://www.w3.org/2000/svg" viewBox="0 0 600 600">
<svg id="uuid-d9dcaeb1-b3e9-4103-a9e9-674eb3b1cf0f" data-name="BACKGROUND" xmlns="http://www.w3.org/2000/svg" viewBox="0 0 600 600"><defs><style>
      .uuid-ddba642b-737c-447a-8d97-1fa19eb8e4a8 {
        fill: #ff78d8;
      }
    </style></defs><rect class="uuid-ddba642b-737c-447a-8d97-1fa19eb8e4a8" x="-1" y="-1" width="602" height="602"/></svg>
<svg id="uuid-9648c3a5-85bf-4111-b836-4f12d2846ea0" data-name="BODY" xmlns="http://www.w3.org/2000/svg" viewBox="0 0 600 600"><defs><style>
      .uuid-72b44662-bf92-45d6-ac71-8c8630eb5da1, .uuid-b37a1837-e78f-4ad9-8af6-f6160b19a96e, .uuid-b7e08078-eff0-49e0-882e-e19f6b9f0e51, .uuid-4887485d-8263-4dc3-866a-1e0074c49d38, .uuid-77a72000-cc0e-4046-a327-32f7083bfbd5 {
        stroke: #000;
        stroke-width: 2px;
      }

      .uuid-72b44662-bf92-45d6-ac71-8c8630eb5da1, .uuid-b37a1837-e78f-4ad9-8af6-f6160b19a96e, .uuid-4887485d-8263-4dc3-866a-1e0074c49d38, .uuid-77a72000-cc0e-4046-a327-32f7083bfbd5 {
        fill: #8400ff;
      }

      .uuid-72b44662-bf92-45d6-ac71-8c8630eb5da1, .uuid-b7e08078-eff0-49e0-882e-e19f6b9f0e51, .uuid-4887485d-8263-4dc3-866a-1e0074c49d38 {
        stroke-linecap: round;
      }

      .uuid-72b44662-bf92-45d6-ac71-8c8630eb5da1, .uuid-b7e08078-eff0-49e0-882e-e19f6b9f0e51, .uuid-77a72000-cc0e-4046-a327-32f7083bfbd5 {
        stroke-linejoin: round;
      }

      .uuid-a929d959-1aea-4f08-932c-c12aa89aeb8b {
        fill: #fff;
      }

      .uuid-b37a1837-e78f-4ad9-8af6-f6160b19a96e, .uuid-4887485d-8263-4dc3-866a-1e0074c49d38 {
        stroke-miterlimit: 10;
      }

      .uuid-b7e08078-eff0-49e0-882e-e19f6b9f0e51 {
        fill: none;
      }
    </style></defs><ellipse cx="300" cy="518.65" rx="138.6" ry="22.93"/><g><path class="uuid-b37a1837-e78f-4ad9-8af6-f6160b19a96e" d="m319.36,427.14c-1.16,1.05-54.95,57-54.95,57,0,0,21.51-1.95,31.74,10.62,10.23,12.57,7.26,23.89,7.26,23.89h-66.9s-28.69-36.17-28.69-36.17c0,0,3.74-13.4,20.44-10.59,20.9-19.38,55.52-59.13,55.52-59.13l35.59,14.38Z"/><path d="m283.78,412.76l31.28,12.64-3.24,9.5c-2.93,3.03-9.76,10.12-13.64,14.14-11.92,0-27.98-2.13-41.33-6.37,13.95-15.1,26.93-29.92,26.93-29.92Z"/></g><g><path class="uuid-72b44662-bf92-45d6-ac71-8c8630eb5da1" d="m409.81,359.6c9.2,3.77,29.89,12.05,42.79,16.03,2.11.65,4.41.69,6.5-.04,11.79-4.08,28.47-11.39,33.03-11.32,5.25.08,7.8,3.93,19.88,2.04,13.36-2.1,22.43-11.99,20.93-23.3-4.21-43.28-25.18-26.79-25.18-26.79,0,0-5.84-8.75-18.76-4.82-11.83,3.6-10.2,14.44-6.47,22.47l-25.29,8.58c-2.14.72-4.45.71-6.59-.02l-35.7-12.61"/><path class="uuid-4887485d-8263-4dc3-866a-1e0074c49d38" d="m533.36,312.82c2.5,3.94,1.62,9.14-1.57,12.4-2.47,2.53-5.88,3.88-9.32,4.4-2.8.43-5.7.42-8.49-.08-2.14-.39-4.29-1.1-5.79-2.75-1.66-1.83-2.27-4.46-1.98-6.87.51-4.17,3.84-7.14,7.22-9.26,3.17-1.98,6.86-3.26,10.64-3.09,3.8.18,7.36,2.19,9.3,5.24Z"/><path class="uuid-4887485d-8263-4dc3-866a-1e0074c49d38" d="m538.57,349.84c.97,3.03.32,6.43-1.5,9.01-3.77,5.33-11.17,5.65-16.96,4.27-3.31-.79-6.69-2.21-8.67-5.13-3.13-4.61-.82-9.79,3.48-12.56,2.58-1.66,5.61-2.67,8.63-3.14,5.73-.89,13.1,1.51,15.03,7.56Z"/><path class="uuid-4887485d-8263-4dc3-866a-1e0074c49d38" d="m538.71,328.53c1.8,2.99,2.06,6.89.22,9.9-1.95,3.2-4.94,5.25-8.49,6.28-3.66,1.07-7.64,1.27-11.4.44-2.25-.5-4.53-1.38-5.96-3.28-1.86-2.47-1.89-5.68-.85-8.49,1.2-3.24,4.17-5.69,7.09-7.37,6.15-3.56,15.21-4.43,19.39,2.52Z"/><path class="uuid-4887485d-8263-4dc3-866a-1e0074c49d38" d="m501.85,311.68s9.27,3.84,7.77,12.02c-1.04,5.68-8.17,9.55-14.94,6.13"/><path class="uuid-b7e08078-eff0-49e0-882e-e19f6b9f0e51" d="m500.67,331.08c2.41,1.63,5.11,8.04,3.4,14.42"/><path d="m443.44,339.88c-2.88,10.58-6.94,20.23-11.17,28.59-10.17-3.78-21.16-9.53-27-11.93l11.83-26.02,26.35,9.36Z"/></g><g><circle class="uuid-b37a1837-e78f-4ad9-8af6-f6160b19a96e" cx="300" cy="300" r="138.16"/><path class="uuid-a929d959-1aea-4f08-932c-c12aa89aeb8b" d="m184.58,308.17c-4.41,0-7.98-3.57-7.98-7.98,0-67.74,55.11-122.86,122.86-122.86,4.41,0,7.98,3.57,7.98,7.98s-3.57,7.98-7.98,7.98c-58.94,0-106.9,47.95-106.9,106.9,0,4.41-3.57,7.98-7.98,7.98Z"/></g><path class="uuid-b7e08078-eff0-49e0-882e-e19f6b9f0e51" d="m264.41,484.14c-4.06.49-11.49,1.36-17.85,7.23"/><path class="uuid-a929d959-1aea-4f08-932c-c12aa89aeb8b" d="m185.17,308.14c-4.41,0-7.98-3.57-7.98-7.98,0-67.74,55.11-122.86,122.86-122.86,4.41,0,7.98,3.57,7.98,7.98s-3.57,7.98-7.98,7.98c-58.94,0-106.9,47.95-106.9,106.9,0,4.41-3.57,7.98-7.98,7.98Z"/><path d="m203.75,397.46l34.2-27.46-24.86,36.3c-6.73-5.1-3.66-2.61-9.34-8.83Z"/><path class="uuid-77a72000-cc0e-4046-a327-32f7083bfbd5" d="m323.72,387.31c19.14-13.4,39.15-11.3,55.52,7.36,19.6,22.35,30.57,33.06,30.57,33.06,0,0,10.74-19.34,34.77-17.5,18.26,1.4,24.84,14.43,24.84,14.43,0,0,6.21,8.82-22.45,33.5-28.66,24.68-54.93,40.92-61.14,29.46-6.21-11.46-2.82-32.1-2.82-32.1,0,0-22.02-26.09-27.94-32.01-6.79-6.79-15.71-1.36-15.71-1.36"/><path class="uuid-b37a1837-e78f-4ad9-8af6-f6160b19a96e" d="m446.97,458.17c-25.89,22.29-49.82,37.69-58.79,32.02-9.77-7.44,26.84-38.54,44.88-52.7,18.04-14.16,32.17-17.82,36.36-12.81,0,0,6.21,8.82-22.45,33.5Z"/><path class="uuid-b7e08078-eff0-49e0-882e-e19f6b9f0e51" d="m409.81,427.74c-1.89,2.86-4.55,10.38-4.55,10.38"/><g><path class="uuid-72b44662-bf92-45d6-ac71-8c8630eb5da1" d="m214.11,345.7c-8.05,5.83-25.34,20.79-35.52,29.67-1.67,1.45-2.82,3.41-3.39,5.55-3.14,11.67-8.55,33.44-8.55,33.44,0,0-8.42.58-12.19,14.35-3.64,13.3-6.64,25.06,3.77,29.75.35,7.47,7.51,15.45,19.2,9.41.14-.06,1.32,1.32,1.44,1.45,2.64,2.7,6.36,4.45,10.13,4.81,3.65.36,7.61-.67,10.43-3.08,3.29-2.81,5.4-6.94,6.05-11.2.4-2.61.26-5.31-.75-7.78,0,0,6.2-2.51,8.05-11.34,1.99-9.49-4.22-19.42-14.62-18.18l6.17-23.11c.51-2.2,1.74-4.16,3.49-5.59l29.38-24.3"/><path class="uuid-b7e08078-eff0-49e0-882e-e19f6b9f0e51" d="m204.73,452.06c-1.37-3.47-5.39-7.08-9-6.88"/><path class="uuid-b7e08078-eff0-49e0-882e-e19f6b9f0e51" d="m178.86,469.3c-5.16-5.27-3.82-11.97-2.9-13.54"/><path class="uuid-b7e08078-eff0-49e0-882e-e19f6b9f0e51" d="m158.22,458.45c-.27-5.22.73-7.32,3.06-9.83"/><path class="uuid-b7e08078-eff0-49e0-882e-e19f6b9f0e51" d="m193.93,450.63c.14-2.07.48-4.16,1.32-6.06.85-1.95,2.36-3.88,4.31-4.85"/></g></svg>
<svg id="uuid-853b1779-0b40-4336-9fd3-56860412922a" data-name="BODY" xmlns="http://www.w3.org/2000/svg" viewBox="0 0 600 600"><defs><style>
      .uuid-270fe1d8-6ffc-45cd-908c-63708945a6da {
        fill: none;
        stroke: #000;
        stroke-linecap: round;
        stroke-miterlimit: 10;
        stroke-width: 4px;
      }
    </style></defs><path class="uuid-270fe1d8-6ffc-45cd-908c-63708945a6da" d="m378.79,259.75c-1.76-5.11-7.33-7.82-12.44-6.06s-7.82,7.33-6.06,12.44"/><circle cx="362.12" cy="293.18" r="9.78" transform="translate(-9.59 12.26) rotate(-1.91)"/><path class="uuid-270fe1d8-6ffc-45cd-908c-63708945a6da" d="m346.88,270.76c-1.76-5.11-7.33-7.82-12.44-6.06-5.11,1.76-7.82,7.33-6.06,12.44"/></svg>
<svg id="uuid-45076936-bf6a-400d-9d76-99472c58c4e9" data-name="BODY" xmlns="http://www.w3.org/2000/svg" viewBox="0 0 600 600"><defs><style>
      .uuid-00e92ae1-42c8-44e2-857e-a94a78f8009e {
        fill: #7aa6ff;
      }

      .uuid-00e92ae1-42c8-44e2-857e-a94a78f8009e, .uuid-c8acc748-5549-488d-9673-ee82474a7e79, .uuid-d7d2649e-ee29-4e07-944b-c87f4fdef738, .uuid-73ac82b7-4b52-4b93-b621-04fff5d4c5c9 {
        stroke-width: 2px;
      }

      .uuid-00e92ae1-42c8-44e2-857e-a94a78f8009e, .uuid-c8acc748-5549-488d-9673-ee82474a7e79, .uuid-d7d2649e-ee29-4e07-944b-c87f4fdef738, .uuid-73ac82b7-4b52-4b93-b621-04fff5d4c5c9, .uuid-089f3058-646e-4e65-9510-fa18f21a0218 {
        stroke: #000;
        stroke-linecap: round;
        stroke-linejoin: round;
      }

      .uuid-c8acc748-5549-488d-9673-ee82474a7e79 {
        fill: #ffff0d;
      }

      .uuid-d7d2649e-ee29-4e07-944b-c87f4fdef738 {
        fill: #fff7f0;
      }

      .uuid-73ac82b7-4b52-4b93-b621-04fff5d4c5c9 {
        fill: none;
      }

      .uuid-089f3058-646e-4e65-9510-fa18f21a0218 {
        fill: #f9a723;
        stroke-width: 2px;
      }
    </style></defs><g id="uuid-92d075af-fa6e-4eea-88c5-a8003c321dc0" data-name="uuid-703517f9-cd20-496a-807d-fc23883ee864"><g><g><path class="uuid-c8acc748-5549-488d-9673-ee82474a7e79" d="m468.51,338.63l-11.27,3.82c-2.14.72-4.46.71-6.59-.02l-35.7-12.61-5.14,29.78c9.2,3.77,29.89,12.05,42.79,16.03,2.11.65,4.41.69,6.5-.04,5.76-2,12.7-4.76,18.81-7.06-2.7-8.62-6.59-20.95-9.41-29.91h0Z"/><path d="m443.44,339.88c-2.88,10.58-6.94,20.23-11.17,28.59-10.17-3.78-21.16-9.53-27-11.93l11.83-26.02,26.35,9.36Z"/><path class="uuid-c8acc748-5549-488d-9673-ee82474a7e79" d="m468.45,373.64c-8.32-9.6-10.07-23.09-11.1-31.57-.4-3.26,1.5-6.35,4.59-7.49l7.36-2.7c1.61-.59,3.4-.29,4.73.79l3.54,2.87-4.51,1.53s-1.65,17.39,9.6,29.72l3.97-1.43-.16,3.5c-.09,1.97-1.36,3.69-3.22,4.36l-7.03,2.52c-2.77.99-5.85.15-7.78-2.08h0Z"/></g><path class="uuid-c8acc748-5549-488d-9673-ee82474a7e79" d="m319.36,402.14c54.04-5.61,84.58-20.5,97.52-28.47,12.37-19.58,19.96-42.47,21.12-67.06-3.19,2.68-54.14,44.28-135.14,35.93-67.15-6.92-139.67-58.6-140.07-58.88-.63,5.36-.97,10.81-.97,16.33,0,12.21,1.6,24.05,4.58,35.32,27.47,27.32,85.27,73.84,152.95,66.82h0Z"/><g><g><path class="uuid-00e92ae1-42c8-44e2-857e-a94a78f8009e" d="m265.06,433.71l-12.83,13.93,24.11,24.11,32.61-33.86s-9.11-3.01-21.05-4.93c-11.93-1.92-22.84.76-22.84.76h0Z"/><path d="m283.78,412.76l31.28,12.64-3.24,9.5c-2.93,3.03-9.76,10.12-13.64,14.14-11.92,0-27.98-2.13-41.33-6.37,13.95-15.1,26.93-29.92,26.93-29.92h0Z"/><path class="uuid-00e92ae1-42c8-44e2-857e-a94a78f8009e" d="m256.75,440.63c11.72,4.9,21.56,18.02,26.25,25.16,1.8,2.74,1.48,6.36-.78,8.74l-5.4,5.69c-1.18,1.24-2.92,1.77-4.59,1.4l-4.44-1,3.34-3.48s-8.51-18.01-24.06-24.06l-2.92,3.05-1.41-3.2c-.8-1.8-.42-3.91.94-5.33l5.18-5.38c2.04-2.12,5.18-2.73,7.89-1.6h0Z"/></g><g><path class="uuid-00e92ae1-42c8-44e2-857e-a94a78f8009e" d="m195.72,360.99c-9.29-4.19-17.84-8.74-25.47-13.44,3.18,8.66,7.21,16.91,11.97,24.66l13.5-11.22h0Z"/><path class="uuid-00e92ae1-42c8-44e2-857e-a94a78f8009e" d="m418.95,370.3c-24.03,7.71-48.97,5.83-75.98,8.83-39.41,8.01-77.99,4.3-111.27-5.07l-23.9,19.76c-1.62,1.34-2.78,3.14-3.33,5.17l-.18.65c24.83,23.86,58.55,38.52,95.7,38.52,20.42,0,39.8-4.45,57.24-12.4,0,0-.01.03-.01.03l10.9,12.33,27.36-25.36-6.48-7.1s-.02,0-.02,0c11.86-10,22.01-21.95,29.96-35.36h0Z"/></g><g><path class="uuid-d7d2649e-ee29-4e07-944b-c87f4fdef738" d="m203.69,354.36c-17.08-8.69-30-18.05-38.83-25.49,1.83,8.61,4.46,16.91,7.81,24.84,5.47,4.27,11.23,8.27,17.37,12l13.65-11.35Z"/><path class="uuid-d7d2649e-ee29-4e07-944b-c87f4fdef738" d="m342.98,379.13c-41.76,3.6-76.57-1.71-104.59-10.59l-15.49,12.81c24.69,8.91,54.95,14.31,93.96,15.13,0,0,9.76-15.82,28.03-17.52,18.89-1.76,28.81,10.15,28.81,10.15,0,0,26.43-3.81,42.25-13.99,4.66-7.17,8.68-14.8,11.96-22.81-22.27,15.48-52.65,24.04-84.93,26.82h0Z"/></g><path class="uuid-00e92ae1-42c8-44e2-857e-a94a78f8009e" d="m363.75,435.78c5.95-11.23,22.62-22.64,30.16-26.66,2.9-1.55,6.47-.89,8.64,1.58l5.18,5.89c1.13,1.29,1.5,3.07.98,4.7l-1.2,4.15-3.35-3.46s-19.28,5.51-28.87,24.58l2.77,3.19-3.32,1.12c-1.87.63-3.93.07-5.22-1.43l-4.89-5.65c-1.93-2.23-2.25-5.4-.87-8.01h0Z"/><path class="uuid-00e92ae1-42c8-44e2-857e-a94a78f8009e" d="m251.53,391.83l3.51-18.9c.48-2.58,2.98-4.26,5.55-3.73l5.12,1.06c1.43.3,2.64,1.24,3.27,2.56l1.72,3.58-4.74-.87-2.91,19.07"/><path class="uuid-00e92ae1-42c8-44e2-857e-a94a78f8009e" d="m304.26,399.19l-.41-19.21c-.06-2.62,2.06-4.78,4.68-4.78h5.23c1.46,0,2.84.67,3.72,1.83l2.42,3.15-4.82.11,1.03,19.26"/><path class="uuid-00e92ae1-42c8-44e2-857e-a94a78f8009e" d="m416.88,373.71l-4.03-12.57-3.04,1.52.44-3.75c.16-1.38.79-2.47,1.7-2.96l3.26-1.76c1.64-.88,3.68.41,4.53,2.87,0,0,1.79,5.26,2.48,7.39-2.03,4.03-5.35,9.26-5.35,9.26h0Z"/><path class="uuid-00e92ae1-42c8-44e2-857e-a94a78f8009e" d="m182.89,364.72l6.4-18.43,2.98,1.81-.44-3.87c-.16-1.38-.79-2.47-1.7-2.96l-4.6-2.53c-1.64-.88-3.68.41-4.53,2.87,0,0-5.46,14.85-6.15,16.97"/><rect class="uuid-089f3058-646e-4e65-9510-fa18f21a0218" x="373.04" y="367.45" width="29.72" height="22.05" rx="5.33" ry="5.33" transform="translate(-85.21 114.14) rotate(-15.1)"/><g><path class="uuid-73ac82b7-4b52-4b93-b621-04fff5d4c5c9" d="m252.23,408.88s21.46,5.16,33.72-8.19"/><g><path d="m378.59,441.98c-.27,0-.53-.11-.73-.31l-2.75-2.91c-.38-.4-.36-1.03.04-1.41.4-.38,1.03-.36,1.41.04l2.75,2.91c.38.4.36,1.03-.04,1.41-.19.18-.44.27-.69.27h0Z"/><path d="m370.68,433.6c-.27,0-.53-.11-.73-.31l-2.75-2.91c-.38-.4-.36-1.03.04-1.41s1.03-.36,1.41.04l2.75,2.91c.38.4.36,1.03-.04,1.41-.19.18-.44.27-.69.27h0Z"/></g><path d="m375.6,422.97c-.28,0-.56-.12-.76-.34,0,0-1.36-1.57-3.3-3.78-.36-.42-.32-1.05.09-1.41.42-.36,1.05-.32,1.41.09,1.94,2.21,3.3,3.78,3.3,3.78.36.42.32,1.05-.1,1.41-.19.16-.42.25-.66.25h0Zm-6.61-7.55c-.28,0-.55-.11-.75-.34-1.1-1.24-2.23-2.52-3.32-3.74-.37-.41-.33-1.04.08-1.41.41-.37,1.04-.33,1.41.08,1.09,1.22,2.23,2.51,3.33,3.75.37.41.33,1.05-.09,1.41-.19.17-.43.25-.66.25h0Zm-6.68-7.47c-.27,0-.54-.11-.74-.32-.76-.83-1.41-1.53-1.91-2.04-.41-.43-.93-.85-1.53-1.27-.45-.31-.57-.94-.25-1.39.31-.45.94-.57,1.39-.25.71.49,1.32,1,1.82,1.52.51.52,1.18,1.24,1.95,2.08.37.41.35,1.04-.06,1.41-.19.18-.43.26-.68.26h0Zm-31.16-2.79c-.32,0-.64-.16-.83-.45-.31-.46-.18-1.08.28-1.39,1.21-.81,2.48-1.52,3.76-2.12.5-.23,1.1-.02,1.33.48.23.5.02,1.1-.48,1.33-1.19.56-2.37,1.22-3.5,1.97-.17.11-.36.17-.55.17h0Zm23.1-2.92c-.11,0-.23-.02-.34-.06-1.48-.54-3.04-.94-4.64-1.18-.55-.08-.92-.59-.84-1.14.08-.55.59-.92,1.14-.84,1.73.26,3.43.69,5.03,1.28.52.19.79.76.6,1.28-.15.41-.53.66-.94.66h0Zm-14.76-.79c-.45,0-.86-.31-.97-.76-.13-.54.2-1.08.73-1.21,1.68-.41,3.41-.66,5.14-.74.55-.02,1.02.4,1.04.96s-.4,1.02-.96,1.04c-1.6.07-3.2.3-4.75.68-.08.02-.16.03-.24.03h0Z"/><path d="m272.16,453c-.27,0-.54-.11-.74-.33-.37-.41-.34-1.04.07-1.41l3.71-3.36c.41-.37,1.04-.34,1.41.07.37.41.34,1.04-.07,1.41l-3.71,3.36c-.19.17-.43.26-.67.26h0Zm7.41-6.71c-.27,0-.54-.11-.74-.33-.37-.41-.34-1.04.07-1.41l3.71-3.36c.41-.37,1.04-.34,1.41.07.37.41.34,1.04-.07,1.41l-3.71,3.36c-.19.17-.43.26-.67.26h0Zm7.41-6.71c-.27,0-.54-.11-.74-.33-.37-.41-.34-1.04.07-1.41l1.02-.93c.41-.37,1.04-.34,1.41.07.37.41.34,1.04-.07,1.41l-1.02.93c-.19.17-.43.26-.67.26h0Z"/><path d="m256.35,459.55c-.26,0-.53-.1-.73-.31-.38-.4-.36-1.03.04-1.41l3.63-3.44c.4-.38,1.03-.36,1.41.04.38.4.36,1.03-.04,1.41l-3.63,3.44c-.19.18-.44.27-.69.27h0Zm7.26-6.88c-.26,0-.53-.1-.73-.31-.38-.4-.36-1.03.04-1.41l3.63-3.44c.4-.38,1.03-.36,1.41.04.38.4.36,1.03-.04,1.41l-3.63,3.44c-.19.18-.44.27-.69.27h0Z"/><path class="uuid-73ac82b7-4b52-4b93-b621-04fff5d4c5c9" d="m357.23,425.79c-4.86-5.22-9.35-8.05-17.88-3.63"/><line class="uuid-73ac82b7-4b52-4b93-b621-04fff5d4c5c9" x1="373.7" y1="389.11" x2="389.02" y2="405.66"/></g><path d="m236.76,369.41l-24.81,36.89c-6.13-4.65-8.2-5.86-6.62-10.11-.38-.43,31.43-26.78,31.43-26.78h0Z"/></g><g><path class="uuid-c8acc748-5549-488d-9673-ee82474a7e79" d="m214.11,345.7c-8.05,5.83-25.34,20.79-35.52,29.67-1.67,1.45-2.82,3.41-3.39,5.55-1.27,4.72-2.91,11.08-4.41,16.99l31.84,7.91,1.71-6.39c.51-2.2,1.74-4.16,3.49-5.59l29.38-24.3"/><path class="uuid-c8acc748-5549-488d-9673-ee82474a7e79" d="m170.94,388.98c12.6-1.64,26.56,4.52,34.21,8.35,2.94,1.47,4.47,4.76,3.71,7.96l-1.81,7.63c-.4,1.66-1.64,3-3.27,3.51l-4.34,1.36,1.21-4.6s-15.34-11.14-31.83-8.58l-1,4.1-2.83-2.06c-1.59-1.16-2.33-3.17-1.86-5.09l1.78-7.25c.7-2.86,3.11-4.96,6.03-5.34h0Z"/></g></g></g></svg>
<svg id="uuid-450fdecb-733e-48b4-b0a4-0ab574031883" data-name="BODY" xmlns="http://www.w3.org/2000/svg" viewBox="0 0 600 600"><defs><style>
      .uuid-068101b7-7fbf-4e92-86bc-660a3f256797 {
        fill: #7aa6ff;
      }

      .uuid-068101b7-7fbf-4e92-86bc-660a3f256797, .uuid-8211c350-dcfc-4db5-8deb-9ae37e4bdaf2 {
        stroke: #000;
        stroke-linecap: round;
        stroke-linejoin: round;
        stroke-width: 2px;
      }

      .uuid-8211c350-dcfc-4db5-8deb-9ae37e4bdaf2 {
        fill: none;
      }
    </style></defs><g id="uuid-646dc1e2-07ae-409b-aec3-9c03ac390205" data-name="uuid-f5c00d25-8460-49cf-b64c-50f57d72c6be"><g id="uuid-9a962497-8755-4ac0-b66c-d171e128c02a" data-name="uuid-8849d8e3-d3e6-4da8-a11f-9a3bbb4f63ac"><g><g><g><path class="uuid-068101b7-7fbf-4e92-86bc-660a3f256797" d="m153.02,434.09c.3-1.14.97-3.55,1.49-5.37-.02,0-.04-.02-.05-.02-15.17-6.61-31.48-17.86-31.48-17.86,0,0-3.24,1.42-3.24,4.92-2.76,1.28-2.97,5.33-2.97,5.33l9.54,5.49s9.98,6.74,25.53,13.16c.37-1.92.89-4.49,1.19-5.65h0Z"/><path class="uuid-068101b7-7fbf-4e92-86bc-660a3f256797" d="m514.62,329.65s-3.89-.54-6.34-2.76c0,0-2.14,3.07-4.98,3.77,0,0,1.29,9.75-.66,19.77-3.39,17.48-12.68,31.31-50.54,41.73-14.33,3.94-51.82,10.82-51.82,10.82,0,0-8.89-35.45-54.32-25.85-32.4,6.84-52.82,33.98-52.82,33.98,0,0-14.34-.9-47.25,16.03-14.09,7.25-31.44,12.57-46.32,12.58-.12,0-.25,0-.37,0-1.3,1.04-2.85,2.57-3.8,4.57-.96,2.01-1.32,4.44-1.44,6.35,37.3,3.55,72.47-26.25,92.29-29.35,0,0-4.98,7.83-3.79,19.04,1.65,15.61,26.64,14.68,28.94-2.63,2.38-17.9-6.99-23.76-6.99-23.76,0,0,11.02-14.36,36.61-23.87,25.58-9.51,42.8-.63,48.16,15.74,0,0-21.58,6.61-34.88,21.92-11.73,13.51-12.16,44.54,26.56,25.23l-6.14-7.21s-13.39,5.75-16.17,1.2c-2.78-4.55,1.87-20.14,37.89-33.18l5.57,5.95s-.14-4.31-.34-7.55c0,0,11.46-3.02,25.48-5.85,14.02-2.83,58.58-10.77,73.28-30.19,4.81-6.35,7.92-13.54,9.93-20.33-.85-3.45-.09-6.28,2.03-8.45.35-1.84.62-3.6.83-5.25-4.47-6.74,1.39-12.45,1.39-12.45h0Zm-216.94,111.53c-5.8.81-6.44-9.03.43-18.88,6.13,4.04,5.36,18.07-.43,18.88Z"/></g><path class="uuid-068101b7-7fbf-4e92-86bc-660a3f256797" d="m286.23,421.29s2.05-3.32,6.89-10.18"/><path class="uuid-068101b7-7fbf-4e92-86bc-660a3f256797" d="m304.38,413.94c-2.9,3.17-6.27,8.36-6.27,8.36"/><path class="uuid-068101b7-7fbf-4e92-86bc-660a3f256797" d="m389.15,405.82s7.3-2.13,11.11-2.83"/><line class="uuid-8211c350-dcfc-4db5-8deb-9ae37e4bdaf2" x1="396.43" y1="413.77" x2="401.66" y2="412.17"/><path class="uuid-068101b7-7fbf-4e92-86bc-660a3f256797" d="m133.19,417.4c-4.76,5.04-3.95,11.03-3.95,11.03"/><line class="uuid-8211c350-dcfc-4db5-8deb-9ae37e4bdaf2" x1="119.73" y1="415.76" x2="130.09" y2="422.39"/><g><path class="uuid-068101b7-7fbf-4e92-86bc-660a3f256797" d="m500.03,311.03s-1.76-7.04-2.91-9.74l12.07-2.02s2.26,6.34,3.21,12.07c0,0-3.49,2.96-4.78,4.7,0,0-2.95-3.76-7.58-5.01h0Z"/><path class="uuid-068101b7-7fbf-4e92-86bc-660a3f256797" d="m479.68,263.35l35.88-6.83c1.06-.2,2.12.33,2.37,1.18l7.4,24.82c.71,2.39.59,4.78-.22,6.97-1.65,4.47-8.33,13.26-14.38,14.41l-4.86-3.8c-9.02,1.72-18.08-2.77-20.24-10.03l-11.57-20.23c1.24-1.63,4.15-5.46,4.42-5.81.26-.33.68-.59,1.2-.68h0Z"/><path class="uuid-068101b7-7fbf-4e92-86bc-660a3f256797" d="m475.35,269.02l35.88-6.83c1.06-.2,2.12.33,2.37,1.18l7.4,24.82c2.16,7.25-3.39,14.52-12.41,16.24l-7.06,1.34c-9.02,1.72-18.08-2.77-20.24-10.03l-7.4-24.82c-.25-.85.4-1.7,1.46-1.9Z"/><g><path class="uuid-068101b7-7fbf-4e92-86bc-660a3f256797" d="m486.66,266.05l-1.61.31-5.75-19.27c-.22-.74-.12-1.5.27-2.08l.52-.77c.14-.21.34-.33.55-.38.52-.11,1.13-.22,1.62-.31l4.39,22.5h0Z"/><path class="uuid-068101b7-7fbf-4e92-86bc-660a3f256797" d="m489,262.54l-2.35,3.51-5.75-19.27c-.22-.74-.12-1.5.27-2.08l.52-.77c.48-.71,1.64-.42,1.9.48l5.41,18.13h0Z"/><line class="uuid-8211c350-dcfc-4db5-8deb-9ae37e4bdaf2" x1="479.2" y1="246.52" x2="480.74" y2="246.23"/></g><g><path class="uuid-068101b7-7fbf-4e92-86bc-660a3f256797" d="m503.95,262.76l-1.61.31-5.75-19.27c-.22-.74-.12-1.5.27-2.08l.52-.77c.14-.21.34-.33.55-.38.52-.11,1.13-.22,1.62-.31l4.39,22.5h0Z"/><path class="uuid-068101b7-7fbf-4e92-86bc-660a3f256797" d="m506.3,259.25l-2.35,3.51-5.75-19.27c-.22-.74-.12-1.5.27-2.08l.52-.77c.48-.71,1.64-.42,1.9.48l5.41,18.13h0Z"/><line class="uuid-8211c350-dcfc-4db5-8deb-9ae37e4bdaf2" x1="496.49" y1="243.23" x2="498.04" y2="242.93"/></g><line class="uuid-8211c350-dcfc-4db5-8deb-9ae37e4bdaf2" x1="517.06" y1="256.72" x2="512.65" y2="262.36"/></g></g><circle class="uuid-068101b7-7fbf-4e92-86bc-660a3f256797" cx="499.11" cy="286.46" r="6.19"/></g></g></g></svg>
<svg id="uuid-2c12b907-b76f-4699-b403-115b318e8c0a" data-name="BODY" xmlns="http://www.w3.org/2000/svg" viewBox="0 0 600 600"><g id="uuid-fbaff554-f4e8-4966-8dd6-93a04a55e731" data-name="notes"><path id="uuid-c4bab009-7e62-47ea-a24c-6e0e8eb4e622" data-name="note" d="m530.94,167.64c-1.6-.76-3.52-.08-4.29,1.52,0,0-15.87,35.49-21.85,48.86-2.39-1.88-5.81-3.17-9.68-3.41-7.57-.46-13.95,3.29-14.26,8.37-.31,5.08,5.58,9.57,13.15,10.03,6.58.4,12.26-2.39,13.84-6.46.18-.2.35-.42.48-.67l24.14-53.95c.76-1.6.08-3.52-1.52-4.29Z"/><path id="uuid-3ea0a4af-a12f-4b4b-b4be-488363ed619c" data-name="note" d="m399.17,83.39l-13.93-22.62c-.9-1.53-2.87-2.05-4.4-1.16-.87.51-1.4,1.36-1.54,2.29-.84,3.27-9.74,38.06-13.21,51.58-2.67-1.45-6.26-2.15-10.12-1.72-7.54.83-13.2,5.6-12.64,10.66.56,5.06,7.12,8.49,14.65,7.66,6.56-.72,11.68-4.43,12.55-8.71.14-.23.27-.47.35-.75l12.83-50.06c4.07,6.61,9.77,15.86,9.85,15.99.32.55-5.45,4.09-5.45,4.09,0,0,8.87-2.36,9.85-2.93,1.51-.88,2.03-2.8,1.19-4.32Z"/><path id="uuid-c9c4d404-b4a7-4a04-9f34-9ae196a5cd99" data-name="note" d="m494.28,83.17s0-.03,0-.04c-.35-1.74-2.05-2.87-3.79-2.51,0,0-33.19,7.52-33.44,7.57-1.54.31-2.6,1.69-2.57,3.21-.92,5-7.13,38.67-9.59,51.99-2.76-1.27-6.4-1.71-10.21-1.03-7.46,1.34-12.78,6.49-11.88,11.5.9,5.01,7.68,7.98,15.14,6.64,6.49-1.17,11.35-5.21,11.92-9.54.13-.24.24-.49.3-.77l7.63-41.31,26.58-6.06c-2.15,11.64-4.71,25.53-6.09,33-2.76-1.27-6.4-1.71-10.21-1.03-7.46,1.34-12.78,6.49-11.88,11.5.9,5.01,7.68,7.98,15.14,6.64,6.49-1.17,11.36-5.21,11.92-9.54.13-.24.24-.49.3-.77l10.73-58.12c.09-.45.08-.9,0-1.32Zm-35.22,18.82l1.48-8.01,26.56-6c-.39,2.13-.89,4.85-1.46,7.95-4.21.96-19.81,4.53-26.58,6.07Z"/></g></svg>
<svg id="uuid-32df2771-6e0c-4fb0-a256-cee20347e81b" data-name="BODY" xmlns="http://www.w3.org/2000/svg" viewBox="0 0 600 600"><defs><style>
      .uuid-efeb3350-efa9-4cf7-a7a8-b084aca9d1ad {
        fill: #353434;
      }

      .uuid-efeb3350-efa9-4cf7-a7a8-b084aca9d1ad, .uuid-b1a9a703-fb16-4afa-bf90-8dc5e2aac02b {
        stroke: #000;
        stroke-linecap: round;
        stroke-linejoin: round;
        stroke-width: 2px;
      }

      .uuid-b1a9a703-fb16-4afa-bf90-8dc5e2aac02b {
        fill: none;
      }
    </style></defs><g id="uuid-b408f2c4-01d8-418a-8f58-ef7ebdcfee44" data-name="uuid-4a0f5770-94e2-475f-8f80-1d829fd1575f"><g id="uuid-ae0df641-c1a1-4339-a3ec-5f2bd01e9a36" data-name="uuid-0ea39616-cb16-4072-9c35-549ff496136e"><g id="uuid-af0fcd2d-5090-4273-b1f0-b9bdb9a91628" data-name="uuid-c5e91212-ec86-4a9c-b6fc-09a30aa7cd5a"><g><path class="uuid-efeb3350-efa9-4cf7-a7a8-b084aca9d1ad" d="m197.51,207.34l6.04-6.27s4.04,1.25,7.13-1.78c7.73,3.9,13.24-1.73,13.24-1.73,0,0,12.06,6.93,23.82-1.42,1.61,5.51,10.11,5.64,13.91,4.25.07,7.25,10.96,6.2,10.96,6.2,0,0-2.66,3.53,5.32,6.06,7.98,2.54,7.05,13.18,1.3,13.86-5.75.68-6.31-4.45-6.31-4.45,0,0-2.65,8.6,6.93,9.47,6.12.56,9.65-5.82,9.65-5.82,0,0,.56,3.96,8.6,4.45,8.04.49,11.75,3.34,11.14,5.69-.62,2.35-9.09,4.08-10.02,8.66-.93,4.58,7.61,8.66,7.61,8.66,0,0-4.15-4.83-2.23-7.24,1.92-2.41,16.77-7.42,11.32-14.91,6.25,4.52,14.04.87,15.84-4.64,4.02,3.71,12.99,1.73,13.55-4.15,8.35,3.9,13.49,9.65,3.34,16.27,6.99,1.24,12.25-6.19,10.89-12.19-1.36-6-6.37-7.92-6.37-7.92,0,0,8.29,1.98,8.91-5.32,4.58.49,7.61-3.77,7.61-3.77,0,0-2.66,8.04,2.72,13.3s13.49.06,13.49.06c0,0-6.5,1.11-9.47-2.66-2.97-3.77,2.29-11.38,3.96-14.29,9.4,2.78,14.04-6.25,13.55-11.82-.49-5.57-5.14-9.84-5.14-9.84,0,0,4.95-3.96-1.36-7.11,8.48,3.16,12.37-3.84,12.93-5.88-6.99,4.15-12.44,3.03-15.96-2.23-3.53-5.26-2.66-12.93-10.33-15.84-7.67-2.91-10.89.62-10.89.62,0,0-.43-10.08-8.72-13.05-8.29-2.97-16.33,2.1-16.33,2.1,0,0-4.08-7.86-14.72-4.08-3.28-9.03-26.36-11.82-35.7,2.47-4.27-6.5-15.1-3.53-16.52,1.05-6.74-4.45-16.89.19-21.53,6.74-5.44-3.71.25-7.55,4.95-12.56,4.7-5.01-1.92-10.89-1.92-10.89,0,0,3.46,4.76-2.29,9.78-5.75,5.01-15.96,10.95-10.08,17.57-6.19-3.34-20.23-.25-18.13,12.81-5.44,2.1-6.31,9.16-6.31,9.16,0,0-9.34-2.6-11.2,6.62-8.48-1.42-12.68,8.35-9.47,14.66-4.33,7.9,2.3,11.33,2.3,11.33h0Z"/><g><path class="uuid-b1a9a703-fb16-4afa-bf90-8dc5e2aac02b" d="m195.22,196.01c2.09-3.31,4.18-3.64,4.18-3.64"/><path class="uuid-b1a9a703-fb16-4afa-bf90-8dc5e2aac02b" d="m203.55,201.07c-2.11-.41-3.96-1.88-3.96-1.88"/><path class="uuid-b1a9a703-fb16-4afa-bf90-8dc5e2aac02b" d="m210.68,199.29s-2.83-1.61-5.14-5.1"/><path class="uuid-b1a9a703-fb16-4afa-bf90-8dc5e2aac02b" d="m223.92,197.55c-5.02-2.65-5.52-6.86-5.52-6.86"/><path class="uuid-b1a9a703-fb16-4afa-bf90-8dc5e2aac02b" d="m247.74,196.13c2.48-1.84,4.6-4.9,4.6-4.9"/><path class="uuid-b1a9a703-fb16-4afa-bf90-8dc5e2aac02b" d="m264.24,184.01s6.37-1.47,6.95,4.25"/><path class="uuid-b1a9a703-fb16-4afa-bf90-8dc5e2aac02b" d="m278.49,181.28s14.56-4.92,22.52,2.07c7.96,6.99-.65,15.99-.65,15.99"/><path class="uuid-b1a9a703-fb16-4afa-bf90-8dc5e2aac02b" d="m304.07,192.69c11.31-2.35,14.8,7.16,12.54,13.57"/><path class="uuid-b1a9a703-fb16-4afa-bf90-8dc5e2aac02b" d="m300.46,212.94s7.7-4.41,8.31,4.26"/><path class="uuid-b1a9a703-fb16-4afa-bf90-8dc5e2aac02b" d="m289.5,225.7c2.39-4.71.75-11.12-1.97-14.2"/><path class="uuid-b1a9a703-fb16-4afa-bf90-8dc5e2aac02b" d="m315.92,231.02c-2.14-2.21-5.26-3.39-5.26-3.39"/><path class="uuid-b1a9a703-fb16-4afa-bf90-8dc5e2aac02b" d="m345.31,222.24c.12-3.53-2.25-6.17-2.25-6.17"/><path class="uuid-b1a9a703-fb16-4afa-bf90-8dc5e2aac02b" d="m332.67,215.69c.13.13,4.44,3.57,10.4.1,3.17-1.85,2.96-5.48,2.96-5.48"/><path class="uuid-b1a9a703-fb16-4afa-bf90-8dc5e2aac02b" d="m317.61,175.38c-.54,1.17-.33,2.59.3,3.72s1.64,1.99,2.72,2.7c3.17,2.07,6.96,2.88,10.57,4.01s7.31,2.73,9.5,5.81c2.42,3.4,2.44,8.33.04,11.75-1.26,1.8-3.06,3.13-4.9,4.35-2.07,1.37-4.26,2.63-6.67,3.26,3.07-1.73,5.19-5.03,5.5-8.54.31-3.51-1.2-7.13-3.92-9.38"/><path class="uuid-b1a9a703-fb16-4afa-bf90-8dc5e2aac02b" d="m369.43,209.62c1.95-1.75,2.9-4.44,2.89-7.06s-.91-5.18-2.18-7.47c-.59-1.07-1.27-2.1-2.16-2.94-1.98-1.87-4.77-2.6-7.46-2.96"/><path class="uuid-b1a9a703-fb16-4afa-bf90-8dc5e2aac02b" d="m380.08,205.86c.84-1.23,1.59-2.56,1.89-4.02.31-1.46.12-3.07-.77-4.27"/><path class="uuid-b1a9a703-fb16-4afa-bf90-8dc5e2aac02b" d="m372.49,184.57c.81-2.65.65-5.65-.77-8.03s-4.16-4-6.92-3.76c0-1.72-.34-3.46-1.12-5-.78-1.54-2.02-2.86-3.57-3.61-2-.96-4.32-.91-6.53-.84"/><path class="uuid-b1a9a703-fb16-4afa-bf90-8dc5e2aac02b" d="m353.51,185.41c.22-1.97-.66-4.02-2.23-5.22s-3.78-1.51-5.63-.78c-.51-2.43-1.13-4.85-2.15-7.12s-2.46-4.38-4.42-5.91c-2.11-1.65-4.76-2.56-7.43-2.66-1.78-.07-3.58.21-5.25.82-2.7.99-5.02,2.78-7.29,4.56"/><path class="uuid-b1a9a703-fb16-4afa-bf90-8dc5e2aac02b" d="m323.16,153.24c-2.04-2.87-5.86-4.34-9.3-3.59-3.44.75-6.3,3.68-6.97,7.13-1.93-1.38-3.92-2.79-6.21-3.42-2.38-.66-4.97-.42-7.25.52s-4.25,2.56-5.74,4.53"/><path class="uuid-b1a9a703-fb16-4afa-bf90-8dc5e2aac02b" d="m228.2,181.59c-.3-1.59.31-3.25,1.37-4.47s2.52-2.02,4.04-2.57c4.77-1.72,10.36-.96,14.49,1.98-.04-2.59.93-5.19,2.66-7.12s4.2-3.18,6.78-3.42c1.97-.19,3.95.19,5.93.29,3.13.15,6.42-.47,8.88-2.41,2.46-1.94,3.86-5.4,2.79-8.35,3.35,3.09,4.23,8.53,2.03,12.52-2.2,3.99-7.27,6.15-11.67,4.96"/><path class="uuid-b1a9a703-fb16-4afa-bf90-8dc5e2aac02b" d="m249.72,148.8c-2.27,2.69-3.91,5.92-4.74,9.35"/><path class="uuid-b1a9a703-fb16-4afa-bf90-8dc5e2aac02b" d="m222.21,165.49c3.49-1.21,7.58-.46,10.42,1.9"/><path class="uuid-b1a9a703-fb16-4afa-bf90-8dc5e2aac02b" d="m271.15,142.08c2.69,1.83,5,4.2,6.75,6.94"/><path class="uuid-b1a9a703-fb16-4afa-bf90-8dc5e2aac02b" d="m323.55,138.58c-2.54,1.05-4.92,2.48-7.03,4.24"/><path class="uuid-b1a9a703-fb16-4afa-bf90-8dc5e2aac02b" d="m338.1,142.44c1.03,1.81,1.82,3.76,2.33,5.78,1.99-.95,4.39-1.03,6.43-.2,2.05.83,3.72,2.55,4.49,4.62"/><path class="uuid-b1a9a703-fb16-4afa-bf90-8dc5e2aac02b" d="m363.07,153.43c-.02,1.62-.16,3.24-.43,4.84"/><path class="uuid-b1a9a703-fb16-4afa-bf90-8dc5e2aac02b" d="m387.44,176.95c-3.18-.91-6.31-3.97-8.41-6.53s-3.07-4.33-4.48-7.32"/></g></g></g></g></g></svg>
</svg>