<?xml version="1.0" encoding="UTF-8"?>
<svg xmlns="http://www.w3.org/2000/svg" viewBox="0 0 600 600">
<svg id="uuid-d9dcaeb1-b3e9-4103-a9e9-674eb3b1cf0f" data-name="BACKGROUND" xmlns="http://www.w3.org/2000/svg" viewBox="0 0 600 600"><defs><style>
      .uuid-ddba642b-737c-447a-8d97-1fa19eb8e4a8 {
        fill: #ff78d8;
      }
    </style></defs><rect class="uuid-ddba642b-737c-447a-8d97-1fa19eb8e4a8" x="-1" y="-1" width="602" height="602"/></svg>
<svg id="uuid-79ae8300-360b-4786-a450-139d88b9bd1b" data-name="BACKGROUND" xmlns="http://www.w3.org/2000/svg" viewBox="0 0 600 600"><defs><style>
      .uuid-bb790ef4-3482-4c16-9212-ca22a42e94c3, .uuid-ce21024d-8548-4b65-8289-134ddf374839 {
        fill: #fff;
      }

      .uuid-30451256-22b5-42b4-8d7c-d574d31a414e, .uuid-ce21024d-8548-4b65-8289-134ddf374839, .uuid-ec441505-d704-4a03-88d5-730631e1d0ab, .uuid-4dc48eb6-7162-43bb-b26b-b457b7eed207, .uuid-69c06034-4b4b-451d-b5db-874d58b2df8d, .uuid-488e563d-fac1-4f7c-b70d-f33aa7f157d6, .uuid-2c7f611f-0762-4166-ba69-0c8fa63a7c69 {
        stroke: #000;
        stroke-width: 2px;
      }

      .uuid-30451256-22b5-42b4-8d7c-d574d31a414e, .uuid-ce21024d-8548-4b65-8289-134ddf374839, .uuid-4dc48eb6-7162-43bb-b26b-b457b7eed207, .uuid-69c06034-4b4b-451d-b5db-874d58b2df8d, .uuid-488e563d-fac1-4f7c-b70d-f33aa7f157d6 {
        stroke-linecap: round;
      }

      .uuid-30451256-22b5-42b4-8d7c-d574d31a414e, .uuid-ec441505-d704-4a03-88d5-730631e1d0ab, .uuid-69c06034-4b4b-451d-b5db-874d58b2df8d, .uuid-2c7f611f-0762-4166-ba69-0c8fa63a7c69 {
        fill: #3ef1ff;
      }

      .uuid-30451256-22b5-42b4-8d7c-d574d31a414e, .uuid-4dc48eb6-7162-43bb-b26b-b457b7eed207, .uuid-2c7f611f-0762-4166-ba69-0c8fa63a7c69 {
        stroke-linejoin: round;
      }

      .uuid-ce21024d-8548-4b65-8289-134ddf374839, .uuid-ec441505-d704-4a03-88d5-730631e1d0ab, .uuid-69c06034-4b4b-451d-b5db-874d58b2df8d, .uuid-488e563d-fac1-4f7c-b70d-f33aa7f157d6 {
        stroke-miterlimit: 10;
      }

      .uuid-4dc48eb6-7162-43bb-b26b-b457b7eed207 {
        fill: none;
      }

      .uuid-488e563d-fac1-4f7c-b70d-f33aa7f157d6 {
        fill: #f9a723;
      }
    </style></defs><path class="uuid-30451256-22b5-42b4-8d7c-d574d31a414e" d="m409.81,359.6c9.2,3.77,29.89,12.05,42.79,16.03,2.11.65,4.41.69,6.5-.04,11.79-4.08,28.47-11.39,33.03-11.32,5.25.08,7.8,3.93,19.88,2.04,13.36-2.1,22.43-11.99,20.93-23.3-4.21-43.28-25.18-26.79-25.18-26.79,0,0-5.84-8.75-18.76-4.82-11.83,3.6-10.2,14.44-6.47,22.47l-25.29,8.58c-2.14.72-4.45.71-6.59-.02l-35.7-12.61"/><path class="uuid-69c06034-4b4b-451d-b5db-874d58b2df8d" d="m533.36,312.82c2.5,3.94,1.62,9.14-1.57,12.4-2.47,2.53-5.88,3.88-9.32,4.4-2.8.43-5.7.42-8.49-.08-2.14-.39-4.29-1.1-5.79-2.75-1.66-1.83-2.27-4.46-1.98-6.87.51-4.17,3.84-7.14,7.22-9.26,3.17-1.98,6.86-3.26,10.64-3.09,3.8.18,7.36,2.19,9.3,5.24Z"/><path class="uuid-69c06034-4b4b-451d-b5db-874d58b2df8d" d="m538.57,349.84c.97,3.03.32,6.43-1.5,9.01-3.77,5.33-11.17,5.65-16.96,4.27-3.31-.79-6.69-2.21-8.67-5.13-3.13-4.61-.82-9.79,3.48-12.56,2.58-1.66,5.61-2.67,8.63-3.14,5.73-.89,13.1,1.51,15.03,7.56Z"/><path class="uuid-69c06034-4b4b-451d-b5db-874d58b2df8d" d="m538.71,328.53c1.8,2.99,2.06,6.89.22,9.9-1.95,3.2-4.94,5.25-8.49,6.28-3.66,1.07-7.64,1.27-11.4.44-2.25-.5-4.53-1.38-5.96-3.28-1.86-2.47-1.89-5.68-.85-8.49,1.2-3.24,4.17-5.69,7.09-7.37,6.15-3.56,15.21-4.43,19.39,2.52Z"/><path class="uuid-69c06034-4b4b-451d-b5db-874d58b2df8d" d="m501.85,311.68s9.27,3.84,7.77,12.02c-1.04,5.68-8.17,9.55-14.94,6.13"/><path class="uuid-4dc48eb6-7162-43bb-b26b-b457b7eed207" d="m500.67,331.08c2.41,1.63,5.11,8.04,3.4,14.42"/><path d="m443.44,339.88c-2.88,10.58-6.94,20.23-11.17,28.59-10.17-3.78-21.16-9.53-27-11.93l11.83-26.02,26.35,9.36Z"/><ellipse cx="300" cy="518.65" rx="138.6" ry="22.93"/><path class="uuid-ec441505-d704-4a03-88d5-730631e1d0ab" d="m319.36,427.14c-1.16,1.05-54.95,57-54.95,57,0,0,21.51-1.95,31.74,10.62,10.23,12.57,7.26,23.89,7.26,23.89h-66.9s-28.69-36.17-28.69-36.17c0,0,3.74-13.4,20.44-10.59,20.9-19.38,55.52-59.13,55.52-59.13l35.59,14.38Z"/><path d="m283.78,412.76l31.28,12.64-3.24,9.5c-2.93,3.03-9.76,10.12-13.64,14.14-11.92,0-27.98-2.13-41.33-6.37,13.95-15.1,26.93-29.92,26.93-29.92Z"/><path class="uuid-ec441505-d704-4a03-88d5-730631e1d0ab" d="m354.45,173.54l-.11.27-174.2,58.29c-11.49,20.13-18.05,43.43-18.05,68.27,0,76.2,61.77,137.98,137.97,137.98s137.98-61.77,137.98-137.98c0-56.89-34.43-105.72-83.58-126.83Z"/><path class="uuid-4dc48eb6-7162-43bb-b26b-b457b7eed207" d="m264.41,484.14c-4.06.49-11.49,1.36-17.85,7.23"/><path class="uuid-bb790ef4-3482-4c16-9212-ca22a42e94c3" d="m185.17,308.14c-4.41,0-7.98-3.57-7.98-7.98,0-67.74,55.11-122.86,122.86-122.86,4.41,0,7.98,3.57,7.98,7.98s-3.57,7.98-7.98,7.98c-58.94,0-106.9,47.95-106.9,106.9,0,4.41-3.57,7.98-7.98,7.98Z"/><path d="m203.75,397.46l34.2-27.46-24.86,36.3c-6.73-5.1-3.66-2.61-9.34-8.83Z"/><path class="uuid-2c7f611f-0762-4166-ba69-0c8fa63a7c69" d="m323.72,387.31c19.14-13.4,39.15-11.3,55.52,7.36,19.6,22.35,30.57,33.06,30.57,33.06,0,0,10.74-19.34,34.77-17.5,18.26,1.4,24.84,14.43,24.84,14.43,0,0,6.21,8.82-22.45,33.5-28.66,24.68-54.93,40.92-61.14,29.46-6.21-11.46-2.82-32.1-2.82-32.1,0,0-22.02-26.09-27.94-32.01-6.79-6.79-15.71-1.36-15.71-1.36"/><path class="uuid-ec441505-d704-4a03-88d5-730631e1d0ab" d="m446.97,458.17c-25.89,22.29-49.82,37.69-58.79,32.02-9.77-7.44,26.84-38.54,44.88-52.7,18.04-14.16,32.17-17.82,36.36-12.81,0,0,6.21,8.82-22.45,33.5Z"/><path class="uuid-4dc48eb6-7162-43bb-b26b-b457b7eed207" d="m409.81,427.74c-1.89,2.86-4.55,10.38-4.55,10.38"/><ellipse class="uuid-ce21024d-8548-4b65-8289-134ddf374839" cx="269.41" cy="209.07" rx="94.9" ry="26.25" transform="translate(-52.5 96.54) rotate(-18.55)"/><ellipse class="uuid-488e563d-fac1-4f7c-b70d-f33aa7f157d6" cx="269.41" cy="209.07" rx="71.19" ry="13.32" transform="translate(-52.5 96.54) rotate(-18.55)"/><g><path class="uuid-30451256-22b5-42b4-8d7c-d574d31a414e" d="m214.11,345.7c-8.05,5.83-25.34,20.79-35.52,29.67-1.67,1.45-2.82,3.41-3.39,5.55-3.14,11.67-8.55,33.44-8.55,33.44,0,0-8.42.58-12.19,14.35-3.64,13.3-6.64,25.06,3.77,29.75.35,7.47,7.51,15.45,19.2,9.41.14-.06,1.32,1.32,1.44,1.45,2.64,2.7,6.36,4.45,10.13,4.81,3.65.36,7.61-.67,10.43-3.08,3.29-2.81,5.4-6.94,6.05-11.2.4-2.61.26-5.31-.75-7.78,0,0,6.2-2.51,8.05-11.34,1.99-9.49-4.22-19.42-14.62-18.18l6.17-23.11c.51-2.2,1.74-4.16,3.49-5.59l29.38-24.3"/><path class="uuid-4dc48eb6-7162-43bb-b26b-b457b7eed207" d="m204.73,452.06c-1.37-3.47-5.39-7.08-9-6.88"/><path class="uuid-4dc48eb6-7162-43bb-b26b-b457b7eed207" d="m178.86,469.3c-5.16-5.27-3.82-11.97-2.9-13.54"/><path class="uuid-4dc48eb6-7162-43bb-b26b-b457b7eed207" d="m158.22,458.45c-.27-5.22.73-7.32,3.06-9.83"/><path class="uuid-4dc48eb6-7162-43bb-b26b-b457b7eed207" d="m193.93,450.63c.14-2.07.48-4.16,1.32-6.06.85-1.95,2.36-3.88,4.31-4.85"/></g></svg>
<svg id="uuid-853b1779-0b40-4336-9fd3-56860412922a" data-name="BODY" xmlns="http://www.w3.org/2000/svg" viewBox="0 0 600 600"><defs><style>
      .uuid-270fe1d8-6ffc-45cd-908c-63708945a6da {
        fill: none;
        stroke: #000;
        stroke-linecap: round;
        stroke-miterlimit: 10;
        stroke-width: 4px;
      }
    </style></defs><path class="uuid-270fe1d8-6ffc-45cd-908c-63708945a6da" d="m378.79,259.75c-1.76-5.11-7.33-7.82-12.44-6.06s-7.82,7.33-6.06,12.44"/><circle cx="362.12" cy="293.18" r="9.78" transform="translate(-9.59 12.26) rotate(-1.91)"/><path class="uuid-270fe1d8-6ffc-45cd-908c-63708945a6da" d="m346.88,270.76c-1.76-5.11-7.33-7.82-12.44-6.06-5.11,1.76-7.82,7.33-6.06,12.44"/></svg>
<svg id="uuid-48efa21b-da1b-48ad-ab10-757c6777e8ef" data-name="BODY" xmlns="http://www.w3.org/2000/svg" viewBox="0 0 600 600"><defs><style>
      .uuid-53318c0c-3185-4fc0-b44c-db50501b4f8c {
        fill: #353434;
      }

      .uuid-53318c0c-3185-4fc0-b44c-db50501b4f8c, .uuid-af5c2333-9a04-42a4-b63f-5e80c7076528 {
        stroke: #000;
        stroke-linecap: round;
        stroke-linejoin: round;
        stroke-width: 2px;
      }

      .uuid-af5c2333-9a04-42a4-b63f-5e80c7076528 {
        fill: none;
      }
    </style></defs><g id="uuid-a23e8dd5-6c2c-4ede-a31c-dd7f3bcbc81d" data-name="uuid-30adedbd-0f6a-4ac3-8c27-dd5f684aaeb2"><g id="uuid-f568b372-0f34-440f-b75f-61e9f492b6fc" data-name="uuid-71f2d591-11c5-485d-aa3d-ec098306b10e"><g id="uuid-93dfd512-6b6b-4507-9c48-5a4c5c4594db" data-name="uuid-7d0b675e-dad4-483d-8c78-f8eeafc30cf0"><g><path class="uuid-53318c0c-3185-4fc0-b44c-db50501b4f8c" d="m366.81,441.74l13.69,14.71s-3.55,18.09,3.13,29.5c0,0,11.14-19.1,33.82-39.23,22.69-20.13,35.95-26.59,49.92-28.7,0,0-11.16-13.78-31.73-11.1-15.93,2.07-25.36,13.77-25.36,13.77l-9.14-9.95s-8.87-.73-20.67,10.86c-11.8,11.59-13.66,20.15-13.66,20.15Z"/><g><path class="uuid-af5c2333-9a04-42a4-b63f-5e80c7076528" d="m410.28,420.68c-4.81,5.68-7.77,15.82-7.77,22.65"/><line class="uuid-af5c2333-9a04-42a4-b63f-5e80c7076528" x1="402.98" y1="438.12" x2="384.42" y2="418.05"/><path class="uuid-af5c2333-9a04-42a4-b63f-5e80c7076528" d="m380.5,456.44c13.49-5.15,21.72,5.29,21.72,5.29"/><path class="uuid-af5c2333-9a04-42a4-b63f-5e80c7076528" d="m441.3,406.56c-10.56,5.07-15.89,19.93-9.79,28.48"/></g><path class="uuid-53318c0c-3185-4fc0-b44c-db50501b4f8c" d="m467.37,414.89s-18.89-1.47-51.52,29.37c-32.63,30.84-34.96,41.03-34.88,41.68s7.89,10.49,9.27,11.71c1.38,1.22,8.79-1.06,8.79-1.06,0,0,.29-2.62,1.64-3.29,2.55-1.27,5.1,1.1,5.1,1.1,0,0,5.1-1.68,7.65-3.88-1.56-1.62.98-5.73,4.58-3.13,3.42-2.09,5.33-4.17,5.33-4.17l-4.13-3.53s26.72-12.4,31.82-15.18l-2.55-1.91s.29-4.63,5.68-4.46l2.72,1.97s3.65-3.07,6.2-6.14l-2.03-1.74s-.58-4.46,4.17-4.29l2.17,1.27s2.81-3.75,4.78-7.52l-2.17-1.69s-.44-5.21,4.89-3.42c0,0,3.56-7.12,2.12-10.48s-7.52-11.3-9.62-11.22h0Z"/><g><path class="uuid-af5c2333-9a04-42a4-b63f-5e80c7076528" d="m419.2,479.69l-16.68-13.48,27.05-17.71s-3.43-3.03,0-5.41c3.13-2.17,5.83.96,5.83.96l8.25-5.36s-4.15-3.09-1.01-4.86c2.55-1.44,6.58,1.62,6.58,1.62,0,0,5.46-3.59,7.64-4.55,0,0-3.59-3.44.25-4.91,2.89-1.1,5.87,1.77,5.87,1.77,0,0,5.31-2.99,9.16-2.58,3.85.4,5.58,2.5,5.03,4.77"/><line class="uuid-af5c2333-9a04-42a4-b63f-5e80c7076528" x1="429.57" y1="448.51" x2="448.46" y2="462.6"/><line class="uuid-af5c2333-9a04-42a4-b63f-5e80c7076528" x1="435.39" y1="444.06" x2="454.14" y2="458.14"/><line class="uuid-af5c2333-9a04-42a4-b63f-5e80c7076528" x1="443.64" y1="438.69" x2="461.03" y2="452.23"/><line class="uuid-af5c2333-9a04-42a4-b63f-5e80c7076528" x1="449.21" y1="435.46" x2="465.2" y2="447.95"/><line class="uuid-af5c2333-9a04-42a4-b63f-5e80c7076528" x1="456.85" y1="430.9" x2="469.99" y2="440.01"/><line class="uuid-af5c2333-9a04-42a4-b63f-5e80c7076528" x1="462.97" y1="427.76" x2="474.88" y2="436.59"/><path class="uuid-af5c2333-9a04-42a4-b63f-5e80c7076528" d="m447.97,462.23c-5.19,2.81-31.71,15.09-31.71,15.09"/><path class="uuid-af5c2333-9a04-42a4-b63f-5e80c7076528" d="m432.58,450.76s-18.96,12.82-27.55,17.49"/><path class="uuid-af5c2333-9a04-42a4-b63f-5e80c7076528" d="m406.41,469.37s-3.67,3.73-4.49,5.1c0,0-2.9-2.71-5.06-.27-2.04,2.3.13,4.65,1.34,5.5,0,0-2.61,3.68-3.69,5.74,0,0-3.14-3.05-4.61,0-.66,1.37-.34,3.54,1.47,4.76,0,0-1.57,8.03.54,7.82"/><line class="uuid-af5c2333-9a04-42a4-b63f-5e80c7076528" x1="401.92" y1="474.46" x2="417.99" y2="487.39"/><line class="uuid-af5c2333-9a04-42a4-b63f-5e80c7076528" x1="413.42" y1="490.52" x2="398.19" y2="479.69"/><line class="uuid-af5c2333-9a04-42a4-b63f-5e80c7076528" x1="394.5" y1="485.43" x2="405.77" y2="494.4"/><line class="uuid-af5c2333-9a04-42a4-b63f-5e80c7076528" x1="391.36" y1="490.19" x2="399.03" y2="496.59"/></g><g><path class="uuid-53318c0c-3185-4fc0-b44c-db50501b4f8c" d="m226.55,468.47l16.86-19.42s2.99-.9,6.5,1.06l-2.62,2.76s3.26,6.32,10.81,12.65c7.55,6.33,14.76,9.84,14.76,9.84l3.6-3.75s2.37,5.96,2.31,6.55-4.35,2.98-4.35,2.98c0,0,13.06.74,21.81,9.35,8.9,8.75,9.03,21.38,9.03,21.38,0,0-63.87,1.76-66.89,1.56s-30.15-36.89-30.15-36.89c0,0,5.39-9.16,18.32-8.1Z"/><g><path class="uuid-af5c2333-9a04-42a4-b63f-5e80c7076528" d="m274.42,481.15c-9.61-1.12-21.84,1.23-29.03,7.31"/><line class="uuid-af5c2333-9a04-42a4-b63f-5e80c7076528" x1="252.64" y1="484.14" x2="265.82" y2="471.24"/><path class="uuid-af5c2333-9a04-42a4-b63f-5e80c7076528" d="m220.98,493.39c10.86-8.6,5.57-24.93,5.57-24.93"/><path class="uuid-af5c2333-9a04-42a4-b63f-5e80c7076528" d="m293.43,488.1c-17.87-1.3-22.02,11.44-22.09,24.68"/></g><path class="uuid-53318c0c-3185-4fc0-b44c-db50501b4f8c" d="m305.49,509.34l-62.55,1.43c-2.5.06-4.89-1.05-6.46-3l-26.43-32.8c-.94-1.17-2.72-1.19-3.69-.05l-6.59,7.74c-.73.86-.77,2.12-.08,3.02l3.44,4.48,6.83.43-3.73,3.66,5.2,6.76,6.07.02,9.4,14.47c3.5,5.38,9.43,8.68,15.85,8.81l17.81.36s0-3.59,4.22-3.59,4.01,3.94,4.01,3.94h6.92s.44-4.12,4.68-4.12,3.48,4.12,3.48,4.12h7.95s-.11-3.9,4.14-3.9,3.65,3.9,3.65,3.9h6.78c1.57,0,2.81-1.34,2.68-2.9l-.82-10.3c-.11-1.42-1.32-2.51-2.74-2.48h0Z"/><path class="uuid-af5c2333-9a04-42a4-b63f-5e80c7076528" d="m217.49,501.03c-1.41-2.31-2.24-4.46-6.07-.02"/><path class="uuid-af5c2333-9a04-42a4-b63f-5e80c7076528" d="m209.96,490.59c.62-.58-1.71-4.07-3.15-3.24-1.44.83-3.67,2.8-3.67,2.8"/></g></g></g></g></g></svg>
<svg id="uuid-1814dd4d-896f-43a9-8cc5-9df7690e94a2" data-name="BACKGROUND" xmlns="http://www.w3.org/2000/svg" viewBox="0 0 600 600"><defs><style>
      .uuid-3be35196-23eb-415c-bbdf-01577589215b {
        fill: #ffff0d;
        stroke: #000;
        stroke-linecap: round;
        stroke-linejoin: round;
        stroke-width: 2px;
      }
    </style></defs><path class="uuid-3be35196-23eb-415c-bbdf-01577589215b" d="m375.86,319.37c-14.26,7.96-19.36,25.98-11.4,40.24,7.96,14.26,25.98,19.36,40.24,11.4,14.26-7.96,19.36-25.98,11.4-40.24-7.96-14.26-25.98-19.36-40.24-11.4Zm-.03,6.32l10.52,18.84-6.41,22.61c-4.44-2.08-8.29-5.52-10.86-10.12-6.02-10.78-2.93-24.18,6.75-31.33Zm9.99,43.35l4.79-16.89,8.69,15.57c-4.39,1.76-9.06,2.15-13.48,1.32Zm18.87-4.32l-8.9-15.94,17.51,4.1c-1.55,4.62-4.47,8.8-8.6,11.84Zm9.8-17.89l-22.77-5.34-10.5-18.81c11.18-4.52,24.23-.12,30.26,10.68,2.38,4.26,3.33,8.94,3.02,13.47Z"/><circle class="uuid-3be35196-23eb-415c-bbdf-01577589215b" cx="420.18" cy="318.72" r="8.31"/><circle class="uuid-3be35196-23eb-415c-bbdf-01577589215b" cx="436.89" cy="310.38" r="8.31"/><circle class="uuid-3be35196-23eb-415c-bbdf-01577589215b" cx="350.39" cy="343.04" r="8.31"/><circle class="uuid-3be35196-23eb-415c-bbdf-01577589215b" cx="332" cy="346.35" r="8.31"/><circle class="uuid-3be35196-23eb-415c-bbdf-01577589215b" cx="313.56" cy="349.17" r="8.31"/><circle class="uuid-3be35196-23eb-415c-bbdf-01577589215b" cx="295.1" cy="351.34" r="8.31"/><circle class="uuid-3be35196-23eb-415c-bbdf-01577589215b" cx="276.49" cy="352.43" r="8.31"/><circle class="uuid-3be35196-23eb-415c-bbdf-01577589215b" cx="257.85" cy="352.14" r="8.31"/><circle class="uuid-3be35196-23eb-415c-bbdf-01577589215b" cx="239.26" cy="352.14" r="8.31"/><circle class="uuid-3be35196-23eb-415c-bbdf-01577589215b" cx="220.83" cy="349.72" r="8.31"/><circle class="uuid-3be35196-23eb-415c-bbdf-01577589215b" cx="202.35" cy="347.91" r="8.31"/><circle class="uuid-3be35196-23eb-415c-bbdf-01577589215b" cx="184.1" cy="344.29" r="8.31"/><circle class="uuid-3be35196-23eb-415c-bbdf-01577589215b" cx="165.96" cy="340.27" r="8.31"/></svg>
<svg id="uuid-39dff219-9e19-48c2-9e34-cadd47e3fa29" data-name="BODY" xmlns="http://www.w3.org/2000/svg" viewBox="0 0 600 600"><defs><style>
      .uuid-8ea0a070-6485-4467-a882-6a678192df94 {
        fill: #7aa6ff;
      }

      .uuid-8ea0a070-6485-4467-a882-6a678192df94, .uuid-2d9e3db4-341e-407d-8af0-075f449215a0, .uuid-cd755845-3013-4a0d-82f9-783fcd3dda15 {
        stroke: #000;
        stroke-linecap: round;
        stroke-linejoin: round;
        stroke-width: 2px;
      }

      .uuid-2d9e3db4-341e-407d-8af0-075f449215a0 {
        fill: #fff7f0;
      }

      .uuid-cd755845-3013-4a0d-82f9-783fcd3dda15 {
        fill: none;
      }
    </style></defs><g id="uuid-0bddc305-27d8-4ea5-862d-046e5ab4ffae" data-name="uuid-e2fbca77-8e7a-49a9-ad56-906492ae40c9"><g id="uuid-a4e09157-4eb3-4d2b-b6da-ed8f9f5e45a4" data-name="uuid-e52b1ae6-7e41-417a-a53a-e6c5d75aeb92"><g><path class="uuid-8ea0a070-6485-4467-a882-6a678192df94" d="m171.75,394.13s-4.65.45-5.76.95c-1.11.51-3.78,11.83-3.93,12.49s6.85,9.32,36.81,12.35c5.87.59,6.42-.22,6.86-2.04.44-1.82,2.36-8.9,2.53-9.64s-4.96-4.93-4.96-4.93l-1.19,4.44s-10.85-.49-19.61-3.38c-8.76-2.9-12.13-4.84-12.13-4.84l1.38-5.4Z"/><line class="uuid-cd755845-3013-4a0d-82f9-783fcd3dda15" x1="193.91" y1="411.28" x2="192.95" y2="415.08"/><line class="uuid-cd755845-3013-4a0d-82f9-783fcd3dda15" x1="200.36" y1="412.14" x2="199.39" y2="415.94"/><circle class="uuid-2d9e3db4-341e-407d-8af0-075f449215a0" cx="178.56" cy="408.85" r="12.13"/><circle class="uuid-8ea0a070-6485-4467-a882-6a678192df94" cx="178.56" cy="408.85" r="6.23"/></g></g></g></svg>
<svg id="uuid-812f6975-679d-4f88-a4ed-851daa0a87ab" data-name="BODY" xmlns="http://www.w3.org/2000/svg" viewBox="0 0 600 600"><defs><style>
      .uuid-c2b81f84-54b4-4471-8442-6dab97f9dbdb {
        fill: #7aa6ff;
      }

      .uuid-c2b81f84-54b4-4471-8442-6dab97f9dbdb, .uuid-8f93f715-e731-4f67-a3d6-2e442b938451, .uuid-52fe3725-26e2-42a9-8a9b-607d6ab8d4a1 {
        stroke: #000;
        stroke-linecap: round;
        stroke-linejoin: round;
        stroke-width: 2px;
      }

      .uuid-d52b56ba-8ce0-4864-b827-dcc6275d2116 {
        fill: #ffc9f1;
      }

      .uuid-8f93f715-e731-4f67-a3d6-2e442b938451 {
        fill: #ff78d8;
      }

      .uuid-52fe3725-26e2-42a9-8a9b-607d6ab8d4a1 {
        fill: none;
      }
    </style></defs><g id="uuid-2a31ff83-8394-4ae1-83e2-55ef45d928c7" data-name="uuid-831834e0-bbb8-426a-8cd6-ab5c8fbbbe1c"><g id="uuid-5a353068-881e-4ba2-860e-e9d7a7bbebc2" data-name="uuid-1fcb06a8-7212-4847-8b3f-ceda00c046b1"><g id="uuid-111bd790-e24a-47d4-950c-c3799bd40fa4" data-name="uuid-e9ed0fb3-5d7b-4b33-9f9b-ca7aaa2c4c4e"><circle class="uuid-8f93f715-e731-4f67-a3d6-2e442b938451" cx="489.69" cy="199.93" r="51.03" transform="translate(2.06 404.82) rotate(-45)"/><path class="uuid-8f93f715-e731-4f67-a3d6-2e442b938451" d="m543.98,181.68c-2.32-4.46-15.68-16.27-58.27-10.33-42.59,5.94-52.2,20.97-53.22,25.89-.85,4.1.27,25.66,12.14,26.71-2.48-5.6-3.39-10.66-3.39-10.66,0,0-1.04-13.08,47.55-19.86,48.44-6.76,51.17,6.09,51.17,6.09,0,0,.51,5.11-.34,11.18,11.13-4.26,6.3-25.29,4.37-29.01h0Z"/><g><path class="uuid-d52b56ba-8ce0-4864-b827-dcc6275d2116" d="m492.25,237.5c1.32-.8-2.83-7.79-4.88-20.65-2.05-12.86-1.21-17.43-3.79-17.45-2.58-.03-1.75,8.24.05,18.36,1.8,10.12,6.42,21.08,8.62,19.74h0Z"/><path class="uuid-d52b56ba-8ce0-4864-b827-dcc6275d2116" d="m465.36,219.85c-2.16,1.34-9.64-7.23-9.38-8.55s4.45-3.65,5.41-2.82,5.04,10.7,3.97,11.37Z"/><path class="uuid-d52b56ba-8ce0-4864-b827-dcc6275d2116" d="m507.79,240.81c.65,2.43,7.9-2.07,12.66-6.28,4.76-4.21,8.23-8.88,6.69-10.21s-5.38,3.46-9.7,7.15c-4.32,3.7-10.05,7.85-9.65,9.34h0Z"/><path class="uuid-d52b56ba-8ce0-4864-b827-dcc6275d2116" d="m528.66,221.27c1.31.69,5.74-5.97,3.92-6.69-1.82-.71-6.04,5.58-3.92,6.69Z"/><path class="uuid-d52b56ba-8ce0-4864-b827-dcc6275d2116" d="m517.57,174.22s2.67,7.62,3,13.63c6.31-.04,12.92,2.51,12.92,2.51,0,0-3.07-9.46-7.13-14.5,0,0-4.27-1.64-8.79-1.65Z"/><path class="uuid-d52b56ba-8ce0-4864-b827-dcc6275d2116" d="m446.91,187.4c-.93-.33-6.26,3.61-6.55,4.81s.52,10.21,1.91,11.14c1.39.93,7.99-14.78,4.64-15.95h0Z"/><path class="uuid-d52b56ba-8ce0-4864-b827-dcc6275d2116" d="m475.33,176.57c-1.18.68-2.89,14.87-2.63,15.54s15.42-1.93,16.17-2.61,1.34-14.43,1.1-14.98-12.84,1.02-14.63,2.04h0Z"/><path class="uuid-d52b56ba-8ce0-4864-b827-dcc6275d2116" d="m498.29,155.85c-1.48,3.03,14.49,8.56,15,6.7.51-1.86-12.18-12.47-15-6.7h0Z"/><path class="uuid-d52b56ba-8ce0-4864-b827-dcc6275d2116" d="m483.58,154.84c-.49,2.43,7.45,3.41,7.96.48.51-2.92-7.37-3.42-7.96-.48Z"/><path class="uuid-d52b56ba-8ce0-4864-b827-dcc6275d2116" d="m455.96,168.67c.51,3.37,9.82-2.85,8.12-5.58-1.7-2.73-8.56,2.64-8.12,5.58Z"/><path class="uuid-d52b56ba-8ce0-4864-b827-dcc6275d2116" d="m540.23,182.79c-3.62-1.64-.58,3.92.1,7.88.68,3.96.57,8.04,1.63,8.18,1.05.14,1.45-4.59,1.08-8.88s-.47-6.12-2.81-7.18h0Z"/></g><g><path class="uuid-c2b81f84-54b4-4471-8442-6dab97f9dbdb" d="m498.33,310.64h0s5.18.71,9.29,5.39c2.5-3.41,4.47-4.48,4.47-4.48l-9.42-67.52s-.42-2.97-7.1-2.04c-6.69.93-6.27,3.9-6.27,3.9l9.04,64.74Z"/><path class="uuid-c2b81f84-54b4-4471-8442-6dab97f9dbdb" d="m519.24,362.8c-14.5-4.39-8.79-16.19-2.56-18.34h0c-5.56-1.96-7.11-9.88-2.07-14.81h0c-4.28-.28-6.34-2.76-6.34-2.76,0,0-2.5,4.3-7.09,4.22h0l14.63,104.82s.41,2.97,7.1,2.04c6.69-.93,6.27-3.9,6.27-3.9l-9.95-71.27h0Z"/><path class="uuid-52fe3725-26e2-42a9-8a9b-607d6ab8d4a1" d="m515.82,435.93c-.57-4.08,12.8-5.94,13.37-1.87"/></g></g></g></g></svg>
<svg id="uuid-20641d54-9b80-4738-a850-744e9e159449" data-name="BODY" xmlns="http://www.w3.org/2000/svg" xmlns:xlink="http://www.w3.org/1999/xlink" viewBox="0 0 600 600"><defs><style>
      .uuid-08cd35e5-5429-4678-9716-d686ab3ecfef, .uuid-dda132b2-d95f-4871-a7b1-064b32f66064, .uuid-ebdbf30b-e82b-478c-8ba4-0d0c364ee291 {
        fill: none;
      }

      .uuid-742681a4-c23e-4f30-b8ee-5b9c20c0b35c {
        stroke: #ff78d8;
        stroke-width: 5px;
      }

      .uuid-742681a4-c23e-4f30-b8ee-5b9c20c0b35c, .uuid-7cac7961-9347-486a-acb0-10dbd6513383, .uuid-b14f2490-b4c9-4cfa-9101-1711323d80d6, .uuid-dda132b2-d95f-4871-a7b1-064b32f66064 {
        stroke-linecap: round;
        stroke-linejoin: round;
      }

      .uuid-4e16943e-fd44-479d-99ea-a54526ffe949, .uuid-b14f2490-b4c9-4cfa-9101-1711323d80d6 {
        fill: #fff7f0;
      }

      .uuid-658b5f94-e9af-4c82-a1e0-8418994c6472 {
        fill: #ff78d8;
      }

      .uuid-58a45e6e-6234-4179-aa22-3da84e379254, .uuid-7cac7961-9347-486a-acb0-10dbd6513383 {
        fill: #a07bff;
      }

      .uuid-7cac7961-9347-486a-acb0-10dbd6513383, .uuid-b14f2490-b4c9-4cfa-9101-1711323d80d6, .uuid-dda132b2-d95f-4871-a7b1-064b32f66064 {
        stroke: #000;
        stroke-width: 2px;
      }

      .uuid-ebdbf30b-e82b-478c-8ba4-0d0c364ee291 {
        clip-path: url(#uuid-f1915c35-cc3e-42ae-bf03-e75644ba9dff);
      }
    </style><clipPath id="uuid-f1915c35-cc3e-42ae-bf03-e75644ba9dff"><path class="uuid-08cd35e5-5429-4678-9716-d686ab3ecfef" d="m292.18,151.63c-45.29,18.53-57.04,82.27-16.83,154.86,40.21,72.59,92.47,79.78,131.35,57.32,32.27-18.64,50.95-86.94,11.5-148.35-38.38-59.74-88.11-79.35-126.02-63.84h0Z"/></clipPath></defs><g id="uuid-85e1621e-e44d-479c-b341-dd87cf6c87d5" data-name="uuid-a9579faf-1ae5-4d40-a4cc-22ba1730b184"><g id="uuid-160c4403-e087-4e8a-a846-a26c4516381d" data-name="uuid-5d29859d-1e7e-4471-9f73-63fc681f3063"><g id="uuid-78a2c4f3-0092-4c8a-a81b-4d0f0dd090a9" data-name="uuid-a170f457-5acf-49c3-a376-5e6480af8811"><g><g><path class="uuid-7cac7961-9347-486a-acb0-10dbd6513383" d="m265.36,275.49s-48.99,12.97-101.9,3.29l1.51-8.18s-5.22,1.59-6.22,2.59c-1.01,1.01-3.02,18.49-2.61,30.55,0,0,12.76,8.08,57.95,8.49,45.19.41,64.06-9.23,64.06-9.23l-12.79-27.53h0Z"/><path class="uuid-7cac7961-9347-486a-acb0-10dbd6513383" d="m207.05,282.36c-1.15,13.66.63,29.77.63,29.77"/><path class="uuid-7cac7961-9347-486a-acb0-10dbd6513383" d="m237.19,280.43c1.04,19.57,4.82,30.82,4.82,30.82"/></g><g><path class="uuid-b14f2490-b4c9-4cfa-9101-1711323d80d6" d="m345.05,154s7.1-16.33,18.29-25.28c2.87-2.3,8.01-4.02,14.78,11.3,6.77,15.32,11.49,44.17,11.49,44.17,0,0-12.77-13.79-44.55-30.19h0Z"/><path class="uuid-dda132b2-d95f-4871-a7b1-064b32f66064" d="m358.58,163.39s2.74-13.98,5.04-20.17c2.3-6.19,5.36-2.87,5.36-2.87"/><path class="uuid-b14f2490-b4c9-4cfa-9101-1711323d80d6" d="m260.03,190.39s-18.01-1.34-37.15,6.79c-3.27,1.39-11.44,6.49-2.11,20.21,9.33,13.72,35.02,32.79,35.02,32.79,0,0,1.57-25.73,4.23-59.79Z"/><path class="uuid-dda132b2-d95f-4871-a7b1-064b32f66064" d="m253.44,206.95s-12.01-2.61-18.57-2.87c-6.55-.26-6.47,3.52-6.47,3.52"/></g><g><path class="uuid-4e16943e-fd44-479d-99ea-a54526ffe949" d="m292.18,151.63c-45.29,18.53-57.04,82.27-16.83,154.86,40.21,72.59,92.47,79.78,131.35,57.32,32.27-18.64,50.95-86.94,11.5-148.35-38.38-59.74-88.11-79.35-126.02-63.84h0Z"/><g class="uuid-ebdbf30b-e82b-478c-8ba4-0d0c364ee291"><g><path class="uuid-742681a4-c23e-4f30-b8ee-5b9c20c0b35c" d="m383.73,253.96s-5.17-13.4,3.06-26.33c8.23-12.93,17.71-11.2,17.71-11.2,0,0-3.64,3.06-1.91,13.5,1.72,10.44-1.44,22.98-18.86,24.03h0Z"/><path class="uuid-742681a4-c23e-4f30-b8ee-5b9c20c0b35c" d="m355.81,266.02s-12.03-13.06-30.94-8.41c-18.91,4.65-22.24,17.83-22.24,17.83,0,0,4.67-2.21,16.75,2.13,13.15,4.72,26.28,6.55,36.44-11.56Z"/><path class="uuid-dda132b2-d95f-4871-a7b1-064b32f66064" d="m392.88,282.4c-.96-3.83,2.35-6.41,3.64-6.27"/><path class="uuid-dda132b2-d95f-4871-a7b1-064b32f66064" d="m383.25,287.76s-8.04-3.26-10.63,2.87"/><path class="uuid-dda132b2-d95f-4871-a7b1-064b32f66064" d="m359.32,346.45s12.64,5.68,19.82-15.93c7.18-21.6,20.27-25.8,29.59-26.01,8.62-.19,14.74,6.51,15.63-1.82"/><path class="uuid-dda132b2-d95f-4871-a7b1-064b32f66064" d="m410.64,318.97s-8.52-3.06-10.82,6.7"/><g><path class="uuid-58a45e6e-6234-4179-aa22-3da84e379254" d="m429.31,260.28c2.49-10.53,5.84-14.74,5.84-14.74l-9.77-21.26c-4.02,9.63-1.63,16.37-3.35,25.95-1.72,9.57-6.46,19.68-15.99,22.79,14.55,2.87,20.78-2.2,23.27-12.73Z"/><path class="uuid-658b5f94-e9af-4c82-a1e0-8418994c6472" d="m440.49,262.7c-.69,13.12-12.07,25.43-16.8,26.06,13.66,2.79,19.86-3.49,19.86-3.49l-3.06-22.57Z"/><path class="uuid-58a45e6e-6234-4179-aa22-3da84e379254" d="m320.36,303.41c-18.67-1.54-31.68-8.26-49.26,1.54-3.48,1.94,9.34,15.51,9.34,15.51,5.6-4.74,15.94-6.61,38.49-6.75,22.55-.14,26.73-13.71,26.73-13.71,0,0-6.62,4.95-25.29,3.41Z"/><path class="uuid-658b5f94-e9af-4c82-a1e0-8418994c6472" d="m301.55,347.9s25.95-8.05,35.43-22.99c-11.92,7.61-36.58,4.89-46.06,12.22l10.63,10.77Z"/></g></g></g><path class="uuid-dda132b2-d95f-4871-a7b1-064b32f66064" d="m292.18,151.63c-45.29,18.53-57.04,82.27-16.83,154.86,40.21,72.59,92.47,79.78,131.35,57.32,32.27-18.64,50.95-86.94,11.5-148.35-38.38-59.74-88.11-79.35-126.02-63.84h0Z"/></g></g></g></g></g></svg>
</svg>