<?xml version="1.0" encoding="UTF-8"?>
<svg xmlns="http://www.w3.org/2000/svg" viewBox="0 0 600 600">
<svg id="uuid-d9dcaeb1-b3e9-4103-a9e9-674eb3b1cf0f" data-name="BACKGROUND" xmlns="http://www.w3.org/2000/svg" viewBox="0 0 600 600"><defs><style>
      .uuid-ddba642b-737c-447a-8d97-1fa19eb8e4a8 {
        fill: #ff78d8;
      }
    </style></defs><rect class="uuid-ddba642b-737c-447a-8d97-1fa19eb8e4a8" x="-1" y="-1" width="602" height="602"/></svg>
<svg id="uuid-33f0a83e-2b0c-4eb8-8fa3-bfa9ea5086d3" data-name="BACKGROUND" xmlns="http://www.w3.org/2000/svg" viewBox="0 0 600 600"><defs><style>
      .uuid-450a74f4-b6b6-47ff-a9b8-91a171e1e341, .uuid-7fae2aa8-9ea1-45c0-a459-daab5bb141c8, .uuid-28d15e62-18ad-457b-95e7-fa4bdbf6607d, .uuid-f34e6d04-5895-4a55-8123-65c0a5c276be, .uuid-6f41a922-4956-4224-af6c-3d28e38947e5, .uuid-57d641cc-3e15-4ae9-829f-c36df3c7f79a, .uuid-5d2ce935-29a4-4a67-ac10-b6bb4cf3dd30 {
        stroke: #000;
        stroke-width: 2px;
      }

      .uuid-450a74f4-b6b6-47ff-a9b8-91a171e1e341, .uuid-7fae2aa8-9ea1-45c0-a459-daab5bb141c8, .uuid-28d15e62-18ad-457b-95e7-fa4bdbf6607d, .uuid-6f41a922-4956-4224-af6c-3d28e38947e5, .uuid-57d641cc-3e15-4ae9-829f-c36df3c7f79a {
        stroke-linecap: round;
      }

      .uuid-450a74f4-b6b6-47ff-a9b8-91a171e1e341, .uuid-f34e6d04-5895-4a55-8123-65c0a5c276be, .uuid-57d641cc-3e15-4ae9-829f-c36df3c7f79a, .uuid-5d2ce935-29a4-4a67-ac10-b6bb4cf3dd30 {
        fill: #8400ff;
      }

      .uuid-450a74f4-b6b6-47ff-a9b8-91a171e1e341, .uuid-6f41a922-4956-4224-af6c-3d28e38947e5, .uuid-5d2ce935-29a4-4a67-ac10-b6bb4cf3dd30 {
        stroke-linejoin: round;
      }

      .uuid-7b9f3a05-4cc7-4b23-b3bf-179c77ea9f5f, .uuid-28d15e62-18ad-457b-95e7-fa4bdbf6607d {
        fill: #fff;
      }

      .uuid-7fae2aa8-9ea1-45c0-a459-daab5bb141c8 {
        fill: #ffff0d;
      }

      .uuid-7fae2aa8-9ea1-45c0-a459-daab5bb141c8, .uuid-28d15e62-18ad-457b-95e7-fa4bdbf6607d, .uuid-f34e6d04-5895-4a55-8123-65c0a5c276be, .uuid-57d641cc-3e15-4ae9-829f-c36df3c7f79a {
        stroke-miterlimit: 10;
      }

      .uuid-6f41a922-4956-4224-af6c-3d28e38947e5 {
        fill: none;
      }
    </style></defs><path class="uuid-450a74f4-b6b6-47ff-a9b8-91a171e1e341" d="m409.81,359.6c9.2,3.77,29.89,12.05,42.79,16.03,2.11.65,4.41.69,6.5-.04,11.79-4.08,28.47-11.39,33.03-11.32,5.25.08,7.8,3.93,19.88,2.04,13.36-2.1,22.43-11.99,20.93-23.3-4.21-43.28-25.18-26.79-25.18-26.79,0,0-5.84-8.75-18.76-4.82-11.83,3.6-10.2,14.44-6.47,22.47l-25.29,8.58c-2.14.72-4.45.71-6.59-.02l-35.7-12.61"/><path class="uuid-57d641cc-3e15-4ae9-829f-c36df3c7f79a" d="m533.36,312.82c2.5,3.94,1.62,9.14-1.57,12.4-2.47,2.53-5.88,3.88-9.32,4.4-2.8.43-5.7.42-8.49-.08-2.14-.39-4.29-1.1-5.79-2.75-1.66-1.83-2.27-4.46-1.98-6.87.51-4.17,3.84-7.14,7.22-9.26,3.17-1.98,6.86-3.26,10.64-3.09,3.8.18,7.36,2.19,9.3,5.24Z"/><path class="uuid-57d641cc-3e15-4ae9-829f-c36df3c7f79a" d="m538.57,349.84c.97,3.03.32,6.43-1.5,9.01-3.77,5.33-11.17,5.65-16.96,4.27-3.31-.79-6.69-2.21-8.67-5.13-3.13-4.61-.82-9.79,3.48-12.56,2.58-1.66,5.61-2.67,8.63-3.14,5.73-.89,13.1,1.51,15.03,7.56Z"/><path class="uuid-57d641cc-3e15-4ae9-829f-c36df3c7f79a" d="m538.71,328.53c1.8,2.99,2.06,6.89.22,9.9-1.95,3.2-4.94,5.25-8.49,6.28-3.66,1.07-7.64,1.27-11.4.44-2.25-.5-4.53-1.38-5.96-3.28-1.86-2.47-1.89-5.68-.85-8.49,1.2-3.24,4.17-5.69,7.09-7.37,6.15-3.56,15.21-4.43,19.39,2.52Z"/><path class="uuid-57d641cc-3e15-4ae9-829f-c36df3c7f79a" d="m501.85,311.68s9.27,3.84,7.77,12.02c-1.04,5.68-8.17,9.55-14.94,6.13"/><path class="uuid-6f41a922-4956-4224-af6c-3d28e38947e5" d="m500.67,331.08c2.41,1.63,5.11,8.04,3.4,14.42"/><path d="m443.44,339.88c-2.88,10.58-6.94,20.23-11.17,28.59-10.17-3.78-21.16-9.53-27-11.93l11.83-26.02,26.35,9.36Z"/><ellipse cx="300" cy="518.65" rx="138.6" ry="22.93"/><path class="uuid-f34e6d04-5895-4a55-8123-65c0a5c276be" d="m319.36,427.14c-1.16,1.05-54.95,57-54.95,57,0,0,21.51-1.95,31.74,10.62,10.23,12.57,7.26,23.89,7.26,23.89h-66.9s-28.69-36.17-28.69-36.17c0,0,3.74-13.4,20.44-10.59,20.9-19.38,55.52-59.13,55.52-59.13l35.59,14.38Z"/><path d="m283.78,412.76l31.28,12.64-3.24,9.5c-2.93,3.03-9.76,10.12-13.64,14.14-11.92,0-27.98-2.13-41.33-6.37,13.95-15.1,26.93-29.92,26.93-29.92Z"/><path class="uuid-f34e6d04-5895-4a55-8123-65c0a5c276be" d="m354.45,173.54l-.11.27-174.2,58.29c-11.49,20.13-18.05,43.43-18.05,68.27,0,76.2,61.77,137.98,137.97,137.98s137.98-61.77,137.98-137.98c0-56.89-34.43-105.72-83.58-126.83Z"/><path class="uuid-6f41a922-4956-4224-af6c-3d28e38947e5" d="m264.41,484.14c-4.06.49-11.49,1.36-17.85,7.23"/><path class="uuid-7b9f3a05-4cc7-4b23-b3bf-179c77ea9f5f" d="m185.17,308.14c-4.41,0-7.98-3.57-7.98-7.98,0-67.74,55.11-122.86,122.86-122.86,4.41,0,7.98,3.57,7.98,7.98s-3.57,7.98-7.98,7.98c-58.94,0-106.9,47.95-106.9,106.9,0,4.41-3.57,7.98-7.98,7.98Z"/><path d="m203.75,397.46l34.2-27.46-24.86,36.3c-6.73-5.1-3.66-2.61-9.34-8.83Z"/><path class="uuid-5d2ce935-29a4-4a67-ac10-b6bb4cf3dd30" d="m323.72,387.31c19.14-13.4,39.15-11.3,55.52,7.36,19.6,22.35,30.57,33.06,30.57,33.06,0,0,10.74-19.34,34.77-17.5,18.26,1.4,24.84,14.43,24.84,14.43,0,0,6.21,8.82-22.45,33.5-28.66,24.68-54.93,40.92-61.14,29.46-6.21-11.46-2.82-32.1-2.82-32.1,0,0-22.02-26.09-27.94-32.01-6.79-6.79-15.71-1.36-15.71-1.36"/><path class="uuid-f34e6d04-5895-4a55-8123-65c0a5c276be" d="m446.97,458.17c-25.89,22.29-49.82,37.69-58.79,32.02-9.77-7.44,26.84-38.54,44.88-52.7,18.04-14.16,32.17-17.82,36.36-12.81,0,0,6.21,8.82-22.45,33.5Z"/><path class="uuid-6f41a922-4956-4224-af6c-3d28e38947e5" d="m409.81,427.74c-1.89,2.86-4.55,10.38-4.55,10.38"/><ellipse class="uuid-28d15e62-18ad-457b-95e7-fa4bdbf6607d" cx="269.41" cy="209.07" rx="94.9" ry="26.25" transform="translate(-52.5 96.54) rotate(-18.55)"/><ellipse class="uuid-7fae2aa8-9ea1-45c0-a459-daab5bb141c8" cx="269.41" cy="209.07" rx="71.19" ry="13.32" transform="translate(-52.5 96.54) rotate(-18.55)"/><g><path class="uuid-450a74f4-b6b6-47ff-a9b8-91a171e1e341" d="m214.11,345.7c-8.05,5.83-25.34,20.79-35.52,29.67-1.67,1.45-2.82,3.41-3.39,5.55-3.14,11.67-8.55,33.44-8.55,33.44,0,0-8.42.58-12.19,14.35-3.64,13.3-6.64,25.06,3.77,29.75.35,7.47,7.51,15.45,19.2,9.41.14-.06,1.32,1.32,1.44,1.45,2.64,2.7,6.36,4.45,10.13,4.81,3.65.36,7.61-.67,10.43-3.08,3.29-2.81,5.4-6.94,6.05-11.2.4-2.61.26-5.31-.75-7.78,0,0,6.2-2.51,8.05-11.34,1.99-9.49-4.22-19.42-14.62-18.18l6.17-23.11c.51-2.2,1.74-4.16,3.49-5.59l29.38-24.3"/><path class="uuid-6f41a922-4956-4224-af6c-3d28e38947e5" d="m204.73,452.06c-1.37-3.47-5.39-7.08-9-6.88"/><path class="uuid-6f41a922-4956-4224-af6c-3d28e38947e5" d="m178.86,469.3c-5.16-5.27-3.82-11.97-2.9-13.54"/><path class="uuid-6f41a922-4956-4224-af6c-3d28e38947e5" d="m158.22,458.45c-.27-5.22.73-7.32,3.06-9.83"/><path class="uuid-6f41a922-4956-4224-af6c-3d28e38947e5" d="m193.93,450.63c.14-2.07.48-4.16,1.32-6.06.85-1.95,2.36-3.88,4.31-4.85"/></g></svg>
<svg id="uuid-783ed389-68eb-43cd-8772-5f49b9e71529" data-name="BODY" xmlns="http://www.w3.org/2000/svg" viewBox="0 0 600 600"><defs><style>
      .uuid-f7dbff45-408d-444d-ade6-4633d32cb1f2 {
        fill: none;
        stroke: #000;
        stroke-linecap: round;
        stroke-linejoin: round;
        stroke-width: 4px;
      }
    </style></defs><g id="uuid-4bc92f06-c84b-4f7f-af09-c2014f1ce8f9" data-name="mouth"><path d="m371.37,289.99c1.76,5.11-.95,10.68-6.06,12.44s-10.68-.95-12.44-6.06l18.49-6.38Z"/></g><g id="uuid-285df2d9-fba6-4a75-9123-94e1b459206d" data-name="eye L"><path class="uuid-f7dbff45-408d-444d-ade6-4633d32cb1f2" d="m346.88,270.76c1.76,5.11-.95,10.68-6.06,12.44s-10.68-.95-12.44-6.06"/></g><g id="uuid-a97f4a4e-8c90-4af2-892b-9ce222650c5a" data-name="eye R"><path class="uuid-f7dbff45-408d-444d-ade6-4633d32cb1f2" d="m378.79,259.75c1.76,5.11-.95,10.68-6.06,12.44-5.11,1.76-10.68-.95-12.44-6.06"/></g></svg>
<svg id="uuid-6b1ca43c-fceb-4acd-85bc-eb7c63c2d5ed" data-name="BACKGROUND" xmlns="http://www.w3.org/2000/svg" xmlns:xlink="http://www.w3.org/1999/xlink" viewBox="0 0 600 600"><defs><style>
      .uuid-7d324a92-f859-4859-84b1-6b64e5c7ec03, .uuid-67100d62-60e5-4cd8-9feb-5d83ffa2b8c8, .uuid-bc5fc81c-92fa-4ec4-8e4a-352e040d594c, .uuid-5ac50f8a-6b3d-459b-9f7c-e2e49936e76c, .uuid-6c969cdd-f62e-43a7-a73f-31724797c8f5, .uuid-b67ff905-7fb7-4340-8266-4c03ea4a3719, .uuid-01b34b03-825a-47cb-a604-f9db4e1cd74f, .uuid-466c2826-7ac3-48ed-8208-b1d7f9e89468 {
        fill: none;
      }

      .uuid-67100d62-60e5-4cd8-9feb-5d83ffa2b8c8 {
        clip-path: url(#uuid-0502021d-5d50-4318-98da-cdd75b92ab18);
      }

      .uuid-617835b9-dcb7-47c3-8e7d-ba218dfa85d0 {
        fill: #353434;
      }

      .uuid-617835b9-dcb7-47c3-8e7d-ba218dfa85d0, .uuid-8e974996-2f7b-47a5-9824-e41b82eedcf4, .uuid-4e5a8a5f-577b-4228-8ffe-283c3c5a70f5, .uuid-bc5fc81c-92fa-4ec4-8e4a-352e040d594c, .uuid-5ac50f8a-6b3d-459b-9f7c-e2e49936e76c {
        stroke: #000;
        stroke-linecap: round;
        stroke-linejoin: round;
      }

      .uuid-617835b9-dcb7-47c3-8e7d-ba218dfa85d0, .uuid-8e974996-2f7b-47a5-9824-e41b82eedcf4, .uuid-4e5a8a5f-577b-4228-8ffe-283c3c5a70f5, .uuid-5ac50f8a-6b3d-459b-9f7c-e2e49936e76c {
        stroke-width: 2px;
      }

      .uuid-57d2f649-6cf8-4f64-88c1-f5885b0533cd, .uuid-4e5a8a5f-577b-4228-8ffe-283c3c5a70f5 {
        fill: #fff7f0;
      }

      .uuid-4a3249ec-b2f6-48bb-a8f3-a82bfffadfc2, .uuid-8e974996-2f7b-47a5-9824-e41b82eedcf4 {
        fill: #a07bff;
      }

      .uuid-bc5fc81c-92fa-4ec4-8e4a-352e040d594c {
        stroke-width: 2px;
      }

      .uuid-6c969cdd-f62e-43a7-a73f-31724797c8f5 {
        clip-path: url(#uuid-65b2ff7e-b3d6-471c-abcc-31367d16a59a);
      }

      .uuid-b67ff905-7fb7-4340-8266-4c03ea4a3719 {
        clip-path: url(#uuid-b7157335-6e6b-4f02-acd6-65c4362be68b);
      }

      .uuid-01b34b03-825a-47cb-a604-f9db4e1cd74f {
        clip-path: url(#uuid-210babb4-acd7-4b92-9096-56d819bae4c2);
      }

      .uuid-466c2826-7ac3-48ed-8208-b1d7f9e89468 {
        clip-path: url(#uuid-bafb8971-eb1d-4f25-a86c-d00529b534c5);
      }
    </style><clipPath id="uuid-0502021d-5d50-4318-98da-cdd75b92ab18"><path class="uuid-7d324a92-f859-4859-84b1-6b64e5c7ec03" d="m236.72,508.58l-26.43-36.69c-.99-1.27-2.89-1.3-3.93-.08l-5.74,6.7c-1.19,1.4-1.23,3.44-.1,4.88l29.22,37.38c1.22,1.56,3.1,2.48,5.08,2.48h71.09c1.33,0,2.41-1.08,2.41-2.41v-8.19c0-1.33-1.08-2.41-2.41-2.41h-65.78c-1.34,0-2.6-.62-3.42-1.67h0Z"/></clipPath><clipPath id="uuid-65b2ff7e-b3d6-471c-abcc-31367d16a59a"><path class="uuid-7d324a92-f859-4859-84b1-6b64e5c7ec03" d="m250.25,445.38l-22.93,23.27s-12.85-2.78-19.77,7.48l29.07,36.91h68.51s.65-17.01-14.04-25.82c-8.29-5.06-18.57-5.38-18.57-5.38l11.83-12.51c.96-1.06.66-2.75-.62-3.4-2.53-1.29-6.47-3.3-9.42-4.8-1.34-.68-2.97-.41-4.02.67l-1.42,1.47s-6.22-3.03-10.77-8.09-5.44-7.92-5.44-7.92l2.43-2.53-1.36-.35c-.75-.19-1.55-.17-2.25.15-.47.22-.9.52-1.22.84h0Z"/></clipPath><clipPath id="uuid-b7157335-6e6b-4f02-acd6-65c4362be68b"><path class="uuid-7d324a92-f859-4859-84b1-6b64e5c7ec03" d="m360,433.62l19.9,22.77s-3.17,17.71,2.54,31.11c0,0,5.33-16.06,31.48-39.12,26.16-23.06,53.73-30.88,53.73-30.88,0,0-10.6-11.39-29.3-10.31-18.7,1.08-28.7,15.35-28.7,15.35l-20.51-22.1c-.8-.85-1.95-1.29-3.1-1.14-2.22.27-6.08,1.2-10.09,4.24-.66.5-.78,1.46-.26,2.11l1.05,1.3s-16.35,11.66-16.75,26.68h0Z"/></clipPath><clipPath id="uuid-210babb4-acd7-4b92-9096-56d819bae4c2"><path class="uuid-7d324a92-f859-4859-84b1-6b64e5c7ec03" d="m469.32,415.42c-.66-.63-1.59-.86-2.47-.62-5.87,1.59-29.25,8.95-53.86,30.76-23.28,20.64-31.86,33.4-33.68,38.15-.37.98-.27,2.06.31,2.94,1.37,2.1,5.65,8.44,8.34,11.27,4.73,4.98,26.38-2.07,55.09-27.69,28.72-25.62,37.69-40.52,34.25-45.67-2.52-3.77-6.2-7.44-7.99-9.14h0Z"/></clipPath><clipPath id="uuid-bafb8971-eb1d-4f25-a86c-d00529b534c5"><path class="uuid-7d324a92-f859-4859-84b1-6b64e5c7ec03" d="m477.9,426.07h0c-.62-4.79-20.55-1.28-53.98,25.69-33.41,26.94-37.41,45.67-34.1,47.26,7.15,2.33,27.31-5.65,53.25-28.79,24.07-21.47,34.26-35.41,34.9-42.4,0-.73,0-1.33-.07-1.76h0Z"/></clipPath></defs><g id="uuid-f408db85-a353-4742-a68e-9c398e6873ff" data-name="uuid-cd11fcea-88d0-488e-8ad3-f73ba4124c0e"><g><g><g><path class="uuid-57d2f649-6cf8-4f64-88c1-f5885b0533cd" d="m236.72,508.58l-26.43-36.69c-.99-1.27-2.89-1.3-3.93-.08l-5.74,6.7c-1.19,1.4-1.23,3.44-.1,4.88l29.22,37.38c1.22,1.56,3.1,2.48,5.08,2.48h71.09c1.33,0,2.41-1.08,2.41-2.41v-8.19c0-1.33-1.08-2.41-2.41-2.41h-65.78c-1.34,0-2.6-.62-3.42-1.67h0Z"/><g class="uuid-67100d62-60e5-4cd8-9feb-5d83ffa2b8c8"><path class="uuid-4a3249ec-b2f6-48bb-a8f3-a82bfffadfc2" d="m311.73,519.85h-75.87c-1.43,0-2.79-.65-3.68-1.78l-33.28-41.94-4.78,6.84,36.02,45.1,81.59-1.62v-6.61h0Z"/></g><path class="uuid-5ac50f8a-6b3d-459b-9f7c-e2e49936e76c" d="m236.72,508.58l-26.43-36.69c-.99-1.27-2.89-1.3-3.93-.08l-5.74,6.7c-1.19,1.4-1.23,3.44-.1,4.88l29.22,37.38c1.22,1.56,3.1,2.48,5.08,2.48h71.09c1.33,0,2.41-1.08,2.41-2.41v-8.19c0-1.33-1.08-2.41-2.41-2.41h-65.78c-1.34,0-2.6-.62-3.42-1.67h0Z"/></g><g><path class="uuid-57d2f649-6cf8-4f64-88c1-f5885b0533cd" d="m250.25,445.38l-22.93,23.27s-12.85-2.78-19.77,7.48l29.07,36.91h68.51s.65-17.01-14.04-25.82c-8.29-5.06-18.57-5.38-18.57-5.38l11.83-12.51c.96-1.06.66-2.75-.62-3.4-2.53-1.29-6.47-3.3-9.42-4.8-1.34-.68-2.97-.41-4.02.67l-1.42,1.47s-6.22-3.03-10.77-8.09-5.44-7.92-5.44-7.92l2.43-2.53-1.36-.35c-.75-.19-1.55-.17-2.25.15-.47.22-.9.52-1.22.84h0Z"/><g class="uuid-6c969cdd-f62e-43a7-a73f-31724797c8f5"><g><path class="uuid-8e974996-2f7b-47a5-9824-e41b82eedcf4" d="m207.56,476.13l16.95,21.51,4.56-8.42c1.06-1.96,1.35-4.25.82-6.42l-3.54-14.32c-3.13-.41-13.01-.92-18.79,7.64h0Z"/><path class="uuid-617835b9-dcb7-47c3-8e7d-ba218dfa85d0" d="m235.69,468.65c5.41,7.65,11.73,8.93,11.73,8.93l17.3-19.75-9.01-19.35-13.15,2.63-11.12,19.55s1.48,4.08,4.25,7.99h0Z"/><g><path class="uuid-8e974996-2f7b-47a5-9824-e41b82eedcf4" d="m268.87,463.27s-18.49,21.32-19.16,22.2c-.67.88,10.65.19,18.81,2.29,8.16,2.09,14.33,4.3,14.83,7.23.51,2.93-3.21,3.65-7.01,6.46-4.82,3.56-2.97,6.66,2.61,5.17,3.03-.81,4.45-3.84,6.12-3.84h20.73s4.72,8.78,5.12,12.22h-64.36s13.07-7.62,17.85-17.02c-4.93.3-4.73-3.34-9.51-3.47s-7.82,4.45-13.08.74c-5.26-3.71.81-12.27,9.17-21.64,0,0-5.19-5.51-15.3-4.96,0,0-1.38-1.62-4.87-9.15l8.34-7.23s14.66,9.91,18.46,13.85l7.58-8.75,3.67,5.9h0Z"/><path class="uuid-8e974996-2f7b-47a5-9824-e41b82eedcf4" d="m264.41,497.97c1.72-3.24,2.38-5.16,8.9-5.36,4.73-.15,8.74-.71,9.95,2.03"/><line class="uuid-5ac50f8a-6b3d-459b-9f7c-e2e49936e76c" x1="250.99" y1="473.6" x2="257.61" y2="466.12"/></g><path class="uuid-5ac50f8a-6b3d-459b-9f7c-e2e49936e76c" d="m275.64,501.99c-4.04,3.39-8.12,11.05-8.12,11.05"/><polygon class="uuid-4a3249ec-b2f6-48bb-a8f3-a82bfffadfc2" points="278.48 461.05 272.13 468.34 277.35 470.68 283.97 463.81 278.48 461.05"/></g></g><path class="uuid-5ac50f8a-6b3d-459b-9f7c-e2e49936e76c" d="m250.25,445.38l-22.93,23.27s-12.85-2.78-19.77,7.48l29.07,36.91h68.51s.65-17.01-14.04-25.82c-8.29-5.06-18.57-5.38-18.57-5.38l11.83-12.51c.96-1.06.66-2.75-.62-3.4-2.53-1.29-6.47-3.3-9.42-4.8-1.34-.68-2.97-.41-4.02.67l-1.42,1.47s-6.22-3.03-10.77-8.09-5.44-7.92-5.44-7.92l2.43-2.53-1.36-.35c-.75-.19-1.55-.17-2.25.15-.47.22-.9.52-1.22.84h0Z"/></g><path class="uuid-5ac50f8a-6b3d-459b-9f7c-e2e49936e76c" d="m244.42,489.63c5.92-5.31,14.38-9.03,28.11-7.79"/><g><path class="uuid-4e5a8a5f-577b-4228-8ffe-283c3c5a70f5" d="m264.17,468.09c4.47,2.6,9.09,4.34,12.76,5.69,3.67,1.35,2.33,6.74-2.45,4.81-4.77-1.93-11.32-4.52-13.4-6.25s.11-5.99,3.09-4.26h0Z"/><path class="uuid-4e5a8a5f-577b-4228-8ffe-283c3c5a70f5" d="m256.34,476.65c2.44,1.28,4.92,2.3,7.25,3.14,1.81.66-1.41,4.84-3.61,4-2.73-1.04-5.18-2.09-6.31-2.95-2.05-1.55-.22-5.7,2.68-4.19Z"/><path class="uuid-4e5a8a5f-577b-4228-8ffe-283c3c5a70f5" d="m275.35,481.45s-.77-4.17-6.3-4.78c-7.82-.86-12.81,5.57-14.54,7.98s2.32,5.2,4.64,2.45c4.98-5.91,7.52-6.36,8.95-6.67,3.05.17,7.25,1.01,7.25,1.01h0Z"/><path class="uuid-4e5a8a5f-577b-4228-8ffe-283c3c5a70f5" d="m288.56,485.83s-.38-4.37-5.93-5.51c-7.86-1.61-13.55,4.58-15.55,6.9-1.99,2.33,1.85,5.58,4.48,2.95,5.63-5.64,9.79-6.56,11.27-6.75,1.91.64,5.74,2.4,5.74,2.4h0Z"/></g><g><circle cx="286.65" cy="493.08" r="1.01"/><circle cx="294.11" cy="493.08" r="1.01"/><circle cx="291.6" cy="495.81" r="1.01"/><circle cx="289.08" cy="498.97" r="1.01"/><circle cx="296.53" cy="498.97" r="1.01"/></g></g><g><g><path class="uuid-57d2f649-6cf8-4f64-88c1-f5885b0533cd" d="m360,433.62l19.9,22.77s-3.17,17.71,2.54,31.11c0,0,5.33-16.06,31.48-39.12,26.16-23.06,53.73-30.88,53.73-30.88,0,0-10.6-11.39-29.3-10.31-18.7,1.08-28.7,15.35-28.7,15.35l-20.51-22.1c-.8-.85-1.95-1.29-3.1-1.14-2.22.27-6.08,1.2-10.09,4.24-.66.5-.78,1.46-.26,2.11l1.05,1.3s-16.35,11.66-16.75,26.68h0Z"/><g class="uuid-b67ff905-7fb7-4340-8266-4c03ea4a3719"><g><path class="uuid-617835b9-dcb7-47c3-8e7d-ba218dfa85d0" d="m381.44,447.04c4.72-7.69,7.01-19.3,7.01-19.3l-19.82-20.2s-11.73,9.84-12.54,27.51l18.2,22.02,7.15-10.02h0Z"/><path class="uuid-8e974996-2f7b-47a5-9824-e41b82eedcf4" d="m386.55,424.93c-7.06,9.84-5.11,22.11-5.11,22.11,0,0-3.64,5.93-5.06,7.89l-8.56-9.17s.9-17.83,11.2-28.23l7.52,7.4h0Z"/><path class="uuid-8e974996-2f7b-47a5-9824-e41b82eedcf4" d="m376.75,406.95l27.24,27.12s7.58-6.51,15.13-11.9c7.55-5.39,15.66-6.4,17.28-6.3,1.62.1,1.57,2.33.81,4.04-.76,1.72-.61,2.43-.61,2.43,0,0,5.58-.04,5.38-5.77,0,0,4.72-3.57,16.31-7.01l8.7.94,6.67,3.71-19.42,13.53-29.9,13.91s1.38-7.48,1.52-13.21c-3.24,2.83-7.06.62-10.45,2.75-3.39,2.12-6.17,10.11-9.74,10.87-2.37.5-5.18.5-7.81-2.28-3.74-3.94-28.82-29.38-28.82-29.38l4.5-3.94,3.2.49h0Z"/><path class="uuid-8e974996-2f7b-47a5-9824-e41b82eedcf4" d="m377.18,464.97l11.88-6.76c1.46-.83,3.09-1.32,4.76-1.43l10.6-.71-26.22,34.72-3.1-12.74,2.08-13.08h0Z"/><path class="uuid-5ac50f8a-6b3d-459b-9f7c-e2e49936e76c" d="m425.87,428.43c-.03-5.04-2.63-8.79,3.04-11.15"/><path class="uuid-5ac50f8a-6b3d-459b-9f7c-e2e49936e76c" d="m436.62,421.78c-.43,3.41.54,8.14.54,8.14"/><polygon class="uuid-4a3249ec-b2f6-48bb-a8f3-a82bfffadfc2" points="379.85 401.15 383.87 405.09 388.18 403.12 384.85 399.49 380.73 397.86 379.85 401.15"/></g></g><path class="uuid-5ac50f8a-6b3d-459b-9f7c-e2e49936e76c" d="m360,433.62l19.9,22.77s-3.17,17.71,2.54,31.11c0,0,5.33-16.06,31.48-39.12,26.16-23.06,53.73-30.88,53.73-30.88,0,0-10.6-11.39-29.3-10.31-18.7,1.08-28.7,15.35-28.7,15.35l-20.51-22.1c-.8-.85-1.95-1.29-3.1-1.14-2.22.27-6.08,1.2-10.09,4.24-.66.5-.78,1.46-.26,2.11l1.05,1.3s-16.35,11.66-16.75,26.68h0Z"/></g><g><g><path class="uuid-57d2f649-6cf8-4f64-88c1-f5885b0533cd" d="m469.32,415.42c-.66-.63-1.59-.86-2.47-.62-5.87,1.59-29.25,8.95-53.86,30.76-23.28,20.64-31.86,33.4-33.68,38.15-.37.98-.27,2.06.31,2.94,1.37,2.1,5.65,8.44,8.34,11.27,4.73,4.98,26.38-2.07,55.09-27.69,28.72-25.62,37.69-40.52,34.25-45.67-2.52-3.77-6.2-7.44-7.99-9.14h0Z"/><g class="uuid-01b34b03-825a-47cb-a604-f9db4e1cd74f"><path class="uuid-4a3249ec-b2f6-48bb-a8f3-a82bfffadfc2" d="m474.46,421.06c-.67-.63-1.6-.86-2.49-.62-5.93,1.59-30.69,9.97-55.54,31.78-23.51,20.64-29.54,34.57-31.37,39.32-.38.98-.27,2.06.31,2.94,1.39,2.1,4.23,6.25,6.95,9.08,4.77,4.98,26.63-2.07,55.63-27.69,29-25.62,38.05-40.52,34.58-45.67-2.54-3.77-6.26-7.44-8.07-9.14h0Z"/></g><path class="uuid-5ac50f8a-6b3d-459b-9f7c-e2e49936e76c" d="m469.32,415.42c-.66-.63-1.59-.86-2.47-.62-5.87,1.59-29.25,8.95-53.86,30.76-23.28,20.64-31.86,33.4-33.68,38.15-.37.98-.27,2.06.31,2.94,1.37,2.1,5.65,8.44,8.34,11.27,4.73,4.98,26.38-2.07,55.09-27.69,28.72-25.62,37.69-40.52,34.25-45.67-2.52-3.77-6.2-7.44-7.99-9.14h0Z"/></g><g><path class="uuid-4a3249ec-b2f6-48bb-a8f3-a82bfffadfc2" d="m477.9,426.07h0c-.62-4.79-20.55-1.28-53.98,25.69-33.41,26.94-37.41,45.67-34.1,47.26,7.15,2.33,27.31-5.65,53.25-28.79,24.07-21.47,34.26-35.41,34.9-42.4,0-.73,0-1.33-.07-1.76h0Z"/><g class="uuid-466c2826-7ac3-48ed-8208-b1d7f9e89468"><g><g><ellipse class="uuid-bc5fc81c-92fa-4ec4-8e4a-352e040d594c" cx="452.04" cy="447.48" rx="3.55" ry="2.2" transform="translate(-183.16 414.29) rotate(-41.72)"/><ellipse class="uuid-bc5fc81c-92fa-4ec4-8e4a-352e040d594c" cx="452.04" cy="447.48" rx="8.67" ry="5.37" transform="translate(-183.16 414.29) rotate(-41.72)"/><ellipse class="uuid-bc5fc81c-92fa-4ec4-8e4a-352e040d594c" cx="452.04" cy="447.48" rx="13.41" ry="8.31" transform="translate(-183.16 414.29) rotate(-41.72)"/><ellipse class="uuid-bc5fc81c-92fa-4ec4-8e4a-352e040d594c" cx="452.04" cy="447.48" rx="17.54" ry="10.87" transform="translate(-183.16 414.29) rotate(-41.72)"/><ellipse class="uuid-bc5fc81c-92fa-4ec4-8e4a-352e040d594c" cx="452.04" cy="447.48" rx="22.28" ry="13.8" transform="translate(-183.16 414.29) rotate(-41.72)"/><ellipse class="uuid-bc5fc81c-92fa-4ec4-8e4a-352e040d594c" cx="452.04" cy="447.48" rx="27.13" ry="16.81" transform="translate(-183.16 414.29) rotate(-41.72)"/></g><g><path class="uuid-5ac50f8a-6b3d-459b-9f7c-e2e49936e76c" d="m419.16,451.36l6.27,17.09s-12.64,10.48-14.66,11.9c-2.02,1.42-.13,3.71,1.69,2.49,1.82-1.21,15.03-11.12,15.03-11.12l10.31,4.99"/><line class="uuid-5ac50f8a-6b3d-459b-9f7c-e2e49936e76c" x1="424.04" y1="474.29" x2="435.57" y2="481.83"/><line class="uuid-5ac50f8a-6b3d-459b-9f7c-e2e49936e76c" x1="419.85" y1="477.42" x2="430.25" y2="485.94"/><line class="uuid-5ac50f8a-6b3d-459b-9f7c-e2e49936e76c" x1="415.48" y1="480.65" x2="423.85" y2="489.65"/><line class="uuid-5ac50f8a-6b3d-459b-9f7c-e2e49936e76c" x1="412.45" y1="482.84" x2="416.83" y2="494.97"/><line class="uuid-5ac50f8a-6b3d-459b-9f7c-e2e49936e76c" x1="413.11" y1="478.53" x2="403.28" y2="468.21"/><line class="uuid-5ac50f8a-6b3d-459b-9f7c-e2e49936e76c" x1="408.19" y1="461.84" x2="417.88" y2="474.67"/><line class="uuid-5ac50f8a-6b3d-459b-9f7c-e2e49936e76c" x1="421.62" y1="471.59" x2="413.93" y2="456.61"/><line class="uuid-5ac50f8a-6b3d-459b-9f7c-e2e49936e76c" x1="410.4" y1="480.65" x2="395.13" y2="478.06"/><line class="uuid-5ac50f8a-6b3d-459b-9f7c-e2e49936e76c" x1="410.05" y1="482.39" x2="390" y2="486.28"/><line class="uuid-5ac50f8a-6b3d-459b-9f7c-e2e49936e76c" x1="411.01" y1="483.13" x2="405.24" y2="499.76"/><line class="uuid-5ac50f8a-6b3d-459b-9f7c-e2e49936e76c" x1="410.43" y1="482.84" x2="387.37" y2="499.41"/></g></g></g><path class="uuid-5ac50f8a-6b3d-459b-9f7c-e2e49936e76c" d="m477.9,426.07h0c-.62-4.79-20.55-1.28-53.98,25.69-33.41,26.94-37.41,45.67-34.1,47.26,7.15,2.33,27.31-5.65,53.25-28.79,24.07-21.47,34.26-35.41,34.9-42.4,0-.73,0-1.33-.07-1.76h0Z"/></g></g><path class="uuid-4e5a8a5f-577b-4228-8ffe-283c3c5a70f5" d="m409.66,422.54s-3.89,5.28-6.92,15.26"/><g><path class="uuid-4e5a8a5f-577b-4228-8ffe-283c3c5a70f5" d="m395.76,408.5c-4.48,2-8.37,4.59-11.44,6.66-3.07,2.07-6.53-1.91-2.41-4.51s9.11-5.45,11.6-6.1c2.49-.65,5.23,2.62,2.24,3.95h0Z"/><path class="uuid-4e5a8a5f-577b-4228-8ffe-283c3c5a70f5" d="m403.92,416.93c-4.48,2-8.37,4.59-11.44,6.66-3.07,2.07-6.53-1.91-2.41-4.51s9.11-5.45,11.6-6.1c2.49-.65,5.23,2.62,2.24,3.95h0Z"/><path class="uuid-4e5a8a5f-577b-4228-8ffe-283c3c5a70f5" d="m410.49,425.27c-4.48,2-7.42,3.94-10.49,6.02-3.07,2.07-6.53-1.91-2.41-4.51s9.11-5.45,11.6-6.1c.47.81.96,3.15,1.3,4.6h0Z"/><path class="uuid-4e5a8a5f-577b-4228-8ffe-283c3c5a70f5" d="m418.62,414.25s-3.47-2.43-7.84,1.01c-6.17,4.87-5.22,12.96-4.76,15.89s5.3,2.08,5.02-1.51c-.6-7.7.9-9.81,1.7-11.03,2.29-2.02,5.88-4.36,5.88-4.36h0Z"/><path class="uuid-4e5a8a5f-577b-4228-8ffe-283c3c5a70f5" d="m431.11,408.11s-3.34-2.85-8.09.24c-6.73,4.36-6.45,12.77-6.24,15.82.21,3.06,5.24,2.68,5.26-1.04.05-7.97,2.38-11.55,3.3-12.71,1.81-.89,5.78-2.31,5.78-2.31Z"/></g><g><circle cx="434.88" cy="410.61" r="1.01"/><circle cx="440.59" cy="410.07" r="1.01"/><circle cx="440" cy="413.7" r="1.01"/><circle cx="446.55" cy="410.14" r="1.01"/></g></g></g></g></svg>
<svg id="uuid-7eb5044b-fa94-461c-9907-85b3dc64ac7e" data-name="BODY" xmlns="http://www.w3.org/2000/svg" viewBox="0 0 600 600"><defs><style>
      .uuid-87397e4f-7e3d-490c-b43b-0db3bec0377c {
        stroke-miterlimit: 10;
      }

      .uuid-87397e4f-7e3d-490c-b43b-0db3bec0377c, .uuid-179c102d-ff8a-46ca-913c-1d5c9e7a9cc5, .uuid-81fb7240-34aa-4204-83f9-daaedb437d29 {
        stroke: #000;
        stroke-width: 2px;
      }

      .uuid-87397e4f-7e3d-490c-b43b-0db3bec0377c, .uuid-81fb7240-34aa-4204-83f9-daaedb437d29 {
        fill: #00dfa9;
      }

      .uuid-179c102d-ff8a-46ca-913c-1d5c9e7a9cc5 {
        fill: #00dea8;
      }

      .uuid-179c102d-ff8a-46ca-913c-1d5c9e7a9cc5, .uuid-81fb7240-34aa-4204-83f9-daaedb437d29 {
        stroke-linecap: round;
        stroke-linejoin: round;
      }
    </style></defs><g id="uuid-0a79d125-2460-4fad-b66e-ec883e358a37" data-name="cloath"><path class="uuid-87397e4f-7e3d-490c-b43b-0db3bec0377c" d="m475.37,333.6l-.67.23-18.19,6.17c-2.14.72-4.45.71-6.59-.02l-14.53-5.13-.84-.31c-1.28,9.01-3.34,22.43-5.9,35.7,8.27,3.18,17.18,6.45,23.95,8.54,2.11.65,4.41.69,6.5-.04,8.64-2.99,19.91-7.72,27.11-10-5.49-14.17-8.97-27.13-10.85-35.15Z"/><path class="uuid-179c102d-ff8a-46ca-913c-1d5c9e7a9cc5" d="m389.96,395.83c.5,4.15.99,8.37,1.44,12.46,11.91,13.09,18.41,19.44,18.41,19.44,0,0,2.52-4.53,7.85-9,2.33-9.7,5.36-22.52,8.28-35.44,5.93-26.21,10.09-59.65,10.09-59.65l-58.59,43.63s9.92,7.1,12.53,28.55Z"/><path class="uuid-179c102d-ff8a-46ca-913c-1d5c9e7a9cc5" d="m229.38,322.79c-22.2-11.38-65.51-50.43-65.51-50.43,0,0-16.23,68.13-9.71,140.58,2.57,1.21,5.13,2.38,7.68,3.52,2.63-1.94,4.79-2.09,4.79-2.09,0,0,5.41-21.77,8.55-33.44.57-2.14,1.73-4.09,3.39-5.55,10.18-8.88,27.47-23.84,35.52-29.67l23.09,23.85-29.38,24.3c-1.75,1.43-2.97,3.39-3.49,5.59l-6.17,23.11c8.2-.97,13.79,4.99,14.82,12.21,66.61,18.53,119.01,13.83,119.01,13.83,0,0,18.43-66.82,37.77-80.41-68.91-16.49-81.39-15.13-140.38-45.38Z"/><path class="uuid-81fb7240-34aa-4204-83f9-daaedb437d29" d="m219.04,338.63c-8.05,5.83-31.04,24.25-41.22,33.13-1.67,1.45-2.82,3.41-3.39,5.55-1.89,7.03-4.6,17.71-6.46,25.1,3.49.59,9.59,2.09,17.16,5.88s15.2,7.66,19.3,9.74l4.87-18.24c.51-2.2,1.74-4.16,3.49-5.59l28.69-22.43"/><circle class="uuid-179c102d-ff8a-46ca-913c-1d5c9e7a9cc5" cx="173.5" cy="387.84" r="8.9"/><g><path class="uuid-179c102d-ff8a-46ca-913c-1d5c9e7a9cc5" d="m365.71,370.05c0-2.38.94-4.54,2.47-6.14-36.47-3.56-107.71-32.49-135.31-50.98-29.4-19.7-64.67-54.67-64.67-54.67,0,0-7.58,4.34-6.36,23.82,16.08,31.85,61.46,83.03,61.46,83.03l53.91-16.78-7.39,45.48s33.27-4.01,54.62-9.13c19.17-4.59,35.64-8.53,42.39-10.31-.71-1.28-1.12-2.75-1.12-4.32Z"/><path class="uuid-179c102d-ff8a-46ca-913c-1d5c9e7a9cc5" d="m438.28,298.43s-9.6,21.32-26.38,38.85c-9.15,9.56-25.57,20.93-32.29,25.42,2.34,1.6,3.88,4.29,3.88,7.35,0,1.17-.23,2.29-.64,3.31,10.42-2.02,33.64-8.21,49.69-25.01,8.17-22.96,5.74-49.91,5.74-49.91Z"/><circle class="uuid-179c102d-ff8a-46ca-913c-1d5c9e7a9cc5" cx="374.6" cy="370.05" r="8.9"/></g><path d="m436.13,335.09c-.88,4.42-2.04,8.91-3.59,13.26-.03.03-.06.06-.09.09-1.08,6.81-2.37,14.4-3.83,21.93,2.65.99,5.17,1.94,7.4,2.76,3.26-12,5.61-23.22,7.96-35.22l-7.85-2.83Z"/><path d="m207.37,394.72l34.83-22.3-38.87,49.43c-1.04-.39-2.74-.39-3.99-.28,2.43-8.59,6.17-23.11,8.04-26.85Z"/></g></svg>
<svg id="uuid-55ecc028-236b-4107-a473-b463f673f86d" data-name="BODY" xmlns="http://www.w3.org/2000/svg" xmlns:xlink="http://www.w3.org/1999/xlink" viewBox="0 0 600 600"><defs><style>
      .uuid-f7cf47f1-387c-40c0-8451-efa3e1f48bb3, .uuid-6ab753ec-842d-4635-8bda-4f11118cf21d, .uuid-e45dda09-b6fd-469a-8eb9-5847bc51013b, .uuid-b4015b0b-b5a2-4504-ab5f-b3dc7c0f0bea, .uuid-b1a063f9-d398-49ac-8717-dedd55fd17c7 {
        fill: none;
      }

      .uuid-6ab753ec-842d-4635-8bda-4f11118cf21d {
        clip-path: url(#uuid-cd30974c-211b-420c-b621-0d4b41918d4b);
      }

      .uuid-e45dda09-b6fd-469a-8eb9-5847bc51013b {
        clip-path: url(#uuid-0ad76e5b-fc91-46c9-818d-ed4d146208f8);
      }

      .uuid-8a193521-0ef5-4407-9ee8-bb4ebcd57992, .uuid-acba282c-cbdd-4fe6-aee3-1b2aaa578edb, .uuid-d76bb13e-79ef-4d22-868e-758f3fc81ba4, .uuid-7ca8cd12-c4ef-474d-b7e8-9ac616bc8090, .uuid-53cbd553-6925-4261-892e-503624ed011f, .uuid-8318a3fb-8d6a-4db7-b071-a15a473496d3, .uuid-93feedb8-91e3-42a2-bd0a-197c246fdb2b, .uuid-aa1376c1-8f7a-4198-be7e-f0dfeb7eba4b, .uuid-b4015b0b-b5a2-4504-ab5f-b3dc7c0f0bea, .uuid-b1a063f9-d398-49ac-8717-dedd55fd17c7 {
        stroke: #000;
        stroke-linecap: round;
        stroke-linejoin: round;
      }

      .uuid-8a193521-0ef5-4407-9ee8-bb4ebcd57992, .uuid-acba282c-cbdd-4fe6-aee3-1b2aaa578edb, .uuid-124c2ab5-3017-4aff-88c5-916403019659 {
        fill: #7aa6ff;
      }

      .uuid-8a193521-0ef5-4407-9ee8-bb4ebcd57992, .uuid-7ca8cd12-c4ef-474d-b7e8-9ac616bc8090, .uuid-53cbd553-6925-4261-892e-503624ed011f, .uuid-93feedb8-91e3-42a2-bd0a-197c246fdb2b, .uuid-b4015b0b-b5a2-4504-ab5f-b3dc7c0f0bea {
        stroke-width: 2px;
      }

      .uuid-acba282c-cbdd-4fe6-aee3-1b2aaa578edb, .uuid-8318a3fb-8d6a-4db7-b071-a15a473496d3, .uuid-aa1376c1-8f7a-4198-be7e-f0dfeb7eba4b, .uuid-b1a063f9-d398-49ac-8717-dedd55fd17c7 {
        stroke-width: 2px;
      }

      .uuid-d76bb13e-79ef-4d22-868e-758f3fc81ba4 {
        stroke-width: 2px;
      }

      .uuid-d76bb13e-79ef-4d22-868e-758f3fc81ba4, .uuid-7ca8cd12-c4ef-474d-b7e8-9ac616bc8090 {
        fill: #8400ff;
      }

      .uuid-66f64252-28db-40bd-8f2c-f28f22893256 {
        fill: #fff7f0;
      }

      .uuid-53cbd553-6925-4261-892e-503624ed011f, .uuid-8318a3fb-8d6a-4db7-b071-a15a473496d3 {
        fill: #a07bff;
      }

      .uuid-93feedb8-91e3-42a2-bd0a-197c246fdb2b, .uuid-aa1376c1-8f7a-4198-be7e-f0dfeb7eba4b {
        fill: #00dfa9;
      }
    </style><clipPath id="uuid-0ad76e5b-fc91-46c9-818d-ed4d146208f8"><rect class="uuid-f7cf47f1-387c-40c0-8451-efa3e1f48bb3" x="16.46" y="333.04" width="288" height="266.96"/></clipPath><clipPath id="uuid-cd30974c-211b-420c-b621-0d4b41918d4b"><rect class="uuid-f7cf47f1-387c-40c0-8451-efa3e1f48bb3" x="184.41" y="448.21" width="13.5" height="71.81" transform="translate(-328.3 516.71) rotate(-72.04)"/></clipPath></defs><g id="uuid-c271d4e6-0ed9-43ec-a6eb-586182258769" data-name="uuid-aa1a3761-725c-4c6a-bb08-3b927dabb1b6"><g class="uuid-e45dda09-b6fd-469a-8eb9-5847bc51013b"><g><g><polygon class="uuid-8a193521-0ef5-4407-9ee8-bb4ebcd57992" points="91.61 442.3 86.94 440.79 114.36 362.08 115.56 362.47 91.61 442.3"/><circle class="uuid-8a193521-0ef5-4407-9ee8-bb4ebcd57992" cx="114.96" cy="362.27" r="3.66"/></g><g><path class="uuid-53cbd553-6925-4261-892e-503624ed011f" d="m250.78,490.94l-162.48-40.18c-2.64-.86-5.48.59-6.33,3.23l-6.05,18.67c-.86,2.64.59,5.48,3.23,6.33l168.95,54.76c2.64.86,5.48-.59,6.33-3.23l6.05-18.67c.45-1.38.27-2.81-.38-3.98-.6-1.08-8.05-16.51-9.32-16.92h0Z"/><path class="uuid-aa1376c1-8f7a-4198-be7e-f0dfeb7eba4b" d="m80.92,435.35l167.79,54.38c2.96.96,4.58,4.14,3.62,7.1l-7.41,22.87-178.52-57.86,7.41-22.87c.96-2.96,4.14-4.58,7.1-3.62Z"/><g><polygon class="uuid-53cbd553-6925-4261-892e-503624ed011f" points="144.41 476.06 94.59 459.91 105.57 449.28 155.39 465.42 144.41 476.06"/><g><line class="uuid-b4015b0b-b5a2-4504-ab5f-b3dc7c0f0bea" x1="126.49" y1="470.25" x2="137.47" y2="459.61"/><line class="uuid-b4015b0b-b5a2-4504-ab5f-b3dc7c0f0bea" x1="119.33" y1="467.93" x2="130.31" y2="457.3"/><line class="uuid-b4015b0b-b5a2-4504-ab5f-b3dc7c0f0bea" x1="112.52" y1="465.72" x2="123.5" y2="455.09"/></g></g><g><rect class="uuid-124c2ab5-3017-4aff-88c5-916403019659" x="184.41" y="448.21" width="13.5" height="71.81" transform="translate(-328.3 516.71) rotate(-72.04)"/><g class="uuid-6ab753ec-842d-4635-8bda-4f11118cf21d"><g><polygon class="uuid-66f64252-28db-40bd-8f2c-f28f22893256" points="210.04 497.33 194.4 492.26 205.38 481.62 221.02 486.69 210.04 497.33"/><polygon class="uuid-66f64252-28db-40bd-8f2c-f28f22893256" points="187.58 490.05 179.76 487.51 190.74 476.88 198.56 479.41 187.58 490.05"/><polygon class="uuid-66f64252-28db-40bd-8f2c-f28f22893256" points="165.85 483 161.25 481.51 172.23 470.88 176.83 472.37 165.85 483"/></g></g><rect class="uuid-b1a063f9-d398-49ac-8717-dedd55fd17c7" x="184.41" y="448.21" width="13.5" height="71.81" transform="translate(-328.3 516.71) rotate(-72.04)"/></g><g><line class="uuid-b4015b0b-b5a2-4504-ab5f-b3dc7c0f0bea" x1="78.63" y1="440.55" x2="93.51" y2="445.37"/><line class="uuid-b4015b0b-b5a2-4504-ab5f-b3dc7c0f0bea" x1="74.47" y1="453.39" x2="89.35" y2="458.21"/><line class="uuid-b4015b0b-b5a2-4504-ab5f-b3dc7c0f0bea" x1="76.55" y1="446.97" x2="91.43" y2="451.79"/></g><g><line class="uuid-b4015b0b-b5a2-4504-ab5f-b3dc7c0f0bea" x1="232.2" y1="490.32" x2="247.07" y2="495.14"/><line class="uuid-b4015b0b-b5a2-4504-ab5f-b3dc7c0f0bea" x1="228.03" y1="503.16" x2="242.91" y2="507.98"/><line class="uuid-b4015b0b-b5a2-4504-ab5f-b3dc7c0f0bea" x1="230.12" y1="496.74" x2="244.99" y2="501.56"/></g></g><g><path class="uuid-7ca8cd12-c4ef-474d-b7e8-9ac616bc8090" d="m232.92,608.52l-188.32-61.03c-.83-.27-1.47-.85-1.83-1.56s-6.8-12.03-6.53-12.86l30.07-62.74c.54-1.65,2.31-2.56,3.96-2.02l183.3,49.39c.76.25,6.38,12.41,6.76,13.05.44.75.57,1.67.28,2.56l-23.72,73.19c-.54,1.65-2.31,2.56-3.96,2.02h0Z"/><rect class="uuid-8318a3fb-8d6a-4db7-b071-a15a473496d3" x="103.55" y="423.69" width="83.23" height="204.26" rx="3.15" ry="3.15" transform="translate(-399.79 501.8) rotate(-72.04)"/><line class="uuid-b4015b0b-b5a2-4504-ab5f-b3dc7c0f0bea" x1="235.39" y1="608.29" x2="228.96" y2="595.7"/></g><g><circle class="uuid-8a193521-0ef5-4407-9ee8-bb4ebcd57992" cx="85.25" cy="506.4" r="31.66"/><circle class="uuid-93feedb8-91e3-42a2-bd0a-197c246fdb2b" cx="85.25" cy="506.4" r="24.87"/><circle class="uuid-b4015b0b-b5a2-4504-ab5f-b3dc7c0f0bea" cx="86.2" cy="506.71" r="19.13"/><circle class="uuid-7ca8cd12-c4ef-474d-b7e8-9ac616bc8090" cx="87.39" cy="507.09" r="6.32"/></g><g><circle class="uuid-8a193521-0ef5-4407-9ee8-bb4ebcd57992" cx="203.53" cy="544.73" r="31.66"/><circle class="uuid-93feedb8-91e3-42a2-bd0a-197c246fdb2b" cx="203.53" cy="544.73" r="24.87"/><circle class="uuid-b4015b0b-b5a2-4504-ab5f-b3dc7c0f0bea" cx="204.48" cy="545.04" r="19.13"/><circle class="uuid-7ca8cd12-c4ef-474d-b7e8-9ac616bc8090" cx="205.67" cy="545.43" r="6.32"/></g><g><g><rect class="uuid-b1a063f9-d398-49ac-8717-dedd55fd17c7" x="148.01" y="499.61" width="7.15" height="12.83" transform="translate(-376.53 494.21) rotate(-72.04)"/><circle class="uuid-b4015b0b-b5a2-4504-ab5f-b3dc7c0f0bea" cx="138.27" cy="501.71" r="3.57"/><circle class="uuid-b4015b0b-b5a2-4504-ab5f-b3dc7c0f0bea" cx="164.89" cy="510.34" r="3.57"/></g><rect class="uuid-b1a063f9-d398-49ac-8717-dedd55fd17c7" x="138.18" y="482.66" width="26.81" height="46.72" rx="3.97" ry="3.97" transform="translate(-376.53 494.21) rotate(-72.04)"/></g><g><polygon class="uuid-7ca8cd12-c4ef-474d-b7e8-9ac616bc8090" points="157.51 563.5 113.06 549.1 109.84 542.79 121.33 523.59 162.56 531.69 165.78 538 157.51 563.5"/><rect class="uuid-acba282c-cbdd-4fe6-aee3-1b2aaa578edb" x="122.8" y="513.88" width="26.81" height="46.72" transform="translate(-416.86 501.17) rotate(-72.04)"/><polyline class="uuid-b4015b0b-b5a2-4504-ab5f-b3dc7c0f0bea" points="127.51 553.78 124.28 547.45 132.54 521.96"/><polyline class="uuid-b4015b0b-b5a2-4504-ab5f-b3dc7c0f0bea" points="142.78 558.73 139.55 552.4 147.81 526.91"/><line class="uuid-b4015b0b-b5a2-4504-ab5f-b3dc7c0f0bea" x1="154.29" y1="557.19" x2="157.51" y2="563.5"/></g><path class="uuid-53cbd553-6925-4261-892e-503624ed011f" d="m245.96,586.54c-.21.07-5.45.56-5.62.5-2.11-.68-.82-10.51,2.89-21.95,3.71-11.44,8.43-20.16,10.54-19.47.1.03,4.15,3.73,4.23,3.8,1.73,1.42-9.72,36.37-12.03,37.12h0Z"/><ellipse class="uuid-d76bb13e-79ef-4d22-868e-758f3fc81ba4" cx="252" cy="567.93" rx="19.46" ry="4.02" transform="translate(-365.96 632.55) rotate(-72.04)"/><g><path class="uuid-53cbd553-6925-4261-892e-503624ed011f" d="m152.45,436.42s.66-2.76,1.4-5.54,1.09-4.12,1.09-4.12c0,0-5.88-2.19-9.8-3.46-3.92-1.27-6.41-1.17-9.39,1.94-2.97,3.11-15.92,22.72-15.92,22.72l15.96,5.17s5.87-11.48,7.58-14.75,3.7-3.7,9.07-1.96h0Z"/><path class="uuid-7ca8cd12-c4ef-474d-b7e8-9ac616bc8090" d="m152.45,436.42s.5-2.1,1.12-4.48c-2.12-.62-4.79-1.37-5.52-1.61-2.23-.72-4.92-2.05-9.31,5.29-3.09,5.15-7.16,11.9-9.31,15.45h0l6.37,2.06s5.87-11.48,7.58-14.75c1.71-3.27,3.7-3.7,9.07-1.96Z"/></g><g><path class="uuid-53cbd553-6925-4261-892e-503624ed011f" d="m194.13,449.15s.25-2.82,1.22-4.81c1.13-2.3,2.73-3.64,2.73-3.64,0,0,24.75,7.78,28.66,9.04,3.92,1.27,5.88,2.81,6.46,7.08s-.43,27.74-.43,27.74l-15.96-5.17s1.99-12.74,2.51-16.4c.24-1.66.18-2.89-.46-3.9-.31-.49-.76-.93-1.38-1.34-.91-.6-21.63-8.04-23.37-8.61h0Z"/><path class="uuid-7ca8cd12-c4ef-474d-b7e8-9ac616bc8090" d="m233.21,456.83c-.58-4.26-2.55-5.81-6.46-7.08l-1.83-.59c7.01,2.27,2.46,33.66,2.46,33.66l5.4,1.75s1.02-23.47.43-27.74h0Z"/><path class="uuid-7ca8cd12-c4ef-474d-b7e8-9ac616bc8090" d="m218.87,459.1c.39.62.55,1.34.57,2.18.05-2.37-.14-7.25-2.42-7.99-2.34-.76-16.13-5.17-22.32-7.15-.43,1.56-.56,3.02-.56,3.02,1.74.56,22.46,8,23.37,8.61.62.41,1.07.85,1.38,1.34h0Z"/></g></g></g></g></svg>
<svg id="uuid-a434a263-1d52-419b-9f08-c2e050f7b089" data-name="BODY" xmlns="http://www.w3.org/2000/svg" viewBox="0 0 600 600"><defs><style>
      .uuid-3fe757a2-f884-4021-8b90-a2fb836a0d83 {
        fill: #7aa6ff;
      }

      .uuid-3fe757a2-f884-4021-8b90-a2fb836a0d83, .uuid-0535e5fd-e169-42bb-9b3a-04ea61531b11, .uuid-b5b40eee-3492-4a40-8cdf-74f0932ec0ba, .uuid-813fd1ba-5c6f-412d-b3d0-bab0da44157c {
        stroke: #000;
        stroke-linecap: round;
        stroke-linejoin: round;
        stroke-width: 2px;
      }

      .uuid-0535e5fd-e169-42bb-9b3a-04ea61531b11 {
        fill: #ffc9f1;
      }

      .uuid-b5b40eee-3492-4a40-8cdf-74f0932ec0ba {
        fill: none;
      }

      .uuid-813fd1ba-5c6f-412d-b3d0-bab0da44157c {
        fill: #f9a723;
      }
    </style></defs><g id="uuid-4d71603c-b588-4e7e-bdcb-85f6e7a816db" data-name="uuid-e739bccc-2d2c-4a63-b977-7b31664c2716"><g id="uuid-63e5130d-7ae7-4f0d-8331-573e75af8b15" data-name="uuid-af806a75-da6f-4a25-9368-44a11c35c8fd"><g><path class="uuid-3fe757a2-f884-4021-8b90-a2fb836a0d83" d="m494.29,225.3c-2.32-.72-4.21,6.13-13.6,5.3-9.38-.83-9.83-5.81-9.83-5.81,0,0-5.94-3.89-2.62-11.49-1.79-7.91,2.19-10.35,3.32-20.49.45-4.02-4.6-11.68-14.43-22.02s-36.38-40.72-39.7-44.94c.77-3.06,2.78-5.7,2.78-5.7l8.76,8.43-9.24-20.82s2.25-3.06,4.07-3.83c2.68,6.03,18.96,38.92,18.96,38.92l-9.94-38.92,5.94-2.65,2.23,7.34,3.89-1.15-.51-2.68,5.23-2.62-.57-6.13s4.4-3.13,6.83-3.83c-.19,3.26,1.72,14.36,1.72,14.36,0,0,1.34-14.68,1.85-17.62,2.04-.89,7.02-.32,7.02-.32l-1.34,6.77,6.51,1.66-.67-10.88,8.36-.32s1.44,31.05,5.01,44.71c-1.66-19.53-.51-49.28-.51-49.28l9.26,1.53s-.45,6.89-.32,13.28c2.3-.13,5.68-.57,5.68-.57,0,0,.89,9.83,1.28,13.91,1.79-9.7,4.09-16.28,4.09-16.28l7.02,2.62s3.26-8.36,6.89-12.32c2.43,1.91,5.23,4.15,5.23,4.15,0,0-3.19,5.81-4.53,9,2.36,1.02,5.43,2.87,5.43,2.87,0,0,1.28-2.65,2.78-4.12,1.85,1.05,4.15,3.19,4.15,3.19,0,0-5.33,11.39-8.78,23.55,8.04-17.14,17.14-25.66,17.14-25.66l4.6,4.31s-11.87,11.2-22.98,39.35c-11.11,28.15-13.24,43.12-13.63,46.44s8.68,7.79,7.66,17.62c6.45,6.7-.19,13.34-.19,13.34,0,0-2.68,13.28-20.3,7.79h0Z"/><g><path class="uuid-b5b40eee-3492-4a40-8cdf-74f0932ec0ba" d="m482.13,224.79c4.71-1.23,10.45-8.61,9.8-7.79-1.18,1.48,6,2.6,12.21,2.29"/><path class="uuid-b5b40eee-3492-4a40-8cdf-74f0932ec0ba" d="m477.18,211.73s4.95,6.82,15.21,5.21c8.12-1.27,10.2-9,10.2-9"/><path class="uuid-b5b40eee-3492-4a40-8cdf-74f0932ec0ba" d="m508.23,211.03s-9.22,7.59-15.6,7.24-4.79.13-4.79.13c0,0-5.33,2.44-10.27,1.43"/></g><path class="uuid-813fd1ba-5c6f-412d-b3d0-bab0da44157c" d="m485.92,216.91s2.23,6.29,2.49,12.99-.51,23.59,5.14,41.68c5.65,18.1,6,39.32,6,39.32,0,0,4.59,1.38,8.25,4.84,2.54-3.11,5.38-4.92,5.38-4.92,0,0,.25-16.84-4.6-25.52-4.85-8.68-8.23-33.54-8.14-47.43s-.29-17.01-2.49-22.72c-1.28.61-3.86,1.63-6.03,1.85-3.89.4-6-.1-6-.1h0Z"/><path class="uuid-813fd1ba-5c6f-412d-b3d0-bab0da44157c" d="m508.18,326.79s2.21,2.33,6.18,3.14c-5.99,8.88-1.02,12.88,2.29,14.51-6.85,3.78-9.87,14.07,3.82,18.76,3.11,10.72.18,14.84,4.65,27.8s7.15,12.83,8.55,22.34,3.26,18.83,3.64,21.19.96,9.77-8.55,9.77-10.79-4.66-11.3-7.21-.32-17.94-1.6-26.04c-1.28-8.11-4.18-11.04-6.94-25.47-2.76-14.43-1.74-19.28-3.4-27.38s-1.25-18.81-4.85-27.12c5.47-.35,7.52-4.29,7.52-4.29h0Z"/><path class="uuid-b5b40eee-3492-4a40-8cdf-74f0932ec0ba" d="m537.47,435.69c-.61-3.66-4.22-2.37-6.86-.77-6.94,4.21-13.43,2.37-11.31,6.28"/><path class="uuid-b5b40eee-3492-4a40-8cdf-74f0932ec0ba" d="m523.85,443.76c5.23.94,9.61-3.48,9.39-4.75s-6.34,1.51-6.34,1.51"/><path class="uuid-b5b40eee-3492-4a40-8cdf-74f0932ec0ba" d="m531.13,434.62s-2.88-21.15-3.78-25.42c-.89-4.28-6.7-18-6.7-18"/><path class="uuid-b5b40eee-3492-4a40-8cdf-74f0932ec0ba" d="m518.73,385.19c-2.87-10.4-3.06-23.58-3.06-23.58"/><path class="uuid-b5b40eee-3492-4a40-8cdf-74f0932ec0ba" d="m523.85,437.62c-.33-14.06-2.69-29.95-2.69-29.95"/><path class="uuid-b5b40eee-3492-4a40-8cdf-74f0932ec0ba" d="m519.5,400.96c-2.81-8.43-4.98-10.15-7.02-21.83-2.04-11.68-2.23-23.36-2.94-30.83-.7-7.47-2.67-19.17-2.67-19.17"/><path class="uuid-b5b40eee-3492-4a40-8cdf-74f0932ec0ba" d="m503.75,312.45c.33-14.07-4.11-34.08-4.11-34.08"/><path class="uuid-b5b40eee-3492-4a40-8cdf-74f0932ec0ba" d="m505.65,277.64c1.3,12.7,3.81,35.61,3.81,35.61"/><path class="uuid-b5b40eee-3492-4a40-8cdf-74f0932ec0ba" d="m498.15,271c-2.01-9.86-3.73-13.12-4.12-21.26-.35-7.43.56-20.8-2.41-32.72"/><g><path class="uuid-b5b40eee-3492-4a40-8cdf-74f0932ec0ba" d="m440.99,108.62c3.34,13.07,11.99,43.41,16.25,53.29"/><path class="uuid-b5b40eee-3492-4a40-8cdf-74f0932ec0ba" d="m428.97,128.58c4.73,11.1,9.01,19.81,12.02,24.4"/><path class="uuid-b5b40eee-3492-4a40-8cdf-74f0932ec0ba" d="m442.76,142.85c4.42,7.61,13.36,18.27,18.74,24.15,5.39,5.88,15.92,18.49,16.9,21.43.98,2.94-2.94,8.2-2.2,15.67"/><path class="uuid-b5b40eee-3492-4a40-8cdf-74f0932ec0ba" d="m482.93,200.18c-1.96-4.29-.24-15.06-.61-16.53s-19.49-42.63-24.74-77.07"/><path class="uuid-b5b40eee-3492-4a40-8cdf-74f0932ec0ba" d="m465.12,95.41c-2.1,8.11,2.94,28.41,9.31,50.93,6.37,22.52,11.5,38.08,11.5,38.08"/><path class="uuid-b5b40eee-3492-4a40-8cdf-74f0932ec0ba" d="m484.33,130.58c.91,18.43,5.52,49.55,7.29,53.84,1.77,4.3,3.4,2.67,4.44,11.71"/><path class="uuid-b5b40eee-3492-4a40-8cdf-74f0932ec0ba" d="m503.61,201.61c.44-9.78-5.78-15.41-6.52-19.56s-4.68-64.61-4.34-85.94"/><path class="uuid-b5b40eee-3492-4a40-8cdf-74f0932ec0ba" d="m499.71,109.45c-3.36,15.55-5.34,33.4-5.34,33.4"/><path class="uuid-b5b40eee-3492-4a40-8cdf-74f0932ec0ba" d="m510.82,95.79c-6.76,15.29-8.98,41.66-8.54,51.88s-2.57,34.97-2.57,34.97"/><path class="uuid-b5b40eee-3492-4a40-8cdf-74f0932ec0ba" d="m521.99,122.12c-13.19,30.3-19.71,60.52-19.71,60.52"/><path class="uuid-b5b40eee-3492-4a40-8cdf-74f0932ec0ba" d="m523.84,99.49c-9.56,16.47-14.45,41.29-14.45,41.29"/><path class="uuid-b5b40eee-3492-4a40-8cdf-74f0932ec0ba" d="m518.41,96.62c-10.8,24.68-8.44,56.1-12.06,70.04"/><path class="uuid-b5b40eee-3492-4a40-8cdf-74f0932ec0ba" d="m471.63,97.07c1.07,20.23,4.06,54.19,7.75,66.29"/><path class="uuid-b5b40eee-3492-4a40-8cdf-74f0932ec0ba" d="m449.61,102.17c3.9,28.91,18.97,72.4,25.67,81.36"/><path class="uuid-b5b40eee-3492-4a40-8cdf-74f0932ec0ba" d="m444.88,107.47c4.22,17.93,18.31,61.4,18.31,61.4"/><path class="uuid-b5b40eee-3492-4a40-8cdf-74f0932ec0ba" d="m514.58,217.51c-2.72,2.32-5.81,1.7-5.81,1.7"/><path class="uuid-b5b40eee-3492-4a40-8cdf-74f0932ec0ba" d="m470.86,224.79c3.39,2.38,8.02,1.15,8.02,1.15"/><path class="uuid-b5b40eee-3492-4a40-8cdf-74f0932ec0ba" d="m468.24,213.3c.83,3.06,4.92,5.1,4.92,5.1"/><path class="uuid-b5b40eee-3492-4a40-8cdf-74f0932ec0ba" d="m514.78,204.17c-.72,1.71-2.33,3.46-2.33,3.46"/></g><path class="uuid-0535e5fd-e169-42bb-9b3a-04ea61531b11" d="m470.71,197.7s-3.87.25-4.06-4.68c-.19-4.93,2.75-10.33,21.6-12.32,18.86-1.99,23.81,2.18,24.26,5.31.44,3.13-1.69,6.44-1.69,6.44,0,0-3.14-3.27-3.61-5.05-22.88-2.09-32.37,2.81-35.64,5.41,0,0-.25,2.65-.86,4.89h0Z"/></g></g></g></svg>
<svg id="uuid-b435763a-c472-44da-a67a-e9e837fe0ccc" data-name="BODY" xmlns="http://www.w3.org/2000/svg" viewBox="0 0 600 600"><defs><style>
      .uuid-4a0441b6-000c-4e7a-abf1-7c702da6f88d {
        fill: #7aa6ff;
      }

      .uuid-4a0441b6-000c-4e7a-abf1-7c702da6f88d, .uuid-c6cdb512-b792-458d-9ced-5ea59dfaeca5, .uuid-6d94cb51-a65b-4f8c-a1b1-406de2803bfa, .uuid-ae63226a-9b36-45a3-82d1-fbc4c564cf5c {
        stroke: #000;
        stroke-linecap: round;
        stroke-linejoin: round;
      }

      .uuid-4a0441b6-000c-4e7a-abf1-7c702da6f88d, .uuid-6d94cb51-a65b-4f8c-a1b1-406de2803bfa, .uuid-ae63226a-9b36-45a3-82d1-fbc4c564cf5c {
        stroke-width: 2px;
      }

      .uuid-aa825ba1-e97a-4699-b196-07d41c01d80a {
        fill: #3ef1ff;
      }

      .uuid-c6cdb512-b792-458d-9ced-5ea59dfaeca5 {
        stroke-width: 2px;
      }

      .uuid-c6cdb512-b792-458d-9ced-5ea59dfaeca5, .uuid-6d94cb51-a65b-4f8c-a1b1-406de2803bfa {
        fill: #fff7f0;
      }

      .uuid-ae63226a-9b36-45a3-82d1-fbc4c564cf5c {
        fill: none;
      }
    </style></defs><g id="uuid-d21cdb81-6d30-4aee-95e2-0cd1953e30cb" data-name="uuid-0ddaaa68-545c-4eb2-a737-12a968a2ee61"><g id="uuid-6584a94e-1531-4cce-8f9d-343e3ee22826" data-name="uuid-0f5b18c2-d5c6-4aaa-8f08-473e1121eb23"><g id="uuid-0d2b73fa-9296-464b-8ccd-8fb51db96085" data-name="uuid-bf236e71-ae9d-44b4-a6ab-50816829c233"><path class="uuid-6d94cb51-a65b-4f8c-a1b1-406de2803bfa" d="m144.15,313.8c-.28-3.84-.43-7.72-.43-11.63,0-86.31,69.97-156.28,156.28-156.28,74.78,0,137.3,52.53,152.66,122.7-32.23,51.24-213.13,84.28-308.51,45.21h0Z"/><path class="uuid-6d94cb51-a65b-4f8c-a1b1-406de2803bfa" d="m143.99,310.94c-9.53-4.06-13.98,9.29-1.3,14.86,12.68,5.57,83.63,25.81,187.61,8.37,80.49-13.5,118.49-44.98,126.94-54.88,8.45-9.9-1.85-16.86-5.17-13.23s-33.72,42.11-135.39,56.99c-105.24,15.4-165.43-9.02-172.7-12.11h0Z"/><path class="uuid-4a0441b6-000c-4e7a-abf1-7c702da6f88d" d="m143.72,300s13.04,5.13,29.37,9.21v-15.26s-16.89-3.19-28.48-8.56c0,0-.54,5.84-.89,14.61Z"/><polygon class="uuid-4a0441b6-000c-4e7a-abf1-7c702da6f88d" points="180.37 310.76 180.27 295.65 189.34 297.3 189.82 312.95 180.37 310.76"/><g><path class="uuid-6d94cb51-a65b-4f8c-a1b1-406de2803bfa" d="m247.79,316.97c-2.24-.97-4.61-1.19-6.84-.76-3.67.7-14.16,5.28-15.76,8.97-2.57,5.92,7.37,10.68,13.29,13.25l18.96,14.57,7.65-3.02,9.31-21.46-26.61-11.55h0Z"/><rect class="uuid-c6cdb512-b792-458d-9ced-5ea59dfaeca5" x="237.1" y="321.98" width="23.39" height="29" transform="translate(-158.93 430.74) rotate(-66.54)"/><circle class="uuid-4a0441b6-000c-4e7a-abf1-7c702da6f88d" cx="235.49" cy="330.71" r="11.69"/><circle class="uuid-6d94cb51-a65b-4f8c-a1b1-406de2803bfa" cx="235.49" cy="330.71" r="6.32"/><line class="uuid-ae63226a-9b36-45a3-82d1-fbc4c564cf5c" x1="266.75" y1="331.53" x2="274.4" y2="328.51"/></g><g><path class="uuid-4a0441b6-000c-4e7a-abf1-7c702da6f88d" d="m196.05,231.32s22.08-30.4,74.49-54.02c52.41-23.62,110.53-11.95,110.53-11.95,0,0,21.58,9.91,44.53,37.62,12.56,15.17,22.27,39.78,22.27,39.78,0,0-15.89,36.62-87.54,61.53-71.65,24.91-153.37-9.48-165.47-18.89,0,0,14.75-7.61,13.01-27.92-1.74-20.32-11.82-26.15-11.82-26.15Z"/><g><path class="uuid-aa825ba1-e97a-4699-b196-07d41c01d80a" d="m270.45,186.45c-7.13,2.28-12.08,5.9-12.08,5.9,0,0,1.2,60.27,20.88,108.62,17.33,3.21,36.8.86,36.8.86,0,0-14.89-20.19-28.84-57.27-13.95-37.08-16.77-58.1-16.77-58.1h0Z"/><path class="uuid-aa825ba1-e97a-4699-b196-07d41c01d80a" d="m320.88,172.05s6.01-1.06,9.19-1.06c38.43,41.61,75.68,101.61,75.68,101.61,0,0-31.59,18.62-57.52,23.93,5.89-20.28,7.43-51.51-2.24-76.86-9.67-25.34-25.11-47.62-25.11-47.62Z"/><path class="uuid-aa825ba1-e97a-4699-b196-07d41c01d80a" d="m358.09,169.61c-.26-.22,19.02,1.38,19.02,1.38,0,0,21.01,13.35,35.63,29.48,14.63,16.13,26.76,43.39,26.76,43.39,0,0-6.25,9.75-15.5,16-12.13-32.26-53.54-79.96-65.91-90.24h0Z"/></g><path class="uuid-6d94cb51-a65b-4f8c-a1b1-406de2803bfa" d="m199.82,234.55s23.32-32.08,73.44-54.35c50.12-22.26,115.28-10.61,115.28-10.61,0,0,.28-2.62-6.05-7.12-6.33-4.5-65.2-10.41-111.76,9.97-51.18,22.4-77.67,56.34-77.67,56.34l6.76,5.78h0Z"/><path class="uuid-6d94cb51-a65b-4f8c-a1b1-406de2803bfa" d="m197.61,282.24c44.05,20.53,96.81,34.96,143.03,23.61,32.29-7.93,79.02-28.25,105.89-66.29,0,0,7.43-2.28,6.4,5.15-1.03,7.43-35.45,51.12-109.89,68.47-74.44,17.35-144.78-20.23-153.23-26.72l7.79-4.2h0Z"/></g><g><path class="uuid-6d94cb51-a65b-4f8c-a1b1-406de2803bfa" d="m178.8,283.48l7.38,3.84c2.87,1.49,6.26,1.61,9.22.31,6.25-2.74,15.51-10.14,15.51-29.95s-8.62-26.95-14.84-30.1c-3.27-1.66-7.16-1.54-10.31.32l-6.53,3.86-.43,51.72h0Z"/><ellipse class="uuid-4a0441b6-000c-4e7a-abf1-7c702da6f88d" cx="182.75" cy="257.68" rx="19.2" ry="26.36"/><ellipse class="uuid-6d94cb51-a65b-4f8c-a1b1-406de2803bfa" cx="182.75" cy="257.68" rx="12.45" ry="18.3"/></g></g></g></g></svg>
</svg>