<?xml version="1.0" encoding="UTF-8"?>
<svg xmlns="http://www.w3.org/2000/svg" viewBox="0 0 600 600">
<svg id="uuid-2ea87d43-c6ef-40cc-a87c-887da2835b1b" data-name="BACKGROUND" xmlns="http://www.w3.org/2000/svg" viewBox="0 0 600 600"><defs><style>
      .uuid-17cb9272-29e7-4ef7-9290-dab5baec4708 {
        fill: #8400ff;
      }
    </style></defs><rect class="uuid-17cb9272-29e7-4ef7-9290-dab5baec4708" x="-1" y="-1" width="602" height="602"/></svg>
<svg id="uuid-f8681a4c-d0c2-449f-a9f1-2fd52d806420" data-name="BACKGROUND" xmlns="http://www.w3.org/2000/svg" viewBox="0 0 600 600"><defs><style>
      .uuid-1bc07910-d725-49b1-b81c-861f915adcc6, .uuid-9ddfa16e-bace-432f-aa3a-51d3b17f239e {
        fill: #fff;
      }

      .uuid-65b75369-b923-44e2-b78c-6bddbc28b17a {
        fill: #ffc9f1;
      }

      .uuid-65b75369-b923-44e2-b78c-6bddbc28b17a, .uuid-9ddfa16e-bace-432f-aa3a-51d3b17f239e, .uuid-8c0c8b42-d7d4-48a2-b526-de07e5764de5, .uuid-08c45eb5-1cdc-49ac-97c9-ea41763b4f2b, .uuid-2a58a464-3e43-4399-8a88-0a87e134b211, .uuid-9580be1f-d770-452a-9f53-26f311741d51, .uuid-17d7239d-cf3c-4a45-b307-7dc59d66faa7 {
        stroke: #000;
        stroke-width: 2px;
      }

      .uuid-65b75369-b923-44e2-b78c-6bddbc28b17a, .uuid-9ddfa16e-bace-432f-aa3a-51d3b17f239e, .uuid-8c0c8b42-d7d4-48a2-b526-de07e5764de5, .uuid-9580be1f-d770-452a-9f53-26f311741d51 {
        stroke-miterlimit: 10;
      }

      .uuid-65b75369-b923-44e2-b78c-6bddbc28b17a, .uuid-9ddfa16e-bace-432f-aa3a-51d3b17f239e, .uuid-08c45eb5-1cdc-49ac-97c9-ea41763b4f2b, .uuid-2a58a464-3e43-4399-8a88-0a87e134b211, .uuid-9580be1f-d770-452a-9f53-26f311741d51 {
        stroke-linecap: round;
      }

      .uuid-8c0c8b42-d7d4-48a2-b526-de07e5764de5, .uuid-08c45eb5-1cdc-49ac-97c9-ea41763b4f2b, .uuid-9580be1f-d770-452a-9f53-26f311741d51, .uuid-17d7239d-cf3c-4a45-b307-7dc59d66faa7 {
        fill: #9dff0c;
      }

      .uuid-08c45eb5-1cdc-49ac-97c9-ea41763b4f2b, .uuid-2a58a464-3e43-4399-8a88-0a87e134b211, .uuid-17d7239d-cf3c-4a45-b307-7dc59d66faa7 {
        stroke-linejoin: round;
      }

      .uuid-2a58a464-3e43-4399-8a88-0a87e134b211 {
        fill: none;
      }
    </style></defs><path class="uuid-08c45eb5-1cdc-49ac-97c9-ea41763b4f2b" d="m409.81,359.6c9.2,3.77,29.89,12.05,42.79,16.03,2.11.65,4.41.69,6.5-.04,11.79-4.08,28.47-11.39,33.03-11.32,5.25.08,7.8,3.93,19.88,2.04,13.36-2.1,22.43-11.99,20.93-23.3-4.21-43.28-25.18-26.79-25.18-26.79,0,0-5.84-8.75-18.76-4.82-11.83,3.6-10.2,14.44-6.47,22.47l-25.29,8.58c-2.14.72-4.45.71-6.59-.02l-35.7-12.61"/><path class="uuid-9580be1f-d770-452a-9f53-26f311741d51" d="m533.36,312.82c2.5,3.94,1.62,9.14-1.57,12.4-2.47,2.53-5.88,3.88-9.32,4.4-2.8.43-5.7.42-8.49-.08-2.14-.39-4.29-1.1-5.79-2.75-1.66-1.83-2.27-4.46-1.98-6.87.51-4.17,3.84-7.14,7.22-9.26,3.17-1.98,6.86-3.26,10.64-3.09,3.8.18,7.36,2.19,9.3,5.24Z"/><path class="uuid-9580be1f-d770-452a-9f53-26f311741d51" d="m538.57,349.84c.97,3.03.32,6.43-1.5,9.01-3.77,5.33-11.17,5.65-16.96,4.27-3.31-.79-6.69-2.21-8.67-5.13-3.13-4.61-.82-9.79,3.48-12.56,2.58-1.66,5.61-2.67,8.63-3.14,5.73-.89,13.1,1.51,15.03,7.56Z"/><path class="uuid-9580be1f-d770-452a-9f53-26f311741d51" d="m538.71,328.53c1.8,2.99,2.06,6.89.22,9.9-1.95,3.2-4.94,5.25-8.49,6.28-3.66,1.07-7.64,1.27-11.4.44-2.25-.5-4.53-1.38-5.96-3.28-1.86-2.47-1.89-5.68-.85-8.49,1.2-3.24,4.17-5.69,7.09-7.37,6.15-3.56,15.21-4.43,19.39,2.52Z"/><path class="uuid-9580be1f-d770-452a-9f53-26f311741d51" d="m501.85,311.68s9.27,3.84,7.77,12.02c-1.04,5.68-8.17,9.55-14.94,6.13"/><path class="uuid-2a58a464-3e43-4399-8a88-0a87e134b211" d="m500.67,331.08c2.41,1.63,5.11,8.04,3.4,14.42"/><path d="m443.44,339.88c-2.88,10.58-6.94,20.23-11.17,28.59-10.17-3.78-21.16-9.53-27-11.93l11.83-26.02,26.35,9.36Z"/><ellipse cx="300" cy="518.65" rx="138.6" ry="22.93"/><path class="uuid-8c0c8b42-d7d4-48a2-b526-de07e5764de5" d="m319.36,427.14c-1.16,1.05-54.95,57-54.95,57,0,0,21.51-1.95,31.74,10.62,10.23,12.57,7.26,23.89,7.26,23.89h-66.9s-28.69-36.17-28.69-36.17c0,0,3.74-13.4,20.44-10.59,20.9-19.38,55.52-59.13,55.52-59.13l35.59,14.38Z"/><path d="m283.78,412.76l31.28,12.64-3.24,9.5c-2.93,3.03-9.76,10.12-13.64,14.14-11.92,0-27.98-2.13-41.33-6.37,13.95-15.1,26.93-29.92,26.93-29.92Z"/><path class="uuid-8c0c8b42-d7d4-48a2-b526-de07e5764de5" d="m354.45,173.54l-.11.27-174.2,58.29c-11.49,20.13-18.05,43.43-18.05,68.27,0,76.2,61.77,137.98,137.97,137.98s137.98-61.77,137.98-137.98c0-56.89-34.43-105.72-83.58-126.83Z"/><path class="uuid-2a58a464-3e43-4399-8a88-0a87e134b211" d="m264.41,484.14c-4.06.49-11.49,1.36-17.85,7.23"/><path class="uuid-1bc07910-d725-49b1-b81c-861f915adcc6" d="m185.17,308.14c-4.41,0-7.98-3.57-7.98-7.98,0-67.74,55.11-122.86,122.86-122.86,4.41,0,7.98,3.57,7.98,7.98s-3.57,7.98-7.98,7.98c-58.94,0-106.9,47.95-106.9,106.9,0,4.41-3.57,7.98-7.98,7.98Z"/><path d="m203.75,397.46l34.2-27.46-24.86,36.3c-6.73-5.1-3.66-2.61-9.34-8.83Z"/><path class="uuid-17d7239d-cf3c-4a45-b307-7dc59d66faa7" d="m323.72,387.31c19.14-13.4,39.15-11.3,55.52,7.36,19.6,22.35,30.57,33.06,30.57,33.06,0,0,10.74-19.34,34.77-17.5,18.26,1.4,24.84,14.43,24.84,14.43,0,0,6.21,8.82-22.45,33.5-28.66,24.68-54.93,40.92-61.14,29.46-6.21-11.46-2.82-32.1-2.82-32.1,0,0-22.02-26.09-27.94-32.01-6.79-6.79-15.71-1.36-15.71-1.36"/><path class="uuid-8c0c8b42-d7d4-48a2-b526-de07e5764de5" d="m446.97,458.17c-25.89,22.29-49.82,37.69-58.79,32.02-9.77-7.44,26.84-38.54,44.88-52.7,18.04-14.16,32.17-17.82,36.36-12.81,0,0,6.21,8.82-22.45,33.5Z"/><path class="uuid-2a58a464-3e43-4399-8a88-0a87e134b211" d="m409.81,427.74c-1.89,2.86-4.55,10.38-4.55,10.38"/><ellipse class="uuid-9ddfa16e-bace-432f-aa3a-51d3b17f239e" cx="269.41" cy="209.07" rx="94.9" ry="26.25" transform="translate(-52.5 96.54) rotate(-18.55)"/><ellipse class="uuid-65b75369-b923-44e2-b78c-6bddbc28b17a" cx="269.41" cy="209.07" rx="71.19" ry="13.32" transform="translate(-52.5 96.54) rotate(-18.55)"/><g><path class="uuid-08c45eb5-1cdc-49ac-97c9-ea41763b4f2b" d="m214.11,345.7c-8.05,5.83-25.34,20.79-35.52,29.67-1.67,1.45-2.82,3.41-3.39,5.55-3.14,11.67-8.55,33.44-8.55,33.44,0,0-8.42.58-12.19,14.35-3.64,13.3-6.64,25.06,3.77,29.75.35,7.47,7.51,15.45,19.2,9.41.14-.06,1.32,1.32,1.44,1.45,2.64,2.7,6.36,4.45,10.13,4.81,3.65.36,7.61-.67,10.43-3.08,3.29-2.81,5.4-6.94,6.05-11.2.4-2.61.26-5.31-.75-7.78,0,0,6.2-2.51,8.05-11.34,1.99-9.49-4.22-19.42-14.62-18.18l6.17-23.11c.51-2.2,1.74-4.16,3.49-5.59l29.38-24.3"/><path class="uuid-2a58a464-3e43-4399-8a88-0a87e134b211" d="m204.73,452.06c-1.37-3.47-5.39-7.08-9-6.88"/><path class="uuid-2a58a464-3e43-4399-8a88-0a87e134b211" d="m178.86,469.3c-5.16-5.27-3.82-11.97-2.9-13.54"/><path class="uuid-2a58a464-3e43-4399-8a88-0a87e134b211" d="m158.22,458.45c-.27-5.22.73-7.32,3.06-9.83"/><path class="uuid-2a58a464-3e43-4399-8a88-0a87e134b211" d="m193.93,450.63c.14-2.07.48-4.16,1.32-6.06.85-1.95,2.36-3.88,4.31-4.85"/></g></svg>
<svg id="uuid-175be159-db61-4df5-a3ec-4e569af78a21" data-name="BODY" xmlns="http://www.w3.org/2000/svg" viewBox="0 0 600 600"><defs><style>
      .uuid-cb5ad370-d590-4d84-8471-319d1a4c5aa5 {
        fill: none;
        stroke: #000;
        stroke-linecap: round;
        stroke-linejoin: round;
        stroke-width: 4px;
      }
    </style></defs><g id="uuid-13c94933-b88a-4a0e-9bd5-264a3853387a" data-name="expressions"><g id="uuid-006bcb9c-427f-47d9-92c9-0f51d1e9073c" data-name="mouth"><circle cx="362.12" cy="293.18" r="9.78" transform="translate(-9.59 12.26) rotate(-1.91)"/></g><g id="uuid-aa5f76af-2ff8-4e7f-a2a4-73d690451a8d" data-name="eye L"><circle cx="337.63" cy="273.96" r="9.78" transform="translate(-8.96 11.43) rotate(-1.91)"/></g><g id="uuid-4d2b7d8b-0a30-48e5-b672-08579e330a1a" data-name="eye R"><polyline class="uuid-cb5ad370-d590-4d84-8471-319d1a4c5aa5" points="374.33 254.17 360.69 266.02 379.28 264.87"/></g></g></svg>
<svg id="uuid-3d4b76ab-6c40-4db0-80a5-58215603a36a" data-name="BODY" xmlns="http://www.w3.org/2000/svg" viewBox="0 0 600 600"><defs><style>
      .uuid-b4ff5219-4456-479b-a4e6-3ec362204d57 {
        fill: #a07bff;
        stroke: #000;
        stroke-linecap: round;
        stroke-linejoin: round;
        stroke-width: 2px;
      }
    </style></defs><g id="uuid-24effac1-cb0a-4458-9f3b-3056f57ead23" data-name="uuid-1f78a3be-5fce-4020-89b4-7aa51f9e5b9c"><g id="uuid-ab39dc42-38f5-4a02-adb5-d02219b918d3" data-name="uuid-969c81b9-1e0e-41b0-9d6d-316f0948a7ae"><g id="uuid-e07eced2-eb92-4c3e-bc2f-47523d25c769" data-name="uuid-69f00393-7ebc-4c63-be88-21f81d4c3cd4"><g><g><g><path class="uuid-b4ff5219-4456-479b-a4e6-3ec362204d57" d="m252.95,512.53s-.13-19.98,20.94-31.34c3.45,0,6.66.45,9.62,1.27,2.65-2.1,6.05-.47,6.01,2.35,10.51,5.43,16.48,16.22,16.48,27.26l-53.04.45h0Z"/><g><path class="uuid-b4ff5219-4456-479b-a4e6-3ec362204d57" d="m271.52,490.69c3.35-3.3,8.28-1.24,7.95,2.97"/><path class="uuid-b4ff5219-4456-479b-a4e6-3ec362204d57" d="m261.12,503.04c2.5-3.99,7.77-3.12,8.42,1.06"/><path class="uuid-b4ff5219-4456-479b-a4e6-3ec362204d57" d="m280.55,505.22c2.5-3.99,7.77-3.12,8.42,1.06"/><path class="uuid-b4ff5219-4456-479b-a4e6-3ec362204d57" d="m293.27,497.89c4.21-2.11,8.26,1.37,6.65,5.27"/><path class="uuid-b4ff5219-4456-479b-a4e6-3ec362204d57" d="m278.79,490.47c3.54-3.1,8.34-.74,7.75,3.44"/></g></g><path class="uuid-b4ff5219-4456-479b-a4e6-3ec362204d57" d="m211.4,475.24l25.74,33.51c.86,1.11,2.18,1.77,3.59,1.77h64.41c2.26,0,4.1,1.83,4.1,4.1v4.55c0,2.26-1.83,4.1-4.1,4.1h-68c-3,0-5.83-1.4-7.64-3.79l-26.99-35.42c-.92-1.2-.93-2.87-.02-4.09l3.5-4.69c1.35-1.8,4.04-1.82,5.41-.04h0Z"/></g><g><g><path class="uuid-b4ff5219-4456-479b-a4e6-3ec362204d57" d="m414.18,446.66s-4.53-21.06,9-36.13c6.68-3.31,14.98-4.7,23.09-3.58,2.95-3.25,7.9-1.53,8.13,2.04,4.57,1.7,8.87,4.35,12.51,8.05,0,0-27.13,5.11-52.73,29.62h0Z"/><g><path class="uuid-b4ff5219-4456-479b-a4e6-3ec362204d57" d="m426.27,415.55c1.73-4.38,7.07-4.49,8.47-.5"/><path class="uuid-b4ff5219-4456-479b-a4e6-3ec362204d57" d="m418.82,431.73c.67-4.66,5.85-6,8.12-2.44"/><path class="uuid-b4ff5219-4456-479b-a4e6-3ec362204d57" d="m446.15,414.02c2.99-3.63,8.11-2.09,8.21,2.13"/><path class="uuid-b4ff5219-4456-479b-a4e6-3ec362204d57" d="m430.79,419.07c1.99-4.26,7.33-4.05,8.48.01"/></g></g><path class="uuid-b4ff5219-4456-479b-a4e6-3ec362204d57" d="m468.14,415.89c-2.24-1.13-22.3,0-54.12,28.18-31.82,28.18-34.52,37.14-33.85,41.63.52,3.51,3.2,9.54,12.81,9.64,9.61.1,27.32-9.56,50.22-28.75,31.08-26.04,31.18-37.38,31.08-41.12-.1-3.74-2.87-7.92-6.13-9.57h0Z"/><path class="uuid-b4ff5219-4456-479b-a4e6-3ec362204d57" d="m466.23,426.09c-7.45-6.64-85.34,55.53-74.28,61.26,11.06,5.73,82.61-53.84,74.28-61.26h0Z"/></g></g></g></g></g></svg>
<svg id="uuid-7eb5044b-fa94-461c-9907-85b3dc64ac7e" data-name="BODY" xmlns="http://www.w3.org/2000/svg" viewBox="0 0 600 600"><defs><style>
      .uuid-87397e4f-7e3d-490c-b43b-0db3bec0377c {
        stroke-miterlimit: 10;
      }

      .uuid-87397e4f-7e3d-490c-b43b-0db3bec0377c, .uuid-179c102d-ff8a-46ca-913c-1d5c9e7a9cc5, .uuid-81fb7240-34aa-4204-83f9-daaedb437d29 {
        stroke: #000;
        stroke-width: 2px;
      }

      .uuid-87397e4f-7e3d-490c-b43b-0db3bec0377c, .uuid-81fb7240-34aa-4204-83f9-daaedb437d29 {
        fill: #00dfa9;
      }

      .uuid-179c102d-ff8a-46ca-913c-1d5c9e7a9cc5 {
        fill: #00dea8;
      }

      .uuid-179c102d-ff8a-46ca-913c-1d5c9e7a9cc5, .uuid-81fb7240-34aa-4204-83f9-daaedb437d29 {
        stroke-linecap: round;
        stroke-linejoin: round;
      }
    </style></defs><g id="uuid-0a79d125-2460-4fad-b66e-ec883e358a37" data-name="cloath"><path class="uuid-87397e4f-7e3d-490c-b43b-0db3bec0377c" d="m475.37,333.6l-.67.23-18.19,6.17c-2.14.72-4.45.71-6.59-.02l-14.53-5.13-.84-.31c-1.28,9.01-3.34,22.43-5.9,35.7,8.27,3.18,17.18,6.45,23.95,8.54,2.11.65,4.41.69,6.5-.04,8.64-2.99,19.91-7.72,27.11-10-5.49-14.17-8.97-27.13-10.85-35.15Z"/><path class="uuid-179c102d-ff8a-46ca-913c-1d5c9e7a9cc5" d="m389.96,395.83c.5,4.15.99,8.37,1.44,12.46,11.91,13.09,18.41,19.44,18.41,19.44,0,0,2.52-4.53,7.85-9,2.33-9.7,5.36-22.52,8.28-35.44,5.93-26.21,10.09-59.65,10.09-59.65l-58.59,43.63s9.92,7.1,12.53,28.55Z"/><path class="uuid-179c102d-ff8a-46ca-913c-1d5c9e7a9cc5" d="m229.38,322.79c-22.2-11.38-65.51-50.43-65.51-50.43,0,0-16.23,68.13-9.71,140.58,2.57,1.21,5.13,2.38,7.68,3.52,2.63-1.94,4.79-2.09,4.79-2.09,0,0,5.41-21.77,8.55-33.44.57-2.14,1.73-4.09,3.39-5.55,10.18-8.88,27.47-23.84,35.52-29.67l23.09,23.85-29.38,24.3c-1.75,1.43-2.97,3.39-3.49,5.59l-6.17,23.11c8.2-.97,13.79,4.99,14.82,12.21,66.61,18.53,119.01,13.83,119.01,13.83,0,0,18.43-66.82,37.77-80.41-68.91-16.49-81.39-15.13-140.38-45.38Z"/><path class="uuid-81fb7240-34aa-4204-83f9-daaedb437d29" d="m219.04,338.63c-8.05,5.83-31.04,24.25-41.22,33.13-1.67,1.45-2.82,3.41-3.39,5.55-1.89,7.03-4.6,17.71-6.46,25.1,3.49.59,9.59,2.09,17.16,5.88s15.2,7.66,19.3,9.74l4.87-18.24c.51-2.2,1.74-4.16,3.49-5.59l28.69-22.43"/><circle class="uuid-179c102d-ff8a-46ca-913c-1d5c9e7a9cc5" cx="173.5" cy="387.84" r="8.9"/><g><path class="uuid-179c102d-ff8a-46ca-913c-1d5c9e7a9cc5" d="m365.71,370.05c0-2.38.94-4.54,2.47-6.14-36.47-3.56-107.71-32.49-135.31-50.98-29.4-19.7-64.67-54.67-64.67-54.67,0,0-7.58,4.34-6.36,23.82,16.08,31.85,61.46,83.03,61.46,83.03l53.91-16.78-7.39,45.48s33.27-4.01,54.62-9.13c19.17-4.59,35.64-8.53,42.39-10.31-.71-1.28-1.12-2.75-1.12-4.32Z"/><path class="uuid-179c102d-ff8a-46ca-913c-1d5c9e7a9cc5" d="m438.28,298.43s-9.6,21.32-26.38,38.85c-9.15,9.56-25.57,20.93-32.29,25.42,2.34,1.6,3.88,4.29,3.88,7.35,0,1.17-.23,2.29-.64,3.31,10.42-2.02,33.64-8.21,49.69-25.01,8.17-22.96,5.74-49.91,5.74-49.91Z"/><circle class="uuid-179c102d-ff8a-46ca-913c-1d5c9e7a9cc5" cx="374.6" cy="370.05" r="8.9"/></g><path d="m436.13,335.09c-.88,4.42-2.04,8.91-3.59,13.26-.03.03-.06.06-.09.09-1.08,6.81-2.37,14.4-3.83,21.93,2.65.99,5.17,1.94,7.4,2.76,3.26-12,5.61-23.22,7.96-35.22l-7.85-2.83Z"/><path d="m207.37,394.72l34.83-22.3-38.87,49.43c-1.04-.39-2.74-.39-3.99-.28,2.43-8.59,6.17-23.11,8.04-26.85Z"/></g></svg>
<svg id="uuid-f404ceb8-7c39-4a18-b8b8-115c00c2bd91" data-name="BODY" xmlns="http://www.w3.org/2000/svg" viewBox="0 0 600 600"><defs><style>
      .uuid-f080fb2b-602f-4cf7-92ef-6037f33bace8 {
        fill: #ffff0d;
      }

      .uuid-f080fb2b-602f-4cf7-92ef-6037f33bace8, .uuid-67a4340c-4aab-4dd0-b330-b9e5e8d4b206, .uuid-fa7a50da-85f3-4b12-a5b7-369a35eddd61 {
        stroke: #000;
        stroke-linecap: round;
        stroke-linejoin: round;
        stroke-width: 2px;
      }

      .uuid-67a4340c-4aab-4dd0-b330-b9e5e8d4b206 {
        fill: none;
      }

      .uuid-fa7a50da-85f3-4b12-a5b7-369a35eddd61 {
        fill: #f9a723;
      }
    </style></defs><g id="uuid-cf137c39-0034-439d-adac-e4fa334b472a" data-name="uuid-0c0f6844-9252-4e38-b2ae-1fb7558b546c"><g id="uuid-985784ab-0fe5-462e-b6b7-3d43bf790f20" data-name="uuid-eba7662b-ff04-44ba-9d9b-c9fb86b595ea"><g id="uuid-93bf9e4f-3898-4943-9398-20954131d89e" data-name="uuid-e873324e-4a24-4e75-a94d-0c9fb771f1dc"><g><path class="uuid-fa7a50da-85f3-4b12-a5b7-369a35eddd61" d="m138.51,388.15c-3.22-11.04-6.43-23.51-23.05-29.14-16.62-5.63-31.09,3.22-34.98,18.89-3.89,15.68-4.02,41.1,8.04,58.14s23.18,16.95,32.3,14.58c9.11-2.37,17.02-17.96,17.02-17.96l10.05-24.34s-6.16-9.13-9.38-20.18h0Zm-16.62,1.28c-.67,7.24-10.01,18.89-10.84,26.67-.82,7.77,6.41,17.66,6.55,19.95.13,2.29-.4,3.67-.4,3.67,0,0-15.41.1-19.97-13.44-4.56-13.53,3.08-25.86,3.08-25.86,0,0-6.3-24.66-.13-32.3,14.61-1.74,22.38,14.07,21.71,21.31h0Z"/><path class="uuid-f080fb2b-602f-4cf7-92ef-6037f33bace8" d="m138.51,388.15c-3.22-11.04-6.43-23.51-23.05-29.14-10.38-3.52-19.92-1.38-26.57,4.53,6.66-4.23,20.81-4.13,30.46,5.12,9.65,9.25,13.13,18.36,9.92,31.76-3.22,13.4-8.09,14.34-7.33,22.25.76,7.91,4.65,13.13,3.98,17.69-.65,4.41-2.57,9.46-9.12,11.11,1.38-.2,2.73-.49,4.03-.83,9.11-2.37,17.02-17.96,17.02-17.96l10.05-24.34s-6.16-9.13-9.38-20.18h0Z"/><path class="uuid-f080fb2b-602f-4cf7-92ef-6037f33bace8" d="m117.21,439.72s-15.41.1-19.97-13.44c-4.56-13.53,3.08-25.86,3.08-25.86,0,0-6.3-24.66-.13-32.3h0c-7.5.54-15.14,9.25-9.11,34.71-5.76,13-2.28,29.55,8.44,36.89,10.72,7.33,17.29,3.67,17.69,0h0Z"/><path class="uuid-f080fb2b-602f-4cf7-92ef-6037f33bace8" d="m153.88,408.67s.21,4.54,0,5.65c-.21,1.11-3.94,5.04-5.56,8.37-1.61,3.33-1.61,8.17-1.82,9.48s-3.93,4.04-7.46,3.88c-3.53-.15-7.06-6.91-1.31-20.22,5.75-13.31,16.24-12.41,16.15-7.16h0Z"/><path class="uuid-f080fb2b-602f-4cf7-92ef-6037f33bace8" d="m158.93,419.29c1.9-2.02,0-6.54-2.94-7.1-1.77-.34-4.94-.5-9.28,8.17-4.34,8.67-2,13.38-1.01,14.62,1.61,2.02,6.83,1.11,7.68-2.32.55-2.2.93-3.83,2.37-7.82s3.18-5.56,3.18-5.56h0Z"/><path class="uuid-f080fb2b-602f-4cf7-92ef-6037f33bace8" d="m153.38,432.67s1.44-8.2,5.55-13.38l-4.15-2.26s-1.48.91-3.72,6.05c-2.24,5.14-2.24,7.36-2.24,7.36l4.55,2.22h0Z"/><path class="uuid-f080fb2b-602f-4cf7-92ef-6037f33bace8" d="m193.93,450.63c.19-6.04,3.41-9.84,5.62-10.91,0,0,12.42.33,17.34-.51,4.92-.84,6.77,5.2,1.86,15.31s-7.52,12.77-10.39,10.92c-3.32-2.14-2.49-6.17-14.43-14.81h0Z"/><path class="uuid-f080fb2b-602f-4cf7-92ef-6037f33bace8" d="m224.52,458.18c-5.38,11.37-14.69,6.69-9.41-4.53,5.28-11.22,15.26-7.82,9.41,4.53Z"/><g><path class="uuid-f080fb2b-602f-4cf7-92ef-6037f33bace8" d="m232.45,463.74v7.7s15.21,8.44,17.86,10.28c3.51,2.42,1.94,7.69,1.94,7.69l-10.66-5.27-6.59,2.46-1.38,16.04,23.22,12.96,5.25-3.08.74-7.42s7.33,2.53,8.07,5.83c.74,3.29-.74,10.94-.74,10.94l25.18,12.85,5.74-2.44,4.04-17.32s-13.39-5.95-14.98-7.65-1.59-6.48-1.59-6.48c0,0,2.12-.74,5.63,1.06s14.02,6.59,14.02,6.59l7.57-2.18.93-4.09-84.26-38.48h0Z"/><g><path class="uuid-fa7a50da-85f3-4b12-a5b7-369a35eddd61" d="m256.85,515.61l5.25-3.08.74-7.42c-4.16-1.56-4.99-1.23-5.99,10.5Z"/><polygon class="uuid-fa7a50da-85f3-4b12-a5b7-369a35eddd61" points="308.21 508.49 315.78 506.31 316.7 502.22 310.06 499.19 308.21 508.49"/><path class="uuid-fa7a50da-85f3-4b12-a5b7-369a35eddd61" d="m301.09,532.29l4.04-17.32s-13.39-5.95-14.98-7.65c-1.59-1.7-1.59-6.48-1.59-6.48-5.36.04-5.98,6.95-3.14,9.63,2.83,2.68,13.5,7.43,13.5,7.43l-3.56,16.83,5.74-2.44h0Z"/><path class="uuid-fa7a50da-85f3-4b12-a5b7-369a35eddd61" d="m252.25,489.41l-10.65-5.27-6.59,2.46s8.4,3.91,11.55,5.7c3.15,1.79,5.4-1.25,5.69-2.89h0Z"/></g></g><g><path class="uuid-f080fb2b-602f-4cf7-92ef-6037f33bace8" d="m218.25,460.55l106.4,49.92s4.24.66,6.38-3.76c2.14-4.42-.3-6.75-.3-6.75l-107.49-49.32s-4.94,2.52-4.99,9.92h0Z"/><path class="uuid-67a4340c-4aab-4dd0-b330-b9e5e8d4b206" d="m330.72,499.95c-3.94-1.81-9.58,8.59-6.08,10.52"/></g></g></g></g></g></svg>
<svg id="uuid-3a22222a-91dc-4434-a149-49d55022cbcf" data-name="BODY" xmlns="http://www.w3.org/2000/svg" viewBox="0 0 600 600"><defs><style>
      .uuid-81b9137b-6e77-4105-992a-21a6bf7dc6a9 {
        fill: #ff78d8;
      }

      .uuid-81b9137b-6e77-4105-992a-21a6bf7dc6a9, .uuid-dea7dc62-0969-4776-9594-8652b65f45ad, .uuid-8e15d984-f7ee-4776-b0a0-64c6f2a9e680, .uuid-5ac0a83f-ec38-4ce8-901c-84c045b3027e {
        stroke: #000;
        stroke-linecap: round;
        stroke-linejoin: round;
        stroke-width: 2px;
      }

      .uuid-dea7dc62-0969-4776-9594-8652b65f45ad {
        fill: #fff7f0;
      }

      .uuid-8e15d984-f7ee-4776-b0a0-64c6f2a9e680 {
        fill: #ffc9f1;
      }

      .uuid-5ac0a83f-ec38-4ce8-901c-84c045b3027e {
        fill: none;
      }
    </style></defs><g id="uuid-0b894ece-50c7-46f6-887d-6da90b41c0b7" data-name="uuid-a79c3b85-ceb5-4869-af4e-3ef8c358c94a"><g><path class="uuid-dea7dc62-0969-4776-9594-8652b65f45ad" d="m266.47,268.22s36.84-4.53,78.13-19.67c41.29-15.14,43.72-36.8,43.72-36.8l-21.86-22.35s-13.97,11.49-47.77,23.5c-33.8,12.01-56.27,15.91-56.27,15.91l4.05,39.41h0Z"/><path class="uuid-81b9137b-6e77-4105-992a-21a6bf7dc6a9" d="m418.14,277.2c2.62,10.88,11.01,10.17,20.02,19.85,0,0,.3,16.32-2.68,30.16,0,0,6.41-2.49,9.54-6.99-2.35,7.23-7.92,13-7.92,13,0,0,10.12-.56,20.32-11.82,10.2-11.27,10.62-24.26,4.05-34.18-6.57-9.92-7.12-9.78-7.82-12.43-.7-2.65-1.12-7.68-1.26-20.68-.14-12.99-3.21-20.12-12.99-29.34-9.78-9.22-19.84-21.51-19.84-21.51,0,0,15.37-5.59,16.62-22.77-9.78,5.17-20.98,7.57-45.44-6.22-24.47-13.79-47.96-32.43-95.72-31.65-47.77.78-67.18,26.99-67.18,26.99,0,0-28.13,2.72-51.25,25.05-23.12,22.33-14.18,41.16-20.59,55.34-6.41,14.17-17.48,13.01-20.97,33.59-3.5,20.58,11.07,39.42-3.11,48.35-14.17,8.93-21.94-2.52-21.94-2.52,0,0-2.36,26.47,28.91,20.78,6.96,7.82,21.61,4.26,25.87-6.4,1.42,14.78-5.16,19.07-13.05,17.93,18.26,13.08,31.33.09,31.33.09,0,0,9.82.98,16.85-9.3,7.03-10.27,2.97-20.52,2.97-20.52,0,0,6.4,8.67,16.63,10.52,4.83,15.64,21.46,23.88,21.46,23.88,0,0-10.57-20.38-3.48-39.66,8.31-22.6,24.94-19.76,30.77-36.53,5.83-16.77.43-32.12,1.56-52.88,4.12,13.08,14.29,29.28,18.09,46.34s-1.03,22.88-1.03,22.88c0,0,13.65-.14,17.91-20.75,4.26-20.61-9.81-41.79-10.23-60.27,0,0,17.77-4.26,37.67-12.65,19.9-8.39,29.14-17.48,29.14-17.48,0,0,9.24,3.27,17.06,31.84,7.82,28.57,13.95,48.18,39.74,49.96h0Z"/><g><path class="uuid-5ac0a83f-ec38-4ce8-901c-84c045b3027e" d="m183.05,361.82c5.14-4.86,4.82-16.12,4.82-16.12"/><path class="uuid-5ac0a83f-ec38-4ce8-901c-84c045b3027e" d="m138.9,350.19c9.44-2.34,13.94-11.95,13.94-11.95"/><path class="uuid-5ac0a83f-ec38-4ce8-901c-84c045b3027e" d="m164.77,343.8c-.49-12.04-12.07-25-10.81-45.4,1.26-20.4,32.11-27.19,32.11-49.86"/><path class="uuid-5ac0a83f-ec38-4ce8-901c-84c045b3027e" d="m202.86,332c-14.65-19.23-9.07-40.31,1.3-51.68"/><path class="uuid-5ac0a83f-ec38-4ce8-901c-84c045b3027e" d="m219.49,342.52c-5.63-17.59-7.73-37.87-1.1-53.06,6.63-15.19,17.29-8.24,21.01-28.92,3.72-20.68-10.34-31.83,10.99-52.52"/><path class="uuid-5ac0a83f-ec38-4ce8-901c-84c045b3027e" d="m269.81,237.34c-4.12-14.55,2.11-26.58,7.07-30.7"/><path class="uuid-5ac0a83f-ec38-4ce8-901c-84c045b3027e" d="m294.54,225.54c-.78-12.46,14.5-31.41,37.67-12.65-.89-27.03,23.19-21.23,29.14-17.48"/><path class="uuid-5ac0a83f-ec38-4ce8-901c-84c045b3027e" d="m332.21,212.89s-9.38-22.08-44.31-34.1c-27.53-9.48-51.73-10.75-60.05-9.17"/><path class="uuid-5ac0a83f-ec38-4ce8-901c-84c045b3027e" d="m283.41,177.3c2.32-17.76,24.03-21.21,24.03-21.21"/><path class="uuid-5ac0a83f-ec38-4ce8-901c-84c045b3027e" d="m315.55,193.47c-.38-13.96,11.11-21.86,20.74-23.73"/><path class="uuid-5ac0a83f-ec38-4ce8-901c-84c045b3027e" d="m257.62,171.07c-22.01.62-58.98,11.83-65.86,49.06"/><path class="uuid-5ac0a83f-ec38-4ce8-901c-84c045b3027e" d="m305.44,186.67c-13.07-3.06-35.41,6.06-35.41,6.06"/><path class="uuid-5ac0a83f-ec38-4ce8-901c-84c045b3027e" d="m390.63,203.42c17.2,14.07,6.68,41.93,22.03,53.59,15.35,11.66,23.92-1.23,23.92-1.23,0,0,2.2,21.1-18.44,21.43"/><path class="uuid-5ac0a83f-ec38-4ce8-901c-84c045b3027e" d="m455.14,277.94c-8.47-13.12-13.42-22.43-14.37-34.13"/><path class="uuid-5ac0a83f-ec38-4ce8-901c-84c045b3027e" d="m438.16,297.05c5.26,6.27,9.65,12.93,6.86,23.17"/><path class="uuid-5ac0a83f-ec38-4ce8-901c-84c045b3027e" d="m419.57,203.26c-10.17,3.12-19.41-2.74-19.41-2.74"/></g><path class="uuid-8e15d984-f7ee-4776-b0a0-64c6f2a9e680" d="m343.96,237.73s5.18-3.78,5.82-11.16c.64-7.39-10.03-8.7-11.31-2.48-7.2-2.9-13.15,4.95-6.29,9.69,5.84,4.04,11.78,3.95,11.78,3.95Z"/></g></g></svg>
</svg>