<?xml version="1.0" encoding="UTF-8"?>
<svg xmlns="http://www.w3.org/2000/svg" viewBox="0 0 600 600">
<svg id="uuid-76576d14-1db9-41e1-baf2-b575b174d48a" data-name="BACKGROUND" xmlns="http://www.w3.org/2000/svg" viewBox="0 0 600 600"><defs><style>
      .uuid-5f5134e1-be85-4028-9053-a97aa84d746d {
        fill: #f9a723;
      }
    </style></defs><rect class="uuid-5f5134e1-be85-4028-9053-a97aa84d746d" x="-1" y="-1" width="602" height="602"/></svg>
<svg id="uuid-e741404e-82c4-4369-9e18-3b285ad0d639" data-name="BACKGROUND" xmlns="http://www.w3.org/2000/svg" viewBox="0 0 600 600"><defs><style>
      .uuid-d96a9218-ac41-4a59-a766-168518bf484e, .uuid-62df82db-f943-4e5d-8b33-ce66e667749b {
        fill: #fff;
      }

      .uuid-3fd29da4-aff1-4808-923d-0b32c79c7637, .uuid-62df82db-f943-4e5d-8b33-ce66e667749b, .uuid-72477d5d-f7d9-4d71-877e-01caf37e8bcd, .uuid-5bb669c8-5a3f-440c-aba4-3853114d1d43, .uuid-62880ae1-7573-4820-a7ac-833c4461f068, .uuid-364077b4-4770-4526-89f6-25dde6160d98, .uuid-1e9082da-51b1-4e46-b839-8455f209e0c9 {
        stroke: #000;
        stroke-width: 2px;
      }

      .uuid-3fd29da4-aff1-4808-923d-0b32c79c7637, .uuid-62df82db-f943-4e5d-8b33-ce66e667749b, .uuid-72477d5d-f7d9-4d71-877e-01caf37e8bcd, .uuid-364077b4-4770-4526-89f6-25dde6160d98 {
        stroke-miterlimit: 10;
      }

      .uuid-3fd29da4-aff1-4808-923d-0b32c79c7637, .uuid-72477d5d-f7d9-4d71-877e-01caf37e8bcd, .uuid-5bb669c8-5a3f-440c-aba4-3853114d1d43, .uuid-1e9082da-51b1-4e46-b839-8455f209e0c9 {
        fill: #00dfa9;
      }

      .uuid-62df82db-f943-4e5d-8b33-ce66e667749b, .uuid-72477d5d-f7d9-4d71-877e-01caf37e8bcd, .uuid-5bb669c8-5a3f-440c-aba4-3853114d1d43, .uuid-62880ae1-7573-4820-a7ac-833c4461f068, .uuid-364077b4-4770-4526-89f6-25dde6160d98 {
        stroke-linecap: round;
      }

      .uuid-5bb669c8-5a3f-440c-aba4-3853114d1d43, .uuid-62880ae1-7573-4820-a7ac-833c4461f068, .uuid-1e9082da-51b1-4e46-b839-8455f209e0c9 {
        stroke-linejoin: round;
      }

      .uuid-62880ae1-7573-4820-a7ac-833c4461f068 {
        fill: none;
      }

      .uuid-364077b4-4770-4526-89f6-25dde6160d98 {
        fill: #9dff0c;
      }
    </style></defs><path class="uuid-5bb669c8-5a3f-440c-aba4-3853114d1d43" d="m409.81,359.6c9.2,3.77,29.89,12.05,42.79,16.03,2.11.65,4.41.69,6.5-.04,11.79-4.08,28.47-11.39,33.03-11.32,5.25.08,7.8,3.93,19.88,2.04,13.36-2.1,22.43-11.99,20.93-23.3-4.21-43.28-25.18-26.79-25.18-26.79,0,0-5.84-8.75-18.76-4.82-11.83,3.6-10.2,14.44-6.47,22.47l-25.29,8.58c-2.14.72-4.45.71-6.59-.02l-35.7-12.61"/><path class="uuid-72477d5d-f7d9-4d71-877e-01caf37e8bcd" d="m533.36,312.82c2.5,3.94,1.62,9.14-1.57,12.4-2.47,2.53-5.88,3.88-9.32,4.4-2.8.43-5.7.42-8.49-.08-2.14-.39-4.29-1.1-5.79-2.75-1.66-1.83-2.27-4.46-1.98-6.87.51-4.17,3.84-7.14,7.22-9.26,3.17-1.98,6.86-3.26,10.64-3.09,3.8.18,7.36,2.19,9.3,5.24Z"/><path class="uuid-72477d5d-f7d9-4d71-877e-01caf37e8bcd" d="m538.57,349.84c.97,3.03.32,6.43-1.5,9.01-3.77,5.33-11.17,5.65-16.96,4.27-3.31-.79-6.69-2.21-8.67-5.13-3.13-4.61-.82-9.79,3.48-12.56,2.58-1.66,5.61-2.67,8.63-3.14,5.73-.89,13.1,1.51,15.03,7.56Z"/><path class="uuid-72477d5d-f7d9-4d71-877e-01caf37e8bcd" d="m538.71,328.53c1.8,2.99,2.06,6.89.22,9.9-1.95,3.2-4.94,5.25-8.49,6.28-3.66,1.07-7.64,1.27-11.4.44-2.25-.5-4.53-1.38-5.96-3.28-1.86-2.47-1.89-5.68-.85-8.49,1.2-3.24,4.17-5.69,7.09-7.37,6.15-3.56,15.21-4.43,19.39,2.52Z"/><path class="uuid-72477d5d-f7d9-4d71-877e-01caf37e8bcd" d="m501.85,311.68s9.27,3.84,7.77,12.02c-1.04,5.68-8.17,9.55-14.94,6.13"/><path class="uuid-62880ae1-7573-4820-a7ac-833c4461f068" d="m500.67,331.08c2.41,1.63,5.11,8.04,3.4,14.42"/><path d="m443.44,339.88c-2.88,10.58-6.94,20.23-11.17,28.59-10.17-3.78-21.16-9.53-27-11.93l11.83-26.02,26.35,9.36Z"/><ellipse cx="300" cy="518.65" rx="138.6" ry="22.93"/><path class="uuid-3fd29da4-aff1-4808-923d-0b32c79c7637" d="m319.36,427.14c-1.16,1.05-54.95,57-54.95,57,0,0,21.51-1.95,31.74,10.62,10.23,12.57,7.26,23.89,7.26,23.89h-66.9s-28.69-36.17-28.69-36.17c0,0,3.74-13.4,20.44-10.59,20.9-19.38,55.52-59.13,55.52-59.13l35.59,14.38Z"/><path d="m283.78,412.76l31.28,12.64-3.24,9.5c-2.93,3.03-9.76,10.12-13.64,14.14-11.92,0-27.98-2.13-41.33-6.37,13.95-15.1,26.93-29.92,26.93-29.92Z"/><path class="uuid-3fd29da4-aff1-4808-923d-0b32c79c7637" d="m354.45,173.54l-.11.27-174.2,58.29c-11.49,20.13-18.05,43.43-18.05,68.27,0,76.2,61.77,137.98,137.97,137.98s137.98-61.77,137.98-137.98c0-56.89-34.43-105.72-83.58-126.83Z"/><path class="uuid-62880ae1-7573-4820-a7ac-833c4461f068" d="m264.41,484.14c-4.06.49-11.49,1.36-17.85,7.23"/><path class="uuid-d96a9218-ac41-4a59-a766-168518bf484e" d="m185.17,308.14c-4.41,0-7.98-3.57-7.98-7.98,0-67.74,55.11-122.86,122.86-122.86,4.41,0,7.98,3.57,7.98,7.98s-3.57,7.98-7.98,7.98c-58.94,0-106.9,47.95-106.9,106.9,0,4.41-3.57,7.98-7.98,7.98Z"/><path d="m203.75,397.46l34.2-27.46-24.86,36.3c-6.73-5.1-3.66-2.61-9.34-8.83Z"/><path class="uuid-1e9082da-51b1-4e46-b839-8455f209e0c9" d="m323.72,387.31c19.14-13.4,39.15-11.3,55.52,7.36,19.6,22.35,30.57,33.06,30.57,33.06,0,0,10.74-19.34,34.77-17.5,18.26,1.4,24.84,14.43,24.84,14.43,0,0,6.21,8.82-22.45,33.5-28.66,24.68-54.93,40.92-61.14,29.46-6.21-11.46-2.82-32.1-2.82-32.1,0,0-22.02-26.09-27.94-32.01-6.79-6.79-15.71-1.36-15.71-1.36"/><path class="uuid-3fd29da4-aff1-4808-923d-0b32c79c7637" d="m446.97,458.17c-25.89,22.29-49.82,37.69-58.79,32.02-9.77-7.44,26.84-38.54,44.88-52.7,18.04-14.16,32.17-17.82,36.36-12.81,0,0,6.21,8.82-22.45,33.5Z"/><path class="uuid-62880ae1-7573-4820-a7ac-833c4461f068" d="m409.81,427.74c-1.89,2.86-4.55,10.38-4.55,10.38"/><ellipse class="uuid-62df82db-f943-4e5d-8b33-ce66e667749b" cx="269.41" cy="209.07" rx="94.9" ry="26.25" transform="translate(-52.5 96.54) rotate(-18.55)"/><ellipse class="uuid-364077b4-4770-4526-89f6-25dde6160d98" cx="269.41" cy="209.07" rx="71.19" ry="13.32" transform="translate(-52.5 96.54) rotate(-18.55)"/><g><path class="uuid-5bb669c8-5a3f-440c-aba4-3853114d1d43" d="m214.11,345.7c-8.05,5.83-25.34,20.79-35.52,29.67-1.67,1.45-2.82,3.41-3.39,5.55-3.14,11.67-8.55,33.44-8.55,33.44,0,0-8.42.58-12.19,14.35-3.64,13.3-6.64,25.06,3.77,29.75.35,7.47,7.51,15.45,19.2,9.41.14-.06,1.32,1.32,1.44,1.45,2.64,2.7,6.36,4.45,10.13,4.81,3.65.36,7.61-.67,10.43-3.08,3.29-2.81,5.4-6.94,6.05-11.2.4-2.61.26-5.31-.75-7.78,0,0,6.2-2.51,8.05-11.34,1.99-9.49-4.22-19.42-14.62-18.18l6.17-23.11c.51-2.2,1.74-4.16,3.49-5.59l29.38-24.3"/><path class="uuid-62880ae1-7573-4820-a7ac-833c4461f068" d="m204.73,452.06c-1.37-3.47-5.39-7.08-9-6.88"/><path class="uuid-62880ae1-7573-4820-a7ac-833c4461f068" d="m178.86,469.3c-5.16-5.27-3.82-11.97-2.9-13.54"/><path class="uuid-62880ae1-7573-4820-a7ac-833c4461f068" d="m158.22,458.45c-.27-5.22.73-7.32,3.06-9.83"/><path class="uuid-62880ae1-7573-4820-a7ac-833c4461f068" d="m193.93,450.63c.14-2.07.48-4.16,1.32-6.06.85-1.95,2.36-3.88,4.31-4.85"/></g></svg>
<svg id="uuid-d2017022-49ac-4767-bd5b-8d3e235df956" data-name="BODY" xmlns="http://www.w3.org/2000/svg" viewBox="0 0 600 600"><defs><style>
      .uuid-ceb1f6db-ac22-433a-a64d-b7c361a52305 {
        fill: #ffff0d;
      }

      .uuid-ceb1f6db-ac22-433a-a64d-b7c361a52305, .uuid-8fc51c2b-2e55-48cc-a922-83a746c6089c {
        stroke-width: 2px;
      }

      .uuid-ceb1f6db-ac22-433a-a64d-b7c361a52305, .uuid-8fc51c2b-2e55-48cc-a922-83a746c6089c, .uuid-ededc5f7-d71c-4a39-8679-141d6e366d35 {
        stroke: #000;
        stroke-linecap: round;
        stroke-linejoin: round;
      }

      .uuid-8fc51c2b-2e55-48cc-a922-83a746c6089c, .uuid-ededc5f7-d71c-4a39-8679-141d6e366d35 {
        fill: none;
      }

      .uuid-ededc5f7-d71c-4a39-8679-141d6e366d35 {
        stroke-width: 4px;
      }
    </style></defs><g id="uuid-2e50336c-81e2-44ae-a2f0-cfae5c829496" data-name="uuid-ca7a59fd-5ea4-4026-baf3-83b8314686b7"><g><path d="m371.9,289.97c1.87,5.07-.73,10.69-5.8,12.56-5.07,1.87-10.69-.73-12.56-5.8l18.36-6.76h0Z"/><path class="uuid-ededc5f7-d71c-4a39-8679-141d6e366d35" d="m347.02,271.26c1.87,5.07-.73,10.69-5.8,12.56-5.07,1.87-10.69-.73-12.56-5.8"/><path class="uuid-ededc5f7-d71c-4a39-8679-141d6e366d35" d="m378.7,259.59c1.87,5.07-.73,10.69-5.8,12.56-5.07,1.87-10.69-.73-12.56-5.8"/><g><path class="uuid-ceb1f6db-ac22-433a-a64d-b7c361a52305" d="m394.29,286.52l-6.54-4.3c-2.76-1.82-6.22-2.22-9.33-1.07l-17.8,6.56-17.8,6.56c-3.1,1.14-5.48,3.69-6.4,6.87l-2.18,7.52c-.22.76.52,1.45,1.26,1.17l23.58-8.69c1.5-.55,2.5-1.96,2.54-3.56l.15-6.73,4.48,5.03c1.06,1.19,2.74,1.61,4.24,1.06l23.58-8.69c.74-.27.86-1.28.2-1.71l.02-.02Z"/><g><line class="uuid-8fc51c2b-2e55-48cc-a922-83a746c6089c" x1="352.99" y1="303.37" x2="353.29" y2="295.54"/><line class="uuid-8fc51c2b-2e55-48cc-a922-83a746c6089c" x1="343.37" y1="306.92" x2="344.56" y2="298.75"/><line class="uuid-8fc51c2b-2e55-48cc-a922-83a746c6089c" x1="376.62" y1="294.67" x2="371.32" y2="288.89"/><line class="uuid-8fc51c2b-2e55-48cc-a922-83a746c6089c" x1="386.25" y1="291.12" x2="380.04" y2="285.68"/></g></g><g><ellipse cx="334.14" cy="264.66" rx="11.53" ry="3.94" transform="translate(-70.88 131.8) rotate(-20.22)"/><ellipse cx="365.82" cy="252.99" rx="11.53" ry="3.94" transform="translate(-64.9 142.03) rotate(-20.22)"/></g></g></g></svg>
<svg id="uuid-9d1e8aa9-c04a-46e9-b3c3-01823dd59a59" data-name="BACKGROUND" xmlns="http://www.w3.org/2000/svg" viewBox="0 0 600 600"><defs><style>
      .uuid-b5c36b33-7bcc-4de6-9bcc-b09b8a2016f6, .uuid-660c04b4-fa82-4422-b1ba-a2c1dd7e0159 {
        fill: #7aa6ff;
      }

      .uuid-b5c36b33-7bcc-4de6-9bcc-b09b8a2016f6, .uuid-41032fe0-d2fe-461a-b8c6-491b03ab54be, .uuid-8460c441-7e92-40ce-bb73-f11f0dcaf042, .uuid-8971ef88-c9ee-424d-b142-c3a328f2a790, .uuid-9210ebd9-abde-4e8b-b154-3bb591c63759 {
        stroke: #000;
        stroke-linejoin: round;
      }

      .uuid-b5c36b33-7bcc-4de6-9bcc-b09b8a2016f6, .uuid-8460c441-7e92-40ce-bb73-f11f0dcaf042, .uuid-8971ef88-c9ee-424d-b142-c3a328f2a790, .uuid-9210ebd9-abde-4e8b-b154-3bb591c63759 {
        stroke-linecap: round;
        stroke-width: 2px;
      }

      .uuid-f649728e-69c6-4a97-a0f0-388adbfc0e12, .uuid-8460c441-7e92-40ce-bb73-f11f0dcaf042 {
        fill: #fff7f0;
      }

      .uuid-41032fe0-d2fe-461a-b8c6-491b03ab54be {
        stroke-width: 3px;
      }

      .uuid-41032fe0-d2fe-461a-b8c6-491b03ab54be, .uuid-8971ef88-c9ee-424d-b142-c3a328f2a790 {
        fill: none;
      }

      .uuid-9210ebd9-abde-4e8b-b154-3bb591c63759 {
        fill: #f9a723;
      }
    </style></defs><g id="uuid-3ff62dab-83dd-4bd0-b5a2-51453336e98e" data-name="uuid-09b8933c-635f-4dcd-977d-7eb4fc105aa8"><g><g><path class="uuid-b5c36b33-7bcc-4de6-9bcc-b09b8a2016f6" d="m241.22,454.8l-13.89,13.85s-12.85-2.78-19.77,7.48l29.07,36.91h68.51s.65-17.01-14.04-25.82c-8.29-5.06-18.57-5.38-18.57-5.38l2.79-3.09c.96-1.06.66-2.75-.62-3.4-2.53-1.29-6.47-3.3-9.42-4.8-1.34-.68-2.97-.41-4.02.67l-1.42,1.47s-6.22-3.03-10.77-8.09c-4.55-5.06-5.44-7.92-5.44-7.92l2.43-2.53-2.37-.23c-.91-.09-1.81.23-2.46.88h0Z"/><path class="uuid-8971ef88-c9ee-424d-b142-c3a328f2a790" d="m244.42,489.63c5.92-5.31,14.38-9.03,28.11-7.79"/><path class="uuid-8460c441-7e92-40ce-bb73-f11f0dcaf042" d="m305.14,513.04s.61-16.03-12.79-25.02c-19.07,2.22-21.4,18.25-21.65,25.02h34.44Z"/><path class="uuid-8971ef88-c9ee-424d-b142-c3a328f2a790" d="m259.84,472.69c-3.71,4.36-10.76,13.48-10.76,13.48"/><g><circle cx="241.51" cy="504.3" r="2.39"/><circle cx="252.8" cy="504.3" r="2.39"/></g><g><path class="uuid-8460c441-7e92-40ce-bb73-f11f0dcaf042" d="m261.71,478.55s-3.86-1.4-6.22-2.86c-3.94-2.43-6.53,2.16-3.35,4.35,2.2,1.51,5.38,2.69,5.38,2.69l4.19-4.18Z"/><path class="uuid-8460c441-7e92-40ce-bb73-f11f0dcaf042" d="m272.79,481.86s-1.22-4.06-6.78-4.06c-7.86,0-12.12,6.94-13.58,9.53-1.46,2.58,2.88,4.92,4.88,1.92,4.3-6.42,6.78-7.15,8.16-7.61,3.05-.17,7.32.21,7.32.21h0Z"/><path class="uuid-8460c441-7e92-40ce-bb73-f11f0dcaf042" d="m286.4,484.77s-.85-4.3-6.5-4.83c-7.98-.74-12.97,6.03-14.7,8.56-1.73,2.53,2.45,5.35,4.77,2.44,4.98-6.23,9.01-7.6,10.46-7.94,1.97.42,5.97,1.76,5.97,1.76h0Z"/></g><g><circle class="uuid-f649728e-69c6-4a97-a0f0-388adbfc0e12" cx="240.43" cy="473.54" r="9.19"/><path class="uuid-660c04b4-fa82-4422-b1ba-a2c1dd7e0159" d="m244.02,470.6l-.63,2.28c-.07.26-.01.54.16.74l1.52,1.81c.44.52.09,1.32-.59,1.35l-2.36.11c-.27.01-.52.16-.66.39l-1.25,2.01c-.36.58-1.22.49-1.46-.14l-.83-2.22c-.1-.25-.31-.44-.57-.51l-2.3-.57c-.66-.16-.84-1.01-.31-1.44l1.85-1.48c.21-.17.33-.43.31-.7l-.17-2.36c-.05-.68.7-1.12,1.27-.74l1.98,1.3c.23.15.51.18.76.08l2.19-.89c.63-.26,1.28.32,1.1.98h0Z"/></g><path class="uuid-8460c441-7e92-40ce-bb73-f11f0dcaf042" d="m236.72,508.58l-27.63-35.34c-.99-1.27-2.89-1.3-3.93-.08l-4.54,5.35c-1.19,1.4-1.23,3.44-.1,4.88l29.22,37.38c1.22,1.56,3.1,2.48,5.08,2.48h71.09c1.33,0,2.41-1.08,2.41-2.41v-8.19c0-1.33-1.08-2.41-2.41-2.41h-65.78c-1.34,0-2.6-.62-3.42-1.67h0Z"/><line class="uuid-8971ef88-c9ee-424d-b142-c3a328f2a790" x1="256.96" y1="510.14" x2="256.96" y2="523.15"/><g><line class="uuid-8971ef88-c9ee-424d-b142-c3a328f2a790" x1="261.81" y1="519.72" x2="267.96" y2="513.57"/><line class="uuid-8971ef88-c9ee-424d-b142-c3a328f2a790" x1="270.81" y1="519.72" x2="276.96" y2="513.57"/><line class="uuid-8971ef88-c9ee-424d-b142-c3a328f2a790" x1="279.82" y1="519.72" x2="285.97" y2="513.57"/><line class="uuid-8971ef88-c9ee-424d-b142-c3a328f2a790" x1="297.82" y1="519.72" x2="303.97" y2="513.57"/><line class="uuid-8971ef88-c9ee-424d-b142-c3a328f2a790" x1="288.82" y1="519.72" x2="294.97" y2="513.57"/></g><path class="uuid-41032fe0-d2fe-461a-b8c6-491b03ab54be" d="m256.96,516.65h-21.1c-.79,0-1.53-.37-2.01-.99l-30.83-39.95"/></g><g><path class="uuid-b5c36b33-7bcc-4de6-9bcc-b09b8a2016f6" d="m368.09,442.51l11.81,13.89s-3.17,17.71,2.54,31.11c0,0,5.33-16.06,31.48-39.12,26.16-23.06,53.73-30.88,53.73-30.88,0,0-10.6-11.39-29.3-10.31-18.7,1.08-28.7,15.35-28.7,15.35l-12.42-13.22c-.8-.85-1.95-1.29-3.1-1.14-2.22.27-6.08,1.2-10.09,4.24-.66.5-.78,1.46-.26,2.11l1.05,1.3s-16.35,11.66-16.75,26.68h0Z"/><path class="uuid-8460c441-7e92-40ce-bb73-f11f0dcaf042" d="m409.66,422.54s-3.89,5.28-6.92,15.26"/><line class="uuid-8971ef88-c9ee-424d-b142-c3a328f2a790" x1="384.84" y1="415.83" x2="403.68" y2="434.93"/><path class="uuid-8460c441-7e92-40ce-bb73-f11f0dcaf042" d="m435.19,432.7c17.96-11.07,32.48-15.19,32.48-15.19,0,0-10.6-11.39-29.3-10.31-12.71,7.85-5.52,21.67-3.18,25.5h0Z"/><path class="uuid-8460c441-7e92-40ce-bb73-f11f0dcaf042" d="m469.32,415.42c-.66-.63-1.59-.86-2.47-.62-5.87,1.59-29.25,8.95-53.86,30.76-23.28,20.64-30.4,35.59-32.22,40.34-.37.98-.27,2.06.31,2.94,1.37,2.1,4.19,6.25,6.89,9.08,4.73,4.98,26.38-2.07,55.09-27.69,28.72-25.62,37.69-40.52,34.25-45.67-2.52-3.77-6.2-7.44-7.99-9.14h0Z"/><path class="uuid-9210ebd9-abde-4e8b-b154-3bb591c63759" d="m477.9,426.07h0c-.62-4.79-20.55-1.28-53.98,25.69-33.41,26.94-37.41,45.67-34.1,47.26,7.15,2.33,27.31-5.65,53.25-28.79,24.07-21.47,34.26-35.41,34.9-42.4,0-.73,0-1.33-.07-1.76h0Z"/><g><g><path class="uuid-9210ebd9-abde-4e8b-b154-3bb591c63759" d="m447.29,460.39c14.43-13.2,21.63-21.14,22.08-26,0-.59,0-1.08-.05-1.42-.5-3.87-14.68,2.19-41.67,23.96-1.47,1.18-2.86,2.33-4.2,3.46h23.84,0Z"/><path class="uuid-9210ebd9-abde-4e8b-b154-3bb591c63759" d="m411.51,471.18c-12.88,12.71-15.31,19.71-13.29,20.67,5.33,1.74,18.47-4.91,36.96-20.67h-23.67,0Z"/></g><line class="uuid-8971ef88-c9ee-424d-b142-c3a328f2a790" x1="398.24" y1="488.01" x2="411.89" y2="488.01"/><polyline class="uuid-8971ef88-c9ee-424d-b142-c3a328f2a790" points="411.51 471.18 418.84 483.75 400.63 483.75 435.18 471.18"/><line class="uuid-8971ef88-c9ee-424d-b142-c3a328f2a790" x1="429.11" y1="455.76" x2="452.29" y2="455.76"/><polygon class="uuid-8971ef88-c9ee-424d-b142-c3a328f2a790" points="451.17 439.65 467.13 439.65 435.18 451 457.21 451 451.17 439.65"/><line class="uuid-8971ef88-c9ee-424d-b142-c3a328f2a790" x1="459.15" y1="434.95" x2="469.28" y2="434.95"/></g><line class="uuid-8971ef88-c9ee-424d-b142-c3a328f2a790" x1="422.8" y1="437.53" x2="430.61" y2="446.53"/><g><path class="uuid-8460c441-7e92-40ce-bb73-f11f0dcaf042" d="m408.54,421.02c-3.73,3.19-6.72,6.78-9.07,9.63-2.35,2.86-6.8.03-3.59-3.64,3.21-3.67,7.19-7.82,9.39-9.15,2.2-1.33,5.76,1.03,3.27,3.15h0Z"/><path class="uuid-8460c441-7e92-40ce-bb73-f11f0dcaf042" d="m402.17,415.16c-4.39,2.18-8.18,4.92-11.16,7.11-2.98,2.19-6.6-1.64-2.59-4.41,4.01-2.77,8.88-5.81,11.35-6.56,2.46-.75,5.33,2.41,2.4,3.86h0Z"/><path class="uuid-8460c441-7e92-40ce-bb73-f11f0dcaf042" d="m418.62,414.25s-3.47-2.43-7.84,1.01c-6.17,4.87-5.22,12.96-4.76,15.89s5.3,2.08,5.02-1.51c-.6-7.7.9-9.81,1.7-11.03,2.29-2.02,5.88-4.36,5.88-4.36h0Z"/><path class="uuid-8460c441-7e92-40ce-bb73-f11f0dcaf042" d="m431.11,408.11s-3.34-2.85-8.09.24c-6.73,4.36-6.45,12.77-6.24,15.82.21,3.06,5.24,2.68,5.26-1.04.05-7.97,2.38-11.55,3.3-12.71,1.81-.89,5.78-2.31,5.78-2.31Z"/></g><g><circle class="uuid-f649728e-69c6-4a97-a0f0-388adbfc0e12" cx="384.02" cy="438.12" r="9.19"/><path class="uuid-660c04b4-fa82-4422-b1ba-a2c1dd7e0159" d="m387.08,434.62l-.24,2.35c-.03.27.08.53.28.71l1.8,1.53c.52.44.31,1.28-.36,1.43l-2.31.5c-.26.06-.48.24-.59.49l-.9,2.19c-.26.63-1.13.69-1.47.1l-1.19-2.05c-.14-.23-.38-.38-.65-.41l-2.36-.18c-.68-.05-1-.86-.55-1.36l1.58-1.76c.18-.2.25-.48.19-.74l-.56-2.3c-.16-.66.51-1.22,1.13-.94l2.16.96c.25.11.53.09.76-.05l2.02-1.24c.58-.36,1.31.11,1.24.78h0Z"/></g><g><circle cx="404.5" cy="444.74" r="2.39"/><circle cx="413" cy="437.31" r="2.39"/></g><line class="uuid-8971ef88-c9ee-424d-b142-c3a328f2a790" x1="464.72" y1="423.14" x2="464.32" y2="418.64"/><line class="uuid-8971ef88-c9ee-424d-b142-c3a328f2a790" x1="456.77" y1="426.32" x2="456.36" y2="421.82"/><line class="uuid-8971ef88-c9ee-424d-b142-c3a328f2a790" x1="449.12" y1="430.04" x2="448.71" y2="425.54"/><line class="uuid-8971ef88-c9ee-424d-b142-c3a328f2a790" x1="441.27" y1="434.42" x2="440.86" y2="429.92"/><line class="uuid-8971ef88-c9ee-424d-b142-c3a328f2a790" x1="433.62" y1="439.43" x2="433.21" y2="434.93"/><path class="uuid-41032fe0-d2fe-461a-b8c6-491b03ab54be" d="m426.7,442.03s-36.57,26.72-42.89,50.79"/></g></g></g></svg>
<svg id="uuid-5e467335-96f0-4a19-bf5d-f66d24f9f050" data-name="BODY" xmlns="http://www.w3.org/2000/svg" viewBox="0 0 600 600"><defs><style>
      .uuid-c95b386d-6b7a-48bc-b015-46353c5ddf6d, .uuid-6dfda773-13b8-4575-9246-263a2a33ff95 {
        stroke-miterlimit: 10;
      }

      .uuid-c95b386d-6b7a-48bc-b015-46353c5ddf6d, .uuid-6dfda773-13b8-4575-9246-263a2a33ff95, .uuid-d59f6628-b02a-4e8d-88df-548bea5614f0 {
        stroke: #000;
        stroke-width: 2px;
      }

      .uuid-c95b386d-6b7a-48bc-b015-46353c5ddf6d, .uuid-d59f6628-b02a-4e8d-88df-548bea5614f0 {
        fill: #ffc9f1;
      }

      .uuid-6dfda773-13b8-4575-9246-263a2a33ff95 {
        fill: #a07bff;
      }

      .uuid-d59f6628-b02a-4e8d-88df-548bea5614f0 {
        stroke-linejoin: round;
      }
    </style></defs><path d="m444.53,340.27c-.12,10.07-1.69,20.13-1.47,32.18,0,0-31.96-13.5-37.8-15.9l11.83-26.02,27.44,9.74Z"/><g id="uuid-e0b59ec1-2080-4c6b-8b31-c6fdef44f520" data-name="cloth"><path class="uuid-c95b386d-6b7a-48bc-b015-46353c5ddf6d" d="m263.36,371.55c24.26-.34,48.58-3.99,69.96-9.03-7.88-3.13-21.03-8.64-28.59-13.47-15.72-10.04-37.83-23.22-78.26-39.57-40.44-16.35-60.88-16.79-64.71-17.14-3.83-.35-3.65,17.91.52,18.78s34.19,3.67,60.28,20.36c19.37,12.39,34.36,31.2,40.8,40.07Z"/><g><path class="uuid-d59f6628-b02a-4e8d-88df-548bea5614f0" d="m175.19,380.92c.57-2.14,1.73-4.09,3.39-5.55,4.11-3.58,9.38-8.16,14.73-12.73-12.63-3.41-19.99-6.47-19.99-6.47,0,0,1.19,7.68-3.39,24.26-4.47,16.18-10.42,24.96-10.42,24.96l10.07-2.77c1.77-7.01,3.99-15.7,5.61-21.71Z"/><path class="uuid-d59f6628-b02a-4e8d-88df-548bea5614f0" d="m436.02,361.39c2.62-27.84,1.57-45.91,1.57-45.91,0,0-23.21,23.41-84.08,41.67-31.63,9.49-73.99,16.96-113.56,13.64-1.29-.11-2.56-.23-3.83-.35l-28.31,23.41c-1.75,1.43-2.97,3.39-3.49,5.59l-6.17,23.11c1.6-.19,3.09-.11,4.48.18,10.94-4.39,20.36-13.9,20.36-13.9,0,0,3.04,11.81,3.04,28.1,12.65-1.74,29.55-18.91,29.55-18.91,0,0,3.71,13.26-4.81,29.26,17.78,0,33.52-20.56,33.52-20.56l15.94,23.95s7.48-5.92,14.49-22.21c7.39-17.17,6.6-34.62,8.99-41.14,9.67-6.47,21.58-10.5,33.18-7.49,6.62,1.72,12.55,5.45,17.68,9.89,5.18,4.49,8.72,10.46,13.8,15.02,4.08,3.66,9.3,5.25,14.65,5.91,1.08.13,11.39,1.12,11.39.41v-21.3l23.94,6.09s-4.77-8.69-2.35-34.45Zm-191.58,34.15c-.44-.17-.87-.39-1.26-.65-1.82-1.21-2.89-3.3-3.34-5.43-.47-2.21-.24-4.77,1.39-6.34,3.5-3.39,16.29-2.61,17.11,3.38.62,4.53-5.71,8.89-9.45,9.45-1.49.22-3.05.13-4.45-.41Zm26.93,14.8c-.72,1.06-1.77,1.95-3.12,2.45-2.19.82-4.72.56-6.81-.48-1.36-.67-2.61-1.74-3.06-3.19-.24-.78-.24-1.62-.09-2.42.82-4.42,6.05-6.74,10.14-5.47,4.34,1.34,5.06,6,2.95,9.11Zm133.66-31.05c-.04.27-.1.55-.16.81-.87,3.69-3.13,7.03-6.22,9.21-.82.58-1.74,1.09-2.75,1.14-1.96.09-3.54-1.59-4.51-3.29-1.62-2.85-2.38-6.34-1.39-9.46,1.64-5.18,7.44-6.92,12.06-4.49,1.32.69,2.44,1.84,2.87,3.26.28.91.25,1.88.1,2.82Z"/></g><path d="m206.23,395.47c-.91,1.16-1.57,2.51-1.91,3.96l-6.17,23.11c1.27-.15,2.48-.13,3.62.03l36.18-52.57-31.72,25.47Z"/><g id="uuid-7fe29411-92c2-4f52-b005-f15084171df6" data-name="zurzido"><path class="uuid-6dfda773-13b8-4575-9246-263a2a33ff95" d="m308.67,383.17c-5.42,4.18-10.17,10.28-13.38,16.13-2.78,5.06-10.1,2.03-7.89-5.55,1.89-6.46,9.65-12.22,14.53-16.48,5.01-4.37,14,.29,6.74,5.9Z"/><path class="uuid-6dfda773-13b8-4575-9246-263a2a33ff95" d="m302.21,395.42c-4.91-4.7-11.8-8.62-18.29-11.12-5.62-2.17-3.02-9.26,5.22-7.84,7.02,1.21,13.81,7.97,18.76,12.17,5.07,4.31.89,13.1-5.7,6.79Z"/></g></g></svg>
<svg id="uuid-6e9dd1ff-b3ca-4115-b70a-c695fd74bfe5" data-name="BODY" xmlns="http://www.w3.org/2000/svg" xmlns:xlink="http://www.w3.org/1999/xlink" viewBox="0 0 600 600"><defs><style>
      .uuid-f4d84360-108f-4651-b29c-e25ea16c4cc5, .uuid-13f171bf-333f-4b11-a6dc-6143bf8925b3, .uuid-d07d115d-d797-4bee-a1bd-d5ba731908b9, .uuid-30faa963-5431-4aaa-a0c3-a21f063be235, .uuid-8f6f04d1-c4ff-42b5-9302-95ef19a8b3d9 {
        fill: none;
      }

      .uuid-046b5435-62e7-4259-a2e9-7621ff339dd6, .uuid-49569550-84bb-4c62-b631-432cfe149004 {
        fill: #7aa6ff;
      }

      .uuid-046b5435-62e7-4259-a2e9-7621ff339dd6, .uuid-49569550-84bb-4c62-b631-432cfe149004, .uuid-94178579-7323-403b-a4b5-65c0e1c44d9b, .uuid-3ff8e150-fa1e-4d89-b36b-9e4e320d5024, .uuid-ff1760e6-70c2-4dee-b03b-1ede1b1fa95d, .uuid-d07d115d-d797-4bee-a1bd-d5ba731908b9, .uuid-30faa963-5431-4aaa-a0c3-a21f063be235 {
        stroke: #000;
        stroke-linecap: round;
        stroke-linejoin: round;
      }

      .uuid-046b5435-62e7-4259-a2e9-7621ff339dd6, .uuid-94178579-7323-403b-a4b5-65c0e1c44d9b, .uuid-3ff8e150-fa1e-4d89-b36b-9e4e320d5024, .uuid-d07d115d-d797-4bee-a1bd-d5ba731908b9 {
        stroke-width: 2px;
      }

      .uuid-49569550-84bb-4c62-b631-432cfe149004, .uuid-ff1760e6-70c2-4dee-b03b-1ede1b1fa95d, .uuid-30faa963-5431-4aaa-a0c3-a21f063be235 {
        stroke-width: 2px;
      }

      .uuid-13f171bf-333f-4b11-a6dc-6143bf8925b3 {
        clip-path: url(#uuid-3738efd7-810a-4b28-8335-8dd0fda8e553);
      }

      .uuid-94178579-7323-403b-a4b5-65c0e1c44d9b {
        fill: #8400ff;
      }

      .uuid-a0b7f615-c241-44b2-b757-466d7641aaac {
        fill: #ffff0d;
      }

      .uuid-149af8d5-0486-4f84-b8a4-62e4288482b2 {
        fill: #9dff0c;
      }

      .uuid-3ff8e150-fa1e-4d89-b36b-9e4e320d5024, .uuid-ff1760e6-70c2-4dee-b03b-1ede1b1fa95d {
        fill: #a07bff;
      }

      .uuid-8f6f04d1-c4ff-42b5-9302-95ef19a8b3d9 {
        clip-path: url(#uuid-099eeb1f-0739-4ac1-83ad-929f888b681c);
      }
    </style><clipPath id="uuid-3738efd7-810a-4b28-8335-8dd0fda8e553"><path class="uuid-f4d84360-108f-4651-b29c-e25ea16c4cc5" d="m207.25,349.68l-27.2,23.05c-3,2.4-5.15,5.71-6.11,9.43l-8.11,31.33s-3.45.35-7.09,4.5c-4.67,5.32-6.81,15.97-8.5,24.91-7.91-5.05-83.16-13.79-94.21-32.95-18.6-32.26,3.76-59.6,13.02-69.49,14.76-15.78,60.44-14.3,60.44-14.3l77.76,23.52h0Zm31.03,20.24s-28.11,23.09-30,24.91-3.01,4.97-3.46,6.62c-.44,1.66-5.36,20.02-5.36,20.02,0,0,8.86.08,12.53,7.22,1.18,2.3,2.41,5.31,2.08,9.59-.61,7.88-5.16,12.41-8.09,14.28,1.01,3.73,1.21,7.91.72,10.37,10.48,26.86,110.78,41.49,110.78,41.49l17.62-75.26-41.68-12.52-12.32-27.69-42.81-19.04h0Z"/></clipPath><clipPath id="uuid-099eeb1f-0739-4ac1-83ad-929f888b681c"><rect class="uuid-f4d84360-108f-4651-b29c-e25ea16c4cc5" x="162.78" y="342.92" width="45.45" height="140.68" transform="translate(-265.82 452.02) rotate(-70.73)"/></clipPath></defs><g id="uuid-054dfee4-fcfb-460e-acd1-76ff23fbc272" data-name="uuid-4e189f2a-7fa9-4cd8-b02c-e65b53e2a61c"><g id="uuid-900a0d9f-eac9-4919-b449-79c80911ee38" data-name="uuid-78b9dc61-4d36-4cc0-a416-4b7f00985a31"><g id="uuid-651b4fc5-0c91-42b6-b968-6b2ab50c1b36" data-name="uuid-dfdf5e4b-abde-406c-b0a2-d80837955070"><g class="uuid-13f171bf-333f-4b11-a6dc-6143bf8925b3"><g><g><path class="uuid-3ff8e150-fa1e-4d89-b36b-9e4e320d5024" d="m201.39,393.83l-101.23-35.38c-5.99-2.1-20.02,2.77-24.41,6.76-1.61,1.46-8.33,11.08,2.22,19.37-1.8-2.48-2.4-5.76-1.32-8.87,1.76-5.03,7.27-7.69,12.3-5.93s7.69,7.27,5.93,12.3c-1.53,4.38-5.91,6.96-10.34,6.39,1.36.62,2.85,1.22,4.5,1.8l101.23,35.38c8.72,3.05,18.26-1.55,21.3-10.27l.08-.24c3.05-8.72-1.55-18.26-10.27-21.3h0Z"/><path class="uuid-3ff8e150-fa1e-4d89-b36b-9e4e320d5024" d="m83.54,390.61c8.24,2.6,14.95-6.68,11.95-5.89-1.8.47-3.75.44-5.64-.22-5.03-1.76-7.69-7.27-5.93-12.3.66-1.87,1.83-3.42,3.31-4.53,2.49-1.87-8.51-2.62-12.39,4.89-3.76,7.27-1.11,14.96,8.7,18.05h0Z"/><path class="uuid-046b5435-62e7-4259-a2e9-7621ff339dd6" d="m192.81,397.97l-101.23-35.38c-8.72-3.05-18.26,1.55-21.31,10.27l-.08.24c-3.05,8.72,1.55,18.26,10.27,21.3l101.23,35.38c8.72,3.05,18.26-1.55,21.3-10.27l.08-.24c3.05-8.72-1.55-18.26-10.27-21.3h0Zm-110.23-9.96c-5.03-1.76-7.69-7.27-5.93-12.3,1.76-5.03,7.27-7.69,12.3-5.93,5.03,1.76,7.69,7.27,5.93,12.3-1.76,5.03-7.27,7.69-12.3,5.93Z"/></g><path class="uuid-94178579-7323-403b-a4b5-65c0e1c44d9b" d="m261.31,462.21l-11.61,5.56-137.85-56.99,9.03-51.81,11.8-5.84c2.07-1,4.46-1.13,6.63-.37l137.02,47.89c4.52,1.58,6.91,6.53,5.33,11.05l-15.92,45.56c-.76,2.17-2.35,3.95-4.42,4.95h0Z"/><rect class="uuid-ff1760e6-70c2-4dee-b03b-1ede1b1fa95d" x="153.59" y="332.97" width="63.83" height="160.6" rx="5.71" ry="5.71" transform="translate(-265.82 452.02) rotate(-70.73)"/><path class="uuid-3ff8e150-fa1e-4d89-b36b-9e4e320d5024" d="m262.98,458.19l6.96-33.27,8.55-4.15,37.81,13.21c2.11.74,3.22,3.05,2.49,5.16l-9.23,26.41c-.35,1.01-1.1,1.85-2.06,2.31l-7.07,3.41-37.44-13.09h0Z"/><rect class="uuid-49569550-84bb-4c62-b631-432cfe149004" x="268.33" y="426.07" width="33.7" height="44.07" transform="translate(-231.92 569.46) rotate(-70.73)"/><rect x="300.26" y="441.53" width="4.45" height="5.17" rx="1.17" ry="1.17" transform="translate(-216.57 583.13) rotate(-70.73)"/><rect x="294.07" y="459.25" width="4.45" height="5.17" rx="1.17" ry="1.17" transform="translate(-237.44 589.16) rotate(-70.73)"/><line class="uuid-d07d115d-d797-4bee-a1bd-d5ba731908b9" x1="269.72" y1="410.7" x2="281.3" y2="405.12"/><line class="uuid-d07d115d-d797-4bee-a1bd-d5ba731908b9" x1="311.54" y1="439.46" x2="318.6" y2="436.06"/><line class="uuid-d07d115d-d797-4bee-a1bd-d5ba731908b9" x1="264.38" y1="440.83" x2="305.98" y2="455.37"/><g><rect class="uuid-149af8d5-0486-4f84-b8a4-62e4288482b2" x="162.78" y="342.92" width="45.45" height="140.68" transform="translate(-265.82 452.02) rotate(-70.73)"/><g class="uuid-8f6f04d1-c4ff-42b5-9302-95ef19a8b3d9"><g><polygon class="uuid-a0b7f615-c241-44b2-b757-466d7641aaac" points="123.47 432.94 247.27 373.27 301.23 392.13 177.24 451.89 123.47 432.94"/><polygon class="uuid-a0b7f615-c241-44b2-b757-466d7641aaac" points="190.83 456.49 314.63 396.82 337.79 404.91 213.8 464.67 190.83 456.49"/><polygon class="uuid-a0b7f615-c241-44b2-b757-466d7641aaac" points="77.6 416.91 201.4 357.24 210.87 360.56 86.88 420.33 77.6 416.91"/></g></g><rect class="uuid-30faa963-5431-4aaa-a0c3-a21f063be235" x="162.78" y="342.92" width="45.45" height="140.68" transform="translate(-265.82 452.02) rotate(-70.73)"/></g></g></g></g></g></g></svg>
<svg id="uuid-2c12b907-b76f-4699-b403-115b318e8c0a" data-name="BODY" xmlns="http://www.w3.org/2000/svg" viewBox="0 0 600 600"><g id="uuid-fbaff554-f4e8-4966-8dd6-93a04a55e731" data-name="notes"><path id="uuid-c4bab009-7e62-47ea-a24c-6e0e8eb4e622" data-name="note" d="m530.94,167.64c-1.6-.76-3.52-.08-4.29,1.52,0,0-15.87,35.49-21.85,48.86-2.39-1.88-5.81-3.17-9.68-3.41-7.57-.46-13.95,3.29-14.26,8.37-.31,5.08,5.58,9.57,13.15,10.03,6.58.4,12.26-2.39,13.84-6.46.18-.2.35-.42.48-.67l24.14-53.95c.76-1.6.08-3.52-1.52-4.29Z"/><path id="uuid-3ea0a4af-a12f-4b4b-b4be-488363ed619c" data-name="note" d="m399.17,83.39l-13.93-22.62c-.9-1.53-2.87-2.05-4.4-1.16-.87.51-1.4,1.36-1.54,2.29-.84,3.27-9.74,38.06-13.21,51.58-2.67-1.45-6.26-2.15-10.12-1.72-7.54.83-13.2,5.6-12.64,10.66.56,5.06,7.12,8.49,14.65,7.66,6.56-.72,11.68-4.43,12.55-8.71.14-.23.27-.47.35-.75l12.83-50.06c4.07,6.61,9.77,15.86,9.85,15.99.32.55-5.45,4.09-5.45,4.09,0,0,8.87-2.36,9.85-2.93,1.51-.88,2.03-2.8,1.19-4.32Z"/><path id="uuid-c9c4d404-b4a7-4a04-9f34-9ae196a5cd99" data-name="note" d="m494.28,83.17s0-.03,0-.04c-.35-1.74-2.05-2.87-3.79-2.51,0,0-33.19,7.52-33.44,7.57-1.54.31-2.6,1.69-2.57,3.21-.92,5-7.13,38.67-9.59,51.99-2.76-1.27-6.4-1.71-10.21-1.03-7.46,1.34-12.78,6.49-11.88,11.5.9,5.01,7.68,7.98,15.14,6.64,6.49-1.17,11.35-5.21,11.92-9.54.13-.24.24-.49.3-.77l7.63-41.31,26.58-6.06c-2.15,11.64-4.71,25.53-6.09,33-2.76-1.27-6.4-1.71-10.21-1.03-7.46,1.34-12.78,6.49-11.88,11.5.9,5.01,7.68,7.98,15.14,6.64,6.49-1.17,11.36-5.21,11.92-9.54.13-.24.24-.49.3-.77l10.73-58.12c.09-.45.08-.9,0-1.32Zm-35.22,18.82l1.48-8.01,26.56-6c-.39,2.13-.89,4.85-1.46,7.95-4.21.96-19.81,4.53-26.58,6.07Z"/></g></svg>
</svg>