<?xml version="1.0" encoding="UTF-8"?>
<svg xmlns="http://www.w3.org/2000/svg" viewBox="0 0 600 600">
<svg id="uuid-47722c1a-ec94-491f-b9ae-69c2f5e8f75c" data-name="BACKGROUND" xmlns="http://www.w3.org/2000/svg" viewBox="0 0 600 600"><defs><style>
      .uuid-ab0c32c0-b20c-4bf1-888e-57f882ba1299 {
        fill: #ffc9f1;
      }
    </style></defs><rect class="uuid-ab0c32c0-b20c-4bf1-888e-57f882ba1299" x="-1" y="-1" width="602" height="602"/></svg>
<svg id="uuid-4b9ac9a2-518f-484a-8405-8c4c95b5d820" data-name="BODY" xmlns="http://www.w3.org/2000/svg" viewBox="0 0 600 600"><defs><style>
      .uuid-3f9ec564-8708-4e75-9244-a1a973efafea {
        fill: #fff;
      }

      .uuid-f4a0fca1-efe7-48bf-8a76-ffe42a36dabc, .uuid-f74b9348-d91e-454e-bf3d-c745fef9ac7d {
        stroke-miterlimit: 10;
      }

      .uuid-f4a0fca1-efe7-48bf-8a76-ffe42a36dabc, .uuid-f74b9348-d91e-454e-bf3d-c745fef9ac7d, .uuid-e88451e4-f64f-4221-9af8-5fb1c0132909, .uuid-c46f19fa-5207-4ebd-8a30-4d23cbcc2fc1, .uuid-0fbafe0f-c1a7-4154-b2d4-f3b317584526 {
        stroke: #000;
        stroke-width: 2px;
      }

      .uuid-f4a0fca1-efe7-48bf-8a76-ffe42a36dabc, .uuid-f74b9348-d91e-454e-bf3d-c745fef9ac7d, .uuid-e88451e4-f64f-4221-9af8-5fb1c0132909, .uuid-0fbafe0f-c1a7-4154-b2d4-f3b317584526 {
        fill: #ffff0d;
      }

      .uuid-f74b9348-d91e-454e-bf3d-c745fef9ac7d, .uuid-e88451e4-f64f-4221-9af8-5fb1c0132909, .uuid-c46f19fa-5207-4ebd-8a30-4d23cbcc2fc1 {
        stroke-linecap: round;
      }

      .uuid-e88451e4-f64f-4221-9af8-5fb1c0132909, .uuid-c46f19fa-5207-4ebd-8a30-4d23cbcc2fc1, .uuid-0fbafe0f-c1a7-4154-b2d4-f3b317584526 {
        stroke-linejoin: round;
      }

      .uuid-c46f19fa-5207-4ebd-8a30-4d23cbcc2fc1 {
        fill: none;
      }
    </style></defs><ellipse cx="300" cy="518.65" rx="138.6" ry="22.93"/><g><path class="uuid-f4a0fca1-efe7-48bf-8a76-ffe42a36dabc" d="m319.36,427.14c-1.16,1.05-54.95,57-54.95,57,0,0,21.51-1.95,31.74,10.62,10.23,12.57,7.26,23.89,7.26,23.89h-66.9s-28.69-36.17-28.69-36.17c0,0,3.74-13.4,20.44-10.59,20.9-19.38,55.52-59.13,55.52-59.13l35.59,14.38Z"/><path d="m283.78,412.76l31.28,12.64-3.24,9.5c-2.93,3.03-9.76,10.12-13.64,14.14-11.92,0-27.98-2.13-41.33-6.37,13.95-15.1,26.93-29.92,26.93-29.92Z"/></g><g><path class="uuid-e88451e4-f64f-4221-9af8-5fb1c0132909" d="m409.81,359.6c9.2,3.77,29.89,12.05,42.79,16.03,2.11.65,4.41.69,6.5-.04,11.79-4.08,28.47-11.39,33.03-11.32,5.25.08,7.8,3.93,19.88,2.04,13.36-2.1,22.43-11.99,20.93-23.3-4.21-43.28-25.18-26.79-25.18-26.79,0,0-5.84-8.75-18.76-4.82-11.83,3.6-10.2,14.44-6.47,22.47l-25.29,8.58c-2.14.72-4.45.71-6.59-.02l-35.7-12.61"/><path class="uuid-f74b9348-d91e-454e-bf3d-c745fef9ac7d" d="m533.36,312.82c2.5,3.94,1.62,9.14-1.57,12.4-2.47,2.53-5.88,3.88-9.32,4.4-2.8.43-5.7.42-8.49-.08-2.14-.39-4.29-1.1-5.79-2.75-1.66-1.83-2.27-4.46-1.98-6.87.51-4.17,3.84-7.14,7.22-9.26,3.17-1.98,6.86-3.26,10.64-3.09,3.8.18,7.36,2.19,9.3,5.24Z"/><path class="uuid-f74b9348-d91e-454e-bf3d-c745fef9ac7d" d="m538.57,349.84c.97,3.03.32,6.43-1.5,9.01-3.77,5.33-11.17,5.65-16.96,4.27-3.31-.79-6.69-2.21-8.67-5.13-3.13-4.61-.82-9.79,3.48-12.56,2.58-1.66,5.61-2.67,8.63-3.14,5.73-.89,13.1,1.51,15.03,7.56Z"/><path class="uuid-f74b9348-d91e-454e-bf3d-c745fef9ac7d" d="m538.71,328.53c1.8,2.99,2.06,6.89.22,9.9-1.95,3.2-4.94,5.25-8.49,6.28-3.66,1.07-7.64,1.27-11.4.44-2.25-.5-4.53-1.38-5.96-3.28-1.86-2.47-1.89-5.68-.85-8.49,1.2-3.24,4.17-5.69,7.09-7.37,6.15-3.56,15.21-4.43,19.39,2.52Z"/><path class="uuid-f74b9348-d91e-454e-bf3d-c745fef9ac7d" d="m501.85,311.68s9.27,3.84,7.77,12.02c-1.04,5.68-8.17,9.55-14.94,6.13"/><path class="uuid-c46f19fa-5207-4ebd-8a30-4d23cbcc2fc1" d="m500.67,331.08c2.41,1.63,5.11,8.04,3.4,14.42"/><path d="m443.44,339.88c-2.88,10.58-6.94,20.23-11.17,28.59-10.17-3.78-21.16-9.53-27-11.93l11.83-26.02,26.35,9.36Z"/></g><g><circle class="uuid-f4a0fca1-efe7-48bf-8a76-ffe42a36dabc" cx="300" cy="300" r="138.16"/><path class="uuid-3f9ec564-8708-4e75-9244-a1a973efafea" d="m184.58,308.17c-4.41,0-7.98-3.57-7.98-7.98,0-67.74,55.11-122.86,122.86-122.86,4.41,0,7.98,3.57,7.98,7.98s-3.57,7.98-7.98,7.98c-58.94,0-106.9,47.95-106.9,106.9,0,4.41-3.57,7.98-7.98,7.98Z"/></g><path class="uuid-c46f19fa-5207-4ebd-8a30-4d23cbcc2fc1" d="m264.41,484.14c-4.06.49-11.49,1.36-17.85,7.23"/><path class="uuid-3f9ec564-8708-4e75-9244-a1a973efafea" d="m185.17,308.14c-4.41,0-7.98-3.57-7.98-7.98,0-67.74,55.11-122.86,122.86-122.86,4.41,0,7.98,3.57,7.98,7.98s-3.57,7.98-7.98,7.98c-58.94,0-106.9,47.95-106.9,106.9,0,4.41-3.57,7.98-7.98,7.98Z"/><path d="m203.75,397.46l34.2-27.46-24.86,36.3c-6.73-5.1-3.66-2.61-9.34-8.83Z"/><path class="uuid-0fbafe0f-c1a7-4154-b2d4-f3b317584526" d="m323.72,387.31c19.14-13.4,39.15-11.3,55.52,7.36,19.6,22.35,30.57,33.06,30.57,33.06,0,0,10.74-19.34,34.77-17.5,18.26,1.4,24.84,14.43,24.84,14.43,0,0,6.21,8.82-22.45,33.5-28.66,24.68-54.93,40.92-61.14,29.46-6.21-11.46-2.82-32.1-2.82-32.1,0,0-22.02-26.09-27.94-32.01-6.79-6.79-15.71-1.36-15.71-1.36"/><path class="uuid-f4a0fca1-efe7-48bf-8a76-ffe42a36dabc" d="m446.97,458.17c-25.89,22.29-49.82,37.69-58.79,32.02-9.77-7.44,26.84-38.54,44.88-52.7,18.04-14.16,32.17-17.82,36.36-12.81,0,0,6.21,8.82-22.45,33.5Z"/><path class="uuid-c46f19fa-5207-4ebd-8a30-4d23cbcc2fc1" d="m409.81,427.74c-1.89,2.86-4.55,10.38-4.55,10.38"/><g><path class="uuid-e88451e4-f64f-4221-9af8-5fb1c0132909" d="m214.11,345.7c-8.05,5.83-25.34,20.79-35.52,29.67-1.67,1.45-2.82,3.41-3.39,5.55-3.14,11.67-8.55,33.44-8.55,33.44,0,0-8.42.58-12.19,14.35-3.64,13.3-6.64,25.06,3.77,29.75.35,7.47,7.51,15.45,19.2,9.41.14-.06,1.32,1.32,1.44,1.45,2.64,2.7,6.36,4.45,10.13,4.81,3.65.36,7.61-.67,10.43-3.08,3.29-2.81,5.4-6.94,6.05-11.2.4-2.61.26-5.31-.75-7.78,0,0,6.2-2.51,8.05-11.34,1.99-9.49-4.22-19.42-14.62-18.18l6.17-23.11c.51-2.2,1.74-4.16,3.49-5.59l29.38-24.3"/><path class="uuid-c46f19fa-5207-4ebd-8a30-4d23cbcc2fc1" d="m204.73,452.06c-1.37-3.47-5.39-7.08-9-6.88"/><path class="uuid-c46f19fa-5207-4ebd-8a30-4d23cbcc2fc1" d="m178.86,469.3c-5.16-5.27-3.82-11.97-2.9-13.54"/><path class="uuid-c46f19fa-5207-4ebd-8a30-4d23cbcc2fc1" d="m158.22,458.45c-.27-5.22.73-7.32,3.06-9.83"/><path class="uuid-c46f19fa-5207-4ebd-8a30-4d23cbcc2fc1" d="m193.93,450.63c.14-2.07.48-4.16,1.32-6.06.85-1.95,2.36-3.88,4.31-4.85"/></g></svg>
<svg id="uuid-d68fbb24-c0f3-4dee-920e-134d781fb2e1" data-name="BODY" xmlns="http://www.w3.org/2000/svg" viewBox="0 0 600 600"><path d="m378.79,259.75c-1.76-5.11-7.33-7.82-12.44-6.06s-7.82,7.33-6.06,12.44"/><circle cx="362.12" cy="293.18" r="9.78" transform="translate(-9.59 12.26) rotate(-1.91)"/><path d="m346.88,270.76c-1.76-5.11-7.33-7.82-12.44-6.06-5.11,1.76-7.82,7.33-6.06,12.44"/></svg>
<svg id="uuid-ebe0cd20-7f47-4ca6-8fd5-66deb411f990" data-name="BODY" xmlns="http://www.w3.org/2000/svg" viewBox="0 0 600 600"><defs><style>
      .uuid-0b662e94-ed23-4475-8094-9a3d63466319 {
        fill: #fffdfd;
      }

      .uuid-a440a8a9-a80d-49bd-8690-6feb9e180396 {
        fill: #ff78d8;
      }
    </style></defs><rect class="uuid-a440a8a9-a80d-49bd-8690-6feb9e180396" x="264.41" y="292.9" width="9.74" height="9.74" transform="translate(-86.91 112.55) rotate(-20.4)"/><rect class="uuid-a440a8a9-a80d-49bd-8690-6feb9e180396" x="261.02" y="283.77" width="9.74" height="9.74" transform="translate(-83.94 110.79) rotate(-20.4)"/><rect class="uuid-a440a8a9-a80d-49bd-8690-6feb9e180396" x="257.62" y="274.64" width="9.74" height="9.74" transform="translate(-80.97 109.03) rotate(-20.4)"/><rect class="uuid-a440a8a9-a80d-49bd-8690-6feb9e180396" x="266.75" y="271.25" width="9.74" height="9.74" transform="translate(-79.21 112) rotate(-20.4)"/><rect class="uuid-a440a8a9-a80d-49bd-8690-6feb9e180396" x="275.88" y="267.85" width="9.74" height="9.74" transform="translate(-77.46 114.97) rotate(-20.4)"/><rect class="uuid-a440a8a9-a80d-49bd-8690-6feb9e180396" x="330.66" y="247.48" width="9.74" height="9.74" transform="translate(-66.92 132.79) rotate(-20.4)"/><rect class="uuid-a440a8a9-a80d-49bd-8690-6feb9e180396" x="339.79" y="244.08" width="9.74" height="9.74" transform="translate(-65.16 135.76) rotate(-20.4)"/><rect class="uuid-a440a8a9-a80d-49bd-8690-6feb9e180396" x="327.27" y="238.35" width="9.74" height="9.74" transform="translate(-63.95 131.04) rotate(-20.4)"/><rect class="uuid-a440a8a9-a80d-49bd-8690-6feb9e180396" x="287.35" y="242.8" width="9.74" height="9.74" transform="translate(-68.01 117.4) rotate(-20.4)"/><rect class="uuid-a440a8a9-a80d-49bd-8690-6feb9e180396" x="351.26" y="219.03" width="9.74" height="9.74" transform="translate(-55.71 138.19) rotate(-20.4)"/><rect class="uuid-a440a8a9-a80d-49bd-8690-6feb9e180396" x="304.33" y="288.44" width="9.74" height="9.74" transform="translate(-82.85 126.18) rotate(-20.4)"/><rect class="uuid-a440a8a9-a80d-49bd-8690-6feb9e180396" x="368.24" y="264.67" width="9.74" height="9.74" transform="translate(-70.56 146.97) rotate(-20.4)"/><rect class="uuid-a440a8a9-a80d-49bd-8690-6feb9e180396" x="296.48" y="239.41" width="9.74" height="9.74" transform="translate(-66.25 120.37) rotate(-20.4)"/><rect class="uuid-a440a8a9-a80d-49bd-8690-6feb9e180396" x="360.39" y="215.64" width="9.74" height="9.74" transform="translate(-53.96 141.16) rotate(-20.4)"/><rect class="uuid-a440a8a9-a80d-49bd-8690-6feb9e180396" x="313.46" y="285.05" width="9.74" height="9.74" transform="translate(-81.09 129.15) rotate(-20.4)"/><rect class="uuid-a440a8a9-a80d-49bd-8690-6feb9e180396" x="377.37" y="261.28" width="9.74" height="9.74" transform="translate(-68.8 149.94) rotate(-20.4)"/><rect class="uuid-a440a8a9-a80d-49bd-8690-6feb9e180396" x="305.61" y="236.01" width="9.74" height="9.74" transform="translate(-64.49 123.34) rotate(-20.4)"/><rect class="uuid-a440a8a9-a80d-49bd-8690-6feb9e180396" x="369.52" y="212.24" width="9.74" height="9.74" transform="translate(-52.2 144.13) rotate(-20.4)"/><rect class="uuid-a440a8a9-a80d-49bd-8690-6feb9e180396" x="322.59" y="281.65" width="9.74" height="9.74" transform="translate(-79.34 132.12) rotate(-20.4)"/><rect class="uuid-a440a8a9-a80d-49bd-8690-6feb9e180396" x="386.5" y="257.88" width="9.74" height="9.74" transform="translate(-67.04 152.91) rotate(-20.4)"/><rect class="uuid-a440a8a9-a80d-49bd-8690-6feb9e180396" x="314.74" y="232.62" width="9.74" height="9.74" transform="translate(-62.74 126.31) rotate(-20.4)"/><rect class="uuid-a440a8a9-a80d-49bd-8690-6feb9e180396" x="378.65" y="208.85" width="9.74" height="9.74" transform="translate(-50.44 147.1) rotate(-20.4)"/><rect class="uuid-a440a8a9-a80d-49bd-8690-6feb9e180396" x="331.72" y="278.25" width="9.74" height="9.74" transform="translate(-77.58 135.09) rotate(-20.4)"/><rect class="uuid-a440a8a9-a80d-49bd-8690-6feb9e180396" x="395.63" y="254.48" width="9.74" height="9.74" transform="translate(-65.29 155.88) rotate(-20.4)"/><rect class="uuid-a440a8a9-a80d-49bd-8690-6feb9e180396" x="323.87" y="229.22" width="9.74" height="9.74" transform="translate(-60.98 129.28) rotate(-20.4)"/><rect class="uuid-a440a8a9-a80d-49bd-8690-6feb9e180396" x="334.06" y="256.6" width="9.74" height="9.74" transform="translate(-69.89 134.55) rotate(-20.4)"/><rect class="uuid-a440a8a9-a80d-49bd-8690-6feb9e180396" x="337.45" y="265.73" width="9.74" height="9.74" transform="translate(-72.86 136.3) rotate(-20.4)"/><rect class="uuid-a440a8a9-a80d-49bd-8690-6feb9e180396" x="285.01" y="264.45" width="9.74" height="9.74" transform="translate(-75.7 117.94) rotate(-20.4)"/><rect class="uuid-a440a8a9-a80d-49bd-8690-6feb9e180396" x="281.62" y="255.33" width="9.74" height="9.74" transform="translate(-72.73 116.19) rotate(-20.4)"/><rect class="uuid-a440a8a9-a80d-49bd-8690-6feb9e180396" x="278.22" y="246.2" width="9.74" height="9.74" transform="translate(-69.76 114.43) rotate(-20.4)"/><rect class="uuid-a440a8a9-a80d-49bd-8690-6feb9e180396" x="288.41" y="273.58" width="9.74" height="9.74" transform="translate(-78.67 119.7) rotate(-20.4)"/><rect class="uuid-a440a8a9-a80d-49bd-8690-6feb9e180396" x="291.8" y="282.71" width="9.74" height="9.74" transform="translate(-81.64 121.46) rotate(-20.4)"/><rect class="uuid-a440a8a9-a80d-49bd-8690-6feb9e180396" x="295.2" y="291.84" width="9.74" height="9.74" transform="translate(-84.61 123.21) rotate(-20.4)"/><rect class="uuid-a440a8a9-a80d-49bd-8690-6feb9e180396" x="348.92" y="240.68" width="9.74" height="9.74" transform="translate(-63.41 138.73) rotate(-20.4)"/><rect class="uuid-a440a8a9-a80d-49bd-8690-6feb9e180396" x="345.53" y="231.56" width="9.74" height="9.74" transform="translate(-60.44 136.98) rotate(-20.4)"/><rect class="uuid-a440a8a9-a80d-49bd-8690-6feb9e180396" x="342.13" y="222.43" width="9.74" height="9.74" transform="translate(-57.47 135.22) rotate(-20.4)"/><rect class="uuid-a440a8a9-a80d-49bd-8690-6feb9e180396" x="352.32" y="249.81" width="9.74" height="9.74" transform="translate(-66.38 140.49) rotate(-20.4)"/><rect class="uuid-a440a8a9-a80d-49bd-8690-6feb9e180396" x="355.71" y="258.94" width="9.74" height="9.74" transform="translate(-69.34 142.24) rotate(-20.4)"/><rect class="uuid-a440a8a9-a80d-49bd-8690-6feb9e180396" x="359.11" y="268.07" width="9.74" height="9.74" transform="translate(-72.31 144) rotate(-20.4)"/><rect class="uuid-a440a8a9-a80d-49bd-8690-6feb9e180396" x="394.57" y="223.71" width="9.74" height="9.74" transform="translate(-54.62 153.58) rotate(-20.4)"/><rect class="uuid-a440a8a9-a80d-49bd-8690-6feb9e180396" x="391.18" y="214.58" width="9.74" height="9.74" transform="translate(-51.66 151.82) rotate(-20.4)"/><rect class="uuid-a440a8a9-a80d-49bd-8690-6feb9e180396" x="387.78" y="205.45" width="9.74" height="9.74" transform="translate(-48.69 150.07) rotate(-20.4)"/><rect class="uuid-a440a8a9-a80d-49bd-8690-6feb9e180396" x="397.97" y="232.83" width="9.74" height="9.74" transform="translate(-57.59 155.34) rotate(-20.4)"/><rect class="uuid-a440a8a9-a80d-49bd-8690-6feb9e180396" x="401.36" y="241.96" width="9.74" height="9.74" transform="translate(-60.56 157.09) rotate(-20.4)"/><rect class="uuid-a440a8a9-a80d-49bd-8690-6feb9e180396" x="404.76" y="251.09" width="9.74" height="9.74" transform="translate(-63.53 158.85) rotate(-20.4)"/><rect class="uuid-a440a8a9-a80d-49bd-8690-6feb9e180396" x="340.85" y="274.86" width="9.74" height="9.74" transform="translate(-75.83 138.06) rotate(-20.4)"/><rect class="uuid-0b662e94-ed23-4475-8094-9a3d63466319" x="295.53" y="249.32" width="19.48" height="38.95" transform="translate(-74.55 123.28) rotate(-20.4)"/><rect class="uuid-0b662e94-ed23-4475-8094-9a3d63466319" x="359.44" y="225.55" width="19.48" height="38.95" transform="translate(-62.26 144.06) rotate(-20.4)"/><rect x="313.79" y="242.53" width="19.48" height="38.95" transform="translate(-71.04 129.22) rotate(-20.4)"/><rect x="377.7" y="218.76" width="19.48" height="38.95" transform="translate(-58.74 150) rotate(-20.4)"/></svg>
<svg id="uuid-dbc96581-0d40-4218-9e4b-e15fbc7df75d" data-name="BODY" xmlns="http://www.w3.org/2000/svg" viewBox="0 0 600 600"><defs><style>
      .uuid-731d8a00-b536-46c8-ae66-15ce6601c070 {
        fill: #8400ff;
        stroke-miterlimit: 10;
      }

      .uuid-731d8a00-b536-46c8-ae66-15ce6601c070, .uuid-8d03fc29-8570-4f03-90be-c88116fb4de2, .uuid-0500a80b-1318-4ded-8340-6cb5dc7e8242, .uuid-24c192b9-8fd4-4778-a3e3-b003b309642f {
        stroke: #000;
        stroke-width: 2px;
      }

      .uuid-8d03fc29-8570-4f03-90be-c88116fb4de2, .uuid-0500a80b-1318-4ded-8340-6cb5dc7e8242 {
        stroke-linecap: round;
      }

      .uuid-8d03fc29-8570-4f03-90be-c88116fb4de2, .uuid-0500a80b-1318-4ded-8340-6cb5dc7e8242, .uuid-24c192b9-8fd4-4778-a3e3-b003b309642f {
        stroke-linejoin: round;
      }

      .uuid-8d03fc29-8570-4f03-90be-c88116fb4de2, .uuid-24c192b9-8fd4-4778-a3e3-b003b309642f {
        fill: #a07bff;
      }

      .uuid-0500a80b-1318-4ded-8340-6cb5dc7e8242 {
        fill: #fff6ef;
      }
    </style></defs><path class="uuid-8d03fc29-8570-4f03-90be-c88116fb4de2" d="m208.68,145.76c-.1-.09-3.95-4.21-6.34-6.4-16.04,3.15-23.67,3.33-23.67,3.33,0,0,7.31,5.65,17.51,11.01,4.13-2.68,8.34-5.36,12.48-7.94,0,0,.03,0,.02,0Z"/><path class="uuid-8d03fc29-8570-4f03-90be-c88116fb4de2" d="m228.35,109.79c-8.9-10.52-12.2-16.07-12.2-16.07,0,0-2.26,15.35.21,30.37,3.37-2,7.98-8.17,12-14.3Z"/><path class="uuid-24c192b9-8fd4-4778-a3e3-b003b309642f" d="m354.03,159.71c-3.09-1.06-6.2-2.14-9.35-3.24-11.13-3.88-22.88-5.75-34.64-6.25-11.97-.5-24.37,2.34-36.22-.08-8.65-1.77-15-6.85-21.75-12.15-8.12-6.38-15.07-42.61-15.07-42.61,0,0-13.91,25.51-21.16,28.99-7.25,3.48-32.17.58-32.17.58,0,0,31.3,20,33.04,35.36,1.46,12.93-7.89,25.07-11.93,29.75-8.01,9.29-16.72,17.73-23.79,27.83-8,11.43-13.87,23.69-18.94,36.61-4.88,12.43-10.5,24.91-20.03,34.51-6.98,7.03-15.73,13.19-25.01,16.79,1.11-.43,3.86.4,5.02.5,4.58.4,9.18.65,13.78.74,9.53.18,19.64.18,28.54-3.68,8.62-3.73,16.43-9.06,24.24-14.22,3.64-2.4,7.25-4.83,10.83-7.32.66-.46,4.07-2.16,4.26-2.99,0,0-2.32,10.14-6.67,20.58-4.35,10.43-14.64,32.55-14.64,32.55,0,0,25.94-20.67,37.83-35.74,11.88-15.07,23.8-48.09,23.81-48.12-.73,2.03,1.94,8.2,2.29,10.33,1.03,6.31,1.8,12.7,1.78,19.11-.05,17.66-4.4,35.36-7.88,52.58.16-.81,3.22-2.55,3.83-3.04,3.63-2.93,7.19-5.94,10.7-9.02,8.27-7.24,16.5-14.64,23.54-23.1,16.81-20.2,26-44.4,31.78-69.77-.19.81,5.16,4.56,6.01,5.19,3.61,2.66,7.71,4.5,12.01,5.75,4.95,1.45,10.11,2.24,15.22,2.87,1.73-8.39,1.28-17.92,1.84-26.56,0,0,15.65,4.06,38.84-3.48,23.19-7.54,54.2-35.94,54.2-35.94-1.29,1.18-8.79,0-10.4-.03-8.61-.19-17.23-.69-25.8-1.58-16.98-1.75-32.22-6.37-47.94-11.74Z"/><path class="uuid-731d8a00-b536-46c8-ae66-15ce6601c070" d="m241.96,166.04c4.56-2.84,9.09-5.75,13.57-8.72,4.31-2.86,8.81-5.48,12.91-8.64,3.45-2.67-6.78-10.61-12.87-8-6.09,2.61-14.07,8.62-21.25,12.97-7.17,4.35-13.95,9.1-17.36,11.9-2.01,1.65-3.41,3.88-4.31,6.3-.6,1.63-2.34,5.84-.36,6.98,2.5,1.44,7.15-1.18,9.56-2.09,7.18-2.74,13.53-6.6,20.05-10.66.02-.01.04-.02.06-.03Z"/><path class="uuid-0500a80b-1318-4ded-8340-6cb5dc7e8242" d="m161.84,187.85c2.04.73,1.05,4.82.97,6.32-.26,5.32,2.08,10.63,6.85,13.3,4.28,2.39,9.9,2.16,13.96-.58,5.47-3.69,6.59-10.83,6.2-16.95-.06-.88-.95-7.97-1.73-10.48,0,0,6.4-1.43,28.71-14.59.1-1.5.09-3.02-.09-4.55-.53-4.66-3.78-9.74-8.05-14.56-23.2,14.46-34.3,20.99-34.49,21.1-2.4-1.72-4.33-4.1-6.9-5.6-3.09-1.8-6.91-2.37-10.36-1.39-6.28,1.77-10.83,8.53-9.31,15.02,1.49,6.38,7.91,10.62,13.67,12.78.18.07.36.13.55.2Z"/><path id="uuid-8fdb8e8f-5a19-4f0d-9569-7786a8d1d26f" data-name="bone" class="uuid-0500a80b-1318-4ded-8340-6cb5dc7e8242" d="m293.28,109.37c1.82-6.5,4.48-15.33-1.41-20.48-4.25-3.72-11.01-4.07-15.82-1.26-6.33,3.7-6.99,9.6-7.84,16.11-.73,5.64-5.74,9.02-10.53,11.7-11.2,6.27-22.86,11.7-33.82,18.43l15.18,16.35c3.97-2.33,7.87-4.61,11.53-6.83q22.94-13.9,22.94-13.9c8.48,5.86,26.42,11.33,29.71-3.11,1.67-7.34-3.81-13.8-9.94-17.01Z"/></svg>
</svg>