<?xml version="1.0" encoding="UTF-8"?>
<svg xmlns="http://www.w3.org/2000/svg" viewBox="0 0 600 600">
<svg id="uuid-50f5b600-4bee-4d04-aa66-9a7827d0c80f" data-name="BACKGROUND" xmlns="http://www.w3.org/2000/svg" viewBox="0 0 600 600"><defs><style>
      .uuid-7826a2f3-55af-481e-b40d-34a6e43de7ed {
        fill: #7aa6ff;
      }
    </style></defs><rect class="uuid-7826a2f3-55af-481e-b40d-34a6e43de7ed" x="-1" y="-1" width="602" height="602"/></svg>
<svg id="uuid-9722f958-7a1b-41d5-b127-5f5664340acc" data-name="BACKGROUND" xmlns="http://www.w3.org/2000/svg" viewBox="0 0 600 600"><defs><style>
      .uuid-38d319f8-e1e2-4e35-8358-20269c2b2afc, .uuid-04aa5705-a527-4798-9248-8fcc4f62d66b {
        fill: #fff;
      }

      .uuid-9f9f1948-40a0-4747-af1d-9594efb41061, .uuid-621ab9aa-9a02-467e-87ae-ac926dafbcb1, .uuid-04aa5705-a527-4798-9248-8fcc4f62d66b, .uuid-c9a14ba2-b8bc-42e5-9f8d-275d1fff3c56, .uuid-6105d9dd-9f9c-48ac-a1fa-9ace9529afd0, .uuid-39fc5d50-c0b6-4d72-9b97-695125c5be4a, .uuid-332aab89-d113-4256-b1ac-e39bd2d752c7 {
        stroke: #000;
        stroke-width: 2px;
      }

      .uuid-9f9f1948-40a0-4747-af1d-9594efb41061, .uuid-621ab9aa-9a02-467e-87ae-ac926dafbcb1, .uuid-04aa5705-a527-4798-9248-8fcc4f62d66b, .uuid-39fc5d50-c0b6-4d72-9b97-695125c5be4a {
        stroke-miterlimit: 10;
      }

      .uuid-9f9f1948-40a0-4747-af1d-9594efb41061, .uuid-621ab9aa-9a02-467e-87ae-ac926dafbcb1, .uuid-c9a14ba2-b8bc-42e5-9f8d-275d1fff3c56, .uuid-332aab89-d113-4256-b1ac-e39bd2d752c7 {
        fill: #ffff0d;
      }

      .uuid-621ab9aa-9a02-467e-87ae-ac926dafbcb1, .uuid-04aa5705-a527-4798-9248-8fcc4f62d66b, .uuid-c9a14ba2-b8bc-42e5-9f8d-275d1fff3c56, .uuid-6105d9dd-9f9c-48ac-a1fa-9ace9529afd0, .uuid-39fc5d50-c0b6-4d72-9b97-695125c5be4a {
        stroke-linecap: round;
      }

      .uuid-c9a14ba2-b8bc-42e5-9f8d-275d1fff3c56, .uuid-6105d9dd-9f9c-48ac-a1fa-9ace9529afd0, .uuid-332aab89-d113-4256-b1ac-e39bd2d752c7 {
        stroke-linejoin: round;
      }

      .uuid-6105d9dd-9f9c-48ac-a1fa-9ace9529afd0 {
        fill: none;
      }

      .uuid-39fc5d50-c0b6-4d72-9b97-695125c5be4a {
        fill: #7aa6ff;
      }
    </style></defs><path class="uuid-c9a14ba2-b8bc-42e5-9f8d-275d1fff3c56" d="m409.81,359.6c9.2,3.77,29.89,12.05,42.79,16.03,2.11.65,4.41.69,6.5-.04,11.79-4.08,28.47-11.39,33.03-11.32,5.25.08,7.8,3.93,19.88,2.04,13.36-2.1,22.43-11.99,20.93-23.3-4.21-43.28-25.18-26.79-25.18-26.79,0,0-5.84-8.75-18.76-4.82-11.83,3.6-10.2,14.44-6.47,22.47l-25.29,8.58c-2.14.72-4.45.71-6.59-.02l-35.7-12.61"/><path class="uuid-621ab9aa-9a02-467e-87ae-ac926dafbcb1" d="m533.36,312.82c2.5,3.94,1.62,9.14-1.57,12.4-2.47,2.53-5.88,3.88-9.32,4.4-2.8.43-5.7.42-8.49-.08-2.14-.39-4.29-1.1-5.79-2.75-1.66-1.83-2.27-4.46-1.98-6.87.51-4.17,3.84-7.14,7.22-9.26,3.17-1.98,6.86-3.26,10.64-3.09,3.8.18,7.36,2.19,9.3,5.24Z"/><path class="uuid-621ab9aa-9a02-467e-87ae-ac926dafbcb1" d="m538.57,349.84c.97,3.03.32,6.43-1.5,9.01-3.77,5.33-11.17,5.65-16.96,4.27-3.31-.79-6.69-2.21-8.67-5.13-3.13-4.61-.82-9.79,3.48-12.56,2.58-1.66,5.61-2.67,8.63-3.14,5.73-.89,13.1,1.51,15.03,7.56Z"/><path class="uuid-621ab9aa-9a02-467e-87ae-ac926dafbcb1" d="m538.71,328.53c1.8,2.99,2.06,6.89.22,9.9-1.95,3.2-4.94,5.25-8.49,6.28-3.66,1.07-7.64,1.27-11.4.44-2.25-.5-4.53-1.38-5.96-3.28-1.86-2.47-1.89-5.68-.85-8.49,1.2-3.24,4.17-5.69,7.09-7.37,6.15-3.56,15.21-4.43,19.39,2.52Z"/><path class="uuid-621ab9aa-9a02-467e-87ae-ac926dafbcb1" d="m501.85,311.68s9.27,3.84,7.77,12.02c-1.04,5.68-8.17,9.55-14.94,6.13"/><path class="uuid-6105d9dd-9f9c-48ac-a1fa-9ace9529afd0" d="m500.67,331.08c2.41,1.63,5.11,8.04,3.4,14.42"/><path d="m443.44,339.88c-2.88,10.58-6.94,20.23-11.17,28.59-10.17-3.78-21.16-9.53-27-11.93l11.83-26.02,26.35,9.36Z"/><ellipse cx="300" cy="518.65" rx="138.6" ry="22.93"/><path class="uuid-9f9f1948-40a0-4747-af1d-9594efb41061" d="m319.36,427.14c-1.16,1.05-54.95,57-54.95,57,0,0,21.51-1.95,31.74,10.62,10.23,12.57,7.26,23.89,7.26,23.89h-66.9s-28.69-36.17-28.69-36.17c0,0,3.74-13.4,20.44-10.59,20.9-19.38,55.52-59.13,55.52-59.13l35.59,14.38Z"/><path d="m283.78,412.76l31.28,12.64-3.24,9.5c-2.93,3.03-9.76,10.12-13.64,14.14-11.92,0-27.98-2.13-41.33-6.37,13.95-15.1,26.93-29.92,26.93-29.92Z"/><path class="uuid-9f9f1948-40a0-4747-af1d-9594efb41061" d="m354.45,173.54l-.11.27-174.2,58.29c-11.49,20.13-18.05,43.43-18.05,68.27,0,76.2,61.77,137.98,137.97,137.98s137.98-61.77,137.98-137.98c0-56.89-34.43-105.72-83.58-126.83Z"/><path class="uuid-6105d9dd-9f9c-48ac-a1fa-9ace9529afd0" d="m264.41,484.14c-4.06.49-11.49,1.36-17.85,7.23"/><path class="uuid-38d319f8-e1e2-4e35-8358-20269c2b2afc" d="m185.17,308.14c-4.41,0-7.98-3.57-7.98-7.98,0-67.74,55.11-122.86,122.86-122.86,4.41,0,7.98,3.57,7.98,7.98s-3.57,7.98-7.98,7.98c-58.94,0-106.9,47.95-106.9,106.9,0,4.41-3.57,7.98-7.98,7.98Z"/><path d="m203.75,397.46l34.2-27.46-24.86,36.3c-6.73-5.1-3.66-2.61-9.34-8.83Z"/><path class="uuid-332aab89-d113-4256-b1ac-e39bd2d752c7" d="m323.72,387.31c19.14-13.4,39.15-11.3,55.52,7.36,19.6,22.35,30.57,33.06,30.57,33.06,0,0,10.74-19.34,34.77-17.5,18.26,1.4,24.84,14.43,24.84,14.43,0,0,6.21,8.82-22.45,33.5-28.66,24.68-54.93,40.92-61.14,29.46-6.21-11.46-2.82-32.1-2.82-32.1,0,0-22.02-26.09-27.94-32.01-6.79-6.79-15.71-1.36-15.71-1.36"/><path class="uuid-9f9f1948-40a0-4747-af1d-9594efb41061" d="m446.97,458.17c-25.89,22.29-49.82,37.69-58.79,32.02-9.77-7.44,26.84-38.54,44.88-52.7,18.04-14.16,32.17-17.82,36.36-12.81,0,0,6.21,8.82-22.45,33.5Z"/><path class="uuid-6105d9dd-9f9c-48ac-a1fa-9ace9529afd0" d="m409.81,427.74c-1.89,2.86-4.55,10.38-4.55,10.38"/><ellipse class="uuid-04aa5705-a527-4798-9248-8fcc4f62d66b" cx="269.41" cy="209.07" rx="94.9" ry="26.25" transform="translate(-52.5 96.54) rotate(-18.55)"/><ellipse class="uuid-39fc5d50-c0b6-4d72-9b97-695125c5be4a" cx="269.41" cy="209.07" rx="71.19" ry="13.32" transform="translate(-52.5 96.54) rotate(-18.55)"/><g><path class="uuid-c9a14ba2-b8bc-42e5-9f8d-275d1fff3c56" d="m214.11,345.7c-8.05,5.83-25.34,20.79-35.52,29.67-1.67,1.45-2.82,3.41-3.39,5.55-3.14,11.67-8.55,33.44-8.55,33.44,0,0-8.42.58-12.19,14.35-3.64,13.3-6.64,25.06,3.77,29.75.35,7.47,7.51,15.45,19.2,9.41.14-.06,1.32,1.32,1.44,1.45,2.64,2.7,6.36,4.45,10.13,4.81,3.65.36,7.61-.67,10.43-3.08,3.29-2.81,5.4-6.94,6.05-11.2.4-2.61.26-5.31-.75-7.78,0,0,6.2-2.51,8.05-11.34,1.99-9.49-4.22-19.42-14.62-18.18l6.17-23.11c.51-2.2,1.74-4.16,3.49-5.59l29.38-24.3"/><path class="uuid-6105d9dd-9f9c-48ac-a1fa-9ace9529afd0" d="m204.73,452.06c-1.37-3.47-5.39-7.08-9-6.88"/><path class="uuid-6105d9dd-9f9c-48ac-a1fa-9ace9529afd0" d="m178.86,469.3c-5.16-5.27-3.82-11.97-2.9-13.54"/><path class="uuid-6105d9dd-9f9c-48ac-a1fa-9ace9529afd0" d="m158.22,458.45c-.27-5.22.73-7.32,3.06-9.83"/><path class="uuid-6105d9dd-9f9c-48ac-a1fa-9ace9529afd0" d="m193.93,450.63c.14-2.07.48-4.16,1.32-6.06.85-1.95,2.36-3.88,4.31-4.85"/></g></svg>
<svg id="uuid-6a02459f-1b68-443c-bd4b-7b11b7abbe5a" data-name="BODY" xmlns="http://www.w3.org/2000/svg" viewBox="0 0 600 600"><defs><style>
      .uuid-f630b38e-3266-47b2-bfbc-f2260501e18f {
        fill: #ff78d8;
        stroke: #000;
        stroke-linecap: round;
        stroke-linejoin: round;
        stroke-width: 2px;
      }
    </style></defs><circle cx="362.12" cy="293.18" r="9.78" transform="translate(-9.59 12.26) rotate(-1.91)"/><path class="uuid-f630b38e-3266-47b2-bfbc-f2260501e18f" d="m337.57,261.14c-1.59,1.06-2.46,2.67-2.79,4.19-.28,1.29-1.56,2.12-2.85,1.86-1.5-.3-3.22-.16-4.8.89-2.88,1.92-3.44,6.16-1.23,9.48,3.99,6.01,12.54,6.76,17.83,6.27.82-.08,1.55-.56,1.94-1.29,2.5-4.69,5.12-12.85,1.13-18.86-2.2-3.32-6.33-4.45-9.21-2.54Z"/><path class="uuid-f630b38e-3266-47b2-bfbc-f2260501e18f" d="m371.18,249c-1.81.61-3.07,1.94-3.79,3.32-.6,1.17-2.05,1.64-3.24,1.06-1.37-.67-3.07-1-4.87-.39-3.28,1.1-4.92,5.06-3.65,8.83,2.29,6.84,10.35,9.79,15.59,10.69.82.14,1.64-.14,2.21-.74,3.64-3.88,8.28-11.08,5.99-17.92-1.27-3.78-4.96-5.94-8.24-4.84Z"/></svg>
<svg id="uuid-0aa8c587-996b-4cdc-8f6f-9857078d28d3" data-name="BODY" xmlns="http://www.w3.org/2000/svg" viewBox="0 0 600 600"><defs><style>
      .uuid-5c1aa41b-276d-47a9-975e-6b51258e34fd {
        fill: #7aa6ff;
      }

      .uuid-5c1aa41b-276d-47a9-975e-6b51258e34fd, .uuid-5420853f-4843-434c-aead-428453da705c, .uuid-98d20c01-64f9-488a-bda2-9c627608ef99 {
        stroke: #000;
        stroke-linecap: round;
        stroke-linejoin: round;
        stroke-width: 2px;
      }

      .uuid-5420853f-4843-434c-aead-428453da705c {
        fill: none;
      }

      .uuid-98d20c01-64f9-488a-bda2-9c627608ef99 {
        fill: #f9a723;
      }
    </style></defs><g id="uuid-efe03c10-21e9-40e1-b362-43562c7320e3" data-name="uuid-3374edde-7b2c-4e71-84a6-3cb653058dc6"><g id="uuid-7e5c48c3-5d6e-4296-9f6a-e6035b6c477a" data-name="uuid-298fa604-3857-4000-a4c4-1a509c9ef803"><g><path class="uuid-5c1aa41b-276d-47a9-975e-6b51258e34fd" d="m244.59,514.46s8.09-20.22,26.83-20.22c15.1,0,19.01,7.06,19.01,7.06,0,0,3.03-5.94,8.09-9.18,0,0-4.15-7.58-14.26-9.3l-1.73,1.91s-6.97-5.35-23.92-2.28c-16.95,3.07-28.51,21.15-28.51,21.15l.92,8.35,4.39,6.42,9.18-3.89v-.02Z"/><path class="uuid-98d20c01-64f9-488a-bda2-9c627608ef99" d="m209.84,478.1l27.45,34.51c.93,1.16,2.33,1.84,3.82,1.84h61.66c1.79,0,3.24,1.45,3.24,3.24v4.45c0,1.79-1.45,3.24-3.24,3.24h-64.92c-3.9,0-7.59-1.79-10-4.85l-26.47-32.68c-.89-1.1-.9-2.68-.02-3.79l4.63-5.81c.91-1.33,2.85-1.41,3.86-.14h0Z"/><path class="uuid-5420853f-4843-434c-aead-428453da705c" d="m282.53,484.72c2.44,1.78,6.89,7.45,7.9,16.57,2.33,5.28,2.33,13.17,2.33,13.17"/></g><g><path class="uuid-5c1aa41b-276d-47a9-975e-6b51258e34fd" d="m405.26,457.42s-8.33-22.95,12.28-44.49c4.45-4.65,15.27-6.57,24.17-6.37,0,0-25.89,17.7-19.96,39.81l-16.49,11.06h0Z"/><path class="uuid-98d20c01-64f9-488a-bda2-9c627608ef99" d="m382.22,485.43c.29,4,3.37,8.75,9.54,9.05s18.87-1.74,46.41-24.52c27.54-22.78,37.32-34.79,34.59-45.81-2.73-11.02-15.88-8.29-29.33,0-13.45,8.29-23.24,15.87-39.34,30.44-15.19,13.75-22.52,21.98-21.88,30.84h0Z"/><path class="uuid-5420853f-4843-434c-aead-428453da705c" d="m472.87,430.86c1.07-6.88-12.92-14.11-52.29,20.95-38.8,34.55-33.55,42.06-30.93,42.38"/><path class="uuid-5420853f-4843-434c-aead-428453da705c" d="m395.95,488.37c1.88,1.93,15.96-4.79,39.42-24.07,23.46-19.28,33.17-30.27,31.28-32.36s-10.79-2.61-41.12,23.75c-30.33,26.36-31.35,30.85-29.58,32.67h0Z"/><path class="uuid-5420853f-4843-434c-aead-428453da705c" d="m441.71,406.56c12.54-.01,17.04,10.85,17.04,10.85"/></g></g></g></svg>
<svg id="uuid-812f6975-679d-4f88-a4ed-851daa0a87ab" data-name="BODY" xmlns="http://www.w3.org/2000/svg" viewBox="0 0 600 600"><defs><style>
      .uuid-c2b81f84-54b4-4471-8442-6dab97f9dbdb {
        fill: #7aa6ff;
      }

      .uuid-c2b81f84-54b4-4471-8442-6dab97f9dbdb, .uuid-8f93f715-e731-4f67-a3d6-2e442b938451, .uuid-52fe3725-26e2-42a9-8a9b-607d6ab8d4a1 {
        stroke: #000;
        stroke-linecap: round;
        stroke-linejoin: round;
        stroke-width: 2px;
      }

      .uuid-d52b56ba-8ce0-4864-b827-dcc6275d2116 {
        fill: #ffc9f1;
      }

      .uuid-8f93f715-e731-4f67-a3d6-2e442b938451 {
        fill: #ff78d8;
      }

      .uuid-52fe3725-26e2-42a9-8a9b-607d6ab8d4a1 {
        fill: none;
      }
    </style></defs><g id="uuid-2a31ff83-8394-4ae1-83e2-55ef45d928c7" data-name="uuid-831834e0-bbb8-426a-8cd6-ab5c8fbbbe1c"><g id="uuid-5a353068-881e-4ba2-860e-e9d7a7bbebc2" data-name="uuid-1fcb06a8-7212-4847-8b3f-ceda00c046b1"><g id="uuid-111bd790-e24a-47d4-950c-c3799bd40fa4" data-name="uuid-e9ed0fb3-5d7b-4b33-9f9b-ca7aaa2c4c4e"><circle class="uuid-8f93f715-e731-4f67-a3d6-2e442b938451" cx="489.69" cy="199.93" r="51.03" transform="translate(2.06 404.82) rotate(-45)"/><path class="uuid-8f93f715-e731-4f67-a3d6-2e442b938451" d="m543.98,181.68c-2.32-4.46-15.68-16.27-58.27-10.33-42.59,5.94-52.2,20.97-53.22,25.89-.85,4.1.27,25.66,12.14,26.71-2.48-5.6-3.39-10.66-3.39-10.66,0,0-1.04-13.08,47.55-19.86,48.44-6.76,51.17,6.09,51.17,6.09,0,0,.51,5.11-.34,11.18,11.13-4.26,6.3-25.29,4.37-29.01h0Z"/><g><path class="uuid-d52b56ba-8ce0-4864-b827-dcc6275d2116" d="m492.25,237.5c1.32-.8-2.83-7.79-4.88-20.65-2.05-12.86-1.21-17.43-3.79-17.45-2.58-.03-1.75,8.24.05,18.36,1.8,10.12,6.42,21.08,8.62,19.74h0Z"/><path class="uuid-d52b56ba-8ce0-4864-b827-dcc6275d2116" d="m465.36,219.85c-2.16,1.34-9.64-7.23-9.38-8.55s4.45-3.65,5.41-2.82,5.04,10.7,3.97,11.37Z"/><path class="uuid-d52b56ba-8ce0-4864-b827-dcc6275d2116" d="m507.79,240.81c.65,2.43,7.9-2.07,12.66-6.28,4.76-4.21,8.23-8.88,6.69-10.21s-5.38,3.46-9.7,7.15c-4.32,3.7-10.05,7.85-9.65,9.34h0Z"/><path class="uuid-d52b56ba-8ce0-4864-b827-dcc6275d2116" d="m528.66,221.27c1.31.69,5.74-5.97,3.92-6.69-1.82-.71-6.04,5.58-3.92,6.69Z"/><path class="uuid-d52b56ba-8ce0-4864-b827-dcc6275d2116" d="m517.57,174.22s2.67,7.62,3,13.63c6.31-.04,12.92,2.51,12.92,2.51,0,0-3.07-9.46-7.13-14.5,0,0-4.27-1.64-8.79-1.65Z"/><path class="uuid-d52b56ba-8ce0-4864-b827-dcc6275d2116" d="m446.91,187.4c-.93-.33-6.26,3.61-6.55,4.81s.52,10.21,1.91,11.14c1.39.93,7.99-14.78,4.64-15.95h0Z"/><path class="uuid-d52b56ba-8ce0-4864-b827-dcc6275d2116" d="m475.33,176.57c-1.18.68-2.89,14.87-2.63,15.54s15.42-1.93,16.17-2.61,1.34-14.43,1.1-14.98-12.84,1.02-14.63,2.04h0Z"/><path class="uuid-d52b56ba-8ce0-4864-b827-dcc6275d2116" d="m498.29,155.85c-1.48,3.03,14.49,8.56,15,6.7.51-1.86-12.18-12.47-15-6.7h0Z"/><path class="uuid-d52b56ba-8ce0-4864-b827-dcc6275d2116" d="m483.58,154.84c-.49,2.43,7.45,3.41,7.96.48.51-2.92-7.37-3.42-7.96-.48Z"/><path class="uuid-d52b56ba-8ce0-4864-b827-dcc6275d2116" d="m455.96,168.67c.51,3.37,9.82-2.85,8.12-5.58-1.7-2.73-8.56,2.64-8.12,5.58Z"/><path class="uuid-d52b56ba-8ce0-4864-b827-dcc6275d2116" d="m540.23,182.79c-3.62-1.64-.58,3.92.1,7.88.68,3.96.57,8.04,1.63,8.18,1.05.14,1.45-4.59,1.08-8.88s-.47-6.12-2.81-7.18h0Z"/></g><g><path class="uuid-c2b81f84-54b4-4471-8442-6dab97f9dbdb" d="m498.33,310.64h0s5.18.71,9.29,5.39c2.5-3.41,4.47-4.48,4.47-4.48l-9.42-67.52s-.42-2.97-7.1-2.04c-6.69.93-6.27,3.9-6.27,3.9l9.04,64.74Z"/><path class="uuid-c2b81f84-54b4-4471-8442-6dab97f9dbdb" d="m519.24,362.8c-14.5-4.39-8.79-16.19-2.56-18.34h0c-5.56-1.96-7.11-9.88-2.07-14.81h0c-4.28-.28-6.34-2.76-6.34-2.76,0,0-2.5,4.3-7.09,4.22h0l14.63,104.82s.41,2.97,7.1,2.04c6.69-.93,6.27-3.9,6.27-3.9l-9.95-71.27h0Z"/><path class="uuid-52fe3725-26e2-42a9-8a9b-607d6ab8d4a1" d="m515.82,435.93c-.57-4.08,12.8-5.94,13.37-1.87"/></g></g></g></g></svg>
<svg id="uuid-20641d54-9b80-4738-a850-744e9e159449" data-name="BODY" xmlns="http://www.w3.org/2000/svg" xmlns:xlink="http://www.w3.org/1999/xlink" viewBox="0 0 600 600"><defs><style>
      .uuid-08cd35e5-5429-4678-9716-d686ab3ecfef, .uuid-dda132b2-d95f-4871-a7b1-064b32f66064, .uuid-ebdbf30b-e82b-478c-8ba4-0d0c364ee291 {
        fill: none;
      }

      .uuid-742681a4-c23e-4f30-b8ee-5b9c20c0b35c {
        stroke: #ff78d8;
        stroke-width: 5px;
      }

      .uuid-742681a4-c23e-4f30-b8ee-5b9c20c0b35c, .uuid-7cac7961-9347-486a-acb0-10dbd6513383, .uuid-b14f2490-b4c9-4cfa-9101-1711323d80d6, .uuid-dda132b2-d95f-4871-a7b1-064b32f66064 {
        stroke-linecap: round;
        stroke-linejoin: round;
      }

      .uuid-4e16943e-fd44-479d-99ea-a54526ffe949, .uuid-b14f2490-b4c9-4cfa-9101-1711323d80d6 {
        fill: #fff7f0;
      }

      .uuid-658b5f94-e9af-4c82-a1e0-8418994c6472 {
        fill: #ff78d8;
      }

      .uuid-58a45e6e-6234-4179-aa22-3da84e379254, .uuid-7cac7961-9347-486a-acb0-10dbd6513383 {
        fill: #a07bff;
      }

      .uuid-7cac7961-9347-486a-acb0-10dbd6513383, .uuid-b14f2490-b4c9-4cfa-9101-1711323d80d6, .uuid-dda132b2-d95f-4871-a7b1-064b32f66064 {
        stroke: #000;
        stroke-width: 2px;
      }

      .uuid-ebdbf30b-e82b-478c-8ba4-0d0c364ee291 {
        clip-path: url(#uuid-f1915c35-cc3e-42ae-bf03-e75644ba9dff);
      }
    </style><clipPath id="uuid-f1915c35-cc3e-42ae-bf03-e75644ba9dff"><path class="uuid-08cd35e5-5429-4678-9716-d686ab3ecfef" d="m292.18,151.63c-45.29,18.53-57.04,82.27-16.83,154.86,40.21,72.59,92.47,79.78,131.35,57.32,32.27-18.64,50.95-86.94,11.5-148.35-38.38-59.74-88.11-79.35-126.02-63.84h0Z"/></clipPath></defs><g id="uuid-85e1621e-e44d-479c-b341-dd87cf6c87d5" data-name="uuid-a9579faf-1ae5-4d40-a4cc-22ba1730b184"><g id="uuid-160c4403-e087-4e8a-a846-a26c4516381d" data-name="uuid-5d29859d-1e7e-4471-9f73-63fc681f3063"><g id="uuid-78a2c4f3-0092-4c8a-a81b-4d0f0dd090a9" data-name="uuid-a170f457-5acf-49c3-a376-5e6480af8811"><g><g><path class="uuid-7cac7961-9347-486a-acb0-10dbd6513383" d="m265.36,275.49s-48.99,12.97-101.9,3.29l1.51-8.18s-5.22,1.59-6.22,2.59c-1.01,1.01-3.02,18.49-2.61,30.55,0,0,12.76,8.08,57.95,8.49,45.19.41,64.06-9.23,64.06-9.23l-12.79-27.53h0Z"/><path class="uuid-7cac7961-9347-486a-acb0-10dbd6513383" d="m207.05,282.36c-1.15,13.66.63,29.77.63,29.77"/><path class="uuid-7cac7961-9347-486a-acb0-10dbd6513383" d="m237.19,280.43c1.04,19.57,4.82,30.82,4.82,30.82"/></g><g><path class="uuid-b14f2490-b4c9-4cfa-9101-1711323d80d6" d="m345.05,154s7.1-16.33,18.29-25.28c2.87-2.3,8.01-4.02,14.78,11.3,6.77,15.32,11.49,44.17,11.49,44.17,0,0-12.77-13.79-44.55-30.19h0Z"/><path class="uuid-dda132b2-d95f-4871-a7b1-064b32f66064" d="m358.58,163.39s2.74-13.98,5.04-20.17c2.3-6.19,5.36-2.87,5.36-2.87"/><path class="uuid-b14f2490-b4c9-4cfa-9101-1711323d80d6" d="m260.03,190.39s-18.01-1.34-37.15,6.79c-3.27,1.39-11.44,6.49-2.11,20.21,9.33,13.72,35.02,32.79,35.02,32.79,0,0,1.57-25.73,4.23-59.79Z"/><path class="uuid-dda132b2-d95f-4871-a7b1-064b32f66064" d="m253.44,206.95s-12.01-2.61-18.57-2.87c-6.55-.26-6.47,3.52-6.47,3.52"/></g><g><path class="uuid-4e16943e-fd44-479d-99ea-a54526ffe949" d="m292.18,151.63c-45.29,18.53-57.04,82.27-16.83,154.86,40.21,72.59,92.47,79.78,131.35,57.32,32.27-18.64,50.95-86.94,11.5-148.35-38.38-59.74-88.11-79.35-126.02-63.84h0Z"/><g class="uuid-ebdbf30b-e82b-478c-8ba4-0d0c364ee291"><g><path class="uuid-742681a4-c23e-4f30-b8ee-5b9c20c0b35c" d="m383.73,253.96s-5.17-13.4,3.06-26.33c8.23-12.93,17.71-11.2,17.71-11.2,0,0-3.64,3.06-1.91,13.5,1.72,10.44-1.44,22.98-18.86,24.03h0Z"/><path class="uuid-742681a4-c23e-4f30-b8ee-5b9c20c0b35c" d="m355.81,266.02s-12.03-13.06-30.94-8.41c-18.91,4.65-22.24,17.83-22.24,17.83,0,0,4.67-2.21,16.75,2.13,13.15,4.72,26.28,6.55,36.44-11.56Z"/><path class="uuid-dda132b2-d95f-4871-a7b1-064b32f66064" d="m392.88,282.4c-.96-3.83,2.35-6.41,3.64-6.27"/><path class="uuid-dda132b2-d95f-4871-a7b1-064b32f66064" d="m383.25,287.76s-8.04-3.26-10.63,2.87"/><path class="uuid-dda132b2-d95f-4871-a7b1-064b32f66064" d="m359.32,346.45s12.64,5.68,19.82-15.93c7.18-21.6,20.27-25.8,29.59-26.01,8.62-.19,14.74,6.51,15.63-1.82"/><path class="uuid-dda132b2-d95f-4871-a7b1-064b32f66064" d="m410.64,318.97s-8.52-3.06-10.82,6.7"/><g><path class="uuid-58a45e6e-6234-4179-aa22-3da84e379254" d="m429.31,260.28c2.49-10.53,5.84-14.74,5.84-14.74l-9.77-21.26c-4.02,9.63-1.63,16.37-3.35,25.95-1.72,9.57-6.46,19.68-15.99,22.79,14.55,2.87,20.78-2.2,23.27-12.73Z"/><path class="uuid-658b5f94-e9af-4c82-a1e0-8418994c6472" d="m440.49,262.7c-.69,13.12-12.07,25.43-16.8,26.06,13.66,2.79,19.86-3.49,19.86-3.49l-3.06-22.57Z"/><path class="uuid-58a45e6e-6234-4179-aa22-3da84e379254" d="m320.36,303.41c-18.67-1.54-31.68-8.26-49.26,1.54-3.48,1.94,9.34,15.51,9.34,15.51,5.6-4.74,15.94-6.61,38.49-6.75,22.55-.14,26.73-13.71,26.73-13.71,0,0-6.62,4.95-25.29,3.41Z"/><path class="uuid-658b5f94-e9af-4c82-a1e0-8418994c6472" d="m301.55,347.9s25.95-8.05,35.43-22.99c-11.92,7.61-36.58,4.89-46.06,12.22l10.63,10.77Z"/></g></g></g><path class="uuid-dda132b2-d95f-4871-a7b1-064b32f66064" d="m292.18,151.63c-45.29,18.53-57.04,82.27-16.83,154.86,40.21,72.59,92.47,79.78,131.35,57.32,32.27-18.64,50.95-86.94,11.5-148.35-38.38-59.74-88.11-79.35-126.02-63.84h0Z"/></g></g></g></g></g></svg>
<svg id="uuid-c5802efb-d8b3-4039-b7e0-c95fa452a47a" data-name="BODY" xmlns="http://www.w3.org/2000/svg" viewBox="0 0 600 600"><defs><style>
      .uuid-caac0c2f-423f-441f-b879-5a81cdc74fb8 {
        fill: #fff;
        stroke: #000;
        stroke-miterlimit: 10;
        stroke-width: 2px;
      }
    </style></defs><path class="uuid-caac0c2f-423f-441f-b879-5a81cdc74fb8" d="m234.82,145.43c-9.89-21.59-45.38-26.51-79.27-10.99-33.89,15.52-53.35,45.61-43.46,67.2,9.99,21.81,39.44,22.36,59.43,17.73,4.99-1.16,10.09-2.59,14.83-4.51,5.26-2.14,11.16-6.03,16.85-3.03,2.88,1.52,17.21,8.41,19.06,3.74.88-2.24-2.6-4.93-3.79-6.4-2.06-2.55-3.15-5.62-2.69-8.93.52-3.73,3.23-6.58,5.75-9.17,3.01-3.1,5.82-6.19,8.14-9.86,6.51-10.31,10.47-24.16,5.15-35.78Z"/><g><path d="m149.46,188.92c-10.57-16.87-8.5-25.85-2.36-29.7,6.14-3.85,15.13-1.79,25.7,15.08,10.57,16.87,8.5,25.85,2.36,29.7-6.14,3.85-15.13,1.79-25.7-15.08Zm13.51-8.46c-8.8-14.05-10.34-14.45-11.26-13.87-.92.58-1.23,2.14,7.58,16.18s10.34,14.45,11.26,13.87c.92-.58,1.23-2.14-7.58-16.18Z"/><path d="m163.15,150.44l9.21-5.77,10.96,17.48,2.46-1.54-10.96-17.48,9.21-5.77,8.08,19.71,20.06,22.45-9.83,6.16-12.99-16.63-1.23.77,11.15,17.79-9.21,5.77-26.91-42.94Z"/></g></svg>
</svg>