<?xml version="1.0" encoding="UTF-8"?>
<svg xmlns="http://www.w3.org/2000/svg" viewBox="0 0 600 600">
<svg id="uuid-2ebc4e2e-813a-485c-9454-52c68b62da26" data-name="BACKGROUND" xmlns="http://www.w3.org/2000/svg" viewBox="0 0 600 600"><defs><style>
      .uuid-eb841eac-0e7b-47b1-8e78-e5724f1a9b43 {
        fill: #ffff0d;
      }
    </style></defs><rect class="uuid-eb841eac-0e7b-47b1-8e78-e5724f1a9b43" x="-1" y="-1" width="602" height="602"/></svg>
<svg id="uuid-a31a6b4f-e655-4c0b-9290-a675a01244c8" data-name="BODY" xmlns="http://www.w3.org/2000/svg" viewBox="0 0 600 600"><defs><style>
      .uuid-02feae16-15ad-446f-b155-475dfe7ead0f {
        fill: #fff;
      }

      .uuid-8e8e02c1-3774-4aaf-92fb-f3ff81fe8f6d, .uuid-51f9bb77-a202-4295-8587-9b7fab6500b3, .uuid-862d3442-dd45-4bf0-ad6b-177f0e2ee560, .uuid-55d8d9bd-f0f4-492f-ac99-834eda67cd9d, .uuid-3065f46c-b1cc-4fe6-9bdc-7fd254c39b59 {
        stroke: #000;
        stroke-width: 2px;
      }

      .uuid-8e8e02c1-3774-4aaf-92fb-f3ff81fe8f6d, .uuid-862d3442-dd45-4bf0-ad6b-177f0e2ee560, .uuid-55d8d9bd-f0f4-492f-ac99-834eda67cd9d, .uuid-3065f46c-b1cc-4fe6-9bdc-7fd254c39b59 {
        fill: #f9a723;
      }

      .uuid-8e8e02c1-3774-4aaf-92fb-f3ff81fe8f6d, .uuid-55d8d9bd-f0f4-492f-ac99-834eda67cd9d {
        stroke-miterlimit: 10;
      }

      .uuid-51f9bb77-a202-4295-8587-9b7fab6500b3 {
        fill: none;
      }

      .uuid-51f9bb77-a202-4295-8587-9b7fab6500b3, .uuid-862d3442-dd45-4bf0-ad6b-177f0e2ee560, .uuid-55d8d9bd-f0f4-492f-ac99-834eda67cd9d {
        stroke-linecap: round;
      }

      .uuid-51f9bb77-a202-4295-8587-9b7fab6500b3, .uuid-862d3442-dd45-4bf0-ad6b-177f0e2ee560, .uuid-3065f46c-b1cc-4fe6-9bdc-7fd254c39b59 {
        stroke-linejoin: round;
      }
    </style></defs><ellipse cx="300" cy="518.65" rx="138.6" ry="22.93"/><g><path class="uuid-8e8e02c1-3774-4aaf-92fb-f3ff81fe8f6d" d="m319.36,427.14c-1.16,1.05-54.95,57-54.95,57,0,0,21.51-1.95,31.74,10.62,10.23,12.57,7.26,23.89,7.26,23.89h-66.9s-28.69-36.17-28.69-36.17c0,0,3.74-13.4,20.44-10.59,20.9-19.38,55.52-59.13,55.52-59.13l35.59,14.38Z"/><path d="m283.78,412.76l31.28,12.64-3.24,9.5c-2.93,3.03-9.76,10.12-13.64,14.14-11.92,0-27.98-2.13-41.33-6.37,13.95-15.1,26.93-29.92,26.93-29.92Z"/></g><g><path class="uuid-862d3442-dd45-4bf0-ad6b-177f0e2ee560" d="m409.81,359.6c9.2,3.77,29.89,12.05,42.79,16.03,2.11.65,4.41.69,6.5-.04,11.79-4.08,28.47-11.39,33.03-11.32,5.25.08,7.8,3.93,19.88,2.04,13.36-2.1,22.43-11.99,20.93-23.3-4.21-43.28-25.18-26.79-25.18-26.79,0,0-5.84-8.75-18.76-4.82-11.83,3.6-10.2,14.44-6.47,22.47l-25.29,8.58c-2.14.72-4.45.71-6.59-.02l-35.7-12.61"/><path class="uuid-55d8d9bd-f0f4-492f-ac99-834eda67cd9d" d="m533.36,312.82c2.5,3.94,1.62,9.14-1.57,12.4-2.47,2.53-5.88,3.88-9.32,4.4-2.8.43-5.7.42-8.49-.08-2.14-.39-4.29-1.1-5.79-2.75-1.66-1.83-2.27-4.46-1.98-6.87.51-4.17,3.84-7.14,7.22-9.26,3.17-1.98,6.86-3.26,10.64-3.09,3.8.18,7.36,2.19,9.3,5.24Z"/><path class="uuid-55d8d9bd-f0f4-492f-ac99-834eda67cd9d" d="m538.57,349.84c.97,3.03.32,6.43-1.5,9.01-3.77,5.33-11.17,5.65-16.96,4.27-3.31-.79-6.69-2.21-8.67-5.13-3.13-4.61-.82-9.79,3.48-12.56,2.58-1.66,5.61-2.67,8.63-3.14,5.73-.89,13.1,1.51,15.03,7.56Z"/><path class="uuid-55d8d9bd-f0f4-492f-ac99-834eda67cd9d" d="m538.71,328.53c1.8,2.99,2.06,6.89.22,9.9-1.95,3.2-4.94,5.25-8.49,6.28-3.66,1.07-7.64,1.27-11.4.44-2.25-.5-4.53-1.38-5.96-3.28-1.86-2.47-1.89-5.68-.85-8.49,1.2-3.24,4.17-5.69,7.09-7.37,6.15-3.56,15.21-4.43,19.39,2.52Z"/><path class="uuid-55d8d9bd-f0f4-492f-ac99-834eda67cd9d" d="m501.85,311.68s9.27,3.84,7.77,12.02c-1.04,5.68-8.17,9.55-14.94,6.13"/><path class="uuid-51f9bb77-a202-4295-8587-9b7fab6500b3" d="m500.67,331.08c2.41,1.63,5.11,8.04,3.4,14.42"/><path d="m443.44,339.88c-2.88,10.58-6.94,20.23-11.17,28.59-10.17-3.78-21.16-9.53-27-11.93l11.83-26.02,26.35,9.36Z"/></g><g><circle class="uuid-8e8e02c1-3774-4aaf-92fb-f3ff81fe8f6d" cx="300" cy="300" r="138.16"/><path class="uuid-02feae16-15ad-446f-b155-475dfe7ead0f" d="m184.58,308.17c-4.41,0-7.98-3.57-7.98-7.98,0-67.74,55.11-122.86,122.86-122.86,4.41,0,7.98,3.57,7.98,7.98s-3.57,7.98-7.98,7.98c-58.94,0-106.9,47.95-106.9,106.9,0,4.41-3.57,7.98-7.98,7.98Z"/></g><path class="uuid-51f9bb77-a202-4295-8587-9b7fab6500b3" d="m264.41,484.14c-4.06.49-11.49,1.36-17.85,7.23"/><path class="uuid-02feae16-15ad-446f-b155-475dfe7ead0f" d="m185.17,308.14c-4.41,0-7.98-3.57-7.98-7.98,0-67.74,55.11-122.86,122.86-122.86,4.41,0,7.98,3.57,7.98,7.98s-3.57,7.98-7.98,7.98c-58.94,0-106.9,47.95-106.9,106.9,0,4.41-3.57,7.98-7.98,7.98Z"/><path d="m203.75,397.46l34.2-27.46-24.86,36.3c-6.73-5.1-3.66-2.61-9.34-8.83Z"/><path class="uuid-3065f46c-b1cc-4fe6-9bdc-7fd254c39b59" d="m323.72,387.31c19.14-13.4,39.15-11.3,55.52,7.36,19.6,22.35,30.57,33.06,30.57,33.06,0,0,10.74-19.34,34.77-17.5,18.26,1.4,24.84,14.43,24.84,14.43,0,0,6.21,8.82-22.45,33.5-28.66,24.68-54.93,40.92-61.14,29.46-6.21-11.46-2.82-32.1-2.82-32.1,0,0-22.02-26.09-27.94-32.01-6.79-6.79-15.71-1.36-15.71-1.36"/><path class="uuid-8e8e02c1-3774-4aaf-92fb-f3ff81fe8f6d" d="m446.97,458.17c-25.89,22.29-49.82,37.69-58.79,32.02-9.77-7.44,26.84-38.54,44.88-52.7,18.04-14.16,32.17-17.82,36.36-12.81,0,0,6.21,8.82-22.45,33.5Z"/><path class="uuid-51f9bb77-a202-4295-8587-9b7fab6500b3" d="m409.81,427.74c-1.89,2.86-4.55,10.38-4.55,10.38"/><g><path class="uuid-862d3442-dd45-4bf0-ad6b-177f0e2ee560" d="m214.11,345.7c-8.05,5.83-25.34,20.79-35.52,29.67-1.67,1.45-2.82,3.41-3.39,5.55-3.14,11.67-8.55,33.44-8.55,33.44,0,0-8.42.58-12.19,14.35-3.64,13.3-6.64,25.06,3.77,29.75.35,7.47,7.51,15.45,19.2,9.41.14-.06,1.32,1.32,1.44,1.45,2.64,2.7,6.36,4.45,10.13,4.81,3.65.36,7.61-.67,10.43-3.08,3.29-2.81,5.4-6.94,6.05-11.2.4-2.61.26-5.31-.75-7.78,0,0,6.2-2.51,8.05-11.34,1.99-9.49-4.22-19.42-14.62-18.18l6.17-23.11c.51-2.2,1.74-4.16,3.49-5.59l29.38-24.3"/><path class="uuid-51f9bb77-a202-4295-8587-9b7fab6500b3" d="m204.73,452.06c-1.37-3.47-5.39-7.08-9-6.88"/><path class="uuid-51f9bb77-a202-4295-8587-9b7fab6500b3" d="m178.86,469.3c-5.16-5.27-3.82-11.97-2.9-13.54"/><path class="uuid-51f9bb77-a202-4295-8587-9b7fab6500b3" d="m158.22,458.45c-.27-5.22.73-7.32,3.06-9.83"/><path class="uuid-51f9bb77-a202-4295-8587-9b7fab6500b3" d="m193.93,450.63c.14-2.07.48-4.16,1.32-6.06.85-1.95,2.36-3.88,4.31-4.85"/></g></svg>
<svg id="uuid-6a02459f-1b68-443c-bd4b-7b11b7abbe5a" data-name="BODY" xmlns="http://www.w3.org/2000/svg" viewBox="0 0 600 600"><defs><style>
      .uuid-f630b38e-3266-47b2-bfbc-f2260501e18f {
        fill: #ff78d8;
        stroke: #000;
        stroke-linecap: round;
        stroke-linejoin: round;
        stroke-width: 2px;
      }
    </style></defs><circle cx="362.12" cy="293.18" r="9.78" transform="translate(-9.59 12.26) rotate(-1.91)"/><path class="uuid-f630b38e-3266-47b2-bfbc-f2260501e18f" d="m337.57,261.14c-1.59,1.06-2.46,2.67-2.79,4.19-.28,1.29-1.56,2.12-2.85,1.86-1.5-.3-3.22-.16-4.8.89-2.88,1.92-3.44,6.16-1.23,9.48,3.99,6.01,12.54,6.76,17.83,6.27.82-.08,1.55-.56,1.94-1.29,2.5-4.69,5.12-12.85,1.13-18.86-2.2-3.32-6.33-4.45-9.21-2.54Z"/><path class="uuid-f630b38e-3266-47b2-bfbc-f2260501e18f" d="m371.18,249c-1.81.61-3.07,1.94-3.79,3.32-.6,1.17-2.05,1.64-3.24,1.06-1.37-.67-3.07-1-4.87-.39-3.28,1.1-4.92,5.06-3.65,8.83,2.29,6.84,10.35,9.79,15.59,10.69.82.14,1.64-.14,2.21-.74,3.64-3.88,8.28-11.08,5.99-17.92-1.27-3.78-4.96-5.94-8.24-4.84Z"/></svg>
<svg id="uuid-4344a71a-0588-436b-b741-6e5b57496f93" data-name="BODY" xmlns="http://www.w3.org/2000/svg" viewBox="0 0 600 600"><defs><style>
      .uuid-ef6c6cee-ff80-4846-afa6-667aad9162e2 {
        fill: #fff;
      }

      .uuid-2fb20ced-1641-4278-86d5-48c033ca8676, .uuid-390e72a6-a64a-44de-911b-8edccf8dbf57, .uuid-619548db-008d-4e1b-9d7f-6855ade43f4a, .uuid-0058def8-2ac0-4593-b965-255e04584528 {
        stroke: #000;
        stroke-width: 2px;
      }

      .uuid-2fb20ced-1641-4278-86d5-48c033ca8676, .uuid-390e72a6-a64a-44de-911b-8edccf8dbf57, .uuid-0058def8-2ac0-4593-b965-255e04584528 {
        stroke-miterlimit: 10;
      }

      .uuid-2fb20ced-1641-4278-86d5-48c033ca8676, .uuid-619548db-008d-4e1b-9d7f-6855ade43f4a {
        fill: #ffc9f1;
      }

      .uuid-390e72a6-a64a-44de-911b-8edccf8dbf57 {
        fill: #ff78d8;
      }

      .uuid-619548db-008d-4e1b-9d7f-6855ade43f4a {
        stroke-linecap: round;
        stroke-linejoin: round;
      }
    </style></defs><g><g><g><path class="uuid-0058def8-2ac0-4593-b965-255e04584528" d="m198.52,154.49c-8.78-25.55-.18-51.72,19.38-58.66-40.79,14.47-66.61,46.75-58.1,72.39h-.02s17.17,48.43,17.17,48.43c2.6,7.33,20.52,8.15,44.76,3.26l-23.2-65.41h.01Z"/><path class="uuid-2fb20ced-1641-4278-86d5-48c033ca8676" d="m198.51,154.49s-15.58-47.6,19.39-58.66c22.62-7.15,50.39-12.02,72.35-.08,10.91,5.93,16.83,15.28,21.24,26.62.71,1.82,9.3,22.68,7.89,23.3,0,0-21.42,7.59-39.17,25.49-10.74,10.83-20.33,20.14-29.83,41.23-2.08,4.61-28.68,7.5-28.68,7.5l-23.2-65.41Z"/></g><path class="uuid-390e72a6-a64a-44de-911b-8edccf8dbf57" d="m319.39,145.68c18.04-.11,56.23,2.74,72.12,4,2.86.23,4.15,3.68,2.15,5.73l-17.27,17.69c-11.29,11.94-30.41,24.47-50.64,28.92-20.66,4.54-75.36,10.38-75.36,10.38,0,0,19.37-49.12,69-66.72Z"/></g><path d="m325.75,202.03c-11.9,2.62-35.1,5.66-52.63,7.78,17.91,1.44,45.27,3.39,58.82,3.12,20.71-.41,41.9-8.95,55.32-18.45l.99-.68c-5.92-5.16-12.27-9.82-18.99-13.96-11.37,9.63-27.07,18.58-43.5,22.19Z"/></g><ellipse cx="225.37" cy="93.66" rx="11.07" ry="5.68" transform="translate(-15.74 55.87) rotate(-13.66)"/><path class="uuid-619548db-008d-4e1b-9d7f-6855ade43f4a" d="m227.34,95.83s12.12,2.16,23.05,14.16"/><g><polygon class="uuid-ef6c6cee-ff80-4846-afa6-667aad9162e2" points="261.16 133.51 259.62 142.86 270.64 149.16 280.22 130.46 278.78 125.9 272.15 125.9 261.16 133.51"/><path d="m290.33,133.08c-.58-2.96-2.71-5.21-5.34-5.97.13-.87.12-1.78-.06-2.71-.8-4.14-4.66-6.87-8.61-6.11-.88.17-1.69.49-2.42.96-1.64-2.28-4.43-3.52-7.26-2.97-2.83.55-4.95,2.74-5.62,5.47-.84-.16-1.72-.15-2.6.02-3.96.77-6.51,4.75-5.7,8.89.18.93.51,1.78.95,2.54-2.15,1.68-3.29,4.57-2.71,7.53.54,2.8,2.49,4.96,4.91,5.83.02.33.06.65.13.97.8,4.14,4.66,6.88,8.62,6.11.88-.17,1.69-.5,2.41-.95,1.65,2.27,4.43,3.52,7.26,2.97,2.84-.55,4.95-2.75,5.63-5.47.84.15,1.71.15,2.6-.02,3.96-.77,6.51-4.75,5.7-8.89-.06-.33-.15-.64-.25-.95,1.92-1.71,2.92-4.44,2.37-7.24Zm-13.62-3.84l-5.76,13.77c-.19.46-.59.77-1.05.85-.27.05-.56.03-.83-.08l-.25-.13-5.41-3.65c-.66-.44-.83-1.33-.39-1.99.44-.65,1.33-.83,1.99-.39l3.96,2.67,5.08-12.16c.31-.73,1.15-1.07,1.88-.77.73.31,1.08,1.15.77,1.88Z"/></g></svg>
</svg>