<?xml version="1.0" encoding="UTF-8"?>
<svg xmlns="http://www.w3.org/2000/svg" viewBox="0 0 600 600">
<svg id="uuid-b5df70f2-f26b-4cc4-9992-c02ca3e1ffe7" data-name="BACKGROUND" xmlns="http://www.w3.org/2000/svg" viewBox="0 0 600 600"><defs><style>
      .uuid-b49e1da8-89ab-4517-8063-4eac3fbcc068 {
        fill: #3ef1ff;
      }
    </style></defs><rect class="uuid-b49e1da8-89ab-4517-8063-4eac3fbcc068" x="-1" y="-1" width="602" height="602"/></svg>
<svg id="uuid-e5c605a8-e4f9-4978-ad72-5db31b65b190" data-name="BACKGROUND" xmlns="http://www.w3.org/2000/svg" viewBox="0 0 600 600"><defs><style>
      .uuid-883efea5-677f-4371-9dc7-5cd56130fbcb, .uuid-d3f758ac-5239-4a0a-b4e9-3b31a4d26e61 {
        fill: #fff;
      }

      .uuid-d3f758ac-5239-4a0a-b4e9-3b31a4d26e61, .uuid-7f242137-77c3-4516-b3dd-e07924d8b27d, .uuid-446566b0-e754-4323-8c0e-f2552727105b, .uuid-0f9d5605-abaf-429f-9eda-0762dec12f88, .uuid-dee44871-50d0-4ac4-9972-c62084d34d89, .uuid-4c0d796b-ae01-4a35-8369-ec5c74e01e56, .uuid-8394a5ef-9c6d-414e-8d02-2034ddcfd3a6 {
        stroke: #000;
        stroke-width: 2px;
      }

      .uuid-d3f758ac-5239-4a0a-b4e9-3b31a4d26e61, .uuid-7f242137-77c3-4516-b3dd-e07924d8b27d, .uuid-dee44871-50d0-4ac4-9972-c62084d34d89, .uuid-4c0d796b-ae01-4a35-8369-ec5c74e01e56 {
        stroke-miterlimit: 10;
      }

      .uuid-d3f758ac-5239-4a0a-b4e9-3b31a4d26e61, .uuid-446566b0-e754-4323-8c0e-f2552727105b, .uuid-0f9d5605-abaf-429f-9eda-0762dec12f88, .uuid-dee44871-50d0-4ac4-9972-c62084d34d89, .uuid-4c0d796b-ae01-4a35-8369-ec5c74e01e56 {
        stroke-linecap: round;
      }

      .uuid-7f242137-77c3-4516-b3dd-e07924d8b27d, .uuid-446566b0-e754-4323-8c0e-f2552727105b, .uuid-dee44871-50d0-4ac4-9972-c62084d34d89, .uuid-8394a5ef-9c6d-414e-8d02-2034ddcfd3a6 {
        fill: #a07bff;
      }

      .uuid-446566b0-e754-4323-8c0e-f2552727105b, .uuid-0f9d5605-abaf-429f-9eda-0762dec12f88, .uuid-8394a5ef-9c6d-414e-8d02-2034ddcfd3a6 {
        stroke-linejoin: round;
      }

      .uuid-0f9d5605-abaf-429f-9eda-0762dec12f88 {
        fill: none;
      }

      .uuid-4c0d796b-ae01-4a35-8369-ec5c74e01e56 {
        fill: #8400ff;
      }
    </style></defs><path class="uuid-446566b0-e754-4323-8c0e-f2552727105b" d="m409.81,359.6c9.2,3.77,29.89,12.05,42.79,16.03,2.11.65,4.41.69,6.5-.04,11.79-4.08,28.47-11.39,33.03-11.32,5.25.08,7.8,3.93,19.88,2.04,13.36-2.1,22.43-11.99,20.93-23.3-4.21-43.28-25.18-26.79-25.18-26.79,0,0-5.84-8.75-18.76-4.82-11.83,3.6-10.2,14.44-6.47,22.47l-25.29,8.58c-2.14.72-4.45.71-6.59-.02l-35.7-12.61"/><path class="uuid-dee44871-50d0-4ac4-9972-c62084d34d89" d="m533.36,312.82c2.5,3.94,1.62,9.14-1.57,12.4-2.47,2.53-5.88,3.88-9.32,4.4-2.8.43-5.7.42-8.49-.08-2.14-.39-4.29-1.1-5.79-2.75-1.66-1.83-2.27-4.46-1.98-6.87.51-4.17,3.84-7.14,7.22-9.26,3.17-1.98,6.86-3.26,10.64-3.09,3.8.18,7.36,2.19,9.3,5.24Z"/><path class="uuid-dee44871-50d0-4ac4-9972-c62084d34d89" d="m538.57,349.84c.97,3.03.32,6.43-1.5,9.01-3.77,5.33-11.17,5.65-16.96,4.27-3.31-.79-6.69-2.21-8.67-5.13-3.13-4.61-.82-9.79,3.48-12.56,2.58-1.66,5.61-2.67,8.63-3.14,5.73-.89,13.1,1.51,15.03,7.56Z"/><path class="uuid-dee44871-50d0-4ac4-9972-c62084d34d89" d="m538.71,328.53c1.8,2.99,2.06,6.89.22,9.9-1.95,3.2-4.94,5.25-8.49,6.28-3.66,1.07-7.64,1.27-11.4.44-2.25-.5-4.53-1.38-5.96-3.28-1.86-2.47-1.89-5.68-.85-8.49,1.2-3.24,4.17-5.69,7.09-7.37,6.15-3.56,15.21-4.43,19.39,2.52Z"/><path class="uuid-dee44871-50d0-4ac4-9972-c62084d34d89" d="m501.85,311.68s9.27,3.84,7.77,12.02c-1.04,5.68-8.17,9.55-14.94,6.13"/><path class="uuid-0f9d5605-abaf-429f-9eda-0762dec12f88" d="m500.67,331.08c2.41,1.63,5.11,8.04,3.4,14.42"/><path d="m443.44,339.88c-2.88,10.58-6.94,20.23-11.17,28.59-10.17-3.78-21.16-9.53-27-11.93l11.83-26.02,26.35,9.36Z"/><ellipse cx="300" cy="518.65" rx="138.6" ry="22.93"/><path class="uuid-7f242137-77c3-4516-b3dd-e07924d8b27d" d="m319.36,427.14c-1.16,1.05-54.95,57-54.95,57,0,0,21.51-1.95,31.74,10.62,10.23,12.57,7.26,23.89,7.26,23.89h-66.9s-28.69-36.17-28.69-36.17c0,0,3.74-13.4,20.44-10.59,20.9-19.38,55.52-59.13,55.52-59.13l35.59,14.38Z"/><path d="m283.78,412.76l31.28,12.64-3.24,9.5c-2.93,3.03-9.76,10.12-13.64,14.14-11.92,0-27.98-2.13-41.33-6.37,13.95-15.1,26.93-29.92,26.93-29.92Z"/><path class="uuid-7f242137-77c3-4516-b3dd-e07924d8b27d" d="m354.45,173.54l-.11.27-174.2,58.29c-11.49,20.13-18.05,43.43-18.05,68.27,0,76.2,61.77,137.98,137.97,137.98s137.98-61.77,137.98-137.98c0-56.89-34.43-105.72-83.58-126.83Z"/><path class="uuid-0f9d5605-abaf-429f-9eda-0762dec12f88" d="m264.41,484.14c-4.06.49-11.49,1.36-17.85,7.23"/><path class="uuid-883efea5-677f-4371-9dc7-5cd56130fbcb" d="m185.17,308.14c-4.41,0-7.98-3.57-7.98-7.98,0-67.74,55.11-122.86,122.86-122.86,4.41,0,7.98,3.57,7.98,7.98s-3.57,7.98-7.98,7.98c-58.94,0-106.9,47.95-106.9,106.9,0,4.41-3.57,7.98-7.98,7.98Z"/><path d="m203.75,397.46l34.2-27.46-24.86,36.3c-6.73-5.1-3.66-2.61-9.34-8.83Z"/><path class="uuid-8394a5ef-9c6d-414e-8d02-2034ddcfd3a6" d="m323.72,387.31c19.14-13.4,39.15-11.3,55.52,7.36,19.6,22.35,30.57,33.06,30.57,33.06,0,0,10.74-19.34,34.77-17.5,18.26,1.4,24.84,14.43,24.84,14.43,0,0,6.21,8.82-22.45,33.5-28.66,24.68-54.93,40.92-61.14,29.46-6.21-11.46-2.82-32.1-2.82-32.1,0,0-22.02-26.09-27.94-32.01-6.79-6.79-15.71-1.36-15.71-1.36"/><path class="uuid-7f242137-77c3-4516-b3dd-e07924d8b27d" d="m446.97,458.17c-25.89,22.29-49.82,37.69-58.79,32.02-9.77-7.44,26.84-38.54,44.88-52.7,18.04-14.16,32.17-17.82,36.36-12.81,0,0,6.21,8.82-22.45,33.5Z"/><path class="uuid-0f9d5605-abaf-429f-9eda-0762dec12f88" d="m409.81,427.74c-1.89,2.86-4.55,10.38-4.55,10.38"/><ellipse class="uuid-d3f758ac-5239-4a0a-b4e9-3b31a4d26e61" cx="269.41" cy="209.07" rx="94.9" ry="26.25" transform="translate(-52.5 96.54) rotate(-18.55)"/><ellipse class="uuid-4c0d796b-ae01-4a35-8369-ec5c74e01e56" cx="269.41" cy="209.07" rx="71.19" ry="13.32" transform="translate(-52.5 96.54) rotate(-18.55)"/><g><path class="uuid-446566b0-e754-4323-8c0e-f2552727105b" d="m214.11,345.7c-8.05,5.83-25.34,20.79-35.52,29.67-1.67,1.45-2.82,3.41-3.39,5.55-3.14,11.67-8.55,33.44-8.55,33.44,0,0-8.42.58-12.19,14.35-3.64,13.3-6.64,25.06,3.77,29.75.35,7.47,7.51,15.45,19.2,9.41.14-.06,1.32,1.32,1.44,1.45,2.64,2.7,6.36,4.45,10.13,4.81,3.65.36,7.61-.67,10.43-3.08,3.29-2.81,5.4-6.94,6.05-11.2.4-2.61.26-5.31-.75-7.78,0,0,6.2-2.51,8.05-11.34,1.99-9.49-4.22-19.42-14.62-18.18l6.17-23.11c.51-2.2,1.74-4.16,3.49-5.59l29.38-24.3"/><path class="uuid-0f9d5605-abaf-429f-9eda-0762dec12f88" d="m204.73,452.06c-1.37-3.47-5.39-7.08-9-6.88"/><path class="uuid-0f9d5605-abaf-429f-9eda-0762dec12f88" d="m178.86,469.3c-5.16-5.27-3.82-11.97-2.9-13.54"/><path class="uuid-0f9d5605-abaf-429f-9eda-0762dec12f88" d="m158.22,458.45c-.27-5.22.73-7.32,3.06-9.83"/><path class="uuid-0f9d5605-abaf-429f-9eda-0762dec12f88" d="m193.93,450.63c.14-2.07.48-4.16,1.32-6.06.85-1.95,2.36-3.88,4.31-4.85"/></g></svg>
<svg id="uuid-6a02459f-1b68-443c-bd4b-7b11b7abbe5a" data-name="BODY" xmlns="http://www.w3.org/2000/svg" viewBox="0 0 600 600"><defs><style>
      .uuid-f630b38e-3266-47b2-bfbc-f2260501e18f {
        fill: #ff78d8;
        stroke: #000;
        stroke-linecap: round;
        stroke-linejoin: round;
        stroke-width: 2px;
      }
    </style></defs><circle cx="362.12" cy="293.18" r="9.78" transform="translate(-9.59 12.26) rotate(-1.91)"/><path class="uuid-f630b38e-3266-47b2-bfbc-f2260501e18f" d="m337.57,261.14c-1.59,1.06-2.46,2.67-2.79,4.19-.28,1.29-1.56,2.12-2.85,1.86-1.5-.3-3.22-.16-4.8.89-2.88,1.92-3.44,6.16-1.23,9.48,3.99,6.01,12.54,6.76,17.83,6.27.82-.08,1.55-.56,1.94-1.29,2.5-4.69,5.12-12.85,1.13-18.86-2.2-3.32-6.33-4.45-9.21-2.54Z"/><path class="uuid-f630b38e-3266-47b2-bfbc-f2260501e18f" d="m371.18,249c-1.81.61-3.07,1.94-3.79,3.32-.6,1.17-2.05,1.64-3.24,1.06-1.37-.67-3.07-1-4.87-.39-3.28,1.1-4.92,5.06-3.65,8.83,2.29,6.84,10.35,9.79,15.59,10.69.82.14,1.64-.14,2.21-.74,3.64-3.88,8.28-11.08,5.99-17.92-1.27-3.78-4.96-5.94-8.24-4.84Z"/></svg>
<svg id="uuid-0aa8c587-996b-4cdc-8f6f-9857078d28d3" data-name="BODY" xmlns="http://www.w3.org/2000/svg" viewBox="0 0 600 600"><defs><style>
      .uuid-5c1aa41b-276d-47a9-975e-6b51258e34fd {
        fill: #7aa6ff;
      }

      .uuid-5c1aa41b-276d-47a9-975e-6b51258e34fd, .uuid-5420853f-4843-434c-aead-428453da705c, .uuid-98d20c01-64f9-488a-bda2-9c627608ef99 {
        stroke: #000;
        stroke-linecap: round;
        stroke-linejoin: round;
        stroke-width: 2px;
      }

      .uuid-5420853f-4843-434c-aead-428453da705c {
        fill: none;
      }

      .uuid-98d20c01-64f9-488a-bda2-9c627608ef99 {
        fill: #f9a723;
      }
    </style></defs><g id="uuid-efe03c10-21e9-40e1-b362-43562c7320e3" data-name="uuid-3374edde-7b2c-4e71-84a6-3cb653058dc6"><g id="uuid-7e5c48c3-5d6e-4296-9f6a-e6035b6c477a" data-name="uuid-298fa604-3857-4000-a4c4-1a509c9ef803"><g><path class="uuid-5c1aa41b-276d-47a9-975e-6b51258e34fd" d="m244.59,514.46s8.09-20.22,26.83-20.22c15.1,0,19.01,7.06,19.01,7.06,0,0,3.03-5.94,8.09-9.18,0,0-4.15-7.58-14.26-9.3l-1.73,1.91s-6.97-5.35-23.92-2.28c-16.95,3.07-28.51,21.15-28.51,21.15l.92,8.35,4.39,6.42,9.18-3.89v-.02Z"/><path class="uuid-98d20c01-64f9-488a-bda2-9c627608ef99" d="m209.84,478.1l27.45,34.51c.93,1.16,2.33,1.84,3.82,1.84h61.66c1.79,0,3.24,1.45,3.24,3.24v4.45c0,1.79-1.45,3.24-3.24,3.24h-64.92c-3.9,0-7.59-1.79-10-4.85l-26.47-32.68c-.89-1.1-.9-2.68-.02-3.79l4.63-5.81c.91-1.33,2.85-1.41,3.86-.14h0Z"/><path class="uuid-5420853f-4843-434c-aead-428453da705c" d="m282.53,484.72c2.44,1.78,6.89,7.45,7.9,16.57,2.33,5.28,2.33,13.17,2.33,13.17"/></g><g><path class="uuid-5c1aa41b-276d-47a9-975e-6b51258e34fd" d="m405.26,457.42s-8.33-22.95,12.28-44.49c4.45-4.65,15.27-6.57,24.17-6.37,0,0-25.89,17.7-19.96,39.81l-16.49,11.06h0Z"/><path class="uuid-98d20c01-64f9-488a-bda2-9c627608ef99" d="m382.22,485.43c.29,4,3.37,8.75,9.54,9.05s18.87-1.74,46.41-24.52c27.54-22.78,37.32-34.79,34.59-45.81-2.73-11.02-15.88-8.29-29.33,0-13.45,8.29-23.24,15.87-39.34,30.44-15.19,13.75-22.52,21.98-21.88,30.84h0Z"/><path class="uuid-5420853f-4843-434c-aead-428453da705c" d="m472.87,430.86c1.07-6.88-12.92-14.11-52.29,20.95-38.8,34.55-33.55,42.06-30.93,42.38"/><path class="uuid-5420853f-4843-434c-aead-428453da705c" d="m395.95,488.37c1.88,1.93,15.96-4.79,39.42-24.07,23.46-19.28,33.17-30.27,31.28-32.36s-10.79-2.61-41.12,23.75c-30.33,26.36-31.35,30.85-29.58,32.67h0Z"/><path class="uuid-5420853f-4843-434c-aead-428453da705c" d="m441.71,406.56c12.54-.01,17.04,10.85,17.04,10.85"/></g></g></g></svg>
<svg id="uuid-a9b76fb0-fcc9-47a4-8a22-bf2a6be645e3" data-name="BODY" xmlns="http://www.w3.org/2000/svg" xmlns:xlink="http://www.w3.org/1999/xlink" viewBox="0 0 600 600"><defs><style>
      .uuid-b38ce0af-b4e9-45a0-a07c-ddbefe16b92c, .uuid-d0f82b25-b41c-4ccb-b99d-337e8c7b221c, .uuid-4c4391de-0469-45ae-85e6-f51b95112f18, .uuid-50bdb408-0f03-46e1-b11e-5fe1cf11a933 {
        fill: none;
      }

      .uuid-d0f82b25-b41c-4ccb-b99d-337e8c7b221c {
        clip-path: url(#uuid-b3878e00-90a2-4718-a8fa-787c32a78eda);
      }

      .uuid-2929258d-25b8-427e-8de3-6a1749239f1a, .uuid-4586ed58-3c26-4b5c-987c-00247d29fbe1 {
        fill: #7aa6ff;
      }

      .uuid-2929258d-25b8-427e-8de3-6a1749239f1a, .uuid-21d9377c-d8c1-4bc7-8f1d-7cae94ebdb6b, .uuid-50bdb408-0f03-46e1-b11e-5fe1cf11a933, .uuid-d9aa9a53-424e-4bf1-bdbc-808db4883ccb {
        stroke: #000;
        stroke-linecap: round;
        stroke-linejoin: round;
        stroke-width: 2px;
      }

      .uuid-4c4391de-0469-45ae-85e6-f51b95112f18 {
        clip-path: url(#uuid-98c8cd3b-e751-42de-aa63-77e0a36d3d5b);
      }

      .uuid-2d96f9ec-d66c-44b5-9875-4c3953027912, .uuid-21d9377c-d8c1-4bc7-8f1d-7cae94ebdb6b {
        fill: #fff;
      }

      .uuid-d9aa9a53-424e-4bf1-bdbc-808db4883ccb {
        fill: #f9a723;
      }
    </style><clipPath id="uuid-98c8cd3b-e751-42de-aa63-77e0a36d3d5b"><path class="uuid-b38ce0af-b4e9-45a0-a07c-ddbefe16b92c" d="m187.46,365.07c0-1.37.16-2.37.16-2.37l11.19-9.37,4.94.54,4.16-3.54-45.5-37.65s-.46-6.93-.57-13.62.57-13.95.57-13.95c19.42,20.93,67.75,51.78,95.66,65.63,27.91,13.85,60.83,24.27,75.34,27.46-5.61,2.07-6.03,4.26-16.69,7.77-10.66,3.51-22.99,2.36-42.4-1.62s-37.12-14.8-37.12-14.8l-8.86,7.52c.26,1.81.19,3.9.19,3.9l-9.7,8.9-5.45-.63,4.68-3.87s-.29-9.76-7.22-16.79c-6.93-7.03-18.28-5.3-18.28-5.3l-4.94,4.24s-.16-1.09-.16-2.46h0Zm237.71.67l8.26,3.17-.47.98c-.39.82-.01,1.79.82,2.14l8.27,3.38c.74.3,1.59,0,1.98-.7,1.53-2.8,5.2-9.98,6.98-17.6,1.78-7.62,1.86-13.58,1.82-16.23-.01-.82-.54-1.54-1.31-1.8l-7.18-2.48c-1.15-.4-2.39.35-2.56,1.56l-.16,1.08-9.17-3.8s-6.31,9.78-8.6,12.83l4.08,11.38-2.76,6.11v-.02Z"/></clipPath><clipPath id="uuid-b3878e00-90a2-4718-a8fa-787c32a78eda"><path class="uuid-b38ce0af-b4e9-45a0-a07c-ddbefe16b92c" d="m439.54,321.73c-4.23,10.84-15.69,26.53-15.69,26.53,0,0,4.15,11.07,4.08,11.38-.08.31-5.02,12.18-14.88,25.28-8.25,10.96-18.86,20.87-18.86,20.87,0,0,6.17,6.74,7.85,8.76s0,5.19,0,5.19l-2.45-2.6s-7.21,3.17-15.1,10.59c-7.89,7.43-11.9,15.53-11.9,15.53l3.02,3.52s-2.64,1.22-4.36-.6c-1.72-1.82-14.76-16.58-14.76-16.58-20.33,9.71-45.4,11.43-45.4,11.43l-35.49,36.3c-28.82-3.13-35.02-23.89-35.02-23.89l17.8-18.01c-32.9-9.98-54.89-32.72-54.89-32.72,0,0,1.26-5.64,2.51-6.89s7.43-6.6,7.43-6.6c0,0,4.99.68,5.45.63.46-.05,8.89-8.04,9.45-8.7s.06-4.11.06-4.11l8.86-7.52c13.1,8.93,45.08,18.91,64.56,18.44,19.48-.47,22.89-6.37,31.45-9.84-8.21-2.19-49.99-12-96.04-38.56-48.62-28.05-72.13-51.81-77.02-57.04-.62-.67-.91-1.58-.78-2.48,1.81-12.31,5.53-24.8,5.82-25.53.3-.76,5.32-2.81,5.32-2.81,0,0-1.67,4.75-2.87,8.54,5.27,9.46,36.81,36.33,81.72,61.73,44.91,25.4,83.33,34.65,89.65,34.75,6.32.1,69.07-15.09,78.08-26.22,9.01-11.12,19.87-48.85,19.87-48.85l-1.33-8.17c4.09.98,4.6,4.25,4.6,4.25,0,0,1.31,7,1.38,20.76.08,13.77-2.08,23.23-2.08,23.23h-.04Zm-231.4,28.58l-45.72-37.62-.24-3.05s-3.03,1.99-2.91,3.49,3.35,36.61,20.8,60.97l7.57-6.56s-.33-4.15,0-4.83c.33-.67,11.19-9.37,11.19-9.37l4.94.54,4.38-3.56h-.01Z"/></clipPath></defs><g id="uuid-af29460d-1585-47d9-9c08-90633e2ce16e" data-name="uuid-3ed2d463-9c98-4ccd-9d5d-4c3039953550"><g id="uuid-8cac3a0a-4265-40b4-9675-88e4177bf870" data-name="uuid-099ea80d-b0f2-4400-b65c-6ce909f17109"><g><path class="uuid-2d96f9ec-d66c-44b5-9875-4c3953027912" d="m187.46,365.07c0-1.37.16-2.37.16-2.37l11.19-9.37,4.94.54,4.16-3.54-45.5-37.65s-.46-6.93-.57-13.62.57-13.95.57-13.95c19.42,20.93,67.75,51.78,95.66,65.63,27.91,13.85,60.83,24.27,75.34,27.46-5.61,2.07-6.03,4.26-16.69,7.77-10.66,3.51-22.99,2.36-42.4-1.62s-37.12-14.8-37.12-14.8l-8.86,7.52c.26,1.81.19,3.9.19,3.9l-9.7,8.9-5.45-.63,4.68-3.87s-.29-9.76-7.22-16.79c-6.93-7.03-18.28-5.3-18.28-5.3l-4.94,4.24s-.16-1.09-.16-2.46h0Zm237.71.67l8.26,3.17-.47.98c-.39.82-.01,1.79.82,2.14l8.27,3.38c.74.3,1.59,0,1.98-.7,1.53-2.8,5.2-9.98,6.98-17.6,1.78-7.62,1.86-13.58,1.82-16.23-.01-.82-.54-1.54-1.31-1.8l-7.18-2.48c-1.15-.4-2.39.35-2.56,1.56l-.16,1.08-9.17-3.8s-6.31,9.78-8.6,12.83l4.08,11.38-2.76,6.11v-.02Z"/><g class="uuid-4c4391de-0469-45ae-85e6-f51b95112f18"><g><path class="uuid-21d9377c-d8c1-4bc7-8f1d-7cae94ebdb6b" d="m203.75,353.87c13.03,1.96,23.07,12.29,24.59,23.19"/><path class="uuid-21d9377c-d8c1-4bc7-8f1d-7cae94ebdb6b" d="m433.43,368.91c7.68-14.03,8.19-29.68,8.19-29.68"/><path class="uuid-21d9377c-d8c1-4bc7-8f1d-7cae94ebdb6b" d="m433.43,336c-2.4,9.19-6.74,19.23-6.74,19.23"/></g></g><path class="uuid-50bdb408-0f03-46e1-b11e-5fe1cf11a933" d="m187.46,365.07c0-1.37.16-2.37.16-2.37l11.19-9.37,4.94.54,4.16-3.54-45.5-37.65s-.46-6.93-.57-13.62.57-13.95.57-13.95c19.42,20.93,67.75,51.78,95.66,65.63,27.91,13.85,60.83,24.27,75.34,27.46-5.61,2.07-6.03,4.26-16.69,7.77-10.66,3.51-22.99,2.36-42.4-1.62s-37.12-14.8-37.12-14.8l-8.86,7.52c.26,1.81.19,3.9.19,3.9l-9.7,8.9-5.45-.63,4.68-3.87s-.29-9.76-7.22-16.79c-6.93-7.03-18.28-5.3-18.28-5.3l-4.94,4.24s-.16-1.09-.16-2.46h0Zm237.71.67l8.26,3.17-.47.98c-.39.82-.01,1.79.82,2.14l8.27,3.38c.74.3,1.59,0,1.98-.7,1.53-2.8,5.2-9.98,6.98-17.6,1.78-7.62,1.86-13.58,1.82-16.23-.01-.82-.54-1.54-1.31-1.8l-7.18-2.48c-1.15-.4-2.39.35-2.56,1.56l-.16,1.08-9.17-3.8s-6.31,9.78-8.6,12.83l4.08,11.38-2.76,6.11v-.02Z"/></g><g><path class="uuid-4586ed58-3c26-4b5c-987c-00247d29fbe1" d="m439.54,321.73c-4.23,10.84-15.69,26.53-15.69,26.53,0,0,4.15,11.07,4.08,11.38-.08.31-5.02,12.18-14.88,25.28-8.25,10.96-18.86,20.87-18.86,20.87,0,0,6.17,6.74,7.85,8.76s0,5.19,0,5.19l-2.45-2.6s-7.21,3.17-15.1,10.59c-7.89,7.43-11.9,15.53-11.9,15.53l3.02,3.52s-2.64,1.22-4.36-.6c-1.72-1.82-14.76-16.58-14.76-16.58-20.33,9.71-45.4,11.43-45.4,11.43l-35.49,36.3c-28.82-3.13-35.02-23.89-35.02-23.89l17.8-18.01c-32.9-9.98-54.89-32.72-54.89-32.72,0,0,1.26-5.64,2.51-6.89s7.43-6.6,7.43-6.6c0,0,4.99.68,5.45.63.46-.05,8.89-8.04,9.45-8.7s.06-4.11.06-4.11l8.86-7.52c13.1,8.93,45.08,18.91,64.56,18.44,19.48-.47,22.89-6.37,31.45-9.84-8.21-2.19-49.99-12-96.04-38.56-48.62-28.05-72.13-51.81-77.02-57.04-.62-.67-.91-1.58-.78-2.48,1.81-12.31,5.53-24.8,5.82-25.53.3-.76,5.32-2.81,5.32-2.81,0,0-1.67,4.75-2.87,8.54,5.27,9.46,36.81,36.33,81.72,61.73,44.91,25.4,83.33,34.65,89.65,34.75,6.32.1,69.07-15.09,78.08-26.22,9.01-11.12,19.87-48.85,19.87-48.85l-1.33-8.17c4.09.98,4.6,4.25,4.6,4.25,0,0,1.31,7,1.38,20.76.08,13.77-2.08,23.23-2.08,23.23h-.04Zm-231.4,28.58l-45.72-37.62-.24-3.05s-3.03,1.99-2.91,3.49,3.35,36.61,20.8,60.97l7.57-6.56s-.33-4.15,0-4.83c.33-.67,11.19-9.37,11.19-9.37l4.94.54,4.38-3.56h-.01Z"/><g class="uuid-d0f82b25-b41c-4ccb-b99d-337e8c7b221c"><g><path class="uuid-2929258d-25b8-427e-8de3-6a1749239f1a" d="m394.18,405.78c-21.84-24.51-27.24-28.01-41.1-29.82-7.38-.96-15.42.71-19.87,2.17"/><path class="uuid-2929258d-25b8-427e-8de3-6a1749239f1a" d="m356.46,429.61c-3.81-4.15-6.3-8.87-15.27-4.75"/><line class="uuid-50bdb408-0f03-46e1-b11e-5fe1cf11a933" x1="339.01" y1="356.74" x2="340.25" y2="376.42"/><path class="uuid-2929258d-25b8-427e-8de3-6a1749239f1a" d="m359.94,377.24l-.48-7.52s36.44-7.14,51.51-15.84c1.82,5.06,8.64,21.47,8.64,21.47"/><line class="uuid-50bdb408-0f03-46e1-b11e-5fe1cf11a933" x1="423.85" y1="348.26" x2="417.09" y2="330.52"/><path class="uuid-2929258d-25b8-427e-8de3-6a1749239f1a" d="m258.34,435.45c14.39,5.09,39.67,6.61,52.72,5.6"/><path d="m258.52,435.93l-5.11,4.85s17.9,8.67,49.25,8.26l8.34-7.65-25.28-.56-12.64-1.52-7.79-1.57-6.78-1.82h.01Z"/><g><circle class="uuid-d9aa9a53-424e-4bf1-bdbc-808db4883ccb" cx="349.52" cy="364.53" r="4.42"/><circle class="uuid-d9aa9a53-424e-4bf1-bdbc-808db4883ccb" cx="412.96" cy="344.53" r="4.42"/></g><polygon points="211.4 409.54 238.5 370.41 237.19 370 228.59 377.23 228.28 381.17 218.83 389.87 212.97 389.87 205.59 396.55 203.75 403.04 211.4 409.54"/></g></g><path class="uuid-50bdb408-0f03-46e1-b11e-5fe1cf11a933" d="m439.54,321.73c-4.23,10.84-15.69,26.53-15.69,26.53,0,0,4.15,11.07,4.08,11.38-.08.31-5.02,12.18-14.88,25.28-8.25,10.96-18.86,20.87-18.86,20.87,0,0,6.17,6.74,7.85,8.76s0,5.19,0,5.19l-2.45-2.6s-7.21,3.17-15.1,10.59c-7.89,7.43-11.9,15.53-11.9,15.53l3.02,3.52s-2.64,1.22-4.36-.6c-1.72-1.82-14.76-16.58-14.76-16.58-20.33,9.71-45.4,11.43-45.4,11.43l-35.49,36.3c-28.82-3.13-35.02-23.89-35.02-23.89l17.8-18.01c-32.9-9.98-54.89-32.72-54.89-32.72,0,0,1.26-5.64,2.51-6.89s7.43-6.6,7.43-6.6c0,0,4.99.68,5.45.63.46-.05,8.89-8.04,9.45-8.7s.06-4.11.06-4.11l8.86-7.52c13.1,8.93,45.08,18.91,64.56,18.44,19.48-.47,22.89-6.37,31.45-9.84-8.21-2.19-49.99-12-96.04-38.56-48.62-28.05-72.13-51.81-77.02-57.04-.62-.67-.91-1.58-.78-2.48,1.81-12.31,5.53-24.8,5.82-25.53.3-.76,5.32-2.81,5.32-2.81,0,0-1.67,4.75-2.87,8.54,5.27,9.46,36.81,36.33,81.72,61.73,44.91,25.4,83.33,34.65,89.65,34.75,6.32.1,69.07-15.09,78.08-26.22,9.01-11.12,19.87-48.85,19.87-48.85l-1.33-8.17c4.09.98,4.6,4.25,4.6,4.25,0,0,1.31,7,1.38,20.76.08,13.77-2.08,23.23-2.08,23.23h-.04Zm-231.4,28.58l-45.72-37.62-.24-3.05s-3.03,1.99-2.91,3.49,3.35,36.61,20.8,60.97l7.57-6.56s-.33-4.15,0-4.83c.33-.67,11.19-9.37,11.19-9.37l4.94.54,4.38-3.56h-.01Z"/></g></g></g></svg>
<svg id="uuid-20641d54-9b80-4738-a850-744e9e159449" data-name="BODY" xmlns="http://www.w3.org/2000/svg" xmlns:xlink="http://www.w3.org/1999/xlink" viewBox="0 0 600 600"><defs><style>
      .uuid-08cd35e5-5429-4678-9716-d686ab3ecfef, .uuid-dda132b2-d95f-4871-a7b1-064b32f66064, .uuid-ebdbf30b-e82b-478c-8ba4-0d0c364ee291 {
        fill: none;
      }

      .uuid-742681a4-c23e-4f30-b8ee-5b9c20c0b35c {
        stroke: #ff78d8;
        stroke-width: 5px;
      }

      .uuid-742681a4-c23e-4f30-b8ee-5b9c20c0b35c, .uuid-7cac7961-9347-486a-acb0-10dbd6513383, .uuid-b14f2490-b4c9-4cfa-9101-1711323d80d6, .uuid-dda132b2-d95f-4871-a7b1-064b32f66064 {
        stroke-linecap: round;
        stroke-linejoin: round;
      }

      .uuid-4e16943e-fd44-479d-99ea-a54526ffe949, .uuid-b14f2490-b4c9-4cfa-9101-1711323d80d6 {
        fill: #fff7f0;
      }

      .uuid-658b5f94-e9af-4c82-a1e0-8418994c6472 {
        fill: #ff78d8;
      }

      .uuid-58a45e6e-6234-4179-aa22-3da84e379254, .uuid-7cac7961-9347-486a-acb0-10dbd6513383 {
        fill: #a07bff;
      }

      .uuid-7cac7961-9347-486a-acb0-10dbd6513383, .uuid-b14f2490-b4c9-4cfa-9101-1711323d80d6, .uuid-dda132b2-d95f-4871-a7b1-064b32f66064 {
        stroke: #000;
        stroke-width: 2px;
      }

      .uuid-ebdbf30b-e82b-478c-8ba4-0d0c364ee291 {
        clip-path: url(#uuid-f1915c35-cc3e-42ae-bf03-e75644ba9dff);
      }
    </style><clipPath id="uuid-f1915c35-cc3e-42ae-bf03-e75644ba9dff"><path class="uuid-08cd35e5-5429-4678-9716-d686ab3ecfef" d="m292.18,151.63c-45.29,18.53-57.04,82.27-16.83,154.86,40.21,72.59,92.47,79.78,131.35,57.32,32.27-18.64,50.95-86.94,11.5-148.35-38.38-59.74-88.11-79.35-126.02-63.84h0Z"/></clipPath></defs><g id="uuid-85e1621e-e44d-479c-b341-dd87cf6c87d5" data-name="uuid-a9579faf-1ae5-4d40-a4cc-22ba1730b184"><g id="uuid-160c4403-e087-4e8a-a846-a26c4516381d" data-name="uuid-5d29859d-1e7e-4471-9f73-63fc681f3063"><g id="uuid-78a2c4f3-0092-4c8a-a81b-4d0f0dd090a9" data-name="uuid-a170f457-5acf-49c3-a376-5e6480af8811"><g><g><path class="uuid-7cac7961-9347-486a-acb0-10dbd6513383" d="m265.36,275.49s-48.99,12.97-101.9,3.29l1.51-8.18s-5.22,1.59-6.22,2.59c-1.01,1.01-3.02,18.49-2.61,30.55,0,0,12.76,8.08,57.95,8.49,45.19.41,64.06-9.23,64.06-9.23l-12.79-27.53h0Z"/><path class="uuid-7cac7961-9347-486a-acb0-10dbd6513383" d="m207.05,282.36c-1.15,13.66.63,29.77.63,29.77"/><path class="uuid-7cac7961-9347-486a-acb0-10dbd6513383" d="m237.19,280.43c1.04,19.57,4.82,30.82,4.82,30.82"/></g><g><path class="uuid-b14f2490-b4c9-4cfa-9101-1711323d80d6" d="m345.05,154s7.1-16.33,18.29-25.28c2.87-2.3,8.01-4.02,14.78,11.3,6.77,15.32,11.49,44.17,11.49,44.17,0,0-12.77-13.79-44.55-30.19h0Z"/><path class="uuid-dda132b2-d95f-4871-a7b1-064b32f66064" d="m358.58,163.39s2.74-13.98,5.04-20.17c2.3-6.19,5.36-2.87,5.36-2.87"/><path class="uuid-b14f2490-b4c9-4cfa-9101-1711323d80d6" d="m260.03,190.39s-18.01-1.34-37.15,6.79c-3.27,1.39-11.44,6.49-2.11,20.21,9.33,13.72,35.02,32.79,35.02,32.79,0,0,1.57-25.73,4.23-59.79Z"/><path class="uuid-dda132b2-d95f-4871-a7b1-064b32f66064" d="m253.44,206.95s-12.01-2.61-18.57-2.87c-6.55-.26-6.47,3.52-6.47,3.52"/></g><g><path class="uuid-4e16943e-fd44-479d-99ea-a54526ffe949" d="m292.18,151.63c-45.29,18.53-57.04,82.27-16.83,154.86,40.21,72.59,92.47,79.78,131.35,57.32,32.27-18.64,50.95-86.94,11.5-148.35-38.38-59.74-88.11-79.35-126.02-63.84h0Z"/><g class="uuid-ebdbf30b-e82b-478c-8ba4-0d0c364ee291"><g><path class="uuid-742681a4-c23e-4f30-b8ee-5b9c20c0b35c" d="m383.73,253.96s-5.17-13.4,3.06-26.33c8.23-12.93,17.71-11.2,17.71-11.2,0,0-3.64,3.06-1.91,13.5,1.72,10.44-1.44,22.98-18.86,24.03h0Z"/><path class="uuid-742681a4-c23e-4f30-b8ee-5b9c20c0b35c" d="m355.81,266.02s-12.03-13.06-30.94-8.41c-18.91,4.65-22.24,17.83-22.24,17.83,0,0,4.67-2.21,16.75,2.13,13.15,4.72,26.28,6.55,36.44-11.56Z"/><path class="uuid-dda132b2-d95f-4871-a7b1-064b32f66064" d="m392.88,282.4c-.96-3.83,2.35-6.41,3.64-6.27"/><path class="uuid-dda132b2-d95f-4871-a7b1-064b32f66064" d="m383.25,287.76s-8.04-3.26-10.63,2.87"/><path class="uuid-dda132b2-d95f-4871-a7b1-064b32f66064" d="m359.32,346.45s12.64,5.68,19.82-15.93c7.18-21.6,20.27-25.8,29.59-26.01,8.62-.19,14.74,6.51,15.63-1.82"/><path class="uuid-dda132b2-d95f-4871-a7b1-064b32f66064" d="m410.64,318.97s-8.52-3.06-10.82,6.7"/><g><path class="uuid-58a45e6e-6234-4179-aa22-3da84e379254" d="m429.31,260.28c2.49-10.53,5.84-14.74,5.84-14.74l-9.77-21.26c-4.02,9.63-1.63,16.37-3.35,25.95-1.72,9.57-6.46,19.68-15.99,22.79,14.55,2.87,20.78-2.2,23.27-12.73Z"/><path class="uuid-658b5f94-e9af-4c82-a1e0-8418994c6472" d="m440.49,262.7c-.69,13.12-12.07,25.43-16.8,26.06,13.66,2.79,19.86-3.49,19.86-3.49l-3.06-22.57Z"/><path class="uuid-58a45e6e-6234-4179-aa22-3da84e379254" d="m320.36,303.41c-18.67-1.54-31.68-8.26-49.26,1.54-3.48,1.94,9.34,15.51,9.34,15.51,5.6-4.74,15.94-6.61,38.49-6.75,22.55-.14,26.73-13.71,26.73-13.71,0,0-6.62,4.95-25.29,3.41Z"/><path class="uuid-658b5f94-e9af-4c82-a1e0-8418994c6472" d="m301.55,347.9s25.95-8.05,35.43-22.99c-11.92,7.61-36.58,4.89-46.06,12.22l10.63,10.77Z"/></g></g></g><path class="uuid-dda132b2-d95f-4871-a7b1-064b32f66064" d="m292.18,151.63c-45.29,18.53-57.04,82.27-16.83,154.86,40.21,72.59,92.47,79.78,131.35,57.32,32.27-18.64,50.95-86.94,11.5-148.35-38.38-59.74-88.11-79.35-126.02-63.84h0Z"/></g></g></g></g></g></svg>
</svg>