<?xml version="1.0" encoding="UTF-8"?>
<svg xmlns="http://www.w3.org/2000/svg" viewBox="0 0 600 600">
<svg id="uuid-2ebc4e2e-813a-485c-9454-52c68b62da26" data-name="BACKGROUND" xmlns="http://www.w3.org/2000/svg" viewBox="0 0 600 600"><defs><style>
      .uuid-eb841eac-0e7b-47b1-8e78-e5724f1a9b43 {
        fill: #ffff0d;
      }
    </style></defs><rect class="uuid-eb841eac-0e7b-47b1-8e78-e5724f1a9b43" x="-1" y="-1" width="602" height="602"/></svg>
<svg id="uuid-e741404e-82c4-4369-9e18-3b285ad0d639" data-name="BACKGROUND" xmlns="http://www.w3.org/2000/svg" viewBox="0 0 600 600"><defs><style>
      .uuid-d96a9218-ac41-4a59-a766-168518bf484e, .uuid-62df82db-f943-4e5d-8b33-ce66e667749b {
        fill: #fff;
      }

      .uuid-3fd29da4-aff1-4808-923d-0b32c79c7637, .uuid-62df82db-f943-4e5d-8b33-ce66e667749b, .uuid-72477d5d-f7d9-4d71-877e-01caf37e8bcd, .uuid-5bb669c8-5a3f-440c-aba4-3853114d1d43, .uuid-62880ae1-7573-4820-a7ac-833c4461f068, .uuid-364077b4-4770-4526-89f6-25dde6160d98, .uuid-1e9082da-51b1-4e46-b839-8455f209e0c9 {
        stroke: #000;
        stroke-width: 2px;
      }

      .uuid-3fd29da4-aff1-4808-923d-0b32c79c7637, .uuid-62df82db-f943-4e5d-8b33-ce66e667749b, .uuid-72477d5d-f7d9-4d71-877e-01caf37e8bcd, .uuid-364077b4-4770-4526-89f6-25dde6160d98 {
        stroke-miterlimit: 10;
      }

      .uuid-3fd29da4-aff1-4808-923d-0b32c79c7637, .uuid-72477d5d-f7d9-4d71-877e-01caf37e8bcd, .uuid-5bb669c8-5a3f-440c-aba4-3853114d1d43, .uuid-1e9082da-51b1-4e46-b839-8455f209e0c9 {
        fill: #00dfa9;
      }

      .uuid-62df82db-f943-4e5d-8b33-ce66e667749b, .uuid-72477d5d-f7d9-4d71-877e-01caf37e8bcd, .uuid-5bb669c8-5a3f-440c-aba4-3853114d1d43, .uuid-62880ae1-7573-4820-a7ac-833c4461f068, .uuid-364077b4-4770-4526-89f6-25dde6160d98 {
        stroke-linecap: round;
      }

      .uuid-5bb669c8-5a3f-440c-aba4-3853114d1d43, .uuid-62880ae1-7573-4820-a7ac-833c4461f068, .uuid-1e9082da-51b1-4e46-b839-8455f209e0c9 {
        stroke-linejoin: round;
      }

      .uuid-62880ae1-7573-4820-a7ac-833c4461f068 {
        fill: none;
      }

      .uuid-364077b4-4770-4526-89f6-25dde6160d98 {
        fill: #9dff0c;
      }
    </style></defs><path class="uuid-5bb669c8-5a3f-440c-aba4-3853114d1d43" d="m409.81,359.6c9.2,3.77,29.89,12.05,42.79,16.03,2.11.65,4.41.69,6.5-.04,11.79-4.08,28.47-11.39,33.03-11.32,5.25.08,7.8,3.93,19.88,2.04,13.36-2.1,22.43-11.99,20.93-23.3-4.21-43.28-25.18-26.79-25.18-26.79,0,0-5.84-8.75-18.76-4.82-11.83,3.6-10.2,14.44-6.47,22.47l-25.29,8.58c-2.14.72-4.45.71-6.59-.02l-35.7-12.61"/><path class="uuid-72477d5d-f7d9-4d71-877e-01caf37e8bcd" d="m533.36,312.82c2.5,3.94,1.62,9.14-1.57,12.4-2.47,2.53-5.88,3.88-9.32,4.4-2.8.43-5.7.42-8.49-.08-2.14-.39-4.29-1.1-5.79-2.75-1.66-1.83-2.27-4.46-1.98-6.87.51-4.17,3.84-7.14,7.22-9.26,3.17-1.98,6.86-3.26,10.64-3.09,3.8.18,7.36,2.19,9.3,5.24Z"/><path class="uuid-72477d5d-f7d9-4d71-877e-01caf37e8bcd" d="m538.57,349.84c.97,3.03.32,6.43-1.5,9.01-3.77,5.33-11.17,5.65-16.96,4.27-3.31-.79-6.69-2.21-8.67-5.13-3.13-4.61-.82-9.79,3.48-12.56,2.58-1.66,5.61-2.67,8.63-3.14,5.73-.89,13.1,1.51,15.03,7.56Z"/><path class="uuid-72477d5d-f7d9-4d71-877e-01caf37e8bcd" d="m538.71,328.53c1.8,2.99,2.06,6.89.22,9.9-1.95,3.2-4.94,5.25-8.49,6.28-3.66,1.07-7.64,1.27-11.4.44-2.25-.5-4.53-1.38-5.96-3.28-1.86-2.47-1.89-5.68-.85-8.49,1.2-3.24,4.17-5.69,7.09-7.37,6.15-3.56,15.21-4.43,19.39,2.52Z"/><path class="uuid-72477d5d-f7d9-4d71-877e-01caf37e8bcd" d="m501.85,311.68s9.27,3.84,7.77,12.02c-1.04,5.68-8.17,9.55-14.94,6.13"/><path class="uuid-62880ae1-7573-4820-a7ac-833c4461f068" d="m500.67,331.08c2.41,1.63,5.11,8.04,3.4,14.42"/><path d="m443.44,339.88c-2.88,10.58-6.94,20.23-11.17,28.59-10.17-3.78-21.16-9.53-27-11.93l11.83-26.02,26.35,9.36Z"/><ellipse cx="300" cy="518.65" rx="138.6" ry="22.93"/><path class="uuid-3fd29da4-aff1-4808-923d-0b32c79c7637" d="m319.36,427.14c-1.16,1.05-54.95,57-54.95,57,0,0,21.51-1.95,31.74,10.62,10.23,12.57,7.26,23.89,7.26,23.89h-66.9s-28.69-36.17-28.69-36.17c0,0,3.74-13.4,20.44-10.59,20.9-19.38,55.52-59.13,55.52-59.13l35.59,14.38Z"/><path d="m283.78,412.76l31.28,12.64-3.24,9.5c-2.93,3.03-9.76,10.12-13.64,14.14-11.92,0-27.98-2.13-41.33-6.37,13.95-15.1,26.93-29.92,26.93-29.92Z"/><path class="uuid-3fd29da4-aff1-4808-923d-0b32c79c7637" d="m354.45,173.54l-.11.27-174.2,58.29c-11.49,20.13-18.05,43.43-18.05,68.27,0,76.2,61.77,137.98,137.97,137.98s137.98-61.77,137.98-137.98c0-56.89-34.43-105.72-83.58-126.83Z"/><path class="uuid-62880ae1-7573-4820-a7ac-833c4461f068" d="m264.41,484.14c-4.06.49-11.49,1.36-17.85,7.23"/><path class="uuid-d96a9218-ac41-4a59-a766-168518bf484e" d="m185.17,308.14c-4.41,0-7.98-3.57-7.98-7.98,0-67.74,55.11-122.86,122.86-122.86,4.41,0,7.98,3.57,7.98,7.98s-3.57,7.98-7.98,7.98c-58.94,0-106.9,47.95-106.9,106.9,0,4.41-3.57,7.98-7.98,7.98Z"/><path d="m203.75,397.46l34.2-27.46-24.86,36.3c-6.73-5.1-3.66-2.61-9.34-8.83Z"/><path class="uuid-1e9082da-51b1-4e46-b839-8455f209e0c9" d="m323.72,387.31c19.14-13.4,39.15-11.3,55.52,7.36,19.6,22.35,30.57,33.06,30.57,33.06,0,0,10.74-19.34,34.77-17.5,18.26,1.4,24.84,14.43,24.84,14.43,0,0,6.21,8.82-22.45,33.5-28.66,24.68-54.93,40.92-61.14,29.46-6.21-11.46-2.82-32.1-2.82-32.1,0,0-22.02-26.09-27.94-32.01-6.79-6.79-15.71-1.36-15.71-1.36"/><path class="uuid-3fd29da4-aff1-4808-923d-0b32c79c7637" d="m446.97,458.17c-25.89,22.29-49.82,37.69-58.79,32.02-9.77-7.44,26.84-38.54,44.88-52.7,18.04-14.16,32.17-17.82,36.36-12.81,0,0,6.21,8.82-22.45,33.5Z"/><path class="uuid-62880ae1-7573-4820-a7ac-833c4461f068" d="m409.81,427.74c-1.89,2.86-4.55,10.38-4.55,10.38"/><ellipse class="uuid-62df82db-f943-4e5d-8b33-ce66e667749b" cx="269.41" cy="209.07" rx="94.9" ry="26.25" transform="translate(-52.5 96.54) rotate(-18.55)"/><ellipse class="uuid-364077b4-4770-4526-89f6-25dde6160d98" cx="269.41" cy="209.07" rx="71.19" ry="13.32" transform="translate(-52.5 96.54) rotate(-18.55)"/><g><path class="uuid-5bb669c8-5a3f-440c-aba4-3853114d1d43" d="m214.11,345.7c-8.05,5.83-25.34,20.79-35.52,29.67-1.67,1.45-2.82,3.41-3.39,5.55-3.14,11.67-8.55,33.44-8.55,33.44,0,0-8.42.58-12.19,14.35-3.64,13.3-6.64,25.06,3.77,29.75.35,7.47,7.51,15.45,19.2,9.41.14-.06,1.32,1.32,1.44,1.45,2.64,2.7,6.36,4.45,10.13,4.81,3.65.36,7.61-.67,10.43-3.08,3.29-2.81,5.4-6.94,6.05-11.2.4-2.61.26-5.31-.75-7.78,0,0,6.2-2.51,8.05-11.34,1.99-9.49-4.22-19.42-14.62-18.18l6.17-23.11c.51-2.2,1.74-4.16,3.49-5.59l29.38-24.3"/><path class="uuid-62880ae1-7573-4820-a7ac-833c4461f068" d="m204.73,452.06c-1.37-3.47-5.39-7.08-9-6.88"/><path class="uuid-62880ae1-7573-4820-a7ac-833c4461f068" d="m178.86,469.3c-5.16-5.27-3.82-11.97-2.9-13.54"/><path class="uuid-62880ae1-7573-4820-a7ac-833c4461f068" d="m158.22,458.45c-.27-5.22.73-7.32,3.06-9.83"/><path class="uuid-62880ae1-7573-4820-a7ac-833c4461f068" d="m193.93,450.63c.14-2.07.48-4.16,1.32-6.06.85-1.95,2.36-3.88,4.31-4.85"/></g></svg>
<svg id="uuid-175be159-db61-4df5-a3ec-4e569af78a21" data-name="BODY" xmlns="http://www.w3.org/2000/svg" viewBox="0 0 600 600"><defs><style>
      .uuid-cb5ad370-d590-4d84-8471-319d1a4c5aa5 {
        fill: none;
        stroke: #000;
        stroke-linecap: round;
        stroke-linejoin: round;
        stroke-width: 4px;
      }
    </style></defs><g id="uuid-13c94933-b88a-4a0e-9bd5-264a3853387a" data-name="expressions"><g id="uuid-006bcb9c-427f-47d9-92c9-0f51d1e9073c" data-name="mouth"><circle cx="362.12" cy="293.18" r="9.78" transform="translate(-9.59 12.26) rotate(-1.91)"/></g><g id="uuid-aa5f76af-2ff8-4e7f-a2a4-73d690451a8d" data-name="eye L"><circle cx="337.63" cy="273.96" r="9.78" transform="translate(-8.96 11.43) rotate(-1.91)"/></g><g id="uuid-4d2b7d8b-0a30-48e5-b672-08579e330a1a" data-name="eye R"><polyline class="uuid-cb5ad370-d590-4d84-8471-319d1a4c5aa5" points="374.33 254.17 360.69 266.02 379.28 264.87"/></g></g></svg>
<svg id="uuid-0aa8c587-996b-4cdc-8f6f-9857078d28d3" data-name="BODY" xmlns="http://www.w3.org/2000/svg" viewBox="0 0 600 600"><defs><style>
      .uuid-5c1aa41b-276d-47a9-975e-6b51258e34fd {
        fill: #7aa6ff;
      }

      .uuid-5c1aa41b-276d-47a9-975e-6b51258e34fd, .uuid-5420853f-4843-434c-aead-428453da705c, .uuid-98d20c01-64f9-488a-bda2-9c627608ef99 {
        stroke: #000;
        stroke-linecap: round;
        stroke-linejoin: round;
        stroke-width: 2px;
      }

      .uuid-5420853f-4843-434c-aead-428453da705c {
        fill: none;
      }

      .uuid-98d20c01-64f9-488a-bda2-9c627608ef99 {
        fill: #f9a723;
      }
    </style></defs><g id="uuid-efe03c10-21e9-40e1-b362-43562c7320e3" data-name="uuid-3374edde-7b2c-4e71-84a6-3cb653058dc6"><g id="uuid-7e5c48c3-5d6e-4296-9f6a-e6035b6c477a" data-name="uuid-298fa604-3857-4000-a4c4-1a509c9ef803"><g><path class="uuid-5c1aa41b-276d-47a9-975e-6b51258e34fd" d="m244.59,514.46s8.09-20.22,26.83-20.22c15.1,0,19.01,7.06,19.01,7.06,0,0,3.03-5.94,8.09-9.18,0,0-4.15-7.58-14.26-9.3l-1.73,1.91s-6.97-5.35-23.92-2.28c-16.95,3.07-28.51,21.15-28.51,21.15l.92,8.35,4.39,6.42,9.18-3.89v-.02Z"/><path class="uuid-98d20c01-64f9-488a-bda2-9c627608ef99" d="m209.84,478.1l27.45,34.51c.93,1.16,2.33,1.84,3.82,1.84h61.66c1.79,0,3.24,1.45,3.24,3.24v4.45c0,1.79-1.45,3.24-3.24,3.24h-64.92c-3.9,0-7.59-1.79-10-4.85l-26.47-32.68c-.89-1.1-.9-2.68-.02-3.79l4.63-5.81c.91-1.33,2.85-1.41,3.86-.14h0Z"/><path class="uuid-5420853f-4843-434c-aead-428453da705c" d="m282.53,484.72c2.44,1.78,6.89,7.45,7.9,16.57,2.33,5.28,2.33,13.17,2.33,13.17"/></g><g><path class="uuid-5c1aa41b-276d-47a9-975e-6b51258e34fd" d="m405.26,457.42s-8.33-22.95,12.28-44.49c4.45-4.65,15.27-6.57,24.17-6.37,0,0-25.89,17.7-19.96,39.81l-16.49,11.06h0Z"/><path class="uuid-98d20c01-64f9-488a-bda2-9c627608ef99" d="m382.22,485.43c.29,4,3.37,8.75,9.54,9.05s18.87-1.74,46.41-24.52c27.54-22.78,37.32-34.79,34.59-45.81-2.73-11.02-15.88-8.29-29.33,0-13.45,8.29-23.24,15.87-39.34,30.44-15.19,13.75-22.52,21.98-21.88,30.84h0Z"/><path class="uuid-5420853f-4843-434c-aead-428453da705c" d="m472.87,430.86c1.07-6.88-12.92-14.11-52.29,20.95-38.8,34.55-33.55,42.06-30.93,42.38"/><path class="uuid-5420853f-4843-434c-aead-428453da705c" d="m395.95,488.37c1.88,1.93,15.96-4.79,39.42-24.07,23.46-19.28,33.17-30.27,31.28-32.36s-10.79-2.61-41.12,23.75c-30.33,26.36-31.35,30.85-29.58,32.67h0Z"/><path class="uuid-5420853f-4843-434c-aead-428453da705c" d="m441.71,406.56c12.54-.01,17.04,10.85,17.04,10.85"/></g></g></g></svg>
<svg id="uuid-a9b76fb0-fcc9-47a4-8a22-bf2a6be645e3" data-name="BODY" xmlns="http://www.w3.org/2000/svg" xmlns:xlink="http://www.w3.org/1999/xlink" viewBox="0 0 600 600"><defs><style>
      .uuid-b38ce0af-b4e9-45a0-a07c-ddbefe16b92c, .uuid-d0f82b25-b41c-4ccb-b99d-337e8c7b221c, .uuid-4c4391de-0469-45ae-85e6-f51b95112f18, .uuid-50bdb408-0f03-46e1-b11e-5fe1cf11a933 {
        fill: none;
      }

      .uuid-d0f82b25-b41c-4ccb-b99d-337e8c7b221c {
        clip-path: url(#uuid-b3878e00-90a2-4718-a8fa-787c32a78eda);
      }

      .uuid-2929258d-25b8-427e-8de3-6a1749239f1a, .uuid-4586ed58-3c26-4b5c-987c-00247d29fbe1 {
        fill: #7aa6ff;
      }

      .uuid-2929258d-25b8-427e-8de3-6a1749239f1a, .uuid-21d9377c-d8c1-4bc7-8f1d-7cae94ebdb6b, .uuid-50bdb408-0f03-46e1-b11e-5fe1cf11a933, .uuid-d9aa9a53-424e-4bf1-bdbc-808db4883ccb {
        stroke: #000;
        stroke-linecap: round;
        stroke-linejoin: round;
        stroke-width: 2px;
      }

      .uuid-4c4391de-0469-45ae-85e6-f51b95112f18 {
        clip-path: url(#uuid-98c8cd3b-e751-42de-aa63-77e0a36d3d5b);
      }

      .uuid-2d96f9ec-d66c-44b5-9875-4c3953027912, .uuid-21d9377c-d8c1-4bc7-8f1d-7cae94ebdb6b {
        fill: #fff;
      }

      .uuid-d9aa9a53-424e-4bf1-bdbc-808db4883ccb {
        fill: #f9a723;
      }
    </style><clipPath id="uuid-98c8cd3b-e751-42de-aa63-77e0a36d3d5b"><path class="uuid-b38ce0af-b4e9-45a0-a07c-ddbefe16b92c" d="m187.46,365.07c0-1.37.16-2.37.16-2.37l11.19-9.37,4.94.54,4.16-3.54-45.5-37.65s-.46-6.93-.57-13.62.57-13.95.57-13.95c19.42,20.93,67.75,51.78,95.66,65.63,27.91,13.85,60.83,24.27,75.34,27.46-5.61,2.07-6.03,4.26-16.69,7.77-10.66,3.51-22.99,2.36-42.4-1.62s-37.12-14.8-37.12-14.8l-8.86,7.52c.26,1.81.19,3.9.19,3.9l-9.7,8.9-5.45-.63,4.68-3.87s-.29-9.76-7.22-16.79c-6.93-7.03-18.28-5.3-18.28-5.3l-4.94,4.24s-.16-1.09-.16-2.46h0Zm237.71.67l8.26,3.17-.47.98c-.39.82-.01,1.79.82,2.14l8.27,3.38c.74.3,1.59,0,1.98-.7,1.53-2.8,5.2-9.98,6.98-17.6,1.78-7.62,1.86-13.58,1.82-16.23-.01-.82-.54-1.54-1.31-1.8l-7.18-2.48c-1.15-.4-2.39.35-2.56,1.56l-.16,1.08-9.17-3.8s-6.31,9.78-8.6,12.83l4.08,11.38-2.76,6.11v-.02Z"/></clipPath><clipPath id="uuid-b3878e00-90a2-4718-a8fa-787c32a78eda"><path class="uuid-b38ce0af-b4e9-45a0-a07c-ddbefe16b92c" d="m439.54,321.73c-4.23,10.84-15.69,26.53-15.69,26.53,0,0,4.15,11.07,4.08,11.38-.08.31-5.02,12.18-14.88,25.28-8.25,10.96-18.86,20.87-18.86,20.87,0,0,6.17,6.74,7.85,8.76s0,5.19,0,5.19l-2.45-2.6s-7.21,3.17-15.1,10.59c-7.89,7.43-11.9,15.53-11.9,15.53l3.02,3.52s-2.64,1.22-4.36-.6c-1.72-1.82-14.76-16.58-14.76-16.58-20.33,9.71-45.4,11.43-45.4,11.43l-35.49,36.3c-28.82-3.13-35.02-23.89-35.02-23.89l17.8-18.01c-32.9-9.98-54.89-32.72-54.89-32.72,0,0,1.26-5.64,2.51-6.89s7.43-6.6,7.43-6.6c0,0,4.99.68,5.45.63.46-.05,8.89-8.04,9.45-8.7s.06-4.11.06-4.11l8.86-7.52c13.1,8.93,45.08,18.91,64.56,18.44,19.48-.47,22.89-6.37,31.45-9.84-8.21-2.19-49.99-12-96.04-38.56-48.62-28.05-72.13-51.81-77.02-57.04-.62-.67-.91-1.58-.78-2.48,1.81-12.31,5.53-24.8,5.82-25.53.3-.76,5.32-2.81,5.32-2.81,0,0-1.67,4.75-2.87,8.54,5.27,9.46,36.81,36.33,81.72,61.73,44.91,25.4,83.33,34.65,89.65,34.75,6.32.1,69.07-15.09,78.08-26.22,9.01-11.12,19.87-48.85,19.87-48.85l-1.33-8.17c4.09.98,4.6,4.25,4.6,4.25,0,0,1.31,7,1.38,20.76.08,13.77-2.08,23.23-2.08,23.23h-.04Zm-231.4,28.58l-45.72-37.62-.24-3.05s-3.03,1.99-2.91,3.49,3.35,36.61,20.8,60.97l7.57-6.56s-.33-4.15,0-4.83c.33-.67,11.19-9.37,11.19-9.37l4.94.54,4.38-3.56h-.01Z"/></clipPath></defs><g id="uuid-af29460d-1585-47d9-9c08-90633e2ce16e" data-name="uuid-3ed2d463-9c98-4ccd-9d5d-4c3039953550"><g id="uuid-8cac3a0a-4265-40b4-9675-88e4177bf870" data-name="uuid-099ea80d-b0f2-4400-b65c-6ce909f17109"><g><path class="uuid-2d96f9ec-d66c-44b5-9875-4c3953027912" d="m187.46,365.07c0-1.37.16-2.37.16-2.37l11.19-9.37,4.94.54,4.16-3.54-45.5-37.65s-.46-6.93-.57-13.62.57-13.95.57-13.95c19.42,20.93,67.75,51.78,95.66,65.63,27.91,13.85,60.83,24.27,75.34,27.46-5.61,2.07-6.03,4.26-16.69,7.77-10.66,3.51-22.99,2.36-42.4-1.62s-37.12-14.8-37.12-14.8l-8.86,7.52c.26,1.81.19,3.9.19,3.9l-9.7,8.9-5.45-.63,4.68-3.87s-.29-9.76-7.22-16.79c-6.93-7.03-18.28-5.3-18.28-5.3l-4.94,4.24s-.16-1.09-.16-2.46h0Zm237.71.67l8.26,3.17-.47.98c-.39.82-.01,1.79.82,2.14l8.27,3.38c.74.3,1.59,0,1.98-.7,1.53-2.8,5.2-9.98,6.98-17.6,1.78-7.62,1.86-13.58,1.82-16.23-.01-.82-.54-1.54-1.31-1.8l-7.18-2.48c-1.15-.4-2.39.35-2.56,1.56l-.16,1.08-9.17-3.8s-6.31,9.78-8.6,12.83l4.08,11.38-2.76,6.11v-.02Z"/><g class="uuid-4c4391de-0469-45ae-85e6-f51b95112f18"><g><path class="uuid-21d9377c-d8c1-4bc7-8f1d-7cae94ebdb6b" d="m203.75,353.87c13.03,1.96,23.07,12.29,24.59,23.19"/><path class="uuid-21d9377c-d8c1-4bc7-8f1d-7cae94ebdb6b" d="m433.43,368.91c7.68-14.03,8.19-29.68,8.19-29.68"/><path class="uuid-21d9377c-d8c1-4bc7-8f1d-7cae94ebdb6b" d="m433.43,336c-2.4,9.19-6.74,19.23-6.74,19.23"/></g></g><path class="uuid-50bdb408-0f03-46e1-b11e-5fe1cf11a933" d="m187.46,365.07c0-1.37.16-2.37.16-2.37l11.19-9.37,4.94.54,4.16-3.54-45.5-37.65s-.46-6.93-.57-13.62.57-13.95.57-13.95c19.42,20.93,67.75,51.78,95.66,65.63,27.91,13.85,60.83,24.27,75.34,27.46-5.61,2.07-6.03,4.26-16.69,7.77-10.66,3.51-22.99,2.36-42.4-1.62s-37.12-14.8-37.12-14.8l-8.86,7.52c.26,1.81.19,3.9.19,3.9l-9.7,8.9-5.45-.63,4.68-3.87s-.29-9.76-7.22-16.79c-6.93-7.03-18.28-5.3-18.28-5.3l-4.94,4.24s-.16-1.09-.16-2.46h0Zm237.71.67l8.26,3.17-.47.98c-.39.82-.01,1.79.82,2.14l8.27,3.38c.74.3,1.59,0,1.98-.7,1.53-2.8,5.2-9.98,6.98-17.6,1.78-7.62,1.86-13.58,1.82-16.23-.01-.82-.54-1.54-1.31-1.8l-7.18-2.48c-1.15-.4-2.39.35-2.56,1.56l-.16,1.08-9.17-3.8s-6.31,9.78-8.6,12.83l4.08,11.38-2.76,6.11v-.02Z"/></g><g><path class="uuid-4586ed58-3c26-4b5c-987c-00247d29fbe1" d="m439.54,321.73c-4.23,10.84-15.69,26.53-15.69,26.53,0,0,4.15,11.07,4.08,11.38-.08.31-5.02,12.18-14.88,25.28-8.25,10.96-18.86,20.87-18.86,20.87,0,0,6.17,6.74,7.85,8.76s0,5.19,0,5.19l-2.45-2.6s-7.21,3.17-15.1,10.59c-7.89,7.43-11.9,15.53-11.9,15.53l3.02,3.52s-2.64,1.22-4.36-.6c-1.72-1.82-14.76-16.58-14.76-16.58-20.33,9.71-45.4,11.43-45.4,11.43l-35.49,36.3c-28.82-3.13-35.02-23.89-35.02-23.89l17.8-18.01c-32.9-9.98-54.89-32.72-54.89-32.72,0,0,1.26-5.64,2.51-6.89s7.43-6.6,7.43-6.6c0,0,4.99.68,5.45.63.46-.05,8.89-8.04,9.45-8.7s.06-4.11.06-4.11l8.86-7.52c13.1,8.93,45.08,18.91,64.56,18.44,19.48-.47,22.89-6.37,31.45-9.84-8.21-2.19-49.99-12-96.04-38.56-48.62-28.05-72.13-51.81-77.02-57.04-.62-.67-.91-1.58-.78-2.48,1.81-12.31,5.53-24.8,5.82-25.53.3-.76,5.32-2.81,5.32-2.81,0,0-1.67,4.75-2.87,8.54,5.27,9.46,36.81,36.33,81.72,61.73,44.91,25.4,83.33,34.65,89.65,34.75,6.32.1,69.07-15.09,78.08-26.22,9.01-11.12,19.87-48.85,19.87-48.85l-1.33-8.17c4.09.98,4.6,4.25,4.6,4.25,0,0,1.31,7,1.38,20.76.08,13.77-2.08,23.23-2.08,23.23h-.04Zm-231.4,28.58l-45.72-37.62-.24-3.05s-3.03,1.99-2.91,3.49,3.35,36.61,20.8,60.97l7.57-6.56s-.33-4.15,0-4.83c.33-.67,11.19-9.37,11.19-9.37l4.94.54,4.38-3.56h-.01Z"/><g class="uuid-d0f82b25-b41c-4ccb-b99d-337e8c7b221c"><g><path class="uuid-2929258d-25b8-427e-8de3-6a1749239f1a" d="m394.18,405.78c-21.84-24.51-27.24-28.01-41.1-29.82-7.38-.96-15.42.71-19.87,2.17"/><path class="uuid-2929258d-25b8-427e-8de3-6a1749239f1a" d="m356.46,429.61c-3.81-4.15-6.3-8.87-15.27-4.75"/><line class="uuid-50bdb408-0f03-46e1-b11e-5fe1cf11a933" x1="339.01" y1="356.74" x2="340.25" y2="376.42"/><path class="uuid-2929258d-25b8-427e-8de3-6a1749239f1a" d="m359.94,377.24l-.48-7.52s36.44-7.14,51.51-15.84c1.82,5.06,8.64,21.47,8.64,21.47"/><line class="uuid-50bdb408-0f03-46e1-b11e-5fe1cf11a933" x1="423.85" y1="348.26" x2="417.09" y2="330.52"/><path class="uuid-2929258d-25b8-427e-8de3-6a1749239f1a" d="m258.34,435.45c14.39,5.09,39.67,6.61,52.72,5.6"/><path d="m258.52,435.93l-5.11,4.85s17.9,8.67,49.25,8.26l8.34-7.65-25.28-.56-12.64-1.52-7.79-1.57-6.78-1.82h.01Z"/><g><circle class="uuid-d9aa9a53-424e-4bf1-bdbc-808db4883ccb" cx="349.52" cy="364.53" r="4.42"/><circle class="uuid-d9aa9a53-424e-4bf1-bdbc-808db4883ccb" cx="412.96" cy="344.53" r="4.42"/></g><polygon points="211.4 409.54 238.5 370.41 237.19 370 228.59 377.23 228.28 381.17 218.83 389.87 212.97 389.87 205.59 396.55 203.75 403.04 211.4 409.54"/></g></g><path class="uuid-50bdb408-0f03-46e1-b11e-5fe1cf11a933" d="m439.54,321.73c-4.23,10.84-15.69,26.53-15.69,26.53,0,0,4.15,11.07,4.08,11.38-.08.31-5.02,12.18-14.88,25.28-8.25,10.96-18.86,20.87-18.86,20.87,0,0,6.17,6.74,7.85,8.76s0,5.19,0,5.19l-2.45-2.6s-7.21,3.17-15.1,10.59c-7.89,7.43-11.9,15.53-11.9,15.53l3.02,3.52s-2.64,1.22-4.36-.6c-1.72-1.82-14.76-16.58-14.76-16.58-20.33,9.71-45.4,11.43-45.4,11.43l-35.49,36.3c-28.82-3.13-35.02-23.89-35.02-23.89l17.8-18.01c-32.9-9.98-54.89-32.72-54.89-32.72,0,0,1.26-5.64,2.51-6.89s7.43-6.6,7.43-6.6c0,0,4.99.68,5.45.63.46-.05,8.89-8.04,9.45-8.7s.06-4.11.06-4.11l8.86-7.52c13.1,8.93,45.08,18.91,64.56,18.44,19.48-.47,22.89-6.37,31.45-9.84-8.21-2.19-49.99-12-96.04-38.56-48.62-28.05-72.13-51.81-77.02-57.04-.62-.67-.91-1.58-.78-2.48,1.81-12.31,5.53-24.8,5.82-25.53.3-.76,5.32-2.81,5.32-2.81,0,0-1.67,4.75-2.87,8.54,5.27,9.46,36.81,36.33,81.72,61.73,44.91,25.4,83.33,34.65,89.65,34.75,6.32.1,69.07-15.09,78.08-26.22,9.01-11.12,19.87-48.85,19.87-48.85l-1.33-8.17c4.09.98,4.6,4.25,4.6,4.25,0,0,1.31,7,1.38,20.76.08,13.77-2.08,23.23-2.08,23.23h-.04Zm-231.4,28.58l-45.72-37.62-.24-3.05s-3.03,1.99-2.91,3.49,3.35,36.61,20.8,60.97l7.57-6.56s-.33-4.15,0-4.83c.33-.67,11.19-9.37,11.19-9.37l4.94.54,4.38-3.56h-.01Z"/></g></g></g></svg>
<svg id="uuid-a02d3be7-cb6f-4a2c-b49b-641c04f66e2c" data-name="BODY" xmlns="http://www.w3.org/2000/svg" xmlns:xlink="http://www.w3.org/1999/xlink" viewBox="0 0 600 600"><defs><style>
      .uuid-97ec9160-f55b-4391-9ac6-2720ac70b4d7, .uuid-186e0f35-16d5-49b6-9cbd-d077b6af6fa7, .uuid-c3a6eae5-34c2-4348-b045-ee3a775c38d6 {
        fill: none;
      }

      .uuid-186e0f35-16d5-49b6-9cbd-d077b6af6fa7 {
        clip-path: url(#uuid-8e6e5a8e-41a9-45a6-8de2-1509de5fe4b8);
      }

      .uuid-8db21063-287c-4acc-a512-bbb5252bc182 {
        fill: #7aa6ff;
      }

      .uuid-8db21063-287c-4acc-a512-bbb5252bc182, .uuid-30e331db-4d21-49fc-9ac1-7c3c1e393256, .uuid-b54f6662-ff09-4ee8-b5f7-c135184e294b, .uuid-7ac34740-3707-468c-be51-b66a0dd2ed67, .uuid-f0a83435-45fe-4dc4-9872-f810804941c5, .uuid-3b92c40e-5c35-41fc-a2cd-b71aa1e768f8, .uuid-b7057188-22a7-479d-9437-632318c9ac2d, .uuid-4c30d6be-6a29-4f20-9678-daf62593094f, .uuid-f3cd72a2-e4c0-4201-b5e2-325e35e373ef, .uuid-c3a6eae5-34c2-4348-b045-ee3a775c38d6 {
        stroke: #000;
        stroke-linecap: round;
        stroke-linejoin: round;
      }

      .uuid-8db21063-287c-4acc-a512-bbb5252bc182, .uuid-f0a83435-45fe-4dc4-9872-f810804941c5, .uuid-b7057188-22a7-479d-9437-632318c9ac2d, .uuid-4c30d6be-6a29-4f20-9678-daf62593094f, .uuid-f3cd72a2-e4c0-4201-b5e2-325e35e373ef, .uuid-c3a6eae5-34c2-4348-b045-ee3a775c38d6 {
        stroke-width: 2px;
      }

      .uuid-1614a14c-44f3-41f2-970a-f9e88ea2d137 {
        fill: #ffff0d;
      }

      .uuid-30e331db-4d21-49fc-9ac1-7c3c1e393256 {
        stroke-width: 2px;
      }

      .uuid-30e331db-4d21-49fc-9ac1-7c3c1e393256, .uuid-b54f6662-ff09-4ee8-b5f7-c135184e294b {
        fill: #3ef1ff;
      }

      .uuid-b54f6662-ff09-4ee8-b5f7-c135184e294b, .uuid-7ac34740-3707-468c-be51-b66a0dd2ed67 {
        stroke-width: 2px;
      }

      .uuid-7ac34740-3707-468c-be51-b66a0dd2ed67, .uuid-f0a83435-45fe-4dc4-9872-f810804941c5, .uuid-3b92c40e-5c35-41fc-a2cd-b71aa1e768f8 {
        fill: #a07bff;
      }

      .uuid-3b92c40e-5c35-41fc-a2cd-b71aa1e768f8 {
        stroke-width: 2px;
      }

      .uuid-b7057188-22a7-479d-9437-632318c9ac2d {
        fill: #ff78d8;
      }

      .uuid-4c30d6be-6a29-4f20-9678-daf62593094f {
        fill: #fff7f0;
      }

      .uuid-f3cd72a2-e4c0-4201-b5e2-325e35e373ef {
        fill: #ffc9f1;
      }
    </style><clipPath id="uuid-8e6e5a8e-41a9-45a6-8de2-1509de5fe4b8"><path class="uuid-97ec9160-f55b-4391-9ac6-2720ac70b4d7" d="m218.44,385.68l-12.41,10.96-6.53,24.81s7.3-.56,11.65,5.92c4.35,6.48,4.93,18.37-5.19,25.2,0,0,2.66,7.57-2.84,15.69-5.5,8.12-13.98,7.22-17.39,6.23-3.42-.99-6.85-3.34-8.39-5.52,0,0-4.4,2.52-9.33,1.88-4.92-.64-9.88-4.55-10.66-11.79,0,0-4.68-1.75-6.47-7.46s-.04-12.91,2.44-22.27c2.48-9.35,6.68-14.17,12.51-15.83,0,0,7.52-29.22,8.52-33.06,1-3.84,2.56-4.88,6.36-8.16,3.8-3.28,15.08-13.12,15.08-13.12,0,0-6.03-58.25-12.88-63.84-15.33-12.53-44.41,24.06-87.62,45.85-62.5,31.52-65.76,86.65-49.19,122.95,16.58,36.3,55.81,43.29,75.6,42.64,19.79-.64,44.55-21.29,57.17-20.21,12.62,1.09,20.57,16.17,35.99,20.21,15.42,4.03,40.63-13.14,40.63-13.14l22.73-23.84,208.57,80.5,26.44-27.14,9.21-56.69-16.31-219.04-85.45-26.84-202.25,165.1h0Z"/></clipPath></defs><g id="uuid-4fc18071-2308-439e-9b03-a88b20c18554" data-name="uuid-25dbd0f2-a6de-441e-82e8-5e783d370578"><g id="uuid-468c7e84-7c20-452e-9305-e519acee2181" data-name="uuid-6de0adcf-05a0-4838-b094-5e13ac5553d7"><g class="uuid-186e0f35-16d5-49b6-9cbd-d077b6af6fa7"><g><g><path class="uuid-8db21063-287c-4acc-a512-bbb5252bc182" d="m256.85,397.34s43.17-16.87,99.05-41.15c55.88-24.29,75.83-39.11,88.23-49.9,12.4-10.79,16.75-22.06,17.55-24.64,0,0-15.57-4.04-25.44-4.73,0,0-1.95-11.06-4.24-17.83,0,0,23.38,4.08,29.67,10.6,6.29,6.52,8.26,24.14,3.97,34.72-4.29,10.58-48.76,44.48-82.27,59.41-33.52,14.93-34.93,14.89-34.93,14.89,0,0-10.52-1.58-24.73,8.6,0,0-36.6,14.62-59.39,23.39l-7.48-13.35h0Z"/><path class="uuid-8db21063-287c-4acc-a512-bbb5252bc182" d="m167.87,340.53s-9.7,4.37-15.66,9.02c-3.95-.93-22.86-3.02-22.86-3.02,0,0,15.25-13.12,34.71-21.71,0,0,1.23,8.09,3.82,15.72Z"/><path class="uuid-c3a6eae5-34c2-4348-b045-ee3a775c38d6" d="m461.68,281.65c1.48-4.21-.71-13.73-6.07-15.83"/><line class="uuid-c3a6eae5-34c2-4348-b045-ee3a775c38d6" x1="280.48" y1="387.88" x2="287.21" y2="401.78"/><line class="uuid-c3a6eae5-34c2-4348-b045-ee3a775c38d6" x1="287.21" y1="385.14" x2="293.75" y2="399.2"/><line class="uuid-c3a6eae5-34c2-4348-b045-ee3a775c38d6" x1="293.36" y1="382.62" x2="300" y2="396.73"/><g><path class="uuid-1614a14c-44f3-41f2-970a-f9e88ea2d137" d="m334.63,370.93l1.57,1.28c.15.12.36.17.55.11l1.94-.56c.48-.14.9.33.72.79l-.74,1.89c-.07.18-.05.39.06.55l1.14,1.68c.28.41-.03.96-.53.93l-2.02-.12c-.2-.01-.39.07-.51.23l-1.24,1.6c-.3.39-.92.26-1.05-.22l-.51-1.96c-.05-.19-.19-.34-.38-.41l-1.9-.69c-.47-.17-.54-.8-.12-1.07l1.7-1.09c.17-.11.27-.29.27-.48l.07-2.02c.02-.5.59-.76.98-.44h0Z"/><path class="uuid-1614a14c-44f3-41f2-970a-f9e88ea2d137" d="m352.67,363.26l1.57,1.28c.15.12.36.17.55.11l1.94-.56c.48-.14.9.33.72.79l-.74,1.89c-.07.18-.05.39.06.55l1.14,1.68c.28.41-.03.96-.53.93l-2.02-.12c-.2-.01-.39.07-.51.23l-1.24,1.6c-.3.39-.92.26-1.05-.22l-.51-1.96c-.05-.19-.19-.34-.38-.41l-1.9-.69c-.47-.17-.54-.8-.12-1.07l1.7-1.09c.17-.11.27-.29.27-.48l.07-2.02c.02-.5.59-.76.98-.44h0Z"/><path class="uuid-1614a14c-44f3-41f2-970a-f9e88ea2d137" d="m371.48,354.98l1.59,1.25c.15.12.36.16.55.1l1.93-.6c.47-.15.91.31.74.78l-.7,1.9c-.07.18-.04.39.07.55l1.17,1.65c.29.4-.02.96-.51.94l-2.02-.08c-.2,0-.38.08-.5.24l-1.21,1.62c-.3.4-.92.28-1.05-.2l-.55-1.95c-.05-.19-.2-.34-.38-.4l-1.92-.65c-.47-.16-.55-.79-.14-1.06l1.68-1.12c.16-.11.26-.29.27-.49l.03-2.02c0-.5.58-.77.97-.46h0Z"/><path class="uuid-1614a14c-44f3-41f2-970a-f9e88ea2d137" d="m389.42,346.05l1.67,1.14c.16.11.37.14.55.07l1.89-.73c.46-.18.93.25.79.73l-.57,1.94c-.06.19-.02.39.11.55l1.27,1.57c.31.39.05.96-.45.97l-2.02.05c-.2,0-.38.11-.49.27l-1.1,1.7c-.27.42-.9.34-1.07-.13l-.68-1.91c-.07-.19-.22-.33-.41-.38l-1.96-.52c-.48-.13-.6-.75-.21-1.05l1.6-1.23c.16-.12.24-.31.23-.51l-.11-2.02c-.03-.49.53-.8.94-.52h0Z"/><path class="uuid-1614a14c-44f3-41f2-970a-f9e88ea2d137" d="m405.93,337.19l1.71,1.09c.17.11.37.12.55.05l1.86-.79c.46-.19.94.22.81.7l-.51,1.96c-.05.19,0,.39.13.54l1.33,1.53c.33.37.08.96-.41.99l-2.02.12c-.2.01-.37.12-.48.29l-1.04,1.74c-.26.42-.89.37-1.07-.09l-.74-1.88c-.07-.18-.23-.32-.42-.36l-1.97-.46c-.48-.11-.63-.73-.25-1.04l1.56-1.29c.15-.13.23-.32.21-.51l-.18-2.02c-.04-.49.5-.82.92-.56h0Z"/></g></g><path class="uuid-b7057188-22a7-479d-9437-632318c9ac2d" d="m404.95,488.26c11.56,2.8,20.78,17.99,20.78,17.99,0,0,33.24,6.76,51.24,20.29l7.21-3.39-1.89-6.7s-31.23-16.75-50.98-17.71c0,0-7.08-8.51-12.34-9.3-5.26-.79-14.02-1.18-14.02-1.18h0Z"/><path class="uuid-f3cd72a2-e4c0-4201-b5e2-325e35e373ef" d="m490.26,485.51s-15.71-3.27-30.17-7.78c-14.46-4.51-25.51-10.58-25.51-10.58,0,0-5.75,4.04-7.78,4.51-1.78.41-124.87-31.46-154.41-39.12-.04-17.75-6.8-34.2-20.05-41.98-16.78-9.85-40.5,2.84-51.96-.89-11.46-3.73-14.08-38.2-57.48-43.98-43.41-5.78-74.21,23.56-86.3,54.22-12.09,30.66-7.3,85.91,54.32,93.9,32.12,4.16,46.04-19.92,68.1-16.65,18.73,2.78,19.06,19.57,37.56,20.82,0,0,7.8.37,11.04-3.07,0,0-.98-6.04-2.55-10.77-1.57-4.73-3.24-7.96-3.24-7.96,0,0,4.02-11.38,12.65-13.73,8.63-2.35,23.94,1.47,26.88,1.18,1.98-.2,4.55-2.12,6.76-7.14,39.95,9.21,144.97,33.46,149.5,34.88,5.6,1.76,11.98,10.32,11.98,10.32,0,0,16.95,3.73,30.33,8.87,13.38,5.13,24.26,12.6,24.26,12.6,0,0,3.89-12.91,8.87-17.27-3.27-7.47-2.8-20.38-2.8-20.38h0Z"/><path class="uuid-b7057188-22a7-479d-9437-632318c9ac2d" d="m216.43,497.98c-18.5-1.25-18.83-18.04-37.56-20.82-22.06-3.27-35.98,20.82-68.1,16.65-28.66-3.71-45.02-17.66-53.11-34.59,18.87,33.21,70.51,25.28,90.82,14.96,20.32-10.32,28.95-6.33,46.7,6.14,17.75,12.47,23.93,8.24,29.75,3.81,1.57,4.73,2.55,10.77,2.55,10.77-3.24,3.43-11.04,3.07-11.04,3.07h0Zm36.46-45.01h0c-4.99-.69-15.38-3.83-24.74,1.2-11.65,6.26-8.07,18.45-6.47,22.01.11.24.27.47.49.69-.21-.44-.34-.69-.34-.69,0,0,4.02-11.38,12.65-13.73,8.63-2.35,23.94,1.47,26.88,1.18,1.98-.2,4.55-2.12,6.76-7.14-9.43-2.17-15.24-3.51-15.24-3.51h0Zm13.17-22.07h0s2.29.59,6.32,1.64c-.02-9.45-1.94-18.54-5.75-26.14l-.2-.1c1.56,6.15,1.32,15.68-.38,24.6Z"/><g><g><path class="uuid-4c30d6be-6a29-4f20-9678-daf62593094f" d="m212.78,449.43l-14.2-3.29c-2.95-.68-4.24-3-2.87-5.16l15.67-24.85c1.37-2.17,4.87-3.37,7.82-2.69l14.2,3.29c2.95.68,4.24,3,2.87,5.16l-15.67,24.85c-1.37,2.17-4.87,3.37-7.82,2.69Z"/><path class="uuid-f0a83435-45fe-4dc4-9872-f810804941c5" d="m213.2,445.62l-10.75-2.49c-1.51-.35-2.17-1.53-1.47-2.64l13.79-21.87c.7-1.11,2.49-1.72,4-1.37l10.75,2.49c1.51.35,2.17,1.53,1.47,2.64l-13.79,21.87c-.7,1.11-2.49,1.72-4,1.37Z"/></g><g><path class="uuid-4c30d6be-6a29-4f20-9678-daf62593094f" d="m166.82,438.79l-14.2-3.29c-2.95-.68-4.24-3-2.87-5.16l15.67-24.85c1.37-2.17,4.87-3.37,7.82-2.69l14.2,3.29c2.95.68,4.24,3,2.87,5.16l-15.67,24.85c-1.37,2.17-4.87,3.37-7.82,2.69Z"/><path class="uuid-f0a83435-45fe-4dc4-9872-f810804941c5" d="m167.24,434.98l-10.75-2.49c-1.51-.35-2.17-1.53-1.47-2.64l13.79-21.87c.7-1.11,2.49-1.72,4-1.37l10.75,2.49c1.51.35,2.17,1.53,1.47,2.64l-13.79,21.87c-.7,1.11-2.49,1.72-4,1.37Z"/></g><path class="uuid-4c30d6be-6a29-4f20-9678-daf62593094f" d="m129.85,430.23h0c-2.95-.68-4.24-3-2.87-5.16l15.67-24.85c1.37-2.17,4.87-3.37,7.82-2.69h0c2.95.68,4.24,3,2.87,5.16l-15.67,24.85c-1.37,2.17-4.87,3.37-7.82,2.69Z"/><path class="uuid-4c30d6be-6a29-4f20-9678-daf62593094f" d="m107.78,425.12h0c-2.95-.68-4.24-3-2.87-5.16l15.67-24.85c1.37-2.17,4.87-3.37,7.82-2.69h0c2.95.68,4.24,3,2.87,5.16l-15.67,24.85c-1.37,2.17-4.87,3.37-7.82,2.69h0Z"/><path class="uuid-f0a83435-45fe-4dc4-9872-f810804941c5" d="m123.78,399.75l-11.38,18.04c-1.36,2.15-.1,4.44,2.81,5.14.14-.16.28-.32.4-.5l15.67-24.85c.11-.18.18-.35.25-.53-2.94-.65-6.39.55-7.75,2.7h0Z"/></g><g><path class="uuid-c3a6eae5-34c2-4348-b045-ee3a775c38d6" d="m436.81,495.25s-16.88-8.23-20.01-8.99-300.73-68.01-300.73-68.01"/><path class="uuid-c3a6eae5-34c2-4348-b045-ee3a775c38d6" d="m438.16,476.24s-11.22-.5-17.03-1.9c-5.81-1.4-294.08-73.68-294.08-73.68"/><path class="uuid-c3a6eae5-34c2-4348-b045-ee3a775c38d6" d="m473.11,489.44s-44.58-9.34-50.77-11.01c-6.2-1.66-299.13-71.93-299.13-71.93"/><path class="uuid-c3a6eae5-34c2-4348-b045-ee3a775c38d6" d="m119.35,412.39s288.32,67,298.94,69.56c10.62,2.56,53.31,24.81,53.31,24.81"/></g><g><g><ellipse class="uuid-7ac34740-3707-468c-be51-b66a0dd2ed67" cx="80.12" cy="438.43" rx="8" ry="6.02" transform="translate(-184.58 79.86) rotate(-26.08)"/><path class="uuid-8db21063-287c-4acc-a512-bbb5252bc182" d="m84.32,436.52c.6,1.22-.77,3.11-3.06,4.23-2.29,1.12-4.62,1.04-5.22-.18-.2-.41-1.95-3.98-2.48-5.06.41-1,4.02,1.57,5.54.83,1.51-.74,1.7-5.17,2.74-4.88l2.48,5.06h0Z"/><ellipse class="uuid-b54f6662-ff09-4ee8-b5f7-c135184e294b" cx="77.79" cy="433.66" rx="4.61" ry="3.55" transform="translate(-182.72 78.35) rotate(-26.08)"/></g><g><ellipse class="uuid-7ac34740-3707-468c-be51-b66a0dd2ed67" cx="106.81" cy="442.59" rx="8" ry="6.02" transform="translate(-183.69 92.02) rotate(-26.08)"/><path class="uuid-8db21063-287c-4acc-a512-bbb5252bc182" d="m111.01,440.68c.6,1.22-.77,3.11-3.06,4.23-2.29,1.12-4.62,1.04-5.22-.18-.2-.41-1.95-3.98-2.48-5.06.41-1,4.02,1.57,5.54.83,1.51-.74,1.7-5.17,2.74-4.88l2.48,5.06h0Z"/><ellipse class="uuid-b54f6662-ff09-4ee8-b5f7-c135184e294b" cx="104.47" cy="437.82" rx="4.61" ry="3.55" transform="translate(-181.84 90.5) rotate(-26.08)"/></g><g><ellipse class="uuid-7ac34740-3707-468c-be51-b66a0dd2ed67" cx="87.78" cy="459.18" rx="8" ry="6.02" transform="translate(-192.92 85.34) rotate(-26.08)"/><path class="uuid-8db21063-287c-4acc-a512-bbb5252bc182" d="m91.98,457.27c.6,1.22-.77,3.11-3.06,4.23-2.29,1.12-4.62,1.04-5.22-.18-.2-.41-1.95-3.98-2.48-5.06.41-1,4.02,1.57,5.54.83,1.51-.74,1.7-5.17,2.74-4.88l2.48,5.06h0Z"/><ellipse class="uuid-b54f6662-ff09-4ee8-b5f7-c135184e294b" cx="85.45" cy="454.41" rx="4.61" ry="3.55" transform="translate(-191.07 83.83) rotate(-26.08)"/></g><g><ellipse class="uuid-7ac34740-3707-468c-be51-b66a0dd2ed67" cx="114.47" cy="463.34" rx="8" ry="6.02" transform="translate(-192.04 97.5) rotate(-26.08)"/><path class="uuid-8db21063-287c-4acc-a512-bbb5252bc182" d="m118.67,461.44c.6,1.22-.77,3.11-3.06,4.23-2.29,1.12-4.62,1.04-5.22-.18-.2-.41-1.95-3.98-2.48-5.06.41-1,4.02,1.57,5.54.83,1.51-.74,1.7-5.17,2.74-4.88l2.48,5.06h0Z"/><ellipse class="uuid-b54f6662-ff09-4ee8-b5f7-c135184e294b" cx="112.14" cy="458.57" rx="4.61" ry="3.55" transform="translate(-190.18 95.99) rotate(-26.08)"/></g></g><g><ellipse class="uuid-7ac34740-3707-468c-be51-b66a0dd2ed67" cx="242.28" cy="405.28" rx="8" ry="6.02" transform="translate(-153.5 147.77) rotate(-26.08)"/><path class="uuid-8db21063-287c-4acc-a512-bbb5252bc182" d="m246.48,403.37c.6,1.22-.77,3.11-3.06,4.23-2.29,1.12-4.62,1.04-5.22-.18-.2-.41-1.95-3.98-2.48-5.06.41-1,4.02,1.57,5.54.83,1.51-.74,1.7-5.17,2.74-4.88l2.48,5.06h0Z"/><ellipse class="uuid-b54f6662-ff09-4ee8-b5f7-c135184e294b" cx="239.95" cy="400.51" rx="4.61" ry="3.55" transform="translate(-151.64 146.26) rotate(-26.08)"/></g><g><ellipse class="uuid-3b92c40e-5c35-41fc-a2cd-b71aa1e768f8" cx="443.7" cy="475.25" rx="5.05" ry="5.28" transform="translate(-189.67 328.37) rotate(-33.91)"/><path class="uuid-8db21063-287c-4acc-a512-bbb5252bc182" d="m443.56,472.68c-1.13.76-1.5,2.17-.83,3.16s2.12,1.18,3.24.42l4.68-3.14c.39-.71-.92-1.03-1.36-1.68-.44-.65-.24-1.99-1.04-1.9l-4.68,3.14Z"/><ellipse class="uuid-30e331db-4d21-49fc-9ac1-7c3c1e393256" cx="449.28" cy="471.43" rx="2.12" ry="2.16" transform="translate(-186.59 330.84) rotate(-33.91)"/></g><g><ellipse class="uuid-3b92c40e-5c35-41fc-a2cd-b71aa1e768f8" cx="476.71" cy="485.61" rx="5.05" ry="5.28" transform="translate(-189.83 348.55) rotate(-33.91)"/><path class="uuid-8db21063-287c-4acc-a512-bbb5252bc182" d="m476.58,483.03c-1.13.76-1.5,2.17-.83,3.16s2.12,1.18,3.24.42l4.68-3.14c.39-.71-.92-1.03-1.36-1.68-.44-.65-.24-1.99-1.04-1.9l-4.68,3.14Z"/><ellipse class="uuid-30e331db-4d21-49fc-9ac1-7c3c1e393256" cx="482.3" cy="481.78" rx="2.12" ry="2.16" transform="translate(-186.75 351.02) rotate(-33.91)"/></g><g><ellipse class="uuid-3b92c40e-5c35-41fc-a2cd-b71aa1e768f8" cx="474.12" cy="507.79" rx="5.05" ry="5.28" transform="translate(-202.65 350.88) rotate(-33.91)"/><path class="uuid-8db21063-287c-4acc-a512-bbb5252bc182" d="m473.98,505.22c-1.13.76-1.5,2.17-.83,3.16s2.12,1.18,3.24.42l4.68-3.14c.39-.71-.92-1.03-1.36-1.68-.44-.65-.24-1.99-1.04-1.9l-4.68,3.14Z"/><ellipse class="uuid-30e331db-4d21-49fc-9ac1-7c3c1e393256" cx="479.7" cy="503.97" rx="2.12" ry="2.16" transform="translate(-199.57 353.34) rotate(-33.91)"/></g><g><ellipse class="uuid-3b92c40e-5c35-41fc-a2cd-b71aa1e768f8" cx="441.1" cy="494.64" rx="5.05" ry="5.28" transform="translate(-200.93 330.22) rotate(-33.91)"/><path class="uuid-8db21063-287c-4acc-a512-bbb5252bc182" d="m440.96,492.07c-1.13.76-1.5,2.17-.83,3.16s2.12,1.18,3.24.42l4.68-3.14c.39-.71-.92-1.03-1.36-1.68-.44-.65-.24-1.99-1.04-1.9l-4.68,3.14Z"/><ellipse class="uuid-30e331db-4d21-49fc-9ac1-7c3c1e393256" cx="446.68" cy="490.82" rx="2.12" ry="2.16" transform="translate(-197.85 332.68) rotate(-33.91)"/></g></g></g></g></g></svg>
<svg id="uuid-dbdd0264-9f38-401c-9cf7-d3d251194c82" data-name="BODY" xmlns="http://www.w3.org/2000/svg" viewBox="0 0 600 600"><defs><style>
      .uuid-b1c08775-a845-4385-a2f8-870398f777c3 {
        fill: #fff;
        stroke: #000;
        stroke-miterlimit: 10;
        stroke-width: 2px;
      }
    </style></defs><path class="uuid-b1c08775-a845-4385-a2f8-870398f777c3" d="m234.82,145.43c-9.89-21.59-45.38-26.51-79.27-10.99-33.89,15.52-53.35,45.61-43.46,67.2,9.99,21.81,39.44,22.36,59.43,17.73,4.99-1.16,10.09-2.59,14.83-4.51,5.26-2.14,11.16-6.03,16.85-3.03,2.88,1.52,17.21,8.41,19.06,3.74.88-2.24-2.6-4.93-3.79-6.4-2.06-2.55-3.15-5.62-2.69-8.93.52-3.73,3.23-6.58,5.75-9.17,3.01-3.1,5.82-6.19,8.14-9.86,6.51-10.31,10.47-24.16,5.15-35.78Z"/><g><path d="m127.75,172.06l17.51-10.97,5,7.97-8.29,5.19,5.57,8.89,5.83-3.66,5,7.97-5.83,3.66,6.34,10.12,8.29-5.19,5,7.97-17.51,10.97-26.91-42.94Z"/><path d="m158.97,163.61l-6.76,4.23-5-7.97,22.73-14.24,5,7.97-6.76,4.23,21.91,34.96-9.21,5.77-21.91-34.96Z"/><path d="m172.83,143.82l9.21-5.77,10.96,17.48,3.07-1.92-10.96-17.48,9.21-5.77,26.91,42.94-9.21,5.77-10.96-17.48-3.07,1.92,10.96,17.48-9.21,5.77-26.91-42.94Z"/></g></svg>
</svg>