<?xml version="1.0" encoding="UTF-8"?>
<svg xmlns="http://www.w3.org/2000/svg" viewBox="0 0 600 600">
<svg id="uuid-47722c1a-ec94-491f-b9ae-69c2f5e8f75c" data-name="BACKGROUND" xmlns="http://www.w3.org/2000/svg" viewBox="0 0 600 600"><defs><style>
      .uuid-ab0c32c0-b20c-4bf1-888e-57f882ba1299 {
        fill: #ffc9f1;
      }
    </style></defs><rect class="uuid-ab0c32c0-b20c-4bf1-888e-57f882ba1299" x="-1" y="-1" width="602" height="602"/></svg>
<svg id="uuid-4b9ac9a2-518f-484a-8405-8c4c95b5d820" data-name="BODY" xmlns="http://www.w3.org/2000/svg" viewBox="0 0 600 600"><defs><style>
      .uuid-3f9ec564-8708-4e75-9244-a1a973efafea {
        fill: #fff;
      }

      .uuid-f4a0fca1-efe7-48bf-8a76-ffe42a36dabc, .uuid-f74b9348-d91e-454e-bf3d-c745fef9ac7d {
        stroke-miterlimit: 10;
      }

      .uuid-f4a0fca1-efe7-48bf-8a76-ffe42a36dabc, .uuid-f74b9348-d91e-454e-bf3d-c745fef9ac7d, .uuid-e88451e4-f64f-4221-9af8-5fb1c0132909, .uuid-c46f19fa-5207-4ebd-8a30-4d23cbcc2fc1, .uuid-0fbafe0f-c1a7-4154-b2d4-f3b317584526 {
        stroke: #000;
        stroke-width: 2px;
      }

      .uuid-f4a0fca1-efe7-48bf-8a76-ffe42a36dabc, .uuid-f74b9348-d91e-454e-bf3d-c745fef9ac7d, .uuid-e88451e4-f64f-4221-9af8-5fb1c0132909, .uuid-0fbafe0f-c1a7-4154-b2d4-f3b317584526 {
        fill: #ffff0d;
      }

      .uuid-f74b9348-d91e-454e-bf3d-c745fef9ac7d, .uuid-e88451e4-f64f-4221-9af8-5fb1c0132909, .uuid-c46f19fa-5207-4ebd-8a30-4d23cbcc2fc1 {
        stroke-linecap: round;
      }

      .uuid-e88451e4-f64f-4221-9af8-5fb1c0132909, .uuid-c46f19fa-5207-4ebd-8a30-4d23cbcc2fc1, .uuid-0fbafe0f-c1a7-4154-b2d4-f3b317584526 {
        stroke-linejoin: round;
      }

      .uuid-c46f19fa-5207-4ebd-8a30-4d23cbcc2fc1 {
        fill: none;
      }
    </style></defs><ellipse cx="300" cy="518.65" rx="138.6" ry="22.93"/><g><path class="uuid-f4a0fca1-efe7-48bf-8a76-ffe42a36dabc" d="m319.36,427.14c-1.16,1.05-54.95,57-54.95,57,0,0,21.51-1.95,31.74,10.62,10.23,12.57,7.26,23.89,7.26,23.89h-66.9s-28.69-36.17-28.69-36.17c0,0,3.74-13.4,20.44-10.59,20.9-19.38,55.52-59.13,55.52-59.13l35.59,14.38Z"/><path d="m283.78,412.76l31.28,12.64-3.24,9.5c-2.93,3.03-9.76,10.12-13.64,14.14-11.92,0-27.98-2.13-41.33-6.37,13.95-15.1,26.93-29.92,26.93-29.92Z"/></g><g><path class="uuid-e88451e4-f64f-4221-9af8-5fb1c0132909" d="m409.81,359.6c9.2,3.77,29.89,12.05,42.79,16.03,2.11.65,4.41.69,6.5-.04,11.79-4.08,28.47-11.39,33.03-11.32,5.25.08,7.8,3.93,19.88,2.04,13.36-2.1,22.43-11.99,20.93-23.3-4.21-43.28-25.18-26.79-25.18-26.79,0,0-5.84-8.75-18.76-4.82-11.83,3.6-10.2,14.44-6.47,22.47l-25.29,8.58c-2.14.72-4.45.71-6.59-.02l-35.7-12.61"/><path class="uuid-f74b9348-d91e-454e-bf3d-c745fef9ac7d" d="m533.36,312.82c2.5,3.94,1.62,9.14-1.57,12.4-2.47,2.53-5.88,3.88-9.32,4.4-2.8.43-5.7.42-8.49-.08-2.14-.39-4.29-1.1-5.79-2.75-1.66-1.83-2.27-4.46-1.98-6.87.51-4.17,3.84-7.14,7.22-9.26,3.17-1.98,6.86-3.26,10.64-3.09,3.8.18,7.36,2.19,9.3,5.24Z"/><path class="uuid-f74b9348-d91e-454e-bf3d-c745fef9ac7d" d="m538.57,349.84c.97,3.03.32,6.43-1.5,9.01-3.77,5.33-11.17,5.65-16.96,4.27-3.31-.79-6.69-2.21-8.67-5.13-3.13-4.61-.82-9.79,3.48-12.56,2.58-1.66,5.61-2.67,8.63-3.14,5.73-.89,13.1,1.51,15.03,7.56Z"/><path class="uuid-f74b9348-d91e-454e-bf3d-c745fef9ac7d" d="m538.71,328.53c1.8,2.99,2.06,6.89.22,9.9-1.95,3.2-4.94,5.25-8.49,6.28-3.66,1.07-7.64,1.27-11.4.44-2.25-.5-4.53-1.38-5.96-3.28-1.86-2.47-1.89-5.68-.85-8.49,1.2-3.24,4.17-5.69,7.09-7.37,6.15-3.56,15.21-4.43,19.39,2.52Z"/><path class="uuid-f74b9348-d91e-454e-bf3d-c745fef9ac7d" d="m501.85,311.68s9.27,3.84,7.77,12.02c-1.04,5.68-8.17,9.55-14.94,6.13"/><path class="uuid-c46f19fa-5207-4ebd-8a30-4d23cbcc2fc1" d="m500.67,331.08c2.41,1.63,5.11,8.04,3.4,14.42"/><path d="m443.44,339.88c-2.88,10.58-6.94,20.23-11.17,28.59-10.17-3.78-21.16-9.53-27-11.93l11.83-26.02,26.35,9.36Z"/></g><g><circle class="uuid-f4a0fca1-efe7-48bf-8a76-ffe42a36dabc" cx="300" cy="300" r="138.16"/><path class="uuid-3f9ec564-8708-4e75-9244-a1a973efafea" d="m184.58,308.17c-4.41,0-7.98-3.57-7.98-7.98,0-67.74,55.11-122.86,122.86-122.86,4.41,0,7.98,3.57,7.98,7.98s-3.57,7.98-7.98,7.98c-58.94,0-106.9,47.95-106.9,106.9,0,4.41-3.57,7.98-7.98,7.98Z"/></g><path class="uuid-c46f19fa-5207-4ebd-8a30-4d23cbcc2fc1" d="m264.41,484.14c-4.06.49-11.49,1.36-17.85,7.23"/><path class="uuid-3f9ec564-8708-4e75-9244-a1a973efafea" d="m185.17,308.14c-4.41,0-7.98-3.57-7.98-7.98,0-67.74,55.11-122.86,122.86-122.86,4.41,0,7.98,3.57,7.98,7.98s-3.57,7.98-7.98,7.98c-58.94,0-106.9,47.95-106.9,106.9,0,4.41-3.57,7.98-7.98,7.98Z"/><path d="m203.75,397.46l34.2-27.46-24.86,36.3c-6.73-5.1-3.66-2.61-9.34-8.83Z"/><path class="uuid-0fbafe0f-c1a7-4154-b2d4-f3b317584526" d="m323.72,387.31c19.14-13.4,39.15-11.3,55.52,7.36,19.6,22.35,30.57,33.06,30.57,33.06,0,0,10.74-19.34,34.77-17.5,18.26,1.4,24.84,14.43,24.84,14.43,0,0,6.21,8.82-22.45,33.5-28.66,24.68-54.93,40.92-61.14,29.46-6.21-11.46-2.82-32.1-2.82-32.1,0,0-22.02-26.09-27.94-32.01-6.79-6.79-15.71-1.36-15.71-1.36"/><path class="uuid-f4a0fca1-efe7-48bf-8a76-ffe42a36dabc" d="m446.97,458.17c-25.89,22.29-49.82,37.69-58.79,32.02-9.77-7.44,26.84-38.54,44.88-52.7,18.04-14.16,32.17-17.82,36.36-12.81,0,0,6.21,8.82-22.45,33.5Z"/><path class="uuid-c46f19fa-5207-4ebd-8a30-4d23cbcc2fc1" d="m409.81,427.74c-1.89,2.86-4.55,10.38-4.55,10.38"/><g><path class="uuid-e88451e4-f64f-4221-9af8-5fb1c0132909" d="m214.11,345.7c-8.05,5.83-25.34,20.79-35.52,29.67-1.67,1.45-2.82,3.41-3.39,5.55-3.14,11.67-8.55,33.44-8.55,33.44,0,0-8.42.58-12.19,14.35-3.64,13.3-6.64,25.06,3.77,29.75.35,7.47,7.51,15.45,19.2,9.41.14-.06,1.32,1.32,1.44,1.45,2.64,2.7,6.36,4.45,10.13,4.81,3.65.36,7.61-.67,10.43-3.08,3.29-2.81,5.4-6.94,6.05-11.2.4-2.61.26-5.31-.75-7.78,0,0,6.2-2.51,8.05-11.34,1.99-9.49-4.22-19.42-14.62-18.18l6.17-23.11c.51-2.2,1.74-4.16,3.49-5.59l29.38-24.3"/><path class="uuid-c46f19fa-5207-4ebd-8a30-4d23cbcc2fc1" d="m204.73,452.06c-1.37-3.47-5.39-7.08-9-6.88"/><path class="uuid-c46f19fa-5207-4ebd-8a30-4d23cbcc2fc1" d="m178.86,469.3c-5.16-5.27-3.82-11.97-2.9-13.54"/><path class="uuid-c46f19fa-5207-4ebd-8a30-4d23cbcc2fc1" d="m158.22,458.45c-.27-5.22.73-7.32,3.06-9.83"/><path class="uuid-c46f19fa-5207-4ebd-8a30-4d23cbcc2fc1" d="m193.93,450.63c.14-2.07.48-4.16,1.32-6.06.85-1.95,2.36-3.88,4.31-4.85"/></g></svg>
<svg id="uuid-853b1779-0b40-4336-9fd3-56860412922a" data-name="BODY" xmlns="http://www.w3.org/2000/svg" viewBox="0 0 600 600"><defs><style>
      .uuid-270fe1d8-6ffc-45cd-908c-63708945a6da {
        fill: none;
        stroke: #000;
        stroke-linecap: round;
        stroke-miterlimit: 10;
        stroke-width: 4px;
      }
    </style></defs><path class="uuid-270fe1d8-6ffc-45cd-908c-63708945a6da" d="m378.79,259.75c-1.76-5.11-7.33-7.82-12.44-6.06s-7.82,7.33-6.06,12.44"/><circle cx="362.12" cy="293.18" r="9.78" transform="translate(-9.59 12.26) rotate(-1.91)"/><path class="uuid-270fe1d8-6ffc-45cd-908c-63708945a6da" d="m346.88,270.76c-1.76-5.11-7.33-7.82-12.44-6.06-5.11,1.76-7.82,7.33-6.06,12.44"/></svg>
<svg id="uuid-c5dddc68-6ada-4116-b645-d03ebc480c27" data-name="BODY" xmlns="http://www.w3.org/2000/svg" xmlns:xlink="http://www.w3.org/1999/xlink" viewBox="0 0 600 600"><defs><style>
      .uuid-2567def0-8698-4265-9746-d0bc6967be93, .uuid-0562be6e-ffb4-47be-9bb1-48a29995208a, .uuid-80e162d4-8829-4ebf-85b2-a8fe674d77f3, .uuid-4db2b783-a1a5-4d26-ac75-2744874e22af {
        fill: none;
      }

      .uuid-712c89ac-99fe-40ee-8eee-f5af0112c987, .uuid-7a510ee3-bdcb-4485-b3e0-7e4f4341de5d {
        fill: #ffff0d;
      }

      .uuid-72fac4dd-26f1-4077-b6b6-7c4003149463 {
        fill: #ff78d8;
      }

      .uuid-72fac4dd-26f1-4077-b6b6-7c4003149463, .uuid-7a510ee3-bdcb-4485-b3e0-7e4f4341de5d, .uuid-a1fed1fc-4fc0-4285-843b-ea2281428dd2, .uuid-80fbf365-2f03-4e31-9a7d-a58cbc68ba7c, .uuid-aa64e389-c72b-4038-9104-9878c2d0f048, .uuid-d6627eaf-33b8-4d81-ab57-85345f61b522, .uuid-0562be6e-ffb4-47be-9bb1-48a29995208a {
        stroke: #000;
        stroke-linecap: round;
        stroke-linejoin: round;
      }

      .uuid-72fac4dd-26f1-4077-b6b6-7c4003149463, .uuid-7a510ee3-bdcb-4485-b3e0-7e4f4341de5d, .uuid-aa64e389-c72b-4038-9104-9878c2d0f048, .uuid-d6627eaf-33b8-4d81-ab57-85345f61b522, .uuid-0562be6e-ffb4-47be-9bb1-48a29995208a {
        stroke-width: 2px;
      }

      .uuid-a1fed1fc-4fc0-4285-843b-ea2281428dd2 {
        stroke-width: 2px;
      }

      .uuid-a1fed1fc-4fc0-4285-843b-ea2281428dd2, .uuid-80fbf365-2f03-4e31-9a7d-a58cbc68ba7c, .uuid-aa64e389-c72b-4038-9104-9878c2d0f048 {
        fill: #fff;
      }

      .uuid-80fbf365-2f03-4e31-9a7d-a58cbc68ba7c {
        stroke-width: 2px;
      }

      .uuid-d6627eaf-33b8-4d81-ab57-85345f61b522 {
        fill: #00dfa9;
      }

      .uuid-80e162d4-8829-4ebf-85b2-a8fe674d77f3 {
        clip-path: url(#uuid-df096713-fdda-48f8-9c1c-a9406374f0cc);
      }

      .uuid-4db2b783-a1a5-4d26-ac75-2744874e22af {
        clip-path: url(#uuid-3e2076b4-c9c1-4dc8-b8fd-37a273dcbc37);
      }
    </style><clipPath id="uuid-df096713-fdda-48f8-9c1c-a9406374f0cc"><path class="uuid-2567def0-8698-4265-9746-d0bc6967be93" d="m363.4,432.9s-8.1-9.4-9.8-10.6c-1.7-1.2-3.6-1.8-3.6-1.8,0,0-2.8-25.8,25.2-30.1l14.1,15.5s-2.9,7.2-9.7,16.6c-6.8,9.4-16.1,10.3-16.1,10.3l-.1.1Z"/></clipPath><clipPath id="uuid-3e2076b4-c9c1-4dc8-b8fd-37a273dcbc37"><path class="uuid-2567def0-8698-4265-9746-d0bc6967be93" d="m270.8,477.5l15.9-16.5s-9.6-1.4-17.3-7.7c-7.7-6.4-9.9-13.5-9.9-13.5l-15.5,16.5s-3,8.3,9,17.9c8.7,6.9,17.8,3.3,17.8,3.3h0Z"/></clipPath></defs><g id="uuid-1bc504d8-c3de-4e3f-9ed5-9b0bd381f76d" data-name="uuid-d19fd1aa-f160-4434-8ee1-8fc783292307"><g id="uuid-515fa590-8391-4f06-b616-e4dcfd3f254d" data-name="uuid-a613e983-7e29-4acc-9c52-7addab05ae69"><g><g><g><path class="uuid-712c89ac-99fe-40ee-8eee-f5af0112c987" d="m363.4,432.9s-8.1-9.4-9.8-10.6c-1.7-1.2-3.6-1.8-3.6-1.8,0,0-2.8-25.8,25.2-30.1l14.1,15.5s-2.9,7.2-9.7,16.6c-6.8,9.4-16.1,10.3-16.1,10.3l-.1.1Z"/><g class="uuid-80e162d4-8829-4ebf-85b2-a8fe674d77f3"><g><path class="uuid-d6627eaf-33b8-4d81-ab57-85345f61b522" d="m387.9,399.3c-19.7,4-26.8,19.8-29.1,31.4l6.4,6.9,24.7-9.9,4.9-27.2-6.9-1.2h0Z"/><path class="uuid-72fac4dd-26f1-4077-b6b6-7c4003149463" d="m381.8,393.8s-12,1-20.2,11.5-7.6,22.4-7.6,22.4l-8.8-5.6s-2.9-15.3,7.5-25c10.4-9.7,22.6-12.3,22.6-12.3l6.6,9h-.1Z"/></g></g><path class="uuid-0562be6e-ffb4-47be-9bb1-48a29995208a" d="m363.4,432.9s-8.1-9.4-9.8-10.6c-1.7-1.2-3.6-1.8-3.6-1.8,0,0-2.8-25.8,25.2-30.1l14.1,15.5s-2.9,7.2-9.7,16.6c-6.8,9.4-16.1,10.3-16.1,10.3l-.1.1Z"/></g><g><path class="uuid-aa64e389-c72b-4038-9104-9878c2d0f048" d="m383.1,481.9s-8.5-6.2-2.5-24.9l-17.6-18.8s-1.3-10.6,10.9-22.7c12.2-12.1,21.4-10.5,21.4-10.5l14.1,16.4s9.7-11.6,26.6-14.3c16.9-2.6,29.9,9.7,29.9,9.7,0,0-22.6,5.1-49,28.9-26.4,23.8-33.8,36.3-33.8,36.3v-.1Z"/><path class="uuid-0562be6e-ffb4-47be-9bb1-48a29995208a" d="m409.4,421.3c-4.8,5.4-7.6,15.2-7.6,15.2"/></g><g><g><path class="uuid-72fac4dd-26f1-4077-b6b6-7c4003149463" d="m468.1,415.9c-2.2-1.1-22.3,0-54.1,28.2-31.8,28.2-34.5,37.1-33.9,41.6.5,3.5,3.2,9.5,12.8,9.6,9.6.1,27.3-9.6,50.2-28.8,31.1-26,31.2-37.4,31.1-41.1s-2.9-7.9-6.1-9.6v.1Z"/><path class="uuid-72fac4dd-26f1-4077-b6b6-7c4003149463" d="m466.2,426.1c-7.4-6.6-85.3,55.5-74.3,61.3,11.1,5.7,82.6-53.8,74.3-61.3Z"/></g><g><g><g><path class="uuid-7a510ee3-bdcb-4485-b3e0-7e4f4341de5d" d="m395.3,500.2c3,3.6,8.3,4.1,11.9,1.1,3.6-3,4.1-8.3,1.1-11.9l-3.9-4.7-2,1.7c-2.1-.1-4.2.5-6,1.9-1.8,1.4-2.7,3.4-3,5.5l-2,1.7,3.9,4.7h0Z"/><circle class="uuid-7a510ee3-bdcb-4485-b3e0-7e4f4341de5d" cx="397.8" cy="490.1" r="8.4"/></g><g><path class="uuid-7a510ee3-bdcb-4485-b3e0-7e4f4341de5d" d="m412.5,485.8c3,3.6,8.3,4.1,11.9,1.1,3.6-3,4.1-8.3,1.1-11.9l-3.9-4.7-2,1.7c-2.1-.1-4.2.5-6,1.9-1.7,1.4-2.7,3.4-3,5.5l-2,1.7,3.9,4.7h0Z"/><circle class="uuid-7a510ee3-bdcb-4485-b3e0-7e4f4341de5d" cx="415.1" cy="475.7" r="8.4"/></g><g><path class="uuid-7a510ee3-bdcb-4485-b3e0-7e4f4341de5d" d="m429.8,471.4c3,3.6,8.3,4.1,11.9,1.1,3.6-3,4.1-8.3,1.1-11.9l-3.9-4.7-2,1.7c-2.1-.1-4.2.5-6,1.9-1.7,1.4-2.7,3.4-3,5.5l-2,1.7,3.9,4.7h0Z"/><circle class="uuid-7a510ee3-bdcb-4485-b3e0-7e4f4341de5d" cx="432.4" cy="461.3" r="8.4"/></g><g><path class="uuid-7a510ee3-bdcb-4485-b3e0-7e4f4341de5d" d="m447.1,457c3,3.6,8.3,4.1,11.9,1.1,3.6-3,4.1-8.3,1.1-11.9l-3.9-4.7-2,1.7c-2.1-.1-4.2.5-6,1.9-1.7,1.4-2.7,3.4-3,5.5l-2,1.7,3.9,4.7h0Z"/><circle class="uuid-7a510ee3-bdcb-4485-b3e0-7e4f4341de5d" cx="449.7" cy="446.9" r="8.4"/></g><g><path class="uuid-7a510ee3-bdcb-4485-b3e0-7e4f4341de5d" d="m464.4,442.6c3,3.6,8.3,4.1,11.9,1.1,3.6-3,4.1-8.3,1.1-11.9l-3.9-4.7-2,1.7c-2.1-.1-4.2.5-6,1.9-1.7,1.4-2.7,3.4-3,5.5l-2,1.7,3.9,4.7h0Z"/><circle class="uuid-7a510ee3-bdcb-4485-b3e0-7e4f4341de5d" cx="466.9" cy="432.5" r="8.4"/></g></g><g><path class="uuid-80fbf365-2f03-4e31-9a7d-a58cbc68ba7c" d="m394.62,469.33l.46-.38c1.08-.9,2.62-.76,3.52.32l11.84,14.21-4.3,3.58-11.84-14.21c-.9-1.08-.76-2.62.32-3.52Z"/><path class="uuid-80fbf365-2f03-4e31-9a7d-a58cbc68ba7c" d="m427.64,438.72l.46-.38c1.08-.9,2.62-.76,3.52.32l13.38,16.06-4.3,3.58-13.38-16.06c-.9-1.08-.76-2.62.32-3.52Z"/><path class="uuid-80fbf365-2f03-4e31-9a7d-a58cbc68ba7c" d="m446.47,426.08l.46-.38c1.08-.9,2.62-.76,3.52.32l11.84,14.21-4.3,3.58-11.84-14.21c-.9-1.08-.76-2.62.32-3.52Z"/><rect class="uuid-80fbf365-2f03-4e31-9a7d-a58cbc68ba7c" x="391.83" y="480.16" width="29.4" height="5.6" rx="2.5" ry="2.5" transform="translate(-214.95 372.13) rotate(-39.8)"/><rect class="uuid-80fbf365-2f03-4e31-9a7d-a58cbc68ba7c" x="424.05" y="444.26" width="51.3" height="5.6" rx="2.5" ry="2.5" transform="translate(-181.96 391.45) rotate(-39.8)"/></g></g></g></g><g><g><g><g><path class="uuid-7a510ee3-bdcb-4485-b3e0-7e4f4341de5d" d="m209.9,505.8c3.3-3.3,3.3-8.6,0-11.9s-8.6-3.3-11.9,0l-4.3,4.3,1.9,1.9c0,2.1.9,4.2,2.5,5.8,1.6,1.6,3.7,2.4,5.8,2.5l1.9,1.9,4.3-4.3-.2-.2Z"/><circle class="uuid-7a510ee3-bdcb-4485-b3e0-7e4f4341de5d" cx="199.7" cy="504.1" r="8.4"/></g><g><path class="uuid-7a510ee3-bdcb-4485-b3e0-7e4f4341de5d" d="m226.9,522.5c3.3-3.3,3.3-8.6,0-11.9-3.3-3.3-8.6-3.3-11.9,0l-4.3,4.3,1.9,1.9c0,2.1.9,4.2,2.5,5.8,1.6,1.6,3.7,2.4,5.8,2.5l1.9,1.9,4.3-4.3-.2-.2Z"/><circle class="uuid-7a510ee3-bdcb-4485-b3e0-7e4f4341de5d" cx="216.6" cy="520.8" r="8.4"/></g></g><path class="uuid-72fac4dd-26f1-4077-b6b6-7c4003149463" d="m211.4,475.2l25.7,33.5c.9,1.1,2.2,1.8,3.6,1.8h64.4c2.3,0,4.1,1.8,4.1,4.1v4.6c0,2.3-1.8,4.1-4.1,4.1h-68c-3,0-5.8-1.4-7.6-3.8l-27-35.4c-.9-1.2-.9-2.9,0-4.1l3.5-4.7c1.3-1.8,4-1.8,5.4,0v-.1Z"/><g><path class="uuid-a1fed1fc-4fc0-4285-843b-ea2281428dd2" d="m220.8,499.6l.41.43c.97,1.01.93,2.57-.09,3.53l-13.4,12.76-3.86-4.06,13.4-12.76c1.01-.97,2.57-.93,3.53.09Z"/><rect class="uuid-a1fed1fc-4fc0-4285-843b-ea2281428dd2" x="205.14" y="497.66" width="5.6" height="29.4" rx="2.5" ry="2.5" transform="translate(-295.98 284.73) rotate(-43.6)"/></g><g><g><path class="uuid-7a510ee3-bdcb-4485-b3e0-7e4f4341de5d" d="m255.9,537.7c3.3-3.3,3.3-8.6,0-11.9-3.3-3.3-8.6-3.3-11.9,0l-4.3,4.3,1.9,1.9c0,2.1.9,4.2,2.5,5.8,1.6,1.6,3.7,2.4,5.8,2.5l1.9,1.9,4.3-4.3-.2-.2Z"/><circle class="uuid-7a510ee3-bdcb-4485-b3e0-7e4f4341de5d" cx="245.6" cy="536" r="8.4"/></g><g><path class="uuid-7a510ee3-bdcb-4485-b3e0-7e4f4341de5d" d="m279.5,537.7c3.3-3.3,3.3-8.6,0-11.9-3.3-3.3-8.6-3.3-11.9,0l-4.3,4.3,1.9,1.9c0,2.1.9,4.2,2.5,5.8s3.7,2.4,5.8,2.5l1.9,1.9,4.3-4.3-.2-.2Z"/><circle class="uuid-7a510ee3-bdcb-4485-b3e0-7e4f4341de5d" cx="269.2" cy="536" r="8.4"/></g><g><path class="uuid-7a510ee3-bdcb-4485-b3e0-7e4f4341de5d" d="m303,537.7c3.3-3.3,3.3-8.6,0-11.9-3.3-3.3-8.6-3.3-11.9,0l-4.3,4.3,1.9,1.9c0,2.1.9,4.2,2.5,5.8s3.7,2.4,5.8,2.5l1.9,1.9,4.3-4.3-.2-.2Z"/><circle class="uuid-7a510ee3-bdcb-4485-b3e0-7e4f4341de5d" cx="292.8" cy="536" r="8.4"/></g></g><g><path class="uuid-aa64e389-c72b-4038-9104-9878c2d0f048" d="m257.6,517.8h.6c1.4,0,2.5,1.1,2.5,2.5v18.5h-5.6v-18.5c0-1.4,1.1-2.5,2.5-2.5Z"/><path class="uuid-aa64e389-c72b-4038-9104-9878c2d0f048" d="m280.1,517.8h.6c1.4,0,2.5,1.1,2.5,2.5v18.5h-5.6v-18.5c0-1.4,1.1-2.5,2.5-2.5Z"/><rect class="uuid-aa64e389-c72b-4038-9104-9878c2d0f048" x="243.6" y="533.1" width="51.3" height="5.6" rx="2.5" ry="2.5"/></g></g><g><path class="uuid-712c89ac-99fe-40ee-8eee-f5af0112c987" d="m270.8,477.5l15.9-16.5s-9.6-1.4-17.3-7.7c-7.7-6.4-9.9-13.5-9.9-13.5l-15.5,16.5s-3,8.3,9,17.9c8.7,6.9,17.8,3.3,17.8,3.3h0Z"/><g class="uuid-4db2b783-a1a5-4d26-ac75-2744874e22af"><g><path class="uuid-72fac4dd-26f1-4077-b6b6-7c4003149463" d="m251.9,441.6s2.3,9.8,13.2,18.3c10.6,8.3,20.8,8.3,20.8,8.3l10.6-11.2-37-24.9-7.7,9.5h.1Z"/><path class="uuid-d6627eaf-33b8-4d81-ab57-85345f61b522" d="m238.9,458.4l9.3-9.3s3.7,10.6,11,16.3c6.7,5.3,17.7,8.6,17.7,8.6l-8.5,9.8-29.4-25.3-.1-.1Z"/></g></g><path class="uuid-0562be6e-ffb4-47be-9bb1-48a29995208a" d="m270.8,477.5l15.9-16.5s-9.6-1.4-17.3-7.7c-7.7-6.4-9.9-13.5-9.9-13.5l-15.5,16.5s-3,8.3,9,17.9c8.7,6.9,17.8,3.3,17.8,3.3h0Z"/></g><g><path class="uuid-aa64e389-c72b-4038-9104-9878c2d0f048" d="m305.5,513.5h-68.3l-28.5-37.4s5.9-8.1,18.8-6.7l14.2-15.9c1-1.1,2.4-1.7,3.9-1.7h2.5c0,.1-4.1,4.4-4.1,4.4,0,0,4.3,19.6,26.8,21.2l3.3-3.4.6,1.8c.4,1.2.1,2.6-.8,3.6l-1.7,1.7s33.4,1.9,33.4,32.4h-.1Z"/><path class="uuid-0562be6e-ffb4-47be-9bb1-48a29995208a" d="m272.1,481.2c-8.1-.6-20,1.7-26.6,7.7"/></g></g></g></g></g></svg>
<svg id="uuid-1b08aac9-9e08-4756-8d9e-8a9f6603c534" data-name="BODY" xmlns="http://www.w3.org/2000/svg" viewBox="0 0 600 600"><defs><style>
      .uuid-ac87fed6-fa30-4749-a240-d8828610f74f {
        fill: #00dfa9;
      }

      .uuid-1ff638b6-d0d1-4217-9825-a9422071689c {
        fill: #fff;
      }

      .uuid-872febec-4330-4ab2-a86b-49734363ee8d {
        fill: #ffff0d;
      }

      .uuid-8397099a-fe48-40cd-8fdd-5b593e433b66 {
        fill: #ff78d8;
      }

      .uuid-778e30d1-bd04-42f1-a7e6-ba8a3704772a {
        stroke-linecap: round;
        stroke-linejoin: round;
      }

      .uuid-778e30d1-bd04-42f1-a7e6-ba8a3704772a, .uuid-f1cf2760-0093-43d9-874f-71ff5def6357 {
        fill: none;
        stroke: #000;
        stroke-width: 2px;
      }

      .uuid-f1cf2760-0093-43d9-874f-71ff5def6357 {
        stroke-miterlimit: 10;
      }
    </style></defs><g id="uuid-798ab33b-e031-4a28-9cf1-199bb8f2066a" data-name="uuid-0591a78b-92e4-47f5-82f5-87bb82cff089"><g id="uuid-b84e47fe-6a5b-4076-8558-b05772d8acd0" data-name="uuid-ef3ece4f-8150-4652-82a9-55a11f34e840"><g id="uuid-a524eb37-ac85-42fb-8897-0cae06d4e47d" data-name="uuid-4dd11de8-2cdc-4aed-ae75-b123e92e7551"><path class="uuid-1ff638b6-d0d1-4217-9825-a9422071689c" d="m494.67,329.83s.94,43.86,1.14,58.12c.2,14.26,29.12,10.42,36.3,6.37l-2.02-5.06s9.99-3.71,6.94-13.13c-.08-.25-.17-.5-.27-.75-3.84-9.98-4.9-12.61-4.9-12.61,0,0-3.84,1.47-11.22.4-9.2-1.32-16.03-11.07-4.5-18.49,0,0-4.74-2.49-4.59-7.3.15-4.81,2.82-7.47,2.82-7.47,0,0-3.95-.82-6.08-2.91,0,0-4.96,6.88-13.61,2.82h-.01Z"/><path class="uuid-1ff638b6-d0d1-4217-9825-a9422071689c" d="m489.51,311.27l-14.63-29.66s1.69-13.55,17.93-16.79c16.25-3.24,24.61,9.03,24.61,9.03l-.57,34.87s-5.76,2.22-9.1,7.08c0,0-7.3-8.36-18.24-4.53h0Z"/></g><g id="uuid-1284ab39-adff-4632-966d-92d334e68346" data-name="uuid-8b80c383-2de1-459e-b0cd-74fd20d90043"><path class="uuid-ac87fed6-fa30-4749-a240-d8828610f74f" d="m476.28,284.44s.82-8.1,7.7-8.77c6.88-.67,7.96,7.15,6,14.09-1.96,6.94-6.42,9.17-6.42,9.17l-7.28-14.49h0Z"/><path class="uuid-872febec-4330-4ab2-a86b-49734363ee8d" d="m493.89,267.16c-4.85.86-3.59,7.53,1.37,6.88,4.96-.66,3.49-7.74-1.37-6.88Z"/><path class="uuid-8397099a-fe48-40cd-8fdd-5b593e433b66" d="m517.34,278.53c-2.27-6.98-12.33-9.33-14.96-2.91-2.56,6.26,2.94,14.76,8.85,16.1,3.99.91,5.9-.51,5.9-.51l.21-12.69h0Z"/><path class="uuid-872febec-4330-4ab2-a86b-49734363ee8d" d="m507.49,296.02s-4.55-3.43-8.24.52c-3.69,3.94,1.62,12.36,9.84,11.58,6.04-.57,3.17-8.48-.82-9.15l-.77-2.95h-.01Z"/><path class="uuid-8397099a-fe48-40cd-8fdd-5b593e433b66" d="m495.02,346.73c9.79-.47,12.65,12.77.37,18.05l-.37-18.05Z"/><path class="uuid-8397099a-fe48-40cd-8fdd-5b593e433b66" d="m514.15,371.23c.22,10.55,13.47,9.54,13.74-1.01,0,0-9.31-1.15-13.74,1.01Z"/><path class="uuid-ac87fed6-fa30-4749-a240-d8828610f74f" d="m506.86,373.81c.93,7.57-3.84,17.2-8.84,8.82,3.5-6.31,8.84-8.82,8.84-8.82Z"/><path class="uuid-872febec-4330-4ab2-a86b-49734363ee8d" d="m512.79,389.84c.82-8.86,13.61-8.68,15.38,0,0,0-1.52,1.56-7.43,1.53-5.91-.03-7.95-1.53-7.95-1.53Z"/><path class="uuid-8397099a-fe48-40cd-8fdd-5b593e433b66" d="m517.55,397.84c-2.43-7.41-14.01-7.71-15.85-1.75,7.71,3.39,15.85,1.75,15.85,1.75Z"/><path class="uuid-872febec-4330-4ab2-a86b-49734363ee8d" d="m510.37,356.1c-8.49,2.16-5.54,12.11,1.31,11.33,5.02-.57,5.51-5.17,5.51-5.17,0,0-2.14-.83-4.19-2.24s-2.63-3.91-2.63-3.91h0Z"/><path class="uuid-ac87fed6-fa30-4749-a240-d8828610f74f" d="m525.84,363.71c1.18,4.82,7.79,3.58,7.79,3.58l-1.78-4.52-6.02.94h.01Z"/><path class="uuid-ac87fed6-fa30-4749-a240-d8828610f74f" d="m514.28,343.96c-4.75,2.7-10.35.66-11.36-5.67l3.64-2.86,5.19-.57s-.74,1.38.2,4.99c.94,3.61,2.33,4.11,2.33,4.11h0Z"/></g><g><path class="uuid-778e30d1-bd04-42f1-a7e6-ba8a3704772a" d="m494.67,329.83s.94,43.86,1.14,58.12c.2,14.26,29.12,10.42,36.3,6.37l-2.02-5.06s9.99-3.71,6.94-13.13c-.08-.25-.17-.5-.27-.75-3.84-9.98-4.9-12.61-4.9-12.61,0,0-3.84,1.47-11.22.4-9.2-1.32-16.03-11.07-4.5-18.49,0,0-4.74-2.49-4.59-7.3.15-4.81,2.82-7.47,2.82-7.47,0,0-3.95-.82-6.08-2.91,0,0-4.96,6.88-13.61,2.82h-.01Z"/><path class="uuid-778e30d1-bd04-42f1-a7e6-ba8a3704772a" d="m489.51,311.27l-14.63-29.66s1.69-13.55,17.93-16.79c16.25-3.24,24.61,9.03,24.61,9.03l-.57,34.87s-5.76,2.22-9.1,7.08c0,0-7.3-8.36-18.24-4.53h0Z"/></g><line class="uuid-778e30d1-bd04-42f1-a7e6-ba8a3704772a" x1="505.55" y1="281.33" x2="509.78" y2="313.39"/><line class="uuid-778e30d1-bd04-42f1-a7e6-ba8a3704772a" x1="491.33" y1="297.65" x2="499.99" y2="310.99"/><path class="uuid-f1cf2760-0093-43d9-874f-71ff5def6357" d="m530.09,389.27c-6.34,3.1-16.38,3.03-20.76-1.96l-.5-14.52"/><path class="uuid-f1cf2760-0093-43d9-874f-71ff5def6357" d="m536.88,375.69c-1.68-4.38-8.61-7.31-21.96-4.83-13.35,2.48-19.23,13.86-18.98,18.52"/><polygon points="494.45 338 504.61 338.27 511.55 336.98 512.39 333.19 514.36 329.92 508.28 327.01 504.2 329.93 499.86 330.82 495.02 330.36 494.45 338"/></g></g></svg>
<svg id="uuid-0de5f23b-a9c3-41d0-a07b-55d620b71dd1" data-name="BODY" xmlns="http://www.w3.org/2000/svg" viewBox="0 0 600 600"><defs><style>
      .uuid-98a7d5c3-cae7-43d0-a8db-2d531b27fa52 {
        fill: #7aa6ff;
      }

      .uuid-98a7d5c3-cae7-43d0-a8db-2d531b27fa52, .uuid-16744c03-097f-478e-a59a-7cffde4095eb {
        stroke: #000;
        stroke-linecap: round;
        stroke-linejoin: round;
        stroke-width: 2px;
      }

      .uuid-16744c03-097f-478e-a59a-7cffde4095eb {
        fill: #3ef1ff;
      }
    </style></defs><path class="uuid-98a7d5c3-cae7-43d0-a8db-2d531b27fa52" d="m215.33,190.99c22.77-16.43,79.18-20.03,109.99,21.2l-17.23-95.42s-96.74,13.25-113.97,94.09c6.35-8.67,21.2-19.88,21.2-19.88Z"/><polygon class="uuid-16744c03-097f-478e-a59a-7cffde4095eb" points="325.33 212.19 365.08 206.89 358.46 111.48 308.1 116.78 325.33 212.19"/></svg>
</svg>