<?xml version="1.0" encoding="UTF-8"?>
<svg xmlns="http://www.w3.org/2000/svg" viewBox="0 0 600 600">
<svg id="uuid-b5df70f2-f26b-4cc4-9992-c02ca3e1ffe7" data-name="BACKGROUND" xmlns="http://www.w3.org/2000/svg" viewBox="0 0 600 600"><defs><style>
      .uuid-b49e1da8-89ab-4517-8063-4eac3fbcc068 {
        fill: #3ef1ff;
      }
    </style></defs><rect class="uuid-b49e1da8-89ab-4517-8063-4eac3fbcc068" x="-1" y="-1" width="602" height="602"/></svg>
<svg id="uuid-09dbe01b-fc39-4c48-9143-1b11829ee622" data-name="BODY" xmlns="http://www.w3.org/2000/svg" viewBox="0 0 600 600"><defs><style>
      .uuid-0e068f93-a4ce-4525-bc73-042279753465, .uuid-896c9f2e-4bdd-438c-b20a-d49b9a988943, .uuid-f61e2b2e-680e-4412-a25d-9c4f1d374aaa, .uuid-9d2bc652-0f8d-4f45-83f6-147ae07b83ac, .uuid-a8310226-7f3d-4492-965e-668c558de2ee {
        stroke: #000;
        stroke-width: 2px;
      }

      .uuid-0e068f93-a4ce-4525-bc73-042279753465, .uuid-896c9f2e-4bdd-438c-b20a-d49b9a988943, .uuid-9d2bc652-0f8d-4f45-83f6-147ae07b83ac, .uuid-a8310226-7f3d-4492-965e-668c558de2ee {
        fill: #7aa6ff;
      }

      .uuid-0e068f93-a4ce-4525-bc73-042279753465, .uuid-f61e2b2e-680e-4412-a25d-9c4f1d374aaa, .uuid-9d2bc652-0f8d-4f45-83f6-147ae07b83ac {
        stroke-linecap: round;
      }

      .uuid-0e068f93-a4ce-4525-bc73-042279753465, .uuid-f61e2b2e-680e-4412-a25d-9c4f1d374aaa, .uuid-a8310226-7f3d-4492-965e-668c558de2ee {
        stroke-linejoin: round;
      }

      .uuid-4e485c41-11e0-491a-aac2-66b77ba2e3f7 {
        fill: #fff;
      }

      .uuid-896c9f2e-4bdd-438c-b20a-d49b9a988943, .uuid-9d2bc652-0f8d-4f45-83f6-147ae07b83ac {
        stroke-miterlimit: 10;
      }

      .uuid-f61e2b2e-680e-4412-a25d-9c4f1d374aaa {
        fill: none;
      }
    </style></defs><ellipse cx="300" cy="518.65" rx="138.6" ry="22.93"/><g><path class="uuid-896c9f2e-4bdd-438c-b20a-d49b9a988943" d="m319.36,427.14c-1.16,1.05-54.95,57-54.95,57,0,0,21.51-1.95,31.74,10.62,10.23,12.57,7.26,23.89,7.26,23.89h-66.9s-28.69-36.17-28.69-36.17c0,0,3.74-13.4,20.44-10.59,20.9-19.38,55.52-59.13,55.52-59.13l35.59,14.38Z"/><path d="m283.78,412.76l31.28,12.64-3.24,9.5c-2.93,3.03-9.76,10.12-13.64,14.14-11.92,0-27.98-2.13-41.33-6.37,13.95-15.1,26.93-29.92,26.93-29.92Z"/></g><g><path class="uuid-0e068f93-a4ce-4525-bc73-042279753465" d="m409.81,359.6c9.2,3.77,29.89,12.05,42.79,16.03,2.11.65,4.41.69,6.5-.04,11.79-4.08,28.47-11.39,33.03-11.32,5.25.08,7.8,3.93,19.88,2.04,13.36-2.1,22.43-11.99,20.93-23.3-4.21-43.28-25.18-26.79-25.18-26.79,0,0-5.84-8.75-18.76-4.82-11.83,3.6-10.2,14.44-6.47,22.47l-25.29,8.58c-2.14.72-4.45.71-6.59-.02l-35.7-12.61"/><path class="uuid-9d2bc652-0f8d-4f45-83f6-147ae07b83ac" d="m533.36,312.82c2.5,3.94,1.62,9.14-1.57,12.4-2.47,2.53-5.88,3.88-9.32,4.4-2.8.43-5.7.42-8.49-.08-2.14-.39-4.29-1.1-5.79-2.75-1.66-1.83-2.27-4.46-1.98-6.87.51-4.17,3.84-7.14,7.22-9.26,3.17-1.98,6.86-3.26,10.64-3.09,3.8.18,7.36,2.19,9.3,5.24Z"/><path class="uuid-9d2bc652-0f8d-4f45-83f6-147ae07b83ac" d="m538.57,349.84c.97,3.03.32,6.43-1.5,9.01-3.77,5.33-11.17,5.65-16.96,4.27-3.31-.79-6.69-2.21-8.67-5.13-3.13-4.61-.82-9.79,3.48-12.56,2.58-1.66,5.61-2.67,8.63-3.14,5.73-.89,13.1,1.51,15.03,7.56Z"/><path class="uuid-9d2bc652-0f8d-4f45-83f6-147ae07b83ac" d="m538.71,328.53c1.8,2.99,2.06,6.89.22,9.9-1.95,3.2-4.94,5.25-8.49,6.28-3.66,1.07-7.64,1.27-11.4.44-2.25-.5-4.53-1.38-5.96-3.28-1.86-2.47-1.89-5.68-.85-8.49,1.2-3.24,4.17-5.69,7.09-7.37,6.15-3.56,15.21-4.43,19.39,2.52Z"/><path class="uuid-9d2bc652-0f8d-4f45-83f6-147ae07b83ac" d="m501.85,311.68s9.27,3.84,7.77,12.02c-1.04,5.68-8.17,9.55-14.94,6.13"/><path class="uuid-f61e2b2e-680e-4412-a25d-9c4f1d374aaa" d="m500.67,331.08c2.41,1.63,5.11,8.04,3.4,14.42"/><path d="m443.44,339.88c-2.88,10.58-6.94,20.23-11.17,28.59-10.17-3.78-21.16-9.53-27-11.93l11.83-26.02,26.35,9.36Z"/></g><g><circle class="uuid-896c9f2e-4bdd-438c-b20a-d49b9a988943" cx="300" cy="300" r="138.16"/><path class="uuid-4e485c41-11e0-491a-aac2-66b77ba2e3f7" d="m184.58,308.17c-4.41,0-7.98-3.57-7.98-7.98,0-67.74,55.11-122.86,122.86-122.86,4.41,0,7.98,3.57,7.98,7.98s-3.57,7.98-7.98,7.98c-58.94,0-106.9,47.95-106.9,106.9,0,4.41-3.57,7.98-7.98,7.98Z"/></g><path class="uuid-f61e2b2e-680e-4412-a25d-9c4f1d374aaa" d="m264.41,484.14c-4.06.49-11.49,1.36-17.85,7.23"/><path class="uuid-4e485c41-11e0-491a-aac2-66b77ba2e3f7" d="m185.17,308.14c-4.41,0-7.98-3.57-7.98-7.98,0-67.74,55.11-122.86,122.86-122.86,4.41,0,7.98,3.57,7.98,7.98s-3.57,7.98-7.98,7.98c-58.94,0-106.9,47.95-106.9,106.9,0,4.41-3.57,7.98-7.98,7.98Z"/><path d="m203.75,397.46l34.2-27.46-24.86,36.3c-6.73-5.1-3.66-2.61-9.34-8.83Z"/><path class="uuid-a8310226-7f3d-4492-965e-668c558de2ee" d="m323.72,387.31c19.14-13.4,39.15-11.3,55.52,7.36,19.6,22.35,30.57,33.06,30.57,33.06,0,0,10.74-19.34,34.77-17.5,18.26,1.4,24.84,14.43,24.84,14.43,0,0,6.21,8.82-22.45,33.5-28.66,24.68-54.93,40.92-61.14,29.46-6.21-11.46-2.82-32.1-2.82-32.1,0,0-22.02-26.09-27.94-32.01-6.79-6.79-15.71-1.36-15.71-1.36"/><path class="uuid-896c9f2e-4bdd-438c-b20a-d49b9a988943" d="m446.97,458.17c-25.89,22.29-49.82,37.69-58.79,32.02-9.77-7.44,26.84-38.54,44.88-52.7,18.04-14.16,32.17-17.82,36.36-12.81,0,0,6.21,8.82-22.45,33.5Z"/><path class="uuid-f61e2b2e-680e-4412-a25d-9c4f1d374aaa" d="m409.81,427.74c-1.89,2.86-4.55,10.38-4.55,10.38"/><g><path class="uuid-0e068f93-a4ce-4525-bc73-042279753465" d="m214.11,345.7c-8.05,5.83-25.34,20.79-35.52,29.67-1.67,1.45-2.82,3.41-3.39,5.55-3.14,11.67-8.55,33.44-8.55,33.44,0,0-8.42.58-12.19,14.35-3.64,13.3-6.64,25.06,3.77,29.75.35,7.47,7.51,15.45,19.2,9.41.14-.06,1.32,1.32,1.44,1.45,2.64,2.7,6.36,4.45,10.13,4.81,3.65.36,7.61-.67,10.43-3.08,3.29-2.81,5.4-6.94,6.05-11.2.4-2.61.26-5.31-.75-7.78,0,0,6.2-2.51,8.05-11.34,1.99-9.49-4.22-19.42-14.62-18.18l6.17-23.11c.51-2.2,1.74-4.16,3.49-5.59l29.38-24.3"/><path class="uuid-f61e2b2e-680e-4412-a25d-9c4f1d374aaa" d="m204.73,452.06c-1.37-3.47-5.39-7.08-9-6.88"/><path class="uuid-f61e2b2e-680e-4412-a25d-9c4f1d374aaa" d="m178.86,469.3c-5.16-5.27-3.82-11.97-2.9-13.54"/><path class="uuid-f61e2b2e-680e-4412-a25d-9c4f1d374aaa" d="m158.22,458.45c-.27-5.22.73-7.32,3.06-9.83"/><path class="uuid-f61e2b2e-680e-4412-a25d-9c4f1d374aaa" d="m193.93,450.63c.14-2.07.48-4.16,1.32-6.06.85-1.95,2.36-3.88,4.31-4.85"/></g></svg>
<svg id="uuid-175be159-db61-4df5-a3ec-4e569af78a21" data-name="BODY" xmlns="http://www.w3.org/2000/svg" viewBox="0 0 600 600"><defs><style>
      .uuid-cb5ad370-d590-4d84-8471-319d1a4c5aa5 {
        fill: none;
        stroke: #000;
        stroke-linecap: round;
        stroke-linejoin: round;
        stroke-width: 4px;
      }
    </style></defs><g id="uuid-13c94933-b88a-4a0e-9bd5-264a3853387a" data-name="expressions"><g id="uuid-006bcb9c-427f-47d9-92c9-0f51d1e9073c" data-name="mouth"><circle cx="362.12" cy="293.18" r="9.78" transform="translate(-9.59 12.26) rotate(-1.91)"/></g><g id="uuid-aa5f76af-2ff8-4e7f-a2a4-73d690451a8d" data-name="eye L"><circle cx="337.63" cy="273.96" r="9.78" transform="translate(-8.96 11.43) rotate(-1.91)"/></g><g id="uuid-4d2b7d8b-0a30-48e5-b672-08579e330a1a" data-name="eye R"><polyline class="uuid-cb5ad370-d590-4d84-8471-319d1a4c5aa5" points="374.33 254.17 360.69 266.02 379.28 264.87"/></g></g></svg>
<svg id="uuid-8bc2e97e-2302-49ce-b93f-c973a8abe5bb" data-name="BODY" xmlns="http://www.w3.org/2000/svg" viewBox="0 0 600 600"><defs><style>
      .uuid-b97aa3d8-a87d-4289-bdcc-07399a28406c {
        fill: #7aa6ff;
      }

      .uuid-b97aa3d8-a87d-4289-bdcc-07399a28406c, .uuid-cdb588a1-0293-4620-85fb-9a46c000d399, .uuid-8d4667d0-21ed-47fe-9334-55112e464e4c, .uuid-3a554514-f2a1-49cb-9361-dc8b0e329a06, .uuid-f56facfc-ca11-46e9-8b50-a71f100a7582 {
        stroke: #000;
        stroke-linecap: round;
        stroke-linejoin: round;
        stroke-width: 2px;
      }

      .uuid-cdb588a1-0293-4620-85fb-9a46c000d399 {
        fill: #ff78d8;
      }

      .uuid-8d4667d0-21ed-47fe-9334-55112e464e4c {
        fill: #ffff0d;
      }

      .uuid-3a554514-f2a1-49cb-9361-dc8b0e329a06 {
        fill: none;
      }

      .uuid-f56facfc-ca11-46e9-8b50-a71f100a7582 {
        fill: #f9a723;
      }
    </style></defs><g id="uuid-f9c1b82f-8493-43ad-8540-48b447ee144b" data-name="uuid-5d087d90-db25-43a6-ad2e-0d1f05b40ae9"><g><path class="uuid-cdb588a1-0293-4620-85fb-9a46c000d399" d="m142.41,416.81l-6.37-2.56c-2.49-1-5.39.36-6.47,3.05l-.56,1.41c-1.08,2.68.07,5.67,2.56,6.67l6.37,2.56,4.47-11.13Z"/><g><path class="uuid-8d4667d0-21ed-47fe-9334-55112e464e4c" d="m156.8,422.59l-8.26-3.32-4.47,11.13,8.89,3.57c.7-3.08,2.02-8.04,3.84-11.38Z"/><path class="uuid-8d4667d0-21ed-47fe-9334-55112e464e4c" d="m217.49,446.97l-17.98-7.22c-.45.23-5.56,3-5.56,10.69h0l19.07,7.66,22.08,2.41-17.61-13.54h0Z"/></g><g><polygon class="uuid-f56facfc-ca11-46e9-8b50-a71f100a7582" points="217.49 446.97 209.8 446.4 214.82 452.36 207.53 452.04 213.02 458.1 235.1 460.51 217.49 446.97"/><path d="m227.02,457.01l-.16.39c-.42,1.04.19,2.18,1.23,2.3l7.01.81-5.6-4.3c-.84-.64-2.06-.25-2.49.8h.01Z"/></g><g><path class="uuid-b97aa3d8-a87d-4289-bdcc-07399a28406c" d="m140.31,415.97c-5.98,3.98-4.42,11.15-4.42,11.15l11.5,4.62s-.97-6.35,4.47-11.13l-11.55-4.64h0Z"/><path class="uuid-3a554514-f2a1-49cb-9361-dc8b0e329a06" d="m143.97,417.44c-2.81,1.91-5.58,6.62-4.15,11.26"/><path class="uuid-3a554514-f2a1-49cb-9361-dc8b0e329a06" d="m148.02,419.06c-2.81,1.91-5.58,6.62-4.15,11.26"/></g></g></g></svg>
<svg id="uuid-667667c6-5500-4e66-a051-8aa827520612" data-name="BACKGROUND" xmlns="http://www.w3.org/2000/svg" viewBox="0 0 600 600"><defs><style>
      .uuid-d1c9b27c-b60a-4714-9d52-5f3abc1d85bb {
        stroke-miterlimit: 10;
      }

      .uuid-d1c9b27c-b60a-4714-9d52-5f3abc1d85bb, .uuid-c526f57f-7669-4064-8ba7-f5f98fc3f8cb, .uuid-44a872ce-82b9-4e50-80d6-8d32a9c47d8e, .uuid-8a39786c-d255-4ac5-ba56-3e5abbbba2ea, .uuid-e17c025c-9590-4c4d-b4c1-51f8ee68e844 {
        stroke: #000;
        stroke-width: 2px;
      }

      .uuid-d1c9b27c-b60a-4714-9d52-5f3abc1d85bb, .uuid-44a872ce-82b9-4e50-80d6-8d32a9c47d8e {
        fill: #ffff0d;
      }

      .uuid-c526f57f-7669-4064-8ba7-f5f98fc3f8cb {
        fill: #ffc9f1;
      }

      .uuid-c526f57f-7669-4064-8ba7-f5f98fc3f8cb, .uuid-44a872ce-82b9-4e50-80d6-8d32a9c47d8e, .uuid-8a39786c-d255-4ac5-ba56-3e5abbbba2ea, .uuid-e17c025c-9590-4c4d-b4c1-51f8ee68e844 {
        stroke-linejoin: round;
      }

      .uuid-8a39786c-d255-4ac5-ba56-3e5abbbba2ea {
        fill: #ff78d8;
      }

      .uuid-e17c025c-9590-4c4d-b4c1-51f8ee68e844 {
        fill: #9dfd14;
      }
    </style></defs><path class="uuid-e17c025c-9590-4c4d-b4c1-51f8ee68e844" d="m513.09,341.88c-1.86-2.47-1.89-5.68-.85-8.49.52-1.4,1.38-2.65,2.42-3.75-.22-.03-.45-.05-.67-.09-2.1-.38-4.21-1.08-5.7-2.67-.65.95-1.5,1.78-2.49,2.45,1.35,6.48,3.11,13.22,5.27,20.18.87-1.6,2.22-3.01,3.87-4.07.56-.36,1.14-.68,1.74-.98-1.39-.55-2.66-1.35-3.57-2.56Z"/><g><path class="uuid-e17c025c-9590-4c4d-b4c1-51f8ee68e844" d="m530.03,363.35c-3.23.76-6.81.52-9.92-.23-1.77-.42-3.55-1.04-5.14-1.95,4.38,12.12,9.87,24.8,16.45,37.85l11.42-5.04s-6.45-13.95-12.81-30.63Z"/><path class="uuid-e17c025c-9590-4c4d-b4c1-51f8ee68e844" d="m507.61,316.05c1.39-2.23,3.59-3.99,5.81-5.38.98-.62,2.02-1.15,3.1-1.61-.51-9.02.17-19.4,3.94-33.21-4.87-.59-9.25-2.96-12.44-6.47-4.85,14.83-5.7,30.1-4.7,43.07,1.21.7,2.92,1.89,4.29,3.6Z"/><path class="uuid-d1c9b27c-b60a-4714-9d52-5f3abc1d85bb" d="m543.02,394.41c.61,1.62-1.5,3.92-4.71,5.14-3.21,1.22-6.32.9-6.93-.72s1.49-3.92,4.71-5.14c3.21-1.22,6.32-.9,6.93.72Z"/><circle class="uuid-8a39786c-d255-4ac5-ba56-3e5abbbba2ea" cx="528.74" cy="272.15" r="20.41"/><circle class="uuid-8a39786c-d255-4ac5-ba56-3e5abbbba2ea" cx="541.91" cy="217.61" r="20.41"/><circle class="uuid-8a39786c-d255-4ac5-ba56-3e5abbbba2ea" cx="488.99" cy="233.69" r="20.41"/><circle class="uuid-c526f57f-7669-4064-8ba7-f5f98fc3f8cb" cx="551.96" cy="248.9" r="20.41"/><circle class="uuid-c526f57f-7669-4064-8ba7-f5f98fc3f8cb" cx="513.31" cy="210.7" r="20.41"/><circle class="uuid-c526f57f-7669-4064-8ba7-f5f98fc3f8cb" cx="500.14" cy="265.24" r="20.41"/><circle class="uuid-44a872ce-82b9-4e50-80d6-8d32a9c47d8e" cx="520.47" cy="241.29" r="18.62"/></g></svg>
<svg id="uuid-cfa177e0-3db8-41e4-8a52-6ff5aa173990" data-name="BACKGROUND" xmlns="http://www.w3.org/2000/svg" viewBox="0 0 600 600"><defs><style>
      .uuid-b8723a43-7cc7-4620-9c33-b5aeb61146d3 {
        opacity: .5;
      }

      .uuid-b8723a43-7cc7-4620-9c33-b5aeb61146d3, .uuid-3ef18c27-fb31-42a1-8e43-d208d9f8ba52, .uuid-d66d6b9e-12fb-4ad4-a164-2db1cf7825d1 {
        fill: none;
      }

      .uuid-3ef18c27-fb31-42a1-8e43-d208d9f8ba52, .uuid-d66d6b9e-12fb-4ad4-a164-2db1cf7825d1 {
        stroke: #000;
        stroke-linecap: round;
        stroke-linejoin: round;
      }

      .uuid-d66d6b9e-12fb-4ad4-a164-2db1cf7825d1 {
        stroke-width: 2px;
      }
    </style></defs><g id="uuid-da9cc0e6-3cfe-461e-8a8f-34904e1cffc2" data-name="uuid-df7eda05-8d90-48fe-8005-fe68a29d7cab"><g id="uuid-7f73c803-a58b-4b9b-9db5-f7182fa6d44b" data-name="uuid-e789c629-4a7f-4a38-b33d-b89f18fb6b0e"><g class="uuid-b8723a43-7cc7-4620-9c33-b5aeb61146d3"><g><circle cx="456.94" cy="353.59" r="2.25"/><circle cx="471.2" cy="357.76" r="1.58"/><circle cx="459.7" cy="348.86" r=".79"/><line class="uuid-d66d6b9e-12fb-4ad4-a164-2db1cf7825d1" x1="466.43" y1="354.78" x2="467.45" y2="357.36"/><line class="uuid-d66d6b9e-12fb-4ad4-a164-2db1cf7825d1" x1="470.91" y1="351.75" x2="472.45" y2="353.59"/><line class="uuid-d66d6b9e-12fb-4ad4-a164-2db1cf7825d1" x1="474.02" y1="347.38" x2="476.29" y2="348.16"/><line class="uuid-d66d6b9e-12fb-4ad4-a164-2db1cf7825d1" x1="475.59" y1="341.74" x2="478.11" y2="341.99"/><line class="uuid-d66d6b9e-12fb-4ad4-a164-2db1cf7825d1" x1="475.59" y1="337.29" x2="478.42" y2="336.3"/><g><path class="uuid-d66d6b9e-12fb-4ad4-a164-2db1cf7825d1" d="m485.94,343.29c.16-.15.32-.3.49-.44,3.21-2.69,7.6-2.73,9.8-.1s1.37,6.94-1.84,9.63c-.17.15-.35.28-.53.41"/><path class="uuid-d66d6b9e-12fb-4ad4-a164-2db1cf7825d1" d="m490.83,354.2c-2.39.58-4.8.01-6.25-1.72-1.45-1.74-1.59-4.2-.58-6.45"/><path class="uuid-d66d6b9e-12fb-4ad4-a164-2db1cf7825d1" d="m489.14,341.28c-2.26-2.7-4.88-3.71-6.29-2.97-1.85.97-1.6,4.94,4.32,12.01,6.04,7.22,10.01,8.14,11.22,6.37.88-1.28.31-3.98-1.98-6.71"/><path class="uuid-d66d6b9e-12fb-4ad4-a164-2db1cf7825d1" d="m484.96,340.63c-.2.5.71,3.05,4.61,7.71,3.85,4.61,6.24,6.02,6.81,5.97"/></g><polygon points="489.53 359.14 491.48 359.75 492.95 358.66 492.48 360.34 493.53 361.96 491.92 361.32 490.18 362.32 490.83 360.72 489.53 359.14"/><polygon points="479.87 350.73 480.59 352.64 482.36 353.13 480.74 353.79 480.12 355.62 479.63 353.95 477.76 353.21 479.42 352.73 479.87 350.73"/><polygon points="490.55 335.71 490.93 336.72 491.86 336.98 491.01 337.33 490.68 338.29 490.42 337.41 489.44 337.02 490.32 336.77 490.55 335.71"/><polygon points="486.04 333.73 486.42 334.73 487.35 334.99 486.5 335.34 486.17 336.3 485.91 335.42 484.93 335.03 485.81 334.78 486.04 333.73"/><path class="uuid-d66d6b9e-12fb-4ad4-a164-2db1cf7825d1" d="m435.59,358.22s1.41,5.62,1.63,6.57c.36,1.52-1.99,4.3,0,5.28,1.99.98,2.71-4.7,3.62-4.7s0,3.34,1.47,3.24,1.19-4.25,2.2-6.4c1.01-2.15,2.98-5.03,3.59-4.85s-.33,3.11.99,3.11,1.42-4.73,2.28-6.8c.86-2.07,2.93-5.01,2.93-5.01,0,0-5.21-4.1-12.49-5.87"/><path class="uuid-d66d6b9e-12fb-4ad4-a164-2db1cf7825d1" d="m454.3,348.66c2.88.86,3.64-3.79,2.17-5.61"/><path class="uuid-3ef18c27-fb31-42a1-8e43-d208d9f8ba52" d="m444.64,351.72s-.3,2.44,1.09,2.79c1.32.34,1.49-1.54,1.49-1.54"/><path class="uuid-3ef18c27-fb31-42a1-8e43-d208d9f8ba52" d="m439.03,360.8s-.03,2.53,1.31,2.53,1.52-1.72,1.52-1.72"/><circle class="uuid-3ef18c27-fb31-42a1-8e43-d208d9f8ba52" cx="441.73" cy="356.91" r="2.24"/><circle class="uuid-3ef18c27-fb31-42a1-8e43-d208d9f8ba52" cx="448.54" cy="348.77" r="2.24"/><circle class="uuid-3ef18c27-fb31-42a1-8e43-d208d9f8ba52" cx="441.33" cy="347.81" r="2.24"/><path class="uuid-d66d6b9e-12fb-4ad4-a164-2db1cf7825d1" d="m452.89,369.39c-2.97-4.45-.67-11.34,6.38-11.03s6.91,9.4,1.96,12.1c0,0,.15,3.78-1.54,3.94s-1.77-2.53-1.77-2.53c0,0-.25,2.93-1.69,2.93s-1.44-2.91-1.44-2.91c0,0-1.29,2.4-2.3,1.79s.41-4.3.41-4.3h0Z"/><path d="m454.84,363.98c2.12-.1,1.2,3.87-.12,3.72s-1.34-3.65.12-3.72Z"/><path d="m458.38,363.98c2.12-.1,1.2,3.87-.12,3.72s-1.34-3.65.12-3.72Z"/><path class="uuid-3ef18c27-fb31-42a1-8e43-d208d9f8ba52" d="m452.45,368.65s-1.59.54-2.68,1.15-1.57,1.77-2.68,1.54c-1.11-.23-1.31-3.05.46-3.64-1.87-.91-1.21-3.39.83-2.73,2.05.66,3.26.87,3.26.87"/><path class="uuid-3ef18c27-fb31-42a1-8e43-d208d9f8ba52" d="m464.77,364.12s.37-.19,1.43-.84,1.49-1.84,2.61-1.66c1.12.18,1.45,2.99-.3,3.65,1.91.83,1.36,3.34-.71,2.77s-3.3-.73-3.3-.73"/><polygon class="uuid-d66d6b9e-12fb-4ad4-a164-2db1cf7825d1" points="471.72 367.45 477.43 362.52 475.23 355.24 480.64 360.8 487.27 358.34 482.73 363.48 483.27 366.24 480.57 367.45 479.21 365.67 471.72 367.45"/><path class="uuid-d66d6b9e-12fb-4ad4-a164-2db1cf7825d1" d="m465.64,339.6s-5.81,8.05-1.14,15.89c0,0,12.97-3.08,10.86-19.19"/><path class="uuid-d66d6b9e-12fb-4ad4-a164-2db1cf7825d1" d="m464.5,355.49s2.34-9.66,6.41-17.67"/><path d="m466.16,349.71c3.8,0,8.34-6.47,4.25-10.69l-4.25,10.69Z"/></g><g><path class="uuid-d66d6b9e-12fb-4ad4-a164-2db1cf7825d1" d="m187.2,411.38c-.39,0-.77.04-1.15.1,1.97.69,3.39,2.54,3.39,4.74,0,2.78-2.26,5.04-5.04,5.04-2.2,0-4.05-1.42-4.74-3.39-.06.38-.1.76-.1,1.15,0,4.22,3.42,7.63,7.63,7.63s7.63-3.42,7.63-7.63-3.42-7.63-7.63-7.63h0Z"/><circle cx="182.72" cy="414.55" r="1.79"/><circle cx="202.81" cy="377.76" r="1.79"/><circle cx="226.98" cy="350.5" r="1.26"/><circle cx="227.31" cy="346.96" r="1.26"/><circle cx="230.42" cy="348.73" r="1.26"/><circle cx="204.15" cy="383.07" r=".79"/><circle cx="188.24" cy="385.47" r=".79"/><circle cx="193.15" cy="402.91" r="1.86"/><polyline class="uuid-d66d6b9e-12fb-4ad4-a164-2db1cf7825d1" points="167.11 412.5 189.56 406.71 184.75 387.34 172.72 390.32"/><polyline class="uuid-d66d6b9e-12fb-4ad4-a164-2db1cf7825d1" points="168.47 407.03 184.7 402.92 182.02 391.69 171.68 394.38"/><polyline class="uuid-d66d6b9e-12fb-4ad4-a164-2db1cf7825d1" points="170.66 398.39 175.81 397.05 176.74 400.78 169.58 402.64"/><line class="uuid-d66d6b9e-12fb-4ad4-a164-2db1cf7825d1" x1="178.33" y1="404.53" x2="182.59" y2="408.51"/><line class="uuid-3ef18c27-fb31-42a1-8e43-d208d9f8ba52" x1="167.84" y1="409.74" x2="176.99" y2="407.44"/><path class="uuid-d66d6b9e-12fb-4ad4-a164-2db1cf7825d1" d="m205.84,374.96s-.35-10.78.3-15.52c.96-6.93,11.93-10.21,13.25,2.17,0,0,8.54-.91,8.24,6.93-.3,7.84-21.79,6.42-21.79,6.42h0Z"/><line class="uuid-d66d6b9e-12fb-4ad4-a164-2db1cf7825d1" x1="231.71" y1="363.58" x2="234.81" y2="366.21"/><polyline class="uuid-d66d6b9e-12fb-4ad4-a164-2db1cf7825d1" points="227.42 366.21 234.81 366.21 231.84 369.24"/><polyline class="uuid-d66d6b9e-12fb-4ad4-a164-2db1cf7825d1" points="198.14 363.58 201.04 366.21 205.76 366.21"/><line class="uuid-d66d6b9e-12fb-4ad4-a164-2db1cf7825d1" x1="198.14" y1="368.77" x2="201.04" y2="366.21"/><polyline class="uuid-d66d6b9e-12fb-4ad4-a164-2db1cf7825d1" points="212.08 390.32 205.48 391.69 207.82 381.38 220.85 378.01 218.7 384.85"/><polyline class="uuid-d66d6b9e-12fb-4ad4-a164-2db1cf7825d1" points="220.85 378.01 211.08 386.16 205.48 391.69"/><polyline class="uuid-d66d6b9e-12fb-4ad4-a164-2db1cf7825d1" points="207.82 381.38 211.08 386.16 214.52 387.78"/><polygon points="181.67 385.68 182.73 380.67 188.24 378.01 182.18 377.64 181.27 373.44 179.46 374.61 179.46 378.5 174.8 382.38 179.6 382.24 181.67 385.68"/><path class="uuid-d66d6b9e-12fb-4ad4-a164-2db1cf7825d1" d="m200.78,411.95c-4.13.25-4.67-2.83-3.25-12.59-7.35-2.41-6.94-7.47-5.39-11.21,1.55-3.74-1.69-8.26-2.06-9.81-.37-1.55.67-4.89,1.28-4.9.42-.01.87,1.45,1.11,2.37.11.42.49.72.93.72h1.13c.41,0,.77-.26.9-.64.34-.98,1-2.74,1.27-2.77.37-.03,1.72,2.66,1.72,4.45s-.37,3.74.13,5.09,4.96,6.44,4.28,11.06-5.29,5.65-5.29,5.65"/><path class="uuid-d66d6b9e-12fb-4ad4-a164-2db1cf7825d1" d="m193.15,408.93s3.3-5.26,9.17-2.69"/><line class="uuid-3ef18c27-fb31-42a1-8e43-d208d9f8ba52" x1="209.07" y1="375.05" x2="209.07" y2="370.51"/><line class="uuid-3ef18c27-fb31-42a1-8e43-d208d9f8ba52" x1="211.99" y1="370" x2="212.13" y2="375.01"/><line class="uuid-3ef18c27-fb31-42a1-8e43-d208d9f8ba52" x1="215.43" y1="374.81" x2="214.86" y2="370"/><line class="uuid-3ef18c27-fb31-42a1-8e43-d208d9f8ba52" x1="218.76" y1="374.38" x2="217.89" y2="369.65"/><line class="uuid-3ef18c27-fb31-42a1-8e43-d208d9f8ba52" x1="222.26" y1="373.56" x2="220.85" y2="369.24"/><line class="uuid-3ef18c27-fb31-42a1-8e43-d208d9f8ba52" x1="225.08" y1="372.32" x2="223.15" y2="368.3"/><line class="uuid-3ef18c27-fb31-42a1-8e43-d208d9f8ba52" x1="227.42" y1="369.67" x2="224.77" y2="366.78"/><line class="uuid-3ef18c27-fb31-42a1-8e43-d208d9f8ba52" x1="219.39" y1="361.61" x2="215.6" y2="363.07"/><line class="uuid-3ef18c27-fb31-42a1-8e43-d208d9f8ba52" x1="218.9" y1="358.92" x2="214.86" y2="360.58"/><line class="uuid-3ef18c27-fb31-42a1-8e43-d208d9f8ba52" x1="217.89" y1="356.43" x2="213.95" y2="358.62"/><line class="uuid-3ef18c27-fb31-42a1-8e43-d208d9f8ba52" x1="215.6" y1="354.01" x2="212.9" y2="357.01"/><line class="uuid-3ef18c27-fb31-42a1-8e43-d208d9f8ba52" x1="211.99" y1="353.34" x2="211.32" y2="356.43"/><circle class="uuid-d66d6b9e-12fb-4ad4-a164-2db1cf7825d1" cx="230.42" cy="351.71" r="8.87"/></g></g></g></g></svg>
<svg id="uuid-28487f57-969c-444b-a530-1d03d550218a" data-name="BODY" xmlns="http://www.w3.org/2000/svg" viewBox="0 0 600 600"><defs><style>
      .uuid-2345e484-47d2-47a9-b5e5-60211852c9d5 {
        fill: #fff;
        stroke: #000;
        stroke-miterlimit: 10;
        stroke-width: 2px;
      }
    </style></defs><path class="uuid-2345e484-47d2-47a9-b5e5-60211852c9d5" d="m234.82,145.43c-9.89-21.59-45.38-26.51-79.27-10.99-33.89,15.52-53.35,45.61-43.46,67.2,9.99,21.81,39.44,22.36,59.43,17.73,4.99-1.16,10.09-2.59,14.83-4.51,5.26-2.14,11.16-6.03,16.85-3.03,2.88,1.52,17.21,8.41,19.06,3.74.88-2.24-2.6-4.93-3.79-6.4-2.06-2.55-3.15-5.62-2.69-8.93.52-3.73,3.23-6.58,5.75-9.17,3.01-3.1,5.82-6.19,8.14-9.86,6.51-10.31,10.47-24.16,5.15-35.78Z"/><g><path d="m156.14,181.19l-18.06-15.17,9.83-6.16,10.41,11.84.92-.58-8.26-13.19,9.52-5.96,6.43,24.59,21.09,17.96-9.83,6.16-13.18-13.52-.92.58,9.8,15.64-9.52,5.96-8.24-28.15Z"/><path d="m163.39,150.17l9.21-5.77c7.37-4.62,16.36-2.56,26.35,13.39,9.99,15.95,7.93,24.93.56,29.55l-9.21,5.77-26.91-42.94Zm31.82,29.61c1.54-.96,2-2.96-6.08-15.84-8.07-12.88-10.07-13.34-11.6-12.38l-.31.19,17.68,28.21.31-.19Z"/></g></svg>
</svg>