<?xml version="1.0" encoding="UTF-8"?>
<svg xmlns="http://www.w3.org/2000/svg" viewBox="0 0 600 600">
<svg id="uuid-b5df70f2-f26b-4cc4-9992-c02ca3e1ffe7" data-name="BACKGROUND" xmlns="http://www.w3.org/2000/svg" viewBox="0 0 600 600"><defs><style>
      .uuid-b49e1da8-89ab-4517-8063-4eac3fbcc068 {
        fill: #3ef1ff;
      }
    </style></defs><rect class="uuid-b49e1da8-89ab-4517-8063-4eac3fbcc068" x="-1" y="-1" width="602" height="602"/></svg>
<svg id="uuid-9722f958-7a1b-41d5-b127-5f5664340acc" data-name="BACKGROUND" xmlns="http://www.w3.org/2000/svg" viewBox="0 0 600 600"><defs><style>
      .uuid-38d319f8-e1e2-4e35-8358-20269c2b2afc, .uuid-04aa5705-a527-4798-9248-8fcc4f62d66b {
        fill: #fff;
      }

      .uuid-9f9f1948-40a0-4747-af1d-9594efb41061, .uuid-621ab9aa-9a02-467e-87ae-ac926dafbcb1, .uuid-04aa5705-a527-4798-9248-8fcc4f62d66b, .uuid-c9a14ba2-b8bc-42e5-9f8d-275d1fff3c56, .uuid-6105d9dd-9f9c-48ac-a1fa-9ace9529afd0, .uuid-39fc5d50-c0b6-4d72-9b97-695125c5be4a, .uuid-332aab89-d113-4256-b1ac-e39bd2d752c7 {
        stroke: #000;
        stroke-width: 2px;
      }

      .uuid-9f9f1948-40a0-4747-af1d-9594efb41061, .uuid-621ab9aa-9a02-467e-87ae-ac926dafbcb1, .uuid-04aa5705-a527-4798-9248-8fcc4f62d66b, .uuid-39fc5d50-c0b6-4d72-9b97-695125c5be4a {
        stroke-miterlimit: 10;
      }

      .uuid-9f9f1948-40a0-4747-af1d-9594efb41061, .uuid-621ab9aa-9a02-467e-87ae-ac926dafbcb1, .uuid-c9a14ba2-b8bc-42e5-9f8d-275d1fff3c56, .uuid-332aab89-d113-4256-b1ac-e39bd2d752c7 {
        fill: #ffff0d;
      }

      .uuid-621ab9aa-9a02-467e-87ae-ac926dafbcb1, .uuid-04aa5705-a527-4798-9248-8fcc4f62d66b, .uuid-c9a14ba2-b8bc-42e5-9f8d-275d1fff3c56, .uuid-6105d9dd-9f9c-48ac-a1fa-9ace9529afd0, .uuid-39fc5d50-c0b6-4d72-9b97-695125c5be4a {
        stroke-linecap: round;
      }

      .uuid-c9a14ba2-b8bc-42e5-9f8d-275d1fff3c56, .uuid-6105d9dd-9f9c-48ac-a1fa-9ace9529afd0, .uuid-332aab89-d113-4256-b1ac-e39bd2d752c7 {
        stroke-linejoin: round;
      }

      .uuid-6105d9dd-9f9c-48ac-a1fa-9ace9529afd0 {
        fill: none;
      }

      .uuid-39fc5d50-c0b6-4d72-9b97-695125c5be4a {
        fill: #7aa6ff;
      }
    </style></defs><path class="uuid-c9a14ba2-b8bc-42e5-9f8d-275d1fff3c56" d="m409.81,359.6c9.2,3.77,29.89,12.05,42.79,16.03,2.11.65,4.41.69,6.5-.04,11.79-4.08,28.47-11.39,33.03-11.32,5.25.08,7.8,3.93,19.88,2.04,13.36-2.1,22.43-11.99,20.93-23.3-4.21-43.28-25.18-26.79-25.18-26.79,0,0-5.84-8.75-18.76-4.82-11.83,3.6-10.2,14.44-6.47,22.47l-25.29,8.58c-2.14.72-4.45.71-6.59-.02l-35.7-12.61"/><path class="uuid-621ab9aa-9a02-467e-87ae-ac926dafbcb1" d="m533.36,312.82c2.5,3.94,1.62,9.14-1.57,12.4-2.47,2.53-5.88,3.88-9.32,4.4-2.8.43-5.7.42-8.49-.08-2.14-.39-4.29-1.1-5.79-2.75-1.66-1.83-2.27-4.46-1.98-6.87.51-4.17,3.84-7.14,7.22-9.26,3.17-1.98,6.86-3.26,10.64-3.09,3.8.18,7.36,2.19,9.3,5.24Z"/><path class="uuid-621ab9aa-9a02-467e-87ae-ac926dafbcb1" d="m538.57,349.84c.97,3.03.32,6.43-1.5,9.01-3.77,5.33-11.17,5.65-16.96,4.27-3.31-.79-6.69-2.21-8.67-5.13-3.13-4.61-.82-9.79,3.48-12.56,2.58-1.66,5.61-2.67,8.63-3.14,5.73-.89,13.1,1.51,15.03,7.56Z"/><path class="uuid-621ab9aa-9a02-467e-87ae-ac926dafbcb1" d="m538.71,328.53c1.8,2.99,2.06,6.89.22,9.9-1.95,3.2-4.94,5.25-8.49,6.28-3.66,1.07-7.64,1.27-11.4.44-2.25-.5-4.53-1.38-5.96-3.28-1.86-2.47-1.89-5.68-.85-8.49,1.2-3.24,4.17-5.69,7.09-7.37,6.15-3.56,15.21-4.43,19.39,2.52Z"/><path class="uuid-621ab9aa-9a02-467e-87ae-ac926dafbcb1" d="m501.85,311.68s9.27,3.84,7.77,12.02c-1.04,5.68-8.17,9.55-14.94,6.13"/><path class="uuid-6105d9dd-9f9c-48ac-a1fa-9ace9529afd0" d="m500.67,331.08c2.41,1.63,5.11,8.04,3.4,14.42"/><path d="m443.44,339.88c-2.88,10.58-6.94,20.23-11.17,28.59-10.17-3.78-21.16-9.53-27-11.93l11.83-26.02,26.35,9.36Z"/><ellipse cx="300" cy="518.65" rx="138.6" ry="22.93"/><path class="uuid-9f9f1948-40a0-4747-af1d-9594efb41061" d="m319.36,427.14c-1.16,1.05-54.95,57-54.95,57,0,0,21.51-1.95,31.74,10.62,10.23,12.57,7.26,23.89,7.26,23.89h-66.9s-28.69-36.17-28.69-36.17c0,0,3.74-13.4,20.44-10.59,20.9-19.38,55.52-59.13,55.52-59.13l35.59,14.38Z"/><path d="m283.78,412.76l31.28,12.64-3.24,9.5c-2.93,3.03-9.76,10.12-13.64,14.14-11.92,0-27.98-2.13-41.33-6.37,13.95-15.1,26.93-29.92,26.93-29.92Z"/><path class="uuid-9f9f1948-40a0-4747-af1d-9594efb41061" d="m354.45,173.54l-.11.27-174.2,58.29c-11.49,20.13-18.05,43.43-18.05,68.27,0,76.2,61.77,137.98,137.97,137.98s137.98-61.77,137.98-137.98c0-56.89-34.43-105.72-83.58-126.83Z"/><path class="uuid-6105d9dd-9f9c-48ac-a1fa-9ace9529afd0" d="m264.41,484.14c-4.06.49-11.49,1.36-17.85,7.23"/><path class="uuid-38d319f8-e1e2-4e35-8358-20269c2b2afc" d="m185.17,308.14c-4.41,0-7.98-3.57-7.98-7.98,0-67.74,55.11-122.86,122.86-122.86,4.41,0,7.98,3.57,7.98,7.98s-3.57,7.98-7.98,7.98c-58.94,0-106.9,47.95-106.9,106.9,0,4.41-3.57,7.98-7.98,7.98Z"/><path d="m203.75,397.46l34.2-27.46-24.86,36.3c-6.73-5.1-3.66-2.61-9.34-8.83Z"/><path class="uuid-332aab89-d113-4256-b1ac-e39bd2d752c7" d="m323.72,387.31c19.14-13.4,39.15-11.3,55.52,7.36,19.6,22.35,30.57,33.06,30.57,33.06,0,0,10.74-19.34,34.77-17.5,18.26,1.4,24.84,14.43,24.84,14.43,0,0,6.21,8.82-22.45,33.5-28.66,24.68-54.93,40.92-61.14,29.46-6.21-11.46-2.82-32.1-2.82-32.1,0,0-22.02-26.09-27.94-32.01-6.79-6.79-15.71-1.36-15.71-1.36"/><path class="uuid-9f9f1948-40a0-4747-af1d-9594efb41061" d="m446.97,458.17c-25.89,22.29-49.82,37.69-58.79,32.02-9.77-7.44,26.84-38.54,44.88-52.7,18.04-14.16,32.17-17.82,36.36-12.81,0,0,6.21,8.82-22.45,33.5Z"/><path class="uuid-6105d9dd-9f9c-48ac-a1fa-9ace9529afd0" d="m409.81,427.74c-1.89,2.86-4.55,10.38-4.55,10.38"/><ellipse class="uuid-04aa5705-a527-4798-9248-8fcc4f62d66b" cx="269.41" cy="209.07" rx="94.9" ry="26.25" transform="translate(-52.5 96.54) rotate(-18.55)"/><ellipse class="uuid-39fc5d50-c0b6-4d72-9b97-695125c5be4a" cx="269.41" cy="209.07" rx="71.19" ry="13.32" transform="translate(-52.5 96.54) rotate(-18.55)"/><g><path class="uuid-c9a14ba2-b8bc-42e5-9f8d-275d1fff3c56" d="m214.11,345.7c-8.05,5.83-25.34,20.79-35.52,29.67-1.67,1.45-2.82,3.41-3.39,5.55-3.14,11.67-8.55,33.44-8.55,33.44,0,0-8.42.58-12.19,14.35-3.64,13.3-6.64,25.06,3.77,29.75.35,7.47,7.51,15.45,19.2,9.41.14-.06,1.32,1.32,1.44,1.45,2.64,2.7,6.36,4.45,10.13,4.81,3.65.36,7.61-.67,10.43-3.08,3.29-2.81,5.4-6.94,6.05-11.2.4-2.61.26-5.31-.75-7.78,0,0,6.2-2.51,8.05-11.34,1.99-9.49-4.22-19.42-14.62-18.18l6.17-23.11c.51-2.2,1.74-4.16,3.49-5.59l29.38-24.3"/><path class="uuid-6105d9dd-9f9c-48ac-a1fa-9ace9529afd0" d="m204.73,452.06c-1.37-3.47-5.39-7.08-9-6.88"/><path class="uuid-6105d9dd-9f9c-48ac-a1fa-9ace9529afd0" d="m178.86,469.3c-5.16-5.27-3.82-11.97-2.9-13.54"/><path class="uuid-6105d9dd-9f9c-48ac-a1fa-9ace9529afd0" d="m158.22,458.45c-.27-5.22.73-7.32,3.06-9.83"/><path class="uuid-6105d9dd-9f9c-48ac-a1fa-9ace9529afd0" d="m193.93,450.63c.14-2.07.48-4.16,1.32-6.06.85-1.95,2.36-3.88,4.31-4.85"/></g></svg>
<svg id="uuid-d5dd65a7-b2b1-4e4f-8af0-4691195114d0" data-name="BODY" xmlns="http://www.w3.org/2000/svg" viewBox="0 0 600 600"><circle cx="369.54" cy="262.94" r="9.78" transform="translate(-8.58 12.49) rotate(-1.91)"/><path d="m352.87,296.37c1.76,5.11,7.33,7.82,12.44,6.06,5.11-1.76,7.82-7.33,6.06-12.44"/><circle cx="337.63" cy="273.96" r="9.78" transform="translate(-8.96 11.43) rotate(-1.91)"/></svg>
<svg id="uuid-e27adad5-30bb-46c8-8e54-f8c1913f360c" data-name="BODY" xmlns="http://www.w3.org/2000/svg" xmlns:xlink="http://www.w3.org/1999/xlink" viewBox="0 0 600 600"><defs><style>
      .uuid-3fcb169e-3b1b-4e12-becc-5f80712b470c, .uuid-71f48634-c7c5-4ab0-b79f-ecd7a6ea3576, .uuid-1cfa6bdb-b40b-4a10-822f-5735a372275a {
        fill: none;
      }

      .uuid-399b8939-c3fd-4a77-bb11-cefdc3056a0b {
        fill: #ff78d8;
      }

      .uuid-692362c3-9c42-49ef-a7d9-00216a7861e4 {
        fill: #8400ff;
      }

      .uuid-c264d3ba-8696-457e-a5ac-d4558e99d766 {
        fill: #fff7f0;
      }

      .uuid-c264d3ba-8696-457e-a5ac-d4558e99d766, .uuid-4d4ae5f1-c6c3-49df-9321-b3c3eeaefea3, .uuid-71f48634-c7c5-4ab0-b79f-ecd7a6ea3576 {
        stroke: #000;
        stroke-linecap: round;
        stroke-linejoin: round;
      }

      .uuid-c264d3ba-8696-457e-a5ac-d4558e99d766, .uuid-71f48634-c7c5-4ab0-b79f-ecd7a6ea3576 {
        stroke-width: 2px;
      }

      .uuid-4d4ae5f1-c6c3-49df-9321-b3c3eeaefea3 {
        fill: #00dfa9;
        stroke-width: 2px;
      }

      .uuid-1cfa6bdb-b40b-4a10-822f-5735a372275a {
        clip-path: url(#uuid-47f39ff4-ab63-4b55-810f-676f2b09c621);
      }
    </style><clipPath id="uuid-47f39ff4-ab63-4b55-810f-676f2b09c621"><path class="uuid-3fcb169e-3b1b-4e12-becc-5f80712b470c" d="m273.7,388.15l-27.14,101.6-45.29-19.13c8.06-8.68,4.71-18.07,4.71-18.07,1.65-.63,8.95-7.38,8.08-16.55-1.46-15.37-14.56-14.54-14.56-14.54l5.48-20.55c.81-3.03,2.55-5.74,4.98-7.72l27.97-22.91,35.77,17.87h0Zm-108.69-32.21l-24.51-1.18-27.32,93.86s39.97,9.86,37.79,3.43c-2.18-6.43,0-14.66,3.27-25.72,3.28-11.07,11.55-12.86,11.55-12.86,0,0,6.12-24.01,6.65-26.08.52-2.08,1.79-7.38,3.06-9.79,1.27-2.4,4.84-5.11,4.84-5.11l-15.33-16.54h0Z"/></clipPath></defs><g id="uuid-b259e6eb-9282-4e58-986d-d3934aa91bcd" data-name="uuid-c570e703-2945-4177-b64d-06e285408742"><g id="uuid-c7bc8669-3c13-43c3-852a-c286d52fcb33" data-name="uuid-9f96e339-c3dc-4444-8fae-74ea4c1f77e1"><g class="uuid-1cfa6bdb-b40b-4a10-822f-5735a372275a"><g><rect class="uuid-4d4ae5f1-c6c3-49df-9321-b3c3eeaefea3" x="162.53" y="362.64" width="70.06" height="107.69" rx="1.7" ry="1.7" transform="translate(-259.02 479.93) rotate(-72.53)"/><g><polygon class="uuid-c264d3ba-8696-457e-a5ac-d4558e99d766" points="234.27 461.83 226.16 466.44 131.28 435.87 151.5 377.4 159.88 373.03 252.99 402.33 234.27 461.83"/><line class="uuid-71f48634-c7c5-4ab0-b79f-ecd7a6ea3576" x1="244.92" y1="406.8" x2="252.99" y2="402.33"/><line class="uuid-71f48634-c7c5-4ab0-b79f-ecd7a6ea3576" x1="237.13" y1="442.16" x2="230.21" y2="464.13"/><polyline class="uuid-c264d3ba-8696-457e-a5ac-d4558e99d766" points="237.95 400.92 249.01 404.4 241.6 427.95"/><line class="uuid-71f48634-c7c5-4ab0-b79f-ecd7a6ea3576" x1="197" y1="388.03" x2="229.22" y2="398.17"/><line class="uuid-71f48634-c7c5-4ab0-b79f-ecd7a6ea3576" x1="155.91" y1="375.1" x2="181.64" y2="383.2"/></g><rect class="uuid-4d4ae5f1-c6c3-49df-9321-b3c3eeaefea3" x="148.01" y="370.21" width="70.06" height="107.69" rx="1.7" ry="1.7" transform="translate(-276.4 471.38) rotate(-72.53)"/><path class="uuid-71f48634-c7c5-4ab0-b79f-ecd7a6ea3576" d="m232.42,402.86l-28.66,39.29,13.39,9.91,23.71-32.33s3.49-10.69,3.56-11.32.28-1.69-1.11-2.13l-10.89-3.43Z"/><polygon class="uuid-692362c3-9c42-49ef-a7d9-00216a7861e4" points="134.65 423.09 138.1 437.93 146.53 436.78 149.11 428.93 134.65 423.09"/><polygon class="uuid-692362c3-9c42-49ef-a7d9-00216a7861e4" points="139.78 439.85 147.96 438.94 150.4 431.37 152.94 443.92 139.78 439.85"/><polygon class="uuid-71f48634-c7c5-4ab0-b79f-ecd7a6ea3576" points="128.61 417.65 162.28 400.02 154.62 385.56 135.54 395.62 128.61 417.65"/><path class="uuid-399b8939-c3fd-4a77-bb11-cefdc3056a0b" d="m212.18,422.18s2.32-6.22,3.23-9.81c.91-3.59-4.98-6.51-7.32-.86-5.27-3.83-8.43,2.2-3.54,5.65,4.88,3.45,7.64,5.03,7.64,5.03h0Z"/><path d="m218.3,430.31c-2.04.6-2.41,3.38-1.34,4.96,1.17,1.74,3.59,2.12,5.28.89.94-.69,1.62-1.67,1.88-2.81.09-.39-.12-.81-.52-.92-.38-.1-.83.13-.92.52-.19.84-.67,1.6-1.41,2.06-.7.44-1.48.52-2.18.19-.68-.33-1.13-.98-1.21-1.68-.04-.38,0-.75.13-1.05.15-.35.39-.62.69-.71.92-.27.53-1.72-.4-1.45h0Z"/><path d="m222.53,423.92c-1.53.71-1.69,2.71-1.15,4.11.62,1.61,2.33,2.35,3.98,2.05,1.46-.27,2.65-1.52,2.92-2.96.27-1.48-.05-3.4-1.49-4.17-1.59-.84-3.37-.14-4.53,1.09-.66.7.4,1.77,1.06,1.06.32-.34.7-.66,1.12-.85.13-.06.27-.1.4-.13.1-.03.21-.04.25-.05.28-.02.41,0,.62.05.23.06.29.09.49.22.13.08.27.24.35.38.26.45.31,1.06.31,1.57-.01.98-.49,1.79-1.36,2.18-.72.33-1.91.22-2.47-.51-.34-.44-.46-1.09-.44-1.63.03-.54.25-.91.69-1.12.37-.17.46-.7.27-1.03-.22-.38-.66-.44-1.03-.27h0Z"/><path d="m227.6,416.59c-1.58,1.19-1.23,3.67,0,4.99,1.3,1.39,3.54,1.51,5,.33.79-.64,1.25-1.6,1.32-2.6.03-.4-.37-.75-.75-.75-.43,0-.72.34-.75.75-.04.59-.43,1.26-.97,1.6-.6.38-1.28.42-1.96.17-.6-.21-1.11-.78-1.31-1.39-.13-.39-.16-.67-.11-1.09-.01.08.03-.15.03-.14.03-.11.06-.23.1-.33-.04.08.09-.15.08-.13.02-.03.1-.12.08-.1.32-.24.49-.65.27-1.03-.19-.32-.7-.51-1.03-.27h0Z"/><path d="m232.5,409.97c-1.52.74-1.79,2.68-1.06,4.06.76,1.45,2.46,2.44,4.1,2.12,1.52-.29,2.73-1.67,3.04-3.15.32-1.57-.27-3.21-1.67-4.06-1.48-.9-3.51-.44-4.4,1.07-.49.83.8,1.59,1.3.76.2-.33.52-.59.89-.71.43-.13.8-.14,1.24.05.34.15.69.46.9.8.26.41.37.87.34,1.38-.05.97-.69,1.94-1.59,2.3-.41.17-.87.17-1.35.01-.48-.16-.92-.51-1.23-.9-.31-.39-.52-.93-.47-1.39.05-.46.31-.85.73-1.05.36-.18.46-.7.27-1.03-.22-.37-.66-.45-1.03-.27h0Z"/><path d="m213.42,443.88c1.02,1.34,2.9,1.53,4.26.56,1.36-.96,1.86-2.71,1.48-4.29-.21-.87-.81-1.46-1.71-1.57-.85-.1-1.68.26-2.36.74-.59.41-1.17.99-1.88,1.18-.48.13-1.04.04-1.12-.54-.09-.62.42-1.17.9-1.5.44-.3,1.22-.65,1.67-.28.31.26.76.3,1.06,0,.27-.27.31-.8,0-1.06-1.28-1.06-3.03-.49-4.13.56-.56.54-.95,1.24-1,2.02-.05.78.31,1.57.97,1.99.65.42,1.52.43,2.24.18.78-.27,1.38-.81,2.04-1.27.27-.19.56-.38.88-.47.23-.07.63-.17.83.02.15.14.18.45.21.63.05.34.04.7-.03,1.03-.16.7-.58,1.3-1.25,1.59-.55.23-1.36.23-1.76-.29-.25-.32-.65-.49-1.03-.27-.32.18-.52.7-.27,1.03h0Z"/><path d="m210.16,437.91c2.63,2.19,5.26,4.39,7.89,6.58.31.26.76.3,1.06,0,.27-.27.31-.8,0-1.06-2.63-2.19-5.26-4.39-7.89-6.58-.31-.26-.76-.3-1.06,0-.27.27-.31.8,0,1.06h0Z"/><path d="m131.34,409.07c1.43.92,3.03,1.47,4.72,1.68.39.05.77-.38.75-.75-.14-2.6-.34-5.21-.61-7.8-.04-.4-.32-.75-.75-.75-.37,0-.79.34-.75.75.26,2.6.47,5.2.61,7.8l.75-.75c-1.41-.18-2.76-.71-3.96-1.48-.81-.52-1.57.77-.76,1.3h0Z"/><path d="m139.73,397.4c-.56.36-1.19.68-1.7,1.11-.62.52-.39,1.18-.11,1.81.56,1.22,1.16,2.41,1.81,3.58.32.58.66,1.17,1.01,1.74.18.29.37.57.72.69.32.11.63.06.95-.03.81-.22,3.44-1.11,2.29-2.33-.66-.7-1.72.36-1.06,1.06l.04.05-.22-.53v.07s.09-.38.09-.38c.07-.11.02-.05-.06,0-.1.05-.19.11-.28.16-.15.08-.31.16-.47.22-.19.08-.72.34-.89.28l.33.19c-.23-.18-.37-.56-.52-.81-.17-.29-.34-.58-.5-.87-.36-.65-.71-1.3-1.05-1.96-.16-.32-.32-.64-.48-.96-.15-.3-.26-.7-.46-.97-.02-.04-.04-.08-.06-.13-.04.09-.08.17-.12.26.02.01.45-.29.49-.31l.98-.63c.81-.52.06-1.82-.76-1.3h0Z"/><path d="m142,400.83c-.66.28-1.29.62-1.87,1.03-.16.11-.29.25-.34.45-.05.18-.03.42.08.58.1.16.26.3.45.34.19.04.41.04.58-.08.59-.41,1.22-.75,1.87-1.03.16-.07.3-.29.34-.45.05-.18.03-.42-.08-.58-.1-.16-.26-.3-.45-.34l-.2-.03c-.14,0-.26.03-.38.1h0Z"/><path d="m147.93,403.17l-4.16-7.3-.27,1.03c.84-.45,2.18-.9,2.9.01.66.83-.47,1.76-1.07,2.21-.61.47.06,1.46.73,1.25.84-.25,2.62-.77,3.01.45.35,1.1-.85,1.81-1.74,2.01-.94.21-.54,1.66.4,1.45,1.72-.39,3.34-1.95,2.79-3.86-.26-.89-1.01-1.52-1.9-1.76-.99-.27-2-.02-2.96.26l.73,1.25c.65-.51,1.26-1.12,1.55-1.91.29-.81.12-1.68-.41-2.34-1.22-1.5-3.28-1.13-4.79-.33-.36.19-.46.69-.27,1.03l4.16,7.3c.48.84,1.77.08,1.3-.76h0Z"/><path d="m148.44,394.47c1.13-.75,2.33-1.38,3.61-1.84l-.95-.72c.04,1.18-.08,2.34-.36,3.49-.14.59.36,1.02.92.92.64-.12,1.37-.19,1.96.14.56.31.69.86.55,1.46-.1.46-.34,1.04-.82,1.2-.14.05-.3.03-.44-.03-.07-.03-.14-.08-.18-.12-.02-.02-.07-.13-.06-.07-.05-.4-.31-.75-.75-.75-.37,0-.8.35-.75.75.12,1.05,1.02,1.8,2.1,1.74,1.13-.06,1.92-.99,2.26-2,.38-1.11.23-2.41-.72-3.18-1.02-.83-2.32-.82-3.55-.59l.92.92c.31-1.27.46-2.58.41-3.89-.01-.45-.47-.89-.95-.72-1.4.5-2.73,1.16-3.97,1.99-.8.53-.05,1.83.76,1.3h0Z"/></g></g></g></g></svg>
</svg>