<?xml version="1.0" encoding="UTF-8"?>
<svg xmlns="http://www.w3.org/2000/svg" viewBox="0 0 600 600">
<svg id="uuid-50f5b600-4bee-4d04-aa66-9a7827d0c80f" data-name="BACKGROUND" xmlns="http://www.w3.org/2000/svg" viewBox="0 0 600 600"><defs><style>
      .uuid-7826a2f3-55af-481e-b40d-34a6e43de7ed {
        fill: #7aa6ff;
      }
    </style></defs><rect class="uuid-7826a2f3-55af-481e-b40d-34a6e43de7ed" x="-1" y="-1" width="602" height="602"/></svg>
<svg id="uuid-dbde9422-7524-4caa-9aef-973de947a85a" data-name="BACKGROUND" xmlns="http://www.w3.org/2000/svg" viewBox="0 0 600 600"><defs><style>
      .uuid-00b29d56-32db-44bc-b865-b505689ce7f2, .uuid-bc0c1d1d-f35d-4801-ab0a-7ed1f6579806 {
        fill: #fff;
      }

      .uuid-721045bb-6a0a-43b1-bbbb-700680bef5ac, .uuid-8bce232e-cf9f-4930-aa41-bc826f060c10, .uuid-bc0c1d1d-f35d-4801-ab0a-7ed1f6579806, .uuid-7a18d1de-3b5c-43f4-b300-729f0a8ada13, .uuid-9a9b3e9a-3b64-462c-a5b9-1ed4fe14cc54, .uuid-49737ab1-df19-44de-9973-63511c143097, .uuid-f441cade-332c-4c12-ac30-b324c1b26b62 {
        stroke: #000;
        stroke-width: 2px;
      }

      .uuid-721045bb-6a0a-43b1-bbbb-700680bef5ac, .uuid-8bce232e-cf9f-4930-aa41-bc826f060c10, .uuid-bc0c1d1d-f35d-4801-ab0a-7ed1f6579806, .uuid-49737ab1-df19-44de-9973-63511c143097 {
        stroke-miterlimit: 10;
      }

      .uuid-721045bb-6a0a-43b1-bbbb-700680bef5ac, .uuid-8bce232e-cf9f-4930-aa41-bc826f060c10, .uuid-7a18d1de-3b5c-43f4-b300-729f0a8ada13, .uuid-f441cade-332c-4c12-ac30-b324c1b26b62 {
        fill: #ffc9f1;
      }

      .uuid-8bce232e-cf9f-4930-aa41-bc826f060c10, .uuid-bc0c1d1d-f35d-4801-ab0a-7ed1f6579806, .uuid-7a18d1de-3b5c-43f4-b300-729f0a8ada13, .uuid-9a9b3e9a-3b64-462c-a5b9-1ed4fe14cc54, .uuid-49737ab1-df19-44de-9973-63511c143097 {
        stroke-linecap: round;
      }

      .uuid-7a18d1de-3b5c-43f4-b300-729f0a8ada13, .uuid-9a9b3e9a-3b64-462c-a5b9-1ed4fe14cc54, .uuid-f441cade-332c-4c12-ac30-b324c1b26b62 {
        stroke-linejoin: round;
      }

      .uuid-9a9b3e9a-3b64-462c-a5b9-1ed4fe14cc54 {
        fill: none;
      }

      .uuid-49737ab1-df19-44de-9973-63511c143097 {
        fill: #a07bff;
      }
    </style></defs><path class="uuid-7a18d1de-3b5c-43f4-b300-729f0a8ada13" d="m409.81,359.6c9.2,3.77,29.89,12.05,42.79,16.03,2.11.65,4.41.69,6.5-.04,11.79-4.08,28.47-11.39,33.03-11.32,5.25.08,7.8,3.93,19.88,2.04,13.36-2.1,22.43-11.99,20.93-23.3-4.21-43.28-25.18-26.79-25.18-26.79,0,0-5.84-8.75-18.76-4.82-11.83,3.6-10.2,14.44-6.47,22.47l-25.29,8.58c-2.14.72-4.45.71-6.59-.02l-35.7-12.61"/><path class="uuid-8bce232e-cf9f-4930-aa41-bc826f060c10" d="m533.36,312.82c2.5,3.94,1.62,9.14-1.57,12.4-2.47,2.53-5.88,3.88-9.32,4.4-2.8.43-5.7.42-8.49-.08-2.14-.39-4.29-1.1-5.79-2.75-1.66-1.83-2.27-4.46-1.98-6.87.51-4.17,3.84-7.14,7.22-9.26,3.17-1.98,6.86-3.26,10.64-3.09,3.8.18,7.36,2.19,9.3,5.24Z"/><path class="uuid-8bce232e-cf9f-4930-aa41-bc826f060c10" d="m538.57,349.84c.97,3.03.32,6.43-1.5,9.01-3.77,5.33-11.17,5.65-16.96,4.27-3.31-.79-6.69-2.21-8.67-5.13-3.13-4.61-.82-9.79,3.48-12.56,2.58-1.66,5.61-2.67,8.63-3.14,5.73-.89,13.1,1.51,15.03,7.56Z"/><path class="uuid-8bce232e-cf9f-4930-aa41-bc826f060c10" d="m538.71,328.53c1.8,2.99,2.06,6.89.22,9.9-1.95,3.2-4.94,5.25-8.49,6.28-3.66,1.07-7.64,1.27-11.4.44-2.25-.5-4.53-1.38-5.96-3.28-1.86-2.47-1.89-5.68-.85-8.49,1.2-3.24,4.17-5.69,7.09-7.37,6.15-3.56,15.21-4.43,19.39,2.52Z"/><path class="uuid-8bce232e-cf9f-4930-aa41-bc826f060c10" d="m501.85,311.68s9.27,3.84,7.77,12.02c-1.04,5.68-8.17,9.55-14.94,6.13"/><path class="uuid-9a9b3e9a-3b64-462c-a5b9-1ed4fe14cc54" d="m500.67,331.08c2.41,1.63,5.11,8.04,3.4,14.42"/><path d="m443.44,339.88c-2.88,10.58-6.94,20.23-11.17,28.59-10.17-3.78-21.16-9.53-27-11.93l11.83-26.02,26.35,9.36Z"/><ellipse cx="300" cy="518.65" rx="138.6" ry="22.93"/><path class="uuid-721045bb-6a0a-43b1-bbbb-700680bef5ac" d="m319.36,427.14c-1.16,1.05-54.95,57-54.95,57,0,0,21.51-1.95,31.74,10.62,10.23,12.57,7.26,23.89,7.26,23.89h-66.9s-28.69-36.17-28.69-36.17c0,0,3.74-13.4,20.44-10.59,20.9-19.38,55.52-59.13,55.52-59.13l35.59,14.38Z"/><path d="m283.78,412.76l31.28,12.64-3.24,9.5c-2.93,3.03-9.76,10.12-13.64,14.14-11.92,0-27.98-2.13-41.33-6.37,13.95-15.1,26.93-29.92,26.93-29.92Z"/><path class="uuid-721045bb-6a0a-43b1-bbbb-700680bef5ac" d="m354.45,173.54l-.11.27-174.2,58.29c-11.49,20.13-18.05,43.43-18.05,68.27,0,76.2,61.77,137.98,137.97,137.98s137.98-61.77,137.98-137.98c0-56.89-34.43-105.72-83.58-126.83Z"/><path class="uuid-9a9b3e9a-3b64-462c-a5b9-1ed4fe14cc54" d="m264.41,484.14c-4.06.49-11.49,1.36-17.85,7.23"/><path class="uuid-00b29d56-32db-44bc-b865-b505689ce7f2" d="m185.17,308.14c-4.41,0-7.98-3.57-7.98-7.98,0-67.74,55.11-122.86,122.86-122.86,4.41,0,7.98,3.57,7.98,7.98s-3.57,7.98-7.98,7.98c-58.94,0-106.9,47.95-106.9,106.9,0,4.41-3.57,7.98-7.98,7.98Z"/><path d="m203.75,397.46l34.2-27.46-24.86,36.3c-6.73-5.1-3.66-2.61-9.34-8.83Z"/><path class="uuid-f441cade-332c-4c12-ac30-b324c1b26b62" d="m323.72,387.31c19.14-13.4,39.15-11.3,55.52,7.36,19.6,22.35,30.57,33.06,30.57,33.06,0,0,10.74-19.34,34.77-17.5,18.26,1.4,24.84,14.43,24.84,14.43,0,0,6.21,8.82-22.45,33.5-28.66,24.68-54.93,40.92-61.14,29.46-6.21-11.46-2.82-32.1-2.82-32.1,0,0-22.02-26.09-27.94-32.01-6.79-6.79-15.71-1.36-15.71-1.36"/><path class="uuid-721045bb-6a0a-43b1-bbbb-700680bef5ac" d="m446.97,458.17c-25.89,22.29-49.82,37.69-58.79,32.02-9.77-7.44,26.84-38.54,44.88-52.7,18.04-14.16,32.17-17.82,36.36-12.81,0,0,6.21,8.82-22.45,33.5Z"/><path class="uuid-9a9b3e9a-3b64-462c-a5b9-1ed4fe14cc54" d="m409.81,427.74c-1.89,2.86-4.55,10.38-4.55,10.38"/><ellipse class="uuid-bc0c1d1d-f35d-4801-ab0a-7ed1f6579806" cx="269.41" cy="209.07" rx="94.9" ry="26.25" transform="translate(-52.5 96.54) rotate(-18.55)"/><ellipse class="uuid-49737ab1-df19-44de-9973-63511c143097" cx="269.41" cy="209.07" rx="71.19" ry="13.32" transform="translate(-52.5 96.54) rotate(-18.55)"/><g><path class="uuid-7a18d1de-3b5c-43f4-b300-729f0a8ada13" d="m214.11,345.7c-8.05,5.83-25.34,20.79-35.52,29.67-1.67,1.45-2.82,3.41-3.39,5.55-3.14,11.67-8.55,33.44-8.55,33.44,0,0-8.42.58-12.19,14.35-3.64,13.3-6.64,25.06,3.77,29.75.35,7.47,7.51,15.45,19.2,9.41.14-.06,1.32,1.32,1.44,1.45,2.64,2.7,6.36,4.45,10.13,4.81,3.65.36,7.61-.67,10.43-3.08,3.29-2.81,5.4-6.94,6.05-11.2.4-2.61.26-5.31-.75-7.78,0,0,6.2-2.51,8.05-11.34,1.99-9.49-4.22-19.42-14.62-18.18l6.17-23.11c.51-2.2,1.74-4.16,3.49-5.59l29.38-24.3"/><path class="uuid-9a9b3e9a-3b64-462c-a5b9-1ed4fe14cc54" d="m204.73,452.06c-1.37-3.47-5.39-7.08-9-6.88"/><path class="uuid-9a9b3e9a-3b64-462c-a5b9-1ed4fe14cc54" d="m178.86,469.3c-5.16-5.27-3.82-11.97-2.9-13.54"/><path class="uuid-9a9b3e9a-3b64-462c-a5b9-1ed4fe14cc54" d="m158.22,458.45c-.27-5.22.73-7.32,3.06-9.83"/><path class="uuid-9a9b3e9a-3b64-462c-a5b9-1ed4fe14cc54" d="m193.93,450.63c.14-2.07.48-4.16,1.32-6.06.85-1.95,2.36-3.88,4.31-4.85"/></g></svg>
<svg id="uuid-d2017022-49ac-4767-bd5b-8d3e235df956" data-name="BODY" xmlns="http://www.w3.org/2000/svg" viewBox="0 0 600 600"><defs><style>
      .uuid-ceb1f6db-ac22-433a-a64d-b7c361a52305 {
        fill: #ffff0d;
      }

      .uuid-ceb1f6db-ac22-433a-a64d-b7c361a52305, .uuid-8fc51c2b-2e55-48cc-a922-83a746c6089c {
        stroke-width: 2px;
      }

      .uuid-ceb1f6db-ac22-433a-a64d-b7c361a52305, .uuid-8fc51c2b-2e55-48cc-a922-83a746c6089c, .uuid-ededc5f7-d71c-4a39-8679-141d6e366d35 {
        stroke: #000;
        stroke-linecap: round;
        stroke-linejoin: round;
      }

      .uuid-8fc51c2b-2e55-48cc-a922-83a746c6089c, .uuid-ededc5f7-d71c-4a39-8679-141d6e366d35 {
        fill: none;
      }

      .uuid-ededc5f7-d71c-4a39-8679-141d6e366d35 {
        stroke-width: 4px;
      }
    </style></defs><g id="uuid-2e50336c-81e2-44ae-a2f0-cfae5c829496" data-name="uuid-ca7a59fd-5ea4-4026-baf3-83b8314686b7"><g><path d="m371.9,289.97c1.87,5.07-.73,10.69-5.8,12.56-5.07,1.87-10.69-.73-12.56-5.8l18.36-6.76h0Z"/><path class="uuid-ededc5f7-d71c-4a39-8679-141d6e366d35" d="m347.02,271.26c1.87,5.07-.73,10.69-5.8,12.56-5.07,1.87-10.69-.73-12.56-5.8"/><path class="uuid-ededc5f7-d71c-4a39-8679-141d6e366d35" d="m378.7,259.59c1.87,5.07-.73,10.69-5.8,12.56-5.07,1.87-10.69-.73-12.56-5.8"/><g><path class="uuid-ceb1f6db-ac22-433a-a64d-b7c361a52305" d="m394.29,286.52l-6.54-4.3c-2.76-1.82-6.22-2.22-9.33-1.07l-17.8,6.56-17.8,6.56c-3.1,1.14-5.48,3.69-6.4,6.87l-2.18,7.52c-.22.76.52,1.45,1.26,1.17l23.58-8.69c1.5-.55,2.5-1.96,2.54-3.56l.15-6.73,4.48,5.03c1.06,1.19,2.74,1.61,4.24,1.06l23.58-8.69c.74-.27.86-1.28.2-1.71l.02-.02Z"/><g><line class="uuid-8fc51c2b-2e55-48cc-a922-83a746c6089c" x1="352.99" y1="303.37" x2="353.29" y2="295.54"/><line class="uuid-8fc51c2b-2e55-48cc-a922-83a746c6089c" x1="343.37" y1="306.92" x2="344.56" y2="298.75"/><line class="uuid-8fc51c2b-2e55-48cc-a922-83a746c6089c" x1="376.62" y1="294.67" x2="371.32" y2="288.89"/><line class="uuid-8fc51c2b-2e55-48cc-a922-83a746c6089c" x1="386.25" y1="291.12" x2="380.04" y2="285.68"/></g></g><g><ellipse cx="334.14" cy="264.66" rx="11.53" ry="3.94" transform="translate(-70.88 131.8) rotate(-20.22)"/><ellipse cx="365.82" cy="252.99" rx="11.53" ry="3.94" transform="translate(-64.9 142.03) rotate(-20.22)"/></g></g></g></svg>
<svg id="uuid-95b5227d-2769-4238-a500-dd358444bba0" data-name="BODY" xmlns="http://www.w3.org/2000/svg" viewBox="0 0 600 600"><defs><style>
      .uuid-254d1ac9-1134-416c-b624-beaaa8dc301f {
        fill: #7aa6ff;
      }

      .uuid-254d1ac9-1134-416c-b624-beaaa8dc301f, .uuid-428efed7-69bb-4902-ba4b-68e9e234b259, .uuid-a3189951-741a-4377-bc06-daef984417cb {
        stroke-width: 2px;
      }

      .uuid-254d1ac9-1134-416c-b624-beaaa8dc301f, .uuid-428efed7-69bb-4902-ba4b-68e9e234b259, .uuid-a3189951-741a-4377-bc06-daef984417cb, .uuid-15b1d1c2-0816-4703-a22f-7fb2bc142205 {
        stroke: #000;
        stroke-linecap: round;
        stroke-linejoin: round;
      }

      .uuid-428efed7-69bb-4902-ba4b-68e9e234b259 {
        fill: #fff7f0;
      }

      .uuid-a3189951-741a-4377-bc06-daef984417cb {
        fill: none;
      }

      .uuid-15b1d1c2-0816-4703-a22f-7fb2bc142205 {
        fill: #f9a723;
        stroke-width: 2px;
      }
    </style></defs><g id="uuid-35c559f7-0283-4aa7-9b92-d34f2741af7b" data-name="uuid-605b41a0-aa5b-46b1-a8cc-7a7388354e5f"><g><g><path class="uuid-254d1ac9-1134-416c-b624-beaaa8dc301f" d="m265.06,433.71l-12.83,13.93,24.11,24.11,32.61-33.86s-9.11-3.01-21.05-4.93c-11.93-1.92-22.84.76-22.84.76h0Z"/><path d="m283.78,412.76l31.28,12.64-3.24,9.5c-2.93,3.03-9.76,10.12-13.64,14.14-11.92,0-27.98-2.13-41.33-6.37,13.95-15.1,26.93-29.92,26.93-29.92h0Z"/><path class="uuid-254d1ac9-1134-416c-b624-beaaa8dc301f" d="m256.75,440.63c11.72,4.9,21.56,18.02,26.25,25.16,1.8,2.74,1.48,6.36-.78,8.74l-5.4,5.69c-1.18,1.24-2.92,1.77-4.59,1.4l-4.44-1,3.34-3.48s-8.51-18.01-24.06-24.06l-2.92,3.05-1.41-3.2c-.8-1.8-.42-3.91.94-5.33l5.18-5.38c2.04-2.12,5.18-2.73,7.89-1.6h0Z"/></g><g><path class="uuid-254d1ac9-1134-416c-b624-beaaa8dc301f" d="m195.72,360.99c-9.29-4.19-17.84-8.74-25.47-13.44,3.18,8.66,7.21,16.91,11.97,24.66l13.5-11.22h0Z"/><path class="uuid-254d1ac9-1134-416c-b624-beaaa8dc301f" d="m418.95,370.3c-24.03,7.71-48.97,5.83-75.98,8.83-39.41,8.01-77.99,4.3-111.27-5.07l-23.9,19.76c-1.62,1.34-2.78,3.14-3.33,5.17l-.18.65c24.83,23.86,58.55,38.52,95.7,38.52,20.42,0,39.8-4.45,57.24-12.4,0,0-.01.03-.01.03l10.9,12.33,27.36-25.36-6.48-7.1s-.02,0-.02,0c11.86-10,22.01-21.95,29.96-35.36h0Z"/></g><g><path class="uuid-428efed7-69bb-4902-ba4b-68e9e234b259" d="m203.69,354.36c-17.08-8.69-30-18.05-38.83-25.49,1.83,8.61,4.46,16.91,7.81,24.84,5.47,4.27,11.23,8.27,17.37,12l13.65-11.35Z"/><path class="uuid-428efed7-69bb-4902-ba4b-68e9e234b259" d="m342.98,379.13c-41.76,3.6-76.57-1.71-104.59-10.59l-15.49,12.81c24.69,8.91,54.95,14.31,93.96,15.13,0,0,9.76-15.82,28.03-17.52,18.89-1.76,28.81,10.15,28.81,10.15,0,0,26.43-3.81,42.25-13.99,4.66-7.17,8.68-14.8,11.96-22.81-22.27,15.48-52.65,24.04-84.93,26.82h0Z"/></g><path class="uuid-254d1ac9-1134-416c-b624-beaaa8dc301f" d="m363.75,435.78c5.95-11.23,22.62-22.64,30.16-26.66,2.9-1.55,6.47-.89,8.64,1.58l5.18,5.89c1.13,1.29,1.5,3.07.98,4.7l-1.2,4.15-3.35-3.46s-19.28,5.51-28.87,24.58l2.77,3.19-3.32,1.12c-1.87.63-3.93.07-5.22-1.43l-4.89-5.65c-1.93-2.23-2.25-5.4-.87-8.01h0Z"/><path class="uuid-254d1ac9-1134-416c-b624-beaaa8dc301f" d="m251.53,391.83l3.51-18.9c.48-2.58,2.98-4.26,5.55-3.73l5.12,1.06c1.43.3,2.64,1.24,3.27,2.56l1.72,3.58-4.74-.87-2.91,19.07"/><path class="uuid-254d1ac9-1134-416c-b624-beaaa8dc301f" d="m304.26,399.19l-.41-19.21c-.06-2.62,2.06-4.78,4.68-4.78h5.23c1.46,0,2.84.67,3.72,1.83l2.42,3.15-4.82.11,1.03,19.26"/><path class="uuid-254d1ac9-1134-416c-b624-beaaa8dc301f" d="m416.88,373.71l-4.03-12.57-3.04,1.52.44-3.75c.16-1.38.79-2.47,1.7-2.96l3.26-1.76c1.64-.88,3.68.41,4.53,2.87,0,0,1.79,5.26,2.48,7.39-2.03,4.03-5.35,9.26-5.35,9.26h0Z"/><path class="uuid-254d1ac9-1134-416c-b624-beaaa8dc301f" d="m182.89,364.72l6.4-18.43,2.98,1.81-.44-3.87c-.16-1.38-.79-2.47-1.7-2.96l-4.6-2.53c-1.64-.88-3.68.41-4.53,2.87,0,0-5.46,14.85-6.15,16.97"/><rect class="uuid-15b1d1c2-0816-4703-a22f-7fb2bc142205" x="373.04" y="367.45" width="29.72" height="22.05" rx="5.33" ry="5.33" transform="translate(-85.21 114.14) rotate(-15.1)"/><g><path class="uuid-a3189951-741a-4377-bc06-daef984417cb" d="m252.23,408.88s21.46,5.16,33.72-8.19"/><g><path d="m378.59,441.98c-.27,0-.53-.11-.73-.31l-2.75-2.91c-.38-.4-.36-1.03.04-1.41.4-.38,1.03-.36,1.41.04l2.75,2.91c.38.4.36,1.03-.04,1.41-.19.18-.44.27-.69.27h0Z"/><path d="m370.68,433.6c-.27,0-.53-.11-.73-.31l-2.75-2.91c-.38-.4-.36-1.03.04-1.41s1.03-.36,1.41.04l2.75,2.91c.38.4.36,1.03-.04,1.41-.19.18-.44.27-.69.27h0Z"/></g><path d="m375.6,422.97c-.28,0-.56-.12-.76-.34,0,0-1.36-1.57-3.3-3.78-.36-.42-.32-1.05.09-1.41.42-.36,1.05-.32,1.41.09,1.94,2.21,3.3,3.78,3.3,3.78.36.42.32,1.05-.1,1.41-.19.16-.42.25-.66.25h0Zm-6.61-7.55c-.28,0-.55-.11-.75-.34-1.1-1.24-2.23-2.52-3.32-3.74-.37-.41-.33-1.04.08-1.41.41-.37,1.04-.33,1.41.08,1.09,1.22,2.23,2.51,3.33,3.75.37.41.33,1.05-.09,1.41-.19.17-.43.25-.66.25h0Zm-6.68-7.47c-.27,0-.54-.11-.74-.32-.76-.83-1.41-1.53-1.91-2.04-.41-.43-.93-.85-1.53-1.27-.45-.31-.57-.94-.25-1.39.31-.45.94-.57,1.39-.25.71.49,1.32,1,1.82,1.52.51.52,1.18,1.24,1.95,2.08.37.41.35,1.04-.06,1.41-.19.18-.43.26-.68.26h0Zm-31.16-2.79c-.32,0-.64-.16-.83-.45-.31-.46-.18-1.08.28-1.39,1.21-.81,2.48-1.52,3.76-2.12.5-.23,1.1-.02,1.33.48.23.5.02,1.1-.48,1.33-1.19.56-2.37,1.22-3.5,1.97-.17.11-.36.17-.55.17h0Zm23.1-2.92c-.11,0-.23-.02-.34-.06-1.48-.54-3.04-.94-4.64-1.18-.55-.08-.92-.59-.84-1.14.08-.55.59-.92,1.14-.84,1.73.26,3.43.69,5.03,1.28.52.19.79.76.6,1.28-.15.41-.53.66-.94.66h0Zm-14.76-.79c-.45,0-.86-.31-.97-.76-.13-.54.2-1.08.73-1.21,1.68-.41,3.41-.66,5.14-.74.55-.02,1.02.4,1.04.96s-.4,1.02-.96,1.04c-1.6.07-3.2.3-4.75.68-.08.02-.16.03-.24.03h0Z"/><path d="m272.16,453c-.27,0-.54-.11-.74-.33-.37-.41-.34-1.04.07-1.41l3.71-3.36c.41-.37,1.04-.34,1.41.07.37.41.34,1.04-.07,1.41l-3.71,3.36c-.19.17-.43.26-.67.26h0Zm7.41-6.71c-.27,0-.54-.11-.74-.33-.37-.41-.34-1.04.07-1.41l3.71-3.36c.41-.37,1.04-.34,1.41.07.37.41.34,1.04-.07,1.41l-3.71,3.36c-.19.17-.43.26-.67.26h0Zm7.41-6.71c-.27,0-.54-.11-.74-.33-.37-.41-.34-1.04.07-1.41l1.02-.93c.41-.37,1.04-.34,1.41.07.37.41.34,1.04-.07,1.41l-1.02.93c-.19.17-.43.26-.67.26h0Z"/><path d="m256.35,459.55c-.26,0-.53-.1-.73-.31-.38-.4-.36-1.03.04-1.41l3.63-3.44c.4-.38,1.03-.36,1.41.04.38.4.36,1.03-.04,1.41l-3.63,3.44c-.19.18-.44.27-.69.27h0Zm7.26-6.88c-.26,0-.53-.1-.73-.31-.38-.4-.36-1.03.04-1.41l3.63-3.44c.4-.38,1.03-.36,1.41.04.38.4.36,1.03-.04,1.41l-3.63,3.44c-.19.18-.44.27-.69.27h0Z"/><path class="uuid-a3189951-741a-4377-bc06-daef984417cb" d="m357.23,425.79c-4.86-5.22-9.35-8.05-17.88-3.63"/><line class="uuid-a3189951-741a-4377-bc06-daef984417cb" x1="373.7" y1="389.11" x2="389.02" y2="405.66"/></g><path d="m236.76,369.41l-24.81,36.89c-6.13-4.65-8.2-5.86-6.62-10.11-.38-.43,31.43-26.78,31.43-26.78h0Z"/></g></g></svg>
<svg id="uuid-b9482b2c-4739-4122-81da-4de338103694" data-name="BODY" xmlns="http://www.w3.org/2000/svg" viewBox="0 0 600 600"><defs><style>
      .uuid-191029f6-3576-4ed7-97ef-969e58bf69e1 {
        fill: #ffff0d;
        stroke: #000;
        stroke-linecap: round;
        stroke-linejoin: round;
        stroke-width: 2px;
      }
    </style></defs><path class="uuid-191029f6-3576-4ed7-97ef-969e58bf69e1" d="m209.08,417.82c0-3.45-2.8-6.25-6.25-6.25-.62,0-1.21.12-1.78.29l-2.74,10.26c.13.14.27.26.42.38,2.44-.2,4.65.19,6.55,1.07,2.23-.95,3.8-3.17,3.8-5.75Z"/><path class="uuid-191029f6-3576-4ed7-97ef-969e58bf69e1" d="m160.14,417.77c3.29-3.25,6.4-3.47,6.4-3.47,0,0,.51-2.04,1.3-5.21-1.04-2.02-3.12-3.41-5.54-3.41-3.45,0-6.25,2.8-6.25,6.25,0,2.69,1.71,4.96,4.09,5.84Z"/><circle class="uuid-191029f6-3576-4ed7-97ef-969e58bf69e1" cx="169.36" cy="403.62" r="7.06"/><circle class="uuid-191029f6-3576-4ed7-97ef-969e58bf69e1" cx="184.37" cy="402.37" r="7.06"/><circle class="uuid-191029f6-3576-4ed7-97ef-969e58bf69e1" cx="198.12" cy="409.87" r="7.06"/></svg>
<svg id="uuid-058dae0e-0ea2-49ca-ae9f-b68ef70ad996" data-name="BASE" xmlns="http://www.w3.org/2000/svg" viewBox="0 0 600 600"><defs><style>
      .uuid-c178cbd3-a724-433a-a7c3-f6cdad9c3981 {
        fill: #a07bff;
      }

      .uuid-c178cbd3-a724-433a-a7c3-f6cdad9c3981, .uuid-3810ce6e-eb88-48ed-bcff-bd0506d0cbae {
        stroke: #000;
        stroke-linecap: round;
        stroke-linejoin: round;
        stroke-width: 2px;
      }

      .uuid-3810ce6e-eb88-48ed-bcff-bd0506d0cbae {
        fill: none;
      }
    </style></defs><g><path class="uuid-c178cbd3-a724-433a-a7c3-f6cdad9c3981" d="m502.22,311.85c1.42.67,3.02,1.57,5.54,4.38,1.26-2.31,3.53-4.05,5.67-5.56,2.52-1.79,5.63-2.61,8.69-3.05-.27-13.26,0-33.93,3.26-59.17,4.85-37.5,7.61-90.51,1.78-119.34-5.84-28.83-21.64-39.98-49.15-30.92-23.57,7.76-26.74,39.11-24.2,74.78,2.53,35.67,13.3,53.02,23.49,77.48,6.76,16.24,13.51,43.44,17.71,59.94,3.9,0,5.71.75,7.24,1.46Z"/><path class="uuid-c178cbd3-a724-433a-a7c3-f6cdad9c3981" d="m540.72,424.5s-6.33-9.74-11.56-31.81c-1.87-7.91-3.43-18.38-4.63-28.92-1.52-.09-3.02-.32-4.43-.66-3.31-.79-6.69-2.21-8.67-5.13-3.13-4.61-.82-9.79,3.48-12.56.56-.36,1.14-.68,1.74-.98-1.39-.55-2.66-1.35-3.57-2.56-1.86-2.47-1.89-5.68-.85-8.49.52-1.4,1.38-2.65,2.42-3.75-.22-.03-.45-.05-.67-.09-2.1-.38-4.21-1.08-5.7-2.67-1.86,2.7-5.28,4.44-9.06,4.2,2.5,14.5,8.38,49.55,9.18,63.16.96,16.21-1.39,43.14-.59,45.2.91,2.36,9.26.82,18.35-3.31,9.09-4.13,15.61-9.34,14.57-11.63Z"/><ellipse class="uuid-c178cbd3-a724-433a-a7c3-f6cdad9c3981" cx="524.26" cy="431.97" rx="18.08" ry="4.57" transform="translate(-131.67 255.33) rotate(-24.42)"/><path id="uuid-ba56e70d-e3a8-43b5-8354-766d610bdf5b" data-name="linea" class="uuid-c178cbd3-a724-433a-a7c3-f6cdad9c3981" d="m522.37,427.81s-3.11-10.59-5.66-27.27c5.54,16.46,11.68,25.16,11.68,25.16l-6.02,2.11"/><ellipse class="uuid-c178cbd3-a724-433a-a7c3-f6cdad9c3981" cx="458.38" cy="184.82" rx="12.85" ry="28.04" transform="translate(-28.57 100.25) rotate(-12.11)"/><ellipse class="uuid-c178cbd3-a724-433a-a7c3-f6cdad9c3981" cx="514.92" cy="126.7" rx="15.68" ry="24.57" transform="translate(-15.12 110.81) rotate(-12.11)"/><ellipse class="uuid-c178cbd3-a724-433a-a7c3-f6cdad9c3981" cx="455.33" cy="184.77" rx="6.11" ry="9.98" transform="translate(-28.63 99.61) rotate(-12.11)"/><ellipse class="uuid-c178cbd3-a724-433a-a7c3-f6cdad9c3981" cx="514.09" cy="122.8" rx="8.15" ry="9.98" transform="translate(-14.32 110.55) rotate(-12.11)"/><g id="uuid-45336622-f42b-42a3-9677-42604915898c" data-name="buton line"><path class="uuid-3810ce6e-eb88-48ed-bcff-bd0506d0cbae" d="m456.14,125c13.36,11.39,18.04,28.56,22.13,44.92,3.48,13.92,4.79,28.39,3.65,42.71-1.14,14.31-6.22,28.31-2.71,42.7"/><path class="uuid-3810ce6e-eb88-48ed-bcff-bd0506d0cbae" d="m493.22,95.15c-5.54,13.38-4.25,27.58-.96,41.36,3.74,15.66,7.74,30.1,8.35,46.39.79,21.15-2.17,42.08-1.17,63.16"/><path class="uuid-3810ce6e-eb88-48ed-bcff-bd0506d0cbae" d="m514.58,278.26s1.05-52.71,3.45-80.15c2.4-27.45,6.67-37.86,11.73-47.69"/></g><path class="uuid-3810ce6e-eb88-48ed-bcff-bd0506d0cbae" d="m508.15,328.54c.93,6.66,1.96,13.68,3.07,20.66"/><path class="uuid-3810ce6e-eb88-48ed-bcff-bd0506d0cbae" d="m503.31,289.2c.24,2.74,1.33,12.59,2.99,25.51"/></g><path class="uuid-3810ce6e-eb88-48ed-bcff-bd0506d0cbae" d="m522.11,399.07s-5.41-21.86-9.23-39.46"/></svg>
<svg id="uuid-20641d54-9b80-4738-a850-744e9e159449" data-name="BODY" xmlns="http://www.w3.org/2000/svg" xmlns:xlink="http://www.w3.org/1999/xlink" viewBox="0 0 600 600"><defs><style>
      .uuid-08cd35e5-5429-4678-9716-d686ab3ecfef, .uuid-dda132b2-d95f-4871-a7b1-064b32f66064, .uuid-ebdbf30b-e82b-478c-8ba4-0d0c364ee291 {
        fill: none;
      }

      .uuid-742681a4-c23e-4f30-b8ee-5b9c20c0b35c {
        stroke: #ff78d8;
        stroke-width: 5px;
      }

      .uuid-742681a4-c23e-4f30-b8ee-5b9c20c0b35c, .uuid-7cac7961-9347-486a-acb0-10dbd6513383, .uuid-b14f2490-b4c9-4cfa-9101-1711323d80d6, .uuid-dda132b2-d95f-4871-a7b1-064b32f66064 {
        stroke-linecap: round;
        stroke-linejoin: round;
      }

      .uuid-4e16943e-fd44-479d-99ea-a54526ffe949, .uuid-b14f2490-b4c9-4cfa-9101-1711323d80d6 {
        fill: #fff7f0;
      }

      .uuid-658b5f94-e9af-4c82-a1e0-8418994c6472 {
        fill: #ff78d8;
      }

      .uuid-58a45e6e-6234-4179-aa22-3da84e379254, .uuid-7cac7961-9347-486a-acb0-10dbd6513383 {
        fill: #a07bff;
      }

      .uuid-7cac7961-9347-486a-acb0-10dbd6513383, .uuid-b14f2490-b4c9-4cfa-9101-1711323d80d6, .uuid-dda132b2-d95f-4871-a7b1-064b32f66064 {
        stroke: #000;
        stroke-width: 2px;
      }

      .uuid-ebdbf30b-e82b-478c-8ba4-0d0c364ee291 {
        clip-path: url(#uuid-f1915c35-cc3e-42ae-bf03-e75644ba9dff);
      }
    </style><clipPath id="uuid-f1915c35-cc3e-42ae-bf03-e75644ba9dff"><path class="uuid-08cd35e5-5429-4678-9716-d686ab3ecfef" d="m292.18,151.63c-45.29,18.53-57.04,82.27-16.83,154.86,40.21,72.59,92.47,79.78,131.35,57.32,32.27-18.64,50.95-86.94,11.5-148.35-38.38-59.74-88.11-79.35-126.02-63.84h0Z"/></clipPath></defs><g id="uuid-85e1621e-e44d-479c-b341-dd87cf6c87d5" data-name="uuid-a9579faf-1ae5-4d40-a4cc-22ba1730b184"><g id="uuid-160c4403-e087-4e8a-a846-a26c4516381d" data-name="uuid-5d29859d-1e7e-4471-9f73-63fc681f3063"><g id="uuid-78a2c4f3-0092-4c8a-a81b-4d0f0dd090a9" data-name="uuid-a170f457-5acf-49c3-a376-5e6480af8811"><g><g><path class="uuid-7cac7961-9347-486a-acb0-10dbd6513383" d="m265.36,275.49s-48.99,12.97-101.9,3.29l1.51-8.18s-5.22,1.59-6.22,2.59c-1.01,1.01-3.02,18.49-2.61,30.55,0,0,12.76,8.08,57.95,8.49,45.19.41,64.06-9.23,64.06-9.23l-12.79-27.53h0Z"/><path class="uuid-7cac7961-9347-486a-acb0-10dbd6513383" d="m207.05,282.36c-1.15,13.66.63,29.77.63,29.77"/><path class="uuid-7cac7961-9347-486a-acb0-10dbd6513383" d="m237.19,280.43c1.04,19.57,4.82,30.82,4.82,30.82"/></g><g><path class="uuid-b14f2490-b4c9-4cfa-9101-1711323d80d6" d="m345.05,154s7.1-16.33,18.29-25.28c2.87-2.3,8.01-4.02,14.78,11.3,6.77,15.32,11.49,44.17,11.49,44.17,0,0-12.77-13.79-44.55-30.19h0Z"/><path class="uuid-dda132b2-d95f-4871-a7b1-064b32f66064" d="m358.58,163.39s2.74-13.98,5.04-20.17c2.3-6.19,5.36-2.87,5.36-2.87"/><path class="uuid-b14f2490-b4c9-4cfa-9101-1711323d80d6" d="m260.03,190.39s-18.01-1.34-37.15,6.79c-3.27,1.39-11.44,6.49-2.11,20.21,9.33,13.72,35.02,32.79,35.02,32.79,0,0,1.57-25.73,4.23-59.79Z"/><path class="uuid-dda132b2-d95f-4871-a7b1-064b32f66064" d="m253.44,206.95s-12.01-2.61-18.57-2.87c-6.55-.26-6.47,3.52-6.47,3.52"/></g><g><path class="uuid-4e16943e-fd44-479d-99ea-a54526ffe949" d="m292.18,151.63c-45.29,18.53-57.04,82.27-16.83,154.86,40.21,72.59,92.47,79.78,131.35,57.32,32.27-18.64,50.95-86.94,11.5-148.35-38.38-59.74-88.11-79.35-126.02-63.84h0Z"/><g class="uuid-ebdbf30b-e82b-478c-8ba4-0d0c364ee291"><g><path class="uuid-742681a4-c23e-4f30-b8ee-5b9c20c0b35c" d="m383.73,253.96s-5.17-13.4,3.06-26.33c8.23-12.93,17.71-11.2,17.71-11.2,0,0-3.64,3.06-1.91,13.5,1.72,10.44-1.44,22.98-18.86,24.03h0Z"/><path class="uuid-742681a4-c23e-4f30-b8ee-5b9c20c0b35c" d="m355.81,266.02s-12.03-13.06-30.94-8.41c-18.91,4.65-22.24,17.83-22.24,17.83,0,0,4.67-2.21,16.75,2.13,13.15,4.72,26.28,6.55,36.44-11.56Z"/><path class="uuid-dda132b2-d95f-4871-a7b1-064b32f66064" d="m392.88,282.4c-.96-3.83,2.35-6.41,3.64-6.27"/><path class="uuid-dda132b2-d95f-4871-a7b1-064b32f66064" d="m383.25,287.76s-8.04-3.26-10.63,2.87"/><path class="uuid-dda132b2-d95f-4871-a7b1-064b32f66064" d="m359.32,346.45s12.64,5.68,19.82-15.93c7.18-21.6,20.27-25.8,29.59-26.01,8.62-.19,14.74,6.51,15.63-1.82"/><path class="uuid-dda132b2-d95f-4871-a7b1-064b32f66064" d="m410.64,318.97s-8.52-3.06-10.82,6.7"/><g><path class="uuid-58a45e6e-6234-4179-aa22-3da84e379254" d="m429.31,260.28c2.49-10.53,5.84-14.74,5.84-14.74l-9.77-21.26c-4.02,9.63-1.63,16.37-3.35,25.95-1.72,9.57-6.46,19.68-15.99,22.79,14.55,2.87,20.78-2.2,23.27-12.73Z"/><path class="uuid-658b5f94-e9af-4c82-a1e0-8418994c6472" d="m440.49,262.7c-.69,13.12-12.07,25.43-16.8,26.06,13.66,2.79,19.86-3.49,19.86-3.49l-3.06-22.57Z"/><path class="uuid-58a45e6e-6234-4179-aa22-3da84e379254" d="m320.36,303.41c-18.67-1.54-31.68-8.26-49.26,1.54-3.48,1.94,9.34,15.51,9.34,15.51,5.6-4.74,15.94-6.61,38.49-6.75,22.55-.14,26.73-13.71,26.73-13.71,0,0-6.62,4.95-25.29,3.41Z"/><path class="uuid-658b5f94-e9af-4c82-a1e0-8418994c6472" d="m301.55,347.9s25.95-8.05,35.43-22.99c-11.92,7.61-36.58,4.89-46.06,12.22l10.63,10.77Z"/></g></g></g><path class="uuid-dda132b2-d95f-4871-a7b1-064b32f66064" d="m292.18,151.63c-45.29,18.53-57.04,82.27-16.83,154.86,40.21,72.59,92.47,79.78,131.35,57.32,32.27-18.64,50.95-86.94,11.5-148.35-38.38-59.74-88.11-79.35-126.02-63.84h0Z"/></g></g></g></g></g></svg>
</svg>