<?xml version="1.0" encoding="UTF-8"?>
<svg xmlns="http://www.w3.org/2000/svg" viewBox="0 0 600 600">
<svg id="uuid-c55b6f18-22d9-42e7-94a5-9418063ab399" data-name="BACKGROUND" xmlns="http://www.w3.org/2000/svg" viewBox="0 0 600 600"><defs><style>
      .uuid-65b83bcd-5755-41b5-8f46-23c20c164524 {
        fill: #9dff0c;
      }
    </style></defs><rect class="uuid-65b83bcd-5755-41b5-8f46-23c20c164524" x="-1" y="-1" width="602" height="602"/></svg>
<svg id="uuid-dbde9422-7524-4caa-9aef-973de947a85a" data-name="BACKGROUND" xmlns="http://www.w3.org/2000/svg" viewBox="0 0 600 600"><defs><style>
      .uuid-00b29d56-32db-44bc-b865-b505689ce7f2, .uuid-bc0c1d1d-f35d-4801-ab0a-7ed1f6579806 {
        fill: #fff;
      }

      .uuid-721045bb-6a0a-43b1-bbbb-700680bef5ac, .uuid-8bce232e-cf9f-4930-aa41-bc826f060c10, .uuid-bc0c1d1d-f35d-4801-ab0a-7ed1f6579806, .uuid-7a18d1de-3b5c-43f4-b300-729f0a8ada13, .uuid-9a9b3e9a-3b64-462c-a5b9-1ed4fe14cc54, .uuid-49737ab1-df19-44de-9973-63511c143097, .uuid-f441cade-332c-4c12-ac30-b324c1b26b62 {
        stroke: #000;
        stroke-width: 2px;
      }

      .uuid-721045bb-6a0a-43b1-bbbb-700680bef5ac, .uuid-8bce232e-cf9f-4930-aa41-bc826f060c10, .uuid-bc0c1d1d-f35d-4801-ab0a-7ed1f6579806, .uuid-49737ab1-df19-44de-9973-63511c143097 {
        stroke-miterlimit: 10;
      }

      .uuid-721045bb-6a0a-43b1-bbbb-700680bef5ac, .uuid-8bce232e-cf9f-4930-aa41-bc826f060c10, .uuid-7a18d1de-3b5c-43f4-b300-729f0a8ada13, .uuid-f441cade-332c-4c12-ac30-b324c1b26b62 {
        fill: #ffc9f1;
      }

      .uuid-8bce232e-cf9f-4930-aa41-bc826f060c10, .uuid-bc0c1d1d-f35d-4801-ab0a-7ed1f6579806, .uuid-7a18d1de-3b5c-43f4-b300-729f0a8ada13, .uuid-9a9b3e9a-3b64-462c-a5b9-1ed4fe14cc54, .uuid-49737ab1-df19-44de-9973-63511c143097 {
        stroke-linecap: round;
      }

      .uuid-7a18d1de-3b5c-43f4-b300-729f0a8ada13, .uuid-9a9b3e9a-3b64-462c-a5b9-1ed4fe14cc54, .uuid-f441cade-332c-4c12-ac30-b324c1b26b62 {
        stroke-linejoin: round;
      }

      .uuid-9a9b3e9a-3b64-462c-a5b9-1ed4fe14cc54 {
        fill: none;
      }

      .uuid-49737ab1-df19-44de-9973-63511c143097 {
        fill: #a07bff;
      }
    </style></defs><path class="uuid-7a18d1de-3b5c-43f4-b300-729f0a8ada13" d="m409.81,359.6c9.2,3.77,29.89,12.05,42.79,16.03,2.11.65,4.41.69,6.5-.04,11.79-4.08,28.47-11.39,33.03-11.32,5.25.08,7.8,3.93,19.88,2.04,13.36-2.1,22.43-11.99,20.93-23.3-4.21-43.28-25.18-26.79-25.18-26.79,0,0-5.84-8.75-18.76-4.82-11.83,3.6-10.2,14.44-6.47,22.47l-25.29,8.58c-2.14.72-4.45.71-6.59-.02l-35.7-12.61"/><path class="uuid-8bce232e-cf9f-4930-aa41-bc826f060c10" d="m533.36,312.82c2.5,3.94,1.62,9.14-1.57,12.4-2.47,2.53-5.88,3.88-9.32,4.4-2.8.43-5.7.42-8.49-.08-2.14-.39-4.29-1.1-5.79-2.75-1.66-1.83-2.27-4.46-1.98-6.87.51-4.17,3.84-7.14,7.22-9.26,3.17-1.98,6.86-3.26,10.64-3.09,3.8.18,7.36,2.19,9.3,5.24Z"/><path class="uuid-8bce232e-cf9f-4930-aa41-bc826f060c10" d="m538.57,349.84c.97,3.03.32,6.43-1.5,9.01-3.77,5.33-11.17,5.65-16.96,4.27-3.31-.79-6.69-2.21-8.67-5.13-3.13-4.61-.82-9.79,3.48-12.56,2.58-1.66,5.61-2.67,8.63-3.14,5.73-.89,13.1,1.51,15.03,7.56Z"/><path class="uuid-8bce232e-cf9f-4930-aa41-bc826f060c10" d="m538.71,328.53c1.8,2.99,2.06,6.89.22,9.9-1.95,3.2-4.94,5.25-8.49,6.28-3.66,1.07-7.64,1.27-11.4.44-2.25-.5-4.53-1.38-5.96-3.28-1.86-2.47-1.89-5.68-.85-8.49,1.2-3.24,4.17-5.69,7.09-7.37,6.15-3.56,15.21-4.43,19.39,2.52Z"/><path class="uuid-8bce232e-cf9f-4930-aa41-bc826f060c10" d="m501.85,311.68s9.27,3.84,7.77,12.02c-1.04,5.68-8.17,9.55-14.94,6.13"/><path class="uuid-9a9b3e9a-3b64-462c-a5b9-1ed4fe14cc54" d="m500.67,331.08c2.41,1.63,5.11,8.04,3.4,14.42"/><path d="m443.44,339.88c-2.88,10.58-6.94,20.23-11.17,28.59-10.17-3.78-21.16-9.53-27-11.93l11.83-26.02,26.35,9.36Z"/><ellipse cx="300" cy="518.65" rx="138.6" ry="22.93"/><path class="uuid-721045bb-6a0a-43b1-bbbb-700680bef5ac" d="m319.36,427.14c-1.16,1.05-54.95,57-54.95,57,0,0,21.51-1.95,31.74,10.62,10.23,12.57,7.26,23.89,7.26,23.89h-66.9s-28.69-36.17-28.69-36.17c0,0,3.74-13.4,20.44-10.59,20.9-19.38,55.52-59.13,55.52-59.13l35.59,14.38Z"/><path d="m283.78,412.76l31.28,12.64-3.24,9.5c-2.93,3.03-9.76,10.12-13.64,14.14-11.92,0-27.98-2.13-41.33-6.37,13.95-15.1,26.93-29.92,26.93-29.92Z"/><path class="uuid-721045bb-6a0a-43b1-bbbb-700680bef5ac" d="m354.45,173.54l-.11.27-174.2,58.29c-11.49,20.13-18.05,43.43-18.05,68.27,0,76.2,61.77,137.98,137.97,137.98s137.98-61.77,137.98-137.98c0-56.89-34.43-105.72-83.58-126.83Z"/><path class="uuid-9a9b3e9a-3b64-462c-a5b9-1ed4fe14cc54" d="m264.41,484.14c-4.06.49-11.49,1.36-17.85,7.23"/><path class="uuid-00b29d56-32db-44bc-b865-b505689ce7f2" d="m185.17,308.14c-4.41,0-7.98-3.57-7.98-7.98,0-67.74,55.11-122.86,122.86-122.86,4.41,0,7.98,3.57,7.98,7.98s-3.57,7.98-7.98,7.98c-58.94,0-106.9,47.95-106.9,106.9,0,4.41-3.57,7.98-7.98,7.98Z"/><path d="m203.75,397.46l34.2-27.46-24.86,36.3c-6.73-5.1-3.66-2.61-9.34-8.83Z"/><path class="uuid-f441cade-332c-4c12-ac30-b324c1b26b62" d="m323.72,387.31c19.14-13.4,39.15-11.3,55.52,7.36,19.6,22.35,30.57,33.06,30.57,33.06,0,0,10.74-19.34,34.77-17.5,18.26,1.4,24.84,14.43,24.84,14.43,0,0,6.21,8.82-22.45,33.5-28.66,24.68-54.93,40.92-61.14,29.46-6.21-11.46-2.82-32.1-2.82-32.1,0,0-22.02-26.09-27.94-32.01-6.79-6.79-15.71-1.36-15.71-1.36"/><path class="uuid-721045bb-6a0a-43b1-bbbb-700680bef5ac" d="m446.97,458.17c-25.89,22.29-49.82,37.69-58.79,32.02-9.77-7.44,26.84-38.54,44.88-52.7,18.04-14.16,32.17-17.82,36.36-12.81,0,0,6.21,8.82-22.45,33.5Z"/><path class="uuid-9a9b3e9a-3b64-462c-a5b9-1ed4fe14cc54" d="m409.81,427.74c-1.89,2.86-4.55,10.38-4.55,10.38"/><ellipse class="uuid-bc0c1d1d-f35d-4801-ab0a-7ed1f6579806" cx="269.41" cy="209.07" rx="94.9" ry="26.25" transform="translate(-52.5 96.54) rotate(-18.55)"/><ellipse class="uuid-49737ab1-df19-44de-9973-63511c143097" cx="269.41" cy="209.07" rx="71.19" ry="13.32" transform="translate(-52.5 96.54) rotate(-18.55)"/><g><path class="uuid-7a18d1de-3b5c-43f4-b300-729f0a8ada13" d="m214.11,345.7c-8.05,5.83-25.34,20.79-35.52,29.67-1.67,1.45-2.82,3.41-3.39,5.55-3.14,11.67-8.55,33.44-8.55,33.44,0,0-8.42.58-12.19,14.35-3.64,13.3-6.64,25.06,3.77,29.75.35,7.47,7.51,15.45,19.2,9.41.14-.06,1.32,1.32,1.44,1.45,2.64,2.7,6.36,4.45,10.13,4.81,3.65.36,7.61-.67,10.43-3.08,3.29-2.81,5.4-6.94,6.05-11.2.4-2.61.26-5.31-.75-7.78,0,0,6.2-2.51,8.05-11.34,1.99-9.49-4.22-19.42-14.62-18.18l6.17-23.11c.51-2.2,1.74-4.16,3.49-5.59l29.38-24.3"/><path class="uuid-9a9b3e9a-3b64-462c-a5b9-1ed4fe14cc54" d="m204.73,452.06c-1.37-3.47-5.39-7.08-9-6.88"/><path class="uuid-9a9b3e9a-3b64-462c-a5b9-1ed4fe14cc54" d="m178.86,469.3c-5.16-5.27-3.82-11.97-2.9-13.54"/><path class="uuid-9a9b3e9a-3b64-462c-a5b9-1ed4fe14cc54" d="m158.22,458.45c-.27-5.22.73-7.32,3.06-9.83"/><path class="uuid-9a9b3e9a-3b64-462c-a5b9-1ed4fe14cc54" d="m193.93,450.63c.14-2.07.48-4.16,1.32-6.06.85-1.95,2.36-3.88,4.31-4.85"/></g></svg>
<svg id="uuid-783ed389-68eb-43cd-8772-5f49b9e71529" data-name="BODY" xmlns="http://www.w3.org/2000/svg" viewBox="0 0 600 600"><defs><style>
      .uuid-f7dbff45-408d-444d-ade6-4633d32cb1f2 {
        fill: none;
        stroke: #000;
        stroke-linecap: round;
        stroke-linejoin: round;
        stroke-width: 4px;
      }
    </style></defs><g id="uuid-4bc92f06-c84b-4f7f-af09-c2014f1ce8f9" data-name="mouth"><path d="m371.37,289.99c1.76,5.11-.95,10.68-6.06,12.44s-10.68-.95-12.44-6.06l18.49-6.38Z"/></g><g id="uuid-285df2d9-fba6-4a75-9123-94e1b459206d" data-name="eye L"><path class="uuid-f7dbff45-408d-444d-ade6-4633d32cb1f2" d="m346.88,270.76c1.76,5.11-.95,10.68-6.06,12.44s-10.68-.95-12.44-6.06"/></g><g id="uuid-a97f4a4e-8c90-4af2-892b-9ce222650c5a" data-name="eye R"><path class="uuid-f7dbff45-408d-444d-ade6-4633d32cb1f2" d="m378.79,259.75c1.76,5.11-.95,10.68-6.06,12.44-5.11,1.76-10.68-.95-12.44-6.06"/></g></svg>
<svg id="uuid-e841498c-55c3-4d9f-8ace-c1b8b9efc135" data-name="BODY" xmlns="http://www.w3.org/2000/svg" viewBox="0 0 600 600"><defs><style>
      .uuid-b9812257-c906-4e93-8146-fa4aaaacb7ce {
        fill: #8400ff;
        stroke-width: 2px;
      }

      .uuid-b9812257-c906-4e93-8146-fa4aaaacb7ce, .uuid-1b55ef73-e9ab-43e6-a97f-dda887829be0, .uuid-37beb49c-51ae-451b-8188-1d8cf69c0606, .uuid-bd4034d5-ac18-4945-8cdc-addf3b014d42, .uuid-70c6d8d3-22bd-4221-8de1-c7ceb81cf552, .uuid-4fe9a34b-1521-4fbf-945b-d5e11a4b86ef {
        stroke: #000;
        stroke-linecap: round;
        stroke-linejoin: round;
      }

      .uuid-1b55ef73-e9ab-43e6-a97f-dda887829be0 {
        fill: #a07bff;
      }

      .uuid-1b55ef73-e9ab-43e6-a97f-dda887829be0, .uuid-37beb49c-51ae-451b-8188-1d8cf69c0606, .uuid-bd4034d5-ac18-4945-8cdc-addf3b014d42, .uuid-70c6d8d3-22bd-4221-8de1-c7ceb81cf552, .uuid-4fe9a34b-1521-4fbf-945b-d5e11a4b86ef {
        stroke-width: 2px;
      }

      .uuid-37beb49c-51ae-451b-8188-1d8cf69c0606 {
        fill: #fff7f0;
      }

      .uuid-bd4034d5-ac18-4945-8cdc-addf3b014d42 {
        fill: #00dfa9;
      }

      .uuid-70c6d8d3-22bd-4221-8de1-c7ceb81cf552 {
        fill: none;
      }

      .uuid-4fe9a34b-1521-4fbf-945b-d5e11a4b86ef {
        fill: #f9a723;
      }
    </style></defs><g id="uuid-1ecb4ac4-6334-47b5-bcf5-1cfa68a912d4" data-name="uuid-67924808-bed2-4315-8b0f-852c10b31275"><g id="uuid-04ec4a5d-1356-4021-b3f2-5403f0e9fd89" data-name="uuid-eb446e14-179a-4a6b-a18e-2c17af3b9963"><g id="uuid-cb74ff1f-56e4-4807-b52f-03cecfcff0b2" data-name="uuid-658b195c-6763-44f4-b07d-29a4f88b4b9a"><g><path class="uuid-1b55ef73-e9ab-43e6-a97f-dda887829be0" d="m409.54,215.79s12.39,15.95,18.63,32.53c0,0,24.42-9.99,42.68-24.98,18.25-14.98,12.03-26.59,8.33-28.59-3.69-2-9.28.11-37.24-4.43-27.96-4.54-97.38-44.73-116.58-55.71-19.2-10.97-63.36-40.32-68.29-42.92s-19.57.14-37.76-3.15c-18.2-3.28-27.77-8.89-32.97-7.66-5.2,1.23-31.88,19.98-33.38,23.26-1.5,3.28,1.92,8.07,2.05,14.09.14,6.02-26,31.06-26.95,37.22-.96,6.16,4.65,28.46,4.52,39.68s-.82,22.44.27,24.35,13.82-6.98,16.42-11.9c2.6-4.93,6.84-26,6.84-26,0,0,5.24-.4,8.49-2.84,3.25-2.44,19.12-16.02,19.12-16.02,0,0,5.24,1.48,10.41.07-9.6,16.1-23.77,24.44-25.77,28.35s.08,11.49-9.33,34.21-35.24,54.66-39.03,58.83c-3.79,4.17-15.22,10.02-15.22,10.02,0,0-4.47-1.73-7.56,1.57s5.11,12.09,15.33,15.88c10.22,3.79,26.34,8.47,79.15,0,52.81-8.47,73.12-20.66,121.32-50.45,48.2-29.79,96.53-45.43,96.53-45.43h0Z"/><path class="uuid-70c6d8d3-22bd-4221-8de1-c7ceb81cf552" d="m476.25,193.91c-27.42.16-48.94,5.22-90.08,18.3-41.15,13.08-92,48.53-130.19,68.16-38.19,19.62-78.07,20.47-108.67,23.42-30.6,2.95-39.49-7-42.53-9.57"/><path class="uuid-70c6d8d3-22bd-4221-8de1-c7ceb81cf552" d="m409.54,215.79c12.75-4.54,37.46-9.17,50.36-10.74s13.78,1.38,13.78,1.38"/><path class="uuid-70c6d8d3-22bd-4221-8de1-c7ceb81cf552" d="m417.24,226.97s11.09-4.86,17.57-9.12"/><path class="uuid-70c6d8d3-22bd-4221-8de1-c7ceb81cf552" d="m423.18,237.38s22.45-11.98,32.12-19.52"/><path class="uuid-70c6d8d3-22bd-4221-8de1-c7ceb81cf552" d="m441.94,190.32c-19.94-2.24-44.22-5.82-44.22-5.82"/><path class="uuid-70c6d8d3-22bd-4221-8de1-c7ceb81cf552" d="m194.12,162.8c6.23-10.79,11.54-28.79,12.15-33.73.62-4.93-3.82-7.4-7.03-6.66"/><path class="uuid-70c6d8d3-22bd-4221-8de1-c7ceb81cf552" d="m183.71,162.73c-5.1-.9-12.17-9.24-12.49-11.94-.32-2.7,3.49-18.58,1.75-33.43"/><path class="uuid-70c6d8d3-22bd-4221-8de1-c7ceb81cf552" d="m154.65,115.07c2.03,11.59.72,26.83,0,33.89-.72,7.05-.14,8.92.54,9.89s6.68,2.49,7.81,3.96"/><path class="uuid-70c6d8d3-22bd-4221-8de1-c7ceb81cf552" d="m156.1,181.59c-3.65.58-5.8-.12-8.04-1.11-2.38-1.05-3.95-12.36-5.27-17.19"/><path class="uuid-70c6d8d3-22bd-4221-8de1-c7ceb81cf552" d="m335.73,140.54c1.67-2.59,2.1-4.28.41-5.76"/><path class="uuid-70c6d8d3-22bd-4221-8de1-c7ceb81cf552" d="m164.81,208.67c-2.09-.11-3.91-1.33-3.36-2.76"/><path class="uuid-bd4034d5-ac18-4945-8cdc-addf3b014d42" d="m355.57,140.81c-12.38-1.56-10.37-8.7-15.39-10.71-5.27-2.11-14.82,4.51-14.82,4.51l10.37,5.92s-15.02,24.19-49.37,43.02c-34.35,18.83-68.31,23.41-88.29,24.55-19.97,1.15-33.26.56-33.26.56,0,0,1.36-5.56,1.7-7.77,0,0-7.97,1.77-9.4,3.29-1.42,1.51.53,9.7-2.05,14.33-2.58,4.63-8.37,7.92-8.9,10.24-.53,2.31.01,8.1,18.95,10.06,18.94,1.96,75.9-.02,118.72-16.4,42.82-16.38,71.7-49.44,80.57-68.92,3.03-6.65,3.53-11.13-8.84-12.69h0Zm-134.06,84.05c-2.01,0-3.64-1.63-3.64-3.64s1.63-3.64,3.64-3.64,3.64,1.63,3.64,3.64-1.63,3.64-3.64,3.64Zm38.94-9.23c-.94,1.78-3.14,2.46-4.92,1.53s-2.46-3.14-1.53-4.92c.94-1.78,3.14-2.46,4.92-1.53,1.78.94,2.46,3.14,1.53,4.92Zm30.7-11.73c-.94,1.78-3.14,2.46-4.92,1.53s-2.46-3.14-1.53-4.92,3.14-2.46,4.92-1.53c1.78.94,2.46,3.14,1.53,4.92h0Zm52.2-41.38c-.94,1.78-3.14,2.46-4.92,1.53-1.78-.94-2.46-3.14-1.53-4.92.94-1.78,3.14-2.46,4.92-1.53s2.46,3.14,1.53,4.92h0Z"/><g><path class="uuid-4fe9a34b-1521-4fbf-945b-d5e11a4b86ef" d="m304.33,172.12c2.44-1.85,8.58,3.13,14.24,10.26,5.66,7.12,10.29,13.79,8.11,15.49s-19.37,15.02-33.85,20.78c0,0,3.77,4.16,7.88,4.6s29.93-17.25,33.14-21.04c3.22-3.79,4.08-11.35-8.75-25.59s-17.33-17.24-24.57-11.52c-7.24,5.72-18.76,12.69-22.07,14.56s-6.24,4.25-4.06,9.85c0,0,16.89-7.52,29.91-17.39h0Z"/><path class="uuid-4fe9a34b-1521-4fbf-945b-d5e11a4b86ef" d="m309.11,184.56c4.54-4.18,11.26-8.6,14.39-10.46,3.13-1.86,6.86,1.78,4.18,4.68-2.68,2.91-9.72,8.38-14.12,11.09-4.39,2.71-8.55-1.54-4.45-5.31h0Z"/></g><g><path class="uuid-37beb49c-51ae-451b-8188-1d8cf69c0606" d="m179.59,222.95c6.18-19.83-.94-36.05-.94-36.05,0,0,3.89-5.23,7.77-8.31.94,2.41,1.8,8.04,3.78,6.97s.78-9.51,1.18-9.51,13-4.56,22.51,10.99c-7.1,13-10.72,23.73-13,35.92-2.28,12.19-1.61,42.47-1.61,43.81s-4.53,9.38-22.1,8.17-19.71-18.36-18.24-20.9c1.47-2.55,12.86-6.15,20.64-31.08h0Z"/><path class="uuid-70c6d8d3-22bd-4221-8de1-c7ceb81cf552" d="m195.25,271.53c3.2-4.63.78-14.34-13.42-15.92s-15.24,1.69-14.35,5.16c.89,3.46,6.15,9.04,16.03,8.51l1.54-13.13"/><path class="uuid-70c6d8d3-22bd-4221-8de1-c7ceb81cf552" d="m199.19,256.53c-2.65-7.01-33.34-9.01-40.24-2.5"/><line class="uuid-70c6d8d3-22bd-4221-8de1-c7ceb81cf552" x1="201.26" y1="176.21" x2="199.31" y2="183.29"/></g><path class="uuid-bd4034d5-ac18-4945-8cdc-addf3b014d42" d="m204.37,217.21c-8.43,1.09-22.28.97-26.51.9-.75-.01-1.41.48-1.62,1.19l-2,6.87c-.29,1.01.41,2.04,1.46,2.12,4.58.36,16.32.98,28.74-.77.78-.11,1.38-.77,1.42-1.56l.37-7.03c.05-1.03-.83-1.87-1.86-1.73h0Z"/><g><ellipse class="uuid-b9812257-c906-4e93-8146-fa4aaaacb7ce" cx="246.93" cy="133.96" rx="6.31" ry="7.02" transform="translate(-25.95 200.71) rotate(-42.22)"/><ellipse class="uuid-b9812257-c906-4e93-8146-fa4aaaacb7ce" cx="265.69" cy="116.94" rx="6.31" ry="7.02" transform="translate(-9.65 208.9) rotate(-42.22)"/><ellipse class="uuid-b9812257-c906-4e93-8146-fa4aaaacb7ce" cx="270.5" cy="141.09" rx="6.31" ry="7.02" transform="translate(-24.63 218.4) rotate(-42.22)"/></g></g></g></g></g></svg>
</svg>