<?xml version="1.0" encoding="UTF-8"?>
<svg id="uuid-ec6bbb75-3cf4-4b44-b318-cb511a824535" data-name="COCOBAY" xmlns="http://www.w3.org/2000/svg" viewBox="0 0 600 600">
  <defs>
    <style>
      .uuid-8570e2a2-2640-4586-b2a2-04bac616f556 {
        fill: #ff78d8;
      }

      .uuid-8570e2a2-2640-4586-b2a2-04bac616f556, .uuid-fe6bfd53-73d1-47e8-a3dc-cbda633064c8, .uuid-68d609e8-6aca-444b-af3a-594f0026c289 {
        stroke: #000;
        stroke-linecap: round;
        stroke-linejoin: round;
        stroke-width: 2px;
      }

      .uuid-62030cc4-88cc-4c52-96bd-916ca6f38813 {
        fill: #ffc9f1;
      }

      .uuid-fe6bfd53-73d1-47e8-a3dc-cbda633064c8 {
        fill: #7aa6ff;
      }

      .uuid-68d609e8-6aca-444b-af3a-594f0026c289 {
        fill: none;
      }
    </style>
  </defs>
  <g id="uuid-831834e0-bbb8-426a-8cd6-ab5c8fbbbe1c" data-name="OBJECT LEFT">
    <g id="uuid-1fcb06a8-7212-4847-8b3f-ceda00c046b1" data-name="Capa 44">
      <g id="uuid-e9ed0fb3-5d7b-4b33-9f9b-ca7aaa2c4c4e" data-name="Capa 45">
        <circle class="uuid-8570e2a2-2640-4586-b2a2-04bac616f556" cx="489.6947" cy="199.9262" r="51.0319"/>
        <path class="uuid-8570e2a2-2640-4586-b2a2-04bac616f556" d="M543.9803,181.6846c-2.3246-4.4585-15.681-16.2744-58.2734-10.3295s-52.2029,20.9665-53.2179,25.8911c-.8458,4.1048,.2718,25.6592,12.1429,26.7067-2.4836-5.6043-3.3892-10.6587-3.3892-10.6587,0,0-1.0368-13.0826,47.5454-19.8636,48.4355-6.7605,51.1673,6.0856,51.1673,6.0856,0,0,.513,5.1092-.3411,11.1794,11.1306-4.258,6.3035-25.2947,4.366-29.011Z"/>
        <g>
          <path class="uuid-62030cc4-88cc-4c52-96bd-916ca6f38813" d="M492.2482,237.4978c1.3187-.8028-2.8275-7.7903-4.8803-20.6513s-1.2077-17.4259-3.7893-17.4522-1.7506,8.236,.0493,18.361,6.4226,21.0805,8.6204,19.7426Z"/>
          <path class="uuid-62030cc4-88cc-4c52-96bd-916ca6f38813" d="M465.3595,219.8539c-2.1579,1.3436-9.6446-7.2255-9.3786-8.5516s4.453-3.6506,5.4072-2.8171,5.0387,10.7041,3.9714,11.3687Z"/>
          <path class="uuid-62030cc4-88cc-4c52-96bd-916ca6f38813" d="M507.7909,240.8065c.6547,2.4312,7.8962-2.0689,12.6579-6.2781s8.2341-8.8831,6.6947-10.215-5.3822,3.4581-9.6999,7.1542-10.0542,7.8482-9.6528,9.3389Z"/>
          <path class="uuid-62030cc4-88cc-4c52-96bd-916ca6f38813" d="M528.6598,221.2659c1.3146,.689,5.74-5.9732,3.9245-6.6865s-6.0367,5.5795-3.9245,6.6865Z"/>
          <path class="uuid-62030cc4-88cc-4c52-96bd-916ca6f38813" d="M517.5737,174.2191s2.6746,7.6183,2.9982,13.6313c6.31-.0429,12.9185,2.5149,12.9185,2.5149,0,0-3.0723-9.4573-7.1273-14.4984,0,0-4.2692-1.6423-8.7894-1.6478Z"/>
          <path class="uuid-62030cc4-88cc-4c52-96bd-916ca6f38813" d="M446.909,187.4014c-.9279-.3251-6.2628,3.6132-6.5465,4.8129s.5223,10.2066,1.9095,11.1409,7.9912-14.7785,4.637-15.9537Z"/>
          <path class="uuid-62030cc4-88cc-4c52-96bd-916ca6f38813" d="M475.3335,176.5702c-1.1837,.6765-2.8868,14.8716-2.6317,15.545s15.4242-1.9273,16.1666-2.611,1.3373-14.4298,1.0998-14.9767-12.8441,1.0194-14.6347,2.0427Z"/>
          <path class="uuid-62030cc4-88cc-4c52-96bd-916ca6f38813" d="M498.2857,155.8527c-1.4789,3.026,14.4878,8.5635,15.0015,6.7034s-12.1813-12.4742-15.0015-6.7034Z"/>
          <path class="uuid-62030cc4-88cc-4c52-96bd-916ca6f38813" d="M483.5796,154.844c-.4883,2.4306,7.4521,3.4068,7.9625,.4837s-7.373-3.4178-7.9625-.4837Z"/>
          <path class="uuid-62030cc4-88cc-4c52-96bd-916ca6f38813" d="M455.96,168.6725c.5079,3.3733,9.8169-2.8525,8.1151-5.5796s-8.557,2.6445-8.1151,5.5796Z"/>
          <path class="uuid-62030cc4-88cc-4c52-96bd-916ca6f38813" d="M540.2308,182.7863c-3.6206-1.6395-.5813,3.9158,.101,7.8808s.5744,8.0403,1.6256,8.1836,1.4545-4.5855,1.0802-8.8836-.4678-6.1218-2.8069-7.1809Z"/>
        </g>
        <g>
          <path class="uuid-fe6bfd53-73d1-47e8-a3dc-cbda633064c8" d="M498.3319,310.637h0s5.1782,.7061,9.2852,5.394c2.4995-3.4116,4.4736-4.478,4.4736-4.478l-9.4238-67.5176s-.415-2.9717-7.1001-2.0381c-6.686,.9331-6.2705,3.9043-6.2705,3.9043l9.0356,64.7354Z"/>
          <path class="uuid-fe6bfd53-73d1-47e8-a3dc-cbda633064c8" d="M519.2435,362.7981c-14.4971-4.3931-8.79-16.1895-2.5605-18.3428h0c-5.561-1.9624-7.1089-9.8784-2.0664-14.8052h0c-4.2754-.2798-6.3413-2.7598-6.3413-2.7598,0,0-2.499,4.3032-7.0854,4.2212h0l14.6304,104.8198s.4146,2.9712,7.1001,2.0386c6.6851-.9336,6.2705-3.9043,6.2705-3.9043l-9.9473-71.2676Z"/>
          <path class="uuid-68d609e8-6aca-444b-af3a-594f0026c289" d="M515.8202,435.9316c-.5691-4.0775,12.8013-5.9437,13.3704-1.8662"/>
        </g>
      </g>
    </g>
  </g>
</svg>