<?xml version="1.0" encoding="UTF-8"?>
<svg id="uuid-e0da36c3-0a5e-434c-a30f-10730042aaed" data-name="COCOBAY" xmlns="http://www.w3.org/2000/svg" xmlns:xlink="http://www.w3.org/1999/xlink" viewBox="0 0 600 600">
  <defs>
    <style>
      .uuid-a87a9e25-b30c-45ca-bf75-1b1c86cc1e51, .uuid-6bf05d3f-88be-4a94-9e3c-108cacdc340a, .uuid-46713697-74b3-4a0a-9ab5-60e8805d3bd6, .uuid-0f4a7346-cf3b-4bc8-95f2-4bf95aeadc17 {
        stroke: #000;
        stroke-linecap: round;
        stroke-linejoin: round;
        stroke-width: 2px;
      }

      .uuid-a87a9e25-b30c-45ca-bf75-1b1c86cc1e51, .uuid-9e29bb00-4b09-457a-9ee4-7d730b396db0 {
        fill: #ff78d8;
      }

      .uuid-6bf05d3f-88be-4a94-9e3c-108cacdc340a {
        fill: #a07bff;
      }

      .uuid-46a135de-2fdb-4eae-b0f0-8e3cb23d98d9 {
        clip-path: url(#uuid-469d3ffa-8778-4c9a-9ce9-a8f439448c64);
      }

      .uuid-46713697-74b3-4a0a-9ab5-60e8805d3bd6 {
        fill: #f9a723;
      }

      .uuid-0f4a7346-cf3b-4bc8-95f2-4bf95aeadc17 {
        fill: none;
      }
    </style>
    <clipPath id="uuid-469d3ffa-8778-4c9a-9ce9-a8f439448c64">
      <path class="uuid-a87a9e25-b30c-45ca-bf75-1b1c86cc1e51" d="M470.3706,263.4037c.2589,.0863,13.3753,2.7613,25.8014-5.8679,11.1317,5.1775,27.6998,3.163,27.6998,3.163,0,0,7.5937,12.4559,22.6948,13.5777,4.142,19.4157,22.6086,26.8369,22.6086,26.8369,0,0-5.5227,18.4665,8.284,26.578-6.1267,14.5834,0,28.3901,0,28.3901,0,0-13.289,9.4921-11.3043,25.7151-11.9083,.9492-17.431,20.7101-17.431,20.7101l-42.0243-54.7092s3.6639-4.8551,2.1573-10.0962-5.8431-7.0506-5.8431-7.0506c0,0,6.8969-2.1993,6.762-8.6322s-7.3575-13.7496-19.4428-11.0573l-19.9624-47.5575Z"/>
    </clipPath>
  </defs>
  <g id="uuid-ac3cc490-8b26-46d1-bbbf-b285b8fc2132" data-name="OBJECT LEFT">
    <g id="uuid-d903f005-6b44-47ef-b972-97b0f19dbeba" data-name="Capa 54">
      <g id="uuid-5c0abff7-8440-4649-be7a-ff1b81cfa8e1" data-name="Capa 55">
        <g>
          <g>
            <path class="uuid-9e29bb00-4b09-457a-9ee4-7d730b396db0" d="M470.3706,263.4037c.2589,.0863,13.3753,2.7613,25.8014-5.8679,11.1317,5.1775,27.6998,3.163,27.6998,3.163,0,0,7.5937,12.4559,22.6948,13.5777,4.142,19.4157,22.6086,26.8369,22.6086,26.8369,0,0-5.5227,18.4665,8.284,26.578-6.1267,14.5834,0,28.3901,0,28.3901,0,0-13.289,9.4921-11.3043,25.7151-11.9083,.9492-17.431,20.7101-17.431,20.7101l-42.0243-54.7092s3.6639-4.8551,2.1573-10.0962-5.8431-7.0506-5.8431-7.0506c0,0,6.8969-2.1993,6.762-8.6322s-7.3575-13.7496-19.4428-11.0573l-19.9624-47.5575Z"/>
            <g class="uuid-46a135de-2fdb-4eae-b0f0-8e3cb23d98d9">
              <g>
                <polygon class="uuid-6bf05d3f-88be-4a94-9e3c-108cacdc340a" points="569.1751 301.1134 506.1349 337.0983 502.2242 333.4758 546.5666 274.2766 569.1751 301.1134"/>
                <polygon class="uuid-6bf05d3f-88be-4a94-9e3c-108cacdc340a" points="523.8717 260.6989 505.5102 318.7491 499.6678 315.7413 496.1719 257.5359 523.8717 260.6989"/>
                <polygon class="uuid-6bf05d3f-88be-4a94-9e3c-108cacdc340a" points="577.4592 327.6914 506.7419 338.2902 506.7419 342.1048 577.4592 356.0815 577.4592 327.6914"/>
                <polygon class="uuid-6bf05d3f-88be-4a94-9e3c-108cacdc340a" points="566.1549 381.7966 506.7419 343.6793 505.5102 347.2802 548.7239 402.5067 566.1549 381.7966"/>
              </g>
            </g>
            <path class="uuid-0f4a7346-cf3b-4bc8-95f2-4bf95aeadc17" d="M470.3706,263.4037c.2589,.0863,13.3753,2.7613,25.8014-5.8679,11.1317,5.1775,27.6998,3.163,27.6998,3.163,0,0,7.5937,12.4559,22.6948,13.5777,4.142,19.4157,22.6086,26.8369,22.6086,26.8369,0,0-5.5227,18.4665,8.284,26.578-6.1267,14.5834,0,28.3901,0,28.3901,0,0-13.289,9.4921-11.3043,25.7151-11.9083,.9492-17.431,20.7101-17.431,20.7101l-42.0243-54.7092s3.6639-4.8551,2.1573-10.0962-5.8431-7.0506-5.8431-7.0506c0,0,6.8969-2.1993,6.762-8.6322s-7.3575-13.7496-19.4428-11.0573l-19.9624-47.5575Z"/>
          </g>
          <g>
            <path class="uuid-46713697-74b3-4a0a-9ab5-60e8805d3bd6" d="M499.1914,358.3133c-1.2304,.6836-.8071,10.4302-.5588,11.1752s6.4568,.5588,7.2018,0-.6829-11.0152-1.6142-11.574c-.7241-.4345-3.9113-.2221-5.0288,.3988Z"/>
            <g>
              <path class="uuid-a87a9e25-b30c-45ca-bf75-1b1c86cc1e51" d="M500.8883,367.4129s-.8977,3.237,.6856,15.0497c1.8885,14.0895,5.3116,20.5315-6.1053,36.3887,3.9316,2.514,8.0321,2.2448,8.0321,2.2448l4.0664-5.8597s.0769,4.8851-.179,6.6146c2.581,.5111,3.4-.6618,3.4-.6618,0,0,5.4701-6.7146,2.9617-22.3656s-7.1696-15.3705-10.3865-31.7624l-2.4751,.3517Z"/>
              <path class="uuid-a87a9e25-b30c-45ca-bf75-1b1c86cc1e51" d="M506.4747,402.9029c.6505-5.3247,.0427-10.4732-1.0618-15.3364"/>
              <path class="uuid-a87a9e25-b30c-45ca-bf75-1b1c86cc1e51" d="M499.1094,420.4961c2.6482-3.4978,4.4805-6.9723,5.6846-10.3966"/>
            </g>
            <path class="uuid-0f4a7346-cf3b-4bc8-95f2-4bf95aeadc17" d="M501.6269,357.7391c.2289-3.6099-.9611-6.9316-.9611-6.9316"/>
          </g>
          <path class="uuid-0f4a7346-cf3b-4bc8-95f2-4bf95aeadc17" d="M482.4896,292.2756c5.6265-2.2244,11.7586-3.4466,18.1762-3.4466,27.3167,0,49.4613,22.1446,49.4613,49.4613,0,16.3381-7.9216,30.826-20.1336,39.8324"/>
          <path class="uuid-46713697-74b3-4a0a-9ab5-60e8805d3bd6" d="M502.6359,348.6819c.1789,.1942,42.4233,58.6931,42.4233,58.6931l5.6305-4.05-43.5623-57.6548-4.4915,3.0117Z"/>
          <path class="uuid-46713697-74b3-4a0a-9ab5-60e8805d3bd6" d="M486.2155,312.5068l-22.6504-48.8578,7.8931-2.6671,20.1696,49.7758s-2.2551,.3215-5.4124,1.7491Z"/>
          <g>
            <path class="uuid-46713697-74b3-4a0a-9ab5-60e8805d3bd6" d="M511.5453,340.6783c0,5.6095-4.5474,10.1569-10.1569,10.1569s-10.1569-4.5474-10.1569-10.1569c0-4.4465,2.8572-8.2256,6.8359-9.6015,1.4207,.1638,3.3211,.0351,4.9465-.426,4.8369,.778,8.5315,4.9713,8.5315,10.0276Z"/>
            <circle class="uuid-0f4a7346-cf3b-4bc8-95f2-4bf95aeadc17" cx="501.3884" cy="340.6783" r="4.1217"/>
          </g>
          <path class="uuid-0f4a7346-cf3b-4bc8-95f2-4bf95aeadc17" d="M547.5811,292.4436c-2.1395,4.11-2.3053,9.1938-.4382,13.4346"/>
          <path class="uuid-0f4a7346-cf3b-4bc8-95f2-4bf95aeadc17" d="M539.6153,294.4171l-1.002,3.2998"/>
          <path class="uuid-0f4a7346-cf3b-4bc8-95f2-4bf95aeadc17" d="M505.3805,269.2354c.0839,4.7799,1.7717,9.5177,4.7287,13.2741"/>
          <path class="uuid-0f4a7346-cf3b-4bc8-95f2-4bf95aeadc17" d="M486.1666,274.4683l2.2442,3.9032"/>
          <path class="uuid-0f4a7346-cf3b-4bc8-95f2-4bf95aeadc17" d="M568.3,339.57c-3.2912,.5145-6.449,1.8612-9.0986,3.8803"/>
          <path class="uuid-0f4a7346-cf3b-4bc8-95f2-4bf95aeadc17" d="M551.173,384.34c-3.347-1.4145-7.1749-1.6602-10.6753-.685"/>
          <path class="uuid-0f4a7346-cf3b-4bc8-95f2-4bf95aeadc17" d="M548.4393,377.6636c-1.5851-.3444-3.244-.3451-4.8293-.0018"/>
        </g>
      </g>
    </g>
  </g>
</svg>