<?xml version="1.0" encoding="UTF-8"?>
<svg id="uuid-8dc435da-dbd9-4be7-9934-f2a251998553" data-name="COCOBAY" xmlns="http://www.w3.org/2000/svg" viewBox="0 0 600 600">
  <defs>
    <style>
      .uuid-a556db0e-5457-4726-a150-167f7311dfef {
        fill: #fff7f0;
      }

      .uuid-a556db0e-5457-4726-a150-167f7311dfef, .uuid-f2c63fa8-cc76-401a-8b5e-7c6b07fd125b, .uuid-b96ea201-e8a9-4196-b723-19b117a85552 {
        stroke: #000;
        stroke-linecap: round;
        stroke-linejoin: round;
        stroke-width: 2px;
      }

      .uuid-f2c63fa8-cc76-401a-8b5e-7c6b07fd125b {
        fill: #a07bff;
      }

      .uuid-b96ea201-e8a9-4196-b723-19b117a85552 {
        fill: none;
      }
    </style>
  </defs>
  <g id="uuid-c46f65ed-d275-49a6-b41b-9935c7f7cc5c" data-name="OBJECT LEFT">
    <g id="uuid-3d541555-fa28-433a-9ee6-066895a43351" data-name="Capa 56">
      <g id="uuid-1fe4f652-122b-4bcd-a2e3-81acaa81d790" data-name="Capa 57">
        <g>
          <path class="uuid-b96ea201-e8a9-4196-b723-19b117a85552" d="M508.2148,325.7768s-.9353,17.2052-1.531,29.1373c-.614,12.2983,4.87,21.9963,4.1746,36.9889"/>
          <g>
            <path class="uuid-a556db0e-5457-4726-a150-167f7311dfef" d="M498.1571,421.2276c-.1104,.1472-3.3845,1.3689-3.642,6.7544-2.8695-5.1358-1.5819-9.0353,2.428-10.2861l1.214,3.5316Z"/>
            <path class="uuid-a556db0e-5457-4726-a150-167f7311dfef" d="M504.9224,425.0111c-.0228,.1868,1.5435,3.5268-2.1082,7.4947,5.8022-1.4203,7.6263-5.1287,5.5328-9.0474l-3.4245,1.5527Z"/>
          </g>
          <path class="uuid-f2c63fa8-cc76-401a-8b5e-7c6b07fd125b" d="M500.3549,408.0404s-1.7439-14.9851,10.7809-16.0935,11.9083,19.1146,2.9682,21.2109c2.2196,4.7475-1.766,17.5307-13.8319,11.6529-7.0523-3.4355-5.5019-13.9564,.0827-16.7703Z"/>
          <path class="uuid-b96ea201-e8a9-4196-b723-19b117a85552" d="M500.3549,408.0404c2.7214-1.2838,6.4868-.5824,8.6279,.3036"/>
          <path class="uuid-b96ea201-e8a9-4196-b723-19b117a85552" d="M514.1041,413.1578c-.317-.8638-1.8784-2.2645-1.8784-2.2645"/>
          <path class="uuid-b96ea201-e8a9-4196-b723-19b117a85552" d="M504.0057,395.0953s-2.7009-5.9671-2.2343-8.5594,8.0086-8.885,8.0086-8.885"/>
          <path class="uuid-b96ea201-e8a9-4196-b723-19b117a85552" d="M508.7475,371.2798s12.3624,10.1234,13.6585,13.0786-3.3518,11.3951-3.3518,11.3951"/>
          <path class="uuid-b96ea201-e8a9-4196-b723-19b117a85552" d="M501.9383,398.0782s-5.9691-7.2061-8.6968-8.1153-8.5728,3.2984-8.5728,3.2984"/>
          <path class="uuid-b96ea201-e8a9-4196-b723-19b117a85552" d="M500.4762,403.1505s-6.3255-3.1859-9.1182-2.1468-5.91,7.6636-5.91,7.6636"/>
          <path class="uuid-b96ea201-e8a9-4196-b723-19b117a85552" d="M520.6633,403.1551s7.5838-3.4504,10.7661-3.4504,7.0141,7.6327,7.0141,7.6327"/>
          <path class="uuid-b96ea201-e8a9-4196-b723-19b117a85552" d="M519.4969,408.1191s6.9318,2.7562,7.7761,5.8087,0,10.0016,0,10.0016"/>
          <path class="uuid-b96ea201-e8a9-4196-b723-19b117a85552" d="M496.1819,413.1578s-7.1579-3.1824-7.7547,10.0468"/>
          <path class="uuid-b96ea201-e8a9-4196-b723-19b117a85552" d="M513.1649,422.0059s6.8245,7.7138-4.8287,13.1846"/>
          <path class="uuid-a556db0e-5457-4726-a150-167f7311dfef" d="M495.9742,419.7487c-1.9694-6.638,4.6845-7.0834,5.457-1.7354s-3.8876,7.0254-5.457,1.7354Z"/>
          <path class="uuid-a556db0e-5457-4726-a150-167f7311dfef" d="M505.5564,420.9488c4.7096-5.0755,8.4817,.4239,4.2727,3.8124s-8.026,.2324-4.2727-3.8124Z"/>
          <ellipse cx="498.3112" cy="418.8917" rx=".8381" ry="1.2748" transform="translate(-64.8882 92.4093) rotate(-9.9506)"/>
          <ellipse cx="507.8394" cy="423.0672" rx="1.2748" ry=".8381" transform="translate(-152.3085 456.1045) rotate(-42.6618)"/>
        </g>
      </g>
    </g>
  </g>
</svg>