<?xml version="1.0" encoding="UTF-8"?>
<svg id="BACKGROUND" xmlns="http://www.w3.org/2000/svg" viewBox="0 0 600 600">
  <defs>
    <style>
      .cls-1 {
        stroke-miterlimit: 10;
      }

      .cls-1, .cls-2, .cls-3, .cls-4, .cls-5 {
        stroke: #000;
        stroke-width: 2px;
      }

      .cls-1, .cls-3 {
        fill: #ffff0d;
      }

      .cls-2 {
        fill: #ffc9f1;
      }

      .cls-2, .cls-3, .cls-4, .cls-5 {
        stroke-linejoin: round;
      }

      .cls-4 {
        fill: #ff78d8;
      }

      .cls-5 {
        fill: #9dfd14;
      }
    </style>
  </defs>
  <path class="cls-5" d="m513.09,341.88c-1.86-2.47-1.89-5.68-.85-8.49.52-1.4,1.38-2.65,2.42-3.75-.22-.03-.45-.05-.67-.09-2.1-.38-4.21-1.08-5.7-2.67-.65.95-1.5,1.78-2.49,2.45,1.35,6.48,3.11,13.22,5.27,20.18.87-1.6,2.22-3.01,3.87-4.07.56-.36,1.14-.68,1.74-.98-1.39-.55-2.66-1.35-3.57-2.56Z"/>
  <g>
    <path class="cls-5" d="m530.03,363.35c-3.23.76-6.81.52-9.92-.23-1.77-.42-3.55-1.04-5.14-1.95,4.38,12.12,9.87,24.8,16.45,37.85l11.42-5.04s-6.45-13.95-12.81-30.63Z"/>
    <path class="cls-5" d="m507.61,316.05c1.39-2.23,3.59-3.99,5.81-5.38.98-.62,2.02-1.15,3.1-1.61-.51-9.02.17-19.4,3.94-33.21-4.87-.59-9.25-2.96-12.44-6.47-4.85,14.83-5.7,30.1-4.7,43.07,1.21.7,2.92,1.89,4.29,3.6Z"/>
    <path class="cls-1" d="m543.02,394.41c.61,1.62-1.5,3.92-4.71,5.14-3.21,1.22-6.32.9-6.93-.72s1.49-3.92,4.71-5.14c3.21-1.22,6.32-.9,6.93.72Z"/>
    <circle class="cls-4" cx="528.74" cy="272.15" r="20.41"/>
    <circle class="cls-4" cx="541.91" cy="217.61" r="20.41"/>
    <circle class="cls-4" cx="488.99" cy="233.69" r="20.41"/>
    <circle class="cls-2" cx="551.96" cy="248.9" r="20.41"/>
    <circle class="cls-2" cx="513.31" cy="210.7" r="20.41"/>
    <circle class="cls-2" cx="500.14" cy="265.24" r="20.41"/>
    <circle class="cls-3" cx="520.47" cy="241.29" r="18.62"/>
  </g>
</svg>